# This file uses centimeters as units for non-parametric coordinates.

v 6.297188 0.475287 -3.962135
v 1.688309 0.475287 -8.026772
v -4.607887 0.475287 -6.539040
v -6.295509 0.475287 -0.985756
v -1.686630 0.475287 3.078880
v 4.609909 0.475287 1.590233
v 6.297188 80.481323 -3.962135
v 1.688309 80.481323 -8.026772
v -4.607887 80.481323 -6.539040
v -6.295509 80.481323 -0.985756
v -1.686630 80.481323 3.078880
v 4.609909 80.481323 1.590233
v 43.809471 80.481323 -99.998810
v -43.808136 80.481323 -99.998810
v -43.808136 80.481323 82.299164
v 43.809471 80.481323 82.299164
v 43.809471 85.857376 -99.998810
v -43.808136 85.857376 -99.998810
v -43.808136 85.857376 82.299164
v 43.809471 85.857376 82.299164
v 0.001030 80.481323 -2.474403
v 40.998577 85.857376 -96.929451
v -38.979073 85.857376 -93.868805
v -38.530273 85.857376 74.392700
v 40.998577 85.857376 76.961441
v 11.461792 0.475287 -5.183144
v 3.072433 0.475287 -12.581825
v -8.387985 0.475287 -9.873390
v -11.460114 0.475287 0.234642
v -3.071098 0.475287 7.633629
v 8.390732 0.475287 4.923973
v 11.461792 -5.533595 -5.183144
v 3.072433 -5.533595 -12.581825
v -8.387985 -5.533595 -9.873390
v -11.460114 -5.533595 0.234642
v -3.071098 -5.533595 7.633629
v 8.390732 -5.533595 4.923973
v 43.809471 80.481323 -8.849831
v 43.809471 85.857376 -8.849831
v 37.303387 85.857376 -12.102909
v -40.997238 85.857376 -9.984016
v -43.808136 85.857376 -8.849831
v -43.808136 80.481323 -8.849831
vt 0.091346 0.351455
vt 0.091346 0.351455
vt 0.091346 0.351455
vt 0.091346 0.351455
vt 0.091346 0.351455
vt 0.091345 0.351455
vt 0.091346 0.351455
vt 0.091346 0.351455
vt 0.091346 0.351455
vt 0.091346 0.351455
vt 0.091346 0.351455
vt 0.091346 0.351455
vt 0.091345 0.351455
vt 0.091346 0.351455
vt 0.091346 0.353611
vt 0.091346 0.353611
vt 0.091346 0.353611
vt 0.091346 0.353611
vt 0.091346 0.353611
vt 0.091346 0.353611
vt 0.091346 0.353611
vt 0.091346 0.353611
vt 0.026659 0.300424
vt 0.026659 0.300424
vt 0.026659 0.300424
vt 0.026659 0.300424
vt 0.026659 0.300424
vt 0.103564 0.181832
vt 0.103564 0.181832
vt 0.103564 0.181832
vt 0.103564 0.181832
vt 0.091346 0.353611
vt 0.091346 0.353611
vt 0.091346 0.353611
vt 0.091346 0.353611
vt 0.091346 0.353611
vt 0.091346 0.353611
vt 0.091346 0.353611
vt 0.091346 0.353611
vt 0.081276 0.251094
vt 0.081276 0.251094
vt 0.081276 0.251094
vt 0.081276 0.251094
vt 0.081276 0.251094
vt 0.081276 0.251094
vt 0.081276 0.251094
vt 0.081276 0.251094
vt 0.081276 0.251094
vt 0.081276 0.251094
vt 0.081276 0.251094
vt 0.081276 0.251094
vt 0.081276 0.251094
vt 0.081276 0.251094
vt 0.081276 0.251094
vt 0.081276 0.251094
vt 0.081276 0.251094
vt 0.081276 0.251094
vt 0.091346 0.353611
vt 0.026659 0.300424
vt 0.091346 0.353611
vt 0.091346 0.353611
vt 0.103564 0.181832
vt 0.091346 0.353611
vt 0.103564 0.181832
vt 0.091346 0.353611
vt 0.091346 0.353611
vt 0.091346 0.353611
vt 0.091346 0.353611
vt 0.026659 0.300424
vn 0.661437 0.000000 -0.750001
vn 0.661437 0.000000 -0.750001
vn 0.661437 0.000000 -0.750001
vn 0.661437 0.000000 -0.750001
vn -0.229958 0.000000 -0.973201
vn -0.229958 0.000000 -0.973201
vn -0.229958 0.000000 -0.973201
vn -0.229958 0.000000 -0.973201
vn -0.956794 0.000000 -0.290766
vn -0.956794 0.000000 -0.290766
vn -0.956794 0.000000 -0.290766
vn -0.956794 0.000000 -0.290766
vn -0.661437 0.000000 0.750001
vn -0.661437 0.000000 0.750001
vn -0.661437 0.000000 0.750001
vn -0.661437 0.000000 0.750001
vn 0.230080 0.000000 0.973172
vn 0.230080 0.000000 0.973172
vn 0.230080 0.000000 0.973172
vn 0.230080 0.000000 0.973172
vn 0.956797 0.000000 0.290756
vn 0.956797 0.000000 0.290756
vn 0.956797 0.000000 0.290756
vn 0.956797 0.000000 0.290756
vn 0.000000 0.000000 -1.000000
vn 0.000000 0.000000 -1.000000
vn 0.000000 0.000000 -1.000000
vn 0.000000 0.000000 -1.000000
vn -1.000000 0.000000 0.000000
vn -1.000000 0.000000 0.000000
vn -1.000000 0.000000 0.000000
vn -1.000000 0.000000 0.000000
vn 0.000000 0.000000 1.000000
vn 0.000000 0.000000 1.000000
vn 0.000000 0.000000 1.000000
vn 0.000000 0.000000 1.000000
vn 1.000000 0.000000 0.000000
vn 1.000000 0.000000 0.000000
vn 1.000000 0.000000 0.000000
vn 1.000000 0.000000 0.000000
vn 0.000000 -1.000000 -0.000000
vn 0.000000 -1.000000 -0.000000
vn 0.000000 -1.000000 0.000000
vn 0.000000 -1.000000 0.000000
vn 0.000000 -1.000000 0.000000
vn 0.000000 -1.000000 -0.000000
vn 0.000000 -1.000000 0.000000
vn 0.000000 -1.000000 0.000000
vn 0.000000 -1.000000 0.000000
vn 0.000000 -1.000000 0.000000
vn 0.000000 -1.000000 -0.000000
vn 0.000000 -1.000000 0.000000
vn 0.000000 -1.000000 0.000000
vn 0.000000 -1.000000 0.000000
vn 0.000000 1.000000 0.000000
vn 0.000000 1.000000 -0.000000
vn 0.000000 1.000000 -0.000000
vn 0.000000 1.000000 0.000000
vn 0.000000 1.000000 0.000000
vn 0.000000 1.000000 0.000000
vn 0.000000 1.000000 0.000000
vn 0.000000 1.000000 0.000000
vn 0.000000 1.000000 0.000000
vn 0.000000 1.000000 0.000000
vn 0.000000 1.000000 0.000000
vn 0.000000 1.000000 0.000000
vn 0.000000 1.000000 0.000001
vn 0.000000 1.000000 0.000001
vn 0.000000 1.000000 0.000001
vn 0.000000 1.000000 0.000001
vn 0.000000 1.000000 0.000000
vn 0.000000 1.000000 0.000000
vn 0.000000 1.000000 0.000000
vn 0.000000 1.000000 0.000000
vn 0.000000 1.000000 0.000000
vn 0.000000 1.000000 0.000000
vn 0.000000 1.000000 0.000000
vn 0.000000 1.000000 0.000000
vn 0.000000 1.000000 -0.000000
vn 0.000000 1.000000 -0.000000
vn 0.000000 1.000000 -0.000000
vn 0.000000 1.000000 -0.000000
vn 0.000000 1.000000 0.000000
vn 0.000000 1.000000 0.000000
vn 0.000000 1.000000 0.000000
vn 0.000000 1.000000 0.000000
vn 0.000000 1.000000 -0.000000
vn 0.000000 1.000000 -0.000000
vn 0.000000 1.000000 -0.000000
vn 0.000000 1.000000 -0.000000
vn 0.000000 1.000000 0.000000
vn 0.000000 1.000000 0.000000
vn 0.000000 1.000000 0.000000
vn 0.000000 1.000000 0.000000
vn 0.000000 1.000000 0.000000
vn 0.000000 1.000000 0.000000
vn 0.000000 1.000000 0.000000
vn 0.000000 1.000000 0.000000
vn 0.661436 0.000000 -0.750002
vn 0.661436 0.000000 -0.750002
vn 0.661436 0.000000 -0.750002
vn 0.661436 0.000000 -0.750002
vn -0.229994 0.000000 -0.973192
vn -0.229994 0.000000 -0.973192
vn -0.229994 0.000000 -0.973192
vn -0.229994 0.000000 -0.973192
vn -0.956785 0.000000 -0.290795
vn -0.956785 0.000000 -0.290795
vn -0.956785 0.000000 -0.290795
vn -0.956785 0.000000 -0.290795
vn -0.661467 0.000000 0.749975
vn -0.661467 0.000000 0.749975
vn -0.661467 0.000000 0.749975
vn -0.661467 0.000000 0.749975
vn 0.230065 0.000000 0.973175
vn 0.230065 0.000000 0.973175
vn 0.230065 0.000000 0.973175
vn 0.230065 0.000000 0.973175
vn 0.956806 0.000000 0.290727
vn 0.956806 0.000000 0.290727
vn 0.956806 0.000000 0.290727
vn 0.956806 0.000000 0.290727
vn 1.000000 0.000000 0.000000
vn 1.000000 0.000000 0.000000
vn 1.000000 0.000000 0.000000
vn 1.000000 0.000000 0.000000
vn 0.000000 1.000000 0.000000
vn 0.000000 1.000000 0.000000
vn 0.000000 1.000000 0.000000
vn 0.000000 1.000000 0.000000
vn 0.000000 1.000000 -0.000000
vn 0.000000 1.000000 -0.000000
vn 0.000000 1.000000 -0.000000
vn 0.000000 1.000000 -0.000000
vn 0.000000 1.000000 0.000000
vn 0.000000 1.000000 0.000000
vn 0.000000 1.000000 0.000000
vn 0.000000 1.000000 0.000000
vn -1.000000 0.000000 0.000000
vn -1.000000 0.000000 0.000000
vn -1.000000 0.000000 0.000000
vn -1.000000 0.000000 0.000000
s off
f 1/1/1 2/2/2 8/9/3 7/8/4
f 2/2/5 3/3/6 9/10/7 8/9/8
f 3/3/9 4/4/10 10/11/11 9/10/12
f 4/4/13 5/5/14 11/12/15 10/11/16
f 5/5/17 6/6/18 12/13/19 11/12/20
f 6/6/21 1/7/22 7/14/23 12/13/24
f 17/16/25 13/15/26 14/17/27 18/18/28
f 42/67/29 43/68/30 15/19/31 19/20/32
f 19/20/33 15/19/34 16/21/35 20/22/36
f 20/22/37 16/21/38 38/58/39 39/61/40
f 14/25/41 13/23/42 21/24/43
f 15/26/44 43/69/45 14/25/46 21/24/47
f 16/27/48 15/26/49 21/24/50
f 13/23/51 38/59/52 16/27/53 21/24/54
f 25/31/55 40/62/56 41/64/57 24/30/58
f 22/33/59 17/32/60 18/34/61 23/35/62
f 41/65/63 42/66/64 19/36/65 24/37/66
f 24/37/67 19/36/68 20/38/69 25/39/70
f 40/63/71 25/39/72 20/38/73 39/60/74
f 2/40/75 1/41/76 26/42/77 27/43/78
f 3/44/79 2/40/80 27/43/81 28/45/82
f 4/46/83 3/44/84 28/45/85 29/47/86
f 5/48/87 4/46/88 29/47/89 30/49/90
f 6/50/91 5/48/92 30/49/93 31/51/94
f 1/41/95 6/50/96 31/51/97 26/42/98
f 27/43/99 26/42/100 32/52/101 33/53/102
f 28/45/103 27/43/104 33/53/105 34/54/106
f 29/47/107 28/45/108 34/54/109 35/55/110
f 30/49/111 29/47/112 35/55/113 36/56/114
f 31/51/115 30/49/116 36/56/117 37/57/118
f 26/42/119 31/51/120 37/57/121 32/52/122
f 39/61/123 38/58/124 13/15/125 17/16/126
f 22/33/127 40/63/128 39/60/129 17/32/130
f 41/64/131 40/62/132 22/28/133 23/29/134
f 23/35/135 18/34/136 42/66/137 41/65/138
f 18/18/139 14/17/140 43/68/141 42/67/142
