# This file uses centimeters as units for non-parametric coordinates.

v 218.094879 -33.017960 -8.435516
v 218.094879 -16.040192 -13.463287
v 218.094879 -3.611298 -27.199554
v 218.094879 0.937881 -45.114288
v 199.456085 -33.017960 21.659393
v 199.456085 -2.424927 12.599640
v 199.456085 19.971008 -12.152252
v 199.456085 28.168411 -45.114288
v 172.522247 -33.017960 38.360748
v 172.522247 5.131111 27.063446
v 172.522247 33.058014 -3.801422
v 172.522247 43.280029 -45.114288
v -172.522141 -33.017960 38.360748
v -172.522141 5.131111 27.063446
v -172.522141 33.058014 -3.801422
v -172.522141 43.280029 -45.114288
v -199.456009 -33.017960 21.659393
v -199.456009 -2.424927 12.599640
v -199.456009 19.971008 -12.152252
v -199.456009 28.168411 -45.114288
v -218.094803 -33.017960 -8.435516
v -218.094803 -16.040192 -13.463287
v -218.094803 -3.611298 -27.199554
v -218.094803 0.937881 -45.114288
v 224.746994 -33.017960 -45.114288
v -224.746994 -33.017960 -45.114288
v 218.094879 -49.016190 -8.435516
v 199.456085 -49.016190 21.659393
v 172.522247 -44.881363 38.360748
v -172.522141 -49.016190 38.360748
v -199.456009 -49.016190 21.659393
v -218.094803 -49.016190 -8.435516
v 224.746994 -49.016190 -45.114288
v -224.746994 -49.016190 -45.114288
v 224.649445 -30.149078 -5.823517
v 224.619278 -14.813725 -11.115875
v 203.465302 3.449669 16.358795
v 204.367889 -32.414017 26.693573
v 224.619278 -1.487274 -25.844269
v 204.322922 23.984070 -9.591217
v 224.543167 3.161583 -45.114288
v 204.245026 32.483368 -45.114288
v 173.470947 6.841011 34.148407
v 174.405319 -29.592590 45.114288
v 170.726898 38.399734 0.585480
v 174.337418 49.016190 -45.114288
v -171.395370 7.345886 33.105927
v -174.405197 -32.228546 45.114288
v -174.378616 38.399734 -0.393219
v -174.337326 49.016190 -45.114288
v -204.322891 -0.107803 17.035065
v -204.367813 -29.870377 26.693573
v -206.816849 24.348907 -12.886505
v -204.244980 32.483368 -45.114288
v -224.619217 -14.813725 -11.115875
v -224.649368 -32.692719 -5.823517
v -224.619217 -1.487274 -25.844269
v -224.543106 3.161583 -45.114288
v 231.699829 -32.460667 -45.114288
v -231.699844 -32.460667 -45.114288
v 204.320923 -49.016190 26.521759
v 224.576431 -49.016190 -5.959015
v 174.383881 -44.881363 44.895477
v -174.383774 -49.016190 44.895477
v -204.320877 -49.016190 26.521759
v -224.576401 -49.016190 -5.959015
v 231.703629 -49.016190 -45.114288
v -231.703629 -49.016190 -45.114288
v 79.575676 7.093449 33.627167
v -89.281097 -28.125366 45.114288
v 64.701797 -46.948776 44.895477
v 64.701927 -46.948776 38.360748
v 64.701927 -33.017960 38.360748
v 64.701927 5.131111 27.063446
v -53.436676 29.008043 -3.801422
v -53.436676 39.230057 -45.114288
v -53.436890 44.966217 -45.114288
v -79.607422 34.349762 0.096130
vt 0.103237 0.182537
vt 0.103237 0.182537
vt 0.103237 0.182537
vt 0.103237 0.182537
vt 0.103237 0.182537
vt 0.103237 0.182537
vt 0.103237 0.182537
vt 0.103237 0.182537
vt 0.103237 0.182537
vt 0.103237 0.182537
vt 0.103237 0.182537
vt 0.103237 0.182537
vt 0.103237 0.182537
vt 0.103237 0.182537
vt 0.103237 0.182537
vt 0.103237 0.182537
vt 0.103237 0.182537
vt 0.103237 0.182537
vt 0.103237 0.182537
vt 0.103237 0.182537
vt 0.103237 0.182537
vt 0.103237 0.182537
vt 0.103237 0.182537
vt 0.103237 0.182537
vt 0.103237 0.182537
vt 0.103237 0.182537
vt 0.103237 0.182537
vt 0.103237 0.182537
vt 0.103237 0.182537
vt 0.103237 0.182537
vt 0.103777 0.156626
vt 0.103777 0.156626
vt 0.103777 0.156626
vt 0.103777 0.156626
vt 0.103777 0.156626
vt 0.103777 0.156626
vt 0.103778 0.156626
vt 0.103778 0.156626
vt 0.103778 0.156626
vt 0.103778 0.156626
vt 0.103778 0.156626
vt 0.103778 0.156626
vt 0.103777 0.156626
vt 0.103777 0.156626
vt 0.103778 0.156626
vt 0.103778 0.156626
vt 0.103237 0.182537
vt 0.103237 0.182537
vt 0.103237 0.182537
vt 0.103237 0.182537
vt 0.103237 0.182537
vt 0.103237 0.182537
vt 0.103237 0.182537
vt 0.103237 0.182537
vt 0.103237 0.182537
vt 0.103237 0.182537
vt 0.103237 0.182537
vt 0.103237 0.182537
vt 0.103237 0.182537
vt 0.103237 0.182537
vt 0.103237 0.182537
vt 0.103237 0.182537
vt 0.103237 0.182537
vt 0.103237 0.182537
vt 0.103237 0.182537
vt 0.103237 0.182537
vt 0.103237 0.182537
vt 0.103237 0.182537
vt 0.103237 0.182537
vt 0.103237 0.182537
vt 0.103237 0.182537
vt 0.103237 0.182537
vt 0.103237 0.182537
vt 0.103237 0.182537
vt 0.103237 0.182537
vt 0.103237 0.182537
vt 0.103777 0.156626
vt 0.103777 0.156626
vt 0.103777 0.156626
vt 0.103777 0.156626
vt 0.103777 0.156626
vt 0.103777 0.156626
vt 0.103778 0.156626
vt 0.103778 0.156626
vt 0.103778 0.156626
vt 0.103778 0.156626
vt 0.103778 0.156626
vt 0.103778 0.156626
vt 0.103777 0.156626
vt 0.103777 0.156626
vt 0.103778 0.156626
vt 0.103778 0.156626
vt 0.103237 0.182537
vt 0.103237 0.182537
vt 0.103237 0.182537
vt 0.103237 0.182537
vt 0.103237 0.182537
vt 0.103237 0.182537
vt 0.103237 0.182537
vt 0.103237 0.182537
vt 0.103237 0.182537
vt 0.103777 0.156626
vt 0.103237 0.182537
vt 0.103777 0.156626
vt 0.103777 0.156626
vt 0.103237 0.182537
vt 0.103777 0.156626
vt 0.103237 0.182537
vt 0.103237 0.182537
vt 0.103237 0.182537
vt 0.103237 0.182537
vt 0.103237 0.182537
vt 0.103237 0.182537
vn 0.831294 0.176062 0.527212
vn 0.831294 0.176062 0.527212
vn 0.831294 0.176062 0.527212
vn 0.831294 0.176062 0.527212
vn 0.830104 0.419833 0.366971
vn 0.830104 0.419833 0.366971
vn 0.830104 0.419833 0.366971
vn 0.830104 0.419833 0.366971
vn 0.814835 0.564206 0.133097
vn 0.814835 0.564206 0.133097
vn 0.814835 0.564206 0.133097
vn 0.814835 0.564206 0.133097
vn 0.519189 0.253651 0.816152
vn 0.519189 0.253651 0.816152
vn 0.519189 0.253651 0.816152
vn 0.519189 0.253651 0.816152
vn 0.446207 0.680357 0.581389
vn 0.446207 0.680357 0.581389
vn 0.446207 0.680357 0.581389
vn 0.446207 0.680357 0.581389
vn 0.455698 0.861838 0.222653
vn 0.455698 0.861838 0.222653
vn 0.455698 0.861838 0.222653
vn 0.455698 0.861838 0.222653
vn 0.000047 0.298923 0.954277
vn 0.000047 0.298923 0.954277
vn 0.000047 0.298923 0.954277
vn 0.000047 0.298923 0.954277
vn -0.010136 0.739686 0.672876
vn -0.010136 0.739686 0.672876
vn -0.010136 0.739686 0.672876
vn -0.010136 0.739686 0.672876
vn -0.016743 0.974857 0.222202
vn -0.016743 0.974857 0.222202
vn -0.016743 0.974857 0.222202
vn -0.016743 0.974857 0.222202
vn -0.478898 0.280989 0.831686
vn -0.478898 0.280989 0.831686
vn -0.478898 0.280989 0.831686
vn -0.478898 0.280989 0.831686
vn -0.474443 0.641680 0.602620
vn -0.474443 0.641679 0.602620
vn -0.474443 0.641680 0.602620
vn -0.474443 0.641680 0.602620
vn -0.463174 0.864561 0.194947
vn -0.463174 0.864561 0.194947
vn -0.463174 0.864561 0.194947
vn -0.463174 0.864561 0.194947
vn -0.841211 0.163106 0.515520
vn -0.841211 0.163106 0.515520
vn -0.841211 0.163106 0.515520
vn -0.841211 0.163106 0.515520
vn -0.834580 0.396663 0.382276
vn -0.834580 0.396663 0.382276
vn -0.834580 0.396663 0.382276
vn -0.834580 0.396663 0.382276
vn -0.829339 0.550769 0.094073
vn -0.829339 0.550769 0.094073
vn -0.829340 0.550769 0.094073
vn -0.829339 0.550769 0.094073
vn 0.983036 0.061559 0.172775
vn 0.983036 0.061559 0.172775
vn 0.983036 0.061559 0.172775
vn 0.981096 0.143500 0.129841
vn 0.981096 0.143500 0.129841
vn 0.981096 0.143500 0.129841
vn 0.979478 0.196780 0.043604
vn 0.979478 0.196780 0.043604
vn 0.979478 0.196780 0.043604
vn -0.982790 0.053954 0.176674
vn -0.982790 0.053954 0.176674
vn -0.982790 0.053954 0.176674
vn -0.981096 0.143501 0.129842
vn -0.981096 0.143501 0.129842
vn -0.981096 0.143501 0.129842
vn -0.979477 0.196783 0.043605
vn -0.979477 0.196783 0.043605
vn -0.979477 0.196783 0.043605
vn 0.848599 -0.007454 0.528984
vn 0.848599 -0.007454 0.528984
vn 0.848599 -0.007454 0.528984
vn 0.848599 -0.007454 0.528984
vn 0.522397 -0.011564 0.852624
vn 0.522397 -0.011564 0.852624
vn 0.522397 -0.011564 0.852624
vn 0.522397 -0.011564 0.852624
vn 0.000020 -0.012735 0.999919
vn 0.000020 -0.012735 0.999919
vn 0.000020 -0.012735 0.999919
vn 0.000020 -0.012735 0.999919
vn -0.523672 -0.010257 0.851858
vn -0.523672 -0.010257 0.851858
vn -0.523672 -0.010257 0.851858
vn -0.523672 -0.010257 0.851858
vn -0.848337 -0.007455 0.529404
vn -0.848337 -0.007455 0.529404
vn -0.848337 -0.007455 0.529404
vn -0.848337 -0.007455 0.529404
vn 0.984041 -0.002604 0.177923
vn 0.984041 -0.002604 0.177923
vn 0.984041 -0.002604 0.177923
vn 0.984041 -0.002604 0.177923
vn -0.984055 -0.002803 0.177842
vn -0.984055 -0.002803 0.177842
vn -0.984055 -0.002803 0.177842
vn -0.984055 -0.002803 0.177842
vn -0.840006 -0.154064 -0.520244
vn -0.840006 -0.154064 -0.520244
vn -0.840006 -0.154064 -0.520244
vn -0.840006 -0.154064 -0.520244
vn -0.828561 -0.415173 -0.375657
vn -0.828561 -0.415173 -0.375657
vn -0.828561 -0.415173 -0.375657
vn -0.828561 -0.415173 -0.375657
vn -0.817668 -0.558431 -0.139908
vn -0.817668 -0.558431 -0.139908
vn -0.817668 -0.558431 -0.139908
vn -0.817668 -0.558431 -0.139908
vn -0.511058 -0.244066 -0.824167
vn -0.511058 -0.244066 -0.824167
vn -0.511058 -0.244066 -0.824167
vn -0.511058 -0.244066 -0.824167
vn -0.494103 -0.644677 -0.583313
vn -0.494103 -0.644677 -0.583313
vn -0.494103 -0.644677 -0.583313
vn -0.494103 -0.644677 -0.583313
vn -0.478818 -0.852104 -0.211313
vn -0.478818 -0.852104 -0.211313
vn -0.478818 -0.852104 -0.211313
vn -0.478818 -0.852104 -0.211313
vn 0.000000 -0.283947 -0.958840
vn 0.000000 -0.283947 -0.958840
vn 0.000000 -0.283947 -0.958840
vn 0.000000 -0.283947 -0.958840
vn 0.009188 -0.757245 -0.653067
vn 0.009188 -0.757245 -0.653067
vn 0.009188 -0.757245 -0.653067
vn 0.009188 -0.757244 -0.653067
vn 0.017396 -0.970580 -0.240150
vn 0.017396 -0.970580 -0.240150
vn 0.017396 -0.970580 -0.240150
vn 0.017396 -0.970580 -0.240150
vn 0.511057 -0.244066 -0.824168
vn 0.511057 -0.244066 -0.824168
vn 0.511057 -0.244066 -0.824168
vn 0.511057 -0.244066 -0.824168
vn 0.494102 -0.644677 -0.583313
vn 0.494102 -0.644677 -0.583313
vn 0.494102 -0.644677 -0.583313
vn 0.494102 -0.644677 -0.583313
vn 0.478817 -0.852104 -0.211313
vn 0.478817 -0.852104 -0.211313
vn 0.478817 -0.852104 -0.211313
vn 0.478817 -0.852104 -0.211313
vn 0.840006 -0.154064 -0.520244
vn 0.840006 -0.154064 -0.520244
vn 0.840006 -0.154064 -0.520244
vn 0.840006 -0.154064 -0.520244
vn 0.828561 -0.415173 -0.375657
vn 0.828561 -0.415173 -0.375657
vn 0.828561 -0.415173 -0.375657
vn 0.828561 -0.415173 -0.375657
vn 0.817668 -0.558431 -0.139908
vn 0.817668 -0.558431 -0.139908
vn 0.817668 -0.558431 -0.139908
vn 0.817668 -0.558431 -0.139908
vn -0.982578 -0.052773 -0.178202
vn -0.982578 -0.052773 -0.178202
vn -0.982578 -0.052773 -0.178202
vn -0.981206 -0.143086 -0.129468
vn -0.981206 -0.143086 -0.129468
vn -0.981206 -0.143086 -0.129468
vn -0.980179 -0.192021 -0.048761
vn -0.980179 -0.192021 -0.048761
vn -0.980179 -0.192021 -0.048761
vn 0.982577 -0.052774 -0.178204
vn 0.982577 -0.052774 -0.178204
vn 0.982577 -0.052774 -0.178204
vn 0.981205 -0.143088 -0.129470
vn 0.981205 -0.143088 -0.129470
vn 0.981205 -0.143088 -0.129470
vn 0.980178 -0.192024 -0.048762
vn 0.980178 -0.192024 -0.048762
vn 0.980178 -0.192024 -0.048762
vn -0.850156 0.000000 -0.526531
vn -0.850156 0.000000 -0.526531
vn -0.850156 0.000000 -0.526531
vn -0.850156 0.000000 -0.526531
vn -0.526994 0.000000 -0.849869
vn -0.526994 0.000000 -0.849869
vn -0.526994 0.000000 -0.849869
vn -0.526994 0.000000 -0.849869
vn 0.000000 0.000000 -1.000000
vn 0.000000 0.000000 -1.000000
vn 0.000000 0.000000 -1.000000
vn 0.000000 0.000000 -1.000000
vn 0.526993 0.000000 -0.849869
vn 0.526993 0.000000 -0.849869
vn 0.526993 0.000000 -0.849869
vn 0.526993 0.000000 -0.849869
vn 0.850156 0.000000 -0.526531
vn 0.850156 0.000000 -0.526531
vn 0.850156 0.000000 -0.526531
vn 0.850156 0.000000 -0.526531
vn -0.983949 0.000000 -0.178450
vn -0.983949 0.000000 -0.178450
vn -0.983949 0.000000 -0.178450
vn -0.983949 0.000000 -0.178450
vn 0.983949 0.000000 -0.178452
vn 0.983949 0.000000 -0.178452
vn 0.983949 0.000000 -0.178452
vn 0.983949 0.000000 -0.178452
vn -0.000000 0.000000 -1.000000
vn -0.000000 0.000000 -1.000000
vn -0.000000 0.000000 -1.000000
vn -0.000000 0.000000 -1.000000
vn 0.000000 0.000000 -1.000000
vn 0.000000 0.000000 -1.000000
vn 0.000000 0.000000 -1.000000
vn 0.000000 0.000000 -1.000000
vn 0.000000 0.000000 -1.000000
vn 0.000000 0.000000 -1.000000
vn 0.000000 0.000000 -1.000000
vn 0.000000 0.000000 -1.000000
vn 0.000000 0.000000 -1.000000
vn 0.000000 0.000000 -1.000000
vn 0.000000 0.000000 -1.000000
vn 0.000000 0.000000 -1.000000
vn -0.000000 0.000000 -1.000000
vn -0.000000 0.000000 -1.000000
vn -0.000000 0.000000 -1.000000
vn -0.000000 0.000000 -1.000000
vn -0.000000 0.000000 -1.000000
vn -0.000000 0.000000 -1.000000
vn -0.000000 0.000000 -1.000000
vn -0.000000 0.000000 -1.000000
vn -0.000000 0.000000 -1.000000
vn -0.000000 0.000000 -1.000000
vn -0.000000 0.000000 -1.000000
vn -0.000000 0.000000 -1.000000
vn 0.000000 -1.000000 0.000000
vn 0.000000 -1.000000 0.000000
vn 0.000000 -1.000000 0.000000
vn 0.000000 -1.000000 0.000000
vn -0.105799 -0.992425 0.062442
vn -0.105799 -0.992425 0.062442
vn -0.105799 -0.992425 0.062442
vn -0.105799 -0.992425 0.062442
vn 0.019007 -0.999816 -0.002707
vn 0.019007 -0.999816 -0.002707
vn 0.019007 -0.999816 -0.002707
vn 0.019007 -0.999816 -0.002707
vn 0.000000 -1.000000 0.000000
vn 0.000000 -1.000000 0.000000
vn 0.000000 -1.000000 0.000000
vn 0.000000 -1.000000 0.000000
vn 0.000000 -1.000000 0.000000
vn 0.000000 -1.000000 0.000000
vn 0.000000 -1.000000 0.000000
vn 0.000000 -1.000000 0.000000
vn 0.000000 -1.000000 -0.000000
vn 0.000000 -1.000000 -0.000000
vn 0.000000 -1.000000 -0.000000
vn 0.000000 -1.000000 -0.000000
vn 0.000000 0.000000 -1.000000
vn 0.000000 0.000000 -1.000000
vn 0.000000 0.000000 -1.000000
vn 0.000000 0.000000 -1.000000
vn -0.000000 0.000000 -1.000000
vn -0.000000 0.000000 -1.000000
vn -0.000000 0.000000 -1.000000
vn -0.000000 0.000000 -1.000000
vn 0.000000 -1.000000 0.000000
vn 0.000000 -1.000000 0.000000
vn 0.000000 -1.000000 0.000000
vn 0.000000 -1.000000 0.000000
vn -0.005028 0.310194 0.950660
vn -0.005028 0.310194 0.950660
vn -0.005028 0.310194 0.950660
vn -0.005028 0.310194 0.950660
vn 0.000216 -0.011354 0.999936
vn 0.000216 -0.011354 0.999936
vn 0.000216 -0.011354 0.999936
vn 0.000216 -0.011354 0.999936
vn 0.008681 -0.999962 0.001237
vn 0.008681 -0.999962 0.001237
vn 0.008681 -0.999962 0.001237
vn 0.008681 -0.999962 0.001237
vn 0.000000 0.000000 -1.000000
vn 0.000000 0.000000 -1.000000
vn 0.000000 0.000000 -1.000000
vn 0.000000 0.000000 -1.000000
vn 0.000000 -0.283947 -0.958840
vn 0.000000 -0.283947 -0.958840
vn 0.000000 -0.283947 -0.958840
vn 0.000000 -0.283947 -0.958840
vn -0.008800 -0.774205 -0.632874
vn -0.008800 -0.774205 -0.632874
vn -0.008800 -0.774205 -0.632874
vn -0.008800 -0.774205 -0.632874
vn -0.032995 -0.970198 -0.240056
vn -0.032995 -0.970198 -0.240056
vn -0.032995 -0.970198 -0.240056
vn -0.032995 -0.970198 -0.240056
vn 0.000000 0.000000 -1.000000
vn 0.000000 0.000000 -1.000000
vn 0.000000 0.000000 -1.000000
vn 0.000000 0.000000 -1.000000
vn 0.035895 0.970224 0.239533
vn 0.035895 0.970224 0.239533
vn 0.035895 0.970224 0.239533
vn 0.035895 0.970224 0.239533
vn 0.007613 0.763503 0.645759
vn 0.007613 0.763503 0.645759
vn 0.007613 0.763503 0.645759
vn 0.007613 0.763503 0.645759
s off
f 35/1/1 36/2/2 37/3/3 38/4/4
f 36/2/5 39/5/6 40/6/7 37/3/8
f 39/5/9 41/7/10 42/8/11 40/6/12
f 38/4/13 37/3/14 43/9/15 44/10/16
f 37/3/17 40/6/18 45/11/19 43/9/20
f 40/6/21 42/8/22 46/12/23 45/11/24
f 44/10/25 43/9/26 69/101/27 70/103/28
f 43/9/29 45/11/30 78/113/31 69/101/32
f 45/11/33 46/12/34 77/112/35 78/113/36
f 48/14/37 47/13/38 51/17/39 52/18/40
f 47/13/41 49/15/42 53/19/43 51/17/44
f 49/15/45 50/16/46 54/20/47 53/19/48
f 52/18/49 51/17/50 55/21/51 56/22/52
f 51/17/53 53/19/54 57/23/55 55/21/56
f 53/19/57 54/20/58 58/24/59 57/23/60
f 36/2/61 35/1/62 59/25/63
f 39/5/64 36/2/65 59/26/66
f 41/7/67 39/5/68 59/27/69
f 56/22/70 55/21/71 60/28/72
f 55/21/73 57/23/74 60/29/75
f 57/23/76 58/24/77 60/30/78
f 35/31/79 38/32/80 61/33/81 62/34/82
f 38/32/83 44/35/84 63/36/85 61/33/86
f 44/35/87 70/102/88 71/104/89 63/36/90
f 48/37/91 52/39/92 65/40/93 64/38/94
f 52/39/95 56/41/96 66/42/97 65/40/98
f 59/43/99 35/31/100 62/34/101 67/44/102
f 56/41/103 60/45/104 68/46/105 66/42/106
f 1/47/107 5/48/108 6/49/109 2/50/110
f 2/50/111 6/49/112 7/51/113 3/52/114
f 3/52/115 7/51/116 8/53/117 4/54/118
f 5/48/119 9/55/120 10/56/121 6/49/122
f 6/49/123 10/56/124 11/57/125 7/51/126
f 7/51/127 11/57/128 12/58/129 8/53/130
f 9/55/131 73/106/132 74/108/133 10/56/134
f 10/56/135 74/108/136 75/109/137 11/57/138
f 11/57/139 75/109/140 76/111/141 12/58/142
f 13/59/143 17/63/144 18/64/145 14/60/146
f 14/60/147 18/64/148 19/65/149 15/61/150
f 15/61/151 19/65/152 20/66/153 16/62/154
f 17/63/155 21/67/156 22/68/157 18/64/158
f 18/64/159 22/68/160 23/69/161 19/65/162
f 19/65/163 23/69/164 24/70/165 20/66/166
f 2/50/167 25/71/168 1/47/169
f 3/52/170 25/72/171 2/50/172
f 4/54/173 25/73/174 3/52/175
f 21/67/176 26/74/177 22/68/178
f 22/68/179 26/75/180 23/69/181
f 23/69/182 26/76/183 24/70/184
f 1/77/185 27/78/186 28/79/187 5/80/188
f 5/80/189 28/79/190 29/81/191 9/82/192
f 9/82/193 29/81/194 72/105/195 73/107/196
f 13/84/197 30/83/198 31/85/199 17/86/200
f 17/86/201 31/85/202 32/87/203 21/88/204
f 25/89/205 33/90/206 27/78/207 1/77/208
f 21/88/209 32/87/210 34/91/211 26/92/212
f 4/93/213 8/94/214 42/8/215 41/7/216
f 8/94/217 12/95/218 46/12/219 42/8/220
f 12/95/221 76/110/222 77/112/223 46/12/224
f 16/96/225 20/97/226 54/20/227 50/16/228
f 20/97/229 24/98/230 58/24/231 54/20/232
f 25/99/233 4/93/234 41/7/235 59/27/236
f 24/98/237 26/100/238 60/30/239 58/24/240
f 28/79/241 27/78/242 62/34/243 61/33/244
f 29/81/245 28/79/246 61/33/247 63/36/248
f 72/105/249 29/81/250 63/36/251 71/104/252
f 31/85/253 30/83/254 64/38/255 65/40/256
f 32/87/257 31/85/258 65/40/259 66/42/260
f 27/78/261 33/90/262 67/44/263 62/34/264
f 33/90/265 25/89/266 59/43/267 67/44/268
f 26/92/269 34/91/270 68/46/271 60/45/272
f 34/91/273 32/87/274 66/42/275 68/46/276
f 70/103/277 69/101/278 47/13/279 48/14/280
f 71/104/281 70/102/282 48/37/283 64/38/284
f 30/83/285 72/105/286 71/104/287 64/38/288
f 73/107/289 72/105/290 30/83/291 13/84/292
f 74/108/293 73/106/294 13/59/295 14/60/296
f 75/109/297 74/108/298 14/60/299 15/61/300
f 76/111/301 75/109/302 15/61/303 16/62/304
f 77/112/305 76/110/306 16/96/307 50/16/308
f 78/113/309 77/112/310 50/16/311 49/15/312
f 69/101/313 78/113/314 49/15/315 47/13/316
