# This file uses centimeters as units for non-parametric coordinates.

v -688.604675 1819.765381 5000.000000
v -679.378235 1819.765381 5000.000000
v -688.604675 1828.991699 5000.000000
v -679.378235 1828.991699 5000.000000
v -688.604675 1828.991699 0.000000
v -679.378235 1828.991699 0.000000
v -688.604675 1819.765381 0.000000
v -679.378235 1819.765381 0.000000
v -688.604675 1762.349854 4000.000000
v -688.604675 1771.576294 4000.000000
v -679.378235 1771.576294 4000.000000
v -679.378235 1762.349854 4000.000000
v -688.604675 1729.964844 3000.000000
v -688.604675 1739.191284 3000.000000
v -679.378235 1739.191284 3000.000000
v -679.378235 1729.964844 3000.000000
v -688.604675 1729.964844 1999.999878
v -688.604675 1739.191284 1999.999878
v -679.378235 1739.191284 1999.999878
v -679.378235 1729.964844 1999.999878
v -688.604675 1762.349854 999.999939
v -688.604675 1771.576294 999.999939
v -679.378235 1771.576294 999.999939
v -679.378235 1762.349854 999.999939
v -582.660767 2477.892578 5000.000000
v -573.434326 2477.892578 5000.000000
v -582.660767 2487.119141 5000.000000
v -573.434326 2487.119141 5000.000000
v -582.660767 2487.119141 0.000000
v -573.434326 2487.119141 0.000000
v -582.660767 2477.892578 0.000000
v -573.434326 2477.892578 0.000000
v -582.660767 2420.477295 4000.000000
v -582.660767 2429.703613 4000.000000
v -573.434326 2429.703613 4000.000000
v -573.434326 2420.477295 4000.000000
v -582.660767 2388.092285 3000.000000
v -582.660767 2397.318604 3000.000000
v -573.434326 2397.318604 3000.000000
v -573.434326 2388.092285 3000.000000
v -582.660767 2388.092285 1999.999878
v -582.660767 2397.318604 1999.999878
v -573.434326 2397.318604 1999.999878
v -573.434326 2388.092285 1999.999878
v -582.660767 2420.477295 999.999939
v -582.660767 2429.703613 999.999939
v -573.434326 2429.703613 999.999939
v -573.434326 2420.477295 999.999939
v 688.604675 1819.765381 5000.000000
v 679.378235 1819.765381 5000.000000
v 688.604675 1828.991699 5000.000000
v 679.378235 1828.991699 5000.000000
v 688.604675 1828.991699 0.000000
v 679.378235 1828.991699 0.000000
v 688.604675 1819.765381 0.000000
v 679.378235 1819.765381 0.000000
v 688.604675 1762.349854 4000.000000
v 688.604675 1771.576294 4000.000000
v 679.378235 1771.576294 4000.000000
v 679.378235 1762.349854 4000.000000
v 688.604675 1729.964844 3000.000000
v 688.604675 1739.191284 3000.000000
v 679.378235 1739.191284 3000.000000
v 679.378235 1729.964844 3000.000000
v 688.604675 1729.964844 1999.999878
v 688.604675 1739.191284 1999.999878
v 679.378235 1739.191284 1999.999878
v 679.378235 1729.964844 1999.999878
v 688.604675 1762.349854 999.999939
v 688.604675 1771.576294 999.999939
v 679.378235 1771.576294 999.999939
v 679.378235 1762.349854 999.999939
v 582.660767 2477.892578 5000.000000
v 573.434326 2477.892578 5000.000000
v 582.660767 2487.119141 5000.000000
v 573.434326 2487.119141 5000.000000
v 582.660767 2487.119141 0.000000
v 573.434326 2487.119141 0.000000
v 582.660767 2477.892578 0.000000
v 573.434326 2477.892578 0.000000
v 582.660767 2420.477295 4000.000000
v 582.660767 2429.703613 4000.000000
v 573.434326 2429.703613 4000.000000
v 573.434326 2420.477295 4000.000000
v 582.660767 2388.092285 3000.000000
v 582.660767 2397.318604 3000.000000
v 573.434326 2397.318604 3000.000000
v 573.434326 2388.092285 3000.000000
v 582.660767 2388.092285 1999.999878
v 582.660767 2397.318604 1999.999878
v 573.434326 2397.318604 1999.999878
v 573.434326 2388.092285 1999.999878
v 582.660767 2420.477295 999.999939
v 582.660767 2429.703613 999.999939
v 573.434326 2429.703613 999.999939
v 573.434326 2420.477295 999.999939
vt 0.080177 0.233108
vt 0.080177 0.233108
vt 0.080177 0.233108
vt 0.080177 0.233108
vt 0.080177 0.233108
vt 0.080177 0.233108
vt 0.080177 0.233108
vt 0.080177 0.233108
vt 0.080177 0.233108
vt 0.080177 0.233108
vt 0.080177 0.233108
vt 0.080177 0.233108
vt 0.080177 0.233108
vt 0.080177 0.233108
vt 0.080177 0.233108
vt 0.080177 0.233108
vt 0.080177 0.233108
vt 0.080177 0.233108
vt 0.080177 0.233108
vt 0.080177 0.233108
vt 0.080177 0.233108
vt 0.080177 0.233108
vt 0.080177 0.233108
vt 0.080177 0.233108
vt 0.080177 0.233108
vt 0.080177 0.233108
vt 0.080177 0.233108
vt 0.080177 0.233108
vt 0.080177 0.233108
vt 0.080177 0.233108
vt 0.080177 0.233108
vt 0.080177 0.233108
vt 0.080177 0.233108
vt 0.080177 0.233108
vt 0.080177 0.233108
vt 0.080177 0.233108
vt 0.080177 0.233108
vt 0.080177 0.233108
vt 0.080177 0.233108
vt 0.080177 0.233108
vt 0.080177 0.233108
vt 0.080177 0.233108
vt 0.080177 0.233108
vt 0.080177 0.233108
vt 0.080177 0.233108
vt 0.080177 0.233108
vt 0.080177 0.233108
vt 0.080177 0.233108
vt 0.080177 0.233108
vt 0.080177 0.233108
vt 0.080177 0.233108
vt 0.080177 0.233108
vt 0.080177 0.233108
vt 0.080177 0.233108
vt 0.080177 0.233108
vt 0.080177 0.233108
vt 0.080177 0.233108
vt 0.080177 0.233108
vt 0.080177 0.233108
vt 0.080177 0.233108
vt 0.080177 0.233108
vt 0.080177 0.233108
vt 0.080177 0.233108
vt 0.080177 0.233108
vt 0.080177 0.233108
vt 0.080177 0.233108
vt 0.080177 0.233108
vt 0.080177 0.233108
vt 0.080177 0.233108
vt 0.080177 0.233108
vt 0.080177 0.233108
vt 0.080177 0.233108
vt 0.080177 0.233108
vt 0.080177 0.233108
vt 0.080177 0.233108
vt 0.080177 0.233108
vt 0.080177 0.233108
vt 0.080177 0.233108
vt 0.080177 0.233108
vt 0.080177 0.233108
vt 0.080177 0.233108
vt 0.080177 0.233108
vt 0.080177 0.233108
vt 0.080177 0.233108
vt 0.080177 0.233108
vt 0.080177 0.233108
vt 0.080177 0.233108
vt 0.080177 0.233108
vt 0.080177 0.233108
vt 0.080177 0.233108
vt 0.080177 0.233108
vt 0.080177 0.233108
vt 0.080177 0.233108
vt 0.080177 0.233108
vt 0.080177 0.233108
vt 0.080177 0.233108
vt 0.080177 0.233108
vt 0.080177 0.233108
vt 0.080177 0.233108
vt 0.080177 0.233108
vt 0.080177 0.233108
vt 0.080177 0.233108
vt 0.080177 0.233108
vt 0.080177 0.233108
vt 0.080177 0.233108
vt 0.080177 0.233108
vt 0.080177 0.233108
vt 0.080177 0.233108
vt 0.080177 0.233108
vt 0.080177 0.233108
vt 0.080177 0.233108
vt 0.080177 0.233108
vt 0.080177 0.233108
vt 0.080177 0.233108
vt 0.080177 0.233108
vt 0.080177 0.233108
vt 0.080177 0.233108
vt 0.080177 0.233108
vt 0.080177 0.233108
vt 0.080177 0.233108
vt 0.080177 0.233108
vt 0.080177 0.233108
vt 0.080177 0.233108
vt 0.080177 0.233108
vt 0.080177 0.233108
vt 0.080177 0.233108
vt 0.080177 0.233108
vt 0.080177 0.233108
vt 0.080177 0.233108
vt 0.080177 0.233108
vt 0.080177 0.233108
vt 0.080177 0.233108
vt 0.080177 0.233108
vt 0.080177 0.233108
vt 0.080177 0.233108
vt 0.080177 0.233108
vt 0.080177 0.233108
vt 0.080177 0.233108
vt 0.080177 0.233108
vt 0.080177 0.233108
vt 0.080177 0.233108
vt 0.080177 0.233108
vt 0.080177 0.233108
vt 0.080177 0.233108
vt 0.080177 0.233108
vt 0.080177 0.233108
vt 0.080177 0.233108
vt 0.080177 0.233108
vt 0.080177 0.233108
vt 0.080177 0.233108
vt 0.080177 0.233108
vt 0.080177 0.233108
vt 0.080177 0.233108
vt 0.080177 0.233108
vt 0.080177 0.233108
vt 0.080177 0.233108
vt 0.080177 0.233108
vt 0.080177 0.233108
vt 0.080177 0.233108
vt 0.080177 0.233108
vt 0.080177 0.233108
vt 0.080177 0.233108
vt 0.080177 0.233108
vt 0.080177 0.233108
vt 0.080177 0.233108
vt 0.080177 0.233108
vt 0.080177 0.233108
vt 0.080177 0.233108
vt 0.080177 0.233108
vt 0.080177 0.233108
vt 0.080177 0.233108
vt 0.080177 0.233108
vt 0.080177 0.233108
vt 0.080177 0.233108
vt 0.080177 0.233108
vt 0.080177 0.233108
vt 0.080177 0.233108
vt 0.080177 0.233108
vt 0.080177 0.233108
vt 0.080177 0.233108
vt 0.080177 0.233108
vt 0.080177 0.233108
vt 0.080177 0.233108
vt 0.080177 0.233108
vn 0.000000 0.000000 1.000000
vn 0.000000 0.000000 1.000000
vn 0.000000 0.000000 1.000000
vn 0.000000 0.000000 1.000000
vn 0.000000 0.998994 0.044855
vn 0.000000 0.998994 0.044855
vn 0.000000 0.998356 0.057321
vn 0.000000 0.998356 0.057321
vn 0.000000 0.000000 -1.000000
vn 0.000000 0.000000 -1.000000
vn 0.000000 0.000000 -1.000000
vn 0.000000 0.000000 -1.000000
vn 0.000000 -0.998356 -0.057321
vn 0.000000 -0.998356 -0.057321
vn 0.000000 -0.998994 -0.044855
vn 0.000000 -0.998994 -0.044855
vn 1.000000 0.000000 0.000000
vn 1.000000 0.000000 0.000000
vn 1.000000 0.000000 0.000000
vn 1.000000 0.000000 0.000000
vn -1.000000 0.000000 0.000000
vn -1.000000 0.000000 0.000000
vn -1.000000 0.000000 0.000000
vn -1.000000 0.000000 0.000000
vn -1.000000 0.000000 0.000000
vn -1.000000 0.000000 0.000000
vn -1.000000 0.000000 0.000000
vn -1.000000 0.000000 0.000000
vn 0.000000 0.998356 -0.057321
vn 0.000000 0.998356 -0.057321
vn 0.000000 0.998994 -0.044855
vn 0.000000 0.998994 -0.044855
vn 1.000000 0.000000 0.000000
vn 1.000000 0.000000 0.000000
vn 1.000000 0.000000 0.000000
vn 1.000000 0.000000 0.000000
vn 0.000000 -0.998994 0.044855
vn 0.000000 -0.998994 0.044855
vn 0.000000 -0.998356 0.057321
vn 0.000000 -0.998356 0.057321
vn -1.000000 0.000000 0.000000
vn -1.000000 0.000000 0.000000
vn -1.000000 0.000000 0.000000
vn -1.000000 0.000000 0.000000
vn 0.000000 0.998994 -0.044855
vn 0.000000 0.998994 -0.044855
vn 0.000000 0.999869 -0.016190
vn 0.000000 0.999869 -0.016190
vn 1.000000 0.000000 0.000000
vn 1.000000 0.000000 0.000000
vn 1.000000 0.000000 0.000000
vn 1.000000 0.000000 0.000000
vn 0.000000 -0.999869 0.016190
vn 0.000000 -0.999869 0.016190
vn 0.000000 -0.998994 0.044855
vn 0.000000 -0.998994 0.044855
vn -1.000000 0.000000 0.000000
vn -1.000000 0.000000 0.000000
vn -1.000000 0.000000 0.000000
vn -1.000000 0.000000 0.000000
vn 0.000000 0.999869 -0.016190
vn 0.000000 0.999869 -0.016190
vn 0.000000 0.999869 0.016190
vn 0.000000 0.999869 0.016190
vn 1.000000 0.000000 0.000000
vn 1.000000 0.000000 0.000000
vn 1.000000 0.000000 0.000000
vn 1.000000 0.000000 0.000000
vn 0.000000 -0.999869 -0.016190
vn 0.000000 -0.999869 -0.016190
vn 0.000000 -0.999869 0.016190
vn 0.000000 -0.999869 0.016190
vn -1.000000 0.000000 0.000000
vn -1.000000 0.000000 0.000000
vn -1.000000 0.000000 0.000000
vn -1.000000 0.000000 0.000000
vn 0.000000 0.999869 0.016190
vn 0.000000 0.999869 0.016190
vn 0.000000 0.998994 0.044855
vn 0.000000 0.998994 0.044855
vn 1.000000 0.000000 0.000000
vn 1.000000 0.000000 0.000000
vn 1.000000 0.000000 0.000000
vn 1.000000 0.000000 0.000000
vn 0.000000 -0.998994 -0.044855
vn 0.000000 -0.998994 -0.044855
vn 0.000000 -0.999869 -0.016190
vn 0.000000 -0.999869 -0.016190
vn 0.000000 0.000000 1.000000
vn 0.000000 0.000000 1.000000
vn 0.000000 0.000000 1.000000
vn 0.000000 0.000000 1.000000
vn 0.000000 0.998994 0.044855
vn 0.000000 0.998994 0.044855
vn 0.000000 0.998356 0.057321
vn 0.000000 0.998356 0.057321
vn 0.000000 0.000000 -1.000000
vn 0.000000 0.000000 -1.000000
vn 0.000000 0.000000 -1.000000
vn 0.000000 0.000000 -1.000000
vn 0.000000 -0.998356 -0.057321
vn 0.000000 -0.998356 -0.057321
vn 0.000000 -0.998994 -0.044855
vn 0.000000 -0.998994 -0.044855
vn 1.000000 0.000000 0.000000
vn 1.000000 0.000000 0.000000
vn 1.000000 0.000000 0.000000
vn 1.000000 0.000000 0.000000
vn -1.000000 0.000000 0.000000
vn -1.000000 0.000000 0.000000
vn -1.000000 0.000000 0.000000
vn -1.000000 0.000000 0.000000
vn -1.000000 0.000000 0.000000
vn -1.000000 0.000000 0.000000
vn -1.000000 0.000000 0.000000
vn -1.000000 0.000000 0.000000
vn 0.000000 0.998356 -0.057321
vn 0.000000 0.998356 -0.057321
vn 0.000000 0.998994 -0.044855
vn 0.000000 0.998994 -0.044855
vn 1.000000 0.000000 0.000000
vn 1.000000 0.000000 0.000000
vn 1.000000 0.000000 0.000000
vn 1.000000 0.000000 0.000000
vn 0.000000 -0.998994 0.044855
vn 0.000000 -0.998994 0.044855
vn 0.000000 -0.998356 0.057321
vn 0.000000 -0.998356 0.057321
vn -1.000000 0.000000 0.000000
vn -1.000000 0.000000 0.000000
vn -1.000000 0.000000 0.000000
vn -1.000000 0.000000 0.000000
vn 0.000000 0.998994 -0.044855
vn 0.000000 0.998994 -0.044855
vn 0.000000 0.999869 -0.016190
vn 0.000000 0.999869 -0.016190
vn 1.000000 0.000000 0.000000
vn 1.000000 0.000000 0.000000
vn 1.000000 0.000000 0.000000
vn 1.000000 0.000000 0.000000
vn 0.000000 -0.999869 0.016190
vn 0.000000 -0.999869 0.016190
vn 0.000000 -0.998994 0.044855
vn 0.000000 -0.998994 0.044855
vn -1.000000 0.000000 0.000000
vn -1.000000 0.000000 0.000000
vn -1.000000 0.000000 0.000000
vn -1.000000 0.000000 0.000000
vn 0.000000 0.999869 -0.016190
vn 0.000000 0.999869 -0.016190
vn 0.000000 0.999869 0.016190
vn 0.000000 0.999869 0.016190
vn 1.000000 0.000000 0.000000
vn 1.000000 0.000000 0.000000
vn 1.000000 0.000000 0.000000
vn 1.000000 0.000000 0.000000
vn 0.000000 -0.999869 -0.016190
vn 0.000000 -0.999869 -0.016190
vn 0.000000 -0.999869 0.016190
vn 0.000000 -0.999869 0.016190
vn -1.000000 0.000000 0.000000
vn -1.000000 0.000000 0.000000
vn -1.000000 0.000000 0.000000
vn -1.000000 0.000000 0.000000
vn 0.000000 0.999869 0.016190
vn 0.000000 0.999869 0.016190
vn 0.000000 0.998994 0.044855
vn 0.000000 0.998994 0.044855
vn 1.000000 0.000000 0.000000
vn 1.000000 0.000000 0.000000
vn 1.000000 0.000000 0.000000
vn 1.000000 0.000000 0.000000
vn 0.000000 -0.998994 -0.044855
vn 0.000000 -0.998994 -0.044855
vn 0.000000 -0.999869 -0.016190
vn 0.000000 -0.999869 -0.016190
vn 0.000000 0.000000 1.000000
vn 0.000000 0.000000 1.000000
vn 0.000000 0.000000 1.000000
vn 0.000000 0.000000 1.000000
vn 0.000000 0.998994 0.044855
vn 0.000000 0.998356 0.057321
vn 0.000000 0.998356 0.057321
vn 0.000000 0.998994 0.044855
vn 0.000000 0.000000 -1.000000
vn 0.000000 0.000000 -1.000000
vn 0.000000 0.000000 -1.000000
vn 0.000000 0.000000 -1.000000
vn 0.000000 -0.998356 -0.057321
vn 0.000000 -0.998994 -0.044855
vn 0.000000 -0.998994 -0.044855
vn 0.000000 -0.998356 -0.057321
vn -1.000000 0.000000 0.000000
vn -1.000000 0.000000 0.000000
vn -1.000000 0.000000 0.000000
vn -1.000000 0.000000 0.000000
vn 1.000000 0.000000 0.000000
vn 1.000000 0.000000 0.000000
vn 1.000000 0.000000 0.000000
vn 1.000000 0.000000 0.000000
vn 1.000000 0.000000 0.000000
vn 1.000000 0.000000 0.000000
vn 1.000000 0.000000 0.000000
vn 1.000000 0.000000 0.000000
vn 0.000000 0.998356 -0.057321
vn 0.000000 0.998994 -0.044855
vn 0.000000 0.998994 -0.044855
vn 0.000000 0.998356 -0.057321
vn -1.000000 0.000000 0.000000
vn -1.000000 0.000000 0.000000
vn -1.000000 0.000000 0.000000
vn -1.000000 0.000000 0.000000
vn 0.000000 -0.998994 0.044855
vn 0.000000 -0.998356 0.057321
vn 0.000000 -0.998356 0.057321
vn 0.000000 -0.998994 0.044855
vn 1.000000 0.000000 0.000000
vn 1.000000 0.000000 0.000000
vn 1.000000 0.000000 0.000000
vn 1.000000 0.000000 0.000000
vn 0.000000 0.998994 -0.044855
vn 0.000000 0.999869 -0.016190
vn 0.000000 0.999869 -0.016190
vn 0.000000 0.998994 -0.044855
vn -1.000000 0.000000 0.000000
vn -1.000000 0.000000 0.000000
vn -1.000000 0.000000 0.000000
vn -1.000000 0.000000 0.000000
vn 0.000000 -0.999869 0.016190
vn 0.000000 -0.998994 0.044855
vn 0.000000 -0.998994 0.044855
vn 0.000000 -0.999869 0.016190
vn 1.000000 0.000000 0.000000
vn 1.000000 0.000000 0.000000
vn 1.000000 0.000000 0.000000
vn 1.000000 0.000000 0.000000
vn 0.000000 0.999869 -0.016190
vn 0.000000 0.999869 0.016190
vn 0.000000 0.999869 0.016190
vn 0.000000 0.999869 -0.016190
vn -1.000000 0.000000 0.000000
vn -1.000000 0.000000 0.000000
vn -1.000000 0.000000 0.000000
vn -1.000000 0.000000 0.000000
vn 0.000000 -0.999869 -0.016190
vn 0.000000 -0.999869 0.016190
vn 0.000000 -0.999869 0.016190
vn 0.000000 -0.999869 -0.016190
vn 1.000000 0.000000 0.000000
vn 1.000000 0.000000 0.000000
vn 1.000000 0.000000 0.000000
vn 1.000000 0.000000 0.000000
vn 0.000000 0.999869 0.016190
vn 0.000000 0.998994 0.044855
vn 0.000000 0.998994 0.044855
vn 0.000000 0.999869 0.016190
vn -1.000000 0.000000 0.000000
vn -1.000000 0.000000 0.000000
vn -1.000000 0.000000 0.000000
vn -1.000000 0.000000 0.000000
vn 0.000000 -0.998994 -0.044855
vn 0.000000 -0.999869 -0.016190
vn 0.000000 -0.999869 -0.016190
vn 0.000000 -0.998994 -0.044855
vn 0.000000 0.000000 1.000000
vn 0.000000 0.000000 1.000000
vn 0.000000 0.000000 1.000000
vn 0.000000 0.000000 1.000000
vn 0.000000 0.998994 0.044855
vn 0.000000 0.998356 0.057321
vn 0.000000 0.998356 0.057321
vn 0.000000 0.998994 0.044855
vn 0.000000 0.000000 -1.000000
vn 0.000000 0.000000 -1.000000
vn 0.000000 0.000000 -1.000000
vn 0.000000 0.000000 -1.000000
vn 0.000000 -0.998356 -0.057321
vn 0.000000 -0.998994 -0.044855
vn 0.000000 -0.998994 -0.044855
vn 0.000000 -0.998356 -0.057321
vn -1.000000 0.000000 0.000000
vn -1.000000 0.000000 0.000000
vn -1.000000 0.000000 0.000000
vn -1.000000 0.000000 0.000000
vn 1.000000 0.000000 0.000000
vn 1.000000 0.000000 0.000000
vn 1.000000 0.000000 0.000000
vn 1.000000 0.000000 0.000000
vn 1.000000 0.000000 0.000000
vn 1.000000 0.000000 0.000000
vn 1.000000 0.000000 0.000000
vn 1.000000 0.000000 0.000000
vn 0.000000 0.998356 -0.057321
vn 0.000000 0.998994 -0.044855
vn 0.000000 0.998994 -0.044855
vn 0.000000 0.998356 -0.057321
vn -1.000000 0.000000 0.000000
vn -1.000000 0.000000 0.000000
vn -1.000000 0.000000 0.000000
vn -1.000000 0.000000 0.000000
vn 0.000000 -0.998994 0.044855
vn 0.000000 -0.998356 0.057321
vn 0.000000 -0.998356 0.057321
vn 0.000000 -0.998994 0.044855
vn 1.000000 0.000000 0.000000
vn 1.000000 0.000000 0.000000
vn 1.000000 0.000000 0.000000
vn 1.000000 0.000000 0.000000
vn 0.000000 0.998994 -0.044855
vn 0.000000 0.999869 -0.016190
vn 0.000000 0.999869 -0.016190
vn 0.000000 0.998994 -0.044855
vn -1.000000 0.000000 0.000000
vn -1.000000 0.000000 0.000000
vn -1.000000 0.000000 0.000000
vn -1.000000 0.000000 0.000000
vn 0.000000 -0.999869 0.016190
vn 0.000000 -0.998994 0.044855
vn 0.000000 -0.998994 0.044855
vn 0.000000 -0.999869 0.016190
vn 1.000000 0.000000 0.000000
vn 1.000000 0.000000 0.000000
vn 1.000000 0.000000 0.000000
vn 1.000000 0.000000 0.000000
vn 0.000000 0.999869 -0.016190
vn 0.000000 0.999869 0.016190
vn 0.000000 0.999869 0.016190
vn 0.000000 0.999869 -0.016190
vn -1.000000 0.000000 0.000000
vn -1.000000 0.000000 0.000000
vn -1.000000 0.000000 0.000000
vn -1.000000 0.000000 0.000000
vn 0.000000 -0.999869 -0.016190
vn 0.000000 -0.999869 0.016190
vn 0.000000 -0.999869 0.016190
vn 0.000000 -0.999869 -0.016190
vn 1.000000 0.000000 0.000000
vn 1.000000 0.000000 0.000000
vn 1.000000 0.000000 0.000000
vn 1.000000 0.000000 0.000000
vn 0.000000 0.999869 0.016190
vn 0.000000 0.998994 0.044855
vn 0.000000 0.998994 0.044855
vn 0.000000 0.999869 0.016190
vn -1.000000 0.000000 0.000000
vn -1.000000 0.000000 0.000000
vn -1.000000 0.000000 0.000000
vn -1.000000 0.000000 0.000000
vn 0.000000 -0.998994 -0.044855
vn 0.000000 -0.999869 -0.016190
vn 0.000000 -0.999869 -0.016190
vn 0.000000 -0.998994 -0.044855
s off
f 1/1/1 2/2/2 4/4/3 3/3/4
f 22/42/5 23/43/6 6/6/7 5/5/8
f 5/5/9 6/6/10 8/8/11 7/7/12
f 7/7/13 8/8/14 24/45/15 21/40/16
f 24/46/17 8/11/18 6/12/19 23/44/20
f 7/13/21 21/39/22 22/41/23 5/14/24
f 9/15/25 1/1/26 3/3/27 10/17/28
f 3/3/29 4/4/30 11/19/31 10/18/32
f 2/2/33 12/22/34 11/20/35 4/4/36
f 9/16/37 12/21/38 2/10/39 1/9/40
f 13/23/41 9/15/42 10/17/43 14/25/44
f 10/18/45 11/19/46 15/27/47 14/26/48
f 12/22/49 16/30/50 15/28/51 11/20/52
f 13/24/53 16/29/54 12/21/55 9/16/56
f 17/31/57 13/23/58 14/25/59 18/33/60
f 14/26/61 15/27/62 19/35/63 18/34/64
f 16/30/65 20/38/66 19/36/67 15/28/68
f 17/32/69 20/37/70 16/29/71 13/24/72
f 21/39/73 17/31/74 18/33/75 22/41/76
f 18/34/77 19/35/78 23/43/79 22/42/80
f 20/38/81 24/46/82 23/44/83 19/36/84
f 21/40/85 24/45/86 20/37/87 17/32/88
f 25/47/89 26/48/90 28/49/91 27/50/92
f 46/51/93 47/52/94 30/53/95 29/54/96
f 29/54/97 30/53/98 32/55/99 31/56/100
f 31/56/101 32/55/102 48/57/103 45/58/104
f 48/59/105 32/60/106 30/61/107 47/62/108
f 31/63/109 45/64/110 46/65/111 29/66/112
f 33/67/113 25/47/114 27/50/115 34/68/116
f 27/50/117 28/49/118 35/69/119 34/70/120
f 26/48/121 36/71/122 35/72/123 28/49/124
f 33/73/125 36/74/126 26/75/127 25/76/128
f 37/77/129 33/67/130 34/68/131 38/78/132
f 34/70/133 35/69/134 39/79/135 38/80/136
f 36/71/137 40/81/138 39/82/139 35/72/140
f 37/83/141 40/84/142 36/74/143 33/73/144
f 41/85/145 37/77/146 38/78/147 42/86/148
f 38/80/149 39/79/150 43/87/151 42/88/152
f 40/81/153 44/89/154 43/90/155 39/82/156
f 41/91/157 44/92/158 40/84/159 37/83/160
f 45/64/161 41/85/162 42/86/163 46/65/164
f 42/88/165 43/87/166 47/52/167 46/51/168
f 44/89/169 48/59/170 47/62/171 43/90/172
f 45/58/173 48/57/174 44/92/175 41/91/176
f 49/93/177 51/96/178 52/95/179 50/94/180
f 70/97/181 53/100/182 54/99/183 71/98/184
f 53/100/185 55/102/186 56/101/187 54/99/188
f 55/102/189 69/104/190 72/103/191 56/101/192
f 72/105/193 71/108/194 54/107/195 56/106/196
f 55/109/197 53/112/198 70/111/199 69/110/200
f 57/113/201 58/114/202 51/96/203 49/93/204
f 51/96/205 58/116/206 59/115/207 52/95/208
f 50/94/209 52/95/210 59/118/211 60/117/212
f 57/119/213 49/122/214 50/121/215 60/120/216
f 61/123/217 62/124/218 58/114/219 57/113/220
f 58/116/221 62/126/222 63/125/223 59/115/224
f 60/117/225 59/118/226 63/128/227 64/127/228
f 61/129/229 57/119/230 60/120/231 64/130/232
f 65/131/233 66/132/234 62/124/235 61/123/236
f 62/126/237 66/134/238 67/133/239 63/125/240
f 64/127/241 63/128/242 67/136/243 68/135/244
f 65/137/245 61/129/246 64/130/247 68/138/248
f 69/110/249 70/111/250 66/132/251 65/131/252
f 66/134/253 70/97/254 71/98/255 67/133/256
f 68/135/257 67/136/258 71/108/259 72/105/260
f 69/104/261 65/137/262 68/138/263 72/103/264
f 73/139/265 75/142/266 76/141/267 74/140/268
f 94/143/269 77/146/270 78/145/271 95/144/272
f 77/146/273 79/148/274 80/147/275 78/145/276
f 79/148/277 93/150/278 96/149/279 80/147/280
f 96/151/281 95/154/282 78/153/283 80/152/284
f 79/155/285 77/158/286 94/157/287 93/156/288
f 81/159/289 82/160/290 75/142/291 73/139/292
f 75/142/293 82/162/294 83/161/295 76/141/296
f 74/140/297 76/141/298 83/164/299 84/163/300
f 81/165/301 73/168/302 74/167/303 84/166/304
f 85/169/305 86/170/306 82/160/307 81/159/308
f 82/162/309 86/172/310 87/171/311 83/161/312
f 84/163/313 83/164/314 87/174/315 88/173/316
f 85/175/317 81/165/318 84/166/319 88/176/320
f 89/177/321 90/178/322 86/170/323 85/169/324
f 86/172/325 90/180/326 91/179/327 87/171/328
f 88/173/329 87/174/330 91/182/331 92/181/332
f 89/183/333 85/175/334 88/176/335 92/184/336
f 93/156/337 94/157/338 90/178/339 89/177/340
f 90/180/341 94/143/342 95/144/343 91/179/344
f 92/181/345 91/182/346 95/154/347 96/151/348
f 93/150/349 89/183/350 92/184/351 96/149/352
