# This file uses centimeters as units for non-parametric coordinates.

v 0.000000 249.860962 202.096436
v 0.000000 229.600082 143.421631
v 0.000000 195.463104 91.311768
v 0.000000 136.899368 47.301270
v 0.000000 80.897003 31.722900
v 0.000000 -0.599796 31.692871
v 0.000000 249.860962 250.287598
v -12.500000 0.000000 -19.222168
v -12.500000 308.143677 249.999512
v 12.500000 280.665833 132.039063
v -12.500000 280.706573 132.079590
v -12.500000 79.334335 -19.181641
v 12.500000 79.334335 -19.222168
v 12.500000 155.131454 1.874268
v -12.500000 155.172195 1.914551
v -12.500000 308.143677 211.536621
v 12.500000 308.143677 211.496094
v 12.500000 234.437866 61.472656
v -12.500000 234.478622 61.513184
v 0.000000 308.143677 250.863281
v 0.000000 -0.599783 -19.262695
v -8.963867 79.876068 29.885254
v -12.500000 0.000000 29.129395
v -12.500000 252.795898 203.928711
v -12.500000 252.795898 249.999512
v -8.761719 230.776489 143.577148
v -12.500000 196.994781 90.286377
v -12.500000 138.418854 45.234375
v -12.500000 236.751526 142.605469
v -12.500000 219.305664 124.343750
v -12.500000 234.384430 150.609619
v 12.500000 0.000000 -19.222168
v 12.500000 308.143677 249.999512
v 12.500000 79.473320 29.160156
v 12.500000 0.000000 29.129395
v 12.500000 257.832153 204.617310
v 12.500000 252.795898 249.999512
v 11.565430 231.712112 141.753174
v 12.500000 196.994781 90.286377
v 9.987305 136.913116 45.884277
v 12.500000 146.207428 52.119629
v 12.500000 139.027664 40.149658
v 12.500000 116.828018 39.551270
v -12.500000 89.031754 31.766602
v -12.500000 79.457901 23.797852
v -12.500000 61.278618 29.153076
v 12.500000 252.795898 221.287964
v 12.293457 248.139572 190.197266
v 8.334961 251.817871 203.317993
vt 0.496423 0.205575
vt 0.496423 0.205575
vt 0.496423 0.205575
vt 0.496423 0.205575
vt 0.496423 0.205575
vt 0.496423 0.205575
vt 0.496423 0.205575
vt 0.496423 0.205575
vt 0.496423 0.205575
vt 0.496423 0.205575
vt 0.496423 0.205575
vt 0.496423 0.205575
vt 0.496423 0.205575
vt 0.496423 0.205575
vt 0.496423 0.205575
vt 0.496423 0.205575
vt 0.496423 0.205575
vt 0.496423 0.205575
vt 0.496423 0.205575
vt 0.496423 0.205575
vt 0.496423 0.205575
vt 0.496423 0.205575
vt 0.496423 0.205575
vt 0.496423 0.205575
vt 0.496423 0.205575
vt 0.496423 0.205575
vt 0.496423 0.205575
vt 0.496423 0.205575
vt 0.496423 0.205575
vt 0.496423 0.205575
vt 0.496423 0.205575
vt 0.496423 0.205575
vt 0.496423 0.205575
vt 0.496423 0.205575
vt 0.496423 0.205575
vt 0.496423 0.205575
vt 0.496423 0.205575
vt 0.496423 0.205575
vt 0.496423 0.205575
vt 0.496423 0.205575
vt 0.496423 0.205575
vt 0.496423 0.205575
vt 0.496423 0.205575
vt 0.496423 0.205575
vt 0.496423 0.205575
vt 0.496423 0.205575
vt 0.496423 0.205575
vt 0.496423 0.205575
vt 0.496423 0.205575
vt 0.496423 0.205575
vt 0.496423 0.205575
vt 0.496423 0.205575
vt 0.496423 0.205575
vt 0.496423 0.205575
vt 0.496423 0.205575
vt 0.496423 0.205575
vt 0.496423 0.205575
vt 0.496423 0.205575
vt 0.496423 0.205575
vt 0.496423 0.205575
vt 0.496423 0.205575
vt 0.496423 0.205575
vt 0.496423 0.205575
vt 0.496423 0.205575
vt 0.496423 0.205575
vt 0.496423 0.205575
vt 0.496423 0.205575
vt 0.496423 0.205575
vt 0.496423 0.205575
vt 0.496423 0.205575
vt 0.496423 0.205575
vt 0.496423 0.205575
vt 0.496423 0.205575
vt 0.496423 0.205575
vt 0.496423 0.205575
vt 0.496423 0.205575
vt 0.496423 0.205575
vt 0.496423 0.205575
vt 0.496423 0.205575
vt 0.496423 0.205575
vt 0.496423 0.205575
vt 0.496423 0.205575
vt 0.496423 0.205575
vt 0.496423 0.205575
vt 0.496423 0.205575
vn 0.000241 0.945158 -0.326612
vn 0.000241 0.945158 -0.326612
vn 0.000241 0.945158 -0.326612
vn 0.000241 0.945158 -0.326612
vn 0.000475 0.836489 -0.547983
vn 0.000475 0.836489 -0.547983
vn 0.000475 0.836489 -0.547983
vn 0.000475 0.836489 -0.547983
vn -0.003218 0.000511 -0.999995
vn -0.003218 0.000511 -0.999995
vn -0.003218 0.000511 -0.999995
vn -0.001339 0.268067 -0.963399
vn -0.001339 0.268067 -0.963399
vn -0.001339 0.268067 -0.963399
vn -0.001339 0.268067 -0.963399
vn -0.000313 0.600766 -0.799425
vn -0.000313 0.600765 -0.799425
vn -0.000313 0.600766 -0.799425
vn -0.000313 0.600765 -0.799425
vn 0.000000 1.000000 0.000000
vn 0.000000 1.000000 0.000000
vn 0.000000 1.000000 0.000000
vn 0.000000 1.000000 0.000000
vn 0.000000 1.000000 0.000000
vn 0.000000 1.000000 0.000000
vn -0.001621 0.000761 -0.999998
vn -0.001621 0.000761 -0.999998
vn -0.001621 0.000761 -0.999998
vn -0.859926 0.144231 0.489617
vn -0.859926 0.144231 0.489617
vn -0.859926 0.144231 0.489617
vn -1.000000 0.000000 0.000000
vn -1.000000 0.000000 0.000000
vn -1.000000 0.000000 0.000000
vn -1.000000 0.000000 0.000000
vn -0.824850 -0.542141 -0.160329
vn -0.824850 -0.542141 -0.160329
vn -0.824850 -0.542141 -0.160329
vn -0.800417 -0.433442 0.414078
vn -0.800417 -0.433442 0.414078
vn -0.800417 -0.433442 0.414078
vn -0.228579 -0.973525 0.000000
vn -0.228579 -0.973525 0.000000
vn -0.228579 -0.973525 0.000000
vn -0.228579 -0.973525 0.000000
vn -1.000000 0.000000 0.000000
vn -1.000000 0.000000 0.000000
vn -1.000000 0.000000 0.000000
vn -1.000000 0.000000 0.000000
vn -1.000000 0.000000 0.000000
vn -0.140336 -0.830001 0.539819
vn -0.140336 -0.830001 0.539818
vn -0.140336 -0.830001 0.539818
vn -0.140336 -0.830001 0.539818
vn -0.140336 -0.830001 0.539819
vn -0.169115 -0.930406 0.325185
vn -0.169115 -0.930406 0.325185
vn -0.169115 -0.930406 0.325185
vn -0.169115 -0.930406 0.325185
vn -0.169115 -0.930406 0.325185
vn -1.000000 0.000000 0.000000
vn -1.000000 0.000000 0.000000
vn -1.000000 0.000000 0.000000
vn -1.000000 0.000000 0.000000
vn -1.000000 0.000000 0.000000
vn -1.000000 0.000000 0.000000
vn -1.000000 0.000000 0.000000
vn -1.000000 0.000000 0.000000
vn -1.000000 0.000000 0.000000
vn -0.780251 -0.400133 0.480730
vn -0.780251 -0.400133 0.480730
vn -0.780251 -0.400133 0.480730
vn -0.169828 -0.596448 0.784480
vn -0.169828 -0.596448 0.784480
vn -0.169828 -0.596448 0.784480
vn -0.169828 -0.596448 0.784480
vn 0.003242 0.000000 -0.999995
vn 0.003242 0.000000 -0.999995
vn 0.003242 0.000000 -0.999995
vn 0.000000 1.000000 0.000000
vn 0.000000 1.000000 0.000000
vn 0.000000 1.000000 0.000000
vn 1.000000 0.000000 0.000000
vn 1.000000 0.000000 0.000000
vn 1.000000 0.000000 0.000000
vn 1.000000 0.000000 0.000000
vn 1.000000 0.000000 0.000000
vn 1.000000 0.000000 0.000000
vn 1.000000 0.000000 0.000000
vn 1.000000 0.000000 0.000000
vn 1.000000 0.000000 0.000000
vn 0.884475 -0.400129 0.240002
vn 0.884475 -0.400129 0.240002
vn 0.884475 -0.400129 0.240002
vn 0.917329 -0.010728 0.397984
vn 0.917329 -0.010728 0.397984
vn 0.917329 -0.010728 0.397984
vn 0.200858 -0.000370 0.979620
vn 0.200858 -0.000370 0.979620
vn 0.200858 -0.000370 0.979620
vn 0.200858 -0.000370 0.979620
vn 0.228577 -0.973526 0.000001
vn 0.228577 -0.973526 0.000001
vn 0.228577 -0.973526 0.000001
vn 0.228577 -0.973526 0.000001
vn 0.228577 -0.973526 0.000001
vn 0.999918 -0.005712 0.011446
vn 0.999918 -0.005712 0.011446
vn 0.999918 -0.005712 0.011446
vn 0.999918 -0.005712 0.011446
vn 0.184832 -0.817661 0.545222
vn 0.184832 -0.817661 0.545222
vn 0.184832 -0.817661 0.545222
vn 0.184832 -0.817661 0.545222
vn 0.193445 -0.928696 0.316390
vn 0.193445 -0.928696 0.316390
vn 0.193445 -0.928696 0.316390
vn 0.193445 -0.928696 0.316390
vn 0.193445 -0.928696 0.316390
vn 0.999953 -0.009133 -0.003391
vn 0.999953 -0.009133 -0.003391
vn 0.999953 -0.009133 -0.003391
vn 0.999953 -0.009133 -0.003391
vn 0.999953 -0.009133 -0.003391
vn 1.000000 0.000000 0.000000
vn 1.000000 0.000000 0.000000
vn 1.000000 0.000000 0.000000
vn 1.000000 0.000000 0.000000
vn 1.000000 0.000000 0.000000
vn 1.000000 0.000000 0.000000
vn 1.000000 0.000000 0.000000
vn 1.000000 0.000000 0.000000
vn 1.000000 0.000000 0.000000
vn 1.000000 0.000000 0.000000
vn 0.160384 -0.267029 0.950248
vn 0.160384 -0.267029 0.950248
vn 0.160384 -0.267029 0.950248
vn 0.160384 -0.267029 0.950249
vn 0.160384 -0.267029 0.950249
vn 0.136496 -0.593790 0.792958
vn 0.136496 -0.593790 0.792958
vn 0.136496 -0.593790 0.792958
vn 0.136496 -0.593790 0.792958
vn 0.136496 -0.593790 0.792958
vn 0.046617 -0.005061 0.998900
vn 0.046617 -0.005061 0.998900
vn 0.046617 -0.005061 0.998900
vn 0.046617 -0.005061 0.998900
vn 0.047928 -0.998851 -0.000000
vn 0.047928 -0.998851 -0.000000
vn 0.047928 -0.998851 -0.000000
vn 0.047928 -0.998851 -0.000000
vn -0.046617 -0.005061 0.998900
vn -0.046617 -0.005061 0.998900
vn -0.046617 -0.005061 0.998900
vn -0.046617 -0.005061 0.998900
vn -0.047928 -0.998851 -0.000000
vn -0.047928 -0.998851 -0.000000
vn -0.047928 -0.998851 -0.000000
vn -0.047928 -0.998851 -0.000000
vn -1.000000 0.000000 0.000000
vn -1.000000 0.000000 0.000000
vn -1.000000 0.000000 0.000000
vn -1.000000 0.000000 0.000000
vn -1.000000 0.000000 0.000000
vn -1.000000 0.000000 0.000000
vn -1.000000 0.000000 0.000000
vn -1.000000 0.000000 0.000000
vn -1.000000 0.000000 0.000000
vn -1.000000 0.000000 0.000000
vn -0.200860 -0.000370 0.979620
vn -0.200860 -0.000370 0.979620
vn -0.200860 -0.000370 0.979620
vn -0.200860 -0.000370 0.979620
vn -0.200860 -0.000370 0.979620
vn -0.177004 -0.261347 0.948877
vn -0.177004 -0.261347 0.948877
vn -0.177004 -0.261347 0.948877
vn -0.177004 -0.261347 0.948877
vn -0.177004 -0.261347 0.948877
vn 0.719983 -0.580703 0.380012
vn 0.719983 -0.580703 0.380012
vn 0.719983 -0.580703 0.380012
vn 0.827268 -0.537803 -0.162471
vn 0.827268 -0.537803 -0.162471
vn 0.827268 -0.537803 -0.162471
s off
f 10/1/1 11/2/2 16/3/3 17/4/4
f 10/1/5 18/5/6 19/6/7 11/2/8
f 12/7/9 21/8/10 8/9/11
f 15/10/12 14/11/13 13/12/14 12/7/15
f 19/6/16 18/5/17 14/11/18 15/10/19
f 20/14/20 16/3/21 9/13/22
f 17/4/23 16/3/24 20/14/25
f 13/12/26 21/8/27 12/7/28
f 45/74/29 46/75/30 22/16/31
f 9/17/32 16/18/33 24/19/34 25/20/35
f 31/21/36 29/22/37 26/23/38
f 29/22/39 30/24/40 26/23/41
f 25/20/42 24/19/43 1/28/44 7/29/45
f 11/33/46 19/32/47 27/30/48 30/24/49 29/22/50
f 26/23/51 30/24/52 27/30/53 3/31/54 2/34/55
f 24/19/56 31/21/57 26/23/58 2/34/59 1/28/60
f 16/18/61 11/33/62 29/22/63 31/21/64 24/19/65
f 19/79/66 15/80/67 28/25/68 27/35/69
f 44/72/70 45/73/71 22/36/72
f 27/35/73 28/25/74 4/38/75 3/39/76
f 13/40/77 32/41/78 21/42/79
f 20/44/80 33/43/81 17/45/82
f 13/40/83 34/46/84 35/47/85 32/41/86
f 33/48/87 37/49/88 47/76/89 36/50/90 17/51/91
f 41/53/92 40/54/93 42/55/94
f 42/55/95 40/54/96 43/56/97
f 34/46/98 5/57/99 6/58/100 35/47/101
f 37/49/102 7/59/103 1/60/104 49/78/105 47/76/106
f 10/64/107 38/52/108 39/61/109 18/63/110
f 38/52/111 2/65/112 3/62/113 39/61/114
f 48/77/115 49/78/116 1/60/117 2/65/118 38/52/119
f 17/51/120 36/50/121 48/77/122 38/52/123 10/64/124
f 18/81/125 39/66/126 41/53/127 42/55/128 14/82/129
f 14/83/130 42/55/131 43/56/132 34/67/133 13/68/134
f 40/54/135 4/69/136 5/70/137 34/67/138 43/56/139
f 39/66/140 3/71/141 4/69/142 40/54/143 41/53/144
f 20/14/145 7/59/146 37/49/147 33/43/148
f 6/26/149 21/42/150 32/41/151 35/47/152
f 20/14/153 9/17/154 25/20/155 7/59/156
f 8/9/157 21/42/158 6/26/159 23/15/160
f 15/84/161 12/85/162 45/73/163 44/72/164 28/25/165
f 12/7/166 8/9/167 23/15/168 46/75/169 45/74/170
f 22/16/171 46/75/172 23/15/173 6/26/174 5/27/175
f 28/25/176 44/72/177 22/36/178 5/37/179 4/38/180
f 36/50/181 49/78/182 48/77/183
f 47/76/184 49/78/185 36/50/186
