# This file uses centimeters as units for non-parametric coordinates.

v 10.789307 100.288826 -1.513184
v 91.740234 100.288826 -1.513184
v 91.740234 211.997192 -1.513184
v 48.387207 100.288826 -1.513184
v 10.789307 148.810257 -1.513184
v 41.722900 119.192673 -1.513184
v 29.607910 113.234375 -1.513184
v 24.914063 123.984993 -1.513184
v 17.982910 127.235832 -1.513184
v 16.338379 143.048660 -1.513184
v 77.295044 100.288826 -1.513184
v 91.740234 111.593384 -1.513184
v 77.448608 115.041748 -1.513184
v 91.740234 182.027313 -1.513184
v 60.656372 211.997192 -1.513184
v 81.891235 190.159088 -1.513184
v 84.088379 199.744553 -1.513184
v 67.047729 202.721634 -1.513184
v 91.740234 127.587456 -1.513184
v 91.740234 153.323135 -1.513184
v 85.379395 137.090118 -1.513184
v 10.789307 100.288826 1.514160
v 91.740234 100.288826 1.514160
v 91.740234 211.997192 1.514160
v 48.387207 100.288826 1.514160
v 10.789307 148.810257 1.514160
v 41.722900 119.192673 1.514160
v 29.607910 113.234375 1.514160
v 24.914063 123.984993 1.514160
v 17.982910 127.235832 1.514160
v 16.338379 143.048660 1.514160
v 77.295044 100.288826 1.514160
v 91.740234 111.593384 1.514160
v 77.448608 115.041748 1.514160
v 91.740234 182.027313 1.514160
v 60.656372 211.997192 1.514160
v 81.891235 190.159088 1.514160
v 84.088379 199.744553 1.514160
v 67.047729 202.721634 1.514160
v 91.740234 127.587456 1.514160
v 91.740234 153.323135 1.514160
v 85.379395 137.090118 1.514160
v -0.000122 0.000000 5.000000
v 102.529663 0.000000 5.000000
v -0.000122 222.434814 5.000000
v 102.529663 222.434814 5.000000
v -0.000122 222.434814 -5.000000
v 102.529663 222.434814 -5.000000
v -0.000122 0.000000 -5.000000
v 102.529663 0.000000 -5.000000
v 10.789307 100.288826 5.000488
v 91.740234 100.288826 5.000488
v 91.740234 211.997192 5.000488
v 10.789307 211.997192 5.000488
v 10.789307 211.997192 -5.000000
v 91.740234 211.997192 -5.000000
v 91.740234 100.288818 -5.000000
v 10.789307 100.288818 -5.000000
v 86.986206 87.733910 15.841797
v 91.675049 87.733910 14.959473
v 86.986206 94.604843 15.841797
v 91.675049 94.604843 14.959473
v 86.986206 94.604843 -15.841797
v 91.675049 94.604843 -14.959473
v 86.986206 87.733910 -15.841797
v 91.675049 87.733910 -14.959473
v 88.035400 88.783165 0.000000
v 88.035400 93.555595 0.000000
v 92.807983 93.555595 0.000000
v 92.807983 88.783165 0.000000
v 86.986206 87.733910 11.089844
v 86.986206 94.604843 11.089844
v 93.857300 94.604843 11.089844
v 93.857300 87.733910 11.089844
v 93.857300 94.604843 -11.089355
v 86.986206 94.604843 -11.089355
v 86.986206 87.733910 -11.089355
v 93.857300 87.733910 -11.089355
v 66.088013 88.946938 11.089844
v 66.088013 93.391815 11.089844
v 66.088013 88.946938 15.841797
v 66.088013 93.391815 15.841797
v 66.088013 88.946938 -15.841797
v 66.088013 88.946938 -11.089355
v 66.088013 93.391815 -11.089355
v 66.088013 93.391815 -15.841797
vt 0.207985 0.163738
vt 0.207985 0.163738
vt 0.207985 0.163738
vt 0.207985 0.163738
vt 0.207985 0.163738
vt 0.207985 0.163738
vt 0.207985 0.163738
vt 0.207985 0.163738
vt 0.207985 0.163738
vt 0.207985 0.163738
vt 0.207985 0.163738
vt 0.207985 0.163738
vt 0.207985 0.163738
vt 0.207985 0.163738
vt 0.207985 0.163738
vt 0.207985 0.163738
vt 0.207985 0.163738
vt 0.207985 0.163738
vt 0.207985 0.163738
vt 0.207985 0.163738
vt 0.207985 0.163738
vt 0.207985 0.163738
vt 0.207985 0.163738
vt 0.207985 0.163738
vt 0.207985 0.163738
vt 0.207985 0.163738
vt 0.207985 0.163738
vt 0.207985 0.163738
vt 0.207985 0.163738
vt 0.207985 0.163738
vt 0.207985 0.163738
vt 0.207985 0.163738
vt 0.207985 0.163738
vt 0.207985 0.163738
vt 0.207985 0.163738
vt 0.207985 0.163738
vt 0.207985 0.163738
vt 0.207985 0.163738
vt 0.207985 0.163738
vt 0.207985 0.163738
vt 0.207985 0.163738
vt 0.207985 0.163738
vt 0.101385 0.303360
vt 0.101385 0.303360
vt 0.101385 0.303360
vt 0.101385 0.303360
vt 0.101385 0.303360
vt 0.101385 0.303360
vt 0.101385 0.303360
vt 0.101385 0.303360
vt 0.101385 0.303360
vt 0.101385 0.303360
vt 0.101385 0.303360
vt 0.101385 0.303360
vt 0.101385 0.303360
vt 0.101385 0.303360
vt 0.101385 0.303360
vt 0.101385 0.303360
vt 0.101385 0.303360
vt 0.101385 0.303360
vt 0.101385 0.303360
vt 0.101385 0.303360
vt 0.101385 0.303360
vt 0.101385 0.303360
vt 0.101385 0.303360
vt 0.101385 0.303360
vt 0.101385 0.303360
vt 0.101385 0.303360
vt 0.102363 0.229987
vt 0.102363 0.229987
vt 0.102363 0.229987
vt 0.102363 0.229987
vt 0.102363 0.229987
vt 0.102363 0.229987
vt 0.102363 0.229987
vt 0.102363 0.229987
vt 0.102363 0.229987
vt 0.102363 0.229987
vt 0.102363 0.229987
vt 0.102363 0.229987
vt 0.102363 0.229987
vt 0.102363 0.229987
vt 0.102363 0.229987
vt 0.102363 0.229987
vt 0.102363 0.229987
vt 0.102363 0.229987
vt 0.102363 0.229987
vt 0.102363 0.229987
vt 0.102363 0.229987
vt 0.102363 0.229987
vt 0.102363 0.229987
vt 0.102363 0.229987
vt 0.102363 0.229987
vt 0.102363 0.229987
vt 0.102363 0.229987
vt 0.102363 0.229987
vt 0.102363 0.229987
vt 0.102363 0.229987
vt 0.102363 0.229987
vt 0.102363 0.229987
vt 0.102363 0.229987
vt 0.102363 0.229987
vt 0.102363 0.229987
vt 0.102363 0.229987
vt 0.102363 0.229987
vt 0.102363 0.229987
vt 0.102363 0.229987
vt 0.102363 0.229987
vt 0.102363 0.229987
vt 0.102363 0.229987
vt 0.102363 0.229987
vt 0.102363 0.229987
vt 0.102363 0.229987
vt 0.102363 0.229987
vn 0.000000 0.000000 -1.000000
vn 0.000000 0.000000 -1.000000
vn 0.000000 0.000000 -1.000000
vn 0.000000 0.000000 -1.000000
vn 0.000000 0.000000 -1.000000
vn 0.000000 0.000000 -1.000000
vn 0.000000 0.000000 -1.000000
vn 0.000000 0.000000 -1.000000
vn -0.000000 0.000000 -1.000000
vn -0.000000 0.000000 -1.000000
vn -0.000000 0.000000 -1.000000
vn -0.000000 0.000000 -1.000000
vn -0.000000 0.000000 -1.000000
vn -0.000000 0.000000 -1.000000
vn -0.000000 0.000000 -1.000000
vn -0.999946 0.010408 0.000000
vn -0.999946 0.010408 0.000000
vn -0.999946 0.010408 0.000000
vn -0.999946 0.010408 0.000000
vn 0.234555 0.972103 0.000000
vn 0.234555 0.972103 0.000000
vn 0.234555 0.972103 0.000000
vn 0.234555 0.972103 0.000000
vn -0.831010 -0.556257 0.000000
vn -0.831010 -0.556257 0.000000
vn -0.831010 -0.556257 0.000000
vn -0.831010 -0.556257 0.000000
vn -0.931072 0.364836 0.000000
vn -0.931072 0.364836 0.000000
vn -0.931072 0.364836 0.000000
vn -0.931072 0.364836 0.000000
vn -0.636679 -0.771129 0.000000
vn -0.636679 -0.771129 0.000000
vn -0.636679 -0.771129 0.000000
vn -0.636679 -0.771129 0.000000
vn -0.974722 0.223422 0.000000
vn -0.974722 0.223422 0.000000
vn -0.974722 0.223422 0.000000
vn -0.974722 0.223422 0.000000
vn -0.172098 -0.985080 0.000000
vn -0.172098 -0.985080 0.000000
vn -0.172098 -0.985080 0.000000
vn -0.172098 -0.985080 0.000000
vn -0.823444 -0.567397 0.000000
vn -0.823444 -0.567397 0.000000
vn -0.823444 -0.567397 0.000000
vn -0.823444 -0.567397 0.000000
vn -0.000000 0.000000 1.000000
vn 0.000000 0.000000 1.000000
vn 0.000000 0.000000 1.000000
vn -0.000000 0.000000 1.000000
vn 0.000000 0.000000 1.000000
vn 0.000000 0.000000 1.000000
vn 0.000000 0.000000 1.000000
vn 0.000000 0.000000 1.000000
vn -0.000000 0.000000 1.000000
vn -0.000000 0.000000 1.000000
vn -0.000000 0.000000 1.000000
vn -0.000000 0.000000 1.000000
vn 0.000000 0.000000 1.000000
vn 0.000000 0.000000 1.000000
vn 0.000000 0.000000 1.000000
vn 0.720266 0.693698 0.000000
vn 0.720266 0.693698 0.000000
vn 0.720266 0.693698 0.000000
vn 0.720266 0.693698 0.000000
vn 0.994635 0.103442 0.000000
vn 0.994635 0.103442 0.000000
vn 0.994635 0.103442 0.000000
vn 0.994635 0.103442 0.000000
vn 0.424633 0.905365 0.000000
vn 0.424633 0.905365 0.000000
vn 0.424633 0.905365 0.000000
vn 0.424633 0.905365 0.000000
vn 0.916456 0.400136 0.000000
vn 0.916456 0.400136 0.000000
vn 0.916456 0.400136 0.000000
vn 0.916456 0.400136 0.000000
vn -0.441326 0.897347 0.000000
vn -0.441326 0.897347 0.000000
vn -0.441326 0.897347 0.000000
vn -0.441326 0.897347 0.000000
vn 0.943110 0.332481 0.000000
vn 0.943110 0.332481 0.000000
vn 0.943110 0.332481 0.000000
vn 0.943110 0.332481 0.000000
vn -0.000000 0.000000 1.000000
vn -0.000000 0.000000 1.000000
vn -0.000000 0.000000 1.000000
vn -0.000000 0.000000 1.000000
vn 0.000000 0.000000 1.000000
vn 0.000000 0.000000 1.000000
vn 0.000000 0.000000 1.000000
vn -0.000000 0.000000 1.000000
vn 0.000000 0.000000 1.000000
vn 0.000000 0.000000 1.000000
vn -0.000000 0.000000 1.000000
vn -0.000000 0.000000 1.000000
vn 0.000000 0.000000 1.000000
vn 0.000000 0.000000 1.000000
vn 0.000000 0.000000 -1.000000
vn -0.000000 0.000000 -1.000000
vn -0.000000 0.000000 -1.000000
vn 0.000000 0.000000 -1.000000
vn 0.000000 0.000000 -1.000000
vn 0.000000 0.000000 -1.000000
vn 0.000000 0.000000 -1.000000
vn 0.000000 0.000000 -1.000000
vn 0.000000 0.000000 -1.000000
vn 0.000000 0.000000 -1.000000
vn 0.000000 0.000000 -1.000000
vn 0.000000 0.000000 -1.000000
vn 0.000000 1.000000 0.000000
vn 0.000000 1.000000 0.000000
vn 0.000000 1.000000 0.000000
vn 0.000000 1.000000 0.000000
vn 0.000000 -1.000000 0.000000
vn 0.000000 -1.000000 0.000000
vn 0.000000 -1.000000 0.000000
vn 0.000000 -1.000000 0.000000
vn 1.000000 0.000000 0.000000
vn 1.000000 0.000000 0.000000
vn 1.000000 0.000000 0.000000
vn 1.000000 0.000000 0.000000
vn -1.000000 0.000000 0.000000
vn -1.000000 0.000000 0.000000
vn -1.000000 0.000000 0.000000
vn -1.000000 0.000000 0.000000
vn 0.000000 -0.000005 1.000000
vn 0.000000 -0.000005 1.000000
vn 0.000000 -0.000005 1.000000
vn 0.000000 -0.000005 1.000000
vn 0.000045 0.000000 1.000000
vn 0.000045 0.000000 1.000000
vn 0.000045 0.000000 1.000000
vn 0.000045 0.000000 1.000000
vn 0.000000 0.000047 1.000000
vn 0.000000 0.000047 1.000000
vn 0.000000 0.000047 1.000000
vn 0.000000 0.000047 1.000000
vn -0.000045 0.000000 1.000000
vn -0.000045 0.000000 1.000000
vn -0.000045 0.000000 1.000000
vn -0.000045 0.000000 1.000000
vn 0.000000 0.000000 -1.000000
vn 0.000000 0.000000 -1.000000
vn 0.000000 0.000000 -1.000000
vn 0.000000 0.000000 -1.000000
vn 0.000000 0.000000 -1.000000
vn 0.000000 0.000000 -1.000000
vn 0.000000 0.000000 -1.000000
vn 0.000000 0.000000 -1.000000
vn 0.000000 0.000000 -1.000000
vn 0.000000 0.000000 -1.000000
vn 0.000000 0.000000 -1.000000
vn 0.000000 0.000000 -1.000000
vn 0.000000 0.000000 -1.000000
vn 0.000000 0.000000 -1.000000
vn 0.000000 0.000000 -1.000000
vn 0.000000 0.000000 -1.000000
vn 0.000000 -1.000000 0.000000
vn 0.000000 -1.000000 0.000000
vn 0.000000 -1.000000 0.000000
vn 0.000000 -1.000000 0.000000
vn -1.000000 0.000000 0.000000
vn -1.000000 0.000000 0.000000
vn -1.000000 0.000000 0.000000
vn -1.000000 0.000000 0.000000
vn 0.000000 1.000000 -0.000001
vn 0.000000 1.000000 -0.000001
vn 0.000000 1.000000 -0.000001
vn 0.000000 1.000000 -0.000001
vn 1.000000 0.000000 0.000000
vn 1.000000 0.000000 0.000000
vn 1.000000 0.000000 0.000000
vn 1.000000 0.000000 0.000000
vn 0.184929 0.000000 0.982752
vn 0.184929 0.000000 0.982752
vn 0.184929 0.000000 0.982752
vn 0.184929 0.000000 0.982752
vn 0.000000 1.000000 0.000000
vn 0.000000 1.000000 0.000000
vn 0.000000 0.997241 0.074238
vn 0.000000 0.997732 0.067306
vn 0.184929 0.000000 -0.982752
vn 0.184929 0.000000 -0.982752
vn 0.184929 0.000000 -0.982752
vn 0.184929 0.000000 -0.982752
vn 0.000000 -0.997732 0.067307
vn 0.000000 -0.997241 0.074238
vn 0.000000 -1.000000 0.000000
vn 0.000000 -1.000000 0.000000
vn 1.000000 0.000000 0.000000
vn 1.000000 0.000000 0.000000
vn 0.994432 0.000000 -0.105385
vn 0.994431 0.000000 -0.105385
vn -0.995554 0.000000 0.094192
vn -0.995554 0.000000 0.094192
vn -1.000000 0.000000 0.000000
vn -1.000000 0.000000 0.000000
vn -1.000000 0.000000 0.000000
vn -1.000000 0.000000 0.000000
vn -0.995554 0.000000 -0.094188
vn -0.995555 0.000000 -0.094188
vn 0.000000 0.997732 -0.067307
vn 0.000000 0.997241 -0.074238
vn 0.000000 1.000000 0.000000
vn 0.000000 1.000000 0.000000
vn 0.994431 0.000000 0.105385
vn 0.994431 0.000000 0.105385
vn 1.000000 0.000000 0.000000
vn 1.000000 0.000000 0.000000
vn 0.000000 -1.000000 0.000000
vn 0.000000 -1.000000 0.000000
vn 0.000000 -0.997240 -0.074239
vn 0.000000 -0.997732 -0.067307
vn -1.000000 0.000000 0.000000
vn -1.000000 0.000000 0.000000
vn -1.000000 0.000000 0.000000
vn -1.000000 0.000000 0.000000
vn 0.000000 1.000000 0.000000
vn 0.000000 1.000000 0.000000
vn 0.000000 0.997241 -0.074238
vn 0.000000 0.997732 -0.067307
vn 0.871038 0.000000 0.491216
vn 0.994431 0.000000 0.105385
vn 0.994431 0.000000 0.105385
vn 0.871038 0.000000 0.491216
vn 0.000000 -0.997732 -0.067307
vn 0.000000 -0.997240 -0.074239
vn 0.000000 -1.000000 -0.000001
vn 0.000000 -1.000000 -0.000001
vn 0.000000 0.997732 0.067306
vn 0.000000 0.997241 0.074238
vn 0.000000 1.000000 0.000000
vn 0.000000 1.000000 0.000000
vn -1.000000 0.000000 0.000000
vn -1.000000 0.000000 0.000000
vn -1.000000 0.000000 0.000000
vn -1.000000 0.000000 0.000000
vn 0.000000 -1.000000 0.000000
vn 0.000000 -1.000000 0.000000
vn 0.000000 -0.997241 0.074238
vn 0.000000 -0.997732 0.067307
vn 0.994431 0.000000 -0.105385
vn 0.994432 0.000000 -0.105385
vn 0.871065 0.000000 -0.491169
vn 0.871065 0.000000 -0.491169
vn -0.000000 0.000000 -1.000000
vn -0.000000 0.000000 -1.000000
vn -0.000000 0.000000 -1.000000
vn -0.000000 0.000000 -1.000000
vn -0.057947 -0.998320 0.000000
vn -0.057947 -0.998320 0.000000
vn -0.057947 -0.998320 0.000000
vn -0.057947 -0.998320 0.000000
vn 0.000000 0.000000 1.000000
vn 0.000000 0.000000 1.000000
vn 0.000000 0.000000 1.000000
vn 0.000000 0.000000 1.000000
vn -0.057947 0.998320 0.000000
vn -0.057947 0.998320 0.000000
vn -0.057947 0.998320 0.000000
vn -0.057947 0.998320 0.000000
vn -0.057947 -0.998320 0.000000
vn -0.057947 -0.998320 0.000000
vn -0.057947 -0.998320 0.000000
vn -0.057947 -0.998320 0.000000
vn -0.000000 0.000000 1.000000
vn -0.000000 0.000000 1.000000
vn -0.000000 0.000000 1.000000
vn -0.000000 0.000000 1.000000
vn -0.057947 0.998320 0.000000
vn -0.057947 0.998320 0.000000
vn -0.057947 0.998320 0.000000
vn -0.057947 0.998320 0.000000
vn 0.000000 0.000000 -1.000000
vn 0.000000 0.000000 -1.000000
vn 0.000000 0.000000 -1.000000
vn 0.000000 0.000000 -1.000000
s off
f 1/1/1 9/9/2 8/8/3 7/7/4
f 12/12/5 2/2/6 11/11/7 13/13/8
f 17/17/9 3/3/10 14/14/11 16/16/12
f 20/20/13 19/19/14 21/21/15
f 13/13/16 11/11/17 32/32/18 34/31/19
f 33/30/20 12/12/21 13/13/22 34/31/23
f 21/21/24 19/19/25 40/42/26 42/41/27
f 41/40/28 20/20/29 21/21/30 42/41/31
f 16/16/32 14/14/33 35/38/34 37/37/35
f 17/17/36 16/16/37 37/37/38 38/36/39
f 18/18/40 17/17/41 38/36/42 39/35/43
f 36/34/44 15/15/45 18/18/46 39/35/47
f 22/22/48 28/25/49 29/26/50 30/27/51
f 33/30/52 34/31/53 32/32/54 23/33/55
f 36/34/56 39/35/57 38/36/58 24/39/59
f 41/40/60 42/41/61 40/42/62
f 5/5/63 26/29/64 31/28/65 10/10/66
f 10/10/67 31/28/68 30/27/69 9/9/70
f 9/9/71 30/27/72 29/26/73 8/8/74
f 8/8/75 29/26/76 28/25/77 7/7/78
f 7/7/79 28/25/80 27/24/81 6/6/82
f 6/6/83 27/24/84 25/23/85 4/4/86
f 22/22/87 30/27/88 31/28/89 26/29/90
f 28/25/91 25/23/92 27/24/93
f 22/22/94 25/23/95 28/25/96
f 24/39/97 38/36/98 37/37/99 35/38/100
f 15/15/101 3/3/102 17/17/103 18/18/104
f 1/1/105 7/7/106 6/6/107 4/4/108
f 1/1/109 5/5/110 10/10/111 9/9/112
f 45/43/113 46/44/114 48/45/115 47/46/116
f 49/47/117 50/48/118 44/49/119 43/50/120
f 44/51/121 50/52/122 48/53/123 46/44/124
f 49/54/125 43/55/126 45/43/127 47/56/128
f 43/55/129 44/51/130 52/57/131 51/58/132
f 44/51/133 46/44/134 53/59/135 52/57/136
f 46/44/137 45/43/138 54/60/139 53/59/140
f 45/43/141 43/55/142 51/58/143 54/60/144
f 47/46/145 48/45/146 56/61/147 55/62/148
f 48/45/149 50/48/150 57/63/151 56/61/152
f 50/48/153 49/47/154 58/64/155 57/63/156
f 49/47/157 47/46/158 55/62/159 58/64/160
f 55/62/161 56/61/162 53/65/163 54/66/164
f 56/61/165 57/63/166 52/67/167 53/65/168
f 58/64/169 51/68/170 52/67/171 57/63/172
f 58/64/173 55/62/174 54/66/175 51/68/176
f 59/69/177 60/70/178 62/71/179 61/72/180
f 68/73/181 69/74/182 75/75/183 76/76/184
f 63/77/185 64/78/186 66/79/187 65/80/188
f 77/81/189 78/82/190 70/83/191 67/84/192
f 69/85/193 70/86/194 78/87/195 75/88/196
f 76/89/197 77/90/198 67/91/199 68/92/200
f 68/92/201 67/91/202 71/93/203 72/94/204
f 72/95/205 73/96/206 69/74/207 68/73/208
f 73/97/209 74/98/210 70/86/211 69/85/212
f 67/84/213 70/83/214 74/99/215 71/100/216
f 80/101/217 79/102/218 81/103/219 82/104/220
f 61/72/221 62/71/222 73/96/223 72/95/224
f 60/70/225 74/98/226 73/97/227 62/71/228
f 71/100/229 74/99/230 60/105/231 59/106/232
f 76/76/233 75/75/234 64/78/235 63/77/236
f 83/107/237 84/108/238 85/109/239 86/110/240
f 65/80/241 66/79/242 78/82/243 77/81/244
f 75/88/245 78/87/246 66/111/247 64/112/248
f 72/94/249 71/93/250 79/102/251 80/101/252
f 71/93/253 59/69/254 81/103/255 79/102/256
f 59/69/257 61/72/258 82/104/259 81/103/260
f 61/72/261 72/94/262 80/101/263 82/104/264
f 65/113/265 77/90/266 84/108/267 83/107/268
f 77/90/269 76/89/270 85/109/271 84/108/272
f 76/89/273 63/114/274 86/110/275 85/109/276
f 63/114/277 65/113/278 83/107/279 86/110/280
