# This file uses centimeters as units for non-parametric coordinates.

v -10.623474 0.000008 14.019366
v 10.623474 0.000008 14.019366
v -10.623474 283.117218 14.019366
v 10.623474 283.117218 14.019366
v -10.623474 283.117218 -14.019366
v 10.623474 283.117218 -14.019366
v -10.623474 0.000008 -14.019366
v 10.623474 0.000008 -14.019366
v -10.623474 0.000008 9.054462
v -10.623474 283.117218 9.054462
v 10.623474 283.117218 9.054462
v 10.623474 0.000008 9.054462
v 10.623474 283.117218 -9.526877
v -10.623474 283.117218 -9.526877
v -10.623474 0.000008 -9.526878
v 10.623474 0.000008 -9.526878
v -3.157678 0.000008 -7.652354
v -3.157678 283.117218 -7.652353
v 3.157678 283.117218 -7.652353
v 3.157678 0.000008 -7.652354
v -3.157678 0.000008 6.458286
v -3.157678 283.117218 6.458287
v 3.157678 283.117218 6.458287
v 3.157678 0.000008 6.458286
v -8.797393 111.806458 11.609188
v 8.797149 53.880032 11.609188
v -8.797393 222.525635 -11.609189
v 8.797149 164.599319 -11.609189
v -8.797393 131.411774 7.498081
v 8.797149 73.485458 7.498081
v -8.797393 204.785629 -7.889136
v 8.797149 146.859253 -7.889136
v -2.614814 177.029404 -6.337027
v 2.614814 159.812164 -6.337027
v -2.614814 121.308243 5.348050
v 2.614814 104.091072 5.348050
vt 0.026561 0.221928
vt 0.026561 0.221928
vt 0.026561 0.277916
vt 0.026561 0.277916
vt 0.026561 0.277916
vt 0.026561 0.277916
vt 0.026561 0.221928
vt 0.026561 0.221928
vt 0.026561 0.221928
vt 0.026561 0.221928
vt 0.026561 0.221928
vt 0.026561 0.277916
vt 0.026561 0.221928
vt 0.026561 0.277916
vt 0.026561 0.221928
vt 0.026561 0.221928
vt 0.026561 0.277916
vt 0.026561 0.277916
vt 0.026561 0.277916
vt 0.026561 0.277916
vt 0.026561 0.221928
vt 0.026561 0.221928
vt 0.026561 0.277916
vt 0.026561 0.277916
vt 0.026561 0.277916
vt 0.026561 0.277916
vt 0.026561 0.221928
vt 0.026561 0.221928
vt 0.026561 0.221928
vt 0.026561 0.221928
vt 0.026561 0.221928
vt 0.026561 0.221928
vt 0.026561 0.277916
vt 0.026561 0.277916
vt 0.026561 0.277916
vt 0.026561 0.277916
vt 0.026561 0.221928
vt 0.026561 0.221928
vt 0.026561 0.221928
vt 0.026561 0.221927
vt 0.026561 0.277916
vt 0.026561 0.277916
vt 0.026561 0.277916
vt 0.026561 0.277916
vt 0.026561 0.221927
vt 0.026561 0.221928
vt 0.026561 0.250583
vt 0.026561 0.250583
vt 0.026561 0.277916
vt 0.026561 0.277916
vt 0.026561 0.277916
vt 0.026561 0.277916
vt 0.026561 0.250583
vt 0.026561 0.250583
vt 0.026561 0.277916
vt 0.026561 0.277916
vt 0.026561 0.277916
vt 0.026561 0.277916
vt 0.026561 0.250583
vt 0.026561 0.250583
vn 0.043329 0.029054 0.998638
vn 0.043329 0.029054 0.998638
vn 0.043329 0.029054 0.998638
vn 0.043329 0.029054 0.998638
vn 0.000000 1.000000 0.000000
vn 0.000000 1.000000 0.000000
vn 0.000000 1.000000 0.000000
vn 0.000000 1.000000 0.000000
vn -0.040090 -0.026881 -0.998834
vn -0.040090 -0.026881 -0.998834
vn -0.040090 -0.026881 -0.998834
vn -0.040090 -0.026881 -0.998834
vn 0.000000 -1.000000 0.000000
vn 0.000000 -1.000000 0.000000
vn 0.000000 -1.000000 0.000000
vn 0.000000 -1.000000 0.000000
vn 0.251278 0.008718 0.967876
vn 0.251278 0.008718 0.967876
vn 0.251278 0.008718 0.967876
vn 0.251278 0.008718 0.967876
vn -0.218901 0.012811 0.975663
vn -0.218901 0.012811 0.975663
vn -0.218901 0.012811 0.975663
vn -0.218901 0.012811 0.975663
vn -0.999656 -0.011010 -0.023784
vn -0.999657 -0.011010 -0.023784
vn -0.999656 -0.011010 -0.023784
vn -0.999657 -0.011010 -0.023784
vn 0.000000 1.000000 0.000000
vn 0.000000 1.000000 0.000000
vn 0.000000 1.000000 0.000000
vn 0.000000 1.000000 0.000000
vn 0.997332 0.030665 0.066240
vn 0.997332 0.030665 0.066240
vn 0.997332 0.030665 0.066240
vn 0.997332 0.030665 0.066240
vn 0.000000 -1.000000 0.000000
vn 0.000000 -1.000000 0.000000
vn 0.000000 -1.000000 0.000000
vn 0.000000 -1.000000 0.000000
vn 0.000000 1.000000 0.000000
vn 0.000000 1.000000 0.000000
vn 0.000000 1.000000 0.000000
vn 0.000000 1.000000 0.000000
vn -0.999801 0.008374 0.018088
vn -0.999801 0.008374 0.018088
vn -0.999801 0.008374 0.018088
vn -0.999801 0.008374 0.018088
vn 0.000000 -1.000000 0.000000
vn 0.000000 -1.000000 0.000000
vn 0.000000 -1.000000 0.000000
vn 0.000000 -1.000000 0.000000
vn 0.999376 -0.014837 -0.032050
vn 0.999376 -0.014837 -0.032050
vn 0.999376 -0.014837 -0.032050
vn 0.999376 -0.014837 -0.032050
vn -0.999953 -0.004059 -0.008768
vn -0.999953 -0.004059 -0.008768
vn -0.999953 -0.004059 -0.008768
vn -0.999953 -0.004059 -0.008768
vn 0.000000 1.000000 0.000000
vn 0.000000 1.000000 0.000000
vn 0.000000 1.000000 0.000000
vn 0.000000 1.000000 0.000000
vn 0.999963 -0.003596 -0.007768
vn 0.999963 -0.003596 -0.007768
vn 0.999963 -0.003596 -0.007768
vn 0.999963 -0.003596 -0.007768
vn 0.000000 -1.000000 0.000000
vn 0.000000 -1.000000 0.000000
vn 0.000000 -1.000000 0.000000
vn 0.000000 -1.000000 0.000000
vn -0.324756 0.005591 -0.945781
vn -0.324756 0.005591 -0.945781
vn -0.324756 0.005591 -0.945781
vn -0.324756 0.005591 -0.945781
vn 0.000000 1.000000 0.000000
vn 0.000000 1.000000 0.000000
vn 0.000000 1.000000 0.000000
vn 0.000000 1.000000 0.000000
vn 0.337252 0.004403 -0.941404
vn 0.337252 0.004403 -0.941404
vn 0.337252 0.004403 -0.941404
vn 0.337252 0.004403 -0.941404
vn 0.000000 -1.000000 -0.000000
vn 0.000000 -1.000000 -0.000000
vn 0.000000 -1.000000 -0.000000
vn 0.000000 -1.000000 -0.000000
vn -0.017943 -0.012032 0.999767
vn -0.017943 -0.012032 0.999767
vn -0.017943 -0.012032 0.999767
vn -0.017943 -0.012032 0.999767
vn 0.018565 0.012449 -0.999750
vn 0.018565 0.012449 -0.999750
vn 0.018565 0.012449 -0.999750
vn 0.018565 0.012449 -0.999750
vn 0.236780 -0.007526 0.971534
vn 0.236780 -0.007526 0.971534
vn 0.236780 -0.007526 0.971534
vn 0.236780 -0.007526 0.971534
vn -0.254771 -0.005898 0.966983
vn -0.254771 -0.005898 0.966983
vn -0.254771 -0.005898 0.966983
vn -0.254771 -0.005898 0.966983
vn -0.999314 0.015554 0.033598
vn -0.999314 0.015554 0.033598
vn -0.999314 0.015554 0.033598
vn -0.999314 0.015554 0.033598
vn 0.999811 -0.008162 -0.017631
vn 0.999811 -0.008162 -0.017631
vn 0.999811 -0.008162 -0.017631
vn 0.999811 -0.008162 -0.017631
vn -0.997778 -0.027993 -0.060467
vn -0.997778 -0.027993 -0.060467
vn -0.997778 -0.027993 -0.060467
vn -0.997778 -0.027993 -0.060467
vn 0.999632 0.011403 0.024632
vn 0.999632 0.011403 0.024632
vn 0.999632 0.011403 0.024632
vn 0.999632 0.011403 0.024632
vn -0.999963 0.003634 0.007849
vn -0.999963 0.003634 0.007849
vn -0.999963 0.003634 0.007849
vn -0.999963 0.003634 0.007849
vn 0.999952 0.004107 0.008872
vn 0.999952 0.004107 0.008872
vn 0.999952 0.004107 0.008872
vn 0.999952 0.004107 0.008872
vn -0.332954 -0.006828 -0.942918
vn -0.332954 -0.006828 -0.942918
vn -0.332954 -0.006828 -0.942918
vn -0.332954 -0.006828 -0.942918
vn 0.308009 -0.010176 -0.951329
vn 0.308009 -0.010176 -0.951329
vn 0.308009 -0.010176 -0.951329
vn 0.308009 -0.010176 -0.951329
s off
f 1/1/1 2/2/2 26/48/3 25/47/4
f 18/34/5 19/35/6 13/23/7 14/26/8
f 5/5/9 6/6/10 28/51/11 27/50/12
f 15/28/13 16/29/14 20/37/15 17/32/16
f 19/36/17 34/58/18 32/56/19 13/24/20
f 14/25/21 31/55/22 33/57/23 18/33/24
f 10/17/25 29/53/26 25/47/27 3/3/28
f 3/3/29 4/4/30 11/19/31 10/18/32
f 2/2/33 12/22/34 30/54/35 26/48/36
f 9/16/37 12/21/38 2/10/39 1/9/40
f 14/26/41 13/23/42 6/6/43 5/5/44
f 7/13/45 15/27/46 31/55/47 27/49/48
f 7/7/49 8/8/50 16/29/51 15/28/52
f 13/24/53 32/56/54 28/52/55 6/12/56
f 18/33/57 33/57/58 35/59/59 22/41/60
f 22/42/61 23/43/62 19/35/63 18/34/64
f 23/44/65 36/60/66 34/58/67 19/36/68
f 17/32/69 20/37/70 24/45/71 21/40/72
f 22/41/73 35/59/74 29/53/75 10/17/76
f 10/18/77 11/19/78 23/43/79 22/42/80
f 11/20/81 30/54/82 36/60/83 23/44/84
f 21/40/85 24/45/86 12/21/87 9/16/88
f 25/47/89 26/48/90 4/4/91 3/3/92
f 27/50/93 28/51/94 8/8/95 7/7/96
f 32/56/97 34/58/98 20/38/99 16/30/100
f 33/57/101 31/55/102 15/27/103 17/31/104
f 25/47/105 29/53/106 9/15/107 1/1/108
f 26/48/109 30/54/110 11/20/111 4/4/112
f 27/49/113 31/55/114 14/25/115 5/14/116
f 28/52/117 32/56/118 16/30/119 8/11/120
f 35/59/121 33/57/122 17/31/123 21/39/124
f 34/58/125 36/60/126 24/46/127 20/38/128
f 29/53/129 35/59/130 21/39/131 9/15/132
f 36/60/133 30/54/134 12/22/135 24/46/136
