# This file uses centimeters as units for non-parametric coordinates.

v 2.188845 14.029855 -3.791885
v -2.188883 14.029855 -3.791885
v -4.377613 14.029855 0.000000
v -2.188883 14.029855 3.791275
v 2.188845 14.029855 3.791275
v 4.377651 14.029855 0.000000
v 2.188845 70.471375 -3.791885
v -2.188883 70.471375 -3.791885
v -4.377613 70.471375 0.000000
v -2.188883 70.471375 3.791275
v 2.188845 70.471375 3.791275
v 4.377651 70.471375 0.000000
v 9.621162 4.533024 -16.665344
v -9.621286 4.533024 -16.665344
v -19.242249 4.533024 -0.000916
v -9.621286 4.533024 16.664734
v 9.621162 4.533024 16.664734
v 19.242249 4.533024 -0.000916
v 10.272141 0.000000 -17.792969
v -10.272293 0.000000 -17.792969
v -0.000038 0.000000 -0.000916
v -20.544281 0.000000 -0.000916
v -10.272293 0.000000 17.792053
v 10.272141 0.000000 17.792053
v 20.544319 0.000000 -0.000916
v 16.648989 70.471375 -16.648788
v -0.000038 70.471375 -23.545609
v -16.649027 70.471375 -16.648788
v -23.545334 70.471375 0.000000
v -16.649027 70.471375 16.648178
v -0.000038 70.471375 23.544922
v 16.648989 70.471375 16.648178
v 23.545332 70.471375 0.000000
v 16.648989 78.157234 -16.648788
v -0.000038 78.157234 -23.545609
v -16.649027 78.157234 -16.648788
v -23.545334 78.157234 0.000000
v -16.649027 78.157234 16.648178
v -0.000038 78.157234 23.544922
v 16.648989 78.157234 16.648178
v 23.545332 78.157234 0.000000
v -0.000038 70.471375 0.000000
v 15.844831 79.325592 -15.844955
v -0.000038 79.325592 -22.408371
v -15.844870 79.325592 -15.844955
v -22.408112 79.325592 0.000000
v -15.844870 79.325592 15.844345
v -0.000038 79.325592 22.407455
v 15.844831 79.325592 15.844345
v 22.408152 79.325592 0.000000
v -0.000038 75.661240 23.544922
v -16.649027 75.661240 16.648178
v -23.545334 75.661240 0.000000
v -16.649027 75.661240 -16.648788
v -0.000038 75.661240 -23.545609
v 16.648989 75.661240 -16.648788
v 23.545332 75.661240 0.000000
v 16.648989 75.661240 16.648178
v -0.000038 73.083702 23.544922
v -16.649027 73.083702 16.648178
v -23.545334 73.083702 0.000000
v -16.649027 73.083702 -16.648788
v -0.000038 73.083702 -23.545609
v 16.648989 73.083702 -16.648788
v 23.545332 73.083702 0.000000
v 16.648989 73.083702 16.648178
v 14.739828 82.338554 -9.092026
v -0.000038 82.338554 -19.726105
v -0.000038 84.130249 0.000000
v -12.764759 82.338554 -12.213440
v -19.725639 82.338554 0.000000
v -12.216091 82.338554 12.761688
v -0.000038 82.338554 19.725113
v 12.427769 82.338554 11.831207
v 19.725676 82.338554 0.000000
vt 0.091345 0.351455
vt 0.091346 0.351455
vt 0.091346 0.351455
vt 0.091346 0.351455
vt 0.091346 0.351455
vt 0.091346 0.351455
vt 0.091346 0.351455
vt 0.091346 0.351455
vt 0.091346 0.351455
vt 0.091346 0.351455
vt 0.091346 0.351455
vt 0.091345 0.351455
vt 0.091346 0.351455
vt 0.091346 0.351455
vt 0.091346 0.351455
vt 0.091346 0.351455
vt 0.091346 0.351455
vt 0.091346 0.351455
vt 0.091345 0.351455
vt 0.091346 0.351455
vt 0.091346 0.351455
vt 0.091346 0.351455
vt 0.091345 0.351455
vt 0.091346 0.351455
vt 0.091346 0.351455
vt 0.091346 0.351455
vt 0.091346 0.351455
vt 0.091346 0.351455
vt 0.091345 0.351455
vt 0.091346 0.351455
vt 0.091346 0.351455
vt 0.091346 0.351455
vt 0.091346 0.351455
vt 0.091346 0.353611
vt 0.091346 0.353611
vt 0.091346 0.353611
vt 0.091346 0.353611
vt 0.091346 0.353611
vt 0.091346 0.353611
vt 0.091346 0.353611
vt 0.091346 0.353611
vt 0.091346 0.353611
vt 0.091346 0.353611
vt 0.091346 0.353611
vt 0.091346 0.353611
vt 0.091346 0.353611
vt 0.091346 0.353611
vt 0.091346 0.353611
vt 0.091346 0.353611
vt 0.091346 0.353611
vt 0.091346 0.353611
vt 0.026659 0.300424
vt 0.026659 0.300424
vt 0.026659 0.300424
vt 0.026659 0.300424
vt 0.026659 0.300424
vt 0.026659 0.300424
vt 0.026659 0.300424
vt 0.026659 0.300424
vt 0.026659 0.300424
vt 0.103564 0.181832
vt 0.103564 0.181832
vt 0.103564 0.181832
vt 0.103564 0.181832
vt 0.103564 0.181832
vt 0.103564 0.181832
vt 0.103564 0.181832
vt 0.103564 0.181832
vt 0.103564 0.181832
vt 0.091346 0.353611
vt 0.091346 0.353611
vt 0.091346 0.353611
vt 0.091346 0.353611
vt 0.091346 0.353611
vt 0.091346 0.353611
vt 0.091346 0.353611
vt 0.091346 0.353611
vt 0.091346 0.353611
vt 0.091346 0.353611
vt 0.091346 0.353611
vt 0.091346 0.353611
vt 0.091346 0.353611
vt 0.091346 0.353611
vt 0.091346 0.353611
vt 0.091346 0.353611
vt 0.091346 0.353611
vt 0.091346 0.353611
vt 0.091346 0.353611
vt 0.091346 0.353611
vt 0.091346 0.353611
vt 0.091346 0.353611
vt 0.091346 0.353611
vt 0.091346 0.353611
vt 0.091346 0.353611
vt 0.091346 0.353611
vt 0.091346 0.353611
vt 0.091346 0.353611
vt 0.091346 0.353611
vt 0.091346 0.353611
vt 0.091346 0.353611
vt 0.091346 0.353611
vt 0.091346 0.353611
vt 0.091346 0.353611
vt 0.087696 0.301765
vt 0.087692 0.301765
vt 0.087692 0.301765
vt 0.087696 0.301765
vt 0.087696 0.301765
vt 0.087696 0.301765
vt 0.087696 0.301765
vt 0.087696 0.301765
vt 0.087692 0.301765
vt 0.087692 0.301765
vt 0.087692 0.301765
vt 0.087692 0.301765
vt 0.087692 0.301765
vt 0.087692 0.301765
vt 0.087692 0.301765
vt 0.087692 0.301765
vt 0.103564 0.181832
vt 0.103564 0.181832
vt 0.103564 0.181832
vt 0.103564 0.181832
vt 0.103564 0.181832
vt 0.103564 0.181832
vt 0.103564 0.181832
vt 0.103564 0.181832
vn 0.000000 0.000000 -1.000000
vn 0.000000 0.000000 -1.000000
vn 0.000000 0.000000 -1.000000
vn 0.000000 0.000000 -1.000000
vn -0.866076 0.000000 -0.499912
vn -0.866076 0.000000 -0.499912
vn -0.866076 0.000000 -0.499912
vn -0.866076 0.000000 -0.499912
vn -0.866042 0.000000 0.499972
vn -0.866042 0.000000 0.499972
vn -0.866042 0.000000 0.499972
vn -0.866042 0.000000 0.499972
vn 0.000000 0.000000 1.000000
vn 0.000000 0.000000 1.000000
vn 0.000000 0.000000 1.000000
vn 0.000000 0.000000 1.000000
vn 0.866034 0.000000 0.499985
vn 0.866034 0.000000 0.499985
vn 0.866034 0.000000 0.499985
vn 0.866034 0.000000 0.499985
vn 0.866069 0.000000 -0.499925
vn 0.866069 0.000000 -0.499925
vn 0.866069 0.000000 -0.499925
vn 0.866069 0.000000 -0.499925
vn 0.000000 -1.000000 0.000000
vn 0.000000 -1.000000 0.000000
vn 0.000000 -1.000000 0.000000
vn 0.000000 -1.000000 0.000000
vn 0.000000 -1.000000 0.000000
vn 0.000000 -1.000000 0.000000
vn 0.000000 -1.000000 0.000000
vn 0.000000 -1.000000 0.000000
vn 0.000000 -1.000000 0.000000
vn 0.000000 -1.000000 0.000000
vn 0.000000 -1.000000 0.000000
vn 0.000000 -1.000000 0.000000
vn 0.000000 -1.000000 0.000000
vn 0.000000 -1.000000 0.000000
vn 0.000000 -1.000000 0.000000
vn 0.000000 -1.000000 0.000000
vn 0.000000 -1.000000 0.000000
vn 0.000000 -1.000000 0.000000
vn 0.000000 0.804724 -0.593650
vn 0.000000 0.804724 -0.593650
vn 0.000000 0.804724 -0.593650
vn 0.000000 0.804724 -0.593650
vn -0.514123 0.804724 -0.296810
vn -0.514123 0.804724 -0.296810
vn -0.514123 0.804724 -0.296810
vn -0.514123 0.804724 -0.296810
vn -0.514139 0.804714 0.296810
vn -0.514139 0.804714 0.296810
vn -0.514139 0.804714 0.296810
vn -0.514139 0.804714 0.296810
vn 0.000000 0.804724 0.593650
vn 0.000000 0.804724 0.593650
vn 0.000000 0.804724 0.593650
vn 0.000000 0.804724 0.593650
vn 0.514138 0.804713 0.296815
vn 0.514138 0.804713 0.296815
vn 0.514138 0.804713 0.296815
vn 0.514138 0.804713 0.296815
vn 0.514122 0.804723 -0.296814
vn 0.514122 0.804723 -0.296814
vn 0.514122 0.804723 -0.296814
vn 0.514122 0.804723 -0.296814
vn 0.000000 0.241401 -0.970426
vn 0.000000 0.241401 -0.970426
vn 0.000000 0.241401 -0.970426
vn 0.000000 0.241401 -0.970426
vn -0.840420 0.241395 -0.485204
vn -0.840420 0.241395 -0.485204
vn -0.840420 0.241395 -0.485204
vn -0.840420 0.241395 -0.485204
vn -0.840436 0.241380 0.485183
vn -0.840436 0.241380 0.485183
vn -0.840436 0.241380 0.485184
vn -0.840436 0.241380 0.485183
vn 0.000000 0.241339 0.970441
vn 0.000000 0.241339 0.970441
vn 0.000000 0.241339 0.970441
vn 0.000000 0.241339 0.970441
vn 0.840433 0.241380 0.485189
vn 0.840433 0.241380 0.485189
vn 0.840433 0.241381 0.485189
vn 0.840433 0.241380 0.485189
vn 0.840416 0.241396 -0.485210
vn 0.840416 0.241396 -0.485210
vn 0.840416 0.241396 -0.485210
vn 0.840416 0.241396 -0.485210
vn 0.382711 0.000000 -0.923868
vn 0.382711 0.000000 -0.923868
vn 0.382710 0.000000 -0.923868
vn 0.382710 0.000000 -0.923868
vn -0.382711 0.000000 -0.923868
vn -0.382711 0.000000 -0.923868
vn -0.382711 0.000000 -0.923868
vn -0.382711 0.000000 -0.923868
vn -0.923876 0.000000 -0.382691
vn -0.923876 0.000000 -0.382691
vn -0.923876 0.000000 -0.382691
vn -0.923876 0.000000 -0.382691
vn -0.923871 0.000000 0.382703
vn -0.923871 0.000000 0.382703
vn -0.923871 0.000000 0.382703
vn -0.923871 0.000000 0.382703
vn -0.382707 0.000000 0.923870
vn -0.382707 0.000000 0.923870
vn -0.382707 0.000000 0.923870
vn -0.382707 0.000000 0.923870
vn 0.382707 0.000000 0.923870
vn 0.382707 0.000000 0.923870
vn 0.382706 0.000000 0.923870
vn 0.382706 0.000000 0.923870
vn 0.923871 0.000000 0.382704
vn 0.923871 0.000000 0.382704
vn 0.923871 0.000000 0.382705
vn 0.923871 0.000000 0.382705
vn 0.923876 0.000000 -0.382692
vn 0.923876 0.000000 -0.382692
vn 0.923876 0.000000 -0.382693
vn 0.923876 0.000000 -0.382693
vn 0.000000 -1.000000 0.000000
vn 0.000000 -1.000000 0.000000
vn 0.000000 -1.000000 0.000000
vn 0.000000 -1.000000 0.000000
vn 0.000000 -1.000000 0.000000
vn 0.000000 -1.000000 0.000000
vn 0.000000 -1.000000 0.000000
vn 0.000000 -1.000000 0.000000
vn 0.000000 -1.000000 0.000000
vn 0.000000 -1.000000 -0.000000
vn 0.000000 -1.000000 0.000000
vn 0.000000 -1.000000 0.000000
vn 0.000000 -1.000000 0.000000
vn 0.000000 -1.000000 -0.000000
vn 0.000000 -1.000000 0.000000
vn 0.000000 -1.000000 0.000000
vn 0.000000 -1.000000 0.000000
vn 0.000000 -1.000000 0.000000
vn 0.000000 -1.000000 0.000000
vn 0.000000 -1.000000 0.000000
vn 0.000000 -1.000000 0.000000
vn 0.000000 -1.000000 0.000000
vn 0.000000 -1.000000 0.000000
vn 0.000000 -1.000000 0.000000
vn 0.076307 0.994462 -0.072264
vn 0.007517 0.995872 -0.090454
vn 0.000273 0.999996 -0.002749
vn 0.007517 0.995872 -0.090454
vn -0.071578 0.994895 -0.071141
vn 0.000273 0.999996 -0.002749
vn -0.071578 0.994895 -0.071141
vn -0.090458 0.995899 0.001643
vn 0.000273 0.999996 -0.002749
vn -0.090458 0.995899 0.001643
vn -0.071144 0.994895 0.071577
vn 0.000273 0.999996 -0.002749
vn -0.071144 0.994895 0.071577
vn 0.002159 0.995898 0.090461
vn 0.000273 0.999996 -0.002749
vn 0.002159 0.995898 0.090461
vn 0.073675 0.994590 0.073229
vn 0.000273 0.999996 -0.002749
vn 0.073675 0.994590 0.073229
vn 0.090455 0.995862 0.008733
vn 0.000273 0.999996 -0.002749
vn 0.090455 0.995862 0.008733
vn 0.076307 0.994462 -0.072264
vn 0.000273 0.999996 -0.002749
vn 0.284582 0.668615 -0.686999
vn 0.284582 0.668615 -0.686999
vn 0.284582 0.668615 -0.686999
vn 0.284582 0.668615 -0.686999
vn -0.284582 0.668615 -0.686998
vn -0.284582 0.668615 -0.686998
vn -0.284582 0.668615 -0.686998
vn -0.284582 0.668615 -0.686998
vn -0.686981 0.668642 -0.284561
vn -0.686981 0.668642 -0.284561
vn -0.686981 0.668642 -0.284561
vn -0.686981 0.668642 -0.284561
vn -0.686977 0.668642 0.284570
vn -0.686977 0.668642 0.284570
vn -0.686977 0.668642 0.284570
vn -0.686977 0.668642 0.284570
vn -0.284562 0.668652 0.686971
vn -0.284562 0.668652 0.686971
vn -0.284562 0.668652 0.686971
vn -0.284562 0.668652 0.686971
vn 0.284563 0.668653 0.686970
vn 0.284563 0.668653 0.686970
vn 0.284563 0.668653 0.686970
vn 0.284563 0.668653 0.686970
vn 0.686980 0.668636 0.284576
vn 0.686980 0.668636 0.284576
vn 0.686980 0.668636 0.284576
vn 0.686980 0.668636 0.284576
vn 0.686985 0.668636 -0.284566
vn 0.686985 0.668636 -0.284566
vn 0.686985 0.668636 -0.284566
vn 0.686985 0.668636 -0.284566
vn -0.382708 0.000000 0.923869
vn -0.382708 0.000000 0.923869
vn -0.382707 0.000000 0.923870
vn -0.382707 0.000000 0.923870
vn -0.923872 0.000000 0.382702
vn -0.923872 0.000000 0.382702
vn -0.923872 0.000000 0.382702
vn -0.923872 0.000000 0.382702
vn -0.923877 0.000000 -0.382691
vn -0.923877 0.000000 -0.382691
vn -0.923877 0.000000 -0.382690
vn -0.923877 0.000000 -0.382690
vn -0.382711 0.000000 -0.923868
vn -0.382711 0.000000 -0.923868
vn -0.382711 0.000000 -0.923868
vn -0.382711 0.000000 -0.923868
vn 0.382710 0.000000 -0.923869
vn 0.382710 0.000000 -0.923869
vn 0.382710 0.000000 -0.923868
vn 0.382710 0.000000 -0.923868
vn 0.923876 0.000000 -0.382692
vn 0.923876 0.000000 -0.382692
vn 0.923876 0.000000 -0.382692
vn 0.923876 0.000000 -0.382692
vn 0.923871 0.000000 0.382704
vn 0.923871 0.000000 0.382704
vn 0.923871 0.000000 0.382704
vn 0.923871 0.000000 0.382704
vn 0.382706 0.000000 0.923870
vn 0.382706 0.000000 0.923870
vn 0.382707 0.000000 0.923870
vn 0.382707 0.000000 0.923870
vn -0.382707 0.000000 0.923870
vn -0.382707 0.000000 0.923870
vn -0.382708 0.000000 0.923869
vn -0.382708 0.000000 0.923869
vn -0.923871 0.000000 0.382703
vn -0.923871 0.000000 0.382703
vn -0.923872 0.000000 0.382702
vn -0.923872 0.000000 0.382702
vn -0.923876 0.000000 -0.382691
vn -0.923876 0.000000 -0.382691
vn -0.923877 0.000000 -0.382691
vn -0.923877 0.000000 -0.382691
vn -0.382711 0.000000 -0.923868
vn -0.382711 0.000000 -0.923868
vn -0.382711 0.000000 -0.923868
vn -0.382711 0.000000 -0.923868
vn 0.382710 0.000000 -0.923868
vn 0.382710 0.000000 -0.923868
vn 0.382710 0.000000 -0.923869
vn 0.382710 0.000000 -0.923869
vn 0.923876 0.000000 -0.382693
vn 0.923876 0.000000 -0.382693
vn 0.923876 0.000000 -0.382692
vn 0.923876 0.000000 -0.382692
vn 0.923871 0.000000 0.382705
vn 0.923871 0.000000 0.382705
vn 0.923871 0.000000 0.382704
vn 0.923871 0.000000 0.382704
vn 0.382706 0.000000 0.923870
vn 0.382706 0.000000 0.923870
vn 0.382706 0.000000 0.923870
vn 0.382706 0.000000 0.923870
vn 0.277651 0.824067 -0.493785
vn 0.277651 0.824067 -0.493785
vn 0.277651 0.824067 -0.493785
vn 0.277651 0.824067 -0.493785
vn -0.287426 0.759016 -0.584193
vn -0.287426 0.759015 -0.584193
vn -0.287426 0.759015 -0.584193
vn -0.287426 0.759016 -0.584193
vn -0.599031 0.746857 -0.288732
vn -0.599031 0.746857 -0.288732
vn -0.599031 0.746857 -0.288732
vn -0.599031 0.746857 -0.288732
vn -0.584260 0.758963 0.287428
vn -0.584260 0.758963 0.287428
vn -0.584260 0.758963 0.287428
vn -0.584260 0.758963 0.287428
vn -0.288729 0.746906 0.598971
vn -0.288729 0.746906 0.598971
vn -0.288729 0.746906 0.598971
vn -0.288729 0.746906 0.598971
vn 0.284762 0.780246 0.556891
vn 0.284762 0.780246 0.556891
vn 0.284762 0.780246 0.556891
vn 0.284762 0.780246 0.556891
vn 0.571480 0.769081 0.286224
vn 0.571480 0.769081 0.286224
vn 0.571480 0.769081 0.286224
vn 0.571480 0.769081 0.286224
vn 0.628528 0.721261 -0.291093
vn 0.628528 0.721261 -0.291093
vn 0.628528 0.721261 -0.291093
vn 0.628528 0.721261 -0.291093
s off
f 1/7/1 2/8/2 8/15/3 7/14/4
f 2/8/5 3/9/6 9/16/7 8/15/8
f 3/9/9 4/10/10 10/17/11 9/16/12
f 4/10/13 5/11/14 11/18/15 10/17/16
f 5/11/17 6/12/18 12/19/19 11/18/20
f 6/12/21 1/13/22 7/20/23 12/19/24
f 20/28/25 19/29/26 21/21/27
f 22/30/28 20/28/29 21/21/30
f 23/31/31 22/30/32 21/21/33
f 24/32/34 23/31/35 21/21/36
f 25/33/37 24/32/38 21/21/39
f 19/29/40 25/33/41 21/21/42
f 2/2/43 1/1/44 13/23/45 14/22/46
f 3/3/47 2/2/48 14/22/49 15/24/50
f 4/4/51 3/3/52 15/24/53 16/25/54
f 5/5/55 4/4/56 16/25/57 17/26/58
f 6/6/59 5/5/60 17/26/61 18/27/62
f 1/1/63 6/6/64 18/27/65 13/23/66
f 14/22/67 13/23/68 19/29/69 20/28/70
f 15/24/71 14/22/72 20/28/73 22/30/74
f 16/25/75 15/24/76 22/30/77 23/31/78
f 17/26/79 16/25/80 23/31/81 24/32/82
f 18/27/83 17/26/84 24/32/85 25/33/86
f 13/23/87 18/27/88 25/33/89 19/29/90
f 26/34/91 27/35/92 63/99/93 64/101/94
f 27/35/95 28/38/96 62/98/97 63/99/98
f 28/38/99 29/40/100 61/97/101 62/98/102
f 29/40/103 30/42/104 60/96/105 61/97/106
f 30/42/107 31/44/108 59/95/109 60/96/110
f 31/44/111 32/46/112 66/103/113 59/95/114
f 32/46/115 33/48/116 65/102/117 66/103/118
f 33/48/119 26/50/120 64/100/121 65/102/122
f 27/52/123 26/53/124 42/54/125
f 28/55/126 27/52/127 42/54/128
f 29/56/129 28/55/130 42/54/131
f 30/57/132 29/56/133 42/54/134
f 31/58/135 30/57/136 42/54/137
f 32/59/138 31/58/139 42/54/140
f 33/60/141 32/59/142 42/54/143
f 26/53/144 33/60/145 42/54/146
f 67/120/147 68/121/148 69/63/149
f 68/121/150 70/122/151 69/63/152
f 70/122/153 71/123/154 69/63/155
f 71/123/156 72/124/157 69/63/158
f 72/124/159 73/125/160 69/63/161
f 73/125/162 74/126/163 69/63/164
f 74/126/165 75/127/166 69/63/167
f 75/127/168 67/120/169 69/63/170
f 34/70/171 35/71/172 44/72/173 43/73/174
f 35/71/175 36/74/176 45/75/177 44/72/178
f 36/74/179 37/76/180 46/77/181 45/75/182
f 37/76/183 38/78/184 47/79/185 46/77/186
f 38/78/187 39/80/188 48/81/189 47/79/190
f 39/80/191 40/82/192 49/83/193 48/81/194
f 40/82/195 41/84/196 50/85/197 49/83/198
f 41/84/199 34/70/200 43/73/201 50/85/202
f 52/87/203 51/86/204 39/45/205 38/43/206
f 53/88/207 52/87/208 38/43/209 37/41/210
f 54/89/211 53/88/212 37/41/213 36/39/214
f 55/90/215 54/89/216 36/39/217 35/36/218
f 56/92/219 55/90/220 35/36/221 34/37/222
f 57/93/223 56/91/224 34/51/225 41/49/226
f 58/94/227 57/93/228 41/49/229 40/47/230
f 51/86/231 58/94/232 40/47/233 39/45/234
f 60/104/235 59/105/236 51/106/237 52/107/238
f 61/108/239 60/104/240 52/107/241 53/109/242
f 62/110/243 61/108/244 53/109/245 54/111/246
f 63/112/247 62/110/248 54/111/249 55/113/250
f 64/114/251 63/112/252 55/113/253 56/115/254
f 65/116/255 64/114/256 56/115/257 57/117/258
f 66/118/259 65/116/260 57/117/261 58/119/262
f 59/105/263 66/118/264 58/119/265 51/106/266
f 43/61/267 44/62/268 68/121/269 67/120/270
f 44/62/271 45/64/272 70/122/273 68/121/274
f 45/64/275 46/65/276 71/123/277 70/122/278
f 46/65/279 47/66/280 72/124/281 71/123/282
f 47/66/283 48/67/284 73/125/285 72/124/286
f 48/67/287 49/68/288 74/126/289 73/125/290
f 49/68/291 50/69/292 75/127/293 74/126/294
f 50/69/295 43/61/296 67/120/297 75/127/298
