# This file uses centimeters as units for non-parametric coordinates.

v 2.188883 14.029855 -3.791428
v -2.188883 14.029855 -3.791428
v -4.377613 14.029855 0.001144
v -2.188883 14.029855 3.792343
v 2.188883 14.029855 3.792343
v 4.377766 14.029855 0.001144
v 9.621286 4.533037 -16.664200
v -9.621286 4.533037 -16.664200
v -19.242249 4.533037 -0.000458
v -9.621286 4.533037 16.665192
v 9.621286 4.533037 16.665192
v 19.242249 4.533037 -0.000458
v 10.272255 0.000000 -17.792511
v -10.272179 0.000000 -17.792511
v 0.000000 0.000000 -0.000458
v -20.544281 0.000000 -0.000458
v -10.272179 0.000000 17.792511
v 10.272255 0.000000 17.792511
v 20.544281 0.000000 -0.000458
v 2.188883 31.994509 -3.791428
v -2.188883 28.618431 -3.791428
v -4.377613 27.512108 0.001144
v -2.188883 25.091928 3.792343
v 2.188883 30.497519 3.792343
v 4.377766 33.115479 0.001144
vt 0.091346 0.351455
vt 0.091346 0.351455
vt 0.091346 0.351455
vt 0.091346 0.351455
vt 0.091346 0.351455
vt 0.091346 0.351455
vt 0.091346 0.351455
vt 0.091346 0.351455
vt 0.091346 0.351455
vt 0.091346 0.351455
vt 0.091345 0.351455
vt 0.091345 0.351455
vt 0.091346 0.351455
vt 0.091346 0.351455
vt 0.091346 0.351455
vt 0.091345 0.351455
vt 0.091346 0.351455
vt 0.091346 0.351455
vt 0.091346 0.351455
vt 0.091346 0.351455
vt 0.091346 0.351455
vt 0.091346 0.351455
vt 0.091345 0.351455
vt 0.091345 0.351455
vt 0.091346 0.351455
vt 0.091346 0.351455
vt 0.091346 0.351455
vt 0.091346 0.351455
vt 0.091346 0.351455
vt 0.091346 0.351455
vt 0.091346 0.351455
vt 0.091346 0.351455
vt 0.091346 0.351455
vn 0.000000 0.000000 -1.000000
vn 0.000000 0.000000 -1.000000
vn 0.000000 0.000000 -1.000000
vn 0.000000 0.000000 -1.000000
vn -0.866116 0.000000 -0.499844
vn -0.866116 0.000000 -0.499844
vn -0.866116 0.000000 -0.499844
vn -0.866116 0.000000 -0.499844
vn -0.866037 0.000000 0.499980
vn -0.866037 0.000000 0.499980
vn -0.866037 0.000000 0.499980
vn -0.866037 0.000000 0.499980
vn 0.000000 0.000000 1.000000
vn 0.000000 0.000000 1.000000
vn 0.000000 0.000000 1.000000
vn 0.000000 0.000000 1.000000
vn 0.866022 0.000000 0.500006
vn 0.866022 0.000000 0.500006
vn 0.866022 0.000000 0.500006
vn 0.866022 0.000000 0.500006
vn 0.866101 0.000000 -0.499870
vn 0.866101 0.000000 -0.499870
vn 0.866101 0.000000 -0.499870
vn 0.866101 0.000000 -0.499870
vn 0.000000 -1.000000 0.000000
vn 0.000000 -1.000000 0.000000
vn 0.000000 -1.000000 0.000000
vn 0.000000 -1.000000 0.000000
vn 0.000000 -1.000000 0.000000
vn 0.000000 -1.000000 0.000000
vn 0.000000 -1.000000 0.000000
vn 0.000000 -1.000000 0.000000
vn 0.000000 -1.000000 0.000000
vn 0.000000 -1.000000 0.000000
vn 0.000000 -1.000000 0.000000
vn 0.000000 -1.000000 0.000000
vn 0.000000 -1.000000 0.000000
vn 0.000000 -1.000000 0.000000
vn 0.000000 -1.000000 0.000000
vn 0.000000 -1.000000 0.000000
vn 0.000000 -1.000000 0.000000
vn 0.000000 -1.000000 0.000000
vn 0.000000 0.804709 -0.593670
vn 0.000000 0.804709 -0.593670
vn 0.000000 0.804709 -0.593670
vn 0.000000 0.804709 -0.593670
vn -0.514123 0.804725 -0.296810
vn -0.514123 0.804725 -0.296810
vn -0.514123 0.804725 -0.296810
vn -0.514123 0.804725 -0.296810
vn -0.514146 0.804708 0.296815
vn -0.514146 0.804708 0.296815
vn -0.514146 0.804708 0.296815
vn -0.514146 0.804708 0.296815
vn 0.000000 0.804711 0.593667
vn 0.000000 0.804711 0.593667
vn 0.000000 0.804711 0.593667
vn 0.000000 0.804711 0.593667
vn 0.514146 0.804706 0.296819
vn 0.514146 0.804706 0.296819
vn 0.514146 0.804706 0.296819
vn 0.514146 0.804706 0.296819
vn 0.514123 0.804723 -0.296813
vn 0.514123 0.804723 -0.296813
vn 0.514123 0.804723 -0.296813
vn 0.514123 0.804723 -0.296813
vn 0.000000 0.241539 -0.970391
vn 0.000000 0.241539 -0.970391
vn 0.000000 0.241539 -0.970391
vn 0.000000 0.241539 -0.970391
vn -0.840409 0.241419 -0.485210
vn -0.840409 0.241419 -0.485210
vn -0.840409 0.241419 -0.485211
vn -0.840409 0.241419 -0.485211
vn -0.840437 0.241369 0.485187
vn -0.840437 0.241369 0.485187
vn -0.840437 0.241369 0.485187
vn -0.840437 0.241369 0.485187
vn 0.000000 0.241339 0.970441
vn 0.000000 0.241339 0.970441
vn 0.000000 0.241339 0.970441
vn 0.000000 0.241339 0.970441
vn 0.840436 0.241376 0.485185
vn 0.840436 0.241376 0.485185
vn 0.840436 0.241376 0.485185
vn 0.840436 0.241376 0.485185
vn 0.840409 0.241426 -0.485208
vn 0.840409 0.241426 -0.485208
vn 0.840409 0.241426 -0.485208
vn 0.840409 0.241426 -0.485208
vn -0.606448 0.786382 0.117580
vn -0.547601 0.835648 -0.042728
vn -0.546350 0.824260 0.148649
vn -0.547601 0.835648 -0.042728
vn -0.593752 0.751522 0.287529
vn -0.546350 0.824260 0.148649
vn -0.546350 0.824260 0.148649
vn -0.593752 0.751522 0.287529
vn -0.551142 0.751339 0.362950
vn -0.593752 0.751522 0.287529
vn -0.591998 0.479435 0.647828
vn -0.551142 0.751339 0.362950
s off
f 1/1/1 2/2/2 21/3/3 20/4/4
f 2/2/5 3/5/6 22/6/7 21/3/8
f 3/5/9 4/7/10 23/8/11 22/6/12
f 4/7/13 5/9/14 24/10/15 23/8/16
f 5/9/17 6/11/18 25/12/19 24/10/20
f 6/11/21 1/13/22 20/14/23 25/12/24
f 14/15/25 13/16/26 15/17/27
f 16/18/28 14/15/29 15/17/30
f 17/19/31 16/18/32 15/17/33
f 18/20/34 17/19/35 15/17/36
f 19/21/37 18/20/38 15/17/39
f 13/16/40 19/21/41 15/17/42
f 2/22/43 1/23/44 7/24/45 8/25/46
f 3/26/47 2/22/48 8/25/49 9/27/50
f 4/28/51 3/26/52 9/27/53 10/29/54
f 5/30/55 4/28/56 10/29/57 11/31/58
f 6/32/59 5/30/60 11/31/61 12/33/62
f 1/23/63 6/32/64 12/33/65 7/24/66
f 8/25/67 7/24/68 13/16/69 14/15/70
f 9/27/71 8/25/72 14/15/73 16/18/74
f 10/29/75 9/27/76 16/18/77 17/19/78
f 11/31/79 10/29/80 17/19/81 18/20/82
f 12/33/83 11/31/84 18/20/85 19/21/86
f 7/24/87 12/33/88 19/21/89 13/16/90
f 20/4/91 21/3/92 25/12/93
f 21/3/94 22/6/95 25/12/96
f 25/12/97 22/6/98 24/10/99
f 22/6/100 23/8/101 24/10/102
