# This file uses centimeters as units for non-parametric coordinates.

v 250.000488 25.000000 250.000000
v 250.000488 25.000000 -0.000244
v 0.000488 25.000000 250.000000
v 0.000488 25.000000 -0.000244
v 0.000488 0.000000 250.000000
v 0.000488 0.000000 -0.000244
v 250.000488 0.000000 250.000000
v 250.000488 0.000000 -0.000244
vt 0.876953 0.125906
vt 0.876709 0.125906
vt 0.876709 0.125907
vt 0.876953 0.125907
vt 0.876709 0.125907
vt 0.876953 0.125907
vt 0.876709 0.125906
vt 0.876953 0.125906
vt 0.998719 0.125686
vt 0.876760 0.125686
vt 0.876760 0.125906
vt 0.998719 0.125906
vt 0.876953 0.125907
vt 0.876953 0.125907
vt 0.876953 0.125907
vt 0.876953 0.125907
vn 0.000000 1.000000 0.000000
vn 0.000000 1.000000 0.000000
vn 0.000000 1.000000 0.000000
vn 0.000000 1.000000 0.000000
vn -1.000000 0.000000 0.000000
vn -1.000000 0.000000 0.000000
vn -1.000000 0.000000 0.000000
vn -1.000000 0.000000 0.000000
vn 0.000000 -1.000000 0.000000
vn 0.000000 -1.000000 0.000000
vn 0.000000 -1.000000 0.000000
vn 0.000000 -1.000000 0.000000
vn 0.000000 0.000000 -1.000000
vn 0.000000 0.000000 -1.000000
vn 0.000000 0.000000 -1.000000
vn 0.000000 0.000000 -1.000000
vn 0.000000 0.000000 1.000000
vn 0.000000 0.000000 1.000000
vn 0.000000 0.000000 1.000000
vn 0.000000 0.000000 1.000000
vn 1.000000 0.000000 0.000000
vn 1.000000 0.000000 0.000000
vn 1.000000 0.000000 0.000000
vn 1.000000 0.000000 0.000000
s off
f 1/12/1 2/11/2 4/10/3 3/9/4
f 3/1/5 4/2/6 6/3/7 5/4/8
f 5/4/9 6/3/10 8/5/11 7/6/12
f 2/7/13 8/5/14 6/3/15 4/2/16
f 7/6/17 1/8/18 3/1/19 5/4/20
f 2/13/21 1/14/22 7/15/23 8/16/24
