# This file uses centimeters as units for non-parametric coordinates.

v 0.000000 -25.000000 0.000000
v 250.000000 -25.000000 0.000000
v 0.000000 -25.000000 250.000000
v 250.000000 -25.000000 250.000000
v 0.000000 0.000000 250.000000
v 250.000000 0.000000 250.000000
v 0.000000 0.000000 0.000000
v 250.000000 0.000000 0.000000
v 14.843262 -25.000000 14.843262
v 235.156738 -25.000000 14.843262
v 232.870117 -20.480469 233.872803
v 14.843262 -25.000000 235.156982
v 14.843262 -25.000000 136.015625
v 235.156738 -25.000000 136.015625
v 235.156738 -25.000000 113.984375
v 14.843262 -25.000000 113.984375
v 22.074219 -10.706726 140.076904
v 227.925781 -10.706726 140.076904
v 227.925781 -10.706726 231.095703
v 22.074219 -10.706726 231.095703
v 22.074219 -10.706726 18.904297
v 227.925781 -10.706726 18.904297
v 227.925781 -10.706726 109.923096
v 22.074219 -12.537292 109.923096
v 29.224609 -25.000000 14.843262
v 68.317383 -25.000000 14.843262
v 48.585938 -21.097351 15.952026
v 48.130371 -25.000000 10.578735
v 194.000000 -25.000000 113.984375
v 167.594727 -19.844604 112.519531
v 135.588379 -25.000000 113.984375
v 173.062988 -25.000000 119.134888
v 70.185059 -25.000000 136.015625
v 112.135742 -25.000000 136.015747
v 92.697266 -20.413605 137.318848
v 93.543457 -25.000000 133.269165
v 235.156738 -25.000000 210.043213
v 237.458496 -25.000000 237.458618
v 222.766602 -25.000000 235.156982
v 14.843262 -25.000000 183.085693
v 14.843262 -25.000000 219.261108
v 10.547363 -25.000000 207.071899
v 16.253906 -22.211609 207.382446
v 89.661133 -10.706726 109.923096
v 22.074219 -10.706726 63.519165
v 36.446777 -9.260193 100.734985
vt 0.102738 0.253572
vt 0.102738 0.253572
vt 0.102738 0.253572
vt 0.102738 0.253572
vt 0.102738 0.253572
vt 0.102738 0.253572
vt 0.102738 0.253572
vt 0.102738 0.253572
vt 0.102738 0.253572
vt 0.102738 0.253572
vt 0.102738 0.253572
vt 0.102738 0.253572
vt 0.102738 0.253572
vt 0.102738 0.253572
vt 0.102738 0.253572
vt 0.102738 0.253572
vt 0.102738 0.253572
vt 0.102738 0.253572
vt 0.102738 0.253572
vt 0.102738 0.253572
vt 0.102738 0.253572
vt 0.102738 0.253572
vt 0.102738 0.253572
vt 0.102738 0.253572
vt 0.102738 0.253572
vt 0.102738 0.253572
vt 0.102738 0.253572
vt 0.102738 0.231188
vt 0.102738 0.253572
vt 0.102738 0.231188
vt 0.102738 0.253572
vt 0.102738 0.253572
vt 0.102738 0.253572
vt 0.102738 0.253572
vt 0.102738 0.253572
vt 0.102738 0.253572
vt 0.102738 0.253572
vt 0.102738 0.253572
vt 0.102738 0.253572
vt 0.102738 0.253572
vt 0.102738 0.253572
vt 0.102738 0.253572
vt 0.102738 0.253572
vt 0.102738 0.253572
vt 0.102738 0.253572
vt 0.102738 0.253572
vt 0.102738 0.253572
vt 0.102738 0.253572
vt 0.102738 0.253572
vt 0.102738 0.231188
vt 0.102738 0.253572
vt 0.102738 0.231188
vt 0.102738 0.231188
vt 0.102738 0.253572
vt 0.102738 0.253572
vt 0.102738 0.231188
vt 0.102738 0.231188
vt 0.102738 0.253572
vt 0.102738 0.231188
vt 0.102738 0.231188
vt 0.102738 0.231188
vt 0.102738 0.231188
vn 0.000000 -1.000000 0.000000
vn 0.000000 -1.000000 0.000000
vn 0.000000 -1.000000 0.000000
vn 0.000000 -1.000000 0.000000
vn 0.000000 0.000000 1.000000
vn 0.000000 0.000000 1.000000
vn 0.000000 0.000000 1.000000
vn 0.000000 0.000000 1.000000
vn 0.000000 1.000000 0.000000
vn 0.000000 1.000000 0.000000
vn 0.000000 1.000000 0.000000
vn 0.000000 1.000000 0.000000
vn 0.000000 0.000000 -1.000000
vn 0.000000 0.000000 -1.000000
vn 0.000000 0.000000 -1.000000
vn 0.000000 0.000000 -1.000000
vn 1.000000 0.000000 0.000000
vn 1.000000 0.000000 0.000000
vn 1.000000 0.000000 0.000000
vn 1.000000 0.000000 0.000000
vn -1.000000 0.000000 0.000000
vn -1.000000 0.000000 0.000000
vn -1.000000 0.000000 0.000000
vn -1.000000 0.000000 0.000000
vn 0.000000 -1.000000 0.000000
vn 0.000000 -1.000000 0.000000
vn 0.000000 -1.000000 0.000000
vn 0.000000 -1.000000 0.000000
vn -0.724155 -0.686952 0.060799
vn -0.724155 -0.686952 0.060799
vn -0.724155 -0.686952 0.060799
vn 0.131146 -0.531043 -0.837134
vn 0.131146 -0.531043 -0.837134
vn 0.131146 -0.531043 -0.837134
vn 0.000000 -1.000000 0.000000
vn 0.000000 -1.000000 0.000000
vn 0.000000 -1.000000 0.000000
vn 0.000000 -1.000000 0.000000
vn 0.000000 -1.000000 0.000000
vn 0.000000 -1.000000 0.000000
vn 0.000000 -1.000000 0.000000
vn 0.090378 -0.747942 -0.657583
vn 0.090378 -0.747942 -0.657583
vn 0.090378 -0.747942 -0.657583
vn 0.000000 -0.273316 0.961924
vn 0.000000 -0.273316 0.961924
vn 0.000000 -0.273316 0.961924
vn 0.892312 -0.451420 0.000000
vn 0.892312 -0.451420 0.000000
vn 0.892312 -0.451420 0.000000
vn -0.000000 -0.273302 0.961928
vn -0.000000 -0.273302 0.961928
vn -0.000000 -0.273302 0.961928
vn -0.000000 -0.273302 0.961928
vn -0.892312 -0.451420 0.000000
vn -0.892312 -0.451420 0.000000
vn -0.892312 -0.451420 0.000000
vn -0.892312 -0.451420 0.000000
vn 0.000000 -0.273321 -0.961923
vn 0.000000 -0.273321 -0.961923
vn 0.000000 -0.273321 -0.961923
vn 0.892312 -0.451420 0.000000
vn 0.892312 -0.451420 0.000000
vn 0.892312 -0.451420 0.000000
vn 0.129805 -0.807463 0.575460
vn 0.129805 -0.807463 0.575460
vn 0.129805 -0.807463 0.575460
vn -0.124633 -0.797746 0.589973
vn -0.124633 -0.797746 0.589973
vn -0.124633 -0.797746 0.589973
vn 0.000000 -1.000000 0.000000
vn 0.000000 -1.000000 0.000000
vn 0.000000 -1.000000 0.000000
vn 0.000000 -1.000000 0.000000
vn 0.000000 -1.000000 0.000000
vn 0.000000 -1.000000 0.000000
vn -0.132542 -0.831951 -0.538786
vn -0.132542 -0.831951 -0.538786
vn -0.132542 -0.831951 -0.538786
vn 0.088738 -0.650024 0.754715
vn 0.088738 -0.650024 0.754715
vn 0.088738 -0.650024 0.754715
vn -0.108601 -0.669154 0.735146
vn -0.108601 -0.669154 0.735146
vn -0.108601 -0.669154 0.735146
vn 0.000000 -1.000000 0.000000
vn 0.000000 -1.000000 0.000000
vn 0.000000 -1.000000 0.000000
vn 0.000000 -1.000000 0.000000
vn 0.000000 -1.000000 0.000000
vn 0.000000 -1.000000 0.000000
vn 0.000000 -1.000000 0.000000
vn 0.000000 -1.000000 0.000000
vn 0.000000 -1.000000 0.000000
vn 0.000000 -1.000000 0.000000
vn 0.000000 -1.000000 0.000000
vn 0.000000 -1.000000 0.000000
vn 0.000000 -0.273320 -0.961923
vn 0.000000 -0.273320 -0.961923
vn 0.000000 -0.273320 -0.961923
vn 0.000000 -0.273320 -0.961923
vn 0.000000 -0.273320 -0.961923
vn -0.892313 -0.451418 -0.000001
vn -0.892313 -0.451418 -0.000001
vn -0.892313 -0.451418 -0.000001
vn -0.892313 -0.451418 -0.000001
vn -0.892313 -0.451418 -0.000001
vn 0.000000 -1.000000 0.000000
vn 0.000000 -1.000000 0.000000
vn 0.000000 -1.000000 0.000000
vn 0.000000 -1.000000 0.000000
vn 0.000000 -1.000000 0.000000
vn 0.000000 -1.000000 0.000000
vn 0.000000 -1.000000 0.000000
vn 0.000002 -0.273304 0.961928
vn 0.000002 -0.273304 0.961928
vn 0.000002 -0.273304 0.961928
vn 0.000002 -0.273304 0.961928
vn 0.000000 -0.273310 0.961926
vn 0.000000 -0.273310 0.961926
vn 0.000000 -0.273310 0.961926
vn 0.000000 -0.273320 -0.961923
vn 0.000000 -0.273320 -0.961923
vn 0.000000 -0.273320 -0.961923
vn 0.000000 -0.273320 -0.961923
vn 0.000000 -1.000000 0.000000
vn 0.000000 -1.000000 0.000000
vn 0.000000 -1.000000 0.000000
vn 0.000000 -1.000000 0.000000
vn 0.000000 -1.000000 0.000000
vn 0.000000 -1.000000 0.000000
vn -0.000001 -0.273322 0.961923
vn -0.000001 -0.273322 0.961923
vn -0.000001 -0.273322 0.961923
vn -0.000001 -0.273322 0.961923
vn 0.000001 -0.273316 0.961924
vn 0.000001 -0.273316 0.961924
vn 0.000001 -0.273316 0.961924
vn 0.000001 -0.273316 0.961924
vn 0.434273 -0.897417 0.077778
vn 0.434273 -0.897417 0.077778
vn 0.434273 -0.897417 0.077778
vn 0.440507 -0.884223 -0.155250
vn 0.440507 -0.884223 -0.155250
vn 0.440507 -0.884223 -0.155250
vn 0.892312 -0.451420 -0.000000
vn 0.892312 -0.451420 -0.000000
vn 0.892312 -0.451420 -0.000000
vn 0.892312 -0.451420 -0.000000
vn 0.892312 -0.451420 0.000000
vn 0.892312 -0.451420 0.000000
vn 0.892312 -0.451420 0.000000
vn 0.892312 -0.451420 0.000000
vn 0.000000 -1.000000 0.000000
vn 0.000000 -1.000000 0.000000
vn 0.000000 -1.000000 0.000000
vn 0.000000 -1.000000 0.000000
vn 0.000000 -1.000000 0.000000
vn 0.000000 -1.000000 0.000000
vn 0.000000 -1.000000 0.000000
vn 0.000000 -1.000000 0.000000
vn 0.000000 -1.000000 0.000000
vn 0.198598 -0.979319 -0.038633
vn 0.198598 -0.979319 -0.038633
vn 0.198598 -0.979319 -0.038633
vn 0.025830 -0.953672 -0.299739
vn 0.025830 -0.953672 -0.299739
vn 0.025830 -0.953672 -0.299739
vn 0.000000 -1.000000 0.000000
vn 0.000000 -1.000000 0.000000
vn 0.000000 -1.000000 0.000000
vn 0.000000 -1.000000 0.000000
vn 0.002194 -0.283929 -0.958843
vn 0.002194 -0.283929 -0.958843
vn 0.002194 -0.283929 -0.958843
vn 0.002194 -0.283929 -0.958843
vn 0.002194 -0.283929 -0.958843
vn -0.036241 -0.997948 0.052785
vn -0.036241 -0.997948 0.052785
vn -0.036241 -0.997948 0.052785
vn 0.883774 -0.467877 -0.005885
vn 0.883774 -0.467877 -0.005885
vn 0.883774 -0.467877 -0.005885
vn 0.883774 -0.467877 -0.005885
s off
f 17/59/1 18/62/2 19/61/3 20/60/4
f 3/3/5 4/4/6 6/6/7 5/5/8
f 5/5/9 6/6/10 8/8/11 7/7/12
f 7/7/13 8/8/14 2/10/15 1/9/16
f 2/2/17 8/11/18 6/12/19 4/4/20
f 7/13/21 1/1/22 3/3/23 5/14/24
f 1/1/25 28/34/26 25/31/27 9/15/28
f 37/43/29 38/44/30 11/17/31
f 38/44/32 39/45/33 11/17/34
f 3/3/35 42/48/36 41/47/37 12/18/38
f 44/50/39 22/28/40 23/57/41
f 30/36/42 32/38/43 31/37/44
f 17/23/45 35/41/46 18/24/47
f 20/26/48 43/49/49 17/23/50
f 22/58/51 27/33/52 26/32/53 10/16/54
f 10/16/55 15/21/56 23/29/57 22/58/58
f 23/29/59 30/36/60 44/55/61
f 45/51/62 9/15/63 21/27/64
f 28/34/65 27/33/66 25/31/67
f 26/32/68 27/33/69 28/34/70
f 32/38/71 36/42/72 33/39/73 13/19/74 16/22/75 31/37/76
f 29/35/77 32/38/78 30/36/79
f 36/42/80 35/41/81 33/39/82
f 34/40/83 35/41/84 36/42/85
f 2/2/86 4/4/87 38/44/88 37/43/89 14/20/90 15/21/91 10/16/92
f 4/4/93 3/3/94 12/18/95 39/45/96 38/44/97
f 11/17/98 39/45/99 12/18/100 20/26/101 19/25/102
f 14/20/103 37/43/104 11/17/105 19/25/106 18/24/107
f 28/34/108 2/2/109 10/16/110 26/32/111
f 1/1/112 2/2/113 28/34/114
f 9/15/115 25/31/116 27/33/117 21/27/118
f 21/27/119 27/33/120 22/58/121
f 15/21/122 29/35/123 30/36/124 23/29/125
f 14/20/126 34/40/127 36/42/128 32/38/129 29/35/130 15/21/131
f 13/19/132 33/39/133 35/41/134 17/23/135
f 18/24/136 35/41/137 34/40/138 14/20/139
f 43/49/140 42/48/141 40/46/142
f 41/47/143 42/48/144 43/49/145
f 12/18/146 41/47/147 43/49/148 20/26/149
f 17/23/150 43/49/151 40/46/152 13/19/153
f 42/48/154 1/1/155 9/15/156 16/22/157 13/19/158 40/46/159
f 3/3/160 1/1/161 42/48/162
f 45/53/163 46/52/164 24/30/165
f 24/30/166 46/52/167 44/50/168
f 21/56/169 22/28/170 44/50/171 45/53/172
f 24/54/173 44/55/174 30/36/175 31/37/176 16/22/177
f 45/53/178 44/50/179 46/52/180
f 16/22/181 9/15/182 45/51/183 24/54/184
