# This file uses centimeters as units for non-parametric coordinates.

v 500.000000 25.000000 0.000061
v 250.001465 25.000000 0.000061
v 500.000000 25.000000 250.000061
v 250.001465 24.999998 250.000061
v 500.000000 0.000000 250.000061
v 250.000000 0.000000 250.000061
v 500.000000 0.000000 0.000061
v 250.000000 0.000000 0.000061
v 0.000000 25.000000 0.000061
v 0.000000 24.999998 250.000061
v 0.000000 0.000000 250.000061
v 0.000000 0.000000 0.000061
v 250.001465 25.000000 10.113953
v 10.114746 25.000000 10.113953
v 10.114746 24.999998 239.885681
v 248.733887 24.999998 239.885681
v 489.889160 25.000000 10.113953
v 489.889160 25.000000 239.885681
v 472.868652 25.000000 22.347534
v 250.001465 27.415081 18.023621
v 257.867676 25.756973 229.266479
v 481.979004 27.415081 231.976013
v 22.686035 26.097569 24.112976
v 25.318359 25.895750 227.526367
v 10.114746 25.000000 157.694275
v 18.024414 27.415081 167.120239
v 81.134766 27.415081 231.976013
v 101.164063 24.999998 239.885681
v 37.674316 27.415081 213.498901
v 180.521484 24.999998 239.885681
v 188.356445 27.415081 231.976013
v 260.099121 27.415081 218.697510
v 314.905273 27.415081 231.976013
v 325.539551 25.000000 239.885681
v 489.889160 25.000000 111.560669
v 481.979004 27.415081 71.538452
v 384.922363 27.415081 18.023621
v 342.794434 25.000000 10.113953
v 457.199707 27.415081 33.052917
v 77.750977 25.000000 10.113953
v 73.797363 27.415081 18.023621
v 18.024414 27.415081 54.789185
v 10.114746 25.000000 61.130127
vt 0.102738 0.253572
vt 0.102738 0.253572
vt 0.102738 0.253572
vt 0.102738 0.253572
vt 0.102738 0.253572
vt 0.102738 0.253572
vt 0.102738 0.253572
vt 0.102738 0.253572
vt 0.102738 0.253572
vt 0.102738 0.253572
vt 0.102738 0.253572
vt 0.102738 0.253572
vt 0.102738 0.253572
vt 0.102738 0.253572
vt 0.102738 0.253572
vt 0.102738 0.253572
vt 0.102738 0.253572
vt 0.102738 0.253572
vt 0.102738 0.253572
vt 0.102738 0.253572
vt 0.102738 0.253572
vt 0.102738 0.253572
vt 0.102738 0.253572
vt 0.102738 0.253572
vt 0.102738 0.277302
vt 0.102738 0.277302
vt 0.102738 0.277302
vt 0.102738 0.277302
vt 0.102738 0.277302
vt 0.102738 0.277302
vt 0.102738 0.277302
vt 0.102738 0.277302
vt 0.102738 0.277302
vt 0.102738 0.277302
vt 0.102738 0.277302
vt 0.102738 0.277302
vt 0.102738 0.277302
vt 0.102738 0.277302
vt 0.102738 0.277302
vt 0.102738 0.277302
vt 0.102738 0.253572
vt 0.102738 0.253572
vt 0.102738 0.253572
vt 0.102738 0.253572
vt 0.102738 0.253572
vt 0.102738 0.253572
vt 0.102738 0.253572
vt 0.102738 0.253572
vt 0.102738 0.277302
vt 0.102738 0.253572
vt 0.102738 0.277302
vt 0.102738 0.277302
vt 0.102738 0.253572
vt 0.102738 0.277302
vt 0.102738 0.277302
vt 0.102738 0.253572
vt 0.102738 0.277302
vt 0.102738 0.277302
vt 0.102738 0.277302
vt 0.102738 0.277302
vt 0.102738 0.277302
vt 0.102738 0.253572
vt 0.102738 0.277302
vt 0.102738 0.253572
vt 0.102738 0.277302
vt 0.102738 0.277302
vt 0.102738 0.277302
vt 0.102738 0.277302
vt 0.102738 0.253572
vt 0.102738 0.277302
vt 0.102738 0.277302
vt 0.102738 0.253572
vt 0.102738 0.277302
vt 0.102738 0.277302
vt 0.102738 0.277302
vt 0.102738 0.253572
vn 0.000000 1.000000 0.000000
vn 0.000000 1.000000 0.000000
vn 0.000000 1.000000 0.000000
vn 0.000000 1.000000 0.000000
vn 0.000000 1.000000 0.000000
vn 0.000000 1.000000 0.000000
vn 0.000000 1.000000 0.000000
vn 0.000000 0.000000 1.000000
vn 0.000000 0.000000 1.000000
vn 0.000000 0.000000 1.000000
vn 0.000000 0.000000 1.000000
vn 0.000000 -1.000000 0.000000
vn 0.000000 -1.000000 0.000000
vn 0.000000 -1.000000 0.000000
vn 0.000000 -1.000000 0.000000
vn 0.000000 0.000000 -1.000000
vn 0.000000 0.000000 -1.000000
vn 0.000000 0.000000 -1.000000
vn 0.000000 0.000000 -1.000000
vn 1.000000 0.000000 0.000000
vn 1.000000 0.000000 0.000000
vn 1.000000 0.000000 0.000000
vn 1.000000 0.000000 0.000000
vn 0.000000 1.000000 0.000000
vn 0.000000 1.000000 0.000000
vn 0.000000 1.000000 0.000000
vn 0.000000 1.000000 0.000000
vn 0.000000 1.000000 0.000000
vn 0.000000 1.000000 0.000000
vn 0.000000 1.000000 0.000000
vn 0.000000 1.000000 0.000000
vn 0.000000 0.000000 1.000000
vn 0.000000 0.000000 1.000000
vn 0.000000 0.000000 1.000000
vn 0.000000 0.000000 1.000000
vn 0.000000 -1.000000 0.000000
vn 0.000000 -1.000000 0.000000
vn 0.000000 -1.000000 0.000000
vn 0.000000 -1.000000 0.000000
vn 0.000000 0.000000 -1.000000
vn 0.000000 0.000000 -1.000000
vn 0.000000 0.000000 -1.000000
vn 0.000000 0.000000 -1.000000
vn -1.000000 0.000000 0.000000
vn -1.000000 0.000000 0.000000
vn -1.000000 0.000000 0.000000
vn -1.000000 0.000000 0.000000
vn 0.000000 1.000000 0.000000
vn 0.000000 1.000000 0.000000
vn 0.000000 1.000000 0.000000
vn 0.000000 1.000000 0.000000
vn 0.000000 1.000000 0.000000
vn -0.000000 1.000000 0.000000
vn -0.000000 1.000000 0.000000
vn -0.000000 1.000000 0.000000
vn -0.000000 1.000000 0.000000
vn -0.000000 1.000000 0.000000
vn -0.000000 1.000000 0.000000
vn 0.000000 1.000000 0.000000
vn 0.000000 1.000000 0.000000
vn 0.000000 1.000000 0.000000
vn 0.000000 1.000000 0.000000
vn 0.000000 1.000000 0.000000
vn 0.000000 1.000000 0.000000
vn 0.000000 1.000000 0.000000
vn 0.000000 1.000000 0.000000
vn 0.000000 1.000000 0.000000
vn 0.000000 1.000000 0.000000
vn 0.000000 1.000000 0.000000
vn -0.000000 1.000000 0.000000
vn -0.000000 1.000000 0.000000
vn -0.000000 1.000000 0.000000
vn -0.000000 1.000000 0.000000
vn -0.000000 1.000000 0.000000
vn 0.000000 1.000000 0.000000
vn 0.000000 1.000000 0.000000
vn 0.000000 1.000000 0.000000
vn 0.000000 1.000000 0.000000
vn 0.000000 1.000000 0.000000
vn 0.000000 0.956411 -0.292024
vn 0.000000 0.956411 -0.292024
vn 0.000000 0.956411 -0.292024
vn 0.000000 0.956411 -0.292024
vn 0.000000 0.956411 0.292024
vn 0.000000 0.956411 0.292024
vn 0.000000 0.956411 0.292024
vn 0.000000 0.956411 0.292024
vn 0.292009 0.956416 0.000000
vn 0.292009 0.956416 0.000000
vn 0.292009 0.956416 0.000000
vn 0.292009 0.956416 0.000000
vn 0.000000 0.956411 -0.292024
vn 0.000000 0.956411 -0.292024
vn 0.000000 0.956411 -0.292024
vn 0.000000 0.956411 -0.292024
vn -0.292024 0.956411 0.000000
vn -0.292024 0.956411 0.000000
vn -0.292024 0.956411 0.000000
vn -0.292024 0.956411 0.000000
vn 0.000000 0.956411 0.292024
vn 0.000000 0.956411 0.292024
vn 0.000000 0.956411 0.292024
vn 0.000000 0.956411 0.292024
vn -0.139574 0.990054 0.017688
vn -0.139574 0.990054 0.017688
vn -0.139574 0.990054 0.017688
vn -0.139574 0.990054 0.017688
vn -0.033380 0.996354 0.078514
vn -0.033380 0.996354 0.078514
vn -0.033380 0.996354 0.078514
vn -0.015193 0.986225 0.164712
vn -0.015193 0.986225 0.164712
vn -0.015193 0.986225 0.164712
vn -0.015193 0.986225 0.164712
vn 0.015425 0.983098 0.182428
vn 0.015425 0.983098 0.182428
vn 0.015425 0.983098 0.182428
vn 0.015425 0.983098 0.182428
vn 0.029810 0.986494 0.161060
vn 0.029810 0.986494 0.161060
vn 0.029810 0.986494 0.161060
vn -0.035741 0.988413 0.147521
vn -0.035741 0.988413 0.147521
vn -0.035741 0.988413 0.147521
vn -0.015647 0.985328 0.169951
vn -0.015647 0.985328 0.169951
vn -0.015647 0.985328 0.169951
vn -0.015647 0.985328 0.169951
vn 0.122082 0.992247 -0.023291
vn 0.122082 0.992247 -0.023291
vn 0.122082 0.992247 -0.023291
vn 0.122082 0.992247 -0.023291
vn 0.035416 0.984752 -0.170319
vn 0.035416 0.984752 -0.170319
vn 0.035416 0.984752 -0.170319
vn 0.012656 0.990823 -0.134570
vn 0.012656 0.990823 -0.134571
vn 0.012656 0.990823 -0.134571
vn 0.012656 0.990823 -0.134571
vn -0.018714 0.988341 -0.151101
vn -0.018714 0.988341 -0.151101
vn -0.018714 0.988341 -0.151101
vn -0.018714 0.988341 -0.151101
vn -0.031413 0.998370 -0.047653
vn -0.031413 0.998370 -0.047653
vn -0.031413 0.998370 -0.047653
vn -0.159885 0.986818 -0.025039
vn -0.159885 0.986818 -0.025039
vn -0.159885 0.986818 -0.025039
vn -0.159885 0.986818 -0.025039
vn -0.082692 0.995959 0.035035
vn -0.082692 0.995959 0.035035
vn -0.082692 0.995959 0.035035
vn 0.106186 0.991993 -0.068369
vn 0.106186 0.991993 -0.068369
vn 0.106186 0.991993 -0.068369
s off
f 36/66/1 39/70/2 37/67/3 20/34/4 32/59/5 33/61/6 22/36/7
f 3/3/8 4/4/9 6/6/10 5/5/11
f 5/5/12 6/6/13 8/8/14 7/7/15
f 7/7/16 8/8/17 2/10/18 1/9/19
f 7/11/20 1/1/21 3/3/22 5/12/23
f 20/37/24 41/73/25 42/74/26 26/51/27 29/55/28 27/52/29 31/58/30 32/60/31
f 4/16/32 10/15/33 11/17/34 6/18/35
f 6/18/36 11/17/37 12/19/38 8/20/39
f 8/20/40 12/19/41 9/21/42 2/22/43
f 9/14/44 12/23/45 11/24/46 10/15/47
f 2/13/48 9/14/49 14/48/50 40/72/51 13/45/52
f 9/14/53 10/15/54 15/47/55 25/50/56 43/76/57 14/48/58
f 10/15/59 4/16/60 16/46/61 30/56/62 28/53/63 15/47/64
f 1/1/65 2/2/66 13/44/67 38/69/68 17/41/69
f 4/4/70 3/3/71 18/42/72 34/62/73 16/43/74
f 3/3/75 1/1/76 17/41/77 35/64/78 18/42/79
f 37/67/80 38/68/81 13/30/82 20/34/83
f 33/61/84 34/63/85 18/32/86 22/36/87
f 18/32/88 35/65/89 36/66/90 22/36/91
f 13/25/92 40/71/93 41/73/94 20/37/95
f 42/74/96 43/75/97 25/49/98 26/51/99
f 27/52/100 28/54/101 30/57/102 31/58/103
f 26/51/104 25/49/105 15/27/106 24/39/107
f 27/52/108 29/55/109 24/39/110
f 15/27/111 28/54/112 27/52/113 24/39/114
f 31/58/115 30/57/116 16/28/117 21/40/118
f 32/60/119 31/58/120 21/40/121
f 33/61/122 32/59/123 21/35/124
f 16/31/125 34/63/126 33/61/127 21/35/128
f 36/66/129 35/65/130 17/29/131 19/33/132
f 19/33/133 37/67/134 39/70/135
f 17/29/136 38/68/137 37/67/138 19/33/139
f 41/73/140 40/71/141 14/26/142 23/38/143
f 42/74/144 41/73/145 23/38/146
f 14/26/147 43/75/148 42/74/149 23/38/150
f 24/39/151 29/55/152 26/51/153
f 19/33/154 39/70/155 36/66/156
