# This file uses centimeters as units for non-parametric coordinates.

v 28.580566 300.000000 -28.580811
v -28.580566 300.000000 -28.580811
v 28.580566 300.000000 28.580566
v -28.580566 300.000000 28.580566
v 28.580566 0.000000 28.580566
v -28.580566 0.000000 28.580566
v 28.580566 0.000000 -28.580811
v -28.580566 0.000000 -28.580811
v 0.000000 307.703278 0.000000
v 0.000000 -7.703278 0.000000
v 28.580566 267.803314 28.580566
v -28.580566 267.803314 28.580566
v -28.580566 267.803314 -28.580811
v 28.580566 267.803314 -28.580811
v 28.580566 32.301208 -28.580811
v -28.580566 32.301208 -28.580811
v -28.580566 32.301208 28.580566
v 28.580566 32.301208 28.580566
v 13.147217 180.062988 19.005859
v -14.649902 104.414932 19.005859
v -20.549805 34.709106 20.549561
v 20.549805 34.709106 20.549561
v 20.549805 34.709106 -20.549805
v -20.549805 34.709106 -20.549805
v -19.006104 185.709793 -12.279053
v 19.006104 117.033112 -13.669434
v 20.549805 265.395416 20.549561
v -20.549805 265.395416 20.549561
v -20.549805 265.395416 -20.549805
v 20.549805 265.395416 -20.549805
v -10.885742 183.865387 -19.006104
v -19.006104 247.707565 -19.006104
v -19.006104 161.459946 -19.006104
v -19.006104 108.224518 14.659912
v -19.006104 128.157059 19.005859
v -19.006104 67.276871 19.005859
v 19.006104 160.768738 19.005859
v 19.006104 224.194092 19.005859
v 19.006104 180.529602 12.009521
v 19.006104 74.355392 -19.006104
v 19.006104 147.327240 -19.006104
v 13.570801 121.580124 -19.006104
vt 0.114033 0.256230
vt 0.114033 0.256230
vt 0.114033 0.256230
vt 0.114033 0.256230
vt 0.114033 0.256230
vt 0.114033 0.256230
vt 0.114033 0.256230
vt 0.114033 0.256230
vt 0.114033 0.256230
vt 0.114033 0.256230
vt 0.114033 0.256230
vt 0.114033 0.256230
vt 0.114033 0.256230
vt 0.114033 0.256230
vt 0.114033 0.256230
vt 0.114033 0.256230
vt 0.495117 0.203491
vt 0.495117 0.203491
vt 0.495117 0.203491
vt 0.495117 0.203491
vt 0.495117 0.203491
vt 0.495117 0.203491
vt 0.495117 0.203491
vt 0.495117 0.203491
vt 0.114033 0.256230
vt 0.114033 0.256230
vt 0.114033 0.256230
vt 0.114033 0.256230
vt 0.114033 0.256230
vt 0.114033 0.256230
vt 0.114033 0.256230
vt 0.114033 0.256230
vt 0.114033 0.256230
vt 0.114033 0.256230
vt 0.114033 0.256230
vt 0.114033 0.256230
vt 0.114033 0.256230
vt 0.114033 0.256230
vt 0.114033 0.256230
vt 0.114033 0.256230
vt 0.114033 0.256230
vt 0.114033 0.256230
vt 0.114033 0.256230
vt 0.114033 0.256230
vt 0.114033 0.256230
vt 0.114033 0.256230
vt 0.114033 0.256230
vt 0.114033 0.256230
vt 0.114033 0.256230
vt 0.114033 0.256230
vt 0.114033 0.256230
vt 0.114033 0.256230
vt 0.114033 0.256230
vt 0.114033 0.256230
vt 0.114033 0.256230
vt 0.114033 0.256230
vt 0.495117 0.203491
vt 0.495117 0.203491
vt 0.495117 0.203491
vt 0.495117 0.203491
vt 0.495117 0.203487
vt 0.495117 0.203487
vt 0.495117 0.203491
vt 0.495117 0.203491
vt 0.495117 0.203487
vt 0.495117 0.203487
vt 0.495117 0.203491
vt 0.495117 0.203487
vt 0.495117 0.203491
vt 0.495117 0.203491
vt 0.495117 0.203491
vt 0.495117 0.203491
vn -0.260242 0.965544 0.000000
vn -0.260242 0.965544 0.000000
vn -0.260242 0.965544 0.000000
vn 0.000000 0.000000 1.000000
vn 0.000000 0.000000 1.000000
vn 0.000000 0.000000 1.000000
vn 0.000000 0.000000 1.000000
vn 0.000000 -0.965544 -0.260239
vn 0.000000 -0.965544 -0.260239
vn 0.000000 -0.965544 -0.260239
vn 0.000000 0.000000 -1.000000
vn 0.000000 0.000000 -1.000000
vn 0.000000 0.000000 -1.000000
vn 0.000000 0.000000 -1.000000
vn -1.000000 -0.000000 0.000000
vn -1.000000 -0.000000 0.000000
vn -1.000000 -0.000000 0.000000
vn -1.000000 -0.000000 0.000000
vn 1.000000 -0.000000 0.000000
vn 1.000000 -0.000000 0.000000
vn 1.000000 -0.000000 0.000000
vn 1.000000 -0.000000 0.000000
vn 0.000000 0.965544 0.260242
vn 0.000000 0.965544 0.260242
vn 0.000000 0.965544 0.260242
vn 0.260242 0.965544 0.000000
vn 0.260242 0.965544 0.000000
vn 0.260242 0.965544 0.000000
vn 0.000000 0.965544 -0.260239
vn 0.000000 0.965544 -0.260239
vn 0.000000 0.965544 -0.260239
vn -0.260241 -0.965544 0.000000
vn -0.260241 -0.965544 0.000000
vn -0.260241 -0.965544 0.000000
vn 0.260242 -0.965544 0.000000
vn 0.260242 -0.965544 0.000000
vn 0.260242 -0.965544 0.000000
vn 0.000000 -0.965544 0.260242
vn 0.000000 -0.965544 0.260242
vn 0.000000 -0.965544 0.260242
vn 0.020996 -0.017296 0.999630
vn 0.020996 -0.017296 0.999630
vn 0.020996 -0.017296 0.999630
vn 0.020996 -0.017296 0.999630
vn -0.999349 -0.019915 -0.030095
vn -0.999349 -0.019915 -0.030095
vn -0.999349 -0.019915 -0.030095
vn -0.999349 -0.019915 -0.030095
vn -0.028837 -0.022727 -0.999326
vn -0.028837 -0.022727 -0.999326
vn -0.028837 -0.022727 -0.999326
vn -0.028837 -0.022727 -0.999326
vn 1.000000 0.000000 0.000000
vn 1.000000 0.000000 0.000000
vn 1.000000 0.000000 0.000000
vn 1.000000 0.000000 0.000000
vn 0.000000 0.000000 1.000000
vn 0.000000 0.000000 1.000000
vn 0.000000 0.000000 1.000000
vn 0.000000 0.000000 1.000000
vn -1.000000 0.000000 0.000000
vn -1.000000 0.000000 0.000000
vn -1.000000 0.000000 0.000000
vn -1.000000 0.000000 0.000000
vn 0.000000 0.000000 -1.000000
vn 0.000000 0.000000 -1.000000
vn 0.000000 0.000000 -1.000000
vn 0.000000 0.000000 -1.000000
vn 1.000000 0.000000 0.000000
vn 1.000000 0.000000 0.000000
vn 1.000000 0.000000 0.000000
vn 1.000000 0.000000 0.000000
vn 0.000000 0.000000 -1.000000
vn 0.000000 0.000000 -1.000000
vn 0.000000 0.000000 -1.000000
vn 0.000000 0.000000 -1.000000
vn -1.000000 0.000000 0.000000
vn -1.000000 0.000000 0.000000
vn -1.000000 0.000000 0.000000
vn -1.000000 0.000000 0.000000
vn 0.000000 0.000000 1.000000
vn 0.000000 0.000000 1.000000
vn 0.000000 0.000000 1.000000
vn 0.000000 0.000000 1.000000
vn 1.000000 0.000000 0.000000
vn 1.000000 0.000000 0.000000
vn 1.000000 0.000000 0.000000
vn 1.000000 0.000000 0.000000
vn 0.000000 0.957872 0.287194
vn 0.000000 0.957872 0.287194
vn 0.000000 0.957872 0.287194
vn 0.000000 0.957872 0.287194
vn 0.000000 0.957872 -0.287194
vn 0.000000 0.957872 -0.287194
vn 0.000000 0.957872 -0.287194
vn 0.000000 0.957872 -0.287194
vn -0.287202 0.957870 0.000000
vn -0.287202 0.957870 0.000000
vn -0.287202 0.957870 0.000000
vn -0.287202 0.957870 0.000000
vn 0.287202 0.957870 0.000000
vn 0.287202 0.957870 0.000000
vn 0.287202 0.957870 0.000000
vn 0.287202 0.957870 0.000000
vn 0.000000 -0.957873 0.287194
vn 0.000000 -0.957873 0.287194
vn 0.000000 -0.957873 0.287194
vn 0.000000 -0.957873 0.287194
vn -0.287202 -0.957870 0.000000
vn -0.287202 -0.957870 0.000000
vn -0.287202 -0.957870 0.000000
vn -0.287202 -0.957870 0.000000
vn 0.000000 -0.957873 -0.287194
vn 0.000000 -0.957873 -0.287194
vn 0.000000 -0.957873 -0.287194
vn 0.000000 -0.957873 -0.287194
vn 0.287202 -0.957870 0.000000
vn 0.287202 -0.957870 0.000000
vn 0.287202 -0.957870 0.000000
vn 0.287202 -0.957870 0.000000
vn -0.646800 -0.082269 -0.758209
vn -0.646800 -0.082269 -0.758209
vn -0.646800 -0.082269 -0.758209
vn -0.593571 0.215127 -0.775496
vn -0.593571 0.215127 -0.775496
vn -0.593571 0.215127 -0.775496
vn -0.757700 -0.139023 0.637623
vn -0.757700 -0.139023 0.637623
vn -0.757700 -0.139023 0.637623
vn -0.668873 0.078457 0.739225
vn -0.668873 0.078457 0.739225
vn -0.668873 0.078457 0.739225
vn 0.766031 -0.101699 0.634708
vn 0.766031 -0.101699 0.634708
vn 0.766031 -0.101699 0.634708
vn 0.739663 0.224606 0.634390
vn 0.739663 0.224606 0.634390
vn 0.739663 0.224606 0.634390
vn 0.634923 -0.134034 -0.760859
vn 0.634923 -0.134034 -0.760859
vn 0.634923 -0.134034 -0.760859
vn 0.733154 0.084382 -0.674808
vn 0.733154 0.084382 -0.674808
vn 0.733154 0.084382 -0.674808
vn 0.000000 0.000000 -1.000000
vn 0.000000 0.000000 -1.000000
vn 0.000000 0.000000 -1.000000
vn 0.000000 0.000000 -1.000000
vn -1.000000 0.000000 0.000000
vn -1.000000 0.000000 0.000000
vn -1.000000 0.000000 0.000000
vn -1.000000 0.000000 0.000000
vn -0.000000 0.000000 1.000000
vn -0.000000 0.000000 1.000000
vn -0.000000 0.000000 1.000000
vn -0.000000 0.000000 1.000000
vn 0.999635 -0.019378 0.018828
vn 0.999635 -0.019378 0.018828
vn 0.999635 -0.019378 0.018828
vn 0.999635 -0.019378 0.018828
vn 0.999620 0.018625 -0.020344
vn 0.999620 0.018625 -0.020344
vn 0.999620 0.018625 -0.020344
vn 0.999620 0.018625 -0.020344
vn 0.020421 0.018547 -0.999619
vn 0.020421 0.018547 -0.999619
vn 0.020421 0.018547 -0.999619
vn 0.020421 0.018547 -0.999619
vn -0.999546 0.019370 0.023060
vn -0.999546 0.019370 0.023060
vn -0.999546 0.019370 0.023060
vn -0.999546 0.019370 0.023060
vn -0.022991 0.019454 0.999546
vn -0.022991 0.019454 0.999546
vn -0.022991 0.019454 0.999546
vn -0.022991 0.019454 0.999546
s off
f 9/15/1 2/2/2 4/4/3
f 37/17/4 19/18/5 20/19/6 36/20/7
f 7/7/8 10/16/9 8/8/10
f 40/21/11 33/22/12 31/23/13 42/24/14
f 36/20/15 34/57/16 25/58/17 33/22/18
f 37/17/19 40/21/20 26/59/21 39/60/22
f 3/3/23 9/15/24 4/4/25
f 1/1/26 9/15/27 3/3/28
f 1/1/29 2/2/30 9/15/31
f 10/16/32 6/6/33 8/8/34
f 5/5/35 10/16/36 7/7/37
f 5/5/38 6/6/39 10/16/40
f 27/61/41 28/62/42 35/63/43 38/64/44
f 28/62/45 29/65/46 32/66/47 35/63/48
f 41/67/49 32/66/50 29/65/51 30/68/52
f 38/64/53 39/60/54 26/59/55 41/67/56
f 3/3/57 4/4/58 12/27/59 11/26/60
f 2/2/61 13/30/62 12/28/63 4/4/64
f 14/32/65 13/29/66 2/10/67 1/9/68
f 11/25/69 14/31/70 1/1/71 3/3/72
f 7/7/73 8/8/74 16/35/75 15/34/76
f 17/38/77 16/36/78 8/11/79 6/12/80
f 18/40/81 17/37/82 6/6/83 5/5/84
f 7/13/85 15/33/86 18/39/87 5/14/88
f 17/37/89 18/40/90 22/42/91 21/41/92
f 15/34/93 16/35/94 24/44/95 23/43/96
f 16/36/97 17/38/98 21/46/99 24/45/100
f 18/39/101 15/33/102 23/48/103 22/47/104
f 11/26/105 12/27/106 28/50/107 27/49/108
f 12/28/109 13/30/110 29/52/111 28/51/112
f 13/29/113 14/32/114 30/54/115 29/53/116
f 14/31/117 11/25/118 27/56/119 30/55/120
f 32/66/121 31/23/122 25/58/123
f 31/23/124 33/22/125 25/58/126
f 35/63/127 34/57/128 20/19/129
f 20/19/130 34/57/131 36/20/132
f 19/18/133 39/60/134 38/64/135
f 37/17/136 39/60/137 19/18/138
f 26/59/139 42/24/140 41/67/141
f 40/21/142 42/24/143 26/59/144
f 41/67/145 42/24/146 31/23/147 32/66/148
f 35/63/149 32/66/150 25/58/151 34/57/152
f 38/64/153 35/63/154 20/19/155 19/18/156
f 38/64/157 41/67/158 30/68/159 27/61/160
f 22/69/161 23/70/162 40/21/163 37/17/164
f 23/70/165 24/71/166 33/22/167 40/21/168
f 36/20/169 33/22/170 24/71/171 21/72/172
f 37/17/173 36/20/174 21/72/175 22/69/176
