# This file uses centimeters as units for non-parametric coordinates.

v 37.578125 169.112701 8.013672
v 64.951660 169.112701 8.013672
v 37.578125 186.239487 8.013672
v 64.951660 186.239487 8.013672
v 36.641602 186.825531 4.913574
v 65.888184 186.825531 4.913574
v 36.641602 168.526657 4.913574
v 65.888184 168.526657 4.913574
v 53.188721 161.589294 -6.798340
v 49.341064 161.589294 -6.798340
v 47.416992 158.256989 -6.798340
v 49.341064 154.924683 -6.798340
v 53.188721 154.924683 -6.798340
v 55.112793 158.256989 -6.798340
v 53.188721 161.589294 6.798340
v 49.341064 161.589294 6.798340
v 47.416992 158.256989 6.798340
v 49.341064 154.924683 6.798340
v 53.188721 154.924683 6.798340
v 55.112793 158.256989 6.798340
v 51.264893 158.256989 -6.798340
v 51.264893 158.256989 6.798340
v 0.000000 0.000000 5.000000
v 102.529785 0.000000 5.000000
v 0.000000 222.434814 5.000000
v 102.529785 222.434814 5.000000
v 0.000000 222.434814 -5.000000
v 102.529785 222.434814 -5.000000
v 0.000000 0.000000 -5.000000
v 102.529785 0.000000 -5.000000
v 78.781250 81.222900 7.826660
v 98.501953 81.222900 7.826660
v 78.781250 114.647690 7.826660
v 98.501953 114.647690 7.826660
v 78.781250 114.647690 -7.826660
v 98.501953 114.647690 -7.826660
v 78.781250 81.222900 -7.826660
v 98.501953 81.222900 -7.826660
v 78.781250 127.990707 -0.000488
v 98.501953 127.990707 -0.000488
v 81.818115 106.262436 7.826660
v 95.465088 106.262436 7.826660
v 95.465088 109.493820 7.826660
v 81.818115 109.493820 7.826660
v 81.818115 109.493820 -7.826660
v 95.465088 109.493820 -7.826660
v 95.465088 106.262436 -7.826660
v 81.818115 106.262436 -7.826660
v 3.593994 95.858086 3.928223
v 98.935791 151.577408 3.928223
v 0.000000 96.709282 -3.928711
v 102.529785 156.629272 -3.928711
v 86.986084 87.733910 15.841797
v 86.986084 94.604843 15.841797
v 86.986084 94.604843 -15.841797
v 86.986084 87.733910 -15.841797
v 86.986084 87.733910 11.089844
v 86.986084 94.604843 11.089844
v 93.857178 94.604843 11.089844
v 93.857178 87.733910 11.089844
v 93.857178 94.604843 -11.089355
v 86.986084 94.604843 -11.089355
v 86.986084 87.733910 -11.089355
v 93.857178 87.733910 -11.089355
v 66.088135 88.946938 11.089844
v 66.088135 93.391815 11.089844
v 66.088135 88.946938 15.841797
v 66.088135 93.391815 15.841797
v 66.088135 88.946938 -15.841797
v 66.088135 88.946938 -11.089355
v 66.088135 93.391815 -11.089355
v 66.088135 93.391815 -15.841797
vt 0.103889 0.225893
vt 0.103889 0.225893
vt 0.103889 0.225893
vt 0.103889 0.225893
vt 0.103889 0.225893
vt 0.103889 0.225893
vt 0.103889 0.225893
vt 0.103889 0.225893
vt 0.103889 0.225893
vt 0.103889 0.225893
vt 0.103889 0.225893
vt 0.103889 0.225893
vt 0.103889 0.225893
vt 0.103889 0.225893
vt 0.091279 0.230344
vt 0.091279 0.230344
vt 0.091279 0.230344
vt 0.091279 0.230344
vt 0.091279 0.230344
vt 0.091279 0.230344
vt 0.091279 0.230344
vt 0.091279 0.230344
vt 0.091279 0.230344
vt 0.091279 0.230344
vt 0.091279 0.230344
vt 0.091279 0.230344
vt 0.091279 0.230344
vt 0.091279 0.230344
vt 0.091279 0.230344
vt 0.091279 0.230344
vt 0.091279 0.230344
vt 0.091279 0.230344
vt 0.091279 0.230344
vt 0.091279 0.230344
vt 0.091279 0.230344
vt 0.091279 0.230344
vt 0.091279 0.230344
vt 0.091279 0.230344
vt 0.091279 0.230344
vt 0.091279 0.230344
vt 0.091279 0.230344
vt 0.091279 0.230344
vt 0.026746 0.245179
vt 0.026746 0.245179
vt 0.026746 0.288200
vt 0.026746 0.288200
vt 0.026746 0.288200
vt 0.026746 0.288200
vt 0.026746 0.245179
vt 0.026746 0.245179
vt 0.026746 0.245179
vt 0.026746 0.245179
vt 0.026746 0.245179
vt 0.026746 0.288200
vt 0.026746 0.245179
vt 0.026746 0.288200
vt 0.081055 0.228119
vt 0.081055 0.228119
vt 0.081055 0.228119
vt 0.081055 0.228119
vt 0.100922 0.274849
vt 0.100922 0.274849
vt 0.100922 0.274849
vt 0.100922 0.274849
vt 0.081055 0.228119
vt 0.081055 0.228119
vt 0.081055 0.228119
vt 0.081055 0.228119
vt 0.100922 0.274849
vt 0.100922 0.274849
vt 0.100922 0.274849
vt 0.100922 0.274849
vt 0.100922 0.274849
vt 0.100922 0.274849
vt 0.100922 0.274849
vt 0.100922 0.274849
vt 0.100922 0.274849
vt 0.100922 0.274849
vt 0.100922 0.274849
vt 0.100922 0.274849
vt 0.100922 0.274849
vt 0.100922 0.274849
vt 0.100922 0.274849
vt 0.100922 0.274849
vt 0.100922 0.274849
vt 0.100922 0.274849
vt 0.100922 0.274849
vt 0.100922 0.274849
vt 0.100922 0.274849
vt 0.100922 0.274849
vt 0.026746 0.288200
vt 0.026746 0.288200
vt 0.026746 0.288200
vt 0.026746 0.288200
vt 0.026746 0.288200
vt 0.026746 0.288200
vt 0.102363 0.229987
vt 0.102363 0.229987
vt 0.102363 0.229987
vt 0.102363 0.229987
vt 0.102363 0.229987
vt 0.102363 0.229987
vt 0.102363 0.229987
vt 0.102363 0.229987
vt 0.102363 0.229987
vt 0.102363 0.229987
vt 0.102363 0.229987
vt 0.102363 0.229987
vt 0.102363 0.229987
vt 0.102363 0.229987
vt 0.102363 0.229987
vt 0.102363 0.229987
vt 0.102363 0.229987
vt 0.102363 0.229987
vt 0.102363 0.229987
vt 0.102363 0.229987
vt 0.102363 0.229987
vt 0.102363 0.229987
vt 0.102363 0.229987
vt 0.102363 0.229987
vt 0.102363 0.229987
vt 0.102363 0.229987
vt 0.102363 0.229987
vt 0.102363 0.229987
vt 0.102363 0.229987
vt 0.102363 0.229987
vt 0.102363 0.229987
vn 0.000000 0.000000 1.000000
vn 0.000000 0.000000 1.000000
vn 0.000000 0.000000 1.000000
vn 0.000000 0.000000 1.000000
vn 0.000000 0.982597 0.185753
vn 0.000000 0.982597 0.185753
vn 0.000000 0.982597 0.185753
vn 0.000000 0.982597 0.185753
vn 0.000000 -0.982597 0.185750
vn 0.000000 -0.982597 0.185750
vn 0.000000 -0.982597 0.185750
vn 0.000000 -0.982597 0.185750
vn 0.957273 0.000000 0.289187
vn 0.957273 0.000000 0.289187
vn 0.957273 0.000000 0.289187
vn 0.957273 0.000000 0.289187
vn -0.957273 0.000000 0.289187
vn -0.957273 0.000000 0.289187
vn -0.957273 0.000000 0.289187
vn -0.957273 0.000000 0.289187
vn 0.000000 1.000000 0.000000
vn 0.000000 1.000000 0.000000
vn 0.000000 1.000000 0.000000
vn 0.000000 1.000000 0.000000
vn -0.866007 0.500031 0.000000
vn -0.866007 0.500031 0.000000
vn -0.866007 0.500031 0.000000
vn -0.866007 0.500031 0.000000
vn -0.866007 -0.500031 0.000000
vn -0.866007 -0.500031 0.000000
vn -0.866007 -0.500031 0.000000
vn -0.866007 -0.500031 0.000000
vn 0.000000 -1.000000 0.000000
vn 0.000000 -1.000000 0.000000
vn 0.000000 -1.000000 0.000000
vn 0.000000 -1.000000 0.000000
vn 0.866007 -0.500032 0.000000
vn 0.866007 -0.500032 0.000000
vn 0.866007 -0.500032 0.000000
vn 0.866007 -0.500032 0.000000
vn 0.866007 0.500032 0.000000
vn 0.866007 0.500032 0.000000
vn 0.866007 0.500032 0.000000
vn 0.866007 0.500032 0.000000
vn 0.000000 0.000000 -1.000000
vn 0.000000 0.000000 -1.000000
vn 0.000000 0.000000 -1.000000
vn 0.000000 0.000000 -1.000000
vn 0.000000 0.000000 -1.000000
vn 0.000000 0.000000 -1.000000
vn 0.000000 0.000000 -1.000000
vn 0.000000 0.000000 -1.000000
vn 0.000000 0.000000 -1.000000
vn 0.000000 0.000000 -1.000000
vn 0.000000 0.000000 -1.000000
vn 0.000000 0.000000 -1.000000
vn 0.000000 0.000000 -1.000000
vn 0.000000 0.000000 -1.000000
vn 0.000000 0.000000 -1.000000
vn 0.000000 0.000000 -1.000000
vn 0.000000 0.000000 -1.000000
vn 0.000000 0.000000 -1.000000
vn 0.000000 0.000000 1.000000
vn 0.000000 0.000000 1.000000
vn 0.000000 0.000000 1.000000
vn 0.000000 0.000000 1.000000
vn 0.000000 0.000000 1.000000
vn 0.000000 0.000000 1.000000
vn 0.000000 0.000000 1.000000
vn 0.000000 0.000000 1.000000
vn 0.000000 0.000000 1.000000
vn 0.000000 0.000000 1.000000
vn 0.000000 0.000000 1.000000
vn 0.000000 0.000000 1.000000
vn 0.000000 0.000000 1.000000
vn 0.000000 0.000000 1.000000
vn 0.000000 0.000000 1.000000
vn 0.000000 0.000000 1.000000
vn 0.000000 0.000000 1.000000
vn 0.000000 0.000000 1.000000
vn -0.002439 0.008663 0.999960
vn -0.002439 0.008663 0.999960
vn 0.000951 -0.003378 0.999994
vn -0.000870 0.003090 0.999995
vn 0.000000 1.000000 0.000000
vn 0.000000 1.000000 0.000000
vn 0.000000 1.000000 0.000000
vn 0.000000 1.000000 0.000000
vn 0.003269 -0.011186 -0.999932
vn 0.003269 -0.011186 -0.999932
vn 0.000994 -0.003402 -0.999994
vn -0.000905 0.003098 -0.999995
vn 0.000000 -1.000000 0.000000
vn 0.000000 -1.000000 0.000000
vn 0.000000 -1.000000 0.000000
vn 0.000000 -1.000000 0.000000
vn 0.979647 0.011424 0.200402
vn 0.979647 0.011424 0.200402
vn 0.980658 -0.006144 0.195635
vn 0.980070 0.004746 0.198597
vn -0.980008 0.018291 0.198114
vn -0.980008 0.018291 0.198114
vn -0.980332 0.000994 0.197355
vn -0.980350 -0.000965 0.197265
vn 0.000000 0.000000 1.000000
vn 0.000000 0.000000 1.000000
vn 0.000000 0.000000 1.000000
vn 0.000000 0.000000 1.000000
vn 0.000000 1.000000 0.000000
vn 0.000000 1.000000 0.000000
vn 0.000000 0.505931 -0.862574
vn 0.000000 0.505931 -0.862574
vn 0.000000 0.000000 -1.000000
vn 0.000000 0.000000 -1.000000
vn 0.000000 0.000000 -1.000000
vn 0.000000 0.000000 -1.000000
vn 0.000000 -1.000000 0.000000
vn 0.000000 -1.000000 0.000000
vn 0.000000 -1.000000 0.000000
vn 0.000000 -1.000000 0.000000
vn 1.000000 0.000000 0.000000
vn 1.000000 0.000000 0.000000
vn 1.000000 0.000000 0.000000
vn 1.000000 0.000000 0.000000
vn 1.000000 0.000000 0.000000
vn -1.000000 0.000000 0.000000
vn -1.000000 0.000000 0.000000
vn -1.000000 0.000000 0.000000
vn -1.000000 0.000000 0.000000
vn -1.000000 0.000000 0.000000
vn 0.000000 0.505978 0.862546
vn 0.000000 0.505978 0.862546
vn 0.000000 1.000000 0.000000
vn 0.000000 1.000000 0.000000
vn 0.000000 0.000000 1.000000
vn 0.000000 0.000000 1.000000
vn 0.000000 0.000000 1.000000
vn 0.000000 0.000000 1.000000
vn 0.000000 0.000000 1.000000
vn 0.000000 0.000000 1.000000
vn 0.000000 0.000000 1.000000
vn 0.000000 0.000000 1.000000
vn 0.000000 0.000000 1.000000
vn 0.000000 0.000000 1.000000
vn 0.000000 0.000000 1.000000
vn 0.000000 0.000000 1.000000
vn -0.000000 0.000000 1.000000
vn -0.000000 0.000000 1.000000
vn -0.000000 0.000000 1.000000
vn -0.000000 0.000000 1.000000
vn 0.000000 0.000000 -1.000000
vn 0.000000 0.000000 -1.000000
vn 0.000000 0.000000 -1.000000
vn 0.000000 0.000000 -1.000000
vn 0.000000 0.000000 -1.000000
vn 0.000000 0.000000 -1.000000
vn 0.000000 0.000000 -1.000000
vn 0.000000 0.000000 -1.000000
vn 0.000000 0.000000 -1.000000
vn 0.000000 0.000000 -1.000000
vn 0.000000 0.000000 -1.000000
vn 0.000000 0.000000 -1.000000
vn -0.000000 0.000000 -1.000000
vn -0.000000 0.000000 -1.000000
vn -0.000000 0.000000 -1.000000
vn -0.000000 0.000000 -1.000000
vn -0.000870 0.003090 0.999995
vn 0.000951 -0.003378 0.999994
vn 0.003057 -0.010856 0.999936
vn 0.003057 -0.010856 0.999936
vn -0.000905 0.003098 -0.999995
vn 0.000994 -0.003402 -0.999994
vn -0.002471 0.008457 -0.999961
vn -0.002471 0.008457 -0.999961
vn 0.980070 0.004746 0.198597
vn 0.980658 -0.006144 0.195635
vn 0.981402 -0.025810 0.190221
vn 0.981402 -0.025810 0.190221
vn -0.980350 -0.000965 0.197265
vn -0.980332 0.000994 0.197355
vn -0.980374 -0.013966 0.196650
vn -0.980374 -0.013966 0.196650
vn 0.568809 0.000000 0.822470
vn 0.568809 0.000000 0.822470
vn 0.568809 0.000000 0.822470
vn 0.568809 0.000000 0.822470
vn 0.000000 1.000000 0.000000
vn 0.000000 1.000000 0.000000
vn 0.000000 1.000000 0.000000
vn 0.000000 1.000000 0.000000
vn 0.568848 0.000000 -0.822442
vn 0.568848 0.000000 -0.822442
vn 0.568848 0.000000 -0.822442
vn 0.568848 0.000000 -0.822442
vn 0.000000 -1.000000 0.000000
vn 0.000000 -1.000000 0.000000
vn 0.000000 -1.000000 0.000000
vn 0.000000 -1.000000 0.000000
vn 1.000000 0.000000 0.000000
vn 1.000000 0.000000 0.000000
vn 1.000000 0.000000 0.000000
vn 1.000000 0.000000 0.000000
vn -1.000000 0.000000 0.000000
vn -1.000000 0.000000 0.000000
vn -1.000000 0.000000 0.000000
vn -1.000000 0.000000 0.000000
vn -1.000000 0.000000 0.000000
vn -1.000000 0.000000 0.000000
vn -1.000000 0.000000 0.000000
vn -1.000000 0.000000 0.000000
vn 0.000000 1.000000 0.000000
vn 0.000000 1.000000 0.000000
vn 0.000000 1.000000 0.000000
vn 0.000000 -1.000000 0.000000
vn 0.000000 -1.000000 0.000000
vn 0.000000 -1.000000 0.000000
vn 0.000000 1.000000 0.000000
vn 0.000000 1.000000 0.000000
vn 0.000000 1.000000 0.000000
vn -1.000000 0.000000 0.000000
vn -1.000000 0.000000 0.000000
vn -1.000000 0.000000 0.000000
vn -1.000000 0.000000 0.000000
vn 0.000000 -1.000000 0.000000
vn 0.000000 -1.000000 0.000000
vn 0.000000 -1.000000 0.000000
vn -0.000000 0.000000 -1.000000
vn -0.000000 0.000000 -1.000000
vn -0.000000 0.000000 -1.000000
vn -0.000000 0.000000 -1.000000
vn -0.057948 -0.998320 0.000000
vn -0.057948 -0.998320 0.000000
vn -0.057948 -0.998320 0.000000
vn -0.057948 -0.998320 0.000000
vn 0.000000 0.000000 1.000000
vn 0.000000 0.000000 1.000000
vn 0.000000 0.000000 1.000000
vn 0.000000 0.000000 1.000000
vn -0.057948 0.998320 0.000000
vn -0.057948 0.998320 0.000000
vn -0.057948 0.998320 0.000000
vn -0.057948 0.998320 0.000000
vn -0.057948 -0.998320 0.000000
vn -0.057948 -0.998320 0.000000
vn -0.057948 -0.998320 0.000000
vn -0.057948 -0.998320 0.000000
vn -0.000000 0.000000 1.000000
vn -0.000000 0.000000 1.000000
vn -0.000000 0.000000 1.000000
vn -0.000000 0.000000 1.000000
vn -0.057948 0.998320 0.000000
vn -0.057948 0.998320 0.000000
vn -0.057948 0.998320 0.000000
vn -0.057948 0.998320 0.000000
vn 0.000000 0.000000 -1.000000
vn 0.000000 0.000000 -1.000000
vn 0.000000 0.000000 -1.000000
vn 0.000000 0.000000 -1.000000
s off
f 1/1/1 2/2/2 4/4/3 3/3/4
f 3/3/5 4/4/6 6/6/7 5/5/8
f 7/7/9 8/8/10 2/10/11 1/9/12
f 2/2/13 8/11/14 6/12/15 4/4/16
f 7/13/17 1/1/18 3/3/19 5/14/20
f 9/15/21 10/16/22 16/17/23 15/18/24
f 10/16/25 11/19/26 17/20/27 16/17/28
f 11/19/29 12/21/30 18/22/31 17/20/32
f 12/21/33 13/23/34 19/24/35 18/22/36
f 13/23/37 14/25/38 20/26/39 19/24/40
f 14/25/41 9/27/42 15/28/43 20/26/44
f 10/29/45 9/30/46 21/31/47
f 11/32/48 10/29/49 21/31/50
f 12/33/51 11/32/52 21/31/53
f 13/34/54 12/33/55 21/31/56
f 14/35/57 13/34/58 21/31/59
f 9/30/60 14/35/61 21/31/62
f 15/36/63 16/37/64 22/38/65
f 16/37/66 17/39/67 22/38/68
f 17/39/69 18/40/70 22/38/71
f 18/40/72 19/41/73 22/38/74
f 19/41/75 20/42/76 22/38/77
f 20/42/78 15/36/79 22/38/80
f 23/43/81 24/44/82 50/92/83 49/91/84
f 25/46/85 26/45/86 28/47/87 27/48/88
f 27/48/89 28/47/90 52/95/91 51/94/92
f 29/50/93 30/49/94 24/51/95 23/52/96
f 24/44/97 30/53/98 52/96/99 50/92/100
f 29/55/101 23/43/102 49/91/103 51/93/104
f 41/57/105 42/58/106 43/59/107 44/60/108
f 39/61/109 40/62/110 36/63/111 35/64/112
f 45/65/113 46/66/114 47/67/115 48/68/116
f 37/69/117 38/70/118 32/71/119 31/72/120
f 32/73/121 38/74/122 36/75/123 40/76/124 34/77/125
f 37/78/126 31/79/127 33/80/128 39/81/129 35/82/130
f 33/80/131 34/77/132 40/62/133 39/61/134
f 31/79/135 32/73/136 42/83/137 41/84/138
f 32/73/139 34/77/140 43/85/141 42/83/142
f 34/77/143 33/80/144 44/86/145 43/85/146
f 33/80/147 31/79/148 41/84/149 44/86/150
f 35/64/151 36/63/152 46/87/153 45/88/154
f 36/63/155 38/70/156 47/89/157 46/87/158
f 38/70/159 37/69/160 48/90/161 47/89/162
f 37/69/163 35/64/164 45/88/165 48/90/166
f 49/91/167 50/92/168 26/45/169 25/46/170
f 51/94/171 52/95/172 30/49/173 29/50/174
f 50/92/175 52/96/176 28/54/177 26/45/178
f 51/93/179 49/91/180 25/46/181 27/56/182
f 54/97/183 53/98/184 60/99/185 59/100/186
f 61/101/187 62/102/188 58/103/189 59/104/190
f 56/105/191 55/106/192 61/107/193 64/108/194
f 57/109/195 63/110/196 64/111/197 60/112/198
f 60/99/199 64/108/200 61/107/201 59/100/202
f 62/113/203 63/114/204 57/115/205 58/116/206
f 66/117/207 65/118/208 67/119/209 68/120/210
f 54/97/211 59/104/212 58/103/213
f 57/109/214 60/112/215 53/121/216
f 62/102/217 61/101/218 55/106/219
f 69/122/220 70/123/221 71/124/222 72/125/223
f 56/105/224 64/111/225 63/110/226
f 58/116/227 57/115/228 65/118/229 66/117/230
f 57/115/231 53/98/232 67/119/233 65/118/234
f 53/98/235 54/97/236 68/120/237 67/119/238
f 54/97/239 58/116/240 66/117/241 68/120/242
f 56/126/243 63/114/244 70/123/245 69/122/246
f 63/114/247 62/113/248 71/124/249 70/123/250
f 62/113/251 55/127/252 72/125/253 71/124/254
f 55/127/255 56/126/256 69/122/257 72/125/258
