# This file uses centimeters as units for non-parametric coordinates.

v 0.000000 263.461273 194.306641
v 0.000000 232.895050 124.628906
v 0.000000 204.134186 88.559082
v 0.000000 131.774673 38.285889
v 0.000000 88.270424 31.722900
v 0.000000 -0.654465 31.692871
v 0.000000 274.059357 250.522217
v -7.205078 0.000000 -1.351807
v -7.205078 300.000000 249.999512
v 7.205078 299.966644 132.039063
v -7.205078 300.011108 132.079590
v -7.205078 86.565323 -1.311279
v 7.205078 86.565323 -1.351807
v 7.205078 169.271027 -1.382324
v -7.205078 169.315491 -1.342041
v -7.205078 300.000000 211.536621
v 7.205078 300.000000 211.496094
v 7.205078 299.988892 -1.362305
v -7.205078 300.033356 -1.321777
v 0.000000 300.488495 251.097900
v 0.000000 -0.654451 -1.392334
v -5.166992 87.156433 29.885254
v -7.205078 0.000000 29.129395
v -7.205078 266.051270 196.138916
v -7.205078 274.059387 249.999512
v -4.144531 234.194031 124.579834
v -7.205078 205.805466 87.533691
v -7.205078 133.432663 36.218994
v -7.205078 235.793335 123.505615
v -7.205078 225.416412 112.663330
v -7.205078 236.882538 129.335938
v 7.205078 0.000000 -1.351807
v 7.205078 300.000000 249.999512
v 7.205078 86.716980 29.160156
v 7.205078 0.000000 29.129395
v 7.205078 266.504852 196.019409
v 7.205078 274.059387 249.999512
v 6.666016 234.184525 124.737061
v 7.205078 205.805466 87.533691
v 5.756836 131.789673 36.868896
v 7.205078 141.931122 43.104248
v 7.205078 132.204346 33.752686
v 7.205078 109.873909 30.535889
v -7.205078 97.146622 31.766602
v -7.205078 86.700157 23.797852
v -7.205078 66.863907 29.153076
v 7.205078 270.038116 213.498169
v 7.085938 260.627625 182.407471
v 4.804688 264.453278 195.528198
v 0.000000 300.488495 211.516357
v 0.000000 300.488495 132.059326
v 0.000000 300.488495 -1.392090
v 0.000000 169.293259 -1.392090
v 0.000000 86.565323 -1.392334
vt 0.102740 0.254397
vt 0.102740 0.254397
vt 0.102740 0.254397
vt 0.102740 0.254397
vt 0.102740 0.254397
vt 0.102740 0.254397
vt 0.102740 0.254397
vt 0.102740 0.254397
vt 0.102740 0.254397
vt 0.102740 0.254397
vt 0.102740 0.254397
vt 0.102740 0.254397
vt 0.102740 0.254397
vt 0.102740 0.254397
vt 0.102740 0.254397
vt 0.102740 0.254397
vt 0.102740 0.254397
vt 0.102740 0.254397
vt 0.102740 0.254397
vt 0.102740 0.254397
vt 0.102740 0.254397
vt 0.102740 0.254397
vt 0.102740 0.254397
vt 0.102740 0.254397
vt 0.102740 0.254397
vt 0.102740 0.254397
vt 0.102740 0.254397
vt 0.102740 0.254397
vt 0.102740 0.254397
vt 0.102740 0.254397
vt 0.102740 0.254397
vt 0.102740 0.254397
vt 0.102740 0.254397
vt 0.102740 0.254397
vt 0.102740 0.254397
vt 0.102740 0.254397
vt 0.102740 0.254397
vt 0.102740 0.254397
vt 0.102740 0.254397
vt 0.102740 0.254397
vt 0.102740 0.254397
vt 0.102740 0.254397
vt 0.102740 0.254397
vt 0.102740 0.254397
vt 0.102740 0.254397
vt 0.102740 0.254397
vt 0.102740 0.254397
vt 0.102740 0.254397
vt 0.102740 0.254397
vt 0.102740 0.254397
vt 0.102740 0.254397
vt 0.102740 0.254397
vt 0.102740 0.254397
vt 0.102740 0.254397
vt 0.102740 0.254397
vt 0.102740 0.254397
vt 0.102740 0.254397
vt 0.102740 0.254397
vt 0.102740 0.254397
vt 0.102740 0.254397
vt 0.102740 0.254397
vt 0.102740 0.254397
vt 0.102740 0.254397
vt 0.102740 0.254397
vt 0.102740 0.254397
vt 0.102740 0.254397
vt 0.102740 0.254397
vt 0.102740 0.254397
vt 0.102740 0.254397
vt 0.102740 0.254397
vt 0.102740 0.254397
vt 0.102740 0.254397
vt 0.102740 0.254397
vt 0.102740 0.254397
vt 0.102740 0.254397
vt 0.102740 0.254397
vt 0.102740 0.254397
vt 0.102740 0.254397
vt 0.102740 0.254397
vt 0.102740 0.254397
vt 0.102740 0.254397
vt 0.102740 0.254397
vt 0.102740 0.254397
vt 0.102740 0.254397
vt 0.102740 0.254397
vt 0.102740 0.254397
vt 0.102740 0.254397
vt 0.102740 0.254397
vt 0.102740 0.254397
vn 0.001420 0.999999 -0.000070
vn 0.001665 0.999999 -0.000070
vn -0.066878 0.997761 0.000070
vn -0.066878 0.997761 0.000070
vn 0.002965 0.999996 0.000083
vn 0.003208 0.999995 0.000083
vn -0.064577 0.997913 0.000083
vn -0.064577 0.997913 0.000083
vn -0.001401 0.000117 -0.999999
vn -0.008426 0.000233 -0.999965
vn -0.008426 0.000233 -0.999965
vn -0.001401 0.000117 -0.999999
vn -0.009098 -0.000184 -0.999959
vn -0.002817 -0.000184 -0.999996
vn -0.002805 -0.000184 -0.999996
vn -0.009098 -0.000184 -0.999959
vn -0.008355 0.000077 -0.999965
vn -0.002815 0.000077 -0.999996
vn -0.002793 0.000077 -0.999996
vn -0.008355 0.000077 -0.999965
vn -0.067643 0.997710 0.000000
vn -0.067643 0.997710 0.000000
vn 0.000018 1.000000 0.000000
vn 0.000139 1.000000 0.000000
vn -0.946798 0.083881 0.310705
vn -0.946798 0.083881 0.310705
vn -0.946798 0.083881 0.310705
vn -1.000000 -0.000000 0.000000
vn -1.000000 -0.000000 0.000000
vn -1.000000 -0.000000 0.000000
vn -1.000000 -0.000000 0.000000
vn -0.500502 -0.851012 0.158986
vn -0.500502 -0.851012 0.158986
vn -0.500502 -0.851012 0.158986
vn -0.527064 -0.613949 0.587597
vn -0.527063 -0.613949 0.587597
vn -0.527063 -0.613949 0.587597
vn -0.159989 -0.973312 0.164519
vn -0.159989 -0.973312 0.164519
vn -0.159989 -0.973312 0.164519
vn -0.159989 -0.973312 0.164519
vn -1.000000 -0.000000 0.000000
vn -1.000000 -0.000000 0.000000
vn -1.000000 -0.000000 0.000000
vn -1.000000 -0.000000 0.000000
vn -1.000000 -0.000000 0.000000
vn -0.236653 -0.761159 0.603848
vn -0.236653 -0.761159 0.603848
vn -0.236653 -0.761159 0.603848
vn -0.236653 -0.761159 0.603848
vn -0.236653 -0.761159 0.603848
vn -0.230994 -0.891819 0.388975
vn -0.230994 -0.891819 0.388975
vn -0.230994 -0.891819 0.388975
vn -0.230994 -0.891819 0.388975
vn -0.230994 -0.891819 0.388975
vn -1.000000 -0.000000 0.000000
vn -1.000000 -0.000000 0.000000
vn -1.000000 -0.000000 0.000000
vn -1.000000 -0.000000 0.000000
vn -1.000000 -0.000000 0.000000
vn -1.000000 0.000000 0.000000
vn -1.000000 0.000000 0.000000
vn -1.000000 0.000000 0.000000
vn -1.000000 0.000000 0.000000
vn -0.913069 -0.247335 0.324238
vn -0.913069 -0.247335 0.324238
vn -0.913069 -0.247335 0.324238
vn -0.294681 -0.548996 0.782155
vn -0.294681 -0.548996 0.782155
vn -0.294681 -0.548996 0.782155
vn -0.294681 -0.548996 0.782155
vn 0.005625 0.000000 -0.999984
vn 0.005625 0.000000 -0.999984
vn -0.001401 0.000117 -0.999999
vn -0.001401 0.000117 -0.999999
vn 1.000000 -0.000000 0.000000
vn 1.000000 -0.000000 0.000000
vn 1.000000 -0.000000 0.000000
vn 1.000000 -0.000000 0.000000
vn 1.000000 0.000000 0.000000
vn 1.000000 0.000000 0.000000
vn 1.000000 0.000000 0.000000
vn 1.000000 0.000000 0.000000
vn 1.000000 0.000000 0.000000
vn 0.868190 -0.343922 0.357721
vn 0.868190 -0.343922 0.357721
vn 0.868190 -0.343922 0.357721
vn 0.908245 -0.059662 0.414163
vn 0.908245 -0.059662 0.414163
vn 0.908245 -0.059662 0.414163
vn 0.335143 -0.000326 0.942167
vn 0.335143 -0.000326 0.942167
vn 0.335143 -0.000326 0.942167
vn 0.335143 -0.000326 0.942167
vn 0.229048 -0.959213 0.165672
vn 0.229048 -0.959213 0.165672
vn 0.229048 -0.959213 0.165672
vn 0.229048 -0.959213 0.165672
vn 0.229048 -0.959213 0.165672
vn 0.999993 -0.001621 0.003429
vn 0.999993 -0.001621 0.003429
vn 0.999993 -0.001621 0.003429
vn 0.999993 -0.001621 0.003429
vn 0.204474 -0.771180 0.602886
vn 0.204474 -0.771180 0.602886
vn 0.204474 -0.771180 0.602886
vn 0.204474 -0.771180 0.602886
vn 0.232337 -0.891092 0.389840
vn 0.232337 -0.891092 0.389840
vn 0.232337 -0.891092 0.389840
vn 0.232337 -0.891092 0.389840
vn 0.232337 -0.891092 0.389840
vn 0.999984 -0.005025 -0.002447
vn 0.999984 -0.005025 -0.002447
vn 0.999984 -0.005025 -0.002447
vn 0.999984 -0.005025 -0.002447
vn 0.999984 -0.005025 -0.002447
vn 1.000000 -0.000000 0.000000
vn 1.000000 -0.000000 0.000000
vn 1.000000 -0.000000 0.000000
vn 1.000000 -0.000000 0.000000
vn 1.000000 -0.000000 0.000000
vn 1.000000 0.000000 0.000000
vn 1.000000 0.000000 0.000000
vn 1.000000 0.000000 0.000000
vn 1.000000 0.000000 0.000000
vn 1.000000 0.000000 0.000000
vn 0.417457 -0.135712 0.898505
vn 0.417457 -0.135712 0.898505
vn 0.417457 -0.135712 0.898505
vn 0.417457 -0.135712 0.898505
vn 0.417457 -0.135712 0.898505
vn 0.242465 -0.552397 0.797539
vn 0.242465 -0.552397 0.797539
vn 0.242465 -0.552397 0.797539
vn 0.242465 -0.552397 0.797539
vn 0.242465 -0.552397 0.797539
vn 0.111418 -0.010924 0.993714
vn 0.111418 -0.010924 0.993714
vn 0.111418 -0.010924 0.993714
vn 0.111418 -0.010924 0.993714
vn 0.090460 -0.995900 -0.000000
vn 0.090460 -0.995900 -0.000000
vn 0.090460 -0.995900 -0.000000
vn 0.090460 -0.995900 -0.000000
vn -0.111419 -0.010924 0.993713
vn -0.111419 -0.010924 0.993713
vn -0.111419 -0.010924 0.993713
vn -0.111419 -0.010924 0.993713
vn -0.090460 -0.995900 -0.000000
vn -0.090460 -0.995900 -0.000000
vn -0.090460 -0.995900 -0.000000
vn -0.090460 -0.995900 -0.000000
vn -1.000000 0.000000 0.000000
vn -1.000000 0.000000 0.000000
vn -1.000000 0.000000 0.000000
vn -1.000000 0.000000 0.000000
vn -1.000000 0.000000 0.000000
vn -1.000000 -0.000000 0.000000
vn -1.000000 -0.000000 0.000000
vn -1.000000 -0.000000 0.000000
vn -1.000000 -0.000000 0.000000
vn -1.000000 -0.000000 0.000000
vn -0.335146 -0.000327 0.942166
vn -0.335146 -0.000327 0.942166
vn -0.335146 -0.000327 0.942166
vn -0.335146 -0.000327 0.942166
vn -0.335146 -0.000327 0.942166
vn -0.236917 -0.141897 0.961112
vn -0.236917 -0.141897 0.961112
vn -0.236917 -0.141897 0.961112
vn -0.236917 -0.141897 0.961112
vn -0.236917 -0.141897 0.961112
vn 0.577033 -0.751640 0.319486
vn 0.577033 -0.751640 0.319486
vn 0.577033 -0.751640 0.319486
vn 0.623356 -0.766436 0.154932
vn 0.623356 -0.766436 0.154932
vn 0.623356 -0.766436 0.154932
vn 0.000139 1.000000 0.000000
vn 0.000018 1.000000 0.000000
vn 0.067643 0.997710 0.000000
vn 0.067643 0.997710 0.000000
vn 0.069941 0.997551 -0.000210
vn 0.001665 0.999999 -0.000070
vn 0.001420 0.999999 -0.000070
vn 0.069941 0.997551 -0.000210
vn 0.070707 0.997497 0.000083
vn 0.070707 0.997497 0.000083
vn 0.003208 0.999995 0.000083
vn 0.002965 0.999996 0.000083
vn -0.002793 0.000077 -0.999996
vn -0.002815 0.000077 -0.999996
vn 0.002747 0.000076 -0.999996
vn 0.002747 0.000076 -0.999996
vn -0.002805 -0.000184 -0.999996
vn -0.002817 -0.000184 -0.999996
vn 0.003490 -0.000183 -0.999994
vn 0.003490 -0.000183 -0.999994
s off
f 50/85/1 51/86/2 11/2/3 16/3/4
f 51/86/5 52/87/6 19/6/7 11/2/8
f 21/8/9 8/9/10 12/7/11 54/89/12
f 15/10/13 53/88/14 54/89/15 12/7/16
f 19/6/17 52/87/18 53/88/19 15/10/20
f 16/3/21 9/13/22 20/44/23 50/85/24
f 45/73/25 46/74/26 22/16/27
f 9/17/28 16/18/29 24/19/30 25/20/31
f 31/21/32 29/22/33 26/23/34
f 29/22/35 30/24/36 26/23/37
f 25/20/38 24/19/39 1/28/40 7/29/41
f 11/33/42 19/32/43 27/30/44 30/24/45 29/22/46
f 26/23/47 30/24/48 27/30/49 3/31/50 2/34/51
f 24/19/52 31/21/53 26/23/54 2/34/55 1/28/56
f 16/18/57 11/33/58 29/22/59 31/21/60 24/19/61
f 19/78/62 15/79/63 28/25/64 27/35/65
f 44/71/66 45/72/67 22/36/68
f 27/35/69 28/25/70 4/38/71 3/39/72
f 13/40/73 32/41/74 21/8/75 54/89/76
f 13/40/77 34/45/78 35/46/79 32/41/80
f 33/47/81 37/48/82 47/75/83 36/49/84 17/50/85
f 41/52/86 40/53/87 42/54/88
f 42/54/89 40/53/90 43/55/91
f 34/45/92 5/56/93 6/57/94 35/46/95
f 37/48/96 7/58/97 1/59/98 49/77/99 47/75/100
f 10/63/101 38/51/102 39/60/103 18/62/104
f 38/51/105 2/64/106 3/61/107 39/60/108
f 48/76/109 49/77/110 1/59/111 2/64/112 38/51/113
f 17/50/114 36/49/115 48/76/116 38/51/117 10/63/118
f 18/80/119 39/65/120 41/52/121 42/54/122 14/81/123
f 14/82/124 42/54/125 43/55/126 34/66/127 13/67/128
f 40/53/129 4/68/130 5/69/131 34/66/132 43/55/133
f 39/65/134 3/70/135 4/68/136 40/53/137 41/52/138
f 20/14/139 7/58/140 37/48/141 33/43/142
f 6/26/143 21/42/144 32/41/145 35/46/146
f 20/14/147 9/17/148 25/20/149 7/58/150
f 8/9/151 21/42/152 6/26/153 23/15/154
f 15/83/155 12/84/156 45/72/157 44/71/158 28/25/159
f 12/7/160 8/9/161 23/15/162 46/74/163 45/73/164
f 22/16/165 46/74/166 23/15/167 6/26/168 5/27/169
f 28/25/170 44/71/171 22/36/172 5/37/173 4/38/174
f 36/49/175 49/77/176 48/76/177
f 47/75/178 49/77/179 36/49/180
f 50/85/181 20/44/182 33/43/183 17/4/184
f 10/1/185 51/86/186 50/85/187 17/4/188
f 10/1/189 18/5/190 52/87/191 51/86/192
f 53/88/193 52/87/194 18/5/195 14/11/196
f 54/89/197 53/88/198 14/11/199 13/12/200
