# This file uses centimeters as units for non-parametric coordinates.

v 87.977165 60.631302 16.611023
v 87.977165 56.128891 -23.125978
v 87.977165 30.306793 16.611023
v 87.977165 30.306793 -21.022243
v 87.977165 30.306793 35.468414
v 87.977165 56.128891 -47.224770
v 87.977165 30.306793 -47.224770
v 87.977165 124.316116 -28.402124
v 87.977165 124.316116 -47.224770
v 87.977165 113.688644 -20.664528
v 87.977165 113.688644 -47.224770
v 88.333733 86.857498 -20.008148
v 87.977165 87.611282 -47.224770
v -86.297974 60.631302 16.611023
v -86.615585 55.257248 -23.125978
v -86.297974 30.306793 -21.022243
v -86.297974 30.306793 16.611023
v -86.297974 30.306793 35.468414
v -86.297974 56.128891 -47.224770
v -86.297974 30.306793 -47.224770
v -88.333710 82.024338 -20.008148
v -86.641319 79.591293 -47.224770
v -86.477249 114.567459 -20.664528
v -86.297974 115.059525 -47.224770
v -86.297974 125.686966 -28.402124
v -86.297974 125.686966 -47.224770
v -51.561600 116.300491 -20.664526
v -53.478691 82.024338 -20.008146
v -51.760574 55.417343 -22.465652
v -51.443016 30.306793 -47.224770
v -51.443016 56.128891 -47.224770
v -51.786247 86.669083 -47.224770
v -51.443016 116.625900 -47.224770
v -51.443016 127.253372 -47.224770
v -51.443016 127.253372 -28.402124
v -16.587997 116.625900 -20.664528
v -16.447289 86.554031 -18.814270
v -16.587997 57.626450 -16.950151
v -34.015480 60.631302 18.285713
v -34.015480 30.306793 37.142929
v -16.587997 30.354935 -47.026215
v -16.587997 56.544235 -45.511738
v -16.587997 87.611282 -47.224770
v -16.587997 116.625900 -47.224770
v -16.587997 127.253372 -47.224770
v -16.587997 127.253372 -28.402126
v 18.510002 115.053787 -20.664528
v 21.390831 81.493698 -18.011276
v 18.754448 56.596451 -16.950151
v 18.267075 30.369278 -46.966991
v 18.267075 56.544235 -45.511738
v 18.793816 86.499588 -47.217926
v 18.267075 115.567276 -47.224770
v 18.267075 126.194748 -47.224770
v 18.267075 126.194748 -28.402126
v 53.304008 116.241409 -20.664528
v 56.245903 81.009506 -20.008148
v 53.609398 55.269913 -22.420815
v 35.694664 57.937149 10.702625
v 35.694664 30.306793 35.468410
v 53.122032 30.306793 -47.224770
v 53.122032 56.128891 -47.224770
v 53.648827 86.497940 -47.224770
v 53.122032 116.625900 -47.224770
v 53.122032 127.253372 -47.224770
v 53.122032 127.253372 -28.402126
v 87.977165 0.000000 16.611023
v 87.977165 0.000000 -21.022243
v 35.694664 0.000000 16.611023
v 35.694664 0.000000 -21.022243
v 87.977165 0.000000 35.468414
v 35.694664 0.000000 35.468410
v 87.977165 0.000000 -47.224770
v 35.694664 0.000000 -47.224770
v -86.297974 0.000000 35.468414
v -86.297974 0.000000 16.611023
v -86.297974 0.000000 -21.022243
v -86.297974 0.000000 -47.224770
v -34.015480 0.000000 37.142929
v -34.015480 0.000000 18.285713
v -34.015480 0.000000 -21.022243
v -34.015472 0.000000 -47.224770
v 87.977165 50.519363 45.549980
v 87.977165 56.825455 42.739319
v 35.694664 53.688919 42.739323
v -86.297974 55.155533 42.739319
v -86.297974 48.849442 45.549980
v -34.015480 50.519363 47.224758
v -34.015480 56.825455 44.414013
v 35.694679 47.382828 45.549976
vt 0.104065 0.156442
vt 0.081371 0.234119
vt 0.081371 0.234119
vt 0.081371 0.234119
vt 0.081371 0.234119
vt 0.104065 0.156442
vt 0.104065 0.156442
vt 0.104065 0.156442
vt 0.105055 0.180088
vt 0.104065 0.156442
vt 0.105055 0.180088
vt 0.105055 0.180088
vt 0.105055 0.180088
vt 0.105055 0.180088
vt 0.105055 0.180088
vt 0.105055 0.180088
vt 0.104065 0.156442
vt 0.104065 0.156442
vt 0.105055 0.180088
vt 0.105055 0.180088
vt 0.105055 0.180088
vt 0.105055 0.180088
vt 0.105055 0.180088
vt 0.105055 0.180088
vt 0.105055 0.180088
vt 0.105055 0.180088
vt 0.105055 0.180088
vt 0.105055 0.180088
vt 0.105055 0.180088
vt 0.105055 0.180088
vt 0.105055 0.180088
vt 0.105055 0.180088
vt 0.104065 0.156442
vt 0.104065 0.156442
vt 0.104065 0.156442
vt 0.104065 0.156442
vt 0.104065 0.156442
vt 0.105055 0.180088
vt 0.105055 0.180088
vt 0.105055 0.180088
vt 0.105055 0.180088
vt 0.105055 0.180088
vt 0.105055 0.180088
vt 0.105055 0.180088
vt 0.105055 0.180088
vt 0.105055 0.180088
vt 0.105055 0.180088
vt 0.104065 0.156442
vt 0.104065 0.156442
vt 0.081371 0.234119
vt 0.081371 0.234119
vt 0.081371 0.234119
vt 0.081371 0.234119
vt 0.104065 0.156442
vt 0.105055 0.180088
vt 0.104065 0.156442
vt 0.105055 0.180088
vt 0.105055 0.180088
vt 0.105055 0.180088
vt 0.105055 0.180088
vt 0.105055 0.180088
vt 0.105055 0.180088
vt 0.104065 0.156442
vt 0.104065 0.156442
vt 0.081371 0.234119
vt 0.081371 0.234119
vt 0.104065 0.156442
vt 0.105055 0.180088
vt 0.104065 0.156442
vt 0.105055 0.180088
vt 0.105055 0.180088
vt 0.105055 0.180088
vt 0.105055 0.180088
vt 0.105055 0.180088
vt 0.105055 0.180088
vt 0.104065 0.156442
vt 0.104065 0.156442
vt 0.081371 0.234119
vt 0.081371 0.234119
vt 0.104065 0.156442
vt 0.105055 0.180088
vt 0.104065 0.156442
vt 0.105055 0.180088
vt 0.105055 0.180088
vt 0.105055 0.180088
vt 0.105055 0.180088
vt 0.105055 0.180088
vt 0.105055 0.180088
vt 0.104065 0.156442
vt 0.104065 0.156442
vt 0.081371 0.234119
vt 0.081371 0.234119
vt 0.081371 0.234119
vt 0.081371 0.234119
vt 0.104065 0.156442
vt 0.105055 0.180088
vt 0.104065 0.156442
vt 0.105055 0.180088
vt 0.105055 0.180088
vt 0.105055 0.180088
vt 0.105055 0.180088
vt 0.402599 0.493175
vt 0.402599 0.493174
vt 0.402599 0.493174
vt 0.402599 0.493175
vt 0.403275 0.468390
vt 0.403275 0.468390
vt 0.402599 0.493175
vt 0.403275 0.468390
vt 0.403275 0.468390
vt 0.402599 0.493175
vt 0.402599 0.493175
vt 0.402599 0.493175
vt 0.402599 0.493174
vt 0.402599 0.493174
vt 0.402599 0.493174
vt 0.402599 0.493174
vt 0.402599 0.493174
vt 0.402599 0.493174
vt 0.402599 0.493175
vt 0.402599 0.493174
vt 0.402599 0.493174
vt 0.402599 0.493175
vt 0.403275 0.468390
vt 0.403275 0.468390
vt 0.402599 0.493175
vt 0.403275 0.468390
vt 0.403275 0.468390
vt 0.402599 0.493175
vt 0.402599 0.493175
vt 0.402599 0.493175
vt 0.402599 0.493174
vt 0.402599 0.493174
vt 0.402599 0.493174
vt 0.402599 0.493174
vt 0.402599 0.493174
vt 0.402599 0.493174
vt 0.081371 0.234119
vt 0.081371 0.234119
vt 0.081371 0.234119
vt 0.081371 0.234119
vt 0.081371 0.234119
vt 0.081371 0.234119
vt 0.081371 0.234119
vt 0.081371 0.234119
vt 0.081371 0.234119
vt 0.081371 0.234119
vt 0.081371 0.234119
vt 0.081371 0.234119
vt 0.081371 0.234119
vt 0.081371 0.234119
vt 0.104065 0.156442
vt 0.104065 0.156442
vt 0.105055 0.180088
vt 0.105055 0.180088
vt 0.105055 0.180088
vt 0.105055 0.180088
vt 0.105055 0.180088
vt 0.105055 0.180088
vt 0.105055 0.180088
vt 0.105055 0.180088
vt 0.104065 0.156442
vt 0.105055 0.180088
vt 0.105055 0.180088
vt 0.105055 0.180088
vt 0.104065 0.156442
vt 0.105055 0.180088
vt 0.104065 0.156442
vt 0.104065 0.156442
vt 0.104065 0.156442
vt 0.079384 0.229538
vt 0.079391 0.229538
vt 0.104065 0.156442
vt 0.104065 0.156442
vt 0.104065 0.156442
vt 0.104065 0.156442
vt 0.104065 0.156442
vt 0.104065 0.156442
vt 0.403275 0.468390
vt 0.403275 0.468390
vt 0.403275 0.468390
vt 0.403275 0.468390
vt 0.403275 0.468390
vt 0.403275 0.468390
vt 0.403275 0.468390
vt 0.403275 0.468390
vt 0.079391 0.229538
vt 0.079384 0.229538
vn -0.999974 -0.005575 0.004492
vn -0.999974 -0.005575 0.004492
vn -0.999974 -0.005575 0.004492
vn -0.999974 -0.005575 0.004492
vn -1.000000 -0.000000 0.000000
vn -1.000000 -0.000000 0.000000
vn -1.000000 -0.000000 0.000000
vn -1.000000 -0.000000 0.000000
vn -1.000000 -0.000000 0.000000
vn -0.999958 -0.006522 -0.006427
vn -0.999958 -0.006522 -0.006427
vn -0.999958 -0.006522 -0.006427
vn -0.999958 -0.006522 -0.006427
vn -0.998533 -0.038626 -0.037937
vn -0.998533 -0.038626 -0.037937
vn -0.999310 0.005890 -0.036685
vn -0.999321 0.000853 -0.036830
vn -0.999226 0.026554 -0.029014
vn -0.999094 0.028550 -0.031562
vn -0.999969 0.006865 -0.003876
vn -0.999969 0.006865 -0.003876
vn -0.999321 0.000853 -0.036830
vn -0.999310 0.005890 -0.036685
vn -0.999094 0.028550 -0.031562
vn -0.999226 0.026554 -0.029014
vn 1.000000 0.000000 0.000000
vn 1.000000 0.000000 0.000000
vn 1.000000 0.000000 0.000000
vn 1.000000 0.000000 0.000000
vn 1.000000 0.000000 0.000000
vn 1.000000 0.000000 0.000000
vn 1.000000 0.000000 0.000000
vn 1.000000 0.000000 0.000000
vn 1.000000 0.000000 0.000000
vn 1.000000 0.000000 0.000000
vn 1.000000 0.000000 0.000000
vn 1.000000 0.000000 0.000000
vn 1.000000 0.000000 0.000000
vn 0.999961 -0.005379 -0.007027
vn 0.999977 0.000396 -0.006792
vn 0.999977 0.000333 -0.006794
vn 0.999961 -0.005379 -0.007027
vn 0.999976 0.004972 -0.004882
vn 1.000000 0.000001 0.000000
vn 1.000000 0.000001 0.000000
vn 0.999970 0.005548 -0.005447
vn 0.999977 0.000396 -0.006792
vn 0.999976 0.004972 -0.004882
vn 0.999970 0.005548 -0.005447
vn 0.999977 0.000333 -0.006794
vn -0.049663 0.998540 0.021250
vn -0.034370 0.993747 -0.106238
vn -0.026524 0.994523 -0.101094
vn 0.001711 0.999319 0.036869
vn 0.000000 -1.000000 0.000000
vn 0.000000 -1.000000 0.000000
vn 0.000000 -1.000000 0.000000
vn 0.000000 -1.000000 0.000000
vn 0.000000 -1.000000 0.000000
vn 0.000000 -1.000000 0.000000
vn 0.000000 -1.000000 0.000000
vn 0.000000 -1.000000 0.000000
vn 0.000000 0.000000 -1.000000
vn 0.000000 0.000000 -1.000000
vn -0.014077 0.014030 -0.999802
vn -0.014138 0.014091 -0.999801
vn 0.000000 -1.000000 0.000000
vn 0.000000 -1.000000 0.000000
vn 0.000000 -1.000000 0.000000
vn 0.000000 -1.000000 0.000000
vn 0.020501 -0.098529 0.994923
vn 0.020501 -0.098529 0.994923
vn 0.057357 -0.072215 0.995739
vn 0.064375 -0.067177 0.995662
vn 0.000000 0.000000 -1.000000
vn 0.000000 0.000000 -1.000000
vn -0.012401 -0.013904 -0.999826
vn -0.012048 -0.013509 -0.999836
vn 0.045903 0.581340 0.812365
vn 0.045903 0.581340 0.812365
vn 0.012701 0.577002 0.816644
vn 0.014041 0.577190 0.816490
vn 0.083973 0.996468 0.000000
vn 0.083973 0.996468 0.000000
vn 0.026940 0.999637 0.000000
vn 0.026940 0.999637 0.000000
vn -0.000000 0.000000 -1.000000
vn -0.000000 0.000000 -1.000000
vn -0.000000 0.000000 -1.000000
vn -0.000000 0.000000 -1.000000
vn -0.001041 0.021092 0.999777
vn -0.001041 0.021092 0.999777
vn 0.015574 0.037805 0.999164
vn 0.014599 0.036824 0.999215
vn -0.000000 0.000000 -1.000000
vn -0.000000 0.000000 -1.000000
vn -0.000050 -0.000060 -1.000000
vn -0.000051 -0.000062 -1.000000
vn -0.009108 0.028771 0.999545
vn -0.010345 0.030077 0.999494
vn -0.000489 0.019670 0.999806
vn -0.000489 0.019670 0.999806
vn -0.052501 -0.056551 0.997018
vn -0.051840 -0.057286 0.997011
vn -0.009180 -0.104473 0.994485
vn -0.009180 -0.104473 0.994485
vn 0.015598 0.998951 0.043066
vn -0.005919 0.991882 -0.127028
vn 0.001683 0.991408 -0.130794
vn -0.008306 0.999965 0.000658
vn 0.000000 -1.000000 0.000000
vn 0.000000 -1.000000 0.000000
vn 0.000000 -1.000000 0.000000
vn 0.000000 -1.000000 0.000000
vn 0.000000 -1.000000 0.000000
vn 0.000000 -1.000000 0.000000
vn 0.000000 -1.000000 0.000000
vn 0.000000 -1.000000 0.000000
vn 0.000000 -1.000000 0.000000
vn 0.000000 -1.000000 0.000000
vn 0.000000 -1.000000 0.000000
vn 0.000000 -1.000000 0.000000
vn 0.013711 0.014663 -0.999798
vn 0.013654 0.014601 -0.999800
vn 0.000000 0.000000 -1.000000
vn 0.000000 0.000000 -1.000000
vn 0.014190 -0.015710 -0.999776
vn 0.013379 -0.014812 -0.999801
vn 0.000000 0.000000 -1.000000
vn 0.000000 0.000000 -1.000000
vn 0.000000 0.000000 -1.000000
vn 0.000000 0.000000 -1.000000
vn -0.000000 0.000000 -1.000000
vn -0.000000 0.000000 -1.000000
vn 0.000000 0.000000 -1.000000
vn 0.000000 0.000000 -1.000000
vn 0.000000 0.000000 -1.000000
vn 0.000000 0.000000 -1.000000
vn -0.022464 0.999748 0.000000
vn -0.022464 0.999748 0.000000
vn -0.044895 0.998992 0.000000
vn -0.044895 0.998992 0.000000
vn -0.015273 0.578363 0.815636
vn -0.014806 0.578529 0.815528
vn -0.027149 0.574108 0.818330
vn -0.027149 0.574108 0.818330
vn -0.011851 0.055036 0.998414
vn -0.012008 0.054704 0.998430
vn -0.010345 0.030077 0.999494
vn -0.009108 0.028771 0.999545
vn -0.049755 0.020048 0.998560
vn -0.049400 0.020332 0.998572
vn -0.051840 -0.057286 0.997011
vn -0.052501 -0.056551 0.997018
vn 0.015598 0.998951 0.043066
vn 0.014985 0.996954 -0.076541
vn -0.005919 0.991882 -0.127028
vn 0.013912 0.042983 -0.998979
vn 0.013984 0.042909 -0.998981
vn 0.013654 0.014601 -0.999800
vn 0.013711 0.014663 -0.999798
vn 0.012152 -0.041736 -0.999055
vn 0.012171 -0.041716 -0.999055
vn 0.013379 -0.014812 -0.999801
vn 0.014190 -0.015710 -0.999776
vn 0.000046 -0.000058 -1.000000
vn 0.000047 -0.000058 -1.000000
vn 0.000000 0.000000 -1.000000
vn 0.000000 0.000000 -1.000000
vn -0.000000 0.000000 -1.000000
vn -0.000000 0.000000 -1.000000
vn 0.000000 0.000000 -1.000000
vn 0.000000 0.000000 -1.000000
vn 0.015184 0.999885 0.000000
vn 0.015184 0.999885 0.000000
vn -0.022464 0.999748 0.000000
vn -0.022464 0.999748 0.000000
vn 0.009695 0.581119 0.813761
vn 0.009488 0.581147 0.813743
vn -0.014806 0.578529 0.815528
vn -0.015273 0.578363 0.815636
vn 0.013763 0.059188 0.998152
vn 0.011143 0.060788 0.998089
vn -0.012008 0.054704 0.998430
vn -0.011851 0.055036 0.998414
vn 0.044027 0.013205 0.998943
vn 0.047803 0.010097 0.998806
vn -0.049400 0.020332 0.998572
vn -0.049755 0.020048 0.998560
vn 0.001711 0.999319 0.036869
vn 0.029987 0.997223 -0.068165
vn 0.014985 0.996954 -0.076541
vn 0.015598 0.998951 0.043066
vn 0.000000 -1.000000 0.000000
vn 0.000000 -1.000000 0.000000
vn 0.000000 -1.000000 0.000000
vn 0.000000 -1.000000 0.000000
vn 0.000000 -1.000000 0.000000
vn 0.000000 -1.000000 0.000000
vn 0.000000 -1.000000 0.000000
vn 0.000000 -1.000000 0.000000
vn 0.000000 -1.000000 0.000000
vn 0.000000 -1.000000 0.000000
vn 0.000000 -1.000000 0.000000
vn 0.000000 -1.000000 0.000000
vn -0.013489 0.042426 -0.999009
vn -0.013564 0.042351 -0.999011
vn 0.013984 0.042909 -0.998981
vn 0.013912 0.042983 -0.998979
vn -0.012701 -0.042015 -0.999036
vn -0.012588 -0.042147 -0.999032
vn 0.012171 -0.041716 -0.999055
vn 0.012152 -0.041736 -0.999055
vn -0.000001 -0.000117 -1.000000
vn -0.000004 -0.000117 -1.000000
vn 0.000047 -0.000058 -1.000000
vn 0.000046 -0.000058 -1.000000
vn -0.000000 0.000000 -1.000000
vn -0.000000 0.000000 -1.000000
vn -0.000000 0.000000 -1.000000
vn -0.000000 0.000000 -1.000000
vn 0.000000 1.000000 0.000000
vn 0.000000 1.000000 0.000000
vn 0.015184 0.999885 0.000000
vn 0.015184 0.999885 0.000000
vn 0.001295 0.575941 0.817490
vn 0.001812 0.576032 0.817425
vn 0.009488 0.581147 0.813743
vn 0.009695 0.581119 0.813761
vn 0.014599 0.036824 0.999215
vn 0.015574 0.037805 0.999164
vn 0.011143 0.060788 0.998089
vn 0.013763 0.059188 0.998152
vn 0.064375 -0.067177 0.995662
vn 0.057357 -0.072215 0.995739
vn 0.047803 0.010097 0.998806
vn 0.044027 0.013205 0.998943
vn 0.001711 0.999319 0.036869
vn -0.026524 0.994523 -0.101094
vn 0.029987 0.997223 -0.068165
vn -0.014138 0.014091 -0.999801
vn -0.014077 0.014030 -0.999802
vn -0.013564 0.042351 -0.999011
vn -0.013489 0.042426 -0.999009
vn -0.012048 -0.013509 -0.999836
vn -0.012401 -0.013904 -0.999826
vn -0.012588 -0.042147 -0.999032
vn -0.012701 -0.042015 -0.999036
vn -0.000051 -0.000062 -1.000000
vn -0.000050 -0.000060 -1.000000
vn -0.000004 -0.000117 -1.000000
vn -0.000001 -0.000117 -1.000000
vn -0.000000 0.000000 -1.000000
vn -0.000000 0.000000 -1.000000
vn -0.000000 0.000000 -1.000000
vn -0.000000 0.000000 -1.000000
vn 0.026940 0.999637 0.000000
vn 0.026940 0.999637 0.000000
vn 0.000000 1.000000 0.000000
vn 0.000000 1.000000 0.000000
vn 0.014041 0.577190 0.816490
vn 0.012701 0.577002 0.816644
vn 0.001812 0.576032 0.817425
vn 0.001295 0.575941 0.817490
vn 1.000000 0.000000 0.000000
vn 1.000000 0.000000 0.000000
vn 1.000000 0.000000 0.000000
vn 1.000000 0.000000 0.000000
vn 1.000000 0.000000 0.000000
vn 1.000000 0.000000 0.000000
vn 1.000000 0.000000 0.000000
vn 1.000000 0.000000 0.000000
vn 0.006051 -0.201714 0.979426
vn 0.013448 -0.201168 0.979464
vn -0.000000 0.000000 1.000000
vn -0.000000 0.000000 1.000000
vn 1.000000 0.000000 0.000000
vn 1.000000 0.000000 0.000000
vn 1.000000 0.000000 0.000000
vn 1.000000 0.000000 0.000000
vn 0.000000 0.000000 -1.000000
vn 0.000000 0.000000 -1.000000
vn 0.000000 0.000000 -1.000000
vn 0.000000 0.000000 -1.000000
vn -0.001419 -0.201404 0.979507
vn -0.028228 -0.197644 0.979867
vn -0.032012 0.000000 0.999488
vn -0.032012 0.000000 0.999488
vn -1.000000 0.000000 0.000000
vn -1.000000 0.000000 0.000000
vn -1.000000 0.000000 0.000000
vn -1.000000 0.000000 0.000000
vn -1.000000 0.000000 0.000000
vn -1.000000 0.000000 0.000000
vn -1.000000 0.000000 0.000000
vn -1.000000 0.000000 0.000000
vn -1.000000 0.000000 0.000000
vn -1.000000 0.000000 0.000000
vn -1.000000 0.000000 0.000000
vn -1.000000 0.000000 0.000000
vn 0.000000 0.000000 -1.000000
vn 0.000000 0.000000 -1.000000
vn 0.000000 0.000000 -1.000000
vn 0.000000 0.000000 -1.000000
vn 0.005692 0.003273 -0.999978
vn 0.005692 0.003273 -0.999978
vn 0.005692 0.003273 -0.999979
vn 0.013448 -0.201168 0.979464
vn -0.001419 -0.201404 0.979507
vn 0.024014 0.000000 0.999712
vn 0.024014 0.000000 0.999712
vn 0.000565 0.007515 -0.999972
vn 0.000565 0.007515 -0.999972
vn 0.000565 0.007515 -0.999972
vn 0.000565 0.007515 -0.999972
vn -0.007388 0.004248 -0.999964
vn -0.007388 0.004248 -0.999964
vn -0.007388 0.004248 -0.999964
vn -0.024415 0.406979 0.913111
vn -0.024415 0.406979 0.913111
vn 0.012308 0.407072 0.913313
vn 0.012781 0.407070 0.913308
vn -0.042223 0.406742 0.912567
vn -0.042223 0.406742 0.912567
vn 0.005086 0.407100 0.913369
vn 0.004696 0.407101 0.913371
vn 0.004696 0.407101 0.913371
vn 0.005086 0.407100 0.913369
vn 0.012781 0.407070 0.913308
vn 0.012308 0.407072 0.913313
vn 0.006051 -0.201714 0.979426
vn 0.014266 -0.475599 0.879547
vn 0.012075 -0.475615 0.879571
vn 0.013448 -0.201168 0.979464
vn 0.002337 0.990546 0.137160
vn -0.062860 0.988590 0.136889
vn -0.049663 0.998540 0.021250
vn 0.001711 0.999319 0.036869
vn 0.021610 0.988093 0.152333
vn 0.015598 0.998951 0.043066
vn -0.008306 0.999965 0.000658
vn -0.021321 0.984366 0.174838
vn -0.001419 -0.201404 0.979507
vn -0.003332 -0.469496 0.882929
vn -0.021039 -0.461443 0.886921
vn -0.028228 -0.197644 0.979867
vn 0.002337 0.990546 0.137160
vn 0.001711 0.999319 0.036869
vn 0.015598 0.998951 0.043066
vn 0.021610 0.988093 0.152333
vn 0.013448 -0.201168 0.979464
vn 0.012075 -0.475615 0.879571
vn -0.003332 -0.469496 0.882929
vn -0.001419 -0.201404 0.979507
s off
f 14/1/1 15/6/2 16/7/3 17/8/4
f 14/1/5 17/8/6 18/10/7 87/17/8 86/18/9
f 16/7/10 15/6/11 19/33/12 20/34/13
f 19/41/14 15/38/15 21/39/16 22/40/17
f 24/45/18 23/42/19 25/43/20 26/44/21
f 22/40/22 21/39/23 23/42/24 24/45/25
f 1/35/26 3/36/27 4/37/28 2/48/29
f 1/158/30 84/154/31 83/157/32 5/156/33 3/19/34
f 4/20/35 7/23/36 6/22/37 2/21/38
f 6/24/39 13/27/40 12/26/41 2/25/42
f 11/28/43 9/31/44 8/30/45 10/29/46
f 13/27/47 11/28/48 10/29/49 12/26/50
f 1/35/51 2/48/52 58/49/53 59/54/54
f 68/2/55 67/3/56 69/4/57 70/5/58
f 67/3/59 71/50/60 72/51/61 69/4/62
f 6/56/63 7/63/64 61/64/65 62/67/66
f 73/52/67 68/2/68 70/5/69 74/53/70
f 2/48/71 12/69/72 57/76/73 58/49/74
f 13/16/75 6/9/76 62/96/77 63/98/78
f 10/13/79 8/11/80 66/101/81 56/87/82
f 8/11/83 9/12/84 65/100/85 66/101/86
f 9/12/87 11/14/88 64/99/89 65/100/90
f 12/15/91 10/13/92 56/87/93 57/88/94
f 11/14/95 13/16/96 63/98/97 64/99/98
f 28/47/99 27/46/100 23/42/101 21/39/102
f 29/77/103 28/80/104 21/82/105 15/6/106
f 39/89/107 29/77/108 15/6/109 14/1/110
f 80/91/111 79/92/112 75/65/113 76/66/114
f 81/93/115 80/91/116 76/66/117 77/78/118
f 82/94/119 81/93/120 77/78/121 78/79/122
f 31/90/123 30/95/124 20/34/125 19/33/126
f 32/57/127 31/55/128 19/41/129 22/40/130
f 33/58/131 32/57/132 22/40/133 24/45/134
f 34/59/135 33/58/136 24/45/137 26/44/138
f 35/60/139 34/59/140 26/44/141 25/43/142
f 27/46/143 35/60/144 25/43/145 23/42/146
f 37/102/147 36/103/148 27/104/149 28/105/150
f 38/106/151 37/107/152 28/109/153 29/110/154
f 39/89/155 38/97/156 29/77/157
f 42/124/158 41/125/159 30/127/160 31/128/161
f 43/112/162 42/108/163 31/111/164 32/113/165
f 44/114/166 43/112/167 32/113/168 33/115/169
f 45/116/170 44/114/171 33/115/172 34/117/173
f 46/118/174 45/116/175 34/117/176 35/119/177
f 36/103/178 46/118/179 35/119/180 27/104/181
f 48/75/182 47/74/183 36/61/184 37/62/185
f 49/152/186 48/153/187 37/162/188 38/97/189
f 59/54/190 49/152/191 38/97/192 39/89/193
f 69/4/194 72/51/195 79/92/196 80/91/197
f 70/5/198 69/4/199 80/91/200 81/93/201
f 74/53/202 70/5/203 81/93/204 82/94/205
f 51/166/206 50/168/207 41/169/208 42/170/209
f 52/83/210 51/81/211 42/68/212 43/70/213
f 53/84/214 52/83/215 43/70/216 44/71/217
f 54/85/218 53/84/219 44/71/220 45/72/221
f 55/86/222 54/85/223 45/72/224 46/73/225
f 47/74/226 55/86/227 46/73/228 36/61/229
f 57/120/230 56/121/231 47/122/232 48/123/233
f 58/179/234 57/180/235 48/181/236 49/182/237
f 59/54/238 58/49/239 49/152/240
f 62/183/241 61/184/242 50/185/243 51/186/244
f 63/130/245 62/126/246 51/129/247 52/131/248
f 64/132/249 63/130/250 52/131/251 53/133/252
f 65/134/253 64/132/254 53/133/255 54/135/256
f 66/136/257 65/134/258 54/135/259 55/137/260
f 56/121/261 66/136/262 55/137/263 47/122/264
f 4/138/265 3/139/266 67/3/267 68/2/268
f 3/139/269 5/140/270 71/50/271 67/3/272
f 5/140/273 60/141/274 72/51/275 71/50/276
f 7/142/277 4/138/278 68/2/279 73/52/280
f 61/143/281 7/142/282 73/52/283 74/53/284
f 40/149/285 18/144/286 75/65/287 79/92/288
f 18/144/289 17/145/290 76/66/291 75/65/292
f 17/145/293 16/146/294 77/78/295 76/66/296
f 16/146/297 20/147/298 78/79/299 77/78/300
f 20/147/301 30/148/302 82/94/303 78/79/304
f 30/148/305 41/150/306 82/94/307
f 60/141/308 40/149/309 79/92/310 72/51/311
f 41/171/312 50/172/313 74/187/314 82/188/315
f 50/151/316 61/143/317 74/53/318
f 83/157/319 84/154/320 85/165/321 90/167/322
f 86/160/323 87/155/324 88/163/325 89/161/326
f 89/161/327 88/163/328 90/167/329 85/165/330
f 5/173/331 83/174/332 90/175/333 60/176/334
f 85/165/335 84/154/336 1/158/337 59/159/338
f 89/161/339 39/164/340 14/32/341 86/160/342
f 40/177/343 88/178/344 87/17/345 18/10/346
f 85/165/347 59/159/348 39/164/349 89/161/350
f 60/176/351 90/175/352 88/178/353 40/177/354
