# This file uses centimeters as units for non-parametric coordinates.

v 295.586426 5.920897 613.310059
v 295.586426 5.920897 -363.309082
v 285.916992 70.054901 623.297363
v 295.586426 70.054901 -363.309082
v 256.927734 70.054901 653.239746
v 267.296875 70.054901 -392.530762
v 256.927734 5.920897 653.239746
v 256.927734 5.920897 -403.241699
v -2.340820 341.412903 273.108887
v -372.156006 341.412903 284.870605
v -547.649658 5.920897 284.870605
v 11.515137 5.920897 284.870605
v 11.515137 341.412903 -34.869629
v -386.729004 313.553894 -34.869629
v -547.649658 5.920897 -34.869629
v 11.515137 5.920897 -34.869629
v -20.454590 5.920897 331.324707
v -20.454590 341.412903 331.324707
v -20.454590 341.412903 -81.324707
v -20.454590 5.920897 -81.324707
v 11.515137 341.412903 125.000488
v 11.515137 12.249427 242.837402
v 11.515137 300.000000 242.837402
v 11.515137 12.249427 7.155762
v 11.515137 300.000000 7.155762
v 285.289551 79.891357 601.403809
v 295.586426 47.271618 613.310059
v 268.062500 96.347237 581.485840
v 235.361328 127.585037 543.677246
v 244.611816 113.255035 566.959473
v 249.130859 102.579308 559.598145
v 155.649414 169.133667 535.698730
v 107.362793 216.371674 479.662598
v 141.591797 190.782440 498.290527
v 127.620117 184.093552 503.173340
v 3.592285 341.412903 296.379395
v 11.515137 341.412903 248.853027
v 11.515137 332.049652 275.362793
v 11.515137 326.665344 284.870605
v 31.116699 322.688873 307.532715
v 11.515137 341.412903 219.901855
v 11.515137 341.412903 177.306152
v 2.716309 341.412903 197.748535
v 11.515137 333.362915 197.946777
v 85.828125 270.425659 -120.792480
v 117.909180 239.780655 -157.882324
v 100.010254 250.303558 -152.254395
v 99.111816 244.880463 -136.147949
v 107.137207 216.592560 -229.401855
v 137.916504 186.481323 -265.123535
v 128.194336 201.216827 -239.882324
v 115.799316 192.576004 -239.453613
v 194.299316 166.809448 -246.205566
v 222.832031 139.553360 -279.190918
v 202.626465 151.664841 -272.307129
v 201.787109 145.654404 -254.864746
v 256.927734 37.322334 -403.241699
v 239.292480 87.306854 -382.775879
v -262.906006 341.412903 -54.127441
v -309.418457 341.412903 -34.867676
v -372.156006 341.412903 42.466309
v -363.651367 341.412903 -16.740723
v -318.658447 323.990204 -44.304199
v -441.535645 208.779831 284.870605
v -525.111328 49.007462 284.870605
v -498.348145 100.170555 272.368652
v -469.023438 156.230850 267.476074
v -460.631592 127.102417 287.370605
v -2.563965 12.249427 242.837402
v -2.563965 300.000000 242.837402
v -2.563965 12.249427 7.155762
v -2.563965 300.000000 7.155762
v -2.563965 5.920897 284.870605
v -2.563965 318.465424 284.870605
v -2.563965 5.920897 -34.869629
v -2.563965 318.465424 -34.869629
v -510.617920 5.920897 284.870605
v -365.288330 318.465424 284.870605
v -510.617920 5.920897 -34.869629
v -365.288330 318.465424 -34.869629
v -9.682617 5.920897 250.000488
v -9.682617 5.920897 0.000488
v -496.023193 5.920897 0.000488
v -496.023193 5.920897 250.000488
v 258.905762 -52.518414 679.231201
v 330.216309 -52.518414 613.310059
v 258.905762 -52.518414 -429.245850
v 330.217285 -52.518414 -363.308105
v -20.623535 -52.474251 386.947754
v 40.795410 -52.518414 284.870605
v -601.195313 -49.145897 328.420410
v -601.180176 -49.153427 -78.275879
v 40.795410 -52.518414 -34.869629
v -20.608398 -52.481781 -136.807129
v -9.682617 -11.416059 250.000488
v -9.682617 -11.416059 0.000488
v -496.023193 -11.416059 0.000488
v -496.023193 -11.416059 250.000488
v 1.352539 -52.518414 332.342285
v 1.352539 -52.518414 -82.341309
v -567.024902 -52.518414 -55.151855
v -567.024902 -52.518414 305.152832
vt 0.102738 0.253572
vt 0.102738 0.253572
vt 0.102738 0.253572
vt 0.102738 0.253572
vt 0.102738 0.253572
vt 0.102738 0.253572
vt 0.102738 0.253572
vt 0.102738 0.253572
vt 0.102738 0.253572
vt 0.102738 0.253572
vt 0.102738 0.253572
vt 0.102738 0.253572
vt 0.102738 0.253572
vt 0.102738 0.253572
vt 0.102738 0.253572
vt 0.102738 0.253572
vt 0.102738 0.253572
vt 0.102738 0.253572
vt 0.102738 0.253572
vt 0.102738 0.253572
vt 0.102738 0.253572
vt 0.102738 0.253572
vt 0.102738 0.253572
vt 0.102738 0.253572
vt 0.102738 0.253572
vt 0.102738 0.253572
vt 0.102738 0.253572
vt 0.102738 0.253572
vt 0.102738 0.253572
vt 0.102738 0.253572
vt 0.102738 0.253572
vt 0.102738 0.253572
vt 0.102738 0.253572
vt 0.102738 0.253572
vt 0.102738 0.253572
vt 0.102738 0.253572
vt 0.102738 0.253572
vt 0.102738 0.253572
vt 0.102738 0.253572
vt 0.102738 0.253572
vt 0.102738 0.253572
vt 0.102738 0.253572
vt 0.102738 0.253572
vt 0.102738 0.253572
vt 0.102738 0.253572
vt 0.102738 0.253572
vt 0.102738 0.253572
vt 0.102738 0.253572
vt 0.102738 0.253572
vt 0.102738 0.253572
vt 0.102738 0.253572
vt 0.102738 0.253572
vt 0.102738 0.253572
vt 0.102738 0.253572
vt 0.102738 0.253572
vt 0.102738 0.253572
vt 0.102738 0.253572
vt 0.102738 0.253572
vt 0.102738 0.253572
vt 0.102738 0.253572
vt 0.102738 0.253572
vt 0.102738 0.253572
vt 0.102738 0.253572
vt 0.102738 0.253572
vt 0.102738 0.253572
vt 0.102738 0.253572
vt 0.102738 0.253572
vt 0.102738 0.253572
vt 0.102738 0.253572
vt 0.102738 0.253572
vt 0.102738 0.253572
vt 0.102738 0.253572
vt 0.102738 0.253572
vt 0.102738 0.253572
vt 0.102738 0.253572
vt 0.102738 0.253572
vt 0.102738 0.253572
vt 0.102738 0.253572
vt 0.102738 0.253572
vt 0.102738 0.253572
vt 0.102738 0.253572
vt 0.102738 0.253572
vt 0.102738 0.253572
vt 0.102783 0.253572
vt 0.102738 0.253572
vt 0.102783 0.253572
vt 0.102738 0.253572
vt 0.102738 0.253572
vt 0.102738 0.253572
vt 0.101807 0.228229
vt 0.101807 0.228229
vt 0.101807 0.228226
vt 0.101807 0.228226
vt 0.101807 0.228229
vt 0.101807 0.228229
vt 0.101807 0.228226
vt 0.101807 0.228226
vt 0.101807 0.228229
vt 0.101807 0.228226
vt 0.101807 0.228229
vt 0.101807 0.228226
vt 0.101807 0.228229
vt 0.101807 0.228229
vt 0.101807 0.228226
vt 0.101807 0.228226
vt 0.101807 0.228229
vt 0.101807 0.228226
vt 0.101807 0.228229
vt 0.101807 0.228226
vt 0.102783 0.253572
vt 0.102783 0.253572
vt 0.102783 0.253572
vt 0.102783 0.253572
vt 0.102783 0.253572
vt 0.102783 0.253572
vt 0.102783 0.253572
vt 0.102783 0.253572
vt 0.102783 0.253572
vt 0.102783 0.253572
vt 0.102783 0.253572
vt 0.102783 0.253572
vt 0.102738 0.253572
vt 0.102738 0.253572
vt 0.102783 0.253572
vt 0.102783 0.253572
vt 0.102783 0.253571
vt 0.102783 0.253571
vt 0.102783 0.253572
vt 0.102783 0.253571
vt 0.102783 0.253572
vt 0.102783 0.253571
vt 0.102783 0.253571
vt 0.102783 0.253571
vt 0.102783 0.253571
vt 0.102783 0.253571
vt 0.102783 0.253571
vt 0.102783 0.253571
vn 0.000000 1.000000 0.000001
vn 0.000000 1.000000 0.000001
vn 0.000000 1.000000 0.000001
vn 0.000000 1.000000 0.000001
vn -0.087970 0.042638 0.995210
vn -0.087970 0.042638 0.995210
vn -0.087970 0.042638 0.995210
vn -0.087970 0.042638 0.995210
vn 0.718474 0.000000 -0.695554
vn 0.718474 0.000000 -0.695554
vn 0.718474 0.000000 -0.695554
vn 0.718474 0.000000 -0.695554
vn 0.718474 0.000000 -0.695554
vn 0.718449 0.000000 0.695580
vn 0.718449 0.000000 0.695580
vn 0.718449 0.000000 0.695580
vn 0.718449 0.000000 0.695580
vn 0.718449 0.000000 0.695580
vn 0.000000 1.000000 -0.000000
vn 0.000000 1.000000 -0.000000
vn 0.000000 1.000000 -0.000000
vn 0.000000 1.000000 -0.000000
vn 0.000000 1.000000 -0.000000
vn 0.000000 1.000000 -0.000000
vn 0.000000 1.000000 -0.000000
vn -0.886092 0.463509 0.000000
vn -0.886092 0.463509 0.000000
vn -0.886092 0.463509 0.000000
vn -0.886093 0.463509 0.000000
vn 0.000000 1.000000 0.000000
vn 0.000000 1.000000 0.000000
vn 0.000000 1.000000 0.000000
vn 0.000000 1.000000 0.000000
vn -0.094075 0.038220 -0.994831
vn -0.094075 0.038220 -0.994831
vn -0.094075 0.038220 -0.994831
vn -0.094075 0.038220 -0.994831
vn 0.756344 -0.000003 -0.654175
vn 0.756344 -0.000003 -0.654175
vn 0.756344 -0.000003 -0.654175
vn 0.756344 -0.000003 -0.654175
vn 0.756344 -0.000003 -0.654175
vn -0.757560 0.000002 0.652766
vn -0.757560 0.000002 0.652766
vn -0.757560 0.000002 0.652766
vn -0.757560 0.000002 0.652766
vn -0.757560 0.000002 0.652766
vn 0.398124 0.845787 0.355165
vn 0.398124 0.845787 0.355165
vn 0.398124 0.845787 0.355165
vn 0.398124 0.845787 0.355165
vn 0.385642 0.846455 -0.367144
vn 0.385642 0.846455 -0.367144
vn 0.385642 0.846455 -0.367144
vn 0.385642 0.846455 -0.367144
vn 0.385642 0.846455 -0.367144
vn -0.114543 0.341541 -0.932861
vn -0.114543 0.341541 -0.932861
vn -0.114543 0.341541 -0.932861
vn 0.756345 0.000024 0.654172
vn 0.756345 0.000024 0.654172
vn 0.756345 0.000024 0.654172
vn 1.000000 -0.000000 0.000000
vn 1.000000 -0.000000 0.000000
vn 1.000000 -0.000000 0.000000
vn 1.000000 -0.000000 0.000000
vn 1.000000 -0.000000 0.000000
vn 1.000000 0.000000 0.000000
vn 1.000000 0.000000 0.000000
vn 1.000000 0.000000 0.000000
vn 1.000000 0.000000 0.000000
vn 1.000000 0.000000 0.000000
vn 1.000000 0.000000 0.000000
vn 1.000000 0.000000 0.000000
vn 1.000000 0.000000 0.000000
vn 1.000000 0.000000 0.000000
vn 1.000000 0.000000 0.000000
vn 1.000000 0.000000 0.000000
vn 0.931856 0.340195 0.126138
vn 0.931857 0.340195 0.126138
vn 0.931856 0.340195 0.126138
vn 0.687821 0.586277 -0.427997
vn 0.687821 0.586277 -0.427997
vn 0.687821 0.586277 -0.427997
vn 0.894840 0.438038 -0.085930
vn 0.894840 0.438038 -0.085930
vn 0.894840 0.438038 -0.085930
vn -0.198932 0.813955 0.545805
vn -0.198932 0.813955 0.545805
vn -0.198932 0.813955 0.545805
vn 0.000479 0.588953 0.808167
vn 0.000479 0.588953 0.808167
vn 0.000479 0.588953 0.808167
vn 0.503660 0.814585 0.287713
vn 0.503660 0.814585 0.287713
vn 0.503660 0.814585 0.287713
vn 0.452809 0.775840 0.439359
vn 0.452808 0.775840 0.439359
vn 0.452809 0.775840 0.439359
vn 0.620610 0.661711 -0.420691
vn 0.620610 0.661711 -0.420691
vn 0.620610 0.661711 -0.420691
vn 0.654958 0.709478 -0.260136
vn 0.654958 0.709478 -0.260136
vn 0.654958 0.709478 -0.260136
vn 0.645061 0.711904 0.277648
vn 0.645061 0.711904 0.277648
vn 0.645061 0.711904 0.277648
vn 0.912658 0.369252 0.175237
vn 0.912658 0.369252 0.175237
vn 0.912658 0.369252 0.175237
vn 0.551401 0.780843 0.293669
vn 0.551401 0.780843 0.293669
vn 0.551401 0.780843 0.293669
vn -0.482028 0.663039 -0.572738
vn -0.482028 0.663039 -0.572738
vn -0.482028 0.663039 -0.572738
vn -0.240757 0.299557 -0.923202
vn -0.240757 0.299557 -0.923202
vn -0.240757 0.299557 -0.923202
vn 0.950001 0.278288 0.141610
vn 0.950001 0.278288 0.141610
vn 0.950001 0.278288 0.141610
vn 0.563049 0.772615 0.293328
vn 0.563049 0.772615 0.293328
vn 0.563049 0.772615 0.293328
vn -0.757564 0.000004 -0.652761
vn -0.757564 0.000004 -0.652761
vn -0.757564 0.000004 -0.652761
vn -0.312931 0.575280 -0.755729
vn -0.312931 0.575280 -0.755729
vn -0.312931 0.575280 -0.755729
vn -0.731188 0.674043 -0.105029
vn -0.731188 0.674043 -0.105029
vn -0.731188 0.674043 -0.105029
vn -0.222655 0.617936 -0.754043
vn -0.222655 0.617936 -0.754043
vn -0.222655 0.617936 -0.754043
vn -0.222655 0.617936 -0.754043
vn -0.122721 -0.008236 -0.992407
vn -0.122721 -0.008236 -0.992407
vn -0.122721 -0.008236 -0.992407
vn -0.122721 -0.008236 -0.992407
vn -0.757563 -0.000002 -0.652762
vn -0.757563 -0.000002 -0.652762
vn -0.757563 -0.000002 -0.652762
vn -0.757563 -0.000002 -0.652762
vn -0.757574 -0.000020 -0.652749
vn -0.757574 -0.000020 -0.652749
vn -0.757574 -0.000020 -0.652749
vn -0.757574 -0.000020 -0.652749
vn -0.757574 -0.000020 -0.652749
vn 0.403372 0.845496 -0.349895
vn 0.403372 0.845496 -0.349895
vn 0.403372 0.845496 -0.349895
vn 0.403372 0.845496 -0.349895
vn 0.403372 0.845496 -0.349895
vn 0.413761 0.840961 -0.348692
vn 0.413761 0.840961 -0.348692
vn 0.413761 0.840961 -0.348692
vn 0.413761 0.840961 -0.348692
vn 0.442286 0.838764 -0.317580
vn 0.442286 0.838764 -0.317580
vn 0.442286 0.838764 -0.317580
vn 0.442286 0.838764 -0.317580
vn 0.442427 0.836054 -0.324457
vn 0.442427 0.836054 -0.324457
vn 0.442427 0.836054 -0.324457
vn 0.442427 0.836054 -0.324457
vn 0.756316 -0.000040 0.654206
vn 0.756316 -0.000040 0.654206
vn 0.756317 -0.000040 0.654206
vn 0.756317 -0.000040 0.654206
vn 0.756349 0.000006 0.654169
vn 0.756349 0.000006 0.654169
vn 0.756349 0.000006 0.654169
vn 0.756349 0.000006 0.654169
vn 0.756355 -0.000010 0.654162
vn 0.756355 -0.000010 0.654162
vn 0.756355 -0.000010 0.654162
vn 0.756355 -0.000010 0.654162
vn 0.756355 -0.000010 0.654162
vn 1.000000 0.000000 0.000000
vn 1.000000 0.000000 0.000000
vn 1.000000 0.000000 0.000000
vn 1.000000 0.000000 0.000000
vn 1.000000 0.000000 0.000000
vn 1.000000 0.000000 0.000000
vn 1.000000 0.000000 0.000000
vn 1.000000 0.000000 0.000000
vn 1.000000 0.000000 0.000000
vn 1.000000 0.000000 0.000000
vn 0.450031 0.835374 0.315628
vn 0.450031 0.835374 0.315628
vn 0.450031 0.835374 0.315628
vn 0.450031 0.835374 0.315628
vn 0.450031 0.835374 0.315628
vn 0.381794 0.847109 0.369648
vn 0.381794 0.847109 0.369648
vn 0.381794 0.847109 0.369648
vn 0.381794 0.847109 0.369648
vn 0.381794 0.847109 0.369648
vn 0.404336 0.842658 0.355584
vn 0.404336 0.842658 0.355584
vn 0.404336 0.842658 0.355584
vn 0.404336 0.842658 0.355584
vn 0.756345 -0.000005 -0.654173
vn 0.756345 -0.000005 -0.654173
vn 0.756345 -0.000005 -0.654173
vn 0.756345 -0.000005 -0.654173
vn 0.756345 -0.000005 -0.654173
vn 0.756345 -0.000005 -0.654173
vn -0.757563 0.000002 0.652762
vn -0.757563 0.000002 0.652762
vn -0.757563 0.000002 0.652762
vn -0.757563 0.000002 0.652762
vn 0.000000 1.000000 -0.000000
vn 0.000000 1.000000 -0.000000
vn 0.000000 1.000000 -0.000000
vn 0.000000 1.000000 -0.000000
vn 0.000000 1.000000 -0.000000
vn 0.000000 1.000000 -0.000000
vn 0.788847 0.580749 -0.201127
vn 0.788847 0.580749 -0.201127
vn 0.788847 0.580749 -0.201127
vn -0.765463 0.197706 0.612355
vn -0.765463 0.197706 0.612355
vn -0.765463 0.197706 0.612355
vn -0.595109 0.470500 0.651517
vn -0.595109 0.470500 0.651517
vn -0.595109 0.470500 0.651517
vn -0.553314 0.355191 0.753447
vn -0.553314 0.355191 0.753447
vn -0.553314 0.355191 0.753447
vn -0.886092 0.463510 -0.000000
vn -0.886092 0.463510 -0.000000
vn -0.886092 0.463510 -0.000000
vn -0.886092 0.463510 -0.000000
vn -0.886092 0.463509 -0.000000
vn -0.886092 0.463509 -0.000000
vn -0.886092 0.463509 -0.000000
vn -0.886092 0.463509 -0.000000
vn -0.886092 0.463509 -0.000000
vn -0.109978 0.022681 0.993675
vn -0.109978 0.022681 0.993675
vn -0.109978 0.022681 0.993675
vn -0.109978 0.022681 0.993675
vn -0.109978 0.022681 0.993675
vn 0.906765 -0.421635 0.000000
vn 0.906765 -0.421635 0.000000
vn 0.906765 -0.421635 0.000000
vn 0.906765 -0.421635 0.000000
vn 0.000000 0.000000 -1.000000
vn 0.000000 0.000000 -1.000000
vn 0.000000 0.000000 -1.000000
vn 0.000000 0.000000 -1.000000
vn 0.000000 1.000000 0.000000
vn 0.000000 1.000000 0.000000
vn 0.000000 1.000000 0.000000
vn 0.000000 1.000000 0.000000
vn 0.000000 0.000000 1.000000
vn 0.000000 0.000000 1.000000
vn 0.000000 0.000000 1.000000
vn 0.000000 0.000000 1.000000
vn 0.000000 -1.000000 0.000000
vn 0.000000 -1.000000 0.000000
vn 0.000000 -1.000000 0.000000
vn 0.000000 -1.000000 0.000000
vn -1.000000 0.000000 0.000000
vn -1.000000 0.000000 0.000000
vn -1.000000 0.000000 0.000000
vn -1.000000 0.000000 0.000000
vn -1.000000 0.000000 0.000000
vn -1.000000 0.000000 0.000000
vn -1.000000 0.000000 0.000000
vn -1.000000 0.000000 0.000000
vn -1.000000 0.000000 0.000000
vn -1.000000 0.000000 0.000000
vn -1.000000 0.000000 0.000000
vn -1.000000 0.000000 0.000000
vn -1.000000 -0.000000 0.000000
vn -1.000000 -0.000000 0.000000
vn -1.000000 -0.000000 0.000000
vn -1.000000 -0.000000 0.000000
vn 0.000000 0.000000 -1.000000
vn 0.000000 0.000000 -1.000000
vn 0.000000 0.000000 -1.000000
vn 0.000000 0.000000 -1.000000
vn 0.000000 0.000000 1.000000
vn 0.000000 0.000000 1.000000
vn 0.000000 0.000000 1.000000
vn 0.000000 0.000000 1.000000
vn 0.000000 -1.000000 0.000000
vn 0.000000 -1.000000 0.000000
vn 0.000000 -1.000000 0.000000
vn 0.000000 -1.000000 0.000000
vn 0.000000 1.000000 0.000000
vn 0.000000 1.000000 0.000000
vn 0.000000 1.000000 0.000000
vn 0.000000 1.000000 0.000000
vn 0.000000 1.000000 0.000000
vn 0.000000 1.000000 0.000000
vn 0.000000 1.000000 0.000000
vn 0.000000 1.000000 0.000000
vn 0.000000 1.000000 0.000000
vn 0.000000 1.000000 0.000000
vn 0.000000 1.000000 0.000000
vn 0.000000 1.000000 0.000000
vn 0.000000 1.000000 0.000000
vn 0.000000 1.000000 0.000000
vn 0.000000 1.000000 0.000000
vn 0.000000 1.000000 0.000000
vn 0.648813 0.353114 0.674057
vn 0.648813 0.353114 0.674057
vn 0.648813 0.353114 0.674057
vn 0.648813 0.353114 0.674057
vn 0.648854 0.353182 -0.673981
vn 0.648854 0.353183 -0.673981
vn 0.648854 0.353182 -0.673981
vn 0.648854 0.353183 -0.673981
vn -0.673574 0.416229 0.610779
vn -0.673574 0.416229 0.610779
vn -0.673574 0.416229 0.610779
vn -0.673574 0.416229 0.610779
vn 0.696526 0.380866 -0.608106
vn 0.696526 0.380866 -0.608106
vn 0.696526 0.380866 -0.608106
vn 0.696526 0.380866 -0.608106
vn -0.717013 0.697060 -0.000022
vn -0.717013 0.697060 -0.000022
vn -0.717013 0.697060 -0.000022
vn -0.717013 0.697060 -0.000022
vn 0.894056 0.447955 0.000000
vn 0.894056 0.447955 0.000000
vn 0.894056 0.447955 0.000000
vn 0.894056 0.447955 0.000000
vn -0.067737 0.673497 -0.736080
vn -0.067737 0.673497 -0.736080
vn -0.067737 0.673497 -0.736080
vn -0.067737 0.673497 -0.736080
vn -0.067639 0.674559 0.735116
vn -0.067639 0.674559 0.735116
vn -0.067639 0.674559 0.735116
vn -0.067639 0.674559 0.735116
vn -0.673902 0.415524 -0.610898
vn -0.673902 0.415524 -0.610898
vn -0.673902 0.415524 -0.610898
vn -0.673902 0.415524 -0.610898
vn 0.696522 0.380875 0.608105
vn 0.696522 0.380875 0.608105
vn 0.696522 0.380875 0.608105
vn 0.696522 0.380875 0.608105
vn -1.000000 0.000000 0.000000
vn -1.000000 0.000000 0.000000
vn -1.000000 0.000000 0.000000
vn -1.000000 0.000000 0.000000
vn 0.000000 0.000000 1.000000
vn 0.000000 0.000000 1.000000
vn 0.000000 0.000000 1.000000
vn 0.000000 0.000000 1.000000
vn 1.000000 0.000000 0.000000
vn 1.000000 0.000000 0.000000
vn 1.000000 0.000000 0.000000
vn 1.000000 0.000000 0.000000
vn 0.000000 0.000000 -1.000000
vn 0.000000 0.000000 -1.000000
vn 0.000000 0.000000 -1.000000
vn 0.000000 0.000000 -1.000000
vn -0.965798 -0.259297 0.000000
vn -0.965798 -0.259297 0.000000
vn -0.965798 -0.259297 0.000000
vn -0.965798 -0.259297 0.000000
vn 0.013119 -0.860731 0.508891
vn 0.013119 -0.860731 0.508891
vn 0.013119 -0.860731 0.508891
vn 0.013119 -0.860731 0.508891
vn 0.501001 -0.865447 0.000000
vn 0.501001 -0.865447 0.000000
vn 0.501001 -0.865447 0.000000
vn 0.501001 -0.865447 0.000000
vn 0.013119 -0.860731 -0.508891
vn 0.013119 -0.860731 -0.508891
vn 0.013119 -0.860731 -0.508891
vn 0.013119 -0.860731 -0.508891
vn -0.005847 -0.999199 -0.039577
vn -0.005847 -0.999199 -0.039577
vn -0.005847 -0.999199 -0.039577
vn -0.005847 -0.999199 -0.039577
vn -0.098133 -0.995173 0.000008
vn -0.098133 -0.995173 0.000008
vn -0.098133 -0.995173 0.000008
vn -0.098133 -0.995173 0.000008
vn -0.005850 -0.999198 0.039622
vn -0.005850 -0.999198 0.039622
vn -0.005850 -0.999198 0.039622
vn -0.005850 -0.999198 0.039622
vn 0.000000 -1.000000 0.000000
vn 0.000000 -1.000000 0.000000
vn 0.000000 -1.000000 0.000000
vn 0.000000 -1.000000 0.000000
vn -0.000170 -1.000000 0.000126
vn -0.000170 -1.000000 0.000126
vn -0.000170 -1.000000 0.000126
vn -0.000170 -1.000000 0.000126
vn -0.000170 -1.000000 0.000126
vn -0.000141 -1.000000 -0.000105
vn -0.000141 -1.000000 -0.000105
vn -0.000141 -1.000000 -0.000105
vn -0.000141 -1.000000 -0.000105
vn -0.000141 -1.000000 -0.000105
s off
f 36/1/1 9/2/2 10/3/3 18/4/4
f 17/5/5 68/6/6 65/7/7 11/8/8
f 2/9/9 8/10/10 57/11/11 6/12/12 4/13/13
f 7/14/14 1/15/15 27/16/16 3/17/17 5/18/18
f 43/19/19 62/20/20 61/21/21 10/3/22 9/2/23 37/22/24 41/23/25
f 67/24/26 14/25/27 15/26/28 66/27/29
f 13/28/30 19/29/31 59/30/32 60/31/33
f 63/32/34 20/33/35 15/26/36 14/25/37
f 31/34/38 12/35/39 39/36/40 40/37/41 29/38/42
f 35/39/43 17/5/44 7/40/45 5/41/46 32/42/47
f 40/37/48 34/43/49 30/44/50 29/38/51
f 4/13/52 6/45/53 58/46/54 55/47/55 54/48/56
f 6/45/57 57/49/58 58/46/59
f 56/50/60 16/51/61 2/9/62
f 38/52/63 39/36/64 12/35/65 22/53/66 23/54/67
f 12/35/68 16/51/69 24/55/70 22/53/71
f 16/51/72 13/28/73 25/56/74 24/55/75
f 25/56/76 44/57/77 23/54/78
f 27/16/79 26/58/80 3/17/81
f 28/59/82 31/34/83 30/44/84
f 30/44/85 31/34/86 29/38/87
f 32/42/88 34/43/89 35/39/90
f 35/39/91 34/43/92 33/60/93
f 38/52/94 37/22/95 9/2/96
f 9/2/97 39/36/98 38/52/99
f 40/37/100 39/36/101 36/1/102
f 41/23/103 44/57/104 43/19/105
f 43/19/106 44/57/107 42/61/108
f 48/62/109 47/63/110 45/64/111
f 46/65/112 47/63/113 48/62/114
f 50/66/115 52/67/116 51/68/117
f 51/68/118 52/67/119 49/69/120
f 56/50/121 55/47/122 53/70/123
f 54/48/124 55/47/125 56/50/126
f 52/67/127 8/71/128 20/33/129
f 60/31/130 59/30/131 63/32/132
f 61/21/133 62/20/134 14/25/135
f 14/25/136 62/20/137 60/31/138 63/32/139
f 19/29/140 20/33/141 63/32/142 59/30/143
f 52/67/144 20/33/145 19/29/146 49/69/147
f 58/46/148 57/49/149 8/71/150 52/67/151 50/66/152
f 55/47/153 51/68/154 47/63/155 46/65/156 53/70/157
f 55/47/158 58/46/159 50/66/160 51/68/161
f 47/63/162 19/29/163 13/28/164 45/64/165
f 47/63/166 51/68/167 49/69/168 19/29/169
f 56/50/170 2/9/171 4/13/172 54/48/173
f 13/28/174 16/51/175 48/62/176 45/64/177
f 48/62/178 16/51/179 56/50/180 53/70/181 46/65/182
f 25/56/183 13/28/184 21/72/185 42/61/186 44/57/187
f 23/54/188 44/57/189 41/23/190 37/22/191 38/52/192
f 40/37/193 36/1/194 18/4/195 33/60/196 34/43/197
f 30/44/198 5/41/199 3/17/200 26/58/201 28/59/202
f 30/44/203 34/43/204 32/42/205 5/41/206
f 1/15/207 12/35/208 31/34/209 28/59/210 26/58/211 27/16/212
f 18/4/213 17/5/214 35/39/215 33/60/216
f 13/28/217 60/31/218 62/20/219 43/19/220 42/61/221 21/72/222
f 36/1/223 39/36/224 9/2/225
f 64/73/226 67/24/227 68/6/228
f 68/6/229 66/27/230 65/7/231
f 68/6/232 67/24/233 66/27/234
f 66/27/235 15/26/236 11/8/237 65/7/238
f 61/21/239 14/25/240 67/24/241 64/73/242 10/3/243
f 10/3/244 64/73/245 68/6/246 17/5/247 18/4/248
f 78/74/249 77/75/250 79/76/251 80/77/252
f 23/54/253 22/53/254 69/78/255 70/79/256
f 22/53/257 24/55/258 71/80/259 69/78/260
f 24/55/261 25/56/262 72/81/263 71/80/264
f 25/56/265 23/54/266 70/79/267 72/81/268
f 70/79/269 69/78/270 73/82/271 74/83/272
f 69/78/273 71/80/274 75/122/275 73/82/276
f 71/80/277 72/81/278 76/85/279 75/122/280
f 72/81/281 70/79/282 74/83/283 76/85/284
f 74/83/285 73/82/286 77/75/287 78/74/288
f 75/122/289 76/85/290 80/77/291 79/76/292
f 76/85/293 74/83/294 78/74/295 80/77/296
f 73/82/297 75/122/298 82/123/299 81/87/300
f 75/84/301 79/86/302 83/110/303 82/111/304
f 79/76/305 77/75/306 84/89/307 83/88/308
f 77/75/309 73/82/310 81/87/311 84/89/312
f 1/90/313 7/91/314 85/92/315 86/93/316
f 8/94/317 2/95/318 88/96/319 87/97/320
f 7/91/321 17/98/322 89/99/323 85/92/324
f 12/100/325 1/90/326 86/93/327 90/101/328
f 11/102/329 15/103/330 92/104/331 91/105/332
f 90/101/333 93/107/334 16/106/335 12/100/336
f 15/103/337 20/108/338 94/109/339 92/104/340
f 17/98/341 11/102/342 91/105/343 89/99/344
f 20/108/345 8/94/346 87/97/347 94/109/348
f 2/95/349 16/106/350 93/107/351 88/96/352
f 81/112/353 82/111/354 96/113/355 95/114/356
f 82/111/357 83/110/358 97/115/359 96/113/360
f 83/110/361 84/116/362 98/117/363 97/115/364
f 84/116/365 81/112/366 95/114/367 98/117/368
f 95/114/369 96/113/370 100/118/371 99/119/372
f 96/113/373 97/115/374 101/120/375 100/118/376
f 97/115/377 98/117/378 102/121/379 101/120/380
f 98/117/381 95/114/382 99/119/383 102/121/384
f 100/124/385 101/125/386 92/126/387 94/127/388
f 101/125/389 102/128/390 91/129/391 92/126/392
f 102/128/393 99/130/394 89/131/395 91/129/396
f 99/130/397 100/124/398 93/132/399 90/133/400
f 89/131/401 99/130/402 90/133/403 86/136/404 85/137/405
f 94/127/406 87/135/407 88/134/408 93/132/409 100/124/410
