# This file uses centimeters as units for non-parametric coordinates.

v -4.335007 -6.613422 3.677626
v -6.093338 5.164814 4.959685
v -4.997696 -5.680119 7.180091
v -6.358536 4.920063 8.350132
v 3.861801 -5.614811 7.406901
v 4.843826 5.080494 8.737498
v 3.872513 -6.493626 3.794681
v 5.375229 5.365475 5.360866
v -6.555405 3.339367 4.496154
v 5.686447 3.703754 5.113235
v 5.338608 3.362614 8.484813
v -6.422653 3.029003 7.886099
v -5.686569 -3.391705 3.021994
v 5.303391 -3.041241 3.597881
v 5.015701 -3.125317 6.825397
v -5.572617 -3.425671 6.286392
v -6.518387 -0.254055 4.528802
v -6.318100 -0.503819 8.085903
v 5.443161 -0.170216 8.684607
v 5.859360 0.108067 5.157838
v 1.780014 -7.303921 5.026956
v 2.028702 -2.890705 5.234470
v 2.183121 0.155964 6.558947
v 2.034470 3.979870 6.326695
v 2.283188 6.569057 6.421943
v 1.919205 6.247021 9.879047
v 1.479385 3.760380 10.727493
v 1.583969 0.227551 10.927275
v 1.527115 -2.532612 9.033414
v 1.656509 -6.354763 8.798176
v -2.169998 -6.463306 8.603386
v -2.299423 -2.641178 8.838612
v -2.666489 0.106968 10.710896
v -2.771042 3.639820 10.511114
v -3.429398 6.126461 9.662680
v -3.505844 6.428196 6.193223
v -3.016037 3.833530 6.070449
v -2.943344 0.010555 6.297961
v -2.521011 -3.031872 5.010452
v -2.025284 -7.444218 4.816155
v -4.754929 -5.787045 6.500656
v -5.655746 -3.252003 5.614136
v -6.404129 -0.506092 7.335258
v -6.506363 2.910610 7.172635
v -6.241898 4.835339 7.636916
v -3.445999 6.056995 8.955804
v 2.005295 6.179874 9.176321
v 4.990738 4.997074 8.028606
v 5.480698 3.250637 7.782840
v 5.582932 -0.166050 7.945460
v 5.135849 -2.945881 6.163483
v 3.830032 -5.736843 6.678180
v 1.658463 -6.507603 8.049719
v -2.108383 -6.614445 7.857965
v -5.277145 -7.180126 5.305398
v -6.679062 -3.829517 4.323019
v -7.566147 -0.625950 6.279039
v -7.684982 3.461887 6.104390
v -7.223221 5.867374 6.545140
v -4.009384 7.403164 8.141133
v 2.522812 7.555035 8.404917
v 6.117355 6.082920 7.073778
v 6.678879 3.882076 6.834343
v 6.797745 -0.205776 7.008991
v 6.252365 -3.451275 4.980189
v 4.571243 -7.115719 5.525855
v 2.041641 -8.134808 7.112169
v -2.359238 -8.263531 6.888513
v 3.973648 -2.947361 7.762211
v 2.457047 -2.690891 8.715742
v 2.621140 -0.677952 9.763016
v 4.297409 -0.852261 8.793099
v 2.379013 -5.163197 8.397716
v 3.329422 -4.841908 7.781163
v -4.263565 -4.984684 7.635638
v -4.616226 -3.201084 7.294522
v -3.245926 -2.856709 8.497287
v -2.937485 -5.334141 8.066207
v -3.557053 -0.853199 9.448514
v -5.143356 -1.120029 8.312498
v 3.561722 -2.795589 7.444131
v 2.384384 -2.596684 8.178354
v 2.576920 -0.737926 9.064649
v 3.876236 -0.873585 8.314854
v 2.263351 -4.811771 7.865974
v 2.994034 -4.561794 7.377799
v -3.907059 -4.745975 7.226153
v -4.209213 -3.047108 6.997463
v -3.164871 -2.784428 7.963578
v -2.851456 -5.013371 7.502279
v -3.445938 -0.914440 8.759171
v -4.680954 -1.126011 7.890302
vt 0.285612 0.341657
vt 0.285612 0.341657
vt 0.285612 0.341657
vt 0.285612 0.341657
vt 0.285612 0.341657
vt 0.285612 0.341657
vt 0.285612 0.341657
vt 0.285612 0.341657
vt 0.285612 0.341657
vt 0.285612 0.341657
vt 0.285612 0.341657
vt 0.285612 0.341657
vt 0.079485 0.249582
vt 0.079485 0.249582
vt 0.079485 0.249582
vt 0.079485 0.249582
vt 0.285612 0.341657
vt 0.285612 0.341657
vt 0.285612 0.341657
vt 0.285612 0.341657
vt 0.285612 0.341657
vt 0.285612 0.341657
vt 0.285612 0.341657
vt 0.285612 0.341657
vt 0.079485 0.249582
vt 0.079485 0.249582
vt 0.079485 0.249582
vt 0.079485 0.249582
vt 0.285612 0.341657
vt 0.285612 0.341657
vt 0.285612 0.341657
vt 0.285612 0.341657
vt 0.285612 0.341657
vt 0.285612 0.341657
vt 0.285612 0.341657
vt 0.285612 0.341657
vt 0.285612 0.341657
vt 0.285612 0.341657
vt 0.285612 0.341657
vt 0.285612 0.341657
vt 0.079485 0.249582
vt 0.079485 0.249582
vt 0.285612 0.341657
vt 0.285612 0.341657
vt 0.285612 0.341657
vt 0.285612 0.341657
vt 0.285612 0.341657
vt 0.285612 0.341657
vt 0.079485 0.249582
vt 0.079485 0.249582
vt 0.079485 0.249582
vt 0.079485 0.249582
vt 0.079485 0.249582
vt 0.285612 0.341657
vt 0.285612 0.341657
vt 0.285612 0.341657
vt 0.285612 0.341657
vt 0.079485 0.249582
vt 0.079485 0.249582
vt 0.079485 0.249582
vt 0.079485 0.249582
vt 0.079485 0.249582
vt 0.079485 0.249582
vt 0.079485 0.249582
vt 0.079485 0.249582
vt 0.079485 0.249582
vt 0.079485 0.249582
vt 0.079485 0.249582
vt 0.079485 0.249582
vt 0.079485 0.249582
vt 0.079485 0.249582
vt 0.079485 0.249582
vt 0.079485 0.249582
vt 0.079485 0.249582
vt 0.079485 0.249582
vt 0.079485 0.249582
vt 0.079485 0.249582
vt 0.079485 0.249582
vt 0.079485 0.249582
vt 0.079485 0.249582
vt 0.079485 0.249582
vt 0.079485 0.249582
vt 0.079485 0.249582
vt 0.079485 0.249582
vt 0.079485 0.249582
vt 0.079485 0.249582
vt 0.079485 0.249582
vt 0.079485 0.249582
vt 0.079485 0.249582
vt 0.079485 0.249582
vt 0.285612 0.341657
vt 0.285612 0.341657
vt 0.285612 0.341657
vt 0.285612 0.341657
vt 0.285612 0.341657
vt 0.285612 0.341657
vt 0.285612 0.341657
vt 0.285612 0.341657
vt 0.285612 0.341657
vt 0.285612 0.341657
vt 0.285612 0.341657
vt 0.285612 0.341657
vt 0.285612 0.341657
vt 0.285612 0.341657
vt 0.285612 0.341657
vt 0.285612 0.341657
vt 0.285612 0.341657
vt 0.285612 0.341657
vt 0.285612 0.341657
vt 0.285612 0.341657
vt 0.285612 0.341657
vt 0.285612 0.341657
vt 0.285612 0.341657
vt 0.285612 0.341657
vt 0.080682 0.254942
vt 0.080682 0.254942
vt 0.080682 0.254942
vt 0.080682 0.254942
vt 0.080682 0.254942
vt 0.080682 0.254942
vt 0.080682 0.254942
vt 0.080682 0.254942
vt 0.080682 0.254942
vt 0.080682 0.254942
vt 0.080682 0.254942
vt 0.080682 0.254942
vn -0.994856 0.094529 -0.036420
vn -0.994856 0.094529 -0.036420
vn -0.994856 0.094529 -0.036420
vn -0.994856 0.094529 -0.036420
vn -0.050694 0.320509 0.945888
vn -0.050694 0.320509 0.945888
vn -0.050694 0.320509 0.945888
vn -0.050694 0.320509 0.945888
vn 0.955164 0.248304 0.161265
vn 0.955164 0.248304 0.161265
vn 0.955164 0.248304 0.161265
vn 0.955164 0.248305 0.161265
vn 0.043489 0.044000 -0.998085
vn 0.043489 0.044000 -0.998085
vn 0.043489 0.044000 -0.998085
vn 0.043489 0.044000 -0.998085
vn -0.018492 0.995079 -0.097350
vn -0.018492 0.995078 -0.097350
vn -0.018492 0.995079 -0.097350
vn -0.018492 0.995079 -0.097350
vn 0.017602 -0.979620 0.200085
vn 0.017602 -0.979621 0.200085
vn 0.017602 -0.979620 0.200085
vn 0.017602 -0.979621 0.200085
vn 0.034303 0.395264 -0.917927
vn 0.034303 0.395264 -0.917927
vn 0.034303 0.395264 -0.917927
vn 0.034303 0.395264 -0.917927
vn 0.959760 -0.239478 0.146669
vn 0.959760 -0.239478 0.146669
vn 0.959760 -0.239478 0.146669
vn 0.959760 -0.239478 0.146669
vn 0.031729 -0.563190 0.825718
vn -0.080923 -0.564753 0.821283
vn -0.110360 -0.330433 0.937355
vn 0.035769 -0.327799 0.944070
vn -0.951249 -0.298626 0.077117
vn -0.951250 -0.298626 0.077117
vn -0.951249 -0.298626 0.077117
vn -0.951249 -0.298626 0.077117
vn 0.050342 0.046830 -0.997634
vn 0.050342 0.046830 -0.997634
vn 0.050342 0.046830 -0.997634
vn 0.050342 0.046830 -0.997634
vn 0.908932 -0.414959 0.040635
vn 0.908932 -0.414959 0.040635
vn 0.908932 -0.414959 0.040635
vn 0.908932 -0.414959 0.040635
vn -0.110360 -0.330433 0.937355
vn -0.104379 -0.063911 0.992482
vn 0.015344 -0.063935 0.997836
vn 0.035769 -0.327799 0.944070
vn -0.933708 -0.334827 -0.126807
vn -0.933708 -0.334827 -0.126807
vn -0.933708 -0.334827 -0.126807
vn -0.933708 -0.334827 -0.126807
vn -0.992851 -0.023439 0.117036
vn -0.992851 -0.023439 0.117036
vn -0.992851 -0.023439 0.117036
vn -0.992851 -0.023439 0.117036
vn -0.052317 0.054839 0.997124
vn -0.052317 0.054839 0.997124
vn -0.052317 0.054839 0.997124
vn -0.052317 0.054839 0.997124
vn 0.981203 0.039052 0.188987
vn 0.981203 0.039052 0.188987
vn 0.981203 0.039052 0.188987
vn 0.981203 0.039052 0.188987
vn 0.052342 -0.058424 -0.996919
vn 0.052342 -0.058424 -0.996919
vn 0.052342 -0.058424 -0.996919
vn 0.052342 -0.058424 -0.996919
vn -0.478732 0.103413 -0.871850
vn -0.478732 0.103413 -0.871849
vn -0.478732 0.103413 -0.871849
vn -0.478732 0.103413 -0.871850
vn -0.351648 0.427921 -0.832603
vn -0.351648 0.427921 -0.832603
vn -0.351648 0.427921 -0.832603
vn -0.351648 0.427921 -0.832603
vn -0.337568 -0.049705 -0.939988
vn -0.337568 -0.049705 -0.939988
vn -0.337568 -0.049705 -0.939988
vn -0.337568 -0.049705 -0.939988
vn -0.304502 0.072132 -0.949776
vn -0.304502 0.072132 -0.949776
vn -0.304502 0.072132 -0.949776
vn -0.304502 0.072132 -0.949776
vn 0.355350 0.933836 -0.040948
vn 0.355350 0.933836 -0.040948
vn 0.355350 0.933836 -0.040948
vn 0.355350 0.933836 -0.040948
vn 0.466464 0.130070 0.874925
vn 0.466464 0.130070 0.874925
vn 0.466464 0.130070 0.874925
vn 0.466464 0.130070 0.874925
vn 0.506321 0.063621 0.859995
vn 0.506321 0.063621 0.859995
vn 0.506321 0.063621 0.859995
vn 0.506321 0.063621 0.859995
vn 0.421269 -0.428072 0.799554
vn 0.421269 -0.428072 0.799554
vn 0.421269 -0.428072 0.799554
vn 0.421269 -0.428072 0.799554
vn 0.534729 -0.171216 0.827497
vn 0.534729 -0.171216 0.827497
vn 0.534729 -0.171216 0.827496
vn 0.534729 -0.171216 0.827496
vn 0.410226 -0.898047 0.158830
vn 0.410226 -0.898047 0.158830
vn 0.410226 -0.898047 0.158830
vn 0.410226 -0.898047 0.158830
vn -0.505059 -0.129686 0.853286
vn -0.505059 -0.129686 0.853286
vn -0.505059 -0.129686 0.853286
vn -0.505059 -0.129686 0.853286
vn -0.509086 -0.432513 0.744153
vn -0.509086 -0.432513 0.744153
vn -0.509086 -0.432513 0.744153
vn -0.509086 -0.432513 0.744153
vn -0.586589 0.028414 0.809386
vn -0.586589 0.028414 0.809386
vn -0.586589 0.028414 0.809386
vn -0.586589 0.028414 0.809386
vn -0.514551 0.005445 0.857442
vn -0.514551 0.005445 0.857442
vn -0.514551 0.005445 0.857442
vn -0.514551 0.005445 0.857442
vn -0.338097 0.932761 -0.125091
vn -0.338097 0.932761 -0.125091
vn -0.338097 0.932761 -0.125091
vn -0.338097 0.932761 -0.125091
vn 0.383847 0.123787 -0.915062
vn 0.383847 0.123787 -0.915062
vn 0.383847 0.123787 -0.915062
vn 0.383847 0.123787 -0.915062
vn 0.427407 -0.025379 -0.903703
vn 0.427407 -0.025379 -0.903703
vn 0.427407 -0.025379 -0.903703
vn 0.427407 -0.025379 -0.903703
vn 0.404660 0.443671 -0.799629
vn 0.404660 0.443671 -0.799629
vn 0.404660 0.443671 -0.799629
vn 0.404660 0.443671 -0.799629
vn 0.499205 0.068599 -0.863764
vn 0.499205 0.068599 -0.863764
vn 0.499205 0.068599 -0.863764
vn 0.499205 0.068599 -0.863764
vn -0.327350 -0.939571 0.100242
vn -0.327350 -0.939571 0.100242
vn -0.327350 -0.939571 0.100242
vn -0.327350 -0.939571 0.100242
vn -0.796047 -0.123297 0.592543
vn -0.796047 -0.123297 0.592543
vn -0.796047 -0.123297 0.592543
vn -0.796047 -0.123297 0.592543
vn -0.525337 -0.547163 0.651639
vn -0.525337 -0.547163 0.651639
vn -0.525337 -0.547163 0.651639
vn -0.525337 -0.547163 0.651639
vn -0.670651 0.013575 0.741649
vn -0.670651 0.013575 0.741649
vn -0.670651 0.013575 0.741649
vn -0.670651 0.013575 0.741649
vn -0.716222 -0.025641 0.697401
vn -0.716222 -0.025641 0.697401
vn -0.716222 -0.025641 0.697401
vn -0.716222 -0.025641 0.697401
vn -0.523997 0.298971 0.797524
vn -0.523997 0.298971 0.797523
vn -0.523997 0.298971 0.797524
vn -0.523997 0.298971 0.797523
vn -0.046412 0.502420 0.863377
vn -0.046412 0.502420 0.863377
vn -0.046412 0.502420 0.863377
vn -0.046412 0.502420 0.863377
vn 0.439895 0.299880 0.846501
vn 0.439895 0.299880 0.846501
vn 0.439895 0.299880 0.846501
vn 0.439895 0.299881 0.846501
vn 0.603857 0.063185 0.794585
vn 0.603857 0.063185 0.794585
vn 0.603857 0.063185 0.794585
vn 0.603857 0.063185 0.794585
vn 0.606541 0.053520 0.793249
vn 0.606541 0.053520 0.793249
vn 0.606541 0.053520 0.793249
vn 0.606541 0.053520 0.793249
vn 0.505329 -0.519175 0.689275
vn 0.505329 -0.519175 0.689275
vn 0.505329 -0.519175 0.689275
vn 0.505329 -0.519175 0.689275
vn 0.681860 -0.199921 0.703632
vn 0.681860 -0.199921 0.703632
vn 0.681860 -0.199921 0.703632
vn 0.681860 -0.199921 0.703632
vn 0.587409 -0.302216 0.750744
vn 0.587409 -0.302216 0.750744
vn 0.587409 -0.302216 0.750743
vn 0.587409 -0.302216 0.750744
vn -0.029383 -0.503719 0.863368
vn -0.029383 -0.503719 0.863368
vn -0.029383 -0.503719 0.863368
vn -0.029383 -0.503719 0.863368
vn -0.531678 -0.397176 0.748044
vn -0.531678 -0.397176 0.748044
vn -0.531678 -0.397176 0.748044
vn -0.531678 -0.397176 0.748044
vn -0.677194 -0.432136 -0.595539
vn -0.677194 -0.432136 -0.595539
vn -0.677194 -0.432136 -0.595539
vn -0.677194 -0.432136 -0.595539
vn -0.837657 0.068828 -0.541842
vn -0.837657 0.068828 -0.541842
vn -0.837657 0.068828 -0.541842
vn -0.837657 0.068828 -0.541842
vn -0.837592 -0.031713 -0.545375
vn -0.837592 -0.031713 -0.545375
vn -0.837592 -0.031713 -0.545375
vn -0.837592 -0.031713 -0.545375
vn -0.743967 0.291009 -0.601520
vn -0.743967 0.291009 -0.601520
vn -0.743967 0.291009 -0.601520
vn -0.743967 0.291009 -0.601520
vn -0.175193 0.855550 -0.487177
vn -0.175193 0.855550 -0.487177
vn -0.175193 0.855550 -0.487177
vn -0.175193 0.855550 -0.487177
vn -0.003407 0.894740 -0.446575
vn -0.003407 0.894740 -0.446575
vn -0.003407 0.894740 -0.446575
vn -0.003407 0.894740 -0.446575
vn 0.187396 0.872223 -0.451784
vn 0.187396 0.872223 -0.451784
vn 0.187396 0.872223 -0.451784
vn 0.187396 0.872223 -0.451784
vn 0.836284 0.250462 -0.487748
vn 0.836284 0.250462 -0.487748
vn 0.836284 0.250462 -0.487748
vn 0.836284 0.250462 -0.487748
vn 0.879862 0.019863 -0.474814
vn 0.879862 0.019863 -0.474814
vn 0.879862 0.019863 -0.474814
vn 0.879862 0.019863 -0.474814
vn 0.868864 0.119908 -0.480309
vn 0.868864 0.119908 -0.480309
vn 0.868865 0.119908 -0.480309
vn 0.868865 0.119908 -0.480309
vn 0.756386 -0.385852 -0.528203
vn 0.756386 -0.385852 -0.528203
vn 0.756386 -0.385852 -0.528203
vn 0.756386 -0.385852 -0.528203
vn 0.129847 -0.915343 -0.381165
vn 0.129847 -0.915343 -0.381165
vn 0.129847 -0.915343 -0.381165
vn 0.129847 -0.915343 -0.381165
vn 0.049909 -0.928601 -0.367708
vn 0.049909 -0.928601 -0.367708
vn 0.049909 -0.928601 -0.367708
vn 0.049909 -0.928601 -0.367708
vn -0.132380 -0.912353 -0.387410
vn -0.132380 -0.912353 -0.387410
vn -0.132380 -0.912353 -0.387410
vn -0.132380 -0.912353 -0.387410
vn 0.035769 -0.327799 0.944070
vn 0.398204 -0.274341 0.875312
vn 0.356968 -0.518790 0.776809
vn 0.031729 -0.563190 0.825718
vn 0.031729 -0.563190 0.825718
vn 0.356968 -0.518790 0.776809
vn 0.427144 -0.509638 0.746872
vn 0.436160 -0.505287 0.744614
vn 0.436160 -0.505287 0.744614
vn 0.427144 -0.509638 0.746872
vn 0.523284 -0.352504 0.775832
vn 0.527533 -0.340686 0.778230
vn 0.015344 -0.063935 0.997836
vn 0.478929 -0.062720 0.875610
vn 0.398204 -0.274341 0.875312
vn 0.035769 -0.327799 0.944070
vn 0.527533 -0.340686 0.778230
vn 0.523284 -0.352504 0.775832
vn 0.571890 -0.097136 0.814559
vn 0.571380 -0.095982 0.815054
vn 0.571380 -0.095982 0.815054
vn 0.571890 -0.097136 0.814559
vn 0.478929 -0.062720 0.875610
vn 0.015344 -0.063935 0.997836
vn -0.583194 0.057596 0.810288
vn -0.554222 0.053762 0.830631
vn -0.674419 0.069849 0.735037
vn -0.674419 0.069849 0.735037
vn -0.110360 -0.330433 0.937355
vn -0.447346 -0.304892 0.840787
vn -0.464139 -0.060908 0.883666
vn -0.104379 -0.063911 0.992482
vn -0.104379 -0.063911 0.992482
vn -0.464139 -0.060908 0.883666
vn -0.554222 0.053762 0.830631
vn -0.583194 0.057596 0.810288
vn -0.080923 -0.564753 0.821283
vn -0.390641 -0.533409 0.750250
vn -0.447346 -0.304892 0.840787
vn -0.110360 -0.330433 0.937355
vn -0.498047 -0.518237 0.695255
vn -0.498047 -0.518237 0.695255
vn -0.463369 -0.533589 0.707511
vn -0.472091 -0.529838 0.704558
vn -0.472091 -0.529838 0.704558
vn -0.463369 -0.533589 0.707511
vn -0.390641 -0.533409 0.750250
vn -0.080923 -0.564753 0.821283
vn 0.990106 -0.031165 -0.136814
vn 0.989164 -0.028947 -0.143935
vn 0.994477 -0.044019 -0.095281
vn 0.994477 -0.044019 -0.095281
vn -0.052005 -0.994647 0.089296
vn -0.052005 -0.994647 0.089296
vn -0.052005 -0.994647 0.089296
vn -0.052005 -0.994647 0.089296
vn -0.692120 -0.216041 0.688692
vn -0.692120 -0.216041 0.688692
vn -0.673113 -0.020175 0.739264
vn -0.674991 -0.031657 0.737146
vn 0.983417 -0.017487 -0.180515
vn 0.983417 -0.017487 -0.180515
vn 0.989164 -0.028947 -0.143935
vn 0.990106 -0.031165 -0.136814
vn -0.674991 -0.031657 0.737146
vn -0.673113 -0.020175 0.739264
vn -0.620306 0.195525 0.759599
vn -0.620306 0.195525 0.759599
vn 0.066447 0.841450 0.536233
vn 0.066447 0.841450 0.536233
vn 0.066447 0.841451 0.536233
vn 0.066447 0.841450 0.536233
vn 0.591237 0.237291 0.770799
vn 0.591237 0.237291 0.770799
vn 0.637049 -0.011962 0.770730
vn 0.635809 -0.000225 0.771846
vn -0.981797 -0.087299 -0.168684
vn -0.981086 -0.088970 -0.171913
vn -0.978577 -0.094630 -0.182846
vn -0.978577 -0.094630 -0.182846
vn 0.066386 0.851749 0.519728
vn 0.066386 0.851749 0.519728
vn 0.066386 0.851749 0.519728
vn 0.066386 0.851749 0.519728
vn -0.984568 -0.080434 -0.155424
vn -0.984568 -0.080434 -0.155424
vn -0.981086 -0.088970 -0.171913
vn -0.981797 -0.087299 -0.168684
vn 0.635809 -0.000225 0.771846
vn 0.637049 -0.011962 0.770730
vn 0.644760 -0.192294 0.739802
vn 0.644760 -0.192294 0.739802
vn 0.091702 -0.990001 0.107185
vn 0.091702 -0.990001 0.107185
vn 0.091702 -0.990001 0.107185
vn 0.091702 -0.990001 0.107185
s off
f 12/1/1 4/4/2 45/3/3 44/2/4
f 26/5/5 35/8/6 34/7/7 27/6/8
f 48/9/9 6/12/10 11/11/11 49/10/12
f 24/13/13 37/16/14 36/15/15 25/14/16
f 46/17/17 35/20/18 26/19/19 47/18/20
f 30/21/21 31/24/22 54/23/23 53/22/24
f 22/25/25 39/28/26 38/27/27 23/26/28
f 50/29/29 19/32/30 15/31/31 51/30/32
f 28/33/33 33/36/34 32/35/35 29/34/36
f 16/37/37 18/40/38 43/39/39 42/38/40
f 40/41/41 39/28/42 22/25/43 21/42/44
f 5/43/45 52/44/46 51/30/47 15/31/48
f 32/35/49 31/46/50 30/45/51 29/34/52
f 41/47/53 3/48/54 16/37/55 42/38/56
f 18/40/57 12/1/58 44/2/59 43/39/60
f 34/7/61 33/36/62 28/33/63 27/6/64
f 49/10/65 11/11/66 19/32/67 50/29/68
f 38/27/69 37/16/70 24/13/71 23/26/72
f 7/49/73 21/42/74 22/25/75 14/50/76
f 23/26/77 20/51/78 14/50/79 22/25/80
f 24/13/81 10/52/82 20/51/83 23/26/84
f 25/14/85 8/53/86 10/52/87 24/13/88
f 26/19/89 6/55/90 48/54/91 47/18/92
f 11/11/93 6/12/94 26/5/95 27/6/96
f 19/32/97 11/11/98 27/6/99 28/33/100
f 81/115/101 84/118/102 83/117/103 82/116/104
f 85/119/105 86/120/106 81/115/107 82/116/108
f 52/56/109 5/57/110 30/21/111 53/22/112
f 87/121/113 90/124/114 89/123/115 88/122/116
f 91/125/117 92/126/118 88/122/119 89/123/120
f 34/7/121 12/1/122 18/40/123 33/36/124
f 35/8/125 4/4/126 12/1/127 34/7/128
f 45/3/129 4/4/130 35/20/131 46/17/132
f 9/58/133 2/59/134 36/15/135 37/16/136
f 17/60/137 9/58/138 37/16/139 38/27/140
f 13/61/141 17/60/142 38/27/143 39/28/144
f 40/41/145 1/62/146 13/61/147 39/28/148
f 31/24/149 3/48/150 41/47/151 54/23/152
f 55/63/153 41/66/154 42/65/155 56/64/156
f 43/67/157 57/68/158 56/64/159 42/65/160
f 44/69/161 58/70/162 57/68/163 43/67/164
f 45/71/165 59/72/166 58/70/167 44/69/168
f 59/72/169 45/71/170 46/74/171 60/73/172
f 60/73/173 46/74/174 47/76/175 61/75/176
f 48/77/177 62/78/178 61/75/179 47/76/180
f 62/78/181 48/77/182 49/80/183 63/79/184
f 63/79/185 49/80/186 50/82/187 64/81/188
f 64/81/189 50/82/190 51/84/191 65/83/192
f 52/85/193 66/86/194 65/83/195 51/84/196
f 66/86/197 52/85/198 53/88/199 67/87/200
f 54/89/201 68/90/202 67/87/203 53/88/204
f 41/66/205 55/63/206 68/90/207 54/89/208
f 1/62/209 55/63/210 56/64/211 13/61/212
f 57/68/213 17/60/214 13/61/215 56/64/216
f 58/70/217 9/58/218 17/60/219 57/68/220
f 59/72/221 2/59/222 9/58/223 58/70/224
f 2/59/225 59/72/226 60/73/227 36/15/228
f 36/15/229 60/73/230 61/75/231 25/14/232
f 62/78/233 8/53/234 25/14/235 61/75/236
f 10/52/237 8/53/238 62/78/239 63/79/240
f 20/51/241 10/52/242 63/79/243 64/81/244
f 14/50/245 20/51/246 64/81/247 65/83/248
f 66/86/249 7/49/250 14/50/251 65/83/252
f 7/49/253 66/86/254 67/87/255 21/42/256
f 68/90/257 40/41/258 21/42/259 67/87/260
f 55/63/261 1/62/262 40/41/263 68/90/264
f 29/34/265 70/91/266 71/92/267 28/33/268
f 28/33/269 71/92/270 72/93/271 19/32/272
f 19/32/273 72/93/274 69/94/275 15/31/276
f 30/45/277 73/95/278 70/91/279 29/34/280
f 15/31/281 69/94/282 74/96/283 5/43/284
f 5/43/285 74/96/286 73/95/287 30/45/288
f 3/48/289 75/97/290 76/98/291 16/37/292
f 32/35/293 77/99/294 78/100/295 31/46/296
f 31/46/297 78/100/298 75/97/299 3/48/300
f 33/36/301 79/101/302 77/99/303 32/35/304
f 16/37/305 76/98/306 80/102/307 18/40/308
f 18/40/309 80/102/310 79/101/311 33/36/312
f 70/91/313 82/103/314 83/104/315 71/92/316
f 71/92/317 83/104/318 84/105/319 72/93/320
f 72/93/321 84/105/322 81/106/323 69/94/324
f 73/95/325 85/107/326 82/103/327 70/91/328
f 69/94/329 81/106/330 86/108/331 74/96/332
f 74/96/333 86/108/334 85/107/335 73/95/336
f 75/97/337 87/109/338 88/110/339 76/98/340
f 77/99/341 89/111/342 90/112/343 78/100/344
f 78/100/345 90/112/346 87/109/347 75/97/348
f 79/101/349 91/113/350 89/111/351 77/99/352
f 76/98/353 88/110/354 92/114/355 80/102/356
f 80/102/357 92/114/358 91/113/359 79/101/360
