# This file uses centimeters as units for non-parametric coordinates.

v -4.222778 19.085754 6.176119
v 4.222778 19.085754 6.176119
v -4.118407 22.600861 6.771059
v 3.534132 22.535706 7.257249
v -3.458566 23.516479 -5.500197
v 4.305746 23.158752 -5.459500
v -4.222778 20.140045 -4.476438
v 4.222778 20.140045 -4.476438
v -2.798828 16.315750 10.702485
v 2.798828 16.315750 10.702485
v 2.536800 18.852997 12.056139
v -2.535862 18.852997 12.056141
v -3.983273 13.364288 -14.230543
v 3.551542 13.690216 -13.656285
v 4.222778 12.205902 -10.456850
v -4.222778 12.205902 -10.456850
v -2.843894 6.162766 -12.720337
v 2.844832 6.162766 -12.720337
v 3.181885 5.908890 -9.647530
v -3.181885 5.908890 -9.647530
v 0.000000 4.114899 -10.040427
v 0.000469 4.419022 -13.235576
v -0.482106 13.576447 -14.511594
v -0.886625 24.094254 -5.788945
v -0.302579 23.030319 7.924756
v 0.000469 19.153931 12.911449
v 0.000000 16.508072 11.531857
v -3.520031 22.708694 5.007002
v -3.048262 20.226273 10.281960
v 3.476081 23.298615 -2.666348
v 3.479833 21.346024 -7.301738
v -3.532482 15.624939 -12.050408
v -3.258265 11.166794 -13.380227
v 0.481630 20.456787 -12.412404
v 0.673088 26.138611 1.757015
v 0.376708 22.356491 12.591749
vt 0.050772 0.198748
vt 0.050772 0.198748
vt 0.050772 0.198748
vt 0.050772 0.198748
vt 0.050772 0.198748
vt 0.050772 0.198748
vt 0.050772 0.198748
vt 0.050772 0.198748
vt 0.050772 0.198748
vt 0.050772 0.198748
vt 0.050772 0.198748
vt 0.050772 0.198748
vt 0.050772 0.198748
vt 0.050772 0.198748
vt 0.050772 0.198748
vt 0.050772 0.198748
vt 0.050772 0.198748
vt 0.050772 0.198748
vt 0.050772 0.198748
vt 0.050772 0.198748
vt 0.050772 0.198748
vt 0.050772 0.198748
vt 0.050772 0.198748
vt 0.050772 0.198748
vt 0.050772 0.198748
vt 0.050772 0.198748
vt 0.050772 0.198748
vt 0.050772 0.198748
vt 0.050772 0.198748
vt 0.050772 0.198748
vt 0.050772 0.198748
vt 0.050772 0.198748
vt 0.050772 0.198748
vt 0.050772 0.198748
vt 0.050772 0.198748
vt 0.050772 0.198748
vt 0.050772 0.198748
vt 0.050772 0.198748
vt 0.050772 0.198748
vt 0.050772 0.198748
vt 0.050772 0.198748
vt 0.050772 0.198748
vn 0.232099 -0.444528 0.865174
vn 0.232099 -0.444528 0.865174
vn 0.232099 -0.444528 0.865173
vn 0.232099 -0.444528 0.865173
vn 0.177108 0.984186 0.003334
vn 0.177108 0.984186 0.003334
vn 0.177108 0.984186 0.003334
vn 0.515092 -0.850873 -0.103416
vn 0.515092 -0.850873 -0.103416
vn 0.515092 -0.850873 -0.103416
vn 0.515092 -0.850873 -0.103416
vn 0.957450 0.065237 0.281129
vn 0.957450 0.065237 0.281129
vn 0.957450 0.065237 0.281129
vn -0.977622 0.209789 0.015622
vn -0.977622 0.209789 0.015622
vn -0.977622 0.209789 0.015622
vn -0.977622 0.209789 0.015622
vn 0.960083 0.039856 0.276862
vn 0.960083 0.039856 0.276862
vn 0.960083 0.039856 0.276862
vn 0.960083 0.039856 0.276862
vn 0.147485 0.981723 0.120281
vn 0.147485 0.981723 0.120281
vn 0.147485 0.981723 0.120281
vn -0.961072 -0.031787 0.274463
vn -0.961072 -0.031787 0.274463
vn -0.961072 -0.031787 0.274463
vn -0.961072 -0.031787 0.274463
vn 0.165973 0.664683 -0.728456
vn 0.165973 0.664684 -0.728456
vn 0.165973 0.664684 -0.728456
vn 0.945311 -0.124197 -0.301600
vn 0.945311 -0.124197 -0.301600
vn 0.945311 -0.124197 -0.301600
vn -0.974591 0.141827 -0.173373
vn -0.974591 0.141827 -0.173373
vn -0.974591 0.141827 -0.173373
vn -0.974591 0.141827 -0.173373
vn 0.227642 -0.130977 -0.964896
vn 0.227642 -0.130977 -0.964896
vn 0.227642 -0.130977 -0.964896
vn 0.227642 -0.130977 -0.964896
vn 0.969333 -0.147365 -0.196663
vn 0.969334 -0.147365 -0.196663
vn 0.969333 -0.147365 -0.196663
vn 0.969333 -0.147365 -0.196663
vn -0.970076 -0.149765 -0.191111
vn -0.970076 -0.149765 -0.191111
vn -0.970076 -0.149765 -0.191111
vn -0.970076 -0.149765 -0.191111
vn -0.515101 -0.850850 -0.103564
vn -0.515101 -0.850850 -0.103564
vn -0.515101 -0.850850 -0.103564
vn -0.515101 -0.850850 -0.103564
vn -0.262015 -0.146983 -0.953805
vn -0.262015 -0.146983 -0.953805
vn -0.262015 -0.146983 -0.953805
vn -0.262015 -0.146983 -0.953805
vn -0.242764 0.828267 -0.505015
vn -0.242764 0.828267 -0.505015
vn -0.242764 0.828267 -0.505015
vn -0.408837 0.839324 0.358313
vn -0.408837 0.839324 0.358313
vn -0.408837 0.839324 0.358313
vn -0.611026 0.766050 0.199537
vn -0.611026 0.766050 0.199537
vn -0.611026 0.766050 0.199537
vn -0.232114 -0.444459 0.865205
vn -0.232114 -0.444459 0.865205
vn -0.232114 -0.444459 0.865205
vn -0.232114 -0.444459 0.865205
vn -0.945357 0.081501 -0.315685
vn -0.945357 0.081501 -0.315685
vn -0.945357 0.081501 -0.315685
vn -0.117985 0.992800 0.020663
vn -0.117985 0.992800 0.020663
vn -0.117985 0.992800 0.020663
vn -0.265144 0.759248 0.594341
vn -0.265144 0.759248 0.594341
vn -0.265144 0.759248 0.594341
vn -0.959869 -0.018859 0.279815
vn -0.959869 -0.018859 0.279815
vn -0.959869 -0.018859 0.279815
vn 0.746344 0.663922 0.046677
vn 0.746344 0.663922 0.046677
vn 0.746344 0.663922 0.046677
vn 0.978477 0.205778 0.015413
vn 0.978477 0.205778 0.015413
vn 0.978477 0.205778 0.015413
vn 0.978477 0.205778 0.015413
vn 0.976208 0.137287 -0.167840
vn 0.976208 0.137287 -0.167840
vn 0.976208 0.137287 -0.167840
vn 0.976208 0.137287 -0.167840
vn 0.743441 0.431260 -0.511185
vn 0.743441 0.431260 -0.511185
vn 0.743441 0.431260 -0.511185
vn -0.099171 0.700926 -0.706306
vn -0.099171 0.700926 -0.706306
vn -0.099171 0.700926 -0.706306
vn -0.980374 0.197140 -0.001707
vn -0.980374 0.197140 -0.001707
vn -0.980374 0.197140 -0.001707
vn -0.914104 -0.367711 -0.170889
vn -0.914104 -0.367710 -0.170889
vn -0.914104 -0.367711 -0.170889
vn -0.051564 -0.375148 -0.925530
vn -0.051564 -0.375148 -0.925530
vn -0.051564 -0.375147 -0.925530
vn 0.193152 0.261474 -0.945687
vn 0.193152 0.261474 -0.945687
vn 0.193152 0.261474 -0.945687
vn -0.457109 0.317506 -0.830807
vn -0.457109 0.317506 -0.830808
vn -0.457109 0.317506 -0.830807
vn -0.644736 0.491779 -0.585208
vn -0.644736 0.491779 -0.585208
vn -0.644736 0.491779 -0.585208
vn 0.395867 0.836964 -0.377862
vn 0.395867 0.836964 -0.377862
vn 0.395867 0.836964 -0.377862
vn 0.383476 0.868344 -0.314523
vn 0.383476 0.868344 -0.314523
vn 0.383476 0.868344 -0.314523
vn -0.236574 0.949042 -0.208211
vn -0.236574 0.949042 -0.208211
vn -0.236574 0.949042 -0.208211
vn -0.605015 0.794135 0.057512
vn -0.605015 0.794135 0.057512
vn -0.605015 0.794135 0.057512
vn 0.192380 0.863761 0.465733
vn 0.192380 0.863761 0.465733
vn 0.192380 0.863761 0.465733
vn -0.330780 0.132139 0.934411
vn -0.330780 0.132139 0.934411
vn -0.330780 0.132139 0.934411
vn 0.325003 0.056058 0.944050
vn 0.325003 0.056058 0.944050
vn 0.325003 0.056058 0.944050
vn -0.675674 0.475598 0.563268
vn -0.675674 0.475598 0.563268
vn -0.675674 0.475598 0.563268
vn 0.779595 0.408023 0.475131
vn 0.779595 0.408023 0.475131
vn 0.779595 0.408023 0.475131
s off
f 26/1/1 27/2/2 10/3/3 11/4/4
f 24/5/5 30/35/6 6/8/7
f 21/9/8 22/10/9 18/11/10 19/12/11
f 30/36/12 8/14/13 6/15/14
f 7/16/15 1/17/16 28/32/17 5/19/18
f 2/13/19 4/7/20 11/4/21 10/3/22
f 4/7/23 25/6/24 36/42/25
f 29/34/26 1/17/27 9/20/28 12/21/29
f 31/37/30 24/5/31 6/8/32
f 6/8/33 8/24/34 31/37/35
f 7/26/36 5/27/37 32/38/38 16/29/39
f 22/10/40 23/22/41 14/23/42 18/11/43
f 14/23/44 15/25/45 19/12/46 18/11/47
f 16/29/48 33/39/49 17/30/50 20/31/51
f 17/30/52 22/10/53 21/9/54 20/31/55
f 33/39/56 23/22/57 22/10/58 17/30/59
f 5/27/60 24/5/61 34/40/62
f 28/33/63 25/6/64 35/41/65
f 29/34/66 36/42/67 25/6/68
f 9/20/69 27/2/70 26/1/71 12/21/72
f 28/32/73 1/17/74 3/18/75
f 3/18/76 25/6/77 28/33/78
f 29/34/79 25/6/80 3/18/81
f 3/18/82 1/17/83 29/34/84
f 30/35/85 35/41/86 4/7/87
f 2/13/88 8/14/89 30/36/90 4/7/91
f 31/37/92 8/24/93 15/25/94 14/23/95
f 14/23/96 34/40/97 31/37/98
f 32/38/99 23/22/100 13/28/101
f 16/29/102 32/38/103 13/28/104
f 16/29/105 13/28/106 33/39/107
f 13/28/108 23/22/109 33/39/110
f 23/22/111 34/40/112 14/23/113
f 32/38/114 34/40/115 23/22/116
f 5/27/117 34/40/118 32/38/119
f 31/37/120 34/40/121 24/5/122
f 24/5/123 35/41/124 30/35/125
f 5/27/126 35/41/127 24/5/128
f 28/33/129 35/41/130 5/27/131
f 4/7/132 35/41/133 25/6/134
f 26/1/135 36/42/136 12/21/137
f 11/4/138 36/42/139 26/1/140
f 12/21/141 36/42/142 29/34/143
f 4/7/144 36/42/145 11/4/146
