# This file uses centimeters as units for non-parametric coordinates.

v 0.000000 18.181900 12.466922
v 0.000000 16.140991 -12.972859
v 0.000000 1.640839 -10.734968
v 0.000000 16.405289 12.154885
v 0.000000 22.449219 -11.055524
v 0.000000 24.205139 -5.673745
v 0.000000 23.625656 7.047183
v 0.000000 21.959412 11.632564
v 0.000000 24.428833 1.068511
v 9.336914 11.968277 -11.288480
v 6.080322 2.650314 -10.963440
v 9.491211 21.527969 -3.979783
v 9.466064 20.794479 1.200340
v 6.442871 18.513840 10.631610
v 7.923828 21.139450 7.539096
v 10.846924 18.190567 6.037942
v 11.677979 19.297180 0.448102
v 11.396973 11.583511 -10.112542
v 11.332520 19.638657 -4.177452
v 5.498535 23.429611 4.901530
v 5.860352 23.347900 -4.473525
v 3.647705 23.057266 -5.198510
v 3.456055 23.181473 5.281341
v 2.931885 22.129440 10.760791
v 4.951904 21.712952 9.092455
v 6.140869 21.663422 8.293185
v 2.027344 24.119095 3.174924
v 2.123047 23.945145 -5.436124
v 2.003418 23.393295 6.174644
v 0.000000 6.316559 -12.020461
v 6.307617 7.217743 -10.532744
v 10.847412 3.958694 -8.594857
v 11.307129 4.870148 -9.482392
v 12.123047 9.627914 -4.069619
v 11.780029 7.765091 -3.610935
v 11.156738 6.352798 -3.601170
v 6.337891 0.800568 -7.113943
v 7.333984 15.741913 10.110328
v 11.228760 10.593216 1.891061
v 10.970703 11.337830 4.027472
v 10.572021 11.337830 5.046570
v 11.572510 17.603134 4.714003
v 10.724854 6.546585 2.421578
v 10.600830 6.289597 4.215898
v 11.035156 6.463120 3.450852
v 9.238281 19.628220 -9.717818
v 11.003662 19.079849 -8.794954
v 3.662109 22.060913 -10.665440
v 11.568359 11.446762 -2.500518
v 0.000000 16.405289 12.154885
v -9.336914 11.968277 -11.288480
v -6.080322 2.650314 -10.963440
v -9.491211 21.527969 -3.979783
v -9.466064 20.794479 1.200340
v -6.442871 18.513840 10.631610
v -7.923828 21.139450 7.539096
v -10.846924 18.190567 6.037942
v -11.677979 19.297180 0.448102
v -11.396973 11.583511 -10.112542
v -11.332520 19.638657 -4.177452
v -5.498535 23.429611 4.901530
v -5.860352 23.347900 -4.473525
v -3.647705 23.057266 -5.198510
v -3.456055 23.181473 5.281341
v -2.931885 22.129440 10.760791
v -4.951904 21.712952 9.092455
v -6.140869 21.663422 8.293185
v -2.027344 24.119095 3.174924
v -2.123047 23.945145 -5.436124
v -2.003418 23.393295 6.174644
v -6.307617 7.217743 -10.532744
v -10.847412 3.958694 -8.594857
v -11.307129 4.870148 -9.482392
v -12.123047 9.627914 -4.069619
v -11.780029 7.765091 -3.610935
v -11.156738 6.352798 -3.601170
v -6.337891 0.800568 -7.113943
v -7.333984 15.741913 10.110328
v -11.228760 10.593216 1.891061
v -10.970703 11.337830 4.027472
v -10.572021 11.337830 5.046570
v -11.572510 17.603134 4.714003
v -10.724854 6.546585 2.421578
v -10.600830 6.289597 4.215898
v -11.035400 6.463120 3.450852
v -9.238281 19.628220 -9.717818
v -11.003662 19.079849 -8.794954
v -3.662109 22.060913 -10.665440
v -11.568359 11.446762 -2.500518
v 0.000000 -0.852188 -7.520699
vt 0.049735 0.197968
vt 0.049735 0.197968
vt 0.049735 0.197968
vt 0.049735 0.197968
vt 0.049735 0.197968
vt 0.049735 0.197968
vt 0.049735 0.197968
vt 0.049735 0.197968
vt 0.049735 0.197968
vt 0.049735 0.197968
vt 0.049735 0.197968
vt 0.049735 0.197968
vt 0.049735 0.197968
vt 0.049735 0.197968
vt 0.049735 0.197968
vt 0.049735 0.197968
vt 0.049735 0.197968
vt 0.049735 0.197968
vt 0.049735 0.197968
vt 0.049735 0.197968
vt 0.049735 0.197968
vt 0.049735 0.197968
vt 0.049735 0.197968
vt 0.049735 0.197968
vt 0.049735 0.197968
vt 0.049735 0.197968
vt 0.049735 0.197968
vt 0.049735 0.197968
vt 0.049735 0.197968
vt 0.049735 0.197968
vt 0.049735 0.197968
vt 0.049735 0.197968
vt 0.049735 0.197968
vt 0.049735 0.197968
vt 0.049735 0.197968
vt 0.049735 0.197968
vt 0.049735 0.197968
vt 0.049735 0.197968
vt 0.049735 0.197968
vt 0.049735 0.197968
vt 0.049735 0.197968
vt 0.049735 0.197968
vt 0.049735 0.197968
vt 0.049735 0.197968
vt 0.049735 0.197968
vt 0.049735 0.197968
vt 0.049735 0.197968
vt 0.049735 0.197968
vt 0.049735 0.197968
vt 0.049735 0.197968
vt 0.049735 0.197968
vt 0.049735 0.197968
vt 0.049735 0.197968
vt 0.049735 0.197968
vt 0.049735 0.197968
vt 0.049735 0.197968
vt 0.049735 0.197968
vt 0.049735 0.197968
vt 0.049735 0.197968
vt 0.049735 0.197968
vt 0.049735 0.197968
vt 0.049735 0.197968
vt 0.049735 0.197968
vt 0.049735 0.197968
vt 0.049735 0.197968
vt 0.049735 0.197968
vt 0.049735 0.197968
vt 0.049735 0.197968
vt 0.049735 0.197968
vt 0.049735 0.197968
vt 0.049735 0.197968
vt 0.049735 0.197968
vt 0.049735 0.197968
vt 0.049735 0.197968
vt 0.049735 0.197968
vt 0.049735 0.197968
vt 0.049735 0.197968
vt 0.049735 0.197968
vt 0.049735 0.197968
vt 0.049735 0.197968
vt 0.049735 0.197968
vt 0.049735 0.197968
vt 0.049735 0.197968
vt 0.049735 0.197968
vt 0.049735 0.197968
vt 0.049735 0.197968
vt 0.049735 0.197968
vt 0.049735 0.197968
vt 0.049735 0.197968
vt 0.049735 0.197968
vt 0.049735 0.197968
vt 0.049735 0.197968
vt 0.049735 0.197968
vt 0.049735 0.197968
vt 0.049735 0.197968
vt 0.049735 0.197968
vt 0.049735 0.197968
vt 0.049735 0.197968
vt 0.049735 0.197968
vt 0.049735 0.197968
vt 0.049735 0.197968
vt 0.049735 0.197968
vt 0.049735 0.197968
vt 0.049735 0.197968
vt 0.049735 0.197968
vt 0.049735 0.197968
vt 0.049735 0.197968
vt 0.049735 0.197968
vt 0.049735 0.197968
vt 0.049735 0.197968
vt 0.049735 0.197968
vt 0.049735 0.197968
vn 0.507474 0.765528 -0.395523
vn 0.507474 0.765528 -0.395523
vn 0.507474 0.765528 -0.395523
vn 0.166511 -0.148843 -0.974741
vn 0.166511 -0.148843 -0.974741
vn 0.166511 -0.148843 -0.974741
vn 0.166511 -0.148843 -0.974741
vn 0.528816 0.848720 -0.005297
vn 0.528816 0.848720 -0.005297
vn 0.528816 0.848720 -0.005297
vn 0.528816 0.848720 -0.005297
vn 0.115092 0.949557 0.291712
vn 0.115092 0.949557 0.291712
vn 0.115092 0.949557 0.291712
vn 0.115092 0.949557 0.291712
vn 0.173256 -0.781974 -0.598749
vn 0.173256 -0.781974 -0.598749
vn 0.173256 -0.781974 -0.598749
vn 0.173256 -0.781974 -0.598749
vn 0.266276 -0.122979 0.956020
vn 0.266276 -0.122979 0.956020
vn 0.266276 -0.122979 0.956020
vn 0.266276 -0.122979 0.956020
vn 0.709356 0.238463 0.663287
vn 0.709356 0.238463 0.663287
vn 0.709356 0.238463 0.663287
vn 0.709356 0.238463 0.663287
vn 0.598880 0.763945 0.240271
vn 0.598880 0.763945 0.240271
vn 0.598880 0.763945 0.240271
vn 0.101120 -0.218872 -0.970500
vn 0.101120 -0.218872 -0.970500
vn 0.101120 -0.218872 -0.970500
vn 0.576201 0.787335 -0.219307
vn 0.576201 0.787335 -0.219307
vn 0.576201 0.787336 -0.219307
vn 0.576201 0.787335 -0.219307
vn 0.648464 0.758716 0.062003
vn 0.648464 0.758716 0.062003
vn 0.648464 0.758716 0.062003
vn 0.648464 0.758716 0.062003
vn 0.480944 0.551915 0.681236
vn 0.480944 0.551915 0.681236
vn 0.480944 0.551915 0.681236
vn 0.084834 0.918113 0.387133
vn 0.084834 0.918113 0.387133
vn 0.084834 0.918113 0.387133
vn 0.084834 0.918113 0.387133
vn 0.521343 0.851761 0.052004
vn 0.521343 0.851761 0.052004
vn 0.521343 0.851761 0.052004
vn 0.521343 0.851761 0.052004
vn 0.438182 0.841914 -0.314925
vn 0.438182 0.841914 -0.314925
vn 0.438182 0.841914 -0.314925
vn 0.438182 0.841914 -0.314925
vn -0.124509 0.992123 -0.013758
vn -0.124509 0.992123 -0.013758
vn -0.124509 0.992123 -0.013758
vn -0.124509 0.992123 -0.013758
vn 0.260463 0.213505 0.941581
vn 0.260463 0.213505 0.941581
vn 0.260463 0.213505 0.941581
vn 0.260463 0.213505 0.941581
vn 0.360101 0.909197 0.209016
vn 0.360101 0.909197 0.209016
vn 0.360101 0.909197 0.209016
vn 0.080854 0.982544 0.167540
vn 0.080854 0.982544 0.167540
vn 0.080854 0.982544 0.167540
vn 0.080854 0.982544 0.167540
vn 0.456944 0.558079 0.692639
vn 0.456944 0.558079 0.692639
vn 0.456944 0.558079 0.692639
vn 0.572426 0.802118 0.170102
vn 0.572426 0.802118 0.170102
vn 0.572426 0.802118 0.170102
vn 0.572426 0.802118 0.170102
vn 0.594334 0.556391 0.580686
vn 0.594335 0.556391 0.580686
vn 0.594334 0.556391 0.580686
vn 0.149611 0.988437 -0.024667
vn 0.149611 0.988437 -0.024667
vn 0.149611 0.988437 -0.024667
vn 0.149611 0.988437 -0.024667
vn 0.276397 0.933582 0.228101
vn 0.276397 0.933582 0.228101
vn 0.276397 0.933582 0.228101
vn 0.264174 0.942182 0.206168
vn 0.264174 0.942182 0.206168
vn 0.264174 0.942182 0.206168
vn 0.149436 0.940004 -0.306694
vn 0.149436 0.940004 -0.306694
vn 0.149436 0.940004 -0.306694
vn 0.111652 -0.099890 -0.988714
vn 0.111652 -0.099890 -0.988714
vn 0.111652 -0.099890 -0.988714
vn 0.111652 -0.099890 -0.988714
vn 0.240462 0.079249 -0.967418
vn 0.240462 0.079249 -0.967418
vn 0.240462 0.079249 -0.967418
vn 0.434247 -0.786169 -0.439736
vn 0.434247 -0.786169 -0.439736
vn 0.434247 -0.786169 -0.439736
vn 0.434247 -0.786169 -0.439736
vn 0.983813 -0.178973 0.009003
vn 0.983813 -0.178973 0.009003
vn 0.983813 -0.178973 0.009003
vn 0.999041 0.003642 0.043645
vn 0.999041 0.003642 0.043645
vn 0.999040 0.003642 0.043645
vn 0.999040 0.003642 0.043645
vn 0.999041 0.003642 0.043645
vn 0.916752 -0.381148 0.119551
vn 0.916752 -0.381148 0.119551
vn 0.916752 -0.381148 0.119551
vn 0.916752 -0.381148 0.119551
vn 0.738458 0.658782 0.143828
vn 0.738458 0.658782 0.143828
vn 0.738458 0.658782 0.143828
vn 0.883613 -0.117037 0.453355
vn 0.883613 -0.117037 0.453355
vn 0.883613 -0.117037 0.453355
vn 0.883613 -0.117037 0.453355
vn 0.163929 -0.978036 -0.128733
vn 0.163929 -0.978036 -0.128733
vn 0.163929 -0.978036 -0.128733
vn 0.827206 0.514917 0.224925
vn 0.827206 0.514917 0.224925
vn 0.827206 0.514917 0.224925
vn 0.481322 -0.088299 -0.872085
vn 0.481322 -0.088299 -0.872085
vn 0.481322 -0.088299 -0.872085
vn 0.991543 -0.025219 -0.127308
vn 0.991543 -0.025219 -0.127308
vn 0.991543 -0.025219 -0.127308
vn 0.993753 0.077611 -0.080194
vn 0.993753 0.077611 -0.080194
vn 0.993753 0.077611 -0.080194
vn 0.996625 -0.067624 0.046541
vn 0.996625 -0.067624 0.046541
vn 0.996625 -0.067624 0.046541
vn 0.996625 -0.067624 0.046541
vn 0.906795 -0.050818 0.418497
vn 0.906795 -0.050818 0.418497
vn 0.906795 -0.050818 0.418497
vn 0.906795 -0.050819 0.418497
vn 0.258729 0.197234 -0.945599
vn 0.258729 0.197234 -0.945599
vn 0.258729 0.197234 -0.945599
vn 0.506264 0.177271 -0.843962
vn 0.506264 0.177271 -0.843962
vn 0.506264 0.177271 -0.843962
vn 0.506264 0.177271 -0.843962
vn 0.992887 0.069139 -0.096933
vn 0.992887 0.069139 -0.096933
vn 0.992887 0.069139 -0.096933
vn 0.252770 0.211613 -0.944101
vn 0.252771 0.211613 -0.944101
vn 0.252770 0.211613 -0.944101
vn 0.050299 0.982572 -0.178946
vn 0.050299 0.982572 -0.178946
vn 0.050299 0.982572 -0.178946
vn 0.050299 0.982572 -0.178946
vn 0.131592 0.288278 -0.948461
vn 0.131592 0.288278 -0.948462
vn 0.131592 0.288278 -0.948461
vn 0.942097 -0.156190 -0.296745
vn 0.942097 -0.156190 -0.296745
vn 0.942097 -0.156190 -0.296745
vn 0.992742 -0.001074 0.120260
vn 0.992742 -0.001074 0.120260
vn 0.992742 -0.001074 0.120260
vn -0.507475 0.765529 -0.395518
vn -0.507475 0.765529 -0.395518
vn -0.507475 0.765529 -0.395518
vn -0.166511 -0.148843 -0.974741
vn -0.166511 -0.148843 -0.974741
vn -0.166511 -0.148843 -0.974741
vn -0.166511 -0.148843 -0.974741
vn -0.528816 0.848720 -0.005296
vn -0.528816 0.848720 -0.005296
vn -0.528816 0.848720 -0.005296
vn -0.528816 0.848720 -0.005296
vn -0.115092 0.949557 0.291712
vn -0.115092 0.949557 0.291712
vn -0.115092 0.949557 0.291712
vn -0.115092 0.949557 0.291712
vn -0.173256 -0.781974 -0.598749
vn -0.173256 -0.781974 -0.598749
vn -0.173256 -0.781974 -0.598749
vn -0.173256 -0.781974 -0.598749
vn -0.266276 -0.122979 0.956020
vn -0.266276 -0.122979 0.956020
vn -0.266276 -0.122979 0.956020
vn -0.266276 -0.122979 0.956020
vn -0.709354 0.238465 0.663289
vn -0.709354 0.238465 0.663289
vn -0.709354 0.238465 0.663289
vn -0.709354 0.238465 0.663289
vn -0.598880 0.763946 0.240269
vn -0.598880 0.763946 0.240269
vn -0.598880 0.763946 0.240269
vn -0.101120 -0.218873 -0.970500
vn -0.101120 -0.218873 -0.970500
vn -0.101120 -0.218873 -0.970500
vn -0.576200 0.787336 -0.219308
vn -0.576200 0.787336 -0.219308
vn -0.576200 0.787336 -0.219308
vn -0.576200 0.787336 -0.219308
vn -0.648467 0.758714 0.062000
vn -0.648467 0.758714 0.062000
vn -0.648467 0.758714 0.062000
vn -0.648467 0.758714 0.062000
vn -0.480943 0.551914 0.681238
vn -0.480943 0.551914 0.681238
vn -0.480943 0.551914 0.681238
vn -0.084834 0.918112 0.387134
vn -0.084834 0.918112 0.387134
vn -0.084834 0.918112 0.387134
vn -0.084834 0.918112 0.387134
vn -0.521343 0.851761 0.052004
vn -0.521343 0.851761 0.052004
vn -0.521343 0.851761 0.052004
vn -0.521343 0.851761 0.052004
vn -0.438182 0.841914 -0.314926
vn -0.438182 0.841914 -0.314926
vn -0.438182 0.841914 -0.314926
vn -0.438182 0.841914 -0.314926
vn 0.124509 0.992123 -0.013759
vn 0.124509 0.992123 -0.013759
vn 0.124509 0.992123 -0.013759
vn 0.124509 0.992123 -0.013759
vn -0.260463 0.213505 0.941581
vn -0.260463 0.213505 0.941581
vn -0.260463 0.213505 0.941581
vn -0.260463 0.213505 0.941581
vn -0.360101 0.909197 0.209018
vn -0.360101 0.909197 0.209018
vn -0.360101 0.909197 0.209018
vn -0.080854 0.982544 0.167538
vn -0.080854 0.982544 0.167538
vn -0.080854 0.982544 0.167538
vn -0.080854 0.982544 0.167538
vn -0.456945 0.558080 0.692638
vn -0.456945 0.558080 0.692638
vn -0.456945 0.558080 0.692638
vn -0.572426 0.802118 0.170102
vn -0.572426 0.802118 0.170102
vn -0.572426 0.802118 0.170102
vn -0.572426 0.802118 0.170102
vn -0.594334 0.556391 0.580686
vn -0.594334 0.556391 0.580686
vn -0.594335 0.556391 0.580686
vn -0.149611 0.988437 -0.024666
vn -0.149611 0.988437 -0.024666
vn -0.149611 0.988437 -0.024666
vn -0.149611 0.988437 -0.024666
vn -0.276397 0.933582 0.228101
vn -0.276397 0.933582 0.228101
vn -0.276397 0.933582 0.228101
vn -0.264174 0.942182 0.206166
vn -0.264174 0.942182 0.206166
vn -0.264174 0.942182 0.206166
vn -0.149436 0.940004 -0.306694
vn -0.149436 0.940004 -0.306694
vn -0.149436 0.940004 -0.306694
vn -0.111652 -0.099890 -0.988714
vn -0.111652 -0.099890 -0.988714
vn -0.111652 -0.099890 -0.988714
vn -0.111652 -0.099890 -0.988714
vn -0.240459 0.079249 -0.967419
vn -0.240459 0.079249 -0.967419
vn -0.240459 0.079249 -0.967419
vn -0.434246 -0.786171 -0.439733
vn -0.434246 -0.786171 -0.439733
vn -0.434246 -0.786171 -0.439733
vn -0.434246 -0.786171 -0.439733
vn -0.983816 -0.178958 0.009001
vn -0.983816 -0.178958 0.009001
vn -0.983816 -0.178958 0.009001
vn -0.999041 0.003644 0.043636
vn -0.999041 0.003644 0.043636
vn -0.999041 0.003644 0.043636
vn -0.999041 0.003644 0.043636
vn -0.999041 0.003644 0.043636
vn -0.916744 -0.381163 0.119563
vn -0.916744 -0.381163 0.119563
vn -0.916744 -0.381163 0.119563
vn -0.916744 -0.381163 0.119563
vn -0.738454 0.658786 0.143827
vn -0.738454 0.658786 0.143827
vn -0.738454 0.658786 0.143827
vn -0.883613 -0.117041 0.453355
vn -0.883612 -0.117041 0.453355
vn -0.883612 -0.117041 0.453355
vn -0.883612 -0.117041 0.453355
vn -0.163916 -0.978036 -0.128755
vn -0.163916 -0.978036 -0.128755
vn -0.163916 -0.978036 -0.128755
vn -0.827218 0.514901 0.224915
vn -0.827218 0.514901 0.224915
vn -0.827218 0.514901 0.224915
vn -0.481317 -0.088300 -0.872088
vn -0.481317 -0.088300 -0.872088
vn -0.481317 -0.088300 -0.872088
vn -0.991544 -0.025218 -0.127298
vn -0.991544 -0.025218 -0.127298
vn -0.991544 -0.025218 -0.127298
vn -0.993754 0.077611 -0.080181
vn -0.993754 0.077611 -0.080181
vn -0.993754 0.077611 -0.080181
vn -0.996625 -0.067621 0.046546
vn -0.996625 -0.067621 0.046546
vn -0.996625 -0.067621 0.046546
vn -0.996625 -0.067621 0.046546
vn -0.906784 -0.050817 0.418523
vn -0.906784 -0.050817 0.418523
vn -0.906784 -0.050817 0.418523
vn -0.906784 -0.050817 0.418523
vn -0.258729 0.197234 -0.945599
vn -0.258729 0.197234 -0.945599
vn -0.258729 0.197234 -0.945599
vn -0.506258 0.177271 -0.843966
vn -0.506258 0.177271 -0.843966
vn -0.506258 0.177271 -0.843966
vn -0.506258 0.177271 -0.843966
vn -0.992888 0.069138 -0.096924
vn -0.992888 0.069138 -0.096924
vn -0.992888 0.069138 -0.096924
vn -0.252770 0.211613 -0.944101
vn -0.252770 0.211613 -0.944101
vn -0.252770 0.211613 -0.944101
vn -0.050299 0.982572 -0.178946
vn -0.050299 0.982572 -0.178946
vn -0.050299 0.982572 -0.178946
vn -0.050299 0.982572 -0.178946
vn -0.131592 0.288278 -0.948461
vn -0.131592 0.288278 -0.948461
vn -0.131592 0.288278 -0.948462
vn -0.942088 -0.156199 -0.296769
vn -0.942088 -0.156199 -0.296769
vn -0.942088 -0.156199 -0.296769
vn -0.992740 -0.001069 0.120272
vn -0.992740 -0.001069 0.120272
vn -0.992740 -0.001069 0.120272
s off
f 22/1/1 5/2/2 28/3/3
f 10/4/4 31/5/5 30/6/6 2/7/7
f 23/8/8 22/1/9 28/3/10 27/9/11
f 7/10/12 8/11/13 24/12/14 29/13/15
f 3/14/16 11/15/17 37/16/18 90/17/19
f 14/18/20 1/19/21 4/20/22 38/21/23
f 15/22/24 14/18/25 38/21/26 16/23/27
f 13/24/28 16/23/29 17/25/30
f 31/5/31 10/4/32 33/26/33
f 46/27/34 12/28/35 19/29/36 47/30/37
f 12/28/38 13/24/39 17/25/40 19/29/41
f 14/18/42 26/31/43 25/32/44
f 25/32/45 26/31/46 20/33/47 23/8/48
f 13/24/49 12/28/50 21/34/51 20/33/52
f 21/34/53 12/28/54 46/27/55 48/35/56
f 20/33/57 21/34/58 22/1/59 23/8/60
f 14/18/61 24/12/62 8/11/63 1/19/64
f 23/8/65 24/12/66 25/32/67
f 27/9/68 9/36/69 7/10/70 29/13/71
f 14/18/72 15/22/73 26/31/74
f 20/33/75 26/31/76 15/22/77 13/24/78
f 25/32/79 24/12/80 14/18/81
f 28/3/82 6/37/83 9/36/84 27/9/85
f 23/8/86 27/9/87 29/13/88
f 24/12/89 23/8/90 29/13/91
f 5/2/92 6/37/93 28/3/94
f 31/5/95 11/15/96 3/14/97 30/6/98
f 11/15/99 31/5/100 33/26/101
f 11/15/102 33/26/103 32/38/104 37/16/105
f 34/39/106 35/40/107 33/26/108
f 34/39/109 19/41/110 17/42/111 39/43/112 49/44/113
f 35/40/114 36/45/115 32/38/116 33/26/117
f 13/24/118 15/22/119 16/23/120
f 16/23/121 41/46/122 40/47/123 42/48/124
f 45/49/125 44/50/126 43/51/127
f 16/23/128 42/48/129 17/25/130
f 10/4/131 18/52/132 33/26/133
f 18/52/134 34/39/135 33/26/136
f 34/39/137 47/53/138 19/41/139
f 42/48/140 40/47/141 39/54/142 17/25/143
f 40/47/144 41/55/145 44/56/146 45/49/147
f 2/7/148 46/27/149 10/4/150
f 10/4/151 46/27/152 47/30/153 18/52/154
f 34/39/155 18/52/156 47/53/157
f 2/7/158 48/35/159 46/27/160
f 5/2/161 22/1/162 21/34/163 48/35/164
f 2/7/165 5/2/166 48/35/167
f 45/49/168 43/51/169 39/54/170
f 40/47/171 45/49/172 39/54/173
f 63/57/174 69/58/175 5/59/176
f 51/60/177 2/61/178 30/62/179 71/63/180
f 64/64/181 68/65/182 69/58/183 63/57/184
f 7/66/185 70/67/186 65/68/187 8/69/188
f 3/70/189 90/71/190 77/72/191 52/73/192
f 55/74/193 78/75/194 50/76/195 1/77/196
f 56/78/197 57/79/198 78/75/199 55/74/200
f 54/80/201 58/81/202 57/79/203
f 71/63/204 73/82/205 51/60/206
f 86/83/207 87/84/208 60/85/209 53/86/210
f 53/86/211 60/85/212 58/81/213 54/80/214
f 55/74/215 66/87/216 67/88/217
f 66/87/218 64/64/219 61/89/220 67/88/221
f 54/80/222 61/89/223 62/90/224 53/86/225
f 62/90/226 88/91/227 86/83/228 53/86/229
f 61/89/230 64/64/231 63/57/232 62/90/233
f 55/74/234 1/77/235 8/69/236 65/68/237
f 64/64/238 66/87/239 65/68/240
f 68/65/241 70/67/242 7/66/243 9/92/244
f 55/74/245 67/88/246 56/78/247
f 61/89/248 54/80/249 56/78/250 67/88/251
f 66/87/252 55/74/253 65/68/254
f 69/58/255 68/65/256 9/92/257 6/93/258
f 64/64/259 70/67/260 68/65/261
f 65/68/262 70/67/263 64/64/264
f 5/59/265 69/58/266 6/93/267
f 71/63/268 30/62/269 3/70/270 52/73/271
f 52/73/272 73/82/273 71/63/274
f 52/73/275 77/72/276 72/94/277 73/82/278
f 74/95/279 73/82/280 75/96/281
f 74/95/282 89/97/283 79/98/284 58/99/285 60/100/286
f 75/96/287 73/82/288 72/94/289 76/101/290
f 54/80/291 57/79/292 56/78/293
f 57/79/294 82/102/295 80/103/296 81/104/297
f 85/105/298 83/106/299 84/107/300
f 57/79/301 58/81/302 82/102/303
f 51/60/304 73/82/305 59/108/306
f 59/108/307 73/82/308 74/95/309
f 74/95/310 60/100/311 87/109/312
f 82/102/313 58/81/314 79/110/315 80/103/316
f 80/103/317 85/105/318 84/111/319 81/112/320
f 2/61/321 51/60/322 86/83/323
f 51/60/324 59/108/325 87/84/326 86/83/327
f 74/95/328 87/109/329 59/108/330
f 2/61/331 86/83/332 88/91/333
f 5/59/334 88/91/335 62/90/336 63/57/337
f 2/61/338 88/91/339 5/59/340
f 85/105/341 79/110/342 83/106/343
f 80/103/344 79/110/345 85/105/346
