# This file uses centimeters as units for non-parametric coordinates.

v -1.956510 1.070625 7.619274
v -1.886739 3.007690 8.208529
v -3.688447 3.846771 7.815977
v -4.871732 2.428253 6.984069
v -3.801343 0.712517 6.862552
v -2.422025 0.810326 8.726473
v -2.356542 2.628235 9.279470
v -4.047414 3.415688 8.911019
v -5.157910 2.084457 8.130391
v -4.153371 0.474251 8.016275
v -3.634740 1.888596 8.611683
v 2.222018 0.695557 7.093370
v 3.986934 1.304977 6.246452
v 4.125316 3.338928 6.464539
v 2.445884 3.986572 7.446232
v 1.269588 2.352867 7.834874
v 2.830798 0.631584 8.176032
v 4.487155 1.203491 7.381220
v 4.617000 3.112289 7.585888
v 3.040912 3.720093 8.507188
v 1.936961 2.186935 8.871925
v 3.385310 2.180092 8.104105
v -6.963582 12.027390 10.396628
v -5.610959 -5.420151 4.732138
v -7.251313 10.804169 11.728539
v -5.462979 -4.752945 5.949639
v 8.336947 11.066650 11.244781
v 5.117793 -5.114784 5.661226
v 7.036910 12.174690 10.029589
v 4.297084 -5.455360 4.172721
v -0.367116 9.551796 12.252913
v -0.613133 -5.768875 8.405441
v -0.303174 -6.134239 6.760185
v 0.019698 11.148918 11.417204
v -5.880521 5.432320 5.927092
v 0.113181 6.112534 7.646033
v 5.256316 6.045227 5.256297
v 6.208846 5.364899 6.798551
v -0.194955 4.234673 9.409920
v -6.197064 4.637802 7.642583
v -6.196347 -0.592484 6.125190
v -0.218743 5.328735 3.823868
v 3.402987 5.116859 2.569411
v 2.682361 -4.371735 1.450968
v -0.539838 -5.102356 2.867977
v -4.553342 4.587845 2.998199
v -4.392262 -4.372208 1.877542
v -0.439237 -2.481209 8.136451
v 5.651484 -1.016891 5.215713
v 4.767573 -0.870667 3.859305
v 3.012996 -0.529602 1.450596
v -0.433843 -0.378853 2.830850
v -4.581540 -0.177910 2.051269
v -5.870717 -0.604958 4.703443
v 0.896853 11.922226 11.750863
v 1.070933 10.724350 12.971944
v -2.574388 10.623795 13.140683
v -2.430326 11.848557 11.764297
vt 0.090828 0.228728
vt 0.090828 0.228728
vt 0.090828 0.228728
vt 0.090828 0.228728
vt 0.090828 0.228728
vt 0.090828 0.228728
vt 0.090828 0.228728
vt 0.090828 0.228728
vt 0.090828 0.228728
vt 0.090828 0.228728
vt 0.090828 0.228728
vt 0.090828 0.228728
vt 0.090828 0.228728
vt 0.090828 0.228728
vt 0.090828 0.228728
vt 0.090828 0.228728
vt 0.090828 0.228728
vt 0.090828 0.228728
vt 0.090828 0.228728
vt 0.090828 0.228728
vt 0.090828 0.228728
vt 0.090828 0.228728
vt 0.090828 0.228728
vt 0.090828 0.228728
vt 0.090828 0.228728
vt 0.090828 0.228728
vt 0.090828 0.228728
vt 0.090828 0.228728
vt 0.090828 0.228728
vt 0.090828 0.228728
vt 0.090828 0.228728
vt 0.090828 0.228728
vt 0.090828 0.228728
vt 0.090828 0.228728
vt 0.090828 0.228728
vt 0.090828 0.228728
vt 0.406396 0.322246
vt 0.406396 0.322246
vt 0.406396 0.322246
vt 0.406396 0.322246
vt 0.406396 0.322246
vt 0.406396 0.322246
vt 0.406396 0.322246
vt 0.406396 0.322246
vt 0.406396 0.322246
vt 0.406396 0.322246
vt 0.406396 0.322246
vt 0.080791 0.255249
vt 0.406396 0.322246
vt 0.406396 0.322246
vt 0.406396 0.322246
vt 0.406396 0.322246
vt 0.406396 0.322246
vt 0.406396 0.322246
vt 0.406396 0.322246
vt 0.406396 0.322246
vt 0.406396 0.322246
vt 0.080791 0.255249
vt 0.406396 0.322246
vt 0.406396 0.322246
vt 0.406396 0.322246
vt 0.406396 0.322246
vt 0.406396 0.322246
vt 0.406396 0.322246
vt 0.406396 0.322246
vt 0.406396 0.322246
vt 0.080795 0.255249
vt 0.080795 0.255249
vt 0.080791 0.255249
vt 0.080795 0.255249
vt 0.080791 0.255249
vt 0.080791 0.255249
vt 0.080795 0.255249
vt 0.080795 0.255249
vt 0.080791 0.255249
vt 0.080795 0.255249
vt 0.406396 0.322246
vt 0.406396 0.322246
vt 0.080794 0.255249
vt 0.406396 0.322246
vt 0.080794 0.255249
vt 0.080794 0.255249
vt 0.080794 0.255249
vt 0.406396 0.322246
vt 0.080794 0.255249
vt 0.406396 0.322246
vt 0.406396 0.322246
vt 0.406396 0.322246
vt 0.406396 0.322246
vt 0.406396 0.322246
vt 0.406396 0.322246
vt 0.406396 0.322246
vt 0.406396 0.322246
vn 0.924016 -0.141354 0.355265
vn 0.924016 -0.141354 0.355265
vn 0.924016 -0.141354 0.355265
vn 0.924016 -0.141354 0.355265
vn 0.301237 0.849491 0.433153
vn 0.301237 0.849491 0.433153
vn 0.301237 0.849491 0.433153
vn 0.301237 0.849491 0.433153
vn -0.768004 0.640444 0.000355
vn -0.768004 0.640444 0.000355
vn -0.768005 0.640444 0.000355
vn -0.768004 0.640444 0.000355
vn -0.807074 -0.479047 -0.345174
vn -0.807074 -0.479047 -0.345174
vn -0.807074 -0.479047 -0.345174
vn -0.807074 -0.479047 -0.345174
vn 0.238616 -0.962899 -0.126050
vn 0.238616 -0.962899 -0.126050
vn 0.238616 -0.962899 -0.126050
vn 0.238616 -0.962899 -0.126050
vn -0.321616 -0.264942 0.909048
vn -0.321616 -0.264942 0.909048
vn -0.321616 -0.264942 0.909048
vn -0.321534 -0.265078 0.909038
vn -0.321534 -0.265078 0.909038
vn -0.321534 -0.265078 0.909038
vn -0.321343 -0.265040 0.909116
vn -0.321343 -0.265040 0.909116
vn -0.321343 -0.265040 0.909116
vn -0.321340 -0.264903 0.909157
vn -0.321340 -0.264903 0.909157
vn -0.321340 -0.264903 0.909157
vn -0.321515 -0.264821 0.909119
vn -0.321515 -0.264821 0.909119
vn -0.321515 -0.264821 0.909119
vn 0.237746 -0.952567 -0.189982
vn 0.237746 -0.952567 -0.189982
vn 0.237746 -0.952567 -0.189982
vn 0.237746 -0.952567 -0.189982
vn 0.914260 -0.018805 -0.404691
vn 0.914260 -0.018805 -0.404691
vn 0.914260 -0.018805 -0.404691
vn 0.914260 -0.018805 -0.404691
vn 0.372079 0.927881 0.024385
vn 0.372079 0.927881 0.024385
vn 0.372079 0.927881 0.024385
vn 0.372079 0.927881 0.024385
vn -0.639389 0.580362 0.504344
vn -0.639389 0.580362 0.504344
vn -0.639389 0.580362 0.504344
vn -0.639389 0.580362 0.504344
vn -0.723017 -0.582017 0.372159
vn -0.723017 -0.582017 0.372159
vn -0.723017 -0.582017 0.372159
vn -0.723017 -0.582017 0.372159
vn 0.464085 -0.125456 0.876861
vn 0.464085 -0.125456 0.876861
vn 0.464085 -0.125456 0.876861
vn 0.463989 -0.125586 0.876894
vn 0.463989 -0.125586 0.876893
vn 0.463989 -0.125586 0.876894
vn 0.464068 -0.125722 0.876832
vn 0.464068 -0.125722 0.876832
vn 0.464068 -0.125722 0.876832
vn 0.464210 -0.125673 0.876764
vn 0.464210 -0.125673 0.876764
vn 0.464210 -0.125673 0.876764
vn 0.464221 -0.125509 0.876782
vn 0.464221 -0.125509 0.876782
vn 0.464221 -0.125509 0.876782
vn -0.980839 0.045186 -0.189508
vn -0.980839 0.045186 -0.189508
vn -0.980839 0.045186 -0.189508
vn -0.980839 0.045186 -0.189508
vn 0.432554 -0.217299 0.875030
vn 0.432554 -0.217299 0.875030
vn 0.432554 -0.217299 0.875030
vn 0.432554 -0.217299 0.875030
vn 0.850113 0.050581 -0.524165
vn 0.850113 0.050581 -0.524165
vn 0.850113 0.050581 -0.524165
vn 0.850113 0.050581 -0.524165
vn -0.334381 0.189531 -0.923183
vn -0.334381 0.189531 -0.923183
vn -0.334381 0.189531 -0.923183
vn -0.334381 0.189531 -0.923184
vn 0.217039 -0.959288 0.180724
vn 0.217039 -0.959288 0.180724
vn 0.217039 -0.959288 0.180724
vn 0.217039 -0.959288 0.180724
vn 0.130645 0.758302 0.638679
vn 0.130645 0.758302 0.638679
vn 0.130645 0.758302 0.638679
vn 0.130645 0.758302 0.638679
vn -0.335723 -0.207795 0.918755
vn -0.335723 -0.207795 0.918755
vn -0.335723 -0.207795 0.918755
vn -0.335723 -0.207795 0.918755
vn -0.290997 -0.905108 0.309999
vn -0.290997 -0.905108 0.309999
vn -0.290997 -0.905108 0.309999
vn -0.290997 -0.905108 0.309999
vn 0.172261 0.175536 -0.969285
vn 0.172261 0.175536 -0.969285
vn 0.172261 0.175536 -0.969285
vn 0.172261 0.175536 -0.969285
vn -0.276105 0.609293 -0.743322
vn -0.276105 0.609293 -0.743322
vn -0.276105 0.609293 -0.743322
vn -0.276105 0.609293 -0.743322
vn -0.276105 0.609293 -0.743322
vn 0.813634 0.165497 -0.557325
vn 0.813634 0.165497 -0.557325
vn 0.813634 0.165497 -0.557325
vn 0.813634 0.165497 -0.557325
vn 0.198269 -0.652448 0.731438
vn 0.198269 -0.652448 0.731438
vn 0.198269 -0.652448 0.731438
vn 0.198269 -0.652448 0.731438
vn -0.169796 -0.608927 0.774840
vn -0.169796 -0.608927 0.774840
vn -0.169796 -0.608927 0.774840
vn -0.169796 -0.608927 0.774840
vn -0.977566 -0.023387 -0.209328
vn -0.977566 -0.023387 -0.209328
vn -0.977566 -0.023387 -0.209328
vn -0.977566 -0.023387 -0.209328
vn -0.166097 0.744584 0.646535
vn -0.166097 0.744584 0.646535
vn -0.166097 0.744584 0.646535
vn -0.166097 0.744584 0.646535
vn 0.177557 0.599636 -0.780327
vn 0.177557 0.599636 -0.780327
vn 0.177557 0.599636 -0.780327
vn 0.177557 0.599636 -0.780327
vn 0.177557 0.599636 -0.780327
vn -0.065994 0.970222 -0.233054
vn -0.065994 0.970222 -0.233054
vn -0.065994 0.970222 -0.233054
vn -0.065994 0.970222 -0.233054
vn 0.811424 0.059676 -0.581403
vn 0.811425 0.059676 -0.581403
vn 0.811425 0.059676 -0.581403
vn 0.811425 0.059676 -0.581403
vn 0.013684 -0.951258 -0.308094
vn 0.013684 -0.951258 -0.308094
vn 0.013684 -0.951258 -0.308094
vn 0.013684 -0.951258 -0.308094
vn -0.072945 0.967031 -0.243989
vn -0.072945 0.967031 -0.243989
vn -0.072945 0.967031 -0.243989
vn -0.072945 0.967031 -0.243989
vn -0.050962 -0.952270 -0.300973
vn -0.050962 -0.952270 -0.300973
vn -0.050962 -0.952270 -0.300973
vn -0.050962 -0.952270 -0.300973
vn -0.899433 0.087566 -0.428196
vn -0.899433 0.087566 -0.428196
vn -0.899433 0.087566 -0.428196
vn -0.899433 0.087566 -0.428196
vn -0.392231 -0.017925 0.919692
vn -0.392231 -0.017925 0.919692
vn -0.392231 -0.017925 0.919692
vn -0.392231 -0.017925 0.919692
vn 0.424847 0.046758 0.904057
vn 0.424847 0.046758 0.904057
vn 0.424847 0.046758 0.904057
vn 0.424847 0.046758 0.904057
vn 0.853307 -0.142528 -0.501550
vn 0.853308 -0.142528 -0.501550
vn 0.853308 -0.142528 -0.501549
vn 0.853308 -0.142528 -0.501550
vn 0.818944 -0.098905 -0.565286
vn 0.818944 -0.098905 -0.565286
vn 0.818944 -0.098905 -0.565286
vn 0.818944 -0.098905 -0.565286
vn -0.387910 0.015739 -0.921563
vn -0.387910 0.015739 -0.921563
vn -0.387910 0.015739 -0.921563
vn -0.387910 0.015739 -0.921563
vn 0.217877 0.016982 -0.975829
vn 0.217877 0.016982 -0.975829
vn 0.217877 0.016982 -0.975828
vn 0.217877 0.016982 -0.975828
vn -0.905487 -0.038327 -0.422639
vn -0.905487 -0.038327 -0.422639
vn -0.905487 -0.038327 -0.422639
vn -0.905487 -0.038327 -0.422639
vn -0.993258 -0.109267 -0.038718
vn -0.993258 -0.109267 -0.038718
vn -0.993258 -0.109267 -0.038718
vn -0.993258 -0.109267 -0.038718
vn -0.662817 0.475873 0.578117
vn -0.662817 0.475873 0.578117
vn -0.662817 0.475873 0.578117
vn -0.662817 0.475873 0.578117
vn 0.397907 0.518464 0.756879
vn 0.397907 0.518464 0.756878
vn 0.397907 0.518464 0.756879
vn 0.397907 0.518464 0.756879
vn -0.279112 -0.459791 0.843024
vn -0.279112 -0.459791 0.843024
vn -0.279112 -0.459791 0.843024
vn 0.405230 -0.420829 0.811598
vn 0.405230 -0.420829 0.811598
vn 0.405230 -0.420829 0.811598
s off
f 1/1/1 2/2/2 7/3/3 6/4/4
f 2/2/5 3/5/6 8/6/7 7/3/8
f 3/5/9 4/7/10 9/8/11 8/6/12
f 4/7/13 5/9/14 10/10/15 9/8/16
f 5/9/17 1/11/18 6/12/19 10/10/20
f 6/13/21 7/14/22 11/15/23
f 7/14/24 8/16/25 11/15/26
f 8/16/27 9/17/28 11/15/29
f 9/17/30 10/18/31 11/15/32
f 10/18/33 6/13/34 11/15/35
f 12/19/36 13/20/37 18/21/38 17/22/39
f 13/20/40 14/23/41 19/24/42 18/21/43
f 14/23/44 15/25/45 20/26/46 19/24/47
f 15/25/48 16/27/49 21/28/50 20/26/51
f 16/27/52 12/29/53 17/30/54 21/28/55
f 17/31/56 18/32/57 22/33/58
f 18/32/59 19/34/60 22/33/61
f 19/34/62 20/35/63 22/33/64
f 20/35/65 21/36/66 22/33/67
f 21/36/68 17/31/69 22/33/70
f 40/37/71 35/38/72 54/84/73 41/66/74
f 38/41/75 39/42/76 48/77/77 49/78/78
f 37/45/79 38/41/80 49/78/81 50/80/82
f 42/48/83 43/58/84 51/81/85 52/82/86
f 32/49/87 33/50/88 30/51/89 28/52/90
f 29/53/91 55/86/92 56/88/93 27/56/94
f 39/42/95 40/37/96 41/66/97 48/77/98
f 24/39/99 33/50/100 32/49/101 26/40/102
f 46/69/103 42/48/104 52/82/105 53/83/106
f 29/63/107 37/45/108 36/47/109 34/61/110 55/87/111
f 27/64/112 38/41/113 37/45/114 29/63/115
f 56/89/116 31/65/117 38/41/118 27/64/119
f 40/37/120 31/65/121 57/91/122 25/60/123
f 23/59/124 35/38/125 40/37/126 25/60/127
f 25/60/128 57/90/129 58/93/130 23/59/131
f 35/57/132 23/62/133 58/92/134 34/61/135 36/47/136
f 36/71/137 37/72/138 43/58/139 42/48/140
f 37/72/141 50/79/142 51/81/143 43/58/144
f 30/73/145 33/74/146 45/68/147 44/67/148
f 35/75/149 36/71/150 42/48/151 46/69/152
f 33/74/153 24/76/154 47/70/155 45/68/156
f 53/83/157 54/85/158 35/75/159 46/69/160
f 48/77/161 41/66/162 26/40/163 32/43/164
f 49/78/165 48/77/166 32/43/167 28/44/168
f 50/80/169 49/78/170 28/44/171 30/46/172
f 51/81/173 50/79/174 30/73/175 44/67/176
f 52/82/177 51/81/178 44/67/179 45/68/180
f 53/83/181 52/82/182 45/68/183 47/70/184
f 24/76/185 54/85/186 53/83/187 47/70/188
f 41/66/189 54/84/190 24/39/191 26/40/192
f 56/88/193 55/86/194 34/54/195 31/55/196
f 58/93/197 57/90/198 31/55/199 34/54/200
f 40/37/201 39/42/202 31/65/203
f 38/41/204 31/65/205 39/42/206
