# This file uses centimeters as units for non-parametric coordinates.

v -21.720119 6.280182 -9.248235
v -19.394920 6.275299 -8.477818
v -19.409054 6.287262 -6.028381
v -21.743053 6.299500 -5.284968
v -23.171329 6.295135 -7.274942
v -21.678665 7.761902 -9.144414
v -19.496464 7.757324 -8.421375
v -19.509800 7.768494 -6.122622
v -21.700134 7.780060 -5.424940
v -23.040573 7.775940 -7.292500
v -21.082176 7.768524 -7.270050
v -14.539939 6.792145 -6.057516
v -14.557837 6.875000 -8.505547
v -12.256822 7.227615 -9.267860
v -10.816779 7.362671 -7.290934
v -12.227838 7.093521 -5.306834
v -14.654962 8.273499 -6.075629
v -14.671741 8.351273 -8.373074
v -12.512330 8.682175 -9.088475
v -11.160861 8.808914 -7.233191
v -12.485078 8.556351 -5.371131
v -13.087480 8.535767 -7.234609
v -3.982334 5.707397 -0.548529
v -19.388294 1.320267 -0.030554
v -5.955224 7.529068 0.684587
v -21.042736 4.804352 -0.448187
v -5.955224 7.529068 -15.186343
v -21.284000 4.065506 -15.317181
v -3.982334 5.707397 -13.953222
v -19.388294 1.320267 -14.471201
v -27.272648 1.393188 -12.909722
v -27.272648 1.393188 -1.592031
v -26.942150 4.138443 -13.950856
v -26.942150 4.138443 -0.550899
v -8.225943 10.447800 -7.250877
v -20.619568 7.166550 -7.250877
v -29.039524 7.109451 -7.346857
v -29.498466 4.391891 -7.346857
v -21.364132 3.237061 -7.250877
v -6.253060 9.000717 -7.250877
v -7.657175 1.875763 -0.548529
v -7.657175 1.875763 -13.953222
v -8.730741 4.414078 -15.186343
v -11.198817 8.277817 -7.250877
v -8.730741 4.414078 0.684587
v -26.865044 7.194412 -7.309002
v -25.730305 3.225113 -7.309002
v -9.174506 -1.342545 -7.250876
v -7.163931 -0.132370 -11.834741
v -16.989841 -1.559708 -12.536415
v -18.049175 -2.494583 -7.250875
v -7.163931 -0.132370 -2.667010
v -16.989841 -1.559708 -1.965338
v -2.590879 4.222961 -7.250875
v -3.383561 2.948715 -3.025774
v -3.383561 2.948715 -11.475978
v -19.809917 3.052109 0.305668
v -18.244320 4.099670 0.794052
v -22.672222 4.041763 0.579191
v -7.317656 9.505035 -10.425063
v -10.211585 6.732315 -10.425063
v -20.864368 6.024033 -10.222754
v -26.257961 6.076202 -9.921133
v -26.285995 4.965134 -12.521159
v -21.137035 4.751434 -13.246597
v -9.136058 5.048599 -13.883147
v -6.337276 8.083176 -13.851189
v -7.387547 9.606400 -4.320945
v -10.253955 6.798660 -4.212911
v -20.806919 6.120712 -4.239087
v -26.256985 6.114853 -4.733873
v -26.283962 5.045670 -2.188060
v -20.973808 5.189117 -1.556228
v -9.393926 5.452286 -1.447710
v -6.606567 8.473724 -1.591659
v -11.169808 8.190659 -3.472645
v -21.033199 7.625259 -3.606134
v -21.167152 6.915283 -1.463839
v -10.480161 7.594070 -1.282096
v -25.931881 6.416397 -1.946915
v -25.912121 7.291733 -3.964077
v -8.263727 9.176819 -1.350729
v -8.874135 10.080017 -3.527394
v -25.887566 6.314926 -12.791347
v -21.282455 6.514435 -13.304148
v -25.866131 7.218567 -10.729903
v -21.064495 7.498489 -10.949723
v -10.269610 7.213913 -13.984576
v -11.132323 8.079956 -11.243941
v -8.790442 9.943527 -11.277953
v -8.024223 8.813492 -14.010329
vt 0.090828 0.228728
vt 0.090828 0.228728
vt 0.090828 0.228728
vt 0.090828 0.228728
vt 0.090828 0.228728
vt 0.090828 0.228728
vt 0.090828 0.228728
vt 0.090828 0.228728
vt 0.090828 0.228728
vt 0.090828 0.228728
vt 0.090828 0.228728
vt 0.090828 0.228728
vt 0.090828 0.228728
vt 0.090828 0.228728
vt 0.090828 0.228728
vt 0.090828 0.228728
vt 0.090828 0.228728
vt 0.090828 0.228728
vt 0.090828 0.228728
vt 0.090828 0.228728
vt 0.090828 0.228728
vt 0.090828 0.228728
vt 0.090828 0.228728
vt 0.090828 0.228728
vt 0.090828 0.228728
vt 0.090828 0.228728
vt 0.090828 0.228728
vt 0.090828 0.228728
vt 0.090828 0.228728
vt 0.090828 0.228728
vt 0.090828 0.228728
vt 0.090828 0.228728
vt 0.090828 0.228728
vt 0.090828 0.228728
vt 0.090828 0.228728
vt 0.090828 0.228728
vt 0.406000 0.320920
vt 0.406000 0.320920
vt 0.406000 0.320920
vt 0.406000 0.320920
vt 0.406000 0.320920
vt 0.406000 0.320920
vt 0.406000 0.320920
vt 0.406000 0.320920
vt 0.406000 0.320920
vt 0.406000 0.320920
vt 0.080126 0.252350
vt 0.080126 0.252350
vt 0.406000 0.320920
vt 0.406000 0.320920
vt 0.406000 0.320920
vt 0.406000 0.320920
vt 0.406000 0.320920
vt 0.406000 0.320920
vt 0.406000 0.320920
vt 0.406000 0.320920
vt 0.406000 0.320920
vt 0.406000 0.320920
vt 0.406000 0.320920
vt 0.406000 0.320920
vt 0.406000 0.320920
vt 0.406000 0.320920
vt 0.080126 0.252350
vt 0.080126 0.252350
vt 0.406000 0.320920
vt 0.406000 0.320920
vt 0.080126 0.252350
vt 0.080126 0.252350
vt 0.406000 0.320920
vt 0.406000 0.320920
vt 0.406000 0.320920
vt 0.406000 0.320920
vt 0.406000 0.320920
vt 0.080126 0.252350
vt 0.080127 0.252350
vt 0.080127 0.252350
vt 0.080126 0.252350
vt 0.080126 0.252350
vt 0.080126 0.252350
vt 0.080126 0.252350
vt 0.080126 0.252350
vt 0.080127 0.252350
vt 0.080126 0.252350
vt 0.080127 0.252350
vt 0.406000 0.320920
vt 0.406000 0.320920
vt 0.406000 0.320920
vt 0.406000 0.320920
vt 0.406000 0.320920
vt 0.406000 0.320920
vt 0.406000 0.320920
vt 0.406000 0.320920
vt 0.406000 0.320920
vt 0.406000 0.320920
vt 0.406000 0.320920
vt 0.406000 0.320920
vt 0.406000 0.320920
vt 0.406000 0.320920
vt 0.406000 0.320920
vt 0.406000 0.320920
vt 0.406000 0.320920
vt 0.406000 0.320920
vt 0.406000 0.320920
vt 0.406000 0.320920
vt 0.406000 0.320920
vt 0.406000 0.320920
vt 0.406000 0.320920
vt 0.406000 0.320920
vt 0.406000 0.320920
vt 0.406000 0.320920
vt 0.406000 0.320920
vt 0.405945 0.305979
vt 0.405945 0.305979
vt 0.405945 0.305979
vt 0.405945 0.305979
vt 0.405945 0.305979
vt 0.405945 0.305979
vt 0.405945 0.305979
vt 0.405945 0.305979
vt 0.405945 0.305979
vt 0.405945 0.305979
vt 0.405945 0.305979
vt 0.405945 0.305979
vt 0.405945 0.305979
vt 0.405945 0.305979
vt 0.405945 0.305979
vt 0.405945 0.305979
vt 0.405945 0.305979
vt 0.405945 0.305979
vt 0.405945 0.305979
vt 0.405945 0.305979
vt 0.405945 0.305979
vt 0.405945 0.305979
vt 0.405945 0.305979
vt 0.405945 0.305979
vt 0.405945 0.305979
vt 0.405945 0.305979
vt 0.405945 0.305979
vt 0.405945 0.305979
vt 0.405945 0.305979
vt 0.405945 0.305979
vt 0.405945 0.305979
vt 0.405945 0.305979
vn 0.314104 0.057612 -0.947639
vn 0.314104 0.057612 -0.947639
vn 0.314104 0.057612 -0.947639
vn 0.314104 0.057612 -0.947639
vn 0.997659 0.068176 0.005440
vn 0.997658 0.068176 0.005440
vn 0.997658 0.068176 0.005440
vn 0.997658 0.068176 0.005440
vn 0.302886 0.081004 0.949578
vn 0.302886 0.081004 0.949578
vn 0.302886 0.081004 0.949578
vn 0.302886 0.081004 0.949578
vn -0.809981 0.078421 0.581189
vn -0.809981 0.078421 0.581189
vn -0.809981 0.078421 0.581189
vn -0.809981 0.078421 0.581189
vn -0.803726 0.063946 -0.591554
vn -0.803726 0.063946 -0.591554
vn -0.803726 0.063946 -0.591554
vn -0.803726 0.063946 -0.591554
vn 0.003654 0.999982 -0.004687
vn 0.003654 0.999982 -0.004687
vn 0.003654 0.999982 -0.004687
vn 0.003550 0.999982 -0.004833
vn 0.003550 0.999982 -0.004833
vn 0.003550 0.999982 -0.004833
vn 0.003682 0.999981 -0.005021
vn 0.003682 0.999981 -0.005021
vn 0.003682 0.999981 -0.005021
vn 0.003844 0.999980 -0.004972
vn 0.003844 0.999980 -0.004972
vn 0.003844 0.999980 -0.004972
vn 0.003841 0.999981 -0.004764
vn 0.003841 0.999981 -0.004764
vn 0.003841 0.999981 -0.004764
vn -0.996993 -0.077350 0.004668
vn -0.996993 -0.077350 0.004668
vn -0.996993 -0.077350 0.004668
vn -0.996993 -0.077350 0.004668
vn -0.322184 0.059922 -0.944779
vn -0.322184 0.059922 -0.944779
vn -0.322184 0.059922 -0.944779
vn -0.322184 0.059922 -0.944779
vn 0.783430 0.209754 -0.585014
vn 0.783430 0.209754 -0.585014
vn 0.783430 0.209754 -0.585014
vn 0.783430 0.209754 -0.585014
vn 0.793005 0.165238 0.586379
vn 0.793005 0.165238 0.586379
vn 0.793005 0.165238 0.586379
vn 0.793005 0.165238 0.586379
vn -0.307341 -0.012226 0.951521
vn -0.307341 -0.012226 0.951521
vn -0.307341 -0.012226 0.951521
vn -0.307341 -0.012226 0.951521
vn -0.140044 0.989543 0.034519
vn -0.140044 0.989543 0.034519
vn -0.140044 0.989543 0.034519
vn -0.140147 0.989523 0.034672
vn -0.140147 0.989523 0.034672
vn -0.140147 0.989523 0.034672
vn -0.140312 0.989502 0.034630
vn -0.140312 0.989502 0.034630
vn -0.140312 0.989502 0.034630
vn -0.140314 0.989509 0.034426
vn -0.140314 0.989508 0.034426
vn -0.140314 0.989508 0.034426
vn -0.140150 0.989533 0.034377
vn -0.140150 0.989533 0.034377
vn -0.140150 0.989533 0.034377
vn 0.032447 -0.354494 0.934495
vn 0.032447 -0.354494 0.934495
vn 0.032447 -0.354494 0.934495
vn 0.032447 -0.354494 0.934495
vn 0.032447 -0.354494 0.934495
vn -0.086498 0.908894 -0.407958
vn -0.086498 0.908894 -0.407958
vn -0.086498 0.908894 -0.407958
vn -0.086498 0.908894 -0.407958
vn 0.037965 -0.347364 -0.936962
vn 0.037965 -0.347364 -0.936962
vn 0.037965 -0.347364 -0.936962
vn 0.037965 -0.347364 -0.936962
vn 0.140881 -0.975629 -0.168226
vn 0.140881 -0.975629 -0.168226
vn 0.140881 -0.975629 -0.168226
vn 0.140881 -0.975629 -0.168226
vn -0.929736 0.065292 -0.362393
vn -0.929736 0.065292 -0.362393
vn -0.929736 0.065292 -0.362393
vn -0.929736 0.065292 -0.362393
vn 0.705402 0.703077 -0.089951
vn 0.705402 0.703077 -0.089951
vn 0.705402 0.703077 -0.089951
vn -0.278508 -0.887549 0.367000
vn -0.278508 -0.887549 0.367000
vn -0.278508 -0.887549 0.367000
vn -0.200193 -0.369020 -0.907605
vn -0.200193 -0.369020 -0.907605
vn -0.200193 -0.369020 -0.907605
vn -0.200193 -0.369020 -0.907605
vn -0.001479 0.926881 -0.375353
vn -0.001479 0.926881 -0.375353
vn -0.001479 0.926881 -0.375353
vn -0.001479 0.926881 -0.375353
vn -0.179370 -0.362205 0.914677
vn -0.179370 -0.362205 0.914677
vn -0.179370 -0.362205 0.914677
vn -0.179370 -0.362205 0.914677
vn -0.179370 -0.362205 0.914677
vn -0.062250 0.953325 0.295461
vn -0.062250 0.953325 0.295461
vn -0.062250 0.953325 0.295461
vn -0.062250 0.953325 0.295461
vn -0.110833 0.930030 0.350371
vn -0.110833 0.930030 0.350372
vn -0.110833 0.930030 0.350372
vn -0.110833 0.930030 0.350372
vn -0.933010 0.067466 0.353469
vn -0.933010 0.067466 0.353469
vn -0.933010 0.067466 0.353469
vn -0.933010 0.067466 0.353469
vn -0.272710 -0.892396 -0.359526
vn -0.272710 -0.892396 -0.359526
vn -0.272710 -0.892396 -0.359526
vn 0.140881 -0.975629 0.168226
vn 0.140881 -0.975629 0.168226
vn 0.140881 -0.975629 0.168226
vn 0.140881 -0.975629 0.168226
vn 0.705402 0.703080 0.089927
vn 0.705402 0.703080 0.089927
vn 0.705402 0.703080 0.089927
vn 0.635902 -0.766086 -0.093491
vn 0.635902 -0.766086 -0.093491
vn 0.635902 -0.766086 -0.093491
vn 0.635902 -0.766086 -0.093491
vn 0.635902 -0.766086 0.093493
vn 0.635902 -0.766086 0.093493
vn 0.635902 -0.766086 0.093493
vn 0.635902 -0.766086 0.093493
vn 0.314063 -0.291626 -0.903504
vn 0.314063 -0.291626 -0.903504
vn 0.314063 -0.291626 -0.903504
vn 0.314062 -0.291626 -0.903504
vn -0.578093 0.686175 -0.441558
vn -0.578093 0.686175 -0.441558
vn -0.578093 0.686175 -0.441558
vn -0.578093 0.686175 -0.441558
vn -0.548300 0.727207 0.412962
vn -0.548300 0.727207 0.412962
vn -0.548300 0.727207 0.412962
vn -0.548300 0.727207 0.412962
vn 0.314062 -0.291625 0.903504
vn 0.314062 -0.291625 0.903504
vn 0.314062 -0.291625 0.903504
vn 0.314062 -0.291625 0.903504
vn -0.042732 0.917759 0.394833
vn -0.042732 0.917759 0.394833
vn -0.042732 0.917759 0.394833
vn -0.028862 0.916483 -0.399032
vn -0.028862 0.916483 -0.399032
vn -0.028862 0.916483 -0.399032
vn 0.032130 -0.959707 -0.279161
vn 0.032130 -0.959707 -0.279161
vn 0.032130 -0.959707 -0.279161
vn 0.032130 -0.959707 -0.279161
vn 0.029764 -0.959117 0.281441
vn 0.029764 -0.959117 0.281441
vn 0.029764 -0.959117 0.281441
vn 0.029764 -0.959117 0.281441
vn 0.100064 -0.599362 -0.794199
vn 0.100064 -0.599362 -0.794199
vn 0.100064 -0.599362 -0.794199
vn 0.100064 -0.599362 -0.794199
vn -0.807697 -0.569859 -0.151283
vn -0.807697 -0.569859 -0.151283
vn -0.807697 -0.569859 -0.151283
vn -0.807697 -0.569859 -0.151283
vn -0.807697 -0.569859 0.151283
vn -0.807697 -0.569859 0.151283
vn -0.807697 -0.569859 0.151283
vn -0.807697 -0.569859 0.151283
vn 0.100064 -0.599362 0.794200
vn 0.100064 -0.599362 0.794200
vn 0.100064 -0.599362 0.794200
vn 0.100064 -0.599362 0.794200
vn 0.521301 -0.527393 0.670896
vn 0.521301 -0.527393 0.670896
vn 0.521301 -0.527393 0.670896
vn 0.521301 -0.527393 0.670896
vn 0.878621 0.471094 0.078070
vn 0.878622 0.471094 0.078070
vn 0.878621 0.471094 0.078070
vn 0.878622 0.471094 0.078070
vn 0.521301 -0.527393 -0.670896
vn 0.521301 -0.527393 -0.670896
vn 0.521301 -0.527393 -0.670896
vn 0.521301 -0.527393 -0.670896
vn 0.878622 0.471094 -0.078070
vn 0.878622 0.471094 -0.078070
vn 0.878622 0.471094 -0.078070
vn 0.878622 0.471094 -0.078070
vn -0.374351 0.131528 0.917912
vn -0.374351 0.131528 0.917912
vn -0.374351 0.131528 0.917912
vn 0.260465 0.530347 0.806778
vn 0.260465 0.530347 0.806777
vn 0.260465 0.530347 0.806777
vn -0.655083 0.596215 -0.464105
vn -0.655083 0.596215 -0.464105
vn -0.655083 0.596215 -0.464105
vn -0.655083 0.596215 -0.464105
vn -0.032001 0.929904 -0.366408
vn -0.032001 0.929904 -0.366408
vn -0.032001 0.929904 -0.366408
vn -0.032001 0.929904 -0.366408
vn -0.050368 0.920945 -0.386425
vn -0.050368 0.920945 -0.386425
vn -0.050368 0.920945 -0.386425
vn -0.050368 0.920945 -0.386425
vn -0.077049 0.918276 -0.388372
vn -0.077049 0.918276 -0.388372
vn -0.077049 0.918276 -0.388372
vn -0.077049 0.918276 -0.388372
vn -0.073366 0.934402 -0.348583
vn -0.073366 0.934402 -0.348583
vn -0.073366 0.934402 -0.348583
vn -0.073366 0.934402 -0.348583
vn -0.548723 0.719489 -0.425721
vn -0.548723 0.719489 -0.425721
vn -0.548723 0.719489 -0.425721
vn -0.548723 0.719489 -0.425721
vn -0.577845 0.687409 0.439958
vn -0.577845 0.687409 0.439958
vn -0.577845 0.687409 0.439958
vn -0.577845 0.687409 0.439958
vn -0.082567 0.915979 0.392639
vn -0.082567 0.915979 0.392640
vn -0.082567 0.915979 0.392640
vn -0.082567 0.915979 0.392640
vn -0.015097 0.934168 0.356515
vn -0.015097 0.934168 0.356515
vn -0.015097 0.934168 0.356515
vn -0.015097 0.934168 0.356515
vn -0.096526 0.899585 0.425945
vn -0.096526 0.899585 0.425945
vn -0.096526 0.899585 0.425945
vn -0.096526 0.899585 0.425945
vn -0.096526 0.899585 0.425945
vn -0.017651 0.899129 0.437328
vn -0.017651 0.899129 0.437328
vn -0.017651 0.899129 0.437328
vn -0.017651 0.899129 0.437328
vn -0.017651 0.899129 0.437328
vn -0.650748 0.600816 0.464271
vn -0.650748 0.600816 0.464271
vn -0.650748 0.600816 0.464271
vn -0.650748 0.600816 0.464271
vn -0.018631 0.422304 -0.906263
vn -0.018631 0.422304 -0.906263
vn -0.018631 0.422304 -0.906263
vn -0.018631 0.422304 -0.906263
vn -0.010048 -0.069861 0.997506
vn -0.010048 -0.069861 0.997506
vn -0.010048 -0.069861 0.997506
vn -0.010048 -0.069861 0.997506
vn -0.103044 -0.101288 0.989506
vn -0.103044 -0.101288 0.989506
vn -0.103044 -0.101288 0.989506
vn -0.103044 -0.101288 0.989506
vn 0.057977 0.460746 -0.885636
vn 0.057977 0.460746 -0.885636
vn 0.057977 0.460746 -0.885636
vn 0.057977 0.460746 -0.885636
vn -0.969155 0.230149 0.088152
vn -0.969155 0.230149 0.088152
vn -0.969155 0.230149 0.088152
vn -0.969155 0.230149 0.088152
vn 0.091660 -0.053705 0.994341
vn 0.091660 -0.053705 0.994341
vn 0.091660 -0.053705 0.994341
vn 0.091660 -0.053705 0.994341
vn 0.410104 0.877698 0.247913
vn 0.410104 0.877698 0.247913
vn 0.410104 0.877698 0.247913
vn 0.410104 0.877698 0.247913
vn -0.320016 0.320802 -0.891446
vn -0.320016 0.320802 -0.891446
vn -0.320016 0.320802 -0.891446
vn -0.320016 0.320802 -0.891446
vn -0.125515 -0.093786 -0.987649
vn -0.125515 -0.093786 -0.987649
vn -0.125515 -0.093786 -0.987649
vn -0.125515 -0.093786 -0.987649
vn -0.960129 0.260184 -0.102263
vn -0.960129 0.260184 -0.102263
vn -0.960129 0.260184 -0.102263
vn -0.960129 0.260184 -0.102263
vn 0.032879 0.504078 0.863032
vn 0.032879 0.504078 0.863032
vn 0.032879 0.504078 0.863032
vn 0.032879 0.504078 0.863032
vn -0.054528 -0.058095 -0.996821
vn -0.054528 -0.058095 -0.996821
vn -0.054528 -0.058095 -0.996821
vn -0.054528 -0.058095 -0.996821
vn -0.008742 0.477725 0.878466
vn -0.008742 0.477725 0.878466
vn -0.008742 0.477725 0.878466
vn -0.008742 0.477725 0.878466
vn -0.326324 0.374887 0.867740
vn -0.326324 0.374887 0.867740
vn -0.326324 0.374887 0.867740
vn -0.326324 0.374887 0.867740
vn 0.405248 0.879501 -0.249504
vn 0.405248 0.879501 -0.249504
vn 0.405248 0.879501 -0.249504
vn 0.405248 0.879501 -0.249504
vn 0.044187 -0.046760 -0.997928
vn 0.044187 -0.046760 -0.997928
vn 0.044187 -0.046760 -0.997928
vn 0.044187 -0.046760 -0.997928
vn -0.085532 0.903507 -0.419951
vn -0.085532 0.903507 -0.419951
vn -0.085532 0.903507 -0.419951
vn -0.085532 0.903507 -0.419951
vn -0.094033 0.906010 0.412678
vn -0.094033 0.906010 0.412678
vn -0.094033 0.906010 0.412678
vn -0.094033 0.906010 0.412678
vn 0.589989 0.804364 -0.070087
vn 0.589989 0.804364 -0.070087
vn 0.589989 0.804364 -0.070087
vn 0.590299 0.804784 0.062203
vn 0.590299 0.804784 0.062203
vn 0.590299 0.804784 0.062203
vn 0.693679 0.711893 0.109626
vn 0.693679 0.711893 0.109626
vn 0.693679 0.711893 0.109626
vn 0.693679 0.711893 0.109626
vn 0.695264 0.710645 -0.107664
vn 0.695264 0.710645 -0.107664
vn 0.695264 0.710645 -0.107664
vn 0.695264 0.710645 -0.107664
s off
f 1/1/1 6/4/2 7/3/3 2/2/4
f 2/2/5 7/3/6 8/6/7 3/5/8
f 3/5/9 8/6/10 9/8/11 4/7/12
f 4/7/13 9/8/14 10/10/15 5/9/16
f 5/9/17 10/10/18 6/12/19 1/11/20
f 6/13/21 11/15/22 7/14/23
f 7/14/24 11/15/25 8/16/26
f 8/16/27 11/15/28 9/17/29
f 9/17/30 11/15/31 10/18/32
f 10/18/33 11/15/34 6/13/35
f 12/19/36 17/22/37 18/21/38 13/20/39
f 13/20/40 18/21/41 19/24/42 14/23/43
f 14/23/44 19/24/45 20/26/46 15/25/47
f 15/25/48 20/26/49 21/28/50 16/27/51
f 16/27/52 21/28/53 17/30/54 12/29/55
f 17/31/56 22/33/57 18/32/58
f 18/32/59 22/33/60 19/34/61
f 19/34/62 22/33/63 20/35/64
f 20/35/65 22/33/66 21/36/67
f 21/36/68 22/33/69 17/31/70
f 45/37/71 58/86/72 57/85/73 24/39/74 41/38/75
f 61/90/76 62/92/77 36/43/78 44/42/79
f 42/45/80 30/46/81 28/44/82 43/41/83
f 48/47/84 51/64/85 50/63/86 49/48/87
f 37/49/88 33/52/89 31/51/90 38/50/91
f 29/53/92 27/56/93 67/99/94
f 38/50/95 31/51/96 47/73/97
f 30/58/98 31/51/99 33/52/100 28/59/101
f 62/91/102 63/93/103 46/72/104 36/60/105
f 59/87/106 34/62/107 32/61/108 24/39/109 57/85/110
f 76/112/111 77/113/112 78/114/113 79/115/114
f 80/116/115 78/114/116 77/113/117 81/117/118
f 32/61/119 34/62/120 37/49/121 38/50/122
f 32/61/123 38/50/124 47/73/125
f 52/67/126 53/68/127 51/64/128 48/47/129
f 23/65/130 75/111/131 25/66/132
f 54/74/133 55/75/134 52/67/135 48/47/136
f 56/76/137 54/74/138 48/47/139 49/48/140
f 27/70/141 29/69/142 42/45/143 43/41/144
f 35/71/145 60/88/146 61/90/147 44/42/148
f 79/115/149 82/118/150 83/119/151 76/112/152
f 23/65/153 25/66/154 45/37/155 41/38/156
f 37/49/157 71/105/158 46/72/159
f 63/93/160 37/49/161 46/72/162
f 24/39/163 32/61/164 47/73/165 39/57/166
f 31/51/167 30/58/168 39/57/169 47/73/170
f 42/77/171 49/48/172 50/63/173 30/78/174
f 30/78/175 50/63/176 51/64/177 39/79/178
f 39/79/179 51/64/180 53/68/181 24/80/182
f 24/80/183 53/68/184 52/67/185 41/81/186
f 41/81/187 52/67/188 55/75/189 23/82/190
f 23/82/191 55/75/192 54/74/193 40/83/194
f 29/84/195 56/76/196 49/48/197 42/77/198
f 40/83/199 54/74/200 56/76/201 29/84/202
f 58/86/203 26/40/204 57/85/205
f 26/40/206 59/87/207 57/85/208
f 66/97/209 67/98/210 27/70/211 43/41/212
f 43/41/213 28/44/214 65/96/215 66/97/216
f 28/59/217 33/52/218 64/94/219 65/95/220
f 85/120/221 84/121/222 86/122/223 87/123/224
f 88/124/225 85/120/226 87/123/227 89/125/228
f 89/125/229 90/126/230 91/127/231 88/124/232
f 69/102/233 68/100/234 35/71/235 44/42/236
f 44/42/237 36/43/238 70/104/239 69/102/240
f 71/105/241 70/103/242 36/60/243 46/72/244
f 34/62/245 59/87/246 26/40/247 73/107/248 72/106/249
f 74/109/250 73/108/251 26/40/252 58/86/253 45/37/254
f 25/66/255 75/110/256 74/109/257 45/37/258
f 69/128/259 70/129/260 77/113/261 76/112/262
f 73/130/263 74/131/264 79/115/265 78/114/266
f 72/132/267 73/130/268 78/114/269 80/116/270
f 70/129/271 71/133/272 81/117/273 77/113/274
f 71/133/275 72/132/276 80/116/277 81/117/278
f 74/131/279 75/134/280 82/118/281 79/115/282
f 75/134/283 68/135/284 83/119/285 82/118/286
f 68/135/287 69/128/288 76/112/289 83/119/290
f 65/136/291 64/137/292 84/121/293 85/120/294
f 64/137/295 63/138/296 86/122/297 84/121/298
f 63/138/299 62/139/300 87/123/301 86/122/302
f 66/140/303 65/136/304 85/120/305 88/124/306
f 62/139/307 61/141/308 89/125/309 87/123/310
f 61/141/311 60/142/312 90/126/313 89/125/314
f 60/142/315 67/143/316 91/127/317 90/126/318
f 67/143/319 66/140/320 88/124/321 91/127/322
f 33/52/323 37/49/324 63/93/325 64/94/326
f 37/49/327 34/62/328 72/106/329 71/105/330
f 40/54/331 60/89/332 35/55/333
f 35/55/334 68/101/335 40/54/336
f 40/54/337 68/101/338 75/111/339 23/65/340
f 29/53/341 67/99/342 60/89/343 40/54/344
