# This file uses centimeters as units for non-parametric coordinates.

v -1.284859 2.229008 7.135671
v -1.405781 4.226185 7.453373
v -3.266983 4.831745 6.930386
v -4.296341 3.208767 6.289420
v -3.071327 1.600224 6.416338
v -1.750149 2.079395 8.263276
v -1.863632 3.953732 8.561419
v -3.610332 4.522015 8.070558
v -4.576374 2.998936 7.469118
v -3.426716 1.489300 7.588172
v -3.053219 3.013790 7.988564
v 2.988533 1.785755 6.154667
v 4.751308 2.667843 5.590647
v 4.668659 4.646091 6.122975
v 2.854767 4.986637 7.015986
v 1.816395 3.218845 7.035581
v 3.504562 1.602962 7.271438
v 5.158916 2.430775 6.742111
v 5.081337 4.287289 7.241683
v 3.379059 4.606899 8.079757
v 2.404541 2.947887 8.098160
v 3.907524 3.184521 7.487940
v -6.409973 13.816029 9.953370
v -5.019852 -4.970119 3.911215
v -6.693047 12.454678 11.258839
v -5.120720 -4.757412 4.592373
v 8.896938 12.665768 10.765252
v 5.711308 -4.723415 4.835987
v 7.592381 13.907825 9.575586
v 4.889496 -5.048412 3.341232
v 0.884186 12.261669 13.593679
v -0.015732 -5.474903 7.571225
v 0.293221 -5.828884 5.918093
v 1.167263 13.623020 12.288226
v -5.315453 6.774303 5.340974
v 0.679764 7.432865 7.068291
v 5.821148 7.395374 4.672432
v 6.777454 6.610523 6.198700
v 0.378452 5.349728 8.791497
v -5.627968 5.867962 7.039247
v -5.144829 12.378025 11.792801
v -2.203365 12.524212 12.783992
v -1.607494 13.858967 11.560578
v -4.557053 13.713474 10.567242
v -3.340611 10.287258 10.974820
v -2.782215 12.238644 10.149599
v -5.886250 0.221432 5.425936
v -2.364555 -5.074535 6.674285
v -4.623383 -3.801991 5.693125
v 0.345119 6.686886 3.230271
v 3.966557 6.470509 1.967870
v 3.268433 -3.790623 0.645087
v 0.049179 -4.603458 2.049224
v -3.989437 5.929279 2.393082
v -3.807037 -3.763241 1.078645
v 0.130203 -1.902393 7.374460
v 6.501877 -0.255939 4.461925
v 5.579910 -0.057613 3.112094
v 3.749310 0.383572 0.717507
v 0.143467 0.521961 2.114183
v -4.191620 0.775532 1.354843
v -5.543510 0.245121 4.002699
vt 0.090828 0.228728
vt 0.090828 0.228728
vt 0.090828 0.228728
vt 0.090828 0.228728
vt 0.090828 0.228728
vt 0.090828 0.228728
vt 0.090828 0.228728
vt 0.090828 0.228728
vt 0.090828 0.228728
vt 0.090828 0.228728
vt 0.090828 0.228728
vt 0.090828 0.228728
vt 0.090828 0.228728
vt 0.090828 0.228728
vt 0.090828 0.228728
vt 0.090828 0.228728
vt 0.090828 0.228728
vt 0.090828 0.228728
vt 0.090828 0.228728
vt 0.090828 0.228728
vt 0.090828 0.228728
vt 0.090828 0.228728
vt 0.090828 0.228728
vt 0.090828 0.228728
vt 0.090828 0.228728
vt 0.090828 0.228728
vt 0.090828 0.228728
vt 0.090828 0.228728
vt 0.090828 0.228728
vt 0.090828 0.228728
vt 0.090828 0.228728
vt 0.090828 0.228728
vt 0.090828 0.228728
vt 0.090828 0.228728
vt 0.090828 0.228728
vt 0.090828 0.228728
vt 0.406396 0.322246
vt 0.406396 0.322246
vt 0.406396 0.322246
vt 0.406396 0.322246
vt 0.406396 0.322246
vt 0.406396 0.322246
vt 0.406396 0.322246
vt 0.406396 0.322246
vt 0.406396 0.322246
vt 0.406396 0.322246
vt 0.406396 0.322246
vt 0.080791 0.255249
vt 0.406396 0.322246
vt 0.406396 0.322246
vt 0.406396 0.322246
vt 0.406396 0.322246
vt 0.406396 0.322246
vt 0.406396 0.322246
vt 0.406396 0.322246
vt 0.406396 0.322246
vt 0.406396 0.322246
vt 0.080791 0.255249
vt 0.406396 0.322246
vt 0.406396 0.322246
vt 0.406396 0.322246
vt 0.406396 0.322246
vt 0.406396 0.322246
vt 0.406396 0.322246
vt 0.406396 0.322246
vt 0.406396 0.322246
vt 0.406396 0.322246
vt 0.406396 0.322246
vt 0.406396 0.322246
vt 0.406396 0.322246
vt 0.406396 0.322246
vt 0.406396 0.322246
vt 0.406396 0.322246
vt 0.406396 0.322246
vt 0.406396 0.322246
vt 0.406396 0.322246
vt 0.406396 0.322246
vt 0.406396 0.322246
vt 0.406396 0.322246
vt 0.406396 0.322246
vt 0.406396 0.322246
vt 0.080795 0.255249
vt 0.080795 0.255249
vt 0.080791 0.255249
vt 0.080795 0.255249
vt 0.080791 0.255249
vt 0.080791 0.255249
vt 0.080795 0.255249
vt 0.080795 0.255249
vt 0.080791 0.255249
vt 0.080795 0.255249
vt 0.406396 0.322246
vt 0.406396 0.322246
vt 0.080794 0.255249
vt 0.406396 0.322246
vt 0.080794 0.255249
vt 0.080794 0.255249
vt 0.080794 0.255249
vt 0.406396 0.322246
vt 0.080794 0.255249
vn 0.924599 -0.004611 0.380914
vn 0.924599 -0.004611 0.380914
vn 0.924599 -0.004611 0.380914
vn 0.924599 -0.004611 0.380914
vn 0.212365 0.924960 0.315201
vn 0.212365 0.924960 0.315201
vn 0.212365 0.924960 0.315201
vn 0.212365 0.924960 0.315201
vn -0.823044 0.559844 -0.095780
vn -0.823044 0.559844 -0.095780
vn -0.823044 0.559844 -0.095780
vn -0.823044 0.559844 -0.095780
vn -0.751794 -0.594961 -0.284302
vn -0.751794 -0.594961 -0.284302
vn -0.751794 -0.594961 -0.284302
vn -0.751794 -0.594961 -0.284302
vn 0.328341 -0.944505 0.010168
vn 0.328341 -0.944505 0.010168
vn 0.328341 -0.944505 0.010168
vn 0.328341 -0.944505 0.010168
vn -0.317031 -0.167679 0.933475
vn -0.317031 -0.167679 0.933475
vn -0.317031 -0.167679 0.933475
vn -0.316929 -0.167817 0.933485
vn -0.316929 -0.167817 0.933485
vn -0.316929 -0.167817 0.933485
vn -0.316740 -0.167751 0.933561
vn -0.316740 -0.167751 0.933561
vn -0.316740 -0.167751 0.933561
vn -0.316748 -0.167594 0.933586
vn -0.316748 -0.167594 0.933586
vn -0.316748 -0.167594 0.933586
vn -0.316940 -0.167534 0.933532
vn -0.316940 -0.167534 0.933532
vn -0.316940 -0.167534 0.933532
vn 0.346248 -0.887109 -0.305204
vn 0.346248 -0.887109 -0.305204
vn 0.346248 -0.887109 -0.305204
vn 0.346248 -0.887109 -0.305204
vn 0.943249 0.122474 -0.308678
vn 0.943249 0.122474 -0.308678
vn 0.943249 0.122474 -0.308678
vn 0.943249 0.122474 -0.308678
vn 0.275076 0.940364 0.200122
vn 0.275076 0.940364 0.200122
vn 0.275076 0.940364 0.200122
vn 0.275076 0.940364 0.200122
vn -0.734867 0.437405 0.518312
vn -0.734867 0.437405 0.518312
vn -0.734867 0.437405 0.518312
vn -0.734867 0.437405 0.518312
vn -0.691492 -0.692329 0.206201
vn -0.691492 -0.692329 0.206201
vn -0.691493 -0.692329 0.206201
vn -0.691492 -0.692329 0.206201
vn 0.396496 -0.222933 0.890557
vn 0.396496 -0.222933 0.890557
vn 0.396496 -0.222933 0.890557
vn 0.396407 -0.223077 0.890561
vn 0.396408 -0.223077 0.890561
vn 0.396408 -0.223077 0.890560
vn 0.396505 -0.223196 0.890487
vn 0.396505 -0.223196 0.890487
vn 0.396505 -0.223196 0.890487
vn 0.396654 -0.223120 0.890440
vn 0.396654 -0.223120 0.890440
vn 0.396654 -0.223120 0.890440
vn 0.396644 -0.222960 0.890484
vn 0.396644 -0.222960 0.890484
vn 0.396644 -0.222960 0.890484
vn -0.979977 0.083016 -0.180979
vn -0.979977 0.083016 -0.180979
vn -0.979977 0.083016 -0.180979
vn -0.979977 0.083016 -0.180979
vn 0.427195 -0.212181 0.878911
vn 0.427195 -0.212181 0.878911
vn 0.427195 -0.212181 0.878911
vn 0.427195 -0.212181 0.878911
vn 0.847663 0.089802 -0.522879
vn 0.847663 0.089802 -0.522879
vn 0.847663 0.089802 -0.522879
vn 0.847663 0.089802 -0.522879
vn -0.330791 0.189860 -0.924408
vn -0.330791 0.189860 -0.924408
vn -0.330791 0.189860 -0.924408
vn -0.330791 0.189860 -0.924408
vn 0.229389 -0.958486 0.169367
vn 0.229389 -0.958486 0.169367
vn 0.229389 -0.958486 0.169367
vn 0.229389 -0.958486 0.169367
vn 0.219041 0.718559 0.660071
vn 0.219041 0.718559 0.660071
vn 0.219041 0.718559 0.660071
vn 0.219041 0.718559 0.660071
vn -0.328643 -0.203755 0.922213
vn -0.328643 -0.203755 0.922213
vn -0.328643 -0.203755 0.922213
vn -0.328643 -0.203755 0.922213
vn -0.232776 -0.955170 0.182934
vn -0.232776 -0.955170 0.182934
vn -0.232776 -0.955170 0.182934
vn -0.232776 -0.955170 0.182934
vn -0.232776 -0.955170 0.182934
vn 0.168149 0.178522 -0.969462
vn 0.168149 0.178522 -0.969462
vn 0.168149 0.178522 -0.969462
vn 0.168149 0.178522 -0.969462
vn -0.193553 0.703906 0.683413
vn -0.193553 0.703906 0.683413
vn -0.193553 0.703906 0.683413
vn -0.193553 0.703906 0.683413
vn 0.202263 0.608448 -0.767386
vn 0.202263 0.608448 -0.767386
vn 0.202263 0.608448 -0.767386
vn 0.202263 0.608448 -0.767386
vn -0.326874 0.623861 -0.709895
vn -0.326874 0.623861 -0.709895
vn -0.326874 0.623861 -0.709895
vn -0.326874 0.623860 -0.709895
vn 0.815222 0.165756 -0.554922
vn 0.815222 0.165756 -0.554922
vn 0.815222 0.165756 -0.554922
vn 0.815222 0.165756 -0.554922
vn 0.342316 -0.594804 0.727343
vn 0.342316 -0.594804 0.727343
vn 0.342316 -0.594804 0.727343
vn 0.342316 -0.594804 0.727343
vn -0.276712 -0.555239 0.784309
vn -0.276712 -0.555239 0.784309
vn -0.276712 -0.555239 0.784309
vn -0.977776 -0.019673 -0.208728
vn -0.977776 -0.019673 -0.208728
vn -0.977776 -0.019673 -0.208728
vn -0.977776 -0.019673 -0.208728
vn -0.124830 0.700119 0.703029
vn -0.124830 0.700119 0.703029
vn -0.124830 0.700119 0.703029
vn -0.124830 0.700119 0.703029
vn -0.898715 0.411009 0.152919
vn -0.898715 0.411009 0.152919
vn -0.898715 0.411009 0.152919
vn -0.898715 0.411009 0.152919
vn 0.557844 0.290539 0.777430
vn 0.557844 0.290539 0.777430
vn 0.557844 0.290539 0.777430
vn 0.557844 0.290539 0.777430
vn -0.248186 -0.537713 0.805772
vn -0.248187 -0.537713 0.805772
vn -0.248186 -0.537713 0.805772
vn -0.248187 -0.537713 0.805772
vn -0.289469 -0.550357 0.783144
vn -0.289469 -0.550357 0.783144
vn -0.289469 -0.550357 0.783144
vn -0.289469 -0.550357 0.783144
vn 0.284305 0.556766 -0.780501
vn 0.284305 0.556766 -0.780501
vn 0.284305 0.556766 -0.780501
vn 0.284305 0.556766 -0.780501
vn 0.156602 0.610568 -0.776326
vn 0.156602 0.610568 -0.776326
vn 0.156602 0.610568 -0.776326
vn -0.562956 -0.481158 0.671988
vn -0.562956 -0.481158 0.671988
vn -0.562955 -0.481158 0.671988
vn -0.805570 -0.216218 0.551641
vn -0.805570 -0.216218 0.551641
vn -0.805570 -0.216218 0.551641
vn -0.066210 0.971865 -0.226040
vn -0.066210 0.971865 -0.226040
vn -0.066210 0.971865 -0.226040
vn -0.066210 0.971865 -0.226040
vn 0.802516 0.095094 -0.589004
vn 0.802516 0.095094 -0.589004
vn 0.802515 0.095094 -0.589004
vn 0.802515 0.095094 -0.589004
vn 0.009139 -0.934425 -0.356042
vn 0.009139 -0.934425 -0.356042
vn 0.009139 -0.934425 -0.356042
vn 0.009139 -0.934425 -0.356042
vn -0.073730 0.968501 -0.237843
vn -0.073730 0.968501 -0.237843
vn -0.073730 0.968501 -0.237843
vn -0.073730 0.968501 -0.237843
vn -0.060252 -0.935467 -0.348240
vn -0.060252 -0.935467 -0.348240
vn -0.060252 -0.935467 -0.348240
vn -0.060252 -0.935467 -0.348240
vn -0.892713 0.121165 -0.434030
vn -0.892713 0.121165 -0.434030
vn -0.892713 0.121165 -0.434030
vn -0.892713 0.121165 -0.434030
vn -0.336370 0.014155 0.941624
vn -0.336370 0.014155 0.941624
vn -0.336370 0.014155 0.941624
vn -0.336370 0.014155 0.941624
vn -0.336370 0.014155 0.941624
vn 0.420426 0.015438 0.907195
vn 0.420426 0.015438 0.907195
vn 0.420426 0.015438 0.907195
vn 0.420426 0.015438 0.907195
vn 0.844165 -0.164715 -0.510152
vn 0.844165 -0.164715 -0.510152
vn 0.844165 -0.164715 -0.510152
vn 0.844165 -0.164715 -0.510152
vn 0.804514 -0.112789 -0.583126
vn 0.804514 -0.112789 -0.583126
vn 0.804514 -0.112789 -0.583126
vn 0.804514 -0.112789 -0.583126
vn -0.382534 0.037297 -0.923188
vn -0.382534 0.037297 -0.923188
vn -0.382534 0.037297 -0.923188
vn -0.382534 0.037297 -0.923188
vn 0.211676 0.040829 -0.976487
vn 0.211676 0.040829 -0.976487
vn 0.211676 0.040829 -0.976487
vn 0.211676 0.040829 -0.976487
vn -0.895412 -0.066782 -0.440201
vn -0.895412 -0.066782 -0.440201
vn -0.895412 -0.066782 -0.440201
vn -0.895412 -0.066782 -0.440201
vn -0.974905 -0.105502 -0.196034
vn -0.974905 -0.105502 -0.196034
vn -0.974905 -0.105502 -0.196034
vn -0.974905 -0.105502 -0.196034
s off
f 1/1/1 2/2/2 7/3/3 6/4/4
f 2/2/5 3/5/6 8/6/7 7/3/8
f 3/5/9 4/7/10 9/8/11 8/6/12
f 4/7/13 5/9/14 10/10/15 9/8/16
f 5/9/17 1/11/18 6/12/19 10/10/20
f 6/13/21 7/14/22 11/15/23
f 7/14/24 8/16/25 11/15/26
f 8/16/27 9/17/28 11/15/29
f 9/17/30 10/18/31 11/15/32
f 10/18/33 6/13/34 11/15/35
f 12/19/36 13/20/37 18/21/38 17/22/39
f 13/20/40 14/23/41 19/24/42 18/21/43
f 14/23/44 15/25/45 20/26/46 19/24/47
f 15/25/48 16/27/49 21/28/50 20/26/51
f 16/27/52 12/29/53 17/30/54 21/28/55
f 17/31/56 18/32/57 22/33/58
f 18/32/59 19/34/60 22/33/61
f 19/34/62 20/35/63 22/33/64
f 20/35/65 21/36/66 22/33/67
f 21/36/68 17/31/69 22/33/70
f 40/37/71 35/38/72 62/99/73 47/78/74
f 38/41/75 39/42/76 56/92/77 57/93/78
f 37/45/79 38/41/80 57/93/81 58/95/82
f 50/48/83 51/58/84 59/96/85 60/97/86
f 32/49/87 33/50/88 30/51/89 28/52/90
f 29/53/91 34/54/92 31/55/93 27/56/94
f 39/42/95 40/37/96 47/78/97 56/92/98
f 24/39/99 33/50/100 32/49/101 48/80/102 26/40/103
f 54/84/104 50/48/105 60/97/106 61/98/107
f 41/66/108 44/72/109 23/59/110 25/60/111
f 34/61/112 36/47/113 46/75/114 43/71/115
f 29/63/116 37/45/117 36/47/118 34/61/119
f 27/64/120 38/41/121 37/45/122 29/63/123
f 31/65/124 39/42/125 38/41/126 27/64/127
f 45/74/128 40/37/129 39/42/130
f 23/59/131 35/38/132 40/37/133 25/60/134
f 31/55/135 34/54/136 43/70/137 42/68/138
f 42/68/139 43/70/140 46/76/141 45/77/142
f 45/77/143 46/76/144 44/72/145 41/66/146
f 45/74/147 39/42/148 31/65/149 42/69/150
f 25/60/151 40/37/152 45/74/153 41/67/154
f 46/75/155 35/57/156 23/62/157 44/73/158
f 46/75/159 36/47/160 35/57/161
f 48/79/162 49/81/163 26/40/164
f 26/40/165 49/81/166 47/78/167
f 36/86/168 37/87/169 51/58/170 50/48/171
f 37/87/172 58/94/173 59/96/174 51/58/175
f 30/88/176 33/89/177 53/83/178 52/82/179
f 35/90/180 36/86/181 50/48/182 54/84/183
f 33/89/184 24/91/185 55/85/186 53/83/187
f 61/98/188 62/100/189 35/90/190 54/84/191
f 56/92/192 47/78/193 49/81/194 48/79/195 32/43/196
f 57/93/197 56/92/198 32/43/199 28/44/200
f 58/95/201 57/93/202 28/44/203 30/46/204
f 59/96/205 58/94/206 30/88/207 52/82/208
f 60/97/209 59/96/210 52/82/211 53/83/212
f 61/98/213 60/97/214 53/83/215 55/85/216
f 24/91/217 62/100/218 61/98/219 55/85/220
f 47/78/221 62/99/222 24/39/223 26/40/224
