# This file uses centimeters as units for non-parametric coordinates.

v 4.334964 -6.613449 3.677622
v 6.093295 5.164787 4.959682
v 4.997653 -5.680145 7.180087
v 6.358493 4.920036 8.350128
v -3.861844 -5.614838 7.406898
v -4.843869 5.080467 8.737494
v -3.872556 -6.493652 3.794677
v -5.375272 5.365448 5.360862
v 6.555362 3.339340 4.496150
v -5.686490 3.703728 5.113232
v -5.338651 3.362587 8.484809
v 6.422610 3.028976 7.886095
v 5.686526 -3.391731 3.021990
v -5.303433 -3.041267 3.597877
v -5.015744 -3.125343 6.825393
v 5.572574 -3.425697 6.286388
v 6.518344 -0.254082 4.528798
v 6.318057 -0.503845 8.085899
v -5.443204 -0.170242 8.684603
v -5.859403 0.108040 5.157834
v -1.780057 -7.303947 5.026952
v -2.028745 -2.890732 5.234467
v -2.183164 0.155937 6.558943
v -2.034513 3.979843 6.326692
v -2.283200 6.569031 6.421939
v -1.919248 6.246994 9.879044
v -1.479428 3.760353 10.727489
v -1.584012 0.227524 10.927271
v -1.527158 -2.532639 9.033410
v -1.656583 -6.354790 8.798172
v 2.169955 -6.463333 8.603382
v 2.299380 -2.641205 8.838608
v 2.666446 0.106941 10.710893
v 2.770999 3.639793 10.511110
v 3.429355 6.126434 9.662676
v 3.505801 6.428169 6.193219
v 3.015994 3.833504 6.070445
v 2.943301 0.010529 6.297957
v 2.520968 -3.031898 5.010448
v 2.025241 -7.444244 4.816152
v 4.754886 -5.787071 6.500652
v 5.655704 -3.252029 5.614132
v 6.404086 -0.506119 7.335254
v 6.506320 2.910583 7.172631
v 6.241855 4.835312 7.636912
v 3.445956 6.056969 8.955800
v -2.005338 6.179848 9.176317
v -4.990781 4.997047 8.028603
v -5.480741 3.250610 7.782836
v -5.582974 -0.166077 7.945457
v -5.135892 -2.945908 6.163479
v -3.830075 -5.736870 6.678176
v -1.658505 -6.507629 8.049715
v 2.108340 -6.614471 7.857961
v 5.277102 -7.180153 5.305394
v 6.679019 -3.829544 4.323015
v 7.566104 -0.625977 6.279036
v 7.684939 3.461861 6.104386
v 7.223178 5.867348 6.545136
v 4.009341 7.403137 8.141129
v -2.522855 7.555008 8.404913
v -6.117398 6.082893 7.073774
v -6.678952 3.882050 6.834339
v -6.797788 -0.205803 7.008987
v -6.252347 -3.451302 4.980186
v -4.571286 -7.115746 5.525851
v -2.041684 -8.134834 7.112165
v 2.359195 -8.263557 6.888509
v -3.973691 -2.947388 7.762207
v -2.457089 -2.690918 8.715738
v -2.621182 -0.677979 9.763012
v -4.297452 -0.852287 8.793096
v -2.379056 -5.163223 8.397712
v -3.329465 -4.841934 7.781159
v 4.263522 -4.984711 7.635634
v 4.616183 -3.201111 7.294518
v 3.245883 -2.856735 8.497283
v 2.937442 -5.334167 8.066203
v 3.557010 -0.853226 9.448510
v 5.143313 -1.120056 8.312494
v -3.561765 -2.795616 7.444127
v -2.384427 -2.596710 8.178350
v -2.576962 -0.737953 9.064645
v -3.876279 -0.873611 8.314850
v -2.263394 -4.811798 7.865971
v -2.994077 -4.561821 7.377795
v 3.907016 -4.746002 7.226150
v 4.209170 -3.047134 6.997459
v 3.164828 -2.784454 7.963574
v 2.851413 -5.013397 7.502275
v 3.445895 -0.914467 8.759167
v 4.680911 -1.126038 7.890298
vt 0.285612 0.341657
vt 0.285612 0.341657
vt 0.285612 0.341657
vt 0.285612 0.341657
vt 0.285612 0.341657
vt 0.285612 0.341657
vt 0.285612 0.341657
vt 0.285612 0.341657
vt 0.285612 0.341657
vt 0.285612 0.341657
vt 0.285612 0.341657
vt 0.285612 0.341657
vt 0.079485 0.249582
vt 0.079485 0.249582
vt 0.079485 0.249582
vt 0.079485 0.249582
vt 0.285612 0.341657
vt 0.285612 0.341657
vt 0.285612 0.341657
vt 0.285612 0.341657
vt 0.285612 0.341657
vt 0.285612 0.341657
vt 0.285612 0.341657
vt 0.285612 0.341657
vt 0.079485 0.249582
vt 0.079485 0.249582
vt 0.079485 0.249582
vt 0.079485 0.249582
vt 0.285612 0.341657
vt 0.285612 0.341657
vt 0.285612 0.341657
vt 0.285612 0.341657
vt 0.285612 0.341657
vt 0.285612 0.341657
vt 0.285612 0.341657
vt 0.285612 0.341657
vt 0.285612 0.341657
vt 0.285612 0.341657
vt 0.285612 0.341657
vt 0.285612 0.341657
vt 0.079485 0.249582
vt 0.079485 0.249582
vt 0.285612 0.341657
vt 0.285612 0.341657
vt 0.285612 0.341657
vt 0.285612 0.341657
vt 0.285612 0.341657
vt 0.285612 0.341657
vt 0.079485 0.249582
vt 0.079485 0.249582
vt 0.079485 0.249582
vt 0.079485 0.249582
vt 0.079485 0.249582
vt 0.285612 0.341657
vt 0.285612 0.341657
vt 0.285612 0.341657
vt 0.285612 0.341657
vt 0.079485 0.249582
vt 0.079485 0.249582
vt 0.079485 0.249582
vt 0.079485 0.249582
vt 0.079485 0.249582
vt 0.079485 0.249582
vt 0.079485 0.249582
vt 0.079485 0.249582
vt 0.079485 0.249582
vt 0.079485 0.249582
vt 0.079485 0.249582
vt 0.079485 0.249582
vt 0.079485 0.249582
vt 0.079485 0.249582
vt 0.079485 0.249582
vt 0.079485 0.249582
vt 0.079485 0.249582
vt 0.079485 0.249582
vt 0.079485 0.249582
vt 0.079485 0.249582
vt 0.079485 0.249582
vt 0.079485 0.249582
vt 0.079485 0.249582
vt 0.079485 0.249582
vt 0.079485 0.249582
vt 0.079485 0.249582
vt 0.079485 0.249582
vt 0.079485 0.249582
vt 0.079485 0.249582
vt 0.079485 0.249582
vt 0.079485 0.249582
vt 0.079485 0.249582
vt 0.079485 0.249582
vt 0.285612 0.341657
vt 0.285612 0.341657
vt 0.285612 0.341657
vt 0.285612 0.341657
vt 0.285612 0.341657
vt 0.285612 0.341657
vt 0.285612 0.341657
vt 0.285612 0.341657
vt 0.285612 0.341657
vt 0.285612 0.341657
vt 0.285612 0.341657
vt 0.285612 0.341657
vt 0.285612 0.341657
vt 0.285612 0.341657
vt 0.285612 0.341657
vt 0.285612 0.341657
vt 0.285612 0.341657
vt 0.285612 0.341657
vt 0.285612 0.341657
vt 0.285612 0.341657
vt 0.285612 0.341657
vt 0.285612 0.341657
vt 0.285612 0.341657
vt 0.285612 0.341657
vt 0.080682 0.254942
vt 0.080682 0.254942
vt 0.080682 0.254942
vt 0.080682 0.254942
vt 0.080682 0.254942
vt 0.080682 0.254942
vt 0.080682 0.254942
vt 0.080682 0.254942
vt 0.080682 0.254942
vt 0.080682 0.254942
vt 0.080682 0.254942
vt 0.080682 0.254942
vn 0.994856 0.094529 -0.036420
vn 0.994856 0.094529 -0.036420
vn 0.994856 0.094529 -0.036420
vn 0.994856 0.094529 -0.036420
vn 0.050694 0.320509 0.945888
vn 0.050694 0.320509 0.945888
vn 0.050694 0.320509 0.945888
vn 0.050694 0.320509 0.945888
vn -0.955164 0.248305 0.161265
vn -0.955164 0.248305 0.161265
vn -0.955164 0.248305 0.161265
vn -0.955164 0.248305 0.161265
vn -0.043489 0.044000 -0.998084
vn -0.043489 0.044000 -0.998084
vn -0.043489 0.044000 -0.998084
vn -0.043489 0.044000 -0.998085
vn 0.018492 0.995078 -0.097351
vn 0.018492 0.995078 -0.097351
vn 0.018492 0.995078 -0.097351
vn 0.018492 0.995078 -0.097351
vn -0.017601 -0.979620 0.200089
vn -0.017601 -0.979620 0.200089
vn -0.017601 -0.979620 0.200089
vn -0.017601 -0.979620 0.200089
vn -0.034303 0.395264 -0.917927
vn -0.034303 0.395264 -0.917927
vn -0.034303 0.395264 -0.917927
vn -0.034303 0.395264 -0.917927
vn -0.959760 -0.239478 0.146668
vn -0.959760 -0.239478 0.146668
vn -0.959760 -0.239478 0.146668
vn -0.959760 -0.239478 0.146668
vn -0.031729 -0.563190 0.825718
vn -0.035768 -0.327798 0.944070
vn 0.110360 -0.330433 0.937355
vn 0.080923 -0.564753 0.821283
vn 0.951249 -0.298626 0.077117
vn 0.951249 -0.298626 0.077117
vn 0.951249 -0.298626 0.077117
vn 0.951249 -0.298626 0.077117
vn -0.050342 0.046830 -0.997634
vn -0.050342 0.046830 -0.997634
vn -0.050342 0.046830 -0.997634
vn -0.050342 0.046830 -0.997634
vn -0.908932 -0.414959 0.040635
vn -0.908932 -0.414959 0.040635
vn -0.908932 -0.414959 0.040635
vn -0.908932 -0.414959 0.040635
vn 0.110360 -0.330433 0.937355
vn -0.035768 -0.327798 0.944070
vn -0.015344 -0.063934 0.997836
vn 0.104379 -0.063911 0.992482
vn 0.933708 -0.334827 -0.126807
vn 0.933708 -0.334827 -0.126807
vn 0.933708 -0.334827 -0.126807
vn 0.933708 -0.334827 -0.126807
vn 0.992851 -0.023439 0.117036
vn 0.992851 -0.023439 0.117036
vn 0.992851 -0.023439 0.117036
vn 0.992851 -0.023439 0.117036
vn 0.052317 0.054839 0.997124
vn 0.052317 0.054839 0.997124
vn 0.052317 0.054839 0.997124
vn 0.052317 0.054839 0.997124
vn -0.981203 0.039051 0.188987
vn -0.981203 0.039051 0.188987
vn -0.981203 0.039051 0.188987
vn -0.981203 0.039051 0.188987
vn -0.052342 -0.058424 -0.996919
vn -0.052342 -0.058424 -0.996919
vn -0.052342 -0.058424 -0.996919
vn -0.052342 -0.058424 -0.996919
vn 0.478732 0.103413 -0.871850
vn 0.478732 0.103413 -0.871850
vn 0.478732 0.103413 -0.871849
vn 0.478732 0.103413 -0.871850
vn 0.351648 0.427922 -0.832602
vn 0.351648 0.427922 -0.832602
vn 0.351648 0.427922 -0.832602
vn 0.351648 0.427922 -0.832602
vn 0.337568 -0.049705 -0.939988
vn 0.337568 -0.049705 -0.939988
vn 0.337568 -0.049705 -0.939988
vn 0.337568 -0.049705 -0.939988
vn 0.304501 0.072130 -0.949777
vn 0.304501 0.072130 -0.949777
vn 0.304501 0.072130 -0.949777
vn 0.304501 0.072130 -0.949777
vn -0.355350 0.933836 -0.040945
vn -0.355350 0.933836 -0.040945
vn -0.355350 0.933836 -0.040945
vn -0.355350 0.933836 -0.040945
vn -0.466463 0.130070 0.874925
vn -0.466463 0.130070 0.874925
vn -0.466463 0.130070 0.874925
vn -0.466463 0.130070 0.874925
vn -0.506321 0.063621 0.859995
vn -0.506321 0.063621 0.859995
vn -0.506321 0.063621 0.859995
vn -0.506321 0.063621 0.859995
vn -0.421269 -0.428072 0.799554
vn -0.421269 -0.428072 0.799554
vn -0.421269 -0.428072 0.799554
vn -0.421269 -0.428072 0.799554
vn -0.534729 -0.171216 0.827496
vn -0.534729 -0.171216 0.827496
vn -0.534729 -0.171216 0.827496
vn -0.534729 -0.171216 0.827496
vn -0.410224 -0.898049 0.158821
vn -0.410224 -0.898049 0.158821
vn -0.410224 -0.898049 0.158821
vn -0.410224 -0.898049 0.158821
vn 0.505059 -0.129686 0.853286
vn 0.505059 -0.129686 0.853286
vn 0.505059 -0.129686 0.853286
vn 0.505059 -0.129686 0.853286
vn 0.509086 -0.432514 0.744153
vn 0.509086 -0.432514 0.744153
vn 0.509086 -0.432514 0.744153
vn 0.509086 -0.432514 0.744153
vn 0.586590 0.028414 0.809386
vn 0.586590 0.028414 0.809386
vn 0.586590 0.028414 0.809386
vn 0.586590 0.028414 0.809386
vn 0.514551 0.005445 0.857442
vn 0.514551 0.005445 0.857442
vn 0.514551 0.005445 0.857442
vn 0.514551 0.005445 0.857442
vn 0.338097 0.932761 -0.125091
vn 0.338097 0.932761 -0.125091
vn 0.338097 0.932761 -0.125091
vn 0.338097 0.932761 -0.125091
vn -0.383847 0.123787 -0.915062
vn -0.383847 0.123787 -0.915062
vn -0.383847 0.123787 -0.915062
vn -0.383847 0.123787 -0.915062
vn -0.427407 -0.025378 -0.903703
vn -0.427407 -0.025378 -0.903703
vn -0.427407 -0.025379 -0.903703
vn -0.427407 -0.025379 -0.903703
vn -0.404660 0.443671 -0.799629
vn -0.404660 0.443671 -0.799629
vn -0.404660 0.443671 -0.799629
vn -0.404660 0.443671 -0.799629
vn -0.499205 0.068599 -0.863764
vn -0.499205 0.068599 -0.863764
vn -0.499205 0.068599 -0.863764
vn -0.499205 0.068599 -0.863764
vn 0.327350 -0.939571 0.100243
vn 0.327350 -0.939571 0.100243
vn 0.327350 -0.939571 0.100243
vn 0.327350 -0.939571 0.100243
vn 0.796047 -0.123297 0.592543
vn 0.796047 -0.123297 0.592543
vn 0.796047 -0.123297 0.592543
vn 0.796047 -0.123297 0.592543
vn 0.525337 -0.547163 0.651639
vn 0.525337 -0.547163 0.651639
vn 0.525337 -0.547163 0.651639
vn 0.525337 -0.547163 0.651639
vn 0.670651 0.013575 0.741649
vn 0.670651 0.013575 0.741649
vn 0.670651 0.013575 0.741649
vn 0.670651 0.013575 0.741649
vn 0.716222 -0.025641 0.697402
vn 0.716222 -0.025641 0.697402
vn 0.716222 -0.025641 0.697402
vn 0.716222 -0.025641 0.697402
vn 0.523997 0.298971 0.797524
vn 0.523997 0.298971 0.797524
vn 0.523997 0.298971 0.797524
vn 0.523997 0.298971 0.797524
vn 0.046412 0.502420 0.863377
vn 0.046412 0.502420 0.863377
vn 0.046412 0.502420 0.863377
vn 0.046412 0.502420 0.863377
vn -0.439896 0.299881 0.846501
vn -0.439895 0.299881 0.846501
vn -0.439895 0.299881 0.846501
vn -0.439895 0.299881 0.846501
vn -0.603850 0.063188 0.794589
vn -0.603850 0.063188 0.794589
vn -0.603850 0.063188 0.794589
vn -0.603850 0.063188 0.794589
vn -0.606537 0.053518 0.793252
vn -0.606537 0.053518 0.793252
vn -0.606536 0.053518 0.793252
vn -0.606536 0.053518 0.793252
vn -0.505336 -0.519177 0.689268
vn -0.505336 -0.519177 0.689268
vn -0.505336 -0.519177 0.689268
vn -0.505336 -0.519177 0.689268
vn -0.681871 -0.199921 0.703622
vn -0.681871 -0.199921 0.703622
vn -0.681871 -0.199921 0.703622
vn -0.681871 -0.199921 0.703622
vn -0.587409 -0.302216 0.750743
vn -0.587409 -0.302216 0.750743
vn -0.587409 -0.302216 0.750743
vn -0.587409 -0.302216 0.750743
vn 0.029383 -0.503720 0.863367
vn 0.029383 -0.503720 0.863367
vn 0.029383 -0.503720 0.863367
vn 0.029383 -0.503720 0.863367
vn 0.531678 -0.397176 0.748044
vn 0.531678 -0.397176 0.748044
vn 0.531678 -0.397176 0.748044
vn 0.531678 -0.397176 0.748044
vn 0.677195 -0.432136 -0.595538
vn 0.677195 -0.432136 -0.595538
vn 0.677195 -0.432136 -0.595538
vn 0.677195 -0.432136 -0.595538
vn 0.837657 0.068828 -0.541842
vn 0.837657 0.068828 -0.541842
vn 0.837657 0.068828 -0.541842
vn 0.837657 0.068828 -0.541842
vn 0.837592 -0.031713 -0.545375
vn 0.837592 -0.031713 -0.545375
vn 0.837592 -0.031713 -0.545375
vn 0.837592 -0.031713 -0.545375
vn 0.743967 0.291009 -0.601521
vn 0.743967 0.291009 -0.601521
vn 0.743967 0.291009 -0.601521
vn 0.743967 0.291009 -0.601521
vn 0.175193 0.855550 -0.487177
vn 0.175193 0.855550 -0.487177
vn 0.175193 0.855550 -0.487177
vn 0.175193 0.855550 -0.487177
vn 0.003407 0.894739 -0.446576
vn 0.003407 0.894739 -0.446576
vn 0.003407 0.894739 -0.446576
vn 0.003407 0.894739 -0.446576
vn -0.187395 0.872224 -0.451784
vn -0.187395 0.872224 -0.451784
vn -0.187395 0.872224 -0.451784
vn -0.187395 0.872224 -0.451784
vn -0.836278 0.250468 -0.487755
vn -0.836278 0.250468 -0.487755
vn -0.836278 0.250468 -0.487755
vn -0.836278 0.250468 -0.487755
vn -0.879859 0.019860 -0.474820
vn -0.879859 0.019860 -0.474820
vn -0.879859 0.019860 -0.474820
vn -0.879859 0.019860 -0.474820
vn -0.868871 0.119894 -0.480300
vn -0.868871 0.119894 -0.480300
vn -0.868871 0.119894 -0.480300
vn -0.868871 0.119894 -0.480300
vn -0.756396 -0.385849 -0.528192
vn -0.756396 -0.385849 -0.528192
vn -0.756396 -0.385849 -0.528192
vn -0.756396 -0.385849 -0.528192
vn -0.129847 -0.915343 -0.381166
vn -0.129847 -0.915343 -0.381165
vn -0.129847 -0.915343 -0.381165
vn -0.129847 -0.915343 -0.381166
vn -0.049909 -0.928601 -0.367708
vn -0.049909 -0.928601 -0.367708
vn -0.049909 -0.928601 -0.367708
vn -0.049909 -0.928601 -0.367708
vn 0.132380 -0.912354 -0.387410
vn 0.132380 -0.912354 -0.387410
vn 0.132380 -0.912354 -0.387410
vn 0.132380 -0.912354 -0.387410
vn -0.035768 -0.327798 0.944070
vn -0.031729 -0.563190 0.825718
vn -0.356968 -0.518789 0.776809
vn -0.398207 -0.274341 0.875310
vn -0.031729 -0.563190 0.825718
vn -0.436159 -0.505287 0.744614
vn -0.427143 -0.509638 0.746872
vn -0.356968 -0.518789 0.776809
vn -0.436159 -0.505287 0.744614
vn -0.527533 -0.340686 0.778230
vn -0.523283 -0.352504 0.775832
vn -0.427143 -0.509638 0.746872
vn -0.015344 -0.063934 0.997836
vn -0.035768 -0.327798 0.944070
vn -0.398207 -0.274341 0.875310
vn -0.478934 -0.062715 0.875608
vn -0.527533 -0.340686 0.778230
vn -0.571381 -0.095979 0.815053
vn -0.571891 -0.097133 0.814559
vn -0.523283 -0.352504 0.775832
vn -0.571381 -0.095979 0.815053
vn -0.015344 -0.063934 0.997836
vn -0.478934 -0.062715 0.875608
vn -0.571891 -0.097133 0.814559
vn 0.583194 0.057596 0.810288
vn 0.674419 0.069849 0.735037
vn 0.674419 0.069850 0.735037
vn 0.554222 0.053762 0.830631
vn 0.110360 -0.330433 0.937355
vn 0.104379 -0.063911 0.992482
vn 0.464139 -0.060908 0.883666
vn 0.447346 -0.304892 0.840787
vn 0.104379 -0.063911 0.992482
vn 0.583194 0.057596 0.810288
vn 0.554222 0.053762 0.830631
vn 0.464139 -0.060908 0.883666
vn 0.080923 -0.564753 0.821283
vn 0.110360 -0.330433 0.937355
vn 0.447346 -0.304892 0.840787
vn 0.390641 -0.533408 0.750250
vn 0.498047 -0.518238 0.695255
vn 0.472091 -0.529838 0.704558
vn 0.463369 -0.533589 0.707511
vn 0.498047 -0.518238 0.695255
vn 0.472091 -0.529838 0.704558
vn 0.080923 -0.564753 0.821283
vn 0.390641 -0.533408 0.750250
vn 0.463369 -0.533589 0.707511
vn -0.990106 -0.031165 -0.136814
vn -0.994477 -0.044019 -0.095281
vn -0.994477 -0.044019 -0.095281
vn -0.989164 -0.028947 -0.143935
vn 0.052005 -0.994647 0.089294
vn 0.052005 -0.994647 0.089294
vn 0.052005 -0.994647 0.089294
vn 0.052005 -0.994647 0.089294
vn 0.692118 -0.216041 0.688693
vn 0.674990 -0.031657 0.737147
vn 0.673113 -0.020175 0.739265
vn 0.692118 -0.216041 0.688693
vn -0.983417 -0.017487 -0.180515
vn -0.990106 -0.031165 -0.136814
vn -0.989164 -0.028947 -0.143935
vn -0.983417 -0.017487 -0.180515
vn 0.674990 -0.031657 0.737147
vn 0.620306 0.195525 0.759599
vn 0.620306 0.195525 0.759599
vn 0.673113 -0.020175 0.739265
vn -0.066446 0.841449 0.536236
vn -0.066446 0.841449 0.536236
vn -0.066446 0.841449 0.536236
vn -0.066446 0.841449 0.536236
vn -0.591237 0.237291 0.770799
vn -0.635809 -0.000225 0.771847
vn -0.637049 -0.011962 0.770730
vn -0.591237 0.237291 0.770799
vn 0.981797 -0.087299 -0.168684
vn 0.978577 -0.094630 -0.182846
vn 0.978577 -0.094630 -0.182846
vn 0.981086 -0.088970 -0.171913
vn -0.066386 0.851748 0.519729
vn -0.066386 0.851748 0.519729
vn -0.066386 0.851748 0.519729
vn -0.066386 0.851748 0.519729
vn 0.984568 -0.080434 -0.155424
vn 0.981797 -0.087299 -0.168684
vn 0.981086 -0.088970 -0.171913
vn 0.984568 -0.080434 -0.155424
vn -0.635809 -0.000225 0.771847
vn -0.644760 -0.192294 0.739803
vn -0.644760 -0.192294 0.739802
vn -0.637049 -0.011962 0.770730
vn -0.091702 -0.990001 0.107182
vn -0.091702 -0.990001 0.107182
vn -0.091702 -0.990001 0.107182
vn -0.091702 -0.990001 0.107182
s off
f 12/1/1 44/2/2 45/3/3 4/4/4
f 26/5/5 27/6/6 34/7/7 35/8/8
f 48/9/9 49/10/10 11/11/11 6/12/12
f 24/13/13 25/14/14 36/15/15 37/16/16
f 46/17/17 47/18/18 26/19/19 35/20/20
f 30/21/21 53/22/22 54/23/23 31/24/24
f 22/25/25 23/26/26 38/27/27 39/28/28
f 50/29/29 51/30/30 15/31/31 19/32/32
f 28/33/33 29/34/34 32/35/35 33/36/36
f 16/37/37 42/38/38 43/39/39 18/40/40
f 40/41/41 21/42/42 22/25/43 39/28/44
f 5/43/45 15/31/46 51/30/47 52/44/48
f 32/35/49 29/34/50 30/45/51 31/46/52
f 41/47/53 42/38/54 16/37/55 3/48/56
f 18/40/57 43/39/58 44/2/59 12/1/60
f 34/7/61 27/6/62 28/33/63 33/36/64
f 49/10/65 50/29/66 19/32/67 11/11/68
f 38/27/69 23/26/70 24/13/71 37/16/72
f 7/49/73 14/50/74 22/25/75 21/42/76
f 23/26/77 22/25/78 14/50/79 20/51/80
f 24/13/81 23/26/82 20/51/83 10/52/84
f 25/14/85 24/13/86 10/52/87 8/53/88
f 26/19/89 47/18/90 48/54/91 6/55/92
f 11/11/93 27/6/94 26/5/95 6/12/96
f 19/32/97 28/33/98 27/6/99 11/11/100
f 81/115/101 82/116/102 83/117/103 84/118/104
f 85/119/105 82/116/106 81/115/107 86/120/108
f 52/56/109 53/22/110 30/21/111 5/57/112
f 87/121/113 88/122/114 89/123/115 90/124/116
f 91/125/117 89/123/118 88/122/119 92/126/120
f 34/7/121 33/36/122 18/40/123 12/1/124
f 35/8/125 34/7/126 12/1/127 4/4/128
f 45/3/129 46/17/130 35/20/131 4/4/132
f 9/58/133 37/16/134 36/15/135 2/59/136
f 17/60/137 38/27/138 37/16/139 9/58/140
f 13/61/141 39/28/142 38/27/143 17/60/144
f 40/41/145 39/28/146 13/61/147 1/62/148
f 31/24/149 54/23/150 41/47/151 3/48/152
f 55/63/153 56/64/154 42/65/155 41/66/156
f 43/67/157 42/65/158 56/64/159 57/68/160
f 44/69/161 43/67/162 57/68/163 58/70/164
f 45/71/165 44/69/166 58/70/167 59/72/168
f 59/72/169 60/73/170 46/74/171 45/71/172
f 60/73/173 61/75/174 47/76/175 46/74/176
f 48/77/177 47/76/178 61/75/179 62/78/180
f 62/78/181 63/79/182 49/80/183 48/77/184
f 63/79/185 64/81/186 50/82/187 49/80/188
f 64/81/189 65/83/190 51/84/191 50/82/192
f 52/85/193 51/84/194 65/83/195 66/86/196
f 66/86/197 67/87/198 53/88/199 52/85/200
f 54/89/201 53/88/202 67/87/203 68/90/204
f 41/66/205 54/89/206 68/90/207 55/63/208
f 1/62/209 13/61/210 56/64/211 55/63/212
f 57/68/213 56/64/214 13/61/215 17/60/216
f 58/70/217 57/68/218 17/60/219 9/58/220
f 59/72/221 58/70/222 9/58/223 2/59/224
f 2/59/225 36/15/226 60/73/227 59/72/228
f 36/15/229 25/14/230 61/75/231 60/73/232
f 62/78/233 61/75/234 25/14/235 8/53/236
f 10/52/237 63/79/238 62/78/239 8/53/240
f 20/51/241 64/81/242 63/79/243 10/52/244
f 14/50/245 65/83/246 64/81/247 20/51/248
f 66/86/249 65/83/250 14/50/251 7/49/252
f 7/49/253 21/42/254 67/87/255 66/86/256
f 68/90/257 67/87/258 21/42/259 40/41/260
f 55/63/261 68/90/262 40/41/263 1/62/264
f 29/34/265 28/33/266 71/92/267 70/91/268
f 28/33/269 19/32/270 72/93/271 71/92/272
f 19/32/273 15/31/274 69/94/275 72/93/276
f 30/45/277 29/34/278 70/91/279 73/95/280
f 15/31/281 5/43/282 74/96/283 69/94/284
f 5/43/285 30/45/286 73/95/287 74/96/288
f 3/48/289 16/37/290 76/98/291 75/97/292
f 32/35/293 31/46/294 78/100/295 77/99/296
f 31/46/297 3/48/298 75/97/299 78/100/300
f 33/36/301 32/35/302 77/99/303 79/101/304
f 16/37/305 18/40/306 80/102/307 76/98/308
f 18/40/309 33/36/310 79/101/311 80/102/312
f 70/91/313 71/92/314 83/104/315 82/103/316
f 71/92/317 72/93/318 84/105/319 83/104/320
f 72/93/321 69/94/322 81/106/323 84/105/324
f 73/95/325 70/91/326 82/103/327 85/107/328
f 69/94/329 74/96/330 86/108/331 81/106/332
f 74/96/333 73/95/334 85/107/335 86/108/336
f 75/97/337 76/98/338 88/110/339 87/109/340
f 77/99/341 78/100/342 90/112/343 89/111/344
f 78/100/345 75/97/346 87/109/347 90/112/348
f 79/101/349 77/99/350 89/111/351 91/113/352
f 76/98/353 80/102/354 92/114/355 88/110/356
f 80/102/357 79/101/358 91/113/359 92/114/360
