# This file uses centimeters as units for non-parametric coordinates.

v -7.332031 7.886917 13.456335
v -0.780273 7.771133 14.077330
v -7.259766 11.708206 13.373332
v -0.705811 11.592422 13.996343
v -7.135498 11.657425 11.144757
v -0.579102 11.541641 11.513408
v -7.207520 7.836136 11.227887
v -0.651367 7.720352 11.596534
v -3.842529 12.381729 11.312167
v -3.962402 12.432510 13.705060
v -4.067139 7.046829 13.819277
v -3.924805 7.020340 11.019935
v -0.320068 12.275040 -13.521426
v -0.368164 13.766678 -13.721854
v -0.439697 12.200516 -12.042038
v -0.497559 13.790298 -12.208574
v 9.305176 14.379044 12.306061
v 9.072021 15.636002 12.201297
v 7.373535 15.218765 10.541160
v 7.606934 13.961807 10.645921
v 2.667969 11.990494 13.721081
v 2.195313 13.182816 13.703871
v 1.927979 13.175613 12.110835
v 2.400635 11.983353 12.127925
v -1.019531 10.277054 13.828240
v -2.344482 11.383499 13.479188
v -2.611816 11.038467 12.212586
v -1.286865 9.932083 12.561639
v -11.004150 9.654007 7.454089
v -9.753906 9.680618 7.168410
v -11.043213 10.838821 7.393012
v -9.793213 10.865494 7.107442
v -8.506836 9.224258 12.702674
v -7.726318 9.171768 11.686072
v -7.652100 10.365189 11.513342
v -8.432617 10.417679 12.529822
v -7.000000 9.234268 12.394568
v -6.510010 9.181778 11.210486
v -6.482910 10.510818 11.044227
v -6.973145 10.563370 12.228309
v -11.046631 11.401993 -2.351049
v -12.135010 11.437271 -2.643651
v -12.322510 12.600052 -2.272436
v -11.234131 12.564835 -1.979833
v 10.310303 16.441727 6.153174
v 12.123291 16.662735 6.754708
v 11.879639 15.271561 6.780096
v 10.066895 15.050430 6.178569
v 10.855225 17.289261 -3.191997
v 12.685791 17.458939 -3.083983
v 12.561768 16.045853 -3.082894
v 10.731445 15.876175 -3.190905
v -10.903564 11.129227 -9.723061
v -11.672119 11.312393 -10.135279
v -11.709961 12.396927 -10.114483
v -10.863525 12.318680 -9.650559
v -7.499268 11.548538 -11.272920
v -7.888672 11.685318 -12.140839
v -7.930664 12.943680 -12.214510
v -7.500977 12.908951 -11.302492
v 7.604980 14.947647 -11.032327
v 8.461426 15.006607 -11.852681
v 8.436035 13.548599 -11.737449
v 7.585205 13.433365 -10.936501
v 10.065186 16.006058 -9.120909
v 11.259033 16.243607 -9.617547
v 11.305176 14.801468 -9.681412
v 10.116943 14.530472 -9.200272
vt 0.405178 0.366740
vt 0.405178 0.366740
vt 0.405178 0.366740
vt 0.405178 0.366740
vt 0.405178 0.366740
vt 0.405178 0.366740
vt 0.405178 0.366740
vt 0.405178 0.366740
vt 0.405178 0.366740
vt 0.405178 0.366740
vt 0.405178 0.366740
vt 0.405178 0.366740
vt 0.405178 0.366740
vt 0.405178 0.366740
vt 0.405178 0.366740
vt 0.405178 0.366740
vt 0.405178 0.366740
vt 0.405178 0.366740
vt 0.405178 0.366740
vt 0.405178 0.366740
vt 0.405178 0.366740
vt 0.405178 0.366740
vt 0.405178 0.366740
vt 0.405178 0.366740
vt 0.405178 0.366740
vt 0.405178 0.366740
vt 0.405178 0.366740
vt 0.405178 0.366740
vt 0.405178 0.366740
vt 0.405178 0.366740
vt 0.405178 0.366740
vt 0.405178 0.366740
vt 0.405178 0.366740
vt 0.405178 0.366740
vt 0.405178 0.366740
vt 0.405178 0.366740
vt 0.405178 0.366740
vt 0.405178 0.366740
vt 0.405178 0.366740
vt 0.405178 0.366740
vt 0.405178 0.366740
vt 0.405178 0.366740
vt 0.405178 0.366740
vt 0.405178 0.366740
vt 0.405178 0.366740
vt 0.405178 0.366740
vt 0.405178 0.366740
vt 0.405178 0.366740
vt 0.405178 0.366740
vt 0.405178 0.366740
vt 0.405178 0.366740
vt 0.405178 0.366740
vt 0.405178 0.366740
vt 0.405178 0.366740
vt 0.405178 0.366740
vt 0.405178 0.366740
vt 0.405178 0.366740
vt 0.405178 0.366740
vt 0.405178 0.366740
vt 0.405178 0.366740
vt 0.405178 0.366740
vt 0.405178 0.366740
vt 0.405178 0.366740
vt 0.405178 0.366740
vt 0.405178 0.366740
vt 0.405178 0.366740
vt 0.405178 0.366740
vt 0.405178 0.366740
vt 0.405178 0.366740
vt 0.405178 0.366740
vt 0.405178 0.366740
vt 0.405178 0.366740
vt 0.405178 0.366740
vt 0.405178 0.366740
vt 0.405178 0.366740
vt 0.405178 0.366740
vt 0.405178 0.366740
vt 0.405178 0.366740
vt 0.405178 0.366740
vt 0.405178 0.366740
vt 0.405178 0.366740
vt 0.405178 0.366740
vt 0.405178 0.366740
vt 0.405178 0.366740
vt 0.405178 0.366740
vt 0.405178 0.366740
vt 0.405178 0.366740
vt 0.405178 0.366740
vt 0.405178 0.366740
vn -0.157369 0.022743 0.987278
vn -0.157370 0.022743 0.987278
vn -0.157369 0.022743 0.987278
vn -0.157370 0.022743 0.987278
vn 0.249286 0.968273 0.017428
vn 0.249286 0.968273 0.017428
vn 0.249286 0.968273 0.017428
vn 0.249286 0.968273 0.017428
vn 0.203611 -0.978025 0.044841
vn 0.203611 -0.978025 0.044841
vn 0.203611 -0.978025 0.044841
vn 0.203611 -0.978025 0.044841
vn 0.987317 -0.017626 0.157780
vn 0.987317 -0.017626 0.157780
vn 0.987317 -0.017626 0.157780
vn 0.987317 -0.017626 0.157780
vn -0.987318 0.017630 -0.157773
vn -0.987318 0.017630 -0.157773
vn -0.987318 0.017630 -0.157773
vn -0.987318 0.017630 -0.157773
vn -0.208440 0.976447 -0.055722
vn -0.208440 0.976447 -0.055722
vn -0.208440 0.976447 -0.055722
vn -0.208440 0.976447 -0.055722
vn -0.157368 0.022744 0.987278
vn -0.157368 0.022744 0.987278
vn -0.157368 0.022744 0.987278
vn -0.157368 0.022744 0.987278
vn -0.249222 -0.968288 -0.017496
vn -0.249222 -0.968288 -0.017496
vn -0.249222 -0.968288 -0.017496
vn -0.249222 -0.968288 -0.017496
vn 0.941957 -0.253967 0.219584
vn 0.941957 -0.253967 0.219584
vn 0.354811 -0.072789 -0.932100
vn 0.308137 -0.083076 -0.947708
vn 0.021827 0.990671 0.134515
vn 0.021827 0.990671 0.134515
vn -0.158160 0.984871 -0.070821
vn -0.185049 0.977366 -0.102533
vn -0.010071 -0.986846 -0.161350
vn -0.010071 -0.986846 -0.161350
vn 0.208815 -0.976009 0.061674
vn 0.176375 -0.984179 0.016844
vn 0.163622 -0.043807 0.985550
vn 0.163622 -0.043807 0.985550
vn 0.163622 -0.043807 0.985550
vn 0.163622 -0.043807 0.985550
vn -0.303490 0.923479 0.234693
vn -0.303490 0.923479 0.234694
vn -0.303490 0.923479 0.234693
vn -0.303490 0.923479 0.234693
vn 0.304230 -0.923155 -0.235007
vn 0.304230 -0.923155 -0.235007
vn 0.304230 -0.923155 -0.235007
vn 0.304230 -0.923155 -0.235007
vn -0.149617 0.092680 0.984391
vn -0.149617 0.092680 0.984391
vn -0.149617 0.092680 0.984391
vn -0.149617 0.092680 0.984391
vn -0.391925 0.918934 -0.044221
vn -0.391925 0.918934 -0.044221
vn -0.391925 0.918934 -0.044221
vn -0.391925 0.918934 -0.044221
vn 0.367655 -0.928587 0.050561
vn 0.367655 -0.928587 0.050561
vn 0.367655 -0.928587 0.050561
vn 0.367655 -0.928587 0.050561
vn -0.101947 0.992929 0.060812
vn -0.104012 0.993158 0.053099
vn 0.030156 0.996902 0.072643
vn 0.030156 0.996902 0.072643
vn -0.069222 -0.991888 -0.106611
vn -0.069222 -0.991888 -0.106611
vn 0.050377 -0.989968 -0.132007
vn 0.046222 -0.989171 -0.139302
vn -0.969520 -0.242127 -0.037496
vn -0.281417 -0.081326 -0.956133
vn -0.266732 -0.084531 -0.960056
vn -0.969520 -0.242127 -0.037496
vn -0.049854 -0.996181 -0.071685
vn -0.049854 -0.996181 -0.071685
vn -0.049854 -0.996181 -0.071685
vn -0.049854 -0.996181 -0.071685
vn 0.050014 0.996145 0.072069
vn 0.050014 0.996145 0.072069
vn 0.050014 0.996145 0.072069
vn 0.050014 0.996145 0.072069
vn -0.931748 0.029440 0.361910
vn -0.931748 0.029440 0.361910
vn -0.931748 0.029440 0.361910
vn -0.931748 0.029440 0.361910
vn 0.025235 -0.997745 0.062193
vn 0.025235 -0.997745 0.062193
vn 0.025235 -0.997745 0.062193
vn 0.025235 -0.997745 0.062193
vn -0.147326 0.980261 -0.131848
vn -0.147326 0.980261 -0.131848
vn -0.147326 0.980261 -0.131848
vn -0.147326 0.980261 -0.131848
vn 0.193591 0.123089 0.973330
vn 0.193591 0.123089 0.973330
vn 0.193591 0.123089 0.973330
vn 0.193591 0.123089 0.973330
vn 0.002543 -0.984522 -0.175243
vn 0.002543 -0.984522 -0.175243
vn 0.002543 -0.984522 -0.175243
vn 0.002543 -0.984522 -0.175243
vn -0.991746 -0.098619 0.081941
vn -0.991746 -0.098619 0.081941
vn -0.991746 -0.098619 0.081941
vn -0.991746 -0.098619 0.081941
vn -0.002571 0.984026 0.178006
vn -0.002571 0.984026 0.178006
vn -0.002571 0.984026 0.178006
vn -0.002571 0.984026 0.178006
vn -0.166641 0.982785 0.079777
vn -0.166306 0.982843 0.079763
vn 0.021827 0.990671 0.134515
vn 0.021827 0.990671 0.134515
vn 0.971325 -0.069081 0.227501
vn 0.979429 -0.084842 0.183086
vn 0.941957 -0.253967 0.219584
vn 0.941957 -0.253967 0.219584
vn 0.162860 -0.983741 -0.075702
vn 0.165384 -0.983312 -0.075805
vn -0.010071 -0.986846 -0.161350
vn -0.010071 -0.986846 -0.161350
vn -0.131978 0.991252 0.000889
vn -0.134331 0.990794 -0.016795
vn -0.166306 0.982843 0.079763
vn -0.166641 0.982785 0.079777
vn 0.994970 -0.084987 -0.053030
vn 0.995071 -0.088704 -0.044334
vn 0.979429 -0.084842 0.183086
vn 0.971325 -0.069081 0.227501
vn 0.137876 -0.990232 0.020750
vn 0.135220 -0.990799 0.005748
vn 0.165384 -0.983312 -0.075805
vn 0.162860 -0.983741 -0.075702
vn -0.090895 -0.994297 -0.055777
vn -0.085944 -0.994052 -0.066890
vn -0.069222 -0.991888 -0.106611
vn -0.069222 -0.991888 -0.106611
vn -0.903751 -0.077387 -0.421006
vn -0.906839 -0.077707 -0.414253
vn -0.969520 -0.242127 -0.037496
vn -0.969520 -0.242127 -0.037496
vn 0.030156 0.996902 0.072643
vn 0.030156 0.996902 0.072643
vn 0.018987 0.999184 0.035656
vn 0.024688 0.999284 0.028684
vn 0.046222 -0.989171 -0.139302
vn 0.050377 -0.989968 -0.132007
vn -0.085944 -0.994052 -0.066890
vn -0.090895 -0.994297 -0.055777
vn -0.266732 -0.084531 -0.960056
vn -0.281417 -0.081326 -0.956133
vn -0.906839 -0.077707 -0.414253
vn -0.903751 -0.077387 -0.421006
vn 0.024688 0.999284 0.028684
vn 0.018987 0.999184 0.035656
vn -0.104012 0.993158 0.053099
vn -0.101947 0.992929 0.060812
vn -0.185049 0.977366 -0.102533
vn -0.158160 0.984871 -0.070821
vn -0.188455 0.966090 -0.176509
vn -0.177825 0.968553 -0.174021
vn 0.308137 -0.083076 -0.947708
vn 0.354811 -0.072789 -0.932100
vn 0.925075 -0.019975 -0.379258
vn 0.872853 -0.018052 -0.487649
vn 0.176375 -0.984179 0.016844
vn 0.208815 -0.976009 0.061674
vn 0.189874 -0.966058 0.175158
vn 0.203809 -0.963228 0.175083
vn -0.177825 0.968553 -0.174021
vn -0.188455 0.966090 -0.176509
vn -0.134331 0.990794 -0.016795
vn -0.131978 0.991252 0.000889
vn 0.872853 -0.018052 -0.487649
vn 0.925075 -0.019975 -0.379258
vn 0.995071 -0.088704 -0.044334
vn 0.994970 -0.084987 -0.053030
vn 0.203809 -0.963228 0.175083
vn 0.189874 -0.966058 0.175158
vn 0.135220 -0.990799 0.005748
vn 0.137876 -0.990232 0.020750
s off
f 10/1/1 11/2/2 2/3/3 4/4/4
f 9/5/5 10/1/6 4/4/7 6/6/8
f 11/7/9 12/8/10 8/9/11 2/10/12
f 2/3/13 8/11/14 6/12/15 4/4/16
f 7/13/17 1/14/18 3/15/19 5/16/20
f 3/15/21 10/1/22 9/5/23 5/17/24
f 1/14/25 11/2/26 10/1/27 3/15/28
f 7/18/29 12/8/30 11/7/31 1/19/32
f 13/20/33 14/21/34 62/22/35 63/23/36
f 14/21/37 16/24/38 61/25/39 62/22/40
f 15/26/41 13/20/42 63/23/43 64/27/44
f 17/28/45 18/29/46 22/30/47 21/31/48
f 18/29/49 19/32/50 23/33/51 22/30/52
f 20/34/53 17/28/54 21/31/55 24/35/56
f 21/31/57 22/30/58 26/36/59 25/37/60
f 22/30/61 23/33/62 27/38/63 26/36/64
f 24/35/65 21/31/66 25/37/67 28/39/68
f 59/40/69 60/41/70 16/42/71 14/43/72
f 13/44/73 15/45/74 57/46/75 58/47/76
f 13/48/77 58/49/78 59/50/79 14/51/80
f 29/52/81 30/53/82 34/54/83 33/55/84
f 32/56/85 31/57/86 36/58/87 35/59/88
f 31/57/89 29/52/90 33/55/91 36/58/92
f 33/55/93 34/54/94 38/60/95 37/61/96
f 35/59/97 36/58/98 40/62/99 39/63/100
f 36/58/101 33/55/102 37/61/103 40/62/104
f 42/64/105 41/65/106 30/66/107 29/67/108
f 43/68/109 42/69/110 29/52/111 31/57/112
f 31/57/113 32/56/114 44/70/115 43/71/116
f 46/72/117 45/73/118 19/32/119 18/29/120
f 47/74/121 46/72/122 18/29/123 17/28/124
f 48/75/125 47/74/126 17/28/127 20/34/128
f 50/76/129 49/77/130 45/73/131 46/72/132
f 51/78/133 50/76/134 46/72/135 47/74/136
f 52/79/137 51/78/138 47/74/139 48/75/140
f 54/80/141 53/81/142 41/65/143 42/64/144
f 55/82/145 54/83/146 42/69/147 43/68/148
f 43/71/149 44/70/150 56/84/151 55/85/152
f 58/47/153 57/46/154 53/81/155 54/80/156
f 59/50/157 58/49/158 54/83/159 55/82/160
f 55/85/161 56/84/162 60/41/163 59/40/164
f 62/22/165 61/25/166 65/86/167 66/87/168
f 63/23/169 62/22/170 66/87/171 67/88/172
f 64/27/173 63/23/174 67/88/175 68/89/176
f 66/87/177 65/86/178 49/77/179 50/76/180
f 67/88/181 66/87/182 50/76/183 51/78/184
f 68/89/185 67/88/186 51/78/187 52/79/188
