# This file uses centimeters as units for non-parametric coordinates.

v 6.852412 -2.604095 7.991569
v 7.706025 -3.525002 9.131507
v 6.758925 -16.634361 8.263381
v 8.376637 -16.112358 9.029431
v 6.455224 -17.103043 -8.092510
v 7.509955 -16.002945 -9.412209
v 6.735553 -2.478027 -7.960038
v 7.513133 -3.316902 -9.260059
v 12.149154 -22.163963 3.437703
v 14.178748 -21.499977 3.936743
v 12.424605 -2.589783 3.936743
v 10.488582 -1.099609 3.437703
v 10.488582 -1.099609 -3.048682
v 12.424605 -2.589783 -3.547721
v 14.178752 -21.499981 -3.547721
v 12.149161 -22.163963 -3.048682
v 5.366043 -8.760284 7.991569
v 6.621718 -8.760284 9.131507
v 12.120393 -8.760284 3.936743
v 12.120393 -8.760284 -3.547721
v 6.337972 -8.760284 -9.260059
v 5.194141 -8.760284 -7.960038
v 9.677276 -10.247414 -3.048682
v 9.677276 -10.247414 3.437703
v 4.288760 -2.529747 -4.622961
v 3.477454 -8.419540 -4.622961
v 4.596459 -8.423187 5.640897
v 5.407765 -2.533394 5.640897
v 10.983874 -5.821945 4.709798
v 10.401675 -8.177391 5.046021
v 8.651858 -8.287903 6.756585
v 8.152575 -6.000702 7.477509
v 9.593852 -4.476677 6.212544
v 11.940341 -5.969223 5.837403
v 11.393962 -8.179779 6.152947
v 9.751750 -8.283440 7.758256
v 9.283244 -6.137032 8.434880
v 10.635844 -4.706726 7.247716
v 10.592868 -6.658722 7.093553
v 10.818400 -5.137115 -4.813577
v 9.343966 -4.060501 -6.446664
v 7.909892 -5.787979 -7.426133
v 8.498012 -7.932281 -6.398366
v 10.295566 -7.530006 -4.783715
v 11.743403 -5.423050 -5.940778
v 10.359683 -4.412666 -7.473439
v 9.013835 -6.033852 -8.392610
v 9.565753 -8.046204 -7.428094
v 11.252742 -7.668739 -5.912770
v 10.379092 -6.322624 -7.035512
v 8.278100 -18.827675 6.257424
v 10.206738 -20.489883 4.852585
v 9.828872 -17.915688 7.128715
v 11.916137 -19.635601 5.597052
v 10.967538 -18.218254 5.855758
v 9.636836 -18.941895 5.091403
v 12.564847 -14.022484 4.244374
v 12.199840 -10.463173 -3.547721
v 13.180575 -17.432945 -3.547721
v 13.017249 -14.457649 -2.269311
v 11.578401 -13.621193 -4.695096
vt 0.406235 0.321995
vt 0.406235 0.321995
vt 0.406235 0.321995
vt 0.406235 0.321995
vt 0.406235 0.321995
vt 0.406235 0.321995
vt 0.406235 0.321995
vt 0.406235 0.321995
vt 0.406235 0.321995
vt 0.406235 0.321995
vt 0.406235 0.321995
vt 0.406235 0.321995
vt 0.406235 0.321995
vt 0.406235 0.321995
vt 0.406235 0.321995
vt 0.406235 0.321995
vt 0.406235 0.321995
vt 0.406235 0.321995
vt 0.406235 0.321995
vt 0.080531 0.252712
vt 0.406235 0.321995
vt 0.080531 0.252712
vt 0.406235 0.321995
vt 0.406235 0.321995
vt 0.406235 0.321995
vt 0.406235 0.321995
vt 0.406235 0.321995
vt 0.406235 0.321995
vt 0.406235 0.321995
vt 0.406235 0.321995
vt 0.406235 0.321995
vt 0.406235 0.321995
vt 0.406235 0.321995
vt 0.406235 0.321995
vt 0.406235 0.321995
vt 0.406235 0.321995
vt 0.406235 0.321995
vt 0.406235 0.321995
vt 0.406235 0.321995
vt 0.080531 0.252712
vt 0.080531 0.252712
vt 0.080531 0.252712
vt 0.080530 0.252712
vt 0.080530 0.252712
vt 0.080531 0.252712
vt 0.080530 0.252712
vt 0.080530 0.252712
vt 0.080531 0.252712
vt 0.080530 0.252712
vt 0.090828 0.228728
vt 0.090828 0.228728
vt 0.090828 0.228728
vt 0.090828 0.228728
vt 0.090828 0.228728
vt 0.090828 0.228728
vt 0.090828 0.228728
vt 0.090828 0.228728
vt 0.090828 0.228728
vt 0.090828 0.228728
vt 0.090828 0.228728
vt 0.090828 0.228728
vt 0.090828 0.228728
vt 0.090828 0.228728
vt 0.090828 0.228728
vt 0.090828 0.228728
vt 0.090828 0.228728
vt 0.090828 0.228728
vt 0.090828 0.228728
vt 0.090828 0.228728
vt 0.090828 0.228728
vt 0.090828 0.228728
vt 0.090828 0.228728
vt 0.090828 0.228728
vt 0.090828 0.228728
vt 0.090828 0.228728
vt 0.090828 0.228728
vt 0.090828 0.228728
vt 0.090828 0.228728
vt 0.090828 0.228728
vt 0.090828 0.228728
vt 0.090828 0.228728
vt 0.090828 0.228728
vt 0.090828 0.228728
vt 0.090828 0.228728
vt 0.090828 0.228728
vt 0.406235 0.321995
vt 0.406235 0.321995
vt 0.406235 0.321995
vt 0.406235 0.321995
vt 0.406235 0.321995
vt 0.406235 0.321995
vt 0.406235 0.321995
vt 0.406235 0.321995
vt 0.406235 0.321995
vt 0.406235 0.321995
vt 0.406235 0.321995
vt 0.406235 0.321995
vt 0.406235 0.321995
vt 0.406235 0.321995
vt 0.406235 0.321995
vt 0.406235 0.321995
vt 0.406235 0.321995
vn -0.537012 -0.101685 0.837424
vn -0.537012 -0.101685 0.837424
vn -0.537012 -0.101685 0.837424
vn -0.537012 -0.101685 0.837424
vn 0.310935 -0.950431 0.000001
vn 0.310935 -0.950431 0.000001
vn 0.310935 -0.950431 0.000001
vn 0.310935 -0.950431 0.000001
vn -0.740080 -0.103400 -0.664522
vn -0.740080 -0.103400 -0.664522
vn -0.740080 -0.103400 -0.664522
vn -0.740080 -0.103400 -0.664522
vn 0.609948 0.792441 0.000000
vn 0.609948 0.792441 0.000000
vn 0.609948 0.792441 0.000000
vn 0.609948 0.792441 0.000000
vn 0.982230 0.187652 0.003459
vn 0.982230 0.187652 0.003459
vn 0.982230 0.187652 0.003459
vn 0.982230 0.187652 0.003459
vn 0.982230 0.187652 0.003459
vn -0.979156 -0.203109 -0.000001
vn -0.979156 -0.203109 -0.000001
vn -0.979156 -0.203109 -0.000001
vn -0.979156 -0.203109 -0.000001
vn -0.293222 -0.302328 0.906983
vn -0.293222 -0.302328 0.906983
vn -0.293222 -0.302328 0.906983
vn -0.293222 -0.302328 0.906983
vn 0.707348 0.159280 0.688686
vn 0.707348 0.159280 0.688686
vn 0.707348 0.159280 0.688686
vn 0.370044 0.775681 0.511259
vn 0.370044 0.775681 0.511259
vn 0.370044 0.775681 0.511259
vn 0.370044 0.775681 0.511259
vn -0.740367 -0.122277 -0.660988
vn -0.740367 -0.122277 -0.660988
vn -0.740367 -0.122277 -0.660988
vn 0.377437 0.800015 -0.466388
vn 0.377437 0.800015 -0.466388
vn 0.377437 0.800015 -0.466388
vn 0.377437 0.800015 -0.466388
vn 0.869432 0.234559 -0.434822
vn 0.869432 0.234559 -0.434822
vn 0.869432 0.234559 -0.434822
vn 0.000525 -0.718255 -0.695780
vn 0.000525 -0.718255 -0.695780
vn 0.000525 -0.718255 -0.695780
vn 0.000525 -0.718255 -0.695780
vn -0.736975 -0.140118 0.661238
vn -0.736975 -0.140118 0.661238
vn -0.736975 -0.140118 0.661238
vn -0.736975 -0.140118 0.661238
vn -0.692734 0.156327 0.704046
vn -0.692734 0.156327 0.704046
vn -0.692734 0.156327 0.704046
vn -0.692734 0.156327 0.704046
vn 0.714195 -0.086945 0.694526
vn 0.714195 -0.086945 0.694526
vn 0.714195 -0.086945 0.694526
vn 0.714195 -0.086945 0.694526
vn 0.998787 -0.049241 0.000000
vn 0.998787 -0.049241 0.000000
vn 0.998787 -0.049241 0.000000
vn 0.998787 -0.049241 0.000000
vn 0.729854 -0.092969 -0.677252
vn 0.729854 -0.092969 -0.677252
vn 0.729854 -0.092969 -0.677252
vn 0.729854 -0.092969 -0.677252
vn -0.763415 0.176867 -0.621221
vn -0.763415 0.176867 -0.621221
vn -0.763415 0.176867 -0.621221
vn -0.763415 0.176866 -0.621221
vn -0.834195 0.161240 -0.527371
vn -0.834195 0.161240 -0.527371
vn -0.834195 0.161240 -0.527371
vn -0.834195 0.161240 -0.527371
vn -0.984913 0.135669 0.107427
vn -0.984913 0.135669 0.107427
vn -0.984913 0.135669 0.107427
vn -0.984913 0.135669 0.107427
vn -0.885941 0.168986 0.431917
vn -0.885941 0.168986 0.431917
vn -0.885941 0.168986 0.431917
vn -0.885941 0.168986 0.431917
vn -0.192479 0.973172 -0.126046
vn -0.192479 0.973172 -0.126046
vn -0.192479 0.973172 -0.126046
vn -0.272684 -0.961181 -0.042126
vn -0.272684 -0.961181 -0.042126
vn -0.272684 -0.961181 -0.042126
vn -0.306922 -0.951518 0.020296
vn -0.306922 -0.951518 0.020296
vn -0.306922 -0.951518 0.020296
vn -0.306922 -0.951518 0.020296
vn -0.245170 0.969338 0.016590
vn -0.245170 0.969338 0.016590
vn -0.245170 0.969338 0.016590
vn -0.245170 0.969338 0.016590
vn -0.345991 -0.937997 -0.021240
vn -0.345991 -0.937997 -0.021240
vn -0.345991 -0.937997 -0.021240
vn -0.205355 0.966293 0.155268
vn -0.205355 0.966293 0.155268
vn -0.205355 0.966293 0.155268
vn 0.716879 -0.269006 -0.643212
vn 0.716879 -0.269006 -0.643212
vn 0.716878 -0.269006 -0.643212
vn 0.716879 -0.269006 -0.643212
vn 0.032507 -0.998982 -0.031270
vn 0.032507 -0.998982 -0.031270
vn 0.032507 -0.998982 -0.031270
vn 0.032507 -0.998982 -0.031270
vn -0.628613 -0.355291 0.691819
vn -0.628613 -0.355291 0.691819
vn -0.628613 -0.355291 0.691819
vn -0.628613 -0.355291 0.691819
vn -0.353637 0.772365 0.527630
vn -0.353637 0.772365 0.527630
vn -0.353637 0.772365 0.527630
vn -0.353637 0.772365 0.527630
vn 0.478066 0.826379 -0.297573
vn 0.478066 0.826379 -0.297574
vn 0.478066 0.826379 -0.297574
vn 0.478066 0.826379 -0.297574
vn 0.699442 -0.071373 0.711117
vn 0.699442 -0.071373 0.711117
vn 0.699442 -0.071373 0.711117
vn 0.699547 -0.071261 0.711025
vn 0.699547 -0.071261 0.711025
vn 0.699547 -0.071261 0.711025
vn 0.699669 -0.071379 0.710892
vn 0.699669 -0.071379 0.710892
vn 0.699669 -0.071379 0.710892
vn 0.699627 -0.071550 0.710917
vn 0.699627 -0.071550 0.710917
vn 0.699627 -0.071550 0.710917
vn 0.699482 -0.071557 0.711058
vn 0.699482 -0.071557 0.711058
vn 0.699482 -0.071557 0.711058
vn 0.462210 0.872590 0.157950
vn 0.462210 0.872590 0.157950
vn 0.462210 0.872590 0.157950
vn 0.462210 0.872590 0.157950
vn -0.392737 0.678202 -0.621128
vn -0.392737 0.678202 -0.621128
vn -0.392737 0.678202 -0.621128
vn -0.392737 0.678202 -0.621128
vn -0.638853 -0.467913 -0.610676
vn -0.638852 -0.467913 -0.610676
vn -0.638852 -0.467913 -0.610676
vn -0.638853 -0.467913 -0.610676
vn 0.063274 -0.982649 0.174351
vn 0.063274 -0.982649 0.174351
vn 0.063274 -0.982649 0.174351
vn 0.063274 -0.982649 0.174351
vn 0.744176 -0.154490 0.649873
vn 0.744176 -0.154490 0.649873
vn 0.744176 -0.154490 0.649873
vn 0.744176 -0.154490 0.649873
vn 0.679115 -0.157482 -0.716940
vn 0.679115 -0.157482 -0.716940
vn 0.679115 -0.157482 -0.716940
vn 0.679240 -0.157457 -0.716827
vn 0.679240 -0.157457 -0.716827
vn 0.679240 -0.157457 -0.716827
vn 0.679280 -0.157272 -0.716829
vn 0.679280 -0.157272 -0.716829
vn 0.679280 -0.157272 -0.716829
vn 0.679169 -0.157191 -0.716952
vn 0.679169 -0.157191 -0.716952
vn 0.679169 -0.157191 -0.716952
vn 0.679069 -0.157313 -0.717020
vn 0.679069 -0.157313 -0.717020
vn 0.679069 -0.157313 -0.717020
vn -0.038947 -0.713139 0.699940
vn -0.038947 -0.713139 0.699940
vn -0.038947 -0.713139 0.699940
vn -0.038947 -0.713139 0.699940
vn 0.010430 -0.648843 0.760851
vn 0.010430 -0.648842 0.760851
vn 0.010430 -0.648842 0.760851
vn 0.010430 -0.648842 0.760851
vn 0.259568 -0.872097 0.414816
vn 0.259568 -0.872097 0.414816
vn 0.259568 -0.872097 0.414816
vn 0.259568 -0.872097 0.414816
vn 0.597931 0.121814 0.792237
vn 0.597931 0.121814 0.792237
vn 0.597931 0.121814 0.792238
vn 0.597931 0.121814 0.792237
vn -0.776655 -0.118069 -0.618762
vn -0.776655 -0.118069 -0.618762
vn -0.776655 -0.118069 -0.618762
vn -0.776655 -0.118069 -0.618762
vn -0.660579 -0.136137 -0.738310
vn -0.660579 -0.136137 -0.738310
vn -0.660579 -0.136137 -0.738310
vn -0.660579 -0.136137 -0.738310
vn 0.683292 0.099995 0.723265
vn 0.683292 0.099995 0.723265
vn 0.683292 0.099995 0.723265
vn 0.728697 0.142968 -0.669747
vn 0.728697 0.142968 -0.669747
vn 0.728697 0.142968 -0.669747
vn 0.728697 0.142968 -0.669747
vn 0.998913 0.046605 0.000000
vn 0.998913 0.046605 0.000000
vn 0.998913 0.046605 0.000000
vn 0.862156 0.014343 -0.506439
vn 0.862156 0.014343 -0.506439
vn 0.862156 0.014343 -0.506439
vn 0.708071 0.086474 -0.700827
vn 0.708071 0.086474 -0.700827
vn 0.708071 0.086474 -0.700826
vn 0.708071 0.086474 -0.700826
vn 0.757270 -0.049720 0.651207
vn 0.757270 -0.049720 0.651207
vn 0.757270 -0.049720 0.651207
vn 0.757270 -0.049720 0.651207
vn 0.717259 0.130444 -0.684488
vn 0.717259 0.130444 -0.684488
vn 0.717259 0.130444 -0.684488
vn 0.990316 0.137839 0.016573
vn 0.990316 0.137839 0.016573
vn 0.990316 0.137839 0.016573
vn 0.990316 0.137839 0.016573
s off
f 17/30/1 3/3/2 4/4/3 18/31/4
f 9/15/5 16/29/6 15/26/7 10/16/8
f 5/5/9 22/37/10 21/34/11 6/6/12
f 13/23/13 12/21/14 11/18/15 14/24/16
f 10/17/17 15/27/18 59/100/19 60/101/20 57/98/21
f 16/28/22 9/14/23 24/39/24 23/38/25
f 56/96/26 52/89/27 54/92/28 55/97/29
f 57/98/30 18/31/31 4/4/32
f 12/21/33 1/9/34 2/10/35 11/18/36
f 56/95/37 17/30/38 24/39/39
f 7/7/40 13/23/41 14/24/42 8/8/43
f 60/101/44 59/100/45 61/102/46
f 16/29/47 5/5/48 6/6/49 15/26/50
f 22/36/51 5/13/52 16/28/53 23/38/54
f 1/1/55 17/30/56 18/31/57 2/2/58
f 2/2/59 18/31/60 19/32/61 11/19/62
f 20/33/63 14/25/64 11/19/65 19/32/66
f 21/35/67 8/11/68 14/25/69 20/33/70
f 22/37/71 7/7/72 8/8/73 21/34/74
f 7/42/75 22/45/76 26/22/77 25/20/78
f 27/40/79 28/41/80 25/20/81 26/22/82
f 17/48/83 1/49/84 28/41/85 27/40/86
f 7/42/87 25/20/88 13/43/89
f 23/44/90 26/22/91 22/45/92
f 24/46/93 27/40/94 26/22/95 23/44/96
f 13/43/97 25/20/98 28/41/99 12/47/100
f 17/48/101 27/40/102 24/46/103
f 12/47/104 28/41/105 1/49/106
f 29/50/107 34/53/108 35/52/109 30/51/110
f 30/51/111 35/52/112 36/55/113 31/54/114
f 31/54/115 36/55/116 37/57/117 32/56/118
f 32/56/119 37/57/120 38/59/121 33/58/122
f 33/58/123 38/59/124 34/61/125 29/60/126
f 34/62/127 39/64/128 35/63/129
f 35/63/130 39/64/131 36/65/132
f 36/65/133 39/64/134 37/66/135
f 37/66/136 39/64/137 38/67/138
f 38/67/139 39/64/140 34/62/141
f 40/68/142 45/71/143 46/70/144 41/69/145
f 41/69/146 46/70/147 47/73/148 42/72/149
f 42/72/150 47/73/151 48/75/152 43/74/153
f 43/74/154 48/75/155 49/77/156 44/76/157
f 44/76/158 49/77/159 45/79/160 40/78/161
f 45/80/162 50/82/163 46/81/164
f 46/81/165 50/82/166 47/83/167
f 47/83/168 50/82/169 48/84/170
f 48/84/171 50/82/172 49/85/173
f 49/85/174 50/82/175 45/80/176
f 3/3/177 51/87/178 53/90/179 4/4/180
f 52/89/181 9/15/182 10/16/183 54/92/184
f 51/87/185 56/96/186 55/97/187 53/90/188
f 55/94/189 54/93/190 10/17/191 57/98/192
f 56/95/193 51/86/194 3/3/195 17/30/196
f 9/14/197 52/88/198 56/95/199 24/39/200
f 19/32/201 18/31/202 57/98/203
f 15/27/204 6/12/205 61/102/206 59/100/207
f 58/99/208 20/33/209 19/32/210
f 58/99/211 60/101/212 61/102/213
f 21/35/214 20/33/215 58/99/216 61/102/217
f 55/94/218 57/98/219 4/4/220 53/91/221
f 6/12/222 21/35/223 61/102/224
f 60/101/225 58/99/226 19/32/227 57/98/228
