# This file uses centimeters as units for non-parametric coordinates.

v 1.046570 22.171631 12.531234
v 3.405212 25.623596 10.137588
v 3.459778 21.955353 11.335341
v 2.171814 23.828323 11.319221
v 1.051331 25.633606 11.201095
v 0.000061 27.460236 10.781898
v 0.000061 20.211823 13.503852
v 2.951477 25.659103 10.948462
v 0.928284 25.597809 11.799651
v 0.000061 27.237106 11.747581
v 0.000061 20.734238 13.757545
v 0.911682 22.466034 12.774772
v 3.003967 22.346619 11.802604
v 1.865051 24.036987 11.852111
v 0.000061 24.123917 13.124282
v 0.000061 5.165512 -23.857607
v 0.000061 16.039337 23.800032
v 0.000061 6.996017 -24.269411
v 0.000061 17.869827 23.388227
v 0.000061 12.428833 0.381341
v 0.000061 10.749054 -14.814724
v 0.000061 16.564301 14.653582
v 12.941589 8.715286 -20.270773
v 18.912537 12.471100 0.156267
v 14.065735 16.684296 22.058207
v 12.941589 10.543549 -20.731283
v 18.761047 14.202286 -0.304240
v 14.065735 18.512573 21.597700
v 11.507874 11.451797 -10.445233
v 15.295715 13.953186 -0.080570
v 10.792542 16.218826 10.338035
v 0.000061 23.594681 -16.046135
v 0.000061 27.013596 -3.051202
v 5.023987 26.727646 -12.902874
v 8.731262 30.724136 -4.148633
v 5.023987 31.797394 5.474703
v 0.000061 30.912811 9.943730
v 5.060364 30.730576 -4.150034
v 17.251892 11.085144 -16.445097
v 17.014832 13.147461 -16.844496
v 21.695862 15.360352 -0.254794
v 22.112000 13.930496 0.144599
v 19.929993 20.560654 18.304440
v 20.168274 18.497864 18.703833
v 21.670227 16.064178 -9.584462
v 20.732361 16.873962 -9.797220
v 23.332947 17.829895 0.366208
v 24.375183 16.979401 0.578964
v 21.914734 20.583923 11.736212
v 22.840271 19.778946 11.948966
v 0.000061 18.844635 13.998752
v 9.959534 18.200775 9.646666
v 14.378357 16.293396 -0.646188
v 10.458557 13.589584 -10.763986
v 0.000061 12.556000 -14.919538
v -1.046570 22.171631 12.531234
v -3.405212 25.623596 10.137588
v -3.459778 21.955353 11.335341
v -2.171814 23.828323 11.319221
v -1.051453 25.633606 11.201095
v -2.951477 25.659103 10.948462
v -0.928162 25.597809 11.799651
v -0.911682 22.466034 12.774772
v -3.003967 22.346619 11.802604
v -1.865051 24.036987 11.852111
v -12.941589 8.715286 -20.270773
v -18.912537 12.471100 0.156267
v -14.065735 16.684296 22.058207
v -12.941589 10.543549 -20.731283
v -18.761047 14.202286 -0.304240
v -14.065735 18.512573 21.597700
v -11.507996 11.451797 -10.445233
v -15.295715 13.953186 -0.080570
v -10.792664 16.218826 10.338035
v -5.023865 26.727646 -12.902874
v -8.731140 30.724136 -4.148633
v -5.023865 31.797394 5.474703
v -5.060486 30.730576 -4.150034
v -17.251892 11.085144 -16.445097
v -17.014832 13.147461 -16.844496
v -21.695862 15.360352 -0.254794
v -22.112000 13.930496 0.144599
v -19.929993 20.560654 18.304440
v -20.168274 18.497864 18.703833
v -21.670349 16.064178 -9.584462
v -20.732361 16.873962 -9.797220
v -23.332947 17.829895 0.366208
v -24.375183 16.979401 0.578964
v -21.914734 20.583923 11.736212
v -22.840271 19.778946 11.948966
v -9.959534 18.200775 9.646666
v -14.378357 16.293396 -0.646188
v -10.458679 13.589584 -10.763986
v 12.429138 17.365692 15.967868
v 10.416687 18.345825 22.062214
v 10.406189 18.345352 22.063545
v 10.551453 16.523163 22.493391
v 12.421692 15.569489 16.969265
vt 0.094384 0.209973
vt 0.094384 0.209973
vt 0.094384 0.209973
vt 0.094384 0.209973
vt 0.094384 0.209973
vt 0.094384 0.209973
vt 0.094384 0.209973
vt 0.094384 0.209973
vt 0.094384 0.209973
vt 0.094384 0.209973
vt 0.094384 0.209973
vt 0.094384 0.209973
vt 0.094384 0.209973
vt 0.094384 0.209973
vt 0.094384 0.209973
vt 0.460550 0.277200
vt 0.460550 0.277203
vt 0.460555 0.277201
vt 0.460555 0.277199
vt 0.460556 0.277200
vt 0.460555 0.277202
vt 0.460554 0.277197
vt 0.460554 0.277195
vt 0.460550 0.277195
vt 0.460550 0.277193
vt 0.460543 0.277188
vt 0.460543 0.277191
vt 0.460541 0.277190
vt 0.460541 0.277190
vt 0.460541 0.277188
vt 0.460543 0.277194
vt 0.460552 0.277191
vt 0.460543 0.277187
vt 0.460532 0.277188
vt 0.460532 0.277188
vt 0.460532 0.277188
vt 0.460532 0.277188
vt 0.460532 0.277188
vt 0.460532 0.277188
vt 0.460547 0.277202
vt 0.460551 0.277197
vt 0.460550 0.277194
vt 0.460552 0.277194
vt 0.460545 0.277193
vt 0.460532 0.277188
vt 0.460532 0.277188
vt 0.460532 0.277188
vt 0.460532 0.277188
vt 0.460532 0.277188
vt 0.460532 0.277188
vt 0.460532 0.277188
vt 0.460532 0.277188
vt 0.460556 0.277201
vt 0.460556 0.277198
vt 0.460553 0.277194
vt 0.460553 0.277192
vt 0.460543 0.277190
vt 0.460547 0.277192
vt 0.460547 0.277189
vt 0.459203 0.228882
vt 0.459204 0.228882
vt 0.459204 0.228882
vt 0.459203 0.228882
vt 0.459204 0.228882
vt 0.459204 0.228882
vt 0.459204 0.228882
vt 0.459204 0.228882
vt 0.459203 0.228882
vt 0.459203 0.228882
vt 0.460532 0.277188
vt 0.460532 0.277188
vt 0.460532 0.277188
vt 0.460532 0.277188
vt 0.460532 0.277188
vt 0.094384 0.209973
vt 0.094384 0.209973
vt 0.094384 0.209973
vt 0.094384 0.209973
vt 0.094384 0.209973
vt 0.094384 0.209973
vt 0.094384 0.209973
vt 0.094384 0.209973
vt 0.094384 0.209973
vt 0.094384 0.209973
vt 0.094384 0.209973
vt 0.094384 0.209973
vt 0.094384 0.209973
vt 0.094384 0.209973
vt 0.094384 0.209973
vt 0.460550 0.277200
vt 0.460555 0.277199
vt 0.460555 0.277201
vt 0.460550 0.277203
vt 0.460556 0.277200
vt 0.460554 0.277195
vt 0.460554 0.277197
vt 0.460555 0.277202
vt 0.460550 0.277193
vt 0.460550 0.277195
vt 0.460543 0.277187
vt 0.460536 0.277190
vt 0.460536 0.277192
vt 0.460543 0.277190
vt 0.460543 0.277194
vt 0.460552 0.277191
vt 0.460532 0.277188
vt 0.460532 0.277188
vt 0.460532 0.277188
vt 0.460532 0.277188
vt 0.460532 0.277188
vt 0.460532 0.277188
vt 0.460551 0.277197
vt 0.460547 0.277202
vt 0.460552 0.277194
vt 0.460550 0.277194
vt 0.460545 0.277193
vt 0.460539 0.277195
vt 0.460532 0.277188
vt 0.460532 0.277188
vt 0.460532 0.277188
vt 0.460532 0.277188
vt 0.460532 0.277188
vt 0.460532 0.277188
vt 0.460532 0.277188
vt 0.460532 0.277188
vt 0.460556 0.277198
vt 0.460556 0.277201
vt 0.460553 0.277194
vt 0.460553 0.277192
vt 0.460547 0.277192
vt 0.460547 0.277189
vt 0.459204 0.228882
vt 0.459204 0.228882
vt 0.459204 0.228882
vt 0.459204 0.228882
vt 0.459204 0.228882
vt 0.459204 0.228882
vt 0.460532 0.277188
vt 0.460532 0.277188
vt 0.460532 0.277188
vt 0.460532 0.277188
vt 0.460532 0.277188
vt 0.460539 0.277195
vt 0.460536 0.277192
vt 0.460536 0.277190
vn 0.319298 0.514280 0.795968
vn 0.319298 0.514280 0.795968
vn 0.319298 0.514280 0.795968
vn 0.552559 0.337089 0.762266
vn 0.552559 0.337089 0.762266
vn 0.552559 0.337089 0.762266
vn 0.579377 0.149678 0.801198
vn 0.579377 0.149678 0.801198
vn 0.579377 0.149678 0.801198
vn 0.422975 0.041751 0.905179
vn 0.422975 0.041751 0.905179
vn 0.422975 0.041751 0.905179
vn 0.540435 0.341608 0.768918
vn 0.540435 0.341607 0.768918
vn 0.540435 0.341608 0.768918
vn 0.564250 0.079857 0.821733
vn 0.564250 0.079857 0.821733
vn 0.564250 0.079857 0.821733
vn -0.014160 0.999884 -0.005574
vn -0.014160 0.999884 -0.005574
vn -0.014160 0.999884 -0.005574
vn -0.014160 0.999884 -0.005574
vn 0.849508 0.505646 0.150525
vn 0.849508 0.505646 0.150525
vn 0.849508 0.505646 0.150525
vn 0.849508 0.505646 0.150525
vn 0.840350 -0.173781 0.513431
vn 0.840350 -0.173781 0.513431
vn 0.840350 -0.173781 0.513431
vn 0.840350 -0.173781 0.513431
vn 0.338291 -0.520961 0.783683
vn 0.338291 -0.520961 0.783683
vn 0.338291 -0.520961 0.783683
vn 0.338291 -0.520961 0.783683
vn 0.794052 0.538156 0.282614
vn 0.794052 0.538156 0.282614
vn 0.794052 0.538156 0.282614
vn 0.794052 0.538156 0.282614
vn 0.823339 -0.247170 0.510901
vn 0.823339 -0.247170 0.510901
vn 0.823339 -0.247170 0.510901
vn 0.823339 -0.247170 0.510901
vn 0.314546 -0.220147 -0.923361
vn 0.314546 -0.220148 -0.923361
vn 0.314546 -0.220148 -0.923361
vn 0.314546 -0.220148 -0.923361
vn 0.653613 0.718838 -0.236773
vn 0.653613 0.718838 -0.236773
vn 0.653613 0.718838 -0.236773
vn 0.653613 0.718839 -0.236773
vn 0.653033 0.750887 -0.098574
vn 0.653033 0.750887 -0.098574
vn 0.653033 0.750887 -0.098574
vn 0.653033 0.750887 -0.098574
vn 0.944853 0.148639 0.291822
vn 0.944852 0.148639 0.291822
vn 0.944853 0.148639 0.291822
vn 0.944853 0.148639 0.291822
vn 0.944853 0.148639 0.291822
vn 0.180195 -0.942237 0.282345
vn 0.180195 -0.942237 0.282345
vn 0.180195 -0.942237 0.282345
vn 0.004336 -0.983729 0.179606
vn 0.004336 -0.983729 0.179606
vn 0.004336 -0.983729 0.179606
vn 0.048008 -0.978839 0.198920
vn 0.048008 -0.978839 0.198920
vn 0.048008 -0.978839 0.198920
vn -0.405719 0.883918 -0.232555
vn -0.405719 0.883918 -0.232555
vn -0.405719 0.883918 -0.232555
vn -0.604383 0.725469 -0.329266
vn -0.604383 0.725469 -0.329266
vn -0.604383 0.725469 -0.329266
vn -0.602229 0.793212 -0.090196
vn -0.602229 0.793212 -0.090196
vn -0.602229 0.793212 -0.090196
vn -0.390595 0.881725 -0.264567
vn -0.390595 0.881725 -0.264567
vn -0.390595 0.881726 -0.264567
vn -0.092146 0.967578 -0.235163
vn -0.092146 0.967578 -0.235163
vn -0.092146 0.967578 -0.235163
vn -0.092146 0.967578 -0.235163
vn -0.172063 0.974892 -0.141347
vn -0.172063 0.974892 -0.141347
vn -0.172063 0.974892 -0.141347
vn -0.172063 0.974892 -0.141347
vn 0.018612 0.978633 -0.204773
vn 0.018612 0.978632 -0.204773
vn 0.018612 0.978632 -0.204773
vn 0.001754 0.909408 -0.415902
vn 0.001754 0.909407 -0.415902
vn 0.001754 0.909408 -0.415903
vn 0.001785 0.993912 -0.110162
vn 0.001785 0.993912 -0.110162
vn 0.001785 0.993912 -0.110162
vn 0.377348 0.407961 0.831370
vn 0.377348 0.407961 0.831370
vn 0.377348 0.407961 0.831370
vn 0.865498 0.406821 0.292251
vn 0.865498 0.406821 0.292251
vn 0.865498 0.406821 0.292251
vn 0.865498 0.406821 0.292251
vn 0.861139 0.256310 -0.439027
vn 0.861139 0.256310 -0.439027
vn 0.861139 0.256310 -0.439027
vn 0.861139 0.256310 -0.439027
vn 0.431726 -0.024740 -0.901666
vn 0.431726 -0.024740 -0.901666
vn 0.431726 -0.024740 -0.901666
vn 0.431726 -0.024740 -0.901666
vn 0.707738 -0.111081 -0.697688
vn 0.707738 -0.111081 -0.697688
vn 0.707738 -0.111081 -0.697688
vn 0.707738 -0.111081 -0.697688
vn -0.470052 0.882614 -0.006663
vn -0.470052 0.882614 -0.006663
vn -0.470052 0.882614 -0.006663
vn -0.470052 0.882614 -0.006663
vn 0.441633 -0.896671 0.030683
vn 0.441633 -0.896671 0.030683
vn 0.441633 -0.896671 0.030683
vn 0.441633 -0.896671 0.030683
vn -0.416061 0.868169 -0.270509
vn -0.416061 0.868169 -0.270509
vn -0.416061 0.868169 -0.270509
vn -0.416061 0.868169 -0.270509
vn 0.418371 0.220344 0.881144
vn 0.418370 0.220344 0.881144
vn 0.418370 0.220344 0.881144
vn 0.418370 0.220344 0.881144
vn 0.402445 -0.878295 0.258141
vn 0.402445 -0.878295 0.258141
vn 0.402445 -0.878295 0.258141
vn 0.402445 -0.878295 0.258141
vn 0.787232 0.197535 -0.584162
vn 0.787232 0.197535 -0.584162
vn 0.787232 0.197535 -0.584162
vn 0.787232 0.197535 -0.584162
vn -0.838757 0.518295 0.166903
vn -0.838757 0.518295 0.166903
vn -0.838757 0.518295 0.166903
vn -0.838757 0.518295 0.166903
vn 0.824460 -0.543794 -0.156696
vn 0.824460 -0.543794 -0.156696
vn 0.824460 -0.543794 -0.156696
vn 0.824460 -0.543794 -0.156696
vn -0.783422 0.574884 -0.236134
vn -0.783422 0.574884 -0.236134
vn -0.783422 0.574884 -0.236134
vn -0.783422 0.574884 -0.236134
vn 0.845506 0.414881 0.336144
vn 0.845506 0.414881 0.336144
vn 0.845506 0.414881 0.336144
vn 0.845506 0.414881 0.336144
vn 0.791920 -0.565180 0.231159
vn 0.791920 -0.565180 0.231159
vn 0.791920 -0.565180 0.231159
vn 0.791920 -0.565180 0.231159
vn 0.375698 0.345081 0.860099
vn 0.375698 0.345081 0.860099
vn 0.375698 0.345081 0.860099
vn 0.375698 0.345081 0.860099
vn 0.857585 0.429567 0.282879
vn 0.857585 0.429567 0.282879
vn 0.857585 0.429567 0.282879
vn 0.857585 0.429567 0.282879
vn 0.864978 0.300521 -0.401870
vn 0.864978 0.300521 -0.401870
vn 0.864978 0.300521 -0.401870
vn 0.864978 0.300521 -0.401870
vn 0.362065 -0.003779 -0.932145
vn 0.362065 -0.003779 -0.932145
vn 0.362065 -0.003779 -0.932145
vn 0.362065 -0.003779 -0.932145
vn 0.494667 0.385266 0.779022
vn 0.494667 0.385267 0.779022
vn 0.494667 0.385266 0.779022
vn 0.494667 0.385266 0.779022
vn 0.398232 0.299443 0.867033
vn 0.398232 0.299443 0.867033
vn 0.398232 0.299443 0.867033
vn 0.230135 0.331232 0.915054
vn 0.230135 0.331232 0.915054
vn 0.230135 0.331232 0.915054
vn 0.409044 0.288733 0.865631
vn 0.409044 0.288733 0.865631
vn 0.409044 0.288733 0.865631
vn 0.448276 0.238939 0.861369
vn 0.448276 0.238939 0.861369
vn 0.448276 0.238939 0.861369
vn 0.513382 0.359078 0.779424
vn 0.513382 0.359078 0.779424
vn 0.513382 0.359078 0.779424
vn 0.513382 0.359078 0.779424
vn -0.319274 0.514285 0.795974
vn -0.319274 0.514285 0.795974
vn -0.319274 0.514285 0.795974
vn -0.552559 0.337089 0.762266
vn -0.552559 0.337089 0.762266
vn -0.552559 0.337089 0.762266
vn -0.579327 0.149686 0.801233
vn -0.579327 0.149686 0.801233
vn -0.579327 0.149686 0.801233
vn -0.422974 0.041783 0.905178
vn -0.422974 0.041783 0.905178
vn -0.422974 0.041783 0.905178
vn -0.540413 0.341592 0.768940
vn -0.540413 0.341592 0.768940
vn -0.540413 0.341592 0.768940
vn -0.564226 0.079883 0.821747
vn -0.564226 0.079883 0.821747
vn -0.564226 0.079883 0.821747
vn 0.014162 0.999884 -0.005567
vn 0.014162 0.999884 -0.005567
vn 0.014162 0.999884 -0.005567
vn 0.014162 0.999884 -0.005567
vn -0.849455 0.505694 0.150663
vn -0.849455 0.505694 0.150662
vn -0.849455 0.505694 0.150662
vn -0.849455 0.505694 0.150663
vn -0.840325 -0.173805 0.513464
vn -0.840325 -0.173805 0.513464
vn -0.840325 -0.173805 0.513464
vn -0.840325 -0.173805 0.513464
vn -0.338293 -0.520964 0.783680
vn -0.338293 -0.520964 0.783680
vn -0.338293 -0.520964 0.783680
vn -0.338293 -0.520964 0.783680
vn -0.794046 0.538152 0.282636
vn -0.794046 0.538152 0.282636
vn -0.794046 0.538152 0.282636
vn -0.794046 0.538152 0.282636
vn -0.823337 -0.247170 0.510905
vn -0.823337 -0.247170 0.510905
vn -0.823337 -0.247170 0.510905
vn -0.823337 -0.247170 0.510905
vn -0.314541 -0.220146 -0.923363
vn -0.314541 -0.220146 -0.923363
vn -0.314541 -0.220146 -0.923363
vn -0.314541 -0.220146 -0.923363
vn -0.653590 0.718862 -0.236764
vn -0.653590 0.718862 -0.236764
vn -0.653590 0.718862 -0.236764
vn -0.653590 0.718862 -0.236764
vn -0.653032 0.750887 -0.098576
vn -0.653032 0.750887 -0.098576
vn -0.653032 0.750887 -0.098576
vn -0.653032 0.750887 -0.098576
vn -0.110840 0.230490 0.966742
vn -0.110840 0.230490 0.966741
vn -0.110840 0.230490 0.966742
vn -0.110840 0.230490 0.966741
vn -0.180193 -0.942237 0.282347
vn -0.180193 -0.942237 0.282347
vn -0.180193 -0.942237 0.282346
vn -0.004336 -0.983729 0.179606
vn -0.004336 -0.983729 0.179606
vn -0.004336 -0.983729 0.179606
vn -0.004454 -0.981803 0.189851
vn -0.004454 -0.981803 0.189851
vn -0.004454 -0.981803 0.189851
vn -0.064055 -0.986294 0.152059
vn -0.064055 -0.986294 0.152059
vn -0.064055 -0.986294 0.152059
vn 0.405719 0.883918 -0.232555
vn 0.405719 0.883918 -0.232555
vn 0.405719 0.883918 -0.232555
vn 0.604366 0.725487 -0.329257
vn 0.604366 0.725487 -0.329257
vn 0.604366 0.725487 -0.329257
vn 0.602212 0.793223 -0.090213
vn 0.602212 0.793223 -0.090213
vn 0.602212 0.793223 -0.090213
vn 0.390595 0.881725 -0.264567
vn 0.390595 0.881726 -0.264567
vn 0.390595 0.881725 -0.264567
vn 0.092145 0.967579 -0.235162
vn 0.092145 0.967579 -0.235162
vn 0.092145 0.967579 -0.235162
vn 0.092145 0.967579 -0.235162
vn 0.172067 0.974892 -0.141347
vn 0.172067 0.974892 -0.141347
vn 0.172067 0.974892 -0.141347
vn 0.172067 0.974892 -0.141347
vn 0.029443 0.977828 -0.207328
vn 0.029443 0.977828 -0.207328
vn 0.029443 0.977828 -0.207328
vn 0.029443 0.977828 -0.207328
vn 0.053155 0.984271 -0.168480
vn 0.053155 0.984271 -0.168480
vn 0.053155 0.984271 -0.168480
vn 0.053155 0.984271 -0.168480
vn -0.001754 0.909406 -0.415905
vn -0.001754 0.909406 -0.415905
vn -0.001754 0.909406 -0.415905
vn -0.001786 0.993912 -0.110159
vn -0.001786 0.993912 -0.110159
vn -0.001786 0.993912 -0.110159
vn -0.377360 0.408015 0.831338
vn -0.377360 0.408015 0.831338
vn -0.377360 0.408015 0.831338
vn -0.865495 0.406827 0.292249
vn -0.865495 0.406827 0.292249
vn -0.865495 0.406827 0.292249
vn -0.865495 0.406827 0.292249
vn -0.861137 0.256321 -0.439024
vn -0.861137 0.256321 -0.439024
vn -0.861137 0.256321 -0.439024
vn -0.861137 0.256321 -0.439024
vn -0.431720 -0.024737 -0.901668
vn -0.431720 -0.024737 -0.901668
vn -0.431720 -0.024737 -0.901669
vn -0.431720 -0.024737 -0.901668
vn -0.707738 -0.111081 -0.697688
vn -0.707738 -0.111081 -0.697688
vn -0.707738 -0.111081 -0.697688
vn -0.707738 -0.111081 -0.697688
vn 0.470052 0.882614 -0.006662
vn 0.470052 0.882614 -0.006662
vn 0.470052 0.882614 -0.006662
vn 0.470052 0.882614 -0.006662
vn -0.441633 -0.896671 0.030683
vn -0.441633 -0.896671 0.030683
vn -0.441633 -0.896671 0.030683
vn -0.441633 -0.896671 0.030683
vn 0.416061 0.868169 -0.270509
vn 0.416061 0.868169 -0.270509
vn 0.416061 0.868169 -0.270509
vn 0.416061 0.868169 -0.270509
vn -0.418370 0.220344 0.881144
vn -0.418370 0.220344 0.881144
vn -0.418370 0.220344 0.881144
vn -0.418370 0.220344 0.881144
vn -0.402445 -0.878295 0.258141
vn -0.402445 -0.878295 0.258141
vn -0.402445 -0.878295 0.258141
vn -0.402445 -0.878295 0.258141
vn -0.787218 0.197560 -0.584173
vn -0.787218 0.197560 -0.584173
vn -0.787218 0.197560 -0.584173
vn -0.787218 0.197560 -0.584173
vn 0.838758 0.518295 0.166901
vn 0.838758 0.518295 0.166901
vn 0.838758 0.518295 0.166901
vn 0.838758 0.518295 0.166901
vn -0.824453 -0.543808 -0.156688
vn -0.824453 -0.543808 -0.156688
vn -0.824453 -0.543808 -0.156688
vn -0.824453 -0.543808 -0.156688
vn 0.783422 0.574884 -0.236134
vn 0.783422 0.574884 -0.236134
vn 0.783422 0.574884 -0.236134
vn 0.783422 0.574884 -0.236134
vn -0.845507 0.414882 0.336141
vn -0.845507 0.414882 0.336141
vn -0.845507 0.414882 0.336141
vn -0.845507 0.414882 0.336141
vn -0.791920 -0.565180 0.231159
vn -0.791920 -0.565180 0.231159
vn -0.791920 -0.565180 0.231159
vn -0.791920 -0.565180 0.231159
vn -0.375690 0.345089 0.860099
vn -0.375690 0.345089 0.860099
vn -0.375690 0.345088 0.860099
vn -0.375690 0.345089 0.860099
vn -0.857580 0.429586 0.282866
vn -0.857580 0.429586 0.282866
vn -0.857580 0.429586 0.282866
vn -0.857580 0.429586 0.282866
vn -0.864981 0.300524 -0.401863
vn -0.864981 0.300524 -0.401863
vn -0.864981 0.300524 -0.401863
vn -0.864981 0.300524 -0.401863
vn -0.362056 -0.003781 -0.932149
vn -0.362056 -0.003781 -0.932149
vn -0.362056 -0.003781 -0.932149
vn -0.362056 -0.003781 -0.932149
vn -0.494670 0.385270 0.779018
vn -0.494670 0.385270 0.779018
vn -0.494670 0.385270 0.779018
vn -0.494670 0.385270 0.779018
vn -0.398231 0.299437 0.867035
vn -0.398231 0.299437 0.867035
vn -0.398231 0.299437 0.867035
vn -0.230111 0.331237 0.915058
vn -0.230111 0.331237 0.915058
vn -0.230111 0.331237 0.915058
vn -0.409044 0.288733 0.865631
vn -0.409044 0.288733 0.865631
vn -0.409044 0.288733 0.865631
vn -0.448276 0.238924 0.861374
vn -0.448275 0.238924 0.861374
vn -0.448276 0.238924 0.861374
vn -0.513375 0.359085 0.779426
vn -0.513375 0.359085 0.779426
vn -0.513375 0.359085 0.779426
vn -0.513375 0.359085 0.779426
vn -0.055194 0.985667 -0.159417
vn -0.055194 0.985667 -0.159417
vn -0.055194 0.985667 -0.159417
vn -0.055194 0.985667 -0.159417
vn -0.055194 0.985667 -0.159417
vn 0.111063 0.227339 0.967462
vn 0.111063 0.227339 0.967462
vn 0.111063 0.227339 0.967462
vn 0.111063 0.227339 0.967462
vn 0.049988 -0.986056 0.158729
vn 0.049988 -0.986056 0.158729
vn 0.049988 -0.986056 0.158729
vn 0.049988 -0.986056 0.158729
vn -0.956638 0.110644 0.269447
vn -0.956638 0.110644 0.269447
vn -0.956638 0.110644 0.269447
vn -0.956638 0.110644 0.269447
vn -0.043471 0.981345 -0.187274
vn -0.043471 0.981345 -0.187274
vn -0.043471 0.981345 -0.187274
vn -0.046775 0.976981 -0.208134
vn -0.046775 0.976981 -0.208134
vn -0.046775 0.976981 -0.208134
vn -0.046775 0.976981 -0.208134
vn 0.004373 -0.983128 0.182865
vn 0.004373 -0.983128 0.182865
vn 0.004373 -0.983128 0.182865
s off
f 8/1/1 9/2/2 15/3/3
f 9/2/4 10/4/5 15/3/6
f 11/5/7 12/6/8 15/3/9
f 12/6/10 13/7/11 15/3/12
f 13/7/13 14/8/14 15/3/15
f 14/8/16 8/1/17 15/3/18
f 9/2/19 8/1/20 2/9/21 5/10/22
f 10/4/23 9/2/24 5/10/25 6/11/26
f 12/6/27 11/5/28 7/12/29 1/13/30
f 13/7/31 12/6/32 1/13/33 3/14/34
f 14/8/35 13/7/36 3/14/37 4/15/38
f 8/1/39 14/8/40 4/15/41 2/9/42
f 16/16/43 18/17/44 26/18/45 23/19/46
f 45/20/47 46/21/48 47/22/49 48/23/50
f 48/23/51 47/22/52 49/24/53 50/25/54
f 98/26/55 94/27/56 95/28/57 96/29/58 97/30/59
f 23/19/60 20/31/61 16/16/62
f 24/32/63 20/31/64 23/19/65
f 25/33/66 98/26/67 24/32/68
f 32/34/69 33/35/70 34/36/71
f 34/36/72 33/35/73 38/37/74
f 38/37/75 33/35/76 36/38/77
f 36/38/78 33/35/79 37/39/80
f 18/17/81 21/40/82 29/41/83 26/18/84
f 26/18/85 29/41/86 30/42/87 27/43/88
f 94/27/89 30/42/90 31/44/91
f 34/36/92 38/37/93 35/45/94
f 35/45/95 38/37/96 36/38/97
f 2/46/98 6/47/99 5/48/100
f 35/45/101 36/38/102 52/49/103 53/50/104
f 34/36/105 35/45/106 53/50/107 54/51/108
f 32/34/109 34/36/110 54/51/111 55/52/112
f 23/19/113 26/18/114 40/53/115 39/54/116
f 26/18/117 27/43/118 41/55/119 40/53/120
f 24/32/121 23/19/122 39/54/123 42/56/124
f 27/43/125 28/57/126 43/58/127 41/55/128
f 28/57/129 25/33/130 44/59/131 43/58/132
f 25/33/133 24/32/134 42/56/135 44/59/136
f 39/54/137 40/53/138 46/21/139 45/20/140
f 40/53/141 41/55/142 47/22/143 46/21/144
f 42/56/145 39/54/146 45/20/147 48/23/148
f 41/55/149 43/58/150 49/24/151 47/22/152
f 43/58/153 44/59/154 50/25/155 49/24/156
f 44/59/157 42/56/158 48/23/159 50/25/160
f 22/60/161 31/61/162 52/62/163 51/63/164
f 31/61/165 30/64/166 53/65/167 52/62/168
f 30/64/169 29/66/170 54/67/171 53/65/172
f 29/66/173 21/68/174 55/69/175 54/67/176
f 52/49/177 36/38/178 2/46/179 3/70/180
f 51/71/181 52/49/182 3/70/183
f 51/71/184 1/72/185 7/73/186
f 3/70/187 2/46/188 4/74/189
f 51/71/190 3/70/191 1/72/192
f 36/38/193 37/39/194 6/47/195 2/46/196
f 61/75/197 15/76/198 62/77/199
f 62/77/200 15/76/201 10/78/202
f 11/79/203 15/76/204 63/80/205
f 63/80/206 15/76/207 64/81/208
f 64/81/209 15/76/210 65/82/211
f 65/82/212 15/76/213 61/75/214
f 62/77/215 60/83/216 57/84/217 61/75/218
f 10/78/219 6/85/220 60/83/221 62/77/222
f 63/80/223 56/86/224 7/87/225 11/79/226
f 64/81/227 58/88/228 56/86/229 63/80/230
f 65/82/231 59/89/232 58/88/233 64/81/234
f 61/75/235 57/84/236 59/89/237 65/82/238
f 16/90/239 66/91/240 69/92/241 18/93/242
f 85/94/243 88/95/244 87/96/245 86/97/246
f 88/95/247 90/98/248 89/99/249 87/96/250
f 68/100/251 17/101/252 19/102/253 71/103/254
f 66/91/255 16/90/256 20/104/257
f 67/105/258 66/91/259 20/104/260
f 68/100/261 67/105/262 20/104/263
f 17/101/264 68/100/265 20/104/266
f 32/106/267 75/107/268 33/108/269
f 75/107/270 78/109/271 33/108/272
f 78/109/273 77/110/274 33/108/275
f 77/110/276 37/111/277 33/108/278
f 18/93/279 69/92/280 72/112/281 21/113/282
f 69/92/283 70/114/284 73/115/285 72/112/286
f 70/114/287 71/103/288 74/116/289 73/115/290
f 71/103/291 19/102/292 22/117/293 74/116/294
f 75/107/295 76/118/296 78/109/297
f 76/118/298 77/110/299 78/109/300
f 57/119/301 60/120/302 6/121/303
f 76/118/304 92/122/305 91/123/306 77/110/307
f 75/107/308 93/124/309 92/122/310 76/118/311
f 32/106/312 55/125/313 93/124/314 75/107/315
f 66/91/316 79/126/317 80/127/318 69/92/319
f 69/92/320 80/127/321 81/128/322 70/114/323
f 67/105/324 82/129/325 79/126/326 66/91/327
f 70/114/328 81/128/329 83/130/330 71/103/331
f 71/103/332 83/130/333 84/131/334 68/100/335
f 68/100/336 84/131/337 82/129/338 67/105/339
f 79/126/340 85/94/341 86/97/342 80/127/343
f 80/127/344 86/97/345 87/96/346 81/128/347
f 82/129/348 88/95/349 85/94/350 79/126/351
f 81/128/352 87/96/353 89/99/354 83/130/355
f 83/130/356 89/99/357 90/98/358 84/131/359
f 84/131/360 90/98/361 88/95/362 82/129/363
f 22/60/364 51/63/365 91/132/366 74/133/367
f 74/133/368 91/132/369 92/134/370 73/135/371
f 73/135/372 92/134/373 93/136/374 72/137/375
f 72/137/376 93/136/377 55/69/378 21/68/379
f 91/123/380 58/138/381 57/119/382 77/110/383
f 51/139/384 58/138/385 91/123/386
f 51/139/387 7/140/388 56/141/389
f 58/138/390 59/142/391 57/119/392
f 51/139/393 56/141/394 58/138/395
f 77/110/396 57/119/397 6/121/398 37/111/399
f 95/28/400 94/27/401 22/143/402 19/144/403 96/29/404
f 97/30/405 96/29/406 19/144/407 17/145/408
f 17/145/409 20/31/410 98/26/411 97/30/412
f 25/33/413 28/57/414 94/27/415 98/26/416
f 22/143/417 94/27/418 31/44/419
f 27/43/420 30/42/421 94/27/422 28/57/423
f 24/32/424 98/26/425 20/31/426
