# This file uses centimeters as units for non-parametric coordinates.

v 21.491291 -0.849335 -1.202863
v 22.937519 1.714005 0.348294
v 22.952900 1.960815 -11.869833
v 21.388935 -0.704590 -11.177820
v 6.691152 4.374161 1.495698
v 6.308553 4.990784 -13.382389
v 6.525655 7.808197 -13.906502
v 6.932149 7.132080 2.313452
v 17.072620 -0.179947 0.439746
v 16.875965 0.441254 -12.916843
v 18.896412 2.508301 -13.461191
v 19.079121 1.857300 1.141155
v 10.922383 3.619568 1.450720
v 12.323598 6.277603 2.169244
v 12.272573 7.012558 -14.050711
v 10.874471 4.301285 -13.592556
v 23.000355 0.638580 -8.634727
v 17.771931 1.692032 -9.341805
v 11.338521 5.612015 -9.554762
v 5.121449 6.312393 -9.349755
v 4.037618 6.309647 -10.358625
v 3.770070 9.438522 -10.286610
v 6.392018 10.791458 -8.584265
v 13.310994 9.847168 -8.728476
v 19.143574 5.498932 -8.650093
v 24.803486 3.575211 -8.828581
v 24.869892 3.339920 -3.551378
v 19.209522 5.263657 -3.372889
v 13.329793 9.581482 -2.866677
v 6.538930 10.547073 -2.722469
v 3.870076 9.196609 -0.693919
v 4.139882 6.082657 -1.208965
v 5.301076 6.022400 -2.384595
v 11.360829 5.291626 -2.484846
v 17.872700 1.414215 -3.067284
v 23.087818 0.406616 -4.009975
v 22.757160 1.014069 0.013500
v 18.478046 1.288940 1.255829
v 11.802480 5.612793 2.287910
v 6.971578 6.377670 2.428903
v 3.832387 8.457932 -0.664125
v 3.730794 8.704514 -10.440987
v 6.557271 7.066727 -14.102461
v 11.750173 6.361923 -14.243456
v 18.291828 1.952423 -13.626873
v 22.770374 1.206863 -11.826014
v 24.657917 2.788620 -8.831211
v 24.722919 2.557037 -3.636374
v 22.903461 -0.244537 -0.057848
v 18.175831 0.196991 1.645956
v 11.427876 4.561157 2.724070
v 6.784657 5.290573 2.868488
v 3.456380 7.425903 -0.413116
v 3.348775 7.686188 -10.737453
v 6.347157 6.018219 -14.588585
v 11.372548 5.352234 -14.732998
v 17.979206 0.897614 -14.070131
v 22.917622 -0.033295 -12.027033
v 24.951862 1.530502 -8.952668
v 25.018909 1.292084 -3.604116
v 11.675771 8.319061 -11.898203
v 7.762532 8.736786 -11.963072
v 7.682363 9.528046 -10.563133
v 11.822713 9.056747 -10.476412
v 7.830251 9.134979 -0.952598
v 8.069814 8.249893 0.384806
v 11.766194 7.763916 0.186056
v 11.896077 8.650970 -1.147035
v 17.422108 4.967926 -11.516487
v 14.122640 7.452682 -11.563576
v 14.346730 8.103027 -10.348490
v 17.829273 5.438263 -10.206156
v 17.897938 5.053680 -1.811106
v 14.391866 7.665649 -1.468947
v 14.182546 6.861557 -0.323653
v 17.566151 4.464890 -0.578106
v 11.328664 7.707397 -11.427263
v 7.947011 8.066360 -11.482241
v 7.877706 8.752090 -10.273655
v 11.455068 8.342896 -10.197645
v 8.005269 8.383972 -1.311682
v 8.212850 7.622116 -0.154119
v 11.406331 7.199249 -0.327794
v 11.519063 7.968674 -1.477754
v 16.786701 4.616119 -11.075418
v 13.932912 6.759842 -11.113985
v 14.129140 7.325119 -10.066175
v 17.135731 5.019211 -9.941063
v 17.215565 4.648300 -2.119851
v 14.190846 6.910919 -1.819837
v 14.005147 6.210419 -0.834572
v 16.933613 4.145187 -1.050080
v 14.914937 8.472748 -4.554577
v 14.912282 8.598068 -7.152505
v 19.130939 5.374603 -4.835128
v 19.098866 5.475113 -7.174385
v 23.275776 3.940918 -4.970716
v 23.246296 4.045212 -7.309824
v 15.721242 8.669678 -4.821546
v 15.720937 8.771164 -6.875179
v 19.411945 6.026352 -5.057128
v 19.385517 6.104385 -6.906432
v 23.044331 4.695984 -5.178228
v 23.021259 4.778885 -7.027340
vt 0.286380 0.341681
vt 0.286380 0.341681
vt 0.286380 0.341681
vt 0.286380 0.341681
vt 0.286380 0.341681
vt 0.286380 0.341681
vt 0.286380 0.341681
vt 0.286380 0.341681
vt 0.079485 0.249582
vt 0.079485 0.249582
vt 0.079485 0.249582
vt 0.079485 0.249582
vt 0.286380 0.341681
vt 0.286380 0.341681
vt 0.286380 0.341681
vt 0.286380 0.341681
vt 0.286380 0.341681
vt 0.286380 0.341681
vt 0.286380 0.341681
vt 0.286380 0.341681
vt 0.079485 0.249582
vt 0.079485 0.249582
vt 0.079485 0.249582
vt 0.079485 0.249582
vt 0.286380 0.341681
vt 0.286380 0.341681
vt 0.286380 0.341681
vt 0.286380 0.341681
vt 0.286380 0.341681
vt 0.286380 0.341681
vt 0.286380 0.341681
vt 0.286380 0.341681
vt 0.286380 0.341681
vt 0.286380 0.341681
vt 0.286380 0.341681
vt 0.286380 0.341681
vt 0.079485 0.249582
vt 0.079485 0.249582
vt 0.286380 0.341681
vt 0.286380 0.341681
vt 0.286380 0.341681
vt 0.286380 0.341681
vt 0.286380 0.341681
vt 0.286380 0.341681
vt 0.079485 0.249582
vt 0.079485 0.249582
vt 0.079485 0.249582
vt 0.079485 0.249582
vt 0.286380 0.341681
vt 0.286380 0.341681
vt 0.079485 0.249582
vt 0.079485 0.249582
vt 0.079485 0.249582
vt 0.079485 0.249582
vt 0.079485 0.249582
vt 0.079485 0.249582
vt 0.079485 0.249582
vt 0.079485 0.249582
vt 0.079485 0.249582
vt 0.079485 0.249582
vt 0.079485 0.249582
vt 0.079485 0.249582
vt 0.079485 0.249582
vt 0.079485 0.249582
vt 0.079485 0.249582
vt 0.079485 0.249582
vt 0.079485 0.249582
vt 0.079485 0.249582
vt 0.079485 0.249582
vt 0.079485 0.249582
vt 0.079485 0.249582
vt 0.079485 0.249582
vt 0.079485 0.249582
vt 0.079485 0.249582
vt 0.079485 0.249582
vt 0.079485 0.249582
vt 0.079485 0.249582
vt 0.079485 0.249582
vt 0.286380 0.341681
vt 0.286380 0.341681
vt 0.286380 0.341681
vt 0.286380 0.341681
vt 0.286380 0.341681
vt 0.286380 0.341681
vt 0.286380 0.341681
vt 0.286380 0.341681
vt 0.286380 0.341681
vt 0.286380 0.341681
vt 0.286380 0.341681
vt 0.286380 0.341681
vt 0.286380 0.341681
vt 0.286380 0.341681
vt 0.286380 0.341681
vt 0.286380 0.341681
vt 0.286380 0.341681
vt 0.286380 0.341681
vt 0.286380 0.341681
vt 0.286380 0.341681
vt 0.286380 0.341681
vt 0.286380 0.341681
vt 0.286380 0.341681
vt 0.286380 0.341681
vt 0.286380 0.341681
vt 0.286380 0.341681
vt 0.286380 0.341681
vt 0.286380 0.341681
vt 0.286380 0.341681
vt 0.286380 0.341681
vt 0.286380 0.341681
vt 0.286380 0.341681
vt 0.286450 0.318583
vt 0.286450 0.318583
vt 0.286450 0.318583
vt 0.286450 0.318583
vt 0.286450 0.318583
vt 0.286450 0.318583
vt 0.286450 0.318583
vt 0.286450 0.318583
vt 0.286450 0.318583
vt 0.286450 0.318583
vt 0.286450 0.318583
vt 0.286450 0.318583
vt 0.286450 0.318583
vt 0.286450 0.318583
vt 0.286450 0.318583
vt 0.286450 0.318583
vt 0.286380 0.341681
vt 0.286380 0.341681
vt 0.286380 0.341681
vt 0.286380 0.341681
vt 0.286380 0.341681
vt 0.286380 0.341681
vt 0.079498 0.249588
vt 0.079498 0.249588
vt 0.079498 0.249588
vt 0.079498 0.249588
vt 0.079498 0.249588
vt 0.079498 0.249588
vt 0.079498 0.249588
vt 0.079498 0.249588
vt 0.079498 0.249588
vt 0.079498 0.249588
vt 0.079498 0.249588
vt 0.079498 0.249588
vn -0.452998 0.890814 0.035268
vn -0.452998 0.890814 0.035268
vn -0.452998 0.890814 0.035268
vn -0.452998 0.890814 0.035268
vn -0.027939 -0.999111 -0.031565
vn -0.027939 -0.999111 -0.031565
vn -0.027939 -0.999111 -0.031565
vn -0.027939 -0.999111 -0.031565
vn -0.998620 0.051200 0.011685
vn -0.998620 0.051200 0.011685
vn -0.998620 0.051200 0.011685
vn -0.998620 0.051200 0.011685
vn 0.983068 -0.182096 -0.020454
vn 0.983068 -0.182096 -0.020454
vn 0.983068 -0.182096 -0.020454
vn 0.983068 -0.182096 -0.020454
vn -0.516378 -0.855702 -0.033596
vn -0.516378 -0.855702 -0.033596
vn -0.516378 -0.855702 -0.033596
vn -0.516378 -0.855702 -0.033596
vn 0.175098 0.126504 -0.976390
vn 0.175098 0.126504 -0.976390
vn 0.175098 0.126504 -0.976390
vn 0.175098 0.126504 -0.976390
vn 0.585811 0.809766 0.033234
vn 0.585811 0.809766 0.033234
vn 0.585811 0.809766 0.033234
vn 0.585811 0.809766 0.033234
vn 0.171040 0.030696 0.984786
vn 0.171040 0.030696 0.984786
vn 0.171040 0.030696 0.984786
vn 0.171040 0.030696 0.984786
vn -0.194365 -0.980009 -0.042480
vn -0.194365 -0.980009 -0.042480
vn -0.194365 -0.980009 -0.042480
vn -0.194365 -0.980009 -0.042480
vn 0.350200 -0.124068 -0.928422
vn 0.350200 -0.124068 -0.928422
vn 0.350200 -0.124068 -0.928422
vn 0.350200 -0.124068 -0.928422
vn 0.344055 0.938251 0.036213
vn 0.344055 0.938251 0.036213
vn 0.344055 0.938251 0.036213
vn 0.344055 0.938251 0.036213
vn 0.217481 -0.295453 0.930274
vn 0.217481 -0.295453 0.930274
vn 0.217481 -0.295453 0.930274
vn 0.217481 -0.295453 0.930274
vn 0.050662 0.145794 0.988017
vn 0.050662 0.145794 0.988017
vn 0.050662 0.145794 0.988017
vn 0.050662 0.145793 0.988017
vn 0.138706 0.989481 0.041089
vn 0.138706 0.989481 0.041089
vn 0.138706 0.989481 0.041089
vn 0.138706 0.989481 0.041089
vn 0.011244 0.265241 -0.964117
vn 0.011244 0.265240 -0.964117
vn 0.011244 0.265240 -0.964117
vn 0.011244 0.265240 -0.964117
vn -0.116707 -0.992300 -0.041476
vn -0.116707 -0.992300 -0.041476
vn -0.116707 -0.992300 -0.041476
vn -0.116707 -0.992300 -0.041476
vn -0.305594 -0.825166 0.475094
vn -0.305594 -0.825166 0.475094
vn -0.305594 -0.825166 0.475094
vn -0.305594 -0.825166 0.475094
vn -0.514012 -0.781046 0.354626
vn -0.514012 -0.781046 0.354626
vn -0.514012 -0.781046 0.354626
vn -0.514012 -0.781045 0.354626
vn -0.110640 -0.947748 0.299219
vn -0.110640 -0.947748 0.299219
vn -0.110640 -0.947748 0.299219
vn -0.110640 -0.947748 0.299219
vn -0.224093 -0.943707 0.243309
vn -0.224093 -0.943707 0.243309
vn -0.224093 -0.943707 0.243309
vn -0.748556 0.156859 -0.644251
vn -0.748556 0.156859 -0.644251
vn -0.748556 0.156859 -0.644251
vn -0.748556 0.156859 -0.644251
vn -0.129224 0.863608 -0.487321
vn -0.129224 0.863608 -0.487321
vn -0.129224 0.863608 -0.487321
vn 0.105349 0.873283 -0.475688
vn 0.105349 0.873283 -0.475688
vn 0.105349 0.873283 -0.475688
vn 0.105349 0.873283 -0.475688
vn 0.876824 -0.198452 -0.437945
vn 0.876824 -0.198452 -0.437945
vn 0.876824 -0.198452 -0.437945
vn 0.876824 -0.198452 -0.437945
vn 0.131110 0.828510 0.544410
vn 0.131110 0.828510 0.544410
vn 0.131110 0.828510 0.544410
vn 0.131110 0.828510 0.544410
vn 0.007365 0.827890 0.560842
vn 0.007365 0.827890 0.560842
vn 0.007365 0.827890 0.560842
vn -0.675141 0.070646 0.734298
vn -0.675141 0.070646 0.734298
vn -0.675141 0.070646 0.734298
vn -0.675141 0.070646 0.734298
vn -0.320999 -0.907620 -0.270529
vn -0.320998 -0.907620 -0.270529
vn -0.320998 -0.907620 -0.270529
vn -0.137700 -0.917548 -0.373022
vn -0.137700 -0.917548 -0.373022
vn -0.137700 -0.917548 -0.373022
vn -0.137700 -0.917548 -0.373022
vn -0.509238 -0.753682 -0.415499
vn -0.509238 -0.753683 -0.415499
vn -0.509238 -0.753682 -0.415499
vn -0.509238 -0.753682 -0.415499
vn -0.273907 -0.833340 -0.480124
vn -0.273907 -0.833340 -0.480124
vn -0.273907 -0.833341 -0.480124
vn -0.273907 -0.833340 -0.480124
vn 0.894087 -0.293220 0.338570
vn 0.894087 -0.293220 0.338570
vn 0.894087 -0.293220 0.338570
vn 0.894087 -0.293220 0.338570
vn 0.316780 0.106804 0.942467
vn 0.316780 0.106804 0.942467
vn 0.316780 0.106804 0.942467
vn 0.316780 0.106804 0.942467
vn 0.309318 0.255429 0.916012
vn 0.309318 0.255429 0.916012
vn 0.309318 0.255429 0.916012
vn 0.309318 0.255429 0.916012
vn 0.084550 0.358487 0.929698
vn 0.084550 0.358487 0.929698
vn 0.084550 0.358487 0.929698
vn 0.084550 0.358487 0.929698
vn -0.507698 0.385891 0.770280
vn -0.507698 0.385891 0.770280
vn -0.507698 0.385891 0.770280
vn -0.507698 0.385890 0.770280
vn -0.937925 0.346345 0.018494
vn -0.937925 0.346345 0.018494
vn -0.937925 0.346345 0.018494
vn -0.937925 0.346345 0.018494
vn -0.613789 0.427222 -0.663887
vn -0.613789 0.427222 -0.663887
vn -0.613789 0.427222 -0.663887
vn -0.613789 0.427222 -0.663887
vn 0.031137 0.420867 -0.906588
vn 0.031137 0.420867 -0.906588
vn 0.031137 0.420867 -0.906588
vn 0.031137 0.420867 -0.906588
vn 0.296382 0.309198 -0.903634
vn 0.296382 0.309198 -0.903634
vn 0.296382 0.309198 -0.903634
vn 0.296382 0.309198 -0.903634
vn 0.402013 0.220515 -0.888684
vn 0.402013 0.220515 -0.888684
vn 0.402013 0.220515 -0.888684
vn 0.402013 0.220515 -0.888684
vn 0.766356 0.213545 -0.605885
vn 0.766356 0.213545 -0.605885
vn 0.766356 0.213545 -0.605885
vn 0.766356 0.213545 -0.605885
vn 0.973720 0.227741 -0.002043
vn 0.973720 0.227741 -0.002043
vn 0.973720 0.227741 -0.002043
vn 0.973720 0.227741 -0.002043
vn 0.834991 0.138094 0.532653
vn 0.834991 0.138094 0.532653
vn 0.834991 0.138094 0.532653
vn 0.834991 0.138094 0.532653
vn 0.020934 -0.930353 0.366068
vn 0.020934 -0.930353 0.366068
vn 0.020934 -0.930353 0.366068
vn 0.020934 -0.930353 0.366068
vn -0.352351 -0.712095 0.607265
vn -0.352351 -0.712095 0.607265
vn -0.352351 -0.712095 0.607264
vn -0.352351 -0.712095 0.607264
vn -0.121095 -0.799276 0.588637
vn -0.121095 -0.799276 0.588637
vn -0.121095 -0.799276 0.588637
vn -0.121095 -0.799276 0.588637
vn -0.743573 -0.553782 0.374731
vn -0.743573 -0.553782 0.374731
vn -0.743573 -0.553783 0.374731
vn -0.743573 -0.553782 0.374731
vn -0.892887 -0.450279 -0.001645
vn -0.892887 -0.450279 -0.001645
vn -0.892887 -0.450279 -0.001645
vn -0.892887 -0.450279 -0.001645
vn -0.786116 -0.474093 -0.396557
vn -0.786116 -0.474093 -0.396557
vn -0.786116 -0.474093 -0.396557
vn -0.786116 -0.474093 -0.396557
vn -0.127763 -0.727781 -0.673804
vn -0.127763 -0.727781 -0.673804
vn -0.127763 -0.727781 -0.673804
vn -0.127763 -0.727781 -0.673804
vn -0.355580 -0.647678 -0.673852
vn -0.355580 -0.647678 -0.673852
vn -0.355580 -0.647678 -0.673852
vn -0.355580 -0.647678 -0.673852
vn 0.003212 -0.873138 -0.487463
vn 0.003212 -0.873138 -0.487463
vn 0.003212 -0.873138 -0.487463
vn 0.003212 -0.873138 -0.487463
vn 0.449234 -0.878415 0.163023
vn 0.449234 -0.878415 0.163023
vn 0.449234 -0.878415 0.163023
vn 0.449234 -0.878415 0.163023
vn 0.416659 -0.907727 -0.049266
vn 0.416659 -0.907727 -0.049266
vn 0.416659 -0.907727 -0.049266
vn 0.416659 -0.907727 -0.049266
vn 0.451577 -0.883503 -0.124504
vn 0.451577 -0.883503 -0.124504
vn 0.451577 -0.883503 -0.124504
vn 0.451577 -0.883503 -0.124504
vn 0.548006 0.705203 -0.449864
vn 0.548006 0.705203 -0.449864
vn 0.548006 0.705203 -0.449864
vn 0.548006 0.705203 -0.449864
vn 0.280355 0.793452 -0.540218
vn 0.280355 0.793452 -0.540218
vn 0.280355 0.793452 -0.540218
vn 0.280355 0.793452 -0.540218
vn 0.230845 0.809057 0.540498
vn 0.230845 0.809057 0.540498
vn 0.230845 0.809057 0.540498
vn 0.230845 0.809057 0.540498
vn 0.532875 0.671692 0.514659
vn 0.532875 0.671692 0.514659
vn 0.532875 0.671692 0.514659
vn 0.532875 0.671692 0.514659
vn 0.104759 0.866005 -0.488939
vn 0.104759 0.866005 -0.488939
vn 0.104759 0.866005 -0.488939
vn 0.104759 0.866005 -0.488939
vn 0.108249 0.868289 -0.484104
vn 0.108249 0.868289 -0.484104
vn 0.108249 0.868289 -0.484104
vn 0.108249 0.868289 -0.484104
vn 0.108610 0.868183 -0.484213
vn 0.108610 0.868183 -0.484213
vn 0.108610 0.868183 -0.484213
vn 0.108610 0.868183 -0.484213
vn 0.121506 0.868143 -0.481211
vn 0.121506 0.868143 -0.481211
vn 0.121506 0.868143 -0.481211
vn 0.121506 0.868143 -0.481211
vn 0.135865 0.827478 0.544813
vn 0.135865 0.827478 0.544813
vn 0.135865 0.827478 0.544813
vn 0.135865 0.827478 0.544813
vn 0.141351 0.814264 0.563022
vn 0.141351 0.814264 0.563022
vn 0.141351 0.814264 0.563022
vn 0.141351 0.814264 0.563022
vn 0.152509 0.812886 0.562101
vn 0.152509 0.812886 0.562101
vn 0.152509 0.812886 0.562101
vn 0.152509 0.812886 0.562101
vn 0.126995 0.821134 0.556428
vn 0.126995 0.821134 0.556428
vn 0.126995 0.821134 0.556428
vn 0.126995 0.821134 0.556428
vn 0.520476 0.693636 -0.497970
vn 0.520476 0.693636 -0.497970
vn 0.520476 0.693636 -0.497970
vn 0.520476 0.693636 -0.497970
vn 0.476952 0.734044 -0.483421
vn 0.476952 0.734044 -0.483421
vn 0.476952 0.734044 -0.483421
vn 0.476952 0.734044 -0.483421
vn 0.543859 0.708222 -0.450153
vn 0.543859 0.708222 -0.450153
vn 0.543859 0.708222 -0.450154
vn 0.543859 0.708222 -0.450153
vn 0.542793 0.704922 -0.456575
vn 0.542793 0.704922 -0.456575
vn 0.542793 0.704922 -0.456575
vn 0.542793 0.704922 -0.456575
vn 0.536782 0.663167 0.521608
vn 0.536782 0.663167 0.521608
vn 0.536782 0.663167 0.521608
vn 0.536782 0.663167 0.521608
vn 0.508347 0.667768 0.543755
vn 0.508347 0.667768 0.543755
vn 0.508347 0.667768 0.543755
vn 0.508347 0.667768 0.543755
vn 0.514382 0.662648 0.544342
vn 0.514382 0.662648 0.544342
vn 0.514382 0.662648 0.544342
vn 0.514382 0.662648 0.544342
vn 0.540293 0.669946 0.509172
vn 0.540293 0.669946 0.509172
vn 0.540293 0.669946 0.509172
vn 0.540293 0.669946 0.509172
vn 0.049726 0.591246 0.804957
vn 0.049726 0.591246 0.804957
vn 0.049726 0.591246 0.804957
vn 0.049726 0.591246 0.804957
vn 0.973286 0.219191 -0.068338
vn 0.973286 0.219191 -0.068338
vn 0.973286 0.219191 -0.068338
vn 0.973286 0.219191 -0.068338
vn -0.020698 -0.354213 -0.934936
vn -0.020698 -0.354213 -0.934936
vn -0.020698 -0.354213 -0.934936
vn -0.020698 -0.354213 -0.934936
vn -0.900880 0.416348 -0.122756
vn -0.900880 0.416348 -0.122756
vn -0.900880 0.416348 -0.122756
vn -0.900880 0.416348 -0.122756
vn 0.971570 0.236044 -0.018311
vn 0.971570 0.236044 -0.018311
vn 0.971570 0.236044 -0.018311
vn 0.971570 0.236044 -0.018311
vn 0.045890 0.656448 -0.752975
vn 0.045890 0.656448 -0.752975
vn 0.045890 0.656448 -0.752975
vn 0.045890 0.656448 -0.752975
vn -0.895658 0.405384 0.182921
vn -0.895658 0.405384 0.182921
vn -0.895658 0.405384 0.182921
vn -0.895658 0.405384 0.182921
vn -0.008458 -0.432671 0.901512
vn -0.008458 -0.432671 0.901512
vn -0.008458 -0.432671 0.901512
vn -0.008458 -0.432671 0.901512
vn 0.327027 0.450140 0.830920
vn 0.327027 0.450140 0.830920
vn 0.327027 0.450140 0.830920
vn 0.327027 0.450140 0.830920
vn 0.959677 -0.279709 -0.027995
vn 0.959677 -0.279709 -0.027995
vn 0.959677 -0.279709 -0.027995
vn 0.959677 -0.279709 -0.027995
vn -0.183400 -0.289965 -0.939300
vn -0.183400 -0.289965 -0.939300
vn -0.183400 -0.289965 -0.939300
vn -0.183400 -0.289965 -0.939300
vn -0.547125 0.827454 -0.126391
vn -0.547125 0.827454 -0.126391
vn -0.547125 0.827454 -0.126391
vn -0.547125 0.827454 -0.126391
vn -0.188881 -0.372739 0.908510
vn -0.188880 -0.372739 0.908510
vn -0.188881 -0.372739 0.908510
vn -0.188880 -0.372739 0.908510
vn 0.966110 -0.258113 -0.003157
vn 0.966110 -0.258113 -0.003157
vn 0.966110 -0.258113 -0.003157
vn 0.966110 -0.258113 -0.003157
vn 0.316938 0.531123 -0.785785
vn 0.316938 0.531123 -0.785785
vn 0.316938 0.531123 -0.785785
vn 0.316938 0.531123 -0.785785
vn -0.569082 0.791311 0.223546
vn -0.569082 0.791311 0.223546
vn -0.569082 0.791311 0.223546
vn -0.569082 0.791311 0.223546
vn 0.595253 0.802750 0.035595
vn 0.595253 0.802750 0.035595
vn 0.595253 0.802750 0.035595
vn 0.595253 0.802750 0.035595
vn 0.593223 0.804520 0.028878
vn 0.593223 0.804520 0.028878
vn 0.593223 0.804520 0.028878
vn 0.593223 0.804520 0.028878
vn 0.597418 0.801385 0.029546
vn 0.597418 0.801385 0.029546
vn 0.597418 0.801385 0.029546
vn 0.597418 0.801385 0.029546
vn 0.324906 0.944684 0.044805
vn 0.324906 0.944684 0.044805
vn 0.324906 0.944684 0.044805
vn 0.324906 0.944684 0.044805
vn 0.322626 0.945759 0.038107
vn 0.322626 0.945759 0.038107
vn 0.322626 0.945759 0.038107
vn 0.322626 0.945759 0.038107
vn 0.324319 0.945385 0.032642
vn 0.324319 0.945385 0.032642
vn 0.324319 0.945384 0.032642
vn 0.324319 0.945384 0.032642
vn -0.223374 0.973570 0.047608
vn -0.223374 0.973570 0.047608
vn -0.223374 0.973570 0.047608
vn -0.223374 0.973570 0.047608
vn 0.235921 0.240246 0.941607
vn 0.235921 0.240246 0.941607
vn 0.235921 0.240246 0.941607
vn 0.235921 0.240246 0.941607
vn 0.226944 0.316201 -0.921148
vn 0.226944 0.316201 -0.921148
vn 0.226944 0.316202 -0.921148
vn 0.226944 0.316202 -0.921148
vn 0.132672 0.285144 0.949258
vn 0.132672 0.285144 0.949258
vn 0.132672 0.285144 0.949258
vn 0.132672 0.285144 0.949258
vn 0.956081 0.293100 0.001102
vn 0.956081 0.293100 0.001102
vn 0.956081 0.293100 0.001102
vn 0.956081 0.293099 0.001102
vn 0.100090 0.368700 -0.924144
vn 0.100090 0.368700 -0.924144
vn 0.100090 0.368700 -0.924144
vn 0.100090 0.368700 -0.924144
s off
f 22/3/1 31/6/2 30/5/3 23/4/4
f 20/9/5 33/12/6 32/11/7 21/10/8
f 41/13/9 31/16/10 22/15/11 42/14/12
f 26/17/13 27/20/14 48/19/15 47/18/16
f 18/21/17 35/24/18 34/23/19 19/22/20
f 44/25/21 15/28/22 11/27/23 45/26/24
f 100/133/25 99/134/26 101/135/27 102/136/28
f 12/33/29 14/36/30 39/35/31 38/34/32
f 36/37/33 35/24/34 18/21/35 17/38/36
f 3/39/37 46/40/38 45/26/39 11/27/40
f 101/135/41 103/137/42 104/138/43 102/136/44
f 37/43/45 2/44/46 12/33/47 38/34/48
f 14/36/49 8/1/50 40/2/51 39/35/52
f 30/5/53 29/32/54 24/29/55 23/4/56
f 43/7/57 7/8/58 15/28/59 44/25/60
f 34/23/61 33/12/62 20/9/63 19/22/64
f 4/45/65 17/38/66 18/21/67 10/46/68
f 19/22/69 16/47/70 10/46/71 18/21/72
f 20/9/73 6/48/74 16/47/75 19/22/76
f 21/10/77 6/48/78 20/9/79
f 42/14/80 22/15/81 7/8/82 43/7/83
f 7/8/84 22/3/85 23/4/86
f 77/111/87 78/112/88 79/113/89 80/114/90
f 46/49/91 3/50/92 26/17/93 47/18/94
f 81/115/95 82/116/96 83/117/97 84/118/98
f 31/6/99 8/1/100 30/5/101
f 8/1/102 31/16/103 41/13/104 40/2/105
f 5/51/106 32/11/107 33/12/108
f 13/52/109 5/51/110 33/12/111 34/23/112
f 9/53/113 13/52/114 34/23/115 35/24/116
f 36/37/117 1/54/118 9/53/119 35/24/120
f 27/20/121 2/44/122 37/43/123 48/19/124
f 49/55/125 37/58/126 38/57/127 50/56/128
f 39/59/129 51/60/130 50/56/131 38/57/132
f 40/61/133 52/62/134 51/60/135 39/59/136
f 40/61/137 41/64/138 53/63/139 52/62/140
f 53/63/141 41/64/142 42/66/143 54/65/144
f 54/65/145 42/66/146 43/68/147 55/67/148
f 55/67/149 43/68/150 44/70/151 56/69/152
f 56/69/153 44/70/154 45/72/155 57/71/156
f 46/73/157 58/74/158 57/71/159 45/72/160
f 58/74/161 46/73/162 47/76/163 59/75/164
f 48/77/165 60/78/166 59/75/167 47/76/168
f 37/58/169 49/55/170 60/78/171 48/77/172
f 1/54/173 49/55/174 50/56/175 9/53/176
f 51/60/177 13/52/178 9/53/179 50/56/180
f 52/62/181 5/51/182 13/52/183 51/60/184
f 52/62/185 53/63/186 32/11/187 5/51/188
f 32/11/189 53/63/190 54/65/191 21/10/192
f 6/48/193 21/10/194 54/65/195 55/67/196
f 16/47/197 6/48/198 55/67/199 56/69/200
f 10/46/201 16/47/202 56/69/203 57/71/204
f 58/74/205 4/45/206 10/46/207 57/71/208
f 4/45/209 58/74/210 59/75/211 17/38/212
f 60/78/213 36/37/214 17/38/215 59/75/216
f 49/55/217 1/54/218 36/37/219 60/78/220
f 85/119/221 86/120/222 87/121/223 88/122/224
f 11/27/225 25/30/226 26/41/227 3/39/228
f 28/31/229 12/33/230 2/44/231 27/42/232
f 89/123/233 90/124/234 91/125/235 92/126/236
f 15/28/237 7/8/238 62/80/239 61/79/240
f 7/8/241 23/4/242 63/81/243 62/80/244
f 23/4/245 24/29/246 64/82/247 63/81/248
f 24/29/249 15/28/250 61/79/251 64/82/252
f 30/5/253 8/1/254 66/84/255 65/83/256
f 8/1/257 14/36/258 67/85/259 66/84/260
f 14/36/261 29/32/262 68/86/263 67/85/264
f 29/32/265 30/5/266 65/83/267 68/86/268
f 11/27/269 15/28/270 70/88/271 69/87/272
f 15/28/273 24/29/274 71/89/275 70/88/276
f 24/29/277 25/30/278 72/90/279 71/89/280
f 25/30/281 11/27/282 69/87/283 72/90/284
f 28/31/285 29/32/286 74/92/287 73/91/288
f 29/32/289 14/36/290 75/93/291 74/92/292
f 14/36/293 12/33/294 76/94/295 75/93/296
f 12/33/297 28/31/298 73/91/299 76/94/300
f 61/79/301 62/80/302 78/96/303 77/95/304
f 62/80/305 63/81/306 79/97/307 78/96/308
f 63/81/309 64/82/310 80/98/311 79/97/312
f 64/82/313 61/79/314 77/95/315 80/98/316
f 65/83/317 66/84/318 82/100/319 81/99/320
f 66/84/321 67/85/322 83/101/323 82/100/324
f 67/85/325 68/86/326 84/102/327 83/101/328
f 68/86/329 65/83/330 81/99/331 84/102/332
f 69/87/333 70/88/334 86/104/335 85/103/336
f 70/88/337 71/89/338 87/105/339 86/104/340
f 71/89/341 72/90/342 88/106/343 87/105/344
f 72/90/345 69/87/346 85/103/347 88/106/348
f 73/91/349 74/92/350 90/108/351 89/107/352
f 74/92/353 75/93/354 91/109/355 90/108/356
f 75/93/357 76/94/358 92/110/359 91/109/360
f 76/94/361 73/91/362 89/107/363 92/110/364
f 24/29/365 29/32/366 93/128/367 94/127/368
f 29/32/369 28/31/370 95/129/371 93/128/372
f 25/30/373 24/29/374 94/127/375 96/130/376
f 28/31/377 27/42/378 97/131/379 95/129/380
f 27/42/381 26/41/382 98/132/383 97/131/384
f 26/41/385 25/30/386 96/130/387 98/132/388
f 94/139/389 93/140/390 99/134/391 100/133/392
f 93/140/393 95/141/394 101/135/395 99/134/396
f 96/142/397 94/139/398 100/133/399 102/136/400
f 95/141/401 97/143/402 103/137/403 101/135/404
f 97/143/405 98/144/406 104/138/407 103/137/408
f 98/144/409 96/142/410 102/136/411 104/138/412
