# This file uses centimeters as units for non-parametric coordinates.

v 7.711671 14.105911 11.644885
v 2.421823 14.047928 12.650210
v 0.971665 10.195755 13.524501
v 2.087171 5.823273 14.480769
v 7.742495 5.443130 12.780482
v 9.261638 10.407120 11.326434
v 4.966938 10.172867 13.664996
v -2.421823 14.056625 12.698695
v -0.971665 10.204483 13.573024
v -2.087171 5.831985 14.529292
v -7.742495 5.451843 12.829005
v -9.261638 10.415848 11.374957
v -7.711670 14.114609 11.693408
v -5.032988 10.172867 13.664996
vt 0.063991 0.561113
vt 0.063991 0.561113
vt 0.063991 0.561113
vt 0.063991 0.561113
vt 0.063991 0.561113
vt 0.063991 0.561113
vt 0.063991 0.561113
vt 0.063991 0.561113
vt 0.063991 0.561113
vt 0.063991 0.561113
vt 0.063991 0.561113
vt 0.063991 0.561113
vt 0.063991 0.561113
vt 0.063991 0.561113
vn 0.171281 0.349516 0.921141
vn 0.171281 0.349516 0.921141
vn 0.171281 0.349516 0.921141
vn -0.025414 0.230305 0.972787
vn -0.025414 0.230305 0.972787
vn -0.025414 0.230305 0.972787
vn -0.025715 0.207332 0.977933
vn -0.025715 0.207332 0.977933
vn -0.025715 0.207332 0.977933
vn 0.287349 -0.008956 0.957784
vn 0.287349 -0.008956 0.957784
vn 0.287349 -0.008956 0.957784
vn 0.471643 0.111742 0.874681
vn 0.471643 0.111742 0.874681
vn 0.471643 0.111742 0.874681
vn 0.470621 0.121984 0.873863
vn 0.470621 0.121984 0.873863
vn 0.470621 0.121984 0.873863
vn 0.025423 0.230299 0.972788
vn 0.025423 0.230299 0.972788
vn 0.025423 0.230299 0.972788
vn 0.025724 0.207329 0.977933
vn 0.025724 0.207329 0.977933
vn 0.025724 0.207329 0.977933
vn -0.287354 -0.008863 0.957783
vn -0.287354 -0.008863 0.957783
vn -0.287354 -0.008863 0.957784
vn -0.471629 0.111882 0.874670
vn -0.471629 0.111882 0.874670
vn -0.471629 0.111882 0.874670
vn -0.470619 0.121984 0.873864
vn -0.470619 0.121984 0.873863
vn -0.470619 0.121984 0.873863
vn -0.171281 0.349517 0.921141
vn -0.171281 0.349517 0.921141
vn -0.171281 0.349517 0.921141
s off
f 1/1/1 2/2/2 7/3/3
f 2/2/4 3/4/5 7/3/6
f 3/4/7 4/5/8 7/3/9
f 4/5/10 5/6/11 7/3/12
f 5/6/13 6/7/14 7/3/15
f 6/7/16 1/1/17 7/3/18
f 8/8/19 14/9/20 9/10/21
f 9/10/22 14/9/23 10/11/24
f 10/11/25 14/9/26 11/12/27
f 11/12/28 14/9/29 12/13/30
f 12/13/31 14/9/32 13/14/33
f 13/14/34 14/9/35 8/8/36
