# This file uses centimeters as units for non-parametric coordinates.

v -10.474754 -8.975502 7.364017
v -5.971031 -9.373352 6.481436
v -9.521690 9.148552 7.479971
v -5.017967 8.750687 6.597391
v -9.422935 9.139824 -6.886713
v -4.930138 8.742905 -5.949745
v -10.377403 -8.984100 -6.763612
v -5.884605 -9.380997 -5.826645
v -9.672325 10.327454 6.179656
v -5.168663 9.929565 5.297076
v -5.096397 9.923164 -4.652581
v -9.589134 10.320107 -5.589549
v -10.748009 -10.116913 -5.466449
v -6.255211 -10.513870 -4.529481
v -6.326073 -10.507599 5.181122
v -10.829796 -10.109695 6.063701
v -10.754051 2.984161 -6.162279
v -10.844139 2.992149 6.753777
v -9.750206 8.172836 6.753777
v -9.660118 8.164886 -6.162279
v -9.940819 9.498581 5.183437
v -9.869530 9.492302 -4.595744
v -11.495934 2.084633 -4.595744
v -11.567223 2.090942 5.183437
v -12.178368 4.373192 -6.251945
v -12.340965 4.387558 6.456890
v -11.668724 8.107140 6.704791
v -11.579063 8.099236 -6.136245
v -11.847069 9.347672 5.235419
v -11.775047 9.341331 -4.670431
v -12.947716 2.924759 -4.786133
v -13.092735 2.937576 4.987519
v -7.797997 -9.658676 7.505479
v -8.180931 -10.842606 6.085167
v -8.099083 -10.849838 -5.455358
v -7.699120 -9.667404 -6.872229
v -6.666344 9.342995 -6.995330
v -6.852806 10.577232 -5.578458
v -6.936058 10.584618 6.201122
v -6.766624 9.351830 7.621434
v -11.017479 -0.580681 7.479971
v -6.528343 -1.143227 6.597391
v -10.885277 -0.210838 -6.886713
v -6.407005 -0.772400 -5.949745
v -8.174706 -0.528107 -6.995330
v -8.311485 -0.932816 7.621434
v -5.891319 8.827843 0.115451
v -7.385399 -0.881538 0.115451
v -6.833214 -9.297195 0.115451
v -6.935387 -10.453766 0.082251
v -8.929222 -10.776505 0.095757
v -11.524132 -10.048355 0.082251
v -12.079002 2.136147 0.056814
v -13.537743 2.976883 -0.138427
v -13.071678 4.452095 -0.100910
v -12.441368 8.175415 0.086557
v -12.334007 9.390694 0.049039
v -10.452599 9.543816 0.056813
v -10.377892 10.389793 0.082250
v -7.695518 10.651695 0.095757
v -5.789146 9.984390 0.082250
v -11.825951 -0.349640 0.691960
v -11.298607 -8.902687 0.635350
v -11.512352 -0.439278 3.205776
v -10.979027 -8.930923 3.111511
v -11.371849 -0.479431 3.994834
v -10.835838 -8.943558 3.902523
v -11.125816 -0.549721 6.633153
v -10.585106 -8.965729 6.519259
v -11.818260 -0.298233 -0.414358
v -11.252403 -8.906769 -0.524299
v -11.491112 -0.267586 -2.589182
v -10.945580 -8.933876 -2.663207
v -11.311119 -0.250725 -3.460819
v -10.776817 -8.948776 -3.479623
v -11.037987 -0.225128 -5.891311
v -10.520653 -8.971436 -5.820332
v -12.081810 -0.783661 3.100273
v -11.692833 -8.672516 3.020491
v -12.345665 -0.702629 0.838125
v -11.963829 -8.648697 0.790326
v -11.689903 -0.897476 6.554284
v -11.294334 -8.715973 6.457915
v -11.896873 -0.833916 4.179400
v -11.506859 -8.697273 4.101430
v -12.333153 -0.640495 -0.566223
v -11.917870 -8.637787 -0.659124
v -12.055626 -0.609535 -2.536165
v -11.658958 -8.660744 -2.598817
v -11.831749 -0.591270 -3.655131
v -11.443871 -8.671974 -3.670974
v -11.599998 -0.565399 -5.845901
v -11.227684 -8.691147 -5.785960
v -11.857384 2.116547 -1.711856
v -12.927940 2.625443 -0.056813
v -11.892601 2.119667 1.924202
v -12.674461 2.586945 -1.789072
v -12.736900 2.593086 1.782369
v -13.148216 1.292389 -1.789072
v -13.414452 1.186256 -0.056813
v -12.331078 0.822014 -1.711856
v -12.565514 0.696960 0.056814
v -13.210655 1.298523 1.782369
v -12.366295 0.825119 1.924202
vt 0.314665 0.372234
vt 0.314665 0.372234
vt 0.314665 0.372234
vt 0.314665 0.372234
vt 0.314665 0.372234
vt 0.314665 0.372234
vt 0.314665 0.372234
vt 0.314665 0.372234
vt 0.314665 0.372234
vt 0.314665 0.372234
vt 0.314665 0.372234
vt 0.314665 0.372234
vt 0.314665 0.372234
vt 0.314665 0.372234
vt 0.314665 0.372234
vt 0.314665 0.372234
vt 0.314665 0.372234
vt 0.314665 0.372234
vt 0.314665 0.372234
vt 0.314665 0.372234
vt 0.314470 0.384516
vt 0.314470 0.384516
vt 0.314470 0.384516
vt 0.314470 0.384516
vt 0.314665 0.372234
vt 0.314665 0.372234
vt 0.314665 0.372234
vt 0.314665 0.372234
vt 0.314665 0.372234
vt 0.314470 0.384516
vt 0.314470 0.384516
vt 0.314665 0.372234
vt 0.314665 0.372234
vt 0.314665 0.372234
vt 0.314665 0.372234
vt 0.314665 0.372234
vt 0.314470 0.384516
vt 0.314470 0.384516
vt 0.314665 0.372234
vt 0.314665 0.372234
vt 0.314665 0.372234
vt 0.314665 0.372234
vt 0.314665 0.372234
vt 0.314665 0.372234
vt 0.314665 0.372234
vt 0.314665 0.372234
vt 0.314665 0.372234
vt 0.314665 0.372234
vt 0.314665 0.372234
vt 0.314665 0.372234
vt 0.314665 0.372234
vt 0.314665 0.372234
vt 0.314665 0.372234
vt 0.314665 0.372234
vt 0.314665 0.372234
vt 0.314665 0.372234
vt 0.314470 0.384516
vt 0.314470 0.384516
vt 0.314470 0.384516
vt 0.314470 0.384516
vt 0.314470 0.384516
vt 0.314470 0.384516
vt 0.314470 0.384516
vt 0.314470 0.384516
vt 0.314470 0.384516
vt 0.314470 0.384516
vt 0.314470 0.384516
vt 0.314470 0.384516
vt 0.314470 0.384516
vt 0.314470 0.384516
vt 0.314470 0.384516
vt 0.314665 0.372234
vt 0.314665 0.372234
vt 0.314665 0.372234
vt 0.314665 0.372234
vt 0.314665 0.372234
vt 0.314665 0.372234
vt 0.314665 0.372234
vt 0.314665 0.372234
vt 0.314665 0.372234
vt 0.314665 0.372234
vt 0.314665 0.372234
vt 0.314665 0.372234
vt 0.314665 0.372234
vt 0.314665 0.372234
vt 0.314665 0.372234
vt 0.314665 0.372234
vt 0.314665 0.372234
vt 0.314665 0.372234
vt 0.314665 0.372234
vt 0.314665 0.372234
vt 0.314665 0.372234
vt 0.314665 0.372234
vt 0.314665 0.372234
vt 0.314665 0.372234
vt 0.314665 0.372234
vt 0.314665 0.372234
vt 0.314665 0.372234
vt 0.314665 0.372234
vt 0.314665 0.372234
vt 0.314470 0.384516
vt 0.314665 0.372234
vt 0.314470 0.384516
vt 0.314470 0.384516
vt 0.314470 0.384516
vt 0.314470 0.384516
vt 0.314665 0.372234
vt 0.314665 0.372234
vt 0.314470 0.384516
vt 0.314470 0.384516
vt 0.314470 0.384516
vt 0.314470 0.384516
vt 0.314470 0.384516
vt 0.314470 0.384516
vt 0.314470 0.384516
vt 0.314470 0.384516
vt 0.314470 0.384516
vt 0.314470 0.384516
vt 0.314470 0.384516
vt 0.314470 0.384516
vt 0.314665 0.372234
vt 0.314665 0.372234
vt 0.314470 0.384516
vt 0.314470 0.384516
vt 0.314470 0.384516
vt 0.314470 0.384516
vt 0.314470 0.384516
vt 0.314470 0.384516
vt 0.314470 0.384516
vt 0.314470 0.384516
vt 0.314470 0.384516
vt 0.314470 0.384516
vt 0.314470 0.384516
vt 0.314470 0.384516
vt 0.314470 0.384516
vt 0.314470 0.384516
vt 0.314470 0.384516
vt 0.314470 0.384516
vt 0.124311 0.278473
vt 0.124311 0.278473
vt 0.124311 0.278473
vt 0.124311 0.278473
vt 0.124311 0.278473
vt 0.124311 0.278473
vt 0.314470 0.384516
vt 0.314470 0.384516
vt 0.124311 0.278473
vt 0.124311 0.278473
vt 0.124311 0.278473
vt 0.124311 0.278473
vt 0.124311 0.278473
vt 0.124311 0.278473
vn 0.487536 -0.073818 0.869977
vn 0.487536 -0.073818 0.869977
vn 0.487536 -0.073818 0.869977
vn 0.487536 -0.073818 0.869977
vn 0.331056 0.942903 0.036545
vn 0.331056 0.942903 0.036545
vn 0.331056 0.942903 0.036545
vn 0.331056 0.942903 0.036545
vn 0.503938 0.016357 -0.863585
vn 0.503938 0.016357 -0.863585
vn 0.503938 0.016357 -0.863585
vn 0.503938 0.016357 -0.863585
vn 0.160545 -0.986342 0.036809
vn 0.160545 -0.986342 0.036809
vn 0.160545 -0.986342 0.036809
vn 0.160545 -0.986342 0.036809
vn 0.985362 0.063341 0.158270
vn 0.985362 0.063341 0.158270
vn 0.985362 0.063341 0.158271
vn 0.985362 0.063341 0.158271
vn -0.975920 0.166809 -0.140555
vn -0.975920 0.166809 -0.140555
vn -0.975920 0.166809 -0.140555
vn -0.975920 0.166809 -0.140555
vn 0.527362 0.665652 0.528013
vn 0.527362 0.665652 0.528013
vn 0.527362 0.665652 0.528013
vn 0.527362 0.665652 0.528013
vn 0.986863 -0.055084 0.151877
vn 0.986863 -0.055084 0.151877
vn 0.986863 -0.055084 0.151877
vn 0.986863 -0.055084 0.151877
vn 0.533671 0.665099 -0.522339
vn 0.533671 0.665099 -0.522339
vn 0.533671 0.665099 -0.522339
vn 0.533671 0.665099 -0.522339
vn -0.990845 0.039334 -0.129150
vn -0.990845 0.039334 -0.129150
vn -0.990845 0.039334 -0.129150
vn -0.990845 0.039334 -0.129150
vn 0.408800 -0.748358 -0.522344
vn 0.408800 -0.748358 -0.522344
vn 0.408800 -0.748358 -0.522344
vn 0.408800 -0.748358 -0.522344
vn 0.981136 -0.118122 0.153031
vn 0.981136 -0.118122 0.153031
vn 0.981136 -0.118122 0.153031
vn 0.981136 -0.118122 0.153031
vn 0.402498 -0.747802 0.528004
vn 0.402498 -0.747802 0.528004
vn 0.402498 -0.747802 0.528004
vn 0.402498 -0.747802 0.528004
vn -0.934569 0.330236 -0.132382
vn -0.934569 0.330236 -0.132382
vn -0.934569 0.330236 -0.132382
vn -0.934569 0.330236 -0.132382
vn -0.933164 0.164157 -0.319776
vn -0.933164 0.164157 -0.319776
vn -0.933164 0.164157 -0.319776
vn -0.933164 0.164157 -0.319776
vn -0.977664 0.086393 0.191596
vn -0.977664 0.086393 0.191596
vn -0.977664 0.086393 0.191596
vn -0.977664 0.086393 0.191596
vn -0.982409 0.132006 -0.132086
vn -0.982409 0.132006 -0.132086
vn -0.982409 0.132006 -0.132086
vn -0.982409 0.132006 -0.132086
vn -0.975301 0.086169 -0.203379
vn -0.975301 0.086169 -0.203379
vn -0.975301 0.086169 -0.203379
vn -0.975301 0.086169 -0.203379
vn -0.971680 0.185271 -0.146672
vn -0.971680 0.185271 -0.146672
vn -0.971680 0.185271 -0.146672
vn -0.971680 0.185271 -0.146672
vn -0.103512 -0.007162 0.994602
vn -0.103512 -0.007162 0.994602
vn -0.103512 -0.007162 0.994603
vn -0.103512 -0.007162 0.994602
vn 0.022477 0.008713 -0.999709
vn 0.022477 0.008713 -0.999709
vn 0.022477 0.008713 -0.999709
vn 0.022477 0.008713 -0.999709
vn -0.042582 0.760855 0.647524
vn -0.042582 0.760855 0.647524
vn -0.042582 0.760855 0.647524
vn -0.042582 0.760855 0.647524
vn -0.079584 0.996619 -0.020427
vn -0.079584 0.996619 -0.020427
vn -0.079584 0.996619 -0.020427
vn -0.079584 0.996619 -0.020427
vn -0.034803 0.760171 -0.648791
vn -0.034803 0.760171 -0.648791
vn -0.034803 0.760171 -0.648791
vn -0.034803 0.760171 -0.648791
vn -0.408341 -0.611943 -0.677335
vn -0.408341 -0.611943 -0.677335
vn -0.408341 -0.611943 -0.677335
vn -0.408341 -0.611943 -0.677335
vn -0.493307 -0.868246 -0.052889
vn -0.493307 -0.868246 -0.052889
vn -0.493307 -0.868246 -0.052889
vn -0.493307 -0.868246 -0.052889
vn -0.510909 -0.542073 0.667180
vn -0.510909 -0.542073 0.667180
vn -0.510909 -0.542073 0.667180
vn -0.510909 -0.542073 0.667180
vn -0.210555 -0.715174 0.666478
vn -0.210555 -0.715174 0.666478
vn -0.210555 -0.715174 0.666478
vn -0.210555 -0.715174 0.666478
vn -0.268194 -0.963000 -0.026500
vn -0.268194 -0.963000 -0.026500
vn -0.268194 -0.963000 -0.026500
vn -0.268194 -0.963000 -0.026500
vn -0.202548 -0.715879 -0.668200
vn -0.202548 -0.715879 -0.668200
vn -0.202548 -0.715879 -0.668200
vn -0.202548 -0.715879 -0.668200
vn -0.039575 0.006116 -0.999198
vn -0.039575 0.006116 -0.999198
vn -0.039575 0.006116 -0.999198
vn -0.039575 0.006116 -0.999198
vn -0.073900 0.740300 -0.668202
vn -0.073900 0.740300 -0.668202
vn -0.073900 0.740300 -0.668202
vn -0.073900 0.740300 -0.668202
vn -0.095197 0.995110 -0.026330
vn -0.095197 0.995110 -0.026330
vn -0.095197 0.995110 -0.026330
vn -0.095197 0.995110 -0.026330
vn -0.081907 0.740999 0.666492
vn -0.081907 0.740999 0.666492
vn -0.081907 0.740999 0.666492
vn -0.081907 0.740999 0.666492
vn -0.055734 -0.016961 0.998302
vn -0.055734 -0.016961 0.998302
vn -0.055734 -0.016961 0.998302
vn -0.055734 -0.016961 0.998302
vn 0.493050 0.019241 0.869788
vn 0.493050 0.019241 0.869788
vn 0.493050 0.019241 0.869788
vn 0.493050 0.019241 0.869788
vn 0.497304 -0.076578 -0.864190
vn 0.497304 -0.076578 -0.864190
vn 0.497304 -0.076578 -0.864190
vn 0.497304 -0.076578 -0.864190
vn 0.976203 -0.150861 0.155788
vn 0.976203 -0.150861 0.155788
vn 0.976203 -0.150861 0.155788
vn 0.976203 -0.150861 0.155788
vn -0.931826 0.161850 0.324814
vn -0.931826 0.161850 0.324814
vn -0.931826 0.161850 0.324814
vn -0.931826 0.161850 0.324814
vn -0.922224 0.121134 -0.367190
vn -0.922224 0.121134 -0.367190
vn -0.922224 0.121134 -0.367191
vn -0.982391 -0.122417 -0.141142
vn -0.982392 -0.122417 -0.141142
vn -0.982392 -0.122417 -0.141142
vn -0.982391 -0.122417 -0.141142
vn -0.925967 0.117840 0.358746
vn -0.925967 0.117840 0.358746
vn -0.925967 0.117840 0.358746
vn -0.043259 -0.016105 -0.998934
vn -0.043259 -0.016105 -0.998934
vn -0.043259 -0.016105 -0.998934
vn -0.043259 -0.016105 -0.998934
vn -0.051524 0.007828 0.998641
vn -0.051524 0.007828 0.998641
vn -0.051524 0.007828 0.998641
vn -0.051524 0.007828 0.998641
vn -0.917112 -0.047823 -0.395751
vn -0.917112 -0.047823 -0.395751
vn -0.917112 -0.047823 -0.395751
vn -0.917112 -0.047823 -0.395751
vn 0.979455 -0.150114 -0.134661
vn 0.979455 -0.150114 -0.134661
vn 0.979455 -0.150114 -0.134661
vn 0.979455 -0.150114 -0.134661
vn 0.989178 0.066842 -0.130609
vn 0.989178 0.066842 -0.130609
vn 0.989178 0.066842 -0.130609
vn 0.989178 0.066842 -0.130609
vn 0.984266 -0.122102 -0.127713
vn 0.984266 -0.122102 -0.127713
vn 0.984266 -0.122102 -0.127713
vn 0.984267 -0.122102 -0.127713
vn 0.161329 -0.986432 -0.030422
vn 0.161329 -0.986432 -0.030422
vn 0.161329 -0.986432 -0.030422
vn 0.161329 -0.986432 -0.030422
vn -0.268475 -0.963033 0.022102
vn -0.268475 -0.963033 0.022102
vn -0.268475 -0.963033 0.022102
vn -0.268475 -0.963033 0.022102
vn -0.980249 0.168335 0.103808
vn -0.980249 0.168335 0.103808
vn -0.980249 0.168335 0.103808
vn -0.980249 0.168335 0.103808
vn -0.989815 -0.065520 0.126386
vn -0.989815 -0.065520 0.126386
vn -0.989815 -0.065520 0.126386
vn -0.989815 -0.065520 0.126386
vn -0.990415 -0.082144 0.111040
vn -0.990415 -0.082144 0.111040
vn -0.990415 -0.082144 0.111040
vn -0.990415 -0.082144 0.111040
vn -0.502697 -0.863670 0.037019
vn -0.502697 -0.863670 0.037019
vn -0.502697 -0.863670 0.037019
vn -0.502697 -0.863670 0.037019
vn -0.935590 0.339457 0.097166
vn -0.935590 0.339457 0.097166
vn -0.935590 0.339457 0.097166
vn -0.935590 0.339457 0.097166
vn -0.979775 0.164830 0.113452
vn -0.979775 0.164830 0.113452
vn -0.979775 0.164830 0.113452
vn -0.979775 0.164830 0.113452
vn -0.993655 0.036547 0.106369
vn -0.993655 0.036547 0.106369
vn -0.993655 0.036547 0.106369
vn -0.993655 0.036547 0.106369
vn -0.079813 0.996677 0.016260
vn -0.079813 0.996677 0.016260
vn -0.079813 0.996677 0.016260
vn -0.079813 0.996677 0.016260
vn -0.984812 0.135852 0.108115
vn -0.984812 0.135852 0.108115
vn -0.984812 0.135852 0.108115
vn -0.984812 0.135852 0.108115
vn -0.095474 0.995188 0.022017
vn -0.095474 0.995189 0.022017
vn -0.095474 0.995189 0.022017
vn -0.095474 0.995188 0.022017
vn 0.331812 0.942859 -0.030297
vn 0.331812 0.942859 -0.030297
vn 0.331812 0.942859 -0.030297
vn 0.331812 0.942859 -0.030297
vn 0.990528 -0.051987 -0.127090
vn 0.990528 -0.051987 -0.127090
vn 0.990528 -0.051987 -0.127090
vn 0.990528 -0.051987 -0.127090
vn -0.944639 -0.049785 0.324314
vn -0.944639 -0.049785 0.324314
vn -0.944639 -0.049785 0.324314
vn -0.944639 -0.049785 0.324314
vn -0.991917 -0.049227 0.116948
vn -0.991917 -0.049227 0.116948
vn -0.991917 -0.049227 0.116948
vn -0.991917 -0.049227 0.116948
vn -0.982620 -0.063888 0.174289
vn -0.982620 -0.063888 0.174289
vn -0.982620 -0.063888 0.174289
vn -0.982620 -0.063888 0.174289
vn -0.994883 -0.050809 0.087325
vn -0.994883 -0.050809 0.087325
vn -0.994883 -0.050809 0.087325
vn -0.994883 -0.050809 0.087325
vn -0.989527 -0.048747 -0.135872
vn -0.989527 -0.048747 -0.135872
vn -0.989527 -0.048747 -0.135872
vn -0.989526 -0.048747 -0.135872
vn -0.977556 -0.059711 -0.202035
vn -0.977556 -0.059711 -0.202035
vn -0.977556 -0.059711 -0.202035
vn -0.977556 -0.059711 -0.202035
vn -0.993531 -0.046885 -0.103432
vn -0.993531 -0.046885 -0.103432
vn -0.993531 -0.046885 -0.103432
vn -0.993531 -0.046885 -0.103432
vn -0.986794 -0.059414 -0.150694
vn -0.986794 -0.059414 -0.150694
vn -0.986794 -0.059414 -0.150694
vn -0.986794 -0.059414 -0.150693
vn -0.150110 -0.018955 0.988488
vn -0.150110 -0.018955 0.988488
vn -0.150110 -0.018955 0.988488
vn -0.150110 -0.018955 0.988488
vn -0.534292 0.839988 0.094618
vn -0.534292 0.839988 0.094618
vn -0.534292 0.839988 0.094618
vn -0.534292 0.839988 0.094618
vn -0.245724 -0.007407 -0.969312
vn -0.245724 -0.007407 -0.969312
vn -0.245724 -0.007407 -0.969312
vn -0.245724 -0.007407 -0.969312
vn -0.346757 -0.937369 0.033149
vn -0.346757 -0.937369 0.033149
vn -0.346757 -0.937369 0.033149
vn -0.346757 -0.937369 0.033149
vn -0.107981 -0.019101 0.993970
vn -0.107981 -0.019101 0.993970
vn -0.107981 -0.019101 0.993970
vn -0.107981 -0.019101 0.993970
vn -0.535673 0.841447 0.070869
vn -0.535673 0.841447 0.070869
vn -0.535673 0.841447 0.070869
vn -0.535673 0.841447 0.070869
vn -0.304699 -0.007348 -0.952421
vn -0.304699 -0.007348 -0.952421
vn -0.304698 -0.007348 -0.952421
vn -0.304699 -0.007348 -0.952421
vn -0.336032 -0.941556 0.023566
vn -0.336032 -0.941556 0.023566
vn -0.336032 -0.941556 0.023566
vn -0.336032 -0.941556 0.023566
vn -0.234435 -0.025722 0.971791
vn -0.234435 -0.025722 0.971791
vn -0.234436 -0.025722 0.971791
vn -0.234436 -0.025722 0.971791
vn -0.530018 0.845510 -0.064757
vn -0.530018 0.845510 -0.064757
vn -0.530018 0.845510 -0.064757
vn -0.530018 0.845510 -0.064757
vn -0.091649 0.002976 -0.995787
vn -0.091649 0.002976 -0.995787
vn -0.091649 0.002976 -0.995787
vn -0.091649 0.002976 -0.995787
vn -0.363893 -0.930622 -0.039048
vn -0.363893 -0.930622 -0.039048
vn -0.363893 -0.930622 -0.039048
vn -0.363893 -0.930622 -0.039048
vn -0.307872 -0.018885 0.951240
vn -0.307872 -0.018885 0.951240
vn -0.307872 -0.018885 0.951240
vn -0.307872 -0.018885 0.951240
vn -0.526971 0.848520 -0.048122
vn -0.526971 0.848520 -0.048122
vn -0.526971 0.848520 -0.048122
vn -0.526971 0.848520 -0.048122
vn -0.062220 -0.011025 -0.998002
vn -0.062220 -0.011025 -0.998002
vn -0.062220 -0.011025 -0.998002
vn -0.062220 -0.011025 -0.998002
vn -0.372522 -0.927513 -0.030785
vn -0.372522 -0.927513 -0.030785
vn -0.372522 -0.927513 -0.030785
vn -0.372522 -0.927513 -0.030785
vn -0.984311 -0.125707 -0.123815
vn -0.984311 -0.125707 -0.123815
vn -0.984311 -0.125707 -0.123815
vn -0.984311 -0.125707 -0.123815
vn -0.987752 -0.108821 0.111819
vn -0.987752 -0.108821 0.111819
vn -0.987752 -0.108821 0.111819
vn -0.987752 -0.108821 0.111819
vn -0.988945 -0.111888 0.097306
vn -0.988945 -0.111888 0.097306
vn -0.988945 -0.111888 0.097306
vn -0.988945 -0.111888 0.097306
vn -0.975319 0.183620 0.122620
vn -0.975320 0.183620 0.122620
vn -0.975319 0.183620 0.122620
vn -0.975319 0.183620 0.122620
vn -0.982967 0.131527 0.128363
vn -0.982967 0.131527 0.128363
vn -0.982967 0.131527 0.128363
vn -0.977297 0.157080 -0.142187
vn -0.977297 0.157080 -0.142187
vn -0.977297 0.157080 -0.142187
vn -0.980140 0.157190 -0.120901
vn -0.980140 0.157190 -0.120901
vn -0.980140 0.157190 -0.120901
vn -0.980140 0.157190 -0.120901
vn -0.986413 -0.089873 -0.137520
vn -0.986413 -0.089873 -0.137520
vn -0.986413 -0.089873 -0.137520
vn -0.986413 -0.089873 -0.137520
vn -0.484209 -0.865771 -0.126425
vn -0.484209 -0.865771 -0.126425
vn -0.484209 -0.865771 -0.126425
vn -0.484209 -0.865771 -0.126425
vn -0.503752 -0.856771 0.110350
vn -0.503752 -0.856771 0.110350
vn -0.503752 -0.856771 0.110350
vn -0.503752 -0.856771 0.110350
vn -0.494826 -0.867402 -0.052541
vn -0.494826 -0.867402 -0.052541
vn -0.494826 -0.867402 -0.052541
vn -0.494826 -0.867402 -0.052541
vn -0.490600 -0.870457 0.040209
vn -0.490600 -0.870457 0.040209
vn -0.490600 -0.870457 0.040209
vn -0.490600 -0.870457 0.040209
vn -0.934996 0.328431 -0.133849
vn -0.934996 0.328431 -0.133849
vn -0.934996 0.328431 -0.133849
vn -0.934996 0.328431 -0.133849
vn 0.077788 -0.028466 -0.996563
vn 0.077788 -0.028466 -0.996563
vn 0.077788 -0.028466 -0.996563
vn 0.077788 -0.028466 -0.996563
vn 0.937654 -0.329347 0.111069
vn 0.937654 -0.329347 0.111069
vn 0.937654 -0.329347 0.111069
vn 0.937654 -0.329347 0.111069
vn -0.137874 0.050453 0.989164
vn -0.137874 0.050453 0.989164
vn -0.137874 0.050453 0.989164
vn -0.137874 0.050453 0.989164
vn -0.939339 0.329954 0.093663
vn -0.939339 0.329954 0.093663
vn -0.939339 0.329954 0.093663
vn -0.939339 0.329954 0.093663
vn 0.939900 -0.330133 -0.087172
vn 0.939900 -0.330133 -0.087172
vn 0.939900 -0.330134 -0.087172
vn 0.939901 -0.330134 -0.087172
s off
f 40/1/1 46/2/2 42/3/3 4/4/4
f 38/5/5 60/6/6 61/7/7 11/8/8
f 36/9/9 45/10/10 44/11/11 8/12/12
f 50/13/13 51/14/14 35/15/15 14/16/16
f 48/17/17 49/18/18 8/19/19 44/20/20
f 25/21/21 55/22/22 56/23/23 28/24/24
f 39/25/25 40/1/26 4/4/27 10/26/28
f 61/7/29 47/27/30 6/28/31 11/8/32
f 6/28/33 37/29/34 38/5/35 11/8/36
f 28/24/37 56/23/38 57/30/39 30/31/40
f 35/15/41 36/9/42 8/12/43 14/16/44
f 8/12/45 49/32/46 50/13/47 14/16/48
f 2/33/49 33/34/50 34/35/51 15/36/52
f 54/37/53 55/22/54 25/21/55 31/38/56
f 5/39/57 43/40/58 17/41/59 20/42/60
f 3/43/61 9/44/62 21/45/63 19/46/64
f 58/47/65 59/48/66 12/49/67 22/50/68
f 12/49/69 5/51/70 20/52/71 22/50/72
f 52/53/73 73/54/74 75/55/75 13/56/76
f 18/57/77 19/58/78 27/59/79 26/60/80
f 20/61/81 17/62/82 25/21/83 28/24/84
f 19/58/85 21/63/86 29/64/87 27/59/88
f 57/30/89 58/65/90 22/66/91 30/31/92
f 22/66/93 20/61/94 28/24/95 30/31/96
f 17/62/97 23/67/98 31/38/99 25/21/100
f 31/38/101 97/68/102 95/69/103 54/37/104
f 24/70/105 18/57/106 26/60/107 32/71/108
f 34/35/109 33/34/110 1/72/111 16/73/112
f 13/56/113 35/15/114 51/14/115 52/53/116
f 7/74/117 36/9/118 35/15/119 13/56/120
f 5/51/121 37/29/122 45/10/123 43/75/124
f 38/5/125 37/29/126 5/51/127 12/49/128
f 59/48/129 60/6/130 38/5/131 12/49/132
f 3/43/133 40/1/134 39/25/135 9/44/136
f 1/76/137 33/77/138 46/2/139 41/78/140
f 42/3/141 46/2/142 33/77/143 2/79/144
f 44/11/145 45/10/146 37/29/147 6/28/148
f 47/80/149 48/17/150 44/20/151 6/81/152
f 41/78/153 3/43/154 19/46/155 18/82/156
f 43/83/157 23/84/158 17/85/159
f 23/84/160 74/86/161 72/87/162 94/88/163
f 41/89/164 18/90/165 24/91/166
f 43/75/167 45/10/168 36/9/169 7/74/170
f 41/78/171 46/2/172 40/1/173 3/43/174
f 52/53/175 53/92/176 70/93/177 71/94/178
f 42/3/179 48/17/180 47/80/181 4/4/182
f 2/79/183 49/18/184 48/17/185 42/3/186
f 50/13/187 49/32/188 2/33/189 15/36/190
f 34/35/191 51/14/192 50/13/193 15/36/194
f 52/53/195 51/14/196 34/35/197 16/73/198
f 1/72/199 69/95/200 67/96/201 16/73/202
f 41/89/203 68/97/204 69/95/205 1/72/206
f 53/92/207 62/98/208 64/99/209 96/100/210
f 54/37/211 95/69/212 98/101/213 32/71/214
f 26/60/215 55/22/216 54/37/217 32/71/218
f 56/23/219 55/22/220 26/60/221 27/59/222
f 57/30/223 56/23/224 27/59/225 29/64/226
f 21/63/227 58/65/228 57/30/229 29/64/230
f 9/44/231 59/48/232 58/47/233 21/45/234
f 9/44/235 39/25/236 60/6/237 59/48/238
f 61/7/239 60/6/240 39/25/241 10/26/242
f 4/4/243 47/27/244 61/7/245 10/26/246
f 63/102/247 62/98/248 53/92/249 52/53/250
f 79/103/251 78/104/252 80/105/253 81/106/254
f 67/96/255 66/107/256 64/99/257 65/108/258
f 83/109/259 82/110/260 84/111/261 85/112/262
f 87/113/263 86/114/264 88/115/265 89/116/266
f 73/54/267 72/87/268 74/86/269 75/55/270
f 91/117/271 90/118/272 92/119/273 93/120/274
f 77/121/275 76/122/276 43/83/277 7/74/278
f 65/123/279 64/124/280 78/104/281 79/103/282
f 64/124/283 62/125/284 80/105/285 78/104/286
f 62/125/287 63/126/288 81/106/289 80/105/290
f 63/126/291 65/123/292 79/103/293 81/106/294
f 69/127/295 68/128/296 82/110/297 83/109/298
f 68/128/299 66/129/300 84/111/301 82/110/302
f 66/129/303 67/130/304 85/112/305 84/111/306
f 67/130/307 69/127/308 83/109/309 85/112/310
f 71/131/311 70/132/312 86/114/313 87/113/314
f 70/132/315 72/133/316 88/115/317 86/114/318
f 72/133/319 73/134/320 89/116/321 88/115/322
f 73/134/323 71/131/324 87/113/325 89/116/326
f 75/135/327 74/136/328 90/118/329 91/117/330
f 74/136/331 76/137/332 92/119/333 90/118/334
f 76/137/335 77/138/336 93/120/337 92/119/338
f 77/138/339 75/135/340 91/117/341 93/120/342
f 43/83/343 76/122/344 74/86/345 23/84/346
f 96/100/347 64/99/348 66/107/349 24/91/350
f 24/91/351 66/107/352 68/97/353 41/89/354
f 16/73/355 67/96/356 65/108/357 52/53/358
f 52/53/359 65/108/360 63/102/361
f 52/53/362 71/94/363 73/54/364
f 13/56/365 75/55/366 77/121/367 7/74/368
f 53/92/369 94/88/370 72/87/371 70/93/372
f 100/139/373 99/140/374 101/141/375 102/142/376
f 104/143/377 103/144/378 100/139/379 102/142/380
f 23/67/381 94/145/382 97/68/383 31/38/384
f 32/71/385 98/101/386 96/146/387 24/70/388
f 95/147/389 97/148/390 99/140/391 100/139/392
f 97/148/393 94/149/394 101/141/395 99/140/396
f 94/149/397 53/150/398 102/142/399 101/141/400
f 96/151/401 98/152/402 103/144/403 104/143/404
f 98/152/405 95/147/406 100/139/407 103/144/408
f 53/150/409 96/151/410 104/143/411 102/142/412
