# This file uses centimeters as units for non-parametric coordinates.

v 0.000000 5.247833 14.382331
v 0.000000 0.834778 11.027944
v 0.000000 2.115417 14.396848
v 3.827637 5.545197 13.626430
v 2.310547 0.977127 11.241682
v 3.418213 2.212051 14.156545
v 2.538574 4.637665 10.828963
v -3.827148 5.545197 13.626430
v -2.310059 0.977127 11.241682
v -3.417725 2.212051 14.156545
v -2.538086 4.637665 10.828963
v 0.000000 5.527161 11.454984
v 6.833252 -3.619614 12.454338
v 0.000244 -5.139999 14.065544
v 8.044434 -6.140915 13.493406
v 0.000244 -8.359909 14.956509
v 0.000244 -9.886703 12.139616
v 9.431152 -6.835251 11.658176
v 9.538086 3.080399 10.750794
v 10.340332 -2.210007 11.089506
v 8.953857 -1.515610 12.924731
v 8.019531 5.063568 12.941789
v 8.931152 -4.073227 11.016964
v 7.991455 -3.602585 12.260841
v 6.543945 1.789200 13.694743
v 8.833008 -1.430161 9.554571
v 4.788818 -4.244186 12.938540
v 5.493164 -6.141891 13.089477
v 6.151855 -6.781357 11.646541
v 6.067627 -5.510788 10.030529
v 2.593750 -3.548752 13.366396
v 2.953125 -7.545334 14.419417
v 3.462158 -8.766525 11.962882
v 3.178711 -6.573044 10.139412
v 1.074707 -5.382736 13.801419
v 1.753662 -7.400742 13.834773
v 2.013672 -8.346848 12.030179
v 1.361816 -7.240952 10.207872
v -6.832764 -3.619614 12.454338
v -8.043945 -6.140915 13.493406
v -9.430664 -6.835251 11.658176
v -9.364502 3.309662 10.715227
v -10.339844 -2.210007 11.089506
v -8.953369 -1.515610 12.924731
v -8.019043 5.063568 12.941789
v -8.930664 -4.073227 11.016964
v -7.990967 -3.602585 12.260841
v -6.543701 1.789200 13.694743
v -8.832520 -1.430161 9.554571
v -4.788330 -4.244186 12.938540
v -5.492676 -6.141891 13.089477
v -6.151367 -6.781357 11.646541
v -6.067139 -5.510788 10.030529
v -2.593262 -3.548752 13.366396
v -2.952637 -7.545334 14.419417
v -3.461670 -8.766525 11.962882
v -3.177979 -6.573044 10.139412
v -1.074219 -5.382736 13.801419
v -1.753174 -7.400742 13.834773
v -2.013184 -8.346848 12.030179
v -1.361328 -7.240952 10.207872
v -6.032959 0.595901 12.387712
v 6.033447 0.595901 12.387712
v 0.000244 -7.741440 10.259164
v 8.657959 -4.558456 9.932917
v -8.657471 -4.558456 9.932917
v -0.612793 -4.631271 14.750348
v 0.612793 -4.631271 14.750348
v -1.842041 -2.033371 14.139212
v 1.842041 -2.033371 14.139212
v -1.842041 -2.290329 13.046948
v 1.842041 -2.290329 13.046948
v -0.612793 -4.888229 13.658085
v 0.612793 -4.888229 13.658085
vt 0.051048 0.198069
vt 0.051054 0.198073
vt 0.051056 0.198070
vt 0.051049 0.198068
vt 0.051053 0.198073
vt 0.051049 0.198071
vt 0.051057 0.198070
vt 0.051049 0.198070
vt 0.051048 0.198069
vt 0.051049 0.198068
vt 0.051056 0.198070
vt 0.051054 0.198073
vt 0.051053 0.198073
vt 0.051049 0.198071
vt 0.051057 0.198070
vt 0.051049 0.198070
vt 0.050612 0.197443
vt 0.050612 0.197443
vt 0.050612 0.197443
vt 0.050612 0.197443
vt 0.050612 0.197443
vt 0.050612 0.197443
vt 0.050612 0.197443
vt 0.050612 0.197443
vt 0.050612 0.197443
vt 0.050612 0.197443
vt 0.050612 0.197443
vt 0.050612 0.197443
vt 0.049123 0.197937
vt 0.049123 0.197937
vt 0.049123 0.197937
vt 0.049123 0.197937
vt 0.049123 0.197937
vt 0.049123 0.197937
vt 0.049123 0.197937
vt 0.049122 0.197937
vt 0.049123 0.197937
vt 0.049123 0.197937
vt 0.049122 0.197937
vt 0.049122 0.197937
vt 0.049123 0.197937
vt 0.049122 0.197937
vt 0.049122 0.197937
vt 0.049122 0.197937
vt 0.049122 0.197937
vt 0.050612 0.197443
vt 0.050612 0.197443
vt 0.050612 0.197443
vt 0.050612 0.197443
vt 0.050612 0.197443
vt 0.050612 0.197443
vt 0.050612 0.197443
vt 0.050612 0.197443
vt 0.050612 0.197443
vt 0.050612 0.197443
vt 0.050612 0.197443
vt 0.050612 0.197443
vt 0.050612 0.197443
vt 0.050612 0.197443
vt 0.050612 0.197443
vt 0.050612 0.197443
vt 0.050612 0.197443
vt 0.050612 0.197443
vt 0.050612 0.197443
vt 0.050612 0.197443
vt 0.050612 0.197443
vt 0.050612 0.197443
vt 0.050612 0.197443
vt 0.050612 0.197443
vt 0.049123 0.197937
vt 0.049123 0.197937
vt 0.049123 0.197937
vt 0.049122 0.197937
vt 0.049123 0.197937
vt 0.049123 0.197937
vt 0.049122 0.197937
vt 0.049122 0.197937
vt 0.049123 0.197937
vt 0.049122 0.197937
vt 0.049122 0.197937
vt 0.049122 0.197937
vt 0.049123 0.197937
vt 0.049122 0.197937
vt 0.049122 0.197937
vt 0.049122 0.197937
vt 0.049122 0.197937
vt 0.050612 0.197443
vt 0.050612 0.197443
vt 0.050612 0.197443
vt 0.050612 0.197443
vt 0.050612 0.197443
vt 0.050612 0.197443
vt 0.050612 0.197443
vt 0.050612 0.197443
vt 0.050612 0.197443
vt 0.050612 0.197443
vt 0.050612 0.197443
vt 0.050612 0.197443
vt 0.050612 0.197443
vt 0.050612 0.197443
vt 0.050612 0.197443
vt 0.050612 0.197443
vt 0.050612 0.197443
vt 0.050612 0.197443
vt 0.049123 0.197937
vt 0.049123 0.197937
vt 0.050612 0.197443
vt 0.050612 0.197443
vt 0.050612 0.197443
vt 0.050612 0.197443
vt 0.050612 0.197443
vt 0.049123 0.197937
vt 0.049122 0.197937
vt 0.050612 0.197443
vt 0.050612 0.197443
vt 0.050612 0.197443
vt 0.050612 0.197443
vt 0.050612 0.197443
vt 0.050612 0.197443
vt 0.050612 0.197443
vt 0.050612 0.197443
vt 0.050612 0.197443
vt 0.050612 0.197443
vt 0.050612 0.197443
vt 0.050612 0.197443
vt 0.050612 0.197443
vt 0.050612 0.197443
vt 0.050612 0.197443
vt 0.050612 0.197443
vt 0.050612 0.197443
vt 0.050612 0.197443
vt 0.050612 0.197443
vt 0.050612 0.197443
vt 0.050612 0.197443
vn -0.048140 0.474157 0.879123
vn -0.048140 0.474157 0.879123
vn -0.048140 0.474157 0.879123
vn -0.048140 0.474157 0.879123
vn 0.133720 -0.115323 0.984286
vn 0.133720 -0.115323 0.984286
vn 0.133720 -0.115323 0.984286
vn -0.176571 0.798963 -0.574875
vn -0.176571 0.798963 -0.574875
vn -0.176571 0.798963 -0.574875
vn 0.000000 0.967936 -0.251197
vn 0.000000 0.967936 -0.251197
vn 0.000000 0.967936 -0.251197
vn 0.048141 0.474157 0.879123
vn 0.048141 0.474157 0.879123
vn 0.048141 0.474157 0.879123
vn 0.048141 0.474157 0.879123
vn -0.133720 -0.115323 0.984286
vn -0.133720 -0.115323 0.984286
vn -0.133720 -0.115323 0.984286
vn 0.176571 0.798963 -0.574874
vn 0.176571 0.798963 -0.574874
vn 0.176571 0.798963 -0.574874
vn 0.000000 0.967936 -0.251197
vn 0.000000 0.967936 -0.251197
vn 0.000000 0.967936 -0.251197
vn 0.052882 0.005983 0.998583
vn 0.052882 0.005983 0.998583
vn 0.052882 0.005983 0.998583
vn -0.081804 -0.509436 -0.856611
vn -0.081804 -0.509436 -0.856611
vn -0.081804 -0.509436 -0.856611
vn -0.081804 -0.509436 -0.856611
vn 0.081804 -0.509436 -0.856611
vn 0.081804 -0.509436 -0.856611
vn 0.081804 -0.509436 -0.856611
vn 0.081804 -0.509436 -0.856611
vn -0.052882 0.005983 0.998583
vn -0.052882 0.005983 0.998583
vn -0.052882 0.005983 0.998583
vn 0.334719 -0.831663 0.443056
vn 0.593672 -0.695156 0.405353
vn 0.593672 -0.695156 0.405353
vn 0.304072 -0.842395 0.444872
vn -0.409159 0.738231 -0.536287
vn -0.155835 0.843341 -0.514287
vn -0.155835 0.843341 -0.514287
vn -0.404033 0.741082 -0.536242
vn 0.111396 0.185481 0.976313
vn 0.387233 0.208678 0.898056
vn 0.387233 0.208678 0.898056
vn 0.094605 0.183608 0.978437
vn 0.370853 -0.664512 -0.648762
vn 0.223787 -0.707428 -0.670422
vn 0.201896 -0.712272 -0.672240
vn 0.370853 -0.664512 -0.648762
vn 0.898320 0.204429 0.388883
vn 0.898320 0.204429 0.388883
vn 0.898320 0.204429 0.388883
vn 0.898320 0.204429 0.388883
vn 0.637144 -0.276700 -0.719364
vn 0.603701 -0.292740 -0.741517
vn 0.603701 -0.292740 -0.741517
vn 0.879593 -0.111325 -0.462518
vn 0.784472 -0.063979 0.616855
vn 0.602636 -0.480552 0.637103
vn 0.602636 -0.480552 0.637103
vn 0.775976 -0.097613 0.623163
vn 0.177374 -0.027286 0.983765
vn 0.198093 -0.083121 0.976653
vn 0.198093 -0.083121 0.976653
vn 0.196760 -0.079481 0.977225
vn 0.814832 0.266927 0.514586
vn 0.784472 -0.063979 0.616855
vn 0.775976 -0.097613 0.623163
vn 0.814832 0.266927 0.514586
vn 0.164691 0.006119 0.986326
vn 0.177374 -0.027286 0.983765
vn 0.196760 -0.079481 0.977225
vn 0.164691 0.006119 0.986326
vn -0.799196 -0.107667 -0.591348
vn -0.863317 -0.156200 0.479881
vn -0.952762 -0.143959 -0.267434
vn 0.968534 0.010369 -0.248666
vn 0.637144 -0.276700 -0.719364
vn 0.879593 -0.111325 -0.462518
vn 0.968534 0.010369 -0.248666
vn -0.017527 0.252898 0.967334
vn 0.200667 0.249366 0.947391
vn 0.164626 0.250800 0.953938
vn -0.017527 0.252898 0.967334
vn -0.034013 -0.932955 0.358383
vn 0.400356 -0.787118 0.469213
vn 0.278895 -0.849945 0.447003
vn -0.034013 -0.932955 0.358383
vn 0.186021 -0.667664 -0.720847
vn 0.091910 -0.670879 -0.735849
vn 0.091910 -0.670879 -0.735849
vn 0.210723 -0.665791 -0.715764
vn 0.200667 0.249366 0.947391
vn 0.188050 0.223296 0.956439
vn 0.123033 0.211041 0.969703
vn 0.164626 0.250800 0.953938
vn 0.400356 -0.787118 0.469213
vn 0.314645 -0.806014 0.501337
vn 0.377293 -0.778292 0.501908
vn 0.278895 -0.849945 0.447003
vn 0.223537 -0.685597 -0.692812
vn 0.186021 -0.667664 -0.720847
vn 0.210723 -0.665791 -0.715764
vn 0.199518 -0.693670 -0.692109
vn -0.232488 0.798878 -0.554746
vn -0.352273 0.737072 -0.576740
vn -0.356048 0.735701 -0.576172
vn -0.181128 0.798975 -0.573438
vn 0.188050 0.223296 0.956439
vn 0.111396 0.185481 0.976313
vn 0.094605 0.183608 0.978437
vn 0.123033 0.211041 0.969703
vn 0.314645 -0.806014 0.501337
vn 0.334719 -0.831663 0.443056
vn 0.304072 -0.842395 0.444872
vn 0.377293 -0.778292 0.501908
vn 0.223787 -0.707428 -0.670422
vn 0.223537 -0.685597 -0.692812
vn 0.199518 -0.693670 -0.692109
vn 0.201896 -0.712272 -0.672240
vn -0.352273 0.737072 -0.576740
vn -0.409159 0.738231 -0.536287
vn -0.404033 0.741082 -0.536242
vn -0.356048 0.735701 -0.576172
vn -0.334727 -0.831658 0.443060
vn -0.304066 -0.842395 0.444876
vn -0.593678 -0.695148 0.405358
vn -0.593678 -0.695148 0.405358
vn 0.409163 0.738231 -0.536284
vn 0.404037 0.741082 -0.536238
vn 0.155835 0.843341 -0.514288
vn 0.155835 0.843341 -0.514288
vn -0.111392 0.185480 0.976314
vn -0.094609 0.183607 0.978436
vn -0.387241 0.208674 0.898053
vn -0.387241 0.208674 0.898054
vn -0.370854 -0.664514 -0.648760
vn -0.370854 -0.664514 -0.648760
vn -0.201898 -0.712273 -0.672239
vn -0.223789 -0.707429 -0.670420
vn -0.898320 0.204430 0.388882
vn -0.898320 0.204430 0.388882
vn -0.898320 0.204430 0.388882
vn -0.898320 0.204430 0.388882
vn -0.637145 -0.276700 -0.719363
vn -0.879594 -0.111324 -0.462517
vn -0.603702 -0.292740 -0.741517
vn -0.603702 -0.292740 -0.741517
vn -0.784472 -0.063978 0.616856
vn -0.775976 -0.097612 0.623164
vn -0.602636 -0.480551 0.637103
vn -0.602636 -0.480551 0.637103
vn -0.177374 -0.027286 0.983765
vn -0.196760 -0.079481 0.977225
vn -0.198092 -0.083121 0.976653
vn -0.198092 -0.083121 0.976653
vn -0.814832 0.266926 0.514587
vn -0.814832 0.266926 0.514587
vn -0.775976 -0.097612 0.623164
vn -0.784472 -0.063978 0.616856
vn -0.164692 0.006119 0.986326
vn -0.164692 0.006119 0.986326
vn -0.196760 -0.079481 0.977225
vn -0.177374 -0.027286 0.983765
vn 0.952765 -0.143970 -0.267418
vn 0.799195 -0.107674 -0.591349
vn 0.780439 -0.103753 -0.616564
vn 0.780439 -0.103753 -0.616564
vn -0.968534 0.010369 -0.248666
vn -0.968534 0.010369 -0.248666
vn -0.879594 -0.111324 -0.462517
vn -0.637145 -0.276700 -0.719363
vn 0.017527 0.252898 0.967334
vn 0.017527 0.252898 0.967334
vn -0.164626 0.250800 0.953938
vn -0.200667 0.249366 0.947391
vn 0.034013 -0.932955 0.358383
vn 0.034013 -0.932955 0.358383
vn -0.278895 -0.849944 0.447004
vn -0.400356 -0.787118 0.469213
vn -0.186020 -0.667663 -0.720849
vn -0.210722 -0.665789 -0.715766
vn -0.091910 -0.670879 -0.735849
vn -0.091910 -0.670879 -0.735849
vn 0.333575 0.791462 -0.512168
vn 0.181127 0.798976 -0.573437
vn 0.232487 0.798880 -0.554744
vn 0.333575 0.791462 -0.512168
vn -0.200667 0.249366 0.947391
vn -0.164626 0.250800 0.953938
vn -0.123032 0.211042 0.969703
vn -0.188050 0.223296 0.956439
vn -0.400356 -0.787118 0.469213
vn -0.278895 -0.849944 0.447004
vn -0.377291 -0.778293 0.501908
vn -0.314640 -0.806017 0.501337
vn -0.223535 -0.685595 -0.692814
vn -0.199520 -0.693667 -0.692111
vn -0.210722 -0.665789 -0.715766
vn -0.186020 -0.667663 -0.720849
vn 0.232487 0.798880 -0.554744
vn 0.181127 0.798976 -0.573437
vn 0.356047 0.735703 -0.576169
vn 0.352276 0.737072 -0.576737
vn -0.188050 0.223296 0.956439
vn -0.123032 0.211042 0.969703
vn -0.094609 0.183607 0.978436
vn -0.111392 0.185480 0.976314
vn -0.314640 -0.806017 0.501337
vn -0.377291 -0.778293 0.501908
vn -0.304066 -0.842395 0.444876
vn -0.334727 -0.831658 0.443060
vn -0.223789 -0.707429 -0.670420
vn -0.201898 -0.712273 -0.672239
vn -0.199520 -0.693667 -0.692111
vn -0.223535 -0.685595 -0.692814
vn 0.352276 0.737072 -0.576737
vn 0.356047 0.735703 -0.576169
vn 0.404037 0.741082 -0.536238
vn 0.409163 0.738231 -0.536284
vn 0.085922 0.201464 0.975720
vn 0.085922 0.201464 0.975720
vn 0.085922 0.201464 0.975720
vn 0.085922 0.201464 0.975720
vn 0.089157 0.928742 -0.359846
vn 0.089157 0.928742 -0.359846
vn 0.089157 0.928742 -0.359846
vn 0.089157 0.928742 -0.359846
vn -0.229319 -0.099272 -0.968276
vn -0.229319 -0.099272 -0.968276
vn -0.229319 -0.099272 -0.968276
vn -0.229319 -0.099272 -0.968276
vn -0.242367 -0.862838 0.443586
vn -0.243503 -0.863513 0.441647
vn -0.071906 -0.722453 0.687671
vn 0.242369 -0.862840 0.443582
vn 0.243506 -0.863514 0.441643
vn 0.256799 -0.871105 0.418605
vn 0.256799 -0.871105 0.418605
vn 0.229318 -0.099274 -0.968276
vn 0.229318 -0.099274 -0.968276
vn 0.229318 -0.099274 -0.968276
vn 0.229318 -0.099274 -0.968276
vn -0.089156 0.928740 -0.359852
vn -0.089156 0.928740 -0.359852
vn -0.089156 0.928740 -0.359852
vn -0.089156 0.928740 -0.359852
vn -0.085920 0.201462 0.975721
vn -0.085920 0.201462 0.975721
vn -0.085920 0.201462 0.975721
vn -0.085920 0.201462 0.975721
vn 0.071905 -0.722448 0.687676
vn 0.243506 -0.863514 0.441643
vn 0.242369 -0.862840 0.443582
vn 0.799195 -0.107674 -0.591349
vn 0.952765 -0.143970 -0.267418
vn 0.863294 -0.156208 0.479919
vn -0.256796 -0.871103 0.418612
vn -0.243503 -0.863513 0.441647
vn -0.242367 -0.862838 0.443586
vn -0.256796 -0.871103 0.418612
vn -0.799196 -0.107667 -0.591348
vn -0.952762 -0.143959 -0.267434
vn -0.780441 -0.103747 -0.616561
vn -0.780442 -0.103747 -0.616561
vn -0.181128 0.798975 -0.573438
vn -0.333574 0.791459 -0.512173
vn -0.333574 0.791459 -0.512173
vn -0.232488 0.798878 -0.554746
vn 0.000000 0.228990 0.973429
vn 0.000000 0.228990 0.973429
vn 0.000000 0.228990 0.973429
vn 0.000000 0.228990 0.973429
vn 0.000000 0.973431 -0.228981
vn 0.000000 0.973431 -0.228981
vn 0.000000 0.973431 -0.228981
vn 0.000000 0.973431 -0.228981
vn 0.000000 -0.973428 0.228992
vn 0.000000 -0.973428 0.228992
vn 0.000000 -0.973428 0.228992
vn 0.000000 -0.973428 0.228992
vn 0.908294 -0.407219 0.095788
vn 0.908294 -0.407219 0.095788
vn 0.908294 -0.407219 0.095788
vn 0.908294 -0.407219 0.095788
vn -0.908294 -0.407219 0.095788
vn -0.908294 -0.407219 0.095788
vn -0.908294 -0.407219 0.095788
vn -0.908294 -0.407219 0.095788
s off
f 3/1/1 6/2/2 4/3/3 1/4/4
f 5/5/5 6/2/6 2/6/7
f 1/4/8 4/3/9 7/7/10
f 7/7/11 12/8/12 1/4/13
f 3/9/14 1/10/15 8/11/16 10/12/17
f 9/13/18 2/14/19 10/12/20
f 1/10/21 11/15/22 8/11/23
f 12/16/24 11/15/25 1/10/26
f 6/2/27 3/9/28 2/6/29
f 2/6/30 12/8/31 7/7/32 5/5/33
f 2/14/34 9/13/35 11/15/36 12/16/37
f 2/6/38 3/9/39 10/12/40
f 36/17/41 16/18/42 17/19/43 37/20/44
f 38/21/45 64/22/46 14/23/47 35/24/48
f 35/25/49 14/26/50 16/18/51 36/17/52
f 64/27/53 38/28/54 37/20/55 17/19/56
f 19/29/57 22/30/58 21/31/59 20/32/60
f 26/33/61 19/29/62 20/32/63 23/34/64
f 23/34/65 20/32/66 21/31/67 24/35/68
f 24/35/69 21/31/70 22/30/71 25/36/72
f 18/37/73 23/34/74 24/35/75 15/38/76
f 15/38/77 24/35/78 25/36/79 13/39/80
f 13/39/81 25/36/82 63/40/83
f 65/41/84 26/33/85 23/34/86 18/37/87
f 13/39/88 27/42/89 28/43/90 15/38/91
f 15/38/92 28/43/93 29/44/94 18/37/95
f 30/45/96 65/41/97 18/37/98 29/44/99
f 27/46/100 31/47/101 32/48/102 28/49/103
f 28/49/104 32/48/105 33/50/106 29/51/107
f 34/52/108 30/53/109 29/51/110 33/50/111
f 30/54/112 34/55/113 31/56/114 27/57/115
f 31/47/116 35/25/117 36/17/118 32/48/119
f 32/48/120 36/17/121 37/20/122 33/50/123
f 38/28/124 34/52/125 33/50/126 37/20/127
f 34/55/128 38/21/129 35/24/130 31/56/131
f 59/58/132 60/59/133 17/60/134 16/61/135
f 61/62/136 58/63/137 14/64/138 64/65/139
f 58/66/140 59/58/141 16/61/142 14/67/143
f 64/68/144 17/60/145 60/59/146 61/69/147
f 42/70/148 43/71/149 44/72/150 45/73/151
f 49/74/152 46/75/153 43/71/154 42/70/155
f 46/75/156 47/76/157 44/72/158 43/71/159
f 47/76/160 48/77/161 45/73/162 44/72/163
f 41/78/164 40/79/165 47/76/166 46/75/167
f 40/79/168 39/80/169 48/77/170 47/76/171
f 62/81/172 39/80/173 66/82/174 49/74/175
f 66/82/176 41/78/177 46/75/178 49/74/179
f 39/80/180 40/79/181 51/83/182 50/84/183
f 40/79/184 41/78/185 52/85/186 51/83/187
f 53/86/188 52/85/189 41/78/190 66/82/191
f 39/80/192 50/84/193 53/86/194 66/82/195
f 50/87/196 51/88/197 55/89/198 54/90/199
f 51/88/200 52/91/201 56/92/202 55/89/203
f 57/93/204 56/92/205 52/91/206 53/94/207
f 53/95/208 50/96/209 54/97/210 57/98/211
f 54/90/212 55/89/213 59/58/214 58/66/215
f 55/89/216 56/92/217 60/59/218 59/58/219
f 61/69/220 60/59/221 56/92/222 57/93/223
f 57/98/224 54/97/225 58/63/226 61/62/227
f 25/99/228 22/100/229 4/101/230 6/102/231
f 22/100/232 19/103/233 7/104/234 4/101/235
f 19/29/236 26/33/237 5/105/238 7/106/239
f 6/102/240 63/107/241 25/99/242
f 10/108/243 62/109/244 49/110/245 9/111/246
f 49/74/247 42/70/248 11/112/249 9/113/250
f 42/114/251 45/115/252 8/116/253 11/117/254
f 45/115/255 48/118/256 10/108/257 8/116/258
f 48/118/259 62/109/260 10/108/261
f 39/80/262 62/81/263 48/77/264
f 26/119/265 63/107/266 6/102/267 5/120/268
f 13/39/269 63/40/270 26/33/271 65/41/272
f 27/42/273 13/39/274 65/41/275 30/45/276
f 67/121/277 68/122/278 70/123/279 69/124/280
f 69/124/281 70/123/282 72/125/283 71/126/284
f 73/127/285 74/128/286 68/129/287 67/130/288
f 68/122/289 74/131/290 72/132/291 70/123/292
f 73/133/293 67/121/294 69/124/295 71/134/296
