# This file uses centimeters as units for non-parametric coordinates.

v -10.536133 2.498810 2.955343
v -3.310791 -2.192780 13.083955
v -10.057024 -5.672180 9.936580
v -4.494873 -5.342545 4.365662
v -8.238525 5.580658 11.887313
v -10.726807 6.961212 2.421578
v -9.702881 -1.708664 2.765944
v -3.495361 0.599533 13.036261
v -0.000244 0.933380 13.939309
v -11.401123 2.277908 3.759042
v -11.278564 5.766556 3.434427
v -9.097168 3.992645 12.098293
v -0.000244 4.940994 14.159614
v -9.182373 1.428436 11.803833
v 0.031006 3.172028 14.307647
v -9.494605 -2.927979 12.171916
v -10.509521 -2.982712 3.973713
v -8.697510 -5.987335 5.658520
v -5.991828 -8.461426 7.279435
v -6.899141 -7.374481 10.524729
v -0.000244 -9.514389 13.772699
v -0.000244 -1.668594 13.058548
v -0.000244 -10.048325 10.522836
v 10.535889 2.498810 2.955343
v 3.495361 0.599533 13.036263
v 10.203784 -5.622772 9.929729
v 4.494873 -5.342545 4.365662
v 10.726318 6.940857 2.421578
v 9.702637 -1.708664 2.765944
v 11.400635 2.277908 3.759042
v 11.278564 5.766556 3.434427
v 9.096924 3.992645 12.053778
v 9.182373 1.428436 11.770458
v 9.479602 -2.927979 12.168100
v 10.509521 -2.982712 3.973713
v 8.697266 -5.987335 5.658520
v 5.365263 -9.324249 7.279435
v 6.883868 -7.374481 10.524729
v 10.141846 6.071930 7.975003
v 10.976807 4.879593 7.743550
v -10.976807 4.879593 7.743550
v -10.141846 6.220840 7.975003
v -0.000244 -2.770020 14.258719
v -6.525899 -5.876251 12.851763
v 6.510896 -6.379532 12.851763
v -10.036865 5.536530 9.906701
v -9.190186 6.700516 9.916209
v 4.548584 4.466812 13.024343
v 6.966064 5.276947 12.835438
v -5.740234 5.531982 13.426067
v -5.263428 6.631241 12.415491
v -2.274170 4.781616 13.741534
v -2.059814 5.686905 13.288910
v -4.625732 3.468460 13.661298
v 4.271729 -2.647690 13.574126
v 3.310791 -2.192780 13.083956
v 4.119385 6.110306 12.662042
v -0.000244 5.422165 13.635653
v 8.238525 5.361938 11.825629
v 6.178955 6.329346 12.228807
v -3.851807 -2.734512 13.698009
v -4.490967 0.812759 13.380601
v -4.495850 -2.156082 13.334684
v 4.339111 0.533752 13.379699
v 3.934326 1.129501 13.403271
v -0.000244 1.420197 14.337977
v -3.741455 1.184570 13.660494
v 4.531006 3.808777 13.642717
v 4.042220 -7.105057 14.977852
v 3.801758 -9.356918 11.426294
v 2.940674 -10.260849 8.897420
v -2.949463 -10.257324 8.900312
v -3.520264 -9.177750 11.520690
v -3.236572 -6.686554 13.694572
v 0.000244 -6.963257 14.555782
vt 0.050148 0.198489
vt 0.050148 0.198489
vt 0.050148 0.198489
vt 0.050148 0.198489
vt 0.050148 0.198489
vt 0.050148 0.198489
vt 0.050148 0.198489
vt 0.050148 0.198489
vt 0.050148 0.198489
vt 0.050148 0.198489
vt 0.050148 0.198489
vt 0.050148 0.198489
vt 0.050148 0.198489
vt 0.050148 0.198489
vt 0.050148 0.198489
vt 0.050148 0.198489
vt 0.050148 0.198489
vt 0.050148 0.198489
vt 0.050148 0.198489
vt 0.050148 0.198489
vt 0.050148 0.198489
vt 0.050148 0.198489
vt 0.050148 0.198489
vt 0.050148 0.198489
vt 0.050148 0.198489
vt 0.050148 0.198489
vt 0.050148 0.198489
vt 0.050148 0.198489
vt 0.050148 0.198489
vt 0.050148 0.198489
vt 0.050148 0.198489
vt 0.050148 0.198489
vt 0.050148 0.198489
vt 0.050148 0.198489
vt 0.050148 0.198489
vt 0.050148 0.198489
vt 0.050148 0.198489
vt 0.050148 0.198489
vt 0.050148 0.198489
vt 0.050148 0.198489
vt 0.050148 0.198489
vt 0.050148 0.198489
vt 0.050148 0.198489
vt 0.050148 0.198489
vt 0.050148 0.198489
vt 0.050148 0.198489
vt 0.050148 0.198489
vt 0.050148 0.198489
vt 0.050148 0.198489
vt 0.050148 0.198489
vt 0.050148 0.198489
vt 0.050148 0.198489
vt 0.050148 0.198489
vt 0.050148 0.198489
vt 0.050148 0.198489
vt 0.050148 0.198489
vt 0.050148 0.198489
vt 0.050148 0.198489
vt 0.050148 0.198489
vt 0.050148 0.198489
vt 0.050148 0.198489
vt 0.050148 0.198489
vt 0.050148 0.198489
vt 0.050148 0.198489
vt 0.050148 0.198489
vt 0.050148 0.198489
vt 0.050148 0.198489
vt 0.050148 0.198489
vt 0.050148 0.198489
vt 0.050148 0.198489
vt 0.050148 0.198489
vt 0.050148 0.198489
vt 0.050148 0.198489
vt 0.050148 0.198489
vt 0.050148 0.198489
vn -0.782821 -0.587333 -0.205502
vn -0.782821 -0.587333 -0.205502
vn -0.782821 -0.587333 -0.205502
vn -0.663834 -0.098091 -0.741419
vn -0.663834 -0.098091 -0.741419
vn -0.663834 -0.098091 -0.741419
vn -0.432890 0.542414 0.719995
vn -0.432890 0.542414 0.719995
vn -0.432890 0.542414 0.719995
vn -0.432890 0.542414 0.719995
vn -0.844425 0.511141 0.160257
vn -0.844425 0.511141 0.160257
vn -0.844425 0.511141 0.160257
vn -0.844425 0.511141 0.160257
vn 0.264160 0.008537 0.964441
vn 0.264160 0.008537 0.964441
vn 0.264160 0.008537 0.964441
vn 0.264160 0.008537 0.964441
vn -0.985936 -0.167125 -0.000561
vn -0.985936 -0.167125 -0.000561
vn -0.985936 -0.167125 -0.000561
vn -0.756390 -0.076611 -0.649619
vn -0.756390 -0.076611 -0.649619
vn -0.756390 -0.076611 -0.649619
vn -0.756390 -0.076611 -0.649619
vn -0.337805 -0.087129 0.937175
vn -0.337805 -0.087129 0.937175
vn -0.337805 -0.087129 0.937175
vn -0.337805 -0.087129 0.937175
vn -0.099708 -0.698848 0.708287
vn -0.099708 -0.698848 0.708287
vn -0.099708 -0.698848 0.708287
vn -0.099708 -0.698848 0.708287
vn -0.917724 0.005234 0.397183
vn -0.917724 0.005234 0.397183
vn -0.917724 0.005234 0.397183
vn -0.985777 0.082999 0.146133
vn -0.985777 0.082999 0.146133
vn -0.985777 0.082999 0.146133
vn -0.740226 -0.152183 -0.654909
vn -0.740226 -0.152183 -0.654909
vn -0.740226 -0.152183 -0.654909
vn -0.175433 -0.579344 -0.795980
vn -0.175433 -0.579344 -0.795980
vn -0.175433 -0.579344 -0.795980
vn -0.175433 -0.579344 -0.795980
vn -0.961631 0.047393 0.270220
vn -0.961631 0.047393 0.270220
vn -0.961631 0.047393 0.270220
vn -0.574824 -0.818014 -0.020745
vn -0.574824 -0.818014 -0.020745
vn -0.574824 -0.818014 -0.020745
vn -0.574824 -0.818014 -0.020745
vn -0.549301 -0.552777 0.626663
vn -0.549301 -0.552777 0.626663
vn -0.549301 -0.552777 0.626663
vn -0.549301 -0.552777 0.626663
vn 0.128539 -0.633182 -0.763255
vn 0.128539 -0.633182 -0.763255
vn 0.128539 -0.633182 -0.763255
vn 0.128539 -0.633182 -0.763255
vn 0.128539 -0.633182 -0.763255
vn -0.533911 -0.828009 0.171289
vn -0.533912 -0.828009 0.171289
vn -0.533912 -0.828009 0.171289
vn -0.533912 -0.828009 0.171289
vn 0.774548 -0.592028 -0.222663
vn 0.774548 -0.592028 -0.222663
vn 0.774548 -0.592028 -0.222663
vn 0.663935 -0.098115 -0.741325
vn 0.663935 -0.098115 -0.741325
vn 0.663935 -0.098115 -0.741325
vn 0.205796 0.411859 0.887705
vn 0.205796 0.411859 0.887705
vn 0.205796 0.411859 0.887705
vn 0.205796 0.411859 0.887705
vn 0.824601 0.539519 0.170152
vn 0.824601 0.539519 0.170152
vn 0.824601 0.539519 0.170152
vn 0.824601 0.539519 0.170152
vn -0.379973 -0.292892 0.877402
vn -0.379973 -0.292892 0.877402
vn -0.379973 -0.292892 0.877402
vn 0.985514 -0.167912 -0.023840
vn 0.985514 -0.167912 -0.023840
vn 0.985514 -0.167912 -0.023840
vn 0.756695 -0.076793 -0.649242
vn 0.756695 -0.076793 -0.649242
vn 0.756695 -0.076793 -0.649242
vn 0.756695 -0.076793 -0.649242
vn 0.190212 -0.158565 0.968853
vn 0.190212 -0.158565 0.968853
vn 0.190212 -0.158565 0.968853
vn 0.190212 -0.158565 0.968853
vn 0.135414 -0.632640 0.762515
vn 0.135414 -0.632640 0.762515
vn 0.135414 -0.632640 0.762515
vn 0.135414 -0.632640 0.762515
vn 0.967371 -0.095888 0.234518
vn 0.967371 -0.095888 0.234518
vn 0.967371 -0.095888 0.234518
vn 0.967371 -0.095888 0.234518
vn 0.967371 -0.095888 0.234518
vn 0.973557 0.085750 0.211739
vn 0.973557 0.085750 0.211739
vn 0.973557 0.085750 0.211739
vn 0.740190 -0.152111 -0.654967
vn 0.740190 -0.152111 -0.654967
vn 0.740190 -0.152111 -0.654967
vn 0.175433 -0.579344 -0.795980
vn 0.175433 -0.579344 -0.795980
vn 0.175433 -0.579344 -0.795980
vn 0.175433 -0.579344 -0.795980
vn 0.959652 0.067770 0.272901
vn 0.959652 0.067770 0.272901
vn 0.959652 0.067770 0.272901
vn 0.607593 -0.794248 0.000015
vn 0.607593 -0.794248 0.000015
vn 0.607593 -0.794248 0.000015
vn 0.607593 -0.794248 0.000015
vn 0.096206 0.758915 0.644044
vn 0.096206 0.758915 0.644044
vn 0.096206 0.758915 0.644044
vn 0.096206 0.758915 0.644044
vn 0.582136 -0.558302 0.591115
vn 0.582136 -0.558302 0.591115
vn 0.582136 -0.558302 0.591115
vn 0.582136 -0.558302 0.591115
vn -0.179969 -0.581806 -0.793167
vn -0.179969 -0.581806 -0.793167
vn -0.179969 -0.581806 -0.793167
vn -0.179969 -0.581806 -0.793167
vn -0.179970 -0.581806 -0.793167
vn 0.526804 -0.827995 0.192097
vn 0.526805 -0.827995 0.192097
vn 0.526805 -0.827995 0.192097
vn 0.526805 -0.827995 0.192097
vn 0.747985 0.493882 0.443395
vn 0.747985 0.493882 0.443395
vn 0.747985 0.493882 0.443395
vn 0.747985 0.493882 0.443395
vn -0.817955 0.526827 0.231092
vn -0.817955 0.526827 0.231092
vn -0.817955 0.526827 0.231092
vn -0.817955 0.526827 0.231092
vn -0.100002 0.752116 0.651399
vn -0.100002 0.752116 0.651399
vn -0.100002 0.752116 0.651399
vn -0.100002 0.752116 0.651399
vn 0.214007 -0.060314 0.974969
vn 0.214007 -0.060314 0.974969
vn 0.214007 -0.060314 0.974969
vn 0.214007 -0.060314 0.974969
vn -0.427444 -0.644668 0.633794
vn -0.427444 -0.644668 0.633794
vn -0.427444 -0.644668 0.633794
vn -0.427444 -0.644668 0.633794
vn 0.570148 -0.713638 0.407003
vn 0.570148 -0.713638 0.407003
vn 0.570148 -0.713638 0.407003
vn 0.570148 -0.713638 0.407003
vn -0.235201 0.054572 0.970414
vn -0.235201 0.054572 0.970414
vn -0.235201 0.054572 0.970414
vn 0.452614 0.539807 0.709753
vn 0.452614 0.539807 0.709753
vn 0.452613 0.539807 0.709753
vn -0.664281 0.455047 0.593011
vn -0.664281 0.455047 0.593011
vn -0.664281 0.455047 0.593011
vn -0.664281 0.455047 0.593011
vn -0.967625 -0.095511 0.233624
vn -0.967625 -0.095511 0.233624
vn -0.967625 -0.095511 0.233624
vn -0.967625 -0.095511 0.233624
vn -0.967625 -0.095511 0.233624
vn 0.047625 0.356799 0.932966
vn 0.047625 0.356799 0.932966
vn 0.047625 0.356799 0.932966
vn 0.047625 0.356799 0.932966
vn 0.490504 0.562676 0.665434
vn 0.490504 0.562676 0.665434
vn 0.490504 0.562676 0.665434
vn 0.490504 0.562676 0.665434
vn 0.181173 0.297069 0.937511
vn 0.181173 0.297069 0.937511
vn 0.181173 0.297069 0.937511
vn 0.181173 0.297069 0.937511
vn 0.005366 0.588363 0.808579
vn 0.005366 0.588363 0.808579
vn 0.005366 0.588363 0.808579
vn 0.005366 0.588363 0.808579
vn -0.127259 0.584255 0.801530
vn -0.127259 0.584255 0.801530
vn -0.127259 0.584255 0.801530
vn -0.127259 0.584255 0.801530
vn 0.090240 -0.708665 0.699751
vn 0.090240 -0.708665 0.699751
vn 0.090240 -0.708665 0.699751
vn -0.185599 0.078687 0.979470
vn -0.185599 0.078687 0.979470
vn -0.185599 0.078687 0.979470
vn -0.074711 0.073022 0.994528
vn -0.074711 0.073022 0.994528
vn -0.074711 0.073022 0.994528
vn -0.125314 0.164629 0.978363
vn -0.125314 0.164629 0.978363
vn -0.125314 0.164629 0.978363
vn -0.405817 0.054094 0.912352
vn -0.405817 0.054094 0.912352
vn -0.405817 0.054094 0.912352
vn -0.405817 0.054094 0.912352
vn 0.175561 0.656344 0.733751
vn 0.175561 0.656344 0.733751
vn 0.175561 0.656344 0.733751
vn -0.143893 -0.141349 0.979447
vn -0.143893 -0.141349 0.979447
vn -0.143893 -0.141349 0.979447
vn -0.272459 0.054044 0.960649
vn -0.272459 0.054044 0.960648
vn -0.272459 0.054044 0.960649
vn -0.272459 0.054044 0.960648
vn -0.261589 0.017475 0.965021
vn -0.261589 0.017475 0.965021
vn -0.261589 0.017475 0.965021
vn -0.261589 0.017475 0.965021
vn 0.262951 0.053303 0.963336
vn 0.262951 0.053303 0.963336
vn 0.262951 0.053303 0.963336
vn 0.285277 0.156420 0.945595
vn 0.285277 0.156420 0.945595
vn 0.285277 0.156420 0.945595
vn 0.188725 -0.072961 0.979316
vn 0.188725 -0.072961 0.979316
vn 0.188725 -0.072961 0.979316
vn 0.188725 -0.072961 0.979316
vn -0.155845 -0.025716 0.987447
vn -0.155845 -0.025716 0.987447
vn -0.155845 -0.025716 0.987447
vn -0.155845 -0.025716 0.987447
vn -0.325428 -0.115706 0.938461
vn -0.325428 -0.115706 0.938461
vn -0.325428 -0.115706 0.938461
vn -0.325428 -0.115706 0.938461
vn 0.295685 0.106823 0.949294
vn 0.295685 0.106823 0.949294
vn 0.295685 0.106823 0.949294
vn 0.301511 -0.151280 0.941385
vn 0.301511 -0.151280 0.941385
vn 0.301511 -0.151280 0.941385
vn 0.540562 0.568435 0.620222
vn 0.540562 0.568435 0.620222
vn 0.540562 0.568435 0.620222
vn -0.101161 0.070292 0.992384
vn -0.101161 0.070292 0.992384
vn -0.101161 0.070292 0.992384
vn 0.334746 -0.805909 0.488319
vn 0.334746 -0.805909 0.488319
vn 0.334746 -0.805909 0.488319
vn 0.123056 -0.967178 0.222316
vn 0.123056 -0.967178 0.222316
vn 0.123056 -0.967178 0.222316
vn 0.123056 -0.967178 0.222316
vn -0.166334 -0.954820 0.246274
vn -0.166334 -0.954820 0.246274
vn -0.166334 -0.954820 0.246274
vn -0.166334 -0.954820 0.246274
vn -0.489317 -0.541105 0.683940
vn -0.489317 -0.541105 0.683940
vn -0.489317 -0.541105 0.683940
vn -0.251057 0.068374 0.965555
vn -0.251057 0.068374 0.965555
vn -0.251056 0.068374 0.965555
vn -0.269129 -0.282567 0.920720
vn -0.269129 -0.282567 0.920720
vn -0.269129 -0.282567 0.920720
vn -0.109457 -0.291661 0.950239
vn -0.109457 -0.291661 0.950239
vn -0.109457 -0.291661 0.950238
s off
f 17/1/1 18/2/2 3/3/3
f 1/4/4 7/5/5 10/6/6
f 12/7/7 50/8/8 51/9/9 5/10/10
f 41/11/11 42/12/12 6/13/13 11/14/14
f 8/15/15 62/16/16 63/17/17 2/18/18
f 10/6/19 17/1/20 3/3/21
f 10/6/22 11/14/23 6/13/24 1/4/25
f 14/19/26 54/20/27 50/8/28 12/7/29
f 66/21/30 67/22/31 8/15/32 9/23/33
f 41/11/34 12/7/35 46/24/36
f 16/25/37 14/19/38 3/3/39
f 10/6/40 7/5/41 17/1/42
f 7/5/43 4/26/44 18/2/45 17/1/46
f 10/6/47 3/3/48 14/19/49
f 3/3/50 18/2/51 19/27/52 20/28/53
f 16/25/54 3/3/55 20/28/56 44/29/57
f 18/2/58 4/26/59 23/30/60 72/31/61 19/27/62
f 19/27/63 72/31/64 73/32/65 20/28/66
f 35/33/67 26/34/68 36/35/69
f 24/36/70 30/37/71 29/38/72
f 48/39/73 57/40/74 58/41/75 13/42/76
f 39/43/77 40/44/78 31/45/79 28/46/80
f 25/47/81 64/48/82 65/49/83
f 30/37/84 26/34/85 35/33/86
f 30/37/87 24/36/88 28/46/89 31/45/90
f 33/50/91 32/51/92 49/52/93 48/39/94
f 25/47/95 65/49/96 66/21/97 9/23/98
f 31/45/99 40/44/100 32/51/101 33/50/102 30/37/103
f 34/53/104 26/34/105 33/50/106
f 30/37/107 35/33/108 29/38/109
f 29/38/110 35/33/111 36/35/112 27/54/113
f 30/37/114 33/50/115 26/34/116
f 26/34/117 38/55/118 37/56/119 36/35/120
f 55/57/121 56/58/122 22/59/123 43/60/124
f 34/53/125 45/61/126 38/55/127 26/34/128
f 36/35/129 37/56/130 71/62/131 23/30/132 27/54/133
f 37/56/134 38/55/135 70/63/136 71/62/137
f 59/64/138 32/51/139 40/44/140 39/43/141
f 46/24/142 47/65/143 42/12/144 41/11/145
f 2/18/146 61/66/147 43/60/148 22/59/149
f 34/53/150 55/57/151 43/60/152 45/61/153
f 44/29/154 20/28/155 73/32/156 74/67/157
f 38/55/158 45/61/159 69/68/160 70/63/161
f 43/60/162 44/29/163 74/67/164
f 45/61/165 43/60/166 69/68/167
f 5/10/168 47/65/169 46/24/170 12/7/171
f 11/14/172 10/6/173 14/19/174 12/7/175 41/11/176
f 49/52/177 60/69/178 57/40/179 48/39/180
f 32/51/181 59/64/182 60/69/183 49/52/184
f 68/70/185 48/39/186 13/42/187 15/71/188
f 51/9/189 50/8/190 52/72/191 53/73/192
f 53/73/193 52/72/194 13/42/195 58/41/196
f 8/15/197 67/22/198 62/16/199
f 52/72/200 15/71/201 13/42/202
f 50/8/203 54/20/204 52/72/205
f 52/72/206 54/20/207 15/71/208
f 25/47/209 56/58/210 55/57/211 64/48/212
f 63/17/213 61/66/214 2/18/215
f 43/60/216 61/66/217 44/29/218
f 63/17/219 62/16/220 14/19/221 16/25/222
f 16/25/223 44/29/224 61/66/225 63/17/226
f 64/48/227 55/57/228 34/53/229
f 65/49/230 64/48/231 33/50/232
f 66/21/233 65/49/234 68/70/235 15/71/236
f 54/20/237 67/22/238 66/21/239 15/71/240
f 62/16/241 67/22/242 54/20/243 14/19/244
f 33/50/245 64/48/246 34/53/247
f 68/70/248 65/49/249 33/50/250
f 33/50/251 48/39/252 68/70/253
f 69/68/254 43/60/255 75/74/256
f 70/63/257 69/68/258 21/75/259
f 71/62/260 70/63/261 21/75/262 23/30/263
f 73/32/264 72/31/265 23/30/266 21/75/267
f 74/67/268 73/32/269 21/75/270
f 43/60/271 74/67/272 75/74/273
f 75/74/274 74/67/275 21/75/276
f 69/68/277 75/74/278 21/75/279
