# This file uses centimeters as units for non-parametric coordinates.

v -10.560791 2.019844 15.829994
v -5.442963 1.041595 17.629311
v -8.099457 16.232277 16.556089
v -2.981598 15.254036 18.355406
v -7.262085 16.209572 14.161993
v -2.144226 15.231331 15.961309
v -9.723419 1.997139 13.435898
v -4.605591 1.018883 15.235214
v -11.123169 3.450150 16.022617
v -4.681244 2.218796 18.287460
v -3.592773 2.189278 15.175535
v -10.034729 3.420624 12.910691
v -1.533112 14.082268 15.783133
v -2.621582 14.111748 18.895056
v -9.063507 15.343086 16.630213
v -7.975067 15.313606 13.518289
v -8.162903 13.032936 16.967129
v -4.238983 12.282906 18.346684
v -3.955322 13.920967 18.430368
v -7.879211 14.670998 17.050814
v -10.224915 4.110100 16.330540
v -5.300659 3.168854 18.061790
v -3.933136 11.065216 18.465206
v -8.857391 12.006447 16.733953
v -5.540497 15.743156 17.455751
v -4.703156 15.720451 15.061655
v -7.792328 16.198418 16.177711
v -6.032166 15.861977 16.796541
v -5.497772 15.847481 15.268606
v -7.257904 16.183937 14.649776
v -7.453339 16.677635 16.071423
v -6.055176 16.410378 16.562986
v -5.658051 16.399620 15.427578
v -7.056213 16.666862 14.936013
v -7.275055 16.651604 15.976720
v -6.135376 16.433754 16.377409
v -5.836273 16.425636 15.522301
v -6.975983 16.643486 15.121613
v -5.579376 24.826363 16.251320
v -4.835602 24.684196 16.512814
v -4.593048 24.677620 15.819281
v -5.336792 24.819786 15.557787
v -5.289886 25.082603 16.139143
v -4.892700 25.006676 16.278793
v -4.781586 25.003670 15.961168
v -5.178802 25.079582 15.821517
v -4.561676 16.052437 15.264166
v -5.301666 16.072502 17.379763
v -2.999664 15.632500 18.189093
v -2.259705 15.612419 16.073496
v -4.222443 15.996315 16.034834
v -4.556427 16.005363 16.989639
v -3.324860 15.769966 17.422628
v -2.990906 15.760902 16.467823
v -4.005798 16.862694 16.226721
v -4.262299 16.869652 16.959988
v -3.235046 16.673302 17.321144
v -2.978577 16.666344 16.587877
v -7.323273 13.980965 13.758901
v -2.589935 13.076210 15.423039
v -4.244568 3.521912 14.934922
v -8.977936 4.426659 13.270784
v -4.289642 9.006691 18.360039
v -9.213898 9.947929 16.628788
v -4.484955 7.878960 18.302423
v -9.409210 8.820198 16.571173
vt 0.187528 0.380143
vt 0.187528 0.380143
vt 0.187528 0.380143
vt 0.187528 0.380143
vt 0.012384 0.061657
vt 0.012384 0.061657
vt 0.012384 0.061657
vt 0.012384 0.061657
vt 0.113450 0.304489
vt 0.113450 0.304489
vt 0.113450 0.304489
vt 0.113450 0.304489
vt 0.113450 0.251327
vt 0.113450 0.251327
vt 0.113450 0.251327
vt 0.113450 0.251327
vt 0.113450 0.251327
vt 0.113450 0.251327
vt 0.113450 0.251327
vt 0.113450 0.251327
vt 0.113450 0.251327
vt 0.113450 0.251327
vt 0.113450 0.251327
vt 0.113450 0.251327
vt 0.113450 0.251327
vt 0.113450 0.251327
vt 0.113450 0.251327
vt 0.113450 0.251327
vt 0.113450 0.251327
vt 0.113450 0.251327
vt 0.113450 0.251327
vt 0.113450 0.251327
vt 0.113450 0.251327
vt 0.113450 0.251327
vt 0.113450 0.251327
vt 0.113450 0.251327
vt 0.113450 0.251327
vt 0.113450 0.251327
vt 0.080778 0.228354
vt 0.080778 0.228354
vt 0.080778 0.228354
vt 0.080778 0.228354
vt 0.113450 0.251327
vt 0.113450 0.251327
vt 0.113450 0.251327
vt 0.113450 0.251327
vt 0.113450 0.251327
vt 0.113450 0.251327
vt 0.113450 0.251327
vt 0.113450 0.251327
vt 0.113450 0.251327
vt 0.113450 0.251327
vt 0.113450 0.251327
vt 0.113450 0.251327
vt 0.113450 0.251327
vt 0.113450 0.251327
vt 0.113450 0.251327
vt 0.113450 0.251327
vt 0.113450 0.251327
vt 0.113450 0.251327
vt 0.113450 0.251327
vt 0.113450 0.251327
vt 0.113450 0.251327
vt 0.113450 0.251327
vt 0.113450 0.251327
vt 0.113450 0.251327
vt 0.113450 0.251327
vt 0.113450 0.251327
vt 0.113450 0.251327
vt 0.113450 0.251327
vt 0.113450 0.251327
vt 0.113450 0.251327
vt 0.113450 0.251327
vt 0.113450 0.251327
vt 0.113450 0.251327
vt 0.113450 0.251327
vt 0.113450 0.251327
vt 0.113450 0.251327
vt 0.113450 0.251327
vt 0.113450 0.251327
vt 0.012384 0.061657
vt 0.012384 0.061657
vt 0.012384 0.061657
vt 0.012384 0.061657
vt 0.113450 0.251327
vt 0.113450 0.251327
vt 0.113450 0.251327
vt 0.113450 0.251327
vt 0.113450 0.251328
vt 0.113450 0.251328
vt 0.113450 0.251327
vt 0.113450 0.251327
vt 0.080778 0.228354
vt 0.080778 0.228354
vt 0.080778 0.228354
vt 0.080778 0.228354
vt 0.113450 0.250000
vt 0.113450 0.250000
vt 0.113450 0.250000
vt 0.113450 0.250000
vn -0.330139 0.008953 0.943890
vn -0.330139 0.008953 0.943890
vn -0.330139 0.008953 0.943890
vn -0.330139 0.008953 0.943890
vn 0.170427 0.984087 0.050276
vn 0.170427 0.984087 0.050276
vn 0.170427 0.984087 0.050276
vn 0.170427 0.984087 0.050276
vn 0.330139 -0.008953 -0.943890
vn 0.330139 -0.008953 -0.943890
vn 0.330139 -0.008953 -0.943890
vn 0.330139 -0.008953 -0.943890
vn -0.170427 -0.984087 -0.050276
vn -0.170427 -0.984087 -0.050276
vn -0.170427 -0.984087 -0.050276
vn -0.170427 -0.984087 -0.050276
vn 0.917856 -0.230370 0.323219
vn 0.917856 -0.230371 0.323219
vn 0.936204 -0.124590 0.328633
vn 0.936204 -0.124592 0.328633
vn -0.936271 0.124041 -0.328651
vn -0.936270 0.124042 -0.328651
vn -0.917980 0.229821 -0.323257
vn -0.917980 0.229823 -0.323257
vn -0.364397 -0.263562 0.893169
vn -0.364397 -0.263562 0.893169
vn -0.364397 -0.263562 0.893169
vn -0.364397 -0.263562 0.893169
vn 0.736086 -0.623549 0.263371
vn 0.736086 -0.623549 0.263371
vn 0.917856 -0.230371 0.323219
vn 0.917856 -0.230370 0.323219
vn 0.270138 -0.280729 -0.920987
vn 0.270138 -0.280729 -0.920987
vn 0.270138 -0.280729 -0.920987
vn 0.270138 -0.280729 -0.920987
vn -0.897981 -0.311173 -0.311131
vn -0.897981 -0.311173 -0.311130
vn -0.936270 0.124042 -0.328651
vn -0.936271 0.124041 -0.328651
vn 0.936204 -0.124592 0.328633
vn 0.936204 -0.124590 0.328633
vn 0.861314 0.411971 0.297351
vn 0.861314 0.411970 0.297351
vn -0.251159 0.347622 0.903370
vn -0.251159 0.347622 0.903370
vn -0.251159 0.347622 0.903370
vn -0.917980 0.229823 -0.323257
vn -0.917980 0.229821 -0.323257
vn -0.668024 0.704263 -0.240330
vn -0.668024 0.704263 -0.240330
vn 0.368650 0.330771 -0.868727
vn 0.368650 0.330771 -0.868728
vn 0.368650 0.330771 -0.868727
vn -0.330139 0.008953 0.943890
vn -0.330139 0.008953 0.943890
vn -0.330139 0.008952 0.943890
vn -0.330139 0.008952 0.943890
vn -0.330139 0.008953 0.943890
vn -0.330139 0.008953 0.943890
vn -0.330139 0.008953 0.943890
vn -0.330139 0.008953 0.943890
vn -0.330139 0.008953 0.943890
vn -0.330139 0.008953 0.943890
vn -0.330139 0.008953 0.943890
vn -0.330139 0.008953 0.943890
vn -0.330139 0.008953 0.943890
vn -0.330139 0.008953 0.943890
vn -0.330139 0.008953 0.943890
vn -0.330139 0.008953 0.943890
vn -0.330139 0.008953 0.943890
vn -0.330139 0.008953 0.943890
vn -0.330139 0.008953 0.943890
vn -0.330139 0.008953 0.943890
vn -0.330139 0.008953 0.943890
vn -0.330139 0.008953 0.943890
vn -0.330139 0.008953 0.943890
vn -0.330139 0.008953 0.943890
vn -0.251159 0.347622 0.903370
vn -0.251159 0.347622 0.903370
vn -0.251159 0.347622 0.903370
vn -0.251159 0.347622 0.903370
vn -0.251159 0.347622 0.903370
vn -0.251159 0.347622 0.903370
vn 0.368650 0.330771 -0.868727
vn 0.368650 0.330771 -0.868728
vn 0.368650 0.330771 -0.868727
vn 0.368650 0.330771 -0.868727
vn 0.368650 0.330771 -0.868728
vn 0.368650 0.330771 -0.868727
vn 0.170427 0.984087 0.050276
vn 0.170427 0.984087 0.050276
vn 0.170427 0.984087 0.050276
vn 0.170427 0.984087 0.050276
vn 0.170427 0.984087 0.050276
vn 0.170427 0.984087 0.050276
vn 0.170427 0.984087 0.050276
vn 0.170427 0.984087 0.050276
vn 0.170427 0.984087 0.050276
vn 0.170427 0.984087 0.050276
vn 0.170427 0.984087 0.050276
vn 0.170427 0.984087 0.050276
vn 0.170428 0.984087 0.050275
vn 0.170428 0.984087 0.050275
vn 0.170428 0.984087 0.050275
vn 0.170428 0.984087 0.050275
vn 0.170427 0.984087 0.050276
vn 0.170427 0.984087 0.050276
vn 0.170427 0.984087 0.050276
vn 0.170427 0.984087 0.050276
vn -0.243999 0.371301 0.895879
vn -0.243999 0.371302 0.895879
vn -0.243999 0.371302 0.895879
vn -0.243999 0.371302 0.895879
vn 0.929588 0.176747 0.323461
vn 0.929588 0.176747 0.323461
vn 0.929588 0.176747 0.323461
vn 0.929588 0.176747 0.323461
vn 0.369721 0.354613 -0.858811
vn 0.369721 0.354613 -0.858811
vn 0.369721 0.354613 -0.858811
vn 0.369721 0.354613 -0.858811
vn -0.810709 0.509493 -0.288390
vn -0.810709 0.509493 -0.288390
vn -0.810709 0.509493 -0.288390
vn -0.810709 0.509493 -0.288390
vn 0.170426 0.984087 0.050280
vn 0.170426 0.984087 0.050280
vn 0.170426 0.984087 0.050280
vn 0.170426 0.984087 0.050280
vn 0.170427 0.984087 0.050276
vn 0.170427 0.984087 0.050276
vn 0.170427 0.984087 0.050276
vn 0.170427 0.984087 0.050276
vn 0.170429 0.984087 0.050271
vn 0.170429 0.984087 0.050271
vn 0.170429 0.984087 0.050271
vn 0.170429 0.984087 0.050271
vn 0.170427 0.984087 0.050276
vn 0.170427 0.984087 0.050276
vn 0.170427 0.984087 0.050276
vn 0.170427 0.984087 0.050276
vn -0.325375 0.035752 0.944909
vn -0.325375 0.035752 0.944909
vn -0.325375 0.035752 0.944909
vn -0.325375 0.035752 0.944909
vn 0.932469 -0.152276 0.327589
vn 0.932469 -0.152276 0.327589
vn 0.932469 -0.152276 0.327589
vn 0.932468 -0.152276 0.327589
vn 0.334658 0.017850 -0.942171
vn 0.334658 0.017850 -0.942171
vn 0.334658 0.017850 -0.942171
vn 0.334658 0.017850 -0.942171
vn -0.923765 0.202533 -0.325021
vn -0.923765 0.202533 -0.325021
vn -0.923765 0.202533 -0.325021
vn -0.923765 0.202533 -0.325021
vn -0.178700 0.556961 0.811086
vn -0.178700 0.556961 0.811086
vn -0.178700 0.556961 0.811086
vn -0.178700 0.556961 0.811086
vn 0.876185 0.374899 0.302903
vn 0.876185 0.374899 0.302903
vn 0.876185 0.374899 0.302903
vn 0.876185 0.374899 0.302903
vn 0.369046 0.541991 -0.755017
vn 0.369046 0.541991 -0.755017
vn 0.369046 0.541991 -0.755017
vn 0.369046 0.541991 -0.755018
vn -0.694250 0.675206 -0.249228
vn -0.694250 0.675206 -0.249228
vn -0.694250 0.675205 -0.249228
vn -0.694250 0.675206 -0.249228
vn -0.805761 0.518197 -0.286742
vn -0.805761 0.518197 -0.286742
vn -0.805761 0.518197 -0.286742
vn -0.805761 0.518197 -0.286742
vn -0.241066 0.380777 0.892690
vn -0.241066 0.380777 0.892690
vn -0.241066 0.380777 0.892690
vn -0.241066 0.380777 0.892690
vn 0.927986 0.186105 0.322812
vn 0.927986 0.186105 0.322812
vn 0.927986 0.186105 0.322812
vn 0.927986 0.186105 0.322812
vn 0.370068 0.363744 -0.854833
vn 0.370068 0.363744 -0.854833
vn 0.370068 0.363744 -0.854833
vn 0.370068 0.363744 -0.854833
vn 0.103605 0.994257 0.026807
vn 0.103605 0.994257 0.026807
vn 0.103605 0.994257 0.026807
vn 0.103605 0.994257 0.026807
vn 0.147905 0.982472 0.113459
vn 0.147905 0.982472 0.113459
vn 0.147905 0.982472 0.113459
vn 0.147905 0.982472 0.113459
vn 0.236374 0.968879 0.073486
vn 0.236374 0.968880 0.073486
vn 0.236374 0.968880 0.073486
vn 0.236374 0.968880 0.073486
vn 0.192181 0.981272 -0.013128
vn 0.192181 0.981272 -0.013128
vn 0.192181 0.981272 -0.013128
vn 0.192181 0.981272 -0.013128
vn -0.900848 0.295669 -0.317889
vn -0.900848 0.295669 -0.317889
vn -0.900848 0.295669 -0.317889
vn -0.900848 0.295669 -0.317889
vn -0.305307 0.136236 0.942458
vn -0.305307 0.136236 0.942458
vn -0.305307 0.136236 0.942458
vn -0.305307 0.136236 0.942458
vn 0.942247 -0.056596 0.330102
vn 0.942247 -0.056596 0.330102
vn 0.942247 -0.056596 0.330102
vn 0.942247 -0.056596 0.330102
vn 0.349419 0.118481 -0.929445
vn 0.349419 0.118481 -0.929445
vn 0.349419 0.118481 -0.929445
vn 0.349419 0.118481 -0.929445
vn 0.330139 -0.008953 -0.943890
vn 0.330139 -0.008953 -0.943890
vn 0.330139 -0.008953 -0.943890
vn 0.330139 -0.008953 -0.943890
vn 0.330139 -0.008953 -0.943890
vn 0.330139 -0.008953 -0.943890
vn 0.330139 -0.008953 -0.943890
vn 0.330139 -0.008953 -0.943890
vn 0.330139 -0.008953 -0.943890
vn 0.330139 -0.008953 -0.943890
vn 0.330139 -0.008953 -0.943890
vn 0.330139 -0.008953 -0.943890
vn 0.330139 -0.008953 -0.943890
vn 0.330139 -0.008953 -0.943890
vn 0.330139 -0.008953 -0.943890
vn 0.330139 -0.008953 -0.943890
vn -0.330139 0.008953 0.943890
vn -0.330139 0.008953 0.943890
vn -0.330139 0.008953 0.943890
vn -0.330139 0.008953 0.943890
vn -0.330139 0.008953 0.943890
vn -0.330163 0.008956 0.943881
vn -0.330163 0.008956 0.943881
vn -0.330139 0.008953 0.943890
vn -0.330137 0.008957 0.943891
vn -0.330139 0.008953 0.943890
vn -0.330139 0.008953 0.943890
vn -0.330137 0.008957 0.943891
vn -0.330139 0.008953 0.943890
vn -0.330139 0.008953 0.943890
vn -0.330139 0.008953 0.943890
vn -0.330139 0.008953 0.943890
vn -0.330140 0.008954 0.943889
vn -0.330139 0.008953 0.943890
vn -0.330140 0.008954 0.943889
vn -0.330122 0.008954 0.943896
vn -0.330139 0.008953 0.943890
vn -0.330122 0.008954 0.943896
vn -0.330139 0.008953 0.943890
vn -0.330139 0.008953 0.943890
vn -0.330137 0.008953 0.943891
vn -0.330137 0.008953 0.943891
vn -0.330139 0.008953 0.943890
vn -0.330139 0.008953 0.943890
vn -0.330139 0.008952 0.943890
vn -0.330139 0.008952 0.943890
vn -0.330137 0.008953 0.943891
vn -0.330137 0.008953 0.943891
s off
f 17/1/1 18/2/2 19/3/3 20/4/4
f 55/5/5 56/6/6 57/7/7 58/8/8
f 59/9/9 60/10/10 61/11/11 62/12/12
f 7/13/13 8/14/14 2/15/15 1/16/16
f 10/17/17 11/18/18 13/19/19 14/20/20
f 12/21/21 9/22/22 15/23/23 16/24/24
f 1/25/25 2/26/26 10/17/27 9/22/28
f 2/26/29 8/27/30 11/18/31 10/17/32
f 12/28/33 11/29/34 8/14/35 7/13/36
f 7/30/37 1/25/38 9/22/39 12/21/40
f 14/20/41 13/19/42 6/31/43 4/32/44
f 15/23/45 25/33/46 3/34/47
f 16/24/48 15/23/49 3/34/50 5/35/51
f 16/36/52 26/37/53 13/38/54
f 21/39/55 22/40/56 65/41/57 66/42/58
f 14/20/59 15/23/60 20/43/61 19/44/62
f 17/45/63 20/43/64 15/23/65 24/46/66
f 9/22/67 10/17/68 22/47/69 21/48/70
f 18/49/71 23/50/72 14/20/73 19/44/74
f 18/49/75 17/45/76 24/46/77 23/50/78
f 25/33/79 14/20/80 4/32/81
f 15/23/82 14/20/83 25/33/84
f 5/51/85 26/37/86 16/36/87
f 13/38/88 26/37/89 6/52/90
f 43/53/91 44/54/92 45/55/93 46/56/94
f 3/34/95 25/33/96 28/57/97 27/58/98
f 25/33/99 26/37/100 29/59/101 28/57/102
f 26/37/103 5/51/104 30/60/105 29/59/106
f 5/51/107 3/34/108 27/58/109 30/60/110
f 27/58/111 28/57/112 32/61/113 31/62/114
f 28/57/115 29/59/116 33/63/117 32/61/118
f 29/59/119 30/60/120 34/64/121 33/63/122
f 30/60/123 27/58/124 31/62/125 34/64/126
f 31/62/127 32/61/128 36/65/129 35/66/130
f 32/61/131 33/63/132 37/67/133 36/65/134
f 33/63/135 34/64/136 38/68/137 37/67/138
f 34/64/139 31/62/140 35/66/141 38/68/142
f 35/66/143 36/65/144 40/69/145 39/70/146
f 36/65/147 37/67/148 41/71/149 40/69/150
f 37/67/151 38/68/152 42/72/153 41/71/154
f 38/68/155 35/66/156 39/70/157 42/72/158
f 39/70/159 40/69/160 44/54/161 43/53/162
f 40/69/163 41/71/164 45/55/165 44/54/166
f 41/71/167 42/72/168 46/56/169 45/55/170
f 42/72/171 39/70/172 43/53/173 46/56/174
f 26/37/175 25/33/176 48/73/177 47/74/178
f 25/33/179 4/32/180 49/75/181 48/73/182
f 4/32/183 6/52/184 50/76/185 49/75/186
f 6/52/187 26/37/188 47/74/189 50/76/190
f 47/74/191 48/73/192 52/77/193 51/78/194
f 48/73/195 49/75/196 53/79/197 52/77/198
f 49/75/199 50/76/200 54/80/201 53/79/202
f 50/76/203 47/74/204 51/78/205 54/80/206
f 51/81/207 52/82/208 56/6/209 55/5/210
f 52/82/211 53/83/212 57/7/213 56/6/214
f 53/83/215 54/84/216 58/8/217 57/7/218
f 54/84/219 51/81/220 55/5/221 58/8/222
f 16/36/223 13/38/224 60/85/225 59/86/226
f 13/38/227 11/29/228 61/87/229 60/85/230
f 11/29/231 12/28/232 62/88/233 61/87/234
f 12/28/235 16/36/236 59/86/237 62/88/238
f 15/23/239 9/22/240 24/46/241
f 24/46/242 9/22/243 64/89/244
f 64/89/245 9/22/246 66/90/247
f 9/22/248 21/48/249 66/90/250
f 14/20/251 23/50/252 10/17/253
f 23/50/254 63/91/255 10/17/256
f 63/91/257 65/92/258 10/17/259
f 65/92/260 22/47/261 10/17/262
f 64/93/263 63/94/264 23/95/265 24/96/266
f 66/97/267 65/98/268 63/99/269 64/100/270
