# This file uses centimeters as units for non-parametric coordinates.

v -21.491295 -0.849701 -1.202860
v -22.937523 1.713638 0.348296
v -22.952904 1.960449 -11.869831
v -21.388939 -0.704956 -11.177817
v -6.691155 4.373795 1.495700
v -6.308557 4.990417 -13.382386
v -6.525659 7.807831 -13.906500
v -6.932153 7.131714 2.313454
v -17.072624 -0.180313 0.439748
v -16.875969 0.440887 -12.916841
v -18.896416 2.507935 -13.461188
v -19.079124 1.856934 1.141157
v -10.922387 3.619202 1.450722
v -12.323602 6.277237 2.169246
v -12.272576 7.012192 -14.050708
v -10.874475 4.300919 -13.592553
v -23.000359 0.638214 -8.634725
v -17.771935 1.691666 -9.341803
v -11.338525 5.611649 -9.554759
v -5.121453 6.312027 -9.349753
v -4.037621 6.309280 -10.358624
v -3.770074 9.438156 -10.286608
v -6.392022 10.791092 -8.584263
v -13.310998 9.846802 -8.728473
v -19.143578 5.498566 -8.650091
v -24.803490 3.574844 -8.828579
v -24.869926 3.339554 -3.551376
v -19.209526 5.263290 -3.372887
v -13.329797 9.581116 -2.866674
v -6.538934 10.546707 -2.722466
v -3.870080 9.196243 -0.693917
v -4.139886 6.082291 -1.208962
v -5.301080 6.022034 -2.384593
v -11.360833 5.291260 -2.484844
v -17.872704 1.413849 -3.067282
v -23.087822 0.406250 -4.009974
v -22.757164 1.013702 0.013502
v -18.478050 1.288574 1.255831
v -11.802484 5.612427 2.287912
v -6.971581 6.377304 2.428905
v -3.832391 8.457565 -0.664123
v -3.730798 8.704147 -10.440984
v -6.557275 7.066360 -14.102459
v -11.750176 6.361557 -14.243453
v -18.291832 1.952057 -13.626870
v -22.770378 1.206497 -11.826011
v -24.657921 2.788254 -8.831208
v -24.722923 2.556671 -3.636372
v -22.903465 -0.244904 -0.057846
v -18.175835 0.196625 1.645958
v -11.427880 4.560791 2.724072
v -6.784661 5.290207 2.868490
v -3.456414 7.425537 -0.413114
v -3.348779 7.685822 -10.737451
v -6.347161 6.017853 -14.588582
v -11.372552 5.351868 -14.732996
v -17.979210 0.897247 -14.070128
v -22.917625 -0.033661 -12.027031
v -24.951866 1.530136 -8.952666
v -25.018913 1.291718 -3.604114
v -11.675775 8.318695 -11.898200
v -7.762536 8.736420 -11.963069
v -7.682366 9.527679 -10.563130
v -11.822717 9.056381 -10.476409
v -7.830255 9.134613 -0.952596
v -8.069818 8.249527 0.384808
v -11.766198 7.763550 0.186058
v -11.896081 8.650604 -1.147032
v -17.422112 4.967560 -11.516484
v -14.122643 7.452316 -11.563574
v -14.346734 8.102661 -10.348488
v -17.829277 5.437897 -10.206153
v -17.897942 5.053314 -1.811104
v -14.391870 7.665283 -1.468945
v -14.182549 6.861191 -0.323651
v -17.566154 4.464523 -0.578104
v -11.328698 7.707031 -11.427261
v -7.947015 8.065994 -11.482238
v -7.877709 8.751724 -10.273652
v -11.455071 8.342529 -10.197642
v -8.005273 8.383606 -1.311680
v -8.212853 7.621750 -0.154117
v -11.406335 7.198883 -0.327792
v -11.519067 7.968307 -1.477751
v -16.786705 4.615753 -11.075417
v -13.932916 6.759476 -11.113983
v -14.129144 7.324753 -10.066174
v -17.135735 5.018845 -9.941061
v -17.215569 4.647934 -2.119849
v -14.190850 6.910553 -1.819835
v -14.005151 6.210052 -0.834569
v -16.933617 4.144821 -1.050078
v -14.914941 8.472382 -4.554575
v -14.912286 8.597702 -7.152503
v -19.130943 5.374237 -4.835126
v -19.098869 5.474747 -7.174383
v -23.275780 3.940552 -4.970713
v -23.246300 4.044846 -7.309822
v -15.721246 8.669312 -4.821544
v -15.720941 8.770798 -6.875176
v -19.411949 6.025986 -5.057126
v -19.385521 6.104019 -6.906430
v -23.044334 4.695618 -5.178226
v -23.021263 4.778519 -7.027338
vt 0.286380 0.341681
vt 0.286380 0.341681
vt 0.286380 0.341681
vt 0.286380 0.341681
vt 0.286380 0.341681
vt 0.286380 0.341681
vt 0.286380 0.341681
vt 0.286380 0.341681
vt 0.079485 0.249582
vt 0.079485 0.249582
vt 0.079485 0.249582
vt 0.079485 0.249582
vt 0.286380 0.341681
vt 0.286380 0.341681
vt 0.286380 0.341681
vt 0.286380 0.341681
vt 0.286380 0.341681
vt 0.286380 0.341681
vt 0.286380 0.341681
vt 0.286380 0.341681
vt 0.079485 0.249582
vt 0.079485 0.249582
vt 0.079485 0.249582
vt 0.079485 0.249582
vt 0.286380 0.341681
vt 0.286380 0.341681
vt 0.286380 0.341681
vt 0.286380 0.341681
vt 0.286380 0.341681
vt 0.286380 0.341681
vt 0.286380 0.341681
vt 0.286380 0.341681
vt 0.286380 0.341681
vt 0.286380 0.341681
vt 0.286380 0.341681
vt 0.286380 0.341681
vt 0.079485 0.249582
vt 0.079485 0.249582
vt 0.286380 0.341681
vt 0.286380 0.341681
vt 0.286380 0.341681
vt 0.286380 0.341681
vt 0.286380 0.341681
vt 0.286380 0.341681
vt 0.079485 0.249582
vt 0.079485 0.249582
vt 0.079485 0.249582
vt 0.079485 0.249582
vt 0.286380 0.341681
vt 0.286380 0.341681
vt 0.079485 0.249582
vt 0.079485 0.249582
vt 0.079485 0.249582
vt 0.079485 0.249582
vt 0.079485 0.249582
vt 0.079485 0.249582
vt 0.079485 0.249582
vt 0.079485 0.249582
vt 0.079485 0.249582
vt 0.079485 0.249582
vt 0.079485 0.249582
vt 0.079485 0.249582
vt 0.079485 0.249582
vt 0.079485 0.249582
vt 0.079485 0.249582
vt 0.079485 0.249582
vt 0.079485 0.249582
vt 0.079485 0.249582
vt 0.079485 0.249582
vt 0.079485 0.249582
vt 0.079485 0.249582
vt 0.079485 0.249582
vt 0.079485 0.249582
vt 0.079485 0.249582
vt 0.079485 0.249582
vt 0.079485 0.249582
vt 0.079485 0.249582
vt 0.079485 0.249582
vt 0.286380 0.341681
vt 0.286380 0.341681
vt 0.286380 0.341681
vt 0.286380 0.341681
vt 0.286380 0.341681
vt 0.286380 0.341681
vt 0.286380 0.341681
vt 0.286380 0.341681
vt 0.286380 0.341681
vt 0.286380 0.341681
vt 0.286380 0.341681
vt 0.286380 0.341681
vt 0.286380 0.341681
vt 0.286380 0.341681
vt 0.286380 0.341681
vt 0.286380 0.341681
vt 0.286380 0.341681
vt 0.286380 0.341681
vt 0.286380 0.341681
vt 0.286380 0.341681
vt 0.286380 0.341681
vt 0.286380 0.341681
vt 0.286380 0.341681
vt 0.286380 0.341681
vt 0.286380 0.341681
vt 0.286380 0.341681
vt 0.286380 0.341681
vt 0.286380 0.341681
vt 0.286380 0.341681
vt 0.286380 0.341681
vt 0.286380 0.341681
vt 0.286380 0.341681
vt 0.286450 0.318583
vt 0.286450 0.318583
vt 0.286450 0.318583
vt 0.286450 0.318583
vt 0.286450 0.318583
vt 0.286450 0.318583
vt 0.286450 0.318583
vt 0.286450 0.318583
vt 0.286450 0.318583
vt 0.286450 0.318583
vt 0.286450 0.318583
vt 0.286450 0.318583
vt 0.286450 0.318583
vt 0.286450 0.318583
vt 0.286450 0.318583
vt 0.286450 0.318583
vt 0.286380 0.341681
vt 0.286380 0.341681
vt 0.286380 0.341681
vt 0.286380 0.341681
vt 0.286380 0.341681
vt 0.286380 0.341681
vt 0.079498 0.249588
vt 0.079498 0.249588
vt 0.079498 0.249588
vt 0.079498 0.249588
vt 0.079498 0.249588
vt 0.079498 0.249588
vt 0.079498 0.249588
vt 0.079498 0.249588
vt 0.079498 0.249588
vt 0.079498 0.249588
vt 0.079498 0.249588
vt 0.079498 0.249588
vn 0.452998 0.890814 0.035268
vn 0.452998 0.890814 0.035268
vn 0.452998 0.890814 0.035268
vn 0.452998 0.890814 0.035268
vn 0.027939 -0.999111 -0.031565
vn 0.027939 -0.999111 -0.031565
vn 0.027939 -0.999111 -0.031565
vn 0.027939 -0.999111 -0.031565
vn 0.998620 0.051201 0.011685
vn 0.998620 0.051201 0.011685
vn 0.998620 0.051201 0.011685
vn 0.998620 0.051201 0.011685
vn -0.983064 -0.182115 -0.020458
vn -0.983064 -0.182115 -0.020458
vn -0.983065 -0.182115 -0.020458
vn -0.983065 -0.182115 -0.020458
vn 0.516378 -0.855702 -0.033596
vn 0.516378 -0.855702 -0.033596
vn 0.516378 -0.855702 -0.033596
vn 0.516378 -0.855702 -0.033596
vn -0.175098 0.126505 -0.976390
vn -0.175098 0.126505 -0.976390
vn -0.175098 0.126505 -0.976390
vn -0.175098 0.126505 -0.976390
vn -0.585811 0.809766 0.033236
vn -0.585811 0.809766 0.033236
vn -0.585811 0.809766 0.033236
vn -0.585811 0.809766 0.033236
vn -0.171041 0.030696 0.984786
vn -0.171041 0.030696 0.984786
vn -0.171041 0.030696 0.984786
vn -0.171041 0.030696 0.984786
vn 0.194365 -0.980009 -0.042481
vn 0.194365 -0.980009 -0.042481
vn 0.194365 -0.980009 -0.042481
vn 0.194365 -0.980009 -0.042481
vn -0.350199 -0.124067 -0.928422
vn -0.350199 -0.124067 -0.928422
vn -0.350199 -0.124067 -0.928422
vn -0.350199 -0.124067 -0.928422
vn -0.344055 0.938251 0.036209
vn -0.344055 0.938251 0.036209
vn -0.344055 0.938251 0.036209
vn -0.344055 0.938251 0.036209
vn -0.217481 -0.295453 0.930274
vn -0.217481 -0.295453 0.930274
vn -0.217481 -0.295453 0.930274
vn -0.217481 -0.295453 0.930274
vn -0.050661 0.145793 0.988017
vn -0.050661 0.145793 0.988017
vn -0.050661 0.145793 0.988017
vn -0.050661 0.145793 0.988017
vn -0.138706 0.989481 0.041088
vn -0.138706 0.989481 0.041088
vn -0.138706 0.989481 0.041088
vn -0.138706 0.989481 0.041088
vn -0.011244 0.265239 -0.964117
vn -0.011244 0.265239 -0.964117
vn -0.011244 0.265239 -0.964117
vn -0.011244 0.265239 -0.964117
vn 0.116707 -0.992300 -0.041476
vn 0.116707 -0.992300 -0.041476
vn 0.116707 -0.992300 -0.041476
vn 0.116707 -0.992300 -0.041476
vn 0.305594 -0.825166 0.475094
vn 0.305594 -0.825166 0.475094
vn 0.305594 -0.825166 0.475094
vn 0.305594 -0.825166 0.475094
vn 0.514012 -0.781046 0.354626
vn 0.514012 -0.781046 0.354626
vn 0.514012 -0.781046 0.354626
vn 0.514012 -0.781046 0.354626
vn 0.110640 -0.947749 0.299218
vn 0.110640 -0.947749 0.299218
vn 0.110640 -0.947749 0.299218
vn 0.110640 -0.947749 0.299218
vn 0.224093 -0.943708 0.243304
vn 0.224093 -0.943708 0.243304
vn 0.224093 -0.943708 0.243304
vn 0.748555 0.156858 -0.644252
vn 0.748555 0.156858 -0.644252
vn 0.748555 0.156858 -0.644252
vn 0.748555 0.156858 -0.644252
vn 0.129224 0.863609 -0.487321
vn 0.129224 0.863609 -0.487321
vn 0.129224 0.863609 -0.487321
vn -0.105349 0.873282 -0.475689
vn -0.105349 0.873282 -0.475689
vn -0.105349 0.873282 -0.475689
vn -0.105349 0.873282 -0.475689
vn -0.876826 -0.198452 -0.437943
vn -0.876826 -0.198452 -0.437943
vn -0.876826 -0.198452 -0.437943
vn -0.876826 -0.198452 -0.437943
vn -0.131109 0.828505 0.544417
vn -0.131109 0.828505 0.544417
vn -0.131109 0.828505 0.544417
vn -0.131109 0.828505 0.544417
vn -0.007365 0.827890 0.560842
vn -0.007365 0.827890 0.560842
vn -0.007365 0.827890 0.560842
vn 0.675143 0.070645 0.734296
vn 0.675143 0.070645 0.734296
vn 0.675143 0.070645 0.734296
vn 0.675143 0.070645 0.734296
vn 0.320999 -0.907621 -0.270524
vn 0.320999 -0.907621 -0.270524
vn 0.320999 -0.907621 -0.270524
vn 0.137700 -0.917547 -0.373023
vn 0.137700 -0.917547 -0.373023
vn 0.137700 -0.917547 -0.373023
vn 0.137700 -0.917547 -0.373023
vn 0.509238 -0.753682 -0.415499
vn 0.509238 -0.753682 -0.415499
vn 0.509238 -0.753682 -0.415499
vn 0.509238 -0.753682 -0.415499
vn 0.273907 -0.833340 -0.480124
vn 0.273907 -0.833341 -0.480124
vn 0.273907 -0.833341 -0.480124
vn 0.273907 -0.833341 -0.480124
vn -0.894082 -0.293237 0.338571
vn -0.894082 -0.293237 0.338571
vn -0.894082 -0.293237 0.338571
vn -0.894082 -0.293237 0.338571
vn -0.316780 0.106804 0.942467
vn -0.316779 0.106804 0.942467
vn -0.316780 0.106804 0.942467
vn -0.316780 0.106804 0.942467
vn -0.309319 0.255430 0.916012
vn -0.309319 0.255430 0.916012
vn -0.309319 0.255430 0.916012
vn -0.309319 0.255430 0.916012
vn -0.084550 0.358488 0.929697
vn -0.084550 0.358488 0.929697
vn -0.084550 0.358488 0.929698
vn -0.084550 0.358488 0.929698
vn 0.507705 0.385885 0.770278
vn 0.507705 0.385885 0.770279
vn 0.507705 0.385885 0.770278
vn 0.507705 0.385885 0.770279
vn 0.937929 0.346333 0.018496
vn 0.937929 0.346333 0.018496
vn 0.937929 0.346333 0.018496
vn 0.937929 0.346333 0.018496
vn 0.613788 0.427222 -0.663887
vn 0.613788 0.427222 -0.663887
vn 0.613788 0.427222 -0.663887
vn 0.613789 0.427222 -0.663887
vn -0.031137 0.420866 -0.906588
vn -0.031137 0.420866 -0.906588
vn -0.031137 0.420866 -0.906588
vn -0.031137 0.420866 -0.906588
vn -0.296383 0.309198 -0.903634
vn -0.296383 0.309198 -0.903634
vn -0.296383 0.309198 -0.903634
vn -0.296383 0.309198 -0.903634
vn -0.402012 0.220515 -0.888684
vn -0.402012 0.220514 -0.888684
vn -0.402012 0.220515 -0.888684
vn -0.402012 0.220515 -0.888684
vn -0.766355 0.213544 -0.605887
vn -0.766355 0.213544 -0.605887
vn -0.766355 0.213544 -0.605887
vn -0.766355 0.213544 -0.605887
vn -0.973720 0.227740 -0.002043
vn -0.973720 0.227740 -0.002043
vn -0.973720 0.227740 -0.002043
vn -0.973720 0.227740 -0.002043
vn -0.834992 0.138094 0.532652
vn -0.834992 0.138094 0.532652
vn -0.834992 0.138094 0.532652
vn -0.834992 0.138094 0.532652
vn -0.020934 -0.930353 0.366068
vn -0.020934 -0.930353 0.366068
vn -0.020934 -0.930353 0.366068
vn -0.020934 -0.930353 0.366068
vn 0.352351 -0.712095 0.607264
vn 0.352351 -0.712095 0.607264
vn 0.352351 -0.712095 0.607264
vn 0.352351 -0.712095 0.607264
vn 0.121095 -0.799277 0.588636
vn 0.121095 -0.799277 0.588636
vn 0.121095 -0.799277 0.588636
vn 0.121095 -0.799277 0.588636
vn 0.743576 -0.553776 0.374736
vn 0.743576 -0.553776 0.374736
vn 0.743576 -0.553776 0.374736
vn 0.743576 -0.553776 0.374736
vn 0.892891 -0.450271 -0.001643
vn 0.892891 -0.450271 -0.001643
vn 0.892891 -0.450271 -0.001643
vn 0.892891 -0.450271 -0.001643
vn 0.786117 -0.474093 -0.396555
vn 0.786117 -0.474093 -0.396555
vn 0.786117 -0.474093 -0.396555
vn 0.786117 -0.474093 -0.396555
vn 0.127763 -0.727781 -0.673804
vn 0.127763 -0.727781 -0.673804
vn 0.127763 -0.727781 -0.673804
vn 0.127763 -0.727781 -0.673804
vn 0.355580 -0.647677 -0.673853
vn 0.355580 -0.647677 -0.673853
vn 0.355580 -0.647677 -0.673853
vn 0.355579 -0.647677 -0.673853
vn -0.003212 -0.873138 -0.487463
vn -0.003212 -0.873138 -0.487463
vn -0.003212 -0.873137 -0.487463
vn -0.003212 -0.873138 -0.487463
vn -0.449234 -0.878414 0.163026
vn -0.449234 -0.878414 0.163026
vn -0.449234 -0.878414 0.163026
vn -0.449234 -0.878414 0.163026
vn -0.416659 -0.907727 -0.049265
vn -0.416659 -0.907727 -0.049265
vn -0.416659 -0.907727 -0.049265
vn -0.416659 -0.907727 -0.049265
vn -0.451577 -0.883503 -0.124504
vn -0.451577 -0.883503 -0.124504
vn -0.451577 -0.883503 -0.124504
vn -0.451577 -0.883503 -0.124504
vn -0.548004 0.705200 -0.449872
vn -0.548004 0.705200 -0.449872
vn -0.548004 0.705200 -0.449872
vn -0.548004 0.705200 -0.449872
vn -0.280354 0.793451 -0.540220
vn -0.280354 0.793451 -0.540220
vn -0.280354 0.793451 -0.540220
vn -0.280354 0.793451 -0.540220
vn -0.230844 0.809057 0.540497
vn -0.230844 0.809057 0.540497
vn -0.230844 0.809057 0.540497
vn -0.230844 0.809057 0.540497
vn -0.532874 0.671691 0.514662
vn -0.532874 0.671691 0.514662
vn -0.532874 0.671691 0.514662
vn -0.532874 0.671691 0.514662
vn -0.104759 0.866002 -0.488944
vn -0.104759 0.866002 -0.488944
vn -0.104759 0.866002 -0.488944
vn -0.104759 0.866002 -0.488944
vn -0.108249 0.868288 -0.484105
vn -0.108249 0.868288 -0.484105
vn -0.108249 0.868288 -0.484105
vn -0.108249 0.868288 -0.484105
vn -0.108610 0.868180 -0.484219
vn -0.108610 0.868180 -0.484219
vn -0.108610 0.868180 -0.484219
vn -0.108610 0.868180 -0.484219
vn -0.121506 0.868143 -0.481211
vn -0.121506 0.868143 -0.481211
vn -0.121506 0.868143 -0.481211
vn -0.121506 0.868143 -0.481211
vn -0.135865 0.827478 0.544813
vn -0.135865 0.827478 0.544813
vn -0.135865 0.827478 0.544813
vn -0.135865 0.827478 0.544813
vn -0.141352 0.814265 0.563020
vn -0.141352 0.814265 0.563020
vn -0.141352 0.814265 0.563020
vn -0.141352 0.814265 0.563020
vn -0.152509 0.812886 0.562101
vn -0.152509 0.812886 0.562101
vn -0.152509 0.812886 0.562101
vn -0.152509 0.812886 0.562101
vn -0.126995 0.821134 0.556428
vn -0.126995 0.821134 0.556428
vn -0.126995 0.821134 0.556428
vn -0.126995 0.821134 0.556428
vn -0.520477 0.693636 -0.497969
vn -0.520477 0.693636 -0.497969
vn -0.520477 0.693636 -0.497969
vn -0.520477 0.693636 -0.497969
vn -0.476952 0.734044 -0.483421
vn -0.476952 0.734045 -0.483421
vn -0.476952 0.734044 -0.483421
vn -0.476952 0.734044 -0.483421
vn -0.543859 0.708222 -0.450155
vn -0.543859 0.708222 -0.450155
vn -0.543859 0.708222 -0.450155
vn -0.543859 0.708222 -0.450155
vn -0.542794 0.704922 -0.456574
vn -0.542794 0.704922 -0.456574
vn -0.542794 0.704922 -0.456574
vn -0.542794 0.704922 -0.456574
vn -0.536781 0.663166 0.521609
vn -0.536781 0.663166 0.521609
vn -0.536781 0.663166 0.521609
vn -0.536781 0.663166 0.521609
vn -0.508347 0.667768 0.543755
vn -0.508347 0.667768 0.543755
vn -0.508347 0.667768 0.543755
vn -0.508347 0.667768 0.543755
vn -0.514382 0.662648 0.544342
vn -0.514382 0.662648 0.544342
vn -0.514382 0.662648 0.544342
vn -0.514382 0.662648 0.544342
vn -0.540293 0.669946 0.509171
vn -0.540293 0.669946 0.509171
vn -0.540293 0.669946 0.509171
vn -0.540293 0.669946 0.509171
vn -0.049726 0.591246 0.804957
vn -0.049726 0.591246 0.804957
vn -0.049726 0.591246 0.804957
vn -0.049726 0.591246 0.804957
vn -0.973286 0.219192 -0.068338
vn -0.973286 0.219192 -0.068338
vn -0.973286 0.219192 -0.068338
vn -0.973286 0.219192 -0.068338
vn 0.020697 -0.354210 -0.934937
vn 0.020697 -0.354210 -0.934937
vn 0.020697 -0.354210 -0.934937
vn 0.020697 -0.354210 -0.934937
vn 0.900887 0.416333 -0.122758
vn 0.900887 0.416333 -0.122758
vn 0.900887 0.416333 -0.122758
vn 0.900887 0.416333 -0.122758
vn -0.971570 0.236044 -0.018309
vn -0.971570 0.236044 -0.018309
vn -0.971570 0.236044 -0.018309
vn -0.971570 0.236044 -0.018309
vn -0.045890 0.656440 -0.752981
vn -0.045890 0.656441 -0.752981
vn -0.045890 0.656440 -0.752981
vn -0.045890 0.656440 -0.752981
vn 0.895659 0.405383 0.182920
vn 0.895659 0.405383 0.182920
vn 0.895659 0.405384 0.182920
vn 0.895659 0.405384 0.182920
vn 0.008458 -0.432673 0.901511
vn 0.008458 -0.432673 0.901511
vn 0.008458 -0.432673 0.901511
vn 0.008458 -0.432673 0.901511
vn -0.327027 0.450139 0.830921
vn -0.327027 0.450138 0.830921
vn -0.327027 0.450138 0.830921
vn -0.327027 0.450138 0.830921
vn -0.959677 -0.279709 -0.027996
vn -0.959677 -0.279709 -0.027996
vn -0.959677 -0.279709 -0.027996
vn -0.959677 -0.279709 -0.027996
vn 0.183400 -0.289966 -0.939300
vn 0.183400 -0.289966 -0.939300
vn 0.183400 -0.289966 -0.939300
vn 0.183400 -0.289966 -0.939300
vn 0.547125 0.827455 -0.126384
vn 0.547125 0.827455 -0.126384
vn 0.547125 0.827455 -0.126384
vn 0.547125 0.827455 -0.126384
vn 0.188882 -0.372743 0.908508
vn 0.188883 -0.372743 0.908508
vn 0.188882 -0.372743 0.908508
vn 0.188883 -0.372743 0.908508
vn -0.966109 -0.258114 -0.003157
vn -0.966109 -0.258114 -0.003157
vn -0.966109 -0.258114 -0.003157
vn -0.966109 -0.258114 -0.003157
vn -0.316938 0.531124 -0.785785
vn -0.316938 0.531124 -0.785785
vn -0.316938 0.531124 -0.785785
vn -0.316938 0.531124 -0.785785
vn 0.569082 0.791312 0.223542
vn 0.569082 0.791312 0.223542
vn 0.569082 0.791312 0.223542
vn 0.569082 0.791312 0.223542
vn -0.595253 0.802750 0.035595
vn -0.595253 0.802750 0.035595
vn -0.595253 0.802750 0.035595
vn -0.595253 0.802750 0.035595
vn -0.593223 0.804520 0.028881
vn -0.593223 0.804520 0.028881
vn -0.593223 0.804520 0.028881
vn -0.593223 0.804520 0.028881
vn -0.597418 0.801385 0.029546
vn -0.597418 0.801385 0.029546
vn -0.597418 0.801385 0.029546
vn -0.597418 0.801385 0.029546
vn -0.324905 0.944685 0.044797
vn -0.324905 0.944685 0.044797
vn -0.324905 0.944685 0.044797
vn -0.324905 0.944685 0.044797
vn -0.322624 0.945760 0.038105
vn -0.322624 0.945760 0.038105
vn -0.322624 0.945760 0.038105
vn -0.322624 0.945760 0.038105
vn -0.324319 0.945385 0.032640
vn -0.324319 0.945385 0.032640
vn -0.324319 0.945384 0.032640
vn -0.324319 0.945385 0.032640
vn 0.223373 0.973570 0.047609
vn 0.223373 0.973570 0.047609
vn 0.223373 0.973570 0.047609
vn 0.223373 0.973570 0.047609
vn -0.235922 0.240247 0.941606
vn -0.235922 0.240247 0.941606
vn -0.235922 0.240247 0.941606
vn -0.235922 0.240247 0.941606
vn -0.226943 0.316200 -0.921149
vn -0.226943 0.316200 -0.921149
vn -0.226943 0.316200 -0.921149
vn -0.226943 0.316200 -0.921149
vn -0.132671 0.285142 0.949259
vn -0.132671 0.285142 0.949259
vn -0.132671 0.285142 0.949259
vn -0.132671 0.285142 0.949259
vn -0.956082 0.293099 0.001102
vn -0.956082 0.293099 0.001102
vn -0.956082 0.293099 0.001102
vn -0.956082 0.293099 0.001102
vn -0.100089 0.368699 -0.924145
vn -0.100089 0.368699 -0.924145
vn -0.100089 0.368699 -0.924145
vn -0.100089 0.368699 -0.924145
s off
f 22/3/1 23/4/2 30/5/3 31/6/4
f 20/9/5 21/10/6 32/11/7 33/12/8
f 41/13/9 42/14/10 22/15/11 31/16/12
f 26/17/13 47/18/14 48/19/15 27/20/16
f 18/21/17 19/22/18 34/23/19 35/24/20
f 44/25/21 45/26/22 11/27/23 15/28/24
f 100/133/25 102/136/26 101/135/27 99/134/28
f 12/33/29 38/34/30 39/35/31 14/36/32
f 36/37/33 17/38/34 18/21/35 35/24/36
f 3/39/37 11/27/38 45/26/39 46/40/40
f 101/135/41 102/136/42 104/138/43 103/137/44
f 37/43/45 38/34/46 12/33/47 2/44/48
f 14/36/49 39/35/50 40/2/51 8/1/52
f 30/5/53 23/4/54 24/29/55 29/32/56
f 43/7/57 44/25/58 15/28/59 7/8/60
f 34/23/61 19/22/62 20/9/63 33/12/64
f 4/45/65 10/46/66 18/21/67 17/38/68
f 19/22/69 18/21/70 10/46/71 16/47/72
f 20/9/73 19/22/74 16/47/75 6/48/76
f 21/10/77 20/9/78 6/48/79
f 42/14/80 43/7/81 7/8/82 22/15/83
f 7/8/84 23/4/85 22/3/86
f 77/111/87 80/114/88 79/113/89 78/112/90
f 46/49/91 47/18/92 26/17/93 3/50/94
f 81/115/95 84/118/96 83/117/97 82/116/98
f 31/6/99 30/5/100 8/1/101
f 8/1/102 40/2/103 41/13/104 31/16/105
f 5/51/106 33/12/107 32/11/108
f 13/52/109 34/23/110 33/12/111 5/51/112
f 9/53/113 35/24/114 34/23/115 13/52/116
f 36/37/117 35/24/118 9/53/119 1/54/120
f 27/20/121 48/19/122 37/43/123 2/44/124
f 49/55/125 50/56/126 38/57/127 37/58/128
f 39/59/129 38/57/130 50/56/131 51/60/132
f 40/61/133 39/59/134 51/60/135 52/62/136
f 40/61/137 52/62/138 53/63/139 41/64/140
f 53/63/141 54/65/142 42/66/143 41/64/144
f 54/65/145 55/67/146 43/68/147 42/66/148
f 55/67/149 56/69/150 44/70/151 43/68/152
f 56/69/153 57/71/154 45/72/155 44/70/156
f 46/73/157 45/72/158 57/71/159 58/74/160
f 58/74/161 59/75/162 47/76/163 46/73/164
f 48/77/165 47/76/166 59/75/167 60/78/168
f 37/58/169 48/77/170 60/78/171 49/55/172
f 1/54/173 9/53/174 50/56/175 49/55/176
f 51/60/177 50/56/178 9/53/179 13/52/180
f 52/62/181 51/60/182 13/52/183 5/51/184
f 52/62/185 5/51/186 32/11/187 53/63/188
f 32/11/189 21/10/190 54/65/191 53/63/192
f 6/48/193 55/67/194 54/65/195 21/10/196
f 16/47/197 56/69/198 55/67/199 6/48/200
f 10/46/201 57/71/202 56/69/203 16/47/204
f 58/74/205 57/71/206 10/46/207 4/45/208
f 4/45/209 17/38/210 59/75/211 58/74/212
f 60/78/213 59/75/214 17/38/215 36/37/216
f 49/55/217 60/78/218 36/37/219 1/54/220
f 85/119/221 88/122/222 87/121/223 86/120/224
f 11/27/225 3/39/226 26/41/227 25/30/228
f 28/31/229 27/42/230 2/44/231 12/33/232
f 89/123/233 92/126/234 91/125/235 90/124/236
f 15/28/237 61/79/238 62/80/239 7/8/240
f 7/8/241 62/80/242 63/81/243 23/4/244
f 23/4/245 63/81/246 64/82/247 24/29/248
f 24/29/249 64/82/250 61/79/251 15/28/252
f 30/5/253 65/83/254 66/84/255 8/1/256
f 8/1/257 66/84/258 67/85/259 14/36/260
f 14/36/261 67/85/262 68/86/263 29/32/264
f 29/32/265 68/86/266 65/83/267 30/5/268
f 11/27/269 69/87/270 70/88/271 15/28/272
f 15/28/273 70/88/274 71/89/275 24/29/276
f 24/29/277 71/89/278 72/90/279 25/30/280
f 25/30/281 72/90/282 69/87/283 11/27/284
f 28/31/285 73/91/286 74/92/287 29/32/288
f 29/32/289 74/92/290 75/93/291 14/36/292
f 14/36/293 75/93/294 76/94/295 12/33/296
f 12/33/297 76/94/298 73/91/299 28/31/300
f 61/79/301 77/95/302 78/96/303 62/80/304
f 62/80/305 78/96/306 79/97/307 63/81/308
f 63/81/309 79/97/310 80/98/311 64/82/312
f 64/82/313 80/98/314 77/95/315 61/79/316
f 65/83/317 81/99/318 82/100/319 66/84/320
f 66/84/321 82/100/322 83/101/323 67/85/324
f 67/85/325 83/101/326 84/102/327 68/86/328
f 68/86/329 84/102/330 81/99/331 65/83/332
f 69/87/333 85/103/334 86/104/335 70/88/336
f 70/88/337 86/104/338 87/105/339 71/89/340
f 71/89/341 87/105/342 88/106/343 72/90/344
f 72/90/345 88/106/346 85/103/347 69/87/348
f 73/91/349 89/107/350 90/108/351 74/92/352
f 74/92/353 90/108/354 91/109/355 75/93/356
f 75/93/357 91/109/358 92/110/359 76/94/360
f 76/94/361 92/110/362 89/107/363 73/91/364
f 24/29/365 94/127/366 93/128/367 29/32/368
f 29/32/369 93/128/370 95/129/371 28/31/372
f 25/30/373 96/130/374 94/127/375 24/29/376
f 28/31/377 95/129/378 97/131/379 27/42/380
f 27/42/381 97/131/382 98/132/383 26/41/384
f 26/41/385 98/132/386 96/130/387 25/30/388
f 94/139/389 100/133/390 99/134/391 93/140/392
f 93/140/393 99/134/394 101/135/395 95/141/396
f 96/142/397 102/136/398 100/133/399 94/139/400
f 95/141/401 101/135/402 103/137/403 97/143/404
f 97/143/405 103/137/406 104/138/407 98/144/408
f 98/144/409 104/138/410 102/136/411 96/142/412
