# This file uses centimeters as units for non-parametric coordinates.

v 500.000000 0.000000 -500.000000
v 500.000000 0.000000 0.000000
v 500.000000 -101.998093 0.000000
v 500.000000 -101.998093 -500.000000
v 237.703308 -101.998108 -500.000000
v 313.253235 -101.998108 0.000000
v 276.760986 -101.998108 -240.232422
v 247.958740 -101.998108 -112.000000
v 299.745422 -101.998108 -399.845703
v 247.958740 0.000006 -112.000000
v 313.253235 0.000005 0.000001
v 299.745422 -0.000001 -399.845703
v 276.760986 0.000003 -250.000000
v 237.703308 0.000008 -500.000000
v 484.256042 0.000004 -312.500000
v 484.255981 0.000004 -187.500000
v 500.000000 0.000004 -187.500000
v 500.000000 0.000004 -312.500000
v 500.000000 0.000004 -62.500000
v 484.255981 0.000004 -62.500000
v 484.255981 0.000004 -437.500000
v 500.000000 0.000004 -437.500000
v 0.000000 0.000000 -500.000000
v 0.000000 0.000000 0.000000
v 0.000000 -101.998093 0.000000
v 0.000000 -101.998093 -500.000000
v 15.743958 0.000004 -312.500000
v 15.743958 0.000004 -187.500000
v 0.000000 0.000004 -187.500000
v 0.000000 0.000004 -312.500000
v 0.000000 0.000004 -62.500000
v 15.743958 0.000004 -62.500000
v 15.743958 0.000004 -437.500000
v 0.000000 0.000004 -437.500000
vt 0.031533 0.004196
vt 0.031533 0.004196
vt 0.031533 0.004196
vt 0.031533 0.004198
vt 0.031528 0.004196
vt 0.031533 0.004196
vt 0.031533 0.004196
vt 0.031528 0.004196
vt 0.031528 0.004198
vt 0.031533 0.004198
vt 0.031528 0.004198
vt 0.047261 0.662560
vt 0.018212 0.628098
vt 0.045435 0.389586
vt 0.018212 0.395296
vt 0.018212 0.860898
vt 0.048581 0.860898
vt 0.018212 0.977299
vt 0.018212 0.046094
vt 0.048581 0.162495
vt 0.018212 0.162495
vt 0.982650 0.235623
vt 0.982650 0.511697
vt 0.982650 0.771015
vt 0.982650 0.977299
vt 0.069402 0.003988
vt 0.069402 0.003988
vt 0.069402 0.003988
vt 0.069402 0.003988
vt 0.069402 0.003988
vt 0.069402 0.003988
vt 0.069402 0.003988
vt 0.069402 0.003988
vt 0.982650 0.046094
vt 0.020088 0.032143
vt 0.020088 0.032141
vt 0.020088 0.032141
vt 0.020088 0.032143
vt 0.020088 0.032141
vt 0.020088 0.032141
vt 0.020088 0.032141
vt 0.020088 0.032141
vt 0.031533 0.004196
vt 0.031528 0.004196
vt 0.031533 0.004196
vt 0.031528 0.004196
vt 0.031533 0.004196
vt 0.031533 0.004196
vt 0.031533 0.004196
vt 0.031528 0.004198
vt 0.031533 0.004198
vt 0.031533 0.004198
vt 0.031528 0.004198
vt 0.047261 0.662560
vt 0.045435 0.389586
vt 0.018212 0.628098
vt 0.018212 0.395296
vt 0.018212 0.860898
vt 0.018212 0.977299
vt 0.048581 0.860898
vt 0.018212 0.046094
vt 0.018212 0.162495
vt 0.048581 0.162495
vt 0.982650 0.511697
vt 0.982650 0.235623
vt 0.982650 0.977299
vt 0.982650 0.771015
vt 0.069402 0.003988
vt 0.069402 0.003988
vt 0.069402 0.003988
vt 0.069402 0.003988
vt 0.069402 0.003988
vt 0.069402 0.003988
vt 0.069402 0.003988
vt 0.069402 0.003988
vt 0.982650 0.046094
vt 0.020088 0.032143
vt 0.020088 0.032141
vt 0.020088 0.032141
vt 0.020088 0.032143
vt 0.020088 0.032141
vt 0.020088 0.032141
vt 0.020088 0.032141
vt 0.020088 0.032141
vn 0.000000 -1.000000 0.000000
vn 0.000000 -1.000000 0.000000
vn 0.000000 -1.000000 0.000000
vn 0.000000 -1.000000 0.000000
vn 0.000000 -1.000000 0.000000
vn 0.000000 -1.000000 0.000000
vn 0.000000 -1.000000 0.000000
vn 0.000000 -1.000000 0.000000
vn 0.000000 -1.000000 0.000000
vn 0.000000 -1.000000 0.000000
vn 0.000000 -1.000000 0.000000
vn 0.000000 -1.000000 0.000000
vn 0.000000 -1.000000 0.000000
vn 0.000000 0.000000 -1.000000
vn 0.000000 0.000000 -1.000000
vn 0.000000 0.000000 -1.000000
vn 0.000000 0.000000 -1.000000
vn 0.000000 -0.000000 1.000000
vn 0.000000 -0.000000 1.000000
vn 0.000000 -0.000000 1.000000
vn 0.000000 -0.000000 1.000000
vn 0.000000 1.000000 -0.000000
vn 0.000000 1.000000 -0.000000
vn 0.000000 1.000000 -0.000000
vn 0.000000 1.000000 0.000000
vn 0.000000 1.000000 0.000000
vn 0.000000 1.000000 0.000000
vn 0.000000 1.000000 0.000000
vn 0.000000 1.000000 0.000000
vn 0.000000 1.000000 0.000000
vn 0.000000 1.000000 -0.000000
vn 0.000000 1.000000 -0.000000
vn 0.000000 1.000000 -0.000000
vn -0.000000 1.000000 -0.000000
vn -0.000000 1.000000 -0.000000
vn -0.000000 1.000000 -0.000000
vn -0.000000 1.000000 0.000000
vn -0.000000 1.000000 0.000000
vn -0.000000 1.000000 0.000000
vn 0.000000 1.000000 0.000000
vn 0.000000 1.000000 0.000000
vn 0.000000 1.000000 0.000000
vn 0.000000 1.000000 0.000000
vn 0.000000 1.000000 0.000000
vn 0.000000 1.000000 0.000000
vn -0.000000 1.000000 -0.000000
vn -0.000000 1.000000 -0.000000
vn -0.000000 1.000000 -0.000000
vn 0.000000 1.000000 0.000000
vn 0.000000 1.000000 0.000000
vn 0.000000 1.000000 0.000000
vn 0.000000 1.000000 0.000000
vn 0.000000 1.000000 0.000000
vn 0.000000 1.000000 0.000000
vn 0.000000 1.000000 0.000000
vn 0.000000 1.000000 0.000000
vn 0.000000 1.000000 0.000000
vn 0.000000 1.000000 0.000000
vn 0.000000 1.000000 0.000000
vn 0.000000 1.000000 0.000000
vn 0.000000 1.000000 -0.000000
vn 0.000000 1.000000 -0.000000
vn 0.000000 1.000000 -0.000000
vn -0.000000 1.000000 0.000000
vn -0.000000 1.000000 0.000000
vn -0.000000 1.000000 0.000000
vn 0.000000 1.000000 -0.000000
vn 0.000000 1.000000 -0.000000
vn 0.000000 1.000000 -0.000000
vn 0.000000 1.000000 0.000000
vn 0.000000 1.000000 0.000000
vn 0.000000 1.000000 0.000000
vn 1.000000 0.000000 0.000000
vn 1.000000 0.000000 0.000000
vn 1.000000 0.000000 0.000000
vn 1.000000 0.000000 0.000000
vn 1.000000 0.000000 0.000000
vn 1.000000 0.000000 0.000000
vn 1.000000 0.000000 0.000000
vn 1.000000 0.000000 0.000000
vn 1.000000 0.000000 0.000000
vn 1.000000 0.000000 0.000000
vn 1.000000 0.000000 0.000000
vn 1.000000 0.000000 0.000000
vn 1.000000 0.000000 0.000000
vn 1.000000 0.000000 0.000000
vn 1.000000 0.000000 0.000000
vn 1.000000 0.000000 0.000000
vn -0.000000 -1.000000 0.000000
vn -0.000000 -1.000000 0.000000
vn -0.000000 -1.000000 0.000000
vn -0.000000 -1.000000 -0.000000
vn -0.000000 -1.000000 -0.000000
vn -0.000000 -1.000000 -0.000000
vn -0.000000 -1.000000 -0.000000
vn -0.000000 -1.000000 0.000000
vn -0.000000 -1.000000 0.000000
vn -0.000000 -1.000000 0.000000
vn -0.000000 -1.000000 0.000000
vn -0.000000 -1.000000 0.000000
vn -0.000000 -1.000000 0.000000
vn 0.000000 0.000000 -1.000000
vn 0.000000 0.000000 -1.000000
vn 0.000000 0.000000 -1.000000
vn 0.000000 0.000000 -1.000000
vn -0.000000 -0.000000 1.000000
vn -0.000000 -0.000000 1.000000
vn -0.000000 -0.000000 1.000000
vn -0.000000 -0.000000 1.000000
vn 0.000000 1.000000 0.000000
vn 0.000000 1.000000 0.000000
vn 0.000000 1.000000 0.000000
vn 0.000000 1.000000 0.000000
vn 0.000000 1.000000 0.000000
vn 0.000000 1.000000 0.000000
vn 0.000000 1.000000 0.000000
vn 0.000000 1.000000 0.000000
vn 0.000000 1.000000 0.000000
vn 0.000000 1.000000 -0.000000
vn 0.000000 1.000000 -0.000000
vn 0.000000 1.000000 -0.000000
vn 0.000000 1.000000 -0.000000
vn 0.000000 1.000000 -0.000000
vn 0.000000 1.000000 -0.000000
vn 0.000000 1.000000 0.000000
vn 0.000000 1.000000 0.000000
vn 0.000000 1.000000 0.000000
vn -0.000000 1.000000 0.000000
vn -0.000000 1.000000 0.000000
vn -0.000000 1.000000 0.000000
vn -0.000000 1.000000 0.000000
vn -0.000000 1.000000 0.000000
vn -0.000000 1.000000 0.000000
vn 0.000000 1.000000 0.000000
vn 0.000000 1.000000 0.000000
vn 0.000000 1.000000 0.000000
vn 0.000000 1.000000 0.000000
vn 0.000000 1.000000 0.000000
vn 0.000000 1.000000 0.000000
vn 0.000000 1.000000 0.000000
vn 0.000000 1.000000 0.000000
vn 0.000000 1.000000 0.000000
vn 0.000000 1.000000 0.000000
vn 0.000000 1.000000 0.000000
vn 0.000000 1.000000 0.000000
vn 0.000000 1.000000 0.000000
vn 0.000000 1.000000 0.000000
vn 0.000000 1.000000 0.000000
vn -0.000000 1.000000 -0.000000
vn -0.000000 1.000000 -0.000000
vn -0.000000 1.000000 -0.000000
vn 0.000000 1.000000 0.000000
vn 0.000000 1.000000 0.000000
vn 0.000000 1.000000 0.000000
vn -0.000000 1.000000 -0.000000
vn -0.000000 1.000000 -0.000000
vn -0.000000 1.000000 -0.000000
vn -0.000000 1.000000 0.000000
vn -0.000000 1.000000 0.000000
vn -0.000000 1.000000 0.000000
vn -1.000000 0.000000 0.000000
vn -1.000000 0.000000 0.000000
vn -1.000000 0.000000 0.000000
vn -1.000000 0.000000 0.000000
vn -1.000000 0.000000 0.000000
vn -1.000000 0.000000 0.000000
vn -1.000000 0.000000 0.000000
vn -1.000000 0.000000 0.000000
vn -1.000000 0.000000 0.000000
vn -1.000000 0.000000 0.000000
vn -1.000000 0.000000 0.000000
vn -1.000000 0.000000 0.000000
vn -1.000000 0.000000 0.000000
vn -1.000000 0.000000 0.000000
vn -1.000000 0.000000 0.000000
vn -1.000000 0.000000 0.000000
s off
f 6/1/1 8/2/2 3/5/3
f 3/5/4 7/6/5 9/7/6 4/8/7
f 3/5/8 8/2/9 7/6/10
f 4/8/11 9/7/12 5/3/13
f 5/3/14 14/10/15 1/9/16 4/8/17
f 6/1/18 3/5/19 2/11/20 11/4/21
f 16/12/22 17/13/23 15/14/24
f 17/13/25 18/15/26 15/14/27
f 19/16/28 20/17/29 2/18/30
f 1/19/31 21/20/32 22/21/33
f 21/20/34 12/22/35 13/23/36
f 15/14/37 21/20/38 13/23/39
f 16/12/40 10/24/41 11/25/42
f 11/25/43 20/17/44 16/12/45
f 15/14/46 13/23/47 16/12/48
f 16/26/49 19/27/50 17/28/51
f 20/29/52 19/27/53 16/26/54
f 15/30/55 22/31/56 21/32/57
f 15/30/58 18/33/59 22/31/60
f 13/23/61 10/24/62 16/12/63
f 14/34/64 12/22/65 21/20/66
f 14/34/67 21/20/68 1/19/69
f 2/18/70 20/17/71 11/25/72
f 3/35/73 19/37/74 2/36/75
f 4/38/76 1/40/77 22/39/78
f 3/35/79 17/41/80 19/37/81
f 3/35/82 4/38/83 18/42/84 17/41/85
f 4/38/86 22/39/87 18/42/88
f 6/43/89 25/44/90 8/45/91
f 25/44/92 26/46/93 9/47/94 7/48/95
f 25/44/96 7/48/97 8/45/98
f 26/46/99 5/49/100 9/47/101
f 5/49/102 26/46/103 23/50/104 14/51/105
f 6/43/106 11/52/107 24/53/108 25/44/109
f 28/54/110 27/55/111 29/56/112
f 29/56/113 27/55/114 30/57/115
f 31/58/116 24/59/117 32/60/118
f 23/61/119 34/62/120 33/63/121
f 33/63/122 13/64/123 12/65/124
f 27/55/125 13/64/126 33/63/127
f 28/54/128 11/66/129 10/67/130
f 11/66/131 28/54/132 32/60/133
f 27/55/134 28/54/135 13/64/136
f 28/68/137 29/69/138 31/70/139
f 32/71/140 28/68/141 31/70/142
f 27/72/143 33/73/144 34/74/145
f 27/72/146 34/74/147 30/75/148
f 13/64/149 28/54/150 10/67/151
f 14/76/152 33/63/153 12/65/154
f 14/76/155 23/61/156 33/63/157
f 24/59/158 11/66/159 32/60/160
f 25/77/161 24/78/162 31/79/163
f 26/80/164 34/81/165 23/82/166
f 25/77/167 31/79/168 29/83/169
f 25/77/170 29/83/171 30/84/172 26/80/173
f 26/80/174 30/84/175 34/81/176
