# This file uses centimeters as units for non-parametric coordinates.

v 0.000000 -0.000001 -499.999939
v 0.000015 -250.000000 0.000000
v 499.999969 -250.000000 -499.999939
v 500.000031 -250.000000 0.000000
v 0.000000 -0.000001 -399.999939
v 100.000000 -0.000001 -499.999939
v 0.000000 -125.000000 -200.000000
v 300.000000 -125.000000 -499.999939
v 5.000000 15.369777 -494.999939
v 103.256241 14.663687 -396.743713
v 107.839783 10.415340 -489.152283
v 7.685059 10.415342 -391.636658
v 33.417290 -113.092430 -190.052490
v 304.393158 -110.941895 -195.606873
v 309.947540 -113.092430 -473.736267
v 21.834610 -231.645752 -0.367188
v 485.733734 -231.645752 -14.266296
v 499.632843 -231.645752 -478.165466
vt 0.101254 0.308711
vt 0.101254 0.270062
vt 0.101254 0.270062
vt 0.101254 0.270062
vt 0.101254 0.308711
vt 0.101254 0.308711
vt 0.101254 0.308711
vt 0.101254 0.308711
vt 0.101254 0.308711
vt 0.101254 0.308711
vt 0.101254 0.308711
vt 0.101254 0.308711
vt 0.101254 0.308711
vt 0.101254 0.308711
vt 0.101254 0.308711
vt 0.101254 0.270062
vt 0.101254 0.270062
vt 0.101254 0.270062
vn 0.050535 0.997780 -0.043365
vn 0.050535 0.997780 -0.043365
vn 0.050535 0.997780 -0.043365
vn -0.041746 0.997930 0.048917
vn -0.041746 0.997930 0.048917
vn -0.041746 0.997930 0.048917
vn 0.000448 0.850558 0.525882
vn 0.000448 0.850558 0.525882
vn 0.007790 0.845564 0.533817
vn 0.009785 0.844187 0.535959
vn 0.525689 0.850677 -0.000308
vn 0.525689 0.850676 -0.000308
vn 0.535828 0.844273 0.009557
vn 0.533688 0.845648 0.007465
vn 0.009785 0.844187 0.535959
vn 0.007790 0.845564 0.533817
vn 0.011778 0.842802 0.538095
vn 0.011778 0.842802 0.538095
vn 0.533688 0.845648 0.007465
vn 0.535828 0.844273 0.009557
vn 0.537974 0.842881 0.011661
vn 0.537974 0.842881 0.011661
vn 0.332851 0.637780 -0.694584
vn 0.037230 0.509731 -0.859528
vn 0.037230 0.509731 -0.859528
vn 0.379750 0.651539 -0.656724
vn -0.901626 0.431934 0.022427
vn -0.685374 0.636421 0.353880
vn -0.627895 0.661539 0.410018
vn -0.901626 0.431934 0.022427
vn -0.685374 0.636421 0.353880
vn -0.528226 0.716661 0.455384
vn -0.524243 0.719740 0.455130
vn -0.627895 0.661539 0.410018
vn 0.438632 0.692610 -0.572619
vn 0.332851 0.637780 -0.694584
vn 0.379750 0.651539 -0.656724
vn 0.439029 0.695297 -0.569049
vn -0.528226 0.716661 0.455384
vn -0.487482 0.746854 0.452294
vn -0.487482 0.746854 0.452294
vn -0.524243 0.719740 0.455130
vn 0.013407 0.367882 0.929776
vn 0.013407 0.367882 0.929776
vn 0.013407 0.367882 0.929776
vn 0.013407 0.367882 0.929776
vn 0.929777 0.367879 0.013407
vn 0.929777 0.367879 0.013407
vn 0.929777 0.367879 0.013407
vn 0.929777 0.367879 0.013407
vn 0.441967 0.716951 -0.539116
vn 0.438632 0.692610 -0.572619
vn 0.439029 0.695297 -0.569049
vn 0.441967 0.716951 -0.539116
s off
f 9/12/1 10/6/2 11/11/3
f 9/12/4 12/13/5 10/6/6
f 10/6/7 12/13/8 13/14/9 14/9/10
f 11/11/11 10/6/12 14/9/13 15/15/14
f 14/9/15 13/14/16 16/16/17 17/17/18
f 15/15/19 14/9/20 17/17/21 18/18/22
f 6/7/23 1/1/24 9/12/25 11/11/26
f 1/1/27 5/5/28 12/13/29 9/12/30
f 5/5/31 7/8/32 13/14/33 12/13/34
f 8/10/35 6/7/36 11/11/37 15/15/38
f 7/8/39 2/2/40 16/16/41 13/14/42
f 2/2/43 4/4/44 17/17/45 16/16/46
f 4/4/47 3/3/48 18/18/49 17/17/50
f 3/3/51 8/10/52 15/15/53 18/18/54
