# This file uses centimeters as units for non-parametric coordinates.

v -47.583736 -2.497197 -53.980957
v -29.911415 50.797043 -64.822266
v 35.037930 40.123848 62.472656
v 62.600887 -1.330347 -58.369629
v 22.342720 -0.766431 59.740234
v -8.541253 2.326910 60.288574
v -0.223794 -8.367235 -82.097168
v 69.071571 29.054966 33.445801
v 2.875658 58.726765 -73.931641
v 60.664764 60.479862 19.356934
v -50.368374 18.219378 22.058594
v -38.710442 -16.381542 22.832520
v 43.528091 -1.110527 46.530762
v -6.809478 -18.121929 -3.489258
v 32.292797 67.806305 -53.035645
v 42.330906 10.586815 60.558105
v -18.535492 61.340023 -40.081543
v -44.016006 15.701229 -78.497559
v 40.780785 2.105977 -85.856934
v 82.301804 41.338818 -45.718750
v 72.226822 52.745327 -14.035645
v -44.324417 38.870792 -19.149902
v 73.627136 9.117863 -21.499512
v -36.896015 -10.990465 -14.789551
v -17.939632 -9.191401 47.170410
v -25.195860 53.469135 32.347168
v 27.977028 54.847683 -93.104980
v -17.872761 -6.166646 -79.401855
v -35.441338 25.509388 -91.892090
v 83.880684 22.327419 -40.928711
v 27.894205 74.470627 44.171875
v 58.339291 49.452328 -86.137695
v -23.428391 28.645634 57.800293
v -47.279755 7.072403 -34.633789
v 30.548376 68.418640 -10.280273
vt 0.459570 0.178353
vt 0.459570 0.178353
vt 0.459570 0.178353
vt 0.459570 0.178353
vt 0.459570 0.178353
vt 0.459570 0.178353
vt 0.459570 0.178353
vt 0.459570 0.178353
vt 0.459570 0.178353
vt 0.459570 0.178353
vt 0.459570 0.178353
vt 0.459570 0.178353
vt 0.459570 0.178353
vt 0.459570 0.178353
vt 0.459570 0.178353
vt 0.459570 0.178353
vt 0.459570 0.178353
vt 0.459570 0.178353
vt 0.459570 0.178353
vt 0.459570 0.178353
vt 0.459570 0.178353
vt 0.459570 0.178353
vt 0.459570 0.178353
vt 0.459570 0.178353
vt 0.459570 0.178353
vt 0.459570 0.178353
vt 0.459570 0.178353
vt 0.459570 0.178353
vt 0.459570 0.178353
vt 0.459570 0.178353
vt 0.459570 0.178353
vt 0.459570 0.178353
vt 0.459570 0.178353
vt 0.459570 0.178353
vt 0.459570 0.178353
vt 0.459570 0.178353
vt 0.459570 0.178353
vt 0.459570 0.178353
vt 0.459570 0.178353
vt 0.459570 0.178353
vt 0.459570 0.178353
vt 0.459570 0.178353
vt 0.459570 0.178353
vt 0.459570 0.178353
vt 0.459570 0.178353
vt 0.459570 0.178353
vt 0.459570 0.178353
vt 0.459570 0.178353
vt 0.459570 0.178353
vt 0.459570 0.178353
vt 0.459570 0.178353
vt 0.459570 0.178353
vt 0.459570 0.178353
vt 0.459570 0.178353
vt 0.459570 0.178353
vt 0.459570 0.178353
vt 0.459570 0.178353
vt 0.459570 0.178353
vn -0.925165 -0.334245 0.179862
vn -0.925165 -0.334245 0.179862
vn -0.925165 -0.334245 0.179862
vn -0.129162 -0.991392 -0.021407
vn -0.129162 -0.991392 -0.021407
vn -0.129162 -0.991392 -0.021407
vn 0.346616 -0.937528 -0.029971
vn 0.346616 -0.937528 -0.029971
vn 0.346616 -0.937528 -0.029971
vn -0.990454 0.129108 -0.048298
vn -0.990454 0.129108 -0.048298
vn -0.990454 0.129108 -0.048298
vn 0.519202 0.843351 -0.138520
vn 0.519202 0.843351 -0.138520
vn 0.519202 0.843351 -0.138520
vn -0.663242 0.748276 -0.013907
vn -0.663242 0.748276 -0.013907
vn -0.663242 0.748276 -0.013907
vn 0.658737 0.455909 0.598508
vn 0.658737 0.455909 0.598508
vn 0.658737 0.455909 0.598508
vn 0.653346 0.448294 0.610058
vn 0.653346 0.448294 0.610058
vn 0.653346 0.448294 0.610058
vn 0.410067 0.909467 -0.068670
vn 0.410067 0.909467 -0.068670
vn 0.410067 0.909467 -0.068670
vn 0.751358 -0.216199 -0.623474
vn 0.751357 -0.216199 -0.623474
vn 0.751357 -0.216199 -0.623474
vn -0.345690 0.722499 -0.598744
vn -0.345690 0.722499 -0.598744
vn -0.345690 0.722499 -0.598744
vn -0.473969 -0.537803 -0.697224
vn -0.473969 -0.537803 -0.697224
vn -0.473969 -0.537803 -0.697224
vn -0.189357 -0.449292 -0.873087
vn -0.189357 -0.449292 -0.873087
vn -0.189357 -0.449292 -0.873087
vn 0.208812 -0.083217 -0.974409
vn 0.208812 -0.083217 -0.974409
vn 0.208812 -0.083217 -0.974409
vn 0.666193 0.116745 0.736585
vn 0.666193 0.116745 0.736585
vn 0.666193 0.116745 0.736585
vn -0.003589 -0.065565 0.997842
vn -0.003589 -0.065565 0.997842
vn -0.003589 -0.065565 0.997842
vn -0.779172 0.420835 0.464531
vn -0.779172 0.420835 0.464531
vn -0.779172 0.420835 0.464531
vn -0.060798 -0.728053 0.682820
vn -0.060798 -0.728053 0.682820
vn -0.060798 -0.728053 0.682820
vn -0.142692 -0.980702 -0.133653
vn -0.142692 -0.980702 -0.133653
vn -0.142692 -0.980702 -0.133653
vn -0.183443 -0.974820 -0.126787
vn -0.183443 -0.974820 -0.126788
vn -0.183443 -0.974820 -0.126787
vn 0.898574 -0.383330 0.213594
vn 0.898574 -0.383330 0.213594
vn 0.898574 -0.383330 0.213594
vn -0.645798 0.763145 0.023546
vn -0.645798 0.763145 0.023546
vn -0.645798 0.763145 0.023546
vn -0.988246 0.130565 -0.079512
vn -0.988246 0.130565 -0.079512
vn -0.988246 0.130565 -0.079512
vn -0.684956 -0.287446 0.669485
vn -0.684956 -0.287446 0.669485
vn -0.684956 -0.287446 0.669485
vn -0.741721 -0.235861 0.627869
vn -0.741721 -0.235861 0.627869
vn -0.741721 -0.235861 0.627869
vn -0.824787 0.544639 0.151973
vn -0.824787 0.544639 0.151973
vn -0.824787 0.544639 0.151973
vn -0.073840 0.990766 -0.113716
vn -0.073840 0.990766 -0.113716
vn -0.073840 0.990766 -0.113716
vn -0.131077 0.991180 -0.019544
vn -0.131077 0.991180 -0.019544
vn -0.131077 0.991180 -0.019544
vn 0.789482 -0.553071 0.266141
vn 0.789482 -0.553071 0.266141
vn 0.789482 -0.553071 0.266141
vn 0.502708 -0.859417 0.093202
vn 0.502708 -0.859417 0.093202
vn 0.502708 -0.859417 0.093202
vn 0.768902 -0.457233 0.446908
vn 0.768902 -0.457233 0.446908
vn 0.768902 -0.457233 0.446908
vn 0.371016 -0.697374 0.613202
vn 0.371016 -0.697374 0.613202
vn 0.371016 -0.697374 0.613202
vn -0.175158 -0.973364 -0.147926
vn -0.175158 -0.973364 -0.147926
vn -0.175158 -0.973364 -0.147926
vn -0.240496 -0.960135 -0.142489
vn -0.240496 -0.960135 -0.142489
vn -0.240496 -0.960135 -0.142489
vn 0.129760 -0.971223 0.199721
vn 0.129760 -0.971223 0.199721
vn 0.129760 -0.971223 0.199721
vn 0.108215 -0.974695 0.195599
vn 0.108215 -0.974695 0.195599
vn 0.108215 -0.974695 0.195599
vn 0.129155 -0.964043 0.232252
vn 0.129155 -0.964043 0.232252
vn 0.129155 -0.964043 0.232252
vn -0.636796 -0.292766 0.713287
vn -0.636796 -0.292766 0.713287
vn -0.636796 -0.292766 0.713287
vn -0.399722 0.642197 0.654068
vn -0.399722 0.642197 0.654068
vn -0.399722 0.642197 0.654068
vn 0.028672 0.110148 0.993502
vn 0.028672 0.110148 0.993502
vn 0.028672 0.110148 0.993502
vn -0.070882 -0.044582 0.996488
vn -0.070882 -0.044582 0.996488
vn -0.070882 -0.044582 0.996488
vn -0.156856 0.438810 0.884784
vn -0.156856 0.438810 0.884784
vn -0.156856 0.438810 0.884784
vn 0.039609 -0.126595 -0.991163
vn 0.039609 -0.126595 -0.991163
vn 0.039609 -0.126595 -0.991163
vn -0.547485 -0.631834 -0.548676
vn -0.547485 -0.631834 -0.548676
vn -0.547485 -0.631834 -0.548676
vn -0.991842 0.116918 -0.050799
vn -0.991842 0.116918 -0.050799
vn -0.991841 0.116918 -0.050799
vn -0.889640 0.423808 -0.170080
vn -0.889640 0.423808 -0.170080
vn -0.889640 0.423808 -0.170080
vn -0.867370 0.439534 -0.233408
vn -0.867370 0.439534 -0.233408
vn -0.867370 0.439534 -0.233408
vn -0.341877 0.720546 -0.603269
vn -0.341877 0.720546 -0.603269
vn -0.341877 0.720546 -0.603269
vn -0.294067 0.920564 -0.257074
vn -0.294067 0.920564 -0.257074
vn -0.294067 0.920564 -0.257074
vn -0.081262 0.950862 -0.298761
vn -0.081262 0.950862 -0.298761
vn -0.081262 0.950862 -0.298761
vn 0.236772 0.916669 -0.321957
vn 0.236772 0.916669 -0.321957
vn 0.236772 0.916669 -0.321957
vn 0.457171 0.880083 -0.128250
vn 0.457171 0.880083 -0.128250
vn 0.457171 0.880084 -0.128250
vn 0.752587 -0.282626 -0.594756
vn 0.752587 -0.282626 -0.594756
vn 0.752587 -0.282626 -0.594756
vn 0.758132 -0.650727 -0.042322
vn 0.758132 -0.650727 -0.042322
vn 0.758132 -0.650727 -0.042322
vn -0.379617 0.922831 0.065376
vn -0.379617 0.922831 0.065376
vn -0.379617 0.922831 0.065376
vn -0.169617 0.968548 -0.182060
vn -0.169617 0.968547 -0.182060
vn -0.169617 0.968547 -0.182060
vn 0.853368 -0.059614 -0.517889
vn 0.853368 -0.059614 -0.517889
vn 0.853368 -0.059614 -0.517889
vn -0.013488 -0.290648 -0.956735
vn -0.013488 -0.290648 -0.956735
vn -0.013488 -0.290648 -0.956735
vn 0.237614 -0.966199 -0.099992
vn 0.237614 -0.966199 -0.099992
vn 0.237614 -0.966199 -0.099992
vn 0.907965 0.347736 0.233835
vn 0.907965 0.347736 0.233835
vn 0.907965 0.347736 0.233835
vn 0.956884 0.143150 0.252745
vn 0.956884 0.143150 0.252745
vn 0.956884 0.143150 0.252745
vn 0.961087 0.216325 0.171800
vn 0.961087 0.216325 0.171800
vn 0.961087 0.216325 0.171800
vn -0.947674 -0.319047 0.011102
vn -0.947674 -0.319047 0.011102
vn -0.947674 -0.319047 0.011102
vn -0.795736 -0.592950 -0.123344
vn -0.795736 -0.592950 -0.123344
vn -0.795736 -0.592950 -0.123344
vn 0.334001 0.938454 -0.088023
vn 0.334001 0.938454 -0.088023
vn 0.334001 0.938454 -0.088023
vn 0.257942 0.966155 -0.003313
vn 0.257942 0.966155 -0.003313
vn 0.257942 0.966155 -0.003313
s off
f 24/44/1 34/57/2 1/1/3
f 4/4/4 13/25/5 19/38/6
f 19/38/7 13/25/8 14/26/9
f 1/1/10 34/57/11 18/36/12
f 20/39/13 32/55/14 21/11/15
f 2/2/16 22/45/17 17/35/18
f 3/3/19 8/16/20 31/54/21
f 31/54/22 8/16/23 10/22/24
f 15/30/25 10/22/26 21/43/27
f 4/10/28 19/37/29 30/53/30
f 29/52/31 9/19/32 27/50/33
f 28/51/34 18/36/35 29/52/36
f 28/51/37 29/52/38 7/14/39
f 32/55/40 19/37/41 27/50/42
f 8/17/43 3/9/44 16/33/45
f 16/33/46 3/9/47 5/8/48
f 33/56/49 26/49/50 11/23/51
f 6/12/52 25/48/53 5/5/54
f 7/15/55 14/26/56 28/34/57
f 28/34/58 14/26/59 24/47/60
f 30/18/61 8/16/62 23/46/63
f 17/35/64 22/45/65 26/41/66
f 22/45/67 34/57/68 11/23/69
f 25/28/70 33/56/71 12/24/72
f 33/56/73 11/23/74 12/24/75
f 11/23/76 26/41/77 22/45/78
f 17/35/79 31/54/80 35/58/81
f 15/30/82 17/35/83 35/58/84
f 13/25/85 23/46/86 8/16/87
f 4/4/88 23/46/89 13/25/90
f 16/32/91 13/25/92 8/16/93
f 13/25/94 16/32/95 5/5/96
f 12/21/97 24/47/98 14/26/99
f 28/34/100 24/47/101 1/6/102
f 25/48/103 14/26/104 13/25/105
f 14/26/106 25/48/107 12/21/108
f 5/5/109 25/48/110 13/25/111
f 33/7/112 25/48/113 6/12/114
f 26/49/115 33/56/116 31/27/117
f 5/8/118 33/56/119 6/13/120
f 33/56/121 5/8/122 3/9/123
f 33/56/124 3/9/125 31/27/126
f 27/50/127 19/37/128 29/52/129
f 18/36/130 28/51/131 1/1/132
f 22/45/133 18/36/134 34/57/135
f 18/36/136 22/45/137 2/2/138
f 29/52/139 18/36/140 2/2/141
f 29/52/142 2/2/143 9/19/144
f 2/2/145 17/42/146 9/19/147
f 27/50/148 9/19/149 15/29/150
f 27/50/151 15/29/152 32/55/153
f 32/55/154 15/29/155 21/11/156
f 32/55/157 30/53/158 19/37/159
f 4/10/160 30/53/161 23/31/162
f 17/35/163 26/41/164 31/54/165
f 17/35/166 15/30/167 9/20/168
f 32/55/169 20/39/170 30/53/171
f 29/52/172 19/37/173 7/14/174
f 19/38/175 14/26/176 7/15/177
f 21/43/178 10/22/179 8/16/180
f 20/40/181 21/43/182 30/18/183
f 30/18/184 21/43/185 8/16/186
f 11/23/187 34/57/188 12/24/189
f 34/57/190 24/44/191 12/24/192
f 35/58/193 31/54/194 10/22/195
f 15/30/196 35/58/197 10/22/198
