# This file uses centimeters as units for non-parametric coordinates.

v 500.000000 -2.982903 -500.000000
v -0.000977 -2.982903 -500.000000
v 500.000000 0.000000 0.000732
v 0.000000 0.000000 0.000000
v 247.923279 -2.982903 0.000732
v 248.664856 -2.982903 -500.000000
v 124.999237 0.000000 0.000732
v 127.742004 -2.982903 0.000732
v 127.742004 -2.982903 -500.000000
v 372.100830 -2.982903 0.000732
v 372.100830 -2.982903 -500.000000
v 378.012085 -2.982903 -500.000000
v 375.000000 0.000000 0.000732
v 500.000000 -0.066345 -374.932861
v 381.622314 -0.726563 -375.549316
v 367.604401 -2.982903 -372.976685
v 281.502991 -2.982903 -370.634583
v 132.032761 -2.982903 -372.976685
v 114.958191 -0.528258 -374.218750
v -0.000488 0.000000 -375.000000
v 500.000000 0.000000 -250.000000
v 387.814331 1.085699 -251.405334
v 381.491089 -2.982903 -250.732422
v 269.630219 -2.982903 -246.406754
v 147.491455 -2.982903 -250.247192
v 133.633423 0.000000 -250.227356
v -0.000488 0.000000 -250.000000
v 500.000000 0.000000 -124.999237
v 389.776611 -1.329708 -117.514801
v 374.023438 -2.982903 -123.554993
v 219.854416 -2.982903 -124.664032
v 127.742004 -2.982903 -123.554993
v 108.392334 -1.656795 -127.997589
v -0.000488 0.000000 -125.000000
v 373.834229 -2.982903 -128.635406
v 214.894531 -2.982903 -129.359711
v 124.174629 -2.982903 -131.169128
v 372.100830 -2.982903 -378.582764
v 281.516968 -2.982903 -380.949280
v 127.742004 -2.982903 -379.901123
v 378.012085 -2.982903 -382.162476
v 500.000000 -2.982903 -380.636597
v 120.397186 -2.982903 -500.000000
v 120.397186 -2.982903 -381.616211
v -0.000977 -2.982903 -380.636597
v -0.000488 0.000000 -316.442871
v 118.652344 -0.279036 -316.271973
v 125.929260 -2.982903 -316.061401
v 295.938263 -2.982903 -318.191010
v 370.791626 -2.982903 -314.108276
v 382.263184 0.175513 -317.050171
v 500.000000 -0.033173 -312.466431
v -0.000488 0.000000 -184.254456
v 106.133270 -0.882041 -185.008240
v 125.824738 -2.982903 -185.404968
v 220.855957 -2.982903 -179.251328
v 382.620239 -2.982903 -187.113953
v 392.379761 -0.112044 -186.857605
v 500.000000 0.000000 -187.500000
v -0.000244 0.000000 -62.500000
v 121.939087 -0.808525 -37.580597
v 127.742004 -2.982903 -37.623703
v 233.574463 -2.982903 -52.991203
v 373.074341 -2.982903 -62.558365
v 388.644409 -0.682753 -59.543228
v 500.000000 0.000000 -62.499237
v 58.327484 0.000000 0.000342
v 37.554893 -4.109565 -52.264717
v 72.326447 3.234791 -128.166885
v 47.789158 2.028937 -190.440048
v 68.444687 0.828450 -249.582825
v 59.777832 -2.426543 -315.997314
v 96.920395 -0.275859 -384.658813
v 96.712494 -1.705515 -387.365723
v 96.532822 -2.982903 -391.192627
v 60.198212 -2.982903 -500.000000
v 446.994019 -2.982903 -500.000000
v 445.739746 -2.982903 -391.000366
v 445.376587 -0.370377 -384.899902
v 432.308197 -2.785208 -313.193695
v 458.431213 1.898324 -247.375504
v 432.931274 -0.476668 -184.459885
v 452.945251 2.874304 -122.385139
v 429.480988 -4.517475 -54.093399
v 441.818237 0.000000 0.000732
v 161.844055 -2.982903 -93.451302
v 344.164886 -2.982903 -162.472717
v 326.252136 -2.982903 -121.761818
v 336.992981 -2.982903 -130.870239
v 183.687271 -2.982903 -257.858459
v 171.536697 -2.982902 -321.408600
v 341.432770 -2.982903 -348.307617
v 416.888153 -2.982903 -424.416504
v 130.027039 -4.796080 -376.438904
v 281.511230 -4.796080 -376.716309
v 375.119537 -0.577269 -365.408478
v 365.658447 -2.982903 -362.615295
vt 0.102829 0.327910
vt 0.430811 0.178520
vt 0.102685 0.328057
vt 0.430811 0.178520
vt 0.102798 0.304303
vt 0.102819 0.329862
vt 0.102772 0.329845
vt 0.102782 0.327894
vt 0.430811 0.178520
vt 0.430811 0.178520
vt 0.102717 0.303604
vt 0.430811 0.178520
vt 0.102653 0.302852
vt 0.102833 0.302852
vt 0.430811 0.178520
vt 0.102725 0.329812
vt 0.102735 0.327861
vt 0.430811 0.178520
vt 0.430811 0.178520
vt 0.102756 0.303593
vt 0.431015 0.178316
vt 0.102774 0.329357
vt 0.430811 0.178520
vt 0.102728 0.329325
vt 0.430811 0.178520
vt 0.430811 0.178520
vt 0.430811 0.178520
vt 0.430811 0.178520
vt 0.102824 0.328886
vt 0.430811 0.178520
vt 0.102777 0.328870
vt 0.431629 0.178520
vt 0.102747 0.303669
vt 0.430811 0.178520
vt 0.430811 0.178520
vt 0.430811 0.178520
vt 0.430811 0.178520
vt 0.102827 0.328398
vt 0.430811 0.178520
vt 0.102779 0.328382
vt 0.431028 0.178520
vt 0.102701 0.303473
vt 0.430811 0.178520
vt 0.430811 0.178520
vt 0.102795 0.303543
vt 0.431028 0.178520
vt 0.102779 0.328409
vt 0.430811 0.178520
vt 0.102733 0.328379
vt 0.102822 0.329396
vt 0.430811 0.178520
vt 0.102774 0.329379
vt 0.430811 0.178520
vt 0.102727 0.329352
vt 0.102677 0.303283
vt 0.102792 0.303500
vt 0.102677 0.303296
vt 0.102677 0.303283
vt 0.102677 0.303270
vt 0.102677 0.303270
vt 0.102679 0.303283
vt 0.102679 0.303296
vt 0.102807 0.303296
vt 0.102679 0.303283
vt 0.102679 0.303270
vt 0.102807 0.303270
vt 0.431220 0.178111
vt 0.430811 0.178520
vt 0.102765 0.328857
vt 0.102765 0.328857
vt 0.102765 0.328857
vt 0.102653 0.302852
vt 0.102653 0.302852
vt 0.102717 0.303604
vt 0.430811 0.178520
vt 0.430811 0.178520
vt 0.102685 0.328057
vt 0.102685 0.328057
vt 0.102685 0.328057
vt 0.102717 0.303604
vt 0.102717 0.303604
vt 0.430811 0.178520
vt 0.430811 0.178520
vt 0.102745 0.303931
vt 0.431629 0.178520
vt 0.102775 0.329128
vt 0.430811 0.178520
vt 0.102823 0.329140
vt 0.430811 0.178520
vt 0.430811 0.178520
vt 0.430811 0.178520
vt 0.430811 0.178520
vt 0.102731 0.328588
vt 0.430811 0.178520
vt 0.102778 0.328624
vt 0.431028 0.178520
vt 0.102794 0.303768
vt 0.430811 0.178520
vt 0.430811 0.178520
vt 0.430811 0.178520
vt 0.430811 0.178520
vt 0.102734 0.328108
vt 0.430811 0.178520
vt 0.102780 0.328141
vt 0.102828 0.328157
vt 0.430811 0.178520
vt 0.430811 0.178520
vt 0.430811 0.178520
vt 0.430811 0.178520
vt 0.430811 0.178520
vt 0.430811 0.178520
vt 0.430811 0.178520
vt 0.430811 0.178520
vt 0.430811 0.178520
vt 0.430811 0.178520
vt 0.430811 0.178520
vt 0.430811 0.178520
vt 0.102685 0.328057
vt 0.102685 0.328057
vt 0.102765 0.328857
vt 0.431220 0.178111
vt 0.102798 0.304303
vt 0.430811 0.178520
vt 0.430811 0.178520
vt 0.430811 0.178520
vt 0.430811 0.178520
vt 0.430811 0.178520
vt 0.430811 0.178520
vt 0.430811 0.178520
vt 0.102756 0.328245
vt 0.102800 0.328633
vt 0.102813 0.328394
vt 0.102679 0.303292
vt 0.102807 0.303293
vt 0.102783 0.303540
vt 0.102738 0.328842
vt 0.102734 0.329102
vt 0.102797 0.329255
vt 0.102765 0.328857
vt 0.102677 0.303270
vt 0.430811 0.178520
vt 0.102677 0.303283
vt 0.430811 0.178520
vt 0.430985 0.178346
vt 0.102766 0.307399
vn 0.006712 0.999955 -0.006712
vn 0.004469 0.998525 0.054110
vn 0.004469 0.998525 0.054110
vn 0.004469 0.998525 0.054110
vn 0.000000 1.000000 -0.000000
vn 0.000000 1.000000 -0.000000
vn 0.000000 1.000000 0.000000
vn 0.000000 1.000000 0.000000
vn 0.000000 1.000000 -0.000000
vn 0.000000 1.000000 0.000000
vn 0.349209 0.936927 -0.014869
vn 0.140493 0.989959 -0.015554
vn 0.140493 0.989959 -0.015554
vn 0.349209 0.936927 -0.014869
vn -0.008813 0.998456 0.054847
vn -0.008813 0.998456 0.054847
vn -0.008813 0.998456 0.054847
vn -0.005671 0.999968 -0.005671
vn -0.123066 0.992370 -0.007550
vn -0.123066 0.992370 -0.007550
vn -0.273296 0.961699 -0.021061
vn -0.273296 0.961699 -0.021061
vn 0.000917 0.921890 -0.387451
vn 0.000917 0.921890 -0.387451
vn 0.076090 0.903853 -0.421023
vn 0.076090 0.903853 -0.421023
vn -0.148717 0.957879 -0.245666
vn -0.148717 0.957879 -0.245666
vn -0.148717 0.957879 -0.245666
vn -0.010286 0.919176 0.393712
vn 0.000000 1.000000 -0.000000
vn 0.000000 1.000000 0.000000
vn 0.000000 1.000000 0.000000
vn 0.000000 1.000000 0.000000
vn 0.001849 0.904798 0.425838
vn 0.001849 0.904798 0.425838
vn 0.158344 0.834026 -0.528515
vn 0.188570 0.982060 0.000000
vn 0.188570 0.982060 0.000000
vn 0.007246 0.883862 -0.467692
vn 0.007246 0.883862 -0.467692
vn -0.044026 0.883586 -0.466195
vn -0.044026 0.883586 -0.466195
vn -0.026301 0.999539 0.015181
vn -0.026301 0.999539 0.015181
vn -0.026301 0.999539 0.015181
vn 0.001793 0.999970 -0.007477
vn -0.250604 0.967786 0.024241
vn -0.250604 0.967786 0.024241
vn -0.250604 0.967786 0.024241
vn -0.250603 0.967786 0.024241
vn 0.000000 1.000000 -0.000000
vn 0.000000 1.000000 0.000000
vn 0.000000 1.000000 0.000000
vn 0.000000 1.000000 -0.000000
vn -0.000000 1.000000 0.000000
vn -0.000000 1.000000 0.000000
vn 0.199751 0.979833 0.005102
vn 0.207109 0.978315 0.002222
vn 0.207109 0.978315 0.002222
vn 0.199751 0.979833 0.005102
vn 0.002356 0.999995 -0.002072
vn 0.006304 0.999377 0.034714
vn 0.006304 0.999377 0.034714
vn 0.014220 0.999661 0.021822
vn 0.014220 0.999661 0.021822
vn 0.014220 0.999661 0.021822
vn -0.000926 0.999954 0.009554
vn -0.395471 0.918106 0.026151
vn -0.395471 0.918106 0.026151
vn -0.285662 0.957933 0.027596
vn -0.285662 0.957933 0.027596
vn 0.000000 1.000000 0.000000
vn 0.000000 1.000000 -0.000000
vn 0.000000 1.000000 -0.000000
vn 0.000000 1.000000 0.000000
vn 0.000000 1.000000 0.000000
vn 0.000000 1.000000 0.000000
vn 0.000000 1.000000 0.000000
vn 0.000000 1.000000 0.000000
vn 0.147856 0.988998 -0.004627
vn 0.147856 0.988998 -0.004627
vn 0.147856 0.988998 -0.004627
vn 0.007331 0.999952 0.006451
vn -0.042417 0.999100 0.000000
vn -0.042417 0.999100 0.000000
vn 0.000000 1.000000 0.000000
vn 0.000000 1.000000 0.000000
vn 0.000000 1.000000 0.000000
vn 0.000000 1.000000 0.000000
vn 0.000000 1.000000 0.000000
vn 0.000000 1.000000 0.000000
vn 0.000000 1.000000 0.000000
vn 0.000000 1.000000 0.000000
vn 0.000000 1.000000 0.000000
vn 0.000000 1.000000 0.000000
vn 0.000000 1.000000 0.000000
vn 0.000000 1.000000 0.000000
vn 0.000000 1.000000 0.000000
vn 0.000000 1.000000 0.000000
vn 0.000000 1.000000 0.000000
vn 0.186653 0.982422 -0.002883
vn 0.150288 0.986601 0.063504
vn 0.150288 0.986601 0.063504
vn 0.186653 0.982422 -0.002883
vn -0.124199 0.992247 0.004619
vn -0.124199 0.992247 0.004619
vn -0.124199 0.992247 0.004619
vn -0.230577 0.973054 0.000000
vn -0.230577 0.973054 0.000000
vn -0.230577 0.973054 0.000000
vn -0.034443 0.948475 -0.314975
vn -0.034443 0.948475 -0.314975
vn -0.002577 0.948576 -0.316538
vn 0.000000 1.000000 0.000000
vn 0.000000 1.000000 0.000000
vn 0.000000 1.000000 0.000000
vn 0.000000 1.000000 0.000000
vn 0.000000 1.000000 -0.000000
vn 0.000000 1.000000 -0.000000
vn 0.000000 1.000000 0.000000
vn 0.000000 1.000000 0.000000
vn 0.063546 0.960252 -0.271806
vn 0.063546 0.960252 -0.271806
vn 0.063546 0.960252 -0.271806
vn 0.000000 1.000000 0.000000
vn 0.000000 1.000000 0.000000
vn 0.000000 1.000000 0.000000
vn 0.000000 1.000000 0.000000
vn 0.000000 1.000000 0.000000
vn 0.000000 1.000000 0.000000
vn 0.000000 1.000000 -0.000000
vn 0.000000 1.000000 -0.000000
vn 0.012629 0.999600 -0.025314
vn 0.012629 0.999600 -0.025314
vn 0.012629 0.999600 -0.025314
vn 0.002356 0.999995 -0.002072
vn 0.259738 0.962838 -0.074021
vn 0.259738 0.962838 -0.074021
vn 0.199751 0.979833 0.005102
vn 0.199751 0.979833 0.005102
vn -0.000000 1.000000 0.000000
vn -0.000000 1.000000 0.000000
vn -0.000000 1.000000 0.000000
vn 0.000000 1.000000 -0.000000
vn 0.000000 1.000000 -0.000000
vn 0.000000 1.000000 0.000000
vn 0.000000 1.000000 -0.000000
vn 0.000000 1.000000 -0.000000
vn -0.374148 0.927156 -0.019859
vn -0.374148 0.927156 -0.019859
vn -0.369008 0.928568 0.039927
vn -0.369008 0.928568 0.039927
vn 0.001793 0.999970 -0.007477
vn -0.008417 0.999351 -0.035030
vn -0.008417 0.999351 -0.035030
vn -0.008417 0.999351 -0.035030
vn -0.043862 0.999037 -0.001057
vn -0.043862 0.999037 -0.001057
vn -0.043862 0.999037 -0.001057
vn 0.007331 0.999952 0.006451
vn 0.096794 0.995284 0.006402
vn 0.096794 0.995284 0.006402
vn 0.186653 0.982422 -0.002883
vn 0.186653 0.982422 -0.002883
vn 0.000000 1.000000 -0.000000
vn 0.000000 1.000000 -0.000000
vn 0.000000 1.000000 0.000000
vn 0.000000 1.000000 0.000000
vn 0.000000 1.000000 0.000000
vn 0.000000 1.000000 -0.000000
vn 0.000000 1.000000 -0.000000
vn -0.285662 0.957933 0.027596
vn -0.285662 0.957933 0.027596
vn -0.170846 0.985281 -0.005837
vn -0.170846 0.985280 -0.005837
vn -0.009404 0.998661 -0.050879
vn -0.009404 0.998661 -0.050879
vn -0.009404 0.998661 -0.050879
vn 0.047502 0.997887 -0.044331
vn 0.047502 0.997887 -0.044331
vn 0.047502 0.997887 -0.044331
vn 0.006712 0.999955 -0.006712
vn 0.516347 0.855846 -0.030211
vn 0.516347 0.855846 -0.030211
vn 0.349209 0.936927 -0.014869
vn 0.349209 0.936927 -0.014869
vn 0.000000 1.000000 -0.000000
vn 0.000000 1.000000 -0.000000
vn 0.000000 1.000000 0.000000
vn 0.000000 1.000000 0.000000
vn 0.000000 1.000000 0.000000
vn 0.000000 1.000000 0.000000
vn 0.000000 1.000000 0.000000
vn 0.000000 1.000000 0.000000
vn -0.273296 0.961699 -0.021061
vn -0.269141 0.962366 -0.037602
vn -0.269141 0.962366 -0.037602
vn -0.273296 0.961699 -0.021061
vn -0.005671 0.999968 -0.005671
vn -0.037324 0.998699 -0.034745
vn -0.037324 0.998699 -0.034745
vn -0.037324 0.998699 -0.034745
vn -0.016946 0.998597 -0.050167
vn -0.016946 0.998597 -0.050167
vn -0.016946 0.998597 -0.050167
vn 0.006712 0.999955 -0.006712
vn 0.134476 0.990479 -0.029440
vn 0.134476 0.990479 -0.029440
vn 0.006712 0.999955 -0.006712
vn 0.083664 0.996242 -0.022395
vn 0.083664 0.996242 -0.022395
vn 0.083664 0.996242 -0.022395
vn 0.007331 0.999952 0.006451
vn 0.029906 0.999512 0.009021
vn 0.029906 0.999512 0.009021
vn 0.029906 0.999512 0.009021
vn 0.007331 0.999952 0.006451
vn -0.010812 0.999635 -0.024740
vn -0.010812 0.999636 -0.024740
vn -0.010812 0.999636 -0.024740
vn 0.002356 0.999995 -0.002072
vn -0.025717 0.999636 0.008219
vn -0.025717 0.999636 0.008219
vn -0.025717 0.999635 0.008219
vn 0.002356 0.999995 -0.002072
vn 0.280883 0.839574 -0.464996
vn 0.280883 0.839574 -0.464996
vn 0.007246 0.883862 -0.467692
vn -0.002577 0.948576 -0.316538
vn 0.115759 0.957516 -0.264127
vn 0.115759 0.957516 -0.264127
vn -0.002577 0.948576 -0.316538
vn 0.000000 1.000000 0.000000
vn 0.000000 1.000000 0.000000
vn 0.000000 1.000000 0.000000
vn 0.000000 1.000000 0.000000
vn 0.000000 1.000000 0.000000
vn 0.000000 1.000000 0.000000
vn 0.000000 1.000000 0.000000
vn -0.050392 0.936906 -0.345931
vn -0.050392 0.936906 -0.345931
vn 0.000917 0.921890 -0.387451
vn 0.000917 0.921890 -0.387451
vn 0.001793 0.999970 -0.007477
vn -0.000665 0.999437 0.033537
vn -0.000665 0.999437 0.033537
vn 0.001793 0.999970 -0.007477
vn 0.060503 0.997988 -0.018954
vn 0.060503 0.997988 -0.018954
vn -0.005595 0.999617 0.027100
vn -0.005595 0.999617 0.027100
vn -0.005595 0.999617 0.027100
vn -0.000926 0.999954 0.009554
vn -0.068801 0.997128 -0.031645
vn -0.068801 0.997128 -0.031645
vn -0.000926 0.999954 0.009554
vn 0.094714 0.995461 -0.009259
vn 0.094714 0.995462 -0.009259
vn -0.005671 0.999968 -0.005671
vn 0.037849 0.998259 -0.045246
vn 0.037849 0.998259 -0.045246
vn 0.037849 0.998259 -0.045246
vn -0.005671 0.999968 -0.005671
vn -0.007602 0.997658 -0.067975
vn -0.007602 0.997658 -0.067975
vn 0.001793 0.999970 -0.007477
vn -0.000926 0.999954 0.009554
vn 0.060971 0.998140 0.000000
vn 0.060971 0.998140 0.000000
vn -0.005671 0.999968 -0.005671
vn -0.059457 0.994415 0.087205
vn -0.059457 0.994415 0.087205
vn -0.000926 0.999954 0.009554
vn 0.007934 0.999809 0.017855
vn 0.007934 0.999809 0.017855
vn 0.002356 0.999995 -0.002072
vn 0.040559 0.999177 0.000000
vn 0.040559 0.999177 0.000000
vn 0.007331 0.999952 0.006451
vn -0.011950 0.999629 -0.024464
vn -0.011950 0.999629 -0.024464
vn -0.051619 0.996015 0.072728
vn -0.051619 0.996015 0.072728
vn -0.051619 0.996015 0.072728
vn 0.000000 1.000000 0.000000
vn 0.000000 1.000000 0.000000
vn 0.000000 1.000000 0.000000
vn 0.000000 1.000000 0.000000
vn 0.000000 1.000000 0.000000
vn 0.000000 1.000000 0.000000
vn 0.000000 1.000000 0.000000
vn 0.000000 1.000000 0.000000
vn 0.000000 1.000000 0.000000
vn 0.000000 1.000000 0.000000
vn 0.000000 1.000000 0.000000
vn 0.000000 1.000000 0.000000
vn 0.000000 1.000000 0.000000
vn 0.000000 1.000000 0.000000
vn 0.000000 1.000000 0.000000
vn 0.000000 1.000000 0.000000
vn 0.000000 1.000000 0.000000
vn 0.000000 1.000000 0.000000
vn 0.000000 1.000000 0.000000
vn 0.000000 1.000000 0.000000
vn 0.000000 1.000000 0.000000
vn 0.000000 1.000000 0.000000
vn 0.000000 1.000000 -0.000000
vn 0.000000 1.000000 -0.000000
vn 0.000000 1.000000 -0.000000
vn 0.000000 1.000000 -0.000000
vn 0.000000 1.000000 0.000000
vn 0.000000 1.000000 0.000000
vn 0.000000 1.000000 0.000000
vn 0.000000 1.000000 0.000000
vn 0.000000 1.000000 0.000000
vn 0.000000 1.000000 0.000000
vn 0.000000 1.000000 0.000000
vn 0.000000 1.000000 0.000000
vn 0.000000 1.000000 0.000000
vn 0.000000 1.000000 0.000000
vn 0.000000 1.000000 -0.000000
vn 0.000000 1.000000 -0.000000
vn 0.000000 1.000000 0.000000
vn 0.000000 1.000000 0.000000
vn 0.000000 1.000000 -0.000000
vn 0.000000 1.000000 -0.000000
vn 0.000000 1.000000 -0.000000
vn 0.000000 1.000000 -0.000000
vn 0.000000 1.000000 0.000000
vn 0.000000 1.000000 0.000000
vn 0.000000 1.000000 0.000000
vn 0.000000 1.000000 0.000000
vn 0.000000 1.000000 0.000000
vn 0.000000 1.000000 0.000000
vn 0.000000 1.000000 0.000000
vn 0.000000 1.000000 0.000000
vn 0.000000 1.000000 0.000000
vn 0.000000 1.000000 0.000000
vn 0.000000 1.000000 0.000000
vn 0.000000 1.000000 0.000000
vn 0.000000 1.000000 0.000000
vn 0.000000 1.000000 -0.000000
vn 0.000000 1.000000 -0.000000
vn 0.002440 0.934622 -0.355633
vn 0.002440 0.934622 -0.355633
vn 0.000000 1.000000 0.000000
vn 0.000000 1.000000 0.000000
vn 0.000000 1.000000 0.000000
vn 0.000000 1.000000 -0.000000
vn 0.000000 1.000000 -0.000000
vn -0.013907 0.987258 -0.158517
vn 0.188570 0.982060 0.000000
vn 0.188570 0.982060 0.000000
vn 0.299568 0.912079 0.279948
vn -0.214841 0.971958 -0.095611
vn -0.214841 0.971958 -0.095611
vn -0.374148 0.927156 -0.019859
vn -0.374148 0.927157 -0.019859
vn 0.000000 1.000000 0.000000
vn 0.000000 1.000000 0.000000
vn 0.000000 1.000000 0.000000
vn 0.060924 0.997841 -0.024533
vn 0.060924 0.997841 -0.024533
vn 0.060924 0.997841 -0.024533
vn 0.032811 0.999442 0.006326
vn 0.032811 0.999442 0.006326
vn 0.001793 0.999970 -0.007477
s off
f 34/44/1 60/100/2 68/110/3 69/111/4
f 63/104/5 88/132/6 31/40/7
f 32/42/8 86/130/9 31/40/10
f 33/43/11 61/101/12 62/103/13 32/41/14
f 83/127/15 84/128/16 66/108/17 28/36/18
f 64/106/19 65/107/20 29/37/21 30/39/22
f 14/18/23 42/68/24 78/121/25 79/123/26
f 38/51/27 15/19/28 41/67/29
f 95/142/30 38/57/31 39/58/32
f 39/58/33 40/59/34 94/140/35 95/142/36
f 94/141/37 19/25/38 18/23/39
f 45/76/40 20/26/41 73/115/42 74/116/43
f 79/123/44 80/124/45 52/90/46 14/18/47
f 50/87/48 51/89/49 96/143/50 97/144/51
f 17/22/52 92/138/53 16/20/54
f 18/24/55 48/84/56 91/137/57
f 19/25/58 47/83/59 48/85/60 18/23/61
f 20/26/62 72/114/63 73/115/64
f 81/125/65 82/126/66 59/99/67 21/27/68
f 57/96/69 58/98/70 22/28/71 23/30/72
f 31/61/73 88/133/74 89/134/75 36/64/76
f 36/64/77 37/65/78 32/66/79 31/61/80
f 37/48/81 33/43/82 32/41/83
f 27/35/84 53/91/85 70/112/86
f 56/95/87 87/131/88 23/29/89 24/31/90
f 25/33/91 55/93/92 90/136/93
f 39/52/94 38/50/95 11/6/96 6/7/97
f 9/16/98 40/54/99 39/52/100 6/7/101
f 26/34/102 54/92/103 55/94/104 25/32/105
f 30/39/106 29/37/107 35/46/108
f 16/21/109 15/19/110 38/51/111
f 74/116/112 75/117/113 45/76/114
f 38/13/115 41/14/116 12/72/117 11/73/118
f 77/120/119 93/139/120 42/69/121 1/70/122
f 40/53/123 44/75/124 19/25/125
f 43/11/126 44/74/127 40/80/128 9/81/129
f 2/3/130 45/77/131 75/118/132 76/119/133
f 71/113/134 72/114/135 46/82/136 27/35/137
f 48/85/138 47/83/139 26/34/140 25/32/141
f 90/136/142 91/137/143 48/84/144 25/33/145
f 24/31/146 23/29/147 50/88/148 49/86/149
f 23/30/150 22/28/151 51/89/152 50/87/153
f 21/27/154 52/90/155 80/124/156 81/125/157
f 69/111/158 70/112/159 53/91/160 34/44/161
f 55/94/162 54/92/163 33/43/164 37/48/165
f 56/95/166 55/93/167 37/49/168 36/47/169
f 36/47/170 87/131/171 56/95/172
f 35/46/173 29/37/174 58/98/175 57/96/176
f 83/127/177 59/99/178 82/126/179
f 67/109/180 68/110/181 60/100/182 4/4/183
f 62/103/184 61/101/185 7/9/186 8/10/187
f 63/104/188 62/102/189 8/17/190 5/8/191
f 10/1/192 64/105/193 63/104/194 5/8/195
f 13/15/196 65/107/197 64/106/198 10/12/199
f 3/2/200 66/108/201 84/128/202 85/129/203
f 61/101/204 68/110/205 67/109/206 7/9/207
f 69/111/208 61/101/209 33/43/210
f 54/92/211 70/112/212 69/111/213 33/43/214
f 71/113/215 70/112/216 54/92/217 26/34/218
f 47/83/219 72/114/220 71/113/221 26/34/222
f 73/115/223 72/114/224 47/83/225 19/25/226
f 74/116/227 73/115/228 19/25/229
f 44/75/230 75/117/231 74/116/232 19/25/233
f 76/119/234 75/118/235 44/78/236 43/79/237
f 12/71/238 93/139/239 77/120/240
f 79/123/241 78/121/242 41/67/243 15/19/244
f 15/19/245 80/124/246 79/123/247
f 22/28/248 80/124/249 51/89/250
f 58/98/251 82/126/252 81/125/253 22/28/254
f 83/127/255 82/126/256 29/37/257
f 65/107/258 84/128/259 29/37/260
f 85/129/261 84/128/262 65/107/263 13/15/264
f 81/125/265 80/124/266 22/28/267
f 28/36/268 59/99/269 83/127/270
f 29/37/271 84/128/272 83/127/273
f 29/37/274 82/126/275 58/98/276
f 20/26/277 46/82/278 72/114/279
f 27/35/280 70/112/281 71/113/282
f 69/111/283 68/110/284 61/101/285
f 31/40/286 86/130/287 63/104/288
f 32/42/289 62/102/290 86/130/291
f 63/104/292 86/130/293 62/102/294
f 87/131/295 35/45/296 57/97/297
f 23/29/298 87/131/299 57/97/300
f 36/47/301 89/135/302 87/131/303
f 63/104/304 64/105/305 30/38/306 88/132/307
f 89/134/308 88/133/309 30/62/310 35/63/311
f 87/131/312 89/135/313 35/45/314
f 90/136/315 55/93/316 56/95/317 24/31/318
f 49/86/319 91/137/320 90/136/321 24/31/322
f 18/24/323 91/137/324 49/86/325 17/22/326
f 49/86/327 92/138/328 17/22/329
f 49/86/330 50/88/331 92/138/332
f 97/145/333 92/138/334 50/88/335
f 41/5/336 93/139/337 12/71/338
f 42/69/339 93/139/340 78/122/341
f 41/5/342 78/122/343 93/139/344
f 95/142/345 94/140/346 18/60/347 17/55/348
f 17/55/349 16/56/350 38/57/351 95/142/352
f 40/53/353 19/25/354 94/141/355
f 97/144/356 96/143/357 15/19/358 16/21/359
f 16/20/360 92/138/361 97/145/362
f 51/89/363 80/124/364 96/143/365
f 96/143/366 80/124/367 15/19/368
