# This file uses centimeters as units for non-parametric coordinates.

v -0.000009 -250.000000 -499.999939
v 0.000018 -250.000000 0.000000
v 500.000000 -250.000000 -499.999939
v 500.000000 -250.000000 0.000024
v 0.000005 -250.000000 -231.957764
v 500.000000 -250.000000 -231.957748
v 208.959808 -250.000000 0.000010
v 208.959793 -250.000000 -499.999939
v 23.560770 -257.176636 -474.654297
v 34.545799 -259.422668 -229.719955
v 211.616241 -259.396301 -232.821640
v 227.757446 -257.288544 -473.535156
v 4.265041 -260.855499 -493.036957
v 4.058363 -263.282776 -231.041107
v 6.927659 -265.549133 -3.510867
v 211.691238 -265.659576 -2.756374
v 208.971375 -261.416199 -25.607939
v 15.617422 -261.477386 -12.386656
v 493.218719 -261.165955 -496.331329
v 496.871124 -263.577454 -234.020782
v 481.063690 -257.302704 -484.514893
v 471.516235 -259.672028 -224.322678
v 208.606781 -261.019501 -496.339752
v 496.334473 -265.671844 -6.816580
v 486.528107 -261.570892 -20.940069
vt 0.101475 0.254196
vt 0.101475 0.254196
vt 0.101475 0.254196
vt 0.101475 0.254196
vt 0.101254 0.274769
vt 0.101254 0.274769
vt 0.101254 0.274769
vt 0.101254 0.274769
vt 0.101475 0.254196
vt 0.101254 0.274769
vt 0.101254 0.274769
vt 0.101471 0.254196
vt 0.101471 0.254196
vt 0.101254 0.274769
vt 0.101254 0.274769
vt 0.101254 0.274769
vt 0.101475 0.254196
vt 0.101471 0.254196
vt 0.101471 0.254196
vt 0.101471 0.254196
vt 0.101471 0.254196
vt 0.101471 0.254196
vt 0.101471 0.254196
vt 0.101471 0.254196
vt 0.101471 0.254196
vt 0.101475 0.254196
vt 0.101475 0.254196
vt 0.101475 0.254196
vt 0.101471 0.254196
vt 0.101471 0.254196
vt 0.101471 0.254196
vt 0.101471 0.254196
vt 0.101471 0.254196
vn 0.000271 0.999960 0.008967
vn 0.000231 0.999957 0.009268
vn 0.000438 0.999957 0.009237
vn 0.000476 0.999960 0.008968
vn -0.154511 0.987913 0.012393
vn -0.171776 0.985100 0.008426
vn -0.172708 0.984939 0.008212
vn -0.154511 0.987913 0.012393
vn 0.008103 0.966924 0.254937
vn 0.002836 0.972665 0.232197
vn 0.003331 0.972149 0.234339
vn 0.008103 0.966924 0.254937
vn 0.213227 0.976969 0.008112
vn 0.209006 0.977849 0.011305
vn 0.209006 0.977849 0.011305
vn 0.216083 0.976357 0.005948
vn -0.001428 0.982175 -0.187965
vn -0.000280 0.984245 -0.176809
vn -0.000280 0.984245 -0.176809
vn -0.003076 0.978980 -0.203932
vn -0.171776 0.985100 0.008426
vn -0.197995 0.980200 0.002373
vn -0.197995 0.980200 0.002373
vn -0.172708 0.984939 0.008212
vn 0.000438 0.999957 0.009237
vn 0.000231 0.999957 0.009268
vn 0.000187 0.999954 0.009607
vn 0.000405 0.999954 0.009561
vn 0.221831 0.975084 0.001585
vn 0.213227 0.976969 0.008112
vn 0.216083 0.976357 0.005948
vn 0.221831 0.975084 0.001585
vn 0.002836 0.972665 0.232197
vn 0.000052 0.975472 0.220124
vn 0.000052 0.975472 0.220124
vn 0.003331 0.972149 0.234339
vn 0.000589 0.999957 0.009235
vn 0.000438 0.999957 0.009237
vn 0.000405 0.999954 0.009561
vn 0.000567 0.999954 0.009526
vn 0.000476 0.999960 0.008968
vn 0.000438 0.999957 0.009237
vn 0.000589 0.999957 0.009235
vn 0.000608 0.999960 0.008969
vn -0.004062 0.976941 -0.213473
vn -0.001428 0.982175 -0.187965
vn -0.003076 0.978980 -0.203932
vn -0.004062 0.976941 -0.213473
vn 0.945185 0.326529 0.001864
vn 0.939978 0.341234 -0.001054
vn 0.939485 0.342588 -0.001323
vn 0.945185 0.326529 0.001864
vn 0.001840 0.197434 -0.980315
vn -0.002756 0.248565 -0.968611
vn -0.003659 0.258546 -0.965992
vn 0.001840 0.197434 -0.980315
vn -0.955751 0.294153 0.003664
vn -0.928099 0.372245 0.008084
vn -0.928099 0.372245 0.008084
vn -0.951544 0.307481 0.004412
vn 0.003123 0.366434 0.930439
vn 0.007358 0.437896 0.898996
vn 0.007358 0.437896 0.898996
vn 0.003266 0.368875 0.929473
vn 0.939978 0.341234 -0.001054
vn 0.934332 0.356381 -0.004077
vn 0.934332 0.356381 -0.004077
vn 0.939485 0.342588 -0.001323
vn -0.974058 0.226300 -0.000106
vn -0.955751 0.294153 0.003664
vn -0.951544 0.307481 0.004412
vn -0.974058 0.226300 -0.000106
vn -0.002756 0.248565 -0.968611
vn -0.006738 0.292381 -0.956278
vn -0.006738 0.292381 -0.956278
vn -0.003659 0.258546 -0.965992
vn 0.000066 0.313652 0.949538
vn 0.003123 0.366434 0.930439
vn 0.003266 0.368875 0.929473
vn 0.000066 0.313652 0.949538
s off
f 9/5/1 10/10/2 11/15/3 12/16/4
f 13/26/5 14/27/6 10/3/7 9/4/8
f 15/28/9 16/29/10 17/13/11 18/17/12
f 20/30/13 19/31/14 21/20/15 22/21/16
f 23/32/17 13/26/18 9/4/19 12/23/20
f 14/27/21 15/28/22 18/17/23 10/3/24
f 11/15/25 10/10/26 18/6/27 17/14/28
f 24/33/29 20/30/30 22/21/31 25/25/32
f 16/29/33 24/33/34 25/25/35 17/13/36
f 22/11/37 11/15/38 17/14/39 25/7/40
f 12/16/41 11/15/42 22/11/43 21/8/44
f 19/31/45 23/32/46 12/23/47 21/20/48
f 1/1/49 5/2/50 14/27/51 13/26/52
f 2/9/53 7/12/54 16/29/55 15/28/56
f 6/18/57 3/19/58 19/31/59 20/30/60
f 8/22/61 1/1/62 13/26/63 23/32/64
f 5/2/65 2/9/66 15/28/67 14/27/68
f 4/24/69 6/18/70 20/30/71 24/33/72
f 7/12/73 4/24/74 24/33/75 16/29/76
f 3/19/77 8/22/78 23/32/79 19/31/80
