# This file uses centimeters as units for non-parametric coordinates.

v 500.000000 0.000000 -500.000000
v -0.000977 0.000000 -500.000000
v 500.000000 0.000001 0.000732
v 0.000000 0.000000 0.000000
v 500.000000 0.000000 -375.000000
v -0.000488 0.000000 -375.000000
v 500.000000 0.000000 -250.000000
v -0.000488 0.000000 -250.000000
v 500.000000 0.000001 -124.999237
v -0.000244 0.000000 -125.000000
v 60.547638 0.030916 -500.000000
v 51.183319 0.955319 -373.233032
v 61.038208 3.805327 -244.351196
v 50.109482 0.955319 -123.232269
v 58.094406 0.000001 -0.000004
v 185.356140 -0.921345 -500.000000
v 192.578125 -0.265390 -374.728394
v 185.256958 0.104864 -247.883606
v 186.430359 0.009639 -123.987579
v 186.430359 0.009639 -0.000004
v 183.531189 -2.982903 -500.000000
v 172.091675 -2.982903 -246.786499
v 183.531189 -2.982903 0.000301
v 63.290405 -2.982903 0.000301
v 84.267426 -2.982903 -246.463013
v 63.290405 -2.982903 -500.000000
v 63.290405 -2.982903 -123.231506
v 183.531189 -2.982903 -123.987579
v 63.290405 -2.982903 -373.233032
v 183.531189 -2.982903 -373.986816
v 183.531189 -2.982903 -131.477356
v 63.290405 -2.982903 -129.084015
v 183.531189 -2.982903 -381.478882
v 63.290405 -2.982903 -380.636597
v -0.000366 0.000000 -187.500000
v 69.390869 2.460837 -187.536621
v 80.861664 -2.982903 -187.455750
v 183.531189 -2.982903 -187.455750
v 191.642761 0.057991 -187.500000
v 500.000000 0.000000 -187.500000
v -0.000758 0.000000 -444.052124
v 48.986816 0.442106 -443.612671
v 55.894852 -2.982903 -444.326782
v 177.795410 -2.982903 -444.113159
v 194.317627 -0.623101 -443.041992
v 500.000000 0.000000 -441.012573
v -0.000488 0.000000 -312.500000
v 71.735382 2.282619 -315.982056
v 78.651428 -2.982903 -317.102051
v 191.479492 -2.982903 -325.241089
v 196.255493 -0.117968 -325.750732
v 500.000000 0.000000 -346.343994
v -0.000163 0.000000 -83.696747
v 53.038406 0.604880 -78.027344
v 75.181198 -2.982903 -75.379944
v 161.911011 -2.982903 -62.750244
v 177.365112 0.009639 -63.925171
v 500.000000 0.000001 -29.563332
v 275.140381 0.006912 0.000204
v 274.237061 -1.506424 -54.006958
v 234.457458 1.769951 -113.505844
v 287.479340 0.042879 -175.897247
v 253.128052 1.545054 -232.499695
v 272.155762 -1.759740 -311.849976
v 316.333618 4.892859 -373.544830
v 288.226318 2.766483 -439.883423
v 266.891479 -0.682598 -500.000000
v 383.444214 -0.341299 -500.000000
v 423.328064 -0.228013 -448.656982
v 392.306519 -0.879400 -394.729614
v 406.732178 -1.779110 -317.712402
v 348.103729 1.213060 -240.967575
v 372.718811 2.155206 -176.231384
v 339.949066 1.107205 -120.428764
v 424.676514 0.002943 -51.427460
v 406.091309 0.002887 0.000512
v 25.663567 0.000000 -0.000002
v 25.567818 0.301394 -69.971466
v 26.227570 0.511664 -118.790436
v 34.154701 1.304591 -184.565735
v 24.987984 2.027512 -247.122192
v 40.761948 1.249230 -313.754272
v 29.144096 0.543964 -373.992920
v 29.768753 0.233427 -443.820190
v 30.273247 0.015458 -500.000000
v 452.475494 0.009703 -267.109100
v 468.743805 3.206030 -189.291306
v 455.812042 0.000826 -107.408989
v 237.002640 -3.804188 -441.606323
v 238.752747 -0.232445 -375.540161
v 465.681580 -2.023449 -329.316345
v 458.574646 2.480026 -398.564087
v 69.235802 -2.982903 -99.305725
v 117.796661 -2.982903 -123.574234
v 169.163391 -2.982903 -145.301697
v 124.478767 -2.982903 -320.481262
v 92.043152 -2.982903 -404.900299
v 119.822006 -2.982903 -273.216461
vt 0.431393 0.178969
vt 0.431393 0.178969
vt 0.431393 0.178969
vt 0.431393 0.178969
vt 0.431393 0.178969
vt 0.431393 0.178969
vt 0.431393 0.178969
vt 0.431393 0.178969
vt 0.431393 0.178969
vt 0.431393 0.178969
vt 0.431393 0.178969
vt 0.431393 0.178969
vt 0.431393 0.178969
vt 0.431393 0.178969
vt 0.431393 0.178969
vt 0.431393 0.178969
vt 0.431393 0.178969
vt 0.431393 0.178969
vt 0.431393 0.178969
vt 0.431393 0.178969
vt 0.431393 0.178969
vt 0.432534 0.179350
vt 0.431393 0.178969
vt 0.431393 0.178969
vt 0.431393 0.178969
vt 0.431393 0.178969
vt 0.432534 0.179350
vt 0.431393 0.178969
vt 0.431393 0.178969
vt 0.431393 0.178969
vt 0.431393 0.178969
vt 0.431393 0.178969
vt 0.431393 0.178969
vt 0.103490 0.304096
vt 0.102350 0.303271
vt 0.103494 0.304032
vt 0.102352 0.303336
vt 0.102214 0.303332
vt 0.103356 0.304027
vt 0.102220 0.303267
vt 0.102218 0.303332
vt 0.432534 0.179350
vt 0.431393 0.178969
vt 0.431393 0.178969
vt 0.102514 0.328524
vt 0.102674 0.303441
vt 0.102290 0.328309
vt 0.102510 0.328305
vt 0.431393 0.178969
vt 0.431393 0.178969
vt 0.431393 0.178969
vt 0.431393 0.178969
vt 0.102522 0.328969
vt 0.102302 0.328975
vt 0.102298 0.328750
vt 0.102518 0.328744
vt 0.431393 0.178969
vt 0.431393 0.178969
vt 0.102294 0.328538
vt 0.102895 0.303441
vt 0.102306 0.329199
vt 0.102682 0.303896
vt 0.102523 0.328979
vt 0.102526 0.329195
vt 0.431393 0.178969
vt 0.431393 0.178969
vt 0.431393 0.178969
vt 0.431393 0.178969
vt 0.431393 0.178969
vt 0.431393 0.178969
vt 0.431393 0.178969
vt 0.431393 0.178969
vt 0.431393 0.178969
vt 0.431393 0.178969
vt 0.102296 0.328644
vt 0.102516 0.328633
vt 0.431393 0.178969
vt 0.431393 0.178969
vt 0.431393 0.178969
vt 0.431393 0.178969
vt 0.431393 0.178969
vt 0.431393 0.178969
vt 0.431393 0.178969
vt 0.102304 0.329099
vt 0.431393 0.178969
vt 0.102525 0.329092
vt 0.431393 0.178969
vt 0.431393 0.178969
vt 0.431393 0.178969
vt 0.431393 0.178969
vt 0.431393 0.178969
vt 0.431393 0.178969
vt 0.431393 0.178969
vt 0.432534 0.179350
vt 0.102680 0.303787
vt 0.102521 0.328882
vt 0.431393 0.178969
vt 0.431393 0.178969
vt 0.431393 0.178969
vt 0.431393 0.178969
vt 0.431393 0.178969
vt 0.431393 0.178969
vt 0.431393 0.178969
vt 0.431393 0.178969
vt 0.102292 0.328446
vt 0.102512 0.328417
vt 0.431393 0.178969
vt 0.431393 0.178969
vt 0.431393 0.178969
vt 0.431393 0.178969
vt 0.431393 0.178969
vt 0.431393 0.178969
vt 0.431393 0.178969
vt 0.431393 0.178969
vt 0.431393 0.178969
vt 0.431393 0.178969
vt 0.431393 0.178969
vt 0.431393 0.178969
vt 0.431393 0.178969
vt 0.431393 0.178969
vt 0.431393 0.178969
vt 0.431393 0.178969
vt 0.431393 0.178969
vt 0.431393 0.178969
vt 0.431393 0.178969
vt 0.431393 0.178969
vt 0.431393 0.178969
vt 0.431393 0.178969
vt 0.431393 0.178969
vt 0.431393 0.178969
vt 0.431393 0.178969
vt 0.431393 0.178969
vt 0.431393 0.178969
vt 0.431393 0.178969
vt 0.431393 0.178969
vt 0.431393 0.178969
vt 0.431393 0.178969
vt 0.431393 0.178969
vt 0.431393 0.178969
vt 0.431393 0.178969
vt 0.431393 0.178969
vt 0.431393 0.178969
vt 0.431393 0.178969
vt 0.431393 0.178969
vt 0.431393 0.178969
vt 0.102293 0.328488
vt 0.102353 0.303301
vt 0.102394 0.328527
vt 0.102416 0.328590
vt 0.102354 0.328877
vt 0.102415 0.329038
vt 0.102329 0.328821
vn -0.005749 0.999567 0.028868
vn -0.005749 0.999567 0.028868
vn 0.000031 1.000000 -0.000000
vn -0.005749 0.999567 0.028868
vn -0.126829 0.991853 -0.011895
vn -0.126829 0.991853 -0.011895
vn -0.126829 0.991853 -0.011895
vn -0.067320 0.995974 0.059190
vn -0.067320 0.995974 0.059190
vn -0.067320 0.995974 0.059190
vn -0.011548 0.999784 0.017260
vn -0.011548 0.999784 0.017260
vn -0.011548 0.999784 0.017260
vn 0.000187 1.000000 0.000388
vn -0.004137 0.999990 -0.001963
vn -0.004137 0.999990 -0.001963
vn -0.008763 0.999954 -0.003997
vn -0.004137 0.999990 -0.001963
vn -0.025654 0.999665 -0.003316
vn -0.025654 0.999665 -0.003316
vn -0.025654 0.999665 -0.003316
vn -0.045463 0.998904 -0.011139
vn -0.057223 0.998312 0.009966
vn -0.057223 0.998312 0.009966
vn -0.057223 0.998312 0.009966
vn -0.046921 0.998838 0.011020
vn -0.016546 0.999861 0.002212
vn -0.016546 0.999861 0.002212
vn -0.016546 0.999861 0.002212
vn -0.008896 0.999952 0.004134
vn -0.718136 0.695903 0.000000
vn -0.718136 0.695903 0.000000
vn -0.718136 0.695903 0.000000
vn -0.287661 0.957732 0.000000
vn -0.287661 0.957732 0.000000
vn -0.287661 0.957732 0.000000
vn 0.309331 0.950955 0.000000
vn 0.309331 0.950955 0.000000
vn 0.309331 0.950955 0.000000
vn 0.426326 0.904416 0.016697
vn 0.332285 0.943174 -0.003244
vn 0.332285 0.943174 -0.003244
vn 0.426326 0.904416 0.016697
vn 0.000000 1.000000 0.000000
vn 0.000000 1.000000 0.000000
vn 0.000000 1.000000 0.000000
vn 0.000000 1.000000 0.000000
vn 0.000000 1.000000 0.000000
vn 0.000000 1.000000 0.000000
vn 0.000000 1.000000 0.000000
vn 0.000000 1.000000 0.000000
vn 0.352443 0.935801 -0.007791
vn 0.352443 0.935801 -0.007791
vn 0.231225 0.972585 -0.024752
vn 0.231225 0.972585 -0.024752
vn 0.000000 1.000000 -0.000000
vn 0.000000 1.000000 -0.000000
vn 0.000000 1.000000 0.000000
vn -0.718135 0.695904 0.000000
vn -0.718135 0.695904 0.000000
vn -0.313646 0.946219 -0.079343
vn -0.313645 0.946219 -0.079343
vn 0.440370 0.897705 -0.014169
vn 0.440370 0.897705 -0.014169
vn 0.424015 0.894010 -0.144770
vn 0.424015 0.894010 -0.144770
vn 0.000000 1.000000 0.000000
vn 0.000000 1.000000 0.000000
vn 0.000000 1.000000 0.000000
vn -0.252652 0.967553 0.002710
vn -0.252652 0.967553 0.002710
vn -0.370800 0.927730 0.042713
vn -0.370800 0.927730 0.042713
vn 0.000000 1.000000 0.000000
vn 0.000000 1.000000 0.000000
vn 0.000000 1.000000 0.000000
vn 0.000000 1.000000 0.000000
vn 0.000000 1.000000 0.000000
vn 0.000000 1.000000 0.000000
vn 0.000000 1.000000 0.000000
vn 0.000000 1.000000 0.000000
vn 0.429249 0.903094 0.012939
vn 0.557345 0.825251 0.091253
vn 0.557345 0.825251 0.091253
vn 0.429249 0.903094 0.012939
vn -0.407340 0.913226 0.009609
vn -0.234503 0.972107 0.004134
vn -0.234503 0.972107 0.004134
vn -0.001612 0.999998 -0.001192
vn -0.348914 0.937043 -0.014456
vn -0.274510 0.960699 0.041250
vn -0.274510 0.960699 0.041250
vn 0.000000 1.000000 0.000000
vn 0.286277 0.958147 0.000000
vn 0.286277 0.958147 0.000000
vn 0.286277 0.958147 0.000000
vn -0.030713 0.999519 0.004281
vn -0.030713 0.999519 0.004281
vn -0.030713 0.999519 0.004281
vn -0.046921 0.998838 0.011020
vn 0.378313 0.917212 0.124904
vn 0.378313 0.917212 0.124904
vn 0.426326 0.904416 0.016697
vn 0.426326 0.904416 0.016697
vn 0.000000 1.000000 0.000000
vn 0.000000 1.000000 0.000000
vn 0.000000 1.000000 0.000000
vn -0.469937 0.882470 -0.020142
vn -0.469937 0.882470 -0.020142
vn -0.348914 0.937043 -0.014456
vn -0.348914 0.937043 -0.014456
vn 0.003181 0.999683 -0.024969
vn 0.003181 0.999683 -0.024969
vn 0.003181 0.999683 -0.024969
vn -0.013146 0.999911 -0.002295
vn -0.013146 0.999911 -0.002295
vn -0.013146 0.999911 -0.002295
vn -0.008763 0.999954 -0.003997
vn 0.350296 0.936201 -0.028646
vn 0.350296 0.936201 -0.028646
vn 0.429249 0.903094 0.012939
vn 0.429249 0.903094 0.012939
vn 0.000000 1.000000 0.000000
vn 0.000000 1.000000 -0.000000
vn 0.000000 1.000000 -0.000000
vn -0.195737 0.980651 0.003295
vn -0.195738 0.980651 0.003295
vn -0.407340 0.913226 0.009609
vn -0.407340 0.913226 0.009609
vn -0.089761 0.995707 -0.022610
vn -0.089761 0.995707 -0.022610
vn -0.089761 0.995707 -0.022610
vn -0.089761 0.995707 -0.022610
vn -0.049473 0.998703 -0.012063
vn -0.049473 0.998703 -0.012063
vn -0.049473 0.998703 -0.012063
vn -0.045463 0.998904 -0.011139
vn 0.371581 0.928394 0.003334
vn 0.371581 0.928394 0.003334
vn 0.440369 0.897705 -0.014169
vn 0.440370 0.897705 -0.014169
vn 0.000000 1.000000 0.000000
vn 0.000000 1.000000 0.000000
vn 0.000000 1.000000 0.000000
vn -0.319386 0.945499 -0.063431
vn -0.319386 0.945499 -0.063431
vn -0.252652 0.967553 0.002710
vn -0.001612 0.999998 -0.001192
vn 0.005747 0.999756 -0.021335
vn 0.005747 0.999756 -0.021335
vn 0.005747 0.999756 -0.021335
vn -0.000266 0.999999 -0.001473
vn -0.006409 0.999978 0.001965
vn -0.006409 0.999978 0.001965
vn -0.006409 0.999978 0.001965
vn -0.008896 0.999952 0.004134
vn 0.232366 0.972525 0.014187
vn 0.232366 0.972525 0.014187
vn 0.352443 0.935801 -0.007791
vn 0.352443 0.935801 -0.007791
vn 0.000000 1.000000 -0.000000
vn 0.000000 1.000000 -0.000000
vn 0.000000 1.000000 0.000000
vn 0.000000 1.000000 0.000000
vn -0.304911 0.949513 0.073860
vn -0.304911 0.949513 0.073860
vn -0.718135 0.695904 0.000000
vn 0.000000 1.000000 0.000000
vn 0.008909 0.999868 -0.013584
vn 0.008909 0.999868 -0.013584
vn 0.008909 0.999868 -0.013584
vn 0.000031 1.000000 -0.000000
vn 0.000031 1.000000 -0.000000
vn 0.000031 1.000000 -0.000000
vn 0.000031 1.000000 -0.000000
vn 0.000031 1.000000 -0.000000
vn 0.000032 1.000000 -0.000007
vn 0.000032 1.000000 -0.000007
vn 0.000032 1.000000 -0.000007
vn 0.000187 1.000000 0.000388
vn 0.047984 0.998498 0.026464
vn 0.047984 0.998497 0.026464
vn 0.047984 0.998498 0.026464
vn 0.047535 0.998470 -0.028256
vn 0.047535 0.998470 -0.028256
vn 0.047535 0.998470 -0.028256
vn 0.000187 1.000000 0.000388
vn -0.002387 0.999447 -0.033172
vn -0.002387 0.999447 -0.033172
vn -0.002387 0.999447 -0.033172
vn -0.019941 0.999007 0.039840
vn -0.019941 0.999007 0.039840
vn -0.019941 0.999007 0.039840
vn -0.019941 0.999007 0.039840
vn -0.051640 0.998510 -0.017645
vn -0.051640 0.998510 -0.017645
vn -0.051640 0.998510 -0.017645
vn -0.001909 0.999995 -0.002566
vn -0.002928 0.999996 0.000068
vn -0.002928 0.999996 0.000068
vn 0.009245 0.999272 -0.037015
vn 0.009245 0.999272 -0.037015
vn 0.009245 0.999272 -0.037015
vn 0.009245 0.999272 -0.037015
vn 0.059751 0.996570 -0.057259
vn 0.059751 0.996570 -0.057259
vn 0.059751 0.996570 -0.057259
vn 0.075090 0.997174 -0.002416
vn 0.075090 0.997174 -0.002416
vn 0.075090 0.997174 -0.002416
vn -0.000222 0.999132 -0.041665
vn -0.000222 0.999132 -0.041665
vn -0.000222 0.999132 -0.041665
vn -0.009429 0.999913 0.009197
vn -0.009429 0.999913 0.009197
vn -0.009429 0.999913 0.009197
vn -0.009429 0.999913 0.009197
vn -0.008040 0.999901 -0.011581
vn -0.008040 0.999901 -0.011581
vn -0.008040 0.999901 -0.011581
vn -0.008040 0.999901 -0.011581
vn -0.010524 0.999526 0.028919
vn -0.010524 0.999526 0.028919
vn -0.010524 0.999526 0.028919
vn -0.005209 0.999871 -0.015224
vn -0.005209 0.999871 -0.015224
vn -0.005209 0.999871 -0.015224
vn -0.005209 0.999871 -0.015224
vn -0.008896 0.999952 0.004134
vn -0.004223 0.999972 0.006270
vn -0.004223 0.999972 0.006270
vn -0.004223 0.999971 0.006270
vn -0.013020 0.999896 0.006277
vn -0.013020 0.999896 0.006277
vn -0.013020 0.999896 0.006277
vn -0.008896 0.999952 0.004134
vn -0.046921 0.998838 0.011020
vn -0.025506 0.999599 0.012327
vn -0.025506 0.999599 0.012327
vn -0.025506 0.999599 0.012327
vn -0.041048 0.998885 0.023324
vn -0.041048 0.998885 0.023324
vn -0.041048 0.998885 0.023324
vn -0.046921 0.998838 0.011020
vn -0.045463 0.998904 -0.011139
vn -0.041695 0.998827 -0.024605
vn -0.041695 0.998827 -0.024605
vn -0.041695 0.998827 -0.024605
vn -0.027511 0.999574 -0.009760
vn -0.027511 0.999574 -0.009760
vn -0.027511 0.999574 -0.009760
vn -0.045463 0.998904 -0.011139
vn -0.014893 0.999873 -0.005708
vn -0.014893 0.999873 -0.005708
vn -0.014893 0.999873 -0.005708
vn -0.008763 0.999954 -0.003997
vn -0.008763 0.999954 -0.003997
vn -0.004503 0.999972 -0.006072
vn -0.004503 0.999972 -0.006072
vn -0.004503 0.999972 -0.006072
vn 0.023825 0.999384 0.025777
vn 0.023825 0.999384 0.025777
vn 0.023825 0.999384 0.025777
vn -0.001607 0.999191 -0.040184
vn -0.001607 0.999191 -0.040184
vn -0.001607 0.999191 -0.040184
vn 0.002180 0.999302 -0.037296
vn 0.002180 0.999302 -0.037296
vn 0.002180 0.999302 -0.037296
vn -0.004655 0.999606 -0.027685
vn -0.004655 0.999606 -0.027685
vn -0.004655 0.999606 -0.027685
vn -0.004655 0.999606 -0.027685
vn 0.000268 0.999520 0.030965
vn 0.000268 0.999520 0.030965
vn 0.000268 0.999520 0.030965
vn 0.000268 0.999520 0.030965
vn 0.008991 0.999947 0.004963
vn 0.008991 0.999947 0.004963
vn 0.008991 0.999947 0.004963
vn 0.023339 0.999316 0.028693
vn 0.023339 0.999316 0.028693
vn -0.001909 0.999995 -0.002566
vn 0.023339 0.999316 0.028693
vn 0.035596 0.998939 -0.029213
vn 0.035596 0.998939 -0.029213
vn 0.035596 0.998939 -0.029213
vn -0.001909 0.999995 -0.002566
vn 0.012299 0.999891 0.008198
vn 0.012299 0.999891 0.008198
vn 0.012299 0.999891 0.008198
vn -0.000266 0.999999 -0.001473
vn 0.009469 0.998770 0.048668
vn 0.009469 0.998770 0.048668
vn 0.009469 0.998770 0.048668
vn -0.000266 0.999999 -0.001473
vn -0.024580 0.999587 -0.014865
vn -0.024580 0.999587 -0.014865
vn -0.024580 0.999587 -0.014865
vn 0.002069 0.998948 0.045800
vn 0.002069 0.998949 0.045800
vn 0.002069 0.998949 0.045800
vn -0.000266 0.999999 -0.001473
vn 0.002594 0.998439 -0.055801
vn 0.002594 0.998439 -0.055801
vn 0.002594 0.998439 -0.055801
vn 0.059760 0.998213 -0.000000
vn 0.059760 0.998213 -0.000000
vn -0.001909 0.999995 -0.002566
vn -0.001909 0.999995 -0.002566
vn -0.002974 0.999996 -0.000000
vn -0.002974 0.999996 -0.000000
vn 0.000035 1.000000 0.000014
vn 0.000035 1.000000 0.000014
vn 0.000035 1.000000 0.000014
vn -0.036147 0.999344 -0.002206
vn -0.036147 0.999344 -0.002206
vn 0.000187 1.000000 0.000388
vn 0.004966 0.993839 0.110723
vn 0.004966 0.993839 0.110723
vn 0.004966 0.993839 0.110723
vn 0.000000 1.000000 0.000000
vn 0.000000 1.000000 -0.000000
vn 0.000000 1.000000 -0.000000
vn 0.000000 1.000000 -0.000000
vn 0.000000 1.000000 -0.000000
vn 0.164572 0.985517 -0.040895
vn 0.164572 0.985517 -0.040895
vn 0.164572 0.985517 -0.040895
vn 0.000000 1.000000 0.000000
vn 0.000000 1.000000 0.000000
vn 0.000000 1.000000 0.000000
vn 0.000000 1.000000 0.000000
vn 0.000000 1.000000 0.000000
vn 0.000000 1.000000 0.000000
vn 0.000000 1.000000 0.000000
vn 0.000000 1.000000 -0.000000
vn 0.000000 1.000000 0.000000
vn 0.000000 1.000000 0.000000
vn 0.000000 1.000000 0.000000
vn 0.000000 1.000000 0.000000
vn 0.000000 1.000000 0.000000
vn 0.000000 1.000000 0.000000
vn 0.000000 1.000000 0.000000
vn 0.000000 1.000000 0.000000
vn 0.000000 1.000000 0.000000
vn 0.000000 1.000000 0.000000
vn 0.000000 1.000000 0.000000
vn 0.000000 1.000000 0.000000
vn 0.000000 1.000000 0.000000
vn 0.000000 1.000000 0.000000
vn 0.000000 1.000000 0.000000
vn 0.000000 1.000000 0.000000
vn 0.000000 1.000000 0.000000
vn 0.000000 1.000000 0.000000
vn 0.000000 1.000000 0.000000
vn 0.000000 1.000000 0.000000
vn 0.000000 1.000000 0.000000
vn 0.000000 1.000000 0.000000
vn 0.000000 1.000000 -0.000000
vn 0.000000 1.000000 -0.000000
vn 0.000000 1.000000 0.000000
vn 0.000000 1.000000 -0.000000
vn 0.000000 1.000000 0.000000
s off
f 60/112/1 61/113/2 19/19/3 57/108/4
f 66/118/5 67/119/6 89/141/7
f 90/142/8 64/116/9 65/117/10
f 39/78/11 62/114/12 63/115/13 18/18/14
f 84/136/15 85/137/16 2/2/17 41/81/18
f 47/91/19 82/134/20 83/135/21 6/6/22
f 35/71/23 80/132/24 81/133/25 8/8/26
f 53/101/27 78/130/28 79/131/29 10/10/30
f 19/21/31 31/22/32 28/23/33
f 17/24/34 33/25/35 30/26/36
f 34/27/37 12/28/38 29/29/39
f 13/30/40 36/73/41 37/74/42 25/33/43
f 31/34/44 32/35/45 27/36/46 94/147/47
f 33/38/48 34/39/49 29/40/50 30/41/51
f 27/42/52 14/31/53 54/103/54 93/145/55
f 93/146/56 94/148/57 27/46/58
f 19/21/59 28/23/60 56/107/61 57/109/62
f 29/29/63 12/28/64 48/93/65 49/94/66
f 96/150/67 29/54/68 49/95/69
f 17/24/70 30/26/71 50/97/72 51/99/73
f 25/55/74 37/75/75 38/76/76 22/56/77
f 26/61/78 43/84/79 44/86/80 21/64/81
f 11/65/82 42/83/83 43/85/84 26/66/85
f 21/67/86 44/87/87 45/89/88 16/68/89
f 22/69/90 38/77/91 39/79/92 18/70/93
f 32/32/94 14/31/95 27/42/96
f 79/131/97 80/132/98 35/71/99 10/10/100
f 37/74/101 36/73/102 14/31/103 32/32/104
f 38/76/105 37/75/106 95/149/107
f 39/79/108 38/77/109 31/22/110 19/21/111
f 61/113/112 62/114/113 39/78/114
f 83/135/115 84/136/116 41/81/117 6/6/118
f 43/85/119 42/83/120 12/28/121 34/27/122
f 34/62/123 97/151/124 43/84/125
f 45/89/126 44/87/127 33/25/128 17/24/129
f 65/117/130 66/118/131 89/141/132 90/142/133
f 81/133/134 82/134/135 47/91/136 8/8/137
f 49/94/138 48/93/139 13/51/140 25/52/141
f 49/95/142 98/152/143 96/150/144
f 51/99/145 50/97/146 22/57/147 18/58/148
f 63/115/149 64/116/150 51/98/151 18/18/152
f 77/129/153 78/130/154 53/101/155 4/3/156
f 55/104/157 54/103/158 15/43/159 24/44/160
f 56/106/161 55/105/162 24/47/163 23/48/164
f 57/109/165 56/107/166 23/49/167 20/50/168
f 59/111/169 60/112/170 57/108/171 20/20/172
f 58/110/173 76/128/174 3/1/175
f 9/9/176 88/140/177 75/127/178 58/110/179
f 9/9/180 40/80/181 87/139/182 88/140/183
f 86/138/184 87/139/185 40/80/186 7/7/187
f 86/138/188 91/143/189 71/123/190
f 70/122/191 71/123/192 91/143/193 92/144/194
f 92/144/195 69/121/196 70/122/197
f 1/4/198 68/120/199 69/121/200
f 69/121/201 68/120/202 67/119/203 66/118/204
f 70/122/205 66/118/206 65/117/207
f 65/117/208 71/123/209 70/122/210
f 72/124/211 64/116/212 63/115/213
f 63/115/214 62/114/215 73/125/216 72/124/217
f 74/126/218 73/125/219 62/114/220 61/113/221
f 75/127/222 74/126/223 60/112/224
f 76/128/225 75/127/226 60/112/227 59/111/228
f 15/15/229 54/102/230 78/130/231 77/129/232
f 79/131/233 78/130/234 54/102/235 14/14/236
f 14/14/237 36/72/238 80/132/239 79/131/240
f 81/133/241 80/132/242 36/72/243 13/13/244
f 13/13/245 48/92/246 82/134/247 81/133/248
f 83/135/249 82/134/250 48/92/251 12/12/252
f 42/82/253 84/136/254 83/135/255 12/12/256
f 11/11/257 85/137/258 84/136/259 42/82/260
f 70/122/261 69/121/262 66/118/263
f 72/124/264 71/123/265 64/116/266
f 86/138/267 71/123/268 72/124/269
f 72/124/270 73/125/271 87/139/272 86/138/273
f 88/140/274 87/139/275 73/125/276 74/126/277
f 75/127/278 88/140/279 74/126/280
f 89/141/281 67/119/282 16/16/283 45/88/284
f 90/142/285 89/141/286 45/88/287 17/17/288
f 51/98/289 64/116/290 90/142/291 17/17/292
f 60/112/293 74/126/294 61/113/295
f 7/7/296 52/100/297 91/143/298 86/138/299
f 92/144/300 91/143/301 52/100/302 5/5/303
f 46/90/304 69/121/305 92/144/306
f 46/90/307 92/144/308 5/5/309
f 1/4/310 69/121/311 46/90/312
f 58/110/313 75/127/314 76/128/315
f 61/113/316 39/78/317 19/19/318
f 65/117/319 64/116/320 71/123/321
f 28/45/322 94/148/323 93/146/324 55/105/325 56/106/326
f 93/145/327 54/103/328 55/104/329
f 38/76/330 95/149/331 31/60/332
f 95/149/333 37/75/334 32/59/335
f 31/60/336 95/149/337 32/59/338
f 31/34/339 94/147/340 28/37/341
f 50/96/342 96/150/343 98/152/344 22/56/345
f 30/53/346 29/54/347 96/150/348 50/96/349
f 44/86/350 43/84/351 97/151/352
f 33/63/353 97/151/354 34/62/355
f 44/86/356 97/151/357 33/63/358
f 25/55/359 98/152/360 49/95/361
f 22/56/362 98/152/363 25/55/364
