# This file uses centimeters as units for non-parametric coordinates.

v -0.000077 -250.000000 -0.001407
v 499.999939 -0.000001 -500.001434
v 499.999939 -250.000000 -0.001407
v 499.999939 -0.000001 -400.002289
v 249.999954 -0.000001 -500.001434
v 249.999939 -0.000001 -400.002319
v 249.999954 -250.000000 -0.001405
v 499.999939 -49.520622 -320.768188
v 249.999924 -49.520622 -320.768188
v -0.000075 -49.520622 -320.768219
v 249.999954 -49.520622 -500.001434
v -0.000077 -49.520622 -500.001434
v 249.999954 -250.000000 -500.001434
v -0.000077 -250.000000 -500.001434
v 499.999939 -250.000000 -500.001434
v 270.439819 -59.486038 -297.114777
v 265.858795 -224.255768 -11.211468
v 475.713409 -218.899567 -7.464032
v 491.666626 -40.418308 -309.481262
v 263.062622 6.397260 -509.682800
v 258.333282 11.834226 -396.717743
v 491.666626 11.834226 -396.717712
v 491.882599 2.311550 -505.185181
v 11.810410 -54.638687 -297.690186
v 25.153271 -229.805939 -8.175336
v 253.205124 -55.250458 -513.702271
v 8.333257 -56.203270 -513.702271
v 250.215927 -242.864197 -513.702271
v 8.333257 -243.317352 -513.702271
v 492.098572 -242.411041 -513.702271
vt 0.100022 0.284758
vt 0.100022 0.301606
vt 0.100022 0.284758
vt 0.100022 0.301606
vt 0.100022 0.301606
vt 0.100022 0.301606
vt 0.100022 0.284758
vt 0.100022 0.301606
vt 0.100022 0.301606
vt 0.100022 0.301606
vt 0.100022 0.301606
vt 0.100022 0.301606
vt 0.100022 0.301606
vt 0.100022 0.301606
vt 0.100022 0.301606
vt 0.100022 0.301606
vt 0.100022 0.301606
vt 0.100022 0.301606
vt 0.101772 0.303006
vt 0.101772 0.303006
vt 0.101772 0.303006
vt 0.101771 0.303006
vt 0.101771 0.303006
vt 0.101771 0.286158
vt 0.101771 0.286158
vt 0.101771 0.303006
vt 0.101771 0.286158
vt 0.100022 0.284758
vt 0.100022 0.284758
vt 0.100022 0.301606
vt 0.100022 0.301606
vt 0.100022 0.301606
vt 0.100022 0.301606
vt 0.100022 0.301606
vt 0.100022 0.301606
vt 0.100022 0.284758
vt 0.100022 0.301606
vt 0.101772 0.303006
vt 0.101772 0.303006
vt 0.101771 0.303006
vt 0.101771 0.303006
vt 0.101771 0.286158
vt 0.101771 0.286158
vt 0.101771 0.303006
vt 0.101771 0.286158
vn -0.018406 0.858573 0.512361
vn -0.017197 0.862334 0.506048
vn -0.038872 0.863527 0.502803
vn -0.033436 0.855166 0.517275
vn 0.009474 0.997695 -0.067191
vn 0.009474 0.997695 -0.067191
vn 0.009474 0.997695 -0.067191
vn 0.009474 0.997695 -0.067191
vn 0.001295 0.860989 0.508622
vn 0.001295 0.860989 0.508622
vn -0.017197 0.862334 0.506048
vn -0.018406 0.858573 0.512361
vn -0.019927 0.833318 0.552435
vn -0.018406 0.858573 0.512361
vn -0.033436 0.855166 0.517275
vn -0.019927 0.833318 0.552435
vn -0.856565 0.417569 0.303205
vn -0.978610 0.193916 0.068700
vn -0.997328 0.011837 -0.072087
vn -0.997299 0.011901 -0.072478
vn 0.000783 0.999634 0.027027
vn 0.001458 0.998734 0.050291
vn -0.000152 0.999356 -0.035872
vn -0.000094 0.999753 -0.022245
vn 0.020716 0.061750 -0.997877
vn 0.020716 0.061750 -0.997877
vn 0.020716 0.061750 -0.997877
vn -0.000000 0.000000 -1.000000
vn -0.000000 0.000000 -1.000000
vn -0.000000 0.000000 -1.000000
vn -0.000000 0.000000 -1.000000
vn 0.015352 0.019596 -0.999690
vn 0.015352 0.019596 -0.999690
vn 0.015352 0.019596 -0.999690
vn 0.015352 0.019596 -0.999690
vn -0.003324 0.359808 0.933020
vn -0.011363 0.310539 0.950493
vn -0.011363 0.310539 0.950493
vn -0.007549 0.334044 0.942527
vn 0.740082 0.565929 0.363323
vn 0.760298 0.547883 0.348958
vn 0.750535 0.556742 0.355999
vn 0.740082 0.565929 0.363323
vn -0.654042 0.755702 -0.033818
vn -0.978610 0.193916 0.068700
vn -0.603572 0.751612 0.266046
vn -0.654042 0.755702 -0.033818
vn 0.779047 0.608261 0.152002
vn 0.653863 0.755856 -0.033850
vn 0.653863 0.755855 -0.033850
vn 0.781118 0.604615 0.155869
vn -0.488610 0.738217 0.465077
vn -0.488610 0.738217 0.465077
vn -0.488610 0.738217 0.465077
vn -0.488610 0.738217 0.465077
vn 0.001317 0.387766 0.921757
vn -0.003324 0.359808 0.933020
vn -0.007549 0.334044 0.942527
vn 0.001317 0.387766 0.921757
vn 0.001458 0.998734 0.050291
vn 0.000783 0.999634 0.027027
vn 0.008745 0.953368 0.301683
vn 0.008745 0.953368 0.301683
vn -0.978610 0.193916 0.068700
vn -0.856565 0.417569 0.303205
vn -0.516158 0.693056 0.503243
vn -0.603572 0.751612 0.266046
vn 0.760298 0.547883 0.348958
vn 0.779047 0.608261 0.152002
vn 0.781118 0.604615 0.155869
vn 0.750535 0.556742 0.355999
vn -0.997299 0.011901 -0.072478
vn -0.997328 0.011837 -0.072087
vn -0.818553 0.093078 -0.566841
vn -0.818553 0.093078 -0.566841
vn -0.000094 0.999753 -0.022245
vn -0.000152 0.999356 -0.035872
vn -0.001753 0.910623 -0.413235
vn -0.001753 0.910623 -0.413235
vn 0.000817 -0.886975 -0.461817
vn 0.000823 -0.892992 -0.450072
vn 0.000823 -0.892992 -0.450072
vn 0.000817 -0.886863 -0.462033
vn -0.854373 0.000000 -0.519660
vn -0.854373 0.000000 -0.519660
vn -0.854373 0.000000 -0.519660
vn -0.854373 0.000000 -0.519660
vn 0.765494 0.011410 -0.643342
vn 0.765494 0.011410 -0.643342
vn 0.765494 0.011410 -0.643342
vn 0.765494 0.011410 -0.643342
vn 0.000811 -0.880778 -0.473529
vn 0.000817 -0.886975 -0.461817
vn 0.000817 -0.886863 -0.462033
vn 0.000811 -0.880778 -0.473529
s off
f 16/37/1 17/28/2 18/29/3 19/30/4
f 20/31/5 21/32/6 22/33/7 23/34/8
f 24/35/9 25/36/10 17/28/11 16/37/12
f 21/32/13 16/37/14 19/30/15 22/33/16
f 9/11/17 6/12/18 5/13/19 11/14/20
f 10/15/21 9/16/22 11/17/23 12/18/24
f 26/38/25 20/39/26 23/21/27
f 27/40/28 26/41/29 28/42/30 29/43/31
f 26/41/32 23/44/33 30/45/34 28/42/35
f 7/7/36 3/3/37 18/29/38 17/28/39
f 3/3/40 8/8/41 19/30/42 18/29/43
f 5/5/44 6/6/45 21/32/46 20/31/47
f 4/4/48 2/2/49 23/34/50 22/33/51
f 10/10/52 1/1/53 25/36/54 24/35/55
f 1/1/56 7/7/57 17/28/58 25/36/59
f 9/9/60 10/10/61 24/35/62 16/37/63
f 6/6/64 9/9/65 16/37/66 21/32/67
f 8/8/68 4/4/69 22/33/70 19/30/71
f 11/19/72 5/20/73 20/39/74 26/38/75
f 12/22/76 11/23/77 26/41/78 27/40/79
f 13/24/80 14/25/81 29/43/82 28/42/83
f 14/25/84 12/22/85 27/40/86 29/43/87
f 2/26/88 15/27/89 30/45/90 23/44/91
f 15/27/92 13/24/93 28/42/94 30/45/95
