# This file uses centimeters as units for non-parametric coordinates.

v 106.268036 -24.659401 425.086792
v 115.968155 -24.659401 -21.544994
v -58.414246 0.000000 424.803375
v -60.086792 0.000000 -7.743399
v -78.811142 3.825457 195.695419
v 115.413818 -24.659399 208.867218
v 0.989703 -3.013818 432.807861
v -56.487762 -0.685808 195.014755
v -10.305871 -0.030915 -22.413164
v 45.157349 -0.685808 192.875351
v 54.523003 -0.030915 419.675110
v 64.429077 0.073948 197.622559
v 54.164810 -0.030915 -11.249735
v 140.178833 -24.659399 43.705551
v 65.771790 4.756675 72.537827
v 58.109009 -0.685808 72.537827
v -62.130249 -0.685808 71.782578
v -72.319946 0.924398 71.783310
v 130.458252 -24.659399 291.467163
v 67.157593 -0.296308 323.281677
v 58.109009 -0.685808 322.537048
v -62.130249 -0.685808 321.783386
v -74.236450 0.924398 321.783386
v -62.130249 -0.685808 77.634262
v 58.109009 -0.685808 80.027695
v -51.351013 -0.685808 329.186951
v 53.563354 -0.685808 330.029236
v -106.323044 -24.659401 -31.037443
v -128.500793 -24.659399 16.515381
v -135.393036 -24.659399 132.594254
v -120.885849 -24.659399 195.257431
v -132.018829 -24.659401 263.535461
v -121.209106 -24.659401 351.580750
v -109.175232 -24.659401 425.086823
v -64.076424 0.924398 12.131315
v -21.327309 -0.685808 0.161460
v 64.235390 0.924398 23.174480
v -85.793579 2.509434 131.190292
v -72.057739 -0.685808 131.553574
v 49.088013 -0.685808 139.417831
v 58.596985 0.030075 139.250107
v 128.170990 -24.659399 140.141205
v -64.477173 2.374943 258.984253
v -50.081909 -0.685808 259.963867
v 48.407593 -0.685808 260.714600
v 56.079468 4.932585 260.256836
v -68.987427 0.924398 384.303589
v -32.137398 -0.685808 411.730255
v 63.040649 0.924398 386.053772
v 125.134003 -24.659399 395.364166
v 29.373291 -0.685808 138.138046
v 24.053528 -0.685808 196.436874
v -36.663818 -0.685808 303.741882
v -44.244751 -2.043639 325.071228
v 47.651611 -1.861623 324.259460
v -44.244690 -1.296263 327.336609
v 47.651642 -1.516665 325.952209
v -22.885559 -0.685808 356.908417
v 4.629242 -0.685808 346.600494
v -25.288727 -0.685808 184.101669
v 25.074677 -0.685808 202.017746
v 45.533386 -0.685808 201.568771
v 23.349182 -2.713577 198.792404
v 42.187866 -2.713577 198.895432
v -32.201172 -0.685808 47.213852
v -62.124542 -2.061473 75.804672
v 58.103302 -2.061473 74.135605
v -18.723162 -0.685808 75.794289
v -16.199907 -3.337331 80.508400
v -13.501360 -0.685808 85.197365
v 60.574860 -24.659399 -54.377701
v -64.893036 -24.659399 -54.378052
v -64.893005 -24.659399 460.635010
v 60.574860 -24.659399 460.634979
v -50.357849 -0.685808 379.430359
v 42.222137 -0.685808 388.856750
v 50.629639 -0.685808 22.737114
v -52.721466 -0.685808 20.682137
v -8.146143 0.924398 -12.430888
v -32.137398 0.924398 421.290741
v 33.267246 -0.685808 6.183659
v 40.836140 0.924398 -5.141891
v 28.718555 -0.685808 406.928314
v 32.622684 0.924398 413.733429
vt 0.431393 0.178969
vt 0.431393 0.178969
vt 0.431393 0.178969
vt 0.431393 0.178969
vt 0.431393 0.178969
vt 0.431393 0.178969
vt 0.431393 0.178969
vt 0.431393 0.178969
vt 0.431393 0.178969
vt 0.431393 0.178969
vt 0.431393 0.178969
vt 0.431393 0.178969
vt 0.431393 0.178969
vt 0.431393 0.178969
vt 0.431393 0.178969
vt 0.431393 0.178969
vt 0.431393 0.178969
vt 0.431594 0.178769
vt 0.431594 0.178769
vt 0.431393 0.178969
vt 0.431393 0.178969
vt 0.431393 0.178969
vt 0.431393 0.178969
vt 0.102106 0.302644
vt 0.102106 0.328744
vt 0.431393 0.178969
vt 0.431393 0.178969
vt 0.431393 0.178969
vt 0.102106 0.328530
vt 0.431795 0.178769
vt 0.102307 0.303623
vt 0.431393 0.178969
vt 0.431393 0.178969
vt 0.431393 0.178969
vt 0.431393 0.178969
vt 0.431393 0.178969
vt 0.102106 0.328975
vt 0.431594 0.178969
vt 0.102106 0.302261
vt 0.431393 0.178969
vt 0.431393 0.178969
vt 0.431393 0.178969
vt 0.102106 0.328530
vt 0.431393 0.178969
vt 0.102106 0.328538
vt 0.431795 0.178769
vt 0.102173 0.302873
vt 0.431393 0.178969
vt 0.102106 0.328984
vt 0.102106 0.303336
vt 0.102106 0.303271
vt 0.102106 0.303272
vt 0.102508 0.303336
vt 0.102128 0.303533
vt 0.102106 0.303267
vt 0.102106 0.303267
vt 0.102106 0.302729
vt 0.431393 0.178969
vt 0.431393 0.178969
vt 0.431393 0.178969
vt 0.431393 0.178969
vt 0.431393 0.178969
vt 0.431393 0.178969
vt 0.431393 0.178969
vt 0.431393 0.178969
vt 0.431393 0.178969
vt 0.431393 0.178969
vt 0.102106 0.328447
vt 0.431393 0.178969
vt 0.431393 0.178969
vt 0.431393 0.178969
vt 0.431393 0.178969
vt 0.431393 0.178969
vt 0.102106 0.328643
vt 0.431393 0.178969
vt 0.431594 0.178769
vt 0.102106 0.302542
vt 0.431393 0.178969
vt 0.431393 0.178969
vt 0.431393 0.178969
vt 0.431393 0.178969
vt 0.102106 0.328859
vt 0.431393 0.178969
vt 0.431393 0.178969
vt 0.102106 0.328864
vt 0.431393 0.178969
vt 0.431393 0.178969
vt 0.431393 0.178969
vt 0.102139 0.300781
vt 0.431996 0.178969
vt 0.102106 0.329103
vt 0.431393 0.178969
vt 0.431393 0.178969
vt 0.102106 0.328647
vt 0.102106 0.328750
vt 0.102106 0.328911
vt 0.431500 0.178969
vt 0.102106 0.303011
vt 0.431393 0.178969
vt 0.102106 0.303267
vt 0.431465 0.178969
vt 0.102106 0.303115
vt 0.431393 0.178969
vt 0.102106 0.303267
vt 0.102106 0.329097
vt 0.102106 0.329044
vt 0.102106 0.328746
vt 0.102106 0.328764
vt 0.431571 0.178792
vt 0.102106 0.305678
vt 0.102106 0.328757
vt 0.431581 0.178781
vt 0.102106 0.304302
vt 0.102254 0.324506
vt 0.431583 0.178874
vt 0.102296 0.303336
vt 0.102106 0.303271
vt 0.431393 0.178969
vt 0.102342 0.303309
vt 0.102224 0.313882
vt 0.102214 0.303308
vt 0.102106 0.303307
vt 0.102106 0.328533
vt 0.431996 0.178969
vt 0.431996 0.178969
vt 0.431996 0.178970
vt 0.431996 0.178969
vt 0.431996 0.178969
vt 0.431996 0.178969
vt 0.431396 0.178969
vt 0.431396 0.178970
vt 0.431396 0.178970
vt 0.431996 0.178970
vt 0.431996 0.178969
vt 0.432007 0.178969
vt 0.432007 0.178969
vt 0.432007 0.178970
vt 0.432007 0.178969
vt 0.432007 0.178969
vt 0.432007 0.178970
vt 0.432007 0.178969
vt 0.432007 0.178969
vt 0.432007 0.178969
vt 0.432007 0.178970
vt 0.432007 0.178970
vt 0.432007 0.178969
vt 0.432007 0.178969
vt 0.102159 0.302036
vt 0.431875 0.178849
vt 0.431393 0.178969
vt 0.102106 0.329044
vt 0.102106 0.328492
vt 0.431393 0.178969
vt 0.431603 0.178865
vt 0.102211 0.315482
vt 0.431393 0.178969
vt 0.431393 0.178969
vt 0.431695 0.178969
vt 0.432007 0.178969
vt 0.102106 0.328469
vt 0.431393 0.178969
vt 0.431393 0.178969
vt 0.431700 0.178969
vt 0.102106 0.329073
vt 0.431761 0.178969
vn 0.426068 0.723732 -0.542843
vn 0.426068 0.723732 -0.542843
vn 0.426068 0.723732 -0.542843
vn -0.422093 0.904749 -0.057158
vn -0.422093 0.904749 -0.057158
vn -0.422093 0.904749 -0.057158
vn -0.422093 0.904749 -0.057158
vn 0.129482 0.973496 -0.188519
vn 0.129482 0.973496 -0.188519
vn 0.129482 0.973496 -0.188519
vn -0.458991 0.887605 0.038536
vn -0.458991 0.887605 0.038536
vn -0.458991 0.887605 0.038536
vn -0.040951 0.998852 -0.024846
vn -0.040951 0.998852 -0.024846
vn -0.040951 0.998852 -0.024846
vn -0.340946 0.940044 -0.008554
vn -0.340946 0.940044 -0.008554
vn -0.340946 0.940044 -0.008554
vn -0.340946 0.940044 -0.008554
vn 0.026621 0.847506 0.530118
vn 0.026621 0.847506 0.530118
vn 0.026621 0.847506 0.530118
vn 0.026621 0.847506 0.530118
vn -0.000641 0.892003 0.452030
vn -0.000641 0.892003 0.452030
vn -0.000641 0.892003 0.452030
vn -0.000641 0.892003 0.452030
vn 0.372219 0.928035 0.014288
vn 0.372219 0.928035 0.014288
vn 0.372219 0.928035 0.014288
vn 0.372219 0.928035 0.014288
vn 0.362715 0.929299 0.069570
vn 0.362715 0.929299 0.069570
vn 0.362715 0.929299 0.069570
vn 0.362715 0.929300 0.069570
vn 0.348059 0.928609 -0.128608
vn 0.348059 0.928609 -0.128608
vn 0.348059 0.928609 -0.128608
vn 0.348059 0.928609 -0.128608
vn -0.006327 0.999963 -0.005896
vn 0.036181 0.996777 -0.071602
vn 0.017253 0.994208 -0.106081
vn -0.002731 0.999475 0.032293
vn 0.061503 0.997857 0.022349
vn -0.012585 0.999076 -0.041094
vn -0.023554 0.997656 -0.064253
vn -0.023554 0.997656 -0.064253
vn 0.411168 0.910220 -0.049404
vn 0.411168 0.910220 -0.049404
vn 0.411168 0.910220 -0.049404
vn 0.411168 0.910220 -0.049404
vn -0.531572 0.846701 0.022993
vn -0.531572 0.846701 0.022993
vn -0.531572 0.846701 0.022993
vn 0.038899 0.892560 0.449247
vn 0.038899 0.892560 0.449247
vn 0.038899 0.892560 0.449247
vn 0.038899 0.892560 0.449247
vn 0.202089 0.979129 -0.021609
vn 0.202089 0.979129 -0.021609
vn 0.202089 0.979129 -0.021609
vn 0.202089 0.979129 -0.021609
vn -0.451117 0.892222 0.020812
vn -0.451117 0.892222 0.020812
vn -0.451117 0.892222 0.020812
vn -0.451117 0.892222 0.020812
vn -0.379929 0.917739 -0.115796
vn -0.380129 0.917439 -0.117504
vn -0.371607 0.926969 -0.051354
vn -0.414610 0.909925 0.011637
vn -0.414610 0.909925 0.011637
vn -0.414610 0.909925 0.011637
vn -0.414610 0.909925 0.011637
vn 0.000000 1.000000 0.000000
vn 0.000000 1.000000 0.000000
vn 0.000000 1.000000 0.000000
vn 0.000000 1.000000 -0.000000
vn 0.000000 1.000000 -0.000000
vn 0.000000 1.000000 -0.000000
vn 0.000000 1.000000 -0.000000
vn -0.081503 0.995320 -0.051918
vn -0.057416 0.998142 -0.020409
vn -0.062987 0.997852 -0.018024
vn -0.062987 0.997852 -0.018024
vn 0.071237 0.997298 -0.017927
vn 0.086550 0.995816 -0.029329
vn 0.077599 0.996975 -0.004296
vn 0.077599 0.996975 -0.004296
vn 0.190457 0.981362 0.025602
vn 0.190457 0.981362 0.025602
vn 0.190457 0.981362 0.025602
vn 0.190457 0.981362 0.025602
vn -0.474407 0.667947 0.573398
vn -0.474407 0.667947 0.573398
vn -0.474407 0.667947 0.573398
vn 0.139181 0.990018 0.022183
vn 0.139181 0.990018 0.022183
vn 0.116367 0.990301 0.075918
vn 0.061503 0.997857 0.022349
vn 0.000000 1.000000 -0.000000
vn 0.000000 1.000000 -0.000000
vn 0.000000 1.000000 -0.000000
vn 0.338293 0.937347 -0.083299
vn 0.338293 0.937347 -0.083299
vn 0.338293 0.937347 -0.083299
vn -0.516734 0.852540 0.078498
vn -0.516734 0.852540 0.078498
vn -0.516734 0.852540 0.078498
vn -0.516734 0.852540 0.078498
vn 0.208376 0.976930 -0.046770
vn 0.208376 0.976930 -0.046770
vn 0.208376 0.976930 -0.046770
vn 0.208376 0.976930 -0.046770
vn 0.000000 1.000000 0.000000
vn 0.000000 1.000000 0.000000
vn 0.000000 1.000000 0.000000
vn 0.000000 1.000000 0.000000
vn -0.051281 0.998684 0.000480
vn -0.051281 0.998684 0.000480
vn -0.051281 0.998684 0.000480
vn -0.051281 0.998684 0.000480
vn 0.377489 0.925793 0.020248
vn 0.377489 0.925793 0.020248
vn 0.377489 0.925793 0.020248
vn 0.377489 0.925793 0.020248
vn 0.171938 0.984231 0.041545
vn 0.171938 0.984231 0.041545
vn 0.171938 0.984231 0.041545
vn 0.171938 0.984231 0.041545
vn 0.000000 1.000000 -0.000000
vn 0.000000 1.000000 -0.000000
vn 0.000000 1.000000 -0.000000
vn -0.338053 0.936271 0.095479
vn -0.338053 0.936271 0.095479
vn -0.338053 0.936271 0.095479
vn -0.338053 0.936271 0.095479
vn 0.364890 0.930959 0.013099
vn 0.364890 0.930959 0.013099
vn 0.364890 0.930958 0.013099
vn -0.461261 0.881767 0.098616
vn -0.461261 0.881767 0.098616
vn -0.461261 0.881767 0.098616
vn -0.461261 0.881767 0.098616
vn 0.377929 0.908741 0.177084
vn 0.377929 0.908741 0.177084
vn 0.377929 0.908741 0.177084
vn 0.377929 0.908741 0.177084
vn 0.000000 1.000000 0.000000
vn 0.000000 1.000000 0.000000
vn 0.000000 1.000000 0.000000
vn 0.000000 1.000000 0.000000
vn 0.000000 1.000000 0.000000
vn 0.000000 1.000000 0.000000
vn -0.154411 0.771135 0.617663
vn -0.154411 0.771135 0.617663
vn -0.154411 0.771135 0.617663
vn 0.000000 1.000000 0.000000
vn 0.000000 1.000000 0.000000
vn 0.000000 1.000000 0.000000
vn 0.000000 1.000000 0.000000
vn 0.000000 1.000000 0.000000
vn 0.000000 1.000000 0.000000
vn 0.000000 1.000000 0.000000
vn 0.000000 1.000000 0.000000
vn 0.000000 1.000000 0.000000
vn -0.002977 0.963961 -0.266026
vn -0.002977 0.963961 -0.266026
vn -0.002977 0.963961 -0.266026
vn -0.002977 0.963961 -0.266026
vn 0.087218 0.981041 -0.173065
vn 0.087219 0.981041 -0.173066
vn 0.087219 0.981041 -0.173066
vn 0.087219 0.981041 -0.173065
vn -0.108301 0.989965 -0.090778
vn -0.108301 0.989965 -0.090778
vn -0.108301 0.989965 -0.090778
vn -0.108301 0.989965 -0.090778
vn 0.000438 0.971706 -0.236194
vn 0.000438 0.971706 -0.236194
vn 0.000438 0.971706 -0.236194
vn 0.000438 0.971706 -0.236194
vn 0.000000 1.000000 0.000000
vn 0.000000 1.000000 0.000000
vn 0.000000 1.000000 0.000000
vn 0.000000 1.000000 0.000000
vn 0.000000 1.000000 -0.000000
vn 0.000000 1.000000 -0.000000
vn 0.000000 1.000000 -0.000000
vn 0.000000 1.000000 0.000000
vn 0.000000 1.000000 0.000000
vn 0.000000 1.000000 0.000000
vn 0.000000 1.000000 0.000000
vn 0.000000 1.000000 0.000000
vn 0.000000 1.000000 0.000000
vn 0.000000 1.000000 0.000000
vn 0.000000 1.000000 0.000000
vn 0.000000 1.000000 0.000000
vn 0.000000 1.000000 0.000000
vn 0.000000 1.000000 0.000000
vn 0.000000 1.000000 0.000000
vn 0.213158 0.771700 -0.599202
vn 0.213158 0.771700 -0.599202
vn 0.213158 0.771700 -0.599202
vn -0.004962 0.826005 -0.563640
vn -0.004962 0.826006 -0.563640
vn -0.004962 0.826006 -0.563640
vn -0.004962 0.826005 -0.563640
vn 0.000000 1.000000 -0.000000
vn 0.000000 1.000000 -0.000000
vn 0.000000 1.000000 -0.000000
vn 0.000000 1.000000 0.000000
vn 0.000000 1.000000 0.000000
vn 0.000000 1.000000 0.000000
vn 0.000000 1.000000 0.000000
vn 0.000000 1.000000 0.000000
vn 0.000000 1.000000 0.000000
vn 0.000000 1.000000 0.000000
vn 0.000000 1.000000 0.000000
vn 0.000000 1.000000 0.000000
vn -0.240905 0.969286 -0.049503
vn -0.240905 0.969285 -0.049503
vn -0.240905 0.969285 -0.049503
vn -0.240905 0.969285 -0.049503
vn -0.039816 0.999206 0.001722
vn -0.039816 0.999206 0.001722
vn -0.039816 0.999206 0.001722
vn 0.000000 1.000000 -0.000000
vn 0.000000 1.000000 -0.000000
vn 0.000000 1.000000 -0.000000
vn 0.000000 1.000000 -0.000000
vn 0.000000 1.000000 0.000000
vn 0.000000 1.000000 0.000000
vn 0.000000 1.000000 0.000000
vn -0.035682 0.936999 -0.347506
vn -0.035682 0.936999 -0.347506
vn -0.035682 0.936999 -0.347506
vn -0.035682 0.936999 -0.347506
vn -0.674332 0.719233 -0.167271
vn -0.674332 0.719233 -0.167271
vn -0.674332 0.719233 -0.167271
vn 0.147908 0.935844 0.319874
vn 0.147908 0.935844 0.319874
vn 0.147908 0.935844 0.319874
vn 0.000000 1.000000 0.000000
vn 0.000000 1.000000 0.000000
vn 0.000000 1.000000 0.000000
vn -0.028571 0.904613 0.425276
vn -0.028571 0.904613 0.425276
vn -0.028571 0.904613 0.425276
vn -0.028571 0.904613 0.425276
vn 0.082351 0.832280 -0.548205
vn 0.082351 0.832280 -0.548205
vn 0.082351 0.832280 -0.548205
vn 0.082351 0.832280 -0.548205
vn 0.000000 1.000000 0.000000
vn 0.000000 1.000000 0.000000
vn 0.000000 1.000000 0.000000
vn 0.000000 1.000000 0.000000
vn 0.265553 0.853671 -0.448025
vn 0.265554 0.853671 -0.448025
vn 0.265553 0.853671 -0.448025
vn 0.083930 0.870639 -0.484709
vn 0.083930 0.870639 -0.484709
vn 0.083930 0.870639 -0.484709
vn 0.000002 0.792142 -0.610337
vn 0.000002 0.792142 -0.610337
vn 0.000002 0.792142 -0.610337
vn -0.132821 0.881778 -0.452577
vn -0.132821 0.881778 -0.452577
vn -0.132821 0.881778 -0.452577
vn -0.244226 0.867425 -0.433505
vn -0.244226 0.867425 -0.433505
vn -0.244226 0.867425 -0.433505
vn -0.382128 0.792077 0.476016
vn -0.382128 0.792077 0.476016
vn -0.382128 0.792078 0.476016
vn -0.033872 0.826149 0.562433
vn -0.033872 0.826149 0.562433
vn -0.033872 0.826149 0.562433
vn 0.346414 0.825667 0.445277
vn 0.346414 0.825667 0.445277
vn 0.346414 0.825667 0.445277
vn 0.076126 0.859448 0.505524
vn 0.013534 0.803086 0.595709
vn 0.038619 0.827123 0.560692
vn 0.038619 0.827123 0.560692
vn 0.013534 0.803086 0.595709
vn 0.000000 0.789321 0.613980
vn 0.022169 0.994081 0.106359
vn -0.028711 0.998436 0.047975
vn 0.007244 0.952381 0.304824
vn 0.026069 0.993063 0.114653
vn -0.057416 0.998142 -0.020409
vn -0.003944 0.995202 0.097765
vn -0.314589 0.949194 -0.008081
vn -0.314589 0.949194 -0.008081
vn -0.238816 0.970986 0.012348
vn -0.205177 0.977678 0.045261
vn -0.379929 0.917739 -0.115796
vn -0.384904 0.908658 -0.161831
vn -0.384904 0.908658 -0.161831
vn -0.380129 0.917439 -0.117504
vn 0.081012 0.984284 0.156918
vn -0.012585 0.999076 -0.041094
vn 0.061503 0.997857 0.022349
vn 0.116367 0.990301 0.075918
vn -0.041795 0.992806 0.112205
vn -0.006327 0.999963 -0.005896
vn -0.002731 0.999475 0.032293
vn -0.015453 0.992624 0.120245
vn -0.053731 0.985953 -0.158146
vn -0.003944 0.995202 0.097765
vn -0.057416 0.998142 -0.020409
vn -0.081503 0.995320 -0.051918
vn 0.105999 0.990791 -0.084250
vn 0.086550 0.995816 -0.029329
vn 0.071237 0.997298 -0.017927
vn 0.022169 0.994081 0.106359
vn -0.238816 0.970986 0.012348
vn -0.006327 0.999963 -0.005896
vn -0.041795 0.992806 0.112205
vn -0.205177 0.977678 0.045261
vn -0.238816 0.970986 0.012348
vn 0.036181 0.996777 -0.071602
vn -0.006327 0.999963 -0.005896
vn -0.007720 0.998526 -0.053717
vn -0.003944 0.995202 0.097765
vn -0.053731 0.985953 -0.158146
vn -0.018574 0.981845 -0.188776
vn 0.026069 0.993063 0.114653
vn -0.003944 0.995202 0.097765
vn -0.007720 0.998526 -0.053717
vn 0.014949 0.974037 0.225896
vn 0.022169 0.994081 0.106359
vn 0.071237 0.997298 -0.017927
vn -0.028711 0.998436 0.047975
vn 0.000000 1.000000 -0.000000
vn 0.000000 1.000000 0.000000
vn 0.000000 1.000000 0.000000
vn 0.000000 1.000000 -0.000000
vn 0.000000 1.000000 0.000000
vn 0.000000 1.000000 0.000000
vn 0.000000 1.000000 0.000000
s off
f 18/33/1 24/42/2 66/115/3
f 30/60/4 38/72/5 18/32/6 29/59/7
f 23/40/8 26/46/9 22/38/10
f 23/41/11 33/64/12 47/87/13
f 27/48/14 20/35/15 21/36/16
f 40/76/17 41/78/18 15/27/19 25/44/20
f 68/119/21 69/121/22 67/117/23 16/52/24
f 54/98/25 55/100/26 21/56/27 22/57/28
f 19/34/29 20/35/30 49/92/31 50/93/32
f 14/26/33 15/27/34 41/78/35 42/79/36
f 2/3/37 13/23/38 37/71/39 14/26/40
f 82/162/41 13/23/42 9/17/43 79/156/44
f 35/66/45 79/157/46 9/16/47 4/5/48
f 6/1/49 12/22/50 46/86/51 19/34/52
f 62/109/53 10/19/54 64/112/55
f 52/95/56 63/111/57 64/113/58 10/24/59
f 43/80/60 44/83/61 8/15/62 5/9/63
f 43/81/64 5/12/65 31/62/66 32/63/67
f 35/67/68 29/59/69 18/32/70
f 32/63/71 33/64/72 23/41/73 43/81/74
f 25/45/75 51/94/76 40/77/77
f 48/89/78 58/105/79 26/47/80 75/148/81
f 76/150/82 49/92/83 20/35/84 27/48/85
f 47/88/86 75/149/87 26/46/88 23/40/89
f 38/73/90 39/75/91 24/42/92 18/33/93
f 67/118/94 15/27/95 16/28/96
f 18/33/97 17/30/98 78/154/99 35/66/100
f 65/114/101 81/160/102 36/68/103
f 14/26/104 37/71/105 15/27/106
f 31/61/107 5/6/108 38/72/109 30/60/110
f 8/14/111 39/75/112 38/73/113 5/10/114
f 10/24/115 40/77/116 51/94/117 52/95/118
f 12/21/119 41/78/120 40/76/121 10/18/122
f 42/79/123 41/78/124 12/21/125 6/11/126
f 23/40/127 22/38/128 44/83/129 43/80/130
f 45/85/131 53/96/132 21/37/133
f 21/36/134 20/35/135 46/86/136 45/84/137
f 19/34/138 46/86/139 20/35/140
f 47/87/141 33/64/142 34/65/143 3/2/144
f 50/93/145 49/92/146 11/20/147 1/8/148
f 70/123/149 51/94/150 25/45/151
f 60/107/152 39/74/153 8/25/154
f 60/107/155 63/111/156 52/95/157
f 22/39/158 21/37/159 53/96/160
f 44/82/161 53/96/162 45/85/163
f 22/39/164 53/96/165 44/82/166
f 56/102/167 57/104/168 55/100/169 54/98/170
f 22/38/171 26/46/172 56/101/173 54/97/174
f 27/48/175 21/36/176 55/99/177 57/103/178
f 26/54/179 27/55/180 57/104/181 56/102/182
f 76/151/183 59/106/184 48/91/185 83/164/186
f 26/47/187 59/106/188 27/49/189
f 26/47/190 58/105/191 59/106/192
f 48/91/193 59/106/194 58/105/195
f 60/107/196 45/85/197 61/108/198
f 62/110/199 61/108/200 45/85/201
f 60/107/202 61/108/203 63/111/204
f 64/113/205 63/111/206 61/108/207 62/110/208
f 60/107/209 51/94/210 39/74/211
f 52/95/212 51/94/213 60/107/214
f 44/82/215 60/107/216 8/25/217
f 44/82/218 45/85/219 60/107/220
f 45/84/221 46/86/222 12/22/223 62/109/224
f 62/109/225 12/22/226 10/19/227
f 17/31/228 65/114/229 36/68/230 78/155/231
f 65/114/232 68/120/233 16/29/234
f 69/121/235 70/122/236 25/51/237 67/117/238
f 25/44/239 15/27/240 67/118/241
f 18/33/242 66/115/243 17/30/244
f 17/31/245 68/120/246 65/114/247
f 66/116/248 69/121/249 68/119/250 17/53/251
f 24/50/252 70/122/253 69/121/254 66/116/255
f 39/74/256 51/94/257 70/123/258 24/43/259
f 13/124/260 2/125/261 71/126/262
f 9/127/263 13/124/264 71/126/265
f 9/130/266 71/131/267 72/132/268
f 4/128/269 9/129/270 72/133/271
f 28/134/272 4/128/273 72/133/274
f 3/135/275 34/136/276 73/137/277
f 7/138/278 3/135/279 73/137/280
f 1/141/281 11/139/282 74/140/283
f 11/142/284 7/143/285 74/145/286
f 74/145/287 7/143/288 73/144/289
f 80/158/290 3/7/291 7/13/292
f 11/20/293 49/92/294 84/165/295
f 16/28/296 15/27/297 37/71/298 77/153/299
f 35/67/300 4/4/301 28/58/302 29/59/303
f 36/69/304 79/157/305 35/66/306 78/154/307
f 81/161/308 82/162/309 79/156/310 36/70/311
f 83/163/312 84/165/313 49/92/314 76/150/315
f 48/90/316 75/149/317 47/88/318 80/158/319
f 37/71/320 82/162/321 81/161/322 77/153/323
f 37/71/324 13/23/325 82/162/326
f 80/159/327 84/165/328 83/163/329 48/146/330
f 11/20/331 84/165/332 80/159/333 7/147/334
f 80/158/335 47/88/336 3/7/337
f 65/114/338 16/29/339 77/152/340 81/160/341
f 27/49/342 59/106/343 76/151/344
