# This file uses centimeters as units for non-parametric coordinates.

v 13.552505 -37.672688 6.775879
v 16.346062 -37.672688 3.043457
v 24.054482 28.512812 1.598877
v 23.685993 28.330839 -1.160889
v 26.347481 27.551004 -1.464844
v 13.103783 -37.672688 3.414063
v 14.403709 -37.672688 14.192627
v 12.633156 27.809542 16.363037
v 11.134888 28.020170 12.719238
v 13.706104 28.067701 13.800781
v 12.578083 -37.672688 9.753418
v 15.710861 -37.672688 11.071289
v 11.239075 -37.672688 3.717529
v 10.729507 33.395992 -2.583008
v 8.688774 32.987236 -5.935303
v 11.397312 33.049091 -5.269775
v 8.752975 -37.672688 -0.366211
v 12.052780 -37.672688 0.444824
v 16.831009 28.830406 20.549072
v 19.187057 30.376642 12.933594
v 12.528866 31.565651 8.439453
v 6.057915 30.754250 13.277588
v 8.716850 29.063810 20.761475
v 16.732201 25.965202 19.936768
v 19.088539 27.511433 12.321289
v 12.430378 28.700439 7.827148
v 5.959412 27.889042 12.665527
v 8.618362 26.198608 20.149414
v 15.434586 31.217625 -12.677979
v 0.837967 32.457039 -2.647461
v 9.563416 32.934715 3.989014
v 15.508171 35.159924 -13.058350
v 4.540314 35.338108 -13.328613
v 0.911400 36.399338 -3.027832
v 9.636848 36.877014 3.608643
v 18.657661 36.111012 -2.590820
v 23.856956 30.495481 -5.722168
v 21.794258 29.890322 -12.393799
v 21.835991 32.130116 -12.609863
v 23.898689 32.735275 -5.938232
v 4.466637 31.395809 -12.948242
v -2.725349 30.324200 -12.629639
v -4.474373 31.009714 -5.860596
v -4.432701 33.249504 -6.076904
v -2.683617 32.563992 -12.845459
v -0.751678 31.840141 3.466553
v 5.423286 32.089890 7.247803
v 5.464958 34.329674 7.031738
v -0.709938 34.079933 3.250488
v 18.584480 32.168713 -2.210693
v 31.565887 29.283142 2.325195
v 30.306320 28.600203 -4.360107
v 23.692207 29.973967 -5.414551
v 20.864410 31.505993 0.618896
v 25.730640 31.079020 5.402100
v 30.920456 26.488091 2.732422
v 29.660828 25.805195 -3.952881
v 23.046375 27.179003 -5.007324
v 20.219322 28.710943 1.026123
v 25.085552 28.283924 5.809326
v -21.162308 -37.672688 3.102051
v -20.029320 27.809542 0.540527
v -17.620125 28.020170 3.657715
v -20.385918 28.067701 3.295410
v -18.227005 -37.672688 6.899658
v -21.596786 -37.672688 6.458252
v -25.185272 28.830406 -2.385498
v -25.441925 30.376642 5.582275
v -17.831795 31.565651 8.154053
v -12.871918 30.754250 1.775879
v -17.416649 29.063810 -4.737549
v -24.927887 25.965202 -1.820801
v -25.184937 27.511433 6.146484
v -17.574814 28.700439 8.718262
v -12.614937 27.889042 2.340088
v -17.159676 26.198608 -4.173340
vt 0.431063 0.205207
vt 0.431063 0.205207
vt 0.431063 0.205207
vt 0.431063 0.205207
vt 0.431063 0.205207
vt 0.431063 0.205207
vt 0.431063 0.205207
vt 0.431063 0.205207
vt 0.431063 0.205207
vt 0.431063 0.205207
vt 0.431063 0.205207
vt 0.431063 0.205207
vt 0.431063 0.205207
vt 0.431063 0.205207
vt 0.431063 0.205207
vt 0.431063 0.205207
vt 0.431063 0.205207
vt 0.431063 0.205207
vt 0.431063 0.205207
vt 0.431063 0.205207
vt 0.431063 0.205207
vt 0.431063 0.205207
vt 0.431063 0.205207
vt 0.431063 0.205207
vt 0.431063 0.205207
vt 0.431063 0.205207
vt 0.431063 0.205207
vt 0.431063 0.205207
vt 0.431063 0.205207
vt 0.431063 0.205207
vt 0.682450 0.052050
vt 0.682450 0.052050
vt 0.682450 0.052050
vt 0.682450 0.052050
vt 0.682450 0.052050
vt 0.682450 0.052050
vt 0.682450 0.052050
vt 0.682450 0.052050
vt 0.682450 0.052050
vt 0.682450 0.052050
vt 0.682450 0.052050
vt 0.682450 0.052050
vt 0.682450 0.052050
vt 0.682450 0.052050
vt 0.682450 0.052050
vt 0.682450 0.052050
vt 0.682450 0.052050
vt 0.682450 0.052050
vt 0.682450 0.052050
vt 0.682450 0.052050
vt 0.682450 0.052050
vt 0.682450 0.052050
vt 0.682450 0.052050
vt 0.682450 0.052050
vt 0.682450 0.052050
vt 0.682450 0.052050
vt 0.682450 0.052050
vt 0.682450 0.052050
vt 0.682450 0.052050
vt 0.682450 0.052050
vt 0.682450 0.052050
vt 0.682450 0.052050
vt 0.682450 0.052050
vt 0.682450 0.052050
vt 0.682450 0.052050
vt 0.682450 0.052050
vt 0.682450 0.052050
vt 0.682450 0.052050
vt 0.682450 0.052050
vt 0.682450 0.052050
vt 0.682450 0.052050
vt 0.682450 0.052050
vt 0.682450 0.052050
vt 0.682450 0.052050
vt 0.682450 0.052050
vt 0.682450 0.052050
vt 0.682450 0.052050
vt 0.682450 0.052050
vt 0.682450 0.052050
vt 0.682450 0.052050
vt 0.682450 0.052050
vt 0.682450 0.052050
vt 0.682450 0.052050
vt 0.682450 0.052050
vt 0.682450 0.052050
vt 0.682450 0.052050
vt 0.682450 0.052050
vt 0.682450 0.052050
vt 0.682450 0.052050
vt 0.682450 0.052050
vt 0.682450 0.052050
vt 0.682450 0.052050
vt 0.682450 0.052050
vt 0.431063 0.205207
vt 0.431063 0.205207
vt 0.431063 0.205207
vt 0.431063 0.205207
vt 0.431063 0.205207
vt 0.431063 0.205207
vt 0.431063 0.205207
vt 0.431063 0.205207
vt 0.431063 0.205207
vt 0.431063 0.205207
vt 0.682450 0.052050
vt 0.682450 0.052050
vt 0.682450 0.052050
vt 0.682450 0.052050
vt 0.682450 0.052050
vt 0.682450 0.052050
vt 0.682450 0.052050
vt 0.682450 0.052050
vt 0.682450 0.052050
vt 0.682450 0.052050
vt 0.682450 0.052050
vt 0.682450 0.052050
vt 0.682450 0.052050
vt 0.682450 0.052050
vt 0.682450 0.052050
vt 0.682450 0.052050
vt 0.682450 0.052050
vn 0.129755 0.132613 0.982638
vn 0.129755 0.132613 0.982638
vn 0.129755 0.132613 0.982638
vn 0.129755 0.132613 0.982638
vn -0.127518 -0.113195 -0.985356
vn -0.127518 -0.113195 -0.985356
vn -0.127518 -0.113195 -0.985356
vn -0.127518 -0.113195 -0.985356
vn -0.925144 0.362490 0.112736
vn -0.925144 0.362490 0.112736
vn -0.925144 0.362490 0.112736
vn -0.925144 0.362490 0.112736
vn 0.043491 0.116617 -0.992224
vn 0.043491 0.116617 -0.992224
vn 0.043491 0.116617 -0.992224
vn 0.043491 0.116617 -0.992224
vn 0.998617 0.028309 0.044307
vn 0.998617 0.028309 0.044307
vn 0.998617 0.028309 0.044307
vn 0.998617 0.028309 0.044307
vn -0.999039 -0.006648 -0.043332
vn -0.999039 -0.006648 -0.043332
vn -0.999039 -0.006648 -0.043332
vn -0.999039 -0.006648 -0.043332
vn 0.237135 -0.161116 -0.958023
vn 0.237135 -0.161116 -0.958023
vn 0.237135 -0.161116 -0.958023
vn 0.237135 -0.161116 -0.958023
vn 0.969524 0.059954 0.237546
vn 0.969524 0.059954 0.237546
vn 0.969524 0.059954 0.237546
vn 0.969524 0.059954 0.237546
vn -0.970143 -0.041973 -0.238873
vn -0.970143 -0.041973 -0.238873
vn -0.970143 -0.041973 -0.238873
vn -0.970143 -0.041973 -0.238873
vn 0.994242 -0.106919 0.007098
vn 0.994242 -0.106919 0.007098
vn 0.994242 -0.106919 0.007098
vn 0.994242 -0.106919 0.007098
vn 0.174203 0.164608 -0.970854
vn 0.174203 0.164608 -0.970854
vn 0.174203 0.164608 -0.970854
vn 0.174203 0.164608 -0.970854
vn -0.884731 0.175393 -0.431843
vn -0.884731 0.175393 -0.431843
vn -0.884731 0.175393 -0.431843
vn -0.884731 0.175393 -0.431843
vn -0.820694 -0.020587 0.570997
vn -0.820694 -0.020587 0.570997
vn -0.820694 -0.020587 0.570997
vn -0.820694 -0.020587 0.570997
vn 0.363712 -0.209812 0.907575
vn 0.363712 -0.209812 0.907575
vn 0.363712 -0.209812 0.907575
vn 0.363712 -0.209812 0.907575
vn -0.117104 0.973709 0.195392
vn -0.117104 0.973709 0.195392
vn -0.117104 0.973709 0.195392
vn 0.038439 0.911321 0.409899
vn 0.038439 0.911321 0.409899
vn 0.038439 0.911321 0.409899
vn 0.015811 0.999156 -0.037904
vn 0.015811 0.999156 -0.037904
vn 0.015811 0.999156 -0.037904
vn 0.102241 -0.097396 -0.989980
vn 0.102241 -0.097396 -0.989980
vn 0.102241 -0.097396 -0.989980
vn 0.102241 -0.097396 -0.989980
vn -0.968330 -0.006053 -0.249601
vn -0.968330 -0.006053 -0.249602
vn -0.968330 -0.006053 -0.249601
vn -0.968330 -0.006053 -0.249602
vn -0.522705 0.091485 0.847590
vn -0.522705 0.091485 0.847591
vn -0.522705 0.091485 0.847591
vn -0.522705 0.091485 0.847591
vn 0.500904 0.073854 0.862346
vn 0.500904 0.073854 0.862346
vn 0.500904 0.073854 0.862346
vn 0.500904 0.073854 0.862346
vn 0.955541 -0.045888 -0.291267
vn 0.955541 -0.045888 -0.291267
vn 0.955541 -0.045888 -0.291267
vn 0.955541 -0.045888 -0.291267
vn 0.013036 0.992057 0.125115
vn 0.013036 0.992057 0.125115
vn 0.013036 0.992057 0.125115
vn 0.246476 0.969062 -0.013005
vn 0.246476 0.969062 -0.013005
vn 0.246476 0.969062 -0.013005
vn -0.210175 0.977329 -0.025562
vn -0.210175 0.977329 -0.025562
vn -0.210175 0.977329 -0.025562
vn 0.024349 -0.096435 -0.995041
vn 0.024349 -0.096435 -0.995041
vn 0.024349 -0.096435 -0.995041
vn 0.024349 -0.096435 -0.995041
vn 0.432457 0.876593 -0.211109
vn 0.432457 0.876592 -0.211109
vn 0.432457 0.876592 -0.211109
vn 0.432457 0.876593 -0.211109
vn 0.568022 0.068563 0.820152
vn 0.568022 0.068563 0.820152
vn 0.568022 0.068563 0.820152
vn 0.568022 0.068563 0.820152
vn -0.533460 0.091051 0.840910
vn -0.533460 0.091051 0.840910
vn -0.533460 0.091051 0.840910
vn -0.533460 0.091051 0.840910
vn -0.380891 0.899965 -0.212098
vn -0.380891 0.899965 -0.212098
vn -0.380891 0.899965 -0.212098
vn -0.380891 0.899965 -0.212098
vn -0.029872 -0.095419 -0.994989
vn -0.029872 -0.095419 -0.994989
vn -0.029872 -0.095419 -0.994989
vn -0.029872 -0.095419 -0.994989
vn 0.609000 0.064913 0.790510
vn 0.609000 0.064913 0.790510
vn 0.609000 0.064913 0.790510
vn 0.609000 0.064913 0.790510
vn -0.258324 0.916482 0.305498
vn -0.258324 0.916482 0.305498
vn -0.258324 0.916482 0.305498
vn -0.258324 0.916482 0.305498
vn -0.967649 -0.006308 -0.252220
vn -0.967649 -0.006308 -0.252220
vn -0.967649 -0.006308 -0.252220
vn -0.967649 -0.006308 -0.252220
vn 0.968887 -0.235097 -0.077380
vn 0.968887 -0.235097 -0.077380
vn 0.968887 -0.235097 -0.077380
vn 0.968887 -0.235097 -0.077380
vn 0.037568 -0.152550 -0.987582
vn 0.037568 -0.152550 -0.987582
vn 0.037568 -0.152550 -0.987582
vn 0.037568 -0.152550 -0.987582
vn -0.919968 0.160621 -0.357576
vn -0.919968 0.160621 -0.357576
vn -0.919968 0.160621 -0.357576
vn -0.919968 0.160621 -0.357576
vn -0.721299 0.260126 0.641921
vn -0.721299 0.260126 0.641921
vn -0.721299 0.260126 0.641921
vn -0.721299 0.260126 0.641921
vn 0.477592 0.017815 0.878401
vn 0.477591 0.017815 0.878401
vn 0.477591 0.017815 0.878401
vn 0.477591 0.017815 0.878401
vn -0.029447 0.994937 -0.096092
vn -0.029447 0.994937 -0.096092
vn -0.029447 0.994937 -0.096092
vn 0.179896 0.973658 0.140098
vn 0.179896 0.973658 0.140098
vn 0.179896 0.973658 0.140098
vn 0.083732 0.921570 -0.379075
vn 0.083732 0.921570 -0.379075
vn 0.083732 0.921570 -0.379075
vn -0.737327 0.116617 0.665394
vn -0.737327 0.116617 0.665394
vn -0.737327 0.116617 0.665394
vn -0.737327 0.116617 0.665394
vn -0.669299 0.028309 -0.742454
vn -0.669299 0.028309 -0.742454
vn -0.669299 0.028309 -0.742454
vn -0.669299 0.028309 -0.742454
vn 0.670290 -0.006648 0.742070
vn 0.670290 -0.006648 0.742070
vn 0.670290 -0.006648 0.742070
vn 0.670290 -0.006648 0.742070
vn -0.692735 -0.106919 -0.713223
vn -0.692735 -0.106919 -0.713223
vn -0.692735 -0.106919 -0.713223
vn -0.692735 -0.106919 -0.713223
vn -0.813842 0.164608 0.557284
vn -0.813842 0.164608 0.557284
vn -0.813842 0.164608 0.557284
vn -0.813842 0.164608 0.557284
vn 0.313311 0.175393 0.933313
vn 0.313312 0.175393 0.933313
vn 0.313311 0.175393 0.933313
vn 0.313312 0.175393 0.933313
vn 0.982735 -0.020587 0.183872
vn 0.982735 -0.020587 0.183872
vn 0.982735 -0.020587 0.183872
vn 0.982735 -0.020587 0.183872
vn 0.391241 -0.209812 -0.896052
vn 0.391241 -0.209812 -0.896052
vn 0.391241 -0.209812 -0.896052
vn 0.391241 -0.209812 -0.896052
vn 0.221373 0.973709 -0.053714
vn 0.221373 0.973709 -0.053714
vn 0.221373 0.973709 -0.053714
vn 0.265011 0.911321 -0.315062
vn 0.265011 0.911321 -0.315062
vn 0.265011 0.911321 -0.315062
vn -0.038097 0.999156 0.015339
vn -0.038097 0.999156 0.015339
vn -0.038097 0.999156 0.015339
s off
f 1/1/1 2/2/2 5/8/3 3/3/4
f 4/4/5 5/5/6 2/7/7 6/6/8
f 6/9/9 1/1/10 3/3/11 4/10/12
f 9/13/13 10/14/14 12/15/15 11/16/16
f 7/11/17 12/17/18 10/18/19 8/12/20
f 11/19/21 7/11/22 8/12/23 9/20/24
f 15/23/25 16/24/26 18/25/27 17/26/28
f 13/21/29 18/27/30 16/28/31 14/22/32
f 17/29/33 13/21/34 14/22/35 15/30/36
f 24/45/37 25/31/38 20/43/39 19/44/40
f 25/31/41 26/32/42 21/46/43 20/43/44
f 26/32/45 27/33/46 22/47/47 21/46/48
f 27/33/49 28/34/50 23/42/51 22/47/52
f 28/34/53 24/35/54 19/41/55 23/42/56
f 19/36/57 20/37/58 22/39/59
f 20/37/60 21/38/61 22/39/62
f 23/40/63 19/36/64 22/39/65
f 29/72/66 41/48/67 33/70/68 32/71/69
f 42/49/70 43/50/71 44/51/72 45/52/73
f 46/53/74 47/54/75 48/55/76 49/56/77
f 31/75/78 50/57/79 36/69/80 35/76/81
f 37/58/82 38/59/83 39/60/84 40/61/85
f 32/62/86 33/63/87 35/65/88
f 33/63/89 34/64/90 35/65/91
f 36/66/92 32/62/93 35/65/94
f 29/67/95 32/68/96 39/60/97 38/59/98
f 32/68/99 36/69/100 40/61/101 39/60/102
f 36/69/103 50/57/104 37/58/105 40/61/106
f 30/73/107 34/74/108 44/51/109 43/50/110
f 34/74/111 33/70/112 45/52/113 44/51/114
f 33/70/115 41/48/116 42/49/117 45/52/118
f 31/75/119 35/76/120 48/55/121 47/54/122
f 35/76/123 34/74/124 49/56/125 48/55/126
f 34/74/127 30/73/128 46/53/129 49/56/130
f 56/91/131 57/77/132 52/89/133 51/90/134
f 57/77/135 58/78/136 53/92/137 52/89/138
f 58/78/139 59/79/140 54/93/141 53/92/142
f 59/79/143 60/80/144 55/88/145 54/93/146
f 60/80/147 56/81/148 51/87/149 55/88/150
f 51/82/151 52/83/152 54/85/153
f 52/83/154 53/84/155 54/85/156
f 55/86/157 51/82/158 54/85/159
f 63/96/160 64/97/161 66/98/162 65/99/163
f 61/94/164 66/100/165 64/101/166 62/95/167
f 65/102/168 61/94/169 62/95/170 63/103/171
f 72/118/172 73/104/173 68/116/174 67/117/175
f 73/104/176 74/105/177 69/119/178 68/116/179
f 74/105/180 75/106/181 70/120/182 69/119/183
f 75/106/184 76/107/185 71/115/186 70/120/187
f 76/107/188 72/108/189 67/114/190 71/115/191
f 67/109/192 68/110/193 70/112/194
f 68/110/195 69/111/196 70/112/197
f 71/113/198 67/109/199 70/112/200
