# This file uses centimeters as units for non-parametric coordinates.

v 500.000061 0.000000 -500.000122
v -0.000854 0.000000 -500.000122
v 500.000061 0.000000 0.000732
v 0.000000 0.000000 0.000000
v 500.000061 -1.995737 -374.999878
v -0.000610 0.000000 -375.000122
v 500.000061 0.000000 -250.000183
v -0.000488 0.000000 -250.000061
v 500.000061 0.000000 -124.999023
v 0.011958 0.000000 -120.662010
v 124.999268 -0.000000 -500.000122
v 113.562012 4.724168 -360.561951
v 135.247040 -2.537064 -246.583633
v 102.758034 -0.283089 -107.990341
v 125.000000 0.000000 0.000122
v 250.000000 0.000000 -500.000122
v 249.392700 -1.909465 -363.128601
v 246.801727 -1.261099 -249.565033
v 255.339020 1.464074 -125.663719
v 250.000000 0.000000 0.000305
v 375.000000 0.000000 -500.000122
v 393.963684 5.132556 -368.527130
v 363.989288 -2.927464 -229.525574
v 381.564331 0.129063 -124.552704
v 375.000000 0.000000 0.000488
v 62.499939 0.000000 0.000061
v 62.805195 2.189938 -56.882957
v 70.689011 -1.287739 -90.006920
v 62.394749 -0.294980 -244.552536
v 45.875984 3.036351 -370.623688
v 62.499268 0.000000 -500.000122
v 187.500061 0.000000 0.000214
v 186.601242 -1.976503 -46.827915
v 187.345932 0.708416 -102.019516
v 174.510223 1.642860 -240.768250
v 184.198013 2.197535 -389.395264
v 187.499939 0.000000 -500.000122
v 312.500061 0.000000 -500.000122
v 315.768372 1.533262 -360.137939
v 312.112427 -0.030156 -231.135696
v 312.390106 -2.626923 -105.703026
v 315.771545 -4.136282 -46.100517
v 305.636658 0.000000 0.000387
v 430.349731 0.000000 0.000596
v 431.018066 -0.782127 -72.859337
v 431.982452 -0.795687 -126.195488
v 460.171478 -2.521732 -255.242798
v 440.335022 -0.130930 -382.552948
v 437.499939 0.000000 -500.000122
v -0.000122 0.000000 -62.500000
v 118.904892 1.078911 -45.945648
v 252.438400 0.000000 -67.484398
v 378.915344 0.600610 -45.733414
v 500.000061 0.000000 -62.499390
v 0.012096 0.000000 -183.068802
v 55.305889 -1.806177 -158.601227
v 104.364021 1.843974 -180.067657
v 180.545013 -1.592318 -166.309998
v 253.190598 -1.654442 -173.268204
v 312.268005 -2.310625 -162.151855
v 361.615051 -1.576329 -172.135849
v 460.397308 1.805890 -183.097717
v 500.000061 0.000000 -187.500092
v -0.000549 0.000000 -312.500092
v 80.485573 2.112003 -309.777710
v 115.768433 -0.756199 -311.480927
v 198.297134 2.230404 -322.366547
v 247.845459 0.471966 -293.976013
v 310.174622 -1.464964 -293.670593
v 383.160370 1.257307 -318.316681
v 434.698486 0.387689 -312.414337
v 500.000061 0.000000 -312.499786
v -0.000744 0.000000 -443.240479
v 81.063797 -1.255226 -442.214752
v 123.908249 2.955801 -441.201965
v 175.952179 -1.990083 -431.338715
v 250.120499 1.464074 -440.368866
v 311.630249 0.609091 -439.410370
v 379.074066 1.696209 -444.415283
v 440.499878 0.841232 -440.445099
v 500.000061 0.000000 -437.500000
vt 0.430811 0.178520
vt 0.430811 0.178520
vt 0.430811 0.178520
vt 0.430811 0.178520
vt 0.430811 0.178520
vt 0.430811 0.178520
vt 0.430811 0.178520
vt 0.430811 0.178520
vt 0.430811 0.178520
vt 0.430811 0.178520
vt 0.430811 0.178520
vt 0.430811 0.178520
vt 0.430811 0.178520
vt 0.430811 0.178520
vt 0.430811 0.178520
vt 0.430811 0.178520
vt 0.430811 0.178520
vt 0.430811 0.178520
vt 0.430811 0.178520
vt 0.430811 0.178520
vt 0.430811 0.178520
vt 0.430811 0.178520
vt 0.430811 0.178520
vt 0.430811 0.178520
vt 0.430811 0.178520
vt 0.430811 0.178520
vt 0.430811 0.178520
vt 0.430811 0.178520
vt 0.430811 0.178520
vt 0.430811 0.178520
vt 0.430811 0.178520
vt 0.430811 0.178520
vt 0.430811 0.178520
vt 0.430811 0.178520
vt 0.430811 0.178520
vt 0.430811 0.178520
vt 0.430811 0.178520
vt 0.430811 0.178520
vt 0.430811 0.178520
vt 0.430811 0.178520
vt 0.430811 0.178520
vt 0.430811 0.178520
vt 0.430811 0.178520
vt 0.430811 0.178520
vt 0.430811 0.178520
vt 0.430811 0.178520
vt 0.430811 0.178520
vt 0.430811 0.178520
vt 0.430811 0.178520
vt 0.430811 0.178520
vt 0.430811 0.178520
vt 0.430811 0.178520
vt 0.430811 0.178520
vt 0.430811 0.178520
vt 0.430811 0.178520
vt 0.430811 0.178520
vt 0.430811 0.178520
vt 0.430811 0.178520
vt 0.430811 0.178520
vt 0.430811 0.178520
vt 0.430811 0.178520
vt 0.430811 0.178520
vt 0.430811 0.178520
vt 0.430811 0.178520
vt 0.430811 0.178520
vt 0.430811 0.178520
vt 0.430811 0.178520
vt 0.430811 0.178520
vt 0.430811 0.178520
vt 0.430811 0.178520
vt 0.430811 0.178520
vt 0.430811 0.178520
vt 0.430811 0.178520
vt 0.430811 0.178520
vt 0.430811 0.178520
vt 0.430811 0.178520
vt 0.430811 0.178520
vt 0.430811 0.178520
vt 0.430811 0.178520
vt 0.430811 0.178520
vt 0.430811 0.178520
vn 0.018341 0.999832 0.000077
vn 0.018341 0.999832 0.000077
vn 0.018341 0.999832 0.000077
vn 0.023834 0.999703 -0.005180
vn 0.023834 0.999703 -0.005180
vn 0.023834 0.999703 -0.005180
vn 0.014877 0.999779 -0.014872
vn 0.014877 0.999779 -0.014872
vn 0.014877 0.999779 -0.014872
vn 0.000000 0.999535 -0.030501
vn 0.000000 0.999535 -0.030501
vn 0.000000 0.999535 -0.030501
vn 0.017555 0.999828 -0.005982
vn 0.017556 0.999828 -0.005982
vn 0.017555 0.999828 -0.005982
vn 0.144004 0.983785 0.106913
vn 0.144004 0.983785 0.106913
vn 0.144004 0.983785 0.106913
vn -0.036985 0.999002 -0.025050
vn -0.036985 0.999002 -0.025050
vn -0.036985 0.999002 -0.025050
vn -0.020200 0.998006 -0.059802
vn -0.020200 0.998006 -0.059802
vn -0.020200 0.998006 -0.059802
vn 0.015268 0.999742 0.016812
vn 0.015268 0.999742 0.016812
vn 0.015268 0.999742 0.016812
vn 0.000000 1.000000 0.000000
vn 0.000000 1.000000 0.000000
vn 0.000000 1.000000 0.000000
vn -0.027256 0.999158 0.030682
vn -0.027256 0.999157 0.030682
vn -0.027256 0.999158 0.030682
vn -0.066041 0.997817 0.000000
vn -0.066041 0.997817 0.000000
vn -0.066041 0.997817 0.000000
vn 0.023997 0.999521 0.019553
vn 0.023997 0.999521 0.019553
vn 0.023997 0.999521 0.019553
vn 0.004728 0.999989 -0.000001
vn 0.004728 0.999989 -0.000001
vn 0.004728 0.999989 -0.000001
vn -0.000000 0.999260 0.038470
vn -0.000000 0.999260 0.038470
vn -0.000000 0.999260 0.038470
vn -0.034847 0.999393 0.000000
vn -0.034847 0.999393 0.000000
vn -0.034847 0.999393 0.000000
vn -0.024788 0.993598 -0.110217
vn -0.024788 0.993598 -0.110217
vn -0.024788 0.993598 -0.110217
vn 0.018215 0.999834 0.000004
vn 0.018215 0.999834 0.000004
vn 0.018215 0.999834 0.000004
vn 0.103513 0.993468 -0.048021
vn 0.103513 0.993468 -0.048021
vn 0.103513 0.993468 -0.048021
vn -0.000000 0.999580 0.028972
vn -0.000000 0.999580 0.028972
vn -0.000000 0.999580 0.028972
vn -0.021195 0.993495 0.111886
vn -0.021195 0.993495 0.111886
vn -0.021195 0.993495 0.111886
vn 0.032739 0.999437 -0.007376
vn 0.032739 0.999437 -0.007376
vn 0.032739 0.999437 -0.007376
vn 0.037756 0.998473 0.040323
vn 0.037756 0.998473 0.040323
vn 0.037756 0.998473 0.040323
vn -0.089598 0.990233 -0.106821
vn -0.089598 0.990233 -0.106821
vn -0.089598 0.990233 -0.106821
vn 0.045673 0.997746 0.049154
vn 0.045673 0.997746 0.049154
vn 0.045673 0.997746 0.049154
vn -0.010360 0.999761 -0.019251
vn -0.010360 0.999761 -0.019251
vn -0.010360 0.999761 -0.019251
vn 0.000000 0.999535 -0.030501
vn 0.000000 0.999535 -0.030501
vn 0.000000 0.999535 -0.030501
vn -0.016880 0.999805 -0.010293
vn -0.016880 0.999805 -0.010293
vn -0.016880 0.999805 -0.010293
vn -0.022685 0.998811 0.043146
vn -0.022685 0.998811 0.043146
vn -0.022685 0.998811 0.043146
vn -0.038521 0.996897 0.068652
vn -0.038521 0.996897 0.068652
vn -0.038521 0.996897 0.068652
vn -0.008183 0.999420 0.033057
vn -0.008183 0.999420 0.033057
vn -0.008183 0.999420 0.033057
vn 0.056405 0.998184 -0.021167
vn 0.056405 0.998184 -0.021167
vn 0.056405 0.998184 -0.021167
vn -0.041817 0.999098 -0.007383
vn -0.041817 0.999098 -0.007383
vn -0.041817 0.999098 -0.007383
vn -0.074945 0.996751 0.029493
vn -0.074945 0.996751 0.029493
vn -0.074945 0.996751 0.029493
vn 0.038284 0.994710 -0.095322
vn 0.038284 0.994710 -0.095322
vn 0.038284 0.994710 -0.095322
vn -0.038050 0.999203 -0.012032
vn -0.038050 0.999203 -0.012032
vn -0.038050 0.999203 -0.012032
vn -0.069039 0.997544 0.011845
vn -0.069039 0.997544 0.011845
vn -0.069039 0.997544 0.011845
vn 0.029266 0.998210 -0.052158
vn 0.029266 0.998210 -0.052158
vn 0.029266 0.998210 -0.052158
vn 0.085680 0.990587 0.106757
vn 0.085680 0.990587 0.106757
vn 0.085680 0.990587 0.106757
vn -0.029678 0.999045 0.032058
vn -0.029678 0.999045 0.032058
vn -0.029678 0.999045 0.032058
vn -0.096472 0.993989 -0.051758
vn -0.096472 0.993989 -0.051758
vn -0.096472 0.993989 -0.051758
vn 0.000000 0.999764 0.021717
vn 0.000000 0.999764 0.021717
vn 0.000000 0.999764 0.021717
vn -0.002404 0.999684 0.025037
vn -0.002404 0.999684 0.025037
vn -0.002404 0.999684 0.025037
vn -0.014802 0.998719 0.048385
vn -0.014802 0.998719 0.048385
vn -0.014802 0.998719 0.048385
vn 0.001338 0.999986 0.005043
vn 0.001338 0.999986 0.005043
vn 0.001338 0.999986 0.005043
vn 0.044932 0.998200 0.039730
vn 0.044932 0.998200 0.039730
vn 0.044932 0.998200 0.039730
vn 0.054412 0.997968 -0.033150
vn 0.054412 0.997968 -0.033150
vn 0.054412 0.997968 -0.033150
vn 0.068873 0.997513 -0.014976
vn 0.068873 0.997513 -0.014976
vn 0.068873 0.997513 -0.014976
vn -0.043890 0.998803 0.021568
vn -0.043890 0.998803 0.021568
vn -0.043890 0.998804 0.021568
vn 0.000000 0.999699 -0.024545
vn 0.000000 0.999699 -0.024545
vn 0.000000 0.999699 -0.024545
vn 0.000000 0.999699 -0.024545
vn 0.000000 0.999699 -0.024545
vn 0.000000 0.999699 -0.024545
vn 0.014051 0.999853 -0.009850
vn 0.014051 0.999853 -0.009850
vn 0.014051 0.999853 -0.009850
vn 0.031208 0.998945 -0.033703
vn 0.031208 0.998945 -0.033703
vn 0.031208 0.998945 -0.033703
vn -0.053575 0.997742 0.040498
vn -0.053575 0.997742 0.040498
vn -0.053575 0.997742 0.040498
vn 0.004886 0.999442 0.033029
vn 0.004886 0.999443 0.033029
vn 0.004886 0.999443 0.033029
vn -0.020789 0.999760 0.006895
vn -0.020789 0.999760 0.006895
vn -0.020789 0.999760 0.006895
vn 0.057757 0.998088 0.021999
vn 0.057757 0.998088 0.021999
vn 0.057757 0.998088 0.021999
vn 0.061682 0.997698 0.028182
vn 0.061682 0.997698 0.028182
vn 0.061682 0.997698 0.028182
vn -0.011689 0.999932 -0.000466
vn -0.011689 0.999932 -0.000466
vn -0.011689 0.999932 -0.000466
vn -0.011337 0.999936 -0.000000
vn -0.011337 0.999936 -0.000000
vn -0.011337 0.999936 -0.000000
vn 0.045553 0.998962 0.000000
vn 0.045553 0.998962 0.000000
vn 0.045553 0.998962 0.000000
vn -0.055258 0.996691 -0.059614
vn -0.055258 0.996691 -0.059614
vn -0.055258 0.996691 -0.059614
vn 0.005892 0.999473 -0.031915
vn 0.005892 0.999473 -0.031915
vn 0.005892 0.999473 -0.031915
vn 0.031850 0.999481 -0.004831
vn 0.031850 0.999481 -0.004831
vn 0.031850 0.999481 -0.004831
vn 0.000000 0.999900 -0.014124
vn 0.000000 0.999900 -0.014124
vn 0.000000 0.999900 -0.014124
vn 0.014137 0.999900 0.000000
vn 0.014137 0.999900 0.000000
vn 0.014137 0.999900 0.000000
vn -0.000000 0.999724 0.023476
vn -0.000000 0.999724 0.023476
vn -0.000000 0.999724 0.023476
vn 0.012276 0.999182 0.038533
vn 0.012276 0.999182 0.038533
vn 0.012276 0.999182 0.038533
vn 0.000000 0.999111 -0.042170
vn 0.000000 0.999110 -0.042170
vn 0.000000 0.999110 -0.042170
vn 0.045308 0.998821 0.017444
vn 0.045308 0.998821 0.017444
vn 0.045308 0.998821 0.017444
vn -0.030351 0.999539 -0.001097
vn -0.030351 0.999539 -0.001097
vn -0.030351 0.999539 -0.001097
vn 0.000000 0.999111 -0.042170
vn 0.000000 0.999111 -0.042170
vn 0.000000 0.999110 -0.042170
vn 0.000000 0.995999 -0.089363
vn 0.000000 0.995999 -0.089363
vn 0.000000 0.995999 -0.089363
vn 0.064389 0.997922 0.002327
vn 0.064389 0.997922 0.002327
vn 0.064389 0.997922 0.002327
vn -0.074844 0.997173 0.006688
vn -0.074844 0.997173 0.006688
vn -0.074844 0.997173 0.006688
vn 0.000000 0.995999 -0.089363
vn 0.000000 0.995999 -0.089363
vn 0.000000 0.995999 -0.089363
vn 0.021045 0.999723 -0.010539
vn 0.021045 0.999723 -0.010539
vn 0.021045 0.999723 -0.010539
vn -0.000000 0.999914 0.013132
vn -0.000000 0.999914 0.013132
vn -0.000000 0.999914 0.013132
vn -0.000000 1.000000 -0.000000
vn -0.000000 1.000000 -0.000000
vn -0.000000 1.000000 -0.000000
vn -0.009712 0.999894 -0.010823
vn -0.009712 0.999894 -0.010823
vn -0.009712 0.999894 -0.010823
vn 0.023806 0.999633 -0.012894
vn 0.023806 0.999633 -0.012894
vn 0.023806 0.999633 -0.012894
vn 0.032648 0.999467 0.000000
vn 0.032648 0.999467 0.000000
vn 0.032648 0.999467 0.000000
vn -0.031577 0.999501 -0.000473
vn -0.031577 0.999501 -0.000473
vn -0.031577 0.999501 -0.000473
vn -0.061953 0.997684 0.028062
vn -0.061953 0.997685 0.028062
vn -0.061953 0.997684 0.028062
vn -0.009259 0.999352 -0.034784
vn -0.009259 0.999352 -0.034784
vn -0.009259 0.999352 -0.034784
vn 0.039569 0.998756 0.030356
vn 0.039569 0.998756 0.030356
vn 0.039569 0.998756 0.030356
vn -0.022704 0.999186 -0.033356
vn -0.022704 0.999186 -0.033356
vn -0.022704 0.999186 -0.033356
vn -0.005385 0.997863 -0.065126
vn -0.005385 0.997863 -0.065126
vn -0.005385 0.997863 -0.065126
vn 0.069630 0.997558 0.005439
vn 0.069630 0.997558 0.005439
vn 0.069630 0.997558 0.005439
vn 0.023576 0.997514 -0.066410
vn 0.023576 0.997514 -0.066410
vn 0.023576 0.997514 -0.066410
vn -0.020389 0.999420 -0.027271
vn -0.020389 0.999420 -0.027271
vn -0.020389 0.999420 -0.027271
vn -0.038263 0.999252 0.005682
vn -0.038263 0.999252 0.005682
vn -0.038263 0.999252 0.005682
vn -0.030848 0.999066 0.030273
vn -0.030848 0.999066 0.030273
vn -0.030848 0.999066 0.030273
vn 0.016924 0.998936 -0.042898
vn 0.016924 0.998936 -0.042898
vn 0.016924 0.998936 -0.042898
vn 0.045553 0.998962 -0.000000
vn 0.045553 0.998962 -0.000000
vn 0.045553 0.998962 -0.000000
vn -0.012383 0.999143 0.039497
vn -0.012383 0.999143 0.039497
vn -0.012383 0.999143 0.039497
vn -0.027212 0.999200 0.029326
vn -0.027212 0.999199 0.029326
vn -0.027212 0.999199 0.029326
vn 0.004728 0.999989 -0.000000
vn 0.004728 0.999989 -0.000000
vn 0.004728 0.999989 -0.000000
vn 0.081167 0.996696 0.002989
vn 0.081167 0.996696 0.002989
vn 0.081167 0.996696 0.002989
vn 0.032002 0.998442 0.045721
vn 0.032002 0.998441 0.045721
vn 0.032002 0.998441 0.045721
vn -0.036623 0.999323 -0.003481
vn -0.036623 0.999323 -0.003481
vn -0.036623 0.999323 -0.003481
vn -0.114681 0.991489 0.061629
vn -0.114681 0.991489 0.061629
vn -0.114681 0.991489 0.061629
vn 0.012944 0.999144 0.039294
vn 0.012944 0.999144 0.039294
vn 0.012944 0.999144 0.039294
vn 0.042509 0.998904 0.019585
vn 0.042509 0.998904 0.019585
vn 0.042509 0.998904 0.019585
vn -0.012478 0.999668 -0.022550
vn -0.012478 0.999668 -0.022550
vn -0.012478 0.999668 -0.022550
vn 0.030842 0.998736 0.039699
vn 0.030842 0.998736 0.039699
vn 0.030842 0.998736 0.039699
vn -0.023039 0.998848 0.042102
vn -0.023039 0.998848 0.042102
vn -0.023039 0.998848 0.042102
vn 0.056509 0.998098 -0.024652
vn 0.056509 0.998098 -0.024652
vn 0.056509 0.998098 -0.024652
vn 0.008886 0.998760 0.048991
vn 0.008886 0.998760 0.048991
vn 0.008886 0.998760 0.048991
vn 0.011626 0.998890 0.045653
vn 0.011626 0.998890 0.045653
vn 0.011626 0.998890 0.045653
vn -0.063188 0.998002 0.000000
vn -0.063188 0.998002 0.000000
vn -0.063188 0.998002 0.000000
vn 0.005993 0.998822 0.048159
vn 0.005993 0.998822 0.048159
vn 0.005993 0.998822 0.048159
vn 0.016118 0.998520 -0.051935
vn 0.016118 0.998520 -0.051935
vn 0.016118 0.998520 -0.051935
vn -0.066041 0.997817 0.000000
vn -0.066041 0.997817 0.000000
vn -0.066041 0.997817 0.000000
vn -0.096956 0.994699 -0.034252
vn -0.096956 0.994699 -0.034252
vn -0.096956 0.994699 -0.034252
vn -0.014898 0.997633 -0.067127
vn -0.014898 0.997633 -0.067127
vn -0.014898 0.997633 -0.067127
vn 0.116675 0.985728 -0.121352
vn 0.116675 0.985728 -0.121352
vn 0.116675 0.985729 -0.121352
vn 0.028285 0.999433 -0.018288
vn 0.028285 0.999433 -0.018288
vn 0.028285 0.999433 -0.018288
vn -0.041228 0.998215 0.043209
vn -0.041228 0.998215 0.043210
vn -0.041228 0.998215 0.043209
vn 0.110594 0.986565 -0.120240
vn 0.110594 0.986565 -0.120240
vn 0.110594 0.986565 -0.120240
vn 0.013204 0.998955 0.043755
vn 0.013204 0.998955 0.043755
vn 0.013204 0.998955 0.043755
vn -0.051393 0.998638 -0.008960
vn -0.051393 0.998638 -0.008960
vn -0.051393 0.998638 -0.008960
vn -0.016915 0.999799 -0.010773
vn -0.016915 0.999799 -0.010773
vn -0.016915 0.999799 -0.010773
vn -0.049745 0.998133 -0.035437
vn -0.049745 0.998133 -0.035437
vn -0.049745 0.998133 -0.035437
vn 0.117845 0.992886 0.017009
vn 0.117845 0.992886 0.017009
vn 0.117845 0.992886 0.017009
vn 0.017039 0.998675 -0.048565
vn 0.017039 0.998675 -0.048565
vn 0.017039 0.998675 -0.048565
vn 0.013302 0.999770 0.016827
vn 0.013302 0.999770 0.016827
vn 0.013302 0.999770 0.016827
vn 0.027188 0.999121 0.031904
vn 0.027188 0.999121 0.031904
vn 0.027188 0.999121 0.031904
s off
f 46/46/1 24/24/2 45/45/3
f 45/45/4 24/24/5 53/53/6
f 80/80/7 49/49/8 79/79/9
f 79/79/10 49/49/11 21/21/12
f 71/71/13 48/48/14 70/70/15
f 70/70/16 48/48/17 22/22/18
f 61/61/19 62/62/20 23/23/21
f 23/23/22 62/62/23 47/47/24
f 74/74/25 31/31/26 73/73/27
f 73/73/28 31/31/29 2/2/30
f 65/65/31 30/30/32 64/64/33
f 64/64/34 30/30/35 6/6/36
f 56/56/37 29/29/38 55/55/39
f 55/55/40 29/29/41 8/8/42
f 26/26/43 27/27/44 4/3/45
f 4/3/46 27/27/47 50/50/48
f 27/27/49 28/28/50 50/50/51
f 50/50/52 28/28/53 10/10/54
f 75/75/55 76/76/56 11/11/57
f 11/11/58 76/76/59 37/37/60
f 66/66/61 67/67/62 12/12/63
f 12/12/64 67/67/65 36/36/66
f 58/58/67 35/35/68 57/57/69
f 57/57/70 35/35/71 13/13/72
f 33/33/73 34/34/74 51/51/75
f 51/51/76 34/34/77 14/14/78
f 21/21/79 38/38/80 79/79/81
f 79/79/82 38/38/83 78/78/84
f 69/69/85 70/70/86 39/39/87
f 39/39/88 70/70/89 22/22/90
f 60/60/91 61/61/92 40/40/93
f 40/40/94 61/61/95 23/23/96
f 24/24/97 41/41/98 53/53/99
f 53/53/100 41/41/101 42/42/102
f 27/27/103 51/51/104 28/28/105
f 28/28/106 51/51/107 14/14/108
f 56/56/109 57/57/110 29/29/111
f 29/29/112 57/57/113 13/13/114
f 66/66/115 12/12/116 65/65/117
f 65/65/118 12/12/119 30/30/120
f 75/75/121 11/11/122 74/74/123
f 74/74/124 11/11/125 31/31/126
f 19/19/127 34/34/128 52/52/129
f 52/52/130 34/34/131 33/33/132
f 59/59/133 18/18/134 58/58/135
f 58/58/136 18/18/137 35/35/138
f 68/68/139 17/17/140 67/67/141
f 67/67/142 17/17/143 36/36/144
f 76/76/145 77/77/146 37/37/147
f 37/37/148 77/77/149 16/16/150
f 16/16/151 77/77/152 38/38/153
f 38/38/154 77/77/155 78/78/156
f 68/68/157 69/69/158 17/17/159
f 17/17/160 69/69/161 39/39/162
f 60/60/163 40/40/164 59/59/165
f 59/59/166 40/40/167 18/18/168
f 42/42/169 41/41/170 52/52/171
f 52/52/172 41/41/173 19/19/174
f 46/46/175 45/45/176 9/9/177
f 9/9/178 45/45/179 54/54/180
f 63/63/181 7/7/182 62/62/183
f 62/62/184 7/7/185 47/47/186
f 72/72/187 5/5/188 71/71/189
f 71/71/190 5/5/191 48/48/192
f 49/49/193 80/80/194 1/4/195
f 1/4/196 80/80/197 81/81/198
f 15/15/199 51/51/200 26/26/201
f 26/26/202 51/51/203 27/27/204
f 32/32/205 33/33/206 15/15/207
f 15/15/208 33/33/209 51/51/210
f 52/52/211 33/33/212 20/20/213
f 20/20/214 33/33/215 32/32/216
f 43/43/217 42/42/218 20/20/219
f 20/20/220 42/42/221 52/52/222
f 53/53/223 42/42/224 25/25/225
f 25/25/226 42/42/227 43/43/228
f 45/45/229 53/53/230 44/44/231
f 44/44/232 53/53/233 25/25/234
f 3/1/235 54/54/236 44/44/237
f 44/44/238 54/54/239 45/45/240
f 28/28/241 56/56/242 10/10/243
f 10/10/244 56/56/245 55/55/246
f 28/28/247 14/14/248 56/56/249
f 56/56/250 14/14/251 57/57/252
f 34/34/253 58/58/254 14/14/255
f 14/14/256 58/58/257 57/57/258
f 34/34/259 19/19/260 58/58/261
f 58/58/262 19/19/263 59/59/264
f 41/41/265 60/60/266 19/19/267
f 19/19/268 60/60/269 59/59/270
f 61/61/271 60/60/272 24/24/273
f 24/24/274 60/60/275 41/41/276
f 62/62/277 61/61/278 46/46/279
f 46/46/280 61/61/281 24/24/282
f 63/63/283 62/62/284 9/9/285
f 9/9/286 62/62/287 46/46/288
f 65/65/289 64/64/290 29/29/291
f 29/29/292 64/64/293 8/8/294
f 66/66/295 65/65/296 13/13/297
f 13/13/298 65/65/299 29/29/300
f 67/67/301 66/66/302 35/35/303
f 35/35/304 66/66/305 13/13/306
f 68/68/307 67/67/308 18/18/309
f 18/18/310 67/67/311 35/35/312
f 40/40/313 69/69/314 18/18/315
f 18/18/316 69/69/317 68/68/318
f 70/70/319 69/69/320 23/23/321
f 23/23/322 69/69/323 40/40/324
f 23/23/325 47/47/326 70/70/327
f 70/70/328 47/47/329 71/71/330
f 7/7/331 72/72/332 47/47/333
f 47/47/334 72/72/335 71/71/336
f 74/74/337 73/73/338 30/30/339
f 30/30/340 73/73/341 6/6/342
f 75/75/343 74/74/344 12/12/345
f 12/12/346 74/74/347 30/30/348
f 76/76/349 75/75/350 36/36/351
f 36/36/352 75/75/353 12/12/354
f 77/77/355 76/76/356 17/17/357
f 17/17/358 76/76/359 36/36/360
f 77/77/361 17/17/362 78/78/363
f 78/78/364 17/17/365 39/39/366
f 78/78/367 39/39/368 79/79/369
f 79/79/370 39/39/371 22/22/372
f 48/48/373 80/80/374 22/22/375
f 22/22/376 80/80/377 79/79/378
f 80/80/379 48/48/380 81/81/381
f 81/81/382 48/48/383 5/5/384
