# This file uses centimeters as units for non-parametric coordinates.

v 0.000000 -74.214706 28.561592
v 500.000000 -74.214706 28.561592
v 500.000000 -39.658268 0.000000
v 0.000000 -39.658268 0.000000
v 0.000000 83.085068 28.561592
v 500.000000 83.085068 28.561592
v 500.000000 83.085068 0.000000
v 0.000000 83.085068 0.000000
v 0.000000 -74.214706 -499.999878
v 500.000000 -74.214706 -499.999878
v 500.000000 -39.658268 -500.000366
v 0.000000 -39.658268 -500.000366
v 491.653076 -74.214706 -499.999878
v 491.653076 -74.214706 35.080528
v 491.653076 93.011986 35.080528
v 491.653076 93.011986 -8.967781
v 491.653076 -39.658268 -8.967781
v 491.653076 -39.658268 -500.000366
v 8.346939 -74.214706 -499.999878
v 8.346939 -74.214706 35.080528
v 8.346939 93.011986 35.080528
v 8.346939 93.011986 -8.967781
v 8.346939 -39.658268 -8.967781
v 8.346939 -39.658268 -500.000366
vt 0.100902 0.307026
vt 0.100902 0.307026
vt 0.100902 0.307026
vt 0.100902 0.307026
vt 0.100902 0.307026
vt 0.100902 0.307026
vt 0.100902 0.307026
vt 0.100902 0.307026
vt 0.100902 0.307026
vt 0.100902 0.307026
vt 0.100902 0.307026
vt 0.100902 0.307026
vt 0.100902 0.307026
vt 0.100902 0.307026
vt 0.100902 0.307026
vt 0.100902 0.307026
vt 0.100902 0.307026
vt 0.100902 0.307026
vt 0.100902 0.307026
vt 0.100902 0.307026
vt 0.100902 0.307026
vt 0.100902 0.307026
vt 0.100902 0.307026
vt 0.100902 0.307026
vt 0.100902 0.307026
vt 0.100902 0.307026
vt 0.100902 0.307026
vt 0.100902 0.307026
vt 0.100902 0.307026
vt 0.100902 0.307026
vt 0.100902 0.307026
vt 0.100902 0.307026
vt 0.100902 0.307026
vt 0.100902 0.307026
vt 0.100902 0.307026
vt 0.100902 0.307026
vt 0.100902 0.307026
vt 0.100902 0.307026
vt 0.100902 0.307026
vt 0.100902 0.307026
vn -0.765389 0.643569 0.000000
vn -0.765389 0.643568 0.000000
vn -0.765389 0.643568 0.000000
vn -0.765389 0.643569 0.000000
vn -0.615520 0.000000 0.788121
vn -0.615520 0.000000 0.788121
vn -0.615520 0.000000 0.788121
vn -0.615520 0.000000 0.788121
vn 1.000000 0.000000 0.000000
vn 1.000000 0.000000 0.000000
vn 1.000000 0.000000 0.000000
vn 1.000000 0.000000 0.000000
vn -0.731991 0.000000 -0.681315
vn -0.731991 0.000000 -0.681315
vn -0.731991 0.000000 -0.681315
vn -0.731991 0.000000 -0.681315
vn -1.000000 0.000000 0.000000
vn -1.000000 0.000000 0.000000
vn -1.000000 0.000000 0.000000
vn -1.000000 0.000000 0.000000
vn 0.000000 -1.000000 0.000000
vn 0.000000 -1.000000 0.000000
vn 0.000000 -1.000000 0.000000
vn 0.000000 -1.000000 0.000000
vn 1.000000 -0.000001 0.000000
vn 1.000000 -0.000001 0.000000
vn 1.000000 -0.000001 0.000000
vn 1.000000 -0.000001 0.000000
vn -1.000000 0.000000 0.000000
vn -1.000000 0.000000 0.000000
vn -1.000000 0.000000 0.000000
vn -1.000000 0.000000 0.000000
vn 0.000000 1.000000 0.000000
vn 0.000000 1.000000 0.000000
vn 0.000000 1.000000 0.000000
vn 0.000000 1.000000 0.000000
vn 0.000000 -1.000000 0.000000
vn 0.000000 -1.000000 0.000000
vn 0.000000 -1.000000 0.000000
vn 0.000000 -1.000000 0.000000
vn 0.615521 0.000000 0.788121
vn 0.615521 0.000000 0.788121
vn 0.615521 0.000000 0.788121
vn 0.615521 0.000000 0.788121
vn 0.765389 0.643568 0.000000
vn 0.765389 0.643568 0.000000
vn 0.765389 0.643568 0.000000
vn 0.765389 0.643568 0.000000
vn 0.731991 0.000000 -0.681314
vn 0.731991 0.000000 -0.681314
vn 0.731991 0.000000 -0.681314
vn 0.731991 0.000000 -0.681314
vn 0.000000 1.000000 0.000000
vn 0.000000 1.000000 0.000000
vn 0.000000 1.000000 0.000000
vn 0.000000 1.000000 0.000000
vn 0.000000 -1.000000 0.000000
vn 0.000000 -1.000000 0.000000
vn 0.000000 -1.000000 0.000000
vn 0.000000 -1.000000 0.000000
vn 0.000000 0.000000 1.000000
vn 0.000000 0.000000 1.000000
vn 0.000000 0.000000 1.000000
vn 0.000000 0.000000 1.000000
vn 0.000000 1.000000 0.000000
vn 0.000000 1.000000 0.000000
vn 0.000000 1.000000 0.000000
vn 0.000000 1.000000 0.000000
vn 0.000000 0.000000 -1.000000
vn 0.000000 0.000000 -1.000000
vn 0.000000 0.000000 -1.000000
vn 0.000000 0.000000 -1.000000
vn 0.000000 1.000000 0.000000
vn 0.000000 1.000000 0.000000
vn 0.000000 1.000000 0.000000
vn 0.000000 1.000000 0.000000
s off
f 5/1/1 21/2/2 22/3/3 8/4/4
f 1/5/5 20/6/6 21/2/7 5/1/8
f 2/7/9 3/8/10 7/9/11 6/10/12
f 23/11/13 4/12/14 8/4/15 22/3/16
f 4/12/17 1/5/18 5/1/19 8/4/20
f 20/13/21 1/14/22 9/15/23 19/16/24
f 3/17/25 2/18/26 10/19/27 11/20/28
f 1/21/29 4/22/30 12/23/31 9/24/32
f 4/25/33 23/26/34 24/27/35 12/28/36
f 2/29/37 14/30/38 13/31/39 10/32/40
f 15/33/41 14/34/42 2/7/43 6/10/44
f 16/35/45 15/33/46 6/10/47 7/9/48
f 3/8/49 17/36/50 16/35/51 7/9/52
f 18/37/53 17/38/54 3/39/55 11/40/56
f 14/30/57 20/13/58 19/16/59 13/31/60
f 21/2/61 20/6/62 14/34/63 15/33/64
f 22/3/65 21/2/66 15/33/67 16/35/68
f 17/36/69 23/11/70 22/3/71 16/35/72
f 24/27/73 23/26/74 17/38/75 18/37/76
