# This file uses centimeters as units for non-parametric coordinates.

v -0.000061 -250.000000 -0.001025
v 499.999939 -250.000000 -0.001025
v 499.999939 -49.520622 -320.767822
v -0.000061 -49.520622 -320.767822
v 499.999939 -49.520622 -500.001007
v -0.000061 -49.520622 -500.001038
v 499.999939 -250.000000 -500.001007
v -0.000061 -250.000000 -500.001038
v 18.385153 -41.556183 -315.851929
v 21.039146 -230.857788 -6.110402
v 477.178497 -229.983444 -3.359489
v 487.499939 -41.556183 -315.995758
v 487.499939 -36.827011 -510.895355
v 12.499939 -36.827011 -510.895386
v 487.499939 -244.988007 -511.332672
v 12.499939 -244.988007 -511.332703
v 303.821991 -250.000000 -500.001038
v 303.821991 -244.988007 -511.332703
v 303.821991 -36.827011 -510.895386
v 283.736633 -46.357620 -308.031006
v 294.366547 -218.836761 -15.412008
v 303.821991 -250.000000 -0.001025
vt 0.100022 0.284315
vt 0.100022 0.284315
vt 0.100022 0.301606
vt 0.100022 0.301606
vt 0.100022 0.301606
vt 0.100022 0.301606
vt 0.100022 0.301606
vt 0.100022 0.301606
vt 0.101772 0.303006
vt 0.101772 0.303006
vt 0.101772 0.285715
vt 0.101772 0.285715
vt 0.100022 0.301606
vt 0.100022 0.284315
vt 0.100022 0.284315
vt 0.100022 0.301606
vt 0.100022 0.301606
vt 0.100022 0.301606
vt 0.100022 0.301606
vt 0.100022 0.301606
vt 0.101772 0.303006
vt 0.101772 0.285715
vt 0.101772 0.285715
vt 0.101772 0.303006
vt 0.101772 0.285715
vt 0.101772 0.285715
vt 0.100022 0.301606
vt 0.101772 0.303006
vt 0.100022 0.301606
vt 0.100022 0.301606
vt 0.100022 0.284315
vt 0.100022 0.284315
vn -0.002370 0.857876 0.513851
vn -0.001949 0.857916 0.513786
vn 0.008682 0.858866 0.512127
vn 0.008682 0.858866 0.512127
vn 0.000644 0.999360 0.035777
vn 0.026550 0.999063 0.034192
vn 0.019549 0.999217 0.034388
vn -0.000600 0.999362 0.035722
vn 0.000000 0.002101 -0.999998
vn 0.000000 0.002101 -0.999998
vn 0.000000 0.002101 -0.999998
vn 0.000000 0.002101 -0.999998
vn -0.493970 0.738636 0.458705
vn -0.493970 0.738636 0.458705
vn -0.493970 0.738636 0.458705
vn -0.493970 0.738636 0.458705
vn -0.006093 0.364196 0.931302
vn -0.020186 0.332995 0.942712
vn -0.020186 0.332995 0.942712
vn -0.001553 0.374142 0.927370
vn 0.569227 0.696483 0.436913
vn 0.569226 0.696483 0.436913
vn 0.569227 0.696483 0.436913
vn 0.569226 0.696483 0.436913
vn 0.635537 0.772008 0.009758
vn 0.635538 0.772008 0.009758
vn 0.019549 0.999217 0.034388
vn 0.026550 0.999063 0.034192
vn -0.553289 0.832768 0.019222
vn -0.553289 0.832768 0.019222
vn -0.019036 0.999186 0.035571
vn -0.014521 0.999259 0.035661
vn 0.664743 0.000800 -0.747072
vn 0.664743 0.000800 -0.747072
vn 0.664743 0.000800 -0.747072
vn 0.664743 0.000800 -0.747072
vn 0.000000 -0.914538 -0.404500
vn 0.000000 -0.914537 -0.404501
vn 0.000000 -0.914537 -0.404501
vn 0.000000 -0.914538 -0.404500
vn -0.664744 0.000799 -0.747070
vn -0.664744 0.000799 -0.747070
vn -0.664744 0.000799 -0.747070
vn -0.664744 0.000799 -0.747070
vn 0.000000 -0.914537 -0.404501
vn 0.000000 -0.914537 -0.404502
vn 0.000000 -0.914537 -0.404502
vn 0.000000 -0.914537 -0.404501
vn 0.000000 0.002101 -0.999998
vn 0.000000 0.002101 -0.999998
vn 0.000000 0.002101 -0.999998
vn 0.000000 0.002101 -0.999998
vn -0.019036 0.999186 0.035571
vn 0.000644 0.999360 0.035777
vn -0.000600 0.999362 0.035722
vn -0.014521 0.999259 0.035661
vn -0.010072 0.857123 0.515014
vn -0.010072 0.857122 0.515014
vn -0.001949 0.857916 0.513786
vn -0.002370 0.857876 0.513851
vn 0.006661 0.392009 0.919937
vn -0.006093 0.364196 0.931302
vn -0.001553 0.374142 0.927370
vn 0.006661 0.392009 0.919937
s off
f 20/29/1 21/31/2 11/15/3 12/16/4
f 20/30/5 12/17/6 13/18/7 19/27/8
f 19/28/9 13/21/10 15/22/11 18/26/12
f 4/4/13 1/1/14 10/14/15 9/13/16
f 22/32/17 2/2/18 11/15/19 21/31/20
f 2/2/21 3/3/22 12/16/23 11/15/24
f 3/6/25 5/7/26 13/18/27 12/17/28
f 6/8/29 4/5/30 9/20/31 14/19/32
f 5/10/33 7/11/34 15/22/35 13/21/36
f 7/11/37 17/25/38 18/26/39 15/22/40
f 8/12/41 6/9/42 14/24/43 16/23/44
f 17/25/45 8/12/46 16/23/47 18/26/48
f 14/24/49 19/28/50 18/26/51 16/23/52
f 9/20/53 20/30/54 19/27/55 14/19/56
f 9/13/57 10/14/58 21/31/59 20/29/60
f 1/1/61 22/32/62 21/31/63 10/14/64
