# This file uses centimeters as units for non-parametric coordinates.

v -70.710678 -70.710670 -199.999985
v 0.000000 -99.999992 -200.000000
v 70.710663 -70.710670 -200.000000
v 100.000000 0.000000 -200.000000
v 70.710663 70.710670 -199.999969
v 0.000000 100.000000 -200.000000
v -70.710693 70.710678 -200.000000
v -100.000000 0.000000 -200.000000
v -70.710670 -70.710670 0.000000
v 0.000000 -99.999992 0.000000
v 70.710670 -70.710670 0.000000
v 99.999992 0.000000 0.000000
v 70.710670 70.710670 0.000000
v 0.000000 99.999992 0.000000
v -70.710678 70.710670 0.000000
v -100.000000 0.000000 0.000000
v 0.000000 0.000000 -200.000000
v -0.000000 0.000000 0.000000
vt 0.026536 0.252157
vt 0.026536 0.252157
vt 0.026536 0.252157
vt 0.026536 0.252157
vt 0.026536 0.252157
vt 0.026536 0.252157
vt 0.026536 0.252157
vt 0.026536 0.252157
vt 0.026536 0.252157
vt 0.026536 0.252157
vt 0.026536 0.252157
vt 0.026536 0.252157
vt 0.026536 0.252157
vt 0.026536 0.252157
vt 0.026536 0.252157
vt 0.026536 0.252157
vt 0.026536 0.252157
vt 0.026536 0.252157
vt 0.026536 0.252157
vt 0.026536 0.252157
vt 0.026536 0.252157
vt 0.026536 0.252157
vt 0.026536 0.252157
vt 0.026536 0.252157
vt 0.026536 0.252157
vt 0.026536 0.252157
vt 0.026536 0.252157
vt 0.026536 0.252157
vt 0.026536 0.252157
vt 0.026536 0.252157
vt 0.026536 0.252157
vt 0.026536 0.252157
vt 0.026536 0.252157
vt 0.026536 0.252157
vt 0.026536 0.252157
vt 0.026536 0.252157
vn -0.382683 -0.923880 -0.000000
vn -0.382683 -0.923880 -0.000000
vn -0.382683 -0.923880 -0.000000
vn -0.382683 -0.923880 -0.000000
vn 0.382684 -0.923880 0.000000
vn 0.382684 -0.923880 0.000000
vn 0.382684 -0.923880 0.000000
vn 0.382684 -0.923880 0.000000
vn 0.923879 -0.382684 -0.000000
vn 0.923879 -0.382684 -0.000000
vn 0.923879 -0.382684 -0.000000
vn 0.923879 -0.382684 -0.000000
vn 0.923879 0.382684 0.000000
vn 0.923879 0.382684 0.000000
vn 0.923880 0.382684 0.000000
vn 0.923880 0.382684 0.000000
vn 0.382684 0.923880 0.000000
vn 0.382684 0.923879 0.000000
vn 0.382684 0.923880 0.000000
vn 0.382684 0.923880 0.000000
vn -0.382683 0.923880 0.000000
vn -0.382683 0.923880 0.000000
vn -0.382683 0.923880 0.000000
vn -0.382683 0.923880 0.000000
vn -0.923880 0.382683 0.000000
vn -0.923880 0.382683 0.000000
vn -0.923880 0.382683 0.000000
vn -0.923880 0.382683 0.000000
vn -0.923880 -0.382683 0.000000
vn -0.923880 -0.382683 0.000000
vn -0.923880 -0.382683 0.000000
vn -0.923880 -0.382683 0.000000
vn 0.000000 0.000000 -1.000000
vn 0.000000 -0.000000 -1.000000
vn 0.000000 0.000000 -1.000000
vn 0.000000 0.000000 -1.000000
vn 0.000000 0.000000 -1.000000
vn 0.000000 0.000000 -1.000000
vn 0.000000 0.000000 -1.000000
vn 0.000000 0.000000 -1.000000
vn 0.000000 0.000000 -1.000000
vn 0.000000 0.000000 -1.000000
vn 0.000000 0.000000 -1.000000
vn 0.000000 0.000000 -1.000000
vn 0.000000 0.000000 -1.000000
vn 0.000000 0.000000 -1.000000
vn 0.000000 0.000000 -1.000000
vn 0.000000 0.000000 -1.000000
vn 0.000000 0.000000 -1.000000
vn 0.000000 0.000000 -1.000000
vn 0.000000 -0.000000 -1.000000
vn 0.000000 0.000000 -1.000000
vn 0.000000 0.000000 -1.000000
vn 0.000000 -0.000000 -1.000000
vn 0.000000 -0.000000 -1.000000
vn 0.000000 0.000000 -1.000000
vn 0.000000 0.000000 1.000000
vn 0.000000 0.000000 1.000000
vn 0.000000 0.000000 1.000000
vn 0.000000 0.000000 1.000000
vn 0.000000 0.000000 1.000000
vn 0.000000 0.000000 1.000000
vn 0.000000 0.000000 1.000000
vn 0.000000 0.000000 1.000000
vn 0.000000 0.000000 1.000000
vn 0.000000 0.000000 1.000000
vn 0.000000 0.000000 1.000000
vn 0.000000 0.000000 1.000000
vn 0.000000 0.000000 1.000000
vn 0.000000 0.000000 1.000000
vn 0.000000 0.000000 1.000000
vn 0.000000 0.000000 1.000000
vn 0.000000 0.000000 1.000000
vn 0.000000 0.000000 1.000000
vn 0.000000 0.000000 1.000000
vn 0.000000 0.000000 1.000000
vn 0.000000 0.000000 1.000000
vn 0.000000 0.000000 1.000000
vn 0.000000 0.000000 1.000000
vn 0.000000 0.000000 1.000000
s off
f 1/9/1 2/10/2 10/19/3 9/18/4
f 2/10/5 3/11/6 11/20/7 10/19/8
f 3/11/9 4/12/10 12/21/11 11/20/12
f 4/12/13 5/13/14 13/22/15 12/21/16
f 5/13/17 6/14/18 14/23/19 13/22/20
f 6/14/21 7/15/22 15/24/23 14/23/24
f 7/15/25 8/16/26 16/25/27 15/24/28
f 8/16/29 1/17/30 9/26/31 16/25/32
f 2/2/33 1/1/34 17/35/35
f 3/3/36 2/2/37 17/35/38
f 4/4/39 3/3/40 17/35/41
f 5/5/42 4/4/43 17/35/44
f 6/6/45 5/5/46 17/35/47
f 7/7/48 6/6/49 17/35/50
f 8/8/51 7/7/52 17/35/53
f 1/1/54 8/8/55 17/35/56
f 9/33/57 10/32/58 18/36/59
f 10/32/60 11/31/61 18/36/62
f 11/31/63 12/30/64 18/36/65
f 12/30/66 13/29/67 18/36/68
f 13/29/69 14/28/70 18/36/71
f 14/28/72 15/27/73 18/36/74
f 15/27/75 16/34/76 18/36/77
f 16/34/78 9/33/79 18/36/80
