# This file uses centimeters as units for non-parametric coordinates.

v 75.228516 5.868103 13.610352
v -17.712891 18.559814 -17.428711
v -47.466797 -4.301880 -17.428711
v -64.251953 20.371887 -22.017578
v 16.636719 -10.639587 35.296875
v 2.109375 -6.368042 -23.897461
v -20.285156 -21.613098 0.821289
v 38.207031 -26.686584 -16.500977
v 25.835938 -25.132385 13.637695
v 110.136719 -8.975037 -4.401367
v -41.640625 20.828003 20.611328
v 3.484375 3.450378 35.664063
v -59.949219 26.686523 -13.211914
v 43.632813 12.456055 11.533203
v 88.001953 8.436096 -6.316406
v 74.519531 8.630554 -35.664063
v 79.445313 -12.762695 -30.930664
v -104.000000 4.337341 -15.133789
v -110.136719 -5.938171 -10.830078
v -86.703125 -18.329529 6.837891
v -96.955078 8.220032 10.222656
v -89.669922 15.162781 -10.101563
v -45.988281 -14.338989 12.010742
v -78.166016 2.385254 23.684570
v -54.359375 -5.391602 25.121094
vt -1.810815 2.031554
vt -1.797228 1.968702
vt -1.776970 2.042363
vt -1.827019 1.995521
vt 1.414557 2.015517
vt 1.367859 2.058676
vt 1.391173 1.985014
vt -1.450523 2.794934
vt -1.473907 2.776577
vt -1.447639 2.774627
vt -1.454315 2.744719
vt -1.480148 2.749542
vt 0.952812 2.193946
vt 0.948077 2.230852
vt 0.910095 2.214854
vt 0.920288 2.140343
vt 0.957965 2.234612
vt 1.399956 2.078206
vt 1.384134 2.066715
vt 0.893191 2.175424
vt 0.917955 2.112736
vt 0.940332 2.101576
vt -1.041993 2.151047
vt -1.010505 2.093061
vt -1.012825 2.136379
vt -1.038498 2.110381
vt -1.006508 2.025487
vt -1.032342 2.029791
vt 0.973290 2.113356
vt -1.791362 2.082663
vt 0.519497 2.630719
vt 0.513800 2.681828
vt 0.500677 2.594687
vt -1.819122 2.063095
vt -1.811857 2.106414
vt -1.016267 2.191140
vt -1.029129 2.185778
vt -1.784605 2.140698
vt -1.804448 2.161174
vt 0.944584 2.256821
vt 0.921762 2.263186
vt 0.950234 2.269343
vt -1.778798 2.105123
vt 1.419557 2.117636
vt 1.417198 2.165967
vt 1.406153 2.149550
vt 1.390632 2.128749
vt -1.752647 2.050403
vt -1.764075 2.112437
vt 1.222141 2.812020
vt 1.209278 2.807636
vt 1.231785 2.786182
vt 1.194422 2.789629
vt 1.220740 2.772462
vt 1.379835 2.157011
vn 0.214848 -0.966842 0.138047
vn 0.214848 -0.966842 0.138048
vn 0.214848 -0.966842 0.138048
vn 0.262208 -0.950335 -0.167664
vn 0.262208 -0.950335 -0.167664
vn 0.262208 -0.950335 -0.167664
vn 0.266467 -0.423794 0.865676
vn 0.266467 -0.423794 0.865676
vn 0.266467 -0.423794 0.865676
vn 0.533067 0.725556 0.435210
vn 0.533067 0.725556 0.435210
vn 0.533067 0.725556 0.435210
vn 0.609017 0.744012 -0.274855
vn 0.609017 0.744012 -0.274855
vn 0.609017 0.744012 -0.274855
vn 0.655011 -0.016331 -0.755443
vn 0.655011 -0.016331 -0.755443
vn 0.655011 -0.016331 -0.755443
vn 0.194726 0.978759 0.064125
vn 0.194726 0.978759 0.064125
vn 0.194726 0.978759 0.064125
vn 0.097947 0.995189 0.002271
vn 0.097947 0.995189 0.002271
vn 0.097947 0.995189 0.002271
vn 0.090747 0.787764 -0.609256
vn 0.090747 0.787764 -0.609256
vn 0.090747 0.787764 -0.609256
vn 0.278300 0.235514 0.931173
vn 0.278300 0.235514 0.931173
vn 0.278300 0.235514 0.931173
vn 0.416871 -0.663646 0.621122
vn 0.416871 -0.663646 0.621122
vn 0.416871 -0.663646 0.621121
vn 0.139023 0.829528 0.540885
vn 0.139023 0.829528 0.540885
vn 0.139023 0.829528 0.540885
vn 0.137773 0.830785 0.539273
vn 0.137773 0.830785 0.539273
vn 0.137773 0.830785 0.539273
vn 0.094269 0.995495 0.010127
vn 0.094269 0.995495 0.010127
vn 0.094269 0.995495 0.010127
vn 0.182989 0.953331 0.240157
vn 0.182989 0.953331 0.240157
vn 0.182989 0.953331 0.240157
vn -0.135633 -0.269580 -0.953379
vn -0.135633 -0.269580 -0.953378
vn -0.135633 -0.269580 -0.953378
vn 0.105335 0.327427 -0.938987
vn 0.105335 0.327427 -0.938987
vn 0.105335 0.327427 -0.938987
vn -0.107486 -0.238311 -0.965223
vn -0.107486 -0.238311 -0.965223
vn -0.107486 -0.238310 -0.965223
vn 0.099321 0.994289 -0.039040
vn 0.099321 0.994289 -0.039040
vn 0.099321 0.994289 -0.039040
vn -0.181455 0.109319 -0.977304
vn -0.181455 0.109319 -0.977304
vn -0.181455 0.109319 -0.977304
vn -0.081074 -0.996544 0.018111
vn -0.081074 -0.996544 0.018111
vn -0.081074 -0.996543 0.018111
vn -0.291470 -0.120224 -0.948995
vn -0.291470 -0.120224 -0.948995
vn -0.291470 -0.120224 -0.948995
vn -0.121944 -0.688883 -0.714542
vn -0.121944 -0.688883 -0.714542
vn -0.121944 -0.688883 -0.714542
vn -0.115882 -0.801061 -0.587259
vn -0.115882 -0.801061 -0.587259
vn -0.115882 -0.801061 -0.587259
vn -0.080017 -0.268623 -0.959916
vn -0.080017 -0.268623 -0.959916
vn -0.080017 -0.268623 -0.959916
vn -0.080017 -0.268623 -0.959916
vn -0.066881 -0.813154 -0.578194
vn -0.066881 -0.813154 -0.578194
vn -0.066881 -0.813154 -0.578194
vn -0.066881 -0.813154 -0.578194
vn -0.284190 0.918483 0.274999
vn -0.284190 0.918483 0.274999
vn -0.284190 0.918483 0.274999
vn -0.284190 0.918483 0.274999
vn -0.383116 0.795502 -0.469467
vn -0.383116 0.795502 -0.469467
vn -0.383116 0.795502 -0.469467
vn -0.383116 0.795502 -0.469467
vn -0.079639 -0.909391 0.408246
vn -0.079639 -0.909391 0.408246
vn -0.079639 -0.909391 0.408246
vn -0.079639 -0.909391 0.408246
vn -0.187995 0.511989 0.838167
vn -0.187995 0.511989 0.838167
vn -0.187995 0.511989 0.838167
vn -0.187995 0.511989 0.838167
vn -0.146100 -0.199554 0.968934
vn -0.146100 -0.199554 0.968934
vn -0.146100 -0.199554 0.968934
vn -0.146100 -0.199554 0.968934
vn -0.137441 -0.852106 0.505001
vn -0.137441 -0.852106 0.505001
vn -0.137441 -0.852106 0.505001
vn -0.137441 -0.852106 0.505001
vn 0.008609 -0.823379 0.567426
vn -0.076854 -0.744712 0.662947
vn -0.478165 -0.488247 0.730050
vn -0.613060 0.788478 0.049595
vn -0.737797 0.667144 0.102830
vn -0.765940 -0.112214 0.633043
vn -0.737797 0.667144 0.102830
vn -0.836229 -0.035190 0.547250
vn -0.765940 -0.112214 0.633043
vn -0.836229 -0.035190 0.547250
vn -0.478165 -0.488247 0.730050
vn -0.765940 -0.112214 0.633043
vn -0.765940 -0.112214 0.633043
vn -0.478165 -0.488247 0.730050
vn -0.385338 -0.481427 0.787237
vn -0.478165 -0.488247 0.730050
vn -0.076854 -0.744712 0.662947
vn -0.385338 -0.481427 0.787237
s off
f 8/1/1 10/2/2 9/3/3
f 17/4/4 10/2/5 8/1/6
f 1/5/7 9/6/8 10/7/9
f 1/8/10 10/9/11 15/10/12
f 15/10/13 10/9/14 16/11/15
f 17/12/16 16/11/17 10/9/18
f 2/13/19 13/14/20 11/15/21
f 2/13/22 11/15/23 14/16/24
f 2/13/25 4/17/26 13/14/27
f 1/5/28 12/18/29 5/19/30
f 1/5/31 5/19/32 9/6/33
f 11/15/34 12/20/35 14/16/36
f 1/21/37 14/16/38 12/20/39
f 14/16/40 15/22/41 2/13/42
f 1/21/43 15/22/44 14/16/45
f 4/23/46 6/24/47 3/25/48
f 2/26/49 6/24/50 4/23/51
f 17/27/52 6/24/53 16/28/54
f 15/22/55 16/29/56 2/13/57
f 2/26/58 16/28/59 6/24/60
f 9/3/61 7/30/62 8/1/63
f 8/31/64 7/32/65 17/33/66
f 6/34/67 17/4/68 3/35/69
f 3/35/70 17/4/71 7/30/72
f 4/23/73 3/25/74 19/36/75 18/37/76
f 3/35/77 7/30/78 20/38/79 19/39/80
f 11/15/81 13/14/82 22/40/83 21/41/84
f 13/14/85 4/17/86 18/42/87 22/40/88
f 7/30/89 9/3/90 23/43/91 20/38/92
f 12/18/93 11/44/94 21/45/95 24/46/96
f 5/19/97 12/18/98 24/46/99 25/47/100
f 9/3/101 5/48/102 25/49/103 23/43/104
f 23/43/105 25/49/106 20/38/107
f 22/40/108 18/42/109 21/41/110
f 18/50/111 19/51/112 21/52/113
f 19/51/114 20/53/115 21/52/116
f 21/52/117 20/53/118 24/54/119
f 20/55/120 25/47/121 24/46/122
