# This file uses centimeters as units for non-parametric coordinates.

v 500.000000 0.000000 -500.000000
v -0.000854 0.000000 -500.000000
v 500.000000 0.000001 0.000732
v 0.000000 0.000000 0.000000
v 247.923279 -2.982903 0.000732
v 248.664856 -2.982903 -500.000000
v 124.999237 0.000002 0.000732
v 127.742004 -2.982903 0.000732
v 127.742004 -2.982903 -500.000000
v 124.999237 0.000002 -500.000000
v 372.100830 -2.982903 0.000732
v 372.100830 -2.982903 -500.000000
v 375.000000 0.000002 -500.000000
v 375.000000 0.000002 0.000732
v 500.000000 0.000000 -375.000000
v 386.309814 5.775738 -379.052734
v 372.100830 -2.982903 -372.976685
v 248.480225 -2.982903 -372.976685
v 143.843079 -2.982903 -372.976685
v 130.328369 1.354849 -378.921509
v -0.000610 0.000000 -375.000000
v 500.000000 0.000000 -250.000000
v 375.689697 1.085711 -250.672913
v 369.366455 -2.982903 -250.000000
v 248.060608 -2.982903 -207.310486
v 138.366699 -2.982903 -271.887207
v 124.508667 -0.000011 -271.868896
v -0.000488 0.000000 -250.000000
v 500.000000 0.000001 -124.999237
v 349.777222 -1.329708 -121.749115
v 336.502075 -2.982903 -123.554993
v 248.109436 -2.982903 -123.554993
v 158.787537 -2.982903 -123.554993
v 149.774170 0.761843 -128.105927
v -0.000244 0.000000 -125.000000
v 336.312866 -2.982903 -128.635406
v 248.118591 -2.982903 -130.468750
v 158.549500 -2.982903 -131.169128
v 372.100830 -2.982903 -378.582764
v 248.487854 -2.982903 -378.607178
v 143.843079 -2.982903 -379.901123
v -0.000122 0.000000 -62.500000
v 127.809143 -0.755119 -63.466644
v 139.877319 -2.982903 -62.442017
v 252.713013 -2.982903 -51.718521
v 380.453491 -2.982903 -48.619080
v 388.693237 3.920889 -48.663712
v 500.000000 0.000001 -62.499237
v -0.000375 0.000000 -192.015076
v 114.202881 -0.800908 -191.065979
v 125.646210 -2.982903 -191.183472
v 373.428345 -2.982903 -227.032471
v 383.096313 6.444216 -226.649475
v 500.000000 0.000000 -187.500000
v -0.000553 0.000000 -316.659546
v 120.804596 7.824850 -294.219971
v 126.332092 -2.982903 -294.641113
v 248.393250 -2.982903 -315.249634
v 357.882690 -2.982903 -314.230347
v 371.072388 0.189981 -313.449097
v 500.000000 0.000000 -312.500000
v -0.000748 0.000000 -445.523071
v 112.688446 7.326651 -443.768311
v 127.742004 -2.982903 -444.488525
v 248.580933 -2.982903 -442.550659
v 363.153076 -2.982903 -458.883667
v 377.438354 6.148911 -457.858276
v 500.000000 0.000000 -437.500000
v 62.499237 0.000001 -500.000000
v 57.490921 -0.257206 -449.243164
v 68.661499 -0.581431 -382.052612
v 55.056381 3.987813 -315.469360
v 48.157120 -0.000006 -245.738220
v 63.177872 -1.689422 -192.146301
v 46.158600 0.551230 -125.980377
v 74.659729 -2.639055 -58.207703
v 62.499619 0.000001 0.000366
v 443.865967 0.000001 0.000732
v 441.174316 3.937602 -51.571655
v 463.262939 0.595194 -118.338776
v 444.427490 2.794385 -184.733582
v 459.658813 4.938841 -260.818481
v 437.902832 -3.881049 -306.326294
v 462.145996 1.874340 -366.290283
v 422.180176 -0.170602 -438.473511
v 440.982056 0.000001 -500.000000
v 361.026001 -2.982903 -96.981812
v 371.920776 -1.059937 -97.048187
v 357.281494 -2.982903 -153.451538
v 368.927002 -0.670934 -151.562500
v 131.687927 5.496359 -212.878418
v 144.764709 -2.982903 -207.786560
v 183.636475 -2.982903 -103.571320
v 313.751221 -2.982903 -152.389526
v 170.762634 -2.982903 -349.011230
v 340.933228 -2.982903 -401.675415
v 404.635620 -5.857277 -121.414948
v 248.114014 -3.914094 -125.981903
v 328.869629 -3.914094 -125.465393
v 181.178284 -2.982903 -127.114868
v 363.403320 -2.982903 -364.361572
v 376.272583 3.937554 -364.025879
vt 0.103823 0.327910
vt 0.430811 0.178520
vt 0.430811 0.178520
vt 0.430811 0.178520
vt 0.430811 0.178520
vt 0.103697 0.329862
vt 0.103103 0.329845
vt 0.103225 0.327894
vt 0.430811 0.178520
vt 0.430811 0.178520
vt 0.430811 0.178520
vt 0.430811 0.178520
vt 0.430811 0.178520
vt 0.430811 0.178520
vt 0.430811 0.178520
vt 0.430811 0.178520
vt 0.102520 0.329812
vt 0.102646 0.327861
vt 0.430811 0.178520
vt 0.430811 0.178520
vt 0.103729 0.329374
vt 0.430811 0.178520
vt 0.103133 0.329357
vt 0.430510 0.178821
vt 0.102251 0.303451
vt 0.430811 0.178520
vt 0.430811 0.178520
vt 0.430811 0.178520
vt 0.430811 0.178520
vt 0.103760 0.328886
vt 0.430811 0.178520
vt 0.103171 0.328754
vt 0.430811 0.178520
vt 0.102583 0.328837
vt 0.430811 0.178520
vt 0.430811 0.178520
vt 0.430811 0.178520
vt 0.430811 0.178520
vt 0.103792 0.328398
vt 0.430811 0.178520
vt 0.103195 0.328382
vt 0.430510 0.178821
vt 0.102314 0.302475
vt 0.430811 0.178520
vt 0.430811 0.178520
vt 0.103489 0.302544
vt 0.430510 0.178821
vt 0.103193 0.328409
vt 0.430811 0.178520
vt 0.102613 0.328379
vt 0.103426 0.303522
vt 0.430510 0.178821
vt 0.103132 0.329379
vt 0.430811 0.178520
vt 0.102550 0.329352
vt 0.101923 0.303283
vt 0.101922 0.303296
vt 0.104630 0.303897
vt 0.101922 0.303283
vt 0.101922 0.303270
vt 0.104630 0.303872
vt 0.101949 0.303283
vt 0.101949 0.303296
vt 0.104656 0.303898
vt 0.101948 0.303283
vt 0.101948 0.303270
vt 0.104657 0.303872
vt 0.430811 0.178520
vt 0.430811 0.178520
vt 0.102631 0.328108
vt 0.430811 0.178520
vt 0.103210 0.328140
vt 0.103807 0.328157
vt 0.430811 0.178520
vt 0.430811 0.178520
vt 0.430811 0.178520
vt 0.430811 0.178520
vt 0.430811 0.178520
vt 0.102598 0.328610
vt 0.430811 0.178520
vt 0.430811 0.178520
vt 0.103775 0.328651
vt 0.430811 0.178520
vt 0.430811 0.178520
vt 0.430811 0.178520
vt 0.430811 0.178520
vt 0.102566 0.329100
vt 0.430811 0.178520
vt 0.103148 0.329128
vt 0.430811 0.178520
vt 0.103744 0.329141
vt 0.430811 0.178520
vt 0.430811 0.178520
vt 0.430811 0.178520
vt 0.430811 0.178520
vt 0.102534 0.329599
vt 0.430811 0.178520
vt 0.103116 0.329625
vt 0.430811 0.178520
vt 0.103712 0.329634
vt 0.430811 0.178520
vt 0.430811 0.178520
vt 0.430811 0.178520
vt 0.430811 0.178520
vt 0.430811 0.178520
vt 0.430811 0.178520
vt 0.430811 0.178520
vt 0.430811 0.178520
vt 0.430811 0.178520
vt 0.430811 0.178520
vt 0.430811 0.178520
vt 0.430811 0.178520
vt 0.430811 0.178520
vt 0.430811 0.178520
vt 0.430811 0.178520
vt 0.430811 0.178520
vt 0.430811 0.178520
vt 0.430811 0.178520
vt 0.430811 0.178520
vt 0.430811 0.178520
vt 0.103798 0.328293
vt 0.430811 0.178520
vt 0.430811 0.178520
vt 0.430510 0.178821
vt 0.103482 0.302661
vt 0.430811 0.178520
vt 0.430811 0.178520
vt 0.102593 0.328693
vt 0.430811 0.178520
vt 0.102939 0.328258
vt 0.103433 0.328509
vt 0.102870 0.329238
vt 0.103437 0.329513
vt 0.430811 0.178520
vt 0.101948 0.303283
vt 0.103087 0.303549
vt 0.430684 0.178647
vt 0.103390 0.303591
vt 0.430650 0.178681
vt 0.430811 0.178520
vt 0.103732 0.329314
vt 0.430811 0.178520
vn -0.011651 0.999280 0.036100
vn -0.011651 0.999280 0.036100
vn -0.011651 0.999280 0.036100
vn -0.011651 0.999280 0.036100
vn 0.000000 1.000000 -0.000000
vn 0.000000 1.000000 -0.000000
vn 0.000000 1.000000 -0.000000
vn 0.000000 1.000000 -0.000000
vn 0.000000 1.000000 -0.000000
vn 0.000000 1.000000 0.000000
vn 0.000000 1.000000 0.000000
vn 0.000000 1.000000 0.000000
vn 0.248696 0.964158 0.092468
vn 0.248696 0.964158 0.092468
vn 0.248696 0.964158 0.092468
vn 0.248696 0.964158 0.092468
vn 0.082469 0.992981 -0.084776
vn 0.082469 0.992981 -0.084776
vn 0.082469 0.992981 -0.084776
vn -0.154553 0.978646 0.135518
vn -0.154553 0.978646 0.135518
vn -0.154553 0.978646 0.135518
vn -0.154553 0.978646 0.135518
vn 0.000000 0.999996 0.002773
vn 0.000000 0.999996 0.002773
vn 0.000000 0.999996 0.002773
vn -0.568844 0.815751 -0.104720
vn -0.568844 0.815751 -0.104720
vn -0.568844 0.815751 -0.104720
vn -0.568844 0.815751 -0.104720
vn 0.000000 1.000000 0.000000
vn 0.000000 1.000000 0.000000
vn 0.000000 1.000000 0.000000
vn 0.000000 1.000000 0.000000
vn 0.000000 1.000000 -0.000000
vn 0.000000 1.000000 -0.000000
vn 0.000000 1.000000 -0.000000
vn 0.000000 1.000000 -0.000000
vn 0.305609 0.952157 0.000000
vn 0.305609 0.952157 0.000000
vn 0.305609 0.952157 0.000000
vn -0.060616 0.995296 -0.075578
vn -0.060616 0.995296 -0.075578
vn -0.060616 0.995296 -0.075578
vn -0.060616 0.995296 -0.075578
vn 0.027459 0.989852 0.139426
vn 0.027459 0.989852 0.139426
vn 0.027459 0.989852 0.139426
vn -0.523684 0.774531 -0.354764
vn -0.523684 0.774531 -0.354764
vn -0.523684 0.774531 -0.354764
vn -0.523684 0.774531 -0.354764
vn 0.000000 1.000000 -0.000000
vn 0.000000 1.000000 -0.000000
vn 0.000000 1.000000 -0.000000
vn 0.000000 1.000000 0.000000
vn 0.000000 1.000000 0.000000
vn 0.000000 1.000000 0.000000
vn 0.608540 0.790470 0.069539
vn 0.608540 0.790470 0.069539
vn 0.608540 0.790470 0.069539
vn 0.608540 0.790470 0.069539
vn -0.030352 0.996541 -0.077358
vn -0.030352 0.996541 -0.077358
vn -0.030352 0.996541 -0.077358
vn -0.030352 0.996541 -0.077358
vn 0.005524 0.999484 -0.031657
vn 0.005524 0.999484 -0.031657
vn 0.005524 0.999484 -0.031657
vn 0.005524 0.999484 -0.031657
vn -0.642645 0.762975 0.069838
vn -0.642645 0.762975 0.069838
vn -0.642645 0.762975 0.069838
vn -0.642645 0.762975 0.069838
vn -0.003246 0.972386 0.233357
vn -0.003246 0.972386 0.233357
vn -0.003246 0.972386 0.233357
vn -0.003246 0.972386 0.233357
vn -0.001589 0.979135 0.203206
vn -0.001589 0.979135 0.203206
vn -0.001589 0.979135 0.203206
vn 0.388871 0.921212 -0.012157
vn 0.388871 0.921212 -0.012157
vn 0.388871 0.921212 -0.012157
vn -0.087418 0.994605 0.055855
vn -0.087418 0.994605 0.055855
vn -0.087418 0.994605 0.055855
vn 0.000000 1.000000 0.000000
vn 0.000000 1.000000 0.000000
vn 0.000000 1.000000 0.000000
vn 0.000000 1.000000 0.000000
vn 0.000000 1.000000 0.000000
vn 0.000000 1.000000 0.000000
vn 0.000000 1.000000 0.000000
vn 0.000000 1.000000 0.000000
vn 0.000000 1.000000 0.000000
vn 0.000000 1.000000 0.000000
vn 0.000000 1.000000 0.000000
vn 0.000000 1.000000 0.000000
vn 0.000000 1.000000 0.000000
vn 0.000000 1.000000 0.000000
vn 0.403693 0.910919 -0.085203
vn 0.403693 0.910919 -0.085203
vn 0.403692 0.910919 -0.085203
vn 0.403692 0.910919 -0.085203
vn -0.124197 0.992247 0.004625
vn -0.124197 0.992247 0.004625
vn -0.124197 0.992247 0.004625
vn -0.524733 0.851267 0.000000
vn -0.524733 0.851267 0.000000
vn -0.524733 0.851267 0.000000
vn 0.598716 0.800849 0.013452
vn 0.598716 0.800849 0.013452
vn 0.598716 0.800849 0.013452
vn 0.598716 0.800849 0.013452
vn -0.017647 0.999393 -0.030049
vn -0.017647 0.999393 -0.030049
vn -0.017647 0.999393 -0.030049
vn -0.017647 0.999393 -0.030049
vn 0.329627 0.943518 0.033467
vn 0.329627 0.943518 0.033467
vn 0.329627 0.943518 0.033467
vn 0.329627 0.943518 0.033467
vn 0.000000 1.000000 -0.000000
vn 0.000000 1.000000 -0.000000
vn 0.000000 1.000000 -0.000000
vn 0.000000 1.000000 -0.000000
vn 0.000000 1.000000 0.000000
vn 0.000000 1.000000 0.000000
vn 0.000000 1.000000 0.000000
vn 0.000000 1.000000 0.000000
vn -0.659329 0.742298 -0.119496
vn -0.659329 0.742298 -0.119496
vn -0.659329 0.742298 -0.119496
vn -0.659329 0.742298 -0.119496
vn 0.001740 0.996924 0.078349
vn 0.001740 0.996925 0.078349
vn 0.001740 0.996924 0.078349
vn 0.001740 0.996925 0.078349
vn -0.007296 0.999570 -0.028394
vn -0.007296 0.999570 -0.028394
vn -0.007296 0.999570 -0.028394
vn -0.007296 0.999570 -0.028394
vn 0.255481 0.954408 -0.154385
vn 0.255481 0.954408 -0.154385
vn 0.255481 0.954408 -0.154385
vn 0.255481 0.954408 -0.154385
vn 0.000000 1.000000 0.000000
vn 0.000000 1.000000 0.000000
vn 0.000000 1.000000 0.000000
vn 0.000000 1.000000 0.000000
vn 0.000000 1.000000 0.000000
vn 0.000000 1.000000 0.000000
vn 0.000000 1.000000 0.000000
vn -0.477174 0.877065 -0.055329
vn -0.477174 0.877065 -0.055329
vn -0.477174 0.877065 -0.055329
vn -0.477174 0.877065 -0.055329
vn -0.004631 0.995611 0.093469
vn -0.004631 0.995611 0.093469
vn -0.004631 0.995611 0.093469
vn -0.022435 0.991720 0.126443
vn -0.022435 0.991720 0.126443
vn -0.022435 0.991720 0.126443
vn -0.022435 0.991720 0.126443
vn 0.577708 0.814008 -0.060367
vn 0.577708 0.814008 -0.060367
vn 0.577708 0.814008 -0.060367
vn 0.577708 0.814008 -0.060367
vn 0.000000 1.000000 0.000000
vn 0.000000 1.000000 0.000000
vn 0.000000 1.000000 0.000000
vn 0.000000 1.000000 0.000000
vn 0.000000 1.000000 -0.000000
vn 0.000000 1.000000 -0.000000
vn 0.000000 1.000000 -0.000000
vn 0.000000 1.000000 -0.000000
vn -0.347864 0.936795 0.037493
vn -0.347864 0.936795 0.037493
vn -0.347864 0.936795 0.037493
vn -0.347864 0.936795 0.037493
vn -0.000350 0.996007 -0.089280
vn -0.000350 0.996007 -0.089280
vn -0.000350 0.996007 -0.089280
vn -0.000350 0.996006 -0.089280
vn -0.085854 0.994110 0.066136
vn -0.085854 0.994110 0.066136
vn -0.085854 0.994110 0.066136
vn -0.085854 0.994110 0.066136
vn 0.451286 0.889084 -0.076621
vn 0.451286 0.889084 -0.076621
vn 0.451286 0.889084 -0.076621
vn 0.451286 0.889084 -0.076621
vn 0.000000 1.000000 -0.000000
vn 0.000000 1.000000 -0.000000
vn 0.000000 1.000000 -0.000000
vn 0.000000 1.000000 -0.000000
vn 0.000000 1.000000 0.000000
vn 0.000000 1.000000 0.000000
vn 0.000000 1.000000 0.000000
vn -0.531594 0.844763 0.061517
vn -0.531594 0.844763 0.061517
vn -0.531594 0.844763 0.061517
vn -0.531594 0.844763 0.061517
vn 0.061749 0.996139 -0.062409
vn 0.061749 0.996139 -0.062409
vn 0.061749 0.996139 -0.062409
vn 0.002223 0.999994 0.002550
vn 0.002223 0.999994 0.002550
vn 0.002223 0.999994 0.002550
vn 0.002223 0.999994 0.002550
vn 0.006802 0.999975 0.001803
vn 0.006802 0.999975 0.001803
vn 0.006802 0.999975 0.001803
vn 0.006802 0.999975 0.001803
vn -0.029382 0.998778 -0.039732
vn -0.029382 0.998778 -0.039732
vn -0.029382 0.998778 -0.039732
vn -0.029382 0.998778 -0.039732
vn -0.040026 0.998829 0.027179
vn -0.040026 0.998829 0.027179
vn -0.040026 0.998829 0.027179
vn -0.040026 0.998829 0.027179
vn 0.014683 0.999806 0.013162
vn 0.014683 0.999806 0.013162
vn 0.014683 0.999806 0.013162
vn 0.014683 0.999806 0.013162
vn 0.010250 0.999827 -0.015511
vn 0.010250 0.999827 -0.015511
vn 0.010250 0.999827 -0.015511
vn 0.010250 0.999827 -0.015511
vn 0.016704 0.999644 0.020826
vn 0.016704 0.999644 0.020826
vn 0.016704 0.999644 0.020826
vn 0.016704 0.999644 0.020826
vn 0.019855 0.999606 -0.019854
vn 0.019855 0.999606 -0.019854
vn 0.019855 0.999606 -0.019854
vn 0.019855 0.999606 -0.019854
vn 0.066787 0.997767 0.000000
vn 0.066787 0.997767 0.000000
vn 0.066787 0.997767 0.000000
vn 0.016199 0.999869 -0.000000
vn 0.016199 0.999869 -0.000000
vn 0.016199 0.999869 -0.000000
vn 0.037867 0.999216 0.011515
vn 0.037867 0.999216 0.011515
vn 0.037867 0.999216 0.011515
vn 0.037867 0.999216 0.011515
vn 0.050220 0.998738 0.000000
vn 0.050220 0.998738 0.000000
vn 0.050220 0.998738 0.000000
vn -0.062378 0.998053 -0.000000
vn -0.062378 0.998053 -0.000000
vn -0.062378 0.998053 -0.000000
vn 0.049454 0.998776 0.000000
vn 0.049454 0.998776 0.000000
vn 0.049454 0.998776 0.000000
vn 0.049454 0.998776 0.000000
vn 0.049454 0.998776 0.000000
vn 0.049454 0.998776 0.000000
vn 0.000000 1.000000 -0.000000
vn 0.000000 1.000000 -0.000000
vn 0.000000 1.000000 -0.000000
vn -0.415856 0.902861 0.109119
vn -0.415856 0.902860 0.109119
vn -0.415856 0.902861 0.109119
vn -0.415856 0.902861 0.109119
vn -0.005879 0.994932 -0.100383
vn -0.005879 0.994932 -0.100383
vn -0.005879 0.994932 -0.100383
vn -0.127527 0.988462 -0.081732
vn -0.127527 0.988462 -0.081732
vn -0.127527 0.988462 -0.081732
vn -0.127527 0.988462 -0.081732
vn 0.081575 0.993890 0.074359
vn 0.081575 0.993890 0.074359
vn 0.081575 0.993890 0.074359
vn 0.289823 0.861296 0.417340
vn 0.289823 0.861296 0.417340
vn 0.289823 0.861296 0.417340
vn 0.289822 0.861296 0.417340
vn -0.022327 0.965150 0.260742
vn -0.022327 0.965150 0.260742
vn -0.022327 0.965150 0.260742
vn -0.030477 0.995561 -0.089051
vn -0.030477 0.995561 -0.089051
vn -0.030477 0.995561 -0.089051
vn 0.000000 1.000000 0.000000
vn 0.000000 1.000000 0.000000
vn 0.000000 1.000000 0.000000
vn 0.000000 1.000000 0.000000
vn 0.000000 1.000000 0.000000
vn 0.000000 1.000000 0.000000
vn 0.000000 1.000000 0.000000
vn 0.000000 1.000000 0.000000
vn 0.000000 1.000000 0.000000
vn 0.000000 1.000000 -0.000000
vn 0.000000 1.000000 -0.000000
vn 0.000000 1.000000 -0.000000
vn 0.000000 1.000000 0.000000
vn 0.000000 1.000000 0.000000
vn 0.000000 1.000000 0.000000
vn 0.000000 1.000000 0.000000
vn 0.000000 1.000000 0.000000
vn 0.000000 1.000000 0.000000
vn 0.000000 1.000000 0.000000
vn 0.000000 1.000000 0.000000
vn 0.000000 1.000000 0.000000
vn 0.000000 1.000000 0.000000
vn 0.000000 1.000000 0.000000
vn 0.000000 1.000000 0.000000
vn 0.000000 1.000000 0.000000
vn 0.000000 1.000000 0.000000
vn 0.000000 1.000000 0.000000
vn 0.000000 1.000000 -0.000000
vn 0.000000 1.000000 -0.000000
vn 0.000000 1.000000 -0.000000
vn 0.000000 1.000000 0.000000
vn 0.000000 1.000000 0.000000
vn 0.000000 1.000000 0.000000
vn 0.000000 1.000000 -0.000000
vn 0.000000 1.000000 -0.000000
vn 0.000000 1.000000 -0.000000
vn 0.000000 1.000000 0.000000
vn 0.000000 1.000000 0.000000
vn 0.000000 1.000000 0.000000
vn -0.104642 0.990937 -0.084226
vn -0.104642 0.990937 -0.084226
vn -0.104642 0.990937 -0.084226
vn -0.112526 0.991536 0.064765
vn -0.112526 0.991536 0.064765
vn -0.112526 0.991536 0.064765
vn 0.029981 0.987587 -0.154184
vn 0.029981 0.987587 -0.154184
vn 0.029981 0.987587 -0.154184
vn 0.019308 0.988910 0.147255
vn 0.019308 0.988910 0.147255
vn 0.019308 0.988910 0.147255
vn 0.144778 0.989396 -0.011613
vn 0.144778 0.989396 -0.011613
vn 0.144778 0.989396 -0.011613
vn 0.202841 0.967207 -0.152862
vn 0.202841 0.967207 -0.152862
vn 0.202841 0.967207 -0.152862
vn 0.015305 0.996227 -0.085426
vn 0.015305 0.996227 -0.085426
vn 0.015305 0.996227 -0.085426
vn 0.001210 0.918100 -0.396348
vn 0.001210 0.918100 -0.396348
vn 0.001210 0.918100 -0.396348
vn 0.001210 0.918100 -0.396348
vn -0.122228 0.992492 0.004552
vn -0.122228 0.992492 0.004552
vn -0.122228 0.992492 0.004552
vn 0.006842 0.991667 -0.128649
vn 0.006842 0.991667 -0.128649
vn 0.006842 0.991667 -0.128649
vn 0.006842 0.991667 -0.128649
vn 0.000000 1.000000 0.000000
vn 0.000000 1.000000 0.000000
vn 0.000000 1.000000 0.000000
vn 0.000000 1.000000 0.000000
vn 0.000000 1.000000 0.000000
vn 0.000000 1.000000 0.000000
vn -0.361039 0.932543 -0.003732
vn -0.361039 0.932543 -0.003732
vn -0.361039 0.932543 -0.003732
vn -0.361039 0.932543 -0.003732
vn 0.036927 0.994758 0.095353
vn 0.036927 0.994758 0.095353
vn 0.036927 0.994758 0.095353
vn 0.036927 0.994758 0.095353
vn 0.000000 1.000000 0.000000
vn 0.000000 1.000000 0.000000
vn 0.000000 1.000000 0.000000
vn 0.000000 1.000000 0.000000
vn 0.000000 0.997098 0.076129
vn 0.000000 0.997098 0.076129
vn 0.000000 0.997098 0.076129
vn 0.061269 0.997680 -0.029675
vn 0.061269 0.997680 -0.029675
vn 0.061269 0.997680 -0.029675
vn 0.108240 0.992884 0.049653
vn 0.108240 0.992884 0.049653
vn 0.108240 0.992884 0.049653
vn 0.188709 0.943312 -0.273040
vn 0.188709 0.943312 -0.273040
vn 0.188709 0.943312 -0.273040
vn -0.054943 0.995791 0.073364
vn -0.054943 0.995791 0.073364
vn -0.054943 0.995791 0.073364
vn -0.001850 0.999626 -0.027295
vn -0.001850 0.999626 -0.027295
vn -0.001850 0.999626 -0.027295
vn -0.002218 0.999995 0.002095
vn -0.002218 0.999995 0.002095
vn -0.002218 0.999995 0.002095
s off
f 75/109/1 76/110/2 43/69/3 34/44/4
f 45/72/5 46/73/6 87/121/7 31/39/8 32/41/9
f 33/43/10 93/130/11 32/41/12
f 34/44/13 43/69/14 44/71/15 33/42/16
f 88/123/17 97/134/18 30/38/19
f 87/122/20 88/123/21 30/38/22 31/40/23
f 13/15/24 85/119/25 86/120/26
f 66/99/27 67/101/28 13/15/29 12/14/30
f 18/56/31 17/57/32 39/58/33 40/59/34
f 40/59/35 41/60/36 19/61/37 18/56/38
f 41/54/39 20/26/40 19/24/41
f 69/103/42 70/104/43 63/95/44 10/12/45
f 102/142/46 84/118/47 16/20/48
f 101/140/49 102/142/50 16/20/51 17/22/52
f 18/23/53 101/141/54 17/21/55
f 19/25/56 95/132/57 18/23/58
f 20/26/59 56/86/60 57/88/61 19/24/62
f 71/105/63 72/106/64 56/86/65 20/26/66
f 53/83/67 81/115/68 82/116/69 23/29/70
f 52/81/71 53/83/72 23/29/73 24/31/74
f 98/135/75 99/136/76 36/64/77 37/65/78
f 37/65/79 38/66/80 98/135/81
f 38/49/82 34/44/83 33/42/84
f 73/107/85 74/108/86 91/127/87
f 25/32/88 52/82/89 24/30/90
f 26/34/91 92/128/92 25/32/93
f 65/98/94 66/100/95 12/6/96 6/7/97
f 9/17/98 64/96/99 65/98/100 6/7/101
f 27/35/102 91/127/103 92/129/104 26/33/105
f 30/38/106 36/47/107 31/40/108
f 17/22/109 16/20/110 39/52/111
f 10/12/112 63/95/113 64/97/114 9/11/115
f 43/69/116 76/110/117 77/111/118 7/9/119
f 44/71/120 43/69/121 7/9/122 8/10/123
f 45/72/124 44/70/125 8/18/126 5/8/127
f 11/1/128 46/73/129 45/72/130 5/8/131
f 14/16/132 47/75/133 46/74/134 11/13/135
f 78/112/136 79/113/137 47/75/138 14/16/139
f 50/78/140 74/108/141 75/109/142 34/44/143
f 51/80/144 50/78/145 34/44/146 38/49/147
f 25/32/148 51/79/149 38/50/150 37/48/151
f 37/48/152 94/131/153 25/32/154
f 89/124/155 90/126/156 53/83/157 52/81/158
f 90/126/159 81/115/160 53/83/161
f 56/86/162 72/106/163 73/107/164 27/35/165
f 57/88/166 56/86/167 27/35/168 26/33/169
f 58/89/170 57/87/171 26/34/172 25/32/173
f 25/32/174 24/30/175 59/91/176 58/89/177
f 24/31/178 23/29/179 60/92/180 59/90/181
f 82/116/182 83/117/183 60/92/184 23/29/185
f 63/95/186 70/104/187 71/105/188 20/26/189
f 64/97/190 63/95/191 20/26/192 41/54/193
f 65/98/194 64/96/195 41/55/196 40/53/197
f 65/98/198 96/133/199 66/100/200
f 39/52/201 16/20/202 67/101/203 66/99/204
f 84/118/205 85/119/206 16/20/207
f 2/3/208 62/94/209 70/104/210 69/103/211
f 71/105/212 70/104/213 62/94/214 21/27/215
f 21/27/216 55/85/217 72/106/218 71/105/219
f 73/107/220 72/106/221 55/85/222 28/36/223
f 28/36/224 49/77/225 74/108/226 73/107/227
f 75/109/228 74/108/229 49/77/230 35/45/231
f 35/45/232 42/68/233 76/110/234 75/109/235
f 77/111/236 76/110/237 42/68/238 4/4/239
f 3/2/240 48/76/241 79/113/242
f 80/114/243 48/76/244 29/37/245
f 29/37/246 54/84/247 81/115/248 80/114/249
f 22/28/250 81/115/251 54/84/252
f 22/28/253 61/93/254 83/117/255
f 84/118/256 61/93/257 15/19/258
f 15/19/259 68/102/260 84/118/261
f 86/120/262 68/102/263 1/5/264
f 46/74/265 47/75/266 88/123/267 87/122/268
f 47/75/269 79/113/270 88/123/271
f 36/47/272 30/38/273 90/126/274 89/124/275
f 97/134/276 90/126/277 30/38/278
f 92/129/279 91/127/280 50/78/281 51/80/282
f 91/127/283 74/108/284 50/78/285
f 73/107/286 91/127/287 27/35/288
f 32/41/289 93/130/290 45/72/291
f 33/43/292 44/70/293 93/130/294
f 45/72/295 93/130/296 44/70/297
f 37/48/298 36/46/299 94/131/300
f 94/131/301 89/125/302 52/82/303
f 25/32/304 94/131/305 52/82/306
f 94/131/307 36/46/308 89/125/309
f 18/23/310 95/132/311 58/89/312
f 19/25/313 57/87/314 95/132/315
f 58/89/316 95/132/317 57/87/318
f 96/133/319 39/51/320 66/100/321
f 40/53/322 96/133/323 65/98/324
f 40/53/325 39/51/326 96/133/327
f 97/134/328 79/113/329 80/114/330
f 80/114/331 81/115/332 97/134/333
f 88/123/334 79/113/335 97/134/336
f 97/134/337 81/115/338 90/126/339
f 16/20/340 85/119/341 67/101/342
f 67/101/343 85/119/344 13/15/345
f 98/135/346 38/66/347 100/138/348
f 32/62/349 31/63/350 99/136/351 98/135/352
f 31/40/353 36/47/354 99/137/355
f 98/135/356 100/138/357 33/67/358 32/62/359
f 38/49/360 33/42/361 100/139/362
f 25/32/363 92/128/364 51/79/365
f 59/90/366 60/92/367 102/142/368 101/140/369
f 60/92/370 83/117/371 84/118/372 102/142/373
f 58/89/374 59/91/375 101/141/376 18/23/377
f 3/2/378 79/113/379 78/112/380
f 80/114/381 79/113/382 48/76/383
f 82/116/384 81/115/385 22/28/386
f 22/28/387 83/117/388 82/116/389
f 84/118/390 83/117/391 61/93/392
f 84/118/393 68/102/394 85/119/395
f 86/120/396 85/119/397 68/102/398
