# This file uses centimeters as units for non-parametric coordinates.

v 0.000000 0.000000 -500.000000
v 0.000000 0.000000 0.000000
v 0.000000 0.000000 -232.725525
v 500.000000 0.000000 -500.000000
v 500.000000 0.000000 0.000000
v 500.000000 0.000000 -252.166748
v 346.868896 0.000004 -157.048035
v 163.824463 0.000004 -154.429626
v 163.824463 0.000004 -92.862701
v 345.089722 0.000004 -98.696136
v 310.772705 0.000004 -99.298096
v 290.835571 0.000004 -98.661804
v 297.467041 0.000033 -105.827332
v 348.159790 0.000004 -421.334839
v 163.072205 0.000004 -417.724609
v 163.072205 0.000004 -484.439087
v 348.159790 0.000004 -485.733032
v 298.010254 0.000004 -485.705566
v 317.025757 0.000004 -485.836792
v 307.641602 0.000033 -480.490112
v 163.732910 0.000004 -331.518555
v 348.367310 0.000004 -334.005737
v 163.732910 0.000004 -397.222900
v 348.367310 0.000004 -400.622559
v 209.144592 0.000004 -393.930054
v 242.503357 0.000004 -394.546509
v 232.014465 0.000033 -385.260010
v 127.416992 0.000000 0.000000
v 211.041260 0.000000 -500.000000
v 159.599304 0.000004 -14.515781
v 161.094666 0.000004 -64.109802
v 168.771362 0.000004 -74.272919
v 343.627930 0.000004 -77.865601
v 343.627930 0.000004 -17.243958
v 318.545532 0.000004 -15.662003
v 306.109619 0.000033 -22.637177
v 291.586304 0.000004 -15.262222
v 163.072205 0.000004 -173.272705
v 348.159790 0.000004 -178.784180
v 343.627930 0.000004 -316.284180
v 165.179443 0.000004 -312.689209
v 163.854980 0.000004 -254.434204
v 343.627930 0.000004 -258.106995
v 348.159790 0.000004 -236.483765
v 163.072205 0.000004 -234.741211
v 298.010254 0.000004 -236.444092
v 307.641602 0.000033 -229.425049
v 317.025757 0.000004 -236.622620
v 291.586304 0.000004 -255.438232
v 306.109619 0.000033 -265.365601
v 318.545532 0.000004 -255.976868
vt 0.059423 0.003658
vt 0.059422 0.003658
vt 0.059422 0.003658
vt 0.059423 0.003658
vt 0.059422 0.003658
vt 0.059422 0.003658
vt 0.059422 0.003658
vt 0.059423 0.003657
vt 0.059422 0.003657
vt 0.059422 0.003657
vt 0.059423 0.003657
vt 0.059422 0.003657
vt 0.059422 0.003657
vt 0.059422 0.003657
vt 0.059422 0.003658
vt 0.059423 0.003657
vt 0.059423 0.003658
vt 0.059422 0.003657
vt 0.059423 0.003657
vt 0.059423 0.003657
vt 0.059423 0.003657
vt 0.059422 0.003658
vt 0.059422 0.003658
vt 0.059422 0.003658
vt 0.059422 0.003658
vt 0.059423 0.003658
vt 0.059422 0.003658
vt 0.059423 0.003658
vt 0.059423 0.003658
vt 0.059422 0.003658
vt 0.059422 0.003658
vt 0.059423 0.003658
vt 0.059422 0.003658
vt 0.059422 0.003658
vt 0.059422 0.003658
vt 0.059422 0.003658
vt 0.059422 0.003658
vt 0.059422 0.003658
vt 0.059422 0.003658
vt 0.059423 0.003658
vt 0.059422 0.003658
vt 0.059423 0.003658
vt 0.059424 0.003683
vt 0.059421 0.003637
vt 0.059425 0.003645
vt 0.039001 0.036021
vt 0.338693 0.063077
vt 0.341481 0.155513
vt 0.278711 0.036021
vt 0.346570 0.209104
vt 0.584697 0.064468
vt 0.355790 0.174455
vt 0.039001 0.469789
vt 0.634946 0.065213
vt 0.583301 0.219913
vt 0.346570 0.323856
vt 0.970930 0.036021
vt 0.681697 0.068162
vt 0.611770 0.078214
vt 0.681697 0.181152
vt 0.620458 0.221099
vt 0.345167 0.358977
vt 0.684424 0.219977
vt 0.595659 0.233269
vt 0.690143 0.369249
vt 0.687738 0.328736
vt 0.345167 0.473545
vt 0.970930 0.506024
vt 0.346625 0.510251
vt 0.690143 0.476795
vt 0.596672 0.476720
vt 0.584697 0.512123
vt 0.349094 0.618832
vt 0.681697 0.517095
vt 0.614621 0.463636
vt 0.611770 0.530625
vt 0.346398 0.653923
vt 0.681697 0.625529
vt 0.634946 0.513126
vt 0.632112 0.477054
vt 0.690529 0.658562
vt 0.346398 0.776386
vt 0.345167 0.814602
vt 0.039001 0.967951
vt 0.690529 0.782727
vt 0.431039 0.770251
vt 0.345167 0.938947
vt 0.970930 0.967951
vt 0.690143 0.821327
vt 0.493215 0.771398
vt 0.596672 0.941306
vt 0.434573 0.967951
vt 0.690143 0.941361
vt 0.473664 0.754092
vt 0.632112 0.941554
vt 0.614621 0.931585
vn -0.000000 1.000000 -0.000000
vn -0.000000 1.000000 -0.000000
vn 0.000000 1.000000 0.000000
vn -0.000000 1.000000 0.000000
vn -0.000000 1.000000 0.000000
vn -0.000000 1.000000 -0.000000
vn -0.000000 1.000000 -0.000000
vn 0.000000 1.000000 0.000000
vn -0.000000 1.000000 -0.000000
vn 0.000000 1.000000 0.000000
vn 0.000000 1.000000 0.000000
vn -0.000000 1.000000 0.000000
vn -0.000000 1.000000 0.000000
vn -0.000000 1.000000 -0.000000
vn -0.000000 1.000000 -0.000000
vn 0.000000 1.000000 -0.000000
vn 0.000000 1.000000 -0.000000
vn -0.000000 1.000000 0.000000
vn 0.000000 1.000000 -0.000000
vn 0.000000 1.000000 -0.000000
vn -0.000000 1.000000 0.000000
vn -0.000000 1.000000 0.000000
vn 0.000000 1.000000 0.000000
vn 0.000000 1.000000 0.000000
vn -0.000000 1.000000 -0.000000
vn 0.000000 1.000000 -0.000000
vn 0.000000 1.000000 -0.000000
vn 0.000000 1.000000 0.000000
vn 0.000000 1.000000 0.000000
vn -0.000000 1.000000 -0.000000
vn 0.000000 1.000000 0.000000
vn -0.000000 1.000000 -0.000000
vn -0.000000 1.000000 -0.000000
vn 0.000000 1.000000 0.000000
vn 0.000000 1.000000 0.000000
vn 0.000000 1.000000 0.000000
vn 0.000000 1.000000 0.000000
vn 0.000000 1.000000 0.000000
vn -0.000000 1.000000 0.000000
vn 0.000000 1.000000 0.000000
vn 0.000000 1.000000 -0.000000
vn 0.000000 1.000000 -0.000000
vn 0.000000 1.000000 0.000000
vn 0.000000 1.000000 0.000000
vn 0.000000 1.000000 0.000000
vn 0.000000 1.000000 0.000000
vn 0.000000 1.000000 0.000000
vn -0.000000 1.000000 -0.000000
vn -0.000000 1.000000 -0.000000
vn 0.000000 1.000000 0.000000
vn 0.000000 1.000000 0.000000
vn 0.000000 1.000000 0.000000
vn 0.000000 1.000000 0.000000
vn 0.000000 1.000000 0.000000
vn 0.000000 1.000000 0.000000
vn 0.000000 1.000000 0.000000
vn 0.000000 1.000000 0.000000
vn -0.000000 1.000000 -0.000000
vn 0.000000 1.000000 0.000000
vn 0.000000 1.000000 0.000000
vn 0.000000 1.000000 0.000000
vn 0.000000 1.000000 0.000000
vn 0.000000 1.000000 0.000000
vn 0.000000 1.000000 0.000000
vn 0.000000 1.000000 0.000000
vn 0.000000 1.000000 0.000000
vn 0.000000 1.000000 0.000000
vn 0.000000 1.000000 0.000000
vn 0.000000 1.000000 0.000000
vn 0.000000 1.000000 0.000000
vn 0.000000 1.000000 0.000000
vn 0.000000 1.000000 0.000000
vn 0.000000 1.000000 0.000000
vn 0.000000 1.000000 0.000000
vn 0.000000 1.000000 0.000000
vn 0.000000 1.000000 0.000000
vn 0.000000 1.000000 0.000000
vn 0.000000 1.000000 0.000000
vn 0.000000 1.000000 0.000000
vn 0.000000 1.000000 0.000000
vn 0.000000 1.000000 0.000000
vn 0.000000 1.000000 0.000000
vn 0.000000 1.000000 0.000000
vn 0.000000 1.000000 0.000000
vn 0.000000 1.000000 0.000000
vn 0.000000 1.000000 0.000000
vn 0.000000 1.000000 0.000000
vn 0.000000 1.000000 0.000000
vn 0.000000 1.000000 0.000000
vn 0.000000 1.000000 0.000000
vn 0.000000 1.000000 0.000000
vn 0.000000 1.000000 0.000000
vn 0.000000 1.000000 0.000000
vn 0.000000 1.000000 0.000000
vn 0.000000 1.000000 0.000000
vn -0.000000 1.000000 -0.000000
vn -0.000000 1.000000 -0.000006
vn -0.000000 1.000000 -0.000000
vn -0.000000 1.000000 -0.000000
vn -0.000000 1.000000 -0.000003
vn -0.000000 1.000000 -0.000000
vn 0.000000 1.000000 0.000000
vn 0.000000 1.000000 0.000004
vn 0.000000 1.000000 0.000000
vn 0.000000 1.000000 0.000000
vn 0.000000 1.000000 0.000004
vn 0.000000 1.000000 0.000000
vn 0.000000 1.000000 0.000000
vn 0.000000 1.000000 0.000000
vn 0.000000 1.000000 0.000000
vn 0.000000 1.000000 0.000000
vn 0.000000 1.000000 0.000000
vn 0.000000 1.000000 0.000000
vn 0.000000 1.000000 0.000000
vn 0.000000 1.000000 0.000000
vn 0.000000 1.000000 0.000000
vn 0.000000 1.000000 0.000000
vn 0.000000 1.000000 0.000000
vn 0.000000 1.000000 0.000000
vn 0.000000 1.000000 0.000000
vn 0.000000 1.000000 0.000000
vn -0.000000 1.000000 -0.000000
vn 0.000000 1.000000 0.000000
vn 0.000000 1.000000 0.000000
vn 0.000000 1.000000 0.000000
vn -0.000000 1.000000 -0.000000
vn 0.000000 1.000000 0.000000
vn 0.000000 1.000000 0.000000
vn -0.000000 1.000000 -0.000000
vn 0.000000 1.000000 0.000000
vn 0.000000 1.000000 0.000000
vn 0.000000 1.000000 0.000000
vn -0.000000 1.000000 -0.000000
vn -0.000000 1.000000 -0.000000
vn 0.000000 1.000000 -0.000000
vn 0.000000 1.000000 -0.000000
vn 0.000001 1.000000 0.000000
vn 0.000001 1.000000 0.000000
vn -0.000000 1.000000 0.000000
vn -0.000000 1.000000 0.000000
vn 0.000000 1.000000 -0.000000
vn -0.000000 1.000000 0.000000
vn -0.000000 1.000000 0.000000
vn 0.000000 1.000000 -0.000000
vn 0.000000 1.000000 -0.000000
vn -0.000000 1.000000 0.000000
vn -0.000000 1.000000 0.000000
vn 0.000000 1.000000 0.000000
vn 0.000000 1.000000 0.000000
vn 0.000000 1.000000 0.000000
vn 0.000000 1.000000 0.000000
vn 0.000000 1.000000 -0.000000
vn 0.000000 1.000000 -0.000000
vn 0.000000 1.000000 0.000000
vn 0.000000 1.000000 0.000000
vn 0.000000 1.000000 0.000000
vn 0.000000 1.000000 0.000000
vn 0.000000 1.000000 0.000000
vn 0.000000 1.000000 0.000000
vn -0.000000 1.000000 -0.000000
vn -0.000000 1.000000 -0.000000
vn -0.000000 1.000000 -0.000000
vn -0.000000 1.000000 -0.000000
vn 0.000000 1.000000 0.000000
vn -0.000000 1.000000 -0.000000
vn -0.000000 1.000000 -0.000000
vn 0.000000 1.000000 0.000000
vn -0.000000 1.000000 -0.000000
vn -0.000000 1.000000 -0.000000
vn 0.000000 1.000000 0.000000
vn 0.000000 1.000000 0.000000
vn 0.000000 1.000000 0.000000
vn 0.000000 1.000000 0.000000
vn 0.000000 1.000000 0.000000
vn 0.000000 1.000000 0.000000
vn -0.000002 1.000000 0.000000
vn -0.000002 1.000000 0.000000
vn -0.000002 1.000000 0.000000
vn -0.000002 1.000000 0.000000
vn -0.000000 1.000000 -0.000000
vn -0.000000 1.000000 -0.000000
vn -0.000000 1.000000 -0.000000
vn -0.000000 1.000000 -0.000000
vn 0.000003 1.000000 -0.000000
vn 0.000003 1.000000 -0.000000
vn 0.000003 1.000000 -0.000000
vn 0.000003 1.000000 -0.000000
vn 0.000000 1.000000 0.000000
vn 0.000000 1.000000 0.000000
vn 0.000000 1.000000 0.000000
vn 0.000000 1.000000 0.000000
vn 0.000000 1.000000 0.000000
vn 0.000000 1.000000 0.000000
vn 0.000000 1.000000 0.000000
vn -0.000000 1.000000 0.000000
vn 0.000000 1.000000 0.000000
vn 0.000000 1.000000 0.000000
vn -0.000000 1.000000 0.000000
vn -0.000000 1.000000 0.000000
vn -0.000000 1.000000 0.000000
vn -0.000000 1.000000 0.000000
vn -0.000000 1.000000 -0.000000
vn -0.000000 1.000000 -0.000000
vn 0.000000 1.000000 -0.000000
vn 0.000000 1.000000 -0.000000
vn -0.000000 1.000000 0.000000
vn 0.000000 1.000000 -0.000000
vn 0.000000 1.000000 -0.000000
vn -0.000000 1.000000 0.000000
vn -0.000000 1.000000 0.000000
vn 0.000000 1.000000 -0.000000
vn 0.000000 1.000000 -0.000000
vn 0.000001 1.000000 0.000000
vn 0.000001 1.000000 0.000000
vn -0.000000 1.000000 0.000000
vn -0.000000 1.000000 0.000000
vn 0.000000 1.000000 -0.000000
vn -0.000000 1.000000 0.000000
vn -0.000000 1.000000 0.000000
vn 0.000000 1.000000 -0.000000
vn 0.000000 1.000000 -0.000000
vn 0.000000 1.000000 0.000000
vn 0.000000 1.000000 0.000000
vn 0.000000 1.000000 0.000000
s off
f 8/1/1 13/2/2 7/3/3
f 9/4/4 12/5/5 13/2/6 8/1/7
f 7/3/8 13/2/9 11/6/10 10/7/11
f 15/8/12 20/9/13 18/10/14 16/11/15
f 17/12/16 19/13/17 20/9/18 14/14/19
f 14/14/20 20/9/21 15/8/22
f 22/15/23 27/16/24 21/17/25
f 24/18/26 26/19/27 27/16/28 22/15/29
f 21/17/30 27/16/31 25/20/32 23/21/33
f 2/46/34 30/47/35 31/48/36
f 3/53/37 8/56/38 38/62/39
f 6/68/40 43/74/41 44/70/42
f 28/49/43 35/54/44 37/51/45
f 14/89/46 15/83/47 25/86/48 26/90/49
f 9/50/50 32/52/51 12/55/52
f 31/48/53 32/52/54 9/50/55
f 1/84/56 16/87/57 18/91/58 29/92/59
f 4/88/60 17/93/61 14/89/62
f 3/53/63 23/82/64 15/83/65 1/84/66
f 3/53/67 9/50/68 8/56/69
f 3/53/70 21/77/71 23/82/72
f 6/68/73 24/85/74 22/81/75
f 10/63/76 6/68/77 7/66/78
f 5/57/79 6/68/80 10/63/81 33/60/82
f 2/46/83 9/50/84 3/53/85
f 1/84/86 15/83/87 16/87/88
f 4/88/89 14/89/90 24/85/91 6/68/92
f 5/57/93 33/60/94 34/58/95
f 18/91/96 20/96/97 19/95/98
f 25/86/99 27/94/100 26/90/101
f 11/61/102 13/64/103 12/55/104
f 35/54/105 36/59/106 37/51/107
f 5/57/108 34/58/109 35/54/110 28/49/111
f 28/49/112 30/47/113 2/46/114
f 11/61/115 33/60/116 10/63/117
f 12/55/118 32/52/119 33/60/120 11/61/121
f 25/86/122 15/83/123 23/82/124
f 14/89/125 26/90/126 24/85/127
f 29/92/128 19/95/129 17/93/130 4/88/131
f 29/92/132 18/91/133 19/95/134
f 33/22/135 36/23/136 35/24/137 34/25/138
f 30/26/139 37/27/140 36/23/141 32/28/142
f 32/28/143 36/23/144 33/22/145
f 30/43/146 32/44/147 31/45/148
f 28/49/149 37/51/150 30/47/151
f 39/65/152 38/62/153 8/56/154 7/66/155
f 22/81/156 21/77/157 41/73/158 40/78/159
f 46/71/160 49/72/161 42/69/162 45/67/163
f 3/53/164 42/69/165 41/73/166
f 3/53/167 45/67/168 42/69/169
f 6/68/170 22/81/171 40/78/172
f 6/68/173 44/70/174 39/65/175
f 47/75/176 50/76/177 49/72/178 46/71/179
f 43/74/180 51/79/181 48/80/182 44/70/183
f 48/80/184 51/79/185 50/76/186 47/75/187
f 6/68/188 39/65/189 7/66/190
f 6/68/191 40/78/192 43/74/193
f 3/53/194 41/73/195 21/77/196
f 3/53/197 38/62/198 45/67/199
f 38/29/200 47/30/201 46/31/202 45/32/203
f 44/33/204 48/34/205 47/30/206 39/35/207
f 39/35/208 47/30/209 38/29/210
f 40/36/211 50/37/212 51/38/213 43/39/214
f 42/40/215 49/41/216 50/37/217 41/42/218
f 41/42/219 50/37/220 40/36/221
f 2/46/222 31/48/223 9/50/224
