# This file uses centimeters as units for non-parametric coordinates.

v 69.682777 -270.162994 -259.939117
v 69.682800 -270.162994 -242.611389
v 69.682777 -49.060551 -259.939117
v 69.682800 -49.060551 -242.611389
v 87.010475 -49.060551 -259.939117
v 87.010483 -49.060551 -242.611389
v 87.010475 -270.162994 -259.939117
v 87.010483 -270.162994 -242.611389
v 70.710663 -70.710670 -500.000000
v 100.000000 0.000000 -500.000000
v 70.710663 70.710670 -500.000000
v 0.000000 99.999992 -500.000000
v -70.710663 70.710670 -500.000000
v -100.000000 0.000000 -500.000000
v -70.710663 -70.710678 -500.000000
v 0.000000 -100.000000 -500.000000
v 70.710663 -70.710670 0.000000
v 100.000000 -0.000000 0.000000
v 70.710663 70.710670 0.000000
v 0.000000 99.999992 0.000000
v -70.710663 70.710670 0.000000
v -100.000000 -0.000000 0.000000
v -70.710663 -70.710678 0.000000
v 0.000000 -100.000000 0.000000
v 0.000000 0.000000 -500.000000
v 0.000000 -0.000000 0.000000
v -70.710663 70.710670 -233.382492
v 0.000000 99.999992 -233.382507
v 70.710670 70.710670 -233.382523
v 99.999992 -0.000000 -233.382507
v 70.710670 -70.710670 -233.382523
v 0.000000 -100.000000 -233.382507
v -70.710663 -70.710678 -233.382462
v -100.000000 -0.000000 -233.382507
v -70.710663 70.710670 -269.926147
v 0.000000 99.999992 -269.926147
v 70.710663 70.710670 -269.926147
v 99.999985 0.000000 -269.926147
v 70.710663 -70.710670 -269.926147
v 0.000000 -100.000000 -269.926147
v -70.710663 -70.710678 -269.926147
v -100.000000 0.000000 -269.926147
v -81.986618 81.986595 -266.673920
v 0.000000 115.946564 -266.673950
v -81.986618 81.986595 -236.634613
v 0.000000 115.946564 -236.634644
v 81.986626 81.986595 -266.673950
v 81.986618 81.986595 -236.634644
v 115.946587 0.000001 -266.673950
v 115.946579 0.000001 -236.634644
v 81.986626 -81.986595 -266.673950
v 81.986618 -81.986595 -236.634644
v 0.000000 -115.946579 -266.673950
v 0.000000 -115.946579 -236.634644
v -81.986618 -81.986603 -266.673981
v -81.986618 -81.986603 -236.634628
v -115.946579 0.000001 -266.673981
v -115.946579 0.000001 -236.634628
v -84.384155 -270.162994 -259.939056
v -84.384155 -270.162994 -242.611374
v -84.384155 -49.060551 -259.939056
v -84.384155 -49.060551 -242.611374
v -67.056465 -49.060551 -259.939056
v -67.056465 -49.060551 -242.611374
v -67.056465 -270.162994 -259.939056
v -67.056465 -270.162994 -242.611374
vt 0.026047 0.255353
vt 0.026047 0.255353
vt 0.026047 0.255353
vt 0.026047 0.255353
vt 0.026047 0.255353
vt 0.026047 0.255353
vt 0.026047 0.255353
vt 0.026047 0.255353
vt 0.026047 0.255353
vt 0.026047 0.255353
vt 0.026047 0.255353
vt 0.026047 0.255353
vt 0.026047 0.255353
vt 0.026047 0.255353
vt 0.026536 0.252157
vt 0.026536 0.252157
vt 0.026536 0.252157
vt 0.026536 0.252157
vt 0.026536 0.252157
vt 0.026536 0.252157
vt 0.026536 0.252157
vt 0.026536 0.252157
vt 0.026536 0.252157
vt 0.026536 0.252157
vt 0.026536 0.252157
vt 0.026536 0.252157
vt 0.026536 0.252157
vt 0.026536 0.252157
vt 0.026536 0.252157
vt 0.026536 0.252157
vt 0.026536 0.252157
vt 0.026536 0.252157
vt 0.026536 0.252157
vt 0.026536 0.252157
vt 0.026536 0.252157
vt 0.026536 0.252157
vt 0.026536 0.252157
vt 0.026536 0.252157
vt 0.026536 0.252157
vt 0.026536 0.252157
vt 0.026536 0.252157
vt 0.026536 0.252157
vt 0.026536 0.252157
vt 0.026536 0.252157
vt 0.026536 0.252157
vt 0.026536 0.252157
vt 0.026536 0.252157
vt 0.026536 0.252157
vt 0.026536 0.252157
vt 0.026536 0.252157
vt 0.026536 0.252157
vt 0.026536 0.252157
vt 0.026536 0.252157
vt 0.026536 0.252157
vt 0.026536 0.252157
vt 0.026536 0.252157
vt 0.026536 0.252157
vt 0.026536 0.252157
vt 0.026536 0.252157
vt 0.026536 0.252157
vt 0.026536 0.252157
vt 0.026536 0.252157
vt 0.026536 0.252157
vt 0.026536 0.252157
vt 0.026536 0.252157
vt 0.026536 0.252157
vt 0.026536 0.252157
vt 0.026536 0.252157
vt 0.026536 0.252157
vt 0.026536 0.252157
vt 0.026536 0.252157
vt 0.026536 0.252157
vt 0.026536 0.252157
vt 0.026536 0.252157
vt 0.026536 0.252157
vt 0.026536 0.252157
vt 0.026536 0.252157
vt 0.026536 0.252157
vt 0.026536 0.252157
vt 0.026536 0.252157
vt 0.026536 0.252157
vt 0.026536 0.252157
vt 0.026536 0.252157
vt 0.026536 0.252157
vt 0.026536 0.252157
vt 0.026536 0.252157
vt 0.026047 0.255353
vt 0.026047 0.255353
vt 0.026047 0.255353
vt 0.026047 0.255353
vt 0.026047 0.255353
vt 0.026047 0.255353
vt 0.026047 0.255353
vt 0.026047 0.255353
vt 0.026047 0.255353
vt 0.026047 0.255353
vt 0.026047 0.255353
vt 0.026047 0.255353
vt 0.026047 0.255353
vt 0.026047 0.255353
vn -1.000000 0.000000 0.000001
vn -1.000000 0.000000 0.000001
vn -1.000000 0.000000 0.000001
vn -1.000000 0.000000 0.000001
vn 0.000000 1.000000 0.000000
vn 0.000000 1.000000 0.000000
vn 0.000000 1.000000 0.000000
vn 0.000000 1.000000 0.000000
vn 1.000000 0.000000 -0.000000
vn 1.000000 0.000000 -0.000000
vn 1.000000 0.000000 -0.000000
vn 1.000000 0.000000 -0.000000
vn 0.000000 -1.000000 -0.000002
vn 0.000000 -1.000000 -0.000002
vn 0.000000 -1.000000 -0.000002
vn 0.000000 -1.000000 -0.000002
vn 0.000000 0.000000 1.000000
vn 0.000000 0.000000 1.000000
vn 0.000000 0.000000 1.000000
vn 0.000000 0.000000 1.000000
vn 0.000000 0.000000 -1.000000
vn 0.000000 0.000000 -1.000000
vn 0.000000 0.000000 -1.000000
vn 0.000000 0.000000 -1.000000
vn 0.923880 -0.382683 0.000000
vn 0.923880 -0.382683 0.000000
vn 0.923880 -0.382683 0.000000
vn 0.923880 -0.382683 0.000000
vn 0.923880 0.382683 0.000000
vn 0.923880 0.382683 0.000000
vn 0.923880 0.382683 0.000000
vn 0.923880 0.382683 0.000000
vn 0.382684 0.923880 0.000000
vn 0.382684 0.923880 0.000000
vn 0.382684 0.923880 0.000000
vn 0.382684 0.923880 0.000000
vn -0.382684 0.923880 0.000000
vn -0.382684 0.923880 0.000000
vn -0.382684 0.923880 0.000000
vn -0.382684 0.923880 0.000000
vn -0.923880 0.382684 0.000000
vn -0.923880 0.382684 0.000000
vn -0.923880 0.382684 0.000000
vn -0.923880 0.382684 0.000000
vn -0.923880 -0.382684 0.000000
vn -0.923880 -0.382684 0.000000
vn -0.923880 -0.382684 0.000000
vn -0.923880 -0.382684 0.000000
vn -0.382684 -0.923880 0.000000
vn -0.382684 -0.923880 0.000000
vn -0.382684 -0.923880 0.000000
vn -0.382684 -0.923880 0.000000
vn 0.382684 -0.923879 0.000000
vn 0.382684 -0.923879 0.000000
vn 0.382684 -0.923879 0.000000
vn 0.382684 -0.923879 0.000000
vn 0.000000 0.000000 -1.000000
vn 0.000000 0.000000 -1.000000
vn 0.000000 0.000000 -1.000000
vn 0.000000 0.000000 -1.000000
vn 0.000000 0.000000 -1.000000
vn 0.000000 0.000000 -1.000000
vn 0.000000 0.000000 -1.000000
vn 0.000000 0.000000 -1.000000
vn 0.000000 0.000000 -1.000000
vn 0.000000 0.000000 -1.000000
vn 0.000000 0.000000 -1.000000
vn 0.000000 0.000000 -1.000000
vn 0.000000 0.000000 -1.000000
vn 0.000000 0.000000 -1.000000
vn 0.000000 0.000000 -1.000000
vn 0.000000 0.000000 -1.000000
vn 0.000000 0.000000 -1.000000
vn 0.000000 0.000000 -1.000000
vn 0.000000 0.000000 -1.000000
vn 0.000000 0.000000 -1.000000
vn 0.000000 0.000000 -1.000000
vn 0.000000 0.000000 -1.000000
vn 0.000000 0.000000 -1.000000
vn 0.000000 0.000000 -1.000000
vn 0.000000 0.000000 1.000000
vn 0.000000 0.000000 1.000000
vn 0.000000 0.000000 1.000000
vn 0.000000 0.000000 1.000000
vn 0.000000 0.000000 1.000000
vn 0.000000 0.000000 1.000000
vn 0.000000 0.000000 1.000000
vn 0.000000 0.000000 1.000000
vn 0.000000 0.000000 1.000000
vn 0.000000 0.000000 1.000000
vn 0.000000 0.000000 1.000000
vn 0.000000 0.000000 1.000000
vn 0.000000 0.000000 1.000000
vn 0.000000 0.000000 1.000000
vn 0.000000 0.000000 1.000000
vn 0.000000 0.000000 1.000000
vn 0.000000 0.000000 1.000000
vn 0.000000 0.000000 1.000000
vn 0.000000 0.000000 1.000000
vn 0.000000 0.000000 1.000000
vn 0.000000 0.000000 1.000000
vn 0.000000 0.000000 1.000000
vn 0.000000 0.000000 1.000000
vn 0.000000 0.000000 1.000000
vn -0.382684 0.923880 0.000000
vn -0.382683 0.923880 0.000000
vn -0.382684 0.923880 0.000000
vn -0.382684 0.923880 0.000000
vn 0.382683 0.923880 -0.000000
vn 0.382683 0.923880 -0.000000
vn 0.382683 0.923880 -0.000000
vn 0.382683 0.923880 -0.000000
vn 0.923879 0.382684 -0.000000
vn 0.923879 0.382684 -0.000000
vn 0.923879 0.382684 -0.000000
vn 0.923879 0.382684 -0.000000
vn 0.923879 -0.382684 0.000000
vn 0.923879 -0.382684 0.000000
vn 0.923879 -0.382684 0.000000
vn 0.923879 -0.382684 0.000000
vn 0.382684 -0.923880 0.000000
vn 0.382684 -0.923880 0.000000
vn 0.382684 -0.923879 0.000000
vn 0.382684 -0.923879 0.000000
vn -0.382683 -0.923880 0.000000
vn -0.382684 -0.923880 0.000000
vn -0.382683 -0.923880 0.000000
vn -0.382683 -0.923880 0.000000
vn -0.923879 -0.382684 0.000000
vn -0.923880 -0.382684 0.000000
vn -0.923879 -0.382684 0.000000
vn -0.923879 -0.382684 0.000000
vn -0.923880 0.382684 0.000000
vn -0.923880 0.382684 0.000000
vn -0.923879 0.382684 0.000000
vn -0.923879 0.382684 0.000000
vn -0.382684 0.923879 0.000000
vn -0.382684 0.923879 0.000000
vn -0.382684 0.923879 0.000000
vn -0.382684 0.923879 0.000000
vn 0.382684 0.923880 -0.000000
vn 0.382684 0.923879 -0.000000
vn 0.382684 0.923879 -0.000000
vn 0.382684 0.923880 -0.000000
vn 0.923880 0.382684 0.000000
vn 0.923880 0.382684 0.000000
vn 0.923880 0.382684 0.000000
vn 0.923880 0.382684 0.000000
vn 0.923880 -0.382684 0.000000
vn 0.923880 -0.382684 0.000000
vn 0.923880 -0.382684 0.000000
vn 0.923880 -0.382684 0.000000
vn 0.382684 -0.923879 0.000000
vn 0.382684 -0.923880 0.000000
vn 0.382684 -0.923880 0.000000
vn 0.382684 -0.923879 0.000000
vn -0.382683 -0.923880 0.000000
vn -0.382683 -0.923880 0.000000
vn -0.382683 -0.923880 0.000000
vn -0.382683 -0.923880 0.000000
vn -0.923880 -0.382683 0.000000
vn -0.923880 -0.382683 0.000000
vn -0.923880 -0.382683 0.000000
vn -0.923880 -0.382683 0.000000
vn -0.923880 0.382684 0.000000
vn -0.923880 0.382683 0.000000
vn -0.923880 0.382684 0.000000
vn -0.923880 0.382683 0.000000
vn -0.082490 0.199150 -0.976491
vn -0.082490 0.199150 -0.976491
vn -0.082490 0.199150 -0.976491
vn -0.082490 0.199150 -0.976491
vn -0.082488 0.199145 0.976492
vn -0.082488 0.199145 0.976492
vn -0.082488 0.199145 0.976492
vn -0.082488 0.199145 0.976492
vn 0.082490 0.199149 -0.976491
vn 0.082490 0.199149 -0.976491
vn 0.082490 0.199149 -0.976491
vn 0.082490 0.199149 -0.976491
vn 0.082489 0.199145 0.976492
vn 0.082489 0.199145 0.976492
vn 0.082489 0.199145 0.976492
vn 0.082489 0.199145 0.976492
vn 0.199147 0.082490 -0.976492
vn 0.199147 0.082490 -0.976492
vn 0.199147 0.082490 -0.976492
vn 0.199147 0.082490 -0.976492
vn 0.199146 0.082488 0.976492
vn 0.199146 0.082488 0.976492
vn 0.199146 0.082488 0.976492
vn 0.199146 0.082488 0.976492
vn 0.199148 -0.082490 -0.976492
vn 0.199148 -0.082490 -0.976491
vn 0.199148 -0.082490 -0.976491
vn 0.199148 -0.082490 -0.976492
vn 0.199146 -0.082488 0.976492
vn 0.199146 -0.082489 0.976492
vn 0.199146 -0.082488 0.976492
vn 0.199146 -0.082488 0.976492
vn 0.082490 -0.199149 -0.976491
vn 0.082490 -0.199149 -0.976491
vn 0.082490 -0.199149 -0.976491
vn 0.082490 -0.199149 -0.976491
vn 0.082489 -0.199145 0.976492
vn 0.082489 -0.199145 0.976492
vn 0.082489 -0.199145 0.976492
vn 0.082489 -0.199145 0.976492
vn -0.082490 -0.199148 -0.976491
vn -0.082490 -0.199148 -0.976491
vn -0.082490 -0.199148 -0.976491
vn -0.082490 -0.199148 -0.976491
vn -0.082489 -0.199146 0.976492
vn -0.082489 -0.199146 0.976492
vn -0.082489 -0.199146 0.976492
vn -0.082489 -0.199146 0.976492
vn -0.199147 -0.082489 -0.976492
vn -0.199147 -0.082489 -0.976492
vn -0.199147 -0.082489 -0.976492
vn -0.199147 -0.082489 -0.976492
vn -0.199146 -0.082489 0.976492
vn -0.199146 -0.082489 0.976492
vn -0.199146 -0.082489 0.976492
vn -0.199146 -0.082489 0.976492
vn -0.199148 0.082490 -0.976491
vn -0.199148 0.082490 -0.976491
vn -0.199148 0.082490 -0.976491
vn -0.199148 0.082490 -0.976491
vn -0.199144 0.082488 0.976492
vn -0.199144 0.082488 0.976492
vn -0.199144 0.082488 0.976492
vn -0.199144 0.082488 0.976492
vn -1.000000 0.000000 0.000000
vn -1.000000 0.000000 0.000000
vn -1.000000 0.000000 0.000000
vn -1.000000 0.000000 0.000000
vn 0.000000 1.000000 0.000000
vn 0.000000 1.000000 0.000000
vn 0.000000 1.000000 0.000000
vn 0.000000 1.000000 0.000000
vn 1.000000 0.000000 0.000000
vn 1.000000 0.000000 0.000000
vn 1.000000 0.000000 0.000000
vn 1.000000 0.000000 0.000000
vn 0.000000 -1.000000 0.000000
vn 0.000000 -1.000000 0.000000
vn 0.000000 -1.000000 0.000000
vn 0.000000 -1.000000 0.000000
vn 0.000000 0.000000 1.000000
vn 0.000000 0.000000 1.000000
vn 0.000000 0.000000 1.000000
vn 0.000000 0.000000 1.000000
vn 0.000000 0.000000 -1.000000
vn 0.000000 0.000000 -1.000000
vn 0.000000 0.000000 -1.000000
vn 0.000000 0.000000 -1.000000
s off
f 1/1/1 2/2/2 4/4/3 3/3/4
f 3/3/5 4/4/6 6/6/7 5/5/8
f 5/5/9 6/6/10 8/8/11 7/7/12
f 7/7/13 8/8/14 2/10/15 1/9/16
f 2/2/17 8/11/18 6/12/19 4/4/20
f 7/13/21 1/1/22 3/3/23 5/14/24
f 9/15/25 10/16/26 38/17/27 39/18/28
f 10/16/29 11/19/30 37/20/31 38/17/32
f 11/19/33 12/21/34 36/22/35 37/20/36
f 12/21/37 13/23/38 35/24/39 36/22/40
f 13/23/41 14/25/42 42/26/43 35/24/44
f 14/25/45 15/27/46 41/28/47 42/26/48
f 15/27/49 16/29/50 40/30/51 41/28/52
f 16/29/53 9/31/54 39/32/55 40/30/56
f 10/33/57 9/34/58 25/35/59
f 11/36/60 10/33/61 25/35/62
f 12/37/63 11/36/64 25/35/65
f 13/38/66 12/37/67 25/35/68
f 14/39/69 13/38/70 25/35/71
f 15/40/72 14/39/73 25/35/74
f 16/41/75 15/40/76 25/35/77
f 9/34/78 16/41/79 25/35/80
f 17/42/81 18/43/82 26/44/83
f 18/43/84 19/45/85 26/44/86
f 19/45/87 20/46/88 26/44/89
f 20/46/90 21/47/91 26/44/92
f 21/47/93 22/48/94 26/44/95
f 22/48/96 23/49/97 26/44/98
f 23/49/99 24/50/100 26/44/101
f 24/50/102 17/42/103 26/44/104
f 28/51/105 27/52/106 21/53/107 20/54/108
f 29/55/109 28/51/110 20/54/111 19/56/112
f 30/57/113 29/55/114 19/56/115 18/58/116
f 31/59/117 30/57/118 18/58/119 17/60/120
f 32/61/121 31/62/122 17/63/123 24/64/124
f 33/65/125 32/61/126 24/64/127 23/66/128
f 34/67/129 33/65/130 23/66/131 22/68/132
f 27/52/133 34/67/134 22/68/135 21/53/136
f 44/69/137 43/70/138 45/71/139 46/72/140
f 47/73/141 44/69/142 46/72/143 48/74/144
f 49/75/145 47/73/146 48/74/147 50/76/148
f 51/77/149 49/75/150 50/76/151 52/78/152
f 53/79/153 51/80/154 52/81/155 54/82/156
f 55/83/157 53/79/158 54/82/159 56/84/160
f 57/85/161 55/83/162 56/84/163 58/86/164
f 43/70/165 57/85/166 58/86/167 45/71/168
f 36/22/169 35/24/170 43/70/171 44/69/172
f 27/52/173 28/51/174 46/72/175 45/71/176
f 37/20/177 36/22/178 44/69/179 47/73/180
f 28/51/181 29/55/182 48/74/183 46/72/184
f 38/17/185 37/20/186 47/73/187 49/75/188
f 29/55/189 30/57/190 50/76/191 48/74/192
f 39/18/193 38/17/194 49/75/195 51/77/196
f 30/57/197 31/59/198 52/78/199 50/76/200
f 40/30/201 39/32/202 51/80/203 53/79/204
f 31/62/205 32/61/206 54/82/207 52/81/208
f 41/28/209 40/30/210 53/79/211 55/83/212
f 32/61/213 33/65/214 56/84/215 54/82/216
f 42/26/217 41/28/218 55/83/219 57/85/220
f 33/65/221 34/67/222 58/86/223 56/84/224
f 35/24/225 42/26/226 57/85/227 43/70/228
f 34/67/229 27/52/230 45/71/231 58/86/232
f 59/87/233 60/88/234 62/89/235 61/90/236
f 61/90/237 62/89/238 64/91/239 63/92/240
f 63/92/241 64/91/242 66/93/243 65/94/244
f 65/94/245 66/93/246 60/95/247 59/96/248
f 60/88/249 66/97/250 64/98/251 62/89/252
f 65/99/253 59/87/254 61/90/255 63/100/256
