# This file uses centimeters as units for non-parametric coordinates.

v 24.353409 -1.978022 -74.218941
v 4.589081 9.670743 -5.852866
v -24.977493 -1.978022 17.160677
v -27.816010 -1.978022 -5.547845
v -13.469696 -1.978022 -15.631056
v 8.102798 -1.978022 96.967293
v 21.129608 -1.978022 -14.659619
v 27.816010 -1.978022 23.196590
v 16.509247 -1.978022 93.093521
v -1.428223 6.310816 25.524843
v 15.384293 -1.978022 -96.967102
v -14.034653 7.981835 4.865384
v -18.079758 -1.978022 64.847679
v -11.639404 -1.978022 -58.024010
vt 0.176840 0.276627
vt 0.176840 0.276627
vt 0.176840 0.276627
vt 0.176840 0.276627
vt 0.176840 0.276627
vt 0.176840 0.276627
vt 0.176840 0.276627
vt 0.176840 0.276627
vt 0.176840 0.276627
vt 0.176840 0.276627
vt 0.176840 0.276627
vt 0.176840 0.276627
vt 0.176840 0.276627
vt 0.176840 0.276627
vn 0.127153 0.925903 -0.355717
vn -0.214468 0.965326 -0.148825
vn -0.214468 0.965326 -0.148825
vn -0.297899 0.855341 -0.423848
vn -0.167415 0.977863 0.125527
vn -0.167415 0.977863 0.125527
vn -0.147970 0.988241 0.038525
vn -0.621894 0.779234 0.077735
vn -0.192888 0.981032 -0.019226
vn 0.143102 0.924057 -0.354459
vn 0.143102 0.924057 -0.354459
vn 0.586753 0.809143 0.031760
vn 0.538814 0.837032 -0.095169
vn 0.538814 0.837032 -0.095169
vn 0.174661 0.984461 -0.018178
vn 0.275707 0.960207 0.044599
vn 0.275707 0.960207 0.044599
vn 0.275707 0.960207 0.044599
vn -0.147970 0.988241 0.038525
vn -0.347427 0.936359 0.050254
vn -0.347427 0.936359 0.050254
vn 0.127153 0.925903 -0.355717
vn 0.240834 0.965910 -0.094956
vn 0.127153 0.925903 -0.355717
vn 0.130823 0.991058 0.026259
vn 0.280809 0.947121 0.155268
vn 0.280809 0.947121 0.155268
vn -0.032483 0.994431 0.100255
vn -0.032483 0.994431 0.100255
vn -0.192888 0.981032 -0.019226
vn -0.167415 0.977863 0.125527
vn -0.167415 0.977863 0.125527
vn -0.319425 0.848821 -0.421273
vn -0.147970 0.988241 0.038525
vn -0.413942 0.851650 0.321473
vn -0.413942 0.851650 0.321473
vn 0.050006 0.992836 0.108519
vn 0.050006 0.992836 0.108519
vn 0.130823 0.991058 0.026259
vn -0.166222 0.976735 0.135497
vn -0.166222 0.976735 0.135497
vn -0.147970 0.988241 0.038525
vn 0.127153 0.925903 -0.355717
vn -0.533086 0.845748 -0.023016
vn 0.127153 0.925903 -0.355718
s off
f 2/6/1 11/11/2 14/14/3
f 12/12/4 5/4/5 4/2/6
f 3/1/7 12/12/8 4/2/9
f 1/5/10 2/6/11 7/7/12
f 8/8/13 7/7/14 2/6/15
f 8/8/16 10/10/17 9/9/18
f 3/1/19 13/13/20 10/10/21
f 1/5/22 11/11/23 2/6/24
f 2/6/25 10/10/26 8/8/27
f 12/12/28 10/10/29 2/6/30
f 2/6/31 5/4/32 12/12/33
f 3/1/34 10/10/35 12/12/36
f 9/9/37 10/10/38 6/3/39
f 10/10/40 13/13/41 6/3/42
f 2/6/43 14/14/44 5/4/45
