# This file uses centimeters as units for non-parametric coordinates.

v 0.000000 -250.000000 -0.000671
v 500.000122 -250.000000 -0.000671
v 0.000000 0.000000 -0.000671
v 500.000122 0.000000 -0.000671
v 0.000000 0.000000 -100.000153
v 500.000122 0.000000 -100.000153
v 0.000000 -250.000000 -100.000153
v 500.000122 -250.000000 -100.000153
v 250.000122 -250.000000 -0.000671
v 250.000122 -250.000000 -100.000153
v 6.250000 -243.750000 18.446350
v 250.000122 -243.750000 18.446350
v 250.000122 9.571293 11.157858
v 6.250000 9.571222 10.546427
v 250.000122 9.571293 -111.158684
v 6.250000 9.571222 -110.547249
v 250.000122 -243.750000 -118.447174
v 6.250000 -243.750000 -118.447174
v 493.750122 -243.750000 18.446350
v 493.750122 9.571222 10.546427
v 493.750122 9.571222 -110.547249
v 493.750122 -243.750000 -118.447174
vt 0.100022 0.284773
vt 0.100022 0.284773
vt 0.100022 0.301606
vt 0.100022 0.301606
vt 0.100022 0.301606
vt 0.100022 0.301606
vt 0.100022 0.301606
vt 0.100022 0.301606
vt 0.101772 0.303006
vt 0.101772 0.303006
vt 0.101772 0.286173
vt 0.101772 0.286173
vt 0.100022 0.283170
vt 0.100022 0.301606
vt 0.100022 0.301606
vt 0.101772 0.303006
vt 0.100022 0.301606
vt 0.101772 0.284570
vt 0.100022 0.284773
vt 0.100022 0.283170
vt 0.100022 0.301606
vt 0.100022 0.301606
vt 0.100022 0.301606
vt 0.101772 0.284570
vt 0.101772 0.286173
vt 0.101772 0.303006
vt 0.100022 0.284773
vt 0.100022 0.301606
vt 0.100022 0.301606
vt 0.100022 0.301606
vt 0.101772 0.303006
vt 0.101772 0.286173
vn -0.001254 0.029965 0.999550
vn 0.000000 0.029965 0.999551
vn -0.000000 0.029965 0.999551
vn -0.001254 0.029965 0.999550
vn -0.000000 1.000000 0.000000
vn 0.000000 1.000000 0.000000
vn 0.000000 1.000000 0.000000
vn -0.000000 1.000000 0.000000
vn -0.001254 0.029965 -0.999550
vn 0.000000 0.029965 -0.999551
vn 0.000000 0.029965 -0.999551
vn -0.001254 0.029965 -0.999550
vn 0.000000 0.029965 0.999551
vn 0.001254 0.029965 0.999550
vn 0.001254 0.029965 0.999550
vn -0.000000 0.029965 0.999551
vn 0.000000 1.000000 0.000000
vn 0.000000 1.000000 0.000000
vn 0.000000 1.000000 0.000000
vn 0.000000 1.000000 0.000000
vn 0.000000 0.029965 -0.999551
vn 0.000000 0.029965 -0.999551
vn 0.001254 0.029965 -0.999550
vn 0.001254 0.029965 -0.999550
vn 0.000000 -0.947116 0.320891
vn 0.000000 -0.947116 0.320891
vn 0.000000 -0.947116 0.320891
vn 0.000000 -0.947116 0.320891
vn -0.919497 0.006169 0.393049
vn -0.919497 0.006169 0.393049
vn -0.919497 0.006169 0.393049
vn -0.919497 0.006169 0.393049
vn -0.837294 0.546753 0.000000
vn -0.837294 0.546753 0.000000
vn -0.837294 0.546753 0.000000
vn -0.837294 0.546753 0.000000
vn 0.000000 -0.947116 -0.320891
vn 0.000000 -0.947116 -0.320891
vn 0.000000 -0.947116 -0.320891
vn 0.000000 -0.947116 -0.320891
vn -0.919497 0.006169 -0.393049
vn -0.919497 0.006169 -0.393049
vn -0.919497 0.006169 -0.393049
vn -0.919497 0.006169 -0.393049
vn 0.000000 -0.947116 0.320891
vn 0.000000 -0.947116 0.320891
vn 0.000000 -0.947116 0.320891
vn 0.000000 -0.947116 0.320891
vn 0.919497 0.006169 0.393049
vn 0.919497 0.006169 0.393049
vn 0.919497 0.006169 0.393049
vn 0.919497 0.006169 0.393049
vn 0.837293 0.546754 0.000000
vn 0.837293 0.546754 0.000000
vn 0.837293 0.546754 0.000000
vn 0.837293 0.546754 0.000000
vn 0.919497 0.006169 -0.393049
vn 0.919497 0.006169 -0.393049
vn 0.919497 0.006169 -0.393049
vn 0.919497 0.006169 -0.393049
vn 0.000000 -0.947116 -0.320891
vn 0.000000 -0.947116 -0.320891
vn 0.000000 -0.947116 -0.320891
vn 0.000000 -0.947116 -0.320891
s off
f 11/19/1 12/20/2 13/15/3 14/21/4
f 14/23/5 13/14/6 15/17/7 16/22/8
f 16/26/9 15/16/10 17/24/11 18/25/12
f 12/20/13 19/27/14 20/28/15 13/15/16
f 15/17/17 13/14/18 20/29/19 21/30/20
f 17/24/21 15/16/22 21/31/23 22/32/24
f 1/1/25 9/13/26 12/20/27 11/19/28
f 3/3/29 1/1/30 11/19/31 14/21/32
f 5/8/33 3/5/34 14/23/35 16/22/36
f 10/18/37 7/12/38 18/25/39 17/24/40
f 7/12/41 5/9/42 16/26/43 18/25/44
f 9/13/45 2/2/46 19/27/47 12/20/48
f 2/2/49 4/4/50 20/28/51 19/27/52
f 4/6/53 6/7/54 21/30/55 20/29/56
f 6/10/57 8/11/58 22/32/59 21/31/60
f 8/11/61 10/18/62 17/24/63 22/32/64
