# This file uses centimeters as units for non-parametric coordinates.

v 0.000000 0.000000 0.000000
v 500.000000 0.000000 0.000000
v 0.000000 0.000000 -500.000000
v 500.000000 0.000000 -500.000000
v 25.000000 0.000000 -500.000000
v 25.000000 0.000000 0.000000
v 475.000000 0.000000 -500.000000
v 475.000000 0.000000 0.000000
v 475.000000 0.000000 -100.000000
v 25.000000 0.000000 -400.000763
v 127.043152 0.000000 -409.294891
v 172.752380 0.000000 -364.524078
v 150.321960 0.000000 -365.169525
v 392.472839 0.000000 -73.358154
v 247.286987 0.000000 -202.411652
v 296.858215 0.000000 -180.034637
v 25.000000 0.000000 -246.008301
v 25.000000 0.000000 -144.914246
v 14.537048 0.000000 -199.935913
vt 0.061398 0.003389
vt 0.061398 0.003389
vt 0.061398 0.003389
vt 0.061398 0.003389
vt 0.061398 0.003389
vt 0.061398 0.003389
vt 0.061398 0.003389
vt 0.061398 0.003389
vt 0.061398 0.003389
vt 0.061398 0.003389
vt 0.061398 0.003389
vt 0.061398 0.003389
vt 0.061398 0.003389
vt 0.061398 0.003389
vt 0.061398 0.003389
vt 0.061398 0.003389
vt 0.061398 0.003389
vt 0.061398 0.003389
vt 0.061398 0.003389
vt 0.989094 0.985563
vt 0.249054 0.812787
vt 0.346269 0.727508
vt 0.989094 0.223640
vt 0.298564 0.728738
vt 0.032027 0.985563
vt 0.032027 0.309193
vt 0.813574 0.172893
vt 0.504791 0.418716
vt 0.032027 0.501758
vt 0.610219 0.376092
vt 0.009773 0.414000
vt 0.032027 0.033160
vt 0.989094 0.033160
vt 0.032027 0.795084
vn 0.000000 1.000000 0.000000
vn 0.000000 1.000000 0.000000
vn 0.000000 1.000000 0.000000
vn 0.000000 1.000000 0.000000
vn 0.000000 1.000000 0.000000
vn 0.000000 1.000000 0.000000
vn 0.000000 1.000000 0.000000
vn 0.000000 1.000000 0.000000
vn 0.000000 1.000000 0.000000
vn 0.000000 1.000000 0.000000
vn 0.000000 1.000000 0.000000
vn 0.000000 1.000000 0.000000
vn 0.000000 1.000000 0.000000
vn 0.000000 1.000000 0.000000
vn 0.000000 1.000000 0.000000
vn 0.000000 1.000000 0.000000
vn 0.000000 1.000000 0.000000
vn 0.000000 1.000000 0.000000
vn 0.000000 1.000000 0.000000
vn 0.000000 1.000000 0.000000
vn 0.000000 1.000000 0.000000
vn 0.000000 1.000000 0.000000
vn 0.000000 1.000000 0.000000
vn 0.000000 1.000000 0.000000
vn 0.000000 1.000000 0.000000
vn 0.000000 1.000000 0.000000
vn 0.000000 1.000000 0.000000
vn 0.000000 1.000000 0.000000
vn 0.000000 1.000000 0.000000
vn 0.000000 1.000000 0.000000
vn 0.000000 1.000000 0.000000
vn 0.000000 1.000000 0.000000
vn 0.000000 1.000000 0.000000
vn 0.000000 1.000000 0.000000
vn 0.000000 1.000000 0.000000
vn 0.000000 1.000000 0.000000
vn 0.000000 1.000000 0.000000
vn 0.000000 1.000000 0.000000
vn 0.000000 1.000000 0.000000
vn 0.000000 1.000000 0.000000
vn 0.000000 1.000000 0.000000
vn 0.000000 1.000000 0.000000
vn 0.000000 1.000000 0.000000
vn 0.000000 1.000000 0.000000
vn 0.000000 1.000000 0.000000
vn 0.000000 1.000000 0.000000
vn 0.000000 1.000000 0.000000
vn 0.000000 1.000000 0.000000
vn 0.000000 1.000000 0.000000
vn 0.000000 1.000000 0.000000
vn 0.000000 1.000000 0.000000
vn 0.000000 1.000000 0.000000
vn 0.000000 1.000000 0.000000
vn 0.000000 1.000000 0.000000
vn 0.000000 1.000000 0.000000
vn 0.000000 1.000000 0.000000
vn 0.000000 1.000000 0.000000
vn 0.000000 1.000000 0.000000
vn 0.000000 1.000000 0.000000
vn 0.000000 1.000000 0.000000
vn 0.000000 1.000000 0.000000
vn 0.000000 1.000000 0.000000
vn 0.000000 1.000000 0.000000
vn 0.000000 1.000000 0.000000
vn 0.000000 1.000000 0.000000
vn 0.000000 1.000000 0.000000
vn 0.000000 1.000000 0.000000
vn 0.000000 1.000000 0.000000
vn 0.000000 1.000000 0.000000
vn 0.000000 1.000000 0.000000
s off
f 7/1/1 9/2/2 4/5/3
f 8/3/4 2/4/5 9/2/6
f 9/2/7 2/4/8 4/5/9
f 19/7/10 17/8/11 3/6/12
f 17/8/13 10/9/14 3/6/15
f 3/6/16 10/9/17 5/10/18
f 9/2/19 16/11/20 14/12/21 8/3/22
f 10/9/23 15/13/24 16/11/25 13/14/26
f 13/14/27 16/11/28 9/2/29 12/15/30
f 10/9/31 13/14/32 11/16/33 5/10/34
f 1/17/35 6/18/36 18/19/37 19/7/38
f 1/17/39 19/7/40 3/6/41
f 7/20/42 11/21/43 12/22/44 9/23/45
f 11/21/46 13/24/47 12/22/48
f 5/25/49 11/21/50 7/20/51
f 18/26/52 14/27/53 15/28/54 17/29/55
f 14/27/56 16/30/57 15/28/58
f 17/29/59 19/31/60 18/26/61
f 6/32/62 8/33/63 14/27/64
f 17/29/65 15/28/66 10/34/67
f 6/32/68 14/27/69 18/26/70
