# This file uses centimeters as units for non-parametric coordinates.

v 500.000000 0.000000 -500.000000
v -0.000854 0.000000 -500.000000
v 500.000000 0.000001 0.000732
v 0.000000 0.000000 0.000000
v 500.000000 0.000000 -375.000000
v -0.000610 0.000000 -375.000000
v 500.000000 0.000000 -250.000000
v -0.000488 0.000000 -250.000000
v 500.000000 0.000001 -124.999237
v -0.000244 0.000000 -125.000000
v 124.999237 0.000000 -500.000000
v 112.787628 8.996296 -391.189575
v 116.341400 -0.946039 -231.423950
v 119.257355 4.246378 -133.794403
v 125.000000 0.000000 0.000122
v 250.000000 0.000000 -500.000000
v 251.116943 5.780554 -405.783081
v 246.171570 2.547836 -251.564026
v 254.759216 1.073992 -131.848145
v 250.000000 0.000000 0.000305
v 375.000000 0.000000 -500.000000
v 394.934082 5.324888 -376.049805
v 383.233643 1.122797 -248.529053
v 379.229736 7.120991 -127.578735
v 375.000000 0.000001 0.000488
v 500.000000 0.000000 -187.500000
v 381.231689 3.541827 -188.125610
v 250.462341 5.719233 -191.714478
v 118.175507 4.716539 -184.480286
v -0.000366 0.000000 -187.500000
v 500.000000 0.000000 -312.500000
v 386.907959 3.110647 -312.149048
v 248.213196 3.752208 -317.379761
v 119.185638 2.450919 -303.674316
v -0.000549 0.000000 -312.500000
v 500.000000 0.000000 -437.500000
v 375.015259 6.570673 -437.759399
v 250.196838 6.472254 -462.490845
v 123.880768 3.713679 -439.776611
v -0.000732 0.000000 -437.500000
v 500.000000 0.000001 -62.499237
v 375.463867 0.885010 -39.781952
v 252.372742 3.423238 -65.904999
v 123.278046 4.446507 -60.038376
v -0.000122 0.000000 -62.500000
v 437.500000 0.000000 -500.000000
v 437.548828 3.456950 -437.612915
v 437.539673 3.216958 -375.140381
v 449.719238 1.364499 -318.643188
v 453.656006 1.087880 -250.588989
v 440.652466 5.016899 -187.870789
v 439.614868 2.018249 -126.281738
v 438.577271 2.270222 -63.120270
v 437.500000 0.000001 0.000610
v 312.500000 0.000000 0.000397
v 314.291382 4.132318 -52.839661
v 316.979980 2.506232 -129.707336
v 315.835571 3.665090 -189.924622
v 315.539551 0.368297 -228.527832
v 323.056030 6.029463 -316.647339
v 320.422363 6.625175 -400.320435
v 318.756104 4.291868 -459.011841
v 312.500000 0.000000 -500.000000
v 187.500000 0.000000 0.000214
v 187.879944 5.633545 -62.956238
v 188.165283 1.695371 -126.011658
v 184.327698 3.354454 -188.079834
v 180.468750 4.934168 -250.076294
v 183.117676 6.195927 -326.849365
v 176.654053 4.086590 -389.639282
v 187.095642 5.957174 -440.780640
v 187.500000 0.000000 -500.000000
v 62.500000 0.000000 0.000061
v 63.005829 3.357697 -49.393082
v 60.746384 3.478861 -122.590637
v 59.079742 2.738404 -185.984802
v 57.401276 3.372478 -249.298096
v 62.350464 2.513623 -326.354980
v 61.259460 6.491518 -377.236938
v 61.893463 3.459144 -438.668823
v 62.499237 0.000000 -500.000000
vt 0.430811 0.178520
vt 0.430811 0.178520
vt 0.430811 0.178520
vt 0.430811 0.178520
vt 0.430811 0.178520
vt 0.430811 0.178520
vt 0.430811 0.178520
vt 0.430811 0.178520
vt 0.430811 0.178520
vt 0.430811 0.178520
vt 0.430811 0.178520
vt 0.430811 0.178520
vt 0.430811 0.178520
vt 0.430811 0.178520
vt 0.430811 0.178520
vt 0.430811 0.178520
vt 0.430811 0.178520
vt 0.430811 0.178520
vt 0.430811 0.178520
vt 0.430811 0.178520
vt 0.430811 0.178520
vt 0.430811 0.178520
vt 0.430811 0.178520
vt 0.430811 0.178520
vt 0.430811 0.178520
vt 0.430811 0.178520
vt 0.430811 0.178520
vt 0.430811 0.178520
vt 0.430811 0.178520
vt 0.430811 0.178520
vt 0.430811 0.178520
vt 0.430811 0.178520
vt 0.430811 0.178520
vt 0.430811 0.178520
vt 0.430811 0.178520
vt 0.430811 0.178520
vt 0.430811 0.178520
vt 0.430811 0.178520
vt 0.430811 0.178520
vt 0.430811 0.178520
vt 0.430811 0.178520
vt 0.430811 0.178520
vt 0.430811 0.178520
vt 0.430811 0.178520
vt 0.430811 0.178520
vt 0.430811 0.178520
vt 0.430811 0.178520
vt 0.430811 0.178520
vt 0.430811 0.178520
vt 0.430811 0.178520
vt 0.430811 0.178520
vt 0.430811 0.178520
vt 0.430811 0.178520
vt 0.430811 0.178520
vt 0.430811 0.178520
vt 0.430811 0.178520
vt 0.430811 0.178520
vt 0.430811 0.178520
vt 0.430811 0.178520
vt 0.430811 0.178520
vt 0.430811 0.178520
vt 0.430811 0.178520
vt 0.430811 0.178520
vt 0.430811 0.178520
vt 0.430811 0.178520
vt 0.430811 0.178520
vt 0.430811 0.178520
vt 0.430811 0.178520
vt 0.430811 0.178520
vt 0.430811 0.178520
vt 0.430811 0.178520
vt 0.430811 0.178520
vt 0.430811 0.178520
vt 0.430811 0.178520
vt 0.430811 0.178520
vt 0.430811 0.178520
vt 0.430811 0.178520
vt 0.430811 0.178520
vt 0.430811 0.178520
vt 0.430811 0.178520
vt 0.430811 0.178520
vn 0.036935 0.999318 0.000000
vn 0.036935 0.999318 0.000000
vn 0.036935 0.999318 0.000000
vn -0.000000 0.999354 0.035943
vn -0.000000 0.999354 0.035943
vn -0.000000 0.999354 0.035943
vn 0.055262 0.998465 0.003844
vn 0.055262 0.998465 0.003844
vn 0.055262 0.998464 0.003844
vn 0.051436 0.998676 0.000000
vn 0.051436 0.998676 0.000000
vn 0.051436 0.998676 0.000000
vn 0.017632 0.999845 0.000000
vn 0.017632 0.999845 0.000000
vn 0.017632 0.999845 0.000000
vn 0.015812 0.999874 -0.001681
vn 0.015812 0.999874 -0.001681
vn 0.015812 0.999874 -0.001681
vn 0.033405 0.999442 0.000000
vn 0.033405 0.999442 0.000000
vn 0.033405 0.999442 0.000000
vn 0.083818 0.995233 0.049866
vn 0.083818 0.995233 0.049866
vn 0.083818 0.995233 0.049866
vn -0.056668 0.997150 -0.049807
vn -0.056668 0.997150 -0.049807
vn -0.056668 0.997150 -0.049807
vn -0.105377 0.994432 0.000000
vn -0.105377 0.994432 0.000000
vn -0.105377 0.994432 0.000000
vn -0.027930 0.999219 -0.027952
vn -0.027930 0.999219 -0.027952
vn -0.027930 0.999219 -0.027952
vn -0.058651 0.998279 0.000000
vn -0.058651 0.998279 0.000000
vn -0.058651 0.998279 0.000000
vn -0.056770 0.998336 -0.010169
vn -0.056770 0.998336 -0.010169
vn -0.056770 0.998336 -0.010169
vn -0.046301 0.998928 0.000000
vn -0.046301 0.998928 0.000000
vn -0.046301 0.998928 0.000000
vn -0.000000 0.998502 0.054723
vn -0.000000 0.998502 0.054723
vn -0.000000 0.998502 0.054723
vn -0.054417 0.998518 0.000000
vn -0.054417 0.998518 0.000000
vn -0.054417 0.998518 0.000000
vn -0.034790 0.998557 0.040918
vn -0.034790 0.998557 0.040918
vn -0.034790 0.998557 0.040918
vn 0.070868 0.994856 -0.072387
vn 0.070868 0.994856 -0.072387
vn 0.070868 0.994856 -0.072387
vn -0.035174 0.999363 0.006049
vn -0.035174 0.999363 0.006049
vn -0.035174 0.999363 0.006049
vn -0.070699 0.996680 0.040387
vn -0.070699 0.996680 0.040387
vn -0.070699 0.996680 0.040387
vn 0.038729 0.999236 0.005271
vn 0.038729 0.999236 0.005271
vn 0.038729 0.999236 0.005271
vn 0.021958 0.999437 0.025357
vn 0.021958 0.999437 0.025357
vn 0.021958 0.999437 0.025357
vn -0.014278 0.995926 0.089033
vn -0.014278 0.995926 0.089033
vn -0.014278 0.995926 0.089033
vn -0.000000 0.997269 0.073859
vn -0.000000 0.997269 0.073859
vn -0.000000 0.997269 0.073859
vn 0.032627 0.999374 0.013711
vn 0.032627 0.999374 0.013711
vn 0.032627 0.999374 0.013711
vn -0.013089 0.999239 -0.036750
vn -0.013089 0.999239 -0.036750
vn -0.013089 0.999239 -0.036750
vn 0.009171 0.997963 0.063132
vn 0.009171 0.997963 0.063132
vn 0.009171 0.997963 0.063132
vn -0.033752 0.999282 0.017239
vn -0.033752 0.999282 0.017239
vn -0.033752 0.999282 0.017239
vn -0.023684 0.999526 0.019686
vn -0.023684 0.999526 0.019686
vn -0.023684 0.999526 0.019686
vn 0.029259 0.996736 0.075240
vn 0.029259 0.996736 0.075240
vn 0.029259 0.996736 0.075240
vn -0.025565 0.996848 0.075101
vn -0.025565 0.996848 0.075101
vn -0.025565 0.996848 0.075101
vn -0.000000 0.998654 0.051872
vn -0.000000 0.998654 0.051872
vn -0.000000 0.998654 0.051872
vn 0.017632 0.999845 0.000000
vn 0.017632 0.999845 0.000000
vn 0.017632 0.999845 0.000000
vn 0.084456 0.994417 -0.063265
vn 0.084456 0.994417 -0.063265
vn 0.084456 0.994417 -0.063265
vn 0.032244 0.998992 -0.031228
vn 0.032244 0.998992 -0.031228
vn 0.032244 0.998992 -0.031228
vn 0.011764 0.998485 -0.053751
vn 0.011764 0.998485 -0.053751
vn 0.011764 0.998485 -0.053751
vn 0.021891 0.999470 0.024105
vn 0.021891 0.999470 0.024105
vn 0.021891 0.999470 0.024105
vn -0.072931 0.995154 -0.065959
vn -0.072931 0.995154 -0.065959
vn -0.072931 0.995154 -0.065959
vn -0.046586 0.998851 0.011238
vn -0.046586 0.998851 0.011238
vn -0.046586 0.998851 0.011238
vn -0.058651 0.998279 0.000000
vn -0.058651 0.998279 0.000000
vn -0.058651 0.998279 0.000000
vn 0.015820 0.999875 0.000000
vn 0.015820 0.999875 0.000000
vn 0.015820 0.999875 0.000000
vn 0.051329 0.998096 0.034197
vn 0.051329 0.998096 0.034197
vn 0.051329 0.998096 0.034197
vn -0.032579 0.999418 -0.010097
vn -0.032579 0.999418 -0.010097
vn -0.032579 0.999418 -0.010097
vn -0.015909 0.999847 0.007250
vn -0.015909 0.999847 0.007250
vn -0.015909 0.999847 0.007250
vn -0.033363 0.996657 0.074574
vn -0.033363 0.996657 0.074574
vn -0.033363 0.996657 0.074574
vn 0.072387 0.997035 -0.026117
vn 0.072387 0.997035 -0.026117
vn 0.072387 0.997035 -0.026117
vn -0.027579 0.999620 0.000000
vn -0.027579 0.999620 0.000000
vn -0.027579 0.999620 0.000000
vn -0.102491 0.992106 0.072264
vn -0.102491 0.992106 0.072264
vn -0.102491 0.992106 0.072264
vn 0.000000 0.998468 -0.055327
vn 0.000000 0.998468 -0.055327
vn 0.000000 0.998468 -0.055327
vn 0.055269 0.998471 0.000000
vn 0.055269 0.998471 0.000000
vn 0.055269 0.998471 0.000000
vn 0.000000 0.996248 -0.086542
vn 0.000000 0.996248 -0.086542
vn 0.000000 0.996248 -0.086542
vn 0.034620 0.998164 -0.049693
vn 0.034620 0.998164 -0.049693
vn 0.034620 0.998164 -0.049693
vn -0.036384 0.997402 -0.062181
vn -0.036384 0.997402 -0.062181
vn -0.036384 0.997402 -0.062181
vn 0.000000 0.994979 -0.100088
vn 0.000000 0.994979 -0.100088
vn 0.000000 0.994979 -0.100088
vn -0.055801 0.998442 0.000000
vn -0.055801 0.998442 0.000000
vn -0.055801 0.998442 0.000000
vn 0.000000 0.998413 -0.056310
vn 0.000000 0.998413 -0.056310
vn 0.000000 0.998413 -0.056310
vn 0.036935 0.999318 -0.000000
vn 0.036935 0.999318 -0.000000
vn 0.036935 0.999318 -0.000000
vn 0.033478 0.999434 -0.003436
vn 0.033478 0.999434 -0.003436
vn 0.033478 0.999434 -0.003436
vn -0.023636 0.999056 -0.036447
vn -0.023636 0.999056 -0.036447
vn -0.023636 0.999056 -0.036447
vn -0.021682 0.999035 -0.038192
vn -0.021682 0.999035 -0.038192
vn -0.021682 0.999035 -0.038192
vn -0.018498 0.999825 -0.002797
vn -0.018498 0.999825 -0.002797
vn -0.018498 0.999825 -0.002797
vn 0.032757 0.997529 -0.062153
vn 0.032757 0.997529 -0.062153
vn 0.032757 0.997529 -0.062153
vn -0.054472 0.998512 0.002741
vn -0.054472 0.998512 0.002741
vn -0.054472 0.998512 0.002741
vn -0.057175 0.998364 0.000000
vn -0.057175 0.998364 0.000000
vn -0.057175 0.998364 0.000000
vn 0.000000 0.998468 -0.055327
vn 0.000000 0.998468 -0.055327
vn 0.000000 0.998468 -0.055327
vn 0.049702 0.993243 -0.104868
vn 0.049702 0.993243 -0.104868
vn 0.049702 0.993243 -0.104868
vn 0.033692 0.999425 0.003844
vn 0.033692 0.999425 0.003844
vn 0.033692 0.999425 0.003844
vn 0.049675 0.998567 0.019902
vn 0.049675 0.998567 0.019902
vn 0.049675 0.998567 0.019902
vn 0.035804 0.998756 0.034721
vn 0.035804 0.998756 0.034721
vn 0.035804 0.998755 0.034721
vn 0.033609 0.998900 0.032695
vn 0.033609 0.998900 0.032695
vn 0.033609 0.998900 0.032695
vn 0.001579 0.999998 -0.001220
vn 0.001579 0.999998 -0.001220
vn 0.001579 0.999998 -0.001220
vn 0.035778 0.998938 0.029041
vn 0.035778 0.998938 0.029041
vn 0.035778 0.998938 0.029041
vn 0.000776 0.997898 -0.064796
vn 0.000776 0.997898 -0.064796
vn 0.000776 0.997898 -0.064796
vn -0.024621 0.998863 -0.040818
vn -0.024621 0.998863 -0.040818
vn -0.024621 0.998863 -0.040818
vn -0.024995 0.998525 0.048196
vn -0.024995 0.998525 0.048196
vn -0.024995 0.998525 0.048196
vn 0.085263 0.994784 -0.055984
vn 0.085263 0.994784 -0.055984
vn 0.085263 0.994784 -0.055984
vn 0.084256 0.996441 -0.002589
vn 0.084256 0.996441 -0.002589
vn 0.084256 0.996441 -0.002589
vn 0.002944 0.997375 0.072346
vn 0.002944 0.997375 0.072346
vn 0.002944 0.997375 0.072346
vn 0.003334 0.999346 0.036000
vn 0.003334 0.999346 0.036000
vn 0.003334 0.999346 0.036000
vn -0.000000 0.999233 0.039152
vn -0.000000 0.999233 0.039152
vn -0.000000 0.999233 0.039152
vn 0.038348 0.998448 0.040392
vn 0.038348 0.998448 0.040392
vn 0.038348 0.998448 0.040392
vn -0.000000 0.997109 0.075984
vn -0.000000 0.997109 0.075984
vn -0.000000 0.997109 0.075984
vn 0.039614 0.998566 -0.036007
vn 0.039614 0.998566 -0.036007
vn 0.039614 0.998566 -0.036007
vn -0.076120 0.994672 0.069528
vn -0.076120 0.994672 0.069528
vn -0.076120 0.994672 0.069528
vn 0.001356 0.999814 0.019215
vn 0.001356 0.999814 0.019215
vn 0.001356 0.999814 0.019215
vn -0.071713 0.995545 -0.061224
vn -0.071713 0.995544 -0.061224
vn -0.071713 0.995545 -0.061224
vn 0.010882 0.999465 -0.030844
vn 0.010882 0.999465 -0.030844
vn 0.010882 0.999465 -0.030844
vn 0.002982 0.999199 -0.039917
vn 0.002982 0.999199 -0.039917
vn 0.002982 0.999199 -0.039917
vn 0.040079 0.997236 0.062568
vn 0.040079 0.997236 0.062568
vn 0.040079 0.997236 0.062568
vn 0.009517 0.999481 0.030760
vn 0.009517 0.999481 0.030760
vn 0.009517 0.999481 0.030760
vn -0.000928 0.999943 -0.010626
vn -0.000928 0.999943 -0.010626
vn -0.000928 0.999943 -0.010626
vn 0.041396 0.998624 0.032181
vn 0.041396 0.998625 0.032181
vn 0.041396 0.998625 0.032181
vn -0.055859 0.997765 -0.036676
vn -0.055859 0.997765 -0.036676
vn -0.055859 0.997765 -0.036676
vn -0.002871 0.999797 0.019936
vn -0.002871 0.999797 0.019936
vn -0.002871 0.999797 0.019936
vn 0.000000 0.998764 -0.049704
vn 0.000000 0.998764 -0.049704
vn 0.000000 0.998764 -0.049704
vn -0.053515 0.993050 -0.104823
vn -0.053515 0.993050 -0.104823
vn -0.053515 0.993050 -0.104823
vn 0.036631 0.997914 0.053152
vn 0.036631 0.997914 0.053152
vn 0.036631 0.997914 0.053152
vn -0.000000 0.996020 0.089127
vn -0.000000 0.996020 0.089127
vn -0.000000 0.996020 0.089127
vn 0.031346 0.997574 -0.062162
vn 0.031346 0.997574 -0.062162
vn 0.031346 0.997574 -0.062162
vn 0.006225 0.999355 -0.035377
vn 0.006225 0.999355 -0.035377
vn 0.006225 0.999355 -0.035377
vn 0.011606 0.999595 0.026002
vn 0.011606 0.999595 0.026002
vn 0.011606 0.999595 0.026002
vn -0.031255 0.996341 0.079553
vn -0.031255 0.996341 0.079553
vn -0.031255 0.996341 0.079553
vn 0.036811 0.999054 0.023166
vn 0.036811 0.999054 0.023166
vn 0.036811 0.999054 0.023166
vn -0.038440 0.998003 -0.050126
vn -0.038440 0.998003 -0.050126
vn -0.038440 0.998003 -0.050126
vn 0.026590 0.999464 0.019114
vn 0.026590 0.999464 0.019114
vn 0.026590 0.999464 0.019114
vn 0.036508 0.999289 0.009414
vn 0.036508 0.999289 0.009414
vn 0.036508 0.999289 0.009414
vn 0.025315 0.999278 -0.028315
vn 0.025315 0.999278 -0.028315
vn 0.025315 0.999278 -0.028315
vn -0.011705 0.999904 0.007380
vn -0.011705 0.999904 0.007380
vn -0.011705 0.999904 0.007380
vn 0.014303 0.999803 0.013755
vn 0.014303 0.999803 0.013755
vn 0.014303 0.999803 0.013755
vn -0.010697 0.999095 0.041172
vn -0.010697 0.999095 0.041172
vn -0.010697 0.999095 0.041172
vn 0.012639 0.994908 -0.099994
vn 0.012639 0.994908 -0.099994
vn 0.012639 0.994908 -0.099994
vn 0.000000 0.996248 -0.086542
vn 0.000000 0.996248 -0.086542
vn 0.000000 0.996248 -0.086542
vn -0.000000 0.997269 0.073859
vn -0.000000 0.997269 0.073859
vn -0.000000 0.997269 0.073859
vn -0.018721 0.998312 0.054985
vn -0.018721 0.998312 0.054985
vn -0.018721 0.998312 0.054985
vn -0.012706 0.999917 0.002155
vn -0.012706 0.999917 0.002155
vn -0.012706 0.999917 0.002155
vn -0.017598 0.999841 -0.002823
vn -0.017598 0.999841 -0.002823
vn -0.017598 0.999841 -0.002823
vn -0.033178 0.999391 -0.010801
vn -0.033178 0.999391 -0.010801
vn -0.033178 0.999391 -0.010801
vn -0.012938 0.999884 0.007990
vn -0.012938 0.999884 0.007990
vn -0.012938 0.999884 0.007990
vn 0.054751 0.998464 0.008548
vn 0.054751 0.998463 0.008548
vn 0.054751 0.998464 0.008548
vn -0.031641 0.997166 -0.068262
vn -0.031641 0.997166 -0.068262
vn -0.031641 0.997166 -0.068262
vn -0.024865 0.998754 0.043265
vn -0.024865 0.998754 0.043265
vn -0.024865 0.998754 0.043265
vn 0.055129 0.998158 -0.025347
vn 0.055129 0.998158 -0.025347
vn 0.055129 0.998158 -0.025347
vn -0.024413 0.996891 0.074914
vn -0.024413 0.996891 0.074914
vn -0.024413 0.996891 0.074914
vn -0.024640 0.996870 0.075119
vn -0.024640 0.996870 0.075119
vn -0.024640 0.996870 0.075119
vn -0.005418 0.997245 -0.073982
vn -0.005418 0.997245 -0.073982
vn -0.005418 0.997245 -0.073982
vn -0.029229 0.998342 -0.049583
vn -0.029229 0.998342 -0.049583
vn -0.029229 0.998342 -0.049583
vn -0.005108 0.998398 -0.056360
vn -0.005108 0.998398 -0.056360
vn -0.005108 0.998398 -0.056360
vn 0.000000 0.998104 -0.061548
vn 0.000000 0.998104 -0.061548
vn 0.000000 0.998104 -0.061548
s off
f 41/41/1 53/53/2 3/1/3
f 3/1/4 53/53/5 54/54/6
f 47/47/7 48/48/8 36/36/9
f 36/36/10 48/48/11 5/5/12
f 7/7/13 31/31/14 50/50/15
f 50/50/16 31/31/17 49/49/18
f 9/9/19 26/26/20 52/52/21
f 52/52/22 26/26/23 51/51/24
f 80/80/25 40/40/26 79/79/27
f 79/79/28 40/40/29 6/6/30
f 78/78/31 35/35/32 77/77/33
f 77/77/34 35/35/35 8/8/36
f 75/75/37 76/76/38 10/10/39
f 10/10/40 76/76/41 30/30/42
f 73/73/43 74/74/44 4/3/45
f 4/3/46 74/74/47 45/45/48
f 71/71/49 39/39/50 70/70/51
f 70/70/52 39/39/53 12/12/54
f 69/69/55 34/34/56 68/68/57
f 68/68/58 34/34/59 13/13/60
f 14/14/61 66/66/62 29/29/63
f 29/29/64 66/66/65 67/67/66
f 65/65/67 44/44/68 64/64/69
f 64/64/70 44/44/71 15/15/72
f 38/38/73 17/17/74 62/62/75
f 62/62/76 17/17/77 61/61/78
f 59/59/79 60/60/80 18/18/81
f 18/18/82 60/60/83 33/33/84
f 57/57/85 58/58/86 19/19/87
f 19/19/88 58/58/89 28/28/90
f 56/56/91 43/43/92 55/55/93
f 55/55/94 43/43/95 20/20/96
f 7/7/97 50/50/98 26/26/99
f 26/26/100 50/50/101 51/51/102
f 58/58/103 59/59/104 28/28/105
f 28/28/106 59/59/107 18/18/108
f 67/67/109 68/68/110 29/29/111
f 29/29/112 68/68/113 13/13/114
f 76/76/115 77/77/116 30/30/117
f 30/30/118 77/77/119 8/8/120
f 31/31/121 5/5/122 49/49/123
f 49/49/124 5/5/125 48/48/126
f 60/60/127 61/61/128 33/33/129
f 33/33/130 61/61/131 17/17/132
f 34/34/133 69/69/134 12/12/135
f 12/12/136 69/69/137 70/70/138
f 35/35/139 78/78/140 6/6/141
f 6/6/142 78/78/143 79/79/144
f 46/46/145 47/47/146 1/4/147
f 1/4/148 47/47/149 36/36/150
f 16/16/151 38/38/152 63/63/153
f 63/63/154 38/38/155 62/62/156
f 39/39/157 71/71/158 11/11/159
f 11/11/160 71/71/161 72/72/162
f 40/40/163 80/80/164 2/2/165
f 2/2/166 80/80/167 81/81/168
f 41/41/169 9/9/170 53/53/171
f 53/53/172 9/9/173 52/52/174
f 43/43/175 56/56/176 19/19/177
f 19/19/178 56/56/179 57/57/180
f 44/44/181 65/65/182 14/14/183
f 14/14/184 65/65/185 66/66/186
f 74/74/187 75/75/188 45/45/189
f 45/45/190 75/75/191 10/10/192
f 46/46/193 21/21/194 47/47/195
f 47/47/196 21/21/197 37/37/198
f 48/48/199 47/47/200 22/22/201
f 22/22/202 47/47/203 37/37/204
f 49/49/205 48/48/206 32/32/207
f 32/32/208 48/48/209 22/22/210
f 50/50/211 49/49/212 23/23/213
f 23/23/214 49/49/215 32/32/216
f 50/50/217 23/23/218 51/51/219
f 51/51/220 23/23/221 27/27/222
f 51/51/223 27/27/224 52/52/225
f 52/52/226 27/27/227 24/24/228
f 52/52/229 24/24/230 53/53/231
f 53/53/232 24/24/233 42/42/234
f 53/53/235 42/42/236 54/54/237
f 54/54/238 42/42/239 25/25/240
f 42/42/241 56/56/242 25/25/243
f 25/25/244 56/56/245 55/55/246
f 56/56/247 42/42/248 57/57/249
f 57/57/250 42/42/251 24/24/252
f 58/58/253 57/57/254 27/27/255
f 27/27/256 57/57/257 24/24/258
f 59/59/259 58/58/260 23/23/261
f 23/23/262 58/58/263 27/27/264
f 60/60/265 59/59/266 32/32/267
f 32/32/268 59/59/269 23/23/270
f 61/61/271 60/60/272 22/22/273
f 22/22/274 60/60/275 32/32/276
f 62/62/277 61/61/278 37/37/279
f 37/37/280 61/61/281 22/22/282
f 63/63/283 62/62/284 21/21/285
f 21/21/286 62/62/287 37/37/288
f 43/43/289 65/65/290 20/20/291
f 20/20/292 65/65/293 64/64/294
f 65/65/295 43/43/296 66/66/297
f 66/66/298 43/43/299 19/19/300
f 66/66/301 19/19/302 67/67/303
f 67/67/304 19/19/305 28/28/306
f 68/68/307 67/67/308 18/18/309
f 18/18/310 67/67/311 28/28/312
f 33/33/313 69/69/314 18/18/315
f 18/18/316 69/69/317 68/68/318
f 69/69/319 33/33/320 70/70/321
f 70/70/322 33/33/323 17/17/324
f 38/38/325 71/71/326 17/17/327
f 17/17/328 71/71/329 70/70/330
f 71/71/331 38/38/332 72/72/333
f 72/72/334 38/38/335 16/16/336
f 15/15/337 44/44/338 73/73/339
f 73/73/340 44/44/341 74/74/342
f 75/75/343 74/74/344 14/14/345
f 14/14/346 74/74/347 44/44/348
f 76/76/349 75/75/350 29/29/351
f 29/29/352 75/75/353 14/14/354
f 77/77/355 76/76/356 13/13/357
f 13/13/358 76/76/359 29/29/360
f 34/34/361 78/78/362 13/13/363
f 13/13/364 78/78/365 77/77/366
f 78/78/367 34/34/368 79/79/369
f 79/79/370 34/34/371 12/12/372
f 39/39/373 80/80/374 12/12/375
f 12/12/376 80/80/377 79/79/378
f 80/80/379 39/39/380 81/81/381
f 81/81/382 39/39/383 11/11/384
