# This file uses centimeters as units for non-parametric coordinates.

v -31.546429 -26.136806 26.088020
v 31.546419 -26.136806 26.088020
v -29.323246 10.048803 18.322426
v 29.323236 10.048803 18.322426
v -29.323246 10.048803 -18.322426
v 29.323236 10.048803 -18.322426
v -31.546429 -26.136806 -26.088020
v 31.546419 -26.136806 -26.088020
v 26.431185 -26.136806 33.920422
v 20.322618 13.554836 25.273602
v 20.322618 13.554836 -25.273602
v 26.431185 -26.136806 -33.920422
v -26.431194 -26.136806 33.920422
v -20.322630 13.554836 25.273602
v -20.322630 13.554836 -25.273602
v -26.431194 -26.136806 -33.920422
vt 0.102827 0.303172
vt 0.102827 0.303172
vt 0.102827 0.303172
vt 0.102827 0.303172
vt 0.102827 0.303172
vt 0.102827 0.303172
vt 0.102827 0.303172
vt 0.102827 0.303172
vt 0.102827 0.303172
vt 0.102827 0.303172
vt 0.102827 0.303172
vt 0.102827 0.303172
vt 0.102827 0.303172
vt 0.102827 0.303172
vt 0.102827 0.303172
vt 0.102827 0.303172
vt 0.102827 0.303172
vt 0.102827 0.303172
vt 0.102827 0.303172
vt 0.102827 0.303172
vn -0.731064 0.219979 0.645875
vn -0.731064 0.219979 0.645875
vn -0.731064 0.219979 0.645875
vn -0.731064 0.219979 0.645875
vn -0.362967 0.931802 0.000000
vn -0.362967 0.931802 0.000000
vn -0.362967 0.931802 0.000000
vn -0.362967 0.931802 0.000000
vn -0.731064 0.219979 -0.645875
vn -0.731064 0.219979 -0.645875
vn -0.731064 0.219979 -0.645875
vn -0.731064 0.219979 -0.645875
vn 0.998118 0.061323 0.000000
vn 0.998118 0.061323 0.000000
vn 0.998118 0.061323 0.000000
vn 0.998118 0.061323 0.000000
vn -0.998118 0.061323 0.000000
vn -0.998118 0.061323 0.000000
vn -0.998118 0.061323 0.000000
vn -0.998118 0.061323 0.000000
vn 0.731064 0.219979 0.645875
vn 0.731064 0.219979 0.645875
vn 0.731064 0.219979 0.645875
vn 0.731064 0.219979 0.645875
vn 0.362967 0.931802 0.000000
vn 0.362967 0.931802 0.000000
vn 0.362967 0.931802 0.000000
vn 0.362967 0.931802 0.000000
vn 0.731064 0.219979 -0.645875
vn 0.731064 0.219979 -0.645875
vn 0.731064 0.219979 -0.645875
vn 0.731064 0.219979 -0.645875
vn 0.000000 0.212857 0.977083
vn 0.000000 0.212857 0.977083
vn 0.000000 0.212857 0.977083
vn 0.000000 0.212857 0.977083
vn 0.000000 1.000000 0.000000
vn 0.000000 1.000000 0.000000
vn 0.000000 1.000000 0.000000
vn 0.000000 1.000000 0.000000
vn 0.000000 0.212857 -0.977083
vn 0.000000 0.212857 -0.977083
vn 0.000000 0.212857 -0.977083
vn 0.000000 0.212857 -0.977083
s off
f 1/1/1 13/17/2 14/18/3 3/3/4
f 3/3/5 14/18/6 15/19/7 5/5/8
f 5/5/9 15/19/10 16/20/11 7/7/12
f 2/2/13 8/9/14 6/10/15 4/4/16
f 7/11/17 1/1/18 3/3/19 5/12/20
f 10/14/21 9/13/22 2/2/23 4/4/24
f 11/15/25 10/14/26 4/4/27 6/6/28
f 12/16/29 11/15/30 6/6/31 8/8/32
f 10/14/33 14/18/34 13/17/35 9/13/36
f 11/15/37 15/19/38 14/18/39 10/14/40
f 12/16/41 16/20/42 15/19/43 11/15/44
