# This file uses centimeters as units for non-parametric coordinates.

v 52.096272 32.773647 18.729210
v 68.068695 10.855330 -84.429932
v -56.774902 28.350395 -4.588890
v -70.996857 10.155123 -75.670425
v 48.834705 36.128819 37.923050
v 20.942495 38.022739 59.331131
v 66.396904 25.359768 -33.612633
v 35.556030 37.232605 44.353104
v -18.789291 37.205143 64.464661
v 49.964142 21.911585 16.384127
v 48.532295 25.655577 36.936569
v 67.953209 -9.958594 -83.890152
v 69.095520 11.178151 -38.803482
v -70.400238 -11.224840 -75.444031
v -56.922531 13.994173 -11.359978
v 32.885742 26.946423 47.505760
v 18.368723 24.649960 56.629181
v -19.356918 23.412939 60.063171
v 49.337677 31.988554 39.558983
v -19.656372 32.590015 66.218658
v 20.525360 32.408459 61.710644
v -66.781616 15.235379 -36.924744
v -66.350174 -9.513452 -39.428902
v 71.172523 19.441174 -35.712814
v -56.152725 -14.771574 -74.888222
v -52.774048 -8.160270 -39.856720
v -42.871284 6.258167 -18.473625
v 17.226791 20.037247 47.242546
v -12.863159 15.831517 26.632307
v 49.747467 -14.238723 -81.442261
v 48.793415 -1.711315 -37.790680
v 45.575523 1.334687 -26.938820
v 46.080399 18.839973 16.950991
v 26.491165 17.502146 35.302929
v 37.142181 21.392450 30.001448
v 49.747467 -31.241331 -82.500648
v 50.264549 -31.241444 -51.816940
v -50.645065 -31.241461 -47.911072
v -55.411530 -31.241352 -75.037949
v -30.482864 -31.241570 -6.869125
v 49.579906 -31.241472 -43.441772
v 8.986282 -31.241669 -12.045670
v 42.668915 -31.241652 -10.963821
v 35.494614 -31.241705 -0.336266
v 27.965927 -31.241716 3.389359
v -10.245323 -31.241617 1.468658
v 69.753174 18.910984 -38.712692
v 65.065384 23.642654 -37.443924
v -54.899979 21.907856 -12.393570
v 25.515940 23.394541 -37.273216
v 23.690033 20.489834 -46.347809
v -57.138443 27.708195 -7.538795
v 70.384026 11.354468 -37.816238
v 35.647202 33.919247 46.281242
v 24.016953 10.554611 -88.310432
v -77.064323 6.531874 -5.857086
v -59.923744 7.869208 -10.086250
v -75.543976 15.488425 -12.848663
v -67.399597 16.123793 -14.857101
v -75.283813 16.276443 -26.443863
v -67.223358 16.657545 -24.065399
v -76.516724 8.190597 -34.475327
v -59.552765 8.992641 -29.469109
v -80.031013 15.653441 -20.820045
v -86.505890 6.879374 -22.636032
v 57.067108 9.770539 -81.773376
v 71.442413 9.770539 -71.435547
v 64.118958 18.069263 -85.124771
v 70.712280 19.959778 -80.260269
v 74.882599 17.801113 -93.466751
v 78.006073 19.778597 -85.910416
v 79.308800 9.770539 -99.867249
v 86.505981 9.770539 -83.690834
v 67.565536 16.807262 -93.505287
v 63.763142 9.770539 -99.828712
v 64.334106 9.026830 -1.120377
v 79.829788 9.026830 -5.335236
v 65.698151 18.804417 -8.123779
v 73.155304 18.320908 -9.713364
v 66.460899 21.714233 -20.410156
v 73.671913 20.291800 -18.035316
v 64.334106 9.026830 -27.245331
v 79.829788 9.026830 -23.030472
v 61.942390 21.033434 -15.457153
v 55.466175 9.026830 -16.235352
v -27.210617 7.621150 99.867340
v -9.002495 7.621150 94.196228
v -25.292015 16.052910 92.341522
v -16.053391 16.052910 89.099976
v -22.663879 16.052910 84.054657
v -18.152618 16.052910 83.587936
v -24.582672 7.621150 76.530174
v -11.101532 7.621150 78.491882
v -27.311707 16.052910 89.795013
v -34.362793 7.621150 88.613800
v 20.131113 7.621150 39.251904
v 30.203629 7.621150 45.756531
v 25.110245 15.015752 37.149429
v 29.772949 13.744585 40.455627
v 32.704163 15.024918 31.969261
v 34.918594 13.750453 36.946869
v 35.715485 7.621150 27.867317
v 40.758514 7.621150 38.045502
v 27.535629 15.749463 31.782148
v 24.822998 7.621150 27.891542
vt 0.475523 0.434316
vt 0.481921 0.530394
vt 0.472270 0.532793
vt 0.574805 0.481260
vt 0.549382 0.530674
vt 0.561381 0.439794
vt 0.566696 0.518595
vt 0.568918 0.518344
vt 0.501593 0.574599
vt 0.500255 0.569390
vt 0.504550 0.568928
vt 0.505202 0.574609
vt 0.472468 0.435321
vt 0.469939 0.437328
vt 0.401921 0.453707
vt 0.458202 0.593748
vt 0.452482 0.574712
vt 0.409453 0.467478
vt 0.566790 0.502557
vt 0.569039 0.501764
vt 0.563119 0.438141
vt 0.577464 0.479763
vt 0.566471 0.518776
vt 0.546979 0.529682
vt 0.557913 0.441298
vt 0.572055 0.480004
vt 0.439566 0.441061
vt 0.439734 0.439426
vt 0.399579 0.453178
vt 0.501859 0.574010
vt 0.503431 0.574822
vt 0.562561 0.483224
vt 0.555219 0.497858
vt 0.569565 0.498496
vt 0.528286 0.463139
vt 0.445383 0.454615
vt 0.470095 0.454456
vt 0.494465 0.553593
vt 0.503512 0.545410
vt 0.554590 0.510778
vt 0.545989 0.525605
vt 0.455931 0.594066
vt 0.469176 0.439778
vt 0.431454 0.552510
vt 0.466630 0.414983
vt 0.053783 0.011077
vt 0.053783 0.011077
vt 0.053783 0.011077
vt 0.053783 0.011077
vt 0.053783 0.011077
vt 0.053783 0.011077
vt 0.053783 0.011077
vt 0.053783 0.011077
vt 0.053783 0.011077
vt 0.053783 0.011077
vt 0.053783 0.011077
vt 0.053783 0.011077
vt 0.053783 0.011077
vt 0.053783 0.011077
vt 0.053783 0.011077
vt 0.053783 0.011077
vt 0.053783 0.011077
vt 0.053783 0.011077
vt 0.053783 0.011077
vt 0.053783 0.011077
vt 0.053783 0.011077
vt 0.053783 0.011077
vt 0.470329 0.433800
vt 0.461363 0.428628
vt 0.459604 0.419688
vt 0.452222 0.433052
vt 0.449543 0.418952
vt 0.446108 0.426219
vt 0.451088 0.443111
vt 0.438220 0.428731
vt 0.445454 0.413438
vt 0.453518 0.582016
vt 0.470555 0.591389
vt 0.460542 0.594722
vt 0.452768 0.590484
vt 0.458343 0.604509
vt 0.446138 0.597748
vt 0.449519 0.604928
vt 0.465397 0.611870
vt 0.445903 0.612256
vt 0.438659 0.596941
vt 0.537371 0.551932
vt 0.540429 0.569126
vt 0.532140 0.564559
vt 0.530190 0.556486
vt 0.523919 0.568906
vt 0.520930 0.556171
vt 0.518052 0.562903
vt 0.522792 0.577296
vt 0.511333 0.563993
vt 0.518152 0.550184
vt 0.595262 0.415227
vt 0.598139 0.435762
vt 0.589033 0.431159
vt 0.587936 0.420571
vt 0.582556 0.431638
vt 0.584452 0.419759
vt 0.580908 0.426983
vt 0.581504 0.440947
vt 0.573234 0.428587
vt 0.580696 0.413384
vt 0.557024 0.489798
vt 0.568225 0.496707
vt 0.562214 0.498717
vt 0.556626 0.495652
vt 0.561127 0.505400
vt 0.552349 0.500515
vt 0.555019 0.505517
vt 0.565484 0.510653
vt 0.552978 0.510390
vt 0.547899 0.499660
vn -0.039085 0.989869 -0.136497
vn -0.059117 0.954125 -0.293513
vn -0.059117 0.954125 -0.293513
vn -0.040824 0.986458 -0.158855
vn -0.039085 0.989869 -0.136497
vn -0.040824 0.986458 -0.158855
vn 0.975679 0.172147 0.135703
vn 0.975679 0.172147 0.135703
vn 0.975680 0.172147 0.135703
vn 0.588480 0.667304 -0.456506
vn 0.588480 0.667304 -0.456506
vn 0.588479 0.667304 -0.456506
vn 0.588480 0.667304 -0.456506
vn -0.989650 -0.052764 0.133449
vn -0.989650 -0.052764 0.133449
vn -0.989650 -0.052764 0.133449
vn -0.055348 -0.333221 -0.941223
vn -0.055348 -0.333221 -0.941223
vn -0.055348 -0.333221 -0.941223
vn -0.055348 -0.333221 -0.941223
vn 0.435960 0.416281 0.797903
vn 0.435960 0.416281 0.797903
vn 0.435960 0.416281 0.797903
vn 0.435960 0.416281 0.797903
vn 0.108891 0.360641 0.926327
vn 0.108891 0.360641 0.926327
vn 0.108891 0.360641 0.926327
vn 0.108891 0.360641 0.926327
vn 0.678730 0.298890 0.670813
vn 0.678730 0.298890 0.670813
vn 0.678730 0.298890 0.670813
vn 0.678730 0.298890 0.670813
vn -0.846723 0.320481 0.424678
vn -0.846723 0.320481 0.424678
vn -0.846724 0.320481 0.424678
vn 0.973507 -0.198896 0.112801
vn 0.973507 -0.198896 0.112801
vn 0.973507 -0.198896 0.112801
vn 0.973507 -0.198896 0.112801
vn -0.843674 -0.262635 0.468227
vn -0.843674 -0.262635 0.468227
vn -0.843674 -0.262635 0.468227
vn -0.843674 -0.262635 0.468227
vn 0.091664 -0.557511 0.825094
vn 0.091664 -0.557511 0.825094
vn 0.091664 -0.557511 0.825093
vn 0.091664 -0.557511 0.825093
vn -0.993285 -0.027684 0.112329
vn -0.993285 -0.027684 0.112329
vn -0.993285 -0.027684 0.112329
vn -0.993285 -0.027684 0.112329
vn 0.793859 0.593414 0.132842
vn 0.793859 0.593414 0.132842
vn 0.793859 0.593414 0.132842
vn 0.827056 0.002362 -0.562115
vn 0.827056 0.002362 -0.562115
vn 0.827056 0.002362 -0.562115
vn 0.827056 0.002362 -0.562115
vn -0.039085 0.989869 -0.136497
vn -0.034136 0.988203 -0.149299
vn -0.034136 0.988203 -0.149299
vn 0.361019 -0.834101 0.417061
vn 0.361019 -0.834101 0.417062
vn 0.361019 -0.834101 0.417061
vn 0.361019 -0.834101 0.417062
vn 0.007573 -0.961480 0.274770
vn 0.007573 -0.961480 0.274770
vn 0.007573 -0.961480 0.274770
vn 0.007573 -0.961480 0.274770
vn -0.015488 -0.790479 0.612293
vn -0.015488 -0.790479 0.612293
vn -0.015488 -0.790479 0.612293
vn -0.015488 -0.790479 0.612293
vn -0.078554 -0.989157 0.124088
vn -0.078554 -0.989157 0.124088
vn -0.078554 -0.989157 0.124088
vn -0.078554 -0.989157 0.124088
vn -0.000000 -1.000000 -0.000004
vn -0.000000 -1.000000 -0.000004
vn -0.000000 -1.000000 -0.000004
vn -0.000000 -1.000000 -0.000004
vn 0.000000 -1.000000 -0.000003
vn 0.000000 -1.000000 -0.000003
vn 0.000000 -1.000000 -0.000003
vn 0.000000 -1.000000 -0.000003
vn 0.000000 -1.000000 -0.000004
vn 0.000000 -1.000000 -0.000004
vn 0.000000 -1.000000 -0.000004
vn 0.000000 -1.000000 -0.000004
vn -0.187120 -0.946538 0.262777
vn -0.187120 -0.946538 0.262777
vn -0.187120 -0.946538 0.262777
vn -0.187120 -0.946538 0.262777
vn 0.409473 -0.853292 0.322840
vn 0.409473 -0.853292 0.322840
vn 0.409473 -0.853292 0.322840
vn 0.409473 -0.853292 0.322840
vn 0.511140 -0.776066 0.369401
vn 0.511140 -0.776066 0.369401
vn 0.511140 -0.776066 0.369401
vn 0.286838 -0.935274 -0.207331
vn 0.286838 -0.935274 -0.207331
vn 0.286838 -0.935274 -0.207331
vn 0.301252 -0.885334 0.354163
vn 0.301252 -0.885334 0.354163
vn 0.301252 -0.885334 0.354163
vn 0.301252 -0.885334 0.354163
vn 0.323156 -0.907101 0.269699
vn 0.323156 -0.907101 0.269699
vn 0.323156 -0.907101 0.269699
vn 0.323156 -0.907101 0.269699
vn 0.000001 -1.000000 -0.000006
vn 0.000001 -1.000000 -0.000006
vn 0.000001 -1.000000 -0.000006
vn 0.999506 0.031411 0.000582
vn 0.999506 0.031411 0.000582
vn 0.999506 0.031411 0.000582
vn 0.999506 0.031411 0.000582
vn -0.985073 -0.100478 0.139769
vn -0.985073 -0.100478 0.139769
vn -0.985073 -0.100478 0.139769
vn -0.985073 -0.100478 0.139769
vn -0.066313 0.034523 -0.997202
vn -0.066313 0.034523 -0.997202
vn -0.066313 0.034523 -0.997202
vn -0.066313 0.034523 -0.997202
vn -0.869009 -0.181266 0.460397
vn -0.869009 -0.181266 0.460397
vn -0.869009 -0.181266 0.460397
vn -0.869009 -0.181266 0.460397
vn 0.979559 -0.012333 0.200776
vn 0.979560 -0.012333 0.200776
vn 0.979559 -0.012333 0.200776
vn 0.979560 -0.012333 0.200776
vn 0.756276 -0.350540 0.552421
vn 0.756276 -0.350540 0.552421
vn 0.756276 -0.350540 0.552421
vn 0.756276 -0.350540 0.552421
vn 0.471771 -0.461965 0.751013
vn 0.471771 -0.461965 0.751013
vn 0.471771 -0.461965 0.751013
vn 0.471771 -0.461965 0.751013
vn -0.493735 -0.622602 0.607118
vn -0.493735 -0.622602 0.607118
vn -0.493735 -0.622602 0.607118
vn 0.532831 -0.375701 0.758248
vn 0.532831 -0.375701 0.758248
vn 0.532831 -0.375701 0.758248
vn -0.819274 -0.095702 0.565359
vn -0.819274 -0.095702 0.565359
vn -0.819274 -0.095702 0.565359
vn 0.996666 -0.079082 0.020077
vn 0.996666 -0.079082 0.020077
vn 0.996666 -0.079082 0.020077
vn 0.999375 -0.027417 -0.022297
vn 0.999375 -0.027417 -0.022297
vn 0.999375 -0.027417 -0.022297
vn 0.999375 -0.027417 -0.022297
vn 0.681642 0.715881 -0.151258
vn 0.681642 0.715880 -0.151258
vn 0.681642 0.715881 -0.151258
vn -0.932149 0.029159 0.360900
vn -0.932149 0.029159 0.360900
vn -0.932149 0.029159 0.360900
vn -0.932149 0.029159 0.360900
vn -0.007358 0.941996 -0.335545
vn -0.007358 0.941996 -0.335545
vn -0.007358 0.941996 -0.335545
vn -0.007358 0.941996 -0.335545
vn -0.070224 0.990022 -0.122170
vn -0.070224 0.990022 -0.122170
vn -0.039085 0.989869 -0.136497
vn -0.825319 0.139467 -0.547173
vn -0.825319 0.139467 -0.547173
vn -0.825319 0.139467 -0.547173
vn -0.328678 0.528361 -0.782819
vn -0.328678 0.528361 -0.782819
vn -0.328678 0.528361 -0.782819
vn 0.898250 -0.226822 0.376429
vn 0.898250 -0.226822 0.376429
vn 0.898250 -0.226822 0.376429
vn 0.898250 -0.226822 0.376429
vn 0.497705 -0.801923 0.330468
vn 0.497705 -0.801923 0.330468
vn 0.497705 -0.801923 0.330468
vn 0.497705 -0.801923 0.330468
vn -0.321644 0.875747 -0.360016
vn -0.039085 0.989869 -0.136497
vn -0.321644 0.875747 -0.360016
vn -0.039085 0.989869 -0.136497
vn -0.010465 0.990240 -0.138979
vn -0.039085 0.989869 -0.136497
vn -0.010465 0.990240 -0.138979
vn 0.013642 0.973031 -0.230272
vn 0.013642 0.973031 -0.230272
vn -0.039085 0.989869 -0.136497
vn -0.079872 0.970982 -0.225421
vn -0.079872 0.970982 -0.225421
vn -0.079872 0.970982 -0.225421
vn -0.039085 0.989869 -0.136497
vn -0.016777 0.964497 -0.263562
vn -0.016777 0.964497 -0.263562
vn -0.014047 0.977375 -0.211045
vn -0.014047 0.977375 -0.211045
vn -0.039085 0.989869 -0.136497
vn -0.001634 0.985015 -0.172462
vn -0.039085 0.989869 -0.136497
vn -0.001634 0.985015 -0.172462
vn 0.617468 -0.385641 0.685576
vn 0.617468 -0.385641 0.685576
vn 0.617468 -0.385641 0.685576
vn 0.617468 -0.385641 0.685576
vn 0.477779 -0.217496 0.851131
vn 0.477779 -0.217496 0.851131
vn 0.477779 -0.217496 0.851131
vn 0.477779 -0.217496 0.851131
vn -0.060040 -0.174280 -0.982864
vn -0.060040 -0.174280 -0.982864
vn -0.060040 -0.174280 -0.982864
vn -0.060040 -0.174280 -0.982864
vn -0.060040 -0.174280 -0.982864
vn -0.039085 0.989869 -0.136497
vn -0.034754 0.972449 -0.230511
vn -0.034754 0.972449 -0.230511
vn -0.000004 -1.000000 -0.000011
vn -0.000004 -1.000000 -0.000011
vn -0.000004 -1.000000 -0.000011
vn -0.000002 -1.000000 0.000001
vn -0.000002 -1.000000 0.000001
vn -0.000002 -1.000000 0.000001
vn -0.343313 -0.686243 0.641255
vn -0.343313 -0.686243 0.641255
vn -0.343313 -0.686243 0.641255
vn 0.688964 -0.382310 0.615766
vn 0.688964 -0.382310 0.615766
vn 0.688964 -0.382310 0.615766
vn -0.338600 -0.458162 0.821850
vn -0.338600 -0.458162 0.821850
vn -0.338600 -0.458163 0.821850
vn 0.977994 0.014792 0.208108
vn 0.977994 0.014792 0.208108
vn 0.977994 0.014792 0.208108
vn 0.231412 0.464056 0.855044
vn 0.231412 0.464056 0.855044
vn 0.231412 0.464056 0.855044
vn 0.231412 0.464056 0.855044
vn 0.000000 1.000000 -0.000000
vn 0.000000 1.000000 -0.000000
vn 0.000000 1.000000 -0.000000
vn 0.000000 1.000000 -0.000000
vn 0.231454 0.464026 -0.855049
vn 0.231454 0.464026 -0.855049
vn 0.231454 0.464026 -0.855049
vn 0.231454 0.464026 -0.855049
vn 0.877607 0.479380 0.000000
vn 0.877607 0.479380 0.000000
vn 0.877607 0.479380 0.000000
vn 0.877607 0.479380 0.000000
vn -0.876754 0.480613 -0.017724
vn -0.793024 0.390451 0.467613
vn -0.793024 0.390450 0.467613
vn -0.877981 0.478537 0.012295
vn -0.700114 0.434357 -0.566723
vn -0.876754 0.480613 -0.017724
vn -0.877981 0.478537 0.012295
vn -0.700114 0.434357 -0.566723
vn 0.000000 1.000000 -0.000000
vn 0.000000 1.000000 -0.000000
vn 0.000000 1.000000 0.000000
vn -0.517244 0.464055 0.719105
vn -0.517244 0.464055 0.719105
vn -0.517244 0.464055 0.719105
vn -0.517244 0.464055 0.719105
vn 0.000000 1.000000 0.000000
vn 0.000000 1.000000 0.000000
vn 0.000000 1.000000 0.000000
vn 0.000000 1.000000 0.000000
vn 0.809321 0.464029 -0.360105
vn 0.809321 0.464029 -0.360105
vn 0.809321 0.464029 -0.360105
vn 0.809321 0.464029 -0.360105
vn 0.553795 0.479473 0.680747
vn 0.553795 0.479473 0.680747
vn 0.553795 0.479473 0.680747
vn 0.553795 0.479473 0.680747
vn -0.539557 0.480696 -0.691238
vn -0.863141 0.390576 -0.320059
vn -0.863141 0.390576 -0.320059
vn -0.563596 0.478623 -0.673260
vn -0.002214 0.434390 -0.900722
vn -0.539557 0.480696 -0.691238
vn -0.563596 0.478623 -0.673260
vn -0.002214 0.434390 -0.900722
vn 0.000000 1.000000 0.000000
vn 0.000000 1.000000 0.000000
vn 0.000000 1.000000 0.000000
vn 0.231437 0.464057 0.855037
vn 0.231437 0.464057 0.855037
vn 0.231437 0.464057 0.855037
vn 0.231437 0.464057 0.855037
vn 0.000000 1.000000 -0.000000
vn 0.000000 1.000000 -0.000000
vn 0.000000 1.000000 -0.000000
vn 0.000000 1.000000 -0.000000
vn 0.231416 0.464037 -0.855053
vn 0.231416 0.464037 -0.855053
vn 0.231416 0.464037 -0.855053
vn 0.231416 0.464037 -0.855053
vn 0.877589 0.479414 0.000000
vn 0.877589 0.479414 0.000000
vn 0.877589 0.479414 0.000000
vn 0.877589 0.479414 0.000000
vn -0.876755 0.480610 -0.017747
vn -0.793049 0.390427 0.467590
vn -0.793049 0.390427 0.467590
vn -0.877985 0.478530 0.012313
vn -0.700107 0.434386 -0.566709
vn -0.876755 0.480610 -0.017747
vn -0.877985 0.478530 0.012313
vn -0.700107 0.434386 -0.566709
vn 0.000000 1.000000 -0.000000
vn 0.000000 1.000000 -0.000000
vn 0.000000 1.000000 0.000000
vn 0.231412 0.464056 0.855044
vn 0.231412 0.464056 0.855044
vn 0.231412 0.464056 0.855044
vn 0.231412 0.464056 0.855044
vn 0.000000 1.000000 -0.000000
vn 0.000000 1.000000 -0.000000
vn 0.000000 1.000000 -0.000000
vn 0.000000 1.000000 -0.000000
vn 0.231454 0.464026 -0.855049
vn 0.231454 0.464026 -0.855049
vn 0.231454 0.464026 -0.855049
vn 0.231454 0.464026 -0.855049
vn 0.877607 0.479380 0.000000
vn 0.877607 0.479380 0.000000
vn 0.877607 0.479380 0.000000
vn 0.877607 0.479380 0.000000
vn -0.876754 0.480613 -0.017724
vn -0.793024 0.390451 0.467613
vn -0.793024 0.390450 0.467613
vn -0.877981 0.478537 0.012295
vn -0.700114 0.434357 -0.566723
vn -0.876754 0.480613 -0.017724
vn -0.877981 0.478537 0.012295
vn -0.700114 0.434357 -0.566723
vn 0.000000 1.000000 -0.000000
vn 0.000000 1.000000 -0.000000
vn 0.000000 1.000000 0.000000
vn -0.517244 0.464055 0.719105
vn -0.517244 0.464055 0.719105
vn -0.517244 0.464055 0.719105
vn -0.517244 0.464055 0.719105
vn 0.000000 1.000000 0.000000
vn 0.000000 1.000000 0.000000
vn 0.000000 1.000000 0.000000
vn 0.000000 1.000000 0.000000
vn 0.809321 0.464029 -0.360105
vn 0.809321 0.464029 -0.360105
vn 0.809321 0.464029 -0.360105
vn 0.809321 0.464029 -0.360105
vn 0.553795 0.479473 0.680747
vn 0.553795 0.479473 0.680747
vn 0.553795 0.479473 0.680747
vn 0.553795 0.479473 0.680747
vn -0.539557 0.480696 -0.691238
vn -0.863141 0.390576 -0.320059
vn -0.863141 0.390576 -0.320059
vn -0.563596 0.478623 -0.673260
vn -0.002214 0.434390 -0.900722
vn -0.539557 0.480696 -0.691238
vn -0.563596 0.478623 -0.673260
vn -0.002214 0.434390 -0.900722
vn 0.000000 1.000000 0.000000
vn 0.000000 1.000000 0.000000
vn 0.000000 1.000000 0.000000
s off
f 3/1/1 50/2/2 51/3/3
f 6/4/4 1/5/5 9/6/6
f 1/5/7 5/7/8 19/8/9
f 47/9/10 48/10/11 7/11/12 24/12/13
f 3/1/14 52/13/15 15/14/16
f 14/15/17 12/16/18 30/17/19 25/18/20
f 19/8/21 5/7/22 8/19/23 54/20/24
f 6/4/25 9/6/26 20/21/27 21/22/28
f 8/19/29 6/4/30 21/22/31 54/20/32
f 9/6/33 3/1/34 20/21/35
f 1/5/36 19/8/37 11/23/38 10/24/39
f 20/21/40 3/1/41 15/14/42 18/25/43
f 21/22/44 20/21/45 18/25/46 17/26/47
f 23/27/48 22/28/49 4/29/50 14/15/51
f 7/11/52 1/5/53 24/12/54
f 13/30/55 47/9/56 24/12/57 53/31/58
f 1/5/59 7/11/60 50/2/61
f 17/26/62 28/32/63 34/33/64 16/34/65
f 18/25/66 29/35/67 28/32/68 17/26/69
f 23/27/70 26/36/71 27/37/72 15/14/73
f 25/18/74 26/36/75 23/27/76 14/15/77
f 36/46/78 37/47/79 38/48/80 39/49/81
f 40/50/82 38/48/83 37/47/84 41/51/85
f 42/52/86 43/53/87 44/54/88 45/55/89
f 15/14/90 27/37/91 29/35/92 18/25/93
f 12/16/94 13/30/95 31/38/96 30/17/97
f 32/39/98 31/38/99 13/30/100
f 53/31/101 32/39/102 13/30/103
f 16/34/104 34/33/105 35/40/106 11/23/107
f 11/23/108 35/40/109 33/41/110 10/24/111
f 42/52/112 41/51/113 43/53/114
f 30/57/115 31/58/116 37/47/117 36/46/118
f 26/59/119 25/60/120 39/49/121 38/48/122
f 25/60/123 30/57/124 36/46/125 39/49/126
f 27/61/127 26/59/128 38/48/129 40/50/130
f 31/58/131 32/62/132 41/51/133 37/47/134
f 33/63/135 35/64/136 44/54/137 43/53/138
f 35/64/139 34/65/140 45/55/141 44/54/142
f 45/55/143 28/66/144 42/52/145
f 42/52/146 29/67/147 46/56/148
f 29/67/149 27/61/150 40/50/151
f 32/62/152 33/63/153 43/53/154
f 2/42/155 47/9/156 13/30/157 12/16/158
f 2/42/159 48/10/160 47/9/161
f 15/14/162 49/43/163 22/28/164 23/27/165
f 51/3/166 50/2/167 7/11/168 48/10/169
f 22/28/170 51/3/171 4/29/172
f 15/14/173 52/13/174 49/43/175
f 49/43/176 52/13/177 51/3/178
f 24/12/179 1/5/180 10/24/181 53/31/182
f 33/41/183 32/39/184 53/31/185 10/24/186
f 8/19/187 1/5/188 6/4/189
f 1/5/190 50/2/191 3/1/192 9/6/193
f 55/44/194 51/3/195 2/42/196
f 22/28/197 49/43/198 51/3/199
f 2/42/200 51/3/201 48/10/202
f 51/3/203 52/13/204 3/1/205
f 5/7/206 1/5/207 8/19/208
f 54/20/209 21/22/210 17/26/211 16/34/212
f 19/8/213 54/20/214 16/34/215 11/23/216
f 4/29/217 55/44/218 2/42/219 12/16/220 14/15/221
f 4/29/222 51/3/223 55/44/224
f 42/52/225 40/50/226 41/51/227
f 42/52/228 46/56/229 40/50/230
f 28/66/231 29/67/232 42/52/233
f 34/65/234 28/66/235 45/55/236
f 29/67/237 40/50/238 46/56/239
f 32/62/240 43/53/241 41/51/242
f 56/45/243 57/68/244 59/69/245 58/70/246
f 58/70/247 59/69/248 61/71/249 64/72/250
f 60/73/251 61/71/252 63/74/253 62/75/254
f 57/68/255 63/74/256 61/71/257 59/69/258
f 65/76/259 56/45/260 58/70/261 64/72/262
f 62/75/263 65/76/264 64/72/265 60/73/266
f 64/72/267 61/71/268 60/73/269
f 66/77/270 67/78/271 69/79/272 68/80/273
f 68/80/274 69/79/275 71/81/276 74/82/277
f 70/83/278 71/81/279 73/84/280 72/85/281
f 67/78/282 73/84/283 71/81/284 69/79/285
f 75/86/286 66/77/287 68/80/288 74/82/289
f 72/85/290 75/86/291 74/82/292 70/83/293
f 74/82/294 71/81/295 70/83/296
f 76/87/297 77/88/298 79/89/299 78/90/300
f 78/90/301 79/89/302 81/91/303 84/92/304
f 80/93/305 81/91/306 83/94/307 82/95/308
f 77/88/309 83/94/310 81/91/311 79/89/312
f 85/96/313 76/87/314 78/90/315 84/92/316
f 82/95/317 85/96/318 84/92/319 80/93/320
f 84/92/321 81/91/322 80/93/323
f 86/97/324 87/98/325 89/99/326 88/100/327
f 88/100/328 89/99/329 91/101/330 94/102/331
f 90/103/332 91/101/333 93/104/334 92/105/335
f 87/98/336 93/104/337 91/101/338 89/99/339
f 95/106/340 86/97/341 88/100/342 94/102/343
f 92/105/344 95/106/345 94/102/346 90/103/347
f 94/102/348 91/101/349 90/103/350
f 96/107/351 97/108/352 99/109/353 98/110/354
f 98/110/355 99/109/356 101/111/357 104/112/358
f 100/113/359 101/111/360 103/114/361 102/115/362
f 97/108/363 103/114/364 101/111/365 99/109/366
f 105/116/367 96/107/368 98/110/369 104/112/370
f 102/115/371 105/116/372 104/112/373 100/113/374
f 104/112/375 101/111/376 100/113/377
