# This file uses centimeters as units for non-parametric coordinates.

v 0.220245 -1.649944 0.179932
v 2.595215 -1.614370 -1.608734
v 15.684692 23.578115 10.813019
v -4.803528 -1.784651 -2.193939
v 1.250000 -1.687283 -6.058517
v 8.399994 18.695070 6.553955
v 11.568665 17.648855 3.328491
v 9.846283 20.584150 1.981201
v 6.676453 21.630770 5.207901
v 5.113678 13.767986 -3.872986
v 0.436249 15.029335 0.595749
v 6.835938 11.487465 -1.354904
v 3.900909 12.030811 1.570984
v -5.304749 -1.782801 -5.552124
v -6.950745 -1.829435 2.512695
v -5.136566 33.422745 25.068253
v -0.645508 -1.692677 -4.680496
v -2.290222 -1.739290 3.383667
v -8.172394 29.108477 11.187851
v -9.252441 27.273300 14.946289
v -3.899658 26.963474 15.813339
v -2.819183 28.798666 12.054871
v -3.103485 15.928213 7.243439
v -1.598053 18.402575 1.904633
v -7.830231 18.790140 0.995834
v -9.148071 16.076811 6.221863
v -4.692719 -1.738890 -1.867599
v 1.224670 -1.705442 -3.883957
v 8.932495 42.010284 -33.221695
v -5.296234 -1.789793 -5.255417
v 0.619415 -1.738890 -7.270752
v 4.957275 38.475040 -22.651733
v 8.909088 37.546024 -22.573441
v 6.908569 34.406281 -24.865341
v 2.957397 35.335510 -24.943787
v 5.186920 20.978203 -16.068359
v -1.087036 21.666054 -15.806412
v 0.420135 23.668186 -12.462448
v 6.694885 22.980545 -12.724762
vt 0.177016 0.298518
vt 0.177016 0.298518
vt 0.177016 0.298518
vt 0.177016 0.298518
vt 0.177016 0.298518
vt 0.177016 0.298518
vt 0.177016 0.298518
vt 0.177016 0.298518
vt 0.177016 0.298518
vt 0.177016 0.298518
vt 0.177016 0.298518
vt 0.177016 0.298518
vt 0.177016 0.298518
vt 0.177016 0.298518
vt 0.177016 0.298518
vt 0.177016 0.298518
vt 0.177016 0.298518
vt 0.177016 0.298518
vt 0.177016 0.298518
vt 0.177016 0.298518
vt 0.177016 0.298518
vt 0.177016 0.298518
vt 0.177016 0.298518
vt 0.177016 0.298518
vt 0.177016 0.298518
vt 0.177016 0.298518
vt 0.177016 0.298518
vt 0.177016 0.298518
vt 0.177016 0.298518
vt 0.177016 0.298518
vt 0.177016 0.298518
vt 0.177016 0.298518
vt 0.177016 0.298518
vt 0.177016 0.298518
vt 0.177016 0.298518
vt 0.177016 0.298518
vt 0.177016 0.298518
vt 0.177016 0.298518
vt 0.177016 0.298518
vt 0.177016 0.298518
vt 0.177016 0.298518
vt 0.177016 0.298518
vt 0.177016 0.298518
vt 0.177016 0.298518
vt 0.177016 0.298518
vt 0.177016 0.298518
vt 0.177016 0.298518
vt 0.177016 0.298518
vt 0.177016 0.298518
vt 0.177016 0.298518
vt 0.177016 0.298518
vt 0.177016 0.298518
vt 0.177016 0.298518
vt 0.177016 0.298518
vt 0.177016 0.298518
vt 0.177016 0.298518
vt 0.177016 0.298518
vt 0.177016 0.298518
vt 0.177016 0.298518
vt 0.177016 0.298518
vt 0.177016 0.298518
vt 0.177016 0.298518
vt 0.177016 0.298518
vn 0.250715 -0.821173 0.512657
vn 0.250715 -0.821173 0.512657
vn 0.250715 -0.821173 0.512657
vn -0.008449 0.948713 -0.316026
vn -0.008449 0.948713 -0.316026
vn -0.008449 0.948713 -0.316026
vn 0.022244 -0.999706 0.009655
vn 0.022244 -0.999706 0.009655
vn 0.022244 -0.999706 0.009655
vn 0.022246 -0.999706 0.009655
vn 0.022246 -0.999706 0.009655
vn 0.022246 -0.999706 0.009655
vn 0.787147 0.193011 -0.585787
vn 0.787147 0.193011 -0.585787
vn 0.787147 0.193011 -0.585787
vn -0.537811 0.069493 0.840196
vn -0.537811 0.069493 0.840196
vn -0.537811 0.069493 0.840196
vn 0.633190 -0.232615 0.738215
vn 0.633190 -0.232615 0.738215
vn 0.633190 -0.232615 0.738215
vn 0.633190 -0.232615 0.738215
vn 0.869107 -0.208329 -0.448612
vn 0.869107 -0.208329 -0.448612
vn 0.869107 -0.208329 -0.448612
vn 0.869107 -0.208329 -0.448612
vn -0.350035 0.737137 -0.578018
vn -0.350035 0.737137 -0.578018
vn -0.350035 0.737137 -0.578018
vn -0.350035 0.737137 -0.578018
vn -0.372294 -0.018312 0.927934
vn -0.372294 -0.018312 0.927934
vn -0.372294 -0.018312 0.927934
vn -0.372294 -0.018312 0.927934
vn -0.569716 0.279859 -0.772724
vn -0.569716 0.279859 -0.772724
vn -0.569716 0.279859 -0.772724
vn -0.569716 0.279859 -0.772724
vn 0.745194 -0.002047 -0.666845
vn 0.745194 -0.002047 -0.666845
vn 0.745194 -0.002047 -0.666845
vn 0.745194 -0.002047 -0.666845
vn 0.393358 -0.716929 0.575571
vn 0.393358 -0.716929 0.575571
vn 0.393358 -0.716929 0.575571
vn 0.393358 -0.716929 0.575571
vn -0.545301 -0.154469 0.823885
vn -0.545301 -0.154469 0.823885
vn -0.545301 -0.154469 0.823885
vn -0.545301 -0.154469 0.823885
vn -0.844683 0.534948 0.018472
vn -0.844683 0.534948 0.018472
vn -0.844683 0.534948 0.018472
vn 0.968066 -0.125540 0.216999
vn 0.968066 -0.125540 0.216999
vn 0.968066 -0.125540 0.216999
vn 0.019670 -0.999805 -0.001767
vn 0.019670 -0.999805 -0.001767
vn 0.019670 -0.999805 -0.001767
vn 0.019669 -0.999805 -0.001767
vn 0.019669 -0.999805 -0.001767
vn 0.019669 -0.999805 -0.001767
vn -0.137325 -0.820780 0.554493
vn -0.137325 -0.820780 0.554493
vn -0.137325 -0.820780 0.554493
vn 0.105770 0.942789 -0.316168
vn 0.105770 0.942789 -0.316168
vn 0.105770 0.942789 -0.316168
vn -0.971856 0.143853 -0.186554
vn -0.971856 0.143853 -0.186554
vn -0.971856 0.143853 -0.186554
vn -0.971856 0.143853 -0.186554
vn -0.153306 -0.610609 0.776951
vn -0.153306 -0.610609 0.776951
vn -0.153306 -0.610609 0.776951
vn -0.153306 -0.610609 0.776951
vn 0.968553 -0.105613 0.225281
vn 0.968553 -0.105613 0.225281
vn 0.968553 -0.105613 0.225281
vn 0.968553 -0.105613 0.225281
vn 0.161468 0.315752 -0.935002
vn 0.161468 0.315752 -0.935002
vn 0.161468 0.315752 -0.935002
vn 0.161468 0.315752 -0.935002
vn 0.974038 -0.016895 0.225754
vn 0.974038 -0.016895 0.225754
vn 0.974038 -0.016895 0.225754
vn 0.974038 -0.016895 0.225754
vn 0.149318 0.698527 -0.699832
vn 0.149318 0.698527 -0.699832
vn 0.149318 0.698527 -0.699832
vn 0.149318 0.698527 -0.699832
vn -0.971729 -0.058278 -0.228796
vn -0.971729 -0.058278 -0.228796
vn -0.971728 -0.058278 -0.228796
vn -0.971729 -0.058278 -0.228796
vn -0.171027 -0.218869 0.960649
vn -0.171027 -0.218869 0.960649
vn -0.171027 -0.218869 0.960649
vn -0.171027 -0.218869 0.960649
vn 0.204671 0.902546 0.378840
vn 0.204671 0.902546 0.378840
vn 0.204671 0.902546 0.378840
vn -0.153840 -0.711981 -0.685139
vn -0.153840 -0.711981 -0.685139
vn -0.153840 -0.711981 -0.685139
vn 0.011281 -0.999906 0.007859
vn 0.011281 -0.999906 0.007859
vn 0.011281 -0.999906 0.007859
vn 0.010154 -0.999861 0.013214
vn 0.010154 -0.999861 0.013214
vn 0.010154 -0.999861 0.013214
vn 0.883761 -0.432236 -0.179271
vn 0.883761 -0.432236 -0.179271
vn 0.883761 -0.432236 -0.179271
vn -0.802193 0.587739 -0.105118
vn -0.802193 0.587739 -0.105118
vn -0.802193 0.587739 -0.105118
vn 0.101090 0.544707 0.832511
vn 0.101090 0.544707 0.832511
vn 0.101090 0.544707 0.832511
vn 0.101090 0.544707 0.832511
vn 0.907667 -0.313483 -0.279049
vn 0.907667 -0.313483 -0.279049
vn 0.907667 -0.313483 -0.279049
vn 0.907667 -0.313483 -0.279049
vn -0.099570 -0.534350 -0.839378
vn -0.099570 -0.534350 -0.839378
vn -0.099570 -0.534350 -0.839378
vn -0.099570 -0.534350 -0.839378
vn -0.895942 0.400438 0.192191
vn -0.895942 0.400438 0.192191
vn -0.895942 0.400438 0.192191
vn -0.895942 0.400438 0.192191
vn -0.189695 -0.348578 -0.917883
vn -0.189695 -0.348578 -0.917883
vn -0.189695 -0.348578 -0.917883
vn -0.189695 -0.348578 -0.917883
vn -0.939033 0.270820 0.211831
vn -0.939034 0.270820 0.211831
vn -0.939034 0.270820 0.211831
vn -0.939034 0.270820 0.211831
vn 0.190620 0.319824 0.928104
vn 0.190620 0.319824 0.928104
vn 0.190620 0.319824 0.928104
vn 0.190620 0.319824 0.928104
vn 0.937535 -0.276894 -0.210615
vn 0.937535 -0.276894 -0.210615
vn 0.937535 -0.276894 -0.210615
vn 0.937535 -0.276894 -0.210615
s off
f 6/1/1 7/2/2 3/3/3
f 3/3/4 8/4/5 9/5/6
f 4/6/7 5/7/8 1/8/9
f 1/8/10 5/7/11 2/9/12
f 7/2/13 8/10/14 3/3/15
f 9/11/16 6/1/17 3/3/18
f 1/12/19 2/13/20 12/14/21 13/15/22
f 2/13/23 5/16/24 10/17/25 12/14/26
f 10/18/27 11/19/28 9/5/29 8/4/30
f 13/15/31 11/20/32 4/21/33 1/12/34
f 4/6/35 11/19/36 10/18/37 5/7/38
f 12/14/39 10/17/40 8/10/41 7/2/42
f 13/15/43 12/14/44 7/2/45 6/1/46
f 9/11/47 11/20/48 13/15/49 6/1/50
f 19/22/51 20/23/52 16/24/53
f 16/24/54 21/25/55 22/26/56
f 17/27/57 18/28/58 14/29/59
f 14/29/60 18/28/61 15/30/62
f 20/23/63 21/31/64 16/24/65
f 22/32/66 19/22/67 16/24/68
f 19/22/69 25/33/70 26/34/71 20/23/72
f 26/34/73 23/35/74 21/31/75 20/23/76
f 22/26/77 21/25/78 23/36/79 24/37/80
f 25/33/81 24/38/82 17/39/83 14/40/84
f 24/37/85 23/36/86 18/28/87 17/27/88
f 22/32/89 24/38/90 25/33/91 19/22/92
f 26/34/93 25/33/94 14/40/95 15/41/96
f 15/41/97 18/42/98 23/35/99 26/34/100
f 32/43/101 33/44/102 29/45/103
f 29/45/104 34/46/105 35/47/106
f 31/48/107 28/49/108 30/50/109
f 30/50/110 28/49/111 27/51/112
f 33/44/113 34/52/114 29/45/115
f 35/53/116 32/43/117 29/45/118
f 32/43/119 38/54/120 39/55/121 33/44/122
f 33/44/123 39/55/124 36/56/125 34/52/126
f 35/47/127 34/46/128 36/57/129 37/58/130
f 37/59/131 38/54/132 32/43/133 35/53/134
f 37/58/135 36/57/136 31/48/137 30/50/138
f 30/60/139 27/61/140 38/54/141 37/59/142
f 39/55/143 38/54/144 27/61/145 28/62/146
f 36/56/147 39/55/148 28/62/149 31/63/150
