# This file uses centimeters as units for non-parametric coordinates.

v 0.000000 0.000000 0.000000
v 15.744019 75.891792 -227.879517
v 15.744019 45.535057 -136.727661
v 0.000000 45.535065 -136.727661
v 0.000000 75.891785 -227.879517
v 0.000000 15.178362 -45.575928
v 15.744019 15.178349 -45.575928
v 15.744019 106.248497 -319.031250
v 0.000000 106.248497 -319.031250
v 15.744019 0.000000 0.000000
v 0.000122 249.978638 -751.494995
v 15.743896 197.318604 -592.486694
v 15.744019 166.961884 -501.334839
v -0.000122 166.961914 -501.334839
v -0.000122 197.318665 -592.486694
v -0.000122 136.605209 -410.183228
v 15.744019 136.605209 -410.183228
v 15.744019 227.675354 -683.638550
v -0.000122 227.675354 -683.638550
v 15.744019 249.985718 -751.537964
v 640.065552 282.618286 -751.538208
v 640.065552 213.026245 -751.538208
v 640.065552 148.001892 -751.538208
v 629.208618 148.001892 -751.538208
v 560.121216 262.688141 -751.538208
v 562.784912 365.673645 -751.538208
v 637.059937 365.673645 -751.538208
v 570.500244 371.716797 -751.538208
v 628.113647 371.716797 -751.538208
v 526.967163 255.553406 -751.538208
v 526.966675 262.927856 -751.538208
v 490.498047 249.995239 -751.523804
v 499.881592 255.553406 -751.538208
v 0.000000 148.001923 -751.538208
v 0.000000 -101.998100 0.000122
v 640.065552 -36.973755 0.000122
v 640.065552 32.618267 0.000122
v 560.121216 12.688137 0.000122
v 629.208618 -101.998116 0.000122
v 640.065552 -101.998116 0.000122
v 637.059937 115.673637 0.000122
v 562.784912 115.673637 0.000122
v 640.065552 152.725342 -361.060059
v 640.065552 83.133308 -361.060059
v 640.065552 18.108942 -361.060059
v 629.208618 18.108942 -361.060059
v 559.341675 137.496094 -375.912354
v 640.065552 90.580803 -174.244141
v 640.065552 19.021982 -168.331665
v 640.065552 -40.102642 -171.102295
v 629.208618 -46.002384 -168.331665
v 560.899658 68.923576 -168.331665
v 640.065552 226.591644 -583.113403
v 640.065552 157.574036 -584.840210
v 640.065552 99.257805 -594.453979
v 629.208618 97.909523 -600.952759
v 560.900635 211.876007 -598.068481
v 631.814087 170.717468 -172.391357
v 560.900635 169.145309 -167.665161
v 564.669189 238.454269 -369.097168
v 634.054321 237.627182 -366.610962
v 568.839600 304.912750 -580.800903
v 640.065552 303.937256 -577.868286
v 570.500244 121.716789 0.000122
v 568.046143 175.455048 -168.466553
v 571.556885 244.357788 -368.677368
v 576.038330 310.790894 -580.304565
v 628.113647 121.716789 0.000122
v 623.527466 176.452042 -171.463745
v 626.067993 243.833405 -367.101074
v 631.717896 310.171783 -578.443481
v 526.967163 61.549145 -168.331665
v 526.967163 5.553408 0.000122
v 526.966675 12.927843 0.000122
v 529.609009 69.749733 -168.385864
v 526.967163 205.461044 -600.952759
v 526.967163 130.543884 -375.740356
v 526.966187 137.918335 -375.740356
v 529.470581 213.420410 -600.517700
v 490.498047 55.995735 -168.331665
v 490.498047 0.000000 0.000122
v 490.498047 199.907623 -600.952759
v 490.498047 124.990479 -375.740356
v 498.917358 205.461044 -600.952759
v 500.845825 130.543884 -375.740356
v 498.917358 61.549145 -168.331665
v 499.881592 5.553408 0.000122
vt 0.047261 0.662560
vt 0.018212 0.628098
vt 0.045435 0.389586
vt 0.018212 0.395296
vt 0.018212 0.860898
vt 0.048581 0.860898
vt 0.018212 0.977299
vt 0.048581 0.162495
vt 0.018212 0.162495
vt 0.069402 0.003988
vt 0.069402 0.003988
vt 0.069402 0.003988
vt 0.069402 0.003988
vt 0.069402 0.003988
vt 0.069402 0.003988
vt 0.069402 0.003988
vt 0.069402 0.003988
vt 0.086990 0.977299
vt 0.047261 0.662560
vt 0.045435 0.389586
vt 0.018212 0.628098
vt 0.018212 0.395296
vt 0.018212 0.860898
vt 0.048581 0.860898
vt 0.018212 0.046094
vt 0.018212 0.162495
vt 0.048581 0.162495
vt 0.069402 0.003988
vt 0.069402 0.003988
vt 0.069402 0.003988
vt 0.069402 0.003988
vt 0.069402 0.003988
vt 0.069402 0.003988
vt 0.069402 0.003988
vt 0.069402 0.003988
vt 0.080512 0.046094
vt 0.033752 0.005623
vt 0.033752 0.005623
vt 0.033752 0.005623
vt 0.033752 0.005623
vt 0.033752 0.005623
vt 0.033752 0.005623
vt 0.033752 0.005623
vt 0.033752 0.005623
vt 0.033752 0.005625
vt 0.033752 0.005625
vt 0.033752 0.005625
vt 0.033752 0.005625
vt 0.033752 0.005623
vt 0.033752 0.005623
vt 0.033752 0.005623
vt 0.033752 0.005623
vt 0.033748 0.005623
vt 0.033752 0.005625
vt 0.033752 0.005625
vt 0.033752 0.005623
vt 0.033752 0.005623
vt 0.033752 0.005623
vt 0.033752 0.005623
vt 0.033752 0.005623
vt 0.033752 0.005623
vt 0.033752 0.005623
vt 0.033752 0.005623
vt 0.033752 0.005623
vt 0.033752 0.005623
vt 0.033752 0.005623
vt 0.033752 0.005623
vt 0.033748 0.005623
vt 0.033752 0.005625
vt 0.033752 0.005625
vt 0.033752 0.005625
vt 0.033752 0.005625
vt 0.033752 0.005625
vt 0.033752 0.005625
vt 0.033752 0.005623
vt 0.033752 0.005623
vt 0.033752 0.005623
vt 0.033752 0.005623
vt 0.033752 0.005623
vt 0.033752 0.005623
vt 0.033752 0.005623
vt 0.033752 0.005625
vt 0.033752 0.005625
vt 0.033752 0.005625
vt 0.033752 0.005623
vt 0.033752 0.005623
vt 0.033752 0.005623
vt 0.033752 0.005623
vt 0.033752 0.005623
vt 0.033752 0.005623
vt 0.033752 0.005623
vt 0.033752 0.005623
vt 0.033752 0.005623
vt 0.022324 0.004091
vt 0.022324 0.004091
vt 0.022385 0.004091
vt 0.022385 0.004091
vt 0.022324 0.004091
vt 0.022324 0.004091
vt 0.022385 0.004091
vt 0.022385 0.004091
vt 0.022324 0.004091
vt 0.022385 0.004091
vt 0.022385 0.004092
vt 0.022385 0.004092
vt 0.022385 0.004092
vt 0.022385 0.004092
vt 0.022385 0.004092
vt 0.048581 0.162495
vt 0.982650 0.511697
vt 0.982650 0.235623
vt 0.046193 0.334902
vt 0.047261 0.662560
vt 0.982650 0.977299
vt 0.982650 0.771015
vt 0.048002 0.773842
vt 0.048581 0.860898
vt 0.046933 0.613519
vt 0.982650 0.046094
vt 0.077482 0.977299
vt 0.088872 0.046094
vt 0.047880 0.755569
vt 0.045728 0.433304
vt 0.023926 0.031593
vt 0.023926 0.031595
vt 0.023926 0.031601
vt 0.023926 0.031601
vt 0.023926 0.031600
vt 0.023926 0.031595
vt 0.023926 0.031596
vt 0.023926 0.031597
vt 0.023926 0.031599
vt 0.023926 0.031599
vt 0.023926 0.031598
vt 0.023926 0.031598
vt 0.026001 0.031281
vt 0.026001 0.031281
vt 0.026001 0.031281
vt 0.026001 0.031281
vt 0.015381 0.003867
vt 0.015381 0.003864
vt 0.015381 0.003867
vt 0.015381 0.003867
vt 0.015381 0.003867
vt 0.015381 0.003864
vt 0.015381 0.003867
vt 0.026001 0.031281
vt 0.015381 0.003867
vt 0.015381 0.003864
vt 0.015381 0.003864
vt 0.015381 0.003867
vt 0.015381 0.003867
vt 0.015381 0.003867
vt 0.025375 0.003866
vt 0.025391 0.003866
vt 0.025375 0.003866
vt 0.025375 0.003866
vt 0.025375 0.003866
vt 0.025375 0.003866
vt 0.025375 0.003866
vt 0.025391 0.003866
vt 0.025375 0.003866
vt 0.025375 0.003866
vt 0.025375 0.003866
vt 0.025391 0.003866
vt 0.025391 0.003866
vt 0.982650 0.977299
vn -0.000000 0.948768 0.315973
vn -0.000000 0.948768 0.315973
vn -0.000000 0.948768 0.315973
vn -0.000001 0.948768 0.315973
vn -0.000001 0.948768 0.315973
vn -0.000001 0.948768 0.315973
vn 0.000001 0.948768 0.315973
vn 0.000001 0.948768 0.315973
vn 0.000001 0.948768 0.315973
vn 0.000000 0.948768 0.315973
vn 0.000000 0.948768 0.315973
vn 0.000000 0.948768 0.315973
vn 0.000001 0.948768 0.315973
vn 0.000001 0.948768 0.315973
vn 0.000001 0.948768 0.315973
vn 0.000000 0.948768 0.315973
vn 0.000000 0.948768 0.315973
vn 0.000000 0.948768 0.315973
vn -0.000000 0.948768 0.315973
vn -0.000000 0.948768 0.315973
vn -0.000000 0.948768 0.315973
vn 0.000000 0.948768 0.315972
vn 0.000000 0.948768 0.315972
vn 0.000000 0.948768 0.315972
vn 0.000003 0.948768 0.315973
vn 0.000003 0.948768 0.315973
vn 0.000003 0.948768 0.315973
vn 0.000003 0.948768 0.315973
vn 0.000000 0.950000 0.312249
vn 0.000000 0.950000 0.312249
vn 0.000000 0.950000 0.312249
vn 0.000001 0.948768 0.315973
vn 0.000001 0.948768 0.315973
vn 0.000001 0.948768 0.315973
vn 0.000000 0.948768 0.315973
vn 0.000000 0.948768 0.315973
vn 0.000000 0.948768 0.315973
vn 0.000000 0.948768 0.315973
vn 0.000000 0.948768 0.315973
vn 0.000000 0.948768 0.315973
vn 0.000004 0.948768 0.315973
vn 0.000004 0.948768 0.315973
vn 0.000004 0.948768 0.315973
vn 0.000425 0.950029 0.312161
vn 0.000425 0.950029 0.312161
vn 0.000425 0.950029 0.312161
vn 0.000000 0.948768 0.315972
vn 0.000000 0.948768 0.315972
vn 0.000000 0.948768 0.315972
vn 0.000000 0.948768 0.315972
vn 0.556723 0.795827 0.238157
vn 0.556723 0.795827 0.238157
vn 0.556723 0.795827 0.238157
vn 0.556723 0.795827 0.238157
vn 0.210010 -0.923580 -0.320774
vn 0.210010 -0.923580 -0.320774
vn 0.210010 -0.923580 -0.320774
vn 0.210010 -0.923580 -0.320774
vn -0.984746 0.167165 0.048283
vn -0.984746 0.167165 0.048283
vn -0.984746 0.167165 0.048283
vn -0.984746 0.167165 0.048283
vn 1.000000 0.000000 0.000000
vn 1.000000 0.000000 0.000000
vn 1.000000 0.000000 0.000000
vn 1.000000 0.000000 0.000000
vn 1.000000 0.000001 0.000000
vn 1.000000 0.000001 0.000000
vn 1.000000 0.000001 0.000000
vn 1.000000 0.000001 0.000000
vn -0.000000 -0.948877 -0.315645
vn -0.000000 -0.948877 -0.315645
vn -0.000000 -0.948877 -0.315645
vn -0.999886 0.013087 0.007564
vn -0.999886 0.013087 0.007564
vn -0.999886 0.013087 0.007564
vn -0.999886 0.013087 0.007564
vn 0.997608 0.068733 0.007310
vn 0.997608 0.068733 0.007310
vn 0.997608 0.068733 0.007310
vn 0.997608 0.068733 0.007310
vn 0.998979 0.037061 0.025848
vn 0.998979 0.037061 0.025848
vn 0.998979 0.037061 0.025848
vn 0.998979 0.037061 0.025848
vn 1.000000 0.000000 0.000000
vn 1.000000 0.000000 0.000000
vn 1.000000 0.000000 0.000000
vn 1.000000 0.000000 0.000000
vn 1.000000 0.000000 0.000000
vn 1.000000 0.000000 0.000000
vn 1.000000 0.000000 0.000000
vn 1.000000 0.000000 0.000000
vn 0.153311 -0.935561 -0.318154
vn 0.153311 -0.935561 -0.318154
vn 0.153311 -0.935561 -0.318154
vn 0.153311 -0.935561 -0.318154
vn 0.000000 -0.948877 -0.315645
vn 0.000000 -0.948877 -0.315645
vn 0.000000 -0.948877 -0.315645
vn 0.000000 -0.948877 -0.315645
vn -0.986028 0.159559 0.047849
vn -0.986028 0.159559 0.047849
vn -0.986028 0.159559 0.047849
vn -0.986028 0.159560 0.047849
vn -0.997705 0.067158 0.008625
vn -0.997705 0.067158 0.008625
vn -0.997705 0.067158 0.008625
vn -0.997705 0.067158 0.008625
vn 0.995599 0.086830 0.035262
vn 0.995599 0.086830 0.035262
vn 0.995599 0.086830 0.035262
vn 0.995599 0.086830 0.035262
vn 1.000000 -0.000000 0.000000
vn 1.000000 -0.000000 0.000000
vn 1.000000 -0.000000 0.000000
vn 1.000000 -0.000000 0.000000
vn 1.000000 0.000000 0.000000
vn 1.000000 0.000000 0.000000
vn 1.000000 0.000000 0.000000
vn 1.000000 0.000000 0.000000
vn 0.214821 -0.930285 -0.297359
vn 0.214821 -0.930285 -0.297359
vn 0.214821 -0.930285 -0.297359
vn 0.214821 -0.930285 -0.297359
vn -0.000000 -0.948877 -0.315645
vn -0.000000 -0.948877 -0.315645
vn -0.000000 -0.948877 -0.315645
vn -0.984025 0.167062 0.061518
vn -0.984025 0.167062 0.061518
vn -0.984025 0.167062 0.061518
vn -0.984025 0.167062 0.061518
vn -0.999647 0.026347 0.003479
vn -0.999647 0.026347 0.003479
vn -0.999647 0.026347 0.003479
vn -0.999647 0.026347 0.003479
vn 0.999820 0.018810 -0.002309
vn 0.999820 0.018810 -0.002309
vn 0.999820 0.018810 -0.002309
vn 0.999820 0.018810 -0.002309
vn 1.000000 0.000000 0.000000
vn 1.000000 0.000000 0.000000
vn 1.000000 0.000000 0.000000
vn 1.000000 0.000000 0.000000
vn 1.000000 -0.000000 0.000000
vn 1.000000 -0.000000 0.000000
vn 1.000000 -0.000000 0.000000
vn 1.000000 -0.000000 0.000000
vn 0.148974 -0.941456 -0.302436
vn 0.148974 -0.941456 -0.302436
vn 0.148974 -0.941456 -0.302436
vn 0.148974 -0.941456 -0.302436
vn -0.000000 -0.948877 -0.315645
vn -0.000000 -0.948877 -0.315645
vn -0.000000 -0.948877 -0.315645
vn -0.985389 0.159123 0.060728
vn -0.985389 0.159123 0.060728
vn -0.985389 0.159123 0.060728
vn -0.985389 0.159123 0.060728
vn -0.997979 0.050593 0.038448
vn -0.997979 0.050593 0.038448
vn -0.997979 0.050593 0.038448
vn -0.997979 0.050593 0.038448
vn 0.573888 0.772093 0.272994
vn 0.573888 0.772093 0.272994
vn 0.573888 0.772093 0.272994
vn 0.573888 0.772093 0.272994
vn 0.574381 0.776355 0.259537
vn 0.574381 0.776355 0.259537
vn 0.574381 0.776355 0.259536
vn 0.574381 0.776355 0.259537
vn 0.551385 0.789314 0.270107
vn 0.551385 0.789314 0.270107
vn 0.551385 0.789314 0.270107
vn 0.551385 0.789314 0.270107
vn -0.611397 0.751586 0.247612
vn -0.611397 0.751586 0.247612
vn -0.611397 0.751586 0.247612
vn -0.611397 0.751586 0.247612
vn -0.633317 0.735237 0.241528
vn -0.633317 0.735237 0.241528
vn -0.633317 0.735237 0.241528
vn -0.633317 0.735237 0.241528
vn -0.634253 0.741244 0.219728
vn -0.634253 0.741245 0.219728
vn -0.634253 0.741245 0.219728
vn -0.634253 0.741245 0.219728
vn -0.604215 0.744020 0.285235
vn -0.604215 0.744020 0.285235
vn -0.604215 0.744020 0.285235
vn -0.604215 0.744020 0.285235
vn -0.000342 0.952669 0.304009
vn -0.000342 0.952669 0.304009
vn -0.000342 0.952669 0.304009
vn -0.000342 0.952669 0.304009
vn 0.000143 0.945531 0.325533
vn 0.000143 0.945531 0.325533
vn 0.000143 0.945531 0.325533
vn 0.000143 0.945531 0.325533
vn 0.000558 0.954094 0.299506
vn 0.000558 0.954094 0.299506
vn 0.000558 0.954094 0.299506
vn 0.000558 0.954094 0.299506
vn -0.000356 0.942175 0.335122
vn -0.000356 0.942175 0.335122
vn -0.000356 0.942174 0.335122
vn -0.000356 0.942174 0.335122
vn 0.015408 0.947830 0.318402
vn 0.015408 0.947830 0.318402
vn 0.015408 0.947830 0.318402
vn 0.015408 0.947830 0.318402
vn 0.017866 0.947906 0.318049
vn 0.017866 0.947906 0.318049
vn 0.017866 0.947906 0.318049
vn 0.017866 0.947906 0.318049
vn 0.019200 0.949639 0.312757
vn 0.019200 0.949639 0.312757
vn 0.019200 0.949639 0.312757
vn 0.019200 0.949639 0.312757
vn 0.014376 0.949727 0.312749
vn 0.014376 0.949727 0.312749
vn 0.014376 0.949727 0.312749
vn 0.014376 0.949727 0.312749
vn 0.000000 0.948877 0.315645
vn 0.000000 0.948877 0.315645
vn 0.000000 0.948878 0.315645
vn 0.000000 0.948878 0.315645
vn 0.000000 0.948877 0.315645
vn 0.000000 0.948877 0.315645
vn 0.000000 0.948877 0.315645
vn 0.000000 0.948877 0.315645
vn 0.000000 0.948877 0.315645
vn 0.000000 0.948877 0.315645
vn 0.000000 0.948877 0.315645
vn 0.000000 0.948877 0.315645
vn 0.000000 0.948877 0.315645
vn 0.000000 0.948877 0.315645
vn 0.000000 0.948877 0.315645
vn 0.000000 0.948877 0.315645
vn -0.509640 0.816890 0.270107
vn -0.509640 0.816890 0.270107
vn -0.509640 0.816890 0.270107
vn -0.509640 0.816890 0.270107
vn -0.489361 0.826868 0.277154
vn -0.489361 0.826868 0.277154
vn -0.489361 0.826868 0.277154
vn -0.489361 0.826868 0.277154
vn -0.489949 0.827865 0.273112
vn -0.489949 0.827865 0.273112
vn -0.489949 0.827865 0.273112
vn -0.489949 0.827865 0.273112
vn -0.509213 0.816204 0.272970
vn -0.509213 0.816204 0.272970
vn -0.509213 0.816204 0.272970
vn -0.509213 0.816204 0.272970
vn 0.000524 0.948877 0.315645
vn 0.000524 0.948877 0.315645
vn 0.000524 0.948877 0.315645
vn 0.000245 0.948877 0.315645
vn 0.000245 0.948877 0.315645
vn 0.000245 0.948877 0.315645
vn -0.000000 0.948768 0.315973
vn -0.000000 0.948768 0.315973
vn -0.000000 0.948768 0.315973
vn 0.000288 0.948768 0.315972
vn 0.000288 0.948768 0.315972
vn 0.000288 0.948768 0.315972
vn 0.000245 0.948877 0.315645
vn 0.000245 0.948877 0.315645
vn 0.000245 0.948877 0.315645
vn 0.000524 0.948877 0.315645
vn 0.000524 0.948877 0.315645
vn 0.000524 0.948877 0.315645
vn -0.000000 0.948768 0.315972
vn -0.000000 0.948768 0.315972
vn -0.000000 0.948768 0.315972
vn -0.000028 0.950029 0.312160
vn -0.000028 0.950029 0.312160
vn -0.000028 0.950029 0.312160
vn -0.000000 0.948768 0.315973
vn -0.000000 0.948768 0.315973
vn -0.000000 0.948768 0.315973
vn -0.000000 0.948768 0.315973
vn -0.000000 0.948768 0.315973
vn -0.000000 0.948768 0.315973
vn 0.000288 0.948768 0.315973
vn 0.000288 0.948768 0.315973
vn 0.000288 0.948768 0.315973
vn 0.000288 0.948768 0.315973
vn 0.000288 0.948768 0.315973
vn 0.000288 0.948768 0.315973
vn 0.000288 0.948768 0.315973
vn 0.000288 0.948768 0.315973
vn 0.000288 0.948768 0.315973
vn -1.000000 0.000001 -0.000003
vn -1.000000 0.000001 -0.000003
vn -1.000000 0.000001 -0.000003
vn -1.000000 -0.000001 -0.000000
vn -1.000000 -0.000001 -0.000000
vn -1.000000 -0.000001 -0.000000
vn -1.000000 0.000000 0.000000
vn -1.000000 0.000000 0.000000
vn -1.000000 0.000000 0.000000
vn -1.000000 0.000000 0.000000
vn -1.000000 0.000000 0.000000
vn -1.000000 0.000000 0.000000
vn -1.000000 0.000000 0.000000
vn -1.000000 0.000000 0.000000
vn -1.000000 0.000000 0.000000
vn -1.000000 -0.000001 -0.000000
vn -1.000000 -0.000001 -0.000000
vn -1.000000 -0.000001 -0.000000
vn -1.000000 -0.000001 -0.000000
vn -1.000000 -0.000001 -0.000000
vn -1.000000 -0.000001 -0.000000
vn -1.000000 -0.000001 -0.000000
vn -1.000000 -0.000001 -0.000000
vn -1.000000 -0.000001 -0.000000
vn -1.000000 -0.000001 -0.000000
vn -1.000000 0.000000 0.000000
vn -1.000000 0.000000 0.000000
vn -1.000000 0.000000 0.000000
vn -0.002725 0.000424 -0.999996
vn -0.002725 0.000424 -0.999996
vn -0.002725 0.000424 -0.999996
vn 0.000000 -0.002592 -0.999997
vn 0.000000 -0.002592 -0.999997
vn 0.000000 -0.002592 -0.999997
vn 0.000003 0.000000 -1.000000
vn 0.000003 0.000000 -1.000000
vn 0.000003 0.000000 -1.000000
vn -0.000009 0.000000 -1.000000
vn -0.000009 0.000000 -1.000000
vn -0.000009 0.000000 -1.000000
vn -0.000004 0.000000 -1.000000
vn -0.000004 0.000000 -1.000000
vn -0.000004 0.000000 -1.000000
vn -0.000344 -0.000328 -1.000000
vn -0.000344 -0.000328 -1.000000
vn -0.000344 -0.000328 -1.000000
vn 0.000000 0.000000 -1.000000
vn 0.000000 0.000000 -1.000000
vn 0.000000 0.000000 -1.000000
vn 0.000000 0.000000 -1.000000
vn 0.000000 0.000000 -1.000000
vn 0.000000 0.000000 -1.000000
vn 0.000000 0.000000 -1.000000
vn 0.000000 0.000000 -1.000000
vn 0.000000 0.000000 -1.000000
vn 0.000000 0.000000 -1.000000
vn 0.000000 0.000000 -1.000000
vn 0.000000 0.000000 -1.000000
vn 0.000002 0.000000 -1.000000
vn 0.000002 0.000000 -1.000000
vn 0.000002 0.000000 -1.000000
vn 0.000000 0.000000 -1.000000
vn 0.000000 0.000000 -1.000000
vn 0.000000 0.000000 -1.000000
vn -0.000000 0.000141 -1.000000
vn -0.000000 0.000141 -1.000000
vn -0.000000 0.000141 -1.000000
vn 0.000000 0.000000 1.000000
vn 0.000000 0.000000 1.000000
vn 0.000000 0.000000 1.000000
vn -0.000000 0.000001 1.000000
vn -0.000000 0.000001 1.000000
vn -0.000000 0.000001 1.000000
vn -0.000000 0.000001 1.000000
vn 0.000000 0.000000 1.000000
vn 0.000000 0.000000 1.000000
vn 0.000000 0.000000 1.000000
vn 0.000000 0.000000 1.000000
vn 0.000000 0.000000 1.000000
vn 0.000000 0.000000 1.000000
vn 0.000000 0.000000 1.000000
vn 0.000000 0.000000 1.000000
vn 0.000000 0.000000 1.000000
vn -0.000000 0.000000 1.000000
vn -0.000000 0.000000 1.000000
vn -0.000000 0.000000 1.000000
vn 0.000000 0.000000 1.000000
vn 0.000000 0.000000 1.000000
vn 0.000000 0.000000 1.000000
vn 0.000000 0.000000 1.000000
vn 0.000000 0.000000 1.000000
vn 0.000000 0.000000 1.000000
vn 0.000000 0.000000 1.000000
vn 0.000000 0.000000 1.000000
vn 0.000000 0.000000 1.000000
vn 0.000000 0.000000 1.000000
vn 0.000000 0.000000 1.000000
vn 0.000000 0.000000 1.000000
vn 0.000000 0.000000 1.000000
vn 0.000000 0.000000 1.000000
vn 0.000000 0.000000 1.000000
vn 0.000000 0.000000 1.000000
vn 0.000000 0.000001 1.000000
vn 0.000000 0.000001 1.000000
vn 0.000000 0.000001 1.000000
vn 0.000030 -0.000002 -1.000000
vn 0.000030 -0.000002 -1.000000
vn 0.000030 -0.000002 -1.000000
s off
f 3/1/1 2/3/2 4/2/3
f 4/2/4 2/3/5 5/4/6
f 6/5/7 1/7/8 7/6/9
f 3/10/10 4/12/11 6/11/12
f 7/13/13 3/10/14 6/11/15
f 2/14/16 8/16/17 9/15/18
f 2/14/19 9/15/20 5/17/21
f 1/7/22 10/18/23 7/6/24
f 12/20/25 15/22/26 14/21/27 13/19/28
f 11/25/29 19/26/30 18/27/31
f 13/28/32 14/29/33 16/30/34
f 17/31/35 13/28/36 16/30/37
f 12/32/38 18/33/39 19/34/40
f 12/32/41 19/34/42 15/35/43
f 18/27/44 20/36/45 11/25/46
f 8/8/47 17/24/48 16/23/49 9/9/50
f 41/37/51 58/38/52 69/39/53 68/40/54
f 40/41/55 39/42/56 51/43/57 50/44/58
f 72/45/59 73/46/60 74/47/61 75/48/62
f 36/49/63 49/50/64 48/51/65 37/52/66
f 36/49/67 40/41/68 50/44/69 49/50/70
f 39/42/71 35/53/72 51/43/73
f 52/54/74 38/55/75 42/56/76 59/57/77
f 58/38/78 41/37/79 37/52/80 48/51/81
f 43/58/82 53/59/83 63/60/84 61/61/85
f 44/62/86 54/63/87 53/59/88 43/58/89
f 45/64/90 55/65/91 54/63/92 44/62/93
f 45/64/94 46/66/95 56/67/96 55/65/97
f 35/53/98 34/68/99 56/67/100 46/66/101
f 76/69/102 77/70/103 78/71/104 79/72/105
f 57/73/106 47/74/107 60/75/108 62/76/109
f 48/51/110 43/58/111 61/61/112 58/38/113
f 49/50/114 44/62/115 43/58/116 48/51/117
f 50/44/118 45/64/119 44/62/120 49/50/121
f 50/44/122 51/43/123 46/66/124 45/64/125
f 35/53/126 46/66/127 51/43/128
f 77/70/129 72/45/130 75/48/131 78/71/132
f 47/74/133 52/54/134 59/57/135 60/75/136
f 53/59/137 21/77/138 27/78/139 63/60/140
f 54/63/141 22/79/142 21/77/143 53/59/144
f 55/65/145 23/80/146 22/79/147 54/63/148
f 55/65/149 56/67/150 24/81/151 23/80/152
f 34/68/153 24/81/154 56/67/155
f 31/82/156 30/83/157 76/69/158 79/72/159
f 25/84/160 57/73/161 62/76/162 26/85/163
f 61/61/164 70/86/165 69/39/166 58/38/167
f 61/61/168 63/60/169 71/87/170 70/86/171
f 63/60/172 27/78/173 29/88/174 71/87/175
f 65/89/176 59/57/177 42/56/178 64/90/179
f 60/75/180 59/57/181 65/89/182 66/91/183
f 67/92/184 62/76/185 60/75/186 66/91/187
f 28/93/188 26/85/189 62/76/190 67/92/191
f 69/39/192 65/89/193 64/90/194 68/40/195
f 66/91/196 65/89/197 69/39/198 70/86/199
f 71/87/200 67/92/201 66/91/202 70/86/203
f 29/88/204 28/93/205 67/92/206 71/87/207
f 38/55/208 52/54/209 75/48/210 74/47/211
f 47/74/212 57/73/213 79/72/214 78/71/215
f 52/54/216 47/74/217 78/71/218 75/48/219
f 57/73/220 25/84/221 31/82/222 79/72/223
f 73/94/224 72/95/225 86/96/226 87/97/227
f 77/98/228 76/99/229 84/100/230 85/101/231
f 72/95/232 77/98/233 85/101/234 86/96/235
f 76/99/236 30/102/237 33/103/238 84/100/239
f 84/100/240 33/103/241 32/104/242 82/105/243
f 85/101/244 84/100/245 82/105/246 83/106/247
f 86/96/248 85/101/249 83/106/250 80/107/251
f 87/97/252 86/96/253 80/107/254 81/108/255
f 18/109/256 83/110/257 82/111/258
f 8/113/259 81/167/260 80/115/261
f 81/167/262 3/116/263 7/117/264
f 83/110/265 17/118/266 8/113/267
f 83/110/268 8/113/269 80/115/270
f 32/119/271 18/109/272 82/111/273
f 7/117/274 10/120/275 81/167/276
f 32/119/277 20/121/278 18/109/279
f 81/167/280 2/122/281 3/116/282
f 81/167/283 8/113/284 2/122/285
f 83/110/286 13/123/287 17/118/288
f 12/112/289 13/123/290 83/110/291
f 12/112/292 83/110/293 18/109/294
f 34/127/295 19/128/296 11/126/297
f 34/127/298 15/132/299 19/128/300
f 35/124/301 1/125/302 6/129/303
f 35/124/304 6/129/305 4/130/306
f 35/124/307 4/130/308 5/131/309
f 34/127/310 14/133/311 15/132/312
f 34/127/313 16/134/314 14/133/315
f 35/124/316 9/135/317 16/134/318 34/127/319
f 35/124/320 5/131/321 9/135/322
f 34/136/323 11/137/324 20/138/325
f 30/140/326 32/141/327 33/142/328
f 25/143/329 30/140/330 31/144/331
f 22/145/332 26/146/333 28/148/334
f 24/149/335 30/140/336 25/143/337
f 24/149/338 32/141/339 30/140/340
f 23/150/341 25/143/342 26/146/343
f 21/151/344 29/152/345 27/153/346
f 21/151/347 28/148/348 29/152/349
f 22/145/350 28/148/351 21/151/352
f 23/150/353 26/146/354 22/145/355
f 24/149/356 25/143/357 23/150/358
f 34/136/359 32/139/360 24/147/361
f 64/154/362 36/155/363 68/156/364
f 39/42/365 81/114/366 10/18/367 35/53/368
f 81/157/369 73/158/370 87/159/371
f 39/160/372 40/161/373 38/162/374
f 73/158/375 38/162/376 74/163/377
f 38/162/378 40/161/379 36/155/380
f 38/162/381 36/155/382 42/164/383
f 42/164/384 36/155/385 64/154/386
f 68/156/387 36/155/388 37/165/389 41/166/390
f 39/160/391 38/162/392 73/158/393
f 39/160/394 73/158/395 81/157/396
f 35/53/397 10/18/398 1/125/399
f 34/136/400 20/138/401 32/139/402
