# This file uses centimeters as units for non-parametric coordinates.

v 66.988373 -0.000000 20.842123
v 22.446823 8.960804 7.496119
v -16.296387 -1.681582 -21.928383
v 1.612854 -3.093230 -58.729889
v 17.208099 0.102037 -12.700558
v -97.367859 0.000000 9.778357
v 32.016754 -0.000000 20.842194
v 0.313187 0.000000 20.842194
v -111.470032 -0.000000 20.842194
v -26.503372 6.200540 7.509899
v 68.238449 -0.000000 9.769034
v -3.278732 7.249034 -11.856104
vt 0.176840 0.276627
vt 0.176840 0.276627
vt 0.176840 0.276627
vt 0.176840 0.276627
vt 0.176840 0.276627
vt 0.176840 0.276627
vt 0.176840 0.276627
vt 0.176840 0.276627
vt 0.176840 0.276627
vt 0.176840 0.276627
vt 0.176840 0.276627
vt 0.176840 0.276627
vn 0.363613 0.925903 0.102414
vn 0.193635 0.878982 -0.435770
vn 0.363613 0.925903 0.102414
vn 0.318106 0.932231 -0.172492
vn -0.136732 0.977863 -0.158395
vn -0.136732 0.977863 -0.158395
vn -0.048600 0.988241 -0.144974
vn -0.418122 0.876899 -0.237113
vn 0.005928 0.981032 -0.193753
vn 0.363453 0.924057 0.118411
vn 0.363453 0.924057 0.118411
vn 0.000001 0.830225 0.557428
vn 0.000000 0.830225 0.557429
vn 0.000000 0.830225 0.557429
vn 0.030134 0.984461 0.173000
vn -0.029522 0.964983 0.260647
vn -0.029522 0.964983 0.260647
vn -0.017209 0.991058 0.132318
vn -0.029522 0.964983 0.260647
vn -0.048600 0.988241 -0.144974
vn -0.048600 0.988241 -0.144974
vn -0.092614 0.953332 -0.287367
vn 0.363613 0.925903 0.102414
vn 0.190969 0.981359 0.021559
vn 0.363613 0.925903 0.102414
vn -0.017209 0.991058 0.132318
vn -0.048619 0.864694 0.499941
vn -0.048619 0.864694 0.499941
vn -0.056298 0.998323 -0.013466
vn -0.056298 0.998323 -0.013466
vn 0.005928 0.981032 -0.193753
vn -0.136732 0.977863 -0.158395
vn -0.136732 0.977863 -0.158395
vn 0.278479 0.850892 -0.445456
vn -0.048600 0.988241 -0.144974
vn -0.330965 0.876553 -0.349452
vn -0.330965 0.876553 -0.349452
s off
f 2/6/1 11/11/2 5/4/3
f 12/12/4 5/4/5 4/2/6
f 3/1/7 12/12/8 4/2/9
f 1/5/10 2/6/11 7/7/12
f 8/8/13 7/7/14 2/6/15
f 8/8/16 10/10/17 6/3/18 9/9/19
f 3/1/20 6/3/21 10/10/22
f 1/5/23 11/11/24 2/6/25
f 2/6/26 10/10/27 8/8/28
f 12/12/29 10/10/30 2/6/31
f 2/6/32 5/4/33 12/12/34
f 3/1/35 10/10/36 12/12/37
