# This file uses centimeters as units for non-parametric coordinates.

v -0.000009 -250.000000 -499.999939
v 0.000018 -250.000000 0.000000
v 500.000000 -250.000000 -499.999939
v 500.000000 -250.000000 0.000024
v 19.402538 -246.229340 -481.395020
v 8.620389 -246.229340 -8.620369
v 490.327972 -246.229340 -14.073240
v 487.865112 -246.229340 -488.406189
v 0.000005 -250.000000 -231.957764
v 29.664284 -246.229340 -230.471512
v 475.898651 -246.229340 -222.170410
v 500.000000 -250.000000 -231.957748
v 208.959808 -250.000000 0.000010
v 206.323441 -246.229340 -21.393173
v 210.374924 -246.229340 -232.579895
v 228.527969 -246.229340 -478.306946
v 208.959793 -250.000000 -499.999939
vt 0.101475 0.254196
vt 0.101475 0.254196
vt 0.101475 0.254196
vt 0.101475 0.254196
vt 0.101254 0.274769
vt 0.101254 0.274769
vt 0.101254 0.274769
vt 0.101254 0.274769
vt 0.101475 0.254196
vt 0.101254 0.274769
vt 0.101254 0.274769
vt 0.101471 0.254196
vt 0.101471 0.254196
vt 0.101254 0.274769
vt 0.101254 0.274769
vt 0.101254 0.274769
vt 0.101475 0.254196
vt 0.101471 0.254196
vt 0.101471 0.254196
vt 0.101471 0.254196
vt 0.101471 0.254196
vt 0.101471 0.254196
vt 0.101471 0.254196
vt 0.101471 0.254196
vt 0.101471 0.254196
vn 0.000000 1.000000 -0.000000
vn 0.000000 1.000000 0.000000
vn 0.000000 1.000000 -0.000000
vn 0.000000 1.000000 -0.000000
vn -0.153122 0.988203 0.003028
vn -0.169533 0.985523 -0.001703
vn -0.170478 0.985360 -0.001976
vn -0.153121 0.988203 0.003028
vn 0.007699 0.969461 0.245126
vn 0.000869 0.975216 0.221253
vn 0.001565 0.974659 0.223692
vn 0.007699 0.969461 0.245126
vn 0.210359 0.977624 0.000833
vn 0.206361 0.978465 0.004622
vn 0.206361 0.978465 0.004622
vn 0.213341 0.976976 -0.001997
vn -0.000196 0.980735 -0.195341
vn 0.001368 0.982695 -0.185225
vn 0.001368 0.982695 -0.185225
vn -0.002693 0.977387 -0.211440
vn -0.169533 0.985523 -0.001703
vn -0.194879 0.980786 -0.009037
vn -0.194879 0.980786 -0.009037
vn -0.170478 0.985360 -0.001976
vn 0.000000 1.000000 -0.000000
vn 0.000000 1.000000 0.000000
vn 0.000000 1.000000 0.000000
vn 0.000000 1.000000 -0.000000
vn 0.218787 0.975746 -0.007174
vn 0.210359 0.977624 0.000833
vn 0.213341 0.976976 -0.001997
vn 0.218787 0.975746 -0.007174
vn 0.000869 0.975216 0.221253
vn -0.002659 0.977941 0.208865
vn -0.002659 0.977941 0.208865
vn 0.001565 0.974659 0.223692
vn 0.000000 1.000000 -0.000000
vn 0.000000 1.000000 -0.000000
vn 0.000000 1.000000 -0.000000
vn 0.000000 1.000000 -0.000000
vn 0.000000 1.000000 -0.000000
vn 0.000000 1.000000 -0.000000
vn 0.000000 1.000000 -0.000000
vn 0.000000 1.000000 -0.000000
vn -0.004039 0.975470 -0.220097
vn -0.000196 0.980735 -0.195341
vn -0.002693 0.977387 -0.211440
vn -0.004039 0.975470 -0.220097
s off
f 5/5/1 10/10/2 15/15/3 16/16/4
f 1/1/5 9/2/6 10/3/7 5/4/8
f 2/9/9 13/12/10 14/13/11 6/17/12
f 12/18/13 3/19/14 8/20/15 11/21/16
f 17/22/17 1/1/18 5/4/19 16/23/20
f 9/2/21 2/9/22 6/17/23 10/3/24
f 15/15/25 10/10/26 6/6/27 14/14/28
f 4/24/29 12/18/30 11/21/31 7/25/32
f 13/12/33 4/24/34 7/25/35 14/13/36
f 11/11/37 15/15/38 14/14/39 7/7/40
f 16/16/41 15/15/42 11/11/43 8/8/44
f 3/19/45 17/22/46 16/23/47 8/20/48
