# This file uses centimeters as units for non-parametric coordinates.

v 15.744019 0.000000 -499.999237
v 19.546509 0.000000 -219.464874
v 15.744019 0.000000 0.000000
v 484.446716 0.000000 0.000000
v 487.145996 0.000000 -74.678802
v 484.446716 0.000000 -499.999237
v 500.000000 0.000000 0.000000
v 500.000000 0.000000 -499.999237
v 0.000000 0.000000 0.000000
v 0.000000 0.000000 -499.999237
vt 0.009775 0.034756
vt 0.559242 0.042438
vt 0.989096 0.034756
vt 0.989096 0.981706
vt 0.842827 0.987160
vt 0.009775 0.981706
vt 0.061577 0.004497
vt 0.061577 0.004497
vt 0.061577 0.004497
vt 0.061577 0.004497
vt 0.061577 0.004497
vt 0.061577 0.004497
vt 0.061577 0.004497
vt 0.061577 0.004497
vt 0.061577 0.004497
vt 0.061577 0.004497
vn 0.000000 1.000000 0.000000
vn 0.000000 1.000000 0.000000
vn 0.000000 1.000000 0.000000
vn 0.000000 1.000000 0.000000
vn 0.000000 1.000000 0.000000
vn 0.000000 1.000000 0.000000
vn 0.000000 1.000000 0.000000
vn 0.000000 1.000000 0.000000
vn 0.000000 1.000000 0.000000
vn 0.000000 1.000000 0.000000
vn 0.000000 1.000000 0.000000
vn 0.000000 1.000000 0.000000
vn 0.000000 1.000000 0.000000
vn 0.000000 1.000000 0.000000
vn 0.000000 1.000000 0.000000
vn 0.000000 1.000000 0.000000
vn 0.000000 1.000000 0.000000
vn 0.000000 1.000000 0.000000
vn 0.000000 1.000000 0.000000
vn 0.000000 1.000000 0.000000
vn 0.000000 1.000000 0.000000
vn 0.000000 1.000000 0.000000
vn 0.000000 1.000000 0.000000
vn 0.000000 1.000000 0.000000
vn 0.000000 1.000000 0.000000
vn 0.000000 1.000000 0.000000
s off
f 1/1/1 2/2/2 6/6/3
f 6/6/4 2/2/5 5/5/6
f 2/2/7 3/3/8 5/5/9
f 3/3/10 4/4/11 5/5/12
f 7/7/13 5/8/14 4/9/15
f 6/10/16 5/8/17 7/7/18 8/11/19
f 9/12/20 2/13/21 1/14/22 10/15/23
f 9/12/24 3/16/25 2/13/26
