# This file uses centimeters as units for non-parametric coordinates.

v -78.811157 3.825457 123.912140
v 97.969757 -24.659399 125.993088
v -65.088074 0.484712 103.021332
v 45.441467 0.484712 105.726974
v 64.713196 0.073948 116.537506
v 101.407440 -24.659399 -19.375404
v 51.404205 4.756675 12.671600
v 43.741425 0.924398 4.550865
v -62.130249 0.924398 -4.921318
v -72.319946 0.924398 0.000031
v 51.770508 -24.659399 179.038940
v -62.130249 0.484712 10.257507
v 43.741425 0.484712 24.567993
v -103.796967 -24.659399 -16.125046
v -120.901947 -24.659399 41.399734
v -114.737152 -24.659399 128.134933
v -65.412445 -24.659399 169.189362
v -64.672729 -24.659399 -58.573257
v -8.903442 -3.013818 -34.314522
v 64.941406 -24.659399 -56.935745
v -85.793579 2.509434 59.407013
v -72.057739 0.484712 59.770294
v 49.088013 0.484712 67.634552
v 58.596985 0.030075 67.466827
v 108.894104 -24.659399 67.140869
v 29.373291 0.484712 66.354767
v 24.337646 0.484712 109.288498
v -25.288727 0.484712 112.318390
v 7.296448 3.825457 139.195892
v 45.817505 3.825457 132.985687
v 23.633301 -1.543056 117.707306
v 38.310699 -1.543056 117.810333
v -62.124542 -0.890953 4.021393
v 43.735718 -0.890953 14.269379
v -12.606873 0.924398 -5.989935
v -10.083618 -2.166810 3.644806
v -7.385071 0.484712 12.740295
v -2.229858 -24.659399 -74.295425
v -45.061340 3.825457 136.243866
vt 0.431393 0.178969
vt 0.431393 0.178969
vt 0.431393 0.178969
vt 0.431393 0.178969
vt 0.431393 0.178969
vt 0.431393 0.178969
vt 0.431393 0.178969
vt 0.431393 0.178969
vt 0.431594 0.178769
vt 0.431594 0.178769
vt 0.431393 0.178969
vt 0.431393 0.178969
vt 0.102106 0.302644
vt 0.102106 0.328744
vt 0.431393 0.178969
vt 0.431393 0.178969
vt 0.431393 0.178969
vt 0.432007 0.178969
vt 0.431795 0.178769
vt 0.432007 0.178969
vt 0.431393 0.178969
vt 0.431393 0.178969
vt 0.431393 0.178969
vt 0.431393 0.178969
vt 0.102106 0.328530
vt 0.431393 0.178969
vt 0.102106 0.328538
vt 0.102106 0.303336
vt 0.102106 0.303271
vt 0.432007 0.178969
vt 0.432007 0.178969
vt 0.431393 0.178969
vt 0.431393 0.178969
vt 0.431393 0.178969
vt 0.431393 0.178969
vt 0.431393 0.178969
vt 0.431393 0.178969
vt 0.431393 0.178969
vt 0.432007 0.178969
vt 0.431498 0.178917
vt 0.431393 0.178969
vt 0.431393 0.178969
vt 0.431393 0.178969
vt 0.431393 0.178969
vt 0.102106 0.328643
vt 0.431393 0.178969
vt 0.431594 0.178769
vt 0.102106 0.302542
vt 0.431393 0.178969
vt 0.431393 0.178969
vt 0.431393 0.178969
vt 0.431393 0.178969
vt 0.102106 0.328647
vt 0.102106 0.328750
vt 0.102106 0.328746
vt 0.431641 0.178769
vt 0.431571 0.178792
vt 0.431641 0.178769
vt 0.102106 0.328757
vt 0.431581 0.178781
vt 0.102106 0.304302
vt 0.431583 0.178874
vt 0.102296 0.303336
vt 0.102106 0.303271
vt 0.431393 0.178969
vt 0.432007 0.178969
vt 0.102214 0.303308
vt 0.102106 0.303307
vt 0.102106 0.328533
vt 0.432007 0.178969
vt 0.432007 0.178969
vt 0.431393 0.178969
vt 0.431393 0.178969
vt 0.432007 0.178969
vt 0.432007 0.178969
vt 0.432007 0.178969
vt 0.432007 0.178969
vt 0.432007 0.178969
vt 0.431641 0.178769
vt 0.431641 0.178769
vt 0.431641 0.178769
vt 0.432007 0.178969
vt 0.431393 0.178969
vn 0.250511 0.945433 -0.208330
vn 0.250511 0.945433 -0.208330
vn 0.250511 0.945433 -0.208330
vn -0.562153 0.811798 -0.158012
vn -0.562153 0.811798 -0.158012
vn -0.562153 0.811798 -0.158012
vn -0.562153 0.811798 -0.158012
vn -0.169880 0.983029 0.069246
vn -0.169880 0.983029 0.069246
vn -0.169880 0.983029 0.069246
vn -0.169880 0.983029 0.069246
vn -0.059714 0.965725 0.252605
vn -0.059714 0.965725 0.252605
vn -0.059714 0.965725 0.252605
vn -0.059714 0.965725 0.252605
vn 0.469846 0.882538 -0.019288
vn 0.469846 0.882537 -0.019288
vn 0.469846 0.882537 -0.019288
vn 0.469846 0.882537 -0.019288
vn 0.467640 0.784496 0.407282
vn 0.467640 0.784496 0.407282
vn 0.467640 0.784496 0.407282
vn -0.430976 0.896360 -0.103910
vn -0.430976 0.896361 -0.103910
vn -0.430976 0.896361 -0.103910
vn 0.019443 0.979366 0.201159
vn 0.019443 0.979366 0.201159
vn 0.019443 0.979366 0.201159
vn 0.019443 0.979366 0.201159
vn -0.206093 0.799614 0.564042
vn -0.206093 0.799614 0.564042
vn -0.206093 0.799614 0.564042
vn -0.470612 0.677371 0.565414
vn -0.470612 0.677371 0.565415
vn -0.470612 0.677371 0.565414
vn -0.441500 0.799680 -0.406928
vn -0.441500 0.799680 -0.406928
vn -0.441500 0.799680 -0.406928
vn 0.000000 1.000000 0.000000
vn 0.000000 1.000000 0.000000
vn 0.000000 1.000000 0.000000
vn 0.099435 0.995020 0.006883
vn 0.099435 0.995020 0.006883
vn 0.099435 0.995020 0.006883
vn 0.099435 0.995020 0.006883
vn -0.565592 0.810724 0.151105
vn -0.565592 0.810724 0.151105
vn -0.565592 0.810724 0.151105
vn -0.170493 0.892529 -0.417521
vn -0.170493 0.892529 -0.417521
vn -0.170493 0.892529 -0.417521
vn -0.170493 0.892529 -0.417521
vn 0.323648 0.892479 -0.314219
vn 0.323648 0.892479 -0.314219
vn 0.323648 0.892479 -0.314219
vn -0.621707 0.781824 0.047242
vn -0.621707 0.781824 0.047242
vn -0.621707 0.781824 0.047242
vn -0.621707 0.781824 0.047242
vn 0.167338 0.985323 -0.033700
vn 0.167338 0.985323 -0.033700
vn 0.167338 0.985323 -0.033700
vn 0.167338 0.985323 -0.033700
vn 0.000000 1.000000 0.000000
vn 0.000000 1.000000 0.000000
vn 0.000000 1.000000 0.000000
vn 0.000000 1.000000 0.000000
vn 0.030561 0.999532 -0.001369
vn 0.030561 0.999532 -0.001369
vn 0.030561 0.999532 -0.001369
vn 0.030561 0.999532 -0.001369
vn 0.507185 0.861550 0.022246
vn 0.507185 0.861550 0.022246
vn 0.507185 0.861550 0.022246
vn 0.507185 0.861550 0.022246
vn 0.000000 1.000000 -0.000000
vn 0.000000 1.000000 -0.000000
vn 0.000000 1.000000 -0.000000
vn 0.000000 1.000000 0.000000
vn 0.000000 1.000000 0.000000
vn 0.000000 1.000000 0.000000
vn 0.014365 0.971822 0.235277
vn 0.014365 0.971822 0.235277
vn 0.014365 0.971822 0.235277
vn 0.083251 0.852292 0.516398
vn 0.083251 0.852292 0.516398
vn 0.083251 0.852292 0.516398
vn 0.062265 0.978405 -0.197098
vn 0.062265 0.978405 -0.197098
vn 0.062265 0.978405 -0.197098
vn -0.033088 0.956991 -0.288224
vn -0.033088 0.956991 -0.288224
vn -0.033088 0.956991 -0.288224
vn -0.033088 0.956991 -0.288224
vn 0.000000 1.000000 -0.000000
vn 0.000000 1.000000 -0.000000
vn 0.000000 1.000000 -0.000000
vn 0.000000 1.000000 0.000000
vn 0.000000 1.000000 0.000000
vn 0.000000 1.000000 0.000000
vn -0.047216 0.778947 0.625310
vn -0.047216 0.778947 0.625310
vn -0.047216 0.778947 0.625310
vn -0.047216 0.778947 0.625310
vn 0.504676 0.761882 0.406003
vn 0.504676 0.761882 0.406003
vn 0.504676 0.761882 0.406003
vn 0.089714 0.988421 -0.122375
vn 0.089714 0.988421 -0.122375
vn 0.089714 0.988421 -0.122375
vn 0.025150 0.990602 -0.134444
vn 0.025150 0.990602 -0.134444
vn 0.025150 0.990602 -0.134444
vn 0.032518 0.977684 -0.207550
vn 0.032518 0.977684 -0.207550
vn 0.032518 0.977684 -0.207550
vn 0.032518 0.977684 -0.207550
vn -0.603835 0.790136 -0.105210
vn -0.603835 0.790136 -0.105210
vn -0.603834 0.790136 -0.105210
vn 0.095614 0.975534 0.197970
vn 0.095614 0.975534 0.197970
vn 0.095614 0.975534 0.197970
vn -0.002980 0.990414 -0.138096
vn -0.002980 0.990414 -0.138096
vn -0.002980 0.990414 -0.138096
vn 0.015755 0.967254 0.253320
vn 0.015755 0.967254 0.253320
vn 0.015755 0.967254 0.253320
vn 0.015755 0.967254 0.253320
vn 0.016610 0.966336 -0.256747
vn 0.016610 0.966336 -0.256747
vn 0.016610 0.966336 -0.256747
vn 0.016610 0.966336 -0.256747
vn 0.000000 1.000000 0.000000
vn 0.000000 1.000000 0.000000
vn 0.000000 1.000000 0.000000
vn 0.000000 1.000000 0.000000
vn 0.143236 0.930293 -0.337697
vn 0.143236 0.930293 -0.337697
vn 0.143236 0.930293 -0.337697
vn 0.143236 0.930293 -0.337697
vn -0.122942 0.863984 -0.488280
vn -0.122942 0.863984 -0.488280
vn -0.122942 0.863984 -0.488280
vn 0.118218 0.881353 -0.457430
vn 0.118218 0.881353 -0.457430
vn 0.118218 0.881353 -0.457430
vn 0.007456 0.991190 -0.132239
vn 0.007456 0.991190 -0.132239
vn 0.007456 0.991190 -0.132239
vn 0.027144 0.992855 -0.116201
vn 0.027144 0.992855 -0.116201
vn 0.027144 0.992855 -0.116201
vn 0.046683 0.990706 -0.127763
vn 0.046683 0.990706 -0.127763
vn 0.046683 0.990706 -0.127763
s off
f 10/22/1 12/24/2 33/62/3
f 15/33/4 21/43/5 10/21/6 14/32/7
f 23/47/8 24/49/9 7/16/10 13/26/11
f 35/18/12 36/20/13 34/30/14 8/31/15
f 6/15/16 7/16/17 24/49/18 25/50/19
f 2/1/20 5/12/21 11/23/22
f 30/57/23 4/10/24 32/60/25
f 27/54/26 31/59/27 32/61/28 4/13/29
f 17/51/30 39/83/31 1/3/32
f 17/36/33 1/6/34 16/35/35
f 18/38/36 14/32/37 10/21/38
f 13/27/39 26/53/40 23/48/41
f 21/44/42 22/46/43 12/24/44 10/22/45
f 34/65/46 7/16/47 8/17/48
f 10/22/49 9/19/50 19/40/51 18/37/52
f 6/15/53 20/42/54 7/16/55
f 16/34/56 1/2/57 21/43/58 15/33/59
f 3/7/60 22/46/61 21/44/62 1/4/63
f 4/13/64 23/48/65 26/53/66 27/54/67
f 5/11/68 24/49/69 23/47/70 4/9/71
f 25/50/72 24/49/73 5/11/74 2/5/75
f 37/69/76 26/53/77 13/27/78
f 28/55/79 22/45/80 3/14/81
f 28/55/82 31/59/83 27/54/84
f 30/74/85 29/71/86 11/70/87
f 28/56/88 29/58/89 31/79/90
f 32/80/91 31/79/92 29/58/93 30/81/94
f 28/55/95 26/53/96 22/45/97
f 27/54/98 26/53/99 28/55/100
f 17/75/101 11/70/102 29/71/103 39/82/104
f 11/52/105 5/12/106 30/57/107
f 30/57/108 5/12/109 4/10/110
f 19/39/111 35/18/112 8/31/113
f 36/67/114 37/68/115 13/29/116 34/64/117
f 13/26/118 7/16/119 34/65/120
f 10/22/121 33/62/122 9/19/123
f 9/77/124 35/18/125 19/39/126
f 33/78/127 36/20/128 35/18/129 9/77/130
f 12/28/131 37/68/132 36/67/133 33/63/134
f 22/45/135 26/53/136 37/69/137 12/25/138
f 8/17/139 7/16/140 20/42/141 19/41/142
f 19/40/143 38/73/144 18/37/145
f 20/42/146 38/72/147 19/41/148
f 39/82/149 29/71/150 28/66/151
f 39/82/152 28/66/153 3/76/154
f 1/3/155 39/83/156 3/8/157
