# This file uses centimeters as units for non-parametric coordinates.

v -621.197998 -234.924103 65.600372
v 621.197998 -239.576569 69.144928
v -567.437744 189.814240 43.319489
v -416.975800 256.887787 -9.896881
v -282.820007 234.159012 -42.649689
v -82.591896 259.873413 -67.483551
v 37.735916 279.452423 -69.144928
v 102.794693 245.799469 -65.969208
v 223.370209 258.183868 -52.324127
v 421.212646 222.892700 -7.471161
v 567.223694 174.257690 44.989166
v -422.787384 -235.567108 -9.369537
v -288.194550 -236.026703 -42.575531
v -66.626495 -236.820587 -69.007172
v 104.130188 -237.462860 -66.382599
v 423.278473 -238.735443 -6.937958
v 219.941681 -237.913483 -53.221954
v -559.115295 -235.120575 38.584259
v 562.297119 -239.321686 43.033966
v -136.760010 242.379410 -63.521881
v -142.106766 -236.545074 -63.829132
v -198.447556 250.864120 -56.515839
v -203.840179 -236.323578 -56.674835
v -547.419495 220.832489 35.219391
v -546.547241 -235.160858 33.523407
v 538.488525 205.028137 33.267365
v 540.228699 -239.227142 34.033600
vt 0.079790 0.277749
vt 0.079790 0.277749
vt 0.079790 0.277749
vt 0.079790 0.277749
vt 0.079790 0.277749
vt 0.079790 0.277749
vt 0.079790 0.277749
vt 0.079790 0.277749
vt 0.079790 0.277749
vt 0.079790 0.277749
vt 0.079790 0.277749
vt 0.079790 0.277749
vt 0.079790 0.277749
vt 0.079790 0.277749
vt 0.079790 0.277749
vt 0.079790 0.277749
vt 0.079790 0.277749
vt 0.079790 0.277749
vt 0.079790 0.277749
vt 0.079790 0.277749
vt 0.079790 0.277749
vt 0.079790 0.277749
vt 0.079790 0.277749
vt 0.079790 0.277749
vt 0.079790 0.277749
vt 0.079790 0.277749
vt 0.079790 0.277749
vn -0.379550 0.000146 0.925171
vn -0.392250 0.000323 0.919859
vn -0.405265 0.000506 0.914199
vn 0.329485 -0.002874 0.944156
vn 0.332908 -0.002871 0.942955
vn 0.282291 -0.002510 0.959326
vn 0.279532 -0.002488 0.960133
vn 0.210138 -0.002065 0.977670
vn 0.209526 -0.002063 0.977801
vn 0.090723 -0.001402 0.995875
vn 0.091717 -0.001416 0.995784
vn 0.009358 0.000178 0.999956
vn 0.007555 0.000216 0.999971
vn -0.051779 -0.000063 0.998659
vn -0.047986 0.000001 0.998848
vn -0.011474 0.000616 0.999934
vn -0.180976 -0.000444 0.983488
vn -0.181432 -0.000440 0.983403
vn -0.261418 -0.000046 0.965226
vn -0.255670 -0.000047 0.966764
vn 0.399012 -0.002403 0.916943
vn 0.391049 -0.002557 0.920367
vn 0.379120 -0.002785 0.925343
vn -0.333444 -0.000017 0.942770
vn -0.337822 -0.000003 0.941210
vn 0.142163 -0.001840 0.989842
vn 0.142777 -0.001843 0.989753
s 1
f 11/11/1 19/19/2 2/2/3
f 24/24/4 25/25/5 12/12/6 4/4/7
f 4/4/7 12/12/6 13/13/8 5/5/9
f 20/20/10 21/21/11 14/14/12 6/6/13
f 6/6/13 14/14/12 15/15/14 8/8/15 7/7/16
f 9/9/17 17/17/18 16/16/19 10/10/20
f 8/8/15 15/15/14 17/17/18 9/9/17
f 1/1/21 18/18/22 3/3/23
f 26/26/24 27/27/25 19/19/2 11/11/1
f 22/22/26 23/23/27 21/21/11 20/20/10
f 5/5/9 13/13/8 23/23/27 22/22/26
f 3/3/23 18/18/22 25/25/5 24/24/4
f 10/10/20 16/16/19 27/27/25 26/26/24
