# This file uses centimeters as units for non-parametric coordinates.

v -0.000977 -2.982903 -500.000000
v 0.000000 0.000000 -0.000008
v 250.000000 -2.982950 0.000725
v 250.000000 -2.982950 -500.000000
v 29.643822 -0.000000 0.000000
v 32.386398 -2.982903 0.000000
v 321.157745 -2.982950 -371.802338
v 37.205505 -2.982903 -374.765015
v 23.690987 -1.063776 -374.932861
v -0.000977 -0.066345 -374.932861
v 228.371414 -2.982950 -260.236298
v 60.598755 -2.982903 -250.000000
v 50.924301 -0.000000 -257.290649
v -0.000488 0.000000 -250.000000
v 209.462326 -2.982950 -121.050003
v 62.779999 -2.982903 -123.554993
v 45.854950 -1.656795 -128.631592
v -0.000488 0.000000 -125.000000
v 209.462326 -2.982950 -132.973740
v 62.541580 -2.982903 -131.169128
v 321.157745 -2.982950 -383.355133
v 37.205505 -2.982903 -381.686401
v -0.000977 -2.982903 -380.636597
v 37.205505 -2.982903 -500.000000
v 29.743004 -2.982903 -381.161499
v 29.743004 -2.982903 -500.000000
v 500.000000 -2.982974 -500.000000
v 500.000000 0.000000 -0.000008
v 470.355225 0.000000 -0.000061
v 467.614746 -2.982903 -0.000061
v 462.792969 -2.982974 -374.765015
v 476.309204 -1.063776 -374.932861
v 500.000000 -0.066345 -374.932861
v 466.708374 -2.982974 -250.000000
v 480.566406 0.000000 -249.980164
v 500.000000 0.000000 -250.000000
v 443.927002 -2.982974 -123.554993
v 452.941895 -1.656795 -128.105927
v 500.000000 0.000000 -125.000000
v 444.165039 -2.982974 -131.169128
v 462.792969 -2.982974 -381.686401
v 500.000000 -2.982974 -380.636597
v 462.792969 -2.982974 -500.000000
v 470.257568 -2.982974 -381.161499
v 470.257568 -2.982974 -500.000000
v -0.000229 0.000000 -58.740234
v 28.979111 -0.758976 -58.684921
v 34.668350 -2.982903 -58.507919
v 267.869568 -2.982950 -57.697319
v 461.062622 -2.982950 -58.589935
v 466.757202 -0.760067 -58.769226
v 500.000000 0.000000 -58.835602
v -0.000488 0.000000 -192.085266
v 23.608208 -0.789803 -191.882324
v 35.090637 -2.982903 -191.812134
v 227.603745 -2.982950 -181.590912
v 434.338379 -2.982974 -190.597534
v 457.275391 -0.846207 -185.711670
v 500.000000 0.000000 -187.500000
v -0.000748 -0.035308 -316.485596
v 43.902016 -0.564039 -344.311523
v 55.117035 -2.982903 -349.783325
v 297.353546 -2.982950 -317.158142
v 440.948486 -2.982974 -324.423218
v 461.337280 -0.508255 -324.032593
v 500.000000 -0.031503 -309.320068
v 96.420547 -2.982928 -100.078468
v 395.785492 -2.982970 -175.160294
v 429.488892 -2.982971 -258.264191
v 58.543739 -2.982926 -404.797363
v 462.792969 -2.982974 -446.279114
v 473.510620 -2.982974 -446.082581
v 464.644684 -4.626515 -392.727478
v 465.947693 -4.908230 -446.180847
v 468.750824 -3.809963 -392.897125
v 105.115234 -2.982915 -345.188995
v 85.557167 -2.982908 -315.800110
v 37.205505 -4.038752 -378.225708
vt 0.102518 0.328669
vt 0.430811 0.178520
vt 0.103103 0.329845
vt 0.103225 0.327894
vt 0.430811 0.178520
vt 0.430811 0.178520
vt 0.102646 0.327861
vt 0.103133 0.329357
vt 0.431571 0.178520
vt 0.103692 0.304236
vt 0.430811 0.178520
vt 0.430811 0.178520
vt 0.101643 0.302261
vt 0.430811 0.178520
vt 0.102583 0.328837
vt 0.430811 0.178520
vt 0.430811 0.178520
vt 0.103195 0.328382
vt 0.433091 0.178900
vt 0.102995 0.303641
vt 0.430811 0.178520
vt 0.430811 0.178520
vt 0.103193 0.328409
vt 0.430811 0.178520
vt 0.102613 0.328379
vt 0.103132 0.329379
vt 0.433091 0.178901
vt 0.102930 0.304643
vt 0.101923 0.303283
vt 0.101922 0.303283
vt 0.103823 0.303650
vt 0.103063 0.304030
vt 0.101949 0.303283
vt 0.101948 0.303283
vt 0.101948 0.303270
vt 0.103849 0.303650
vt 0.430811 0.178520
vt 0.102518 0.328669
vt 0.102811 0.329829
vt 0.430811 0.178520
vt 0.102534 0.329010
vt 0.102665 0.329249
vt 0.102195 0.303523
vt 0.102195 0.303523
vt 0.104096 0.303903
vt 0.102195 0.303523
vt 0.430811 0.178520
vt 0.430811 0.178520
vt 0.430811 0.178520
vt 0.430811 0.178520
vt 0.102615 0.328349
vt 0.103195 0.328382
vt 0.103225 0.327894
vt 0.102646 0.327861
vt 0.430811 0.178520
vt 0.430811 0.178520
vt 0.101922 0.303283
vt 0.101923 0.303283
vt 0.101923 0.303270
vt 0.101922 0.303270
vt 0.430811 0.178520
vt 0.430811 0.178520
vt 0.430811 0.178520
vt 0.430811 0.178520
vt 0.430811 0.178520
vt 0.102552 0.329325
vt 0.103133 0.329357
vt 0.101643 0.302261
vt 0.102963 0.304128
vt 0.433091 0.178901
vt 0.430811 0.178520
vt 0.430811 0.178520
vt 0.101948 0.303283
vt 0.101949 0.303283
vt 0.101949 0.303270
vt 0.101948 0.303270
vt 0.430811 0.178520
vt 0.103193 0.328409
vt 0.102613 0.328379
vt 0.430811 0.178520
vt 0.102518 0.328669
vt 0.102665 0.329249
vt 0.102534 0.329010
vt 0.102518 0.328669
vt 0.102811 0.329829
vt 0.103103 0.329845
vt 0.103132 0.329379
vt 0.102550 0.329352
vt 0.102195 0.303523
vt 0.102195 0.303523
vt 0.102195 0.303523
vt 0.102195 0.303523
vt 0.430811 0.178520
vt 0.430811 0.178520
vt 0.102632 0.328092
vt 0.430811 0.178520
vt 0.103211 0.328125
vt 0.103211 0.328125
vt 0.102631 0.328092
vt 0.430811 0.178520
vt 0.430811 0.178520
vt 0.430811 0.178520
vt 0.430811 0.178520
vt 0.430811 0.178520
vt 0.102598 0.328612
vt 0.430811 0.178520
vt 0.103178 0.328638
vt 0.103178 0.328638
vt 0.102979 0.303889
vt 0.433091 0.178900
vt 0.430811 0.178520
vt 0.430811 0.178520
vt 0.430811 0.178520
vt 0.430811 0.178520
vt 0.103707 0.305148
vt 0.432331 0.178520
vt 0.103148 0.329117
vt 0.103148 0.329117
vt 0.102568 0.329072
vt 0.430811 0.178520
vt 0.430811 0.178520
vt 0.430811 0.178520
vt 0.102933 0.328247
vt 0.102691 0.328604
vt 0.102659 0.328841
vt 0.102971 0.329605
vt 0.102693 0.329612
vt 0.102195 0.303523
vt 0.102605 0.329141
vt 0.102195 0.303523
vt 0.430811 0.178520
vt 0.102195 0.303523
vt 0.102195 0.303523
vt 0.430811 0.178520
vt 0.102195 0.303523
vt 0.102714 0.329164
vt 0.102637 0.329099
vt 0.103443 0.303840
vt 0.432331 0.178710
vn 0.028274 0.999578 -0.006705
vn 0.032140 0.999480 -0.002606
vn 0.032140 0.999480 -0.002606
vn 0.028274 0.999578 -0.006705
vn 0.000000 1.000000 0.000000
vn 0.000000 1.000000 0.000001
vn 0.000000 1.000000 0.000000
vn 0.344702 0.938711 -0.001566
vn 0.145441 0.988480 0.041895
vn 0.145441 0.988480 0.041895
vn 0.344702 0.938711 -0.001566
vn 0.000000 1.000000 0.000000
vn 0.000000 1.000000 0.000000
vn 0.001715 0.956473 0.291817
vn 0.140594 0.990067 0.000000
vn 0.140594 0.990067 0.000000
vn 0.271103 0.920654 0.280889
vn 0.037458 0.889748 -0.454913
vn 0.037458 0.889748 -0.454913
vn 0.037458 0.889748 -0.454913
vn 0.000000 1.000000 0.000000
vn 0.000000 1.000000 0.000000
vn 0.000000 1.000000 0.000000
vn 0.176270 0.984341 0.001577
vn 0.148628 0.982674 -0.110734
vn 0.148628 0.982674 -0.110734
vn 0.176270 0.984341 0.001577
vn 0.023125 0.999724 -0.004127
vn 0.018402 0.999779 -0.010134
vn 0.018402 0.999779 -0.010134
vn 0.023125 0.999724 -0.004127
vn 0.000000 1.000000 0.000000
vn 0.000000 1.000000 0.000000
vn 0.000000 1.000000 0.000000
vn 0.000000 1.000000 0.000000
vn 0.147856 0.988998 -0.004627
vn 0.147856 0.988998 -0.004627
vn 0.147856 0.988998 -0.004627
vn 0.035120 0.999368 0.005461
vn 0.011446 0.999895 0.008939
vn 0.011446 0.999895 0.008939
vn 0.035120 0.999368 0.005461
vn 0.000000 1.000000 -0.000000
vn 0.000000 1.000000 0.000000
vn 0.000000 1.000000 0.000000
vn 0.000000 1.000000 -0.000000
vn 0.186649 0.982422 -0.002883
vn 0.205579 0.974107 0.094088
vn 0.205579 0.974107 0.094088
vn 0.186649 0.982422 -0.002883
vn -0.005279 0.954208 -0.299099
vn -0.005279 0.954208 -0.299099
vn -0.005279 0.954208 -0.299099
vn 0.000000 1.000000 0.000000
vn 0.000000 1.000000 0.000000
vn 0.000000 1.000000 0.000000
vn 0.000000 1.000000 0.000000
vn 0.000000 1.000000 0.000000
vn 0.000000 1.000000 0.000000
vn 0.000000 1.000000 0.000000
vn -0.022083 0.949205 -0.313882
vn -0.022083 0.949205 -0.313882
vn -0.022083 0.949205 -0.313882
vn 0.000000 1.000000 0.000000
vn 0.000000 1.000000 0.000000
vn 0.000000 1.000000 0.000000
vn 0.000000 1.000000 0.000000
vn -0.028274 0.999578 -0.006705
vn -0.028274 0.999578 -0.006705
vn -0.029949 0.999545 -0.003561
vn -0.029949 0.999545 -0.003561
vn -0.000000 1.000000 -0.000000
vn -0.000000 1.000000 -0.000000
vn 0.000000 1.000000 -0.000000
vn 0.000000 1.000000 -0.000000
vn -0.344690 0.938715 -0.001566
vn -0.344690 0.938715 -0.001566
vn -0.220806 0.974307 0.044381
vn -0.220806 0.974307 0.044381
vn 0.000000 1.000000 0.000000
vn 0.000000 1.000000 0.000000
vn 0.000000 1.000000 0.000000
vn 0.000000 1.000000 0.000000
vn -0.140598 0.990067 0.000000
vn -0.140598 0.990067 0.000000
vn -0.140598 0.990067 0.000000
vn -0.037458 0.889744 -0.454921
vn -0.037458 0.889744 -0.454921
vn -0.037458 0.889744 -0.454921
vn 0.000000 1.000000 -0.000000
vn 0.000000 1.000000 -0.000000
vn 0.000000 1.000000 0.000000
vn 0.000000 1.000000 0.000000
vn -0.176274 0.984340 0.001577
vn -0.176274 0.984340 0.001577
vn -0.128011 0.990409 -0.051985
vn -0.128011 0.990409 -0.051985
vn -0.023125 0.999724 -0.004127
vn -0.023125 0.999724 -0.004127
vn -0.021780 0.999732 -0.007864
vn -0.021780 0.999732 -0.007864
vn 0.000000 1.000000 0.000000
vn 0.000000 1.000000 0.000000
vn 0.000000 1.000000 0.000000
vn 0.000000 1.000000 0.000000
vn -0.147863 0.988997 -0.004627
vn -0.147863 0.988997 -0.004627
vn -0.147863 0.988997 -0.004627
vn -0.035120 0.999368 0.005460
vn -0.035120 0.999368 0.005460
vn -0.013490 0.999900 0.004196
vn -0.013490 0.999900 0.004196
vn 0.000000 1.000000 0.000000
vn 0.000000 1.000000 0.000000
vn 0.000000 1.000000 0.000000
vn 0.000000 1.000000 0.000000
vn -0.186654 0.982422 -0.002883
vn -0.186654 0.982422 -0.002883
vn -0.130810 0.990038 -0.052100
vn -0.130810 0.990038 -0.052100
vn 0.005279 0.954205 -0.299108
vn 0.005279 0.954205 -0.299108
vn 0.005279 0.954205 -0.299108
vn 0.000000 1.000000 0.000000
vn 0.000000 1.000000 0.000000
vn 0.000000 1.000000 0.000000
vn 0.000000 1.000000 0.000000
vn 0.000000 1.000000 0.000000
vn 0.000000 1.000000 0.000000
vn 0.000000 1.000000 -0.000000
vn 0.022080 0.949202 -0.313890
vn 0.022080 0.949203 -0.313890
vn -0.066660 0.991849 -0.108593
vn -0.066660 0.991849 -0.108593
vn 0.520932 0.853598 0.000000
vn 0.000000 1.000000 0.000000
vn 0.520932 0.853598 0.000000
vn 0.012951 0.999895 -0.006536
vn 0.012951 0.999895 -0.006536
vn 0.028274 0.999578 -0.006705
vn 0.028274 0.999578 -0.006705
vn 0.525389 0.850861 0.001740
vn 0.525389 0.850861 0.001740
vn 0.344702 0.938711 -0.001566
vn 0.344702 0.938711 -0.001566
vn 0.000000 1.000000 0.000000
vn 0.000000 1.000000 0.000000
vn 0.000000 1.000000 0.000000
vn 0.000000 1.000000 0.000000
vn -0.000000 1.000000 -0.000000
vn -0.000000 1.000000 -0.000000
vn -0.000000 1.000000 -0.000000
vn -0.000000 1.000000 -0.000000
vn -0.524161 0.850688 0.039824
vn -0.524161 0.850688 0.039824
vn -0.344690 0.938715 -0.001566
vn -0.344690 0.938715 -0.001566
vn -0.012091 0.999908 -0.006092
vn -0.012091 0.999908 -0.006092
vn -0.028274 0.999578 -0.006705
vn -0.028274 0.999578 -0.006705
vn 0.035230 0.999379 0.000634
vn 0.035230 0.999379 0.000634
vn 0.035120 0.999368 0.005461
vn 0.035120 0.999368 0.005461
vn 0.120298 0.991878 -0.041314
vn 0.120298 0.991878 -0.041314
vn 0.186649 0.982422 -0.002883
vn 0.186649 0.982422 -0.002883
vn 0.000000 1.000000 -0.000000
vn 0.000000 1.000000 -0.000000
vn 0.000000 1.000000 -0.000000
vn 0.000000 1.000000 -0.000000
vn 0.000000 1.000000 0.000000
vn 0.000000 1.000000 0.000000
vn 0.000000 1.000000 0.000000
vn 0.000000 1.000000 0.000000
vn -0.111541 0.993686 0.012118
vn -0.111541 0.993686 0.012118
vn -0.186654 0.982422 -0.002883
vn -0.186654 0.982422 -0.002883
vn -0.027951 0.999593 0.005738
vn -0.027951 0.999593 0.005738
vn -0.035120 0.999368 0.005460
vn -0.035120 0.999368 0.005460
vn 0.004061 0.999983 -0.004090
vn 0.004061 0.999983 -0.004090
vn 0.023125 0.999724 -0.004127
vn 0.023125 0.999724 -0.004127
vn 0.251918 0.967546 -0.019784
vn 0.251918 0.967546 -0.019784
vn 0.176270 0.984341 0.001577
vn 0.176270 0.984341 0.001577
vn 0.000000 1.000000 0.000000
vn 0.000000 1.000000 -0.000000
vn 0.000000 1.000000 -0.000000
vn 0.000000 1.000000 0.000000
vn 0.000000 1.000000 0.000000
vn 0.000000 1.000000 -0.000000
vn -0.157741 0.986481 0.044420
vn -0.157741 0.986481 0.044420
vn -0.176274 0.984340 0.001577
vn -0.176274 0.984340 0.001577
vn -0.007454 0.999968 -0.002972
vn -0.007454 0.999968 -0.002972
vn -0.023125 0.999724 -0.004127
vn -0.023125 0.999724 -0.004127
vn 0.000000 1.000000 0.000000
vn 0.000000 1.000000 -0.000000
vn 0.000000 1.000000 -0.000000
vn 0.000000 1.000000 0.000000
vn 0.000001 1.000000 0.000000
vn 0.000001 1.000000 0.000000
vn 0.000000 1.000000 -0.000000
vn 0.000000 1.000000 -0.000000
vn 0.000000 1.000000 -0.000000
vn 0.000000 1.000000 -0.000000
vn 0.000000 1.000000 -0.000000
vn 0.000000 1.000000 0.000000
vn 0.000000 1.000000 0.000000
vn 0.000000 1.000000 0.000000
vn 0.000000 1.000000 0.000000
vn 0.000000 1.000000 0.000000
vn 0.000000 1.000000 -0.000000
vn 0.000000 1.000000 -0.000000
vn 0.000000 1.000000 -0.000000
vn 0.000000 1.000000 0.000000
vn 0.000000 1.000000 0.000000
vn 0.000001 1.000000 0.000000
vn 0.000000 1.000000 -0.000001
vn 0.000000 1.000000 0.000000
vn 0.000000 1.000000 0.000000
vn 0.000000 1.000000 0.000000
vn 0.000000 1.000000 -0.000000
vn 0.000000 1.000000 0.000000
vn 0.000000 1.000000 -0.000000
vn 0.000000 1.000000 -0.000000
vn 0.000000 1.000000 -0.000000
vn 0.000000 1.000000 0.000000
vn 0.000000 1.000000 0.000000
vn 0.000000 1.000000 0.000000
vn 0.587018 0.809561 0.004548
vn 0.587018 0.809561 0.004548
vn 0.587018 0.809561 0.004548
vn 0.000000 1.000000 0.000000
vn 0.000000 1.000000 0.000000
vn 0.000000 1.000000 0.000000
vn 0.000000 1.000000 0.000000
vn 0.000000 1.000000 0.000000
vn 0.000000 1.000000 0.000000
vn 0.000000 1.000000 0.000000
vn -0.195431 0.980667 -0.009932
vn -0.195431 0.980667 -0.009932
vn -0.195431 0.980667 -0.009932
vn 0.000000 1.000000 0.000000
vn 0.000000 1.000000 0.000000
vn -0.127198 0.991555 0.025284
vn -0.127198 0.991555 0.025284
vn 0.022080 0.949202 -0.313890
vn 0.022080 0.949203 -0.313890
vn 0.022080 0.949203 -0.313890
vn -0.278415 0.960409 -0.009983
vn -0.278415 0.960409 -0.009983
vn -0.278415 0.960409 -0.009983
vn 0.000000 1.000000 0.000000
vn 0.000000 1.000000 0.000000
vn 0.000000 1.000000 0.000000
vn 0.000000 1.000000 0.000000
vn 0.000000 1.000000 0.000000
vn 0.000000 1.000000 -0.000000
vn 0.000000 1.000000 -0.000000
vn 0.000000 1.000000 -0.000000
vn 0.000000 1.000000 -0.000000
vn 0.000000 1.000000 -0.000000
vn 0.000000 1.000000 0.000000
vn 0.000000 1.000000 0.000000
vn 0.000000 1.000000 0.000000
vn 0.000000 1.000000 0.000000
vn 0.000000 1.000000 -0.000000
vn 0.000000 1.000000 -0.000000
vn 0.000000 1.000000 -0.000000
vn 0.138114 0.947307 -0.289021
vn 0.140594 0.990067 0.000000
vn 0.140594 0.990067 0.000000
vn 0.000000 1.000000 0.000000
vn -0.002122 0.997534 -0.070153
vn 0.000000 1.000000 0.000000
vn 0.000000 1.000000 0.000000
s off
f 18/22/1 46/93/2 47/94/3 17/21/4
f 16/20/5 67/123/6 15/18/7
f 17/21/8 47/94/9 48/96/10 16/19/11
f 21/30/12 22/31/13 78/138/14
f 22/27/15 9/11/16 78/139/17
f 23/37/18 10/12/19 9/11/20
f 8/10/21 76/136/22 7/8/23
f 9/11/24 61/114/25 62/116/26 8/9/27
f 10/12/28 60/113/29 61/114/30 9/11/31
f 19/34/32 20/35/33 16/36/34 15/33/35
f 20/24/36 17/21/37 16/19/38
f 14/17/39 53/103/40 54/104/41 13/16/42
f 12/15/43 55/105/44 56/107/45 11/13/46
f 13/16/47 54/104/48 55/106/49 12/14/50
f 9/11/51 25/40/52 23/37/53
f 1/1/54 23/38/55 25/41/56 26/42/57
f 24/39/58 70/126/59 4/3/60
f 22/27/61 25/40/62 9/11/63
f 26/43/64 25/44/65 22/45/66 24/46/67
f 39/47/68 38/48/69 51/101/70 52/102/71
f 37/51/72 15/52/73 49/98/74 50/99/75
f 38/48/76 37/55/77 50/100/78 51/101/79
f 21/57/80 7/58/81 31/59/82 41/60/83
f 41/61/84 31/62/85 32/63/86
f 42/64/87 32/63/88 33/65/89
f 31/66/90 7/67/91 63/118/92 64/119/93
f 32/63/94 31/62/95 64/120/96 65/121/97
f 33/65/98 32/63/99 65/121/100 66/122/101
f 19/73/102 15/74/103 37/75/104 40/76/105
f 40/77/106 37/55/107 38/48/108
f 36/72/109 35/71/110 58/111/111 59/112/112
f 68/124/113 69/125/114 11/68/115 56/108/116
f 35/71/117 34/70/118 57/110/119 58/111/120
f 32/63/121 42/64/122 44/80/123
f 27/81/124 45/82/125 72/129/126
f 43/85/127 4/86/128 21/87/129 71/127/130
f 41/61/131 44/80/132 75/134/133 73/131/134
f 74/133/135 43/90/136 71/128/137
f 47/94/138 46/93/139 2/2/140 5/5/141
f 48/96/142 47/94/143 5/5/144 6/6/145
f 49/97/146 48/95/147 6/7/148 3/4/149
f 50/99/150 49/98/151 3/53/152 30/54/153
f 51/101/154 50/100/155 30/56/156 29/49/157
f 52/102/158 51/101/159 29/49/160 28/50/161
f 54/104/162 53/103/163 18/22/164 17/21/165
f 55/106/166 54/104/167 17/21/168 20/24/169
f 56/107/170 55/105/171 20/25/172 19/23/173
f 40/79/174 68/124/175 56/108/176 19/78/177
f 58/111/178 57/110/179 40/77/180 38/48/181
f 59/112/182 58/111/183 38/48/184 39/47/185
f 61/114/186 60/113/187 14/17/188 13/16/189
f 62/116/190 61/114/191 13/16/192 12/14/193
f 12/15/194 77/137/195 62/115/196
f 69/125/197 63/118/198 11/68/199
f 65/121/200 64/120/201 34/70/202 35/71/203
f 66/122/204 65/121/205 35/71/206 36/72/207
f 15/18/208 67/123/209 49/97/210
f 16/20/211 48/95/212 67/123/213
f 49/97/214 67/123/215 48/95/216
f 57/109/217 68/124/218 40/79/219
f 34/69/220 69/125/221 68/124/222 57/109/223
f 64/119/224 69/125/225 34/69/226
f 24/39/227 22/28/228 70/126/229
f 70/126/230 22/28/231 21/26/232
f 4/3/233 70/126/234 21/26/235
f 64/119/236 63/118/237 69/125/238
f 71/127/239 21/87/240 41/88/241
f 73/132/242 74/133/243 71/128/244 41/91/245
f 27/81/246 72/129/247 42/84/248
f 42/84/249 72/129/250 44/83/251
f 75/135/252 74/133/253 73/132/254
f 45/89/255 43/90/256 74/133/257 72/130/258
f 41/61/259 32/63/260 44/80/261
f 72/130/262 74/133/263 75/135/264 44/92/265
f 7/8/266 76/136/267 63/117/268
f 8/10/269 62/115/270 76/136/271
f 77/137/272 76/136/273 62/115/274
f 63/117/275 77/137/276 12/15/277 11/13/278
f 63/117/279 76/136/280 77/137/281
f 78/139/282 9/11/283 8/9/284
f 21/30/285 78/138/286 8/32/287 7/29/288
