# This file uses centimeters as units for non-parametric coordinates.

v 74.988609 9.135441 125.096008
v 60.034027 8.975736 103.656120
v 56.065117 9.874166 122.069725
v 77.484688 10.199346 107.077087
v 76.507652 5.719534 97.295868
v 80.438721 10.235695 112.113754
v 58.779552 12.977740 113.085243
v 65.426788 13.048719 122.614082
v -29.722641 7.645924 -3.014258
v -19.017708 8.159328 20.831944
v -10.903145 10.849024 3.105505
v -38.869431 1.970750 25.152187
v -37.531067 7.009895 15.029103
v -46.005726 1.628479 9.256673
v -20.516985 12.745821 0.965503
v 161.881149 9.705603 34.656647
v 153.439850 14.190648 32.202660
v 157.625656 5.933352 46.747055
v 146.458572 4.018114 49.343319
v 142.273743 12.275426 34.797947
v -75.661880 8.037840 91.786064
v -96.681236 8.037840 76.240852
v -94.713928 12.210552 85.443558
v -82.881584 4.174115 64.698944
v -78.927330 8.759651 73.848671
v -74.529579 8.776139 77.689110
v -85.372864 12.210552 92.351242
v 5.173888 -0.882911 -25.320959
v -22.981770 0.804957 0.508261
v 3.861036 3.722458 -10.777555
v -21.471695 3.629614 -26.006821
v -36.252556 -0.570987 -23.282017
v -17.482121 -1.696232 -40.501171
v -8.652264 4.472624 0.700579
v -91.205368 7.849410 -14.685094
v -124.956825 7.834783 -23.250032
v -121.625641 9.583307 -13.463497
v -105.619255 8.965183 -29.861385
v -93.214874 3.171179 -31.039808
v -115.714867 3.161422 -36.750416
v 52.564812 11.974126 148.999680
v 77.800919 13.109012 125.077324
v 53.789505 16.612810 125.168480
v 75.217834 11.511669 146.825424
v 86.275909 5.258133 140.842178
v 69.451843 4.501534 156.790741
v 66.467270 19.244091 127.678627
v 55.251545 18.739691 138.311981
v -4.479199 9.872734 36.864819
v 18.460373 6.719325 10.854074
v -4.677402 10.570147 13.004877
v 19.101101 8.970407 33.803467
v 30.864758 1.987872 29.440046
v 15.571710 4.090145 46.780869
v -3.263487 14.569896 24.213177
v 6.932204 13.168388 12.653605
v 24.248505 6.006764 12.659496
v 10.028887 10.535370 -18.809687
v 13.255095 12.796875 7.385520
v 32.026508 9.174476 -9.684492
v 32.820297 4.810434 -23.132872
v 42.301670 1.791359 -2.152766
v 6.936133 14.809588 -6.601542
v 13.725083 13.566023 -20.694586
v -12.274872 10.635214 -18.310255
v 6.656489 18.443987 -10.780494
v -1.541477 12.516956 -38.604500
v -10.308532 5.515551 -45.189362
v 7.025422 7.469431 -46.779892
v -4.900132 17.141399 -9.719815
v 164.739395 4.634624 32.289989
v 165.679382 5.345860 -2.510380
v 157.317566 8.857714 22.191435
v 178.947235 8.802246 15.089476
v 184.937485 3.892447 26.923780
v 185.563492 4.366583 3.723208
v 151.626587 10.605713 1.993352
v 124.151878 9.245440 23.342386
v 146.600861 13.639285 24.578701
v 147.622284 16.472374 13.355691
v 128.469177 9.207720 1.117128
v 134.746918 3.202207 -10.212835
v 135.467117 12.619530 28.842037
v 116.428818 2.295375 4.017575
v -91.375870 8.037855 129.107147
v -71.263145 8.037855 100.682648
v -95.149582 9.325762 104.697739
v -67.580688 9.746013 124.257065
v -55.506969 4.174143 118.734840
v -68.916107 4.174143 137.684845
v -83.461479 13.168203 103.557579
v -92.401230 13.168203 116.190582
v -103.379921 8.037855 84.118942
v -123.762474 8.037855 112.352112
v -99.839737 9.325762 108.562698
v -127.219261 9.746013 88.743355
v -139.344986 4.174143 94.149788
v -125.758247 4.174143 75.328331
v -111.536674 13.168203 109.592964
v -102.477219 13.168203 97.045319
vt 0.440694 0.156886
vt 0.440694 0.156886
vt 0.440694 0.156886
vt 0.440694 0.156886
vt 0.440694 0.156886
vt 0.440694 0.156886
vt 0.440694 0.156886
vt 0.440694 0.156886
vt 0.440694 0.156886
vt 0.440694 0.156886
vt 0.440694 0.156886
vt 0.440694 0.156886
vt 0.440694 0.156886
vt 0.440694 0.156886
vt 0.440694 0.156886
vt 0.440694 0.156886
vt 0.440694 0.156886
vt 0.440694 0.156886
vt 0.440694 0.156886
vt 0.440694 0.156886
vt 0.440694 0.156886
vt 0.440694 0.156886
vt 0.440694 0.156886
vt 0.440694 0.156886
vt 0.440694 0.156886
vt 0.440694 0.156886
vt 0.440694 0.156886
vt 0.440694 0.156886
vt 0.440694 0.156886
vt 0.440694 0.156886
vt 0.440694 0.156886
vt 0.440694 0.156886
vt 0.440694 0.156886
vt 0.440694 0.156886
vt 0.440694 0.156886
vt 0.440694 0.156886
vt 0.440694 0.156886
vt 0.440694 0.156886
vt 0.440694 0.156886
vt 0.440694 0.156886
vt 0.440666 0.177466
vt 0.440666 0.177466
vt 0.440666 0.177466
vt 0.440666 0.177466
vt 0.440666 0.177466
vt 0.440666 0.177466
vt 0.440666 0.177466
vt 0.440666 0.177466
vt 0.440666 0.177466
vt 0.440666 0.177466
vt 0.440666 0.177466
vt 0.440666 0.177466
vt 0.440666 0.177466
vt 0.440666 0.177466
vt 0.440666 0.177466
vt 0.440666 0.177466
vt 0.440666 0.177466
vt 0.440666 0.177466
vt 0.440666 0.177466
vt 0.440666 0.177466
vt 0.440666 0.177466
vt 0.440666 0.177466
vt 0.440666 0.177466
vt 0.440666 0.177466
vt 0.440666 0.177466
vt 0.440666 0.177466
vt 0.440666 0.177466
vt 0.440666 0.177466
vt 0.440666 0.177466
vt 0.440666 0.177466
vt 0.440666 0.177466
vt 0.440666 0.177466
vt 0.440666 0.177466
vt 0.440666 0.177466
vt 0.440666 0.177466
vt 0.440666 0.177466
vt 0.440694 0.156886
vt 0.440694 0.156886
vt 0.440694 0.156886
vt 0.440694 0.156886
vt 0.440694 0.156886
vt 0.440694 0.156886
vt 0.440694 0.156886
vt 0.440666 0.177466
vt 0.440666 0.177466
vt 0.440666 0.177466
vt 0.440666 0.177466
vt 0.440666 0.177466
vt 0.440666 0.177466
vt 0.440666 0.177466
vt 0.440666 0.177466
vt 0.440666 0.177466
vt 0.440666 0.177466
vt 0.440666 0.177466
vt 0.440666 0.177466
vt 0.440666 0.177466
vt 0.440666 0.177466
vt 0.440666 0.177466
vt 0.440666 0.177466
vt 0.440666 0.177466
vt 0.440666 0.177466
vt 0.440666 0.177466
vt 0.440666 0.177466
vt 0.440666 0.177466
vt 0.440666 0.177466
vt 0.440666 0.177466
vt 0.440666 0.177466
vt 0.440666 0.177466
vt 0.440666 0.177466
vt 0.440666 0.177466
vt 0.440694 0.156886
vt 0.440694 0.156886
vt 0.440694 0.156886
vt 0.440694 0.156886
vt 0.440694 0.156886
vt 0.440694 0.156886
vt 0.440694 0.156886
vt 0.440694 0.156886
vt 0.440694 0.156886
vt 0.440694 0.156886
vt 0.440694 0.156886
vt 0.440694 0.156886
vt 0.440694 0.156886
vt 0.440694 0.156886
vt 0.440694 0.156886
vt 0.440694 0.156886
vt 0.440694 0.156886
vt 0.440694 0.156886
vt 0.440694 0.156886
vt 0.440694 0.156886
vt 0.440694 0.156886
vt 0.440694 0.156886
vt 0.440694 0.156886
vt 0.440694 0.156886
vn 0.320801 0.908340 0.268336
vn 0.320801 0.908340 0.268336
vn 0.320801 0.908340 0.268336
vn 0.302110 0.921015 0.245889
vn 0.302110 0.921015 0.245889
vn 0.302110 0.921015 0.245889
vn -0.365097 0.922379 0.126176
vn -0.365097 0.922380 0.126176
vn -0.365097 0.922379 0.126176
vn -0.000465 0.988942 0.148299
vn -0.000465 0.988942 0.148299
vn -0.000465 0.988942 0.148299
vn -0.012453 0.988398 0.151377
vn -0.012453 0.988398 0.151377
vn -0.012453 0.988398 0.151377
vn 0.022813 0.919945 -0.391384
vn 0.022813 0.919945 -0.391384
vn 0.022813 0.919944 -0.391384
vn -0.186215 0.889160 0.417992
vn -0.186215 0.889160 0.417992
vn -0.186215 0.889160 0.417992
vn -0.433457 0.890461 -0.138542
vn -0.433457 0.890461 -0.138542
vn -0.433457 0.890461 -0.138542
vn -0.440697 0.880635 -0.173979
vn -0.440696 0.880635 -0.173979
vn -0.440697 0.880635 -0.173979
vn 0.074601 0.888559 0.452656
vn 0.074601 0.888559 0.452656
vn 0.074601 0.888559 0.452656
vn -0.094903 0.989749 0.106727
vn -0.094903 0.989749 0.106727
vn -0.094903 0.989749 0.106727
vn -0.032089 0.865205 0.500391
vn -0.032089 0.865205 0.500391
vn -0.032089 0.865205 0.500391
vn 0.342239 0.855995 0.387486
vn 0.342239 0.855995 0.387486
vn 0.342239 0.855995 0.387486
vn -0.032087 0.865205 0.500391
vn -0.032087 0.865205 0.500391
vn -0.032087 0.865205 0.500391
vn -0.077022 0.914117 -0.398068
vn -0.077022 0.914117 -0.398068
vn -0.077022 0.914117 -0.398068
vn -0.102843 0.906363 -0.409793
vn -0.102843 0.906363 -0.409793
vn -0.102843 0.906363 -0.409793
vn 0.115174 0.983986 -0.136040
vn 0.115174 0.983986 -0.136040
vn 0.115174 0.983986 -0.136040
vn 0.397456 0.914145 0.079794
vn 0.397456 0.914145 0.079794
vn 0.397456 0.914145 0.079794
vn 0.110052 0.982722 -0.148813
vn 0.110052 0.982722 -0.148813
vn 0.110052 0.982722 -0.148813
vn 0.166802 0.939473 -0.299279
vn 0.166802 0.939473 -0.299279
vn 0.166802 0.939473 -0.299279
vn -0.256346 0.962132 0.092673
vn -0.256346 0.962132 0.092673
vn -0.256346 0.962132 0.092673
vn 0.021493 0.998893 -0.041846
vn 0.021493 0.998893 -0.041846
vn 0.021493 0.998893 -0.041846
vn -0.248159 0.965191 0.082608
vn -0.248159 0.965191 0.082608
vn -0.248159 0.965191 0.082608
vn 0.167200 0.944161 -0.283910
vn 0.167200 0.944161 -0.283910
vn 0.167200 0.944161 -0.283910
vn -0.201881 0.874532 -0.440951
vn -0.201881 0.874532 -0.440951
vn -0.201881 0.874532 -0.440951
vn 0.380771 0.875597 -0.297225
vn 0.380771 0.875597 -0.297225
vn 0.380771 0.875597 -0.297225
vn -0.105422 0.984521 -0.140014
vn -0.105422 0.984521 -0.140014
vn -0.105422 0.984521 -0.140014
vn 0.057642 0.998163 0.018641
vn 0.057642 0.998163 0.018641
vn 0.057642 0.998163 0.018641
vn -0.426799 0.833076 0.351890
vn -0.426799 0.833076 0.351890
vn -0.426799 0.833076 0.351890
vn -0.396971 0.860873 0.318295
vn -0.396971 0.860873 0.318295
vn -0.396971 0.860873 0.318295
vn -0.505650 0.826787 -0.246458
vn -0.505650 0.826787 -0.246458
vn -0.505650 0.826787 -0.246458
vn -0.353935 0.935245 0.006855
vn -0.353935 0.935245 0.006855
vn -0.353935 0.935245 0.006855
vn -0.493248 0.806195 -0.326736
vn -0.493248 0.806195 -0.326735
vn -0.493248 0.806195 -0.326735
vn 0.216135 0.974817 -0.054925
vn 0.216135 0.974818 -0.054925
vn 0.216135 0.974818 -0.054925
vn 0.480542 0.871378 -0.098891
vn 0.480542 0.871378 -0.098891
vn 0.480542 0.871378 -0.098891
vn 0.083500 0.925033 0.370597
vn 0.083500 0.925033 0.370597
vn 0.083500 0.925033 0.370597
vn -0.216836 0.927765 -0.303701
vn -0.216836 0.927765 -0.303701
vn -0.216836 0.927765 -0.303701
vn 0.213764 0.974346 0.070397
vn 0.213764 0.974346 0.070397
vn 0.213764 0.974346 0.070397
vn 0.473987 0.874942 -0.099057
vn 0.473987 0.874942 -0.099057
vn 0.473987 0.874942 -0.099057
vn 0.081577 0.931755 0.353804
vn 0.081577 0.931755 0.353804
vn 0.081577 0.931755 0.353804
vn 0.423490 0.864733 0.269989
vn 0.423490 0.864733 0.269989
vn 0.423490 0.864733 0.269989
vn 0.174793 0.939503 -0.294585
vn 0.174793 0.939503 -0.294585
vn 0.174793 0.939503 -0.294585
vn 0.223542 0.973908 0.039136
vn 0.223542 0.973908 0.039136
vn 0.223542 0.973908 0.039136
vn 0.182740 0.941454 -0.283322
vn 0.182740 0.941454 -0.283322
vn 0.182740 0.941454 -0.283322
vn 0.410689 0.871942 0.266556
vn 0.410689 0.871942 0.266556
vn 0.410689 0.871942 0.266556
vn -0.517522 0.832798 -0.196514
vn -0.517522 0.832798 -0.196514
vn -0.517522 0.832798 -0.196514
vn 0.270441 0.919759 -0.284437
vn 0.270441 0.919759 -0.284437
vn 0.270441 0.919759 -0.284437
vn -0.125839 0.977187 -0.171083
vn -0.125839 0.977187 -0.171083
vn -0.125839 0.977187 -0.171083
vn -0.512520 0.836585 -0.193518
vn -0.512520 0.836585 -0.193518
vn -0.512520 0.836585 -0.193518
vn 0.256677 0.927100 -0.273134
vn 0.256677 0.927100 -0.273134
vn 0.256677 0.927100 -0.273134
vn 0.137453 0.947208 -0.289660
vn 0.137453 0.947208 -0.289660
vn 0.137453 0.947208 -0.289660
vn 0.111469 0.936614 0.332158
vn 0.111469 0.936614 0.332158
vn 0.111469 0.936614 0.332158
vn 0.116768 0.943906 0.308880
vn 0.116768 0.943906 0.308880
vn 0.116768 0.943906 0.308880
vn -0.048962 0.986413 -0.156816
vn -0.048962 0.986413 -0.156816
vn -0.048962 0.986413 -0.156816
vn -0.360205 0.914362 -0.184918
vn -0.360205 0.914362 -0.184918
vn -0.360205 0.914362 -0.184918
vn -0.453205 0.870347 0.192615
vn -0.453205 0.870347 0.192615
vn -0.453205 0.870348 0.192615
vn -0.045729 0.880936 -0.471020
vn -0.045729 0.880936 -0.471020
vn -0.045729 0.880936 -0.471020
vn -0.026280 0.877143 -0.479510
vn -0.026280 0.877143 -0.479510
vn -0.026280 0.877143 -0.479510
vn 0.005113 0.969457 0.245208
vn 0.005113 0.969457 0.245208
vn 0.005113 0.969457 0.245208
vn -0.290288 0.956885 0.010187
vn -0.290288 0.956885 0.010187
vn -0.290288 0.956885 0.010187
vn 0.368342 0.921344 -0.124296
vn 0.368342 0.921344 -0.124296
vn 0.368342 0.921344 -0.124296
vn 0.359902 0.924816 -0.123229
vn 0.359902 0.924816 -0.123229
vn 0.359902 0.924816 -0.123229
vn 0.019482 0.929719 0.367755
vn 0.019482 0.929719 0.367755
vn 0.019482 0.929719 0.367755
vn 0.111059 0.990702 0.078582
vn 0.111059 0.990702 0.078582
vn 0.111059 0.990702 0.078582
vn 0.002696 0.923534 0.383507
vn 0.002696 0.923534 0.383507
vn 0.002696 0.923534 0.383507
vn -0.324141 0.917786 -0.229351
vn -0.324141 0.917786 -0.229351
vn -0.324141 0.917786 -0.229351
vn -0.369509 0.921343 0.120786
vn -0.369509 0.921343 0.120786
vn -0.369509 0.921343 0.120786
vn -0.361057 0.924817 0.119799
vn -0.361057 0.924817 0.119799
vn -0.361057 0.924817 0.119799
vn -0.015986 0.929719 -0.367924
vn -0.015986 0.929719 -0.367924
vn -0.015986 0.929719 -0.367924
vn -0.110307 0.990702 -0.079634
vn -0.110307 0.990702 -0.079634
vn -0.110307 0.990702 -0.079634
vn 0.000950 0.923534 -0.383516
vn 0.000950 0.923534 -0.383516
vn 0.000950 0.923534 -0.383516
vn 0.321945 0.917786 0.232423
vn 0.321945 0.917786 0.232423
vn 0.321945 0.917786 0.232423
s off
f 2/1/1 4/2/2 5/3/3
f 2/1/4 7/4/5 4/2/6
f 6/5/7 8/6/8 1/7/9
f 7/4/10 8/6/11 4/2/12
f 4/2/13 8/6/14 6/5/15
f 3/8/16 8/6/17 7/4/18
f 10/9/19 13/10/20 12/11/21
f 14/12/22 15/13/23 9/14/24
f 14/12/25 13/10/26 15/13/27
f 13/10/28 11/15/29 15/13/30
f 10/9/31 11/15/32 13/10/33
f 17/16/34 19/17/35 18/18/36
f 16/19/37 17/16/38 18/18/39
f 17/16/40 20/20/41 19/17/42
f 22/21/43 23/22/44 24/23/45
f 25/24/46 24/23/47 23/22/48
f 23/22/49 26/25/50 25/24/51
f 26/25/52 27/26/53 21/27/54
f 23/22/55 27/26/56 26/25/57
f 33/28/58 31/29/59 28/30/60
f 32/31/61 34/32/62 31/29/63
f 31/29/64 34/32/65 30/33/66
f 29/34/67 34/32/68 32/31/69
f 31/29/70 30/33/71 28/30/72
f 38/35/73 40/36/74 36/37/75
f 35/38/76 39/39/77 38/35/78
f 36/37/79 37/40/80 38/35/81
f 35/38/82 38/35/83 37/40/84
f 42/41/85 44/42/86 45/43/87
f 42/44/88 47/45/89 44/46/90
f 46/47/91 48/48/92 41/49/93
f 47/50/94 48/51/95 44/52/96
f 44/53/97 48/54/98 46/55/99
f 43/56/100 48/57/101 47/58/102
f 50/59/103 52/60/104 53/61/105
f 54/62/106 52/63/107 49/64/108
f 55/65/109 56/66/110 51/67/111
f 52/68/112 56/69/113 55/70/114
f 50/71/115 56/72/116 52/73/117
f 52/74/118 55/75/119 49/76/120
f 62/77/121 60/78/122 57/79/123
f 61/80/124 63/81/125 60/78/126
f 60/78/127 63/81/128 59/82/129
f 58/83/130 63/81/131 61/80/132
f 60/78/133 59/82/134 57/79/135
f 65/84/136 67/85/137 68/86/138
f 69/87/139 67/88/140 64/89/141
f 67/90/142 70/91/143 66/92/144
f 65/93/145 70/94/146 67/95/147
f 67/96/148 66/97/149 64/98/150
f 72/99/151 74/100/152 76/101/153
f 74/102/154 73/103/155 75/104/156
f 71/105/157 75/106/158 73/107/159
f 74/108/160 72/109/161 73/110/162
f 80/111/163 84/112/164 78/113/165
f 80/111/166 81/114/167 84/112/168
f 82/115/169 80/111/170 77/116/171
f 82/115/172 81/114/173 80/111/174
f 79/117/175 80/111/176 83/118/177
f 78/113/178 83/118/179 80/111/180
f 86/119/181 88/120/182 89/121/183
f 86/119/184 91/122/185 88/120/186
f 90/123/187 92/124/188 85/125/189
f 91/122/190 92/124/191 88/120/192
f 88/120/193 92/124/194 90/123/195
f 87/126/196 92/124/197 91/122/198
f 94/127/199 96/128/200 97/129/201
f 94/127/202 99/130/203 96/128/204
f 98/131/205 100/132/206 93/133/207
f 99/130/208 100/132/209 96/128/210
f 96/128/211 100/132/212 98/131/213
f 95/134/214 100/132/215 99/130/216
