# This file uses centimeters as units for non-parametric coordinates.

v 500.000000 0.000000 0.000000
v 484.256104 75.891800 -227.879425
v 484.256104 45.535061 -136.727631
v 500.000000 45.535065 -136.727631
v 500.000000 75.891792 -227.879425
v 500.000000 15.178361 -45.575897
v 484.256104 15.178361 -45.575897
v 484.256104 106.248505 -319.031189
v 500.000000 106.248505 -319.031189
v 484.256104 0.000000 0.000000
v 500.000000 249.978638 -751.494934
v 484.256104 197.318604 -592.486572
v 484.256104 166.961884 -501.334778
v 500.000000 166.961914 -501.334778
v 500.000000 197.318665 -592.486572
v 500.000000 136.605209 -410.183105
v 484.256104 136.605209 -410.183105
v 484.256104 227.675354 -683.638367
v 500.000000 227.675354 -683.638367
v 484.255859 249.985718 -751.537842
v 250.000000 148.001892 -751.537964
v 250.000000 249.995239 -751.523682
v 500.000000 148.001923 -751.537964
v 500.000000 -101.998100 0.000061
v 250.000000 -101.998108 0.000061
v 250.000000 18.108946 -361.059998
v 250.000000 -46.002380 -168.331665
v 250.000000 97.909531 -600.952637
v 250.000000 55.995743 -168.331665
v 250.000000 0.000000 0.000061
v 250.000000 199.907623 -600.952637
v 250.000000 124.990486 -375.740295
v 0.000000 0.000000 0.000000
v 15.743896 75.891800 -227.879425
v 15.743896 45.535061 -136.727631
v 0.000000 45.535065 -136.727631
v 0.000000 75.891792 -227.879425
v 0.000000 15.178361 -45.575897
v 15.743896 15.178361 -45.575897
v 15.743896 106.248505 -319.031189
v 0.000000 106.248505 -319.031189
v 15.743896 0.000000 0.000000
v 0.000000 249.978638 -751.494934
v 15.743896 197.318604 -592.486572
v 15.743896 166.961884 -501.334778
v 0.000000 166.961914 -501.334778
v 0.000000 197.318665 -592.486572
v 0.000000 136.605209 -410.183105
v 15.743896 136.605209 -410.183105
v 15.743896 227.675354 -683.638367
v 0.000000 227.675354 -683.638367
v 15.744135 249.985718 -751.537842
v 0.000000 148.001923 -751.537964
v 0.000000 -101.998100 0.000061
vt 0.047261 0.662560
vt 0.018212 0.628098
vt 0.045435 0.389586
vt 0.018212 0.395296
vt 0.018212 0.860898
vt 0.048581 0.860898
vt 0.018212 0.977299
vt 0.048581 0.162495
vt 0.018212 0.162495
vt 0.069402 0.003988
vt 0.069402 0.003988
vt 0.069402 0.003988
vt 0.069402 0.003988
vt 0.069402 0.003988
vt 0.069402 0.003988
vt 0.069402 0.003988
vt 0.069402 0.003988
vt 0.086990 0.977299
vt 0.047261 0.662560
vt 0.045435 0.389586
vt 0.018212 0.628098
vt 0.018212 0.395296
vt 0.018212 0.860898
vt 0.048581 0.860898
vt 0.018212 0.046094
vt 0.018212 0.162495
vt 0.048581 0.162495
vt 0.069402 0.003988
vt 0.069402 0.003988
vt 0.069402 0.003988
vt 0.069402 0.003988
vt 0.069402 0.003988
vt 0.069402 0.003988
vt 0.069402 0.003988
vt 0.069402 0.003988
vt 0.080512 0.046094
vt 0.033752 0.005623
vt 0.033752 0.005623
vt 0.033748 0.005623
vt 0.033752 0.005623
vt 0.033752 0.005623
vt 0.033748 0.005623
vt 0.033752 0.005623
vt 0.048581 0.162495
vt 0.982650 0.511697
vt 0.982650 0.235623
vt 0.046193 0.334902
vt 0.047261 0.662560
vt 0.982650 0.977299
vt 0.982650 0.771015
vt 0.048002 0.773842
vt 0.048581 0.860898
vt 0.046933 0.613519
vt 0.982650 0.046094
vt 0.077482 0.977299
vt 0.088872 0.046094
vt 0.047880 0.755569
vt 0.045728 0.433304
vt 0.023926 0.031593
vt 0.023926 0.031595
vt 0.023926 0.031601
vt 0.023926 0.031601
vt 0.023926 0.031600
vt 0.023926 0.031595
vt 0.023926 0.031596
vt 0.023926 0.031597
vt 0.023926 0.031599
vt 0.023926 0.031599
vt 0.023926 0.031598
vt 0.023926 0.031598
vt 0.047261 0.662560
vt 0.045435 0.389586
vt 0.018212 0.628098
vt 0.018212 0.395296
vt 0.018212 0.860898
vt 0.018212 0.977299
vt 0.048581 0.860898
vt 0.069402 0.003988
vt 0.069402 0.003988
vt 0.069402 0.003988
vt 0.069402 0.003988
vt 0.069402 0.003988
vt 0.069402 0.003988
vt 0.069402 0.003988
vt 0.069402 0.003988
vt 0.086990 0.977299
vt 0.045435 0.389586
vt 0.018212 0.395296
vt 0.018212 0.628098
vt 0.047261 0.662560
vt 0.018212 0.046094
vt 0.018212 0.162495
vt 0.048581 0.162495
vt 0.069402 0.003988
vt 0.069402 0.003988
vt 0.069402 0.003988
vt 0.069402 0.003988
vt 0.069402 0.003988
vt 0.069402 0.003988
vt 0.069402 0.003988
vt 0.069402 0.003988
vt 0.080512 0.046094
vt 0.048581 0.162495
vt 0.048581 0.860898
vt 0.018212 0.860898
vt 0.018212 0.162495
vt 0.033752 0.005623
vt 0.033748 0.005623
vt 0.033752 0.005623
vt 0.033748 0.005623
vt 0.033752 0.005623
vt 0.033752 0.005623
vt 0.033752 0.005623
vt 0.048581 0.162495
vt 0.982650 0.511697
vt 0.982650 0.235623
vt 0.047261 0.662560
vt 0.982650 0.977299
vt 0.982650 0.771015
vt 0.048002 0.773842
vt 0.048581 0.860898
vt 0.046933 0.613519
vt 0.982650 0.046094
vt 0.077482 0.977299
vt 0.088872 0.046094
vt 0.047880 0.755569
vt 0.045728 0.433304
vt 0.046193 0.334902
vt 0.023926 0.031601
vt 0.023926 0.031600
vt 0.023926 0.031601
vt 0.023926 0.031599
vt 0.023926 0.031593
vt 0.023926 0.031595
vt 0.023926 0.031595
vt 0.023926 0.031596
vt 0.023926 0.031597
vt 0.023926 0.031599
vt 0.023926 0.031598
vt 0.023926 0.031598
vt 0.019531 0.030685
vt 0.019531 0.030685
vt 0.019531 0.030685
vt 0.019531 0.030685
vt 0.019531 0.030685
vt 0.019531 0.030685
vt 0.019531 0.030685
vt 0.019531 0.030685
vn 0.000000 0.948768 0.315973
vn 0.000000 0.948768 0.315973
vn 0.000000 0.948768 0.315973
vn 0.000001 0.948768 0.315973
vn 0.000001 0.948768 0.315973
vn 0.000001 0.948768 0.315973
vn 0.000000 0.948768 0.315973
vn 0.000000 0.948768 0.315973
vn 0.000000 0.948768 0.315973
vn -0.000000 0.948768 0.315972
vn -0.000000 0.948768 0.315972
vn -0.000000 0.948768 0.315972
vn 0.000000 0.948768 0.315974
vn 0.000000 0.948768 0.315974
vn 0.000000 0.948768 0.315974
vn 0.000000 0.948768 0.315972
vn 0.000000 0.948768 0.315972
vn 0.000000 0.948768 0.315972
vn 0.000000 0.948768 0.315972
vn 0.000000 0.948768 0.315972
vn 0.000000 0.948768 0.315972
vn 0.000000 0.948768 0.315973
vn 0.000000 0.948768 0.315973
vn 0.000000 0.948768 0.315973
vn -0.000003 0.948768 0.315973
vn -0.000003 0.948768 0.315973
vn -0.000003 0.948768 0.315973
vn -0.000003 0.948768 0.315973
vn 0.000000 0.950001 0.312248
vn 0.000000 0.950001 0.312248
vn 0.000000 0.950001 0.312248
vn -0.000002 0.948768 0.315974
vn -0.000002 0.948768 0.315974
vn -0.000002 0.948768 0.315974
vn 0.000000 0.948768 0.315972
vn 0.000000 0.948768 0.315972
vn 0.000000 0.948769 0.315972
vn 0.000000 0.948768 0.315973
vn 0.000000 0.948768 0.315973
vn 0.000000 0.948768 0.315973
vn -0.000003 0.948768 0.315972
vn -0.000003 0.948768 0.315972
vn -0.000003 0.948768 0.315972
vn -0.000425 0.950030 0.312159
vn -0.000425 0.950030 0.312159
vn -0.000425 0.950030 0.312159
vn 0.000000 0.948768 0.315972
vn 0.000000 0.948768 0.315972
vn 0.000000 0.948768 0.315972
vn 0.000000 0.948768 0.315972
vn 0.000000 -0.948877 -0.315645
vn 0.000000 -0.948877 -0.315645
vn 0.000000 -0.948877 -0.315645
vn 0.000000 -0.948877 -0.315645
vn 0.000000 -0.948877 -0.315645
vn 0.000000 -0.948877 -0.315645
vn 0.000000 -0.948877 -0.315645
vn 0.000000 -0.948877 -0.315645
vn 0.000000 -0.948877 -0.315645
vn -0.000000 -0.948877 -0.315645
vn -0.000000 -0.948877 -0.315645
vn -0.000000 -0.948877 -0.315645
vn -0.001062 0.948877 0.315645
vn -0.001062 0.948877 0.315645
vn -0.001062 0.948877 0.315645
vn -0.000496 0.948877 0.315645
vn -0.000496 0.948877 0.315645
vn -0.000496 0.948877 0.315645
vn 0.000000 0.948768 0.315973
vn 0.000000 0.948768 0.315973
vn 0.000000 0.948768 0.315973
vn -0.000584 0.948768 0.315972
vn -0.000584 0.948768 0.315972
vn -0.000584 0.948768 0.315972
vn -0.000496 0.948877 0.315645
vn -0.000496 0.948877 0.315645
vn -0.000496 0.948877 0.315645
vn -0.001062 0.948877 0.315645
vn -0.001062 0.948877 0.315645
vn -0.001062 0.948877 0.315645
vn 0.000000 0.948768 0.315973
vn 0.000000 0.948768 0.315973
vn 0.000000 0.948768 0.315973
vn 0.000057 0.950030 0.312160
vn 0.000057 0.950029 0.312160
vn 0.000057 0.950030 0.312160
vn 0.000000 0.948768 0.315973
vn 0.000000 0.948768 0.315973
vn 0.000000 0.948768 0.315973
vn -0.000000 0.948768 0.315973
vn -0.000000 0.948768 0.315973
vn -0.000000 0.948768 0.315973
vn -0.000583 0.948768 0.315973
vn -0.000583 0.948768 0.315973
vn -0.000583 0.948768 0.315973
vn -0.000583 0.948768 0.315973
vn -0.000583 0.948768 0.315973
vn -0.000583 0.948768 0.315973
vn -0.000583 0.948768 0.315973
vn -0.000583 0.948768 0.315973
vn -0.000583 0.948768 0.315973
vn 1.000000 -0.000001 0.000000
vn 1.000000 -0.000001 0.000000
vn 1.000000 -0.000001 0.000000
vn 1.000000 0.000000 0.000000
vn 1.000000 0.000000 0.000000
vn 1.000000 0.000000 0.000000
vn 1.000000 -0.000001 0.000000
vn 1.000000 -0.000001 0.000000
vn 1.000000 -0.000001 0.000000
vn 1.000000 -0.000000 0.000000
vn 1.000000 -0.000000 0.000000
vn 1.000000 -0.000000 0.000000
vn 1.000000 0.000000 0.000000
vn 1.000000 0.000000 0.000000
vn 1.000000 0.000000 0.000000
vn 1.000000 0.000000 0.000000
vn 1.000000 0.000000 0.000000
vn 1.000000 0.000000 0.000000
vn 1.000000 -0.000003 0.000000
vn 1.000000 -0.000003 0.000000
vn 1.000000 -0.000003 0.000000
vn 1.000000 0.000000 0.000000
vn 1.000000 0.000000 0.000000
vn 1.000000 0.000000 0.000000
vn 1.000000 0.000000 0.000000
vn 1.000000 0.000000 0.000000
vn 1.000000 0.000000 0.000000
vn 1.000000 0.000000 0.000000
vn -0.000000 0.948768 0.315973
vn -0.000000 0.948768 0.315973
vn -0.000000 0.948768 0.315973
vn -0.000001 0.948768 0.315973
vn -0.000001 0.948768 0.315973
vn -0.000001 0.948768 0.315973
vn 0.000000 0.948768 0.315973
vn 0.000000 0.948768 0.315973
vn 0.000000 0.948768 0.315973
vn 0.000000 0.948768 0.315973
vn 0.000000 0.948768 0.315973
vn 0.000000 0.948768 0.315973
vn 0.000000 0.948768 0.315973
vn 0.000000 0.948768 0.315973
vn 0.000000 0.948768 0.315973
vn 0.000000 0.948768 0.315973
vn 0.000000 0.948768 0.315973
vn 0.000000 0.948768 0.315973
vn -0.000000 0.948768 0.315973
vn -0.000000 0.948768 0.315973
vn -0.000000 0.948768 0.315973
vn 0.000000 0.948768 0.315973
vn 0.000000 0.948768 0.315973
vn 0.000000 0.948768 0.315973
vn 0.000004 0.948768 0.315973
vn 0.000004 0.948768 0.315973
vn 0.000004 0.948768 0.315973
vn 0.000004 0.948768 0.315973
vn 0.000000 0.950001 0.312248
vn 0.000000 0.950001 0.312248
vn 0.000000 0.950001 0.312248
vn 0.000003 0.948768 0.315973
vn 0.000003 0.948768 0.315973
vn 0.000003 0.948768 0.315973
vn 0.000000 0.948768 0.315973
vn 0.000000 0.948768 0.315973
vn 0.000000 0.948768 0.315973
vn 0.000000 0.948768 0.315973
vn 0.000000 0.948768 0.315973
vn 0.000000 0.948768 0.315973
vn 0.000004 0.948768 0.315973
vn 0.000004 0.948768 0.315973
vn 0.000004 0.948768 0.315973
vn 0.000425 0.950029 0.312160
vn 0.000425 0.950029 0.312160
vn 0.000425 0.950029 0.312160
vn 0.000000 0.948768 0.315972
vn 0.000000 0.948768 0.315972
vn 0.000000 0.948768 0.315972
vn 0.000000 0.948768 0.315972
vn -0.000000 -0.948877 -0.315645
vn -0.000000 -0.948877 -0.315645
vn -0.000000 -0.948877 -0.315645
vn -0.000000 -0.948877 -0.315645
vn -0.000000 -0.948877 -0.315645
vn -0.000000 -0.948877 -0.315645
vn -0.000000 -0.948877 -0.315645
vn -0.000000 -0.948877 -0.315645
vn -0.000000 -0.948877 -0.315645
vn 0.000000 -0.948877 -0.315645
vn 0.000000 -0.948877 -0.315645
vn 0.000000 -0.948877 -0.315645
vn 0.001062 0.948877 0.315645
vn 0.001062 0.948877 0.315645
vn 0.001062 0.948877 0.315645
vn 0.000496 0.948877 0.315645
vn 0.000496 0.948877 0.315645
vn 0.000496 0.948877 0.315645
vn -0.000000 0.948768 0.315973
vn -0.000000 0.948768 0.315973
vn -0.000000 0.948768 0.315973
vn 0.000584 0.948768 0.315972
vn 0.000584 0.948768 0.315972
vn 0.000584 0.948768 0.315972
vn 0.000496 0.948877 0.315645
vn 0.000496 0.948877 0.315645
vn 0.000496 0.948877 0.315645
vn 0.001062 0.948877 0.315645
vn 0.001062 0.948877 0.315645
vn 0.001062 0.948877 0.315645
vn -0.000000 0.948768 0.315973
vn -0.000000 0.948768 0.315973
vn -0.000000 0.948768 0.315973
vn -0.000057 0.950029 0.312160
vn -0.000057 0.950029 0.312160
vn -0.000057 0.950030 0.312160
vn -0.000000 0.948768 0.315973
vn -0.000000 0.948768 0.315973
vn -0.000000 0.948768 0.315973
vn 0.000000 0.948768 0.315973
vn 0.000000 0.948768 0.315973
vn 0.000000 0.948768 0.315973
vn 0.000583 0.948768 0.315973
vn 0.000583 0.948768 0.315973
vn 0.000583 0.948768 0.315973
vn 0.000584 0.948768 0.315973
vn 0.000584 0.948768 0.315973
vn 0.000584 0.948768 0.315973
vn 0.000583 0.948768 0.315973
vn 0.000583 0.948768 0.315973
vn 0.000583 0.948768 0.315973
vn -1.000000 0.000000 0.000000
vn -1.000000 0.000000 0.000000
vn -1.000000 0.000000 0.000000
vn -1.000000 0.000000 0.000000
vn -1.000000 0.000000 0.000000
vn -1.000000 0.000000 0.000000
vn -1.000000 0.000000 0.000000
vn -1.000000 0.000000 0.000000
vn -1.000000 0.000000 0.000000
vn -1.000000 0.000000 0.000000
vn -1.000000 0.000000 0.000000
vn -1.000000 0.000000 0.000000
vn -1.000000 0.000000 0.000000
vn -1.000000 0.000000 0.000000
vn -1.000000 0.000000 0.000000
vn -1.000000 0.000000 0.000000
vn -1.000000 0.000000 0.000000
vn -1.000000 0.000000 0.000000
vn -1.000000 0.000000 0.000000
vn -1.000000 0.000000 0.000000
vn -1.000000 0.000000 0.000000
vn -1.000000 0.000000 0.000000
vn -1.000000 0.000000 0.000000
vn -1.000000 0.000000 0.000000
vn -1.000000 0.000000 0.000000
vn -1.000000 0.000000 0.000000
vn -1.000000 0.000000 0.000000
vn -1.000000 0.000000 0.000000
vn 0.000000 -0.948877 -0.315645
vn 0.000000 -0.948877 -0.315645
vn 0.000000 -0.948877 -0.315645
vn 0.000000 -0.948877 -0.315645
vn 0.000000 -0.948877 -0.315645
vn 0.000000 -0.948877 -0.315645
vn -0.002724 0.000422 -0.999996
vn -0.002724 0.000422 -0.999996
vn -0.002724 0.000422 -0.999996
vn -0.000029 0.000068 -1.000000
vn -0.000029 0.000068 -1.000000
vn -0.000029 0.000068 -1.000000
vn -0.000029 0.000068 -1.000000
vn 0.002725 0.000422 -0.999996
vn 0.002725 0.000422 -0.999996
vn 0.002725 0.000422 -0.999996
vn 0.000029 0.000068 -1.000000
vn 0.000029 0.000068 -1.000000
vn 0.000029 0.000068 -1.000000
vn 0.000029 0.000068 -1.000000
vn 0.000000 0.000000 1.000000
vn 0.000000 0.000000 1.000000
vn 0.000000 0.000000 1.000000
vn 0.000000 0.000000 1.000000
vn 0.000000 0.000001 1.000000
vn 0.000000 0.000001 1.000000
vn 0.000000 0.000001 1.000000
vn 0.000000 0.000001 1.000000
vn 0.000000 0.000001 1.000000
vn 0.000000 0.000001 1.000000
vn -0.000000 0.000000 1.000000
vn -0.000000 0.000000 1.000000
vn -0.000000 0.000000 1.000000
vn -0.000000 0.000000 1.000000
s off
f 3/1/1 4/2/2 2/3/3
f 4/2/4 5/4/5 2/3/6
f 6/5/7 7/6/8 1/7/9
f 3/10/10 6/11/11 4/12/12
f 7/13/13 6/11/14 3/10/15
f 2/14/16 9/15/17 8/16/18
f 2/14/19 5/17/20 9/15/21
f 1/7/22 7/6/23 10/18/24
f 12/20/25 13/19/26 14/21/27 15/22/28
f 11/25/29 18/27/30 19/26/31
f 13/28/32 16/30/33 14/29/34
f 17/31/35 16/30/36 13/28/37
f 12/32/38 19/34/39 18/33/40
f 12/32/41 15/35/42 19/34/43
f 18/27/44 11/25/45 20/36/46
f 8/8/47 9/9/48 16/23/49 17/24/50
f 25/37/51 27/38/52 24/39/53
f 24/39/54 26/40/55 23/42/56
f 24/39/57 27/38/58 26/40/59
f 23/42/60 28/41/61 21/43/62
f 18/44/63 31/46/64 32/45/65
f 8/48/66 29/50/67 30/49/68
f 30/49/69 7/52/70 3/51/71
f 32/45/72 8/48/73 17/53/74
f 32/45/75 29/50/76 8/48/77
f 22/54/78 31/46/79 18/44/80
f 7/52/81 30/49/82 10/55/83
f 22/54/84 18/44/85 20/56/86
f 30/49/87 3/51/88 2/57/89
f 30/49/90 2/57/91 8/48/92
f 32/45/93 17/53/94 13/58/95
f 12/47/96 32/45/97 13/58/98
f 12/47/99 18/44/100 32/45/101
f 23/62/102 11/61/103 19/63/104
f 23/62/105 19/63/106 15/67/107
f 24/59/108 6/64/109 1/60/110
f 24/59/111 4/65/112 6/64/113
f 24/59/114 5/66/115 4/65/116
f 23/62/117 15/67/118 14/68/119
f 23/62/120 14/68/121 16/69/122
f 24/59/123 23/62/124 16/69/125 9/70/126
f 24/59/127 9/70/128 5/66/129
f 35/71/130 34/72/131 36/73/132
f 36/73/133 34/72/134 37/74/135
f 38/75/136 33/76/137 39/77/138
f 35/78/139 36/79/140 38/80/141
f 39/81/142 35/78/143 38/80/144
f 34/82/145 40/83/146 41/84/147
f 34/82/148 41/84/149 37/85/150
f 33/76/151 42/86/152 39/77/153
f 44/87/154 47/88/155 46/89/156 45/90/157
f 43/91/158 51/92/159 50/93/160
f 45/94/161 46/95/162 48/96/163
f 49/97/164 45/94/165 48/96/166
f 44/98/167 50/99/168 51/100/169
f 44/98/170 51/100/171 47/101/172
f 50/93/173 52/102/174 43/91/175
f 40/103/176 49/104/177 48/105/178 41/106/179
f 25/107/180 54/108/181 27/109/182
f 26/112/183 53/110/184 28/111/185
f 54/108/186 26/112/187 27/109/188
f 53/110/189 21/113/190 28/111/191
f 50/114/192 32/115/193 31/116/194
f 40/117/195 30/118/196 29/119/197
f 30/118/198 35/120/199 39/121/200
f 32/115/201 49/122/202 40/117/203
f 32/115/204 40/117/205 29/119/206
f 22/123/207 50/114/208 31/116/209
f 39/121/210 42/124/211 30/118/212
f 22/123/213 52/125/214 50/114/215
f 30/118/216 34/126/217 35/120/218
f 30/118/219 40/117/220 34/126/221
f 32/115/222 45/127/223 49/122/224
f 44/128/225 45/127/226 32/115/227
f 44/128/228 32/115/229 50/114/230
f 53/129/231 51/130/232 43/131/233
f 53/129/234 47/132/235 51/130/236
f 54/133/237 33/134/238 38/135/239
f 54/133/240 38/135/241 36/136/242
f 54/133/243 36/136/244 37/137/245
f 53/129/246 46/138/247 47/132/248
f 53/129/249 48/139/250 46/138/251
f 54/133/252 41/140/253 48/139/254 53/129/255
f 54/133/256 37/137/257 41/140/258
f 23/42/259 26/40/260 28/41/261
f 54/108/262 53/110/263 26/112/264
f 52/141/265 53/142/266 43/143/267
f 23/144/268 21/145/269 22/146/270 20/147/271
f 23/144/272 20/147/273 11/148/274
f 22/146/275 21/145/276 53/142/277 52/141/278
f 25/37/279 24/59/280 10/55/281 30/118/282
f 54/108/283 42/86/284 33/134/285
f 10/55/286 24/59/287 1/7/288
f 25/37/289 30/118/290 42/86/291 54/108/292
