# This file uses centimeters as units for non-parametric coordinates.

v -35.618164 -7.432129 8.118164
v -28.368164 -8.541138 12.269531
v -61.885742 38.785522 40.370117
v -36.129883 -7.331787 5.186523
v -28.163086 -8.528748 7.151367
v -49.140625 29.134583 22.944336
v -46.056641 31.422119 26.939453
v -43.598633 34.462036 22.822266
v -48.267578 30.059387 19.795898
v -11.000000 -3.128479 4.030273
v -5.843750 -3.845947 -1.545898
v 24.406250 27.091431 15.261719
v -19.412109 -1.883240 4.185547
v -13.724609 -2.652100 -4.668945
v 5.265625 23.255493 14.156250
v 6.453125 22.794067 8.357422
v 5.056641 26.567871 8.280273
v 3.869141 27.029175 14.080078
v -23.524414 -9.301941 17.416016
v -19.036133 -9.961182 16.714844
v 8.372070 27.487915 51.686523
v -27.818359 -8.600464 9.604492
v -16.962891 -10.202881 8.868164
v -2.999023 24.074829 36.917969
v 3.020508 22.354126 35.569336
v 2.010742 26.811829 32.929688
v -4.007813 28.532837 34.280273
v -24.670898 7.621155 20.509766
v -20.477539 6.991394 21.513672
v -22.620117 30.654297 55.507813
v -23.634766 7.525757 13.542969
v -17.096680 6.540344 15.522461
v -24.665039 26.988892 38.705078
v -19.475586 25.077637 38.184570
v -19.391602 28.722656 34.640625
v -25.208008 29.357544 35.625000
v -27.476563 -8.602661 3.816406
v -26.271484 -8.822449 8.738281
v -2.922852 62.456360 23.228516
v -24.144531 -9.086609 2.636719
v -22.938477 -9.306458 7.558594
v -16.117188 48.684937 11.328125
v -17.775391 46.455627 16.702148
v -12.669922 43.295593 16.556641
v -11.011719 45.525818 11.182617
v -24.600586 -9.047363 6.031250
v -27.572266 -8.649292 11.096680
v -25.978516 57.694214 29.370117
v -21.185547 -9.568298 7.803711
v -24.156250 -9.170288 12.868164
v -27.943359 50.871338 14.466797
v -31.534180 44.858948 18.120117
v -26.309570 43.377136 20.684570
v -22.718750 49.389954 17.030273
v 75.228516 5.230835 22.283203
v -17.712891 17.922546 -8.755859
v -47.466797 -4.939148 -8.755859
v -64.251953 19.734619 -13.343750
v 16.636719 -11.276855 43.970703
v 2.109375 -7.005310 -15.224609
v -20.285156 -22.250366 9.494141
v 38.207031 -27.323853 -7.828125
v 25.835938 -25.769653 22.310547
v 110.136719 -9.612305 4.271484
v -41.640625 20.190735 29.285156
v 3.484375 2.813110 44.337891
v -59.949219 26.049255 -4.539063
v 43.632813 11.818787 20.207031
v 88.001953 7.798828 2.357422
v 74.519531 7.993286 -26.990234
v 79.445313 -13.399963 -22.257813
v -104.000000 3.700073 -6.460938
v -110.136719 -6.575439 -2.156250
v -86.703125 -18.966797 15.511719
v -96.955078 7.582764 18.896484
v -89.669922 14.525513 -1.427734
v -45.988281 -14.976257 20.683594
v -78.166016 1.747986 32.357422
v -54.359375 -6.028870 33.794922
vt 0.431368 0.206826
vt 0.431368 0.206826
vt 0.431368 0.206826
vt 0.431368 0.206826
vt 0.431368 0.206826
vt 0.431368 0.206826
vt 0.431368 0.206826
vt 0.431368 0.206826
vt 0.431368 0.206826
vt 0.431368 0.206826
vt 0.431368 0.206826
vt 0.431368 0.206826
vt 0.431368 0.206826
vt 0.431368 0.206826
vt 0.431368 0.206826
vt 0.431368 0.206826
vt 0.431368 0.206826
vt 0.431368 0.206826
vt 0.431368 0.206826
vt 0.431368 0.206826
vt 0.431368 0.206826
vt 0.431368 0.206826
vt 0.431368 0.206826
vt 0.431368 0.206826
vt 0.431368 0.206826
vt 0.431368 0.206826
vt 0.431368 0.206826
vt 0.431368 0.206826
vt 0.431368 0.206826
vt 0.431368 0.206826
vt 0.431368 0.206826
vt 0.431368 0.206826
vt 0.431368 0.206826
vt 0.431368 0.206826
vt 0.431368 0.206826
vt 0.431368 0.206826
vt 0.431368 0.206826
vt 0.431368 0.206826
vt 0.431368 0.206826
vt 0.431368 0.206826
vt 0.431368 0.206826
vt 0.431368 0.206826
vt 0.431368 0.206826
vt 0.431368 0.206826
vt 0.431368 0.206826
vt 0.431368 0.206826
vt 0.431368 0.206826
vt 0.431368 0.206826
vt 0.431368 0.206826
vt 0.431368 0.206826
vt 0.431368 0.206826
vt 0.431368 0.206826
vt 0.431368 0.206826
vt 0.431368 0.206826
vt 0.431368 0.206826
vt 0.431368 0.206826
vt 0.431368 0.206826
vt 0.431368 0.206826
vt 0.431368 0.206826
vt 0.431368 0.206826
vt 0.431368 0.206826
vt 0.431368 0.206826
vt 0.431368 0.206826
vt 0.431368 0.206826
vt 0.431368 0.206826
vt 0.431368 0.206826
vt 0.431368 0.206826
vt 0.431368 0.206826
vt 0.431368 0.206826
vt 0.431368 0.206826
vt 0.431368 0.206826
vt 0.431368 0.206826
vt 0.431368 0.206826
vt 0.431368 0.206826
vt 0.431368 0.206826
vt 0.431368 0.206826
vt 0.431368 0.206826
vt 0.431368 0.206826
vt -1.810815 2.031554
vt -1.797228 1.968702
vt -1.776970 2.042363
vt -1.827019 1.995521
vt 1.414557 2.015517
vt 1.367859 2.058676
vt 1.391173 1.985014
vt -1.450523 2.794934
vt -1.473907 2.776577
vt -1.447639 2.774627
vt -1.454315 2.744719
vt -1.480148 2.749542
vt 0.952812 2.193946
vt 0.948077 2.230852
vt 0.910095 2.214854
vt 0.920288 2.140343
vt 0.957965 2.234612
vt 1.399956 2.078206
vt 1.384134 2.066715
vt 0.893191 2.175424
vt 0.917955 2.112736
vt 0.940332 2.101576
vt -1.041993 2.151047
vt -1.010505 2.093061
vt -1.012825 2.136379
vt -1.038498 2.110381
vt -1.006508 2.025487
vt -1.032342 2.029791
vt 0.973290 2.113356
vt -1.791362 2.082663
vt 0.519497 2.630719
vt 0.513800 2.681828
vt 0.500677 2.594687
vt -1.819122 2.063095
vt -1.811857 2.106414
vt -1.016267 2.191140
vt -1.029129 2.185778
vt -1.784605 2.140698
vt -1.804448 2.161174
vt 0.944584 2.256821
vt 0.921762 2.263186
vt 0.950234 2.269343
vt -1.778798 2.105123
vt 1.419557 2.117636
vt 1.417198 2.165967
vt 1.406153 2.149550
vt 1.390632 2.128749
vt -1.752647 2.050403
vt -1.764075 2.112437
vt 1.222141 2.812020
vt 1.209278 2.807636
vt 1.231785 2.786182
vt 1.194422 2.789629
vt 1.220740 2.772462
vt 1.379835 2.157011
vn 0.010869 -0.871355 0.490533
vn 0.010869 -0.871355 0.490533
vn 0.010869 -0.871355 0.490533
vn -0.352713 0.754499 -0.553466
vn -0.352713 0.754499 -0.553466
vn -0.352713 0.754499 -0.553466
vn 0.694942 0.314127 0.646823
vn 0.694942 0.314127 0.646823
vn 0.694942 0.314127 0.646824
vn -0.823112 -0.441000 -0.357780
vn -0.823112 -0.441000 -0.357780
vn -0.823112 -0.441000 -0.357780
vn -0.490535 -0.477072 0.729231
vn -0.490535 -0.477072 0.729231
vn -0.490535 -0.477072 0.729231
vn -0.532220 -0.489209 0.690954
vn -0.532220 -0.489209 0.690953
vn -0.532220 -0.489209 0.690953
vn 0.944869 0.325161 0.038647
vn 0.944869 0.325161 0.038647
vn 0.944869 0.325161 0.038647
vn 0.800851 0.140800 0.582076
vn 0.800851 0.140800 0.582076
vn 0.800851 0.140800 0.582076
vn 0.203376 0.398949 -0.894135
vn 0.203376 0.398949 -0.894135
vn 0.203376 0.398949 -0.894135
vn 0.276469 0.426274 -0.861310
vn 0.276469 0.426274 -0.861310
vn 0.276469 0.426274 -0.861310
vn -0.907470 -0.394336 0.144902
vn -0.907470 -0.394336 0.144902
vn -0.907470 -0.394336 0.144902
vn -0.932756 -0.180959 -0.311802
vn -0.932756 -0.180959 -0.311802
vn -0.932756 -0.180959 -0.311802
vn 0.188711 -0.975129 0.116238
vn 0.188711 -0.975129 0.116238
vn 0.188711 -0.975129 0.116238
vn 0.001522 0.996875 -0.078978
vn 0.001522 0.996875 -0.078978
vn 0.001522 0.996875 -0.078978
vn 0.335010 0.104827 -0.936365
vn 0.335010 0.104827 -0.936365
vn 0.335010 0.104827 -0.936365
vn -0.057438 -0.001104 0.998348
vn -0.057438 -0.001104 0.998349
vn -0.057438 -0.001104 0.998348
vn 0.599378 -0.506955 0.619470
vn 0.599378 -0.506955 0.619470
vn 0.599378 -0.506955 0.619470
vn 0.794897 -0.569930 0.208132
vn 0.794896 -0.569930 0.208132
vn 0.794897 -0.569930 0.208132
vn 0.384252 0.156259 -0.909909
vn 0.384252 0.156259 -0.909909
vn 0.384252 0.156259 -0.909909
vn 0.422453 0.138014 -0.895816
vn 0.422453 0.138014 -0.895816
vn 0.422453 0.138014 -0.895816
vn -0.728167 0.655202 -0.201204
vn -0.728167 0.655202 -0.201204
vn -0.728167 0.655202 -0.201204
vn -0.637900 0.615272 -0.463168
vn -0.637900 0.615272 -0.463168
vn -0.637900 0.615272 -0.463168
vn -0.027400 -0.303846 0.952327
vn -0.027400 -0.303846 0.952327
vn -0.027400 -0.303846 0.952327
vn -0.376175 -0.120664 0.918658
vn -0.376175 -0.120664 0.918658
vn -0.376175 -0.120664 0.918658
vn -0.183167 -0.917493 0.353066
vn -0.183167 -0.917493 0.353066
vn -0.183167 -0.917493 0.353066
vn 0.248239 0.961381 -0.118842
vn 0.248239 0.961381 -0.118842
vn 0.248239 0.961381 -0.118842
vn 0.946489 0.023811 -0.321857
vn 0.946489 0.023811 -0.321857
vn 0.946489 0.023811 -0.321857
vn -0.799641 0.161284 0.578413
vn -0.799641 0.161284 0.578413
vn -0.799641 0.161284 0.578413
vn 0.054697 -0.528599 0.847108
vn 0.054697 -0.528599 0.847108
vn 0.054697 -0.528599 0.847108
vn 0.040757 -0.524138 0.850658
vn 0.040757 -0.524138 0.850658
vn 0.040757 -0.524138 0.850658
vn 0.798261 -0.557455 0.228087
vn 0.798261 -0.557455 0.228087
vn 0.798261 -0.557455 0.228087
vn 0.778149 -0.180045 -0.601721
vn 0.778149 -0.180045 -0.601721
vn 0.778149 -0.180045 -0.601721
vn -0.027935 0.554833 -0.831492
vn -0.027935 0.554833 -0.831492
vn -0.027935 0.554833 -0.831492
vn 0.023207 0.542947 -0.839446
vn 0.023207 0.542947 -0.839446
vn 0.023207 0.542947 -0.839446
vn -0.846296 0.220373 0.484993
vn -0.846296 0.220373 0.484993
vn -0.846296 0.220373 0.484993
vn -0.803079 0.158187 0.574493
vn -0.803079 0.158187 0.574493
vn -0.803079 0.158187 0.574493
vn -0.314441 -0.918778 0.238693
vn -0.314441 -0.918778 0.238693
vn -0.314441 -0.918778 0.238693
vn 0.095278 0.992458 -0.077129
vn 0.095278 0.992458 -0.077129
vn 0.095278 0.992458 -0.077129
vn 0.983248 0.114910 0.141488
vn 0.983248 0.114910 0.141488
vn 0.983248 0.114910 0.141488
vn -0.989687 -0.054721 0.132384
vn -0.989687 -0.054721 0.132384
vn -0.989687 -0.054721 0.132384
vn -0.268189 -0.644848 0.715714
vn -0.268189 -0.644848 0.715714
vn -0.268189 -0.644848 0.715714
vn -0.176254 -0.673955 0.717439
vn -0.176254 -0.673955 0.717439
vn -0.176254 -0.673955 0.717439
vn 0.810616 -0.331919 0.482422
vn 0.810616 -0.331919 0.482422
vn 0.810616 -0.331919 0.482422
vn 0.999069 -0.039615 -0.017068
vn 0.999069 -0.039615 -0.017068
vn 0.999069 -0.039615 -0.017068
vn -0.041746 0.709016 -0.703956
vn -0.041746 0.709016 -0.703956
vn -0.041746 0.709016 -0.703956
vn 0.309516 0.638964 -0.704219
vn 0.309516 0.638964 -0.704219
vn 0.309516 0.638964 -0.704219
vn -0.985924 0.078349 -0.147704
vn -0.985924 0.078349 -0.147704
vn -0.985924 0.078349 -0.147704
vn -0.990287 -0.095040 0.101483
vn -0.990287 -0.095040 0.101483
vn -0.990287 -0.095040 0.101483
vn -0.741845 0.668812 0.048540
vn -0.741845 0.668812 0.048540
vn -0.741845 0.668812 0.048540
vn 0.878049 -0.472695 0.074761
vn 0.878049 -0.472695 0.074761
vn 0.878049 -0.472695 0.074761
vn -0.135845 -0.263453 0.955060
vn -0.135845 -0.263453 0.955060
vn -0.135845 -0.263453 0.955060
vn 0.267236 0.470613 -0.840897
vn 0.267236 0.470613 -0.840897
vn 0.267236 0.470613 -0.840897
vn -0.963861 0.113414 0.241058
vn -0.963861 0.113414 0.241058
vn -0.963861 0.113414 0.241058
vn -0.954619 0.216154 -0.204889
vn -0.954619 0.216154 -0.204889
vn -0.954619 0.216154 -0.204889
vn 0.297529 -0.217114 0.929698
vn 0.297529 -0.217114 0.929698
vn 0.297529 -0.217114 0.929698
vn -0.054816 -0.134124 0.989447
vn -0.054816 -0.134124 0.989447
vn -0.054816 -0.134124 0.989447
vn 0.948325 -0.257137 0.185902
vn 0.948325 -0.257137 0.185902
vn 0.948325 -0.257137 0.185902
vn 0.959339 -0.145948 -0.241595
vn 0.959339 -0.145948 -0.241595
vn 0.959339 -0.145948 -0.241595
vn -0.297624 0.217050 -0.929682
vn -0.297624 0.217050 -0.929682
vn -0.297624 0.217050 -0.929682
vn 0.046488 0.120802 -0.991588
vn 0.046488 0.120802 -0.991588
vn 0.046488 0.120802 -0.991588
vn -0.879396 0.466019 -0.097409
vn -0.879396 0.466019 -0.097409
vn -0.879396 0.466019 -0.097409
vn 0.870553 -0.269785 0.411525
vn 0.870553 -0.269785 0.411525
vn 0.870553 -0.269785 0.411525
vn -0.493142 -0.442857 0.748792
vn -0.493142 -0.442857 0.748792
vn -0.493142 -0.442857 0.748792
vn 0.432853 0.796695 -0.421800
vn 0.432853 0.796695 -0.421800
vn 0.432853 0.796695 -0.421800
vn -0.862436 0.002581 -0.506159
vn -0.862436 0.002581 -0.506159
vn -0.862436 0.002581 -0.506159
vn -0.752533 0.050458 -0.656618
vn -0.752533 0.050458 -0.656618
vn -0.752533 0.050458 -0.656618
vn -0.473015 -0.148563 0.868439
vn -0.473015 -0.148563 0.868439
vn -0.473015 -0.148563 0.868439
vn -0.469439 -0.148994 0.870304
vn -0.469439 -0.148994 0.870304
vn -0.469439 -0.148994 0.870303
vn 0.772604 -0.078502 0.630016
vn 0.772604 -0.078502 0.630016
vn 0.772604 -0.078502 0.630016
vn 0.860472 -0.040289 0.507902
vn 0.860472 -0.040289 0.507902
vn 0.860472 -0.040289 0.507902
vn 0.473294 0.148199 -0.868349
vn 0.473294 0.148199 -0.868349
vn 0.473294 0.148199 -0.868349
vn 0.469258 0.148723 -0.870447
vn 0.469258 0.148723 -0.870447
vn 0.469258 0.148723 -0.870447
vn 0.214848 -0.966842 0.138047
vn 0.214848 -0.966842 0.138047
vn 0.214848 -0.966842 0.138047
vn 0.262208 -0.950335 -0.167664
vn 0.262208 -0.950335 -0.167664
vn 0.262208 -0.950335 -0.167664
vn 0.266467 -0.423794 0.865676
vn 0.266467 -0.423794 0.865676
vn 0.266467 -0.423794 0.865676
vn 0.533071 0.725540 0.435232
vn 0.533071 0.725540 0.435232
vn 0.533071 0.725540 0.435232
vn 0.609010 0.744019 -0.274851
vn 0.609010 0.744019 -0.274851
vn 0.609010 0.744019 -0.274851
vn 0.655009 -0.016298 -0.755445
vn 0.655009 -0.016298 -0.755445
vn 0.655009 -0.016298 -0.755445
vn 0.194725 0.978759 0.064124
vn 0.194725 0.978760 0.064124
vn 0.194725 0.978759 0.064124
vn 0.097947 0.995189 0.002271
vn 0.097947 0.995189 0.002271
vn 0.097947 0.995189 0.002271
vn 0.090737 0.787734 -0.609297
vn 0.090737 0.787734 -0.609297
vn 0.090737 0.787734 -0.609297
vn 0.278311 0.235524 0.931167
vn 0.278311 0.235524 0.931167
vn 0.278311 0.235524 0.931167
vn 0.416879 -0.663658 0.621104
vn 0.416879 -0.663658 0.621104
vn 0.416879 -0.663658 0.621104
vn 0.139023 0.829528 0.540885
vn 0.139023 0.829528 0.540885
vn 0.139023 0.829528 0.540885
vn 0.137785 0.830772 0.539290
vn 0.137785 0.830772 0.539290
vn 0.137785 0.830772 0.539290
vn 0.094268 0.995495 0.010127
vn 0.094268 0.995495 0.010127
vn 0.094268 0.995495 0.010127
vn 0.182994 0.953326 0.240171
vn 0.182994 0.953326 0.240171
vn 0.182994 0.953326 0.240171
vn -0.135633 -0.269544 -0.953389
vn -0.135633 -0.269544 -0.953389
vn -0.135633 -0.269544 -0.953389
vn 0.105316 0.327413 -0.938994
vn 0.105316 0.327413 -0.938994
vn 0.105316 0.327413 -0.938994
vn -0.107483 -0.238268 -0.965234
vn -0.107483 -0.238268 -0.965233
vn -0.107483 -0.238268 -0.965233
vn 0.099322 0.994289 -0.039041
vn 0.099322 0.994289 -0.039041
vn 0.099322 0.994289 -0.039041
vn -0.181444 0.109328 -0.977305
vn -0.181444 0.109328 -0.977305
vn -0.181444 0.109328 -0.977305
vn -0.081074 -0.996544 0.018111
vn -0.081074 -0.996544 0.018111
vn -0.081074 -0.996543 0.018111
vn -0.291470 -0.120224 -0.948995
vn -0.291470 -0.120224 -0.948995
vn -0.291470 -0.120224 -0.948995
vn -0.121944 -0.688883 -0.714542
vn -0.121944 -0.688883 -0.714542
vn -0.121944 -0.688883 -0.714542
vn -0.115882 -0.801061 -0.587259
vn -0.115882 -0.801061 -0.587259
vn -0.115882 -0.801061 -0.587259
vn -0.080017 -0.268623 -0.959916
vn -0.080017 -0.268623 -0.959916
vn -0.080017 -0.268623 -0.959916
vn -0.080017 -0.268623 -0.959916
vn -0.066889 -0.813158 -0.578186
vn -0.066889 -0.813158 -0.578186
vn -0.066889 -0.813158 -0.578186
vn -0.066889 -0.813158 -0.578186
vn -0.284187 0.918486 0.274994
vn -0.284187 0.918486 0.274994
vn -0.284187 0.918486 0.274994
vn -0.284187 0.918486 0.274994
vn -0.383116 0.795502 -0.469467
vn -0.383116 0.795502 -0.469467
vn -0.383116 0.795502 -0.469467
vn -0.383116 0.795502 -0.469467
vn -0.079635 -0.909389 0.408252
vn -0.079635 -0.909389 0.408252
vn -0.079635 -0.909389 0.408252
vn -0.079635 -0.909389 0.408252
vn -0.188001 0.511959 0.838184
vn -0.188001 0.511959 0.838185
vn -0.188001 0.511959 0.838184
vn -0.188001 0.511959 0.838184
vn -0.146106 -0.199520 0.968940
vn -0.146106 -0.199520 0.968940
vn -0.146106 -0.199520 0.968940
vn -0.146106 -0.199520 0.968940
vn -0.137441 -0.852118 0.504981
vn -0.137441 -0.852118 0.504981
vn -0.137441 -0.852118 0.504981
vn -0.137441 -0.852118 0.504981
vn 0.008627 -0.823393 0.567405
vn -0.076847 -0.744719 0.662939
vn -0.478156 -0.488247 0.730057
vn -0.613061 0.788477 0.049593
vn -0.737796 0.667146 0.102826
vn -0.765938 -0.112202 0.633048
vn -0.737796 0.667146 0.102826
vn -0.836240 -0.035160 0.547236
vn -0.765938 -0.112202 0.633048
vn -0.836240 -0.035160 0.547236
vn -0.478156 -0.488247 0.730057
vn -0.765938 -0.112202 0.633048
vn -0.765938 -0.112202 0.633048
vn -0.478156 -0.488247 0.730057
vn -0.385342 -0.481401 0.787252
vn -0.478156 -0.488247 0.730057
vn -0.076847 -0.744719 0.662939
vn -0.385342 -0.481401 0.787252
s off
f 6/1/1 7/2/2 3/3/3
f 3/3/4 8/4/5 9/5/6
f 7/2/7 8/6/8 3/3/9
f 9/7/10 6/1/11 3/3/12
f 1/8/13 2/9/14 6/1/15
f 6/1/16 2/9/17 7/2/18
f 5/10/19 8/6/20 2/9/21
f 2/9/22 8/6/23 7/2/24
f 8/4/25 5/11/26 9/5/27
f 9/5/28 5/11/29 4/12/30
f 1/8/31 6/1/32 4/13/33
f 4/13/34 6/1/35 9/7/36
f 15/14/37 16/15/38 12/16/39
f 12/16/40 17/17/41 18/18/42
f 16/15/43 17/19/44 12/16/45
f 18/20/46 15/14/47 12/16/48
f 11/21/49 16/15/50 10/22/51
f 10/22/52 16/15/53 15/14/54
f 14/23/55 17/19/56 11/21/57
f 11/21/58 17/19/59 16/15/60
f 18/18/61 17/17/62 13/24/63
f 13/24/64 17/17/65 14/25/66
f 13/26/67 10/22/68 18/20/69
f 18/20/70 10/22/71 15/14/72
f 24/27/73 25/28/74 21/29/75
f 21/29/76 26/30/77 27/31/78
f 25/28/79 26/32/80 21/29/81
f 27/33/82 24/27/83 21/29/84
f 19/34/85 20/35/86 24/27/87
f 24/27/88 20/35/89 25/28/90
f 23/36/91 26/32/92 20/35/93
f 20/35/94 26/32/95 25/28/96
f 26/30/97 23/37/98 27/31/99
f 27/31/100 23/37/101 22/38/102
f 22/39/103 19/34/104 27/33/105
f 27/33/106 19/34/107 24/27/108
f 33/40/109 34/41/110 30/42/111
f 30/42/112 35/43/113 36/44/114
f 34/41/115 35/45/116 30/42/117
f 36/46/118 33/40/119 30/42/120
f 29/47/121 34/41/122 28/48/123
f 28/48/124 34/41/125 33/40/126
f 32/49/127 35/45/128 29/47/129
f 29/47/130 35/45/131 34/41/132
f 36/44/133 35/43/134 31/50/135
f 31/50/136 35/43/137 32/51/138
f 31/52/139 28/48/140 36/46/141
f 36/46/142 28/48/143 33/40/144
f 42/53/145 43/54/146 39/55/147
f 39/55/148 44/56/149 45/57/150
f 43/54/151 44/58/152 39/55/153
f 45/59/154 42/53/155 39/55/156
f 38/60/157 43/54/158 37/61/159
f 37/61/160 43/54/161 42/53/162
f 41/62/163 44/58/164 38/60/165
f 38/60/166 44/58/167 43/54/168
f 45/57/169 44/56/170 40/63/171
f 40/63/172 44/56/173 41/64/174
f 40/65/175 37/61/176 45/59/177
f 45/59/178 37/61/179 42/53/180
f 51/66/181 52/67/182 48/68/183
f 48/68/184 53/69/185 54/70/186
f 52/67/187 53/71/188 48/68/189
f 54/72/190 51/66/191 48/68/192
f 47/73/193 52/67/194 46/74/195
f 46/74/196 52/67/197 51/66/198
f 50/75/199 53/71/200 47/73/201
f 47/73/202 53/71/203 52/67/204
f 54/70/205 53/69/206 49/76/207
f 49/76/208 53/69/209 50/77/210
f 49/78/211 46/74/212 54/72/213
f 54/72/214 46/74/215 51/66/216
f 62/79/217 64/80/218 63/81/219
f 71/82/220 64/80/221 62/79/222
f 55/83/223 63/84/224 64/85/225
f 55/86/226 64/87/227 69/88/228
f 69/88/229 64/87/230 70/89/231
f 71/90/232 70/89/233 64/87/234
f 56/91/235 67/92/236 65/93/237
f 56/91/238 65/93/239 68/94/240
f 56/91/241 58/95/242 67/92/243
f 55/83/244 66/96/245 59/97/246
f 55/83/247 59/97/248 63/84/249
f 65/93/250 66/98/251 68/94/252
f 55/99/253 68/94/254 66/98/255
f 68/94/256 69/100/257 56/91/258
f 55/99/259 69/100/260 68/94/261
f 58/101/262 60/102/263 57/103/264
f 56/104/265 60/102/266 58/101/267
f 71/105/268 60/102/269 70/106/270
f 69/100/271 70/107/272 56/91/273
f 56/104/274 70/106/275 60/102/276
f 63/81/277 61/108/278 62/79/279
f 62/109/280 61/110/281 71/111/282
f 60/112/283 71/82/284 57/113/285
f 57/113/286 71/82/287 61/108/288
f 58/101/289 57/103/290 73/114/291 72/115/292
f 57/113/293 61/108/294 74/116/295 73/117/296
f 65/93/297 67/92/298 76/118/299 75/119/300
f 67/92/301 58/95/302 72/120/303 76/118/304
f 61/108/305 63/81/306 77/121/307 74/116/308
f 66/96/309 65/122/310 75/123/311 78/124/312
f 59/97/313 66/96/314 78/124/315 79/125/316
f 63/81/317 59/126/318 79/127/319 77/121/320
f 77/121/321 79/127/322 74/116/323
f 76/118/324 72/120/325 75/119/326
f 72/128/327 73/129/328 75/130/329
f 73/129/330 74/131/331 75/130/332
f 75/130/333 74/131/334 78/132/335
f 74/133/336 79/125/337 78/124/338
