# This file uses centimeters as units for non-parametric coordinates.

v 13.546753 0.000000 -500.000000
v 13.546753 0.000000 0.000000
v 31.538391 0.000000 -500.000000
v 31.538391 0.000000 0.000000
v 46.461487 0.000000 -230.081177
v 28.469086 0.000000 -230.081177
v 486.453247 0.000000 -500.000000
v 486.453247 0.000000 0.000000
v 468.461609 0.000000 -500.000000
v 468.461609 0.000000 0.000000
v 478.561401 0.000000 -253.796387
v 460.569000 0.000000 -253.796387
v 398.116302 0.000000 -223.637390
v 109.410858 0.000000 -221.495056
v 109.410858 0.000000 -139.280701
v 398.116302 0.000000 -146.598068
v 214.034271 0.000000 -143.566895
v 182.590485 0.000000 -142.771164
v 193.048096 0.000037 -151.728073
v 398.116302 0.000000 -396.275330
v 106.188202 0.000000 -391.764832
v 106.188202 0.000000 -475.157166
v 398.116302 0.000000 -476.776123
v 174.465179 0.000000 -476.407623
v 204.456329 0.000000 -476.573944
v 189.654541 0.000037 -469.888306
v 101.972198 0.000000 -265.213013
v 393.185425 0.000000 -268.324310
v 101.972198 0.000000 -347.343445
v 393.185425 0.000000 -351.596069
v 272.090912 0.000000 -348.089600
v 324.706268 0.000000 -348.858643
v 308.161926 0.000037 -337.252808
v 0.000000 0.000000 -500.000000
v 0.000000 0.000000 0.000000
v 0.000000 0.000000 -232.725525
v 500.000000 0.000000 -500.000000
v 500.000000 0.000000 0.000000
v 500.000000 0.000000 -252.166748
v 101.972198 0.000000 -96.729279
v 250.000000 0.000000 0.000000
v 250.000000 0.000000 -500.000000
v 101.972198 0.000000 -11.558533
v 101.972198 0.000000 -68.797302
v 116.464996 0.000000 -83.882141
v 392.231750 0.000000 -90.746307
v 392.231750 0.000000 -14.968872
v 352.669525 0.000000 -12.991333
v 333.057404 0.000037 -21.710205
v 310.147858 0.000000 -12.491608
v 267.093353 0.000028 -422.416687
vt 0.963017 0.989137
vt 0.933792 0.549215
vt 0.989550 0.544158
vt 0.989550 0.989137
vt 0.963017 0.033121
vt 0.989550 0.033121
vt 0.010281 0.989137
vt 0.010281 0.506986
vt 0.052269 0.503871
vt 0.036811 0.989137
vt 0.010281 0.033121
vt 0.036811 0.033121
vt 0.927780 0.989137
vt 0.789833 0.967037
vt 0.789833 0.857595
vt 0.789833 0.804187
vt 0.898552 0.549215
vt 0.775264 0.565632
vt 0.789833 0.482040
vt 0.087508 0.503871
vt 0.219480 0.476093
vt 0.209823 0.561536
vt 0.499915 0.989137
vt 0.298832 0.964298
vt 0.382113 0.965254
vt 0.209823 0.231446
vt 0.781575 0.240069
vt 0.456650 0.323579
vt 0.353599 0.322109
vt 0.761448 0.828753
vt 0.631939 0.716155
vt 0.775264 0.722829
vt 0.927780 0.033121
vt 0.781575 0.080621
vt 0.647853 0.078230
vt 0.499915 0.033121
vt 0.072050 0.033121
vt 0.209823 0.077525
vt 0.789833 0.325004
vt 0.219480 0.316874
vt 0.209823 0.708837
vt 0.072049 0.989137
vt 0.221348 0.815628
vt 0.221349 0.960516
vt 0.618103 0.090695
vt 0.589114 0.077911
vt 0.386002 0.344298
vt 0.570354 0.714634
vt 0.611457 0.699028
vt 0.337245 0.947628
vt 0.034990 0.003220
vt 0.034990 0.003220
vt 0.053779 0.003225
vt 0.034990 0.003220
vt 0.030973 0.003219
vt 0.030973 0.003219
vt 0.030973 0.003219
vt 0.030973 0.003219
vt 0.030973 0.003219
vt 0.030973 0.003219
vt 0.048628 0.003220
vt 0.021529 0.003212
vt 0.021529 0.003212
vt 0.021529 0.003212
vt 0.021529 0.003212
vt 0.021529 0.003212
vt 0.053687 0.003210
vt 0.021529 0.003212
vt 0.021529 0.003212
vt 0.021529 0.003212
vt 0.021529 0.003212
vt 0.021529 0.003212
vt 0.021529 0.003212
vt 0.021529 0.003212
vt 0.027712 0.003216
vt 0.027712 0.003216
vt 0.059870 0.003214
vt 0.050475 0.003217
vt 0.027712 0.003216
vt 0.027712 0.003216
vt 0.027712 0.003216
vt 0.021529 0.003212
vt 0.053687 0.003210
vt 0.021529 0.003212
vt 0.021529 0.003212
vt 0.021529 0.003212
vt 0.053687 0.003210
vt 0.021529 0.003212
vt 0.021529 0.003212
vt 0.034990 0.003220
vt 0.034990 0.003220
vt 0.053687 0.003210
vn 0.000000 1.000000 0.000000
vn 0.000000 1.000000 0.000000
vn 0.000000 1.000000 0.000000
vn 0.000000 1.000000 0.000000
vn 0.000000 1.000000 0.000000
vn 0.000000 1.000000 0.000000
vn 0.000000 1.000000 0.000000
vn 0.000000 1.000000 0.000000
vn 0.000000 1.000000 0.000000
vn 0.000000 1.000000 0.000000
vn 0.000000 1.000000 0.000000
vn 0.000000 1.000000 0.000000
vn 0.000000 1.000000 0.000000
vn 0.000000 1.000000 0.000000
vn 0.000000 1.000000 0.000000
vn 0.000000 1.000000 0.000000
vn 0.000000 1.000000 0.000000
vn 0.000000 1.000000 0.000000
vn 0.000000 1.000000 0.000000
vn 0.000000 1.000000 0.000000
vn 0.000000 1.000000 0.000000
vn 0.000000 1.000000 0.000000
vn 0.000000 1.000000 0.000000
vn 0.000000 1.000000 0.000000
vn 0.000000 1.000000 0.000000
vn 0.000000 1.000000 0.000000
vn 0.000000 1.000000 0.000000
vn 0.000000 1.000000 0.000000
vn 0.000000 1.000000 0.000000
vn 0.000000 1.000000 0.000000
vn 0.000000 1.000000 0.000000
vn -0.000000 1.000000 -0.000000
vn -0.000000 1.000000 -0.000000
vn 0.000000 1.000000 0.000000
vn 0.000000 1.000000 0.000000
vn 0.000000 1.000000 0.000000
vn 0.000000 1.000000 0.000000
vn 0.000000 1.000000 0.000000
vn 0.000000 1.000000 0.000000
vn 0.000000 1.000000 0.000000
vn 0.000000 1.000000 0.000000
vn 0.000000 1.000000 0.000000
vn -0.000000 1.000000 -0.000000
vn 0.000000 1.000000 0.000000
vn 0.000000 1.000000 0.000000
vn 0.000000 1.000000 0.000000
vn 0.000000 1.000000 0.000000
vn 0.000000 1.000000 0.000000
vn 0.000000 1.000000 0.000000
vn 0.000000 1.000000 0.000000
vn 0.000000 1.000000 0.000000
vn 0.000000 1.000000 0.000000
vn 0.000000 1.000000 0.000000
vn 0.000000 1.000000 0.000000
vn 0.000000 1.000000 0.000000
vn 0.000000 1.000000 0.000000
vn 0.000000 1.000000 0.000000
vn 0.000000 1.000000 0.000000
vn 0.000000 1.000000 0.000000
vn 0.000000 1.000000 0.000000
vn 0.000000 1.000000 0.000000
vn 0.000000 1.000000 0.000000
vn 0.000000 1.000000 0.000000
vn 0.000000 1.000000 0.000000
vn 0.000000 1.000000 0.000000
vn 0.000000 1.000000 0.000000
vn 0.000000 1.000000 0.000000
vn 0.000000 1.000000 0.000000
vn 0.000000 1.000000 0.000000
vn 0.000000 1.000000 0.000000
vn 0.000000 1.000000 0.000000
vn 0.000000 1.000000 0.000000
vn 0.000000 1.000000 0.000000
vn 0.000000 1.000000 0.000000
vn 0.000000 1.000000 0.000000
vn 0.000000 1.000000 0.000000
vn 0.000000 1.000000 0.000000
vn 0.000000 1.000000 0.000000
vn 0.000000 1.000000 0.000000
vn 0.000000 1.000000 0.000000
vn 0.000000 1.000000 0.000000
vn 0.000000 1.000000 0.000000
vn 0.000000 1.000000 0.000000
vn 0.000000 1.000000 0.000000
vn 0.000000 1.000000 0.000000
vn -0.000000 1.000000 -0.000000
vn -0.000000 1.000000 -0.000006
vn -0.000000 1.000000 -0.000000
vn -0.000000 1.000000 -0.000000
vn -0.000000 1.000000 -0.000003
vn -0.000000 1.000000 -0.000000
vn 0.000000 1.000000 0.000000
vn 0.000000 1.000000 0.000004
vn 0.000000 1.000000 0.000000
vn 0.000000 1.000000 0.000000
vn 0.000000 1.000000 0.000004
vn 0.000000 1.000000 0.000000
vn 0.000000 1.000000 0.000000
vn 0.000000 1.000000 0.000000
vn 0.000000 1.000000 0.000000
vn 0.000000 1.000000 0.000000
vn 0.000000 1.000000 0.000000
vn 0.000000 1.000000 0.000000
vn 0.000000 1.000000 0.000000
vn 0.000000 1.000000 0.000000
vn 0.000000 1.000000 0.000000
vn 0.000000 1.000000 0.000000
vn 0.000000 1.000000 0.000000
vn 0.000000 1.000000 0.000000
vn 0.000000 1.000000 0.000000
vn 0.000000 1.000000 0.000000
vn 0.000000 1.000000 0.000000
vn -0.000000 1.000000 -0.000000
vn 0.000000 1.000000 0.000000
vn 0.000000 1.000000 0.000000
vn 0.000000 1.000000 0.000000
vn -0.000000 1.000000 -0.000000
vn 0.000000 1.000000 0.000000
vn 0.000000 1.000000 0.000000
vn -0.000000 1.000000 -0.000000
vn 0.000000 1.000000 0.000000
vn 0.000000 1.000000 0.000000
vn 0.000000 1.000000 0.000000
vn -0.000000 1.000000 -0.000000
vn -0.000000 1.000000 -0.000000
vn 0.000000 1.000000 0.000000
vn 0.000000 1.000000 0.000000
vn 0.000000 1.000000 0.000000
vn 0.000000 1.000000 0.000000
vn 0.000000 1.000000 0.000000
vn 0.000000 1.000000 0.000000
vn 0.000000 1.000000 0.000000
vn 0.000000 1.000000 0.000000
vn 0.000000 1.000000 0.000000
vn 0.000000 1.000000 0.000000
vn 0.000000 1.000000 0.000000
vn 0.000000 1.000000 0.000000
vn 0.000000 1.000000 0.000000
vn 0.000000 1.000000 0.000000
vn -0.000000 1.000000 -0.000000
vn -0.000000 1.000000 -0.000000
vn 0.000000 1.000000 0.000000
vn -0.000000 1.000000 0.000000
vn -0.000000 1.000000 0.000000
vn -0.000000 1.000000 -0.000000
vn -0.000000 1.000000 -0.000000
vn 0.000000 1.000000 0.000000
vn -0.000000 1.000000 -0.000000
vn 0.000000 1.000000 0.000000
vn 0.000000 1.000000 0.000000
vn -0.000000 1.000000 0.000000
vn -0.000000 1.000000 0.000000
vn -0.000000 1.000000 -0.000000
vn -0.000000 1.000000 -0.000000
vn 0.000000 1.000000 -0.000000
vn 0.000000 1.000000 0.000000
vn 0.000000 1.000000 -0.000000
vn 0.000000 1.000000 -0.000000
vn 0.000000 1.000000 0.000001
vn -0.000000 1.000000 0.000000
vn 0.000000 1.000000 0.000000
vn 0.000000 1.000000 0.000000
vn -0.000000 1.000000 -0.000000
vn 0.000000 1.000000 -0.000000
vn 0.000000 1.000000 -0.000000
vn 0.000000 1.000000 0.000000
vn 0.000000 1.000000 0.000000
vn -0.000000 1.000000 -0.000000
vn 0.000000 1.000000 0.000000
vn -0.000000 1.000000 -0.000000
vn -0.000000 1.000000 -0.000000
vn 0.000000 1.000000 -0.000000
vn 0.000000 1.000000 -0.000000
vn 0.000001 1.000000 0.000000
vn 0.000001 1.000000 0.000000
vn -0.000000 1.000000 0.000000
vn -0.000000 1.000000 0.000000
vn 0.000000 1.000000 -0.000000
vn -0.000000 1.000000 0.000000
vn -0.000000 1.000000 0.000000
vn 0.000000 1.000000 -0.000000
vn 0.000000 1.000000 -0.000000
vn -0.000000 1.000000 0.000000
vn -0.000000 1.000000 0.000000
vn 0.000000 1.000000 0.000000
vn 0.000000 1.000000 0.000000
vn 0.000000 1.000000 0.000000
vn 0.000000 1.000000 0.000000
vn 0.000000 1.000000 0.000000
vn 0.000000 1.000000 0.000000
vn 0.000000 1.000000 0.000000
vn 0.000000 1.000000 -0.000000
vn 0.000000 1.000000 -0.000000
vn -0.000000 1.000000 0.000000
vn 0.000000 1.000000 -0.000001
vn -0.000000 1.000000 0.000000
vn -0.000000 1.000000 0.000000
vn -0.000000 1.000000 0.000000
s off
f 2/1/1 6/2/2 36/3/3 35/4/4
f 36/3/5 6/2/6 1/5/7 34/6/8
f 38/7/9 39/8/10 11/9/11 8/10/12
f 11/9/13 39/8/14 37/11/15 7/12/16
f 4/13/17 43/14/18 44/15/19 40/16/20
f 5/17/21 14/18/22 27/19/23
f 12/20/24 28/21/25 13/22/26
f 41/23/27 48/24/28 50/25/29
f 20/26/30 21/27/31 31/28/32 32/29/33
f 40/16/34 45/30/35 18/31/36 15/32/37
f 44/15/38 45/30/39 40/16/40
f 3/33/41 22/34/42 24/35/43 42/36/44
f 28/21/45 27/19/46 14/18/47 13/22/48
f 9/37/49 23/38/50 20/26/51
f 5/17/52 29/39/53 21/27/54 3/33/55
f 5/17/56 15/32/57 14/18/58
f 5/17/59 27/19/60 29/39/61
f 12/20/62 30/40/63 28/21/64
f 16/41/65 12/20/66 13/22/67
f 10/42/68 12/20/69 16/41/70 46/43/71
f 4/13/72 40/16/73 15/32/74 5/17/75
f 3/33/76 21/27/77 22/34/78
f 9/37/79 20/26/80 30/40/81 12/20/82
f 10/42/83 46/43/84 47/44/85
f 24/35/86 26/45/87 25/46/88
f 31/28/89 33/47/90 32/29/91
f 17/48/92 19/49/93 18/31/94
f 48/24/95 49/50/96 50/25/97
f 10/42/98 47/44/99 48/24/100 41/23/101
f 41/23/102 50/25/103 43/14/104 4/13/105
f 17/48/106 46/43/107 16/41/108
f 18/31/109 45/30/110 46/43/111 17/48/112
f 31/28/113 21/27/114 29/39/115
f 20/26/116 32/29/117 30/40/118
f 42/36/119 25/46/120 23/38/121 9/37/122
f 42/36/123 24/35/124 25/46/125
f 2/51/126 5/52/127 6/53/128
f 6/53/129 5/52/130 1/54/131
f 8/55/132 11/56/133 12/57/134 10/58/135
f 12/57/136 11/56/137 7/59/138 9/60/139
f 14/61/140 19/62/141 13/63/142
f 15/64/143 18/65/144 19/62/145 14/61/146
f 13/63/147 19/62/148 17/66/149 16/67/150
f 21/68/151 26/69/152 24/70/153 22/71/154
f 23/72/155 51/73/156 20/74/157
f 20/74/158 51/73/159 21/68/160
f 28/75/161 33/76/162 27/77/163
f 30/78/164 32/79/165 33/76/166 28/75/167
f 27/77/168 33/76/169 31/80/170 29/81/171
f 46/82/172 49/83/173 48/84/174 47/85/175
f 43/86/176 50/87/177 49/83/178 45/88/179
f 45/88/180 49/83/181 46/82/182
f 43/86/183 45/88/184 44/89/185
f 4/90/186 5/52/187 2/51/188
f 1/54/189 5/52/190 3/91/191
f 23/72/192 25/92/193 26/69/194 51/73/195
f 21/68/196 51/73/197 26/69/198
