# This file uses centimeters as units for non-parametric coordinates.

v 0.000004 -250.000000 -499.999969
v 0.000018 -250.000000 0.000000
v 499.599731 -250.000000 -513.080872
v 500.000000 -250.000000 0.000012
v 18.637955 -246.229340 -472.424500
v 8.620389 -246.229340 -8.620369
v 490.327972 -246.229340 -14.073240
v 469.406952 -246.229340 -465.186798
v 0.000005 -250.000000 -231.957764
v 29.664284 -246.229340 -230.471512
v 475.898651 -246.229340 -222.170410
v 500.000000 -250.000000 -231.957764
v 208.959808 -250.000000 0.000010
v 206.323441 -246.229340 -21.393173
v 210.374924 -246.229340 -232.579895
v 213.290009 -246.229340 -470.738800
v 208.959808 -250.000000 -499.999969
v 500.000000 -250.000000 -999.999939
v 1000.000000 -250.000000 -999.999939
v 1000.000000 -250.000000 -499.999939
v 519.402527 -246.229340 -981.395020
v 557.102112 -246.229340 -537.756531
v 990.328003 -246.229340 -514.073242
v 964.040588 -246.229340 -966.510620
v 500.000000 -250.000000 -731.957764
v 529.664307 -246.229340 -730.471497
v 975.898682 -246.229340 -722.170410
v 1000.000000 -250.000000 -731.957764
v 708.959839 -250.000000 -499.999969
v 706.323425 -246.229340 -521.393188
v 710.374939 -246.229340 -732.579895
v 728.527954 -246.229340 -978.306946
v 708.959778 -250.000000 -999.999939
v -0.000009 -250.000000 -999.999939
v 20.660276 -249.502975 -982.380859
v 7.429929 -237.584122 -509.818665
v 319.374329 -228.747360 -556.732544
v 489.055573 -240.074966 -987.207886
v 0.000005 -250.000000 -731.957764
v 29.619114 -242.849258 -731.495667
v 475.711761 -233.483948 -721.119202
v 205.155457 -233.857285 -521.666382
v 210.300705 -239.197067 -732.761719
v 229.723450 -245.134567 -978.319885
v 208.959793 -250.000000 -999.999939
v 1000.000000 -250.000000 0.000024
v 562.474731 -211.171692 -445.012512
v 566.814331 -246.229340 -45.834396
v 945.008667 -246.229340 -29.719276
v 987.865112 -246.229340 -488.406189
v 529.664307 -246.229340 -230.471512
v 975.898682 -246.229340 -222.170410
v 1000.000000 -250.000000 -231.957748
v 708.959839 -250.000000 0.000010
v 706.323425 -246.229340 -21.393173
v 710.374939 -246.229340 -232.579895
v 728.527954 -246.229340 -478.306946
v 541.240540 -248.570160 -457.203156
v 542.072266 -219.418839 -456.463562
v 596.438477 -246.229340 -355.240326
v 507.130981 -232.505219 -433.933746
v 566.130066 -250.000000 -494.634308
v 470.932800 -228.734558 -408.066528
v 249.241760 -246.229340 -231.056183
v 319.288361 -228.734558 -339.557617
v 472.586609 -228.734558 -346.157013
v 504.753235 -232.505219 -366.587280
v 335.698242 -228.734558 -319.660767
v 471.538727 -244.344025 -385.383759
v 505.950409 -248.114655 -400.495880
v 326.964844 -244.344025 -331.438782
v 209.311615 -238.170578 -692.181824
v 472.084351 -231.446487 -547.431396
v 499.831573 -250.000000 -639.866638
v 597.751343 -246.229340 -625.976318
v 709.066406 -246.229340 -664.371460
v 926.153931 -246.229324 -142.727066
v 769.963074 -246.229340 -54.328232
vt 0.101475 0.254196
vt 0.101475 0.254196
vt 0.101475 0.254196
vt 0.101475 0.254196
vt 0.101254 0.274769
vt 0.101254 0.274769
vt 0.101254 0.274769
vt 0.101254 0.274769
vt 0.101475 0.254196
vt 0.101254 0.274769
vt 0.101254 0.274769
vt 0.101471 0.254196
vt 0.101471 0.254196
vt 0.101254 0.274769
vt 0.101254 0.274769
vt 0.101254 0.274769
vt 0.101475 0.254196
vt 0.101471 0.254196
vt 0.101471 0.254196
vt 0.101471 0.254196
vt 0.101471 0.254196
vt 0.101471 0.254196
vt 0.101471 0.254196
vt 0.101471 0.254196
vt 0.101471 0.254196
vt 0.101254 0.274769
vt 0.101254 0.274769
vt 0.101254 0.274769
vt 0.101254 0.274769
vt 0.101475 0.254196
vt 0.101475 0.254196
vt 0.101475 0.254196
vt 0.101475 0.254196
vt 0.101475 0.254196
vt 0.101471 0.254196
vt 0.101471 0.254196
vt 0.101475 0.254196
vt 0.101471 0.254196
vt 0.101471 0.254196
vt 0.101471 0.254196
vt 0.101471 0.254196
vt 0.101471 0.254196
vt 0.101471 0.254196
vt 0.101254 0.274769
vt 0.101254 0.274769
vt 0.101471 0.254196
vt 0.101471 0.254196
vt 0.101254 0.274769
vt 0.101254 0.274769
vt 0.101254 0.274769
vt 0.101254 0.274769
vt 0.101254 0.274769
vt 0.101254 0.274769
vt 0.101254 0.274769
vt 0.101475 0.254196
vt 0.101475 0.254196
vt 0.101475 0.254196
vt 0.101475 0.254196
vt 0.101475 0.254196
vt 0.101471 0.254196
vt 0.101471 0.254196
vt 0.101475 0.254196
vt 0.101471 0.254196
vt 0.101471 0.254196
vt 0.101471 0.254196
vt 0.101471 0.254196
vt 0.101471 0.254196
vt 0.101471 0.254196
vt 0.101254 0.274769
vt 0.101254 0.274769
vt 0.101471 0.254196
vt 0.101471 0.254196
vt 0.101254 0.274769
vt 0.101254 0.274769
vt 0.101254 0.274769
vt 0.101254 0.274769
vt 0.101254 0.274769
vt 0.101254 0.274769
vt 0.101254 0.274769
vt 0.080078 0.228333
vt 0.101475 0.254196
vt 0.101475 0.254196
vt 0.101475 0.254196
vt 0.101475 0.254196
vt 0.101471 0.254196
vt 0.101471 0.254196
vt 0.101475 0.254196
vt 0.101471 0.254196
vt 0.101471 0.254196
vt 0.101471 0.254196
vt 0.101471 0.254196
vt 0.101471 0.254196
vt 0.101471 0.254196
vt 0.101254 0.274769
vt 0.101254 0.274769
vt 0.101471 0.254196
vt 0.101471 0.254196
vt 0.101254 0.274769
vt 0.101254 0.274769
vt 0.101254 0.274769
vt 0.101475 0.254196
vt 0.080078 0.228333
vt 0.080078 0.228333
vt 0.080078 0.228333
vt 0.101475 0.254196
vt 0.101254 0.274769
vt 0.080078 0.228333
vt 0.101471 0.254196
vt 0.101474 0.254196
vt 0.080078 0.228333
vt 0.101471 0.254196
vt 0.101254 0.274769
vt 0.101254 0.274769
vt 0.101254 0.274769
vt 0.101471 0.254196
vt 0.101254 0.274769
vt 0.080078 0.228333
vt 0.101471 0.254196
vt 0.101254 0.274769
vt 0.101532 0.232727
vt 0.101532 0.232727
vt 0.101532 0.232727
vt 0.101532 0.232727
vt 0.101532 0.232727
vt 0.101532 0.232727
vt 0.101532 0.232727
vt 0.101532 0.232727
vt 0.080078 0.228333
vt 0.101532 0.232727
vt 0.101532 0.232727
vt 0.101254 0.274769
vt 0.101471 0.254196
vt 0.101254 0.274769
vt 0.101475 0.254196
vt 0.101471 0.254196
vt 0.101254 0.274769
vt 0.101475 0.254196
vt 0.101254 0.274769
vt 0.101471 0.254196
vt 0.101254 0.274769
vt 0.101254 0.274769
vt 0.101471 0.254196
vn 0.000000 1.000000 -0.000000
vn 0.000000 1.000000 -0.000000
vn 0.000000 1.000000 -0.000000
vn 0.000000 1.000000 -0.000000
vn -0.156242 0.987713 0.003378
vn -0.156242 0.987713 0.003378
vn -0.156242 0.987713 0.003378
vn -0.156242 0.987713 0.003378
vn 0.007699 0.969461 0.245126
vn 0.007699 0.969461 0.245126
vn 0.007699 0.969461 0.245126
vn 0.007699 0.969461 0.245126
vn -0.188786 0.962506 -0.194789
vn -0.188786 0.962506 -0.194789
vn -0.188786 0.962506 -0.194789
vn 0.000550 0.991283 -0.131750
vn 0.000550 0.991283 -0.131750
vn 0.000550 0.991283 -0.131750
vn 0.000550 0.991283 -0.131750
vn -0.194879 0.980786 -0.009037
vn -0.194879 0.980786 -0.009037
vn -0.194879 0.980786 -0.009037
vn -0.194879 0.980786 -0.009037
vn 0.000000 1.000000 0.000000
vn 0.000000 1.000000 0.000000
vn 0.000000 1.000000 0.000000
vn 0.000000 1.000000 0.000000
vn 0.218787 0.975746 -0.007174
vn 0.218787 0.975746 -0.007174
vn 0.218787 0.975746 -0.007174
vn 0.218787 0.975746 -0.007174
vn -0.002659 0.977941 0.208865
vn -0.002659 0.977941 0.208865
vn -0.002659 0.977941 0.208865
vn -0.002659 0.977941 0.208865
vn 0.000000 1.000000 -0.000000
vn 0.000000 1.000000 -0.000000
vn 0.000000 1.000000 -0.000000
vn 0.000000 1.000000 -0.000000
vn 0.268369 0.711709 0.649190
vn 0.268369 0.711709 0.649190
vn 0.268369 0.711709 0.649190
vn 0.268369 0.711709 0.649190
vn -0.001346 0.995212 -0.097726
vn -0.001346 0.995212 -0.097726
vn -0.001346 0.995212 -0.097726
vn -0.001346 0.995212 -0.097726
vn 0.000000 1.000000 -0.000000
vn 0.000000 1.000000 -0.000000
vn 0.000000 1.000000 -0.000000
vn 0.000000 1.000000 -0.000000
vn -0.153121 0.988203 0.003028
vn -0.153121 0.988203 0.003028
vn -0.153121 0.988203 0.003028
vn -0.153121 0.988203 0.003028
vn -0.004402 0.993136 0.116885
vn -0.004402 0.993136 0.116885
vn -0.004402 0.993136 0.116885
vn -0.004402 0.993136 0.116885
vn 0.122570 0.992456 -0.002837
vn 0.122570 0.992456 -0.002837
vn 0.122570 0.992456 -0.002837
vn 0.122570 0.992456 -0.002837
vn 0.001368 0.982695 -0.185224
vn 0.001368 0.982695 -0.185224
vn 0.001368 0.982695 -0.185224
vn 0.001368 0.982695 -0.185224
vn -0.061546 0.997878 0.021264
vn -0.054907 0.998479 0.004910
vn -0.053184 0.998585 0.000673
vn -0.061546 0.997878 0.021264
vn 0.000000 1.000000 0.000000
vn 0.000000 1.000000 0.000000
vn 0.000000 1.000000 -0.000000
vn 0.000000 1.000000 -0.000000
vn 0.218787 0.975746 -0.007174
vn 0.218787 0.975746 -0.007174
vn 0.218787 0.975746 -0.007174
vn 0.218787 0.975746 -0.007174
vn -0.002659 0.977941 0.208864
vn -0.002659 0.977941 0.208864
vn -0.002659 0.977941 0.208864
vn -0.002659 0.977941 0.208864
vn 0.000000 1.000000 -0.000000
vn 0.000000 1.000000 0.000001
vn 0.000000 1.000000 -0.000000
vn 0.000000 1.000000 -0.000000
vn 0.000000 1.000000 -0.000000
vn 0.000000 1.000000 -0.000000
vn 0.000000 1.000000 -0.000000
vn 0.003014 0.990906 -0.134524
vn 0.003014 0.990906 -0.134524
vn 0.003014 0.990906 -0.134524
vn 0.003014 0.990906 -0.134524
vn -0.020383 0.999460 -0.025779
vn -0.020383 0.999460 -0.025779
vn -0.020383 0.999460 -0.025779
vn -0.020383 0.999460 -0.025779
vn -0.146800 0.989114 -0.010148
vn -0.146800 0.989114 -0.010148
vn -0.146800 0.989114 -0.010148
vn -0.146800 0.989114 -0.010148
vn 0.012814 0.739896 0.672599
vn 0.012814 0.739896 0.672599
vn 0.012814 0.739896 0.672599
vn 0.012814 0.739896 0.672599
vn 0.602462 0.798131 0.005202
vn 0.602462 0.798131 0.005202
vn 0.602462 0.798131 0.005202
vn 0.602462 0.798131 0.005202
vn -0.009145 0.992023 -0.125725
vn -0.009145 0.992023 -0.125725
vn -0.009145 0.992023 -0.125725
vn -0.009145 0.992023 -0.125725
vn -0.473317 0.880260 -0.033369
vn -0.473317 0.880260 -0.033369
vn -0.473317 0.880260 -0.033369
vn -0.473317 0.880260 -0.033369
vn -0.020383 0.999460 -0.025779
vn -0.020383 0.999460 -0.025779
vn -0.020383 0.999460 -0.025779
vn 0.272550 0.920668 0.279440
vn 0.560975 0.827831 0.001630
vn 0.561153 0.827711 0.001669
vn 0.561153 0.827711 0.001669
vn 0.037780 0.909401 0.414200
vn 0.037780 0.909401 0.414200
vn 0.037780 0.909401 0.414200
vn 0.037780 0.909401 0.414200
vn -0.019185 0.999708 -0.014709
vn -0.019185 0.999708 -0.014709
vn -0.017956 0.999496 -0.026183
vn -0.018179 0.999544 -0.024098
vn -0.020383 0.999460 -0.025779
vn -0.020383 0.999460 -0.025779
vn -0.020383 0.999460 -0.025779
vn -0.020383 0.999460 -0.025779
vn -0.014771 0.920401 -0.390697
vn -0.014771 0.920401 -0.390697
vn -0.014771 0.920401 -0.390697
vn -0.014771 0.920401 -0.390697
vn 0.250236 0.930186 0.268582
vn 0.250236 0.930186 0.268582
vn 0.250236 0.930186 0.268582
vn 0.280043 0.931401 -0.232525
vn 0.280043 0.931401 -0.232525
vn 0.280043 0.931401 -0.232525
vn -0.007334 0.994492 0.104558
vn -0.007334 0.994492 0.104558
vn -0.007334 0.994492 0.104558
vn -0.007334 0.994492 0.104558
vn 0.206361 0.978465 0.004622
vn 0.206361 0.978465 0.004622
vn 0.206361 0.978465 0.004622
vn 0.206361 0.978465 0.004622
vn -0.001471 0.999232 -0.039147
vn -0.001471 0.999232 -0.039147
vn -0.001471 0.999232 -0.039147
vn -0.074875 0.997171 0.006677
vn -0.074875 0.997171 0.006677
vn -0.074875 0.997171 0.006677
vn -0.074875 0.997171 0.006677
vn 0.000000 1.000000 0.000000
vn 0.000000 1.000000 0.000000
vn 0.000000 1.000000 0.000000
vn 0.000000 1.000000 0.000000
vn 0.066465 0.997781 0.003836
vn 0.063145 0.997953 0.010087
vn 0.063145 0.997953 0.010087
vn 0.063667 0.997930 0.009105
vn 0.003322 0.995401 0.095742
vn -0.003965 0.995966 0.089649
vn 0.084293 0.983039 0.162879
vn 0.000000 1.000000 0.000000
vn -0.000000 1.000000 0.000000
vn -0.000000 1.000000 -0.000000
vn 0.000000 1.000000 -0.000000
vn 0.000000 1.000000 -0.000000
vn 0.000000 1.000000 -0.000000
vn 0.000000 1.000000 -0.000000
vn -0.004039 0.975470 -0.220097
vn -0.004039 0.975470 -0.220097
vn -0.004039 0.975470 -0.220097
vn -0.004039 0.975470 -0.220097
vn -0.983162 0.032614 -0.179802
vn -0.983162 0.032614 -0.179802
vn -0.983162 0.032614 -0.179802
vn -0.246870 0.031616 -0.968533
vn -0.246870 0.031616 -0.968533
vn -0.246870 0.031616 -0.968533
vn -0.256585 0.961339 0.099960
vn -0.256585 0.961339 0.099960
vn -0.256585 0.961339 0.099960
vn -0.256585 0.961339 0.099960
vn 0.080092 0.902239 -0.423734
vn 0.080092 0.902239 -0.423734
vn 0.080092 0.902239 -0.423734
vn 0.080092 0.902239 -0.423734
vn 0.000000 1.000000 0.000000
vn 0.000000 1.000000 0.000000
vn 0.000000 1.000000 0.000000
vn 0.384659 0.899810 0.205863
vn 0.384659 0.899810 0.205863
vn 0.384659 0.899810 0.205863
vn 0.000000 1.000000 0.000000
vn 0.000000 1.000000 0.000000
vn 0.000000 1.000000 0.000000
vn 0.352761 0.816169 0.457633
vn 0.352761 0.816169 0.457633
vn 0.352761 0.816169 0.457632
vn 0.352761 0.816169 0.457632
vn 0.586896 0.725520 0.359409
vn 0.586895 0.725520 0.359409
vn 0.586896 0.725520 0.359409
vn -0.025620 0.995392 0.092402
vn -0.025620 0.995392 0.092402
vn -0.025620 0.995392 0.092402
vn 0.008938 0.999440 -0.032235
vn 0.008938 0.999440 -0.032235
vn 0.008938 0.999440 -0.032235
vn -0.107089 0.951457 -0.288551
vn -0.107089 0.951457 -0.288551
vn -0.107089 0.951457 -0.288551
vn -0.025980 0.985399 -0.168268
vn -0.025980 0.985399 -0.168268
vn -0.025980 0.985399 -0.168268
vn -0.025980 0.985399 -0.168268
vn 0.026898 0.989932 0.138963
vn 0.026898 0.989932 0.138963
vn 0.026898 0.989932 0.138963
vn 0.201200 0.970557 0.132433
vn 0.201200 0.970557 0.132433
vn 0.201200 0.970557 0.132433
vn 0.201200 0.970557 0.132433
vn 0.636800 0.761408 0.121426
vn 0.636800 0.761408 0.121426
vn 0.636800 0.761408 0.121426
vn -0.141987 0.856165 -0.496811
vn -0.141987 0.856165 -0.496811
vn -0.141987 0.856165 -0.496811
vn -0.141987 0.856165 -0.496811
vn -0.104931 0.914558 -0.390607
vn -0.104931 0.914558 -0.390607
vn -0.104931 0.914558 -0.390607
vn -0.104931 0.914558 -0.390607
vn -0.569367 0.738940 -0.360264
vn -0.569367 0.738940 -0.360264
vn -0.569367 0.738940 -0.360264
vn -0.138621 0.990127 0.020793
vn -0.138621 0.990127 0.020793
vn -0.138621 0.990127 0.020793
vn -0.138621 0.990127 0.020793
vn 0.639916 0.578050 0.506325
vn 0.639916 0.578051 0.506325
vn 0.639916 0.578050 0.506325
vn -0.593504 0.669312 -0.446962
vn -0.593504 0.669312 -0.446962
vn -0.593504 0.669312 -0.446962
vn -0.007324 0.982367 0.186820
vn -0.007324 0.982367 0.186820
vn -0.007324 0.982367 0.186820
vn 0.000000 1.000000 -0.000000
vn 0.000000 1.000000 -0.000000
vn 0.000000 1.000000 0.000000
vn -0.020383 0.999460 -0.025779
vn -0.020383 0.999460 -0.025779
vn -0.020383 0.999460 -0.025779
vn -0.020383 0.999460 -0.025779
vn -0.018179 0.999544 -0.024098
vn -0.017956 0.999496 -0.026183
vn -0.014576 0.998233 -0.057603
vn -0.014576 0.998233 -0.057603
vn -0.017956 0.999496 -0.026183
vn -0.014576 0.998233 -0.057603
vn 0.560975 0.827831 0.001630
vn 0.272550 0.920668 0.279440
vn 0.262708 0.921169 0.287112
vn 0.262708 0.921169 0.287112
vn 0.272550 0.920668 0.279440
vn -0.014004 0.875040 0.483848
vn -0.053184 0.998585 0.000673
vn -0.054907 0.998479 0.004910
vn -0.049109 0.998750 -0.009338
vn -0.049109 0.998750 -0.009338
vn 0.000000 1.000000 -0.000000
vn 0.000000 1.000000 -0.000000
vn 0.000000 1.000000 -0.000000
vn 0.000000 1.000000 -0.000000
vn 0.000000 1.000000 -0.000000
vn 0.000000 1.000000 -0.000000
vn 0.000000 1.000000 -0.000000
vn 0.000000 1.000000 -0.000000
vn -0.000000 1.000000 -0.000000
vn -0.000000 1.000000 0.000000
vn -0.000000 1.000000 0.000000
vn -0.000000 1.000000 0.000000
vn 0.066465 0.997781 0.003836
vn 0.063667 0.997930 0.009105
vn 0.075145 0.997094 -0.012537
vn 0.003322 0.995401 0.095742
vn -0.004701 0.996018 0.089033
vn -0.004701 0.996018 0.089033
vn -0.003965 0.995966 0.089649
vn -0.000000 1.000000 -0.000000
vn -0.000000 1.000000 0.000000
vn -0.000000 1.000000 -0.000000
s off
f 5/5/1 10/10/2 15/15/3 16/16/4
f 1/1/5 9/2/6 10/3/7 5/4/8
f 2/9/9 13/12/10 14/13/11 6/17/12
f 8/20/13 61/108/14 3/19/15
f 17/22/16 1/1/17 5/4/18 16/23/19
f 9/2/20 2/9/21 6/17/22 10/3/23
f 15/15/24 10/10/25 6/6/26 14/14/27
f 4/24/28 12/18/29 11/21/30 7/25/31
f 13/12/32 4/24/33 7/25/34 14/13/35
f 11/11/36 64/113/37 14/14/38 7/7/39
f 63/120/40 65/121/41 71/130/42 69/127/43
f 3/19/44 17/22/45 16/23/46 8/20/47
f 21/26/48 26/27/49 31/28/50 32/29/51
f 18/30/52 25/31/53 26/32/54 21/33/55
f 22/37/56 62/109/57 29/35/58 30/36/59
f 28/38/60 19/39/61 24/40/62 27/41/63
f 33/42/64 18/30/65 21/33/66 32/43/67
f 25/31/68 74/134/69 75/137/70 26/32/71
f 31/28/72 26/27/73 75/136/74 76/138/75
f 20/46/76 28/38/77 27/41/78 23/47/79
f 29/35/80 20/46/81 23/47/82 30/36/83
f 27/48/84 31/28/85 76/138/86
f 32/29/87 31/28/88 27/48/89 24/50/90
f 19/39/91 33/42/92 32/43/93 24/40/94
f 35/51/95 40/52/96 43/53/97 44/54/98
f 34/55/99 39/56/100 40/57/101 35/58/102
f 1/59/103 17/60/104 42/61/105 36/62/106
f 25/63/107 18/64/108 38/65/109 41/66/110
f 45/67/111 34/55/112 35/58/113 44/68/114
f 39/56/115 1/59/116 36/62/117 40/57/118
f 43/53/119 40/52/120 72/131/121
f 73/132/122 74/135/123 25/63/124 41/66/125
f 17/60/126 3/71/127 37/72/128 42/61/129
f 41/73/130 43/53/131 72/131/132 73/133/133
f 44/54/134 43/53/135 41/73/136 38/75/137
f 18/64/138 45/67/139 44/68/140 38/65/141
f 47/76/142 60/106/143 57/79/144
f 3/80/145 61/107/146 58/103/147
f 4/84/148 54/85/149 55/86/150 48/87/151
f 53/88/152 20/89/153 50/90/154 52/91/155
f 29/104/156 62/110/157 58/103/158
f 12/81/159 4/84/160 48/87/161 51/82/162
f 56/78/163 51/77/164 48/94/165 55/95/166
f 46/96/167 53/88/168 52/91/169 77/139/170
f 54/85/171 78/142/172 55/86/173
f 52/98/174 56/78/175 77/140/176
f 57/79/177 56/78/178 52/98/179 50/100/180
f 20/89/181 29/92/182 57/93/183 50/90/184
f 58/101/185 12/81/186 59/105/187
f 29/92/188 58/101/189 59/105/190
f 59/105/191 12/81/192 51/82/193 47/83/194
f 29/92/195 59/105/196 47/83/197 57/93/198
f 57/79/199 60/106/200 56/78/201
f 47/76/202 51/77/203 60/106/204
f 56/78/205 60/106/206 51/77/207
f 69/127/208 70/129/209 61/126/210 63/120/211
f 58/103/212 61/107/213 70/128/214
f 3/34/215 62/109/216 22/37/217
f 58/103/218 62/110/219 3/80/220
f 63/111/221 61/108/222 8/20/223
f 16/16/224 65/114/225 63/112/226 8/8/227
f 66/116/228 68/119/229 11/11/230
f 12/18/231 67/118/232 66/115/233 11/21/234
f 58/103/235 67/117/236 12/102/237
f 69/127/238 71/130/239 68/123/240 66/124/241
f 66/124/242 67/125/243 70/129/244 69/127/245
f 58/103/246 70/128/247 67/117/248
f 16/16/249 15/15/250 64/113/251 65/114/252
f 71/130/253 65/121/254 64/122/255
f 68/123/256 71/130/257 64/122/258
f 11/11/259 68/119/260 64/113/261
f 14/14/262 64/113/263 15/15/264
f 72/131/265 40/52/266 36/69/267 42/70/268
f 73/133/269 72/131/270 37/74/271
f 37/74/272 72/131/273 42/70/274
f 74/135/275 73/132/276 3/71/277
f 3/71/278 73/132/279 37/72/280
f 75/137/281 74/134/282 3/34/283 22/37/284
f 76/138/285 75/136/286 22/44/287 30/45/288
f 27/48/289 76/138/290 30/45/291 23/49/292
f 77/140/293 56/78/294 55/95/295 78/141/296
f 46/96/297 77/139/298 49/97/299
f 54/85/300 46/96/301 49/97/302 78/142/303
f 77/140/304 78/141/305 49/99/306
