# This file uses centimeters as units for non-parametric coordinates.

v 0.000000 0.000000 0.000019
v 118.270874 0.000000 0.000019
v 15.237053 16.509319 0.000019
v 103.034210 16.509319 0.000019
v 15.237053 16.509319 -499.999207
v 103.034210 16.509319 -499.999207
v 0.000000 0.000000 -499.999207
v 118.270874 0.000000 -499.999207
v 21.758080 16.509319 0.000019
v 96.513184 16.509319 0.000019
v 96.513184 16.509319 -499.999207
v 21.758080 16.509319 -499.999207
v 24.565126 13.279617 0.000019
v 93.705750 13.279617 0.000019
v 93.706512 13.279618 -499.999207
v 24.565126 13.279618 -499.999207
v 6.304432 3.197405 -130.673111
v 21.540895 19.706722 -130.673065
v 28.061932 19.706722 -130.673065
v 30.868786 16.477022 -130.673065
v 87.834610 16.477022 -147.281494
v 90.641846 19.706722 -147.281494
v 97.162689 19.706722 -147.281494
v 112.399925 3.197405 -147.281540
v -5.060507 3.197405 -431.562561
v 10.175964 19.706722 -431.562500
v 16.697001 19.706722 -431.562500
v 19.503855 16.477022 -431.562500
v 101.296104 16.477022 -302.538757
v 104.103333 19.706722 -302.538757
v 110.624176 19.706722 -302.538757
v 125.861420 3.197405 -302.538788
v 125.573547 3.197405 -311.287384
v 120.988960 3.197405 -246.342590
v 13.474629 19.706722 -468.246765
v 15.858430 19.706722 -281.117767
v 20.337400 19.706722 -472.048462
v 23.384211 19.706722 -254.516724
v 4.006512 3.197405 -191.510773
v 17.926311 15.790172 -130.673080
v 3.847667 3.197405 -69.069458
v 11.251093 10.626859 -181.240601
v 11.767611 11.469392 -76.232750
v 121.898521 3.197405 -397.249084
v 105.740425 19.706722 -450.964172
v 105.295944 19.706722 -464.472809
v 120.093323 3.197405 -477.835724
v 120.412758 3.197405 -468.127991
v 121.509827 3.197405 -434.787201
v 110.787537 14.027709 -456.868347
v 78.597351 17.390020 0.000019
v 68.914597 16.477022 -137.382751
v 60.086128 16.477022 -364.147552
v 78.597351 17.390020 -499.999207
v 39.673523 17.390020 -499.999207
v 44.599442 16.477022 -385.526917
v 60.879875 16.477022 -134.573257
v 39.673527 17.390020 0.000019
vt 0.384408 0.419678
vt 0.384408 0.419678
vt 0.384408 0.419678
vt 0.384408 0.419678
vt 0.384408 0.419678
vt 0.384408 0.419678
vt 0.384408 0.419678
vt 0.384408 0.419678
vt 0.384408 0.419678
vt 0.384408 0.419678
vt 0.384408 0.419678
vt 0.384408 0.419678
vt 0.384408 0.419678
vt 0.384408 0.419678
vt 0.382992 0.419678
vt 0.382992 0.419678
vt 0.382992 0.419678
vt 0.382992 0.419678
vt 0.069580 0.220947
vt 0.069580 0.220947
vt 0.069580 0.220947
vt 0.069580 0.220947
vt 0.384408 0.393651
vt 0.384408 0.419678
vt 0.384408 0.419678
vt 0.384408 0.419678
vt 0.382992 0.419678
vt 0.069580 0.220947
vt 0.069580 0.220947
vt 0.382992 0.419678
vt 0.384408 0.419678
vt 0.384408 0.395436
vt 0.384408 0.395436
vt 0.384408 0.419678
vt 0.384408 0.419678
vt 0.384408 0.401683
vt 0.384408 0.401683
vt 0.384408 0.396923
vt 0.382992 0.419678
vt 0.069580 0.220947
vt 0.069580 0.220947
vt 0.382992 0.419678
vt 0.384408 0.419678
vt 0.384408 0.419678
vt 0.384408 0.419678
vt 0.384111 0.394544
vt 0.384408 0.419678
vt 0.384408 0.419678
vt 0.384408 0.411329
vt 0.384408 0.411329
vt 0.384408 0.410680
vt 0.384408 0.410680
vt 0.384408 0.410385
vt 0.384408 0.410313
vt 0.384408 0.419678
vt 0.384408 0.419678
vt 0.384408 0.419678
vt 0.384408 0.418317
vt 0.384408 0.419678
vt 0.384408 0.419678
vt 0.384408 0.419678
vt 0.384408 0.419678
vt 0.384408 0.419678
vt 0.384408 0.419678
vt 0.384408 0.419678
vt 0.384408 0.396031
vt 0.384408 0.396031
vt 0.384408 0.396031
vt 0.069580 0.261723
vt 0.069580 0.261723
vt 0.069580 0.261723
vt 0.069580 0.261723
vt 0.069580 0.261723
vt 0.069580 0.261723
vt 0.069580 0.261723
vt 0.069580 0.261723
vn -0.002806 0.999971 0.007142
vn -0.002806 0.999971 0.007142
vn -0.002806 0.999971 0.007142
vn -0.002806 0.999971 0.007142
vn 0.734769 0.678151 0.014996
vn 0.734780 0.678161 0.013995
vn 0.734639 0.678028 -0.024173
vn -0.733268 0.676735 -0.065936
vn -0.734825 0.678172 0.010692
vn -0.734830 0.678177 0.010058
vn 0.000000 1.000000 -0.000000
vn -0.316341 0.948643 -0.002330
vn -0.316341 0.948643 -0.002330
vn 0.000000 1.000000 0.000000
vn 0.000000 1.000000 -0.000000
vn -0.030697 0.993669 -0.108069
vn -0.030697 0.993669 -0.108069
vn 0.000000 1.000000 -0.000000
vn -0.754655 0.655942 -0.015386
vn -0.754666 0.655951 -0.014391
vn -0.754512 0.655817 0.024826
vn -0.754512 0.655817 0.024826
vn 0.753045 0.654475 0.067713
vn 0.889186 0.456593 0.029504
vn 0.754746 0.655935 -0.010340
vn 0.753045 0.654475 0.067713
vn -0.734827 0.678174 0.010489
vn -0.702202 0.711741 -0.018368
vn -0.702202 0.711741 -0.018368
vn -0.734550 0.677922 -0.029293
vn 0.000000 1.000000 0.000000
vn 0.000000 1.000000 0.000000
vn 0.000000 1.000000 0.000000
vn 0.000000 1.000000 0.000000
vn 0.754741 0.655934 -0.010773
vn 0.754742 0.655934 -0.010751
vn 0.754436 0.655684 0.030086
vn 0.754436 0.655684 0.030086
vn -0.000403 0.999977 -0.006731
vn -0.000403 0.999977 -0.006731
vn -0.000403 0.999977 -0.006731
vn -0.000403 0.999977 -0.006731
vn -0.754264 0.655602 0.035666
vn -0.754640 0.655929 -0.016608
vn -0.754650 0.655937 -0.015781
vn -0.754264 0.655602 0.035666
vn 0.000000 1.000000 0.000000
vn 0.000000 1.000000 -0.000000
vn 0.000000 1.000000 -0.000000
vn 0.000000 1.000000 0.000000
vn 0.734410 0.677818 -0.034727
vn 0.734756 0.678139 0.016184
vn 0.734765 0.678148 0.015351
vn 0.734410 0.677818 -0.034727
vn -0.734585 0.677949 0.027746
vn -0.734585 0.677949 0.027746
vn -0.734585 0.677949 0.027746
vn -0.734827 0.678174 0.010489
vn 0.000000 1.000000 -0.000000
vn 0.000000 1.000000 -0.000000
vn 0.000000 1.000000 0.000000
vn 0.000000 1.000000 0.000000
vn 0.754746 0.655935 -0.010340
vn 0.754741 0.655931 -0.010971
vn 0.754482 0.655702 -0.028498
vn 0.000000 1.000000 0.000000
vn 0.000000 1.000000 0.000000
vn 0.000000 1.000000 0.000000
vn 0.000000 1.000000 0.000000
vn -0.754650 0.655937 -0.015781
vn -0.754640 0.655929 -0.016608
vn -0.754666 0.655951 -0.014391
vn -0.754655 0.655942 -0.015386
vn 0.000000 1.000000 -0.000000
vn 0.000000 1.000000 -0.000000
vn 0.000000 1.000000 -0.000000
vn 0.000000 1.000000 -0.000000
vn 0.734765 0.678148 0.015351
vn 0.734756 0.678139 0.016184
vn 0.733364 0.676856 0.063586
vn 0.734769 0.678151 0.014996
vn 0.734769 0.678151 0.014996
vn 0.745834 0.665575 -0.027235
vn 0.745834 0.665575 -0.027235
vn 0.745834 0.665575 -0.027235
vn 0.734769 0.678151 0.014996
vn 0.733364 0.676857 0.063586
vn 0.734780 0.678161 0.013995
vn -0.733266 0.676737 -0.065935
vn -0.734825 0.678172 0.010692
vn -0.745822 0.659637 -0.092894
vn -0.733266 0.676737 -0.065935
vn -0.734830 0.678177 0.010058
vn -0.734825 0.678172 0.010692
vn -0.734585 0.677949 0.027746
vn 0.000000 1.000000 -0.000000
vn 0.000000 1.000000 -0.000000
vn 0.000000 1.000000 -0.000000
vn 0.000000 1.000000 -0.000000
vn 0.754746 0.655935 -0.010340
vn 0.753055 0.654464 0.067713
vn 0.754741 0.655931 -0.010971
vn 0.000000 1.000000 -0.000000
vn 0.000000 1.000000 -0.000000
vn 0.000000 1.000000 0.000000
vn 0.000000 1.000000 0.000000
vn 0.754746 0.655935 -0.010340
vn 0.754481 0.655703 -0.028498
vn 0.754742 0.655934 -0.010751
vn 0.754741 0.655934 -0.010773
vn -0.734550 0.677922 -0.029293
vn -0.732124 0.681089 -0.010542
vn -0.732124 0.681089 -0.010542
vn -0.734550 0.677922 -0.029293
vn -0.734585 0.677949 0.027746
vn -0.734825 0.678172 0.010692
vn -0.734585 0.677949 0.027746
vn -0.734585 0.677949 0.027746
vn -0.734585 0.677949 0.027746
vn -0.734585 0.677949 0.027746
vn -0.734585 0.677949 0.027746
vn -0.734827 0.678174 0.010467
vn -0.734552 0.677920 -0.029294
vn -0.734552 0.677920 -0.029294
vn -0.734552 0.677920 -0.029294
vn -0.734827 0.678174 0.010467
vn 0.707591 0.695089 -0.127144
vn 0.707591 0.695089 -0.127144
vn 0.734638 0.678028 -0.024173
vn 0.734638 0.678028 -0.024173
vn 0.734640 0.678027 -0.024172
vn 0.734640 0.678027 -0.024172
vn 0.734640 0.678027 -0.024172
vn 0.728630 0.684813 -0.011390
vn 0.728630 0.684813 -0.011390
vn 0.728630 0.684813 -0.011390
vn 0.728630 0.684813 -0.011390
vn 0.734639 0.678027 -0.024173
vn 0.734639 0.678027 -0.024173
vn 0.734639 0.678027 -0.024173
vn 0.734641 0.678026 -0.024173
vn 0.734640 0.678026 -0.024173
vn 0.734640 0.678026 -0.024173
vn 0.734641 0.678026 -0.024173
vn 0.000000 1.000000 0.000000
vn 0.000000 0.995974 -0.089638
vn 0.000000 1.000000 0.000000
vn 0.000000 1.000000 -0.000000
vn 0.000000 1.000000 -0.000000
vn 0.000000 1.000000 -0.000000
vn 0.120321 0.992734 0.001392
vn 0.120321 0.992734 0.001392
vn 0.000000 1.000000 -0.000000
vn 0.000000 1.000000 -0.000000
vn 0.000000 1.000000 0.000000
vn 0.000000 1.000000 0.000000
vn 0.000000 1.000000 -0.000000
vn 0.000000 1.000000 0.000000
vn 0.077462 0.996986 -0.004295
vn 0.077462 0.996986 -0.004295
vn 0.000000 1.000000 0.000000
vn 0.000000 1.000000 0.000000
vn 0.000000 1.000000 0.000000
vn -0.087519 0.996084 -0.012505
vn -0.087519 0.996084 -0.012505
vn 0.000000 1.000000 0.000000
vn 0.000000 1.000000 -0.000000
vn 0.000000 1.000000 0.000000
vn 0.000000 1.000000 0.000000
vn 0.000000 1.000000 0.000000
vn 0.000000 1.000000 -0.000000
vn -0.090797 0.995869 -0.000840
vn -0.090797 0.995869 -0.000840
vn 0.000000 1.000000 -0.000000
s off
f 55/73/1 56/74/2 53/71/3 54/72/4
f 31/45/5 32/46/6 33/47/7
f 35/49/8 25/35/9 26/36/10
f 30/43/11 45/62/12 46/64/13 11/13/14
f 5/5/15 35/50/16 37/53/17 12/14/18
f 29/42/19 30/43/20 11/13/21 15/17/22
f 12/14/23 37/53/24 28/39/25 16/18/26
f 18/24/27 40/56/28 43/59/29 3/3/30
f 19/26/31 18/25/32 3/3/33 9/11/34
f 20/27/35 19/26/36 9/11/37 13/15/38
f 57/75/39 58/76/40 51/69/41 52/70/42
f 10/12/43 22/31/44 21/30/45 14/16/46
f 4/4/47 23/32/48 22/31/49 10/12/50
f 2/2/51 24/34/52 23/33/53 4/4/54
f 36/51/55 42/58/56 40/56/57 18/24/58
f 27/38/59 26/37/60 36/52/61 38/54/62
f 28/39/63 27/38/64 38/54/65
f 56/74/66 57/75/67 52/70/68 53/71/69
f 21/30/70 22/31/71 30/43/72 29/42/73
f 22/31/74 23/32/75 31/44/76 30/43/77
f 23/33/78 24/34/79 34/48/80 31/45/81
f 31/45/82 33/47/83 44/60/84 45/61/85
f 31/45/86 34/48/87 32/46/88
f 7/9/89 25/35/90 35/49/91 5/10/92
f 26/36/93 25/35/94 36/51/95
f 37/53/96 35/50/97 26/37/98 27/38/99
f 28/39/100 37/53/101 27/38/102
f 38/54/103 36/52/104 18/25/105 19/26/106
f 28/39/107 38/54/108 19/26/109 20/27/110
f 3/3/111 43/59/112 41/57/113 1/1/114
f 36/51/115 25/35/116 39/55/117 42/58/118
f 40/56/119 42/58/120 39/55/121 17/23/122
f 41/57/123 43/59/124 40/56/125 17/23/126
f 46/63/127 47/65/128 8/7/129 6/8/130
f 45/61/131 50/68/132 46/63/133
f 45/61/134 44/60/135 49/67/136 50/68/137
f 50/68/138 49/67/139 48/66/140
f 46/63/141 50/68/142 48/66/143 47/65/144
f 11/13/145 46/64/146 6/6/147
f 30/43/148 31/44/149 45/62/150
f 52/70/151 51/69/152 14/20/153 21/29/154
f 53/71/155 52/70/156 21/29/157 29/41/158
f 54/72/159 53/71/160 29/41/161 15/21/162
f 28/40/163 56/74/164 55/73/165 16/22/166
f 20/28/167 57/75/168 56/74/169 28/40/170
f 13/19/171 58/76/172 57/75/173 20/28/174
