# This file uses centimeters as units for non-parametric coordinates.

v 118.270874 0.000000 -249.999985
v 0.000000 0.000000 -249.999985
v 103.034210 16.509319 -238.669586
v 15.237049 16.509319 -238.669586
v 103.034210 16.509319 0.000018
v 15.237049 16.509319 0.000018
v 118.270874 0.000000 0.000018
v 0.000000 0.000000 0.000018
v 96.513176 16.509319 -233.403000
v 21.758078 16.509319 -233.403000
v 21.758078 16.509319 0.000018
v 96.513176 16.509319 0.000018
v 93.706512 13.279617 -230.010193
v 24.565125 13.279617 -230.010193
v 24.565125 13.279617 0.000018
v 93.706512 13.279617 0.000018
v 71.917152 13.279617 -250.215134
v 72.954750 16.509319 -255.593857
v 75.366020 16.509319 -263.943451
v 80.999184 0.000000 -281.904602
v 37.271881 0.000000 -281.904602
v 42.905426 16.509319 -263.943451
v 45.316315 16.509319 -255.593857
v 46.354103 13.279617 -250.215134
v 39.673523 17.390020 0.000018
v 78.597351 17.390020 0.000018
v 77.037430 12.704652 -211.233322
v 36.244404 20.276346 -209.832306
v 24.565125 13.279617 -93.998032
v 93.706512 13.279617 -109.244873
v 0.000000 0.000000 -88.878067
v 15.237049 16.509319 -91.868767
v 118.270874 0.000000 -114.958794
v 103.034210 16.509319 -111.229576
v 21.758078 16.509319 -93.306763
v 96.513176 16.509319 -109.791550
v 70.761383 15.672348 -112.516960
v 46.500080 15.612629 -96.668152
v 0.000000 0.000000 -124.260437
v 10.415079 11.284732 -90.922318
v 0.000000 0.000000 -48.239498
v 12.157980 13.173151 -240.959198
v 0.000000 0.000000 -183.537567
v 103.034210 16.509319 -36.729557
v 103.034210 16.509319 -160.980255
v 111.916992 6.884593 -156.563766
v 113.599937 5.061084 -54.097336
v 96.513176 16.509319 -161.157654
v 96.513176 16.509319 -36.211903
v 93.706512 13.279617 -37.802708
v 93.706512 13.279617 -159.628052
v 77.919823 9.024770 -272.086212
v 69.605827 17.463381 -229.246887
v 53.561745 16.320585 -226.978622
vt 0.385189 0.425943
vt 0.385189 0.394463
vt 0.385189 0.425943
vt 0.385189 0.425943
vt 0.385189 0.425943
vt 0.385189 0.425943
vt 0.385189 0.425943
vt 0.385189 0.425943
vt 0.385189 0.425943
vt 0.385189 0.425943
vt 0.385189 0.425943
vt 0.385189 0.425943
vt 0.385189 0.425943
vt 0.385189 0.425943
vt 0.385189 0.425943
vt 0.385189 0.425943
vt 0.385189 0.425943
vt 0.385189 0.425943
vt 0.069483 0.225546
vt 0.069483 0.225546
vt 0.069483 0.225546
vt 0.069483 0.225546
vt 0.385112 0.425719
vt 0.385112 0.395179
vt 0.385112 0.425719
vt 0.385112 0.425719
vt 0.385112 0.425719
vt 0.385112 0.425719
vt 0.385112 0.425719
vt 0.385112 0.425719
vt 0.385112 0.425719
vt 0.385112 0.425719
vt 0.385112 0.425719
vt 0.385112 0.425719
vt 0.069483 0.225547
vt 0.069483 0.225547
vt 0.069483 0.225547
vt 0.385112 0.394240
vt 0.385112 0.425719
vt 0.385112 0.425719
vt 0.385112 0.425719
vt 0.069538 0.257072
vt 0.069538 0.257072
vt 0.069538 0.257072
vt 0.069538 0.257072
vt 0.069483 0.225546
vt 0.385189 0.425943
vt 0.069483 0.225546
vt 0.385189 0.425943
vt 0.385200 0.396656
vt 0.385189 0.425943
vt 0.385189 0.425943
vt 0.385189 0.425943
vt 0.385189 0.395247
vt 0.385189 0.395247
vt 0.385189 0.425943
vt 0.385189 0.395247
vt 0.069538 0.257072
vt 0.069538 0.257072
vt 0.385189 0.425943
vt 0.385189 0.425943
vt 0.385189 0.425943
vt 0.385189 0.412534
vt 0.385112 0.412310
vt 0.385189 0.411103
vt 0.385189 0.425943
vt 0.385189 0.425943
vt 0.385189 0.425943
vt 0.385189 0.425943
vt 0.385189 0.425943
vt 0.385189 0.425943
vt 0.385189 0.425943
vt 0.385189 0.425943
vt 0.069483 0.225546
vt 0.385189 0.425943
vt 0.069483 0.225546
vt 0.385189 0.425943
vt 0.385112 0.425719
vt 0.069510 0.241309
vt 0.069509 0.240488
vn 0.000000 1.000000 0.000000
vn -0.034472 0.999406 0.000000
vn -0.034472 0.999406 0.000000
vn -0.734855 0.678224 0.000000
vn -0.734855 0.678224 -0.000000
vn -0.734855 0.678224 0.000000
vn -0.734855 0.678224 -0.000000
vn 0.734863 0.678216 0.000000
vn 0.734863 0.678216 0.000000
vn 0.734863 0.678216 0.000000
vn 0.000000 1.000000 0.000000
vn 0.000000 1.000000 0.000000
vn 0.000000 1.000000 0.000000
vn 0.000000 1.000000 0.000000
vn 0.000000 1.000000 0.000000
vn 0.000000 1.000000 0.000000
vn 0.000000 1.000000 0.000000
vn 0.000000 1.000000 0.000000
vn 0.754767 0.655994 0.000000
vn 0.754766 0.655994 0.000000
vn 0.754766 0.655994 0.000000
vn 0.754767 0.655994 0.000000
vn -0.754811 0.655943 0.000000
vn -0.754810 0.655943 0.000000
vn -0.754810 0.655943 0.000000
vn -0.754811 0.655943 0.000000
vn 0.251141 0.757308 -0.602838
vn -0.000001 0.736236 -0.676725
vn -0.238760 0.757500 -0.607608
vn -0.251137 0.757310 -0.602836
vn 0.000000 1.000000 -0.000000
vn 0.000000 1.000000 -0.000000
vn 0.000000 1.000000 0.000000
vn 0.000000 1.000000 0.000000
vn -0.222711 0.851094 0.475437
vn -0.180474 0.855711 0.484962
vn 0.180477 0.855715 0.484954
vn 0.222705 0.851099 0.475428
vn -0.397247 0.813418 0.424907
vn -0.180474 0.855711 0.484962
vn -0.222711 0.851094 0.475437
vn -0.397247 0.813418 0.424907
vn 0.000000 1.000000 -0.000000
vn 0.000000 1.000000 -0.000000
vn 0.000000 1.000000 -0.000000
vn 0.000000 1.000000 -0.000000
vn 0.448192 0.734856 -0.509029
vn 0.447857 0.739699 -0.502264
vn 0.251141 0.757308 -0.602838
vn 0.448192 0.734856 -0.509029
vn -0.238760 0.757500 -0.607608
vn -0.448187 0.734861 -0.509027
vn -0.251137 0.757310 -0.602836
vn 0.000000 1.000000 0.000000
vn 0.000000 1.000000 0.000000
vn 0.000000 1.000000 0.000000
vn 0.000000 1.000000 0.000000
vn 0.397239 0.813430 0.424893
vn 0.397239 0.813430 0.424893
vn 0.222705 0.851099 0.475428
vn 0.180477 0.855715 0.484954
vn -0.005129 0.999848 -0.016681
vn 0.078376 0.996923 -0.001259
vn 0.036133 0.999306 -0.009075
vn -0.005129 0.999848 -0.016681
vn 0.000000 1.000000 0.000000
vn 0.170789 0.985276 -0.007901
vn 0.170789 0.985276 -0.007901
vn 0.000000 1.000000 0.000000
vn -0.172423 0.984903 -0.015355
vn -0.139780 0.990082 0.014105
vn -0.146410 0.989190 0.008144
vn 0.000000 1.000000 0.000000
vn 0.000000 1.000000 0.000000
vn -0.082708 0.978256 -0.190198
vn -0.082708 0.978256 -0.190198
vn 0.000000 1.000000 0.000000
vn 0.115740 0.991745 0.055191
vn 0.115740 0.991745 0.055191
vn 0.115740 0.991745 0.055191
vn 0.115740 0.991745 0.055191
vn 0.210489 0.977345 -0.022140
vn 0.210489 0.977345 -0.022140
vn 0.210489 0.977346 -0.022140
vn 0.000000 1.000000 0.000000
vn -0.734855 0.678224 -0.000000
vn -0.734855 0.678224 0.000000
vn -0.734855 0.678224 0.000000
vn -0.734855 0.678224 0.000000
vn -0.734855 0.678224 0.000000
vn 0.734864 0.678215 0.000000
vn 0.734864 0.678215 0.000000
vn 0.734864 0.678215 0.000000
vn 0.000000 1.000000 0.000000
vn 0.000000 1.000000 0.000000
vn 0.000000 1.000000 0.000000
vn 0.000000 1.000000 0.000000
vn 0.000000 1.000000 0.000000
vn 0.000000 1.000000 0.000000
vn 0.000000 1.000000 0.000000
vn 0.000000 1.000000 0.000000
vn 0.754766 0.655994 0.000000
vn 0.754766 0.655994 0.000000
vn 0.754767 0.655994 0.000000
vn 0.754767 0.655994 0.000000
vn -0.754810 0.655943 0.000000
vn -0.754810 0.655943 0.000000
vn -0.754811 0.655943 0.000000
vn -0.754811 0.655943 0.000000
vn 0.036133 0.999306 -0.009075
vn 0.078376 0.996923 -0.001259
vn 0.116217 0.993207 0.005767
vn 0.116217 0.993207 0.005767
vn -0.513910 0.857844 0.000000
vn -0.513910 0.857844 0.000000
vn 0.000000 1.000000 0.000000
vn -0.734855 0.678224 0.000000
vn -0.734855 0.678224 0.000000
vn -0.734855 0.678224 0.000000
vn -0.734855 0.678224 0.000000
vn -0.734855 0.678224 0.000000
vn -0.734855 0.678224 0.000000
vn -0.734855 0.678224 -0.000000
vn -0.734855 0.678224 -0.000000
vn -0.734855 0.678224 -0.000000
vn -0.734855 0.678224 0.000000
vn -0.448187 0.734861 -0.509027
vn -0.432769 0.746396 -0.505574
vn -0.238760 0.757500 -0.607608
vn -0.734855 0.678224 0.000000
vn -0.734855 0.678224 0.000000
vn -0.734855 0.678224 0.000000
vn -0.238760 0.757500 -0.607608
vn -0.432774 0.746393 -0.505573
vn -0.448187 0.734861 -0.509027
vn 0.000000 1.000000 0.000000
vn 0.000000 1.000000 0.000000
vn 0.000000 1.000000 0.000000
vn 0.000000 1.000000 0.000000
vn 0.734864 0.678215 -0.000000
vn 0.734864 0.678215 -0.000000
vn 0.734864 0.678215 -0.000000
vn 0.734864 0.678215 -0.000000
vn 0.734864 0.678215 -0.000000
vn 0.734863 0.678215 -0.000000
vn 0.734864 0.678215 0.000000
vn 0.734863 0.678216 0.000000
vn 0.734863 0.678216 0.000000
vn 0.734864 0.678215 0.000000
vn 0.734864 0.678215 0.000000
vn 0.734864 0.678215 0.000000
vn 0.734864 0.678215 0.000000
vn 0.734864 0.678215 0.000000
vn 0.734863 0.678215 0.000000
vn 0.734863 0.678215 0.000000
vn 0.734864 0.678215 0.000000
vn 0.734864 0.678215 0.000000
vn 0.734865 0.678213 0.000000
vn 0.734865 0.678213 0.000000
vn 0.000000 1.000000 0.000000
vn 0.000000 1.000000 0.000000
vn 0.000000 1.000000 0.000000
vn 0.000000 1.000000 0.000000
vn -0.754811 0.655943 0.000000
vn -0.754811 0.655943 0.000000
vn -0.754811 0.655942 0.000000
vn -0.754811 0.655942 0.000000
vn 0.103718 0.994607 0.000000
vn 0.103718 0.994607 0.000000
vn 0.103718 0.994607 0.000000
vn 0.103718 0.994607 0.000000
vn 0.103718 0.994607 0.000000
vn 0.103718 0.994607 0.000000
vn -0.754811 0.655942 0.000000
vn -0.754811 0.655942 0.000000
vn -0.754812 0.655942 0.000000
vn -0.754812 0.655942 0.000000
vn 0.448841 0.723605 -0.524345
vn 0.448192 0.734856 -0.509029
vn 0.238758 0.757498 -0.607611
vn -0.238760 0.757500 -0.607608
vn 0.000000 0.736235 -0.676726
vn 0.238758 0.757498 -0.607611
vn -0.146410 0.989190 0.008144
vn -0.139780 0.990082 0.014105
vn -0.099613 0.993770 0.049983
vn 0.048868 0.998443 -0.026909
vn 0.048868 0.998443 -0.026909
vn 0.048868 0.998443 -0.026909
vn -0.035684 0.986899 -0.157344
vn -0.035684 0.986899 -0.157344
vn 0.000000 1.000000 0.000000
vn 0.000000 1.000000 0.000000
s off
f 13/19/1 27/44/2 51/76/3
f 4/4/4 39/60/5 40/61/6 32/51/7
f 34/54/8 44/66/9 47/71/10
f 4/4/11 32/52/12 35/56/13 10/12/14
f 44/67/15 34/55/16 36/57/17 49/73/18
f 10/12/19 35/56/20 29/47/21 14/16/22
f 12/14/23 49/73/24 50/75/25 16/18/26
f 19/23/27 52/78/28 21/25/29 22/26/30
f 18/27/31 19/23/32 22/26/33 23/28/34
f 17/29/35 18/27/36 23/28/37 24/30/38
f 9/31/39 18/27/40 17/29/41 13/32/42
f 3/33/43 19/23/44 18/27/45 9/31/46
f 1/34/47 52/78/48 19/23/49 3/33/50
f 21/25/51 4/39/52 22/26/53
f 4/39/54 10/40/55 23/28/56 22/26/57
f 10/40/58 14/41/59 24/30/60 23/28/61
f 26/43/62 37/58/63 38/59/64 25/42/65
f 17/36/66 53/79/67 27/44/68 13/35/69
f 25/42/70 38/59/71 29/46/72 15/21/73
f 14/20/74 28/45/75 54/80/76 24/37/77
f 27/44/78 53/79/79 54/80/80 28/45/81
f 50/74/82 37/58/83 26/43/84 16/22/85
f 32/51/86 40/61/87 41/62/88 8/7/89 6/8/90
f 45/68/91 34/54/92 46/70/93
f 35/56/94 32/52/95 6/6/96 11/13/97
f 45/69/98 48/72/99 36/57/100 34/55/101
f 29/47/102 35/56/103 11/13/104 15/17/105
f 51/77/106 48/72/107 9/11/108 13/15/109
f 38/59/110 37/58/111 27/44/112 28/45/113
f 29/46/114 28/45/115 14/20/116
f 40/61/117 39/60/118 31/50/119
f 41/62/120 40/61/121 31/50/122
f 42/63/123 43/65/124 39/60/125 4/4/126
f 2/38/127 42/64/128 21/25/129
f 2/2/130 43/65/131 42/63/132
f 21/25/133 42/64/134 4/39/135
f 5/5/136 44/67/137 49/73/138 12/14/139
f 33/53/140 34/54/141 47/71/142
f 34/54/143 33/53/144 46/70/145
f 1/1/146 46/70/147 33/53/148
f 45/68/149 46/70/150 1/1/151 3/3/152
f 7/9/153 47/71/154 44/66/155 5/10/156
f 7/9/157 33/53/158 47/71/159
f 48/72/160 45/69/161 3/3/162 9/11/163
f 50/75/164 49/73/165 36/57/166 30/49/167
f 30/48/168 37/58/169 50/74/170
f 51/76/171 37/58/172 30/48/173
f 30/49/174 36/57/175 48/72/176 51/77/177
f 52/78/178 1/34/179 20/24/180
f 21/25/181 52/78/182 20/24/183
f 29/46/184 38/59/185 28/45/186
f 51/76/187 27/44/188 37/58/189
f 54/80/190 53/79/191 17/36/192 24/37/193
