# This file uses centimeters as units for non-parametric coordinates.

v 500.000000 -0.066345 -374.932861
v 183.531189 -2.982974 -500.000000
v 192.578125 -0.265381 -374.728394
v 426.492310 -0.132690 -374.865723
v 500.000000 -2.982974 -380.636597
v 191.127014 -2.982974 -500.000000
v 255.706787 -0.215577 -370.556641
v 347.613525 -2.982974 -390.921021
v 196.684265 -2.982974 -381.478882
v 183.531189 -2.982974 -381.478882
v -0.000977 0.000000 -500.000000
v 500.000000 0.000000 0.000732
v 0.000000 0.000000 0.000000
v -0.000488 0.000000 -375.000000
v 500.000000 0.000000 -250.000000
v -0.000488 0.000000 -250.000000
v 500.000000 0.000000 -124.999237
v 0.000000 0.000000 -125.000000
v 60.548019 0.030945 -500.000000
v 54.475021 0.955319 -373.233032
v 53.405380 3.856373 -247.143555
v 50.109482 0.955319 -123.232269
v 58.094406 0.000000 -0.000004
v 196.694946 0.104859 -249.070740
v 188.113403 0.009644 -125.364685
v 186.430359 0.009644 -0.000004
v 183.531189 -2.982974 -247.975159
v 183.531189 -2.982974 0.000301
v 63.290405 -2.982974 0.000301
v 63.290405 -2.982974 -246.463013
v 63.290405 -2.982974 -500.000000
v 63.290405 -2.982974 -123.231506
v 183.531189 -2.982974 -123.987579
v 63.290405 -2.982974 -373.233032
v 183.531189 -2.982974 -373.986816
v 183.531189 -2.982974 -131.477356
v 63.290405 -2.982974 -129.084015
v 63.290405 -2.982974 -380.636597
v 500.000000 -2.982974 -500.000000
v 0.000000 0.000000 -57.295227
v 64.125061 0.443289 -57.284164
v 73.026276 -2.982974 -57.165146
v 173.176575 -2.982974 -56.143188
v 183.392334 0.009644 -56.222534
v 500.000000 0.000000 -56.140900
v -0.000244 0.000000 -187.500000
v 45.124054 2.437687 -185.870361
v 56.620789 -2.982974 -186.125183
v 178.063965 -2.982974 -185.034180
v 195.392426 0.055845 -188.926773
v 500.000000 0.000000 -180.149841
v -0.000488 0.000000 -312.500000
v 67.878723 2.351952 -313.885498
v 77.209473 -2.982974 -314.959717
v 174.266052 -2.982974 -334.536743
v 185.295105 -0.087050 -334.094238
v 216.294861 -0.067705 -322.232056
v 366.989563 -7.146367 -319.244507
v 460.842896 -0.070681 -316.513062
v 500.000000 -0.035498 -316.845703
v 25.518799 0.013042 -500.000000
v 33.723515 -4.648741 -389.311340
v 17.775917 1.148629 -313.946716
v 35.302689 -4.391258 -257.828461
v 16.346432 1.262414 -200.875092
v 27.827190 -4.083111 -110.885399
v 25.932386 0.221288 -39.620216
v 27.328110 0.000000 -0.000002
v 269.323730 -0.077819 -312.454224
v 276.986664 2.916663 -249.182907
v 254.396469 0.043674 -193.192093
v 256.756592 0.986497 -134.905823
v 240.462601 1.273029 -56.045055
v 261.593628 0.007332 0.000173
v 346.458344 0.045564 -246.808990
v 379.791992 0.023597 -186.029358
v 371.160828 2.836841 -106.945206
v 361.203979 -5.783504 -53.606499
v 373.391724 0.003894 0.000435
v 440.319824 -0.010702 -254.644775
v 437.149048 0.007613 -180.595078
v 456.738281 2.154222 -108.502426
v 438.317780 0.048161 -53.948074
v 454.074097 0.001412 0.000625
v 350.158691 -0.169975 -383.212280
v 136.158752 -2.982974 -123.689270
v 138.888550 -2.982974 -135.607910
vt 0.431354 0.179246
vt 0.431354 0.179246
vt 0.431354 0.179246
vt 0.430811 0.178520
vt 0.430811 0.178520
vt 0.431354 0.179246
vt 0.431354 0.179246
vt 0.431354 0.179246
vt 0.431354 0.179246
vt 0.102306 0.329199
vt 0.102302 0.328984
vt 0.102523 0.328979
vt 0.102526 0.329195
vt 0.102285 0.303037
vt 0.102285 0.303037
vt 0.430811 0.178520
vt 0.102285 0.303037
vt 0.102285 0.303037
vt 0.430811 0.178520
vt 0.430811 0.178520
vt 0.430811 0.178520
vt 0.430811 0.178520
vt 0.430811 0.178520
vt 0.430811 0.178520
vt 0.430811 0.178520
vt 0.430811 0.178520
vt 0.430811 0.178520
vt 0.430811 0.178520
vt 0.430811 0.178520
vt 0.430811 0.178520
vt 0.430811 0.178520
vt 0.430811 0.178520
vt 0.430811 0.178520
vt 0.430811 0.178520
vt 0.430811 0.178520
vt 0.430811 0.178520
vt 0.430811 0.178520
vt 0.430811 0.178520
vt 0.430811 0.178520
vt 0.430811 0.178520
vt 0.430811 0.178520
vt 0.430811 0.178520
vt 0.430811 0.178520
vt 0.430811 0.178520
vt 0.430811 0.178520
vt 0.430811 0.178520
vt 0.430811 0.178520
vt 0.430811 0.178520
vt 0.430811 0.178520
vt 0.102349 0.303336
vt 0.102350 0.303271
vt 0.102354 0.303272
vt 0.102352 0.303336
vt 0.102214 0.303332
vt 0.102215 0.303267
vt 0.102220 0.303267
vt 0.102218 0.303332
vt 0.430811 0.178520
vt 0.430811 0.178520
vt 0.430811 0.178520
vt 0.102514 0.328524
vt 0.102294 0.328530
vt 0.102290 0.328309
vt 0.102510 0.328305
vt 0.430811 0.178520
vt 0.430811 0.178520
vt 0.430811 0.178520
vt 0.430811 0.178520
vt 0.102522 0.328969
vt 0.102302 0.328975
vt 0.102298 0.328750
vt 0.102518 0.328744
vt 0.430811 0.178520
vt 0.430811 0.178520
vt 0.102294 0.328538
vt 0.102514 0.328530
vt 0.102306 0.329199
vt 0.102302 0.328984
vt 0.102523 0.328979
vt 0.102526 0.329195
vt 0.430811 0.178520
vt 0.430811 0.178520
vt 0.430811 0.178520
vt 0.430811 0.178520
vt 0.430811 0.178520
vt 0.430811 0.178520
vt 0.102416 0.329197
vt 0.430811 0.178520
vt 0.430811 0.178520
vt 0.430811 0.178520
vt 0.430811 0.178520
vt 0.102291 0.328411
vt 0.102512 0.328406
vt 0.430811 0.178520
vt 0.430811 0.178520
vt 0.430811 0.178520
vt 0.430811 0.178520
vt 0.430811 0.178520
vt 0.430811 0.178520
vt 0.430811 0.178520
vt 0.430811 0.178520
vt 0.102296 0.328642
vt 0.102516 0.328628
vt 0.430811 0.178520
vt 0.430811 0.178520
vt 0.430811 0.178520
vt 0.430811 0.178520
vt 0.430811 0.178520
vt 0.430811 0.178520
vt 0.430811 0.178520
vt 0.430811 0.178520
vt 0.102300 0.328869
vt 0.102520 0.328863
vt 0.430811 0.178520
vt 0.430811 0.178520
vt 0.430811 0.178520
vt 0.430811 0.178520
vt 0.430811 0.178520
vt 0.430811 0.178520
vt 0.430811 0.178520
vt 0.430811 0.178520
vt 0.430811 0.178520
vt 0.430811 0.178520
vt 0.430811 0.178520
vt 0.430811 0.178520
vt 0.430811 0.178520
vt 0.430811 0.178520
vt 0.430811 0.178520
vt 0.430811 0.178520
vt 0.430811 0.178520
vt 0.430811 0.178520
vt 0.430811 0.178520
vt 0.430811 0.178520
vt 0.430811 0.178520
vt 0.430811 0.178520
vt 0.430811 0.178520
vt 0.430811 0.178520
vt 0.430811 0.178520
vt 0.430811 0.178520
vt 0.430811 0.178520
vt 0.430811 0.178520
vt 0.430811 0.178520
vt 0.430811 0.178520
vt 0.430811 0.178520
vt 0.431354 0.179246
vt 0.430811 0.178520
vt 0.102353 0.303311
vt 0.102427 0.328526
vt 0.102349 0.303312
vt 0.102431 0.328533
vn -0.044596 0.943125 -0.329432
vn -0.009035 0.940340 -0.340116
vn -0.009035 0.940340 -0.340115
vn 0.006185 0.960024 -0.279851
vn 0.006185 0.960024 -0.279851
vn 0.006185 0.960024 -0.279851
vn 0.006185 0.960024 -0.279851
vn 0.000000 1.000000 0.000000
vn 0.000000 1.000000 0.000000
vn 0.000000 1.000000 0.000000
vn 0.000000 1.000000 0.000000
vn 0.000000 1.000000 0.000000
vn 0.000000 0.927609 -0.373553
vn 0.000000 0.927609 -0.373553
vn 0.000000 0.927609 -0.373553
vn -0.001612 0.999998 -0.001192
vn -0.000377 0.894430 -0.447208
vn -0.001210 0.903142 -0.429341
vn 0.000000 1.000000 0.000000
vn 0.000000 1.000000 0.000000
vn 0.000000 1.000000 0.000000
vn 0.000000 1.000000 0.000000
vn 0.000000 0.890368 -0.455242
vn -0.000377 0.894430 -0.447208
vn -0.001612 0.999998 -0.001192
vn 0.000031 1.000000 0.000000
vn 0.024669 0.999481 0.020738
vn 0.024669 0.999481 0.020738
vn 0.024669 0.999481 0.020738
vn -0.000903 0.999999 -0.000531
vn -0.000903 0.999999 -0.000531
vn -0.000903 0.999999 -0.000531
vn -0.000903 0.999999 -0.000531
vn -0.000020 1.000000 -0.000128
vn -0.000020 1.000000 -0.000128
vn -0.000020 1.000000 -0.000128
vn 0.000187 1.000000 0.000388
vn -0.008514 0.999956 -0.003877
vn -0.104999 0.994334 0.016593
vn -0.104999 0.994334 0.016593
vn -0.008514 0.999956 -0.003877
vn -0.083137 0.995035 -0.054708
vn -0.083137 0.995035 -0.054708
vn -0.083137 0.995035 -0.054708
vn -0.044053 0.998960 -0.011730
vn -0.158580 0.984731 -0.071808
vn -0.158580 0.984731 -0.071808
vn -0.158580 0.984731 -0.071808
vn -0.046921 0.998838 0.011020
vn -0.096009 0.995199 -0.019025
vn -0.096009 0.995199 -0.019025
vn -0.096009 0.995199 -0.019025
vn -0.008896 0.999952 0.004134
vn -0.718143 0.695895 0.000000
vn -0.718143 0.695895 0.000000
vn -0.718143 0.695895 0.000000
vn -0.287678 0.957727 0.000000
vn -0.287678 0.957727 0.000000
vn -0.287678 0.957727 0.000000
vn 0.407896 0.913029 0.000000
vn 0.407896 0.913028 0.000000
vn 0.407896 0.913028 0.000000
vn 0.426326 0.904416 0.016697
vn 0.495101 0.865932 0.070970
vn 0.495101 0.865932 0.070970
vn 0.426326 0.904416 0.016697
vn 0.000000 1.000000 0.000000
vn 0.000000 1.000000 0.000000
vn 0.000000 1.000000 0.000000
vn 0.000000 1.000000 0.000000
vn 0.000000 1.000000 0.000000
vn 0.000000 1.000000 0.000000
vn 0.000000 1.000000 0.000000
vn 0.000000 1.000000 0.000000
vn 0.352440 0.935802 -0.007791
vn 0.352440 0.935802 -0.007791
vn 0.316188 0.947203 -0.053213
vn 0.316188 0.947203 -0.053213
vn 0.000000 1.000000 0.000000
vn 0.000000 1.000000 0.000000
vn 0.000000 1.000000 0.000000
vn -0.718144 0.695895 0.000000
vn -0.718144 0.695895 0.000000
vn -0.378147 0.924810 -0.041616
vn -0.378147 0.924810 -0.041616
vn 0.499531 0.866260 -0.007825
vn 0.499531 0.866261 -0.007825
vn 0.446698 0.887353 -0.114302
vn 0.446698 0.887353 -0.114302
vn 0.000000 1.000000 0.000000
vn 0.000000 1.000000 0.000000
vn 0.000000 1.000000 0.000000
vn 0.000000 1.000000 0.000000
vn -0.252660 0.967551 0.002710
vn -0.252660 0.967551 0.002710
vn -0.269633 0.961224 -0.057856
vn -0.269633 0.961224 -0.057856
vn 0.000000 1.000000 0.000000
vn 0.000000 1.000000 0.000000
vn 0.000000 1.000000 0.000000
vn 0.000000 1.000000 0.000000
vn 0.000000 1.000000 0.000000
vn 0.000000 1.000000 0.000000
vn 0.000000 1.000000 0.000000
vn 0.000000 1.000000 0.000000
vn 0.519936 0.854151 0.009620
vn 0.519936 0.854151 0.009620
vn 0.519936 0.854151 0.009620
vn 0.519936 0.854151 0.009620
vn -0.348920 0.937041 -0.014456
vn -0.198633 0.980017 -0.010535
vn -0.198633 0.980017 -0.010535
vn 0.000000 1.000000 0.000000
vn 0.286277 0.958147 0.000000
vn 0.286278 0.958147 0.000000
vn 0.286277 0.958147 0.000000
vn -0.000101 0.999993 -0.003720
vn -0.000101 0.999993 -0.003720
vn -0.000595 0.999996 -0.002927
vn -0.000595 0.999996 -0.002927
vn 0.013573 0.994392 0.104878
vn 0.013573 0.994392 0.104878
vn -0.000505 1.000000 -0.000766
vn 0.000338 0.999997 -0.002473
vn 0.070861 0.997306 -0.018972
vn 0.070861 0.997306 -0.018972
vn -0.008896 0.999952 0.004134
vn -0.001481 0.999976 0.006787
vn -0.001481 0.999976 0.006787
vn -0.001481 0.999976 0.006787
vn 0.412700 0.908864 0.060374
vn 0.412700 0.908864 0.060374
vn 0.352440 0.935802 -0.007791
vn 0.352440 0.935802 -0.007791
vn 0.000000 1.000000 -0.000000
vn 0.000000 1.000000 -0.000000
vn 0.000000 1.000000 0.000000
vn 0.000000 1.000000 0.000000
vn -0.414422 0.908744 0.049394
vn -0.414422 0.908744 0.049394
vn -0.718144 0.695895 0.000000
vn 0.000000 1.000000 0.000000
vn 0.000468 1.000000 0.000358
vn 0.000468 1.000000 0.000358
vn 0.000468 1.000000 0.000358
vn 0.000031 1.000000 0.000000
vn -0.046921 0.998838 0.011020
vn -0.123559 0.990661 0.057648
vn -0.123559 0.990661 0.057648
vn -0.123559 0.990661 0.057648
vn 0.349652 0.936610 -0.022450
vn 0.349652 0.936611 -0.022450
vn 0.426326 0.904416 0.016697
vn 0.426326 0.904416 0.016697
vn 0.000000 1.000000 0.000000
vn 0.000000 1.000000 0.000000
vn 0.000000 1.000000 0.000000
vn -0.265049 0.964228 -0.003720
vn -0.265049 0.964228 -0.003720
vn -0.348920 0.937041 -0.014456
vn -0.348920 0.937041 -0.014456
vn 0.000333 0.999554 -0.029853
vn 0.000333 0.999554 -0.029853
vn 0.000333 0.999554 -0.029853
vn -0.044053 0.998960 -0.011730
vn -0.142734 0.989105 0.036035
vn -0.142734 0.989105 0.036035
vn -0.142734 0.989105 0.036035
vn 0.533856 0.839311 0.102743
vn 0.533856 0.839311 0.102743
vn 0.499531 0.866261 -0.007825
vn 0.499531 0.866261 -0.007825
vn 0.000000 1.000000 0.000000
vn 0.000000 1.000000 0.000000
vn 0.000000 1.000000 0.000000
vn 0.000000 1.000000 0.000000
vn -0.239303 0.970549 0.027735
vn -0.239303 0.970549 0.027735
vn -0.252660 0.967551 0.002710
vn -0.001612 0.999998 -0.001192
vn -0.000595 0.999996 -0.002927
vn 0.000253 0.999997 -0.002291
vn 0.000253 0.999997 -0.002291
vn -0.000505 1.000000 -0.000766
vn -0.000101 1.000000 -0.001003
vn -0.000101 1.000000 -0.001003
vn -0.000903 1.000000 -0.000531
vn -0.000903 0.999999 -0.000531
vn -0.000903 1.000000 -0.000531
vn 0.082044 0.996486 0.016854
vn 0.082044 0.996486 0.016854
vn -0.008514 0.999956 -0.003877
vn -0.008514 0.999956 -0.003877
vn 0.056989 0.997748 -0.035364
vn 0.056989 0.997748 -0.035364
vn 0.056989 0.997748 -0.035364
vn -0.044053 0.998960 -0.011730
vn 0.067309 0.997060 0.036621
vn 0.067309 0.997060 0.036621
vn 0.067309 0.997060 0.036621
vn -0.044053 0.998960 -0.011730
vn 0.043937 0.998222 -0.040273
vn 0.043937 0.998222 -0.040273
vn 0.043937 0.998222 -0.040273
vn -0.046921 0.998838 0.011020
vn 0.063192 0.997544 0.030211
vn 0.063192 0.997544 0.030211
vn 0.063192 0.997544 0.030211
vn -0.046921 0.998838 0.011020
vn 0.089035 0.995588 -0.029623
vn 0.089035 0.995588 -0.029623
vn 0.089035 0.995588 -0.029623
vn -0.008896 0.999952 0.004134
vn -0.004936 0.999985 0.002354
vn -0.004936 0.999985 0.002354
vn -0.004936 0.999985 0.002354
vn -0.008896 0.999952 0.004134
vn 0.000656 0.999997 -0.002525
vn 0.000656 0.999997 -0.002525
vn 0.000338 0.999997 -0.002473
vn -0.019200 0.999506 -0.024882
vn -0.019200 0.999506 -0.024882
vn -0.019200 0.999506 -0.024882
vn 0.000338 0.999997 -0.002473
vn -0.019425 0.999588 0.021154
vn -0.019425 0.999588 0.021154
vn -0.019425 0.999587 0.021154
vn 0.000187 1.000000 0.000388
vn -0.008389 0.999935 -0.007697
vn -0.008389 0.999935 -0.007697
vn -0.008389 0.999935 -0.007697
vn 0.000187 1.000000 0.000388
vn -0.018153 0.999825 -0.004513
vn -0.018153 0.999825 -0.004513
vn 0.000031 1.000000 0.000000
vn -0.018153 0.999825 -0.004513
vn -0.009553 0.999866 0.013329
vn -0.009553 0.999866 0.013329
vn -0.009553 0.999866 0.013329
vn 0.000031 1.000000 0.000000
vn 0.057397 0.995942 -0.069315
vn 0.057397 0.995942 -0.069315
vn 0.057397 0.995942 -0.069315
vn 0.057397 0.995942 -0.069315
vn 0.000144 1.000000 0.000282
vn 0.000144 1.000000 0.000282
vn 0.000144 1.000000 0.000282
vn -0.003602 0.999615 -0.027497
vn -0.003602 0.999615 -0.027497
vn -0.003602 0.999615 -0.027497
vn -0.003602 0.999615 -0.027497
vn -0.014549 0.999872 -0.006639
vn -0.014549 0.999872 -0.006639
vn -0.014549 0.999872 -0.006639
vn 0.030837 0.998246 -0.050535
vn 0.030837 0.998246 -0.050535
vn 0.030837 0.998246 -0.050535
vn 0.030837 0.998246 -0.050535
vn -0.074411 0.996898 -0.025650
vn -0.074411 0.996898 -0.025650
vn -0.074411 0.996898 -0.025650
vn -0.007835 0.994856 -0.100997
vn -0.007835 0.994856 -0.100997
vn -0.007835 0.994856 -0.100997
vn 0.000258 1.000000 0.000220
vn 0.000258 1.000000 0.000220
vn 0.000258 1.000000 0.000220
vn 0.005786 0.999432 -0.033209
vn 0.005786 0.999432 -0.033209
vn 0.005786 0.999432 -0.033209
vn 0.005786 0.999432 -0.033209
vn -0.073963 0.986569 0.145638
vn -0.073963 0.986569 0.145638
vn -0.073963 0.986569 0.145638
vn -0.036975 0.998361 -0.043680
vn -0.036975 0.998361 -0.043680
vn -0.036975 0.998361 -0.043680
vn -0.036975 0.998361 -0.043680
vn -0.046562 0.996036 0.075785
vn -0.046562 0.996036 0.075785
vn -0.000505 1.000000 -0.000766
vn -0.046562 0.996036 0.075785
vn -0.009035 0.940340 -0.340115
vn -0.009035 0.940340 -0.340116
vn 0.038214 0.934593 -0.353660
vn 0.000000 1.000000 0.000000
vn 0.000000 1.000000 0.000000
vn 0.000000 1.000000 0.000000
vn 0.000000 1.000000 0.000000
vn 0.000000 1.000000 -0.000000
vn 0.000000 1.000000 -0.000000
vn 0.000000 1.000000 0.000000
vn 0.000000 1.000000 -0.000000
vn 0.000000 1.000000 -0.000000
vn 0.000000 1.000000 0.000000
vn 0.000000 1.000000 0.000000
vn 0.000000 1.000000 0.000000
vn 0.000000 1.000000 0.000000
vn 0.000000 1.000000 0.000000
vn 0.000000 1.000000 0.000000
vn 0.000000 1.000000 0.000000
vn 0.054098 0.984105 0.169145
vn 0.054098 0.984105 0.169145
vn 0.054098 0.984105 0.169145
vn 0.038919 0.997003 0.066860
vn 0.038919 0.997003 0.066860
vn 0.038919 0.997003 0.066860
vn 0.000581 1.000000 -0.000222
vn 0.000581 1.000000 -0.000222
vn 0.000581 1.000000 -0.000222
vn 0.000187 1.000000 0.000388
vn 0.049734 0.998762 0.000000
vn 0.049734 0.998763 0.000000
vn 0.008725 0.999100 0.041516
vn 0.008725 0.999100 0.041516
vn 0.008725 0.999100 0.041516
s off
f 85/145/1 8/2/2 7/3/3
f 8/2/4 9/6/5 3/7/6 7/3/7
f 6/10/8 9/11/9 8/12/10 5/13/11 39/87/12
f 9/4/13 10/16/14 3/5/15
f 1/9/16 8/2/17 4/1/18
f 2/14/19 10/15/20 9/17/21 6/18/22
f 5/8/23 8/2/24 1/9/25
f 17/19/26 82/142/27 83/143/28 45/97/29
f 59/119/30 60/120/31 1/24/32 4/25/33
f 80/140/34 81/141/35 51/107/36 15/23/37
f 19/27/38 61/121/39 62/122/40 20/30/41
f 62/122/42 63/123/43 53/109/44 20/30/45
f 64/124/46 65/125/47 47/99/48 21/31/49
f 66/126/50 67/127/51 41/89/52 22/33/53
f 25/37/54 36/38/55 33/39/56
f 3/40/57 10/41/58 35/42/59
f 38/43/60 20/44/61 34/45/62
f 21/46/63 47/100/64 48/101/65 30/49/66
f 86/147/67 87/149/68 37/51/69 32/52/70
f 10/54/71 38/55/72 34/56/73 35/57/74
f 32/58/75 22/47/76 41/90/77 42/91/78
f 33/61/79 86/148/80 43/93/81
f 25/37/82 33/39/83 43/94/84 44/96/85
f 34/45/86 20/44/87 53/110/88 54/111/89
f 35/69/90 34/70/91 54/112/92 55/113/93
f 3/40/94 35/42/95 55/114/96 56/115/97
f 30/71/98 48/102/99 49/103/100 27/72/101
f 31/77/102 38/78/103 10/79/104 2/80/105
f 19/81/106 20/44/107 38/43/108 31/82/109
f 27/83/110 49/104/111 50/106/112 24/84/113
f 37/48/114 22/47/115 32/58/116
f 56/116/117 57/117/118 7/85/119 3/86/120
f 58/118/121 85/146/122 7/85/123
f 7/85/124 69/129/125 58/118/126
f 23/35/127 41/89/128 67/127/129 68/128/130
f 42/91/131 41/90/132 23/59/133 29/60/134
f 43/93/135 42/92/136 29/63/137 28/64/138
f 44/96/139 43/94/140 28/65/141 26/66/142
f 45/97/143 83/143/144 84/144/145 12/22/146
f 22/33/147 47/99/148 65/125/149 66/126/150
f 48/101/151 47/100/152 22/47/153 37/48/154
f 87/150/155 48/102/156 37/75/157
f 50/106/158 49/104/159 36/38/160 25/37/161
f 82/142/162 51/107/163 81/141/164
f 21/31/165 53/109/166 63/123/167 64/124/168
f 54/111/169 53/110/170 21/67/171 30/68/172
f 55/113/173 54/112/174 30/71/175 27/72/176
f 56/115/177 55/114/178 27/73/179 24/74/180
f 24/26/181 57/117/182 56/116/183
f 15/23/184 59/119/185 80/140/186
f 15/23/187 60/120/188 59/119/189
f 62/122/190 61/121/191 11/28/192 14/29/193
f 52/108/194 63/123/195 62/122/196 14/29/197
f 64/124/198 63/123/199 52/108/200 16/32/201
f 46/98/202 65/125/203 64/124/204 16/32/205
f 66/126/206 65/125/207 46/98/208 18/34/209
f 40/88/210 67/127/211 66/126/212 18/34/213
f 68/128/214 67/127/215 40/88/216 13/36/217
f 57/117/218 69/129/219 7/85/220
f 70/130/221 69/129/222 57/117/223 24/26/224
f 50/105/225 71/131/226 70/130/227 24/26/228
f 72/132/229 71/131/230 50/105/231 25/20/232
f 73/133/233 72/132/234 25/20/235 44/95/236
f 74/134/237 73/133/238 44/95/239 26/21/240
f 75/135/241 58/118/242 69/129/243 70/130/244
f 75/135/245 71/131/246 76/136/247
f 77/137/248 76/136/249 71/131/250 72/132/251
f 73/133/252 77/137/253 72/132/254
f 79/139/255 78/138/256 73/133/257 74/134/258
f 80/140/259 59/119/260 58/118/261
f 80/140/262 58/118/263 75/135/264
f 75/135/265 76/136/266 81/141/267
f 82/142/268 81/141/269 76/136/270 77/137/271
f 83/143/272 77/137/273 78/138/274
f 84/144/275 83/143/276 78/138/277 79/139/278
f 58/118/279 59/119/280 4/25/281 85/146/282
f 4/1/283 8/2/284 85/145/285
f 36/50/286 87/149/287 86/147/288 33/53/289
f 42/92/290 86/148/291 32/62/292
f 49/103/293 87/150/294 36/76/295
f 49/103/296 48/102/297 87/150/298
f 43/93/299 86/148/300 42/92/301
f 78/138/302 77/137/303 73/133/304
f 70/130/305 71/131/306 75/135/307
f 75/135/308 81/141/309 80/140/310
f 17/19/311 51/107/312 82/142/313
f 83/143/314 82/142/315 77/137/316
