# This file uses centimeters as units for non-parametric coordinates.

v 15.843773 10.362244 -180.236816
v 19.277763 11.923409 170.739746
v -36.016464 15.903282 -81.346130
v 56.370544 2.008522 33.886337
v -38.757706 14.744663 35.550308
v -5.175304 46.493149 -12.128925
v -42.111969 20.160103 59.596252
v -44.414139 -1.590490 -172.805786
v -14.768028 17.222977 -188.928223
v 19.601059 27.210999 128.715515
v 8.084488 13.958740 202.713013
v -52.090454 4.547858 -55.735779
v -18.684578 42.304993 -7.881355
v 19.497490 0.099826 89.314270
v 44.145966 11.364222 106.786346
v 31.236839 41.156387 -79.537964
v 23.205566 22.026634 -161.868286
v -21.743584 27.905083 -177.053833
v 48.069000 33.737946 -40.644836
v 44.187164 12.329674 6.128407
v -32.839203 13.759232 -25.619698
v 49.514008 2.109957 0.828004
v 19.983864 49.808121 -26.687050
v -63.225937 0.352502 102.292633
v -23.648453 14.907646 196.009827
v 55.001450 2.876139 71.705627
v 45.534515 1.655221 120.954895
v -53.599930 1.615191 50.881577
v -4.311991 -5.871964 25.899887
v -16.361809 28.746033 55.034637
v -25.157166 21.478844 37.578583
v -50.991058 11.520720 63.341141
v -1.699221 47.362900 23.950005
v -1.910162 35.551262 50.210190
v 23.386765 36.293793 42.480087
v 33.356094 14.243317 124.572754
v -24.302292 26.432228 84.132385
v -19.462395 22.883034 183.447266
v -28.702164 10.591412 157.853699
v 4.632330 35.728455 91.187286
v -17.654228 24.411201 122.737122
v 47.441101 22.953987 -80.205536
v 24.480057 16.262817 -166.249084
v 30.795479 19.004631 -127.492523
v 57.188797 0.787640 -91.850281
v -48.482513 2.322328 -104.537964
v 38.134384 4.734445 -159.600830
v -5.704594 2.114451 -213.410950
v -37.504959 15.189743 -157.510376
v -23.374557 9.932470 -202.822876
v -29.409599 21.623421 -172.236633
v -40.884399 4.872036 -141.403198
v -29.253960 23.643112 -126.866913
v -20.248032 33.198547 -117.447662
v -8.736801 46.122742 -71.189880
v 1.726079 28.585052 -149.322510
v 10.668945 40.298843 -94.603729
v -12.740707 36.152458 -129.756165
v -15.500450 30.374146 -170.349121
v 17.175865 47.141266 -76.492310
v -8.393097 24.680328 188.374329
v -12.353992 19.315147 205.848694
v -24.823761 5.315221 211.753845
v -3.979969 26.913834 -179.902649
v 15.202141 19.322014 -177.389526
v 32.601929 45.255280 -12.407684
v 31.228065 28.064537 33.907700
v -23.604012 17.013359 -44.909668
v 21.143150 4.085941 -69.290161
v 63.225937 -0.817442 -37.326813
v -27.503395 23.549461 -72.313690
v -23.477554 35.540390 -75.952148
v -0.685549 44.131088 -34.637833
v -10.294914 44.253540 -48.990631
v -35.752106 19.879913 4.660654
v 7.312489 49.768448 -35.501099
v 8.604050 43.740463 -8.687210
v 10.017586 45.114517 35.108948
v 1.077151 14.535522 -196.165466
v 34.877396 47.683716 -33.540344
v 2.205086 49.911118 -21.411705
v 32.175827 20.030785 103.195953
v 14.004898 0.000000 213.410950
vt 0.176840 0.276627
vt 0.176840 0.276627
vt 0.176840 0.276627
vt 0.176840 0.276627
vt 0.176840 0.276627
vt 0.176840 0.276627
vt 0.176840 0.276627
vt 0.176840 0.276627
vt 0.176840 0.276627
vt 0.176840 0.276627
vt 0.176840 0.276627
vt 0.176840 0.276627
vt 0.176840 0.276627
vt 0.176840 0.276627
vt 0.176840 0.276627
vt 0.176840 0.276627
vt 0.176840 0.276627
vt 0.176840 0.276627
vt 0.176840 0.276627
vt 0.176840 0.276627
vt 0.176840 0.276627
vt 0.176840 0.276627
vt 0.176840 0.276627
vt 0.176840 0.276627
vt 0.176840 0.276627
vt 0.176840 0.276627
vt 0.176840 0.276627
vt 0.176840 0.276627
vt 0.176840 0.276627
vt 0.176840 0.276627
vt 0.176840 0.276627
vt 0.176840 0.276627
vt 0.176840 0.276627
vt 0.176840 0.276627
vt 0.176840 0.276627
vt 0.176840 0.276627
vt 0.176840 0.276627
vt 0.176840 0.276627
vt 0.176840 0.276627
vt 0.176840 0.276627
vt 0.176840 0.276627
vt 0.176840 0.276627
vt 0.176840 0.276627
vt 0.176840 0.276627
vt 0.176840 0.276627
vt 0.176840 0.276627
vt 0.176840 0.276627
vt 0.176840 0.276627
vt 0.176840 0.276627
vt 0.176840 0.276627
vt 0.176840 0.276627
vt 0.176840 0.276627
vt 0.176840 0.276627
vt 0.176840 0.276627
vt 0.176840 0.276627
vt 0.176840 0.276627
vt 0.176840 0.276627
vt 0.176840 0.276627
vt 0.176840 0.276627
vt 0.176840 0.276627
vt 0.176840 0.276627
vt 0.176840 0.276627
vt 0.176840 0.276627
vt 0.176840 0.276627
vt 0.176840 0.276627
vt 0.176840 0.276627
vt 0.176840 0.276627
vt 0.176840 0.276627
vt 0.176840 0.276627
vt 0.176840 0.276627
vt 0.176840 0.276627
vt 0.176840 0.276627
vt 0.176840 0.276627
vt 0.176840 0.276627
vt 0.176840 0.276627
vt 0.176840 0.276627
vt 0.176840 0.276627
vt 0.176840 0.276627
vt 0.176840 0.276627
vt 0.176840 0.276627
vt 0.176840 0.276627
vt 0.176840 0.276627
vt 0.176840 0.276627
vn 0.357332 0.920364 -0.158885
vn 0.357332 0.920364 -0.158885
vn 0.357332 0.920364 -0.158885
vn 0.729754 0.656613 -0.190573
vn 0.729754 0.656613 -0.190573
vn 0.729754 0.656613 -0.190573
vn 0.676821 0.719500 -0.155669
vn 0.676821 0.719500 -0.155669
vn 0.676821 0.719500 -0.155669
vn 0.877518 0.458946 -0.139035
vn 0.877518 0.458946 -0.139035
vn 0.877518 0.458946 -0.139035
vn 0.706485 0.639993 -0.302139
vn 0.706485 0.639993 -0.302139
vn 0.706485 0.639993 -0.302139
vn 0.681382 0.713880 -0.161538
vn 0.681382 0.713880 -0.161538
vn 0.681382 0.713880 -0.161538
vn 0.925090 0.337227 -0.174604
vn 0.925090 0.337227 -0.174604
vn 0.925090 0.337227 -0.174604
vn 0.693730 0.703551 -0.154125
vn 0.693730 0.703551 -0.154125
vn 0.693730 0.703551 -0.154125
vn 0.792509 0.517790 -0.322215
vn 0.792509 0.517790 -0.322215
vn 0.792509 0.517790 -0.322215
vn 0.777332 0.240401 -0.581345
vn 0.777332 0.240401 -0.581345
vn 0.777332 0.240401 -0.581345
vn 0.724101 0.511593 -0.462547
vn 0.724101 0.511594 -0.462547
vn 0.724101 0.511593 -0.462547
vn -0.108130 -0.993757 -0.027480
vn -0.108130 -0.993757 -0.027480
vn -0.108130 -0.993757 -0.027480
vn -0.003571 -0.998367 0.057009
vn -0.003571 -0.998367 0.057009
vn -0.003571 -0.998367 0.057009
vn 0.666490 0.444071 -0.598825
vn 0.666490 0.444071 -0.598825
vn 0.666490 0.444071 -0.598825
vn 0.643729 0.531744 -0.550329
vn 0.643729 0.531744 -0.550329
vn 0.643729 0.531744 -0.550329
vn 0.055626 -0.998446 0.003296
vn 0.055626 -0.998446 0.003296
vn 0.055626 -0.998446 0.003296
vn 0.091682 -0.995782 -0.003457
vn 0.091682 -0.995782 -0.003457
vn 0.091682 -0.995782 -0.003457
vn -0.752178 0.585433 -0.302485
vn -0.752178 0.585433 -0.302485
vn -0.752178 0.585433 -0.302485
vn -0.596660 -0.514611 -0.615770
vn -0.596660 -0.514611 -0.615770
vn -0.596660 -0.514611 -0.615770
vn -0.871716 0.375053 -0.315353
vn -0.871716 0.375053 -0.315353
vn -0.871716 0.375053 -0.315353
vn -0.158989 0.911344 -0.379705
vn -0.158989 0.911343 -0.379705
vn -0.158989 0.911344 -0.379705
vn -0.880826 0.460450 0.110147
vn -0.880826 0.460450 0.110147
vn -0.880826 0.460450 0.110147
vn -0.838334 0.544216 -0.032013
vn -0.838334 0.544216 -0.032013
vn -0.838334 0.544216 -0.032013
vn -0.658508 0.747872 -0.083995
vn -0.658508 0.747872 -0.083995
vn -0.658508 0.747872 -0.083995
vn -0.651261 0.754405 -0.082050
vn -0.651261 0.754405 -0.082050
vn -0.651261 0.754405 -0.082050
vn -0.934093 0.355609 0.031813
vn -0.934093 0.355609 0.031813
vn -0.934093 0.355609 0.031813
vn -0.673882 0.307021 -0.672027
vn -0.673882 0.307021 -0.672027
vn -0.673882 0.307021 -0.672027
vn -0.656170 0.753964 -0.031311
vn -0.656169 0.753964 -0.031311
vn -0.656170 0.753964 -0.031311
vn -0.681491 0.731461 0.023125
vn -0.681491 0.731461 0.023125
vn -0.681491 0.731461 0.023125
vn -0.944680 0.326537 0.030874
vn -0.944680 0.326537 0.030874
vn -0.944680 0.326537 0.030874
vn -0.713134 0.700439 -0.028733
vn -0.713134 0.700439 -0.028733
vn -0.713134 0.700439 -0.028733
vn -0.676667 0.730280 -0.093876
vn -0.676667 0.730280 -0.093876
vn -0.676667 0.730280 -0.093876
vn -0.651903 0.756597 -0.050836
vn -0.651903 0.756597 -0.050836
vn -0.651903 0.756597 -0.050836
vn -0.561439 0.822597 -0.090117
vn -0.561439 0.822597 -0.090117
vn -0.561439 0.822597 -0.090117
vn 0.286285 0.945675 -0.154078
vn 0.286285 0.945675 -0.154078
vn 0.286285 0.945675 -0.154078
vn 0.085827 0.981192 -0.172908
vn 0.085827 0.981192 -0.172908
vn 0.085827 0.981192 -0.172908
vn 0.182633 0.954863 -0.234269
vn 0.182633 0.954863 -0.234269
vn 0.182633 0.954863 -0.234269
vn -0.514386 0.850523 -0.109629
vn -0.514386 0.850523 -0.109629
vn -0.514386 0.850523 -0.109629
vn -0.293849 0.952726 -0.077238
vn -0.293849 0.952726 -0.077238
vn -0.293849 0.952726 -0.077238
vn -0.489234 0.867473 -0.090221
vn -0.489234 0.867473 -0.090221
vn -0.489234 0.867473 -0.090221
vn 0.471429 0.843439 -0.257614
vn 0.471429 0.843439 -0.257614
vn 0.471429 0.843439 -0.257614
vn 0.243053 0.875322 -0.418014
vn 0.243053 0.875322 -0.418014
vn 0.243053 0.875322 -0.418014
vn 0.282649 0.869811 -0.404399
vn 0.282649 0.869811 -0.404400
vn 0.282649 0.869811 -0.404399
vn -0.102360 0.942154 -0.319167
vn -0.102360 0.942154 -0.319167
vn -0.102360 0.942154 -0.319167
vn -0.255066 0.939047 0.230503
vn -0.255066 0.939047 0.230503
vn -0.255066 0.939047 0.230503
vn 0.286880 0.895598 0.340007
vn 0.286880 0.895598 0.340007
vn 0.286880 0.895598 0.340007
vn 0.760055 0.608804 0.227321
vn 0.760055 0.608804 0.227321
vn 0.760055 0.608804 0.227321
vn 0.389664 0.894104 0.220770
vn 0.389664 0.894104 0.220770
vn 0.389664 0.894104 0.220770
vn -0.562766 0.769793 0.301186
vn -0.562766 0.769793 0.301186
vn -0.562766 0.769793 0.301186
vn 0.204120 0.220430 0.953806
vn 0.204120 0.220430 0.953806
vn 0.204120 0.220430 0.953806
vn -0.604784 0.699352 0.380977
vn -0.604784 0.699352 0.380977
vn -0.604784 0.699352 0.380977
vn -0.002665 0.939180 -0.343414
vn -0.002665 0.939180 -0.343414
vn -0.002665 0.939180 -0.343414
vn -0.070379 0.720714 -0.689651
vn -0.070379 0.720714 -0.689651
vn -0.070379 0.720714 -0.689651
vn 0.214734 0.972216 -0.093200
vn 0.214734 0.972216 -0.093200
vn 0.214734 0.972216 -0.093200
vn 0.007122 0.810082 -0.586274
vn 0.007122 0.810082 -0.586274
vn 0.007122 0.810082 -0.586274
vn -0.157996 0.761453 -0.628670
vn -0.157996 0.761453 -0.628670
vn -0.157996 0.761453 -0.628670
vn -0.048956 0.896601 -0.440125
vn -0.048956 0.896601 -0.440125
vn -0.048956 0.896601 -0.440125
vn 0.376090 0.789951 -0.484287
vn 0.376090 0.789951 -0.484287
vn 0.376090 0.789951 -0.484287
vn 0.786608 0.237450 -0.569969
vn 0.786608 0.237450 -0.569969
vn 0.786608 0.237450 -0.569969
vn 0.633011 0.488350 -0.600676
vn 0.633011 0.488350 -0.600676
vn 0.633011 0.488350 -0.600676
vn 0.149869 0.958064 -0.244238
vn 0.149869 0.958064 -0.244238
vn 0.149869 0.958064 -0.244238
vn 0.301211 0.953401 0.017309
vn 0.301211 0.953400 0.017309
vn 0.301211 0.953400 0.017309
vn 0.378953 0.917491 -0.120852
vn 0.378953 0.917491 -0.120852
vn 0.378953 0.917491 -0.120852
vn 0.114064 0.991688 -0.059529
vn 0.114064 0.991688 -0.059529
vn 0.114064 0.991688 -0.059529
vn 0.199700 0.970782 0.133052
vn 0.199700 0.970782 0.133052
vn 0.199700 0.970782 0.133052
vn 0.755855 0.636251 0.154494
vn 0.755855 0.636251 0.154494
vn 0.755855 0.636251 0.154494
vn 0.874938 0.408716 0.259683
vn 0.874938 0.408716 0.259683
vn 0.874938 0.408716 0.259683
vn 0.915220 0.392827 -0.089773
vn 0.915220 0.392827 -0.089773
vn 0.915220 0.392827 -0.089773
vn 0.811520 0.539543 0.224340
vn 0.811520 0.539543 0.224340
vn 0.811520 0.539543 0.224340
vn 0.846258 0.454370 0.278199
vn 0.846258 0.454370 0.278199
vn 0.846258 0.454370 0.278199
vn 0.891539 0.415371 0.180624
vn 0.891539 0.415371 0.180624
vn 0.891539 0.415371 0.180624
vn 0.718391 0.693255 -0.057549
vn 0.718391 0.693255 -0.057549
vn 0.718391 0.693255 -0.057549
vn 0.002161 -0.998952 0.045715
vn 0.002161 -0.998952 0.045715
vn 0.002161 -0.998952 0.045715
vn -0.390530 0.920042 -0.031771
vn -0.390530 0.920042 -0.031771
vn -0.390530 0.920042 -0.031771
vn -0.659681 0.746966 -0.082834
vn -0.659681 0.746966 -0.082834
vn -0.659681 0.746966 -0.082834
vn -0.436307 0.891561 0.121474
vn -0.436307 0.891561 0.121474
vn -0.436307 0.891561 0.121474
vn -0.751869 0.658314 0.036278
vn -0.751869 0.658314 0.036278
vn -0.751869 0.658314 0.036278
vn -0.136590 0.968357 -0.208873
vn -0.136590 0.968357 -0.208873
vn -0.136590 0.968357 -0.208873
vn -0.655845 0.754808 0.011475
vn -0.655845 0.754808 0.011475
vn -0.655845 0.754808 0.011475
vn -0.164692 -0.985905 -0.029451
vn -0.164692 -0.985905 -0.029451
vn -0.164692 -0.985905 -0.029451
vn 0.900841 0.314170 0.299637
vn 0.900841 0.314170 0.299637
vn 0.900841 0.314170 0.299637
vn -0.102248 -0.994597 -0.017958
vn -0.102248 -0.994597 -0.017958
vn -0.102248 -0.994597 -0.017958
vn -0.030596 -0.993228 -0.112084
vn -0.030596 -0.993228 -0.112084
vn -0.030596 -0.993228 -0.112084
vn 0.213353 -0.965277 0.150735
vn 0.213353 -0.965277 0.150735
vn 0.213353 -0.965277 0.150735
vn -0.026829 -0.993447 -0.111099
vn -0.026829 -0.993447 -0.111099
vn -0.026829 -0.993447 -0.111099
vn 0.834377 0.523852 -0.171447
vn 0.834377 0.523852 -0.171447
vn 0.834377 0.523852 -0.171447
vn -0.903758 0.369168 0.216648
vn -0.903758 0.369168 0.216648
vn -0.903758 0.369168 0.216648
vn -0.336895 0.939906 0.055484
vn -0.336895 0.939906 0.055484
vn -0.336895 0.939906 0.055484
vn -0.513917 0.782856 0.350750
vn -0.513917 0.782856 0.350751
vn -0.513917 0.782856 0.350750
vn -0.588659 0.807940 0.026703
vn -0.588659 0.807940 0.026703
vn -0.588659 0.807940 0.026703
vn 0.129085 0.988562 -0.077989
vn 0.129085 0.988562 -0.077989
vn 0.129085 0.988562 -0.077989
vn -0.300712 0.953578 -0.016171
vn -0.300712 0.953578 -0.016171
vn -0.300712 0.953578 -0.016171
vn -0.895870 0.413242 -0.163243
vn -0.895870 0.413242 -0.163243
vn -0.895870 0.413242 -0.163243
vn -0.849147 0.455039 0.268121
vn -0.849147 0.455039 0.268121
vn -0.849147 0.455039 0.268121
vn -0.829243 0.526933 -0.186273
vn -0.829243 0.526933 -0.186273
vn -0.829243 0.526933 -0.186273
vn -0.780026 0.560125 -0.278961
vn -0.780026 0.560125 -0.278961
vn -0.780026 0.560125 -0.278961
vn -0.779638 0.574998 0.248079
vn -0.779638 0.574998 0.248079
vn -0.779637 0.574998 0.248079
vn -0.577898 0.786605 -0.217456
vn -0.577898 0.786605 -0.217456
vn -0.577898 0.786605 -0.217456
vn -0.609200 0.766862 -0.201987
vn -0.609200 0.766862 -0.201987
vn -0.609200 0.766862 -0.201987
vn -0.054901 0.995518 -0.077012
vn -0.054901 0.995517 -0.077012
vn -0.054901 0.995517 -0.077012
vn 0.003132 0.999955 -0.008997
vn 0.003132 0.999955 -0.008997
vn 0.003132 0.999955 -0.008997
vn 0.035434 0.997834 -0.055424
vn 0.035434 0.997834 -0.055424
vn 0.035434 0.997834 -0.055424
vn 0.082057 0.912322 0.401168
vn 0.082057 0.912322 0.401168
vn 0.082057 0.912322 0.401168
vn 0.119265 0.915582 0.384037
vn 0.119265 0.915582 0.384037
vn 0.119265 0.915582 0.384037
vn -0.011437 0.949714 0.312910
vn -0.011437 0.949714 0.312910
vn -0.011437 0.949714 0.312910
vn 0.451357 0.865533 0.217094
vn 0.451357 0.865533 0.217094
vn 0.451357 0.865533 0.217094
vn -0.067464 0.997297 -0.029108
vn -0.067464 0.997297 -0.029108
vn -0.067464 0.997297 -0.029108
vn 0.755506 0.651885 0.065249
vn 0.755506 0.651885 0.065249
vn 0.755506 0.651885 0.065249
vn 0.694915 0.717903 0.041333
vn 0.694915 0.717903 0.041333
vn 0.694915 0.717903 0.041333
vn 0.719575 0.694341 0.010121
vn 0.719575 0.694341 0.010121
vn 0.719575 0.694341 0.010121
vn 0.090805 -0.995526 0.026126
vn 0.090805 -0.995526 0.026126
vn 0.090805 -0.995526 0.026126
vn 0.900078 0.395521 0.182821
vn 0.900078 0.395521 0.182821
vn 0.900078 0.395521 0.182821
vn 0.072650 -0.997299 -0.010759
vn 0.072650 -0.997299 -0.010759
vn 0.072650 -0.997299 -0.010759
vn 0.566913 0.819147 0.087222
vn 0.566913 0.819147 0.087222
vn 0.566913 0.819147 0.087222
vn 0.122506 -0.991337 0.047359
vn 0.122506 -0.991337 0.047359
vn 0.122506 -0.991337 0.047359
vn 0.132676 -0.990688 -0.030558
vn 0.132676 -0.990688 -0.030558
vn 0.132676 -0.990688 -0.030558
vn -0.178369 -0.982281 -0.057523
vn -0.178369 -0.982281 -0.057523
vn -0.178369 -0.982281 -0.057523
vn 0.011023 -0.995913 0.089648
vn 0.011023 -0.995913 0.089648
vn 0.011023 -0.995913 0.089648
vn 0.004121 -0.998946 0.045715
vn 0.004121 -0.998946 0.045715
vn 0.004121 -0.998946 0.045715
vn -0.655195 0.717797 0.235559
vn -0.655195 0.717797 0.235559
vn -0.655195 0.717797 0.235559
vn -0.294579 0.955612 0.005343
vn -0.294579 0.955612 0.005343
vn -0.294579 0.955612 0.005343
vn -0.719046 0.690942 0.074651
vn -0.719046 0.690942 0.074651
vn -0.719046 0.690942 0.074651
vn -0.281689 0.875900 0.391728
vn -0.281689 0.875900 0.391728
vn -0.281689 0.875900 0.391728
vn -0.398470 0.881291 -0.254063
vn -0.398470 0.881291 -0.254063
vn -0.398470 0.881291 -0.254063
vn -0.453659 0.885201 0.103016
vn -0.453659 0.885201 0.103016
vn -0.453659 0.885201 0.103016
vn -0.722381 0.661834 0.200354
vn -0.722381 0.661834 0.200354
vn -0.722381 0.661834 0.200354
vn -0.536352 0.840237 -0.079553
vn -0.536352 0.840237 -0.079553
vn -0.536352 0.840237 -0.079553
vn -0.205349 0.973585 -0.099821
vn -0.205349 0.973585 -0.099821
vn -0.205349 0.973585 -0.099821
vn -0.889127 0.430286 -0.155909
vn -0.889127 0.430286 -0.155909
vn -0.889127 0.430286 -0.155909
vn -0.770536 0.590313 -0.240426
vn -0.770536 0.590313 -0.240426
vn -0.770536 0.590313 -0.240426
vn -0.726195 0.604090 -0.328201
vn -0.726195 0.604090 -0.328201
vn -0.726195 0.604090 -0.328201
vn -0.700630 0.713355 -0.015538
vn -0.700630 0.713355 -0.015538
vn -0.700630 0.713355 -0.015538
vn 0.206136 0.977559 -0.043428
vn 0.206136 0.977559 -0.043428
vn 0.206136 0.977559 -0.043428
vn 0.222901 0.974110 -0.037753
vn 0.222901 0.974110 -0.037753
vn 0.222901 0.974110 -0.037753
vn -0.209436 0.892388 0.399725
vn -0.209436 0.892388 0.399725
vn -0.209436 0.892388 0.399725
vn 0.166268 0.768421 0.617967
vn 0.166268 0.768421 0.617967
vn 0.166268 0.768421 0.617967
vn -0.029254 0.999572 0.000349
vn -0.029254 0.999572 0.000349
vn -0.029254 0.999572 0.000349
vn -0.304263 0.952560 -0.007288
vn -0.304263 0.952560 -0.007288
vn -0.304263 0.952560 -0.007288
vn -0.408413 0.910739 0.061271
vn -0.408413 0.910739 0.061271
vn -0.408413 0.910739 0.061271
vn 0.536865 0.821358 0.192735
vn 0.536865 0.821358 0.192735
vn 0.536865 0.821358 0.192735
vn 0.703049 0.666539 0.247886
vn 0.703049 0.666539 0.247886
vn 0.703049 0.666539 0.247886
vn 0.701752 0.696489 0.149825
vn 0.701752 0.696489 0.149825
vn 0.701752 0.696489 0.149825
vn 0.730553 0.633610 0.254619
vn 0.730553 0.633610 0.254619
vn 0.730553 0.633610 0.254619
vn 0.722687 0.601138 0.341112
vn 0.722687 0.601138 0.341112
vn 0.722687 0.601138 0.341112
vn 0.014215 -0.999814 -0.013052
vn -0.029268 -0.999424 0.017172
vn -0.004314 -0.999991 -0.000174
vn 0.513247 0.648514 0.562146
vn 0.381617 0.658771 0.648374
vn 0.808244 0.533621 0.248977
vn -0.507876 0.847934 0.151887
vn -0.507876 0.847934 0.151887
vn -0.507876 0.847934 0.151887
vn -0.496529 0.854784 0.151005
vn -0.496529 0.854784 0.151005
vn -0.496529 0.854784 0.151005
vn -0.956868 0.274308 0.095705
vn -0.956868 0.274308 0.095705
vn -0.956868 0.274308 0.095705
vn -0.453607 0.883208 0.119097
vn -0.453607 0.883208 0.119097
vn -0.453607 0.883208 0.119097
vn -0.847750 0.527783 0.052580
vn -0.847750 0.527783 0.052580
vn -0.847750 0.527783 0.052580
vn 0.428658 0.886287 0.175349
vn 0.428658 0.886287 0.175349
vn 0.428658 0.886287 0.175349
vn 0.495275 0.868736 -0.000382
vn 0.495275 0.868736 -0.000382
vn 0.495275 0.868736 -0.000382
vn -0.327406 0.938971 0.105539
vn -0.327407 0.938971 0.105539
vn -0.327407 0.938971 0.105539
vn 0.205950 0.968821 0.137735
vn 0.205950 0.968821 0.137735
vn 0.205950 0.968821 0.137735
vn -0.393027 0.918073 0.051690
vn -0.393027 0.918073 0.051690
vn -0.393027 0.918073 0.051690
vn -0.168810 0.985450 0.019777
vn -0.168810 0.985450 0.019777
vn -0.168810 0.985450 0.019777
vn -0.791076 0.611663 -0.008164
vn -0.791076 0.611663 -0.008164
vn -0.791076 0.611663 -0.008164
vn -0.568255 0.810802 0.140305
vn -0.568255 0.810802 0.140305
vn -0.568255 0.810803 0.140305
vn 0.513247 0.648514 0.562146
vn 0.051649 0.621194 0.781953
vn 0.381617 0.658771 0.648374
vn -0.004314 -0.999991 -0.000174
vn -0.029268 -0.999424 0.017172
vn -0.138946 -0.985881 0.093445
vn 0.741638 0.616684 0.263956
vn 0.741638 0.616684 0.263956
vn 0.741638 0.616684 0.263956
s off
f 60/1/1 80/2/2 16/3/3
f 42/4/4 16/3/5 19/5/6
f 19/5/7 16/3/8 80/2/9
f 45/6/10 42/4/11 19/5/12
f 44/7/13 16/3/14 42/4/15
f 43/8/16 44/7/17 47/9/18
f 17/10/19 44/7/20 43/8/21
f 45/6/22 47/9/23 44/7/24
f 45/6/25 44/7/26 42/4/27
f 1/11/28 65/12/29 43/8/30
f 17/10/31 43/8/32 65/12/33
f 69/13/34 47/9/35 45/6/36
f 69/13/37 46/14/38 8/15/39
f 1/11/40 43/8/41 47/9/42
f 1/11/43 47/9/44 48/16/45
f 48/16/46 47/9/47 69/13/48
f 8/15/49 48/16/50 69/13/51
f 49/17/52 50/18/53 8/15/54
f 8/15/55 50/18/56 48/16/57
f 49/17/58 51/19/59 50/18/60
f 9/20/61 50/18/62 51/19/63
f 49/17/64 52/21/65 53/22/66
f 3/23/67 53/22/68 52/21/69
f 3/23/70 52/21/71 46/14/72
f 46/14/73 52/21/74 8/15/75
f 8/15/76 52/21/77 49/17/78
f 9/20/79 51/19/80 18/24/81
f 53/22/82 51/19/83 49/17/84
f 3/23/85 71/25/86 53/22/87
f 72/26/88 53/22/89 71/25/90
f 53/22/91 54/27/92 51/19/93
f 72/26/94 54/27/95 53/22/96
f 18/24/97 51/19/98 54/27/99
f 72/26/100 55/28/101 54/27/102
f 59/29/103 58/30/104 56/31/105
f 55/28/106 57/32/107 58/30/108
f 58/30/109 57/32/110 56/31/111
f 55/28/112 58/30/113 54/27/114
f 18/24/115 54/27/116 59/29/117
f 54/27/118 58/30/119 59/29/120
f 44/7/121 56/31/122 57/32/123
f 57/32/124 60/1/125 44/7/126
f 44/7/127 60/1/128 16/3/129
f 55/28/130 60/1/131 57/32/132
f 62/33/133 61/34/134 38/35/135
f 11/36/136 61/34/137 62/33/138
f 2/37/139 10/38/140 11/36/141
f 10/38/142 61/34/143 11/36/144
f 25/39/145 62/33/146 38/35/147
f 11/36/148 62/33/149 63/40/150
f 25/39/151 63/40/152 62/33/153
f 18/24/154 59/29/155 64/41/156
f 18/24/157 64/41/158 9/20/159
f 59/29/160 56/31/161 64/41/162
f 48/16/163 50/18/164 79/42/165
f 64/41/166 79/42/167 9/20/168
f 9/20/169 79/42/170 50/18/171
f 65/12/172 79/42/173 64/41/174
f 1/11/175 48/16/176 65/12/177
f 65/12/178 48/16/179 79/42/180
f 65/12/181 56/31/182 17/10/183
f 17/10/184 56/31/185 44/7/186
f 64/41/187 56/31/188 65/12/189
f 60/1/190 23/43/191 80/2/192
f 23/43/193 66/44/194 80/2/195
f 19/5/196 80/2/197 66/44/198
f 20/45/199 70/46/200 19/5/201
f 45/6/202 19/5/203 70/46/204
f 35/47/205 67/48/206 66/44/207
f 19/5/208 66/44/209 20/45/210
f 20/45/211 66/44/212 67/48/213
f 4/49/214 20/45/215 67/48/216
f 69/13/217 12/50/218 46/14/219
f 21/51/220 68/52/221 12/50/222
f 46/14/223 12/50/224 3/23/225
f 3/23/226 12/50/227 68/52/228
f 5/53/229 75/54/230 12/50/231
f 21/51/232 12/50/233 75/54/234
f 5/53/235 12/50/236 28/55/237
f 28/55/238 12/50/239 29/56/240
f 22/57/241 70/46/242 20/45/243
f 45/6/244 70/46/245 69/13/246
f 69/13/247 70/46/248 29/56/249
f 22/57/250 29/56/251 70/46/252
f 12/50/253 69/13/254 29/56/255
f 4/49/256 22/57/257 20/45/258
f 68/52/259 72/26/260 71/25/261
f 55/28/262 74/58/263 76/59/264
f 76/59/265 74/58/266 73/60/267
f 72/26/268 74/58/269 55/28/270
f 6/61/271 73/60/272 74/58/273
f 6/61/274 74/58/275 13/62/276
f 13/62/277 74/58/278 68/52/279
f 68/52/280 74/58/281 72/26/282
f 75/54/283 13/62/284 21/51/285
f 21/51/286 13/62/287 68/52/288
f 3/23/289 68/52/290 71/25/291
f 76/59/292 73/60/293 81/63/294
f 73/60/295 6/61/296 81/63/297
f 55/28/298 76/59/299 60/1/300
f 81/63/301 23/43/302 76/59/303
f 60/1/304 76/59/305 23/43/306
f 81/63/307 6/61/308 77/64/309
f 81/63/310 77/64/311 23/43/312
f 23/43/313 77/64/314 66/44/315
f 35/47/316 66/44/317 78/65/318
f 77/64/319 78/65/320 66/44/321
f 82/66/322 67/48/323 35/47/324
f 15/67/325 26/68/326 67/48/327
f 4/49/328 67/48/329 26/68/330
f 4/49/331 26/68/332 14/69/333
f 15/67/334 27/70/335 26/68/336
f 14/69/337 26/68/338 27/70/339
f 15/67/340 67/48/341 82/66/342
f 14/69/343 29/56/344 4/49/345
f 4/49/346 29/56/347 22/57/348
f 24/71/349 28/55/350 29/56/351
f 14/69/352 24/71/353 29/56/354
f 27/70/355 24/71/356 14/69/357
f 31/72/358 33/73/359 13/62/360
f 6/61/361 13/62/362 33/73/363
f 31/72/364 30/74/365 33/73/366
f 34/75/367 33/73/368 30/74/369
f 7/76/370 31/72/371 5/53/372
f 5/53/373 31/72/374 75/54/375
f 13/62/376 75/54/377 31/72/378
f 37/77/379 30/74/380 31/72/381
f 37/77/382 31/72/383 7/76/384
f 24/71/385 32/78/386 28/55/387
f 5/53/388 28/55/389 7/76/390
f 7/76/391 28/55/392 32/78/393
f 7/76/394 32/78/395 24/71/396
f 6/61/397 33/73/398 77/64/399
f 77/64/400 33/73/401 78/65/402
f 34/75/403 78/65/404 33/73/405
f 34/75/406 35/47/407 78/65/408
f 40/79/409 35/47/410 34/75/411
f 37/77/412 40/79/413 30/74/414
f 30/74/415 40/79/416 34/75/417
f 15/67/418 82/66/419 36/80/420
f 2/37/421 36/80/422 10/38/423
f 10/38/424 36/80/425 82/66/426
f 2/37/427 27/70/428 36/80/429
f 15/67/430 36/80/431 27/70/432
f 27/70/433 83/83/434 24/71/435
f 11/36/436 83/83/437 2/37/438
f 7/76/439 39/81/440 37/77/441
f 7/76/442 24/71/443 39/81/444
f 39/81/445 63/40/446 25/39/447
f 24/71/448 63/40/449 39/81/450
f 25/39/451 38/35/452 39/81/453
f 40/79/454 82/66/455 35/47/456
f 10/38/457 82/66/458 40/79/459
f 37/77/460 41/82/461 40/79/462
f 10/38/463 40/79/464 61/34/465
f 40/79/466 41/82/467 61/34/468
f 38/35/469 61/34/470 41/82/471
f 38/35/472 41/82/473 39/81/474
f 39/81/475 41/82/476 37/77/477
f 11/36/478 63/40/479 83/83/480
f 24/71/481 83/83/482 63/40/483
f 2/37/484 83/83/485 27/70/486
