# This file uses centimeters as units for non-parametric coordinates.

v 0.000000 643.126038 -243.925659
v 0.000000 640.885803 -114.701111
v 0.000000 649.137268 -384.486328
v 0.000000 649.137207 -500.000000
v 0.000000 569.972412 -500.000000
v 0.000000 577.911377 -386.437500
v 0.000000 569.972412 -111.556580
v 0.000000 569.972412 0.000000
v 0.000000 649.137268 0.000000
v 500.000000 649.137268 0.000000
v 500.000000 569.972412 0.000000
v 500.000000 569.972412 -111.556580
v 500.000000 577.911377 -386.437500
v 500.000000 569.972412 -500.000000
v 500.000000 649.137207 -500.000000
v 500.000000 649.137268 -384.486328
v 500.000000 643.126038 -243.925659
v 500.000000 640.885803 -114.701111
v 0.000000 575.302429 -298.319702
v 500.000000 575.302429 -298.319702
v 0.000000 572.138000 -188.572327
v 500.000000 572.138000 -188.572388
v 500.000000 0.000000 -500.000000
v 500.000000 0.000000 0.000000
v 500.000000 -101.998093 0.000000
v 500.000000 -101.998093 -500.000000
v 237.703308 -101.998108 -500.000000
v 313.253235 -101.998108 0.000000
v 276.760986 -101.998108 -240.232422
v 247.958740 -101.998108 -112.000000
v 299.745422 -101.998108 -399.845703
v 247.958740 0.000006 -112.000000
v 313.253235 0.000005 0.000000
v 299.745422 -0.000001 -399.845703
v 276.760986 0.000003 -250.000000
v 237.703308 0.000008 -500.000000
v 484.256042 0.000004 -312.500000
v 484.255981 0.000004 -187.500000
v 500.000000 0.000004 -187.500000
v 500.000000 0.000004 -312.500000
v 500.000000 0.000004 -62.500000
v 484.255981 0.000004 -62.500000
v 484.255981 0.000004 -437.500000
v 500.000000 0.000004 -437.500000
v 0.000000 0.000000 -500.000000
v 0.000000 0.000000 0.000000
v 0.000000 -101.998093 0.000000
v 0.000000 -101.998093 -500.000000
v 15.743958 0.000004 -312.500000
v 15.743958 0.000004 -187.500000
v 0.000000 0.000004 -187.500000
v 0.000000 0.000004 -312.500000
v 0.000000 0.000004 -62.500000
v 15.743958 0.000004 -62.500000
v 15.743958 0.000004 -437.500000
v 0.000000 0.000004 -437.500000
vt 0.033752 0.005623
vt 0.033752 0.005623
vt 0.033752 0.005623
vt 0.033752 0.005623
vt 0.033752 0.005623
vt 0.033752 0.005623
vt 0.033752 0.005623
vt 0.033752 0.005623
vt 0.033752 0.005623
vt 0.033752 0.005623
vt 0.033752 0.005623
vt 0.033752 0.005623
vt 0.033752 0.005623
vt 0.033752 0.005623
vt 0.033752 0.005623
vt 0.033752 0.005623
vt 0.033752 0.005623
vt 0.033752 0.005623
vt 0.033752 0.005623
vt 0.033752 0.005623
vt 0.033752 0.005623
vt 0.033752 0.005623
vt 0.033752 0.005623
vt 0.033752 0.005623
vt 0.033748 0.005623
vt 0.033752 0.005623
vt 0.033752 0.005623
vt 0.033748 0.005623
vt 0.033752 0.005623
vt 0.033752 0.005625
vt 0.033748 0.005625
vt 0.033748 0.005625
vt 0.033752 0.005625
vt 0.047261 0.662560
vt 0.018212 0.628098
vt 0.045435 0.389586
vt 0.018212 0.395296
vt 0.018212 0.860898
vt 0.048581 0.860898
vt 0.018212 0.977299
vt 0.018212 0.046094
vt 0.048581 0.162495
vt 0.018212 0.162495
vt 0.982650 0.235623
vt 0.982650 0.511697
vt 0.982650 0.771015
vt 0.982650 0.977299
vt 0.069402 0.003988
vt 0.069402 0.003988
vt 0.069402 0.003988
vt 0.069402 0.003988
vt 0.069402 0.003988
vt 0.069402 0.003988
vt 0.069402 0.003988
vt 0.069402 0.003988
vt 0.982650 0.046094
vt 0.020088 0.032143
vt 0.020088 0.032141
vt 0.020088 0.032141
vt 0.020088 0.032143
vt 0.020088 0.032141
vt 0.020088 0.032141
vt 0.020088 0.032141
vt 0.020088 0.032141
vt 0.033752 0.005623
vt 0.033748 0.005623
vt 0.033752 0.005623
vt 0.033748 0.005623
vt 0.033752 0.005623
vt 0.033752 0.005623
vt 0.033752 0.005623
vt 0.033748 0.005625
vt 0.033752 0.005625
vt 0.033752 0.005625
vt 0.033748 0.005625
vt 0.047261 0.662560
vt 0.045435 0.389586
vt 0.018212 0.628098
vt 0.018212 0.395296
vt 0.018212 0.860898
vt 0.018212 0.977299
vt 0.048581 0.860898
vt 0.018212 0.046094
vt 0.018212 0.162495
vt 0.048581 0.162495
vt 0.982650 0.511697
vt 0.982650 0.235623
vt 0.982650 0.977299
vt 0.982650 0.771015
vt 0.069402 0.003988
vt 0.069402 0.003988
vt 0.069402 0.003988
vt 0.069402 0.003988
vt 0.069402 0.003988
vt 0.069402 0.003988
vt 0.069402 0.003988
vt 0.069402 0.003988
vt 0.982650 0.046094
vt 0.020088 0.032143
vt 0.020088 0.032141
vt 0.020088 0.032141
vt 0.020088 0.032143
vt 0.020088 0.032141
vt 0.020088 0.032141
vt 0.020088 0.032141
vt 0.020088 0.032141
vn -1.000000 0.000000 0.000000
vn -1.000000 0.000000 0.000000
vn -1.000000 0.000000 0.000000
vn -1.000000 0.000000 0.000000
vn 0.000000 0.000000 1.000000
vn 0.000000 0.000000 1.000000
vn 0.000000 0.000000 1.000000
vn 0.000000 0.000000 1.000000
vn 0.000000 -1.000000 0.000000
vn 0.000000 -1.000000 0.000000
vn 0.000000 -1.000000 0.000000
vn 0.000000 -1.000000 0.000000
vn -0.000000 -0.999605 -0.028107
vn -0.000000 -0.999605 -0.028107
vn -0.000000 -0.999605 -0.028107
vn -0.000000 -0.999605 -0.028107
vn -0.000000 -0.999585 -0.028822
vn -0.000000 -0.999585 -0.028822
vn -0.000000 -0.999585 -0.028822
vn -0.000000 -0.999585 -0.028822
vn 0.000000 -0.997565 0.069738
vn 0.000000 -0.997565 0.069738
vn 0.000000 -0.997565 0.069738
vn 0.000000 -0.997565 0.069738
vn 0.000000 0.000000 -1.000000
vn 0.000000 0.000000 -1.000000
vn 0.000000 0.000000 -1.000000
vn 0.000000 0.000000 -1.000000
vn 0.000000 1.000000 -0.000001
vn 0.000000 1.000000 -0.000001
vn 0.000000 1.000000 -0.000001
vn 0.000000 1.000000 -0.000001
vn 0.000000 0.999087 0.042727
vn 0.000000 0.999087 0.042727
vn 0.000000 0.999087 0.042727
vn 0.000000 0.999087 0.042727
vn 0.000000 0.999850 0.017334
vn 0.000000 0.999850 0.017334
vn 0.000000 0.999850 0.017334
vn 0.000000 0.999850 0.017334
vn 0.000000 0.997423 -0.071753
vn 0.000000 0.997423 -0.071753
vn 0.000000 0.997423 -0.071753
vn 0.000000 0.997423 -0.071753
vn 0.000000 -0.999562 -0.029594
vn 0.000000 -0.999562 -0.029594
vn 0.000000 -0.999562 -0.029594
vn 0.000000 -0.999562 -0.029594
vn -1.000000 0.000000 0.000000
vn -1.000000 0.000000 0.000000
vn -1.000000 0.000000 0.000000
vn -1.000000 0.000000 0.000000
vn -1.000000 0.000000 0.000000
vn -1.000000 0.000000 0.000000
vn -1.000000 0.000000 0.000000
vn -1.000000 0.000000 0.000000
vn -1.000000 0.000000 0.000000
vn -1.000000 0.000000 0.000000
vn -1.000000 0.000000 0.000000
vn -1.000000 0.000000 0.000000
vn -1.000000 0.000000 0.000000
vn -1.000000 0.000000 0.000000
vn -1.000000 0.000000 0.000000
vn 1.000000 0.000000 0.000000
vn 1.000000 0.000000 0.000000
vn 1.000000 0.000000 0.000000
vn 1.000000 0.000000 0.000000
vn 1.000000 0.000000 0.000000
vn 1.000000 0.000000 0.000000
vn 1.000000 0.000000 0.000000
vn 1.000000 0.000000 0.000000
vn 1.000000 0.000000 0.000000
vn 1.000000 0.000000 0.000000
vn 1.000000 0.000000 0.000000
vn 1.000000 0.000000 0.000000
vn 1.000000 0.000000 0.000000
vn 1.000000 0.000000 0.000000
vn 1.000000 0.000000 0.000000
vn 1.000000 -0.000001 0.000000
vn 1.000000 -0.000001 0.000000
vn 1.000000 -0.000001 0.000000
vn 1.000000 0.000000 0.000000
vn 1.000000 0.000000 0.000000
vn 1.000000 0.000000 0.000000
vn 0.000000 -1.000000 0.000000
vn 0.000000 -1.000000 0.000000
vn 0.000000 -1.000000 0.000000
vn 0.000000 -1.000000 0.000000
vn 0.000000 -1.000000 0.000000
vn 0.000000 -1.000000 0.000000
vn 0.000000 -1.000000 0.000000
vn 0.000000 -1.000000 0.000000
vn 0.000000 -1.000000 0.000000
vn 0.000000 -1.000000 0.000000
vn 0.000000 -1.000000 0.000000
vn 0.000000 -1.000000 0.000000
vn 0.000000 -1.000000 0.000000
vn 0.000000 0.000000 -1.000000
vn 0.000000 0.000000 -1.000000
vn 0.000000 0.000000 -1.000000
vn 0.000000 0.000000 -1.000000
vn 0.000000 0.000000 1.000000
vn 0.000000 0.000000 1.000000
vn 0.000000 0.000000 1.000000
vn 0.000000 0.000000 1.000000
vn 0.000000 1.000000 -0.000000
vn 0.000000 1.000000 -0.000000
vn 0.000000 1.000000 -0.000000
vn 0.000000 1.000000 0.000000
vn 0.000000 1.000000 0.000000
vn 0.000000 1.000000 0.000000
vn 0.000000 1.000000 0.000000
vn 0.000000 1.000000 0.000000
vn 0.000000 1.000000 0.000000
vn 0.000000 1.000000 -0.000000
vn 0.000000 1.000000 -0.000000
vn 0.000000 1.000000 -0.000000
vn -0.000000 1.000000 -0.000000
vn -0.000000 1.000000 -0.000000
vn -0.000000 1.000000 -0.000000
vn -0.000000 1.000000 0.000000
vn -0.000000 1.000000 0.000000
vn -0.000000 1.000000 0.000000
vn 0.000000 1.000000 0.000000
vn 0.000000 1.000000 0.000000
vn 0.000000 1.000000 0.000000
vn 0.000000 1.000000 0.000000
vn 0.000000 1.000000 0.000000
vn 0.000000 1.000000 0.000000
vn -0.000000 1.000000 -0.000000
vn -0.000000 1.000000 -0.000000
vn -0.000000 1.000000 -0.000000
vn 0.000000 1.000000 0.000000
vn 0.000000 1.000000 0.000000
vn 0.000000 1.000000 0.000000
vn 0.000000 1.000000 0.000000
vn 0.000000 1.000000 0.000000
vn 0.000000 1.000000 0.000000
vn 0.000000 1.000000 0.000000
vn 0.000000 1.000000 0.000000
vn 0.000000 1.000000 0.000000
vn 0.000000 1.000000 0.000000
vn 0.000000 1.000000 0.000000
vn 0.000000 1.000000 0.000000
vn 0.000000 1.000000 -0.000000
vn 0.000000 1.000000 -0.000000
vn 0.000000 1.000000 -0.000000
vn -0.000000 1.000000 0.000000
vn -0.000000 1.000000 0.000000
vn -0.000000 1.000000 0.000000
vn 0.000000 1.000000 -0.000000
vn 0.000000 1.000000 -0.000000
vn 0.000000 1.000000 -0.000000
vn 0.000000 1.000000 0.000000
vn 0.000000 1.000000 0.000000
vn 0.000000 1.000000 0.000000
vn 1.000000 0.000000 0.000000
vn 1.000000 0.000000 0.000000
vn 1.000000 0.000000 0.000000
vn 1.000000 0.000000 0.000000
vn 1.000000 0.000000 0.000000
vn 1.000000 0.000000 0.000000
vn 1.000000 0.000000 0.000000
vn 1.000000 0.000000 0.000000
vn 1.000000 0.000000 0.000000
vn 1.000000 0.000000 0.000000
vn 1.000000 0.000000 0.000000
vn 1.000000 0.000000 0.000000
vn 1.000000 0.000000 0.000000
vn 1.000000 0.000000 0.000000
vn 1.000000 0.000000 0.000000
vn 1.000000 0.000000 0.000000
vn -0.000000 -1.000000 0.000000
vn -0.000000 -1.000000 0.000000
vn -0.000000 -1.000000 0.000000
vn -0.000000 -1.000000 -0.000000
vn -0.000000 -1.000000 -0.000000
vn -0.000000 -1.000000 -0.000000
vn -0.000000 -1.000000 -0.000000
vn -0.000000 -1.000000 0.000000
vn -0.000000 -1.000000 0.000000
vn -0.000000 -1.000000 0.000000
vn -0.000000 -1.000000 0.000000
vn -0.000000 -1.000000 0.000000
vn -0.000000 -1.000000 0.000000
vn 0.000000 0.000000 -1.000000
vn 0.000000 0.000000 -1.000000
vn 0.000000 0.000000 -1.000000
vn 0.000000 0.000000 -1.000000
vn 0.000000 0.000000 1.000000
vn 0.000000 0.000000 1.000000
vn 0.000000 0.000000 1.000000
vn 0.000000 0.000000 1.000000
vn 0.000000 1.000000 0.000000
vn 0.000000 1.000000 0.000000
vn 0.000000 1.000000 0.000000
vn 0.000000 1.000000 0.000000
vn 0.000000 1.000000 0.000000
vn 0.000000 1.000000 0.000000
vn 0.000000 1.000000 0.000000
vn 0.000000 1.000000 0.000000
vn 0.000000 1.000000 0.000000
vn 0.000000 1.000000 -0.000000
vn 0.000000 1.000000 -0.000000
vn 0.000000 1.000000 -0.000000
vn 0.000000 1.000000 -0.000000
vn 0.000000 1.000000 -0.000000
vn 0.000000 1.000000 -0.000000
vn 0.000000 1.000000 0.000000
vn 0.000000 1.000000 0.000000
vn 0.000000 1.000000 0.000000
vn -0.000000 1.000000 0.000000
vn -0.000000 1.000000 0.000000
vn -0.000000 1.000000 0.000000
vn -0.000000 1.000000 0.000000
vn -0.000000 1.000000 0.000000
vn -0.000000 1.000000 0.000000
vn 0.000000 1.000000 0.000000
vn 0.000000 1.000000 0.000000
vn 0.000000 1.000000 0.000000
vn 0.000000 1.000000 0.000000
vn 0.000000 1.000000 0.000000
vn 0.000000 1.000000 0.000000
vn 0.000000 1.000000 0.000000
vn 0.000000 1.000000 0.000000
vn 0.000000 1.000000 0.000000
vn 0.000000 1.000000 0.000000
vn 0.000000 1.000000 0.000000
vn 0.000000 1.000000 0.000000
vn 0.000000 1.000000 0.000000
vn 0.000000 1.000000 0.000000
vn 0.000000 1.000000 0.000000
vn -0.000000 1.000000 -0.000000
vn -0.000000 1.000000 -0.000000
vn -0.000000 1.000000 -0.000000
vn 0.000000 1.000000 0.000000
vn 0.000000 1.000000 0.000000
vn 0.000000 1.000000 0.000000
vn -0.000000 1.000000 -0.000000
vn -0.000000 1.000000 -0.000000
vn -0.000000 1.000000 -0.000000
vn -0.000000 1.000000 0.000000
vn -0.000000 1.000000 0.000000
vn -0.000000 1.000000 0.000000
vn -1.000000 0.000000 0.000000
vn -1.000000 0.000000 0.000000
vn -1.000000 0.000000 0.000000
vn -1.000000 0.000000 0.000000
vn -1.000000 0.000000 0.000000
vn -1.000000 0.000000 0.000000
vn -1.000000 0.000000 0.000000
vn -1.000000 0.000000 0.000000
vn -1.000000 0.000000 0.000000
vn -1.000000 0.000000 0.000000
vn -1.000000 0.000000 0.000000
vn -1.000000 0.000000 0.000000
vn -1.000000 0.000000 0.000000
vn -1.000000 0.000000 0.000000
vn -1.000000 0.000000 0.000000
vn -1.000000 0.000000 0.000000
s off
f 6/6/1 3/3/2 4/4/3 5/5/4
f 11/11/5 10/10/6 9/9/7 8/8/8
f 12/12/9 11/11/10 8/8/11 7/7/12
f 22/22/13 12/12/14 7/7/15 21/21/16
f 19/19/17 20/20/18 22/22/19 21/21/20
f 14/14/21 13/13/22 6/6/23 5/5/24
f 15/15/25 14/14/26 5/5/27 4/4/28
f 16/16/29 15/15/30 4/4/31 3/3/32
f 17/17/33 16/16/34 3/3/35 1/2/36
f 18/18/37 17/17/38 1/2/39 2/1/40
f 10/10/41 18/18/42 2/1/43 9/9/44
f 13/13/45 20/20/46 19/19/47 6/6/48
f 19/19/49 1/2/50 3/3/51 6/6/52
f 2/1/53 1/2/54 21/21/55 7/7/56
f 21/21/57 1/2/58 19/19/59
f 2/1/60 7/7/61 8/8/62 9/9/63
f 16/16/64 13/13/65 14/14/66 15/15/67
f 12/12/68 18/18/69 10/10/70 11/11/71
f 22/22/72 17/17/73 18/18/74 12/12/75
f 17/17/76 20/20/77 16/16/78
f 22/22/79 20/20/80 17/17/81
f 16/16/82 20/20/83 13/13/84
f 28/23/85 30/24/86 25/25/87
f 25/25/88 29/26/89 31/27/90 26/28/91
f 25/25/92 30/24/93 29/26/94
f 26/28/95 31/27/96 27/29/97
f 27/29/98 36/30/99 23/31/100 26/28/101
f 28/23/102 25/25/103 24/32/104 33/33/105
f 38/34/106 39/35/107 37/36/108
f 39/35/109 40/37/110 37/36/111
f 41/38/112 42/39/113 24/40/114
f 23/41/115 43/42/116 44/43/117
f 43/42/118 34/44/119 35/45/120
f 37/36/121 43/42/122 35/45/123
f 38/34/124 32/46/125 33/47/126
f 33/47/127 42/39/128 38/34/129
f 37/36/130 35/45/131 38/34/132
f 38/48/133 41/49/134 39/50/135
f 42/51/136 41/49/137 38/48/138
f 37/52/139 44/53/140 43/54/141
f 37/52/142 40/55/143 44/53/144
f 35/45/145 32/46/146 38/34/147
f 36/56/148 34/44/149 43/42/150
f 36/56/151 43/42/152 23/41/153
f 24/40/154 42/39/155 33/47/156
f 25/57/157 41/58/158 24/59/159
f 26/60/160 23/61/161 44/62/162
f 25/57/163 39/63/164 41/58/165
f 25/57/166 26/60/167 40/64/168 39/63/169
f 26/60/170 44/62/171 40/64/172
f 28/65/173 47/66/174 30/67/175
f 47/66/176 48/68/177 31/69/178 29/70/179
f 47/66/180 29/70/181 30/67/182
f 48/68/183 27/71/184 31/69/185
f 27/71/186 48/68/187 45/72/188 36/73/189
f 28/65/190 33/74/191 46/75/192 47/66/193
f 50/76/194 49/77/195 51/78/196
f 51/78/197 49/77/198 52/79/199
f 53/80/200 46/81/201 54/82/202
f 45/83/203 56/84/204 55/85/205
f 55/85/206 35/86/207 34/87/208
f 49/77/209 35/86/210 55/85/211
f 50/76/212 33/88/213 32/89/214
f 33/88/215 50/76/216 54/82/217
f 49/77/218 50/76/219 35/86/220
f 50/90/221 51/91/222 53/92/223
f 54/93/224 50/90/225 53/92/226
f 49/94/227 55/95/228 56/96/229
f 49/94/230 56/96/231 52/97/232
f 35/86/233 50/76/234 32/89/235
f 36/98/236 55/85/237 34/87/238
f 36/98/239 45/83/240 55/85/241
f 46/81/242 33/88/243 54/82/244
f 47/99/245 46/100/246 53/101/247
f 48/102/248 56/103/249 45/104/250
f 47/99/251 53/101/252 51/105/253
f 47/99/254 51/105/255 52/106/256 48/102/257
f 48/102/258 52/106/259 56/103/260
