# This file uses centimeters as units for non-parametric coordinates.

v 500.000000 0.000000 0.000000
v 500.000000 -0.000000 -500.000000
v 0.000000 0.000000 0.000000
v 0.000000 -0.000000 -500.000000
v 500.000000 6.969643 -67.378235
v 0.000000 6.969643 -67.378235
v 500.000000 6.969643 -102.305603
v 0.000000 6.969643 -102.306366
v 500.000000 -23.029518 -58.744812
v 0.000000 -23.029518 -58.744812
v 500.000000 -0.000000 -107.377625
v 0.000000 -0.000000 -107.378387
v 500.000000 -5.417299 -8.034420
v 0.000000 -5.417299 -8.034420
v 0.000000 -8.353806 -26.542473
v 500.000000 -8.353806 -26.542473
v 289.251709 -0.000000 0.000000
v 291.195679 -7.730579 -14.574718
v 287.893677 -8.353806 -21.887970
v 265.042114 -11.722279 -52.015686
v 243.826294 6.969643 -71.434021
v 239.213562 5.490875 -130.216980
v 248.666382 -0.000000 -500.000000
v 493.313599 6.969643 -102.305603
v 493.151855 6.969643 -67.378235
v 494.802856 -23.029518 -58.744812
v 495.529175 -8.353806 -26.542473
v 495.529175 -5.417299 -8.034420
v 3.359365 6.969643 -102.306366
v 3.359365 6.969643 -67.378235
v 3.359365 -23.029518 -58.744812
v 3.359365 -8.353806 -26.542473
v 3.359365 -5.417299 -8.034420
v 124.333191 -0.000000 -500.000000
v 374.334717 -0.000000 -500.000000
v 54.685593 2.775741 -439.096069
v 133.613586 2.268243 -417.257690
v 245.054626 0.710356 -461.666870
v 402.615356 -4.870749 -400.454712
v 447.787476 0.117628 -434.988403
v 421.371460 0.117628 -153.318787
v 325.100708 5.379152 -168.032837
v 224.458313 0.117628 -182.566833
v 162.040710 -1.600274 -195.259094
v 52.300262 0.117628 -157.853699
v 33.222961 0.117628 -291.519165
v 134.922791 1.411641 -297.927856
v 256.010437 2.051866 -305.209351
v 349.145508 -6.649971 -301.046753
v 466.006470 0.117628 -291.519165
v 98.579407 0.305855 -236.218262
v 379.092407 4.369879 -226.675415
v 123.593140 6.969643 -75.974274
v 128.096008 6.969643 -104.334259
v 97.351074 -0.000000 -109.970856
v 267.047119 -15.296745 -41.243744
v 120.095062 -8.494568 -54.951096
v 120.907593 -13.108635 -39.017868
v 128.012085 -8.029938 -65.164185
v 243.826294 -8.029938 -67.118073
v 402.667236 -23.029518 -60.234070
v 171.290588 -11.135864 -51.092911
v 240.319824 -11.470985 -55.861664
v 205.999756 -11.708450 -48.630142
v 400.491333 6.969643 -103.815460
v 437.390137 -0.000000 -109.202576
v 328.765869 6.969643 -81.546783
v 243.826294 6.969643 -86.935425
v 46.135330 -0.000000 -111.771393
v 372.576904 6.969643 -72.080231
v 436.563110 1.080418 -121.788025
v 397.961426 10.121536 -109.430695
v 326.947021 15.119934 -90.241241
v 243.846130 15.414143 -93.348694
v 129.423523 7.853270 -108.264923
v 83.157349 4.615307 -118.972778
v 327.807617 6.083059 -134.292603
v 288.488770 -6.097937 -235.366821
v 196.340942 4.469872 -363.150024
v 320.962524 2.202988 -437.033081
v 85.692596 6.969643 -68.766785
v 125.399780 0.837588 -67.671967
v 148.672485 6.969643 -69.829559
v 401.245117 -4.615450 -66.156769
v 419.369507 6.969643 -71.792603
v 400.134277 6.969643 -78.948212
v 193.943787 5.424324 -292.926025
vt 0.065553 0.209957
vt 0.102497 0.279316
vt 0.102497 0.279316
vt 0.102497 0.279316
vt 0.102497 0.279316
vt 0.102497 0.279316
vt 0.102497 0.279316
vt 0.102497 0.279316
vt 0.102497 0.279316
vt 0.102497 0.279316
vt 0.102497 0.279316
vt 0.065553 0.209957
vt 0.102497 0.279316
vt 0.102497 0.279316
vt 0.102497 0.279316
vt 0.102497 0.279316
vt 0.065553 0.209957
vt 0.102497 0.279316
vt 0.102497 0.279316
vt 0.102497 0.279316
vt 0.102183 0.307564
vt 0.102463 0.276025
vt 0.102183 0.307564
vt 0.431671 0.178605
vt 0.431671 0.178605
vt 0.431393 0.178969
vt 0.065553 0.209957
vt 0.102183 0.307564
vt 0.102183 0.307564
vt 0.431393 0.178969
vt 0.102183 0.307564
vt 0.102183 0.307564
vt 0.102183 0.307564
vt 0.102183 0.307564
vt 0.102183 0.307564
vt 0.102183 0.307564
vt 0.102183 0.307564
vt 0.102183 0.307564
vt 0.065553 0.209957
vt 0.431393 0.178969
vt 0.102497 0.279316
vt 0.102497 0.279316
vt 0.102497 0.279316
vt 0.102497 0.279316
vt 0.102497 0.279316
vt 0.102497 0.279316
vt 0.102497 0.279316
vt 0.065553 0.209957
vt 0.102497 0.279316
vt 0.102183 0.307564
vt 0.065553 0.209957
vt 0.102497 0.279316
vt 0.102183 0.307564
vt 0.102183 0.307564
vt 0.102183 0.307564
vt 0.102183 0.307564
vt 0.102183 0.307564
vt 0.102183 0.307564
vt 0.102183 0.307564
vt 0.431393 0.178969
vt 0.102183 0.307564
vt 0.065553 0.209957
vt 0.102497 0.279316
vt 0.102497 0.279316
vt 0.102497 0.279316
vt 0.102497 0.279316
vt 0.102497 0.279316
vt 0.102497 0.279316
vt 0.102497 0.279316
vt 0.102497 0.279316
vt 0.102497 0.279316
vt 0.102497 0.279316
vt 0.431393 0.178969
vt 0.102497 0.279316
vt 0.431393 0.178969
vt 0.431671 0.178605
vt 0.431393 0.178969
vt 0.431671 0.178605
vt 0.431671 0.178605
vt 0.102183 0.307564
vt 0.102183 0.307564
vt 0.102463 0.276025
vt 0.102463 0.276025
vt 0.102183 0.307564
vt 0.102183 0.307564
vt 0.431393 0.178969
vt 0.431671 0.178605
vt 0.102183 0.307564
vt 0.102463 0.276025
vt 0.102497 0.279316
vt 0.431392 0.179002
vt 0.431392 0.179002
vt 0.431392 0.178993
vt 0.431392 0.178992
vt 0.431393 0.178969
vt 0.431393 0.178969
vt 0.431392 0.178992
vt 0.431392 0.178993
vt 0.431393 0.178981
vt 0.431393 0.178981
vt 0.431393 0.178969
vt 0.431393 0.178969
vt 0.431393 0.178981
vt 0.431393 0.178981
vt 0.431393 0.178987
vt 0.431393 0.178987
vt 0.431393 0.178969
vt 0.431393 0.178969
vt 0.431393 0.178987
vt 0.431393 0.178987
vt 0.431393 0.178984
vt 0.431393 0.178984
vt 0.102183 0.307564
vt 0.102183 0.307564
vt 0.102183 0.307564
vt 0.102183 0.307564
vt 0.102183 0.307564
vt 0.431393 0.178969
vt 0.102183 0.307564
vt 0.102183 0.307564
vt 0.102463 0.276025
vt 0.102463 0.276025
vt 0.102183 0.307564
vt 0.102183 0.307564
vt 0.102183 0.307564
vt 0.102183 0.307564
vt 0.102183 0.307564
vt 0.102183 0.307564
vt 0.102463 0.276025
vt 0.102463 0.276025
vt 0.102463 0.276025
vt 0.102463 0.276025
vt 0.102463 0.276025
vt 0.102183 0.307564
vt 0.102183 0.307564
vt 0.102183 0.307564
vt 0.431393 0.178969
vt 0.102183 0.307564
vt 0.102183 0.307564
vt 0.102183 0.307564
vt 0.102183 0.307564
vt 0.431393 0.178969
vt 0.102183 0.307564
vt 0.102183 0.307564
vt 0.431393 0.178970
vt 0.431671 0.178605
vt 0.431671 0.178605
vt 0.431671 0.178605
vt 0.431671 0.178605
vt 0.431671 0.178605
vt 0.431671 0.178605
vt 0.431671 0.178605
vt 0.431671 0.178605
vt 0.431393 0.178970
vt 0.431393 0.178970
vt 0.431393 0.178977
vt 0.431393 0.178979
vt 0.431393 0.178981
vt 0.102183 0.307564
vt 0.102183 0.307564
vt 0.102183 0.307564
vt 0.102183 0.307564
vt 0.102183 0.307564
vt 0.102183 0.307564
vt 0.102183 0.307564
vt 0.102183 0.307564
vt 0.102183 0.307564
vt 0.102183 0.307564
vt 0.431393 0.178979
vn -0.002237 0.864227 -0.503098
vn -0.002237 0.864227 -0.503098
vn -0.002237 0.864227 -0.503098
vn -0.002237 0.864227 -0.503098
vn 0.000000 1.000000 0.000000
vn 0.000000 1.000000 0.000000
vn 0.000000 1.000000 0.000000
vn 0.000000 1.000000 0.000000
vn 0.000000 1.000000 0.000000
vn -0.024927 0.747881 -0.663364
vn -0.024927 0.747881 -0.663364
vn -0.024927 0.747881 -0.663364
vn -0.024927 0.747881 -0.663364
vn 0.109355 0.810781 0.575044
vn 0.109355 0.810781 0.575044
vn 0.109355 0.810781 0.575044
vn 0.003552 0.990563 -0.137014
vn 0.003552 0.990563 -0.137014
vn 0.003552 0.990563 -0.137014
vn 0.003552 0.990563 -0.137014
vn 0.001956 0.999693 -0.024685
vn 0.001956 0.999693 -0.024685
vn 0.001956 0.999693 -0.024685
vn 0.001956 0.999693 -0.024685
vn 0.000000 0.829132 -0.559053
vn 0.000000 0.829132 -0.559053
vn 0.000000 0.829132 -0.559053
vn 0.000000 0.987646 -0.156701
vn 0.000000 0.987646 -0.156701
vn 0.000000 0.987646 -0.156701
vn 0.000000 0.987646 -0.156701
vn 0.000000 0.909959 -0.414699
vn 0.000000 0.909959 -0.414699
vn 0.000000 0.909959 -0.414699
vn 0.000000 0.909959 -0.414699
vn 0.000000 0.276564 0.960996
vn 0.000000 0.276564 0.960995
vn 0.000000 0.276564 0.960995
vn 0.000000 0.276564 0.960995
vn 0.000000 1.000000 0.000000
vn 0.000000 1.000000 0.000000
vn 0.000000 1.000000 0.000000
vn 0.000000 1.000000 0.000000
vn 0.000000 0.588414 -0.808560
vn 0.000000 0.588414 -0.808560
vn 0.000000 0.588414 -0.808560
vn 0.243767 0.953586 0.176783
vn 0.243767 0.953586 0.176783
vn 0.243767 0.953586 0.176783
vn 0.243767 0.953586 0.176783
vn 0.000000 1.000000 -0.000000
vn 0.000000 1.000000 -0.000000
vn 0.000000 1.000000 -0.000000
vn 0.163113 0.738273 0.654482
vn 0.163113 0.738273 0.654482
vn 0.163113 0.738273 0.654482
vn 0.006705 0.909881 -0.414816
vn 0.006705 0.909881 -0.414816
vn 0.006705 0.909881 -0.414816
vn -0.004941 0.990704 -0.135947
vn -0.004941 0.990704 -0.135947
vn -0.004941 0.990704 -0.135947
vn -0.004941 0.990704 -0.135947
vn 0.003108 0.864302 -0.502964
vn 0.003108 0.864302 -0.502964
vn 0.003108 0.864302 -0.502964
vn 0.003108 0.864302 -0.502964
vn 0.000000 0.588414 -0.808560
vn 0.000000 0.588414 -0.808560
vn 0.000000 0.588414 -0.808560
vn 0.000000 1.000000 0.000000
vn 0.000000 1.000000 0.000000
vn 0.000000 1.000000 0.000000
vn 0.000000 1.000000 0.000000
vn 0.000000 0.276564 0.960996
vn 0.000000 0.276564 0.960996
vn 0.000000 0.276564 0.960996
vn 0.000000 0.276564 0.960996
vn 0.000000 0.909958 -0.414699
vn 0.000000 0.909958 -0.414699
vn 0.000000 0.909958 -0.414699
vn 0.000000 0.909958 -0.414699
vn 0.000000 0.987646 -0.156701
vn 0.000000 0.987646 -0.156701
vn 0.000000 0.987646 -0.156701
vn 0.000000 0.987646 -0.156701
vn 0.000000 0.829133 -0.559052
vn 0.000000 0.829133 -0.559052
vn 0.000000 0.829133 -0.559052
vn 0.000000 0.999998 -0.001809
vn 0.000000 0.999998 -0.001809
vn 0.000000 0.999998 -0.001809
vn 0.000000 0.998963 -0.045528
vn 0.000000 0.998963 -0.045528
vn 0.000000 0.998963 -0.045528
vn 0.014456 0.999474 -0.029020
vn 0.014456 0.999474 -0.029020
vn 0.014456 0.999474 -0.029020
vn -0.059757 0.996048 0.065713
vn -0.059757 0.996048 0.065713
vn -0.059757 0.996048 0.065713
vn 0.000246 0.999997 0.002586
vn 0.000246 0.999997 0.002586
vn 0.000246 0.999997 0.002586
vn -0.007020 0.994948 -0.100144
vn -0.007020 0.994948 -0.100144
vn -0.007020 0.994948 -0.100144
vn -0.038854 0.995076 -0.091184
vn -0.038854 0.995076 -0.091184
vn -0.038854 0.995076 -0.091184
vn -0.100144 0.994892 0.012717
vn -0.100144 0.994892 0.012717
vn -0.100144 0.994892 0.012717
vn 0.001390 0.999833 0.018211
vn 0.001390 0.999833 0.018211
vn 0.001390 0.999833 0.018211
vn -0.003541 0.999994 0.000000
vn -0.003541 0.999994 0.000000
vn -0.003541 0.999994 0.000000
vn 0.001945 0.999998 -0.000247
vn 0.001945 0.999998 -0.000247
vn 0.001945 0.999998 -0.000247
vn -0.001977 0.999998 0.000282
vn -0.001977 0.999998 0.000282
vn -0.001977 0.999998 0.000282
vn -0.003276 0.999995 0.000468
vn -0.003276 0.999995 0.000468
vn -0.003276 0.999995 0.000468
vn -0.029189 0.999540 0.008255
vn -0.029189 0.999540 0.008255
vn -0.029189 0.999540 0.008255
vn 0.050133 0.998322 0.028975
vn 0.050133 0.998322 0.028975
vn 0.050133 0.998322 0.028975
vn 0.001259 0.999999 0.000406
vn 0.001259 0.999999 0.000406
vn 0.001259 0.999999 0.000406
vn 0.003460 0.999994 0.000000
vn 0.003460 0.999994 0.000000
vn 0.003460 0.999994 0.000000
vn -0.060831 0.998106 0.009131
vn -0.060831 0.998106 0.009131
vn -0.060831 0.998106 0.009131
vn -0.012262 0.999898 0.007312
vn -0.012262 0.999898 0.007312
vn -0.012262 0.999898 0.007312
vn 0.089893 0.993753 0.066138
vn 0.089893 0.993753 0.066138
vn 0.089893 0.993753 0.066138
vn -0.056780 0.998306 -0.012673
vn -0.056780 0.998306 -0.012673
vn -0.056780 0.998306 -0.012673
vn -0.097914 0.989407 -0.107177
vn -0.097914 0.989407 -0.107177
vn -0.097914 0.989407 -0.107177
vn -0.012040 0.999869 0.010826
vn -0.012040 0.999869 0.010826
vn -0.012040 0.999869 0.010826
vn 0.020618 0.999681 0.014577
vn 0.020618 0.999681 0.014577
vn 0.020618 0.999681 0.014577
vn 0.013378 0.999578 0.025790
vn 0.013378 0.999578 0.025790
vn 0.013378 0.999578 0.025790
vn 0.064309 0.997714 0.020770
vn 0.064309 0.997714 0.020770
vn 0.064309 0.997714 0.020770
vn -0.046945 0.990677 -0.127889
vn -0.046945 0.990677 -0.127889
vn -0.046945 0.990677 -0.127889
vn -0.149030 0.779624 0.608257
vn -0.149030 0.779624 0.608257
vn -0.149030 0.779624 0.608257
vn 0.000000 1.000000 0.000000
vn 0.000000 1.000000 0.000000
vn 0.000000 1.000000 0.000000
vn 0.000000 1.000000 0.000000
vn 0.000000 1.000000 0.000000
vn -0.224794 0.795950 0.562078
vn -0.224794 0.795950 0.562078
vn -0.224794 0.795950 0.562078
vn -0.224794 0.795950 0.562078
vn 0.006646 0.944972 -0.327083
vn 0.006646 0.944972 -0.327083
vn 0.006646 0.944972 -0.327083
vn 0.006646 0.944972 -0.327083
vn -0.127563 0.950931 0.281883
vn -0.127563 0.950931 0.281883
vn -0.127563 0.950931 0.281883
vn -0.007204 0.909935 -0.414689
vn -0.007204 0.909935 -0.414688
vn -0.007204 0.909935 -0.414689
vn -0.121828 0.991324 -0.049340
vn -0.121828 0.991324 -0.049340
vn -0.121828 0.991324 -0.049340
vn 0.088298 0.989106 0.117783
vn 0.088298 0.989106 0.117783
vn 0.088298 0.989106 0.117783
vn -0.015535 0.275741 0.961107
vn -0.015535 0.275741 0.961107
vn -0.015535 0.275741 0.961107
vn 0.095805 0.949938 0.297387
vn 0.095805 0.949938 0.297387
vn 0.095805 0.949938 0.297387
vn -0.008508 0.925140 -0.379532
vn -0.008508 0.925140 -0.379532
vn -0.008508 0.925140 -0.379532
vn 0.028704 0.960529 0.276694
vn 0.028704 0.960529 0.276694
vn 0.028704 0.960529 0.276694
vn 0.018913 0.951819 0.306077
vn 0.018913 0.951819 0.306077
vn 0.018913 0.951819 0.306077
vn 0.003465 0.978679 0.205366
vn 0.003465 0.978679 0.205366
vn 0.003465 0.978679 0.205366
vn 0.045311 0.995730 0.080424
vn 0.045311 0.995730 0.080424
vn 0.045311 0.995730 0.080424
vn -0.040391 0.946064 0.321452
vn -0.040391 0.946064 0.321452
vn -0.040391 0.946064 0.321452
vn 0.034131 0.980373 0.194175
vn 0.034131 0.980373 0.194175
vn 0.034131 0.980373 0.194175
vn -0.034190 0.958683 0.282416
vn -0.034190 0.958683 0.282416
vn -0.034190 0.958683 0.282416
vn 0.002036 0.979967 0.199148
vn 0.002036 0.979967 0.199148
vn 0.002036 0.979967 0.199148
vn 0.058422 0.949447 0.308442
vn 0.058422 0.949447 0.308442
vn 0.058422 0.949447 0.308442
vn 0.003725 0.984319 0.176356
vn 0.003725 0.984319 0.176356
vn 0.003725 0.984320 0.176356
vn 0.016609 0.632798 -0.774139
vn 0.016609 0.632798 -0.774139
vn 0.016609 0.632797 -0.774139
vn 0.016609 0.632798 -0.774139
vn 0.026878 0.998694 -0.043445
vn 0.026878 0.998694 -0.043445
vn 0.026878 0.998694 -0.043445
vn -0.036287 0.670601 0.740930
vn -0.036287 0.670601 0.740930
vn -0.036287 0.670601 0.740930
vn -0.036287 0.670601 0.740930
vn -0.116682 0.745069 0.656702
vn -0.116682 0.745069 0.656702
vn -0.116682 0.745069 0.656702
vn -0.116682 0.745069 0.656702
vn 0.029415 0.546900 -0.836681
vn 0.029415 0.546900 -0.836681
vn 0.029415 0.546900 -0.836681
vn -0.016769 0.878754 0.476979
vn -0.016769 0.878755 0.476979
vn -0.016769 0.878754 0.476979
vn 0.000000 1.000000 -0.000000
vn 0.000000 1.000000 -0.000000
vn 0.000000 1.000000 -0.000000
vn -0.005259 0.354475 0.935051
vn -0.005259 0.354475 0.935051
vn -0.005259 0.354475 0.935051
vn -0.005259 0.354475 0.935051
vn -0.002498 0.996318 0.085695
vn -0.002498 0.996318 0.085695
vn -0.002498 0.996318 0.085695
vn -0.007614 0.999766 -0.020247
vn -0.007614 0.999766 -0.020247
vn -0.007614 0.999766 -0.020247
vn 0.193810 0.797662 0.571115
vn 0.193810 0.797662 0.571115
vn 0.193810 0.797662 0.571115
vn 0.193810 0.797662 0.571115
vn -0.002975 0.973657 -0.227997
vn -0.002975 0.973657 -0.227997
vn -0.002975 0.973657 -0.227997
vn -0.002975 0.973657 -0.227997
vn -0.030441 0.966140 -0.256216
vn -0.030441 0.966140 -0.256216
vn -0.030441 0.966140 -0.256216
vn -0.020435 0.978031 -0.207454
vn -0.020435 0.978031 -0.207454
vn -0.020435 0.978031 -0.207454
vn -0.012350 0.995507 -0.093881
vn -0.012350 0.995507 -0.093881
vn -0.012350 0.995507 -0.093881
vn -0.018615 0.994783 -0.100301
vn -0.018615 0.994783 -0.100301
vn -0.018615 0.994783 -0.100301
vn -0.126448 0.991869 -0.014385
vn -0.126448 0.991869 -0.014385
vn -0.126448 0.991869 -0.014385
vn 0.014724 0.979550 -0.200661
vn 0.014724 0.979550 -0.200661
vn 0.014724 0.979550 -0.200661
vn 0.087530 0.914285 -0.395501
vn 0.087530 0.914285 -0.395501
vn 0.087530 0.914285 -0.395501
vn 0.055341 0.997640 -0.040650
vn 0.055341 0.997640 -0.040650
vn 0.055341 0.997640 -0.040650
vn 0.055341 0.997640 -0.040650
vn 0.138193 0.989084 0.051152
vn 0.138193 0.989084 0.051152
vn 0.138193 0.989084 0.051152
vn -0.029658 0.987895 -0.152261
vn -0.029658 0.987895 -0.152261
vn -0.029658 0.987895 -0.152261
vn 0.089478 0.993215 0.074287
vn 0.089478 0.993215 0.074287
vn 0.089478 0.993215 0.074287
vn -0.109119 0.988026 -0.109077
vn -0.109119 0.988026 -0.109077
vn -0.109119 0.988026 -0.109077
vn -0.001528 0.999242 -0.038888
vn -0.001528 0.999242 -0.038888
vn -0.001528 0.999242 -0.038888
vn 0.052337 0.998555 -0.012227
vn 0.052337 0.998555 -0.012227
vn 0.052337 0.998555 -0.012227
vn -0.041648 0.999103 0.007629
vn -0.041648 0.999103 0.007629
vn -0.041647 0.999103 0.007629
vn 0.000000 0.999389 -0.034965
vn 0.000000 0.999389 -0.034965
vn 0.000000 0.999389 -0.034965
vn -0.013241 0.999717 -0.019773
vn -0.013241 0.999717 -0.019773
vn -0.013241 0.999717 -0.019773
vn 0.073918 0.996877 0.027777
vn 0.073918 0.996877 0.027777
vn 0.073918 0.996877 0.027777
vn -0.017271 0.999824 -0.007363
vn -0.017271 0.999824 -0.007363
vn -0.017271 0.999824 -0.007363
vn 0.070327 0.996882 0.035794
vn 0.070327 0.996882 0.035794
vn 0.070327 0.996882 0.035794
vn 0.016207 0.276523 0.960871
vn 0.016207 0.276523 0.960871
vn 0.016207 0.276523 0.960871
vn 0.016207 0.276523 0.960871
vn 0.016210 0.276515 0.960873
vn 0.016210 0.276515 0.960873
vn 0.016210 0.276515 0.960873
vn 0.016208 0.276511 0.960874
vn 0.016208 0.276511 0.960874
vn 0.016208 0.276511 0.960874
vn 0.016208 0.276511 0.960874
vn 0.016208 0.276511 0.960874
vn -0.051684 0.501095 0.863847
vn -0.051684 0.501095 0.863847
vn -0.051684 0.501095 0.863847
vn 0.000000 1.000000 0.000000
vn 0.000000 1.000000 0.000000
vn 0.000000 1.000000 0.000000
vn -0.246367 0.707606 0.662267
vn -0.246367 0.707606 0.662267
vn -0.246367 0.707606 0.662267
vn -0.025701 0.304291 0.952232
vn -0.025701 0.304291 0.952232
vn -0.025701 0.304291 0.952232
vn -0.012437 0.305297 0.952176
vn -0.012437 0.305297 0.952176
vn -0.012437 0.305297 0.952176
vn 0.000000 1.000000 -0.000000
vn 0.000000 1.000000 -0.000000
vn 0.000000 1.000000 -0.000000
vn 0.000000 1.000000 -0.000000
vn 0.000000 1.000000 0.000000
vn 0.000000 1.000000 0.000000
vn 0.000000 1.000000 0.000000
vn 0.000000 1.000000 0.000000
vn 0.000000 1.000000 0.000000
vn 0.000000 1.000000 0.000000
vn 0.005543 0.939350 -0.342916
vn 0.005543 0.939350 -0.342916
vn 0.005543 0.939350 -0.342916
vn -0.071817 0.996253 0.048195
vn -0.071817 0.996253 0.048195
vn -0.071817 0.996253 0.048195
vn 0.072781 0.992796 0.095180
vn 0.072781 0.992796 0.095180
vn 0.072781 0.992796 0.095180
vn 0.051924 0.998581 -0.011800
vn 0.051924 0.998581 -0.011800
vn 0.051924 0.998581 -0.011800
vn -0.066487 0.997662 -0.015829
vn -0.066487 0.997662 -0.015829
vn -0.066487 0.997662 -0.015829
s off
f 3/27/1 17/1/2 18/12/3 33/17/4
f 53/113/5 54/115/6 29/59/7 30/56/8 81/159/9
f 54/116/10 69/141/11 12/61/12 29/58/13
f 81/160/14 82/161/15 53/114/16
f 18/84/17 19/28/18 32/53/19 33/50/20
f 34/91/21 37/94/22 38/95/23 23/75/24
f 1/39/25 13/48/26 28/51/27
f 27/66/28 28/63/29 13/64/30 16/20/31
f 26/68/32 27/65/33 16/74/34 9/2/35
f 25/70/36 26/67/37 9/11/38 5/6/39
f 24/72/40 25/69/41 5/14/42 7/7/43
f 11/9/44 24/71/45 7/15/46
f 65/24/47 66/25/48 71/76/49 72/78/50
f 70/143/51 86/167/52 67/138/53
f 84/164/54 86/168/55 70/144/56
f 27/37/57 26/35/58 61/128/59
f 28/38/60 27/37/61 19/85/62 18/21/63
f 17/1/64 1/39/65 28/51/66 18/12/67
f 8/8/68 29/42/69 12/10/70
f 6/5/71 30/44/72 29/41/73 8/16/74
f 10/3/75 31/46/76 30/43/77 6/13/78
f 15/19/79 32/52/80 31/45/81 10/4/82
f 14/18/83 33/49/84 32/47/85 15/90/86
f 3/27/87 33/17/88 14/62/89
f 40/98/90 2/73/91 35/92/92
f 34/91/93 4/40/94 36/93/95
f 36/93/96 37/94/97 34/91/98
f 39/97/99 40/98/100 35/92/101
f 69/142/102 45/104/103 12/60/104
f 43/101/105 44/103/106 22/77/107
f 42/100/108 43/102/109 22/86/110
f 39/97/111 50/110/112 40/98/113
f 46/105/114 37/94/115 36/93/116
f 46/105/117 4/40/118 12/60/119
f 50/110/120 2/73/121 40/98/122
f 46/105/123 12/60/124 45/104/125
f 45/104/126 51/111/127 46/105/128
f 48/107/129 44/103/130 43/101/131
f 42/100/132 41/99/133 52/112/134
f 11/30/135 50/110/136 41/99/137
f 11/30/138 2/73/139 50/110/140
f 36/93/141 4/40/142 46/105/143
f 46/105/144 47/106/145 37/94/146
f 39/97/147 48/108/148 49/109/149
f 49/109/150 50/110/151 39/97/152
f 42/100/153 52/112/154 49/109/155
f 46/105/156 51/111/157 47/106/158
f 45/104/159 44/103/160 51/111/161
f 47/106/162 51/111/163 44/103/164
f 52/112/165 41/99/166 50/110/167
f 49/109/168 52/112/169 50/110/170
f 82/161/171 83/163/172 53/114/173
f 21/81/174 68/139/175 54/115/176 53/113/177 83/162/178
f 75/79/179 76/87/180 55/146/181 54/147/182
f 19/28/183 56/119/184 58/123/185 32/53/186
f 31/121/187 58/82/188 57/22/189
f 32/53/190 58/123/191 31/55/192
f 57/22/193 59/122/194 31/121/195
f 61/130/196 60/129/197 20/89/198
f 26/36/199 25/33/200 61/127/201
f 56/83/202 61/130/203 20/89/204
f 27/37/205 61/128/206 19/85/207
f 57/22/208 58/82/209 62/131/210
f 64/133/211 58/82/212 56/83/213
f 60/129/214 59/122/215 62/131/216
f 59/122/217 57/22/218 62/131/219
f 56/83/220 20/89/221 63/132/222
f 64/133/223 56/83/224 63/132/225
f 20/89/226 60/129/227 63/132/228
f 60/129/229 62/131/230 64/133/231
f 60/129/232 64/133/233 63/132/234
f 62/131/235 58/82/236 64/133/237
f 24/32/238 11/29/239 66/136/240 65/134/241
f 11/30/242 41/99/243 71/145/244
f 68/148/245 67/149/246 73/150/247 74/151/248
f 54/147/249 68/148/250 74/151/251 75/79/252
f 54/116/253 55/117/254 69/141/255
f 55/118/256 76/154/257 69/142/258
f 21/88/259 70/143/260 67/138/261
f 60/126/262 84/164/263 70/144/264 21/23/265
f 11/30/266 71/145/267 66/137/268
f 77/155/269 42/100/270 22/86/271
f 72/78/272 73/150/273 67/149/274 65/24/275
f 74/151/276 73/150/277 77/152/278 22/153/279
f 75/79/280 74/151/281 22/153/282
f 22/153/283 76/87/284 75/79/285
f 22/77/286 44/103/287 76/154/288
f 76/154/289 44/103/290 45/104/291
f 69/142/292 76/154/293 45/104/294
f 77/152/295 73/150/296 72/78/297
f 72/78/298 71/76/299 77/152/300
f 71/145/301 41/99/302 42/100/303 77/155/304
f 48/108/305 43/102/306 78/156/307
f 43/102/308 42/100/309 78/156/310
f 49/109/311 48/108/312 78/156/313
f 42/100/314 49/109/315 78/156/316
f 38/95/317 37/94/318 79/157/319
f 48/107/320 38/95/321 79/157/322
f 37/94/323 47/106/324 79/157/325
f 35/92/326 23/26/327 80/158/328
f 23/26/329 38/96/330 80/158/331
f 39/97/332 35/92/333 80/158/334
f 38/96/335 48/108/336 80/158/337
f 48/108/338 39/97/339 80/158/340
f 31/54/341 82/161/342 81/160/343 30/57/344
f 31/54/345 59/124/346 82/161/347
f 59/124/348 60/125/349 21/80/350 83/163/351 82/161/352
f 84/164/353 25/33/354 85/166/355
f 86/167/356 24/31/357 65/135/358
f 84/164/359 85/166/360 86/168/361
f 61/127/362 25/33/363 84/164/364
f 61/127/365 84/164/366 60/126/367
f 25/34/368 24/31/369 86/167/370 85/165/371
f 67/138/372 86/167/373 65/135/374
f 21/88/375 67/138/376 68/140/377
f 19/85/378 61/128/379 56/120/380
f 47/106/381 44/103/382 87/169/383
f 44/103/384 48/107/385 87/169/386
f 48/107/387 79/157/388 87/169/389
f 79/157/390 47/106/391 87/169/392
