# This file uses centimeters as units for non-parametric coordinates.

v -0.000075 -74.214706 -500.000000
v -0.000095 -74.214706 0.000000
v -0.000095 -39.658268 0.000000
v -0.000075 -39.658268 -500.000000
v 499.999695 -74.214706 -500.000000
v 499.999695 -74.214706 0.000000
v 500.000305 -39.658268 0.000000
v 500.000305 -39.658268 -500.000000
vt 0.100902 0.307026
vt 0.100902 0.307026
vt 0.100902 0.307026
vt 0.100902 0.307026
vt 0.100902 0.307026
vt 0.100902 0.307026
vt 0.100902 0.307026
vt 0.100902 0.307026
vt 0.100902 0.307026
vt 0.100902 0.307026
vt 0.100902 0.307026
vt 0.100902 0.307026
vt 0.100902 0.307026
vt 0.100902 0.307026
vt 0.100902 0.307026
vt 0.100902 0.307026
vn 0.000000 -1.000000 0.000000
vn 0.000000 -1.000000 0.000000
vn 0.000000 -1.000000 0.000000
vn 0.000000 -1.000000 0.000000
vn 0.000000 0.000000 1.000000
vn 0.000000 0.000000 1.000000
vn 0.000000 0.000000 1.000000
vn 0.000000 0.000000 1.000000
vn 0.000000 0.000000 -1.000000
vn 0.000000 0.000000 -1.000000
vn 0.000000 0.000000 -1.000000
vn 0.000000 0.000000 -1.000000
vn 0.000000 1.000000 0.000000
vn 0.000000 1.000000 0.000000
vn 0.000000 1.000000 0.000000
vn 0.000000 1.000000 0.000000
vn -1.000000 0.000000 -0.000000
vn -1.000000 0.000000 -0.000000
vn -1.000000 0.000000 -0.000000
vn -1.000000 0.000000 -0.000000
vn 1.000000 -0.000018 0.000000
vn 1.000000 -0.000018 0.000000
vn 1.000000 -0.000018 0.000000
vn 1.000000 -0.000018 0.000000
s off
f 2/1/1 1/2/2 5/3/3 6/4/4
f 3/5/5 2/6/6 6/7/7 7/8/8
f 1/9/9 4/10/10 8/11/11 5/12/12
f 4/13/13 3/14/14 7/15/15 8/16/16
f 2/6/17 3/14/18 4/10/19 1/2/20
f 6/4/21 5/12/22 8/16/23 7/8/24
