# This file uses centimeters as units for non-parametric coordinates.

v -119.050934 18.721661 -160.056152
v 88.707184 -12.751495 -152.048828
v 89.921936 191.533356 -153.295898
v 63.611633 172.917877 141.455566
v 152.583282 105.656204 -171.434570
v -177.193451 -14.515344 8.654297
v -26.423187 164.640747 28.654785
v 184.312744 116.358841 67.552734
v 23.131165 122.675171 203.049316
v -134.816803 -16.785103 89.700684
v -128.246979 164.941162 53.937988
v -99.068573 74.047302 176.621094
v 29.276733 64.152184 -204.778809
v 169.086731 30.050533 -89.839844
v 92.612579 167.296570 4.625977
v 73.549469 214.790405 -61.705566
v 182.326019 84.559708 91.341797
v -198.825592 18.487213 -78.159180
v 6.892944 221.084564 -36.856445
v -47.531891 -20.145203 -17.065430
v -37.986877 215.243027 -77.933105
v 15.434570 181.571945 148.202637
v 106.302551 205.164749 -95.197754
v 147.271912 144.358292 -166.642578
v 25.248108 224.713913 -107.984375
v 8.722168 161.065857 -157.882813
v 123.839478 0.882118 -120.592773
v 23.683777 64.846756 214.542480
v 108.149811 114.795120 172.786133
v 193.800186 68.629433 21.513184
v 93.989105 18.405380 153.246094
v -177.814178 39.434753 100.807617
v 122.381378 151.734406 79.525879
v -66.456635 68.653328 -187.524414
v 211.853241 80.782661 -23.397461
v 81.937469 86.930511 204.635742
v 133.050629 15.065083 -159.078613
v -101.255829 10.818365 161.836914
v -107.924286 165.414124 95.171875
v -121.713654 0.494091 -118.316406
v -40.833008 7.941975 187.821777
v -41.918457 112.209427 194.453125
v 33.301422 181.979904 30.767578
v -69.502655 180.915253 -33.119141
v -161.657745 103.510719 -7.940430
v -153.343292 0.139128 109.749023
v 193.976349 70.382202 59.452148
v 67.034912 143.422821 -189.385742
v 138.795471 147.477875 -39.431641
v -15.275452 -9.677919 167.913574
v -55.230743 176.525543 121.256348
v 35.044556 -8.458139 -165.092773
v 119.538177 146.054352 -180.652344
v -21.914368 61.738037 209.221191
v -153.462738 67.956192 -137.270508
v -198.785980 60.759163 -48.368652
v -46.128448 169.463440 159.186035
v 75.187744 -9.259453 74.267090
v -68.024139 142.295731 -107.728027
vt 0.459570 0.178353
vt 0.459570 0.178353
vt 0.459570 0.178353
vt 0.459570 0.178353
vt 0.459570 0.178353
vt 0.459570 0.178353
vt 0.459570 0.178353
vt 0.459570 0.178353
vt 0.459570 0.178353
vt 0.459570 0.178353
vt 0.459570 0.178353
vt 0.459570 0.178353
vt 0.459570 0.178353
vt 0.459570 0.178353
vt 0.459570 0.178353
vt 0.459570 0.178353
vt 0.459570 0.178353
vt 0.459570 0.178353
vt 0.459570 0.178353
vt 0.459570 0.178353
vt 0.459570 0.178353
vt 0.459570 0.178353
vt 0.459570 0.178353
vt 0.459570 0.178353
vt 0.459570 0.178353
vt 0.459570 0.178353
vt 0.459570 0.178353
vt 0.459570 0.178353
vt 0.459570 0.178353
vt 0.459570 0.178353
vt 0.459570 0.178353
vt 0.459570 0.178353
vt 0.459570 0.178353
vt 0.459570 0.178353
vt 0.459570 0.178353
vt 0.459570 0.178353
vt 0.459570 0.178353
vt 0.459570 0.178353
vt 0.459570 0.178353
vt 0.459570 0.178353
vt 0.459570 0.178353
vt 0.459570 0.178353
vt 0.459570 0.178353
vt 0.459570 0.178353
vt 0.459570 0.178353
vt 0.459570 0.178353
vt 0.459570 0.178353
vt 0.459570 0.178353
vt 0.459570 0.178353
vt 0.459570 0.178353
vt 0.459570 0.178353
vt 0.459570 0.178353
vt 0.459570 0.178353
vt 0.459570 0.178353
vt 0.459570 0.178353
vt 0.459570 0.178353
vt 0.459570 0.178353
vt 0.459570 0.178353
vt 0.459570 0.178353
vt 0.459570 0.178353
vt 0.459570 0.178353
vt 0.459570 0.178353
vt 0.459570 0.178353
vt 0.459570 0.178353
vt 0.459570 0.178353
vt 0.459570 0.178353
vt 0.459570 0.178353
vt 0.459570 0.178353
vt 0.459570 0.178353
vt 0.459570 0.178353
vt 0.459570 0.178353
vt 0.459570 0.178353
vt 0.459570 0.178353
vt 0.459570 0.178353
vt 0.459570 0.178353
vt 0.459570 0.178353
vt 0.459570 0.178353
vt 0.459570 0.178353
vt 0.459570 0.178353
vt 0.459570 0.178353
vt 0.459570 0.178353
vt 0.459570 0.178353
vt 0.459570 0.178353
vt 0.459570 0.178353
vt 0.459570 0.178353
vt 0.459570 0.178353
vt 0.459570 0.178353
vn -0.608137 -0.712532 -0.349955
vn -0.608137 -0.712532 -0.349955
vn -0.608137 -0.712532 -0.349955
vn 0.664950 0.744043 0.065128
vn 0.664950 0.744043 0.065128
vn 0.664950 0.744043 0.065128
vn -0.192387 0.504371 0.841782
vn -0.192387 0.504371 0.841782
vn -0.192387 0.504371 0.841782
vn 0.630666 0.692966 0.349368
vn 0.630666 0.692966 0.349368
vn 0.630666 0.692966 0.349368
vn 0.509624 0.742520 -0.434681
vn 0.509624 0.742520 -0.434681
vn 0.509624 0.742520 -0.434681
vn 0.509624 0.742520 -0.434681
vn -0.408753 -0.209589 0.888253
vn -0.408753 -0.209589 0.888253
vn -0.408753 -0.209589 0.888253
vn -0.053164 -0.992725 -0.108035
vn -0.053164 -0.992725 -0.108035
vn -0.053164 -0.992725 -0.108035
vn -0.095495 -0.986749 -0.131177
vn -0.095495 -0.986749 -0.131177
vn -0.095495 -0.986749 -0.131177
vn -0.501297 -0.831664 0.238822
vn -0.501297 -0.831664 0.238822
vn -0.501297 -0.831664 0.238822
vn 0.267054 0.818226 0.509106
vn 0.267054 0.818226 0.509106
vn 0.267054 0.818226 0.509106
vn 0.256751 -0.605530 0.753268
vn 0.256751 -0.605530 0.753268
vn 0.256751 -0.605530 0.753268
vn 0.587447 -0.796088 0.145432
vn 0.587447 -0.796088 0.145432
vn 0.587447 -0.796088 0.145432
vn -0.031044 -0.997602 0.061864
vn -0.031044 -0.997602 0.061864
vn -0.031044 -0.997602 0.061864
vn -0.237465 -0.865233 0.441567
vn -0.237465 -0.865233 0.441567
vn -0.237465 -0.865233 0.441567
vn -0.798387 0.460290 0.388216
vn -0.798387 0.460290 0.388216
vn -0.798387 0.460290 0.388216
vn -0.280853 -0.845476 0.454193
vn -0.280853 -0.845476 0.454193
vn -0.280853 -0.845476 0.454193
vn -0.650164 -0.151592 0.744518
vn -0.650164 -0.151592 0.744518
vn -0.650164 -0.151592 0.744518
vn -0.718039 0.423072 0.552657
vn -0.718039 0.423072 0.552657
vn -0.718039 0.423072 0.552657
vn 0.316629 -0.194885 -0.928314
vn 0.316629 -0.194885 -0.928314
vn 0.316629 -0.194884 -0.928314
vn -0.364525 0.341829 -0.866184
vn -0.364524 0.341829 -0.866184
vn -0.364525 0.341829 -0.866184
vn 0.700345 -0.708121 0.089899
vn 0.700345 -0.708121 0.089899
vn 0.700345 -0.708121 0.089899
vn -0.390015 0.786325 0.479146
vn -0.390015 0.786325 0.479146
vn -0.390015 0.786325 0.479146
vn -0.031029 0.990122 -0.136728
vn -0.031029 0.990122 -0.136728
vn -0.031029 0.990123 -0.136728
vn -0.151212 0.964637 0.215892
vn -0.151212 0.964637 0.215892
vn -0.151212 0.964637 0.215892
vn -0.019906 0.990867 -0.133364
vn -0.019906 0.990867 -0.133364
vn -0.019906 0.990867 -0.133364
vn -0.141614 0.989824 0.013962
vn -0.141614 0.989824 0.013962
vn -0.141614 0.989824 0.013962
vn -0.260127 0.958434 0.117214
vn -0.260127 0.958434 0.117214
vn -0.260127 0.958434 0.117214
vn 0.500980 -0.861732 0.080233
vn 0.500980 -0.861732 0.080233
vn 0.500980 -0.861732 0.080233
vn 0.663412 0.655484 0.360867
vn 0.663412 0.655485 0.360867
vn 0.663412 0.655484 0.360867
vn 0.715954 -0.502301 0.484874
vn 0.715954 -0.502301 0.484874
vn 0.715954 -0.502301 0.484874
vn -0.499815 0.050815 -0.864640
vn -0.499815 0.050815 -0.864640
vn -0.499815 0.050815 -0.864640
vn -0.283080 -0.917810 -0.278372
vn -0.283080 -0.917810 -0.278372
vn -0.283080 -0.917810 -0.278372
vn -0.861087 0.293439 -0.415237
vn -0.861087 0.293439 -0.415237
vn -0.861087 0.293439 -0.415237
vn -0.705060 -0.174716 -0.687289
vn -0.705060 -0.174716 -0.687289
vn -0.705060 -0.174716 -0.687289
vn 0.332914 -0.527572 0.781560
vn 0.332914 -0.527572 0.781560
vn 0.332914 -0.527572 0.781560
vn 0.698411 -0.346713 0.626109
vn 0.698411 -0.346713 0.626109
vn 0.698411 -0.346713 0.626109
vn 0.948281 0.150028 0.279739
vn 0.948281 0.150028 0.279739
vn 0.948282 0.150028 0.279739
vn 0.747957 0.052674 0.661654
vn 0.747957 0.052674 0.661654
vn 0.747957 0.052674 0.661654
vn 0.220531 -0.960456 0.169974
vn 0.220531 -0.960456 0.169974
vn 0.220531 -0.960456 0.169974
vn 0.106820 -0.993963 -0.025061
vn 0.106820 -0.993963 -0.025061
vn 0.106820 -0.993963 -0.025061
vn -0.988071 -0.088092 0.126314
vn -0.988071 -0.088092 0.126314
vn -0.988071 -0.088092 0.126314
vn 0.499540 -0.844799 -0.191770
vn 0.499540 -0.844799 -0.191770
vn 0.499540 -0.844799 -0.191770
vn 0.603634 -0.784062 -0.144473
vn 0.603634 -0.784062 -0.144473
vn 0.603634 -0.784062 -0.144473
vn 0.960250 0.161747 0.227503
vn 0.960250 0.161747 0.227503
vn 0.960250 0.161747 0.227503
vn 0.614257 -0.788391 0.033571
vn 0.614257 -0.788392 0.033571
vn 0.614257 -0.788392 0.033571
vn -0.854124 0.454759 -0.252321
vn -0.854124 0.454759 -0.252321
vn -0.854124 0.454759 -0.252321
vn 0.303216 0.670333 0.677284
vn 0.303216 0.670333 0.677284
vn 0.303216 0.670334 0.677284
vn 0.214674 0.585775 0.781526
vn 0.214674 0.585775 0.781526
vn 0.214674 0.585775 0.781526
vn 0.040637 0.970149 -0.239080
vn 0.040637 0.970149 -0.239080
vn 0.040637 0.970149 -0.239080
vn 0.352519 0.920118 -0.170626
vn 0.352519 0.920118 -0.170626
vn 0.352519 0.920118 -0.170626
vn 0.124123 0.988832 0.082487
vn 0.124123 0.988832 0.082487
vn 0.124123 0.988832 0.082487
vn 0.580352 0.731840 0.357214
vn 0.580352 0.731840 0.357214
vn 0.580352 0.731840 0.357214
vn 0.632415 0.682304 0.366760
vn 0.632415 0.682304 0.366760
vn 0.632415 0.682304 0.366760
vn 0.056789 0.974490 0.217129
vn 0.056789 0.974490 0.217129
vn 0.056789 0.974490 0.217129
vn -0.423782 0.837958 0.343852
vn -0.423783 0.837958 0.343852
vn -0.423783 0.837958 0.343852
vn 0.851687 0.522205 0.043944
vn 0.851687 0.522205 0.043944
vn 0.851687 0.522205 0.043944
vn -0.187990 0.645037 -0.740666
vn -0.187990 0.645037 -0.740666
vn -0.187990 0.645037 -0.740666
vn -0.409135 0.626398 -0.663502
vn -0.409135 0.626398 -0.663502
vn -0.409135 0.626398 -0.663502
vn -0.208655 0.636375 -0.742624
vn -0.208655 0.636375 -0.742624
vn -0.208655 0.636375 -0.742624
vn 0.108049 0.563158 -0.819255
vn 0.108049 0.563158 -0.819255
vn 0.108049 0.563158 -0.819255
vn -0.143547 0.406233 -0.902424
vn -0.143547 0.406233 -0.902424
vn -0.143547 0.406233 -0.902424
vn -0.113639 -0.483429 -0.867976
vn -0.113639 -0.483429 -0.867976
vn -0.113639 -0.483429 -0.867976
vn 0.169389 -0.486619 -0.857035
vn 0.169389 -0.486619 -0.857035
vn 0.169389 -0.486619 -0.857035
vn 0.164567 -0.462964 -0.870966
vn 0.164567 -0.462964 -0.870966
vn 0.164567 -0.462964 -0.870966
vn 0.880693 -0.245170 -0.405304
vn 0.880693 -0.245170 -0.405304
vn 0.880693 -0.245170 -0.405304
vn 0.452575 0.170485 -0.875278
vn 0.452575 0.170485 -0.875278
vn 0.452575 0.170485 -0.875278
vn -0.514638 0.421927 0.746408
vn -0.514638 0.421927 0.746408
vn -0.514638 0.421927 0.746408
vn -0.315180 0.916519 0.246282
vn -0.315180 0.916519 0.246282
vn -0.315180 0.916519 0.246282
vn -0.649810 0.469730 0.597578
vn -0.649810 0.469730 0.597578
vn -0.649810 0.469730 0.597578
vn -0.658898 -0.248789 0.709900
vn -0.658898 -0.248789 0.709900
vn -0.658898 -0.248789 0.709900
vn 0.116939 -0.989157 -0.088846
vn 0.116939 -0.989157 -0.088846
vn 0.116939 -0.989157 -0.088846
vn -0.171711 -0.898752 -0.403435
vn -0.171711 -0.898752 -0.403435
vn -0.171711 -0.898752 -0.403435
vn -0.236764 -0.858144 0.455556
vn -0.236764 -0.858144 0.455556
vn -0.236764 -0.858144 0.455556
vn 0.199412 -0.592563 0.780451
vn 0.199413 -0.592563 0.780451
vn 0.199413 -0.592563 0.780451
vn -0.085884 -0.342029 0.935756
vn -0.085884 -0.342029 0.935756
vn -0.085884 -0.342029 0.935756
vn 0.092156 0.194951 0.976474
vn 0.092156 0.194951 0.976474
vn 0.092156 0.194951 0.976474
vn 0.322727 0.564656 0.759612
vn 0.322727 0.564656 0.759612
vn 0.322727 0.564656 0.759612
vn 0.272933 -0.926369 0.259516
vn 0.272933 -0.926369 0.259516
vn 0.272933 -0.926369 0.259516
vn 0.488735 -0.871604 0.037999
vn 0.488735 -0.871604 0.037999
vn 0.488735 -0.871604 0.037999
vn 0.586238 -0.797959 0.139953
vn 0.586238 -0.797959 0.139953
vn 0.586238 -0.797959 0.139953
vn -0.249821 0.792760 0.555986
vn -0.249821 0.792760 0.555986
vn -0.249821 0.792760 0.555986
vn 0.368579 0.859849 0.353284
vn 0.368579 0.859849 0.353284
vn 0.368579 0.859849 0.353284
vn -0.956829 -0.253593 0.142018
vn -0.956829 -0.253593 0.142018
vn -0.956829 -0.253593 0.142018
vn -0.844193 -0.465054 0.266575
vn -0.844194 -0.465054 0.266575
vn -0.844193 -0.465054 0.266575
vn -0.659096 0.680652 -0.319851
vn -0.659096 0.680652 -0.319851
vn -0.659096 0.680652 -0.319851
vn -0.604065 0.757818 -0.246611
vn -0.604065 0.757818 -0.246611
vn -0.604065 0.757818 -0.246611
vn -0.661992 0.710924 -0.237389
vn -0.661992 0.710924 -0.237389
vn -0.661992 0.710924 -0.237389
vn -0.158738 0.191002 0.968669
vn -0.158738 0.191002 0.968669
vn -0.158738 0.191002 0.968669
vn -0.128313 0.231323 0.964378
vn -0.128313 0.231323 0.964378
vn -0.128313 0.231323 0.964378
vn -0.369538 0.123033 0.921035
vn -0.369538 0.123033 0.921035
vn -0.369538 0.123033 0.921035
vn -0.072213 -0.986325 -0.148149
vn -0.072213 -0.986325 -0.148149
vn -0.072213 -0.986325 -0.148149
vn -0.823610 0.533645 0.192070
vn -0.823609 0.533645 0.192070
vn -0.823610 0.533645 0.192070
vn -0.912470 0.397127 0.098429
vn -0.912470 0.397127 0.098429
vn -0.912470 0.397127 0.098429
vn -0.395258 -0.196153 0.897382
vn -0.395258 -0.196153 0.897382
vn -0.395258 -0.196153 0.897382
vn 0.924456 0.169178 -0.341701
vn 0.924456 0.169178 -0.341701
vn 0.924456 0.169178 -0.341701
vn 0.888909 -0.232149 -0.394901
vn 0.888909 -0.232149 -0.394901
vn 0.888909 -0.232149 -0.394901
vn 0.222698 0.041491 -0.974004
vn 0.222698 0.041491 -0.974004
vn 0.222698 0.041491 -0.974004
vn 0.222698 0.041491 -0.974004
vn 0.377721 0.924964 0.042058
vn 0.377721 0.924964 0.042058
vn 0.377721 0.924964 0.042058
vn 0.413928 0.909979 0.024554
vn 0.413928 0.909979 0.024554
vn 0.413928 0.909979 0.024554
vn -0.277328 0.959989 -0.038859
vn -0.277328 0.959989 -0.038859
vn -0.277328 0.959989 -0.038859
vn 0.245346 0.969359 0.012177
vn 0.245346 0.969359 0.012177
vn 0.245346 0.969359 0.012177
vn 0.180912 0.983013 0.030939
vn 0.180912 0.983013 0.030939
vn 0.180912 0.983013 0.030939
vn -0.003390 0.681255 0.732038
vn -0.003390 0.681255 0.732038
vn -0.003390 0.681255 0.732038
vn -0.556114 0.500113 -0.663796
vn -0.556114 0.500113 -0.663796
vn -0.556114 0.500113 -0.663796
vn 0.670797 0.741166 0.026522
vn 0.670797 0.741166 0.026522
vn 0.670797 0.741166 0.026522
vn 0.456307 0.866846 -0.200903
vn 0.456307 0.866846 -0.200903
vn 0.456307 0.866846 -0.200903
vn -0.182612 -0.319216 -0.929922
vn -0.182612 -0.319216 -0.929922
vn -0.182612 -0.319216 -0.929922
vn 0.053403 -0.997460 0.047130
vn 0.053403 -0.997460 0.047130
vn 0.053403 -0.997460 0.047130
vn 0.438911 0.520502 0.732417
vn 0.438911 0.520502 0.732417
vn 0.438911 0.520502 0.732417
vn -0.530462 0.617742 -0.580521
vn -0.530462 0.617742 -0.580521
vn -0.530462 0.617742 -0.580521
vn -0.371410 0.678662 -0.633619
vn -0.371410 0.678662 -0.633619
vn -0.371410 0.678662 -0.633619
vn -0.518378 0.755204 -0.401186
vn -0.518378 0.755204 -0.401186
vn -0.518378 0.755204 -0.401186
s off
f 6/11/1 1/1/2 40/45/3
f 33/5/4 35/54/5 49/74/6
f 42/63/7 9/24/8 57/84/9
f 23/18/10 15/30/11 49/75/12
f 24/39/13 53/79/14 3/9/15 23/38/16
f 54/8/17 12/27/18 41/83/19
f 2/7/20 20/35/21 52/19/22
f 52/19/23 20/35/24 40/61/25
f 10/17/26 46/67/27 6/11/28
f 16/31/29 19/34/30 15/30/31
f 50/76/32 31/50/33 28/46/34
f 14/85/35 30/49/36 58/86/37
f 20/35/38 50/76/39 6/14/40
f 38/2/41 10/25/42 50/76/43
f 11/26/44 32/51/45 39/60/46
f 38/58/47 46/73/48 10/71/49
f 32/51/50 38/58/51 12/27/52
f 32/51/53 12/27/54 39/60/55
f 5/13/56 37/56/57 13/28/58
f 13/28/59 26/42/60 48/72/61
f 14/29/62 35/54/63 30/48/64
f 7/15/65 19/34/66 44/65/67
f 7/15/68 11/22/69 51/77/70
f 22/37/71 51/77/72 57/84/73
f 7/15/74 51/77/75 22/37/76
f 21/36/77 19/34/78 25/41/79
f 51/77/80 11/22/81 39/59/82
f 14/85/83 58/86/84 27/44/85
f 29/47/86 17/32/87 33/52/88
f 47/69/89 17/32/90 31/50/91
f 34/53/92 1/1/93 55/81/94
f 18/33/95 1/1/96 6/11/97
f 55/81/98 18/33/99 56/82/100
f 55/81/101 1/1/102 18/33/103
f 31/50/104 36/55/105 28/46/106
f 31/50/107 17/32/108 36/55/109
f 47/69/110 8/21/111 17/32/112
f 36/55/113 17/32/114 29/47/115
f 27/44/116 20/35/117 2/7/118
f 27/44/119 58/86/120 20/35/121
f 18/33/122 32/51/123 56/82/124
f 37/56/125 27/43/126 2/6/127
f 37/56/128 14/29/129 27/43/130
f 47/68/131 35/54/132 8/20/133
f 30/48/134 35/54/135 47/68/136
f 21/36/137 59/87/138 44/65/139
f 29/47/140 22/37/141 9/24/142
f 29/47/143 4/12/144 22/37/145
f 16/31/146 23/18/147 3/10/148
f 25/41/149 16/31/150 3/10/151
f 25/41/152 19/34/153 16/31/154
f 16/31/155 15/30/156 23/18/157
f 29/47/158 33/52/159 4/12/160
f 44/65/161 11/22/162 7/15/163
f 44/65/164 19/34/165 21/36/166
f 24/39/167 23/38/168 49/74/169
f 48/72/170 25/40/171 3/9/172
f 25/40/173 26/42/174 21/23/175
f 48/72/176 26/42/177 25/40/178
f 53/79/179 48/72/180 3/9/181
f 34/53/182 26/42/183 13/28/184
f 13/28/185 52/78/186 1/1/187
f 52/78/188 37/56/189 2/6/190
f 13/28/191 37/56/192 52/78/193
f 37/56/194 5/13/195 14/29/196
f 53/79/197 24/39/198 5/13/199
f 57/57/200 12/27/201 42/4/202
f 39/60/203 57/57/204 51/16/205
f 39/60/206 12/27/207 57/57/208
f 46/73/209 38/58/210 32/51/211
f 6/14/212 50/76/213 10/25/214
f 52/19/215 40/61/216 1/3/217
f 50/76/218 41/62/219 38/2/220
f 28/46/221 41/62/222 50/76/223
f 54/80/224 41/62/225 28/46/226
f 28/46/227 36/55/228 9/24/229
f 9/24/230 36/55/231 29/47/232
f 58/86/233 31/50/234 50/76/235
f 31/50/236 30/49/237 47/69/238
f 58/86/239 30/49/240 31/50/241
f 43/64/242 19/34/243 7/15/244
f 15/30/245 19/34/246 43/64/247
f 6/11/248 32/51/249 18/33/250
f 6/11/251 46/67/252 32/51/253
f 44/65/254 45/66/255 11/22/256
f 45/66/257 55/81/258 56/82/259
f 44/65/260 55/81/261 45/66/262
f 42/63/263 28/46/264 9/24/265
f 42/63/266 54/80/267 28/46/268
f 12/70/269 54/80/270 42/63/271
f 40/61/272 20/35/273 6/14/274
f 32/51/275 45/66/276 56/82/277
f 45/66/278 32/51/279 11/26/280
f 41/83/281 12/27/282 38/58/283
f 35/54/284 5/13/285 24/39/286
f 35/54/287 14/29/288 5/13/289
f 13/28/290 48/72/291 53/79/292 5/13/293
f 33/52/294 15/30/295 4/12/296
f 49/75/297 15/30/298 33/52/299
f 22/37/300 43/64/301 7/15/302
f 43/64/303 4/12/304 15/30/305
f 22/37/306 4/12/307 43/64/308
f 57/84/309 9/24/310 22/37/311
f 26/42/312 59/87/313 21/36/314
f 49/74/315 35/54/316 24/39/317
f 8/20/318 35/54/319 33/5/320
f 13/28/321 1/1/322 34/53/323
f 58/86/324 50/76/325 20/35/326
f 17/32/327 8/21/328 33/52/329
f 26/42/330 34/53/331 59/87/332
f 59/87/333 34/53/334 55/81/335
f 44/65/336 59/87/337 55/81/338
