# This file uses centimeters as units for non-parametric coordinates.

v 0.000000 0.000000 0.000000
v 500.000000 0.000001 0.000000
v 0.000000 0.000000 -500.000000
v 500.000000 0.000001 -500.000000
v 484.255981 0.000001 -312.500000
v 0.000000 0.000000 -250.000000
v 484.255981 0.000001 -187.500000
v 500.000000 0.000001 -187.500000
v 500.000000 0.000001 -312.500000
v 489.147949 0.000001 -312.500000
v 500.000000 0.000001 -62.500000
v 484.255981 0.000001 -62.500000
v 484.255981 0.000001 -321.697998
v 484.255981 0.000001 -437.500000
v 500.000000 0.000001 -437.500000
v 484.255981 0.000001 -138.862610
v 488.360596 0.000001 -152.895355
v 484.255981 0.000001 -159.716034
vt 0.048581 0.395296
vt 0.048581 0.628098
vt 0.018212 0.628098
vt 0.018212 0.395296
vt 0.039144 0.395296
vt 0.018212 0.860898
vt 0.048581 0.860898
vt 0.982650 0.977299
vt 0.018212 0.977299
vt 0.048581 0.378166
vt 0.982650 0.046094
vt 0.048581 0.162495
vt 0.018212 0.162495
vt 0.018212 0.046094
vt 0.982650 0.511697
vt 0.048581 0.718680
vt 0.040663 0.692545
vt 0.048581 0.679842
vt 0.015760 0.003000
vt 0.015760 0.003000
vt 0.015760 0.003000
vt 0.015760 0.003000
vt 0.015760 0.003000
vt 0.015760 0.003000
vt 0.015760 0.003000
vt 0.015760 0.003000
vt 0.015760 0.003000
vt 0.015760 0.003000
vt 0.015760 0.003000
vt 0.015760 0.003000
vn -0.000000 1.000000 0.000000
vn -0.000000 1.000000 0.000000
vn 0.000000 1.000000 0.000000
vn -0.000000 1.000000 0.000000
vn 0.000000 1.000000 0.000000
vn 0.000000 1.000000 0.000000
vn 0.000000 1.000000 0.000000
vn 0.000000 1.000000 0.000000
vn 0.000000 1.000000 0.000000
vn -0.000000 1.000000 0.000000
vn -0.000000 1.000000 0.000000
vn -0.000000 1.000000 0.000000
vn -0.000000 1.000000 0.000000
vn -0.000000 1.000000 0.000000
vn 0.000000 1.000000 0.000000
vn -0.000000 1.000000 0.000000
vn -0.000000 1.000000 -0.000000
vn -0.000000 1.000000 -0.000000
vn -0.000000 1.000000 -0.000000
vn -0.000000 1.000000 -0.000000
vn -0.000000 1.000000 -0.000000
vn -0.000000 1.000000 0.000000
vn -0.000000 1.000000 -0.000000
vn -0.000000 1.000000 0.000000
vn -0.000000 1.000000 0.000000
vn -0.000000 1.000000 0.000000
vn -0.000000 1.000000 0.000000
vn -0.000000 1.000000 -0.000000
vn -0.000000 1.000000 0.000000
vn -0.000000 1.000000 0.000000
vn 0.000000 1.000000 0.000000
vn -0.000000 1.000000 0.000000
vn -0.000000 1.000000 0.000000
vn -0.000000 1.000000 0.000000
vn -0.000000 1.000000 0.000000
vn -0.000000 1.000000 0.000000
vn -0.000000 1.000000 0.000000
vn -0.000000 1.000000 0.000000
vn -0.000000 1.000000 0.000000
vn -0.000000 1.000000 0.000000
vn -0.000000 1.000000 0.000000
vn -0.000000 1.000000 0.000000
vn -0.000000 1.000000 0.000000
vn -0.000000 1.000000 0.000000
vn -0.000000 1.000000 0.000000
vn -0.000000 1.000000 0.000000
vn -0.000000 1.000000 0.000000
vn 0.000000 1.000000 0.000000
vn 0.000000 1.000000 0.000000
vn 0.000000 1.000000 0.000000
vn 0.000000 1.000000 0.000000
vn 0.000000 1.000000 0.000000
vn 0.000000 1.000000 0.000000
vn 0.000000 1.000000 0.000000
vn 0.000000 1.000000 0.000000
vn 0.000000 1.000000 0.000000
vn 0.000000 1.000000 0.000000
vn 0.000000 1.000000 0.000000
vn 0.000000 1.000000 0.000000
vn 0.000000 1.000000 0.000000
vn 0.000000 1.000000 0.000000
vn 0.000000 1.000000 0.000000
vn 0.000000 1.000000 0.000000
vn 0.000000 1.000000 0.000000
vn 0.000000 1.000000 0.000000
s off
f 5/1/1 7/2/2 10/5/3
f 7/2/4 8/3/5 10/5/6
f 8/3/7 9/4/8 10/5/9
f 11/6/10 12/7/11 1/8/12 2/9/13
f 5/1/14 10/5/15 13/10/16
f 3/11/17 14/12/18 15/13/19 4/14/20
f 3/11/21 6/15/22 14/12/23
f 5/1/24 13/10/25 6/15/26
f 13/10/27 14/12/28 6/15/29
f 16/16/30 17/17/31 18/18/32
f 6/15/33 1/8/34 7/2/35
f 7/2/36 1/8/37 18/18/38
f 18/18/39 1/8/40 16/16/41
f 1/8/42 12/7/43 16/16/44
f 5/1/45 6/15/46 7/2/47
f 17/19/48 11/20/49 8/21/50
f 17/19/51 8/21/52 7/22/53 18/23/54
f 12/24/55 11/20/56 17/19/57 16/25/58
f 13/26/59 15/27/60 14/28/61
f 13/26/62 10/29/63 9/30/64 15/27/65
