# This file uses centimeters as units for non-parametric coordinates.

v -86.566910 0.000006 85.204170
v 86.660027 0.000006 84.781456
v -82.568932 2.394998 81.150780
v 82.663666 2.394998 80.720711
v -83.262161 2.394998 -81.208389
v 81.834000 2.394998 -80.289192
v -87.248283 0.000006 -85.198433
v 85.844536 0.000006 -84.294960
v -85.312653 2.394998 -68.780807
v -89.263741 0.000006 -71.933052
v 89.263741 0.000006 -71.933052
v 85.312653 2.394998 -68.780807
v -72.929428 2.394998 85.280937
v -78.486450 3.877121 -74.218575
v -72.929428 2.394998 -85.344360
v -76.307007 0.000006 -89.263741
v -76.307007 0.000006 89.263741
v 75.866852 2.394998 85.280945
v 76.262291 3.877121 -75.375412
v 75.866852 2.394998 -85.344368
v 79.380478 0.000006 -89.263741
v 79.380478 0.000006 89.263741
v 85.312653 2.394998 73.018349
v 76.453377 3.877121 75.891151
v -77.943596 3.877121 76.508438
v -85.312653 2.394998 73.018349
v -89.263741 0.000006 76.433235
v 89.263741 0.000006 76.433235
v 2.944672 2.394998 -82.819496
v 2.930370 0.000006 -86.782013
v -14.277911 0.000006 92.911880
v -14.562843 2.394998 88.992516
v -15.765846 3.877121 82.147003
v 3.047712 3.877121 -71.505341
v -76.335983 3.877121 10.078335
v -83.311462 2.394998 9.664248
v -87.296761 0.000006 10.130329
v 85.732414 0.000006 -0.026951
v 81.719917 2.394998 -0.669658
v 77.549004 3.877121 -1.026451
v 0.493934 6.896636 9.829516
vt 0.511749 0.534517
vt 0.511749 0.534517
vt 0.511749 0.534517
vt 0.511749 0.534517
vt 0.511749 0.534517
vt 0.511749 0.534517
vt 0.511749 0.534517
vt 0.511749 0.534517
vt 0.511749 0.534517
vt 0.511749 0.534517
vt 0.511749 0.534517
vt 0.511749 0.534517
vt 0.511749 0.534517
vt 0.511749 0.534517
vt 0.511749 0.534517
vt 0.511749 0.534517
vt 0.511749 0.534517
vt 0.511749 0.534517
vt 0.511749 0.534517
vt 0.511749 0.534517
vt 0.511749 0.534517
vt 0.511749 0.534517
vt 0.511749 0.534517
vt 0.511749 0.534517
vt 0.511749 0.534517
vt 0.511749 0.534517
vt 0.511749 0.534517
vt 0.511749 0.534517
vt 0.511749 0.534517
vt 0.511749 0.534517
vt 0.511749 0.534517
vt 0.511749 0.534517
vt 0.511749 0.534517
vt 0.511749 0.534517
vt 0.511749 0.534517
vt 0.511749 0.534517
vt 0.511749 0.534517
vt 0.511749 0.534517
vt 0.511749 0.534517
vt 0.511749 0.534517
vt 0.511749 0.534517
vt 0.511749 0.534517
vt 0.511749 0.534517
vt 0.511749 0.534517
vt 0.511749 0.534517
vt 0.511749 0.534517
vt 0.511749 0.534517
vt 0.511749 0.534517
vt 0.511749 0.534517
vt 0.511749 0.534517
vt 0.511749 0.534517
vn -0.161277 0.905775 0.391870
vn -0.161277 0.905775 0.391870
vn -0.161277 0.905775 0.391870
vn -0.161277 0.905775 0.391870
vn -0.093147 0.971628 0.217399
vn -0.093147 0.971628 0.217399
vn -0.093147 0.971628 0.217399
vn -0.155028 0.902358 -0.402140
vn -0.155028 0.902358 -0.402140
vn -0.155028 0.902358 -0.402140
vn -0.155028 0.902358 -0.402140
vn 0.414668 0.899797 0.135704
vn 0.414668 0.899797 0.135704
vn 0.414668 0.899797 0.135704
vn 0.414668 0.899797 0.135704
vn -0.416125 0.899390 0.133935
vn -0.416125 0.899390 0.133935
vn -0.416125 0.899390 0.133935
vn -0.416125 0.899390 0.133935
vn -0.465821 0.881803 -0.073717
vn -0.465821 0.881803 -0.073717
vn -0.465821 0.881803 -0.073717
vn -0.465821 0.881803 -0.073717
vn 0.427639 0.895463 -0.123576
vn 0.427639 0.895463 -0.123576
vn 0.427639 0.895463 -0.123576
vn 0.427639 0.895463 -0.123576
vn -0.242322 0.969372 -0.039982
vn -0.242322 0.969372 -0.039982
vn -0.242322 0.969372 -0.039982
vn -0.014906 0.981248 0.192171
vn -0.014906 0.981248 0.192172
vn -0.014906 0.981248 0.192172
vn -0.014906 0.981248 0.192172
vn 0.004324 0.991514 -0.129925
vn 0.004324 0.991514 -0.129925
vn 0.004324 0.991514 -0.129925
vn 0.004324 0.991514 -0.129925
vn 0.016932 0.851196 -0.524575
vn 0.016932 0.851196 -0.524575
vn 0.016932 0.851196 -0.524575
vn 0.016932 0.851196 -0.524575
vn -0.031126 0.860099 0.509176
vn -0.031126 0.860099 0.509176
vn -0.031126 0.860099 0.509176
vn -0.031126 0.860099 0.509176
vn 0.184670 0.980746 0.063511
vn 0.184670 0.980746 0.063511
vn 0.184670 0.980746 0.063511
vn 0.127760 0.980272 -0.150809
vn 0.127760 0.980272 -0.150809
vn 0.127760 0.980272 -0.150809
vn 0.252686 0.915396 -0.313368
vn 0.252686 0.915396 -0.313368
vn 0.252686 0.915396 -0.313368
vn 0.252686 0.915396 -0.313368
vn 0.218678 0.914493 0.340414
vn 0.218678 0.914493 0.340414
vn 0.218678 0.914493 0.340414
vn 0.218678 0.914493 0.340414
vn 0.221149 0.975233 -0.003667
vn 0.221149 0.975233 -0.003667
vn 0.221149 0.975233 -0.003667
vn 0.221149 0.975233 -0.003667
vn 0.000000 1.000000 0.000000
vn 0.000000 1.000000 0.000000
vn 0.000000 1.000000 0.000000
vn -0.039143 0.998692 0.032898
vn -0.039143 0.998692 0.032898
vn -0.039143 0.998692 0.032898
vn -0.200909 0.979594 -0.005587
vn -0.200909 0.979594 -0.005587
vn -0.200909 0.979594 -0.005587
vn -0.200909 0.979594 -0.005587
vn -0.522380 0.852563 -0.015988
vn -0.522380 0.852563 -0.015988
vn -0.522380 0.852563 -0.015988
vn -0.522380 0.852563 -0.015988
vn 0.524554 0.851013 -0.024888
vn 0.524554 0.851013 -0.024888
vn 0.524554 0.851013 -0.024888
vn 0.524554 0.851013 -0.024888
vn -0.017595 0.850950 -0.524952
vn -0.017595 0.850950 -0.524952
vn -0.017595 0.850950 -0.524952
vn -0.017595 0.850950 -0.524952
vn 0.020432 0.859305 0.511055
vn 0.020432 0.859305 0.511055
vn 0.020432 0.859305 0.511055
vn 0.020432 0.859305 0.511055
vn 0.009782 0.983756 0.179243
vn 0.009782 0.983756 0.179243
vn 0.009782 0.983756 0.179243
vn 0.009782 0.983756 0.179243
vn 0.046430 0.997562 0.052091
vn 0.046430 0.997562 0.052091
vn 0.046430 0.997562 0.052091
vn -0.006030 0.990441 -0.137804
vn -0.006030 0.990441 -0.137804
vn -0.006030 0.990441 -0.137804
vn -0.006030 0.990441 -0.137804
vn -0.208135 0.978086 0.005310
vn -0.208135 0.978086 0.005310
vn -0.208135 0.978086 0.005310
vn -0.208135 0.978086 0.005310
vn -0.519870 0.854149 0.012853
vn -0.519870 0.854149 0.012853
vn -0.519870 0.854149 0.012853
vn -0.519870 0.854149 0.012853
vn 0.521377 0.852914 0.026528
vn 0.521377 0.852914 0.026528
vn 0.521377 0.852914 0.026528
vn 0.521377 0.852914 0.026528
vn 0.217011 0.976163 0.003513
vn 0.217011 0.976163 0.003513
vn 0.217011 0.976163 0.003513
vn 0.217011 0.976163 0.003513
vn 0.034065 0.998771 -0.036009
vn 0.034065 0.998771 -0.036009
vn 0.034065 0.998771 -0.036009
vn 0.000000 1.000000 0.000000
vn 0.000000 1.000000 0.000000
vn 0.000000 1.000000 0.000000
vn -0.039366 0.998490 -0.038304
vn -0.039366 0.998490 -0.038304
vn -0.039366 0.998490 -0.038304
vn 0.000000 1.000000 0.000000
vn 0.000000 1.000000 0.000000
vn 0.000000 1.000000 0.000000
vn -0.065602 0.984295 -0.163889
vn -0.065602 0.984295 -0.163889
vn -0.065602 0.984295 -0.163889
vn 0.205142 0.976766 -0.062009
vn 0.205142 0.976766 -0.062009
vn 0.205142 0.976766 -0.062009
vn 0.108423 0.980882 0.161599
vn 0.108423 0.980882 0.161599
vn 0.108423 0.980882 0.161599
vn -0.232086 0.969539 0.078301
vn -0.232085 0.969539 0.078301
vn -0.232085 0.969539 0.078301
vn 0.000000 1.000000 -0.000000
vn 0.000000 1.000000 -0.000000
vn 0.000000 1.000000 -0.000000
s off
f 1/1/1 17/23/2 13/19/3 3/3/4
f 3/3/5 13/19/6 25/32/7
f 5/5/8 15/21/9 16/22/10 7/7/11
f 2/2/12 28/36/13 23/30/14 4/4/15
f 27/35/16 1/1/17 3/3/18 26/33/19
f 7/11/20 10/15/21 9/13/22 5/12/23
f 12/18/24 11/16/25 8/9/26 6/10/27
f 9/14/28 14/20/29 5/5/30
f 13/19/31 32/40/32 33/41/33 25/32/34
f 15/21/35 14/20/36 34/42/37 29/37/38
f 16/22/39 15/21/40 29/37/41 30/38/42
f 13/19/43 17/23/44 31/39/45 32/40/46
f 24/31/47 4/4/48 23/29/49
f 20/26/50 19/25/51 6/6/52
f 21/27/53 20/26/54 6/6/55 8/8/56
f 18/24/57 22/28/58 2/2/59 4/4/60
f 24/31/61 23/29/62 39/48/63 40/50/64
f 25/32/65 33/41/66 35/43/67
f 35/43/68 33/41/69 41/51/70
f 26/34/71 25/32/72 35/43/73 36/45/74
f 37/46/75 27/35/76 26/33/77 36/44/78
f 23/30/79 28/36/80 38/47/81 39/49/82
f 30/38/83 29/37/84 20/26/85 21/27/86
f 32/40/87 31/39/88 22/28/89 18/24/90
f 33/41/91 32/40/92 18/24/93 24/31/94
f 41/51/95 33/41/96 40/50/97
f 29/37/98 34/42/99 19/25/100 20/26/101
f 36/45/102 35/43/103 14/20/104 9/14/105
f 10/15/106 37/46/107 36/44/108 9/13/109
f 39/49/110 38/47/111 11/16/112 12/18/113
f 40/50/114 39/48/115 12/17/116 19/25/117
f 41/51/118 40/50/119 34/42/120
f 34/42/121 40/50/122 19/25/123
f 41/51/124 34/42/125 35/43/126
f 35/43/127 34/42/128 14/20/129
f 5/5/130 14/20/131 15/21/132
f 6/6/133 19/25/134 12/17/135
f 18/24/136 4/4/137 24/31/138
f 3/3/139 25/32/140 26/34/141
f 40/50/142 33/41/143 24/31/144
