# This file uses centimeters as units for non-parametric coordinates.

v 9.757232 21.119877 -104.166222
v 23.266506 16.931721 -108.413788
v -23.151588 23.760811 135.389847
v -15.120316 0.000004 217.720169
v -44.948242 0.943048 -16.607906
v -39.462997 0.000004 -124.026245
v 37.563370 0.000004 -92.278145
v -10.894632 14.233768 -32.974289
v 18.469858 0.758050 -235.754486
v 27.265263 0.000004 -178.818222
v 3.978014 12.777097 -162.697693
v 4.018212 0.758050 -230.930038
v -21.278715 0.758050 -223.199936
v -39.355850 0.000004 136.057419
v -22.710228 6.915966 183.344406
v 28.333282 0.399027 173.299545
v 16.822052 14.247033 127.041771
v 6.359196 11.189094 205.174393
v -2.583694 18.570738 150.455612
v 20.825958 18.756500 185.608047
v 23.585701 0.000004 226.201004
v -9.090614 29.745689 132.344193
v 12.065220 0.000004 235.754532
v -7.116890 0.000004 233.241409
v -28.019999 19.882008 -103.887466
v -29.119970 0.758050 -214.627548
v 44.948292 2.402104 -29.539917
v 31.562805 0.000004 131.804031
v 9.929705 21.018814 -37.393093
v 26.580809 17.450092 -24.061346
v 40.476273 0.000004 -122.558594
v -0.096607 27.196121 -23.484137
v -4.022121 18.367191 -107.607941
v -7.738781 10.528714 -173.856644
v -28.553249 10.152104 -20.707037
v 2.989006 22.992519 -47.722908
v -18.319845 16.339762 28.644466
v -30.514194 11.937463 33.710098
v -43.340969 3.266835 38.936138
v -8.770370 19.002844 28.758001
v 34.250641 2.056654 35.313320
v 24.250509 10.984724 36.037064
v 12.922335 18.591265 28.381252
v 1.883268 18.607874 24.434185
v -5.229807 21.713140 74.621300
v -19.339132 20.267639 80.082893
v 17.181826 19.922615 81.861977
v 24.564362 9.721765 80.620331
v -42.249344 1.809362 88.309334
v 27.829597 0.000003 80.218842
v 5.486727 21.471046 77.866844
vt 0.176840 0.276627
vt 0.176840 0.276627
vt 0.176840 0.276627
vt 0.176840 0.276627
vt 0.176840 0.276627
vt 0.176840 0.276627
vt 0.176840 0.276627
vt 0.176840 0.276627
vt 0.176840 0.276627
vt 0.176840 0.276627
vt 0.176840 0.276627
vt 0.176840 0.276627
vt 0.176840 0.276627
vt 0.176840 0.276627
vt 0.176840 0.276627
vt 0.176840 0.276627
vt 0.176840 0.276627
vt 0.176840 0.276627
vt 0.176840 0.276627
vt 0.176840 0.276627
vt 0.176840 0.276627
vt 0.176840 0.276627
vt 0.176840 0.276627
vt 0.176840 0.276627
vt 0.176840 0.276627
vt 0.176840 0.276627
vt 0.176840 0.276627
vt 0.176840 0.276627
vt 0.176840 0.276627
vt 0.176840 0.276627
vt 0.176840 0.276627
vt 0.176840 0.276627
vt 0.176840 0.276627
vt 0.176840 0.276627
vt 0.176840 0.276627
vt 0.176840 0.276627
vt 0.176840 0.276627
vt 0.176840 0.276627
vt 0.176840 0.276627
vt 0.176840 0.276627
vt 0.176840 0.276627
vt 0.176840 0.276627
vt 0.176840 0.276627
vt 0.176840 0.276627
vt 0.176840 0.276627
vt 0.176840 0.276627
vt 0.176840 0.276627
vt 0.176840 0.276627
vt 0.176840 0.276627
vt 0.176840 0.276627
vt 0.176840 0.276627
vn -0.357332 0.920364 0.158885
vn -0.226713 0.968623 -0.101838
vn -0.254201 0.961033 -0.108611
vn -0.357332 0.920364 0.158885
vn -0.729754 0.656613 0.190573
vn -0.729754 0.656613 0.190573
vn -0.673635 0.739064 0.000051
vn -0.690635 0.723188 -0.004673
vn -0.676821 0.719500 0.155669
vn -0.419429 0.906113 -0.055118
vn -0.425451 0.903462 -0.052423
vn -0.676821 0.719500 0.155669
vn -0.706485 0.639993 0.302139
vn -0.706485 0.639993 0.302139
vn -0.706485 0.639993 0.302139
vn 0.561439 0.822597 0.090117
vn 0.561439 0.822597 0.090117
vn 0.561439 0.822597 0.090117
vn -0.286285 0.945675 0.154078
vn -0.286285 0.945675 0.154078
vn -0.286285 0.945675 0.154078
vn -0.085827 0.981192 0.172908
vn -0.085827 0.981192 0.172908
vn -0.085827 0.981192 0.172908
vn -0.182633 0.954863 0.234269
vn -0.182633 0.954863 0.234269
vn -0.182633 0.954863 0.234269
vn 0.514386 0.850523 0.109629
vn 0.514386 0.850523 0.109629
vn 0.514386 0.850523 0.109629
vn 0.489234 0.867473 0.090221
vn 0.489234 0.867473 0.090221
vn 0.489234 0.867473 0.090221
vn -0.471429 0.843439 0.257614
vn -0.471429 0.843439 0.257614
vn -0.471429 0.843439 0.257614
vn -0.243053 0.875322 0.418014
vn -0.243053 0.875322 0.418014
vn -0.243053 0.875322 0.418014
vn -0.282649 0.869811 0.404399
vn -0.282649 0.869811 0.404400
vn -0.282649 0.869811 0.404399
vn 0.102360 0.942154 0.319167
vn 0.102360 0.942154 0.319167
vn 0.102360 0.942154 0.319167
vn -0.214734 0.972216 0.093200
vn -0.214734 0.972216 0.093200
vn -0.214734 0.972216 0.093200
vn -0.149869 0.958064 0.244238
vn -0.149869 0.958064 0.244238
vn -0.149869 0.958064 0.244238
vn -0.301211 0.953401 -0.017309
vn -0.301211 0.953400 -0.017309
vn -0.301211 0.953400 -0.017309
vn -0.378953 0.917491 0.120852
vn -0.378953 0.917491 0.120852
vn -0.378953 0.917491 0.120852
vn -0.199700 0.970782 -0.133052
vn -0.199700 0.970782 -0.133052
vn -0.199700 0.970782 -0.133052
vn -0.755855 0.636251 -0.154494
vn -0.755855 0.636251 -0.154494
vn -0.755855 0.636251 -0.154494
vn -0.811520 0.539543 -0.224340
vn -0.811520 0.539543 -0.224340
vn -0.811520 0.539543 -0.224340
vn -0.846258 0.454370 -0.278199
vn -0.846258 0.454370 -0.278199
vn -0.846258 0.454370 -0.278199
vn -0.891539 0.415371 -0.180624
vn -0.891539 0.415371 -0.180624
vn -0.891539 0.415371 -0.180624
vn 0.513917 0.782856 -0.350750
vn 0.513917 0.782856 -0.350751
vn 0.513917 0.782856 -0.350750
vn 0.588659 0.807940 -0.026703
vn 0.756510 0.652418 0.045207
vn 0.753546 0.655715 0.046963
vn 0.588659 0.807940 -0.026703
vn -0.129085 0.988562 0.077989
vn -0.129085 0.988562 0.077989
vn -0.129085 0.988562 0.077989
vn 0.300712 0.953578 0.016171
vn 0.300712 0.953578 0.016171
vn 0.300712 0.953578 0.016171
vn 0.895870 0.413242 0.163243
vn 0.895870 0.413242 0.163243
vn 0.895870 0.413242 0.163243
vn 0.849147 0.455039 -0.268121
vn 0.849147 0.455039 -0.268121
vn 0.709511 0.697616 0.099628
vn 0.702045 0.704933 0.101008
vn 0.829243 0.526933 0.186273
vn 0.829243 0.526933 0.186273
vn 0.829243 0.526933 0.186273
vn 0.780026 0.560125 0.278961
vn 0.780026 0.560125 0.278961
vn 0.780026 0.560125 0.278961
vn 0.577898 0.786605 0.217456
vn 0.577898 0.786605 0.217456
vn 0.577898 0.786605 0.217456
vn 0.609200 0.766862 0.201987
vn 0.609200 0.766862 0.201987
vn 0.609200 0.766862 0.201987
vn 0.054901 0.995518 0.077012
vn 0.331065 0.943463 0.016521
vn 0.277158 0.960821 0.002630
vn 0.054901 0.995517 0.077012
vn -0.003132 0.999955 0.008997
vn -0.003132 0.999955 0.008997
vn -0.003132 0.999955 0.008997
vn -0.035434 0.997834 0.055424
vn 0.042720 0.994903 -0.091341
vn 0.037406 0.996079 -0.080176
vn -0.082057 0.912322 -0.401168
vn -0.082057 0.912322 -0.401168
vn -0.082057 0.912322 -0.401168
vn -0.119265 0.915582 -0.384037
vn -0.119265 0.915582 -0.384037
vn -0.119265 0.915582 -0.384037
vn 0.011437 0.949714 -0.312910
vn 0.011437 0.949714 -0.312910
vn 0.011437 0.949714 -0.312910
vn -0.451357 0.865533 -0.217094
vn -0.451357 0.865533 -0.217094
vn -0.451357 0.865533 -0.217094
vn 0.067464 0.997297 0.029108
vn 0.067464 0.997297 0.029108
vn 0.067464 0.997297 0.029108
vn 0.655195 0.717797 -0.235559
vn 0.655195 0.717797 -0.235559
vn 0.655195 0.717797 -0.235559
vn 0.294579 0.955612 -0.005343
vn 0.294579 0.955612 -0.005343
vn 0.294579 0.955612 -0.005343
vn 0.719046 0.690942 -0.074651
vn 0.719046 0.690942 -0.074651
vn 0.719046 0.690942 -0.074651
vn 0.281689 0.875900 -0.391728
vn 0.281689 0.875900 -0.391728
vn 0.281689 0.875900 -0.391728
vn 0.722381 0.661834 -0.200354
vn 0.722381 0.661834 -0.200354
vn 0.722381 0.661834 -0.200354
vn -0.206136 0.977559 0.043428
vn -0.206136 0.977559 0.043428
vn -0.206136 0.977559 0.043428
vn -0.222901 0.974110 0.037753
vn -0.222901 0.974110 0.037753
vn -0.222901 0.974110 0.037753
vn 0.209436 0.892388 -0.399725
vn 0.209436 0.892388 -0.399725
vn 0.209436 0.892388 -0.399725
vn -0.166268 0.768421 -0.617967
vn -0.166268 0.768421 -0.617967
vn -0.166268 0.768421 -0.617967
vn -0.592710 0.805334 0.011543
vn -0.590228 0.807189 0.008830
vn -0.729754 0.656613 0.190573
vn -0.425451 0.903462 -0.052423
vn -0.419429 0.906113 -0.055118
vn -0.367053 0.926920 -0.078054
vn -0.267514 0.961657 -0.060430
vn -0.267567 0.961773 -0.058319
vn -0.114064 0.991688 0.059529
vn -0.114064 0.991688 0.059529
vn 0.423951 0.903193 0.067148
vn 0.470857 0.881671 0.030825
vn 0.336895 0.939906 -0.055484
vn 0.336895 0.939906 -0.055484
vn 0.702045 0.704933 0.101008
vn 0.709511 0.697616 0.099628
vn 0.865391 0.500109 0.031454
vn 0.867970 0.495775 0.028898
vn 0.021686 0.998460 0.051070
vn 0.058042 0.998303 -0.004693
vn 0.054901 0.995517 0.077012
vn -0.226935 0.973859 -0.009950
vn -0.342425 0.939453 0.013139
vn -0.035434 0.997834 0.055424
vn -0.035434 0.997834 0.055424
vn -0.254201 0.961033 -0.108611
vn -0.226713 0.968623 -0.101838
vn -0.131465 0.988242 -0.078068
vn -0.690635 0.723188 -0.004673
vn -0.673635 0.739064 0.000051
vn -0.590228 0.807189 0.008830
vn -0.592710 0.805334 0.011543
vn -0.268047 0.962726 -0.036200
vn -0.267567 0.961773 -0.058319
vn -0.267514 0.961657 -0.060430
vn 0.586950 0.806860 -0.066834
vn 0.470857 0.881671 0.030825
vn 0.423951 0.903193 0.067148
vn 0.753546 0.655715 0.046963
vn 0.756510 0.652418 0.045207
vn 0.810684 0.585383 0.010876
vn 0.277158 0.960821 0.002630
vn 0.331065 0.943463 0.016521
vn 0.058042 0.998303 -0.004693
vn 0.021686 0.998460 0.051070
vn 0.037406 0.996079 -0.080176
vn 0.042720 0.994903 -0.091341
vn -0.342425 0.939453 0.013139
vn -0.226935 0.973859 -0.009950
vn 0.867970 0.495775 0.028898
vn 0.865391 0.500109 0.031454
vn 0.849147 0.455039 -0.268121
s off
f 22/1/1 45/45/2 46/46/3 3/3/4
f 14/4/5 3/3/6 46/46/7 49/49/8
f 5/5/9 38/38/10 37/37/11 35/2/12
f 15/6/13 3/3/14 14/4/15
f 28/9/16 17/11/17 16/10/18
f 21/12/19 20/13/20 18/14/21
f 17/11/22 19/15/23 20/13/24
f 20/13/25 19/15/26 18/14/27
f 17/11/28 20/13/29 16/10/30
f 16/10/31 20/13/32 21/12/33
f 15/6/34 18/14/35 19/15/36
f 19/15/37 22/1/38 15/6/39
f 15/6/40 22/1/41 3/3/42
f 17/11/43 22/1/44 19/15/45
f 21/12/46 18/14/47 23/16/48
f 24/8/49 18/14/50 4/7/51
f 4/7/52 18/14/53 15/6/54
f 23/16/55 18/14/56 24/8/57
f 8/17/58 25/18/59 35/2/60
f 5/5/61 35/2/62 25/18/63
f 13/20/64 26/21/65 25/18/66
f 5/5/67 25/18/68 6/19/69
f 6/19/70 25/18/71 26/21/72
f 32/26/73 30/25/74 29/27/75
f 28/9/76 48/48/77 47/47/78 17/11/79
f 1/28/80 29/27/81 30/25/82
f 1/28/83 30/25/84 2/29/85
f 2/29/86 30/25/87 27/23/88
f 27/23/89 30/25/90 42/42/91 41/41/92
f 31/24/93 2/29/94 7/22/95
f 7/22/96 2/29/97 27/23/98
f 32/26/99 29/27/100 36/30/101
f 29/27/102 1/28/103 36/30/104
f 17/11/105 47/47/106 51/51/107 22/1/108
f 36/30/109 8/17/110 32/26/111
f 22/1/112 51/51/113 45/45/114
f 36/30/115 1/28/116 33/31/117
f 36/30/118 33/31/119 8/17/120
f 8/17/121 33/31/122 25/18/123
f 13/20/124 25/18/125 34/32/126
f 33/31/127 34/32/128 25/18/129
f 10/33/130 11/34/131 2/29/132
f 1/28/133 2/29/134 11/34/135
f 10/33/136 9/35/137 11/34/138
f 12/36/139 11/34/140 9/35/141
f 2/29/142 31/24/143 10/33/144
f 1/28/145 11/34/146 33/31/147
f 33/31/148 11/34/149 34/32/150
f 12/36/151 34/32/152 11/34/153
f 12/36/154 13/20/155 34/32/156
f 39/39/157 38/38/158 5/5/159
f 37/37/160 38/38/161 46/46/162
f 37/37/163 40/40/164 8/17/165 35/2/166
f 43/43/167 42/42/168 30/25/169 32/26/170
f 41/41/171 42/42/172 48/48/173 50/50/174
f 44/44/175 43/43/176 32/26/177
f 40/40/178 44/44/179 32/26/180 8/17/181
f 46/46/182 45/45/183 37/37/184
f 49/49/185 46/46/186 38/38/187 39/39/188
f 45/45/189 40/40/190 37/37/191
f 47/47/192 42/42/193 43/43/194
f 47/47/195 48/48/196 42/42/197
f 51/51/198 47/47/199 43/43/200 44/44/201
f 45/45/202 51/51/203 44/44/204 40/40/205
f 50/50/206 48/48/207 28/9/208
