# This file uses centimeters as units for non-parametric coordinates.

v -19.127655 5.608038 12.100661
v -20.492172 6.517881 -6.016397
v -12.333298 6.354578 -9.000540
v 10.633469 5.404419 4.471207
v 0.983429 7.035961 -0.548995
v -22.348404 4.550328 -15.636885
v -23.009109 2.797876 -15.620542
v -22.126007 2.797876 15.636885
v -10.652161 3.780467 -13.488949
v 4.576874 3.103994 -4.487073
v 23.009109 2.285233 6.408250
vt 0.431084 0.179646
vt 0.431084 0.179646
vt 0.431084 0.179646
vt 0.431084 0.179646
vt 0.431084 0.179646
vt 0.431084 0.179646
vt 0.431084 0.179646
vt 0.431084 0.179646
vt 0.431084 0.179646
vt 0.431084 0.179646
vt 0.431084 0.179646
vn -0.866386 0.498210 0.034079
vn -0.866386 0.498210 0.034079
vn -0.866386 0.498210 0.034079
vn -0.866386 0.498210 0.034079
vn 0.031796 0.951301 -0.306619
vn 0.031797 0.951301 -0.306619
vn 0.031796 0.951301 -0.306619
vn 0.031796 0.951301 -0.306619
vn 0.285562 0.836721 -0.467283
vn 0.285562 0.836721 -0.467283
vn 0.285562 0.836721 -0.467283
vn 0.285562 0.836721 -0.467283
vn 0.121959 0.825812 0.550601
vn 0.121959 0.825812 0.550601
vn 0.121959 0.825812 0.550601
vn -0.625389 0.775554 0.086051
vn -0.625389 0.775554 0.086051
vn -0.625389 0.775554 0.086051
vn 0.037287 0.998184 0.047321
vn 0.037287 0.998184 0.047321
vn 0.037287 0.998184 0.047321
vn -0.061008 0.998014 0.015665
vn -0.061008 0.998014 0.015665
vn -0.061008 0.998014 0.015665
vn 0.184845 0.687045 0.702710
vn 0.184845 0.687045 0.702710
vn 0.184845 0.687045 0.702710
vn 0.059016 0.977163 0.204131
vn 0.059016 0.977163 0.204131
vn 0.059016 0.977163 0.204131
vn 0.318447 0.843793 -0.431979
vn 0.318447 0.843793 -0.431979
vn 0.318447 0.843793 -0.431979
vn 0.318447 0.843793 -0.431979
s off
f 6/1/1 7/2/2 8/3/3 2/4/4
f 9/5/5 6/1/6 2/4/7 3/6/8
f 5/7/9 10/8/10 9/5/11 3/6/12
f 8/3/13 11/9/14 4/10/15
f 2/4/16 8/3/17 1/11/18
f 3/6/19 2/4/20 1/11/21
f 1/11/22 5/7/23 3/6/24
f 8/3/25 4/10/26 1/11/27
f 4/10/28 5/7/29 1/11/30
f 11/9/31 10/8/32 5/7/33 4/10/34
