# This file uses centimeters as units for non-parametric coordinates.

v 2.638672 5.013474 -25.793945
v -19.185547 4.573715 16.551758
v -10.210938 -28.686165 32.527344
v -11.585938 7.564442 27.569336
v 21.667969 -28.686152 -25.525391
v -26.353516 -28.686153 22.653320
v 8.195313 -28.686153 -32.526367
v -13.882813 -28.686153 -25.051758
v 12.562500 6.101631 -2.507813
v 20.634766 1.466747 -15.162109
v -4.203125 13.168324 10.904297
v -1.214844 8.591679 -6.036133
v -11.677734 8.045223 -19.519531
v -24.222656 4.691563 -8.357422
v -33.589844 -28.686155 -8.481445
v 3.729492 3.288839 24.428711
v 8.442383 -28.686153 25.706055
v 26.699219 -28.686152 15.064453
v 23.751953 6.902931 12.180664
v 5.086914 11.336224 19.196289
v 25.979492 0.380468 -1.725586
v 33.589844 -28.686157 -8.483398
vt -0.734614 2.364177
vt -0.701978 2.351325
vt -0.714293 2.402383
vt -0.740762 2.397282
vt -0.713114 2.447955
vt -0.733960 2.426294
vt 1.551115 2.449795
vt 1.565505 2.415149
vt 1.608675 2.408237
vt 1.523038 2.432220
vt 1.659024 2.399328
vt 1.631929 2.357711
vt 1.658338 2.355321
vt -0.706053 2.320171
vt 1.599683 2.376379
vt 1.614590 2.461444
vt 1.643035 2.432432
vt -0.646475 2.484422
vt -0.652543 2.501996
vt -0.675915 2.518572
vt -0.675524 2.481243
vt 1.504781 2.689605
vt 1.523223 2.617605
vt 1.528651 2.689318
vt -1.036876 2.650892
vt -1.036637 2.708494
vt -1.060250 2.636781
vt -0.655148 2.449005
vt -0.672894 2.438106
vt 1.562253 2.350503
vt 1.544376 2.393665
vt -0.638825 2.445867
vt 1.597688 2.345349
vt -0.074402 2.763997
vt -0.053036 2.787963
vt -0.074174 2.803406
vt 1.614911 2.327752
vt -0.647817 2.402705
vt -0.676864 2.395889
vt 1.414177 2.721322
vt 1.427408 2.753479
vt 1.398362 2.760148
vt 1.395243 2.705693
vn -0.317734 0.135102 -0.938506
vn -0.317734 0.135102 -0.938506
vn -0.317734 0.135102 -0.938506
vn -0.367607 0.160046 -0.916106
vn -0.367607 0.160046 -0.916106
vn -0.367607 0.160046 -0.916106
vn -0.652734 0.167351 -0.738872
vn -0.652734 0.167351 -0.738872
vn -0.652734 0.167351 -0.738872
vn -0.652734 0.167351 -0.738872
vn -0.557960 0.771096 -0.306744
vn -0.557960 0.771096 -0.306744
vn -0.557960 0.771096 -0.306744
vn -0.470972 0.877892 0.086559
vn -0.470972 0.877891 0.086559
vn -0.470972 0.877891 0.086559
vn 0.528488 0.292071 -0.797117
vn 0.528488 0.292071 -0.797117
vn 0.528488 0.292071 -0.797117
vn 0.446987 0.245547 -0.860180
vn 0.446987 0.245547 -0.860180
vn 0.446987 0.245547 -0.860180
vn 0.224774 0.952498 -0.205486
vn 0.224774 0.952498 -0.205486
vn 0.224774 0.952498 -0.205486
vn 0.261075 0.957515 -0.122490
vn 0.261075 0.957516 -0.122490
vn 0.261075 0.957515 -0.122490
vn -0.170844 0.984518 0.039206
vn -0.170844 0.984518 0.039206
vn -0.170844 0.984518 0.039206
vn 0.141665 0.978547 -0.149588
vn 0.141665 0.978547 -0.149588
vn 0.141665 0.978547 -0.149588
vn -0.662914 0.171213 0.728856
vn -0.662914 0.171213 0.728856
vn -0.662914 0.171213 0.728856
vn -0.662914 0.171213 0.728856
vn -0.939767 0.262926 0.218420
vn -0.939767 0.262926 0.218420
vn -0.939767 0.262926 0.218420
vn -0.951173 0.240486 0.193483
vn -0.951173 0.240486 0.193483
vn -0.951173 0.240486 0.193483
vn 0.236372 0.140464 0.961456
vn 0.236372 0.140464 0.961456
vn 0.236372 0.140464 0.961456
vn 0.342118 0.087799 0.935546
vn 0.342118 0.087799 0.935546
vn 0.342118 0.087799 0.935546
vn 0.222884 0.949329 -0.221579
vn 0.222884 0.949329 -0.221579
vn 0.222884 0.949329 -0.221579
vn 0.219940 0.975021 -0.030982
vn 0.219940 0.975021 -0.030982
vn 0.219940 0.975021 -0.030982
vn -0.070406 0.954502 0.289775
vn -0.070406 0.954502 0.289775
vn -0.070406 0.954502 0.289775
vn 0.303275 0.482952 0.821451
vn 0.303275 0.482953 0.821451
vn 0.303275 0.482953 0.821451
vn 0.394980 0.914919 -0.083147
vn 0.394980 0.914919 -0.083147
vn 0.394980 0.914919 -0.083147
vn 0.385532 0.857579 -0.340476
vn 0.385532 0.857579 -0.340476
vn 0.385532 0.857579 -0.340476
vn 0.799401 0.219594 -0.559228
vn 0.799401 0.219594 -0.559228
vn 0.799401 0.219594 -0.559228
vn 0.891723 0.310113 -0.329635
vn 0.891723 0.310113 -0.329635
vn 0.891723 0.310113 -0.329635
vn 0.405856 0.449093 0.795988
vn 0.405856 0.449093 0.795988
vn 0.405856 0.449093 0.795988
vn 0.502453 0.109784 0.857606
vn 0.502453 0.109784 0.857606
vn 0.502453 0.109784 0.857606
vn 0.502453 0.109784 0.857606
vn 0.966831 0.145286 0.210073
vn 0.966830 0.145286 0.210073
vn 0.966830 0.145286 0.210073
vn 0.966831 0.145286 0.210073
vn 0.227049 0.949520 -0.216472
vn 0.227049 0.949520 -0.216472
vn 0.227049 0.949520 -0.216472
vn -0.175824 0.979657 0.096733
vn -0.175824 0.979658 0.096733
vn -0.175824 0.979657 0.096733
s off
f 1/1/1 7/2/2 8/3/3
f 1/1/4 8/3/5 13/4/6
f 8/3/7 15/5/8 14/6/9 13/4/10
f 2/7/11 11/8/12 12/9/13
f 2/7/14 4/10/15 11/8/16
f 1/11/17 10/12/18 5/13/19
f 1/1/20 5/14/21 7/2/22
f 9/15/23 10/12/24 12/9/25
f 1/11/26 12/9/27 10/12/28
f 2/7/29 12/9/30 14/16/31
f 1/11/32 13/17/33 12/9/34
f 4/18/35 2/19/36 6/20/37 3/21/38
f 15/22/39 6/23/40 14/24/41
f 2/25/42 14/26/43 6/27/44
f 4/18/45 3/21/46 16/28/47
f 16/28/48 3/21/49 17/29/50
f 9/15/51 11/8/52 19/30/53
f 19/30/54 11/8/55 20/31/56
f 11/8/57 4/10/58 20/31/59
f 20/32/60 4/18/61 16/28/62
f 10/12/63 9/15/64 21/33/65
f 21/33/66 9/15/67 19/30/68
f 5/34/69 10/35/70 22/36/71
f 22/37/72 10/12/73 21/33/74
f 20/32/75 16/28/76 19/38/77
f 19/38/78 16/28/79 17/29/80 18/39/81
f 21/40/82 19/41/83 18/42/84 22/43/85
f 12/9/86 11/8/87 9/15/88
f 14/16/89 12/9/90 13/17/91
