# This file uses centimeters as units for non-parametric coordinates.

v -20.383261 6.960321 -16.131878
v 4.676437 4.097105 36.411762
v 29.499435 -3.043628 33.995914
v 22.432327 7.034373 32.095432
v -10.599518 -4.882741 -50.738239
v -1.501083 -3.197694 50.738049
v 4.844284 -9.172892 1.138258
v -20.224192 -5.007744 2.614355
v -23.403360 -5.846047 -25.792027
v -41.517262 -1.648816 -1.983547
v 8.357430 7.190871 -10.676384
v 0.687027 3.501582 -42.719936
v 9.443665 9.037566 13.278865
v -7.953262 9.172893 -0.537014
v -33.058167 8.737922 -0.214481
v -17.759897 5.310225 14.912700
v -26.173019 -2.869993 23.361492
v 32.269669 2.908683 15.765953
v 37.932205 -2.012432 12.344838
v 41.516876 -3.569412 -11.553860
v 34.883499 2.515960 -10.986805
v 27.322388 8.248591 11.522484
v 9.511185 -7.756162 -41.370869
v 21.220779 2.636957 -38.412762
v 19.981956 -4.793096 -49.959660
vt 0.177560 0.276854
vt 0.177560 0.276854
vt 0.177560 0.276854
vt 0.177560 0.276854
vt 0.177560 0.276854
vt 0.177560 0.276854
vt 0.177560 0.276854
vt 0.177560 0.276854
vt 0.177560 0.276854
vt 0.177560 0.276854
vt 0.177560 0.276854
vt 0.177560 0.276854
vt 0.177560 0.276854
vt 0.177560 0.276854
vt 0.177560 0.276854
vt 0.177560 0.276854
vt 0.177560 0.276854
vt 0.177560 0.276854
vt 0.177560 0.276854
vt 0.177560 0.276854
vt 0.177560 0.276854
vt 0.177560 0.276854
vt 0.177560 0.276854
vt 0.177560 0.276854
vt 0.177560 0.276854
vt 0.177560 0.276854
vt 0.177560 0.276854
vt 0.177560 0.276854
vt 0.177560 0.276854
vt 0.177560 0.276854
vt 0.177560 0.276854
vt 0.177560 0.276854
vt 0.177560 0.276854
vt 0.177560 0.276854
vt 0.177560 0.276854
vt 0.177560 0.276854
vt 0.177560 0.276854
vt 0.177560 0.276854
vt 0.177560 0.276854
vt 0.177560 0.276854
vt 0.177560 0.276854
vt 0.177560 0.276854
vt 0.177560 0.276854
vt 0.177560 0.276854
vt 0.177560 0.276854
vt 0.177560 0.276854
vt 0.177560 0.276854
vt 0.177560 0.276854
vt 0.177560 0.276854
vn -0.178349 -0.977598 0.111772
vn -0.178349 -0.977598 0.111772
vn -0.178349 -0.977598 0.111772
vn -0.154885 -0.987923 -0.004435
vn -0.154885 -0.987923 -0.004435
vn -0.154885 -0.987923 -0.004435
vn -0.761984 0.494824 -0.417767
vn -0.761984 0.494824 -0.417767
vn -0.761984 0.494824 -0.417767
vn -0.712707 0.632195 -0.303938
vn -0.712707 0.632195 -0.303938
vn -0.712707 0.632195 -0.303938
vn -0.716456 0.689424 0.106700
vn -0.716456 0.689424 0.106700
vn -0.716456 0.689424 0.106700
vn -0.716456 0.689424 0.106700
vn -0.368198 0.904499 0.215203
vn -0.368199 0.904499 0.215203
vn -0.368199 0.904499 0.215203
vn -0.123431 0.939115 0.320667
vn -0.123431 0.939115 0.320667
vn -0.123431 0.939115 0.320667
vn -0.125306 0.768657 -0.627268
vn -0.125306 0.768657 -0.627268
vn -0.125306 0.768657 -0.627268
vn -0.316922 0.617667 -0.719756
vn -0.316922 0.617667 -0.719756
vn -0.316922 0.617667 -0.719756
vn -0.016385 0.976002 -0.217144
vn -0.016385 0.976002 -0.217144
vn -0.016385 0.976002 -0.217144
vn 0.032413 0.978885 -0.201825
vn 0.032413 0.978885 -0.201825
vn 0.032413 0.978885 -0.201825
vn -0.038801 0.992842 0.112953
vn -0.038801 0.992842 0.112953
vn -0.038801 0.992842 0.112953
vn -0.018988 0.989458 -0.143568
vn -0.018988 0.989458 -0.143568
vn -0.018988 0.989458 -0.143568
vn 0.102572 0.554490 0.825845
vn 0.102572 0.554490 0.825845
vn 0.102572 0.554490 0.825845
vn 0.102572 0.554490 0.825845
vn -0.179818 0.790132 0.585967
vn -0.179818 0.790132 0.585967
vn -0.179818 0.790132 0.585967
vn -0.234759 0.728516 0.643547
vn -0.234759 0.728516 0.643547
vn -0.234759 0.728516 0.643547
vn -0.157024 -0.982061 0.104407
vn -0.157024 -0.982061 0.104407
vn -0.157024 -0.982061 0.104407
vn -0.164590 -0.986287 -0.012172
vn -0.164590 -0.986287 -0.012172
vn -0.164590 -0.986287 -0.012172
vn -0.008832 -0.998807 -0.048033
vn -0.008832 -0.998807 -0.048033
vn -0.008832 -0.998807 -0.048033
vn -0.033428 -0.977673 0.207459
vn -0.033428 -0.977673 0.207458
vn -0.033428 -0.977673 0.207458
vn 0.764914 0.539027 0.352642
vn 0.764914 0.539027 0.352642
vn 0.764914 0.539027 0.352642
vn 0.804733 0.488908 0.336710
vn 0.804733 0.488908 0.336711
vn 0.804733 0.488908 0.336710
vn 0.169766 -0.983884 0.056147
vn 0.169766 -0.983884 0.056147
vn 0.169766 -0.983884 0.056147
vn 0.422879 -0.897945 0.121935
vn 0.422879 -0.897945 0.121935
vn 0.422879 -0.897945 0.121935
vn -0.024208 0.974436 -0.223358
vn -0.024208 0.974436 -0.223358
vn -0.024208 0.974436 -0.223358
vn 0.058771 0.988695 -0.137944
vn 0.058771 0.988695 -0.137944
vn 0.058771 0.988695 -0.137944
vn 0.105407 0.980593 0.165306
vn 0.105407 0.980593 0.165306
vn 0.105407 0.980593 0.165306
vn 0.662294 0.704495 0.255055
vn 0.662294 0.704495 0.255055
vn 0.662294 0.704495 0.255055
vn -0.028881 -0.997875 -0.058409
vn -0.028881 -0.997875 -0.058409
vn -0.028881 -0.997875 -0.058409
vn 0.141304 -0.989553 -0.028595
vn 0.141304 -0.989553 -0.028595
vn 0.141304 -0.989553 -0.028595
vn 0.096583 0.958564 -0.268004
vn 0.096583 0.958564 -0.268004
vn 0.096583 0.958564 -0.268004
vn -0.023951 0.922391 -0.385514
vn -0.023951 0.922391 -0.385514
vn -0.023951 0.922391 -0.385514
vn 0.016694 0.679287 -0.733683
vn 0.016694 0.679287 -0.733683
vn 0.016694 0.679287 -0.733683
vn 0.149301 0.824175 -0.546302
vn 0.149301 0.824175 -0.546302
vn 0.149301 0.824175 -0.546302
vn -0.018649 -0.966399 -0.256370
vn -0.018649 -0.966399 -0.256370
vn -0.018649 -0.966399 -0.256370
vn 0.010787 -0.949262 -0.314301
vn 0.010787 -0.949262 -0.314301
vn 0.010787 -0.949262 -0.314301
vn 0.178525 -0.976676 -0.119300
vn 0.178525 -0.976676 -0.119300
vn 0.178525 -0.976676 -0.119300
vn 0.718092 0.677069 0.161002
vn 0.718092 0.677069 0.161002
vn 0.718092 0.677069 0.161002
vn 0.850081 0.510751 0.128437
vn 0.850081 0.510751 0.128437
vn 0.850081 0.510751 0.128437
vn 0.850081 0.510751 0.128437
vn 0.515045 0.555378 -0.652905
vn 0.515045 0.555378 -0.652905
vn 0.515045 0.555378 -0.652905
vn 0.515045 0.555378 -0.652905
vn -0.020532 0.974483 -0.223519
vn -0.020532 0.974483 -0.223519
vn -0.020532 0.974483 -0.223519
vn -0.015349 0.989979 0.140381
vn -0.015349 0.989979 0.140381
vn -0.015349 0.989979 0.140381
s off
f 8/1/1 10/2/2 9/3/3
f 17/4/4 10/2/5 8/1/6
f 1/5/7 9/3/8 10/2/9
f 1/5/10 10/2/11 15/6/12
f 10/2/13 17/4/14 16/7/15 15/6/16
f 2/8/17 13/9/18 14/10/19
f 2/8/20 4/11/21 13/9/22
f 1/5/23 12/12/24 5/13/25
f 1/5/26 5/13/27 9/3/28
f 11/14/29 12/12/30 14/10/31
f 1/5/32 14/10/33 12/12/34
f 2/8/35 14/10/36 16/7/37
f 1/5/38 15/6/39 14/10/40
f 4/11/41 2/8/42 6/15/43 3/16/44
f 17/4/45 6/15/46 16/7/47
f 2/8/48 16/7/49 6/15/50
f 9/3/51 7/17/52 8/1/53
f 8/1/54 7/17/55 17/4/56
f 6/15/57 17/4/58 3/16/59
f 3/16/60 17/4/61 7/17/62
f 4/18/63 3/19/64 18/20/65
f 18/20/66 3/19/67 19/21/68
f 7/22/69 20/23/70 3/24/71
f 3/24/72 20/23/73 19/25/74
f 11/26/75 13/27/76 21/28/77
f 21/28/78 13/27/79 22/29/80
f 13/30/81 4/31/82 22/32/83
f 22/32/84 4/31/85 18/33/86
f 9/34/87 23/35/88 7/36/89
f 7/36/90 23/35/91 20/37/92
f 12/38/93 11/39/94 24/40/95
f 24/40/96 11/39/97 21/41/98
f 5/42/99 12/43/100 25/44/101
f 25/44/102 12/43/103 24/45/104
f 9/46/105 5/47/106 23/48/107
f 23/48/108 5/47/109 25/49/110
f 23/48/111 25/44/112 20/37/113
f 22/32/114 18/20/115 21/28/116
f 21/28/117 18/20/118 19/25/119 20/37/120
f 24/40/121 21/28/122 20/37/123 25/44/124
f 14/10/125 13/9/126 11/14/127
f 16/7/128 14/10/129 15/6/130
