# This file uses centimeters as units for non-parametric coordinates.

v 0.000004 0.000000 -0.000003
v 500.000000 0.000000 0.000000
v 0.000000 0.000000 -500.000000
v 500.000000 0.000000 -500.000000
v 500.000000 0.000000 -45.186844
v 0.000004 0.000000 -454.134918
v 126.483238 0.000000 -379.200409
v 267.349335 0.000000 -253.986023
v 192.674332 0.000000 -301.681946
v 412.386871 0.000000 -82.309479
v 358.859039 0.000000 -129.888672
v 378.394867 0.000000 -127.557892
vt 0.059865 0.003457
vt 0.059865 0.003457
vt 0.059865 0.003457
vt 0.059865 0.003457
vt 0.059865 0.003457
vt 0.059865 0.003457
vt 0.059865 0.003457
vt 0.059865 0.003457
vt 0.059865 0.003457
vt 0.059865 0.003457
vt 0.009775 0.985563
vt 0.255321 0.792163
vt 0.979126 0.764923
vt 0.397610 0.644505
vt 0.558138 0.553654
vt 0.977132 0.223640
vt 0.009775 0.033160
vt 0.977132 0.033160
vt 0.817150 0.159170
vt 0.702081 0.249799
vt 0.744077 0.245359
vt 0.009775 0.795084
vn 0.000000 1.000000 0.000000
vn 0.000000 1.000000 0.000000
vn 0.000000 1.000000 0.000000
vn 0.000000 1.000000 0.000000
vn 0.000000 1.000000 0.000000
vn 0.000000 1.000000 0.000000
vn 0.000000 1.000000 0.000000
vn 0.000000 1.000000 0.000000
vn 0.000000 1.000000 0.000000
vn 0.000000 1.000000 0.000000
vn 0.000000 1.000000 0.000000
vn 0.000000 1.000000 0.000000
vn 0.000000 1.000000 0.000000
vn 0.000000 1.000000 0.000000
vn 0.000000 1.000000 0.000000
vn 0.000000 1.000000 0.000000
vn 0.000000 1.000000 0.000000
vn 0.000000 1.000000 0.000000
vn 0.000000 1.000000 0.000000
vn 0.000000 1.000000 0.000000
vn 0.000000 1.000000 0.000000
vn 0.000000 1.000000 0.000000
vn 0.000000 1.000000 0.000000
vn 0.000000 1.000000 0.000000
vn 0.000000 1.000000 0.000000
vn 0.000000 1.000000 0.000000
vn 0.000000 1.000000 0.000000
vn 0.000000 1.000000 0.000000
vn 0.000000 1.000000 0.000000
vn 0.000000 1.000000 0.000000
vn 0.000000 1.000000 0.000000
vn 0.000000 1.000000 0.000000
vn 0.000000 1.000000 0.000000
vn 0.000000 1.000000 0.000000
vn 0.000000 1.000000 0.000000
vn 0.000000 1.000000 0.000000
vn 0.000000 1.000000 0.000000
vn 0.000000 1.000000 0.000000
vn 0.000000 1.000000 0.000000
vn 0.000000 1.000000 0.000000
vn 0.000000 1.000000 0.000000
vn 0.000000 1.000000 0.000000
vn 0.000000 1.000000 0.000000
vn 0.000000 1.000000 0.000000
s off
f 5/4/1 12/5/2 10/6/3
f 6/2/4 11/7/5 12/5/6 9/8/7
f 8/9/8 12/5/9 5/4/10
f 6/2/11 9/8/12 7/10/13
f 3/11/14 7/12/15 4/13/16
f 7/12/17 9/14/18 8/15/19
f 4/13/20 7/12/21 8/15/22
f 4/13/23 8/15/24 5/16/25
f 1/17/26 2/18/27 10/19/28 11/20/29
f 10/19/30 12/21/31 11/20/32
f 1/17/33 11/20/34 6/22/35
f 9/8/36 12/5/37 8/9/38
f 6/2/39 7/10/40 3/3/41
f 5/4/42 10/6/43 2/1/44
