# This file uses centimeters as units for non-parametric coordinates.

v 6.622559 -0.370605 -0.521484
v 5.121582 -0.370605 -5.367188
v -8.290527 73.677979 -18.509766
v 3.326660 -0.370605 0.845703
v 1.825684 -0.370605 -3.998047
v 3.390137 58.023438 -7.378906
v 4.396973 55.619568 -12.839844
v -1.101074 53.240967 -12.402344
v -2.106934 55.645752 -6.943359
v 1.848145 -0.370605 -13.873047
v -2.641113 -0.370605 -12.917969
v -26.185059 40.979126 -46.272461
v 6.633301 -0.370605 -6.320313
v -4.280762 -0.370605 -4.964844
v -14.622559 35.814148 -32.176758
v -20.742676 34.983269 -30.486328
v -18.942871 39.223007 -27.909180
v -12.822754 40.054260 -29.600586
v 9.279785 -0.370605 -14.250977
v 4.988770 -0.370605 -15.013672
v 8.658691 23.002747 -49.078125
v 8.635254 -0.370605 -7.236328
v 1.921387 -0.370605 -8.839844
v 11.089355 18.938427 -32.418945
v 5.713379 17.804317 -31.602539
v 6.365723 21.392860 -28.060547
v 12.146973 21.176491 -29.375000
v -3.037598 -0.370605 -5.075195
v -7.920410 -0.370605 0.785156
v -34.201660 34.804504 -14.272461
v 5.443848 -0.370605 -5.710938
v 0.213379 -0.370605 3.454102
v -15.799316 28.195343 -14.259766
v -16.712402 27.865128 -8.402344
v -14.774902 31.392681 -8.406250
v -13.862793 31.722900 -14.264648
v 14.591309 -0.370605 -5.281250
v 7.034668 -0.370605 -9.011719
v 45.495605 41.762634 -38.984375
v 15.277832 -0.370605 -2.383789
v 7.123535 -0.370605 -3.890625
v 32.477051 33.940289 -20.859375
v 29.541504 36.688171 -24.671875
v 27.792480 40.021423 -20.420898
v 31.928223 34.957020 -17.666016
v -72.046387 15.697830 -6.770508
v 10.055176 14.977428 21.287109
v 80.422363 -28.686161 27.200195
v -95.290527 2.374519 22.847656
v -0.313965 18.537518 -47.338867
v 39.026855 22.423599 -11.089844
v -12.214355 1.863205 84.680664
v 101.840332 -28.686157 -35.438477
v 59.780762 17.926640 -34.091797
v 78.990723 16.953983 -17.460938
v -15.707520 -28.686161 -56.783203
v 33.603027 -28.686161 -91.605469
v -62.093262 -28.686163 75.773438
v -89.959473 -28.686157 -36.256836
v -80.989746 13.981853 20.537109
v -50.942871 7.821735 67.753906
v -16.378418 18.584415 -9.734375
v 34.482910 12.385384 -33.161133
v 61.305176 14.033821 28.211914
v -43.912598 16.446011 -45.412109
v -49.460449 19.391941 -8.294922
v -42.548340 14.447327 14.907227
v 18.760254 -2.298386 66.861328
v -20.777832 18.235996 40.721680
v 65.453613 -28.686157 -79.248047
v 25.350098 16.046650 -59.963867
v -81.919434 8.181236 -32.684570
v 1.756348 8.970394 63.368164
v 33.283691 9.859394 -78.018555
v 64.557129 9.019024 -72.499023
v -58.489746 -28.686163 -54.204102
v 23.178223 -28.686159 72.349609
v -11.405762 -28.686165 91.606445
v -101.840332 -28.686165 22.640625
v 3.592285 -0.370605 -2.569336
v 6.298340 -0.370605 -7.795898
v 13.432129 65.638733 -25.956055
v 0.042480 -0.370605 -4.143555
v 2.748535 -0.370605 -9.369141
v 15.213379 58.478577 -11.188477
v 17.670410 52.035217 -15.040039
v 12.147949 51.356506 -17.301758
v 9.691895 57.800171 -13.449219
vt 0.431368 0.206826
vt 0.431368 0.206826
vt 0.431368 0.206826
vt 0.431368 0.206826
vt 0.431368 0.206826
vt 0.431368 0.206826
vt 0.431368 0.206826
vt 0.431368 0.206826
vt 0.431368 0.206826
vt 0.431368 0.206826
vt 0.431368 0.206826
vt 0.431368 0.206826
vt 0.431368 0.206826
vt 0.431368 0.206826
vt 0.431368 0.206826
vt 0.431368 0.206826
vt 0.431368 0.206826
vt 0.431368 0.206826
vt 0.431368 0.206826
vt 0.431368 0.206826
vt 0.431368 0.206826
vt 0.431368 0.206826
vt 0.431368 0.206826
vt 0.431368 0.206826
vt 0.431368 0.206826
vt 0.431368 0.206826
vt 0.431368 0.206826
vt 0.431368 0.206826
vt 0.431368 0.206826
vt 0.431368 0.206826
vt 0.431368 0.206826
vt 0.431368 0.206826
vt 0.431368 0.206826
vt 0.431368 0.206826
vt 0.431368 0.206826
vt 0.431368 0.206826
vt 0.431368 0.206826
vt 0.431368 0.206826
vt 0.431368 0.206826
vt 0.431368 0.206826
vt 0.431368 0.206826
vt 0.431368 0.206826
vt 0.431368 0.206826
vt 0.431368 0.206826
vt 0.431368 0.206826
vt 0.431368 0.206826
vt 0.431368 0.206826
vt 0.431368 0.206826
vt 0.431368 0.206826
vt 0.431368 0.206826
vt 0.431368 0.206826
vt 0.431368 0.206826
vt 0.431368 0.206826
vt 0.431368 0.206826
vt 0.431368 0.206826
vt 0.431368 0.206826
vt 0.431368 0.206826
vt 0.431368 0.206826
vt 0.431368 0.206826
vt 0.431368 0.206826
vt 0.431368 0.206826
vt 0.431368 0.206826
vt 0.431368 0.206826
vt 0.431368 0.206826
vt 0.431368 0.206826
vt 0.400266 2.275066
vt 0.418019 2.261839
vt 0.418265 2.403904
vt 1.483557 0.840755
vt 1.341583 0.906137
vt 1.327749 0.876960
vt 0.786610 2.573123
vt 0.774523 2.476196
vt 0.803571 2.463643
vt 1.471644 0.754362
vt 1.460898 0.644258
vt 1.527221 0.714749
vt 1.916653 2.122960
vt 1.870521 2.049976
vt 1.899889 2.052469
vt 1.888111 1.926463
vt 1.455347 0.819143
vt 1.297329 0.787452
vt 1.255484 0.712208
vt 1.234685 0.613525
vt 1.353933 0.682192
vt 1.273576 0.575185
vt 1.368190 0.588519
vt 1.424310 0.724444
vt 1.378762 0.762204
vt 1.134442 0.664904
vt 2.138489 2.266443
vt 2.105361 2.393722
vt 2.098116 2.241670
vt 1.176660 0.792183
vt 1.218388 0.805508
vt 1.220939 0.864394
vt 1.094011 0.640131
vt 1.159808 0.797803
vt 1.155746 0.553306
vt 2.820328 2.316477
vt 2.774033 2.403302
vt 2.773605 2.253629
vt 1.328695 0.532930
vt 1.219533 0.543215
vt 1.259500 0.461391
vt 1.335058 0.487691
vt 1.899007 2.439350
vt 1.903249 2.523480
vt 1.851654 2.481719
vt 1.869911 2.123028
vt 1.129423 0.490458
vt 1.276905 2.016157
vt 1.307534 2.022421
vt 1.276905 2.140462
vt 1.276576 1.938305
vt 1.352191 0.460378
vt 0.026009 2.348344
vt 0.077604 2.347955
vt 0.027339 2.476096
vt 0.060002 2.448782
vt 1.852265 2.399982
vt 1.210084 0.877159
vt 1.870358 1.919074
vt 0.431368 0.206826
vt 0.431368 0.206826
vt 0.431368 0.206826
vt 0.431368 0.206826
vt 0.431368 0.206826
vt 0.431368 0.206826
vt 0.431368 0.206826
vt 0.431368 0.206826
vt 0.431368 0.206826
vt 0.431368 0.206826
vt 0.431368 0.206826
vt 0.431368 0.206826
vt 0.431368 0.206826
vn 0.828050 0.553242 -0.090865
vn 0.828050 0.553242 -0.090865
vn 0.828050 0.553242 -0.090865
vn -0.940752 -0.338220 -0.024348
vn -0.940752 -0.338220 -0.024348
vn -0.940752 -0.338220 -0.024348
vn 0.041473 -0.272662 -0.961216
vn 0.041473 -0.272662 -0.961216
vn 0.041473 -0.272662 -0.961216
vn -0.147534 0.497660 0.854733
vn -0.147533 0.497660 0.854733
vn -0.147534 0.497660 0.854733
vn 0.954873 -0.027118 -0.295776
vn 0.954873 -0.027118 -0.295776
vn 0.954872 -0.027118 -0.295776
vn 0.986044 0.072200 0.150016
vn 0.986044 0.072200 0.150016
vn 0.986044 0.072200 0.150016
vn -0.378463 -0.163482 -0.911065
vn -0.378463 -0.163482 -0.911065
vn -0.378463 -0.163482 -0.911065
vn -0.021516 -0.132534 -0.990945
vn -0.021516 -0.132534 -0.990945
vn -0.021516 -0.132534 -0.990945
vn -0.984787 -0.113786 -0.131330
vn -0.984787 -0.113786 -0.131330
vn -0.984787 -0.113786 -0.131330
vn -0.955174 -0.005745 0.295989
vn -0.955174 -0.005745 0.295989
vn -0.955174 -0.005745 0.295989
vn 0.378009 0.163379 0.911272
vn 0.378009 0.163379 0.911272
vn 0.378009 0.163379 0.911272
vn 0.027568 0.118093 0.992620
vn 0.027568 0.118093 0.992620
vn 0.027568 0.118093 0.992620
vn 0.026240 -0.931482 -0.362841
vn 0.026240 -0.931482 -0.362841
vn 0.026240 -0.931482 -0.362841
vn -0.097297 0.986369 0.132701
vn -0.097297 0.986369 0.132701
vn -0.097297 0.986369 0.132701
vn -0.913067 0.159448 0.375347
vn -0.913067 0.159448 0.375347
vn -0.913067 0.159448 0.375347
vn 0.780709 0.047196 -0.623110
vn 0.780709 0.047196 -0.623110
vn 0.780709 0.047196 -0.623110
vn -0.179262 -0.507821 -0.842605
vn -0.179262 -0.507821 -0.842605
vn -0.179262 -0.507821 -0.842605
vn -0.165290 -0.505464 -0.846868
vn -0.165290 -0.505464 -0.846868
vn -0.165290 -0.505464 -0.846868
vn -0.883058 -0.432510 -0.182055
vn -0.883058 -0.432510 -0.182055
vn -0.883058 -0.432510 -0.182055
vn -0.760985 -0.069072 0.645082
vn -0.760985 -0.069072 0.645082
vn -0.760985 -0.069072 0.645082
vn 0.155918 0.537850 0.828497
vn 0.155918 0.537849 0.828497
vn 0.155918 0.537849 0.828497
vn 0.104241 0.533532 0.839332
vn 0.104241 0.533532 0.839332
vn 0.104241 0.533532 0.839332
vn 0.840674 0.097876 -0.532623
vn 0.840674 0.097876 -0.532623
vn 0.840674 0.097876 -0.532623
vn 0.783918 0.043541 -0.619336
vn 0.783918 0.043541 -0.619336
vn 0.783918 0.043541 -0.619336
vn 0.162134 -0.952944 -0.256145
vn 0.162134 -0.952944 -0.256145
vn 0.162134 -0.952944 -0.256145
vn 0.055957 0.995034 0.082322
vn 0.055957 0.995034 0.082322
vn 0.055957 0.995034 0.082322
vn -0.962137 0.258931 -0.085133
vn -0.962137 0.258931 -0.085133
vn -0.962137 0.258931 -0.085133
vn 0.961883 -0.197976 -0.188644
vn 0.961883 -0.197976 -0.188644
vn 0.961883 -0.197976 -0.188644
vn 0.129713 -0.671265 -0.729779
vn 0.129713 -0.671265 -0.729779
vn 0.129713 -0.671265 -0.729779
vn 0.034548 -0.686567 -0.726246
vn 0.034548 -0.686566 -0.726246
vn 0.034548 -0.686567 -0.726246
vn -0.876427 -0.205590 -0.435441
vn -0.876427 -0.205590 -0.435441
vn -0.876427 -0.205590 -0.435441
vn -0.991482 0.107132 0.074066
vn -0.991482 0.107132 0.074066
vn -0.991482 0.107132 0.074066
vn 0.185035 0.689411 0.700339
vn 0.185035 0.689411 0.700339
vn 0.185035 0.689411 0.700339
vn -0.172117 0.671598 0.720647
vn -0.172117 0.671598 0.720647
vn -0.172117 0.671598 0.720647
vn 0.993492 -0.068126 0.091286
vn 0.993492 -0.068126 0.091286
vn 0.993492 -0.068126 0.091286
vn 0.958299 -0.238262 -0.157778
vn 0.958299 -0.238262 -0.157778
vn 0.958299 -0.238262 -0.157778
vn -0.336071 -0.935948 -0.105152
vn -0.336071 -0.935948 -0.105152
vn -0.336071 -0.935948 -0.105152
vn 0.149308 0.985646 0.078802
vn 0.149308 0.985646 0.078802
vn 0.149308 0.985646 0.078802
vn -0.262541 0.145257 0.953925
vn -0.262541 0.145257 0.953925
vn -0.262541 0.145257 0.953925
vn 0.000161 -0.001473 -0.999999
vn 0.000161 -0.001473 -0.999999
vn 0.000161 -0.001473 -0.999999
vn -0.701257 -0.408474 -0.584284
vn -0.701257 -0.408474 -0.584284
vn -0.701257 -0.408474 -0.584284
vn -0.880422 -0.445528 -0.162362
vn -0.880422 -0.445528 -0.162362
vn -0.880422 -0.445528 -0.162362
vn -0.305262 0.203330 0.930307
vn -0.305262 0.203330 0.930307
vn -0.305262 0.203330 0.930308
vn -0.346095 0.191109 0.918529
vn -0.346096 0.191109 0.918529
vn -0.346096 0.191109 0.918529
vn 0.826671 0.539716 0.159129
vn 0.826671 0.539716 0.159129
vn 0.826671 0.539716 0.159129
vn 0.746418 0.511275 0.425979
vn 0.746418 0.511275 0.425979
vn 0.746418 0.511275 0.425979
vn -0.071380 -0.296748 -0.952284
vn -0.071380 -0.296748 -0.952284
vn -0.071380 -0.296748 -0.952284
vn 0.301786 -0.166971 -0.938640
vn 0.301786 -0.166971 -0.938640
vn 0.301786 -0.166971 -0.938640
vn -0.166376 -0.856248 -0.489038
vn -0.166376 -0.856248 -0.489038
vn -0.166376 -0.856248 -0.489038
vn 0.490361 0.690030 0.532358
vn 0.490361 0.690030 0.532358
vn 0.490361 0.690030 0.532358
vn -0.676701 0.417941 -0.606136
vn -0.676701 0.417941 -0.606136
vn -0.676701 0.417941 -0.606136
vn 0.768348 -0.559791 0.310283
vn 0.768348 -0.559791 0.310283
vn 0.768348 -0.559791 0.310283
vn 0.373204 -0.537783 -0.755982
vn 0.373204 -0.537783 -0.755982
vn 0.373204 -0.537783 -0.755982
vn 0.414699 -0.556194 -0.720190
vn 0.414699 -0.556194 -0.720190
vn 0.414699 -0.556194 -0.720190
vn -0.887543 0.460467 0.015402
vn -0.887543 0.460467 0.015402
vn -0.887543 0.460467 0.015402
vn -0.803080 0.261468 -0.535441
vn -0.803080 0.261468 -0.535441
vn -0.803080 0.261468 -0.535441
vn -0.091714 0.416999 0.904268
vn -0.091714 0.416999 0.904268
vn -0.091714 0.416999 0.904268
vn -0.161810 0.455052 0.875640
vn -0.161810 0.455052 0.875640
vn -0.161810 0.455052 0.875640
vn 0.829995 -0.521952 -0.196659
vn 0.829995 -0.521952 -0.196659
vn 0.829995 -0.521952 -0.196659
vn 0.912186 -0.318272 0.258107
vn 0.912186 -0.318272 0.258107
vn 0.912186 -0.318272 0.258107
vn -0.790076 0.162665 0.591033
vn -0.790076 0.162665 0.591033
vn -0.790076 0.162665 0.591033
vn -0.687442 0.349770 0.636463
vn -0.687442 0.349770 0.636463
vn -0.687442 0.349770 0.636463
vn -0.342844 0.300242 0.890120
vn -0.342844 0.300242 0.890119
vn -0.342844 0.300242 0.890119
vn -0.264617 0.948472 -0.174296
vn -0.264617 0.948472 -0.174296
vn -0.264617 0.948472 -0.174296
vn -0.345241 0.164814 -0.923929
vn -0.345241 0.164814 -0.923929
vn -0.345241 0.164814 -0.923929
vn -0.951871 0.227487 -0.205405
vn -0.951871 0.227487 -0.205405
vn -0.951871 0.227487 -0.205405
vn -0.444063 0.891524 -0.089410
vn -0.444063 0.891524 -0.089410
vn -0.444063 0.891524 -0.089410
vn -0.635584 0.768604 -0.072667
vn -0.635584 0.768604 -0.072667
vn -0.635584 0.768604 -0.072667
vn -0.525910 0.733616 0.430379
vn -0.525910 0.733616 0.430379
vn -0.525910 0.733616 0.430379
vn -0.140513 0.966344 0.215490
vn -0.140513 0.966344 0.215490
vn -0.140513 0.966344 0.215490
vn -0.064020 0.983550 0.168913
vn -0.064020 0.983550 0.168913
vn -0.064020 0.983550 0.168913
vn -0.073089 0.913427 -0.400387
vn -0.073089 0.913427 -0.400387
vn -0.073089 0.913427 -0.400387
vn 0.149038 0.986858 0.062437
vn 0.149038 0.986858 0.062437
vn 0.149038 0.986858 0.062437
vn 0.024808 0.999649 0.009351
vn 0.024808 0.999649 0.009351
vn 0.024808 0.999649 0.009351
vn 0.032568 0.979452 0.199029
vn 0.032568 0.979452 0.199029
vn 0.032568 0.979452 0.199029
vn -0.011033 0.976611 0.214732
vn -0.011033 0.976611 0.214732
vn -0.011033 0.976611 0.214732
vn -0.167313 0.980526 -0.102831
vn -0.167313 0.980527 -0.102831
vn -0.167313 0.980527 -0.102831
vn -0.051558 0.994902 -0.086670
vn -0.051558 0.994902 -0.086670
vn -0.051558 0.994902 -0.086670
vn -0.026699 0.990090 0.137872
vn -0.026699 0.990090 0.137872
vn -0.026699 0.990090 0.137872
vn -0.003046 0.998089 0.061721
vn -0.003046 0.998089 0.061721
vn -0.003046 0.998089 0.061721
vn -0.140243 0.959030 0.246159
vn -0.140243 0.959030 0.246159
vn -0.140243 0.959030 0.246159
vn 0.597069 0.249130 0.762524
vn 0.597069 0.249130 0.762524
vn 0.597069 0.249130 0.762524
vn -0.031407 0.932608 0.359522
vn -0.031407 0.932608 0.359522
vn -0.031407 0.932608 0.359522
vn 0.397893 0.759791 0.514197
vn 0.397893 0.759791 0.514197
vn 0.397893 0.759791 0.514197
vn 0.005969 0.947445 0.319862
vn 0.005969 0.947445 0.319862
vn 0.005969 0.947445 0.319862
vn 0.507343 0.833445 0.219027
vn 0.507343 0.833445 0.219027
vn 0.507343 0.833445 0.219027
vn 0.010514 0.929103 0.369672
vn 0.010514 0.929103 0.369672
vn 0.010514 0.929103 0.369672
vn 0.214523 0.960109 0.179361
vn 0.214523 0.960109 0.179361
vn 0.214523 0.960109 0.179361
vn -0.029677 0.992257 -0.120601
vn -0.029677 0.992257 -0.120601
vn -0.029677 0.992257 -0.120601
vn 0.008502 0.988310 -0.152220
vn 0.008502 0.988310 -0.152220
vn 0.008502 0.988310 -0.152220
vn 0.598320 0.257952 0.758600
vn 0.598320 0.257952 0.758600
vn 0.598320 0.257952 0.758600
vn 0.507652 0.256087 0.822623
vn 0.507652 0.256087 0.822623
vn 0.507652 0.256088 0.822623
vn 0.856251 0.374752 0.355520
vn 0.856251 0.374752 0.355520
vn 0.856251 0.374752 0.355520
vn 0.894126 0.327216 0.305727
vn 0.894126 0.327216 0.305727
vn 0.894125 0.327216 0.305727
vn 0.138769 0.986455 0.087466
vn 0.138769 0.986455 0.087466
vn 0.138769 0.986455 0.087466
vn -0.211844 0.905318 -0.368133
vn -0.211844 0.905318 -0.368133
vn -0.211844 0.905318 -0.368133
vn 0.106321 0.971451 -0.212082
vn 0.106321 0.971451 -0.212082
vn 0.106321 0.971451 -0.212082
vn -0.202619 0.958619 0.199988
vn -0.202619 0.958619 0.199988
vn -0.202619 0.958619 0.199988
vn 0.122099 0.989025 -0.083191
vn 0.122099 0.989025 -0.083191
vn 0.122099 0.989025 -0.083191
vn 0.153681 0.980535 0.122201
vn 0.153681 0.980535 0.122201
vn 0.153681 0.980535 0.122201
vn 0.077265 0.953088 -0.292667
vn 0.077265 0.953088 -0.292667
vn 0.077265 0.953088 -0.292667
vn -0.084914 0.930542 -0.356205
vn -0.084914 0.930542 -0.356205
vn -0.084914 0.930542 -0.356205
vn -0.053314 0.212511 -0.975703
vn -0.053314 0.212511 -0.975703
vn -0.053314 0.212511 -0.975703
vn -0.470555 0.312717 -0.825098
vn -0.470555 0.312717 -0.825097
vn -0.470555 0.312717 -0.825098
vn 0.217110 0.956505 -0.194838
vn 0.217110 0.956505 -0.194838
vn 0.217110 0.956505 -0.194838
vn 0.806948 0.516695 -0.286113
vn 0.806948 0.516695 -0.286113
vn 0.806948 0.516695 -0.286113
vn 0.762587 0.131503 -0.633379
vn 0.762587 0.131503 -0.633378
vn 0.762587 0.131503 -0.633378
vn 0.356268 0.172834 -0.918260
vn 0.356268 0.172834 -0.918260
vn 0.356268 0.172834 -0.918260
vn 0.172707 0.328718 -0.928502
vn 0.172707 0.328718 -0.928502
vn 0.172707 0.328718 -0.928502
vn -0.544224 0.331526 -0.770656
vn -0.544224 0.331526 -0.770656
vn -0.544224 0.331526 -0.770656
vn -0.614374 0.257769 -0.745721
vn -0.614374 0.257769 -0.745721
vn -0.614374 0.257769 -0.745721
vn -0.058844 0.209157 -0.976110
vn -0.058844 0.209157 -0.976110
vn -0.058844 0.209157 -0.976110
vn 0.476007 0.206406 0.854877
vn 0.476007 0.206406 0.854877
vn 0.476007 0.206406 0.854877
vn -0.291881 0.204115 0.934421
vn -0.291881 0.204115 0.934421
vn -0.291881 0.204115 0.934421
vn -0.959709 0.203665 -0.193594
vn -0.959709 0.203665 -0.193594
vn -0.959709 0.203665 -0.193594
vn 0.942363 0.331281 0.046957
vn 0.942363 0.331280 0.046957
vn 0.942363 0.331280 0.046957
vn -0.922613 -0.135809 -0.361029
vn -0.922613 -0.135809 -0.361029
vn -0.922613 -0.135809 -0.361029
vn 0.379644 -0.504162 -0.775688
vn 0.379644 -0.504162 -0.775688
vn 0.379644 -0.504162 -0.775688
vn -0.286699 0.848008 0.445743
vn -0.286699 0.848008 0.445743
vn -0.286699 0.848008 0.445743
vn 0.880719 -0.128084 0.455993
vn 0.880719 -0.128084 0.455993
vn 0.880719 -0.128084 0.455993
vn 0.787659 -0.065821 0.612586
vn 0.787659 -0.065821 0.612585
vn 0.787659 -0.065821 0.612585
vn 0.396224 -0.209102 -0.894026
vn 0.396224 -0.209102 -0.894026
vn 0.396224 -0.209102 -0.894026
vn 0.392513 -0.208988 -0.895688
vn 0.392513 -0.208988 -0.895688
vn 0.392513 -0.208988 -0.895688
vn -0.810154 0.040839 -0.584792
vn -0.810154 0.040839 -0.584792
vn -0.810154 0.040839 -0.584792
vn -0.884357 0.090467 -0.457962
vn -0.884357 0.090467 -0.457962
vn -0.884357 0.090467 -0.457962
vn -0.396458 0.208779 0.893998
vn -0.396458 0.208779 0.893998
vn -0.396458 0.208779 0.893998
vn -0.392421 0.208692 0.895798
vn -0.392421 0.208692 0.895798
vn -0.392421 0.208692 0.895798
s off
f 6/1/1 7/2/2 3/3/3
f 3/3/4 8/4/5 9/5/6
f 7/2/7 8/6/8 3/3/9
f 9/7/10 6/1/11 3/3/12
f 2/8/13 7/2/14 1/9/15
f 1/9/16 7/2/17 6/1/18
f 5/10/19 8/6/20 2/8/21
f 2/8/22 8/6/23 7/2/24
f 9/5/25 8/4/26 4/11/27
f 4/11/28 8/4/29 5/12/30
f 4/13/31 1/9/32 9/7/33
f 9/7/34 1/9/35 6/1/36
f 15/14/37 16/15/38 12/16/39
f 12/16/40 17/17/41 18/18/42
f 16/15/43 17/19/44 12/16/45
f 18/20/46 15/14/47 12/16/48
f 10/21/49 11/22/50 15/14/51
f 15/14/52 11/22/53 16/15/54
f 14/23/55 17/19/56 11/22/57
f 11/22/58 17/19/59 16/15/60
f 17/17/61 14/24/62 18/18/63
f 18/18/64 14/24/65 13/25/66
f 13/26/67 10/21/68 18/20/69
f 18/20/70 10/21/71 15/14/72
f 24/27/73 25/28/74 21/29/75
f 21/29/76 26/30/77 27/31/78
f 25/28/79 26/32/80 21/29/81
f 27/33/82 24/27/83 21/29/84
f 20/34/85 25/28/86 19/35/87
f 19/35/88 25/28/89 24/27/90
f 23/36/91 26/32/92 20/34/93
f 20/34/94 26/32/95 25/28/96
f 27/31/97 26/30/98 22/37/99
f 22/37/100 26/30/101 23/38/102
f 22/39/103 19/35/104 27/33/105
f 27/33/106 19/35/107 24/27/108
f 33/40/109 34/41/110 30/42/111
f 30/42/112 35/43/113 36/44/114
f 34/41/115 35/45/116 30/42/117
f 36/46/118 33/40/119 30/42/120
f 29/47/121 34/41/122 28/48/123
f 28/48/124 34/41/125 33/40/126
f 32/49/127 35/45/128 29/47/129
f 29/47/130 35/45/131 34/41/132
f 36/44/133 35/43/134 31/50/135
f 31/50/136 35/43/137 32/51/138
f 31/52/139 28/48/140 36/46/141
f 36/46/142 28/48/143 33/40/144
f 42/53/145 43/54/146 39/55/147
f 39/55/148 44/56/149 45/57/150
f 43/54/151 44/58/152 39/55/153
f 45/59/154 42/53/155 39/55/156
f 37/60/157 38/61/158 42/53/159
f 42/53/160 38/61/161 43/54/162
f 41/62/163 44/58/164 38/61/165
f 38/61/166 44/58/167 43/54/168
f 44/56/169 41/63/170 45/57/171
f 45/57/172 41/63/173 40/64/174
f 37/60/175 42/53/176 40/65/177
f 40/65/178 42/53/179 45/59/180
f 49/66/181 79/67/182 58/68/183
f 49/69/184 58/70/185 61/71/186
f 52/72/187 61/73/188 58/74/189
f 46/75/190 65/76/191 72/77/192
f 65/78/193 59/79/194 72/80/195
f 49/81/196 72/80/197 59/79/198
f 72/77/199 60/82/200 46/75/201
f 49/69/202 60/82/203 72/77/204
f 49/69/205 61/71/206 60/82/207
f 69/83/208 60/82/209 61/71/210
f 47/84/211 51/85/212 62/86/213
f 62/86/214 51/85/215 63/87/216
f 62/86/217 63/87/218 50/88/219
f 50/88/220 66/89/221 62/86/222
f 67/90/223 62/86/224 66/89/225
f 47/84/226 64/91/227 51/85/228
f 46/75/229 66/89/230 65/76/231
f 50/88/232 65/76/233 66/89/234
f 47/84/235 62/86/236 67/90/237
f 60/82/238 67/90/239 46/75/240
f 67/90/241 66/89/242 46/75/243
f 64/92/244 68/93/245 48/94/246
f 64/91/247 47/84/248 68/95/249
f 68/95/250 73/96/251 52/97/252
f 52/97/253 73/96/254 61/71/255
f 68/95/256 47/84/257 73/96/258
f 61/71/259 73/96/260 69/83/261
f 69/83/262 73/96/263 47/84/264
f 67/90/265 60/82/266 69/83/267
f 47/84/268 67/90/269 69/83/270
f 48/98/271 68/95/272 77/99/273
f 52/97/274 77/99/275 68/95/276
f 64/91/277 48/98/278 55/100/279
f 55/101/280 48/102/281 53/103/282
f 50/88/283 63/87/284 71/104/285
f 54/105/286 63/87/287 51/85/288
f 75/106/289 71/104/290 54/105/291
f 54/105/292 71/104/293 63/87/294
f 51/85/295 55/100/296 54/105/297
f 64/91/298 55/100/299 51/85/300
f 74/107/301 71/104/302 75/106/303
f 50/88/304 71/104/305 74/107/306
f 65/108/307 50/109/308 56/110/309
f 59/79/310 65/78/311 76/111/312
f 75/106/313 54/105/314 55/100/315
f 53/112/316 75/106/317 55/100/318
f 70/113/319 75/114/320 53/115/321
f 70/113/322 57/116/323 75/114/324
f 74/107/325 75/106/326 57/117/327
f 56/118/328 50/119/329 57/120/330
f 74/121/331 57/120/332 50/119/333
f 76/122/334 65/108/335 56/110/336
f 52/97/337 78/123/338 77/99/339
f 52/97/340 58/70/341 78/123/342
f 49/81/343 59/79/344 79/124/345
f 85/125/346 86/126/347 82/127/348
f 82/127/349 87/128/350 88/129/351
f 86/126/352 87/130/353 82/127/354
f 88/131/355 85/125/356 82/127/357
f 81/132/358 86/126/359 80/133/360
f 80/133/361 86/126/362 85/125/363
f 84/134/364 87/130/365 81/132/366
f 81/132/367 87/130/368 86/126/369
f 88/129/370 87/128/371 83/135/372
f 83/135/373 87/128/374 84/136/375
f 83/137/376 80/133/377 88/131/378
f 88/131/379 80/133/380 85/125/381
