# This file uses centimeters as units for non-parametric coordinates.

v -5.774117 4.038794 47.707058
v -6.966019 14.417171 35.814655
v 32.891273 3.278384 -33.517765
v -24.060822 3.387198 33.803223
v 7.843018 -14.417173 19.080282
v 18.789291 -2.754378 -60.775421
v -14.088440 3.954197 -43.215679
v 14.970970 9.921664 -36.951305
v 32.476807 8.359729 -5.404973
v 13.354683 10.723297 5.510068
v -14.375498 11.116900 -17.549276
v -18.423655 11.327158 13.244843
v -39.529991 2.768034 15.858781
v 15.479851 6.538704 60.775471
v 39.530373 1.388609 43.534527
v 34.046745 10.692152 34.040287
v 14.329910 13.621606 41.654514
v 34.272194 1.536417 9.284019
v -18.133545 -10.003163 30.095148
v 17.096710 -6.036134 49.551010
v -2.163887 11.259900 9.086514
v -10.030172 13.788873 -6.212926
v -1.474762 10.863036 -36.161114
v -3.822136 1.319680 -58.028652
v -25.583267 3.412681 2.705288
vt 0.177560 0.276854
vt 0.177560 0.276854
vt 0.177560 0.276854
vt 0.177560 0.276854
vt 0.177560 0.276854
vt 0.177560 0.276854
vt 0.177560 0.276854
vt 0.177560 0.276854
vt 0.177560 0.276854
vt 0.177560 0.276854
vt 0.177560 0.276854
vt 0.177560 0.276854
vt 0.177560 0.276854
vt 0.177560 0.276854
vt 0.177560 0.276854
vt 0.177560 0.276854
vt 0.177560 0.276854
vt 0.177560 0.276854
vt 0.177560 0.276854
vt 0.177560 0.276854
vt 0.177560 0.276854
vt 0.177560 0.276854
vt 0.177560 0.276854
vt 0.177560 0.276854
vt 0.177560 0.276854
vt 0.177560 0.276854
vt 0.177560 0.276854
vt 0.177560 0.276854
vt 0.177560 0.276854
vt 0.177560 0.276854
vt 0.177560 0.276854
vt 0.177560 0.276854
vt 0.177560 0.276854
vt 0.177560 0.276854
vt 0.177560 0.276854
vt 0.177560 0.276854
vt 0.177560 0.276854
vt 0.177560 0.276854
vt 0.177560 0.276854
vt 0.177560 0.276854
vt 0.177560 0.276854
vt 0.177560 0.276854
vt 0.177560 0.276854
vt 0.177560 0.276854
vt 0.177560 0.276854
vt 0.177560 0.276854
vn -0.348108 -0.927611 -0.135497
vn -0.348108 -0.927611 -0.135497
vn -0.348108 -0.927611 -0.135497
vn -0.348108 -0.927611 -0.135497
vn -0.348108 -0.927611 -0.135497
vn -0.322888 0.897188 -0.301326
vn -0.322888 0.897188 -0.301326
vn -0.322888 0.897188 -0.301326
vn -0.322888 0.897188 -0.301326
vn -0.723699 0.674986 -0.143712
vn -0.723699 0.674986 -0.143712
vn -0.723699 0.674986 -0.143712
vn -0.723699 0.674986 -0.143712
vn 0.030476 0.999379 -0.017707
vn 0.030476 0.999379 -0.017707
vn 0.030476 0.999379 -0.017707
vn 0.369921 0.915188 -0.159965
vn 0.369921 0.915188 -0.159965
vn 0.369921 0.915188 -0.159965
vn 0.384749 0.839011 -0.384746
vn 0.384749 0.839011 -0.384746
vn 0.384749 0.839010 -0.384746
vn 0.213918 0.975506 0.051262
vn 0.213918 0.975506 0.051262
vn 0.213918 0.975506 0.051262
vn -0.481315 0.635959 0.603234
vn -0.481315 0.635959 0.603234
vn -0.481315 0.635959 0.603234
vn -0.335479 0.906047 0.257940
vn -0.335479 0.906047 0.257940
vn -0.335479 0.906047 0.257940
vn -0.548357 0.819568 0.166169
vn -0.548357 0.819568 0.166169
vn -0.548357 0.819568 0.166169
vn -0.324595 -0.928547 -0.180107
vn -0.324595 -0.928547 -0.180107
vn -0.324595 -0.928547 -0.180107
vn 0.105262 -0.812248 0.573736
vn 0.105262 -0.812248 0.573736
vn 0.105262 -0.812248 0.573736
vn -0.452436 0.648957 0.611683
vn -0.452436 0.648957 0.611683
vn -0.452436 0.648957 0.611683
vn 0.346570 -0.926041 0.149459
vn 0.346570 -0.926041 0.149459
vn 0.346570 -0.926041 0.149459
vn 0.026149 0.999498 -0.017874
vn 0.026149 0.999498 -0.017874
vn 0.026149 0.999498 -0.017874
vn 0.115222 0.989909 -0.082487
vn 0.115222 0.989909 -0.082487
vn 0.115222 0.989909 -0.082487
vn 0.059485 0.994906 -0.081383
vn 0.059485 0.994906 -0.081383
vn 0.059485 0.994906 -0.081383
vn -0.061040 0.934782 0.349939
vn -0.061040 0.934782 0.349939
vn -0.061040 0.934782 0.349939
vn 0.500183 -0.864000 -0.057623
vn 0.500183 -0.864000 -0.057623
vn 0.500183 -0.864001 -0.057623
vn 0.493389 -0.866169 -0.079484
vn 0.493389 -0.866170 -0.079484
vn 0.493389 -0.866169 -0.079484
vn 0.205918 0.976346 -0.065928
vn 0.205918 0.976346 -0.065928
vn 0.205918 0.976346 -0.065928
vn 0.977944 0.207587 -0.023103
vn 0.977944 0.207587 -0.023103
vn 0.977944 0.207587 -0.023103
vn 0.986677 0.155310 -0.048454
vn 0.986677 0.155310 -0.048454
vn 0.986677 0.155310 -0.048454
vn 0.474628 -0.878704 -0.051075
vn 0.474628 -0.878704 -0.051075
vn 0.474628 -0.878704 -0.051075
vn 0.259523 0.910582 0.321696
vn 0.259523 0.910582 0.321696
vn 0.259523 0.910582 0.321696
vn 0.484926 0.748096 0.452989
vn 0.484926 0.748096 0.452989
vn 0.484926 0.748096 0.452989
vn 0.908369 0.394831 -0.137750
vn 0.908369 0.394831 -0.137750
vn 0.908369 0.394831 -0.137750
vn -0.029242 0.993993 -0.105463
vn -0.029242 0.993993 -0.105463
vn -0.029242 0.993993 -0.105463
vn -0.029242 0.993993 -0.105463
vn -0.298654 -0.888555 -0.348248
vn -0.298654 -0.888555 -0.348248
vn -0.298654 -0.888555 -0.348248
vn -0.534497 -0.436938 0.723462
vn -0.534497 -0.436938 0.723462
vn -0.534497 -0.436939 0.723462
vn -0.665498 -0.457829 0.589496
vn -0.665498 -0.457829 0.589496
vn -0.665498 -0.457829 0.589496
vn -0.400774 -0.844972 0.354123
vn -0.400773 -0.844972 0.354123
vn -0.400774 -0.844972 0.354123
vn 0.385191 -0.586473 0.712515
vn 0.385191 -0.586473 0.712515
vn 0.385191 -0.586473 0.712515
vn -0.341089 -0.650010 0.679077
vn -0.341089 -0.650010 0.679077
vn -0.341089 -0.650010 0.679077
vn -0.027115 0.992151 -0.122070
vn -0.027115 0.992151 -0.122070
vn -0.027115 0.992151 -0.122070
vn 0.007620 0.993225 -0.115956
vn 0.007620 0.993225 -0.115956
vn 0.007620 0.993225 -0.115956
vn -0.405545 0.912134 -0.059540
vn -0.405545 0.912134 -0.059540
vn -0.405545 0.912134 -0.059540
vn 0.040564 0.988947 0.142615
vn 0.040564 0.988947 0.142615
vn 0.040564 0.988947 0.142615
vn 0.075962 0.897666 -0.434081
vn 0.075962 0.897666 -0.434080
vn 0.075962 0.897666 -0.434081
vn 0.075962 0.897666 -0.434081
vn -0.388110 0.844014 -0.370150
vn -0.388110 0.844014 -0.370150
vn -0.388110 0.844014 -0.370150
s off
f 13/1/1 25/2/2 7/3/3 24/4/4 6/5/5
f 23/6/6 24/4/7 7/3/8 11/7/9
f 7/3/10 25/2/11 12/8/12 11/7/13
f 21/9/14 10/10/15 8/11/16
f 8/11/17 9/12/18 3/13/19
f 8/11/20 3/13/21 6/5/22
f 22/14/23 21/9/24 8/11/25
f 2/15/26 4/16/27 1/17/28
f 13/1/29 4/16/30 12/8/31
f 2/15/32 12/8/33 4/16/34
f 6/5/35 5/18/36 13/1/37
f 1/17/38 19/19/39 5/18/40
f 2/20/41 1/21/42 14/22/43
f 15/23/44 20/24/45 5/25/46
f 8/26/47 10/27/48 16/28/49
f 16/28/50 10/27/51 17/29/52
f 10/30/53 2/31/54 17/32/55
f 17/32/56 2/31/57 14/33/58
f 6/34/59 18/35/60 5/36/61
f 5/36/62 18/35/63 15/37/64
f 9/38/65 8/39/66 16/28/67
f 3/40/68 9/41/69 18/42/70
f 18/42/71 9/41/72 16/43/73
f 6/44/74 3/45/75 18/42/76
f 17/32/77 14/22/78 16/28/79
f 16/28/80 14/22/81 15/37/82
f 16/28/83 15/37/84 18/42/85
f 11/7/86 22/14/87 8/11/88 23/6/89
f 5/18/90 19/19/91 13/1/92
f 1/17/93 4/16/94 19/19/95
f 13/1/96 19/19/97 4/16/98
f 1/46/99 5/25/100 20/24/101
f 14/22/102 20/24/103 15/23/104
f 1/46/105 20/24/106 14/22/107
f 2/15/108 21/9/109 12/8/110
f 2/15/111 10/10/112 21/9/113
f 12/8/114 22/14/115 11/7/116
f 12/8/117 21/9/118 22/14/119
f 8/11/120 6/5/121 24/4/122 23/6/123
f 12/8/124 25/2/125 13/1/126
