# This file uses centimeters as units for non-parametric coordinates.

v -0.000009 -250.000000 -499.999939
v 0.000018 -250.000000 0.000000
v 500.000000 -250.000000 -499.999939
v 500.000000 -250.000000 0.000024
v 69.073868 -246.229340 -437.167114
v 10.354176 -246.229340 -53.141716
v 415.923401 -246.229340 -67.633354
v 485.077698 -246.229340 -458.713135
v 0.000005 -250.000000 -231.957764
v 29.664284 -246.229340 -230.471512
v 475.898651 -246.229340 -222.170410
v 500.000000 -250.000000 -231.957748
v 208.959808 -250.000000 0.000010
v 206.323441 -246.229340 -21.393173
v 210.374924 -246.229340 -232.579895
v 228.527969 -246.229340 -478.306946
v 208.959793 -250.000000 -499.999939
vt 0.101475 0.254196
vt 0.101475 0.254196
vt 0.101475 0.254196
vt 0.101475 0.254196
vt 0.101254 0.274769
vt 0.101254 0.274769
vt 0.101254 0.274769
vt 0.101254 0.274769
vt 0.101475 0.254196
vt 0.101254 0.274769
vt 0.101254 0.274769
vt 0.101471 0.254196
vt 0.101471 0.254196
vt 0.101254 0.274769
vt 0.101254 0.274769
vt 0.101254 0.274769
vt 0.101475 0.254196
vt 0.101471 0.254196
vt 0.101471 0.254196
vt 0.101471 0.254196
vt 0.101471 0.254196
vt 0.101471 0.254196
vt 0.101471 0.254196
vt 0.101471 0.254196
vt 0.101471 0.254196
vn 0.000000 1.000000 -0.000000
vn 0.000000 1.000000 0.000000
vn 0.000000 1.000000 -0.000000
vn 0.000000 1.000000 -0.000000
vn -0.072268 0.997367 -0.005999
vn -0.100932 0.994870 -0.006761
vn -0.099668 0.994998 -0.006727
vn -0.072268 0.997367 -0.005999
vn -0.007829 0.994971 0.099859
vn 0.001915 0.996352 0.085316
vn 0.000998 0.996235 0.086685
vn -0.007829 0.994971 0.099859
vn 0.118395 0.992940 0.007313
vn 0.194193 0.980957 0.003533
vn 0.194193 0.980957 0.003533
vn 0.087297 0.996143 0.008842
vn -0.005375 0.995908 -0.090208
vn -0.008890 0.996786 -0.079610
vn -0.008890 0.996786 -0.079610
vn 0.000093 0.994295 -0.106667
vn -0.100932 0.994870 -0.006761
vn -0.196736 0.980413 -0.009282
vn -0.196736 0.980413 -0.009282
vn -0.099668 0.994998 -0.006727
vn 0.000000 1.000000 -0.000000
vn 0.000000 1.000000 0.000000
vn 0.000000 1.000000 0.000000
vn 0.000000 1.000000 0.000000
vn 0.064235 0.997885 0.009968
vn 0.118395 0.992940 0.007313
vn 0.087297 0.996143 0.008842
vn 0.064235 0.997885 0.009968
vn 0.001915 0.996352 0.085316
vn 0.007156 0.996968 0.077481
vn 0.007156 0.996968 0.077481
vn 0.000998 0.996235 0.086685
vn 0.000000 1.000000 -0.000000
vn 0.000000 1.000000 -0.000000
vn 0.000000 1.000000 0.000000
vn 0.000000 1.000000 -0.000000
vn 0.000000 1.000000 -0.000000
vn 0.000000 1.000000 -0.000000
vn 0.000000 1.000000 -0.000000
vn 0.000000 1.000000 0.000000
vn 0.004265 0.992861 -0.119202
vn -0.005375 0.995908 -0.090208
vn 0.000093 0.994295 -0.106667
vn 0.004265 0.992861 -0.119202
s off
f 5/5/1 10/10/2 15/15/3 16/16/4
f 1/1/5 9/2/6 10/3/7 5/4/8
f 2/9/9 13/12/10 14/13/11 6/17/12
f 12/18/13 3/19/14 8/20/15 11/21/16
f 17/22/17 1/1/18 5/4/19 16/23/20
f 9/2/21 2/9/22 6/17/23 10/3/24
f 15/15/25 10/10/26 6/6/27 14/14/28
f 4/24/29 12/18/30 11/21/31 7/25/32
f 13/12/33 4/24/34 7/25/35 14/13/36
f 11/11/37 15/15/38 14/14/39 7/7/40
f 16/16/41 15/15/42 11/11/43 8/8/44
f 3/19/45 17/22/46 16/23/47 8/20/48
