# This file uses centimeters as units for non-parametric coordinates.

v 15.653809 28.805105 -27.113159
v -15.653809 21.696228 -27.113165
v -31.307617 32.934689 -0.000005
v -15.653809 32.934689 27.113159
v 15.653809 21.696228 27.113163
v 31.307617 28.805105 0.000000
v 1.491211 208.434219 -24.276726
v -19.365356 241.024597 -24.276731
v -30.841919 229.645325 -4.398921
v -19.989990 208.394638 17.845123
v -0.649170 207.106369 9.537946
v 9.140137 167.940323 -4.398918
v -2.457520 229.991058 2.993894
v 2.400203 369.313141 -37.823757
v -14.574951 360.697723 -41.792969
v -2.930420 366.295532 -17.564236
v -23.559937 363.600677 -15.279682
v -54.375244 266.636871 35.745453
v -49.887085 261.987366 56.045135
v -39.881714 276.770447 38.269131
v -34.972046 269.269745 52.914890
v 40.642578 232.745392 5.888413
v 43.904785 215.708191 -12.900244
v 37.831787 250.578812 -12.900244
v 40.642578 232.745392 -31.688890
v 93.800049 239.248688 -14.594795
v 103.089355 227.733170 -31.459557
v 84.544434 251.614624 -31.459557
v 93.800049 239.248688 -48.324314
v 119.812256 300.695526 -34.216354
v 124.561768 294.807648 -42.839287
v 115.079834 307.018219 -42.839287
v 119.812256 300.695557 -51.462208
v -66.994995 355.921143 49.824799
v -60.195801 358.640381 63.598877
v -53.853638 369.469727 51.212025
v -50.002930 366.195251 62.260609
v -2.562261 506.415771 -33.909908
v -11.186905 505.766113 -33.238564
v -6.318588 507.115601 -26.118635
v -14.943233 506.465942 -25.447289
v 15.653809 -0.685838 -27.113159
v -15.653809 -0.685838 -27.113165
v 0.000000 -24.644444 0.000000
v -31.307617 -0.685838 -0.000005
v -15.653809 -0.685838 27.113155
v 15.653809 -0.685838 27.113163
v 31.307617 -0.685838 0.000000
v 16.720459 -7.052359 70.236206
v 28.203613 -7.052359 58.552036
v 12.938232 -18.382063 65.260635
v 26.436768 -18.382063 51.525799
v 63.758301 -7.052359 -24.142254
v 58.314941 -7.052359 -33.570076
v 58.694092 -18.382063 -15.924104
v 49.065186 -18.382063 -32.601585
v -45.806763 -10.404492 -47.890686
v -51.944092 -9.958280 -43.087769
v -36.753662 -23.072849 -46.020264
v -51.900269 -21.971596 -34.166908
v -68.799561 -7.052359 34.397495
v -61.110596 -7.052359 47.715157
v -62.612549 -18.382063 29.368099
v -52.983765 -18.382063 46.045589
v -10.630005 118.984009 19.341175
v 10.323730 101.275314 18.180733
v 20.647461 92.081223 0.299566
v 10.323730 103.944725 -17.581596
v -10.323730 113.032349 -17.581600
v -20.647339 123.389496 0.299563
v -3.330811 390.176147 -18.759109
v 38.395855 395.909393 -40.513325
v 40.381348 390.530304 -31.004675
v 29.413235 402.553131 -31.704285
v 57.236149 429.505402 -37.465908
v 58.769764 425.350555 -30.121372
v 50.297928 434.637024 -30.661755
vt 0.495101 0.156744
vt 0.495101 0.156744
vt 0.495101 0.156744
vt 0.495101 0.156744
vt 0.495101 0.156744
vt 0.495101 0.156744
vt 0.495101 0.156744
vt 0.495101 0.156744
vt 0.495101 0.156744
vt 0.495101 0.156744
vt 0.495101 0.156744
vt 0.495101 0.156744
vt 0.495101 0.156744
vt 0.495101 0.156744
vt 0.495101 0.156744
vt 0.495101 0.156744
vt 0.495101 0.156744
vt 0.495101 0.156744
vt 0.495101 0.156744
vt 0.495101 0.156744
vt 0.495101 0.156744
vt 0.495101 0.156744
vt 0.495101 0.156744
vt 0.495101 0.156744
vt 0.495101 0.156744
vt 0.495101 0.156744
vt 0.495101 0.156744
vt 0.495101 0.156744
vt 0.495101 0.156744
vt 0.495101 0.156744
vt 0.495101 0.156744
vt 0.495101 0.156744
vt 0.495101 0.156744
vt 0.495101 0.156744
vt 0.495101 0.156744
vt 0.495101 0.156744
vt 0.495101 0.156744
vt 0.495101 0.156744
vt 0.495101 0.156744
vt 0.495101 0.156744
vt 0.495101 0.156744
vt 0.495101 0.156744
vt 0.495101 0.156744
vt 0.495101 0.156744
vt 0.495101 0.156744
vt 0.495101 0.156744
vt 0.495101 0.156744
vt 0.495101 0.156744
vt 0.495101 0.156744
vt 0.495101 0.156744
vt 0.495101 0.156744
vt 0.495101 0.156744
vt 0.495101 0.156744
vt 0.495101 0.156744
vt 0.495101 0.156744
vt 0.495101 0.156744
vt 0.495101 0.156744
vt 0.495101 0.156744
vt 0.495101 0.156744
vt 0.495101 0.156744
vt 0.495101 0.156744
vt 0.495101 0.156744
vt 0.495101 0.156744
vt 0.495101 0.156744
vt 0.495101 0.156744
vt 0.495101 0.156744
vt 0.495101 0.156744
vt 0.495101 0.156744
vt 0.495101 0.156744
vt 0.495101 0.156744
vt 0.495101 0.156744
vt 0.495101 0.156744
vt 0.495101 0.156744
vt 0.495101 0.156744
vt 0.495101 0.156744
vt 0.495101 0.156744
vt 0.495101 0.156744
vt 0.495101 0.156744
vt 0.495101 0.156744
vt 0.495101 0.156744
vt 0.495101 0.156744
vt 0.495101 0.156744
vt 0.495101 0.156744
vt 0.495101 0.156744
vt 0.495101 0.156744
vt 0.495101 0.156744
vt 0.495101 0.156744
vt 0.495101 0.156744
vt 0.495101 0.156744
vt 0.495101 0.156744
vt 0.495101 0.156744
vt 0.495101 0.156744
vn -0.062434 -0.062173 -0.996111
vn -0.062434 -0.062173 -0.996111
vn -0.062434 -0.062173 -0.996111
vn -0.062434 -0.062173 -0.996111
vn -0.860992 -0.095007 -0.499666
vn -0.860992 -0.095007 -0.499666
vn -0.860992 -0.095007 -0.499666
vn -0.860992 -0.095007 -0.499666
vn -0.908383 -0.077776 0.410842
vn -0.908383 -0.077776 0.410842
vn -0.908383 -0.077776 0.410842
vn -0.908383 -0.077776 0.410842
vn 0.262430 0.077279 0.961852
vn 0.262430 0.077279 0.961852
vn 0.262430 0.077279 0.961852
vn 0.262430 0.077279 0.961852
vn 0.919399 0.140725 0.367289
vn 0.919399 0.140725 0.367289
vn 0.919399 0.140725 0.367289
vn 0.919399 0.140725 0.367289
vn 0.940339 0.085243 -0.329387
vn 0.940339 0.085243 -0.329387
vn 0.940339 0.085243 -0.329387
vn 0.940339 0.085243 -0.329387
vn 0.000000 -0.749355 -0.662169
vn 0.000000 -0.749355 -0.662169
vn 0.000000 -0.749355 -0.662169
vn -0.573455 -0.749355 -0.331085
vn -0.573455 -0.749355 -0.331085
vn -0.573455 -0.749355 -0.331085
vn -0.573455 -0.749355 0.331085
vn -0.573455 -0.749355 0.331085
vn -0.573455 -0.749355 0.331085
vn -0.000000 -0.749355 0.662169
vn -0.000000 -0.749355 0.662169
vn -0.000000 -0.749355 0.662169
vn 0.573455 -0.749355 0.331085
vn 0.573455 -0.749355 0.331085
vn 0.573455 -0.749355 0.331085
vn 0.573455 -0.749355 -0.331085
vn 0.573455 -0.749355 -0.331085
vn 0.573455 -0.749355 -0.331085
vn 0.034078 -0.110669 -0.993273
vn 0.034078 -0.110669 -0.993273
vn 0.034078 -0.110669 -0.993273
vn 0.034078 -0.110669 -0.993273
vn 0.982697 0.019694 0.184171
vn 0.982697 0.019694 0.184171
vn 0.982697 0.019694 0.184171
vn 0.982697 0.019694 0.184171
vn -0.914841 -0.001667 -0.403810
vn -0.914841 -0.001667 -0.403810
vn -0.914841 -0.001667 -0.403810
vn -0.914841 -0.001667 -0.403810
vn -0.110153 0.117584 0.986935
vn -0.110153 0.117584 0.986935
vn -0.110153 0.117584 0.986935
vn -0.110153 0.117584 0.986935
vn -0.861012 -0.508584 0.000836
vn -0.861012 -0.508584 0.000836
vn -0.861012 -0.508584 0.000836
vn -0.861012 -0.508584 0.000836
vn 0.007067 0.671909 -0.740600
vn 0.007067 0.671909 -0.740600
vn 0.007067 0.671909 -0.740600
vn 0.007067 0.671909 -0.740600
vn 0.352474 -0.400505 0.845788
vn 0.352474 -0.400505 0.845788
vn 0.352474 -0.400505 0.845788
vn 0.352474 -0.400505 0.845788
vn 0.882113 0.384641 0.271896
vn 0.882113 0.384641 0.271896
vn 0.882113 0.384641 0.271896
vn 0.882113 0.384641 0.271896
vn 0.474196 -0.358183 0.804266
vn 0.474196 -0.358183 0.804266
vn 0.474196 -0.358183 0.804266
vn 0.474196 -0.358183 0.804266
vn -0.090244 0.518701 0.850180
vn -0.090244 0.518700 0.850180
vn -0.090244 0.518700 0.850180
vn -0.090244 0.518701 0.850180
vn 0.303263 -0.491260 -0.816514
vn 0.303263 -0.491260 -0.816514
vn 0.303263 -0.491260 -0.816514
vn 0.303263 -0.491260 -0.816514
vn -0.520121 0.609893 -0.597917
vn -0.520121 0.609893 -0.597917
vn -0.520121 0.609893 -0.597917
vn -0.520121 0.609893 -0.597917
vn 0.339509 -0.672249 0.657887
vn 0.339509 -0.672249 0.657887
vn 0.339509 -0.672249 0.657887
vn 0.339509 -0.672249 0.657887
vn 0.176038 0.779723 0.600868
vn 0.176039 0.779724 0.600868
vn 0.176038 0.779723 0.600868
vn 0.176038 0.779723 0.600868
vn -0.061124 -0.789477 -0.610728
vn -0.061124 -0.789478 -0.610728
vn -0.061124 -0.789478 -0.610728
vn -0.061124 -0.789478 -0.610728
vn -0.288799 0.680120 -0.673819
vn -0.288799 0.680120 -0.673819
vn -0.288799 0.680120 -0.673819
vn -0.288799 0.680120 -0.673819
vn 0.811988 -0.164952 0.559881
vn 0.811988 -0.164952 0.559881
vn 0.811988 -0.164952 0.559881
vn 0.811988 -0.164952 0.559881
vn -0.590330 0.461390 0.662292
vn -0.590330 0.461390 0.662292
vn -0.590330 0.461390 0.662292
vn -0.590330 0.461390 0.662292
vn 0.711376 -0.332758 -0.619044
vn 0.711376 -0.332758 -0.619044
vn 0.711376 -0.332758 -0.619044
vn 0.711376 -0.332758 -0.619044
vn -0.738997 0.281583 -0.612041
vn -0.738997 0.281583 -0.612041
vn -0.738997 0.281583 -0.612041
vn -0.738997 0.281583 -0.612041
vn -0.940872 -0.151287 0.303105
vn -0.940872 -0.151287 0.303105
vn -0.940872 -0.151287 0.303105
vn -0.940872 -0.151287 0.303105
vn 0.012542 0.148658 -0.988809
vn 0.012542 0.148658 -0.988809
vn 0.012542 0.148658 -0.988809
vn 0.012542 0.148658 -0.988809
vn 0.208050 -0.058006 0.976397
vn 0.208050 -0.058006 0.976397
vn 0.208050 -0.058006 0.976397
vn 0.208050 -0.058006 0.976397
vn 0.951979 0.175122 -0.251134
vn 0.951979 0.175122 -0.251134
vn 0.951979 0.175122 -0.251134
vn 0.951979 0.175122 -0.251134
vn 0.111786 0.044490 -0.992736
vn 0.111786 0.044490 -0.992736
vn 0.111786 0.044490 -0.992736
vn 0.111786 0.044490 -0.992736
vn 0.950596 0.033934 0.308570
vn 0.950596 0.033934 0.308569
vn 0.950596 0.033934 0.308569
vn 0.950596 0.033934 0.308569
vn -0.935510 0.037035 -0.351354
vn -0.935510 0.037035 -0.351354
vn -0.935510 0.037035 -0.351354
vn -0.935510 0.037035 -0.351354
vn 0.081427 0.065330 0.994536
vn 0.081427 0.065330 0.994536
vn 0.081427 0.065330 0.994536
vn 0.081427 0.065330 0.994536
vn 0.000000 0.000000 -1.000000
vn 0.000000 0.000000 -1.000000
vn 0.000000 0.000000 -1.000000
vn 0.000000 0.000000 -1.000000
vn -0.557093 -0.496407 -0.665753
vn -0.557093 -0.496407 -0.665753
vn -0.557093 -0.496407 -0.665753
vn -0.557093 -0.496407 -0.665753
vn -0.711181 -0.570638 0.410601
vn -0.711181 -0.570638 0.410601
vn -0.711181 -0.570638 0.410601
vn -0.711181 -0.570638 0.410601
vn 0.626005 -0.479169 0.615235
vn 0.626005 -0.479169 0.615235
vn 0.626005 -0.479169 0.615235
vn 0.626005 -0.479169 0.615235
vn 0.866025 0.000000 0.500000
vn 0.866025 0.000000 0.500000
vn 0.866025 0.000000 0.500000
vn 0.866025 0.000000 0.500000
vn 0.692889 -0.599887 -0.400049
vn 0.692889 -0.599887 -0.400049
vn 0.692889 -0.599887 -0.400049
vn 0.692889 -0.599887 -0.400049
vn 0.346481 0.784445 0.514391
vn 0.346481 0.784445 0.514391
vn 0.346481 0.784445 0.514391
vn 0.346481 0.784445 0.514391
vn -0.799657 0.000820 0.600457
vn -0.799657 0.000820 0.600457
vn -0.799657 0.000820 0.600457
vn -0.799657 0.000820 0.600457
vn -0.130232 -0.895849 -0.424846
vn -0.130232 -0.895849 -0.424846
vn -0.130232 -0.895849 -0.424846
vn -0.130232 -0.895849 -0.424846
vn 0.930292 0.027481 -0.365790
vn 0.930292 0.027481 -0.365790
vn 0.930292 0.027481 -0.365790
vn 0.930292 0.027481 -0.365790
vn 0.576675 0.746051 -0.332947
vn 0.576675 0.746051 -0.332947
vn 0.576675 0.746051 -0.332947
vn 0.576675 0.746051 -0.332947
vn 0.605362 0.084242 0.791479
vn 0.605362 0.084242 0.791479
vn 0.605362 0.084242 0.791479
vn 0.605362 0.084242 0.791479
vn -0.422339 -0.873025 0.243839
vn -0.422339 -0.873025 0.243839
vn -0.422339 -0.873025 0.243839
vn -0.422339 -0.873025 0.243839
vn -0.148166 0.010111 -0.988911
vn -0.148166 0.010111 -0.988911
vn -0.148166 0.010111 -0.988911
vn -0.148166 0.010111 -0.988911
vn -0.402463 0.736069 -0.544266
vn -0.402462 0.736069 -0.544266
vn -0.402462 0.736069 -0.544266
vn -0.402463 0.736069 -0.544266
vn 0.543643 0.095921 -0.833817
vn 0.543643 0.095921 -0.833817
vn 0.543643 0.095921 -0.833817
vn 0.543643 0.095921 -0.833818
vn 0.420693 -0.834387 0.356111
vn 0.420693 -0.834387 0.356111
vn 0.420693 -0.834387 0.356111
vn 0.420693 -0.834387 0.356111
vn -0.905607 0.080532 0.416402
vn -0.905607 0.080532 0.416402
vn -0.905607 0.080532 0.416402
vn -0.905607 0.080532 0.416402
vn -0.543093 0.778931 0.313555
vn -0.543093 0.778931 0.313555
vn -0.543093 0.778931 0.313555
vn -0.543093 0.778931 0.313555
vn -0.675050 -0.010375 -0.737699
vn -0.675050 -0.010375 -0.737699
vn -0.675050 -0.010375 -0.737699
vn -0.675050 -0.010375 -0.737699
vn 0.337661 -0.920859 -0.194949
vn 0.337661 -0.920859 -0.194949
vn 0.337661 -0.920858 -0.194949
vn 0.337661 -0.920859 -0.194949
vn 0.407839 0.039855 0.912183
vn 0.407839 0.039855 0.912183
vn 0.407840 0.039855 0.912183
vn 0.407840 0.039855 0.912183
vn 0.077518 0.100186 0.991944
vn 0.077518 0.100186 0.991944
vn 0.077518 0.100186 0.991944
vn 0.077518 0.100186 0.991944
vn 0.861627 0.126153 0.491615
vn 0.861627 0.126153 0.491615
vn 0.861627 0.126153 0.491615
vn 0.861627 0.126153 0.491615
vn 0.873103 0.134155 -0.468715
vn 0.873103 0.134155 -0.468715
vn 0.873103 0.134155 -0.468715
vn 0.873103 0.134155 -0.468715
vn 0.004333 0.113765 -0.993498
vn 0.004333 0.113765 -0.993498
vn 0.004333 0.113765 -0.993498
vn 0.004333 0.113765 -0.993498
vn -0.839310 0.102697 -0.533865
vn -0.839310 0.102697 -0.533865
vn -0.839310 0.102697 -0.533865
vn -0.839310 0.102697 -0.533865
vn -0.865746 0.097710 0.490852
vn -0.865746 0.097710 0.490852
vn -0.865747 0.097710 0.490852
vn -0.865747 0.097710 0.490852
vn 0.789828 0.613328 0.000000
vn 0.789828 0.613328 0.000000
vn 0.789828 0.613328 0.000000
vn 0.789828 0.613328 0.000000
vn -0.642009 0.709198 0.291310
vn -0.642009 0.709198 0.291310
vn -0.642009 0.709198 0.291310
vn -0.642009 0.709198 0.291310
vn -0.084499 0.987975 -0.129478
vn -0.084499 0.987975 -0.129478
vn -0.084499 0.987975 -0.129478
vn -0.084499 0.987975 -0.129478
vn 0.103284 0.051433 0.993321
vn 0.103284 0.051433 0.993321
vn 0.103284 0.051433 0.993321
vn 0.712962 0.663601 0.226537
vn 0.712962 0.663601 0.226537
vn 0.712962 0.663601 0.226537
vn 0.504223 -0.844288 -0.181487
vn 0.504223 -0.844288 -0.181487
vn 0.504223 -0.844288 -0.181487
vn 0.504223 -0.844288 -0.181487
vn -0.452815 0.503459 -0.735858
vn -0.452815 0.503459 -0.735858
vn -0.452815 0.503459 -0.735858
vn -0.452815 0.503459 -0.735858
vn 0.266286 0.134679 0.954439
vn 0.266286 0.134679 0.954439
vn 0.266286 0.134679 0.954439
vn 0.266286 0.134679 0.954439
vn 0.812172 -0.418595 -0.406392
vn 0.812172 -0.418595 -0.406392
vn 0.812172 -0.418595 -0.406392
vn 0.812172 -0.418595 -0.406392
vn -0.507026 0.355557 -0.785177
vn -0.507026 0.355557 -0.785177
vn -0.507026 0.355557 -0.785177
vn -0.507026 0.355557 -0.785177
vn -0.057913 0.005259 0.998308
vn -0.057913 0.005259 0.998308
vn -0.057913 0.005259 0.998308
vn -0.057913 0.005259 0.998308
s off
f 68/1/1 69/2/2 8/3/3 7/4/4
f 69/2/5 70/5/6 9/6/7 8/3/8
f 70/5/9 65/7/10 10/8/11 9/6/12
f 65/7/13 66/9/14 11/10/15 10/8/16
f 66/9/17 67/11/18 12/12/19 11/10/20
f 67/11/21 68/13/22 7/14/23 12/12/24
f 43/15/25 42/16/26 44/17/27
f 45/18/28 43/15/29 44/17/30
f 46/19/31 45/18/32 44/17/33
f 47/20/34 46/19/35 44/17/36
f 48/21/37 47/20/38 44/17/39
f 42/16/40 48/21/41 44/17/42
f 7/22/43 8/23/44 15/24/45 14/25/46
f 13/26/47 7/22/48 14/25/49 16/27/50
f 8/23/51 9/28/52 17/29/53 15/24/54
f 9/28/55 13/26/56 16/27/57 17/29/58
f 9/28/59 10/30/60 19/31/61 18/32/62
f 13/26/63 9/28/64 18/32/65 20/33/66
f 10/30/67 11/34/68 21/35/69 19/31/70
f 11/34/71 13/26/72 20/33/73 21/35/74
f 11/34/75 12/36/76 23/37/77 22/38/78
f 13/26/79 11/34/80 22/38/81 24/39/82
f 12/36/83 7/22/84 25/40/85 23/37/86
f 7/22/87 13/26/88 24/39/89 25/40/90
f 22/38/91 23/37/92 27/41/93 26/42/94
f 24/39/95 22/38/96 26/42/97 28/43/98
f 23/37/99 25/40/100 29/44/101 27/41/102
f 25/40/103 24/39/104 28/43/105 29/44/106
f 26/42/107 27/41/108 31/45/109 30/46/110
f 28/43/111 26/42/112 30/46/113 32/47/114
f 27/41/115 29/44/116 33/48/117 31/45/118
f 29/44/119 28/43/120 32/47/121 33/48/122
f 18/32/123 19/31/124 35/49/125 34/50/126
f 20/33/127 18/32/128 34/50/129 36/51/130
f 19/31/131 21/35/132 37/52/133 35/49/134
f 21/35/135 20/33/136 36/51/137 37/52/138
f 14/25/139 15/24/140 39/53/141 38/54/142
f 71/86/143 14/25/144 38/54/145 40/55/146
f 15/24/147 17/29/148 41/56/149 39/53/150
f 17/29/151 71/86/152 40/55/153 41/56/154
f 2/57/155 1/58/156 42/16/157 43/15/158
f 58/59/159 57/60/160 59/61/161 60/62/162
f 62/63/163 61/64/164 63/65/165 64/66/166
f 50/67/167 49/68/168 51/69/169 52/70/170
f 6/71/171 5/72/172 47/20/173 48/21/174
f 54/73/175 53/74/176 55/75/177 56/76/178
f 5/72/179 4/77/180 49/68/181 50/67/182
f 4/77/183 46/19/184 51/69/185 49/68/186
f 46/19/187 47/20/188 52/70/189 51/69/190
f 47/20/191 5/72/192 50/67/193 52/70/194
f 1/58/195 6/71/196 53/74/197 54/73/198
f 6/71/199 48/21/200 55/75/201 53/74/202
f 48/21/203 42/16/204 56/76/205 55/75/206
f 42/16/207 1/58/208 54/73/209 56/76/210
f 3/78/211 2/57/212 57/60/213 58/59/214
f 2/57/215 43/15/216 59/61/217 57/60/218
f 43/15/219 45/18/220 60/62/221 59/61/222
f 45/18/223 3/78/224 58/59/225 60/62/226
f 4/77/227 3/78/228 61/64/229 62/63/230
f 3/78/231 45/18/232 63/65/233 61/64/234
f 45/18/235 46/19/236 64/66/237 63/65/238
f 46/19/239 4/77/240 62/63/241 64/66/242
f 4/79/243 5/80/244 66/9/245 65/7/246
f 5/80/247 6/81/248 67/11/249 66/9/250
f 6/81/251 1/82/252 68/13/253 67/11/254
f 1/83/255 2/84/256 69/2/257 68/1/258
f 2/84/259 3/85/260 70/5/261 69/2/262
f 3/85/263 4/79/264 65/7/265 70/5/266
f 30/46/267 31/45/268 33/48/269 32/47/270
f 34/50/271 35/49/272 37/52/273 36/51/274
f 38/54/275 39/53/276 41/56/277 40/55/278
f 17/29/279 16/27/280 71/86/281
f 76/90/282 75/91/283 77/92/284
f 16/27/285 14/25/286 72/88/287 73/87/288
f 14/25/289 71/86/290 74/89/291 72/88/292
f 71/86/293 16/27/294 73/87/295 74/89/296
f 73/87/297 72/88/298 75/91/299 76/90/300
f 72/88/301 74/89/302 77/92/303 75/91/304
f 74/89/305 73/87/306 76/90/307 77/92/308
