# This file uses centimeters as units for non-parametric coordinates.

v -0.000007 -23.597631 17.598137
v 500.000610 -23.597631 17.598137
v -0.000007 1.184529 13.112106
v 500.000610 1.184529 13.112106
v -0.000007 1.184529 -13.112108
v 500.000610 1.184529 -13.112108
v -0.000007 -23.597631 -17.598137
v 500.000610 -23.597631 -17.598137
v 334.965546 -23.597631 24.274525
v 305.268433 8.012440 14.277319
v 213.741272 8.012440 -14.277321
v 184.044159 -23.597631 -24.274525
v 491.182831 -23.597631 24.274525
v 491.182831 8.012440 18.086588
v 491.182831 8.012440 -18.086588
v 491.182831 -23.597631 -24.274525
v 8.817778 -23.597631 24.274525
v 8.817778 8.012440 18.086588
v 8.817778 8.012440 -18.086588
v 8.817778 -23.597631 -24.274525
vt 0.102827 0.303172
vt 0.102827 0.303172
vt 0.102827 0.303172
vt 0.102827 0.303172
vt 0.102827 0.303172
vt 0.102827 0.303172
vt 0.102827 0.303172
vt 0.102827 0.303172
vt 0.102827 0.303172
vt 0.102827 0.303172
vt 0.102827 0.303172
vt 0.102827 0.303172
vt 0.102827 0.303172
vt 0.102827 0.303172
vt 0.102827 0.303172
vt 0.102827 0.303172
vt 0.102827 0.303172
vt 0.102827 0.303172
vt 0.102827 0.303172
vt 0.102827 0.303172
vt 0.102827 0.303172
vt 0.102827 0.303172
vt 0.102827 0.303172
vt 0.102827 0.303172
vn -0.584906 0.150847 0.796951
vn -0.010459 0.249166 0.968404
vn -0.006304 0.249541 0.968344
vn -0.584906 0.150847 0.796951
vn -0.612243 0.790670 0.000000
vn -0.018924 0.999821 0.000000
vn -0.018992 0.999820 0.000000
vn -0.612243 0.790670 0.000000
vn -0.584905 0.150847 -0.796951
vn -0.010219 0.242150 -0.970185
vn -0.016916 0.241603 -0.970228
vn -0.584905 0.150847 -0.796951
vn 1.000000 -0.000001 0.000000
vn 1.000000 -0.000001 0.000000
vn 1.000000 -0.000001 0.000000
vn 1.000000 -0.000001 0.000000
vn -1.000000 -0.000000 0.000000
vn -1.000000 -0.000000 0.000000
vn -1.000000 -0.000000 0.000000
vn -1.000000 -0.000000 0.000000
vn 0.003145 0.249399 0.968396
vn -0.004116 0.246197 0.969211
vn 0.018721 0.240913 0.970366
vn 0.011317 0.241516 0.970331
vn 0.000000 1.000000 0.000000
vn 0.000000 1.000000 0.000000
vn 0.020533 0.999789 0.000000
vn 0.020446 0.999791 0.000000
vn 0.003948 0.246271 -0.969193
vn -0.003249 0.249444 -0.968384
vn 0.006705 0.249638 -0.968316
vn 0.011123 0.249238 -0.968378
vn 0.011317 0.241516 0.970331
vn 0.018721 0.240913 0.970366
vn 0.584906 0.150848 0.796951
vn 0.584906 0.150848 0.796951
vn 0.020446 0.999791 0.000000
vn 0.020533 0.999789 0.000000
vn 0.612242 0.790671 0.000000
vn 0.612242 0.790671 0.000000
vn 0.011123 0.249238 -0.968378
vn 0.006705 0.249638 -0.968316
vn 0.584906 0.150848 -0.796951
vn 0.584906 0.150848 -0.796951
vn -0.006304 0.249541 0.968344
vn -0.010459 0.249166 0.968404
vn -0.004116 0.246197 0.969211
vn 0.003145 0.249399 0.968396
vn -0.018992 0.999820 0.000000
vn -0.018924 0.999821 0.000000
vn 0.000000 1.000000 0.000000
vn 0.000000 1.000000 0.000000
vn -0.016916 0.241603 -0.970228
vn -0.010219 0.242150 -0.970185
vn -0.003249 0.249444 -0.968384
vn 0.003948 0.246271 -0.969193
s off
f 1/1/1 17/21/2 18/22/3 3/3/4
f 3/3/5 18/22/6 19/23/7 5/5/8
f 5/5/9 19/23/10 20/24/11 7/7/12
f 2/2/13 8/9/14 6/10/15 4/4/16
f 7/11/17 1/1/18 3/3/19 5/12/20
f 10/14/21 9/13/22 13/17/23 14/18/24
f 11/15/25 10/14/26 14/18/27 15/19/28
f 12/16/29 11/15/30 15/19/31 16/20/32
f 14/18/33 13/17/34 2/2/35 4/4/36
f 15/19/37 14/18/38 4/4/39 6/6/40
f 16/20/41 15/19/42 6/6/43 8/8/44
f 18/22/45 17/21/46 9/13/47 10/14/48
f 19/23/49 18/22/50 10/14/51 11/15/52
f 20/24/53 19/23/54 11/15/55 12/16/56
