# This file uses centimeters as units for non-parametric coordinates.

v 7.711456 -1.663678 -2.026672
v 5.180145 -1.663665 -5.029984
v 7.968781 35.108654 -13.475159
v 9.299164 -1.663702 3.237122
v 2.421783 -1.663691 1.162186
v 8.757172 27.247932 -8.431686
v 6.492584 25.990448 -8.698441
v 5.101898 26.875675 -4.860565
v 9.648590 27.949787 -4.852142
v 8.185028 17.471661 -4.085419
v 5.451813 17.327618 -5.741043
v 3.179840 16.641071 -0.171112
v 9.552521 16.787621 0.857407
v 2.552155 -1.663707 6.710205
v 4.647003 -1.663706 5.365265
v 9.973480 34.128529 16.138519
v -1.221161 -1.663695 4.549835
v 4.094818 -1.663691 1.688858
v 6.476837 27.268642 11.864960
v 8.432098 26.744297 9.611359
v 6.113556 28.608528 8.364120
v 4.157990 29.133022 10.618225
v 3.550018 18.595135 9.225266
v 6.304169 18.145401 6.494965
v 3.656403 19.546917 3.756561
v -0.435028 19.864540 7.116699
v 2.059113 -1.663780 -3.171127
v -5.091949 -1.663795 -0.024597
v -14.738983 35.517532 -16.705933
v 4.943268 -1.663787 -2.060654
v 0.649933 -1.663837 6.622452
v -5.396210 23.948933 -10.684204
v -9.158783 23.700222 -7.494659
v -6.053680 25.288292 -4.919968
v -2.290436 25.536804 -8.109253
v -0.688141 12.798690 -6.562271
v -6.732391 11.954522 -2.597672
v -1.807831 11.655457 2.235626
v 3.100922 13.844941 -3.930038
vt 0.177016 0.298518
vt 0.177016 0.298518
vt 0.177016 0.298518
vt 0.177016 0.298518
vt 0.177016 0.298518
vt 0.177016 0.298518
vt 0.177016 0.298518
vt 0.177016 0.298518
vt 0.177016 0.298518
vt 0.177016 0.298518
vt 0.177016 0.298518
vt 0.177016 0.298518
vt 0.177016 0.298518
vt 0.177016 0.298518
vt 0.177016 0.298518
vt 0.177016 0.298518
vt 0.177016 0.298518
vt 0.177016 0.298518
vt 0.177016 0.298518
vt 0.177016 0.298518
vt 0.177016 0.298518
vt 0.177016 0.298518
vt 0.177016 0.298518
vt 0.177016 0.298518
vt 0.177016 0.298518
vt 0.177016 0.298518
vt 0.177016 0.298518
vt 0.177016 0.298518
vt 0.177016 0.298518
vt 0.177016 0.298518
vt 0.177016 0.298518
vt 0.177016 0.298518
vt 0.177016 0.298518
vt 0.177016 0.298518
vt 0.177016 0.298518
vt 0.177016 0.298518
vt 0.177016 0.298518
vt 0.177016 0.298518
vt 0.177016 0.298518
vt 0.177016 0.298518
vt 0.177016 0.298518
vt 0.177016 0.298518
vt 0.177016 0.298518
vt 0.177016 0.298518
vt 0.177016 0.298518
vt 0.177016 0.298518
vt 0.177016 0.298518
vt 0.177016 0.298518
vt 0.177016 0.298518
vt 0.177016 0.298518
vt 0.177016 0.298518
vt 0.177016 0.298518
vt 0.177016 0.298518
vt 0.177016 0.298518
vt 0.177016 0.298518
vt 0.177016 0.298518
vt 0.177016 0.298518
vt 0.177016 0.298518
vt 0.177016 0.298518
vt 0.177016 0.298518
vt 0.177016 0.298518
vt 0.177016 0.298518
vt 0.177016 0.298518
vn 0.359816 -0.478012 -0.801272
vn 0.359816 -0.478012 -0.801272
vn 0.359816 -0.478012 -0.801272
vn -0.176079 0.740253 0.648862
vn -0.176079 0.740253 0.648862
vn -0.176079 0.740253 0.648862
vn -0.000000 -1.000000 -0.000004
vn -0.000000 -1.000000 -0.000004
vn -0.000000 -1.000000 -0.000004
vn -0.000000 -1.000000 -0.000004
vn -0.000000 -1.000000 -0.000004
vn -0.000000 -1.000000 -0.000004
vn -0.941641 -0.023466 -0.335799
vn -0.941641 -0.023466 -0.335799
vn -0.941641 -0.023466 -0.335799
vn 0.971398 -0.051326 -0.231845
vn 0.971398 -0.051326 -0.231845
vn 0.971398 -0.051326 -0.231845
vn 0.421687 -0.365562 -0.829786
vn 0.421687 -0.365562 -0.829786
vn 0.421687 -0.365562 -0.829786
vn 0.421687 -0.365562 -0.829786
vn -0.931873 -0.000697 -0.362783
vn -0.931873 -0.000697 -0.362783
vn -0.931873 -0.000697 -0.362783
vn -0.931873 -0.000697 -0.362783
vn -0.133730 0.443366 0.886308
vn -0.133730 0.443366 0.886308
vn -0.133730 0.443366 0.886308
vn -0.133730 0.443366 0.886308
vn 0.955473 -0.151967 -0.252937
vn 0.955473 -0.151967 -0.252937
vn 0.955473 -0.151967 -0.252937
vn 0.955473 -0.151967 -0.252937
vn 0.662256 -0.067159 -0.746262
vn 0.662255 -0.067159 -0.746262
vn 0.662256 -0.067159 -0.746262
vn 0.662255 -0.067159 -0.746262
vn -0.919518 0.003844 -0.393029
vn -0.919518 0.003844 -0.393029
vn -0.919518 0.003844 -0.393029
vn -0.919518 0.003844 -0.393029
vn -0.227903 0.104067 0.968107
vn -0.227903 0.104067 0.968107
vn -0.227903 0.104067 0.968107
vn -0.227903 0.104067 0.968107
vn 0.958332 -0.051709 -0.280939
vn 0.958332 -0.051709 -0.280939
vn 0.958332 -0.051709 -0.280939
vn 0.958332 -0.051709 -0.280939
vn 0.510379 -0.626881 0.588670
vn 0.510379 -0.626881 0.588670
vn 0.510380 -0.626881 0.588670
vn -0.294699 0.842135 -0.451620
vn -0.294699 0.842135 -0.451620
vn -0.294699 0.842135 -0.451620
vn -0.000001 -1.000000 -0.000004
vn -0.000001 -1.000000 -0.000004
vn -0.000001 -1.000000 -0.000004
vn -0.000002 -1.000000 -0.000004
vn -0.000002 -1.000000 -0.000004
vn -0.000002 -1.000000 -0.000004
vn 0.665689 0.411377 -0.622597
vn 0.665689 0.411377 -0.622597
vn 0.665689 0.411377 -0.622597
vn -0.581658 -0.195424 0.789609
vn -0.581658 -0.195424 0.789609
vn -0.581658 -0.195424 0.789609
vn 0.623614 -0.405272 0.668476
vn 0.623614 -0.405272 0.668476
vn 0.623614 -0.405272 0.668476
vn 0.623614 -0.405272 0.668476
vn 0.674592 0.141709 -0.724462
vn 0.674592 0.141709 -0.724462
vn 0.674592 0.141709 -0.724462
vn 0.674592 0.141709 -0.724462
vn -0.548167 0.505584 -0.666257
vn -0.548167 0.505584 -0.666257
vn -0.548167 0.505584 -0.666257
vn -0.548167 0.505584 -0.666257
vn -0.500740 -0.084977 0.861416
vn -0.500740 -0.084977 0.861416
vn -0.500740 -0.084977 0.861416
vn -0.500740 -0.084977 0.861416
vn 0.633276 -0.111627 0.765833
vn 0.633276 -0.111627 0.765834
vn 0.633276 -0.111627 0.765833
vn 0.633276 -0.111627 0.765833
vn 0.895517 0.008076 -0.444954
vn 0.895517 0.008076 -0.444954
vn 0.895517 0.008076 -0.444954
vn 0.895517 0.008076 -0.444954
vn -0.546895 0.094653 -0.831833
vn -0.546895 0.094653 -0.831833
vn -0.546895 0.094653 -0.831833
vn -0.546895 0.094653 -0.831833
vn -0.490931 -0.084492 0.867092
vn -0.490931 -0.084492 0.867092
vn -0.490931 -0.084492 0.867092
vn -0.490931 -0.084492 0.867092
vn -0.452993 -0.671237 -0.586718
vn -0.452993 -0.671237 -0.586718
vn -0.452993 -0.671237 -0.586718
vn 0.337832 0.819732 0.462504
vn 0.337832 0.819732 0.462504
vn 0.337832 0.819732 0.462504
vn -0.000000 -1.000000 -0.000006
vn -0.000000 -1.000000 -0.000006
vn -0.000000 -1.000000 -0.000006
vn -0.000000 -1.000000 -0.000006
vn -0.000000 -1.000000 -0.000006
vn -0.000000 -1.000000 -0.000006
vn -0.686445 0.216879 0.694087
vn -0.686445 0.216879 0.694087
vn -0.686445 0.216879 0.694087
vn 0.610530 0.083085 -0.787623
vn 0.610530 0.083085 -0.787623
vn 0.610530 0.083085 -0.787623
vn -0.493943 -0.447558 -0.745461
vn -0.493943 -0.447558 -0.745461
vn -0.493943 -0.447558 -0.745461
vn -0.493943 -0.447558 -0.745461
vn -0.683125 0.158918 0.712801
vn -0.683125 0.158918 0.712801
vn -0.683125 0.158918 0.712801
vn -0.683125 0.158918 0.712801
vn 0.562512 0.506534 0.653454
vn 0.562512 0.506534 0.653454
vn 0.562512 0.506534 0.653454
vn 0.562512 0.506534 0.653454
vn 0.607410 -0.020039 -0.794135
vn 0.607410 -0.020039 -0.794136
vn 0.607410 -0.020039 -0.794135
vn 0.607410 -0.020039 -0.794135
vn -0.446535 -0.252116 -0.858513
vn -0.446535 -0.252116 -0.858513
vn -0.446535 -0.252116 -0.858513
vn -0.446535 -0.252116 -0.858513
vn -0.730227 0.064634 0.680141
vn -0.730227 0.064634 0.680141
vn -0.730227 0.064634 0.680141
vn -0.730227 0.064634 0.680141
vn 0.809685 0.237264 0.536764
vn 0.809685 0.237264 0.536764
vn 0.809685 0.237264 0.536764
vn 0.809685 0.237264 0.536764
vn 0.496768 -0.075678 -0.864578
vn 0.496768 -0.075678 -0.864578
vn 0.496768 -0.075678 -0.864578
vn 0.496768 -0.075678 -0.864578
s off
f 6/1/1 7/2/2 3/3/3
f 3/3/4 8/4/5 9/5/6
f 4/6/7 5/7/8 1/8/9
f 1/8/10 5/7/11 2/9/12
f 7/2/13 8/10/14 3/3/15
f 9/11/16 6/1/17 3/3/18
f 6/1/19 10/12/20 11/13/21 7/2/22
f 11/13/23 12/14/24 8/10/25 7/2/26
f 13/15/27 9/5/28 8/4/29 12/16/30
f 9/11/31 13/17/32 10/12/33 6/1/34
f 10/12/35 1/18/36 2/19/37 11/13/38
f 2/19/39 5/20/40 12/14/41 11/13/42
f 4/6/43 13/15/44 12/16/45 5/7/46
f 10/12/47 13/17/48 4/21/49 1/18/50
f 19/22/51 20/23/52 16/24/53
f 16/24/54 21/25/55 22/26/56
f 17/27/57 18/28/58 14/29/59
f 14/29/60 18/28/61 15/30/62
f 20/23/63 21/31/64 16/24/65
f 22/32/66 19/22/67 16/24/68
f 23/33/69 24/34/70 20/23/71 19/22/72
f 24/34/73 25/35/74 21/31/75 20/23/76
f 26/36/77 22/26/78 21/25/79 25/37/80
f 22/32/81 26/38/82 23/33/83 19/22/84
f 14/39/85 15/40/86 24/34/87 23/33/88
f 15/40/89 18/41/90 25/35/91 24/34/92
f 17/27/93 26/36/94 25/37/95 18/28/96
f 23/33/97 26/38/98 17/42/99 14/39/100
f 32/43/101 33/44/102 29/45/103
f 29/45/104 34/46/105 35/47/106
f 31/48/107 28/49/108 30/50/109
f 30/50/110 28/49/111 27/51/112
f 33/44/113 34/52/114 29/45/115
f 35/53/116 32/43/117 29/45/118
f 36/54/119 37/55/120 33/44/121 32/43/122
f 37/55/123 38/56/124 34/52/125 33/44/126
f 39/57/127 35/47/128 34/46/129 38/58/130
f 35/53/131 39/59/132 36/54/133 32/43/134
f 27/60/135 28/61/136 37/55/137 36/54/138
f 28/61/139 31/62/140 38/56/141 37/55/142
f 30/50/143 39/57/144 38/58/145 31/48/146
f 36/54/147 39/59/148 30/63/149 27/60/150
