# This file uses centimeters as units for non-parametric coordinates.

v 118.546021 -24.659397 499.999756
v 118.546021 -24.659397 -0.000244
v -64.873657 0.000000 499.999756
v -64.873657 0.000000 0.000000
v -78.811157 3.825457 247.144897
v 115.413818 -24.659397 260.316772
v -62.130249 -0.996515 499.999756
v -56.487762 -0.996515 246.464203
v -62.130249 -0.996515 0.000000
v 58.109009 -0.996515 0.000000
v 45.157349 -0.996515 244.324829
v 58.109009 -0.996515 499.999756
v 59.936890 -0.030915 499.999756
v 64.429077 0.073948 249.072021
v 59.936890 -0.030915 0.000610
v 140.178833 -24.659397 95.155029
v 61.008179 4.756675 123.987305
v 58.109009 -0.996515 123.987305
v -62.130249 -0.996515 123.232056
v -72.319946 0.924398 123.232788
v 130.458252 -24.659397 342.916626
v 67.157593 -0.296308 374.731201
v 58.109009 -0.996515 373.986572
v -62.130249 -0.996515 373.232788
v -74.236450 0.924398 373.232788
v -62.130249 -0.996515 129.083740
v 58.109009 -0.996515 131.477173
v -51.351013 -0.996515 380.636353
v 53.563354 -0.996515 381.478638
v -119.963989 -24.659397 -0.000122
v -134.897095 -24.659397 59.553589
v -140.178833 -24.659397 161.530884
v -120.885864 -24.659397 246.706909
v -132.018829 -24.659397 314.984924
v -121.209106 -24.659397 403.030151
v -121.453247 -24.659397 499.999756
v -68.703339 0.646724 41.600403
v -60.750454 -0.996515 40.303406
v 58.109009 -0.996515 72.261597
v 66.043365 -0.610504 69.603363
v -85.793579 2.509434 182.639771
v -72.057739 -0.996515 183.003052
v 49.088013 -0.996515 190.867310
v 53.833374 0.030075 190.699585
v 128.170990 -24.659397 191.590729
v -64.477173 2.374943 310.433716
v -50.081909 -0.996515 311.413330
v 48.407593 -0.996515 312.164063
v 56.079468 4.932585 311.706299
v -68.987427 0.406118 444.308228
v -62.130249 -0.996515 445.391602
v 58.109009 -0.996515 446.917480
v 63.040649 3.503642 446.142334
v 125.134003 -24.659397 446.813751
v 29.373291 -0.996515 189.587524
v 24.053528 -0.996515 247.886353
v -36.663818 -0.996515 355.191284
v -44.244751 -2.354346 376.520691
v 47.651611 -2.172330 375.708984
v -44.244690 -1.606969 378.786072
v 47.651642 -1.827372 377.401703
v -37.216614 -0.996515 445.707764
v -16.731903 -0.996515 399.742279
v -25.288712 -0.996515 235.551178
v 25.074677 -0.996515 253.467194
v 45.533386 -0.996515 253.018250
v 23.349182 -3.024283 250.241882
v 42.187866 -3.024283 250.344849
v -32.201164 -0.996515 98.663300
v -62.124542 -2.372180 127.254150
v 58.103302 -2.372180 125.585052
v -12.606873 -0.996515 122.163361
v -10.083618 -3.648037 126.877502
v -7.385071 -0.996515 131.566498
v 118.546021 -24.659397 -0.000244
v 67.644775 -24.659399 -16.974060
v -72.123779 -24.659399 -16.974396
v -119.963989 -24.659397 -0.000122
v -121.453247 -24.659397 499.999756
v -72.123779 -24.659399 516.974182
v 67.644745 -24.659399 516.974182
v 118.546021 -24.659397 499.999756
vt 0.431393 0.178969
vt 0.431393 0.178969
vt 0.431393 0.178969
vt 0.431393 0.178969
vt 0.431393 0.178969
vt 0.431393 0.178969
vt 0.431393 0.178969
vt 0.431393 0.178969
vt 0.431393 0.178969
vt 0.431393 0.178969
vt 0.431393 0.178969
vt 0.431393 0.178969
vt 0.431393 0.178969
vt 0.431393 0.178969
vt 0.431393 0.178969
vt 0.431393 0.178969
vt 0.431393 0.178969
vt 0.431594 0.178769
vt 0.431594 0.178769
vt 0.431393 0.178969
vt 0.431393 0.178969
vt 0.431393 0.178969
vt 0.431393 0.178969
vt 0.431393 0.178969
vt 0.102106 0.302644
vt 0.102106 0.328309
vt 0.102106 0.328305
vt 0.102106 0.328744
vt 0.102106 0.329199
vt 0.102106 0.329195
vt 0.431393 0.178969
vt 0.431393 0.178969
vt 0.431393 0.178969
vt 0.102106 0.328530
vt 0.431795 0.178769
vt 0.102307 0.303623
vt 0.431393 0.178969
vt 0.431393 0.178969
vt 0.431393 0.178969
vt 0.431393 0.178969
vt 0.431393 0.178969
vt 0.102106 0.328975
vt 0.431594 0.178969
vt 0.102106 0.302261
vt 0.431393 0.178969
vt 0.431393 0.178969
vt 0.431393 0.178969
vt 0.102106 0.328530
vt 0.431393 0.178969
vt 0.102106 0.328538
vt 0.431795 0.178769
vt 0.102173 0.302873
vt 0.431393 0.178969
vt 0.102106 0.328984
vt 0.102106 0.303336
vt 0.102106 0.303271
vt 0.102106 0.303272
vt 0.102508 0.303336
vt 0.102128 0.303533
vt 0.102106 0.303267
vt 0.102106 0.303267
vt 0.102106 0.302729
vt 0.431393 0.178969
vt 0.431393 0.178969
vt 0.431393 0.178969
vt 0.431393 0.178969
vt 0.431393 0.178969
vt 0.431393 0.178969
vt 0.431393 0.178969
vt 0.431393 0.178969
vt 0.431393 0.178969
vt 0.431393 0.178969
vt 0.102106 0.328456
vt 0.431393 0.178969
vt 0.431393 0.178969
vt 0.102106 0.328438
vt 0.431393 0.178969
vt 0.431393 0.178969
vt 0.431393 0.178969
vt 0.102106 0.328643
vt 0.431393 0.178969
vt 0.431594 0.178769
vt 0.102106 0.302542
vt 0.431393 0.178969
vt 0.431393 0.178969
vt 0.431393 0.178969
vt 0.431393 0.178969
vt 0.102106 0.328859
vt 0.431393 0.178969
vt 0.431393 0.178969
vt 0.102106 0.328864
vt 0.431393 0.178969
vt 0.431393 0.178969
vt 0.431393 0.178969
vt 0.102139 0.300781
vt 0.431996 0.178969
vt 0.102106 0.329103
vt 0.431393 0.178969
vt 0.431393 0.178969
vt 0.431393 0.178969
vt 0.102106 0.328647
vt 0.102106 0.328750
vt 0.102106 0.328911
vt 0.431500 0.178969
vt 0.102106 0.303011
vt 0.431393 0.178969
vt 0.102106 0.303267
vt 0.431465 0.178969
vt 0.102106 0.303115
vt 0.431393 0.178969
vt 0.102106 0.303267
vt 0.102106 0.329097
vt 0.102106 0.329044
vt 0.102106 0.328746
vt 0.102106 0.328764
vt 0.431571 0.178792
vt 0.102106 0.305678
vt 0.102106 0.328757
vt 0.431581 0.178781
vt 0.102106 0.304302
vt 0.102254 0.324506
vt 0.431583 0.178874
vt 0.102296 0.303336
vt 0.102106 0.303271
vt 0.431393 0.178969
vt 0.102342 0.303309
vt 0.102224 0.313882
vt 0.102214 0.303308
vt 0.102106 0.303307
vt 0.102106 0.328533
vt 0.431996 0.178969
vt 0.431996 0.178969
vt 0.431996 0.178969
vt 0.431996 0.178970
vt 0.431996 0.178969
vt 0.431996 0.178969
vt 0.431996 0.178969
vt 0.102106 0.329199
vt 0.102106 0.329199
vt 0.102106 0.329199
vt 0.102106 0.329199
vt 0.431996 0.178970
vt 0.431996 0.178969
vt 0.431996 0.178969
vt 0.432007 0.178969
vt 0.432007 0.178969
vt 0.432007 0.178969
vt 0.432007 0.178970
vt 0.432007 0.178969
vt 0.432007 0.178969
vt 0.432007 0.178969
vt 0.432007 0.178970
vt 0.432007 0.178969
vt 0.432007 0.178969
vt 0.102112 0.329199
vt 0.102112 0.329199
vt 0.102112 0.329199
vt 0.102112 0.329199
vn 0.443861 0.716888 -0.537642
vn 0.443861 0.716888 -0.537642
vn 0.443861 0.716888 -0.537642
vn -0.378353 0.924140 -0.053047
vn -0.378353 0.924140 -0.053047
vn -0.378353 0.924140 -0.053047
vn -0.378353 0.924140 -0.053047
vn 0.152784 0.962899 -0.222448
vn 0.152784 0.962899 -0.222448
vn 0.152784 0.962899 -0.222447
vn -0.458082 0.887996 0.040305
vn -0.458082 0.887996 0.040305
vn -0.458082 0.887996 0.040305
vn -0.073431 0.996305 -0.044553
vn -0.073431 0.996305 -0.044553
vn -0.073431 0.996305 -0.044553
vn -0.696631 0.714686 -0.062683
vn -0.696631 0.714686 -0.062683
vn -0.696631 0.714686 -0.062683
vn -0.696631 0.714686 -0.062683
vn -0.009795 0.841207 0.540624
vn -0.009795 0.841207 0.540624
vn -0.009795 0.841207 0.540624
vn -0.009795 0.841207 0.540624
vn -0.000642 0.892005 0.452026
vn -0.000642 0.892005 0.452026
vn -0.000642 0.892005 0.452026
vn -0.000642 0.892005 0.452026
vn 0.386535 0.922274 0.000826
vn 0.386535 0.922274 0.000826
vn 0.386535 0.922274 0.000826
vn 0.386535 0.922274 0.000826
vn 0.342554 0.937075 0.067425
vn 0.342554 0.937075 0.067425
vn 0.342554 0.937076 0.067425
vn 0.342554 0.937075 0.067425
vn 0.353254 0.933839 -0.056190
vn 0.353254 0.933839 -0.056190
vn 0.353254 0.933839 -0.056190
vn 0.353254 0.933839 -0.056190
vn -0.134510 0.990864 0.009838
vn -0.134510 0.990863 0.009838
vn -0.134510 0.990863 0.009838
vn -0.134510 0.990863 0.009838
vn 0.000000 1.000000 0.000000
vn 0.000000 1.000000 0.000000
vn 0.000000 1.000000 0.000000
vn 0.000000 1.000000 0.000000
vn 0.239545 0.970885 -0.000501
vn 0.239545 0.970885 -0.000501
vn 0.239545 0.970885 -0.000501
vn 0.239545 0.970885 -0.000501
vn 0.411168 0.910220 -0.049404
vn 0.411168 0.910220 -0.049404
vn 0.411168 0.910220 -0.049404
vn 0.411168 0.910220 -0.049404
vn -0.531573 0.846700 0.022993
vn -0.531573 0.846700 0.022993
vn -0.531573 0.846700 0.022993
vn 0.038900 0.892559 0.449250
vn 0.038900 0.892559 0.449250
vn 0.038900 0.892559 0.449250
vn 0.038900 0.892559 0.449250
vn 0.217909 0.975669 -0.024206
vn 0.217909 0.975669 -0.024206
vn 0.217909 0.975669 -0.024206
vn 0.217909 0.975669 -0.024206
vn -0.451117 0.892222 0.020812
vn -0.451117 0.892222 0.020812
vn -0.451117 0.892222 0.020812
vn -0.451117 0.892222 0.020812
vn -0.376689 0.924959 -0.050556
vn -0.376689 0.924959 -0.050556
vn -0.376689 0.924959 -0.050556
vn -0.376689 0.924959 -0.050556
vn -0.376689 0.924959 -0.050556
vn -0.414610 0.909925 0.011637
vn -0.414610 0.909925 0.011637
vn -0.414610 0.909925 0.011637
vn -0.414610 0.909925 0.011637
vn 0.000000 1.000000 0.000000
vn 0.000000 1.000000 0.000000
vn 0.000000 1.000000 0.000000
vn 0.000000 1.000000 0.000000
vn 0.000000 1.000000 0.000000
vn 0.000000 1.000000 0.000000
vn -0.279859 0.959695 -0.025771
vn -0.279859 0.959695 -0.025771
vn -0.279859 0.959695 -0.025771
vn -0.279859 0.959695 -0.025771
vn 0.108732 0.994037 0.008220
vn 0.108732 0.994037 0.008220
vn 0.108732 0.994037 0.008220
vn 0.108732 0.994037 0.008220
vn 0.213574 0.976452 0.030445
vn 0.213574 0.976452 0.030445
vn 0.213574 0.976452 0.030445
vn 0.213574 0.976452 0.030445
vn -0.833592 0.420068 0.358703
vn -0.833592 0.420068 0.358703
vn -0.833592 0.420068 0.358703
vn 0.193056 0.981179 0.004206
vn 0.193056 0.981179 0.004206
vn 0.193056 0.981179 0.004206
vn 0.193056 0.981179 0.004206
vn 0.000000 1.000000 0.000000
vn 0.000000 1.000000 0.000000
vn 0.000000 1.000000 0.000000
vn -0.504382 0.860840 -0.067477
vn -0.504382 0.860840 -0.067477
vn -0.504382 0.860840 -0.067477
vn -0.504382 0.860840 -0.067477
vn 0.327450 0.942784 -0.062727
vn 0.327450 0.942784 -0.062727
vn 0.327450 0.942784 -0.062727
vn -0.511784 0.855161 0.082321
vn -0.511784 0.855161 0.082321
vn -0.511784 0.855161 0.082321
vn -0.511784 0.855161 0.082321
vn 0.224337 0.973251 -0.049546
vn 0.224337 0.973251 -0.049546
vn 0.224337 0.973251 -0.049546
vn 0.224337 0.973251 -0.049546
vn 0.000000 1.000000 0.000000
vn 0.000000 1.000000 0.000000
vn 0.000000 1.000000 0.000000
vn 0.000000 1.000000 0.000000
vn -0.087900 0.996118 0.004848
vn -0.087900 0.996117 0.004848
vn -0.087900 0.996118 0.004848
vn -0.087900 0.996118 0.004848
vn 0.366366 0.930452 0.005909
vn 0.366366 0.930452 0.005909
vn 0.366366 0.930452 0.005909
vn 0.366366 0.930452 0.005909
vn 0.194020 0.979948 0.045359
vn 0.194020 0.979948 0.045359
vn 0.194020 0.979948 0.045359
vn 0.194020 0.979948 0.045359
vn 0.000000 1.000000 -0.000000
vn 0.000000 1.000000 -0.000000
vn 0.000000 1.000000 -0.000000
vn -0.368202 0.924353 0.099997
vn -0.368202 0.924353 0.099997
vn -0.368202 0.924353 0.099997
vn -0.368202 0.924353 0.099997
vn 0.364890 0.930959 0.013099
vn 0.364890 0.930959 0.013099
vn 0.364890 0.930959 0.013099
vn -0.419728 0.907556 0.013054
vn -0.419728 0.907556 0.013054
vn -0.419728 0.907556 0.013054
vn -0.419728 0.907556 0.013054
vn 0.243020 0.970006 -0.005492
vn 0.243020 0.970006 -0.005492
vn 0.243020 0.970006 -0.005492
vn 0.243020 0.970006 -0.005492
vn 0.000000 1.000000 0.000000
vn 0.000000 1.000000 0.000000
vn 0.000000 1.000000 0.000000
vn -0.628228 0.777993 0.007481
vn -0.628228 0.777993 0.007481
vn -0.628228 0.777993 0.007481
vn -0.628228 0.777993 0.007481
vn 0.399525 0.914317 0.066364
vn 0.399525 0.914317 0.066364
vn 0.399525 0.914317 0.066364
vn 0.399525 0.914317 0.066364
vn 0.000000 1.000000 0.000000
vn 0.000000 1.000000 0.000000
vn 0.000000 1.000000 0.000000
vn 0.000000 1.000000 0.000000
vn 0.000000 1.000000 0.000000
vn 0.000000 1.000000 0.000000
vn -0.154411 0.771135 0.617663
vn -0.154411 0.771135 0.617663
vn -0.154411 0.771135 0.617663
vn 0.000000 1.000000 -0.000000
vn 0.000000 1.000000 -0.000000
vn 0.000000 1.000000 -0.000000
vn 0.000000 1.000000 0.000000
vn 0.000000 1.000000 0.000000
vn 0.000000 1.000000 0.000000
vn 0.000000 1.000000 0.000000
vn 0.000000 1.000000 0.000000
vn 0.000000 1.000000 0.000000
vn -0.002977 0.963961 -0.266028
vn -0.002977 0.963961 -0.266028
vn -0.002977 0.963961 -0.266028
vn -0.002977 0.963961 -0.266028
vn 0.087220 0.981041 -0.173067
vn 0.087220 0.981041 -0.173067
vn 0.087220 0.981041 -0.173067
vn 0.087220 0.981041 -0.173067
vn -0.108301 0.989965 -0.090780
vn -0.108301 0.989965 -0.090780
vn -0.108301 0.989965 -0.090780
vn -0.108301 0.989965 -0.090780
vn 0.000438 0.971705 -0.236200
vn 0.000438 0.971705 -0.236200
vn 0.000438 0.971705 -0.236200
vn 0.000438 0.971704 -0.236200
vn 0.000000 1.000000 -0.000000
vn 0.000000 1.000000 -0.000000
vn 0.000000 1.000000 -0.000000
vn 0.000000 1.000000 -0.000000
vn 0.000000 1.000000 0.000000
vn 0.000000 1.000000 0.000000
vn 0.000000 1.000000 0.000000
vn 0.000000 1.000000 0.000000
vn 0.000000 1.000000 0.000000
vn 0.000000 1.000000 0.000000
vn 0.000000 1.000000 0.000000
vn 0.000000 1.000000 0.000000
vn 0.000000 1.000000 0.000000
vn 0.000000 1.000000 0.000000
vn 0.000000 1.000000 0.000000
vn 0.000000 1.000000 0.000000
vn 0.000000 1.000000 -0.000000
vn 0.000000 1.000000 -0.000000
vn 0.000000 1.000000 -0.000000
vn 0.000000 1.000000 -0.000000
vn 0.000000 1.000000 -0.000000
vn 0.000000 1.000000 -0.000000
vn 0.213158 0.771697 -0.599206
vn 0.213158 0.771697 -0.599206
vn 0.213158 0.771697 -0.599206
vn -0.004962 0.826007 -0.563638
vn -0.004962 0.826007 -0.563638
vn -0.004962 0.826007 -0.563638
vn -0.004962 0.826007 -0.563638
vn 0.000000 1.000000 0.000000
vn 0.000000 1.000000 0.000000
vn 0.000000 1.000000 0.000000
vn 0.000000 1.000000 0.000000
vn 0.000000 1.000000 0.000000
vn 0.000000 1.000000 0.000000
vn 0.000000 1.000000 -0.000000
vn 0.000000 1.000000 -0.000000
vn 0.000000 1.000000 -0.000000
vn 0.000000 1.000000 0.000000
vn 0.000000 1.000000 0.000000
vn 0.000000 1.000000 0.000000
vn -0.262226 0.963698 -0.050239
vn -0.262226 0.963698 -0.050239
vn -0.262226 0.963698 -0.050239
vn -0.262226 0.963698 -0.050239
vn -0.056056 0.998425 0.002425
vn -0.056056 0.998425 0.002425
vn -0.056056 0.998425 0.002425
vn 0.000000 1.000000 0.000000
vn 0.000000 1.000000 0.000000
vn 0.000000 1.000000 0.000000
vn 0.000000 1.000000 -0.000000
vn 0.000000 1.000000 -0.000000
vn 0.000000 1.000000 -0.000000
vn 0.000000 1.000000 0.000000
vn 0.000000 1.000000 0.000000
vn 0.000000 1.000000 0.000000
vn -0.012577 0.935587 -0.352872
vn -0.012577 0.935587 -0.352872
vn -0.012577 0.935587 -0.352872
vn -0.012577 0.935587 -0.352872
vn -0.929236 0.360009 -0.083153
vn -0.929236 0.360009 -0.083153
vn -0.929236 0.360009 -0.083153
vn 0.175634 0.931555 0.318368
vn 0.175634 0.931555 0.318368
vn 0.175634 0.931555 0.318368
vn 0.000000 1.000000 0.000000
vn 0.000000 1.000000 0.000000
vn 0.000000 1.000000 0.000000
vn 0.017328 0.909915 0.414432
vn 0.017328 0.909915 0.414432
vn 0.017328 0.909915 0.414432
vn 0.017328 0.909915 0.414432
vn 0.020602 0.846731 -0.531622
vn 0.020602 0.846731 -0.531622
vn 0.020602 0.846731 -0.531622
vn 0.020602 0.846731 -0.531622
vn 0.000000 1.000000 0.000000
vn 0.000000 1.000000 0.000000
vn 0.000000 1.000000 0.000000
vn 0.000000 1.000000 0.000000
vn 0.252728 0.601450 -0.757883
vn 0.000000 0.000000 -0.000000
vn 0.000000 0.000000 -0.000000
vn 0.252728 0.601450 -0.757883
vn -0.259464 0.491694 -0.831213
vn -0.259464 0.491694 -0.831213
vn -0.259464 0.491694 -0.831213
vn 0.000001 0.582878 -0.812560
vn 0.000001 0.582878 -0.812560
vn 0.000001 0.582878 -0.812560
vn 0.000001 0.582878 -0.812560
vn 0.188401 0.518667 -0.833960
vn 0.188401 0.518667 -0.833960
vn 0.188401 0.518667 -0.833960
vn -0.000000 0.000000 -0.000000
vn -0.267890 0.598483 -0.755019
vn -0.267890 0.598483 -0.755019
vn -0.000000 0.000000 -0.000000
vn -0.260733 0.598235 0.757715
vn -0.000000 0.000000 0.000000
vn -0.000000 0.000000 0.000000
vn -0.260733 0.598235 0.757715
vn 0.188430 0.518666 0.833954
vn 0.188430 0.518666 0.833954
vn 0.188430 0.518666 0.833954
vn -0.259696 0.491599 0.831197
vn -0.259696 0.491600 0.831197
vn -0.259696 0.491599 0.831197
vn 0.000000 0.000000 0.000000
vn 0.252737 0.601446 0.757883
vn 0.252737 0.601446 0.757883
vn 0.000000 0.000000 0.000000
vn 0.000000 0.582882 0.812557
vn 0.000000 0.582882 0.812556
vn 0.000000 0.582882 0.812557
vn 0.000000 0.582882 0.812557
s off
f 20/38/1 26/47/2 70/122/3
f 32/65/4 41/78/5 20/37/6 31/64/7
f 25/45/8 28/51/9 24/43/10
f 25/46/11 35/69/12 50/93/13
f 29/53/14 22/40/15 23/41/16
f 43/82/17 44/84/18 17/32/19 27/49/20
f 72/126/21 73/128/22 71/124/23 18/57/24
f 58/105/25 59/107/26 23/61/27 24/62/28
f 21/39/29 22/40/30 53/99/31 54/100/32
f 16/31/33 17/32/34 44/84/35 45/85/36
f 2/3/37 15/24/38 40/77/39 16/31/40
f 39/75/41 40/77/42 15/24/43 10/17/44
f 38/73/45 39/76/46 10/26/47 9/27/48
f 37/71/49 38/74/50 9/16/51 4/5/52
f 6/1/53 14/23/54 49/92/55 21/39/56
f 66/116/57 11/19/58 68/119/59
f 56/102/60 67/118/61 68/120/62 11/25/63
f 46/86/64 47/89/65 8/15/66 5/9/67
f 46/87/68 5/12/69 33/67/70 34/68/71
f 37/72/72 4/4/73 30/63/74 31/64/75 20/37/76
f 34/68/77 35/69/78 25/46/79 46/87/80
f 27/50/81 55/101/82 43/83/83
f 51/95/84 62/112/85 28/52/86
f 52/98/87 53/99/88 22/40/89 29/53/90
f 50/94/91 51/96/92 28/51/93 25/45/94
f 41/79/95 42/81/96 26/47/97 20/38/98
f 71/125/99 17/32/100 18/33/101
f 20/38/102 19/35/103 38/74/104 37/71/105
f 69/121/106 18/34/107 39/76/108
f 18/33/109 17/32/110 40/77/111 39/75/112
f 16/31/113 40/77/114 17/32/115
f 33/66/116 5/6/117 41/78/118 32/65/119
f 8/14/120 42/81/121 41/79/122 5/10/123
f 11/25/124 43/83/125 55/101/126 56/102/127
f 14/22/128 44/84/129 43/82/130 11/18/131
f 45/85/132 44/84/133 14/22/134 6/11/135
f 25/45/136 24/43/137 47/89/138 46/86/139
f 48/91/140 57/103/141 23/42/142
f 23/41/143 22/40/144 49/92/145 48/90/146
f 21/39/147 49/92/148 22/40/149
f 50/93/150 35/69/151 36/70/152 3/2/153
f 7/13/154 51/96/155 50/94/156 3/7/157
f 7/30/158 62/112/159 51/95/160
f 13/21/161 53/99/162 52/98/163 12/20/164
f 54/100/165 53/99/166 13/21/167 1/8/168
f 74/130/169 55/101/170 27/50/171
f 64/114/172 42/80/173 8/28/174
f 64/114/175 67/118/176 56/102/177
f 24/44/178 23/42/179 57/103/180
f 47/88/181 57/103/182 48/91/183
f 24/44/184 57/103/185 47/88/186
f 60/109/187 61/111/188 59/107/189 58/105/190
f 24/43/191 28/51/192 60/108/193 58/104/194
f 29/53/195 23/41/196 59/106/197 61/110/198
f 28/59/199 29/60/200 61/111/201 60/109/202
f 12/29/203 52/97/204 62/112/205 7/30/206
f 29/54/207 63/113/208 52/97/209
f 28/52/210 63/113/211 29/54/212
f 28/52/213 62/112/214 63/113/215
f 52/97/216 63/113/217 62/112/218
f 64/114/219 48/91/220 65/115/221
f 66/117/222 65/115/223 48/91/224
f 64/114/225 65/115/226 67/118/227
f 68/120/228 67/118/229 65/115/230 66/117/231
f 64/114/232 55/101/233 42/80/234
f 56/102/235 55/101/236 64/114/237
f 47/88/238 64/114/239 8/28/240
f 47/88/241 48/91/242 64/114/243
f 48/90/244 49/92/245 14/23/246 66/116/247
f 66/116/248 14/23/249 11/19/250
f 38/73/251 69/121/252 39/76/253
f 19/36/254 69/121/255 38/73/256
f 69/121/257 72/127/258 18/34/259
f 73/128/260 74/129/261 27/56/262 71/124/263
f 27/49/264 17/32/265 71/125/266
f 20/38/267 70/122/268 19/35/269
f 19/36/270 72/127/271 69/121/272
f 70/123/273 73/128/274 72/126/275 19/58/276
f 26/55/277 74/129/278 73/128/279 70/123/280
f 42/80/281 55/101/282 74/130/283 26/48/284
f 15/131/285 2/132/286 75/133/287 76/134/288
f 10/135/289 15/131/290 76/134/291
f 9/138/292 10/139/293 76/140/294 77/141/295
f 4/136/296 9/137/297 77/142/298
f 30/143/299 4/136/300 77/142/301 78/144/302
f 3/145/303 36/146/304 79/147/305 80/148/306
f 7/149/307 3/145/308 80/148/309
f 13/150/310 12/151/311 81/152/312
f 1/153/313 13/150/314 81/152/315 82/154/316
f 12/155/317 7/156/318 80/157/319 81/158/320
