# This file uses centimeters as units for non-parametric coordinates.

v -13.072149 -0.000000 1.473196
v -5.420601 6.645001 1.134670
v 8.795091 6.649371 -0.440133
v 5.210540 6.645001 6.755066
v -2.988327 6.649371 -5.065731
v 6.432250 3.585517 -8.278685
v 4.883544 7.673786 -5.580615
v 13.072149 -0.000000 1.179519
v 7.347866 -0.000000 12.266250
v -3.302528 5.878407 8.709444
v -4.488893 -0.000000 -12.604015
v -6.204074 -0.000000 12.604015
v -1.001008 8.427488 5.980459
v 9.432741 -0.000000 -9.700699
vt 0.459255 0.202736
vt 0.459255 0.202736
vt 0.459255 0.202736
vt 0.459255 0.202736
vt 0.459255 0.202736
vt 0.459255 0.202736
vt 0.459255 0.202736
vt 0.459255 0.202736
vt 0.459255 0.202736
vt 0.459255 0.202736
vt 0.459255 0.202736
vt 0.459255 0.202736
vt 0.459255 0.202736
vt 0.459255 0.202736
vt 0.459255 0.202736
vt 0.459255 0.202736
vt 0.459255 0.202736
vn -0.641027 0.725334 -0.250947
vn -0.641027 0.725334 -0.250947
vn -0.641027 0.725334 -0.250947
vn -0.672299 0.616427 -0.409917
vn -0.672299 0.616427 -0.409917
vn -0.672299 0.616427 -0.409917
vn -0.140202 0.756213 -0.639129
vn -0.140202 0.756213 -0.639129
vn -0.140202 0.756213 -0.639129
vn 0.128364 0.579703 -0.804654
vn 0.128364 0.579703 -0.804654
vn 0.128364 0.579703 -0.804654
vn 0.155385 0.984769 0.078010
vn 0.155385 0.984769 0.078010
vn 0.155385 0.984769 0.078010
vn 0.711887 0.554295 -0.431246
vn 0.711887 0.554295 -0.431246
vn 0.711887 0.554295 -0.431246
vn 0.747603 0.549655 0.372786
vn 0.747603 0.549655 0.372786
vn 0.747603 0.549655 0.372786
vn 0.733640 0.564172 0.378792
vn 0.733640 0.564172 0.378792
vn 0.733640 0.564172 0.378792
vn 0.020884 0.545003 0.838174
vn 0.020884 0.545003 0.838174
vn 0.020884 0.545003 0.838174
vn -0.777484 0.565751 0.274671
vn -0.777484 0.565751 0.274671
vn -0.777484 0.565751 0.274671
vn -0.599763 0.709459 0.370071
vn -0.599763 0.709459 0.370071
vn -0.599763 0.709459 0.370071
vn -0.578220 0.779601 0.240591
vn -0.578220 0.779601 0.240591
vn -0.578220 0.779601 0.240591
vn 0.125472 0.670036 0.731648
vn 0.125472 0.670036 0.731648
vn 0.125472 0.670036 0.731648
vn 0.093769 0.653278 0.751289
vn 0.093769 0.653278 0.751289
vn 0.093769 0.653278 0.751289
vn 0.266662 0.961015 0.073080
vn 0.266662 0.961015 0.073080
vn 0.266662 0.961015 0.073080
vn -0.270404 0.956961 -0.105396
vn -0.270404 0.956961 -0.105396
vn -0.270404 0.956960 -0.105396
vn -0.136467 0.981613 -0.133461
vn -0.136467 0.981613 -0.133461
vn -0.136467 0.981613 -0.133461
vn 0.178221 0.487953 -0.854482
vn 0.178221 0.487953 -0.854482
vn 0.178221 0.487953 -0.854482
vn 0.836987 0.470173 -0.279982
vn 0.836987 0.470173 -0.279982
vn 0.836987 0.470173 -0.279982
vn 0.594008 0.672269 -0.441824
vn 0.594008 0.672269 -0.441824
vn 0.594008 0.672269 -0.441824
s off
f 2/1/1 5/2/2 1/3/3
f 11/4/4 1/3/5 5/2/6
f 5/2/7 7/5/8 11/4/9
f 11/6/10 7/7/11 6/8/12
f 7/5/13 4/9/14 3/10/15
f 6/11/16 7/5/17 3/10/18
f 4/9/19 9/12/20 3/10/21
f 8/13/22 3/10/23 9/12/24
f 12/14/25 9/12/26 10/15/27
f 10/15/28 2/1/29 12/14/30
f 12/14/31 2/1/32 1/3/33
f 10/15/34 13/16/35 2/1/36
f 10/15/37 9/12/38 13/16/39
f 13/16/40 9/12/41 4/9/42
f 13/16/43 4/9/44 7/5/45
f 2/1/46 13/16/47 5/2/48
f 5/2/49 13/16/50 7/5/51
f 14/17/52 11/4/53 6/11/54
f 8/13/55 14/17/56 3/10/57
f 3/10/58 14/17/59 6/11/60
