# This file uses centimeters as units for non-parametric coordinates.

v -1.380033 0.000000 7.628894
v -18.768764 4.607101 6.197684
v -12.994955 5.043079 1.507321
v -10.066296 5.371130 13.433364
v -19.835655 0.000000 14.634142
v -24.109903 0.000000 6.459821
v -13.571383 0.000000 -3.227430
v -6.197237 0.000000 0.765287
v -9.057187 0.000000 16.249973
v -5.514050 5.366528 7.410441
v -16.861897 5.826928 11.620214
v -8.103753 6.042604 3.745391
v 10.828056 0.000000 15.257086
v 10.270124 8.010429 6.041243
v 8.093890 8.015715 -11.062796
v 16.836527 8.010473 -6.882622
v 2.749052 8.015715 3.230975
v -1.308154 4.322289 -8.061554
v 1.974607 9.250626 -6.247709
v 9.962528 0.000000 -16.249964
v 23.437725 0.000000 -9.566754
v 19.358936 7.086327 3.339494
v -6.307872 0.000000 5.187163
v 24.109903 0.000000 6.760726
v 16.024380 10.159225 0.619417
v -3.080428 0.000000 -11.649799
vt 0.459255 0.202736
vt 0.459255 0.202736
vt 0.459255 0.202736
vt 0.459255 0.202736
vt 0.459255 0.202736
vt 0.459255 0.202736
vt 0.459255 0.202736
vt 0.459255 0.202736
vt 0.459255 0.202736
vt 0.459255 0.202736
vt 0.459255 0.202736
vt 0.459255 0.202736
vt 0.459255 0.202736
vt 0.459255 0.202736
vt 0.459255 0.202736
vt 0.459255 0.202736
vt 0.459255 0.202736
vt 0.459255 0.202736
vt 0.459255 0.202736
vt 0.459255 0.202736
vt 0.459255 0.202736
vt 0.459255 0.202736
vt 0.459255 0.202736
vt 0.459255 0.202736
vt 0.459255 0.202736
vt 0.459255 0.202736
vt 0.459255 0.202736
vt 0.459255 0.202736
vt 0.459255 0.202736
vt 0.459255 0.202736
vt 0.459255 0.202736
vt 0.459255 0.202736
vn 0.672356 0.538626 0.507760
vn 0.672356 0.538626 0.507760
vn 0.672356 0.538626 0.507760
vn 0.670872 0.439301 0.597449
vn 0.670872 0.439301 0.597449
vn 0.670872 0.439301 0.597449
vn -0.133095 0.440502 0.887831
vn -0.133095 0.440502 0.887831
vn -0.133095 0.440502 0.887831
vn -0.194722 0.969384 -0.149591
vn -0.194722 0.969384 -0.149591
vn -0.194722 0.969384 -0.149591
vn -0.836396 0.518615 0.177430
vn -0.836396 0.518615 0.177430
vn -0.836396 0.518615 0.177430
vn -0.525285 0.613578 -0.589574
vn -0.525285 0.613578 -0.589574
vn -0.525285 0.613578 -0.589574
vn -0.543306 0.596235 -0.591035
vn -0.543306 0.596235 -0.591035
vn -0.543306 0.596235 -0.591035
vn 0.699677 0.518947 -0.491067
vn 0.699677 0.518947 -0.491067
vn 0.699677 0.518947 -0.491067
vn 0.761729 0.463516 -0.452682
vn 0.761729 0.463517 -0.452682
vn 0.761729 0.463516 -0.452682
vn 0.125105 0.987700 0.093799
vn 0.125105 0.987700 0.093799
vn 0.125105 0.987700 0.093799
vn -0.610009 0.725359 0.318973
vn -0.610009 0.725359 0.318973
vn -0.610009 0.725359 0.318973
vn -0.186403 0.524683 0.830640
vn -0.186403 0.524683 0.830640
vn -0.186403 0.524683 0.830640
vn 0.079286 0.995750 -0.046861
vn 0.079286 0.995750 -0.046861
vn 0.079286 0.995750 -0.046861
vn 0.336745 0.564730 -0.753447
vn 0.336745 0.564730 -0.753447
vn 0.336745 0.564730 -0.753447
vn 0.336745 0.564730 -0.753447
vn -0.211096 0.977147 0.024961
vn -0.211096 0.977147 0.024961
vn -0.211096 0.977147 0.024961
vn -0.240508 0.725335 0.645016
vn -0.240508 0.725335 0.645016
vn -0.240508 0.725335 0.645016
vn -0.398949 0.616428 0.678864
vn -0.398949 0.616428 0.678864
vn -0.398949 0.616428 0.678864
vn -0.636768 0.756214 0.150559
vn -0.636768 0.756214 0.150559
vn -0.636768 0.756214 0.150559
vn -0.806632 0.579702 -0.115284
vn -0.806632 0.579702 -0.115284
vn -0.806632 0.579702 -0.115284
vn 0.075477 0.984769 -0.156631
vn 0.075477 0.984769 -0.156631
vn 0.075477 0.984769 -0.156631
vn -0.442746 0.554295 -0.704793
vn -0.442746 0.554295 -0.704792
vn -0.442746 0.554295 -0.704793
vn 0.360600 0.549654 -0.753557
vn 0.360600 0.549654 -0.753557
vn 0.360600 0.549654 -0.753557
vn 0.366832 0.564172 -0.739692
vn 0.366832 0.564172 -0.739692
vn 0.366832 0.564172 -0.739692
vn 0.837724 0.545003 -0.034488
vn 0.837724 0.545003 -0.034488
vn 0.837724 0.545003 -0.034488
vn 0.287258 0.565751 0.772923
vn 0.287258 0.565751 0.772923
vn 0.287258 0.565751 0.772922
vn 0.379758 0.709460 0.593676
vn 0.379758 0.709460 0.593676
vn 0.379758 0.709460 0.593676
vn 0.249947 0.779601 0.574237
vn 0.249947 0.779601 0.574237
vn 0.249947 0.779601 0.574237
vn 0.729515 0.670036 -0.137333
vn 0.729515 0.670036 -0.137333
vn 0.729515 0.670036 -0.137333
vn 0.749669 0.653277 -0.105953
vn 0.749669 0.653277 -0.105953
vn 0.749669 0.653277 -0.105953
vn 0.068741 0.961015 -0.267814
vn 0.068741 0.961015 -0.267814
vn 0.068741 0.961015 -0.267814
vn -0.100993 0.956961 0.272079
vn -0.100993 0.956961 0.272079
vn -0.100993 0.956961 0.272079
vn -0.131228 0.981613 0.138616
vn -0.131228 0.981613 0.138616
vn -0.131228 0.981613 0.138616
vn -0.857263 0.487953 -0.164325
vn -0.857263 0.487953 -0.164325
vn -0.857262 0.487953 -0.164325
vn -0.293532 0.470174 -0.832332
vn -0.293532 0.470174 -0.832332
vn -0.293532 0.470174 -0.832332
vn -0.451411 0.672269 -0.586757
vn -0.451411 0.672269 -0.586757
vn -0.451411 0.672269 -0.586756
s off
f 10/1/1 4/2/2 1/3/3
f 9/4/4 1/3/5 4/2/6
f 9/5/7 4/6/8 5/7/9
f 11/8/10 3/9/11 2/10/12
f 5/11/13 11/8/14 2/10/15
f 3/9/16 7/12/17 2/10/18
f 6/13/19 2/10/20 7/12/21
f 8/14/22 10/1/23 1/3/24
f 10/1/25 8/14/26 12/15/27
f 10/1/28 12/15/29 4/2/30
f 6/13/31 5/11/32 2/10/33
f 5/11/34 4/2/35 11/8/36
f 4/2/37 3/9/38 11/8/39
f 12/15/40 8/14/41 7/12/42 3/9/43
f 4/2/44 12/15/45 3/9/46
f 14/16/47 17/17/48 13/18/49
f 23/19/50 13/18/51 17/17/52
f 17/17/53 19/20/54 23/19/55
f 23/21/56 19/22/57 18/23/58
f 19/20/59 16/24/60 15/25/61
f 18/26/62 19/20/63 15/25/64
f 16/24/65 21/27/66 15/25/67
f 20/28/68 15/25/69 21/27/70
f 24/29/71 21/27/72 22/30/73
f 22/30/74 14/16/75 24/29/76
f 24/29/77 14/16/78 13/18/79
f 22/30/80 25/31/81 14/16/82
f 22/30/83 21/27/84 25/31/85
f 25/31/86 21/27/87 16/24/88
f 25/31/89 16/24/90 19/20/91
f 14/16/92 25/31/93 17/17/94
f 17/17/95 25/31/96 19/20/97
f 26/32/98 23/19/99 18/26/100
f 20/28/101 26/32/102 15/25/103
f 15/25/104 26/32/105 18/26/106
