# This file uses centimeters as units for non-parametric coordinates.

v 3.138860 0.000013 -3.653448
v -3.100848 0.000007 -3.685856
v -4.237248 0.000003 -0.022019
v -3.138728 -0.000013 3.653403
v 3.100532 0.000003 3.685798
v 4.237354 0.000003 0.022171
v -1.355000 26.204836 2.319382
v 1.331115 26.204823 2.333271
v 2.686417 26.204823 0.013963
v 1.355105 26.204836 -2.319232
v -1.330983 26.204836 -2.333135
v -2.686272 26.204823 -0.014023
v -4.302460 17.868807 5.007804
v 4.250401 17.868807 5.052215
v 5.808112 17.868813 0.030171
v 4.302578 17.868807 -5.007875
v -4.250283 17.868807 -5.052279
v -5.808007 17.868813 -0.030227
v -4.302486 1.508523 5.007818
v 4.250401 1.508526 5.052221
v 5.808125 1.508526 0.030164
v 4.302592 1.508526 -5.007872
v -4.250283 1.508526 -5.052286
v -5.808007 1.508523 -0.030227
v -0.966072 32.103413 -1.693380
v 0.983460 32.103413 -1.683275
v 1.949440 32.103413 0.010175
v 0.966230 32.103413 1.693511
v -0.983776 32.103394 1.683219
v -1.949690 32.103413 -0.010017
v 4.302566 15.331192 -5.007869
v 5.808125 15.331185 0.030164
v 4.250401 15.331185 5.052221
v -4.302486 15.331192 5.007818
v -5.808007 15.331199 -0.030230
v -4.250296 15.331199 -5.052282
v -5.808007 4.165267 -0.030233
v -4.302460 4.165257 5.007811
v 4.250415 4.165267 5.052228
v 5.808125 4.165254 0.030164
v 4.302566 4.165267 -5.007872
v -4.250283 4.165267 -5.052279
v -5.055457 15.331199 2.488810
v -5.055431 4.165273 2.488796
v -5.029336 4.165267 -2.541255
v -5.029362 15.331199 -2.541255
v 5.029047 15.331199 2.541197
v 5.029047 4.165273 2.541197
v 5.055562 4.165267 -2.488851
v 5.055549 15.331185 -2.488837
v -3.495090 6.134722 5.011991
v 3.443031 6.134712 5.048042
v 3.442991 13.513718 5.048050
v -3.495090 13.513729 5.011983
v -1.312639 32.463158 -2.300905
v 1.336318 32.463135 -2.287182
v -2.649131 32.463158 -0.013660
v -1.336666 32.463135 2.287032
v 1.312882 32.463158 2.301037
v 2.648812 32.463135 0.013810
v -1.312624 33.816528 -2.300894
v 1.336318 33.816551 -2.287186
v -2.649101 33.816551 -0.013667
v -1.336637 33.816505 2.287046
v 1.312882 33.816570 2.301040
v 2.648841 33.816570 0.013810
v -0.920011 34.112442 -1.612553
v 0.936544 34.112461 -1.602945
v -1.856700 34.112461 -0.009541
v -0.936847 34.112461 1.602918
v 0.920090 34.112461 1.612734
v 1.856410 34.112442 0.009705
v -0.745447 33.185898 -1.306540
v 0.758810 33.185898 -1.298767
v -1.504389 33.185875 -0.007703
v -0.759100 33.185921 1.298787
v 0.745500 33.185921 1.306741
v 1.504139 33.185875 0.007903
v -0.745447 28.721973 -1.306540
v 0.758810 28.721973 -1.298770
v -1.504389 28.721960 -0.007703
v -0.759100 28.721987 1.298787
v 0.745500 28.721987 1.306747
v 1.504139 28.721973 0.007897
v -0.000079 25.782589 0.000071
v 0.000000 0.000002 0.000000
v 0.000000 0.000002 -0.000002
v 0.000000 0.000002 0.000002
v 2.055373 14.700229 5.040837
v -2.107484 14.700238 5.019196
v -2.107471 4.948211 5.019201
v 2.055412 4.948202 5.040832
v -2.648402 6.971183 5.016077
v -1.599453 6.053671 5.021653
v 1.547394 6.053663 5.038380
v 2.596343 6.971175 5.043955
v 2.596308 12.677257 5.043962
v 1.547371 13.594769 5.038383
v -1.599465 13.594776 5.021649
v -2.648402 12.677265 5.016071
vt 0.103656 0.086412
vt 0.103656 0.086412
vt 0.103656 0.086412
vt 0.103656 0.086412
vt 0.103656 0.086412
vt 0.103656 0.086412
vt 0.103656 0.086412
vt 0.103656 0.086412
vt 0.103656 0.086412
vt 0.103656 0.086412
vt 0.103656 0.086412
vt 0.103656 0.086412
vt 0.103656 0.086412
vt 0.103656 0.086412
vt 0.103656 0.086412
vt 0.103656 0.086412
vt 0.103656 0.086412
vt 0.103656 0.086412
vt 0.103656 0.086412
vt 0.103656 0.086412
vt 0.103656 0.086412
vt 0.131332 0.206991
vt 0.131332 0.206991
vt 0.131332 0.206991
vt 0.131332 0.206991
vt 0.103656 0.086412
vt 0.103656 0.086412
vt 0.103656 0.086412
vt 0.103656 0.086412
vt 0.103656 0.086412
vt 0.103656 0.086412
vt 0.123345 0.134392
vt 0.123345 0.134392
vt 0.123345 0.134392
vt 0.123345 0.134392
vt 0.123345 0.134392
vt 0.123345 0.134392
vt 0.123345 0.134392
vt 0.123345 0.134392
vt 0.123345 0.134392
vt 0.123345 0.134392
vt 0.103656 0.086412
vt 0.103656 0.086412
vt 0.103656 0.086412
vt 0.103656 0.086412
vt 0.103656 0.086412
vt 0.103656 0.086412
vt 0.103656 0.086412
vt 0.103656 0.086412
vt 0.103656 0.086412
vt 0.103656 0.086412
vt 0.103656 0.086412
vt 0.103656 0.086412
vt 0.103656 0.086412
vt 0.103656 0.086412
vt 0.103656 0.086412
vt 0.103656 0.086412
vt 0.103656 0.086412
vt 0.103656 0.086412
vt 0.103656 0.086412
vt 0.103656 0.086412
vt 0.103656 0.086412
vt 0.103656 0.086412
vt 0.103656 0.086412
vt 0.103656 0.086412
vt 0.103656 0.086412
vt 0.103656 0.086412
vt 0.103656 0.086412
vt 0.103656 0.086412
vt 0.123345 0.134392
vt 0.123345 0.134392
vt 0.123345 0.134392
vt 0.123345 0.134392
vt 0.103656 0.086412
vt 0.123345 0.134392
vt 0.123345 0.134392
vt 0.103656 0.086412
vt 0.123345 0.134392
vt 0.123345 0.134392
vt 0.123345 0.134392
vt 0.123345 0.134392
vt 0.103656 0.086412
vt 0.103656 0.086412
vt 0.103656 0.086412
vt 0.103656 0.086412
vt 0.103656 0.086412
vt 0.103656 0.086412
vt 0.103656 0.086412
vt 0.103656 0.086412
vt 0.103656 0.086412
vt 0.103656 0.086412
vt 0.103656 0.086412
vt 0.103656 0.086412
vt 0.103656 0.086412
vt 0.103656 0.086412
vt 0.103656 0.086412
vt 0.103656 0.086412
vt 0.103656 0.086412
vt 0.103656 0.086412
vt 0.103656 0.086412
vt 0.103656 0.086412
vt 0.103656 0.086412
vt 0.103656 0.086412
vt 0.103656 0.086412
vt 0.103656 0.086412
vt 0.103656 0.086412
vt 0.103656 0.086412
vt 0.103656 0.086412
vt 0.103656 0.086412
vt 0.103656 0.086412
vt 0.103656 0.086412
vt 0.103656 0.086412
vt 0.103656 0.086412
vt 0.103656 0.086412
vt 0.103656 0.086412
vt 0.103656 0.086412
vt 0.103656 0.086412
vt 0.103656 0.086412
vt 0.103656 0.086412
vt 0.103656 0.086412
vt 0.103656 0.086412
vt 0.103656 0.086412
vt 0.103656 0.086412
vt 0.103656 0.086412
vt 0.103656 0.086412
vt 0.103656 0.086412
vt 0.103656 0.086412
vt 0.103656 0.086412
vt 0.103656 0.086412
vt 0.103656 0.086412
vt 0.103656 0.086412
vt 0.103656 0.086412
vt 0.103656 0.086412
vt 0.103656 0.086412
vt 0.103656 0.086412
vt 0.103656 0.086412
vt 0.103656 0.086412
vt 0.103656 0.086412
vt 0.103656 0.086412
vt 0.103656 0.086412
vt 0.103656 0.086412
vt 0.103656 0.086412
vt 0.103656 0.086412
vt 0.103656 0.086412
vt 0.103656 0.086412
vt 0.103656 0.086412
vt 0.103656 0.086412
vt 0.103656 0.086412
vt 0.103656 0.086412
vt 0.103656 0.086412
vt 0.103656 0.086412
vt 0.103656 0.086412
vt 0.103656 0.086412
vt 0.103656 0.086412
vt 0.103656 0.086412
vt 0.103656 0.086412
vt 0.103656 0.086412
vt 0.103656 0.086412
vt 0.103656 0.086412
vt 0.103656 0.086412
vt 0.103656 0.086412
vt 0.103656 0.086412
vt 0.131332 0.206991
vt 0.123345 0.134392
vt 0.131332 0.206991
vt 0.123345 0.134392
vt 0.131332 0.206991
vt 0.123345 0.134392
vt 0.131332 0.206991
vt 0.123345 0.134392
vt 0.131332 0.206991
vt 0.131332 0.206991
vt 0.131332 0.206991
vt 0.131332 0.206991
vt 0.131332 0.206991
vt 0.131332 0.206991
vt 0.131332 0.206991
vt 0.131332 0.206991
vt 0.114609 0.205399
vt 0.114609 0.205399
vt 0.114609 0.205399
vt 0.114609 0.205399
vt 0.114609 0.205399
vt 0.114609 0.205399
vt 0.114609 0.205399
vt 0.114609 0.205399
vn 0.005170 0.056687 -0.998379
vn 0.005170 0.056687 -0.998379
vn 0.005170 0.056687 -0.998379
vn 0.005170 0.056687 -0.998379
vn -0.862002 0.056691 -0.503724
vn -0.862002 0.056691 -0.503724
vn -0.862002 0.056691 -0.503724
vn -0.862002 0.056691 -0.503724
vn -0.867195 0.056676 0.494733
vn -0.867195 0.056676 0.494733
vn -0.867195 0.056676 0.494733
vn -0.867195 0.056676 0.494733
vn -0.005207 0.056696 0.998378
vn -0.005207 0.056696 0.998378
vn -0.005207 0.056696 0.998378
vn -0.005207 0.056696 0.998378
vn 0.862049 0.056700 0.503643
vn 0.862049 0.056700 0.503643
vn 0.862049 0.056700 0.503643
vn 0.862049 0.056700 0.503643
vn 0.867183 0.056708 -0.494750
vn 0.867183 0.056708 -0.494750
vn 0.867183 0.056708 -0.494750
vn 0.867183 0.056708 -0.494750
vn -0.004168 0.595224 0.803549
vn -0.004168 0.595224 0.803549
vn -0.004168 0.595224 0.803549
vn -0.004168 0.595224 0.803549
vn 0.688365 0.671973 0.273140
vn 0.688365 0.671973 0.273140
vn 0.688365 0.671973 0.273140
vn 0.688365 0.671973 0.273140
vn 0.691150 0.671983 -0.265991
vn 0.691150 0.671983 -0.265991
vn 0.691150 0.671983 -0.265991
vn 0.691150 0.671983 -0.265991
vn 0.004169 0.595253 -0.803528
vn 0.004169 0.595253 -0.803528
vn 0.004169 0.595253 -0.803528
vn 0.004169 0.595253 -0.803528
vn -0.688357 0.671980 -0.273144
vn -0.688357 0.671980 -0.273144
vn -0.688357 0.671980 -0.273144
vn -0.688357 0.671980 -0.273144
vn -0.691155 0.671979 0.265985
vn -0.691155 0.671979 0.265985
vn -0.691155 0.671979 0.265985
vn -0.691155 0.671979 0.265985
vn -0.005197 -0.000000 0.999987
vn -0.005317 0.000000 0.999986
vn -0.005317 0.000000 0.999986
vn -0.005197 -0.000000 0.999987
vn -0.005197 -0.000000 0.999986
vn -0.005317 0.000000 0.999986
vn -0.005317 0.000000 0.999986
vn -0.005197 -0.000000 0.999986
vn 0.955086 0.000000 0.296330
vn 0.955086 0.000000 0.296330
vn 0.955086 0.000000 0.296330
vn 0.955086 0.000000 0.296330
vn 0.958153 0.000000 -0.286256
vn 0.958153 0.000000 -0.286256
vn 0.958153 0.000000 -0.286256
vn 0.958153 0.000000 -0.286256
vn 0.005192 0.000000 -0.999987
vn 0.005192 0.000000 -0.999987
vn 0.005192 0.000000 -0.999987
vn 0.005192 0.000000 -0.999987
vn -0.955088 -0.000002 -0.296321
vn -0.955088 -0.000002 -0.296321
vn -0.955088 -0.000002 -0.296321
vn -0.955088 -0.000002 -0.296321
vn -0.958113 -0.000003 0.286392
vn -0.958113 -0.000003 0.286392
vn -0.958113 -0.000003 0.286392
vn -0.958113 -0.000003 0.286392
vn -0.003855 -0.669715 0.742608
vn -0.003855 -0.669715 0.742608
vn -0.003855 -0.669715 0.742608
vn -0.003855 -0.669715 0.742608
vn 0.676626 -0.705773 0.209909
vn 0.676626 -0.705773 0.209909
vn 0.676626 -0.705773 0.209909
vn 0.676626 -0.705773 0.209909
vn 0.678794 -0.705753 -0.202855
vn 0.678794 -0.705754 -0.202855
vn 0.678794 -0.705753 -0.202855
vn 0.678794 -0.705753 -0.202855
vn 0.003857 -0.669721 -0.742603
vn 0.003857 -0.669721 -0.742603
vn 0.003857 -0.669721 -0.742603
vn 0.003857 -0.669721 -0.742603
vn -0.676677 -0.705731 -0.209888
vn -0.676677 -0.705731 -0.209888
vn -0.676677 -0.705731 -0.209888
vn -0.676677 -0.705731 -0.209888
vn -0.678799 -0.705747 0.202860
vn -0.678799 -0.705747 0.202860
vn -0.678799 -0.705747 0.202860
vn -0.678799 -0.705747 0.202860
vn 0.958153 0.000006 -0.286257
vn 0.958153 0.000006 -0.286257
vn 0.958153 0.000006 -0.286257
vn 0.955086 0.000005 0.296330
vn 0.955086 0.000005 0.296330
vn 0.955086 0.000005 0.296330
vn -0.005192 0.000004 0.999987
vn -0.005192 0.000004 0.999987
vn -0.005192 0.000004 0.999987
vn -0.005192 0.000004 0.999987
vn -0.958125 0.000072 0.286350
vn -0.958125 0.000072 0.286350
vn -0.958125 0.000072 0.286350
vn -0.958125 0.000072 0.286350
vn -0.955102 0.000064 -0.296277
vn -0.955102 0.000064 -0.296277
vn -0.955102 0.000064 -0.296277
vn -0.955102 0.000064 -0.296277
vn 0.005192 -0.000001 -0.999987
vn 0.005192 -0.000001 -0.999987
vn 0.005192 -0.000001 -0.999987
vn 0.005192 -0.000001 -0.999987
vn -0.958127 -0.000038 0.286343
vn -0.958127 -0.000038 0.286343
vn -0.958127 -0.000038 0.286343
vn -0.958127 -0.000038 0.286343
vn -0.005192 0.000000 0.999987
vn -0.005192 0.000000 0.999987
vn -0.005192 0.000000 0.999987
vn -0.005192 0.000000 0.999987
vn 0.955086 0.000000 0.296330
vn 0.955086 0.000000 0.296330
vn 0.955086 0.000000 0.296330
vn 0.958154 0.000000 -0.286254
vn 0.958154 0.000000 -0.286254
vn 0.958154 0.000000 -0.286254
vn 0.005192 0.000001 -0.999987
vn 0.005192 0.000001 -0.999987
vn 0.005192 0.000001 -0.999987
vn 0.005192 0.000001 -0.999987
vn -0.955103 -0.000045 -0.296275
vn -0.955103 -0.000045 -0.296275
vn -0.955103 -0.000045 -0.296275
vn -0.955103 -0.000045 -0.296275
vn -0.958157 -0.000000 0.286244
vn -0.958157 -0.000000 0.286244
vn -0.958157 -0.000000 0.286244
vn -0.958155 -0.000002 0.286251
vn -0.958155 -0.000002 0.286251
vn -0.958155 -0.000002 0.286251
vn -0.958155 -0.000002 0.286251
vn -0.958153 0.000003 0.286257
vn -0.958153 0.000003 0.286257
vn -0.958153 0.000003 0.286257
vn -0.955130 0.000002 -0.296187
vn -0.955130 0.000002 -0.296187
vn -0.955130 0.000002 -0.296187
vn -0.955131 -0.000002 -0.296182
vn -0.955131 -0.000002 -0.296182
vn -0.955131 -0.000002 -0.296182
vn -0.955131 -0.000002 -0.296182
vn -0.955133 0.000001 -0.296178
vn -0.955133 0.000001 -0.296178
vn -0.955133 0.000001 -0.296178
vn 0.955117 -0.000059 0.296227
vn 0.955117 -0.000059 0.296227
vn 0.955117 -0.000059 0.296227
vn 0.955117 -0.000059 0.296227
vn 0.955134 0.000001 0.296174
vn 0.955134 0.000001 0.296174
vn 0.955134 0.000001 0.296174
vn 0.955134 0.000001 0.296174
vn 0.955118 0.000050 0.296226
vn 0.955118 0.000050 0.296226
vn 0.955118 0.000050 0.296226
vn 0.955118 0.000050 0.296226
vn 0.958125 -0.000046 -0.286349
vn 0.958125 -0.000046 -0.286349
vn 0.958125 -0.000046 -0.286349
vn 0.958125 -0.000046 -0.286349
vn 0.958111 0.000001 -0.286398
vn 0.958111 0.000001 -0.286398
vn 0.958111 0.000001 -0.286398
vn 0.958111 0.000001 -0.286398
vn 0.958126 0.000054 -0.286347
vn 0.958126 0.000054 -0.286347
vn 0.958126 0.000054 -0.286347
vn 0.958126 0.000054 -0.286347
vn -0.005194 0.000001 0.999987
vn -0.005194 0.000004 0.999987
vn -0.005194 0.000001 0.999987
vn -0.005185 -0.000000 0.999987
vn -0.005185 -0.000000 0.999987
vn -0.005185 -0.000000 0.999987
vn -0.005185 -0.000000 0.999987
vn -0.005194 -0.000001 0.999987
vn -0.005194 -0.000001 0.999987
vn -0.005193 -0.000006 0.999987
vn -0.005193 -0.000003 0.999987
vn -0.005180 -0.000000 0.999987
vn -0.005180 -0.000000 0.999987
vn -0.005180 -0.000000 0.999987
vn -0.005180 -0.000000 0.999987
vn 0.002815 -0.839247 -0.543743
vn 0.002815 -0.839247 -0.543743
vn 0.002815 -0.839247 -0.543743
vn 0.002815 -0.839247 -0.543743
vn -0.469469 -0.839255 -0.274319
vn -0.469469 -0.839255 -0.274319
vn -0.469469 -0.839255 -0.274319
vn -0.469469 -0.839255 -0.274319
vn -0.472314 -0.839241 0.269432
vn -0.472314 -0.839241 0.269432
vn -0.472314 -0.839241 0.269432
vn -0.472314 -0.839241 0.269432
vn -0.002867 -0.839221 0.543783
vn -0.002867 -0.839221 0.543783
vn -0.002867 -0.839221 0.543783
vn -0.002867 -0.839221 0.543783
vn 0.469525 -0.839248 0.274244
vn 0.469525 -0.839248 0.274244
vn 0.469525 -0.839248 0.274244
vn 0.469525 -0.839248 0.274244
vn 0.472312 -0.839248 -0.269414
vn 0.472312 -0.839248 -0.269414
vn 0.472312 -0.839248 -0.269414
vn 0.472312 -0.839248 -0.269414
vn 0.005178 0.000004 -0.999987
vn 0.005178 0.000004 -0.999987
vn 0.005178 0.000004 -0.999987
vn 0.005178 0.000004 -0.999987
vn -0.863405 0.000021 -0.504511
vn -0.863405 0.000021 -0.504511
vn -0.863405 0.000021 -0.504511
vn -0.863405 0.000021 -0.504511
vn -0.868603 0.000018 0.495508
vn -0.868603 0.000018 0.495508
vn -0.868603 0.000018 0.495508
vn -0.868603 0.000018 0.495508
vn -0.005284 -0.000010 0.999986
vn -0.005284 -0.000010 0.999986
vn -0.005284 -0.000010 0.999986
vn -0.005284 -0.000010 0.999986
vn 0.863495 -0.000008 0.504357
vn 0.863495 -0.000008 0.504357
vn 0.863495 -0.000008 0.504357
vn 0.863495 -0.000008 0.504357
vn 0.868625 -0.000008 -0.495470
vn 0.868625 -0.000008 -0.495470
vn 0.868625 -0.000008 -0.495470
vn 0.868625 -0.000008 -0.495470
vn 0.002837 0.835742 -0.549115
vn 0.002837 0.835742 -0.549115
vn 0.002837 0.835742 -0.549115
vn 0.002837 0.835742 -0.549115
vn -0.474136 0.835723 -0.277058
vn -0.474136 0.835723 -0.277058
vn -0.474136 0.835723 -0.277058
vn -0.474136 0.835723 -0.277058
vn -0.477015 0.835706 0.272126
vn -0.477015 0.835706 0.272126
vn -0.477015 0.835706 0.272126
vn -0.477015 0.835706 0.272126
vn -0.002909 0.835702 0.549176
vn -0.002909 0.835702 0.549176
vn -0.002909 0.835702 0.549176
vn -0.002909 0.835702 0.549176
vn 0.474141 0.835760 0.276940
vn 0.474141 0.835760 0.276940
vn 0.474141 0.835760 0.276940
vn 0.474141 0.835760 0.276940
vn 0.476982 0.835742 -0.272073
vn 0.476982 0.835742 -0.272073
vn 0.476982 0.835742 -0.272073
vn 0.476982 0.835742 -0.272073
vn -0.004720 0.409325 0.912376
vn -0.004720 0.409325 0.912376
vn -0.004720 0.409325 0.912376
vn -0.004720 0.409325 0.912376
vn 0.787759 0.409326 0.460313
vn 0.787759 0.409326 0.460313
vn 0.787759 0.409326 0.460313
vn 0.787759 0.409326 0.460313
vn 0.792509 0.409311 -0.452100
vn 0.792509 0.409311 -0.452100
vn 0.792509 0.409311 -0.452100
vn 0.792509 0.409311 -0.452100
vn 0.004823 0.409291 -0.912391
vn 0.004823 0.409291 -0.912391
vn 0.004823 0.409291 -0.912391
vn 0.004823 0.409291 -0.912391
vn -0.787839 0.409323 -0.460179
vn -0.787839 0.409323 -0.460179
vn -0.787839 0.409323 -0.460179
vn -0.787839 0.409323 -0.460179
vn -0.792521 0.409324 0.452066
vn -0.792522 0.409324 0.452066
vn -0.792522 0.409324 0.452066
vn -0.792521 0.409324 0.452066
vn -0.005166 -0.000000 0.999987
vn -0.005166 -0.000000 0.999987
vn -0.005166 -0.000000 0.999987
vn -0.005166 -0.000000 0.999987
vn 0.863403 0.000000 0.504516
vn 0.863402 0.000000 0.504516
vn 0.863403 0.000000 0.504516
vn 0.863402 0.000000 0.504516
vn 0.868606 0.000000 -0.495503
vn 0.868606 0.000000 -0.495503
vn 0.868606 0.000000 -0.495503
vn 0.868606 0.000000 -0.495503
vn 0.005289 -0.000001 -0.999986
vn 0.005289 -0.000001 -0.999986
vn 0.005289 -0.000001 -0.999986
vn 0.005289 -0.000001 -0.999986
vn -0.863493 0.000000 -0.504361
vn -0.863493 0.000000 -0.504361
vn -0.863493 0.000000 -0.504361
vn -0.863493 0.000000 -0.504361
vn -0.868624 -0.000001 0.495471
vn -0.868624 -0.000001 0.495471
vn -0.868624 -0.000001 0.495471
vn -0.868624 -0.000001 0.495471
vn -0.004722 0.405190 0.914220
vn -0.004722 0.405190 0.914220
vn -0.004722 0.405190 0.914220
vn 0.789348 0.405192 0.461247
vn 0.789348 0.405192 0.461247
vn 0.789348 0.405192 0.461247
vn 0.794099 0.405206 -0.453007
vn 0.794099 0.405206 -0.453007
vn 0.794099 0.405206 -0.453007
vn 0.004837 0.405181 -0.914224
vn 0.004837 0.405181 -0.914224
vn 0.004837 0.405181 -0.914224
vn -0.789424 0.405214 -0.461098
vn -0.789424 0.405214 -0.461098
vn -0.789424 0.405214 -0.461098
vn -0.794126 0.405187 0.452977
vn -0.794126 0.405186 0.452977
vn -0.794126 0.405187 0.452977
vn 0.000000 0.000000 0.000000
vn 0.000000 0.000000 0.000000
vn 0.000000 0.000000 0.000000
vn -0.000000 -1.000000 -0.000001
vn -0.000000 -1.000000 -0.000001
vn -0.000000 -1.000000 -0.000001
vn -0.000000 -1.000000 -0.000001
vn 0.000001 -1.000000 -0.000002
vn 0.000001 -1.000000 -0.000002
vn 0.000001 -1.000000 -0.000002
vn 0.000001 -1.000000 -0.000002
vn 0.000000 -1.000000 -0.000003
vn 0.000000 -1.000000 -0.000003
vn 0.000000 -1.000000 -0.000003
vn 0.000000 -1.000000 -0.000003
vn 0.000000 -1.000000 0.000000
vn 0.000000 -1.000000 0.000000
vn 0.000000 -1.000000 0.000000
vn 0.000003 -1.000000 -0.000002
vn 0.000003 -1.000000 -0.000002
vn 0.000003 -1.000000 -0.000002
vn -0.000000 -1.000000 -0.000004
vn -0.000000 -1.000000 -0.000004
vn -0.000000 -1.000000 -0.000004
vn -0.005193 -0.000006 0.999987
vn -0.005194 -0.000001 0.999987
vn -0.005194 -0.000001 0.999987
vn -0.005194 -0.000001 0.999987
vn -0.005193 -0.000003 0.999987
vn -0.005194 -0.000001 0.999987
vn -0.005194 0.000003 0.999987
vn -0.005194 0.000001 0.999987
vn -0.005194 0.000001 0.999987
vn -0.005194 0.000001 0.999987
vn -0.005194 0.000001 0.999987
vn -0.005194 0.000003 0.999987
vn -0.005194 0.000004 0.999987
vn -0.005089 0.000183 0.999987
vn -0.005089 0.000183 0.999987
vn -0.005089 0.000183 0.999987
vn -0.005197 -0.000000 0.999987
vn -0.005247 0.000000 0.999986
vn -0.005247 0.000000 0.999986
vn -0.005247 0.000000 0.999986
vn -0.005247 0.000000 0.999986
vn -0.005089 -0.000183 0.999987
vn -0.005089 -0.000183 0.999987
vn -0.005197 -0.000000 0.999987
vn -0.005089 -0.000183 0.999987
vn -0.004828 -0.000001 0.999988
vn -0.004828 -0.000001 0.999988
vn -0.005197 -0.000000 0.999986
vn -0.005197 -0.000000 0.999987
vn -0.005092 0.000183 0.999987
vn -0.005092 0.000183 0.999987
vn -0.005092 0.000183 0.999987
vn -0.005197 -0.000000 0.999986
vn -0.005250 -0.000000 0.999986
vn -0.005250 -0.000000 0.999986
vn -0.005250 -0.000000 0.999986
vn -0.005250 -0.000000 0.999986
vn -0.005091 -0.000183 0.999987
vn -0.005091 -0.000183 0.999987
vn -0.005197 -0.000000 0.999986
vn -0.005091 -0.000183 0.999987
vn -0.004827 0.000001 0.999988
vn -0.004827 0.000001 0.999988
vn -0.005197 -0.000000 0.999987
vn -0.005197 -0.000000 0.999986
s off
f 10/1/1 11/2/2 25/3/3 26/4/4
f 11/2/5 12/5/6 30/6/7 25/3/8
f 12/5/9 7/7/10 29/8/11 30/6/12
f 7/7/13 8/9/14 28/10/15 29/8/16
f 8/9/17 9/11/18 27/12/19 28/10/20
f 9/11/21 10/13/22 26/14/23 27/12/24
f 13/15/25 14/16/26 8/9/27 7/7/28
f 14/16/29 15/17/30 9/11/31 8/9/32
f 15/17/33 16/18/34 10/13/35 9/11/36
f 16/19/37 17/20/38 11/2/39 10/1/40
f 17/20/41 18/21/42 12/5/43 11/2/44
f 18/21/45 13/15/46 7/7/47 12/5/48
f 93/179/49 94/180/50 95/181/51 96/182/52 97/183/53 98/184/54 99/185/55 100/186/56
f 47/26/57 48/27/58 40/28/59 32/29/60
f 40/28/61 49/30/62 50/31/63 32/29/64
f 41/32/65 42/33/66 36/34/67 31/35/68
f 42/33/69 45/36/70 46/37/71 36/34/72
f 43/38/73 44/39/74 38/40/75 34/41/76
f 4/42/77 5/43/78 20/44/79 19/45/80
f 5/43/81 6/46/82 21/47/83 20/44/84
f 6/46/85 1/48/86 22/49/87 21/47/88
f 1/50/89 2/51/90 23/52/91 22/53/92
f 2/51/93 3/54/94 24/55/95 23/52/96
f 3/54/97 4/42/98 19/45/99 24/55/100
f 32/29/101 50/31/102 15/17/103
f 15/17/104 47/26/105 32/29/106
f 34/56/107 33/57/108 14/16/109 13/15/110
f 18/21/111 43/58/112 34/56/113 13/15/114
f 36/59/115 46/60/116 18/21/117 17/20/118
f 31/61/119 36/59/120 17/20/121 16/19/122
f 24/55/123 19/45/124 38/62/125 44/63/126
f 19/45/127 20/44/128 39/64/129 38/62/130
f 48/27/131 21/47/132 40/28/133
f 21/47/134 49/30/135 40/28/136
f 22/53/137 23/52/138 42/65/139 41/66/140
f 23/52/141 24/55/142 45/67/143 42/65/144
f 35/68/145 43/58/146 18/21/147
f 37/69/148 44/63/149 43/58/150 35/68/151
f 24/55/152 44/63/153 37/69/154
f 45/67/155 24/55/156 37/69/157
f 46/60/158 45/67/159 37/69/160 35/68/161
f 18/21/162 46/60/163 35/68/164
f 33/57/165 47/26/166 15/17/167 14/16/168
f 39/70/169 48/71/170 47/72/171 33/73/172
f 20/44/173 21/47/174 48/27/175 39/64/176
f 21/47/177 22/49/178 41/74/179 49/30/180
f 50/75/181 49/76/182 41/32/183 31/35/184
f 15/17/185 50/31/186 31/77/187 16/18/188
f 38/40/189 91/168/190 51/79/191
f 39/70/192 33/73/193 53/80/194 52/78/195
f 33/73/196 34/41/197 90/166/198 89/164/199
f 34/41/200 38/40/201 51/79/202 54/81/203
f 26/120/204 25/114/205 55/117/206 56/121/207
f 25/114/208 30/115/209 57/116/210 55/117/211
f 30/115/212 29/118/213 58/119/214 57/116/215
f 29/118/216 28/122/217 59/123/218 58/119/219
f 28/122/220 27/124/221 60/125/222 59/123/223
f 27/124/224 26/120/225 56/121/226 60/125/227
f 56/138/228 55/139/229 61/140/230 62/141/231
f 55/86/232 57/82/233 63/85/234 61/87/235
f 57/82/236 58/83/237 64/84/238 63/85/239
f 58/142/240 59/143/241 65/144/242 64/145/243
f 59/92/244 60/88/245 66/91/246 65/93/247
f 60/88/248 56/89/249 62/90/250 66/91/251
f 62/132/252 61/126/253 67/129/254 68/133/255
f 61/126/256 63/127/257 69/128/258 67/129/259
f 63/127/260 64/130/261 70/131/262 69/128/263
f 64/130/264 65/134/265 71/135/266 70/131/267
f 65/134/268 66/136/269 72/137/270 71/135/271
f 66/136/272 62/132/273 68/133/274 72/137/275
f 68/146/276 67/147/277 73/148/278 74/149/279
f 67/94/280 69/95/281 75/96/282 73/97/283
f 69/95/284 70/98/285 76/99/286 75/96/287
f 70/153/288 71/154/289 77/155/290 76/156/291
f 71/104/292 72/105/293 78/106/294 77/107/295
f 72/105/296 68/108/297 74/109/298 78/106/299
f 74/149/300 73/148/301 79/150/302 80/151/303
f 73/97/304 75/96/305 81/100/306 79/101/307
f 75/96/308 76/99/309 82/102/310 81/100/311
f 76/156/312 77/155/313 83/157/314 82/158/315
f 77/107/316 78/106/317 84/110/318 83/111/319
f 78/106/320 74/109/321 80/112/322 84/110/323
f 80/151/324 79/150/325 85/152/326
f 79/101/327 81/100/328 85/103/329
f 81/100/330 82/102/331 85/103/332
f 82/158/333 83/157/334 85/159/335
f 83/111/336 84/110/337 85/113/338
f 84/110/339 80/112/340 85/113/341
f 86/160/342 87/161/343 88/162/344
f 3/54/345 2/51/346 87/161/347 86/160/348
f 2/51/349 1/48/350 88/162/351 87/161/352
f 1/48/353 6/46/354 86/160/355 88/162/356
f 6/46/357 5/43/358 86/160/359
f 5/43/360 4/42/361 86/160/362
f 4/42/363 3/54/364 86/160/365
f 90/166/366 34/41/367 54/81/368
f 33/73/369 89/164/370 53/80/371
f 92/170/372 39/70/373 52/78/374
f 38/40/375 39/70/376 92/170/377 91/168/378
f 51/22/379 91/23/380 94/24/381 93/25/382
f 91/23/383 92/163/384 95/165/385 94/24/386
f 92/163/387 52/167/388 96/169/389 95/165/390
f 52/167/391 53/171/392 97/172/393 96/169/394
f 53/171/395 89/173/396 98/174/397 97/172/398
f 89/173/399 90/175/400 99/176/401 98/174/402
f 90/175/403 54/177/404 100/178/405 99/176/406
f 54/177/407 51/22/408 93/25/409 100/178/410
