# This file uses centimeters as units for non-parametric coordinates.

v -11.421727 -29.771334 0.000000
v -8.076382 -29.771334 8.076382
v 0.000000 -29.771334 11.421735
v 8.076382 -29.771334 8.076382
v 11.421728 -29.771334 0.000000
v -11.421727 29.771334 0.000000
v -8.076382 29.771334 8.076382
v 0.000000 29.771334 11.421735
v 8.076382 29.771334 8.076382
v 11.421728 29.771334 0.000000
v -3.426175 29.771334 0.000000
v 0.000000 29.771334 3.426180
v 3.426176 29.771334 0.000000
v 3.426176 -29.771334 0.000000
v 0.000000 -29.771334 3.426180
v -3.426175 -29.771334 0.000000
v -2.754821 29.771334 1.991109
v 2.744661 29.771334 1.948007
v -2.826367 -29.771334 1.919561
v 2.907663 -29.771334 1.784996
v -5.850102 29.771334 0.000000
v -4.478033 29.771334 3.487376
v 0.000000 29.771334 6.047415
v 4.467590 29.771334 3.434790
v 5.850102 29.771334 0.000000
v 5.850102 -29.771334 0.000000
v 4.635126 -29.771334 3.235949
v 0.000000 -29.771334 6.047415
v -4.551569 -29.771334 3.400095
v -5.850102 -29.771334 0.000000
v -10.457279 29.771334 0.000000
v -7.434479 29.771334 7.342361
v 0.000000 29.771334 10.457291
v 7.433253 29.771334 7.337160
v 10.457282 29.771334 0.000000
v 10.457282 -29.771334 0.000000
v 7.452915 -29.771334 7.317499
v 0.000000 -29.771334 10.457291
v -7.443110 -29.771334 7.333729
v -10.457279 -29.771334 0.000000
v 6.371086 -29.771334 6.000694
v 8.783786 -29.771334 0.000000
v 8.783786 29.771334 0.000000
v 6.317308 29.771334 6.054474
v 0.000000 29.771334 8.783792
v -6.320660 29.771334 6.068692
v -8.783786 29.771334 0.000000
v -8.783786 -29.771334 0.000000
v -6.344265 -29.771334 6.045090
v 0.000000 -29.771334 8.783792
vt 0.014933 0.274771
vt 0.014933 0.274771
vt 0.014933 0.274771
vt 0.014933 0.274771
vt 0.014933 0.274771
vt 0.014933 0.274771
vt 0.014933 0.274771
vt 0.014933 0.274771
vt 0.014933 0.274771
vt 0.014933 0.274771
vt 0.014933 0.274771
vt 0.014933 0.274771
vt 0.014933 0.274771
vt 0.014933 0.274771
vt 0.014933 0.274771
vt 0.014933 0.274771
vt 0.014933 0.274771
vt 0.014933 0.274771
vt 0.016128 0.376915
vt 0.014933 0.274771
vt 0.016128 0.376915
vt 0.014933 0.274771
vt 0.016128 0.376915
vt 0.016128 0.376915
vt 0.016128 0.376915
vt 0.016128 0.376915
vt 0.016128 0.376915
vt 0.016128 0.376915
vt 0.016128 0.376915
vt 0.016128 0.376915
vt 0.016128 0.376915
vt 0.016128 0.376915
vt 0.016128 0.376915
vt 0.016128 0.376915
vt 0.016128 0.376915
vt 0.016128 0.376915
vt 0.016128 0.376915
vt 0.016128 0.376915
vt 0.016128 0.376915
vt 0.016128 0.376915
vt 0.016128 0.354216
vt 0.016128 0.354216
vt 0.016128 0.376915
vt 0.016128 0.376915
vt 0.016128 0.376915
vt 0.016128 0.354216
vt 0.016128 0.354216
vt 0.016128 0.376915
vt 0.016128 0.376915
vt 0.016128 0.354216
vt 0.016128 0.376915
vt 0.016128 0.354216
vt 0.016128 0.354216
vt 0.016128 0.376915
vt 0.016128 0.376915
vt 0.016128 0.354216
vt 0.016128 0.354216
vt 0.016128 0.376915
vt 0.016128 0.376915
vt 0.016128 0.354216
vt 0.016128 0.354216
vt 0.016128 0.354216
vt 0.016128 0.354216
vt 0.016128 0.354216
vt 0.016128 0.354216
vt 0.016128 0.354216
vt 0.016128 0.354216
vt 0.016128 0.354216
vt 0.016128 0.354216
vt 0.016128 0.354216
vt 0.016128 0.354216
vt 0.016128 0.354216
vt 0.016128 0.354216
vt 0.016128 0.354216
vt 0.016128 0.354216
vt 0.016128 0.354216
vt 0.016128 0.354216
vt 0.016128 0.354216
vt 0.016128 0.354216
vt 0.016128 0.354216
vt 0.016128 0.354216
vt 0.016128 0.354216
vt 0.016128 0.354216
vt 0.016128 0.354216
vt 0.016128 0.354216
vt 0.016128 0.354216
vt 0.016128 0.354216
vt 0.016128 0.354216
vt 0.016128 0.354216
vt 0.016128 0.354216
vn -0.923880 0.000000 0.382683
vn -0.923880 0.000000 0.382683
vn -0.923880 0.000000 0.382683
vn -0.923880 0.000000 0.382683
vn -0.382684 0.000000 0.923879
vn -0.382684 0.000000 0.923879
vn -0.382684 0.000000 0.923879
vn -0.382684 0.000000 0.923879
vn 0.382684 0.000000 0.923879
vn 0.382684 0.000000 0.923879
vn 0.382684 0.000000 0.923879
vn 0.382684 0.000000 0.923879
vn 0.923880 0.000000 0.382683
vn 0.923880 0.000000 0.382683
vn 0.923880 0.000000 0.382683
vn 0.923880 0.000000 0.382683
vn 0.000000 0.000000 -1.000000
vn 0.000000 0.000000 -1.000000
vn 0.000000 0.000000 -1.000000
vn 0.000000 0.000000 -1.000000
vn 0.000000 0.000000 -1.000000
vn 0.000000 0.000000 -1.000000
vn 0.000000 0.000000 -1.000000
vn 0.000000 0.000000 -1.000000
vn 0.000000 1.000000 0.000000
vn 0.000000 1.000000 -0.000000
vn 0.000000 1.000000 0.000000
vn 0.000000 1.000000 0.000000
vn 0.000000 1.000000 -0.000000
vn 0.000000 1.000000 0.000000
vn 0.000000 1.000000 -0.000000
vn 0.000000 1.000000 -0.000000
vn 0.000000 -1.000000 -0.000000
vn 0.000000 -1.000000 -0.000000
vn 0.000000 -1.000000 -0.000000
vn 0.000000 -1.000000 -0.000001
vn 0.000000 -1.000000 0.000000
vn 0.000000 -1.000000 0.000000
vn 0.000000 -1.000000 0.000000
vn 0.000000 -1.000000 0.000000
vn 0.000000 0.000000 -1.000000
vn 0.000000 0.000000 -1.000000
vn 0.000000 0.000000 -1.000000
vn 0.000000 0.000000 -1.000000
vn 0.000000 1.000000 0.000000
vn 0.000000 1.000000 0.000000
vn 0.000000 1.000000 -0.000000
vn 0.000000 1.000000 -0.000000
vn 0.000000 1.000000 0.000000
vn 0.000000 -1.000000 0.000000
vn 0.000000 -1.000000 -0.000000
vn 0.000000 -1.000000 -0.000000
vn 0.000000 -1.000000 0.000000
vn 0.000000 -1.000000 0.000000
vn 0.000000 1.000000 -0.000000
vn 0.000000 1.000000 0.000000
vn 0.000000 1.000000 -0.000000
vn 0.000000 1.000000 -0.000000
vn 0.000000 1.000000 0.000000
vn 0.000000 1.000000 -0.000000
vn 0.000000 1.000000 0.000000
vn 0.000000 1.000000 0.000000
vn 0.000000 -1.000000 0.000001
vn 0.000000 -1.000000 0.000000
vn 0.000000 -1.000000 0.000000
vn 0.000000 -1.000000 -0.000000
vn 0.000000 -1.000000 0.000000
vn 0.000000 -1.000000 -0.000000
vn 0.000000 -1.000000 -0.000000
vn 0.000000 -1.000000 0.000000
vn 0.000000 1.000000 -0.000000
vn 0.000000 1.000000 0.000000
vn 0.000000 1.000000 0.000000
vn 0.000000 1.000000 -0.000000
vn 0.000000 1.000000 -0.000000
vn 0.000000 1.000000 -0.000000
vn 0.000000 1.000000 -0.000000
vn 0.000000 1.000000 -0.000000
vn 0.000000 1.000000 0.000000
vn 0.000000 1.000000 -0.000000
vn 0.000000 1.000000 0.000000
vn 0.000000 1.000000 0.000000
vn 0.000000 1.000000 0.000000
vn 0.000000 1.000000 0.000000
vn 0.000000 1.000000 0.000000
vn 0.000000 1.000000 0.000000
vn 0.000000 0.000000 -1.000000
vn 0.000000 0.000000 -1.000000
vn 0.000000 0.000000 -1.000000
vn 0.000000 0.000000 -1.000000
vn 0.000000 -1.000000 -0.000000
vn 0.000000 -1.000000 0.000000
vn 0.000000 -1.000000 -0.000000
vn 0.000000 -1.000000 -0.000000
vn 0.000000 -1.000000 -0.000001
vn 0.000000 -1.000000 -0.000000
vn 0.000000 -1.000000 -0.000000
vn 0.000000 -1.000000 -0.000000
vn 0.000000 -1.000000 0.000000
vn 0.000000 -1.000000 0.000001
vn 0.000000 -1.000000 0.000000
vn 0.000000 -1.000000 0.000000
vn 0.000000 -1.000000 0.000000
vn 0.000000 -1.000000 0.000000
vn 0.000000 -1.000000 0.000000
vn 0.000000 -1.000000 -0.000000
vn 0.000000 0.000000 -1.000000
vn 0.000000 0.000000 -1.000000
vn 0.000000 0.000000 -1.000000
vn 0.000000 0.000000 -1.000000
vn 0.000000 1.000000 0.000000
vn 0.000000 1.000000 -0.000000
vn 0.000000 1.000000 -0.000000
vn 0.000000 1.000000 0.000000
vn 0.000000 1.000000 -0.000000
vn 0.000000 1.000000 -0.000000
vn 0.000000 1.000000 -0.000000
vn 0.000000 1.000000 -0.000000
vn 0.000000 1.000000 0.000000
vn 0.000000 1.000000 -0.000000
vn 0.000000 1.000000 0.000000
vn 0.000000 1.000000 0.000000
vn 0.000000 1.000000 0.000000
vn 0.000000 1.000000 0.000000
vn 0.000000 1.000000 -0.000000
vn 0.000000 1.000000 -0.000000
vn 0.000000 0.000000 -1.000000
vn 0.000000 0.000000 -1.000000
vn 0.000000 0.000000 -1.000000
vn 0.000000 0.000000 -1.000000
vn 0.000000 -1.000000 -0.000000
vn 0.000000 -1.000000 -0.000000
vn 0.000000 -1.000000 -0.000000
vn 0.000000 -1.000000 -0.000000
vn 0.000000 -1.000000 -0.000000
vn 0.000000 -1.000000 -0.000000
vn 0.000000 -1.000000 -0.000000
vn 0.000000 -1.000000 0.000000
vn 0.000000 -1.000000 -0.000000
vn 0.000000 -1.000000 -0.000000
vn 0.000000 -1.000000 0.000000
vn 0.000000 -1.000000 0.000000
vn 0.000000 -1.000000 -0.000000
vn 0.000000 -1.000000 0.000000
vn 0.000000 -1.000000 -0.000000
vn 0.000000 -1.000000 -0.000000
vn 0.000000 0.000000 -1.000000
vn 0.000000 0.000000 -1.000000
vn 0.000000 0.000000 -1.000000
vn 0.000000 0.000000 -1.000000
vn 0.000000 1.000000 -0.000000
vn 0.000000 1.000000 -0.000000
vn 0.000000 1.000000 0.000000
vn 0.000000 1.000000 0.000000
vn 0.000000 1.000000 -0.000000
vn 0.000000 1.000000 -0.000000
vn 0.000000 1.000000 -0.000000
vn 0.000000 1.000000 -0.000000
vn 0.000000 1.000000 0.000000
vn 0.000000 1.000000 -0.000000
vn 0.000000 1.000000 0.000000
vn 0.000000 1.000000 0.000000
vn 0.000000 1.000000 -0.000000
vn 0.000000 1.000000 -0.000000
vn 0.000000 1.000000 0.000000
vn 0.000000 1.000000 0.000000
vn 0.000000 0.000000 -1.000000
vn 0.000000 0.000000 -1.000000
vn 0.000000 0.000000 -1.000000
vn 0.000000 0.000000 -1.000000
vn 0.000000 -1.000000 0.000000
vn 0.000000 -1.000000 -0.000000
vn 0.000000 -1.000000 -0.000000
vn 0.000000 -1.000000 0.000000
vn 0.000000 -1.000000 0.000000
vn 0.000000 -1.000000 -0.000000
vn 0.000000 -1.000000 0.000000
vn 0.000000 -1.000000 0.000000
vn 0.000000 -1.000000 0.000000
vn 0.000000 -1.000000 -0.000000
vn 0.000000 -1.000000 -0.000000
vn 0.000000 -1.000000 0.000000
vn 0.000000 -1.000000 -0.000000
vn 0.000000 -1.000000 -0.000000
vn 0.000000 -1.000000 0.000000
vn 0.000000 -1.000000 0.000001
vn 0.000000 0.000000 -1.000000
vn 0.000000 0.000000 -1.000000
vn 0.000000 0.000000 -1.000000
vn 0.000000 0.000000 -1.000000
s off
f 1/1/1 2/2/2 7/3/3 6/4/4
f 2/2/5 3/5/6 8/6/7 7/3/8
f 3/5/9 4/7/10 9/8/11 8/6/12
f 4/7/13 5/9/14 10/10/15 9/8/16
f 11/41/17 16/42/18 30/46/19 21/47/20
f 14/50/21 13/52/22 25/53/23 26/56/24
f 21/47/25 22/57/26 17/60/27 11/41/28
f 23/61/29 24/62/30 18/63/31 12/64/32
f 15/65/33 20/66/34 27/67/35 28/68/36
f 16/42/37 19/69/38 29/70/39 30/46/40
f 11/19/41 13/26/42 14/25/43 16/21/44
f 11/19/45 17/30/46 12/34/47 18/33/48 13/26/49
f 14/25/50 20/36/51 15/35/52 19/39/53 16/21/54
f 12/64/55 17/60/56 22/57/57 23/61/58
f 13/52/59 18/63/60 24/62/61 25/53/62
f 28/68/63 29/70/64 19/69/65 15/65/66
f 26/56/67 27/67/68 20/66/69 14/50/70
f 22/29/71 21/24/72 47/44/73 46/43/74
f 23/31/75 22/29/76 46/43/77 45/45/78
f 24/32/79 23/31/80 45/45/81 44/48/82
f 25/27/83 24/32/84 44/48/85 43/49/86
f 26/28/87 25/27/88 43/49/89 42/51/90
f 27/37/91 26/28/92 42/51/93 41/54/94
f 28/38/95 27/37/96 41/54/97 50/55/98
f 29/40/99 28/38/100 50/55/101 49/58/102
f 30/23/103 29/40/104 49/58/105 48/59/106
f 21/24/107 30/23/108 48/59/109 47/44/110
f 31/71/111 32/72/112 46/73/113 47/74/114
f 45/75/115 46/73/116 32/72/117 33/76/118
f 33/76/119 34/77/120 44/78/121 45/75/122
f 43/79/123 44/78/124 34/77/125 35/80/126
f 42/81/127 43/79/128 35/80/129 36/82/130
f 36/82/131 37/83/132 41/84/133 42/81/134
f 50/85/135 41/84/136 37/83/137 38/86/138
f 38/86/139 39/87/140 49/88/141 50/85/142
f 48/89/143 49/88/144 39/87/145 40/90/146
f 47/74/147 48/89/148 40/90/149 31/71/150
f 7/3/151 32/11/152 31/12/153 6/4/154
f 33/13/155 32/11/156 7/3/157 8/6/158
f 9/8/159 34/14/160 33/13/161 8/6/162
f 35/15/163 34/14/164 9/8/165 10/10/166
f 36/16/167 35/15/168 10/10/169 5/9/170
f 4/7/171 37/17/172 36/16/173 5/9/174
f 38/18/175 37/17/176 4/7/177 3/5/178
f 2/2/179 39/20/180 38/18/181 3/5/182
f 40/22/183 39/20/184 2/2/185 1/1/186
f 31/12/187 40/22/188 1/1/189 6/4/190
