# This file uses centimeters as units for non-parametric coordinates.

v -5.886909 -14.986835 4.546326
v -6.867340 -14.986835 -2.812897
v -0.984291 -14.986835 -7.341599
v 5.879219 -14.986835 -4.511047
v 6.741257 -14.986835 1.959503
v 0.858177 -14.986835 6.488190
v -5.886909 5.417179 4.546326
v -6.867340 5.417179 -2.812897
v -0.984291 5.417179 -7.341599
v 5.879219 5.417179 -4.511047
v 6.374474 5.417179 2.776276
v 0.795593 5.417179 6.018417
v -4.510185 -14.986835 3.486542
v -5.261185 -14.986835 -2.150497
v -0.754852 -14.986835 -5.619415
v 4.502480 -14.986835 -3.451263
v 5.253479 -14.986835 2.185791
v 0.747139 -14.986835 5.654694
v -4.510185 5.417179 3.486542
v -5.261185 5.417179 -2.150497
v -0.754852 5.417179 -5.619415
v 4.502480 5.417179 -3.451263
v 4.768288 5.417179 2.113876
v 0.566154 5.417179 4.296234
v -4.231163 -14.105929 3.271759
v -4.935669 -14.105929 -2.016251
v -0.003853 -14.105929 0.017639
v -0.708351 -14.105929 -5.270386
v 4.223473 -14.105929 -3.236481
v 4.927963 -14.105929 2.051544
v 0.700638 -14.105929 5.305664
v -4.231163 4.536274 3.271759
v -4.935669 4.536274 -2.016251
v -0.708351 4.536274 -5.270386
v 4.223473 4.536274 -3.236481
v 4.442780 4.536274 1.979630
v 0.519661 4.536274 3.947205
v 0.864433 1.303585 5.609467
v 6.216187 1.690563 1.588150
v 5.897766 1.449850 -3.730606
v -0.916161 1.449850 -6.189117
v -6.821884 1.690563 -2.471710
v -5.843071 1.303585 3.949783
v -4.297440 -3.770197 -3.145721
v 1.485931 -5.549223 -5.195709
v 5.651077 -9.785254 -2.208710
v 4.153709 -11.170423 1.985260
v -1.401215 -8.722606 4.031265
v -5.687225 -5.558416 1.887283
v -0.084702 -4.388236 0.005661
v -4.186783 10.836731 -5.853546
v -9.956581 11.363094 -2.093430
v -6.574989 5.577383 -2.406494
v -0.579414 5.190668 -5.813843
v 1.054016 9.797718 -10.442291
v -4.048500 13.952557 -11.558197
v -9.108955 15.059244 -7.501160
v -9.525032 11.817816 -1.494904
v -6.144875 5.689732 -1.662430
v -0.149284 5.303011 -5.069763
v 1.485565 10.252453 -9.843750
v -3.748611 14.667421 -11.170517
v -8.809074 15.774092 -7.113464
v -3.798897 11.232487 -5.178726
vt 0.080360 0.228277
vt 0.080360 0.228277
vt 0.080360 0.228277
vt 0.080360 0.228277
vt 0.080360 0.228277
vt 0.080360 0.228277
vt 0.080360 0.228277
vt 0.906851 0.046097
vt 0.907340 0.038700
vt 0.916824 0.039224
vt 0.913869 0.048520
vt 0.906837 0.033651
vt 0.917679 0.033651
vt 0.917679 0.061293
vt 0.906837 0.061293
vt 0.927324 0.055806
vt 0.918058 0.056132
vt 0.921842 0.048735
vt 0.930609 0.046324
vt 0.927447 0.061181
vt 0.918058 0.061181
vt 0.918058 0.033539
vt 0.927447 0.033539
vt 0.936713 0.055806
vt 0.936062 0.040586
vt 0.936837 0.061181
vt 0.936837 0.033539
vt 0.946187 0.056247
vt 0.938427 0.055921
vt 0.940582 0.040700
vt 0.946364 0.038824
vt 0.947938 0.061295
vt 0.937293 0.061295
vt 0.937293 0.033653
vt 0.946826 0.033653
vt 0.957602 0.055722
vt 0.949079 0.056247
vt 0.952141 0.038824
vt 0.960577 0.042140
vt 0.957780 0.061295
vt 0.949079 0.061295
vt 0.948391 0.033653
vt 0.957780 0.033653
vt 0.966991 0.055722
vt 0.966368 0.046426
vt 0.967169 0.061295
vt 0.967169 0.033653
vt 0.948637 0.092795
vt 0.948637 0.085568
vt 0.955384 0.089181
vt 0.955384 0.081954
vt 0.955384 0.096409
vt 0.962131 0.085568
vt 0.962131 0.092795
vt 0.939020 0.075415
vt 0.939020 0.065358
vt 0.941217 0.066534
vt 0.941217 0.074239
vt 0.948409 0.061543
vt 0.948409 0.062682
vt 0.948409 0.080444
vt 0.948409 0.078091
vt 0.957799 0.066572
vt 0.955601 0.066534
vt 0.957799 0.075415
vt 0.955601 0.074239
vt 0.927466 0.064592
vt 0.927466 0.074650
vt 0.925268 0.073473
vt 0.925268 0.065769
vt 0.918076 0.079679
vt 0.918076 0.077326
vt 0.918076 0.061420
vt 0.918076 0.063774
vt 0.908687 0.074650
vt 0.910884 0.073473
vt 0.909375 0.064776
vt 0.911573 0.065953
vt 0.963557 0.086831
vt 0.963557 0.079127
vt 0.964844 0.079365
vt 0.964844 0.086592
vt 0.968366 0.077260
vt 0.968366 0.070588
vt 0.969652 0.071001
vt 0.969652 0.077260
vt 0.968366 0.083932
vt 0.969652 0.083518
vt 0.909727 0.078005
vt 0.909727 0.085710
vt 0.908440 0.085471
vt 0.908440 0.078244
vt 0.966763 0.080577
vt 0.966763 0.073905
vt 0.968050 0.074318
vt 0.968050 0.080577
vt 0.966763 0.087249
vt 0.968050 0.086836
vt 0.911330 0.079838
vt 0.911330 0.087542
vt 0.910043 0.087304
vt 0.910043 0.080077
vt 0.908124 0.076332
vt 0.908124 0.083004
vt 0.906837 0.083004
vt 0.906837 0.076745
vt 0.908124 0.089676
vt 0.906837 0.089263
vt 0.929032 0.090511
vt 0.929032 0.082990
vt 0.930318 0.083229
vt 0.930318 0.090273
vt 0.966447 0.076537
vt 0.966447 0.082570
vt 0.965160 0.082570
vt 0.965160 0.076950
vt 0.966447 0.089242
vt 0.965160 0.088829
vt 0.936813 0.077885
vt 0.928364 0.073288
vt 0.936044 0.069464
vt 0.927799 0.064627
vt 0.934527 0.061605
vt 0.959745 0.083894
vt 0.957145 0.077242
vt 0.965376 0.076036
vt 0.962042 0.069721
vt 0.969707 0.067615
vt 0.937019 0.094974
vt 0.936820 0.087135
vt 0.937769 0.086519
vt 0.938179 0.094821
vt 0.929155 0.082128
vt 0.929774 0.081160
vt 0.914852 0.090824
vt 0.918628 0.082164
vt 0.919788 0.082608
vt 0.916012 0.091269
vt 0.925032 0.093654
vt 0.918305 0.087731
vt 0.918468 0.086654
vt 0.925696 0.092773
vt 0.912905 0.081031
vt 0.906837 0.074379
vt 0.907501 0.073907
vt 0.913949 0.080698
vt 0.914521 0.088553
vt 0.915565 0.088219
vt 0.920595 0.078912
vt 0.929545 0.074343
vt 0.928690 0.082692
vt 0.920031 0.087573
vt 0.927259 0.090622
vt 0.935444 0.082041
vt 0.938374 0.075250
vt 0.944107 0.083181
vt 0.940341 0.089563
vt 0.948336 0.091529
vn -0.998951 -0.019747 -0.041319
vn -0.998904 0.034611 -0.031513
vn -0.993254 -0.112490 0.028136
vn -0.992831 -0.117430 0.022308
vn -0.504621 -0.189137 -0.842369
vn -0.467496 0.090854 -0.879314
vn -0.469906 0.010491 -0.882654
vn -0.515699 -0.185045 -0.836548
vn 0.397320 -0.125023 -0.909124
vn 0.487970 0.102474 -0.866824
vn 0.451797 0.002964 -0.892116
vn 0.391200 -0.138173 -0.909874
vn 0.996764 -0.061598 0.051645
vn 0.992894 0.053094 0.106500
vn 0.994019 0.013293 0.108391
vn 0.996545 -0.062725 0.054448
vn 0.484653 -0.142816 0.862969
vn 0.488438 -0.012445 0.872510
vn 0.510157 0.136297 0.849213
vn 0.487237 -0.144002 0.861315
vn -0.316344 -0.142453 0.937888
vn -0.341962 -0.036812 0.938992
vn -0.307549 0.118379 0.944140
vn -0.309281 -0.140816 0.940487
vn 0.000000 -1.000000 -0.000000
vn 0.000000 -1.000000 -0.000000
vn 0.000000 -1.000000 -0.000000
vn 0.000000 -1.000000 -0.000000
vn 0.000000 -1.000000 -0.000000
vn 0.000000 -1.000000 -0.000000
vn 0.000000 -1.000000 -0.000000
vn 0.000000 -1.000000 -0.000000
vn 0.000000 -1.000000 -0.000000
vn 0.000000 -1.000000 -0.000000
vn 0.000000 -1.000000 -0.000000
vn 0.000000 -1.000000 -0.000000
vn 0.000000 -1.000000 -0.000000
vn 0.000000 -1.000000 -0.000000
vn 0.000000 -1.000000 -0.000000
vn 0.000000 -1.000000 -0.000000
vn 0.000000 -1.000000 -0.000000
vn 0.000000 -1.000000 -0.000000
vn 0.000000 -1.000000 -0.000000
vn 0.000000 -1.000000 -0.000000
vn 0.000000 -1.000000 -0.000000
vn 0.000000 -1.000000 -0.000000
vn 0.000000 -1.000000 0.000000
vn 0.000000 -1.000000 0.000000
vn 0.000000 -1.000000 0.000000
vn 0.000000 -1.000000 0.000000
vn 0.000000 -1.000000 0.000000
vn 0.000000 -1.000000 0.000000
vn 0.000000 -1.000000 0.000000
vn 0.000000 -1.000000 0.000000
vn 0.000000 -1.000000 0.000000
vn 0.000000 -1.000000 0.000000
vn 0.000000 -1.000000 0.000000
vn 0.000000 -1.000000 0.000000
vn 0.000000 -1.000000 0.000000
vn 0.000000 -1.000000 0.000000
vn 0.000000 -1.000000 0.000000
vn 0.000000 -1.000000 0.000000
vn 0.000000 -1.000000 -0.000001
vn 0.000000 -1.000000 -0.000001
vn 0.000000 -1.000000 -0.000001
vn 0.000000 -1.000000 -0.000001
vn 0.000000 1.000000 -0.000000
vn 0.000000 1.000000 -0.000000
vn 0.000000 1.000000 -0.000000
vn 0.000000 1.000000 -0.000000
vn 0.000000 1.000000 -0.000000
vn 0.000000 1.000000 -0.000000
vn 0.000000 1.000000 -0.000000
vn 0.000000 1.000000 -0.000000
vn 0.000000 1.000000 0.000000
vn 0.000000 1.000000 0.000000
vn 0.000000 1.000000 0.000000
vn 0.000000 1.000000 0.000000
vn 0.000000 1.000000 0.000000
vn 0.000000 1.000000 0.000000
vn 0.000000 1.000000 0.000000
vn 0.000000 1.000000 0.000000
vn 0.000000 1.000000 0.000000
vn 0.000000 1.000000 0.000000
vn 0.000000 1.000000 0.000000
vn 0.000000 1.000000 0.000000
vn 0.000000 1.000000 0.000000
vn 0.000000 1.000000 0.000000
vn 0.000000 1.000000 0.000000
vn 0.000000 1.000000 0.000000
vn 0.936706 -0.327120 -0.124794
vn 0.936706 -0.327120 -0.124794
vn 0.936706 -0.327120 -0.124794
vn 0.936706 -0.327120 -0.124794
vn 0.576428 -0.327121 0.748814
vn 0.576428 -0.327121 0.748814
vn 0.576428 -0.327121 0.748814
vn 0.576428 -0.327121 0.748814
vn -0.360280 -0.327117 0.873609
vn -0.360280 -0.327117 0.873609
vn -0.360280 -0.327117 0.873609
vn -0.360280 -0.327117 0.873609
vn -0.936709 -0.327113 0.124793
vn -0.936709 -0.327113 0.124793
vn -0.936709 -0.327113 0.124793
vn -0.936709 -0.327113 0.124793
vn -0.576426 -0.327121 -0.748816
vn -0.576426 -0.327121 -0.748816
vn -0.576426 -0.327121 -0.748816
vn -0.576426 -0.327121 -0.748816
vn 0.360281 -0.327120 -0.873608
vn 0.360281 -0.327120 -0.873608
vn 0.360281 -0.327120 -0.873608
vn 0.360281 -0.327120 -0.873608
vn 0.936706 0.327121 -0.124794
vn 0.936706 0.327121 -0.124794
vn 0.936706 0.327121 -0.124794
vn 0.936706 0.327121 -0.124794
vn 0.576428 0.327121 0.748814
vn 0.576428 0.327121 0.748814
vn 0.576428 0.327121 0.748814
vn 0.576428 0.327121 0.748814
vn -0.360281 0.327117 0.873609
vn -0.360281 0.327117 0.873609
vn -0.360281 0.327117 0.873609
vn -0.360281 0.327117 0.873609
vn -0.944417 0.325992 0.042495
vn -0.944417 0.325992 0.042495
vn -0.944417 0.325992 0.042495
vn -0.944417 0.325992 0.042495
vn -0.430599 0.322182 -0.843080
vn -0.430599 0.322182 -0.843080
vn -0.430599 0.322182 -0.843080
vn -0.430599 0.322182 -0.843080
vn 0.141641 0.318628 -0.937238
vn 0.141641 0.318628 -0.937238
vn 0.141641 0.318628 -0.937238
vn 0.141641 0.318628 -0.937238
vn 0.487237 -0.144002 0.861315
vn 0.549364 -0.172799 0.817520
vn 0.549364 -0.172799 0.817520
vn 0.484653 -0.142816 0.862969
vn 0.996545 -0.062725 0.054448
vn 0.997833 -0.014725 -0.064125
vn 0.997833 -0.014725 -0.064125
vn 0.996764 -0.061598 0.051645
vn 0.391200 -0.138173 -0.909874
vn 0.352005 -0.217904 -0.910280
vn 0.352005 -0.217904 -0.910280
vn 0.397320 -0.125023 -0.909124
vn -0.515699 -0.185045 -0.836548
vn -0.567587 -0.164972 -0.806616
vn -0.567587 -0.164972 -0.806616
vn -0.504621 -0.189137 -0.842369
vn -0.993254 -0.112490 0.028136
vn -0.989982 -0.015845 0.140304
vn -0.989982 -0.015845 0.140304
vn -0.992831 -0.117430 0.022308
vn -0.309281 -0.140816 0.940487
vn -0.226063 -0.121223 0.966540
vn -0.226063 -0.121223 0.966540
vn -0.316344 -0.142453 0.937888
vn -0.460416 0.188499 -0.867459
vn -0.469906 0.010491 -0.882654
vn -0.467496 0.090854 -0.879314
vn -0.460416 0.188499 -0.867459
vn 0.511551 0.177135 -0.840796
vn 0.451797 0.002964 -0.892116
vn 0.487970 0.102474 -0.866824
vn 0.511551 0.177135 -0.840796
vn 0.957001 0.274869 0.092714
vn 0.994019 0.013293 0.108391
vn 0.992894 0.053094 0.106500
vn 0.957001 0.274869 0.092714
vn 0.517536 0.427588 0.741164
vn 0.510157 0.136297 0.849213
vn 0.488438 -0.012445 0.872510
vn 0.517536 0.427588 0.741164
vn -0.266461 0.266957 0.926139
vn -0.307549 0.118379 0.944140
vn -0.341962 -0.036812 0.938992
vn -0.266461 0.266957 0.926138
vn -0.991289 0.130977 -0.013845
vn -0.998904 0.034611 -0.031513
vn -0.998951 -0.019747 -0.041319
vn -0.991289 0.130977 -0.013845
vn 0.883435 0.453531 -0.117697
vn 0.883435 0.453531 -0.117697
vn 0.883435 0.453531 -0.117697
vn 0.543159 0.455095 0.705597
vn 0.543159 0.455095 0.705597
vn 0.543159 0.455095 0.705597
vn -0.338271 0.461277 0.820242
vn -0.338271 0.461277 0.820242
vn -0.338271 0.461277 0.820242
vn -0.894506 0.445472 0.037609
vn -0.894506 0.445472 0.037609
vn -0.894506 0.445472 0.037609
vn -0.412572 0.391253 -0.822621
vn -0.412572 0.391253 -0.822621
vn -0.412572 0.391253 -0.822621
vn 0.129418 0.393261 -0.910273
vn 0.129418 0.393261 -0.910273
vn 0.129417 0.393261 -0.910273
vn -0.542498 -0.274108 -0.794078
vn -0.542498 -0.274108 -0.794078
vn -0.542498 -0.274108 -0.794078
vn -0.484204 -0.315107 -0.816244
vn -0.484204 -0.315107 -0.816244
vn -0.484204 -0.315107 -0.816244
vn -0.644301 -0.416167 -0.641624
vn -0.644301 -0.416167 -0.641624
vn -0.644301 -0.416167 -0.641624
vn -0.515933 -0.746475 -0.420224
vn -0.515933 -0.746475 -0.420224
vn -0.515933 -0.746475 -0.420224
vn -0.504057 -0.752779 -0.423380
vn -0.504057 -0.752779 -0.423380
vn -0.504057 -0.752779 -0.423380
vn -0.426797 -0.714056 -0.554950
vn -0.426797 -0.714056 -0.554950
vn -0.426797 -0.714056 -0.554950
vn -0.679044 -0.409960 0.608960
vn -0.679044 -0.409960 0.608960
vn -0.679044 -0.409960 0.608960
vn -0.679044 -0.409960 0.608960
vn 0.015878 -0.989982 0.140297
vn 0.015878 -0.989982 0.140297
vn 0.015878 -0.989982 0.140297
vn 0.015878 -0.989982 0.140297
vn 0.791477 -0.544276 -0.278077
vn 0.791477 -0.544276 -0.278077
vn 0.791477 -0.544276 -0.278077
vn 0.791477 -0.544276 -0.278077
vn 0.488645 0.363291 -0.793250
vn 0.488645 0.363291 -0.793250
vn 0.488645 0.363291 -0.793250
vn 0.488646 0.363291 -0.793250
vn -0.438165 0.563589 -0.700270
vn -0.438165 0.563589 -0.700270
vn -0.438165 0.563589 -0.700270
vn -0.438165 0.563589 -0.700270
vn -0.892706 0.419518 0.164563
vn -0.892706 0.419518 0.164563
vn -0.892706 0.419518 0.164563
vn -0.892706 0.419518 0.164563
vn 0.539821 0.276017 0.795241
vn 0.539821 0.276017 0.795241
vn 0.539821 0.276017 0.795241
vn 0.484425 0.313176 0.816856
vn 0.484425 0.313176 0.816856
vn 0.484425 0.313176 0.816856
vn 0.645358 0.409075 0.645112
vn 0.645359 0.409075 0.645112
vn 0.645358 0.409075 0.645112
vn 0.516315 0.741095 0.429183
vn 0.516315 0.741094 0.429183
vn 0.516315 0.741094 0.429183
vn 0.508770 0.745029 0.431375
vn 0.508770 0.745029 0.431375
vn 0.508770 0.745029 0.431375
vn 0.430240 0.711374 0.555734
vn 0.430240 0.711374 0.555734
vn 0.430240 0.711374 0.555734
s off
f 44/8/1 49/11/2 43/10/3 42/9/4
f 41/16/5 45/19/6 44/18/7 42/17/8
f 40/24/9 46/25/10 45/19/11 41/16/12
f 39/28/13 47/31/14 46/30/15 40/29/16
f 38/36/17 48/39/18 47/38/19 39/37/20
f 43/44/21 49/45/22 48/39/23 38/36/24
f 26/48/25 27/50/26 25/49/27
f 28/52/28 27/50/29 26/48/30
f 29/54/31 27/50/32 28/52/33
f 30/53/34 27/50/35 29/54/36
f 31/51/37 27/50/38 30/53/39
f 25/49/40 27/50/41 31/51/42
f 2/55/43 14/58/44 13/57/45 1/56/46
f 3/61/47 15/62/48 14/58/49 2/55/50
f 4/65/51 16/66/52 15/62/53 3/61/54
f 5/63/55 17/64/56 16/66/57 4/65/58
f 6/59/59 18/60/60 17/64/61 5/63/62
f 1/56/63 13/57/64 18/60/65 6/59/66
f 7/67/67 19/70/68 20/69/69 8/68/70
f 8/68/71 20/69/72 21/72/73 9/71/74
f 9/71/75 21/72/76 22/76/77 10/75/78
f 10/75/79 22/76/80 23/78/81 11/77/82
f 11/77/83 23/78/84 24/74/85 12/73/86
f 12/73/87 24/74/88 19/70/89 7/67/90
f 14/79/91 26/82/92 25/81/93 13/80/94
f 15/83/95 28/86/96 26/85/97 14/84/98
f 16/87/99 29/88/100 28/86/101 15/83/102
f 17/89/103 30/92/104 29/91/105 16/90/106
f 18/93/107 31/96/108 30/95/109 17/94/110
f 13/97/111 25/98/112 31/96/113 18/93/114
f 19/99/115 32/102/116 33/101/117 20/100/118
f 20/103/119 33/106/120 34/105/121 21/104/122
f 21/104/123 34/105/124 35/108/125 22/107/126
f 22/109/127 35/112/128 36/111/129 23/110/130
f 23/113/131 36/116/132 37/115/133 24/114/134
f 24/114/135 37/115/136 32/118/137 19/117/138
f 39/37/139 11/41/140 12/40/141 38/36/142
f 40/29/143 10/33/144 11/32/145 39/28/146
f 41/16/147 9/20/148 10/26/149 40/24/150
f 42/17/151 8/21/152 9/20/153 41/16/154
f 43/10/155 7/13/156 8/12/157 42/9/158
f 38/36/159 12/40/160 7/46/161 43/44/162
f 2/22/163 44/18/164 45/19/165 3/23/166
f 3/23/167 45/19/168 46/25/169 4/27/170
f 4/34/171 46/30/172 47/31/173 5/35/174
f 5/42/175 47/38/176 48/39/177 6/43/178
f 6/43/179 48/39/180 49/45/181 1/47/182
f 1/14/183 49/11/184 44/8/185 2/15/186
f 32/1/187 50/3/188 33/2/189
f 33/2/190 50/3/191 34/4/192
f 34/4/193 50/3/194 35/5/195
f 35/5/196 50/3/197 36/6/198
f 36/6/199 50/3/200 37/7/201
f 37/7/202 50/3/203 32/1/204
f 52/119/205 51/121/206 53/120/207
f 53/120/208 51/121/209 54/122/210
f 54/122/211 51/121/212 55/123/213
f 55/124/214 51/126/215 56/125/216
f 56/125/217 51/126/218 57/127/219
f 57/127/220 51/126/221 52/128/222
f 53/129/223 59/132/224 58/131/225 52/130/226
f 54/135/227 60/138/228 59/137/229 53/136/230
f 55/139/231 61/142/232 60/141/233 54/140/234
f 56/143/235 62/146/236 61/145/237 55/144/238
f 57/147/239 63/148/240 62/146/241 56/143/242
f 52/130/243 58/131/244 63/134/245 57/133/246
f 59/149/247 64/151/248 58/150/249
f 60/152/250 64/151/251 59/149/252
f 61/153/253 64/151/254 60/152/255
f 62/154/256 64/156/257 61/155/258
f 63/157/259 64/156/260 62/154/261
f 58/158/262 64/156/263 63/157/264
