# This file uses centimeters as units for non-parametric coordinates.

v -14.022758 -2.700727 -14.022758
v -19.831171 -2.700727 -0.000000
v -14.022758 -2.700727 14.022758
v 0.000000 -2.700727 19.831171
v 14.022758 -2.700727 14.022758
v 19.831173 -2.700727 -0.000000
v 14.022758 -2.700727 -14.022758
v 0.000000 -2.700727 -19.831175
v -17.940676 2.700727 -17.940678
v -25.371948 2.700727 0.000000
v -17.940678 2.700727 17.940676
v 0.000000 2.700727 25.371948
v 17.940676 2.700727 17.940678
v 25.371950 2.700727 0.000000
v 17.940680 2.700727 -17.940678
v 0.000000 2.700727 -25.371952
v 0.000000 -2.700727 -0.000000
v -15.751816 2.700728 -15.751816
v -22.276432 2.700728 -0.000000
v -15.751816 2.700728 15.751816
v 0.000000 2.700728 22.276434
v 15.751816 2.700728 15.751816
v 22.276436 2.700728 -0.000000
v 15.751819 2.700728 -15.751818
v 0.000000 2.700728 -22.276438
v -12.746874 -1.699041 -12.746878
v -18.026812 -1.699041 -0.000001
v -12.746875 -1.699041 12.746874
v 0.000000 -1.699041 18.026814
v 12.746877 -1.699041 12.746874
v 18.026814 -1.699041 -0.000001
v 12.746878 -1.699041 -12.746877
v 0.000000 -1.699041 -18.026817
v 2.740858 -0.143713 -23.271128
v 0.000001 -1.131732 -22.512875
v 0.000000 2.700727 -26.567406
v 6.308728 2.700727 -24.482515
v -2.740857 -0.143713 -23.271128
v -6.308727 2.700727 -24.482515
v 1.471511 0.973188 -31.776369
v 0.000001 0.569949 -31.731932
v 0.000000 2.500311 -32.369904
v 3.387028 2.500311 -32.426739
v -1.471510 0.973188 -31.776367
v -3.387026 2.500311 -32.426739
v 1.143931 0.713790 -46.328323
v 0.000001 0.713790 -46.381096
v 0.000001 2.240912 -45.626244
v 2.633026 2.240912 -45.559212
v -1.143930 0.713790 -46.328320
v -2.633024 2.240912 -45.559216
v 1.471511 -0.186955 -59.479900
v 0.000000 1.340168 -58.777817
v 3.387028 1.340168 -58.710777
v -1.471510 -0.186955 -59.479904
v -3.387027 1.340168 -58.710777
v 1.310037 2.014618 -48.880116
v 0.000001 2.014618 -48.913467
v 1.685184 1.566461 -55.423561
v 0.000001 1.566461 -55.456913
v -1.310036 2.014618 -48.880112
v -1.685183 1.566461 -55.423557
v 1.258168 0.533504 -48.856159
v 0.000001 0.534151 -48.889774
v 1.528550 0.081727 -55.452450
v 0.000001 0.082469 -55.484684
v -1.259001 0.531209 -48.889660
v -1.528984 0.080528 -55.469955
v 0.000001 -1.699041 -0.000001
vt 0.939753 0.074025
vt 0.957432 0.067109
vt 0.980602 0.013877
vt 0.959536 0.011374
vt 0.974823 0.074720
vt 0.993729 0.030542
vt 0.981739 0.092399
vt 0.991226 0.051609
vt 0.974128 0.109790
vt 0.974560 0.064736
vt 0.956449 0.116705
vt 0.953494 0.062233
vt 0.939058 0.109094
vt 0.934062 0.113896
vt 0.911036 0.006655
vt 0.909580 0.007682
vt 0.911153 0.004878
vt 0.932143 0.091416
vt 0.956941 0.091907
vt 0.978948 0.016827
vt 0.960452 0.014629
vt 0.990473 0.031459
vt 0.988276 0.049955
vt 0.973644 0.061480
vt 0.955147 0.059283
vt 0.943622 0.044651
vt 0.942870 0.024501
vt 0.945820 0.026154
vt 0.976678 0.020876
vt 0.961710 0.019098
vt 0.986005 0.032717
vt 0.984227 0.047685
vt 0.972385 0.057012
vt 0.957418 0.055234
vt 0.948091 0.043392
vt 0.949869 0.028425
vt 0.928789 0.091349
vt 0.927773 0.094758
vt 0.926170 0.099189
vt 0.941730 0.023862
vt 0.927909 0.087903
vt 0.947088 0.018964
vt 0.917261 0.091121
vt 0.917169 0.092960
vt 0.916309 0.095339
vt 0.936201 0.020762
vt 0.917242 0.089279
vt 0.937956 0.017504
vt 0.898943 0.090758
vt 0.898981 0.092189
vt 0.899906 0.094070
vt 0.923568 0.013681
vt 0.899038 0.089328
vt 0.900036 0.087485
vt 0.895806 0.090695
vt 0.895817 0.092269
vt 0.895838 0.089121
vt 0.895786 0.092334
vt 0.895777 0.090695
vt 0.883442 0.094687
vt 0.887594 0.092641
vt 0.887594 0.090533
vt 0.895851 0.089057
vt 0.883610 0.086217
vt 0.887678 0.088426
vt 0.887562 0.092444
vt 0.887560 0.090532
vt 0.887616 0.088620
vt 0.967048 0.038055
vt 0.921167 0.010694
vt 0.915132 0.006841
vt 0.914200 0.008429
vt 0.920436 0.011925
vt 0.913332 0.010053
vt 0.919768 0.013191
vt 0.882600 0.088593
vt 0.912909 0.003463
vt 0.925039 0.011207
vt 0.882527 0.092273
vt 0.909290 0.009918
vt 0.922226 0.016226
vt 0.916477 0.086868
vt 0.934337 0.023960
vt 0.926483 0.083412
vt 0.940347 0.030988
vt 0.934951 0.069029
vt 0.940367 0.045567
vt 0.956312 0.123634
vt 0.978930 0.114786
vt 0.988667 0.092536
vt 0.979819 0.069918
vt 0.957570 0.060181
vn -0.670579 -0.687875 -0.277763
vn -0.670579 -0.687875 -0.277763
vn -0.670579 -0.687875 -0.277763
vn -0.670579 -0.687875 -0.277763
vn -0.670579 -0.687875 0.277763
vn -0.670579 -0.687875 0.277763
vn -0.670579 -0.687875 0.277763
vn -0.670579 -0.687875 0.277763
vn -0.277763 -0.687875 0.670579
vn -0.277763 -0.687875 0.670579
vn -0.277763 -0.687875 0.670579
vn -0.277763 -0.687875 0.670579
vn 0.277763 -0.687875 0.670579
vn 0.277763 -0.687875 0.670579
vn 0.277763 -0.687875 0.670579
vn 0.277763 -0.687875 0.670579
vn 0.670579 -0.687875 0.277763
vn 0.670579 -0.687875 0.277763
vn 0.670579 -0.687875 0.277763
vn 0.670579 -0.687875 0.277763
vn 0.670579 -0.687875 -0.277763
vn 0.670579 -0.687875 -0.277763
vn 0.670579 -0.687875 -0.277763
vn 0.670579 -0.687875 -0.277763
vn 0.000000 0.417716 -0.908578
vn 0.000000 0.417716 -0.908578
vn 0.000000 0.417716 -0.908578
vn 0.000000 -1.000000 0.000000
vn 0.000000 -1.000000 0.000000
vn 0.000000 -1.000000 0.000000
vn 0.000000 -1.000000 0.000000
vn 0.000000 -1.000000 0.000000
vn 0.000000 -1.000000 0.000000
vn 0.000000 -1.000000 0.000000
vn 0.000000 -1.000000 0.000000
vn 0.000000 -1.000000 0.000000
vn 0.000000 -1.000000 0.000000
vn 0.000000 -1.000000 0.000000
vn 0.000000 -1.000000 0.000000
vn 0.000000 -1.000000 0.000000
vn 0.000000 -1.000000 0.000000
vn 0.000000 -1.000000 0.000000
vn 0.000000 -1.000000 0.000000
vn 0.000000 -1.000000 0.000000
vn 0.000000 -1.000000 0.000000
vn 0.000000 -1.000000 0.000000
vn 0.000000 -1.000000 0.000000
vn 0.000000 -1.000000 0.000000
vn 0.000000 -1.000000 0.000000
vn 0.000000 -1.000000 0.000000
vn 0.000000 -1.000000 0.000000
vn -0.000000 1.000000 -0.000000
vn -0.000000 1.000000 -0.000000
vn -0.000000 1.000000 -0.000000
vn -0.000000 1.000000 -0.000000
vn -0.000000 1.000000 0.000000
vn -0.000000 1.000000 0.000000
vn -0.000000 1.000000 0.000000
vn -0.000000 1.000000 0.000000
vn 0.000000 1.000000 0.000000
vn 0.000000 1.000000 0.000000
vn 0.000000 1.000000 0.000000
vn 0.000000 1.000000 0.000000
vn -0.000000 1.000000 0.000000
vn -0.000000 1.000000 0.000000
vn -0.000000 1.000000 0.000000
vn -0.000000 1.000000 0.000000
vn 0.000000 1.000000 0.000000
vn 0.000000 1.000000 0.000000
vn 0.000000 1.000000 0.000000
vn 0.000000 1.000000 0.000000
vn 0.000000 1.000000 -0.000000
vn 0.000000 1.000000 -0.000000
vn 0.000000 1.000000 -0.000000
vn 0.000000 1.000000 -0.000000
vn -0.000000 1.000000 -0.000000
vn -0.000000 1.000000 -0.000000
vn -0.000000 1.000000 -0.000000
vn -0.000000 1.000000 -0.000000
vn 0.000000 1.000000 -0.000000
vn 0.000000 1.000000 -0.000000
vn 0.000000 1.000000 -0.000000
vn 0.000000 1.000000 -0.000000
vn 0.689330 0.665806 0.285530
vn 0.689330 0.665806 0.285530
vn 0.689330 0.665806 0.285530
vn 0.689330 0.665806 0.285530
vn 0.689330 0.665806 -0.285530
vn 0.689330 0.665806 -0.285530
vn 0.689330 0.665806 -0.285530
vn 0.689330 0.665806 -0.285530
vn 0.285530 0.665806 -0.689329
vn 0.285530 0.665806 -0.689329
vn 0.285530 0.665806 -0.689329
vn 0.285530 0.665806 -0.689329
vn -0.285530 0.665806 -0.689330
vn -0.285530 0.665806 -0.689330
vn -0.285530 0.665806 -0.689330
vn -0.285530 0.665806 -0.689330
vn -0.689330 0.665806 -0.285530
vn -0.689330 0.665806 -0.285530
vn -0.689330 0.665806 -0.285530
vn -0.689330 0.665806 -0.285530
vn -0.689330 0.665806 0.285530
vn -0.689330 0.665806 0.285530
vn -0.689330 0.665806 0.285530
vn -0.689330 0.665806 0.285530
vn -0.285530 0.665806 0.689330
vn -0.285530 0.665806 0.689330
vn -0.285530 0.665806 0.689330
vn -0.285530 0.665806 0.689330
vn 0.285530 0.665806 0.689330
vn 0.285530 0.665806 0.689330
vn 0.285530 0.665806 0.689330
vn 0.285530 0.665806 0.689330
vn 0.195078 -0.855170 -0.480239
vn 0.195078 -0.855170 -0.480239
vn 0.195078 -0.855170 -0.480239
vn 0.195078 -0.855170 -0.480239
vn 0.000000 1.000000 0.000000
vn 0.000000 1.000000 0.000000
vn 0.000000 1.000000 0.000000
vn 0.000000 1.000000 0.000000
vn 0.348966 -0.702573 -0.620172
vn 0.348966 -0.702573 -0.620172
vn 0.348966 -0.702573 -0.620172
vn 0.348966 -0.702573 -0.620172
vn -0.195078 -0.855169 -0.480239
vn -0.195078 -0.855169 -0.480239
vn -0.195078 -0.855169 -0.480239
vn -0.195078 -0.855169 -0.480239
vn -0.348966 -0.702573 -0.620172
vn -0.348966 -0.702573 -0.620172
vn -0.348966 -0.702573 -0.620172
vn -0.348966 -0.702573 -0.620172
vn -0.000000 1.000000 -0.000000
vn -0.000000 1.000000 -0.000000
vn -0.000000 1.000000 -0.000000
vn -0.000000 1.000000 -0.000000
vn 0.279628 -0.944887 -0.170285
vn 0.279628 -0.944887 -0.170285
vn 0.279628 -0.944887 -0.170285
vn 0.279628 -0.944887 -0.170285
vn 0.006380 0.999514 -0.030500
vn 0.006380 0.999514 -0.030500
vn 0.006380 0.999514 -0.030500
vn 0.006380 0.999514 -0.030500
vn 0.571727 -0.798109 -0.190133
vn 0.571727 -0.798109 -0.190133
vn 0.571727 -0.798109 -0.190133
vn 0.571727 -0.798109 -0.190133
vn -0.279628 -0.944887 -0.170285
vn -0.279628 -0.944887 -0.170285
vn -0.279628 -0.944887 -0.170285
vn -0.279628 -0.944887 -0.170285
vn -0.571727 -0.798109 -0.190133
vn -0.571727 -0.798109 -0.190133
vn -0.571727 -0.798109 -0.190133
vn -0.571727 -0.798109 -0.190133
vn -0.006380 0.999514 -0.030500
vn -0.006380 0.999514 -0.030500
vn -0.006380 0.999514 -0.030500
vn -0.006380 0.999514 -0.030500
vn 0.152369 -0.988321 0.002202
vn 0.152369 -0.988321 0.002202
vn 0.152369 -0.988321 0.002202
vn 0.152369 -0.988321 0.002202
vn 0.000033 0.999807 -0.019657
vn 0.000033 0.999807 -0.019657
vn 0.000033 0.999807 -0.019657
vn 0.000033 0.999807 -0.019657
vn 0.667953 -0.744104 -0.012152
vn 0.667953 -0.744104 -0.012152
vn 0.667953 -0.744104 -0.012152
vn 0.667953 -0.744104 -0.012152
vn -0.152368 -0.988321 0.002202
vn -0.152368 -0.988321 0.002202
vn -0.152368 -0.988321 0.002202
vn -0.152368 -0.988321 0.002202
vn -0.667953 -0.744104 -0.012152
vn -0.667953 -0.744104 -0.012152
vn -0.667953 -0.744104 -0.012152
vn -0.667953 -0.744104 -0.012152
vn -0.000033 0.999807 -0.019657
vn -0.000033 0.999807 -0.019657
vn -0.000033 0.999807 -0.019657
vn -0.000033 0.999807 -0.019657
vn -0.002830 -0.997457 0.071217
vn -0.002830 -0.997457 0.071217
vn -0.002830 -0.997457 0.071217
vn -0.002830 -0.997457 0.071217
vn 0.692468 -0.716726 0.082411
vn 0.692468 -0.716726 0.082411
vn 0.692468 -0.716726 0.082411
vn 0.002788 -0.997458 0.071199
vn 0.002788 -0.997458 0.071199
vn 0.002788 -0.997458 0.071199
vn 0.002788 -0.997458 0.071199
vn -0.692534 -0.716686 0.082201
vn -0.692534 -0.716686 0.082201
vn -0.692534 -0.716686 0.082201
vn 0.001748 0.997637 -0.068678
vn 0.001748 0.997637 -0.068678
vn 0.001748 0.997637 -0.068678
vn 0.001748 0.997637 -0.068678
vn 0.000760 0.997666 -0.068286
vn 0.000760 0.997666 -0.068286
vn 0.000760 0.997666 -0.068286
vn 0.000760 0.997666 -0.068286
vn 0.001346 0.997686 -0.067985
vn 0.001346 0.997686 -0.067985
vn 0.001346 0.997686 -0.067985
vn 0.001346 0.997686 -0.067985
vn -0.001748 0.997637 -0.068678
vn -0.001748 0.997637 -0.068678
vn -0.001748 0.997637 -0.068678
vn -0.001748 0.997637 -0.068678
vn -0.001346 0.997686 -0.067985
vn -0.001346 0.997686 -0.067985
vn -0.001346 0.997686 -0.067985
vn -0.001346 0.997686 -0.067985
vn -0.000760 0.997666 -0.068286
vn -0.000760 0.997666 -0.068286
vn -0.000760 0.997666 -0.068286
vn -0.000760 0.997666 -0.068286
vn 0.026059 -0.016537 -0.999524
vn 0.026059 -0.016537 -0.999524
vn 0.026059 -0.016537 -0.999524
vn 0.026059 -0.016537 -0.999524
vn -0.996090 0.070116 -0.053738
vn -0.996090 0.070116 -0.053738
vn -0.996090 0.070116 -0.053738
vn -0.996090 0.070116 -0.053738
vn -0.020406 -0.017998 0.999630
vn -0.020406 -0.017998 0.999630
vn -0.020406 -0.017998 0.999630
vn -0.020406 -0.017998 0.999630
vn -0.013020 -0.004997 -0.999903
vn -0.013020 -0.004997 -0.999903
vn -0.013020 -0.004997 -0.999903
vn -0.013020 -0.004997 -0.999903
vn 0.014969 -0.024179 0.999596
vn 0.014969 -0.024179 0.999596
vn 0.014969 -0.024179 0.999596
vn 0.014969 -0.024179 0.999596
vn 0.996058 0.070530 -0.053794
vn 0.996058 0.070530 -0.053794
vn 0.996058 0.070530 -0.053794
vn 0.996058 0.070530 -0.053794
vn -0.611938 -0.789686 0.043905
vn -0.611938 -0.789686 0.043905
vn -0.611938 -0.789686 0.043905
vn 0.000003 -0.997758 0.066928
vn 0.000003 -0.997758 0.066928
vn 0.000003 -0.997758 0.066928
vn 0.000003 -0.997758 0.066928
vn 0.000003 -0.997758 0.066928
vn 0.611909 -0.789703 0.044017
vn 0.611909 -0.789703 0.044017
vn 0.611909 -0.789703 0.044017
vn -0.672798 -0.734899 0.085248
vn -0.672798 -0.734899 0.085248
vn -0.672798 -0.734899 0.085248
vn -0.672798 -0.734899 0.085248
vn 0.672954 -0.734757 0.085231
vn 0.672954 -0.734757 0.085231
vn 0.672954 -0.734757 0.085231
vn 0.672954 -0.734757 0.085231
vn -0.017848 0.431796 -0.901794
vn -0.017848 0.431796 -0.901794
vn -0.017848 0.431796 -0.901794
vn 0.017848 0.431794 -0.901796
vn 0.017848 0.431794 -0.901796
vn 0.017848 0.431794 -0.901796
vn 0.000000 1.000000 0.000000
vn 0.000000 1.000000 0.000000
vn 0.000000 1.000000 0.000000
vn 0.000000 1.000000 0.000000
vn 0.000000 1.000000 0.000000
vn 0.000000 1.000000 0.000000
vn 0.000000 1.000000 0.000000
vn 0.000000 1.000000 0.000000
vn 0.000000 1.000000 0.000000
vn 0.000000 1.000000 0.000000
vn 0.000000 1.000000 0.000000
vn 0.000000 1.000000 0.000000
vn 0.000000 1.000000 0.000000
vn 0.000000 1.000000 0.000000
vn 0.000000 1.000000 0.000000
vn 0.000000 1.000000 0.000000
vn 0.000000 1.000000 0.000000
vn 0.000000 1.000000 0.000000
vn 0.000000 1.000000 0.000000
vn 0.000000 1.000000 0.000000
vn 0.000000 1.000000 0.000000
vn 0.000000 1.000000 0.000000
vn 0.000000 1.000000 0.000000
vn 0.000000 1.000000 0.000000
s off
f 1/1/1 2/2/2 10/92/3 9/86/4
f 2/2/5 3/5/6 11/91/7 10/92/8
f 3/5/9 4/7/10 12/90/11 11/91/12
f 4/7/13 5/9/14 13/89/15 12/90/16
f 5/9/17 6/11/18 14/88/19 13/89/20
f 6/11/21 7/13/22 15/14/23 14/88/24
f 53/15/25 52/16/26 55/17/27
f 1/1/28 8/18/29 17/19/30
f 8/18/31 7/13/32 17/19/33
f 7/13/34 6/11/35 17/19/36
f 6/11/37 5/9/38 17/19/39
f 5/9/40 4/7/41 17/19/42
f 4/7/43 3/5/44 17/19/45
f 3/5/46 2/2/47 17/19/48
f 2/2/49 1/1/50 17/19/51
f 9/4/52 10/3/53 19/20/54 18/21/55
f 10/3/56 11/6/57 20/22/58 19/20/59
f 11/6/60 12/8/61 21/23/62 20/22/63
f 12/8/64 13/10/65 22/24/66 21/23/67
f 13/10/68 14/12/69 23/25/70 22/24/71
f 14/12/72 15/87/73 24/26/74 23/25/75
f 15/87/76 16/27/77 25/28/78 24/26/79
f 16/27/80 9/4/81 18/21/82 25/28/83
f 18/21/84 19/20/85 27/29/86 26/30/87
f 19/20/88 20/22/89 28/31/90 27/29/91
f 20/22/92 21/23/93 29/32/94 28/31/95
f 21/23/96 22/24/97 30/33/98 29/32/99
f 22/24/100 23/25/101 31/34/102 30/33/103
f 23/25/104 24/26/105 32/35/106 31/34/107
f 24/26/108 25/28/109 33/36/110 32/35/111
f 25/28/112 18/21/113 26/30/114 33/36/115
f 7/13/116 8/18/117 35/37/118 34/38/119
f 16/27/120 15/87/121 37/85/122 36/40/123
f 15/14/124 7/13/125 34/38/126 37/39/127
f 8/18/128 1/1/129 38/41/130 35/37/131
f 1/1/132 9/86/133 39/84/134 38/41/135
f 9/4/136 16/27/137 36/40/138 39/42/139
f 34/38/140 35/37/141 41/43/142 40/44/143
f 36/40/144 37/85/145 43/83/146 42/46/147
f 37/39/148 34/38/149 40/44/150 43/45/151
f 35/37/152 38/41/153 44/47/154 41/43/155
f 38/41/156 39/84/157 45/82/158 44/47/159
f 39/42/160 36/40/161 42/46/162 45/48/163
f 40/44/164 41/43/165 47/49/166 46/50/167
f 42/46/168 43/83/169 49/81/170 48/52/171
f 43/45/172 40/44/173 46/50/174 49/51/175
f 41/43/176 44/47/177 50/53/178 47/49/179
f 44/47/180 45/82/181 51/54/182 50/53/183
f 45/48/184 42/46/185 48/52/186 51/78/187
f 46/50/188 47/49/189 64/55/190 63/56/191
f 49/51/192 46/50/193 63/56/194
f 47/49/195 50/53/196 67/57/197 64/55/198
f 50/53/199 51/54/200 67/57/201
f 48/52/202 49/81/203 57/75/204 58/73/205
f 49/81/206 54/80/207 59/74/208 57/75/209
f 54/80/210 53/15/211 60/72/212 59/74/213
f 51/78/214 48/52/215 58/73/216 61/70/217
f 53/15/218 56/77/219 62/71/220 60/72/221
f 56/77/222 51/78/223 61/70/224 62/71/225
f 58/59/226 57/58/227 63/56/228 64/55/229
f 57/58/230 59/61/231 65/66/232 63/56/233
f 59/61/234 60/62/235 66/67/236 65/66/237
f 61/63/238 58/59/239 64/55/240 67/57/241
f 60/62/242 62/65/243 68/68/244 66/67/245
f 62/65/246 61/63/247 67/57/248 68/68/249
f 68/68/250 56/64/251 55/76/252
f 55/76/253 52/79/254 65/66/255 66/67/256 68/68/257
f 54/60/258 65/66/259 52/79/260
f 67/57/261 51/54/262 56/64/263 68/68/264
f 49/51/265 63/56/266 65/66/267 54/60/268
f 53/15/269 55/17/270 56/77/271
f 52/16/272 53/15/273 54/80/274
f 26/30/275 27/29/276 69/69/277
f 27/29/278 28/31/279 69/69/280
f 28/31/281 29/32/282 69/69/283
f 29/32/284 30/33/285 69/69/286
f 30/33/287 31/34/288 69/69/289
f 31/34/290 32/35/291 69/69/292
f 32/35/293 33/36/294 69/69/295
f 33/36/296 26/30/297 69/69/298
