# This file uses centimeters as units for non-parametric coordinates.

v 5.513836 0.000000 5.513835
v 7.797741 0.000000 0.000000
v 5.513836 0.000000 -5.513836
v 0.000000 0.000000 -7.797742
v -5.513836 0.000000 -5.513836
v -7.797741 0.000000 0.000000
v -5.513836 0.000000 5.513836
v 0.000000 0.000000 7.797741
v 5.513836 14.128068 5.513835
v 7.797741 14.128068 0.000000
v 5.513836 14.128068 -5.513836
v 0.000000 14.128068 -7.797742
v -5.513836 14.128068 -5.513836
v -7.797741 14.128068 0.000000
v -5.513836 14.128068 5.513836
v 0.000000 14.128068 7.797741
v 2.479914 0.000000 2.479913
v 3.507125 0.000000 0.000000
v 2.479913 0.000000 -2.479914
v 0.000000 0.000000 -3.507125
v -2.479914 0.000000 -2.479914
v -3.507125 0.000000 0.000000
v -2.479913 0.000000 2.479913
v 0.000000 0.000000 3.507125
v 2.479914 14.128068 2.479913
v 3.507125 14.128068 0.000000
v 2.479913 14.128068 -2.479914
v 0.000000 14.128068 -3.507125
v -2.479914 14.128068 -2.479914
v -3.507125 14.128068 0.000000
v -2.479913 14.128068 2.479913
v 0.000000 14.128068 3.507125
v 2.000323 0.000000 2.000323
v 2.828882 0.000000 0.000000
v 2.000323 0.000000 -2.000323
v 0.000000 0.000000 -2.828882
v -2.000323 0.000000 -2.000323
v -2.828882 0.000000 0.000000
v -2.000323 0.000000 2.000323
v 0.000000 0.000000 2.828882
v 2.000323 14.128068 2.000323
v 2.828882 14.128068 0.000000
v 2.000323 14.128068 -2.000323
v 0.000000 14.128068 -2.828882
v -2.000323 14.128068 -2.000323
v -2.828882 14.128068 0.000000
v -2.000323 14.128068 2.000323
v 0.000000 14.128068 2.828882
v 0.653704 14.128068 7.526968
v 0.611937 0.000000 7.544269
v 4.246388 0.000000 10.414158
v 4.771684 0.000000 10.010699
v 4.669378 13.518487 9.615015
v 4.070346 13.351333 9.945063
v 5.105886 0.000000 15.868975
v 5.707640 0.000000 16.145758
v 3.797430 11.681040 15.707440
v 3.105296 11.463500 15.280379
v 0.091006 -0.093083 19.145592
v 0.151066 -0.093083 19.805218
v -1.093754 8.524462 16.522264
v -1.157914 8.524462 15.817612
v 0.000000 4.738808 7.797741
v -5.513836 4.025411 5.513836
v -7.797741 6.350609 0.000000
v -5.513836 6.817584 -5.513836
v 0.000000 8.924629 -7.797742
v 5.513836 7.970364 -5.513836
v 7.797741 6.137826 0.000000
v 5.513836 6.399266 5.513835
v 0.624066 4.102833 7.539245
v 4.754546 2.264590 9.944415
v 4.211985 2.609211 10.322484
vt 0.057905 0.277104
vt 0.057905 0.277104
vt 0.057905 0.277104
vt 0.057905 0.277104
vt 0.057905 0.277104
vt 0.057905 0.277104
vt 0.057905 0.277104
vt 0.057905 0.277104
vt 0.057905 0.277104
vt 0.057905 0.277104
vt 0.057905 0.277104
vt 0.057905 0.277104
vt 0.057905 0.277104
vt 0.057905 0.277104
vt 0.057905 0.277104
vt 0.057905 0.277104
vt 0.057905 0.277104
vt 0.101690 0.372855
vt 0.101690 0.372855
vt 0.101690 0.372855
vt 0.101690 0.372855
vt 0.101690 0.372855
vt 0.101690 0.372855
vt 0.101690 0.372855
vt 0.101690 0.372855
vt 0.101690 0.372855
vt 0.101690 0.372855
vt 0.101690 0.372855
vt 0.101690 0.372855
vt 0.101690 0.372855
vt 0.101690 0.372855
vt 0.101690 0.372855
vt 0.101690 0.372855
vt 0.101690 0.372855
vt 0.057905 0.277104
vt 0.057905 0.277104
vt 0.057905 0.277104
vt 0.057905 0.277104
vt 0.057905 0.277104
vt 0.057905 0.277104
vt 0.057905 0.277104
vt 0.057905 0.277104
vt 0.101690 0.372855
vt 0.101690 0.372855
vt 0.101690 0.372855
vt 0.101690 0.372855
vt 0.101690 0.372855
vt 0.101690 0.372855
vt 0.101690 0.372855
vt 0.101690 0.372855
vt 0.059461 0.352398
vt 0.059461 0.352398
vt 0.059461 0.352398
vt 0.059461 0.352398
vt 0.059460 0.352398
vt 0.059461 0.352398
vt 0.059461 0.352398
vt 0.059461 0.352398
vt 0.059460 0.352398
vt 0.059461 0.352398
vt 0.059461 0.352398
vt 0.059461 0.352398
vt 0.059461 0.352398
vt 0.059461 0.352398
vt 0.059462 0.352398
vt 0.059461 0.352398
vt 0.059461 0.352398
vt 0.059461 0.352398
vt 0.059461 0.352398
vt 0.059461 0.352398
vt 0.059460 0.352398
vt 0.059461 0.352398
vt 0.059461 0.352398
vt 0.059461 0.352398
vt 0.059460 0.352398
vt 0.059461 0.352398
vt 0.059461 0.352398
vt 0.059461 0.352398
vt 0.059461 0.352398
vt 0.059461 0.352398
vt 0.059462 0.352398
vt 0.059461 0.352398
vt 0.101690 0.372855
vt 0.101690 0.372855
vt 0.057905 0.277104
vt 0.057905 0.277104
vt 0.057905 0.277104
vt 0.057905 0.277104
vt 0.101690 0.372855
vt 0.101690 0.372855
vt 0.101690 0.372855
vt 0.057905 0.277104
vt 0.101690 0.372855
vt 0.101690 0.372855
vt 0.101690 0.372855
vt 0.101690 0.372855
vt 0.101690 0.372855
vt 0.101690 0.372855
vt 0.057905 0.277104
vt 0.101690 0.372855
vt 0.101690 0.372855
vt 0.101690 0.372855
vt 0.101690 0.372855
vt 0.101690 0.372855
vt 0.101690 0.372855
vt 0.101690 0.372855
vt 0.101690 0.372855
vt 0.101690 0.372855
vt 0.101690 0.372855
vt 0.057905 0.277104
vt 0.101690 0.372855
vt 0.101690 0.372855
vt 0.057905 0.277104
vt 0.057905 0.277104
vt 0.057905 0.277104
vt 0.057905 0.277104
vt 0.057905 0.277104
vt 0.057905 0.277104
vt 0.057905 0.277104
vt 0.057905 0.277104
vt 0.057905 0.277104
vt 0.057905 0.277104
vt 0.057905 0.277104
vt 0.101690 0.372855
vn 0.923880 0.000000 0.382683
vn 0.923880 0.000000 0.382683
vn 0.923880 0.000000 0.382683
vn 0.923880 -0.000000 0.382683
vn 0.923880 0.000000 -0.382683
vn 0.923880 0.000000 -0.382683
vn 0.923880 -0.000000 -0.382683
vn 0.923880 0.000000 -0.382683
vn 0.382683 0.000000 -0.923880
vn 0.382683 0.000000 -0.923880
vn 0.382683 0.000000 -0.923880
vn 0.382683 0.000000 -0.923880
vn -0.382683 0.000000 -0.923880
vn -0.382683 0.000000 -0.923880
vn -0.382683 0.000000 -0.923880
vn -0.382683 0.000000 -0.923880
vn -0.923880 0.000000 -0.382683
vn -0.923880 0.000000 -0.382683
vn -0.923880 0.000000 -0.382683
vn -0.923880 -0.000000 -0.382683
vn -0.923880 0.000000 0.382683
vn -0.923880 0.000000 0.382683
vn -0.923880 0.000000 0.382683
vn -0.923880 0.000000 0.382683
vn -0.382683 0.000000 0.923880
vn -0.382683 0.000000 0.923880
vn -0.382683 0.000000 0.923880
vn -0.382683 0.000000 0.923880
vn 0.382683 0.000000 0.923880
vn 0.382684 0.000000 0.923880
vn 0.382683 0.000000 0.923880
vn 0.382683 0.000000 0.923880
vn 0.000000 -1.000000 0.000000
vn 0.000000 -1.000000 0.000000
vn 0.000000 -1.000000 0.000000
vn 0.000000 -1.000000 0.000000
vn 0.000000 -1.000000 0.000000
vn 0.000000 -1.000000 0.000000
vn 0.000000 -1.000000 0.000000
vn 0.000000 -1.000000 0.000000
vn 0.000000 -1.000000 0.000000
vn 0.000000 -1.000000 0.000000
vn 0.000000 -1.000000 0.000000
vn 0.000000 -1.000000 0.000000
vn 0.000000 -1.000000 0.000000
vn 0.000000 -1.000000 0.000000
vn 0.000000 -1.000000 0.000000
vn 0.000000 -1.000000 0.000000
vn 0.000000 -1.000000 0.000000
vn 0.000000 -1.000000 0.000000
vn 0.000000 -1.000000 0.000000
vn 0.000000 -1.000000 0.000000
vn 0.000000 -1.000000 0.000000
vn 0.000000 -1.000000 0.000000
vn 0.000000 -1.000000 0.000000
vn 0.000000 -1.000000 0.000000
vn 0.000000 -1.000000 0.000000
vn 0.000000 -1.000000 0.000000
vn 0.000000 -1.000000 0.000000
vn 0.000000 -1.000000 0.000000
vn 0.000000 -1.000000 0.000000
vn 0.000000 -1.000000 0.000000
vn 0.000000 -1.000000 0.000000
vn 0.000000 -1.000000 0.000000
vn 0.000000 1.000000 0.000000
vn 0.000000 1.000000 0.000000
vn 0.000000 1.000000 0.000000
vn 0.000000 1.000000 0.000000
vn 0.000000 1.000000 -0.000000
vn 0.000000 1.000000 -0.000000
vn 0.000000 1.000000 -0.000000
vn 0.000000 1.000000 -0.000000
vn 0.000000 1.000000 0.000000
vn 0.000000 1.000000 0.000000
vn 0.000000 1.000000 0.000000
vn 0.000000 1.000000 0.000000
vn 0.000000 1.000000 0.000000
vn 0.000000 1.000000 0.000000
vn 0.000000 1.000000 0.000000
vn 0.000000 1.000000 0.000000
vn 0.000000 1.000000 0.000000
vn 0.000000 1.000000 0.000000
vn 0.000000 1.000000 0.000000
vn 0.000000 1.000000 0.000000
vn 0.000000 1.000000 0.000000
vn 0.000000 1.000000 0.000000
vn 0.000000 1.000000 0.000000
vn 0.000000 1.000000 0.000000
vn 0.000000 1.000000 -0.000000
vn 0.000000 1.000000 -0.000000
vn 0.000000 1.000000 -0.000000
vn 0.000000 1.000000 -0.000000
vn 0.000000 1.000000 -0.000000
vn 0.000000 1.000000 -0.000000
vn 0.000000 1.000000 -0.000000
vn 0.000000 1.000000 -0.000000
vn 0.000000 -1.000000 0.000000
vn 0.000000 -1.000000 0.000000
vn 0.000000 -1.000000 0.000000
vn 0.000000 -1.000000 0.000000
vn 0.000000 -1.000000 0.000000
vn 0.000000 -1.000000 0.000000
vn 0.000000 -1.000000 0.000000
vn 0.000000 -1.000000 0.000000
vn 0.000000 -1.000000 0.000000
vn 0.000000 -1.000000 0.000000
vn 0.000000 -1.000000 0.000000
vn 0.000000 -1.000000 0.000000
vn 0.000000 -1.000000 0.000000
vn 0.000000 -1.000000 0.000000
vn 0.000000 -1.000000 0.000000
vn 0.000000 -1.000000 0.000000
vn 0.000000 -1.000000 0.000000
vn 0.000000 -1.000000 0.000000
vn 0.000000 -1.000000 0.000000
vn 0.000000 -1.000000 0.000000
vn 0.000000 -1.000000 0.000000
vn 0.000000 -1.000000 0.000000
vn 0.000000 -1.000000 0.000000
vn 0.000000 -1.000000 0.000000
vn 0.000000 -1.000000 0.000000
vn 0.000000 -1.000000 0.000000
vn 0.000000 -1.000000 0.000000
vn 0.000000 -1.000000 0.000000
vn 0.000000 -1.000000 0.000000
vn 0.000000 -1.000000 0.000000
vn 0.000000 -1.000000 0.000000
vn 0.000000 -1.000000 0.000000
vn 0.000000 1.000000 0.000000
vn 0.000000 1.000000 0.000000
vn 0.000000 1.000000 0.000000
vn 0.000000 1.000000 0.000000
vn 0.000000 1.000000 0.000001
vn 0.000000 1.000000 0.000001
vn 0.000000 1.000000 0.000001
vn 0.000000 1.000000 0.000001
vn 0.000000 1.000000 -0.000001
vn 0.000000 1.000000 -0.000001
vn 0.000000 1.000000 -0.000001
vn 0.000000 1.000000 -0.000001
vn 0.000000 1.000000 0.000000
vn 0.000000 1.000000 0.000000
vn 0.000000 1.000000 0.000000
vn 0.000000 1.000000 0.000000
vn 0.000000 1.000000 0.000000
vn 0.000000 1.000000 0.000000
vn 0.000000 1.000000 0.000000
vn 0.000000 1.000000 0.000000
vn 0.000000 1.000000 0.000001
vn 0.000000 1.000000 0.000001
vn 0.000000 1.000000 0.000001
vn 0.000000 1.000000 0.000001
vn 0.000000 1.000000 0.000001
vn 0.000000 1.000000 0.000001
vn 0.000000 1.000000 0.000001
vn 0.000000 1.000000 0.000001
vn 0.000000 1.000000 0.000000
vn 0.000000 1.000000 0.000000
vn 0.000000 1.000000 0.000000
vn 0.000000 1.000000 0.000000
vn -0.923880 0.000000 -0.382683
vn -0.923880 0.000000 -0.382683
vn -0.923880 0.000000 -0.382683
vn -0.923880 0.000000 -0.382683
vn -0.923880 0.000000 0.382683
vn -0.923880 0.000000 0.382683
vn -0.923880 0.000000 0.382683
vn -0.923880 0.000000 0.382683
vn -0.382683 0.000000 0.923880
vn -0.382683 0.000000 0.923880
vn -0.382683 0.000000 0.923880
vn -0.382683 0.000000 0.923880
vn 0.382683 0.000000 0.923880
vn 0.382683 0.000000 0.923880
vn 0.382683 0.000000 0.923880
vn 0.382683 0.000000 0.923880
vn 0.923880 0.000000 0.382683
vn 0.923880 0.000000 0.382683
vn 0.923880 0.000000 0.382683
vn 0.923880 0.000000 0.382683
vn 0.923880 0.000000 -0.382683
vn 0.923880 0.000000 -0.382683
vn 0.923880 0.000000 -0.382683
vn 0.923880 0.000000 -0.382683
vn 0.382683 0.000000 -0.923880
vn 0.382683 0.000000 -0.923880
vn 0.382683 0.000000 -0.923880
vn 0.382683 0.000000 -0.923880
vn -0.382683 0.000000 -0.923880
vn -0.382683 0.000000 -0.923880
vn -0.382683 0.000000 -0.923880
vn -0.382683 0.000000 -0.923880
vn 0.000000 1.000000 0.000000
vn 0.000000 1.000000 0.000000
vn 0.000000 1.000000 0.000000
vn -0.989983 -0.108665 0.090140
vn -0.989983 -0.108665 0.090140
vn -0.989983 -0.108665 0.090140
vn -0.989983 -0.108665 0.090140
vn 0.000000 -1.000000 0.000000
vn 0.000000 -1.000000 0.000000
vn 0.000000 -1.000000 0.000000
vn 0.000000 -1.000000 0.000000
vn 0.000000 -1.000000 0.000000
vn 0.000000 -1.000000 0.000000
vn 0.000000 -1.000000 0.000000
vn 0.505083 -0.009268 -0.863021
vn 0.484065 -0.012257 -0.874946
vn 0.488538 -0.011625 -0.872465
vn 0.505083 -0.009268 -0.863021
vn 0.011763 0.956741 0.290703
vn 0.011763 0.956741 0.290703
vn 0.011763 0.956741 0.290703
vn 0.011763 0.956741 0.290703
vn -0.487832 0.012932 0.872842
vn -0.493362 0.012077 0.869740
vn -0.500017 0.011044 0.865945
vn -0.487832 0.012932 0.872842
vn 0.000000 -1.000000 0.000000
vn 0.000000 -1.000000 0.000000
vn 0.000000 -1.000000 0.000000
vn 0.000000 -1.000000 0.000000
vn 0.988558 0.003067 -0.150813
vn 0.996504 0.082594 0.012543
vn 0.996225 0.085008 0.017584
vn -0.293659 0.921748 0.253271
vn -0.293659 0.921748 0.253271
vn -0.293659 0.921748 0.253271
vn -0.293659 0.921748 0.253271
vn -0.994082 -0.097945 -0.046977
vn -0.995104 -0.092561 -0.034663
vn -0.994884 -0.093803 -0.037501
vn -0.994083 -0.097945 -0.046977
vn 0.012030 -0.999892 -0.008502
vn 0.012030 -0.999892 -0.008502
vn 0.012030 -0.999892 -0.008502
vn 0.012030 -0.999892 -0.008502
vn 0.325681 0.219229 0.919712
vn 0.325681 0.219229 0.919712
vn 0.325681 0.219229 0.919712
vn 0.325681 0.219229 0.919712
vn -0.524357 0.829823 0.190904
vn -0.524357 0.829822 0.190904
vn -0.524357 0.829822 0.190904
vn -0.524357 0.829822 0.190904
vn -0.304901 -0.229611 -0.924291
vn -0.304901 -0.229611 -0.924291
vn -0.304901 -0.229611 -0.924291
vn -0.304901 -0.229611 -0.924291
vn -0.382683 0.000000 0.923880
vn -0.382683 0.000000 0.923880
vn -0.382683 0.000000 0.923880
vn -0.382683 0.000000 0.923880
vn -0.923880 0.000000 0.382683
vn -0.923880 0.000000 0.382683
vn -0.923880 0.000000 0.382683
vn -0.923880 0.000000 0.382683
vn -0.923880 -0.000000 -0.382683
vn -0.923880 0.000000 -0.382683
vn -0.923880 -0.000000 -0.382683
vn -0.923880 -0.000000 -0.382683
vn -0.382683 0.000000 -0.923880
vn -0.382683 0.000000 -0.923880
vn -0.382683 0.000000 -0.923880
vn -0.382683 0.000000 -0.923880
vn 0.382683 0.000000 -0.923880
vn 0.382683 0.000000 -0.923880
vn 0.382683 0.000000 -0.923880
vn 0.382683 0.000000 -0.923880
vn 0.923880 0.000000 -0.382683
vn 0.923880 -0.000000 -0.382683
vn 0.923880 -0.000000 -0.382683
vn 0.923880 -0.000000 -0.382683
vn 0.923880 -0.000000 0.382683
vn 0.923880 0.000000 0.382683
vn 0.923880 -0.000000 0.382683
vn 0.923880 -0.000000 0.382683
vn 0.382683 -0.000000 0.923880
vn 0.382684 0.000000 0.923880
vn 0.382683 0.000000 0.923880
vn 0.382684 -0.000000 0.923880
vn 0.488538 -0.011625 -0.872465
vn 0.484065 -0.012257 -0.874946
vn 0.479978 -0.012832 -0.877187
vn 0.479978 -0.012832 -0.877187
vn 0.996225 0.085008 0.017584
vn 0.996504 0.082594 0.012543
vn 0.995917 0.087403 0.022590
vn 0.995917 0.087403 0.022590
vn -0.500017 0.011044 0.865945
vn -0.493362 0.012077 0.869740
vn -0.517865 0.008248 0.855422
vn -0.517865 0.008248 0.855422
vn -0.994884 -0.093803 -0.037501
vn -0.995104 -0.092561 -0.034663
vn -0.987785 -0.007556 0.155642
s off
f 1/9/1 2/10/2 69/117/3 70/115/4
f 2/10/5 3/11/6 68/118/7 69/117/8
f 3/11/9 4/12/10 67/119/11 68/118/12
f 4/12/13 5/13/14 66/120/15 67/119/16
f 5/13/17 6/14/18 65/121/19 66/120/20
f 6/14/21 7/15/22 64/122/23 65/121/24
f 7/15/25 8/16/26 63/99/27 64/122/28
f 70/116/29 71/114/30 50/85/31 1/17/32
f 2/2/33 1/1/34 17/36/35 18/35/36
f 3/3/37 2/2/38 18/35/39 19/37/40
f 4/4/41 3/3/42 19/37/43 20/38/44
f 5/5/45 4/4/46 20/38/47 21/39/48
f 6/6/49 5/5/50 21/39/51 22/40/52
f 7/7/53 6/6/54 22/40/55 23/41/56
f 8/8/57 7/7/58 23/41/59 24/42/60
f 1/1/61 50/86/62 24/42/63 17/36/64
f 9/33/65 10/32/66 26/44/67 25/43/68
f 10/32/69 11/31/70 27/45/71 26/44/72
f 11/31/73 12/30/74 28/46/75 27/45/76
f 12/30/77 13/29/78 29/47/79 28/46/80
f 13/29/81 14/28/82 30/48/83 29/47/84
f 14/28/85 15/27/86 31/49/87 30/48/88
f 15/27/89 16/34/90 32/50/91 31/49/92
f 32/50/93 49/84/94 9/33/95 25/43/96
f 18/51/97 17/52/98 33/53/99 34/54/100
f 19/55/101 18/51/102 34/54/103 35/56/104
f 20/57/105 19/55/106 35/56/107 36/58/108
f 21/59/109 20/57/110 36/58/111 37/60/112
f 22/61/113 21/59/114 37/60/115 38/62/116
f 23/63/117 22/61/118 38/62/119 39/64/120
f 24/65/121 23/63/122 39/64/123 40/66/124
f 17/52/125 24/65/126 40/66/127 33/53/128
f 25/67/129 26/68/130 42/69/131 41/70/132
f 26/68/133 27/71/134 43/72/135 42/69/136
f 27/71/137 28/73/138 44/74/139 43/72/140
f 28/73/141 29/75/142 45/76/143 44/74/144
f 29/75/145 30/77/146 46/78/147 45/76/148
f 30/77/149 31/79/150 47/80/151 46/78/152
f 31/79/153 32/81/154 48/82/155 47/80/156
f 32/81/157 25/67/158 41/70/159 48/82/160
f 34/54/161 33/53/162 41/70/163 42/69/164
f 35/56/165 34/54/166 42/69/167 43/72/168
f 36/58/169 35/56/170 43/72/171 44/74/172
f 37/60/173 36/58/174 44/74/175 45/76/176
f 38/62/177 37/60/178 45/76/179 46/78/180
f 39/64/181 38/62/182 46/78/183 47/80/184
f 40/66/185 39/64/186 47/80/187 48/82/188
f 33/53/189 40/66/190 48/82/191 41/70/192
f 16/34/193 49/84/194 32/50/195
f 59/95/196 60/96/197 61/97/198 62/98/199
f 24/42/200 50/86/201 8/8/202
f 8/16/203 50/85/204 52/88/205 51/87/206
f 50/85/207 71/114/208 72/113/209 52/88/210
f 49/83/211 16/25/212 54/90/213 53/89/214
f 16/25/215 63/112/216 73/111/217 54/90/218
f 51/87/219 52/88/220 56/92/221 55/123/222
f 52/88/223 72/113/224 56/92/225
f 53/89/226 54/90/227 58/94/228 57/93/229
f 54/90/230 73/111/231 55/91/232 58/94/233
f 55/91/234 56/124/235 60/96/236 59/95/237
f 56/124/238 57/93/239 61/97/240 60/96/241
f 57/93/242 58/94/243 62/98/244 61/97/245
f 58/94/246 55/91/247 59/95/248 62/98/249
f 64/100/250 63/112/251 16/25/252 15/24/253
f 65/101/254 64/100/255 15/24/256 14/23/257
f 66/102/258 65/101/259 14/23/260 13/22/261
f 67/103/262 66/102/263 13/22/264 12/21/265
f 68/104/266 67/103/267 12/21/268 11/20/269
f 69/105/270 68/104/271 11/20/272 10/19/273
f 70/106/274 69/105/275 10/19/276 9/18/277
f 49/83/278 71/108/279 70/107/280 9/26/281
f 72/109/282 71/108/283 49/83/284 53/89/285
f 56/124/286 72/109/287 53/89/288 57/93/289
f 73/110/290 63/99/291 8/16/292 51/87/293
f 55/123/294 73/110/295 51/87/296
