# This file uses centimeters as units for non-parametric coordinates.

v -6.569214 0.000000 10.510727
v 6.569214 0.000000 10.510727
v -6.569214 7.883040 10.510727
v 6.569214 7.883040 10.510727
v -6.569214 7.883040 -10.510719
v 6.569214 7.883040 -10.510719
v -6.569214 0.000000 -10.510719
v 6.569214 0.000000 -10.510719
v -6.569214 7.883040 2.216288
v 6.569214 7.883040 6.566873
v 6.569214 0.000000 6.566864
v -6.569214 0.000000 2.216287
v -4.894388 0.000000 0.437554
v -4.894388 7.883040 0.437554
v -1.727042 7.883040 0.437554
v -1.727042 0.000000 0.437554
v -4.894388 0.000000 -8.482747
v -1.727042 0.000000 -8.482747
v -1.727042 7.883040 -8.482748
v -4.894388 7.883040 -8.482748
v -1.991771 3.405914 10.510727
v 5.345126 3.405914 10.510727
v 2.186100 3.405914 -10.510719
v -5.436858 3.405914 -10.510719
v -1.991771 1.941995 10.510727
v 5.345126 1.941995 10.510727
v 2.186100 1.941995 -10.510719
v -5.436858 1.941995 -10.510719
vt 0.113812 0.155863
vt 0.113812 0.155863
vt 0.113812 0.155863
vt 0.113812 0.155863
vt 0.132762 0.179204
vt 0.132762 0.179204
vt 0.132762 0.179204
vt 0.132762 0.179204
vt 0.132762 0.179204
vt 0.132762 0.179204
vt 0.132762 0.179204
vt 0.132762 0.179204
vt 0.132762 0.179204
vt 0.132762 0.179204
vt 0.113812 0.155863
vt 0.113812 0.155863
vt 0.113812 0.155863
vt 0.113812 0.155863
vt 0.113812 0.155863
vt 0.113812 0.155863
vt 0.132762 0.179204
vt 0.132762 0.179204
vt 0.132762 0.179204
vt 0.132762 0.179204
vt 0.132762 0.179204
vt 0.132762 0.179204
vt 0.132762 0.179204
vt 0.132762 0.179204
vt 0.138820 0.426547
vt 0.138820 0.426547
vt 0.138820 0.426547
vt 0.138820 0.426547
vt 0.137634 0.419428
vt 0.137634 0.419428
vt 0.137634 0.419428
vt 0.137634 0.419428
vt 0.113812 0.155863
vt 0.113812 0.155863
vt 0.132762 0.179204
vt 0.132762 0.179204
vt 0.113812 0.155863
vt 0.113812 0.155863
vt 0.132762 0.179204
vt 0.132762 0.179204
vt 0.140007 0.402817
vt 0.140007 0.402817
vt 0.140007 0.402817
vt 0.140007 0.402817
vt 0.140007 0.402817
vt 0.140007 0.402817
vt 0.140007 0.402817
vt 0.140007 0.402817
vn 0.000000 0.000000 1.000000
vn 0.000000 0.000000 1.000000
vn 0.000000 0.000000 1.000000
vn 0.000000 0.000000 1.000000
vn 0.000000 1.000000 -0.000000
vn 0.000000 1.000000 -0.000000
vn 0.000000 1.000000 0.000000
vn 0.000000 1.000000 0.000000
vn -0.000000 0.000000 -1.000000
vn 0.000000 0.000000 -1.000000
vn 0.000000 0.000000 -1.000000
vn -0.000000 0.000000 -1.000000
vn 0.000000 -1.000000 0.000000
vn 0.000000 -1.000000 0.000000
vn 0.000000 -1.000000 0.000000
vn 0.000000 -1.000000 0.000000
vn 1.000000 -0.000000 0.000000
vn 1.000000 -0.000000 0.000000
vn 1.000000 -0.000000 0.000000
vn 1.000000 -0.000000 0.000000
vn -1.000000 0.000000 0.000000
vn -1.000000 0.000000 0.000000
vn -1.000000 -0.000000 0.000000
vn -1.000000 0.000000 0.000000
vn 0.000000 1.000000 0.000000
vn 0.000000 1.000000 0.000000
vn 0.000000 1.000000 0.000000
vn 0.000000 1.000000 0.000000
vn 1.000000 -0.000000 0.000000
vn 1.000000 -0.000000 0.000000
vn 1.000000 -0.000000 0.000000
vn 1.000000 -0.000000 0.000000
vn 0.000000 -1.000000 0.000000
vn 0.000000 -1.000000 0.000000
vn 0.000000 -1.000000 0.000000
vn 0.000000 -1.000000 0.000000
vn -1.000000 -0.000000 0.000000
vn -1.000000 -0.000000 0.000000
vn -1.000000 -0.000000 0.000000
vn -1.000000 0.000000 0.000000
vn 0.000000 -1.000000 0.000000
vn 0.000000 -1.000000 0.000000
vn 0.000000 -1.000000 0.000000
vn 0.000000 -1.000000 0.000000
vn 0.000000 1.000000 -0.000000
vn 0.000000 1.000000 -0.000000
vn 0.000000 1.000000 -0.000000
vn 0.000000 1.000000 -0.000000
vn 0.000000 -1.000000 0.000000
vn 0.000000 -1.000000 0.000000
vn 0.000000 -1.000000 0.000000
vn 0.000000 -1.000000 0.000000
vn 0.000000 0.000000 1.000000
vn 0.000000 0.000000 1.000000
vn 0.000000 0.000000 1.000000
vn 0.000000 0.000000 1.000000
vn 0.000000 1.000000 -0.000000
vn 0.000000 1.000000 -0.000000
vn 0.000000 1.000000 0.000000
vn 0.000000 1.000000 0.000000
vn 0.000000 0.000000 -1.000000
vn 0.000000 0.000000 -1.000000
vn 0.000000 0.000000 -1.000000
vn 0.000000 0.000000 -1.000000
vn 0.000000 -1.000000 0.000000
vn 0.000000 -1.000000 0.000000
vn 0.000000 -1.000000 0.000000
vn 0.000000 -1.000000 0.000000
vn 0.000000 1.000000 0.000000
vn 0.000000 1.000000 0.000000
vn 0.000000 1.000000 -0.000000
vn 0.000000 1.000000 -0.000000
vn 0.000000 1.000000 0.000000
vn 0.000000 1.000000 -0.000000
vn 0.000000 1.000000 -0.000000
vn 0.000000 1.000000 0.000000
vn 0.000000 0.000000 1.000000
vn 0.000000 0.000000 1.000000
vn 0.000000 0.000000 1.000000
vn 0.000000 0.000000 1.000000
vn 0.000000 0.000000 -1.000000
vn -0.000000 0.000000 -1.000000
vn -0.000000 0.000000 -1.000000
vn 0.000000 0.000000 -1.000000
vn 0.000000 0.000000 1.000000
vn 0.000000 0.000000 1.000000
vn 0.000000 0.000000 1.000000
vn 0.000000 0.000000 1.000000
vn -0.000000 0.000000 -1.000000
vn -0.000000 0.000000 -1.000000
vn 0.000000 0.000000 -1.000000
vn 0.000000 0.000000 -1.000000
vn 0.000000 0.000000 1.000000
vn 0.000000 0.000000 1.000000
vn 0.000000 0.000000 1.000000
vn 0.000000 0.000000 1.000000
vn -0.000000 0.000000 -1.000000
vn -0.000000 0.000000 -1.000000
vn -0.000000 0.000000 -1.000000
vn -0.000000 0.000000 -1.000000
vn 0.000000 -1.000000 0.000000
vn 0.000000 -1.000000 0.000000
vn 0.000000 -1.000000 0.000000
vn 0.000000 -1.000000 0.000000
s off
f 4/3/1 3/4/2 21/37/3 22/38/4
f 15/23/5 14/22/6 9/9/7 10/10/8
f 5/5/9 6/6/10 23/39/11 24/40/12
f 11/13/13 12/14/14 13/21/15 16/24/16
f 10/10/17 11/13/18 8/12/19 6/6/20
f 7/11/21 12/14/22 9/9/23 5/5/24
f 9/20/25 3/4/26 4/3/27 10/19/28
f 10/19/29 4/3/30 2/18/31 11/17/32
f 1/15/33 12/16/34 11/17/35 2/18/36
f 1/15/37 3/4/38 9/20/39 12/16/40
f 13/33/41 17/34/42 18/35/43 16/36/44
f 19/29/45 20/30/46 14/31/47 15/32/48
f 17/25/49 13/21/50 12/14/51 7/11/52
f 25/41/53 21/37/54 3/4/55 1/1/56
f 19/27/57 15/23/58 10/10/59 6/6/60
f 27/43/61 23/39/62 6/6/63 8/7/64
f 7/11/65 8/12/66 18/26/67 17/25/68
f 6/6/69 5/5/70 20/28/71 19/27/72
f 9/9/73 14/22/74 20/28/75 5/5/76
f 22/45/77 21/46/78 25/47/79 26/48/80
f 27/49/81 28/50/82 24/51/83 23/52/84
f 1/1/85 2/2/86 26/42/87 25/41/88
f 7/8/89 28/44/90 27/43/91 8/7/92
f 4/3/93 22/38/94 26/42/95 2/2/96
f 5/5/97 24/40/98 28/44/99 7/8/100
f 11/13/101 16/24/102 18/26/103 8/12/104
