# This file uses centimeters as units for non-parametric coordinates.

v 2.777714 0.000000 -4.811172
v -2.777773 0.000000 -4.811172
v -5.555516 0.000000 0.000000
v -2.777773 0.000000 4.811172
v 2.777714 0.000000 4.811172
v 5.555457 0.000000 0.000000
v 1.086682 55.671566 -1.882158
v -1.086712 55.671566 -1.882158
v -2.173424 55.671566 0.000000
v -1.086712 55.671566 1.882187
v 1.086682 55.671566 1.882187
v 2.173365 55.671566 0.000000
v -0.000030 0.000000 0.000000
v -0.000030 55.671566 0.000000
v -1.523877 37.958786 2.639373
v 1.523847 37.958786 2.639373
v 3.047665 37.958786 0.000000
v 1.523847 37.958786 -2.639343
v -1.523847 37.958786 -2.639343
v -3.047694 37.958786 0.000000
v -3.419733 31.040430 5.923097
v 3.419674 31.040430 5.923097
v 6.839377 31.040430 0.000000
v 3.419674 31.040430 -5.923067
v -3.419733 31.040430 -5.923067
v -6.839436 31.040430 0.000000
v -3.419733 2.242054 5.923097
v 3.419674 2.242054 5.923097
v 6.839377 2.242054 0.000000
v 3.419674 2.242054 -5.923067
v -3.419733 2.242054 -5.923067
v -6.839436 2.242054 0.000000
v -1.188062 51.789921 -2.057815
v 1.188032 51.789921 -2.057815
v 2.376123 51.789921 0.000000
v 1.188032 51.789921 2.057815
v -1.188062 51.789921 2.057815
v -2.376153 51.789921 0.000000
v 1.421169 52.058182 -2.461679
v 2.842485 52.058182 0.000000
v 1.421169 52.058182 2.461679
v -1.421228 52.058182 2.461679
v -2.842544 52.058182 0.000000
v -1.421228 52.058182 -2.461679
v -1.364220 54.212925 -2.362956
v 1.364191 54.212925 -2.362956
v 2.728500 54.212925 0.000000
v 1.364191 54.212925 2.362956
v -1.364220 54.212925 2.362956
v -2.728530 54.212925 0.000000
v 6.839377 26.932774 0.000000
v 3.419674 26.932774 5.923097
v -3.419733 26.932774 5.923097
v -6.839436 26.932774 0.000000
v -3.419733 26.932774 -5.923067
v 3.419674 26.932774 -5.923067
v -3.419733 7.643149 -5.923067
v -6.839436 7.643149 0.000000
v -3.419733 7.643149 5.923097
v 3.419615 7.643149 5.923097
v 6.839377 7.643149 0.000000
v 3.419615 7.643149 -5.923067
v 5.129540 26.932774 2.961578
v 5.129540 7.643149 2.961578
v 5.129540 7.643149 -2.961578
v 5.129540 26.932774 -2.961578
v -5.129570 26.932774 -2.961578
v -5.129570 7.643149 -2.961578
v -5.129570 7.643149 2.961578
v -5.129570 26.932774 2.961578
v -2.624139 9.829919 5.923097
v 2.624051 9.829919 5.923097
v 2.624080 24.501146 5.923097
v -2.624139 24.501146 5.923097
v -1.396341 43.448215 -2.418517
v -2.792681 43.448215 0.000000
v -1.396370 43.448215 2.418547
v 1.396282 43.448215 2.418547
v 2.792622 43.448215 0.000000
v 1.396282 43.448215 -2.418517
v -1.359394 45.038914 -2.354532
v -2.718787 45.038914 0.000000
v -1.359423 45.038914 2.354556
v 1.359335 45.038914 2.354556
v 2.718743 45.038914 0.000000
v 1.359335 45.038910 -2.354532
vt 0.115140 0.160062
vt 0.115140 0.160062
vt 0.115140 0.160062
vt 0.115140 0.160062
vt 0.115140 0.160062
vt 0.115140 0.160062
vt 0.115140 0.160062
vt 0.115140 0.160062
vt 0.115140 0.160062
vt 0.115140 0.160062
vt 0.115140 0.160062
vt 0.115140 0.160062
vt 0.115140 0.160062
vt 0.134354 0.205780
vt 0.134354 0.205780
vt 0.113251 0.133731
vt 0.113251 0.133731
vt 0.134354 0.205780
vt 0.113251 0.133731
vt 0.134354 0.205780
vt 0.113251 0.133731
vt 0.134354 0.205780
vt 0.113251 0.133731
vt 0.134354 0.205780
vt 0.113251 0.133731
vt 0.113251 0.110634
vt 0.115140 0.160062
vt 0.113251 0.110634
vt 0.115140 0.160062
vt 0.115140 0.160062
vt 0.115140 0.160062
vt 0.115140 0.160062
vt 0.115140 0.160062
vt 0.115140 0.160062
vt 0.115140 0.160062
vt 0.115140 0.160062
vt 0.115140 0.160062
vt 0.115140 0.160062
vt 0.115140 0.160062
vt 0.115140 0.160062
vt 0.115140 0.160062
vt 0.115140 0.160062
vt 0.115140 0.160062
vt 0.115140 0.160062
vt 0.115140 0.160062
vt 0.115140 0.160062
vt 0.115140 0.160062
vt 0.115140 0.160062
vt 0.115140 0.160062
vt 0.113251 0.110634
vt 0.113251 0.110634
vt 0.113251 0.110634
vt 0.113251 0.110634
vt 0.113251 0.110634
vt 0.113251 0.110634
vt 0.113251 0.110634
vt 0.113251 0.110634
vt 0.113251 0.110634
vt 0.113251 0.110634
vt 0.113251 0.110634
vt 0.113251 0.110634
vt 0.113251 0.110634
vt 0.113251 0.110634
vt 0.113251 0.110634
vt 0.113251 0.110634
vt 0.113251 0.110634
vt 0.115140 0.160062
vt 0.115140 0.160062
vt 0.115140 0.160062
vt 0.115140 0.160062
vt 0.115140 0.160062
vt 0.115140 0.160062
vt 0.115140 0.160062
vt 0.115140 0.160062
vt 0.115140 0.160062
vt 0.115140 0.160062
vt 0.115140 0.160062
vt 0.115140 0.160062
vt 0.115140 0.160062
vt 0.115140 0.160062
vt 0.115140 0.160062
vt 0.115140 0.160062
vt 0.115140 0.160062
vt 0.115140 0.160062
vt 0.115140 0.160062
vt 0.115140 0.160062
vt 0.115140 0.160062
vt 0.115140 0.160062
vt 0.115140 0.160062
vt 0.113245 0.133730
vt 0.113245 0.133730
vt 0.113245 0.133730
vt 0.113245 0.133730
vt 0.113245 0.133730
vt 0.113245 0.133730
vt 0.113245 0.133730
vt 0.113245 0.133730
vt 0.113245 0.133730
vt 0.113245 0.133730
vt 0.113245 0.133730
vt 0.113245 0.133730
vt 0.113245 0.133730
vt 0.113245 0.133730
vt 0.113245 0.133730
vt 0.113245 0.133730
vt 0.113245 0.133730
vt 0.113245 0.133730
vt 0.113245 0.133730
vt 0.113245 0.133730
vt 0.134354 0.205781
vt 0.134354 0.205781
vt 0.134354 0.205782
vt 0.134354 0.205782
vt 0.115140 0.160062
vt 0.115140 0.160062
vt 0.115140 0.160062
vt 0.115140 0.160062
vt 0.115140 0.160062
vt 0.115140 0.160062
vt 0.113251 0.133731
vt 0.113251 0.133731
vt 0.113251 0.133731
vt 0.113251 0.133731
vt 0.113251 0.133731
vt 0.113251 0.133731
vt 0.134354 0.205780
vt 0.134354 0.205780
vt 0.134354 0.205780
vt 0.134354 0.205780
vt 0.134354 0.205780
vt 0.134354 0.205780
vt 0.113251 0.110634
vt 0.113251 0.110634
vt 0.113251 0.110634
vt 0.113251 0.110634
vt 0.113251 0.110634
vt 0.113251 0.110634
vn 0.000000 0.043136 -0.999069
vn 0.000000 0.043136 -0.999069
vn 0.000000 0.040192 -0.999192
vn 0.000000 0.040192 -0.999192
vn -0.865218 0.043138 -0.499537
vn -0.865218 0.043138 -0.499537
vn -0.865324 0.040195 -0.499599
vn -0.865324 0.040195 -0.499599
vn -0.865222 0.043141 0.499529
vn -0.865222 0.043141 0.499529
vn -0.865328 0.040197 0.499592
vn -0.865328 0.040197 0.499592
vn 0.000000 0.043139 0.999069
vn 0.000000 0.043139 0.999069
vn 0.000000 0.040195 0.999192
vn 0.000000 0.040195 0.999192
vn 0.865218 0.043136 0.499536
vn 0.865218 0.043136 0.499536
vn 0.865325 0.040193 0.499596
vn 0.865325 0.040193 0.499596
vn 0.865217 0.043135 -0.499539
vn 0.865217 0.043135 -0.499539
vn 0.865324 0.040192 -0.499599
vn 0.865324 0.040192 -0.499599
vn 0.000000 -1.000000 0.000000
vn 0.000000 -1.000000 0.000000
vn 0.000000 -1.000000 0.000000
vn 0.000000 -1.000000 0.000000
vn 0.000000 -1.000000 0.000000
vn 0.000000 -1.000000 0.000000
vn 0.000000 -1.000000 0.000000
vn 0.000000 -1.000000 0.000000
vn 0.000000 -1.000000 0.000000
vn 0.000000 -1.000000 0.000000
vn 0.000000 -1.000000 0.000000
vn 0.000000 -1.000000 0.000000
vn 0.000000 -1.000000 0.000000
vn 0.000000 -1.000000 0.000000
vn 0.000000 -1.000000 0.000000
vn 0.000000 -1.000000 0.000000
vn 0.000000 -1.000000 0.000000
vn 0.000000 -1.000000 0.000000
vn 0.000000 1.000000 0.000002
vn 0.000000 1.000000 0.000002
vn 0.000000 1.000000 0.000002
vn 0.000000 1.000000 -0.000002
vn 0.000000 1.000000 -0.000002
vn 0.000000 1.000000 -0.000002
vn 0.000000 1.000000 0.000004
vn 0.000000 1.000000 0.000004
vn 0.000000 1.000000 0.000004
vn 0.000000 1.000000 -0.000002
vn 0.000000 1.000000 -0.000002
vn 0.000000 1.000000 -0.000002
vn 0.000000 1.000000 0.000002
vn 0.000000 1.000000 0.000002
vn 0.000000 1.000000 0.000002
vn 0.000000 1.000000 -0.000004
vn 0.000000 1.000000 -0.000004
vn 0.000000 1.000000 -0.000004
vn 0.000000 0.428791 0.903404
vn 0.000000 0.428791 0.903404
vn 0.000000 0.428791 0.903404
vn 0.000000 0.428791 0.903404
vn 0.782372 0.428789 0.451701
vn 0.782372 0.428789 0.451701
vn 0.782372 0.428789 0.451701
vn 0.782372 0.428789 0.451701
vn 0.782371 0.428789 -0.451703
vn 0.782371 0.428789 -0.451703
vn 0.782371 0.428789 -0.451703
vn 0.782371 0.428789 -0.451703
vn 0.000000 0.428791 -0.903404
vn 0.000000 0.428791 -0.903404
vn 0.000000 0.428791 -0.903404
vn 0.000000 0.428791 -0.903404
vn -0.782368 0.428794 -0.451704
vn -0.782368 0.428794 -0.451704
vn -0.782368 0.428793 -0.451704
vn -0.782368 0.428794 -0.451704
vn -0.782371 0.428792 0.451700
vn -0.782371 0.428792 0.451700
vn -0.782371 0.428792 0.451700
vn -0.782371 0.428792 0.451700
vn 0.000000 0.000000 1.000000
vn 0.000000 0.000000 1.000000
vn 0.000000 0.000000 1.000000
vn 0.000000 0.000000 1.000000
vn 0.866029 0.000000 0.499993
vn 0.866029 0.000000 0.499993
vn 0.866029 0.000000 0.499993
vn 0.866029 0.000000 0.499993
vn 0.866029 0.000000 -0.499993
vn 0.866029 0.000000 -0.499993
vn 0.866029 0.000000 -0.499993
vn 0.866029 0.000000 -0.499993
vn 0.000000 0.000000 -1.000000
vn 0.000000 0.000000 -1.000000
vn 0.000000 0.000000 -1.000000
vn 0.000000 0.000000 -1.000000
vn -0.866026 0.000000 -0.500000
vn -0.866026 0.000000 -0.500000
vn -0.866026 0.000000 -0.500000
vn -0.866026 0.000000 -0.500000
vn -0.866026 0.000000 0.500000
vn -0.866026 0.000000 0.500000
vn -0.866026 0.000000 0.500000
vn -0.866026 0.000000 0.500000
vn 0.000000 -0.444301 0.895877
vn 0.000000 -0.444301 0.895877
vn 0.000000 -0.444301 0.895877
vn 0.000000 -0.444301 0.895877
vn 0.775854 -0.444297 0.447940
vn 0.775854 -0.444297 0.447940
vn 0.775854 -0.444297 0.447940
vn 0.775854 -0.444297 0.447940
vn 0.775854 -0.444295 -0.447942
vn 0.775854 -0.444295 -0.447942
vn 0.775854 -0.444295 -0.447942
vn 0.775854 -0.444295 -0.447942
vn 0.000000 -0.444292 -0.895882
vn 0.000000 -0.444292 -0.895882
vn 0.000000 -0.444292 -0.895882
vn 0.000000 -0.444292 -0.895882
vn -0.775854 -0.444295 -0.447942
vn -0.775854 -0.444295 -0.447942
vn -0.775854 -0.444295 -0.447942
vn -0.775854 -0.444295 -0.447942
vn -0.775854 -0.444297 0.447940
vn -0.775854 -0.444297 0.447940
vn -0.775854 -0.444297 0.447940
vn -0.775854 -0.444297 0.447940
vn 0.000000 -0.911869 -0.410481
vn 0.000000 -0.911869 -0.410481
vn 0.000000 -0.911869 -0.410481
vn 0.000000 -0.911869 -0.410481
vn 0.355493 -0.911865 -0.205250
vn 0.355493 -0.911865 -0.205250
vn 0.355493 -0.911865 -0.205250
vn 0.355493 -0.911865 -0.205250
vn 0.355493 -0.911864 0.205254
vn 0.355493 -0.911864 0.205254
vn 0.355493 -0.911864 0.205254
vn 0.355493 -0.911864 0.205254
vn 0.000000 -0.911871 0.410477
vn 0.000000 -0.911871 0.410477
vn 0.000000 -0.911871 0.410477
vn 0.000000 -0.911871 0.410477
vn -0.355474 -0.911874 0.205239
vn -0.355474 -0.911874 0.205239
vn -0.355474 -0.911874 0.205239
vn -0.355474 -0.911874 0.205239
vn -0.355474 -0.911874 -0.205241
vn -0.355474 -0.911874 -0.205241
vn -0.355474 -0.911874 -0.205241
vn -0.355474 -0.911874 -0.205241
vn 0.864045 0.067441 -0.498877
vn 0.864045 0.067441 -0.498877
vn 0.864045 0.067441 -0.498877
vn 0.864045 0.067441 -0.498877
vn 0.864044 0.067441 0.498878
vn 0.864044 0.067441 0.498878
vn 0.864044 0.067441 0.498878
vn 0.864044 0.067441 0.498878
vn 0.000000 0.067449 0.997723
vn 0.000000 0.067449 0.997723
vn 0.000000 0.067449 0.997723
vn 0.000000 0.067449 0.997723
vn -0.864043 0.067459 0.498878
vn -0.864043 0.067459 0.498878
vn -0.864043 0.067459 0.498878
vn -0.864043 0.067459 0.498878
vn -0.864044 0.067459 -0.498877
vn -0.864044 0.067459 -0.498877
vn -0.864044 0.067459 -0.498877
vn -0.864044 0.067459 -0.498877
vn 0.000000 0.067449 -0.997723
vn 0.000000 0.067449 -0.997723
vn 0.000000 0.067449 -0.997723
vn 0.000000 0.067449 -0.997723
vn 0.000000 0.437381 -0.899276
vn 0.000000 0.437381 -0.899276
vn 0.000000 0.437381 -0.899276
vn 0.000000 0.437381 -0.899276
vn 0.778807 0.437341 -0.449659
vn 0.778807 0.437341 -0.449659
vn 0.778807 0.437341 -0.449659
vn 0.778807 0.437341 -0.449659
vn 0.778810 0.437336 0.449658
vn 0.778810 0.437336 0.449658
vn 0.778810 0.437336 0.449658
vn 0.778810 0.437336 0.449658
vn 0.000000 0.437360 0.899287
vn 0.000000 0.437360 0.899287
vn 0.000000 0.437360 0.899287
vn 0.000000 0.437360 0.899287
vn -0.778812 0.437326 0.449664
vn -0.778812 0.437326 0.449664
vn -0.778812 0.437326 0.449664
vn -0.778812 0.437326 0.449664
vn -0.778808 0.437332 -0.449665
vn -0.778808 0.437332 -0.449665
vn -0.778808 0.437332 -0.449665
vn -0.778808 0.437332 -0.449665
vn 0.866029 0.000000 0.499993
vn 0.866029 0.000000 0.499993
vn 0.866029 0.000000 0.499993
vn 0.000000 0.000000 1.000000
vn 0.000000 0.000000 1.000000
vn 0.000000 0.000000 1.000000
vn 0.000000 0.000000 1.000000
vn -0.866026 0.000000 0.500000
vn -0.866025 0.000000 0.500000
vn -0.866025 0.000000 0.500000
vn -0.866025 0.000000 -0.500000
vn -0.866025 0.000000 -0.500000
vn -0.866026 0.000000 -0.500000
vn 0.000000 0.000000 -1.000000
vn 0.000000 0.000000 -1.000000
vn 0.000000 0.000000 -1.000000
vn 0.000000 0.000000 -1.000000
vn 0.866029 0.000000 -0.499993
vn 0.866029 0.000000 -0.499993
vn 0.866029 0.000000 -0.499993
vn -0.866026 0.000000 -0.500000
vn -0.866026 0.000000 -0.500000
vn -0.866026 0.000000 -0.500000
vn -0.866026 0.000000 0.500000
vn -0.866026 0.000000 0.500000
vn -0.866026 0.000000 0.500000
vn 0.000000 0.000000 1.000000
vn 0.000000 0.000000 1.000000
vn 0.000000 0.000000 1.000000
vn 0.000000 0.000000 1.000000
vn 0.866029 0.000000 0.499993
vn 0.866029 0.000000 0.499993
vn 0.866029 0.000000 0.499993
vn 0.866029 0.000000 -0.499993
vn 0.866029 0.000000 -0.499993
vn 0.866029 0.000000 -0.499993
vn 0.000000 0.000000 -1.000000
vn 0.000000 0.000000 -1.000000
vn 0.000000 0.000000 -1.000000
vn 0.000000 0.000000 -1.000000
vn 0.866024 0.000005 0.500002
vn 0.866024 0.000005 0.500002
vn 0.866024 0.000005 0.500002
vn 0.866024 0.000005 0.500002
vn 0.866018 -0.000001 0.500014
vn 0.866018 -0.000001 0.500014
vn 0.866018 -0.000001 0.500014
vn 0.866018 -0.000001 0.500014
vn 0.866021 -0.000000 0.500007
vn 0.866021 -0.000000 0.500007
vn 0.866022 -0.000000 0.500007
vn 0.866022 -0.000000 0.500007
vn 0.866020 -0.000001 -0.500009
vn 0.866020 -0.000001 -0.500009
vn 0.866020 -0.000001 -0.500009
vn 0.866020 -0.000001 -0.500009
vn 0.866015 -0.000001 -0.500017
vn 0.866015 -0.000001 -0.500017
vn 0.866015 -0.000001 -0.500017
vn 0.866015 -0.000001 -0.500017
vn 0.866023 0.000006 -0.500005
vn 0.866023 0.000006 -0.500005
vn 0.866023 0.000006 -0.500005
vn 0.866023 0.000006 -0.500005
vn -0.866024 0.000002 -0.500003
vn -0.866024 0.000002 -0.500003
vn -0.866024 0.000002 -0.500003
vn -0.866024 0.000002 -0.500003
vn -0.866023 0.000000 -0.500004
vn -0.866023 0.000000 -0.500004
vn -0.866023 0.000000 -0.500004
vn -0.866023 0.000000 -0.500004
vn -0.866024 -0.000001 -0.500003
vn -0.866024 -0.000001 -0.500003
vn -0.866024 -0.000001 -0.500003
vn -0.866024 -0.000001 -0.500003
vn -0.866025 -0.000000 0.500000
vn -0.866025 -0.000000 0.500000
vn -0.866025 -0.000000 0.500000
vn -0.866025 -0.000000 0.500000
vn -0.866025 0.000000 0.500001
vn -0.866025 0.000000 0.500001
vn -0.866025 0.000000 0.500001
vn -0.866025 0.000000 0.500001
vn -0.866025 0.000000 0.500000
vn -0.866025 0.000000 0.500000
vn -0.866025 0.000000 0.500000
vn -0.866025 0.000000 0.500000
vn 0.000000 0.000000 1.000000
vn 0.000000 0.000000 1.000000
vn 0.000000 0.000000 1.000000
vn 0.000000 0.000000 1.000000
vn -0.000001 0.000000 1.000000
vn -0.000001 0.000000 1.000000
vn -0.000001 0.000000 1.000000
vn -0.000001 0.000000 1.000000
vn 0.000000 0.000000 1.000000
vn 0.000000 0.000000 1.000000
vn 0.000000 0.000000 1.000000
vn 0.000000 0.000000 1.000000
vn 0.000000 0.000000 1.000000
vn 0.000000 0.000000 1.000000
vn 0.000000 0.000000 1.000000
vn 0.000000 0.000000 1.000000
vn -0.865323 0.040198 -0.499600
vn -0.865323 0.040198 -0.499600
vn -0.865323 0.040198 -0.499600
vn -0.865323 0.040198 -0.499600
vn -0.865330 0.040198 0.499588
vn -0.865330 0.040198 0.499588
vn -0.865330 0.040198 0.499588
vn -0.865330 0.040198 0.499588
vn 0.000000 0.040195 0.999192
vn 0.000000 0.040195 0.999192
vn 0.000000 0.040195 0.999192
vn 0.000000 0.040195 0.999192
vn 0.865328 0.040205 0.499591
vn 0.865328 0.040205 0.499591
vn 0.865328 0.040205 0.499591
vn 0.865328 0.040205 0.499591
vn 0.865325 0.040205 -0.499596
vn 0.865325 0.040205 -0.499596
vn 0.865325 0.040205 -0.499596
vn 0.865325 0.040205 -0.499596
vn 0.000000 0.040195 -0.999192
vn 0.000000 0.040195 -0.999192
vn 0.000000 0.040195 -0.999192
vn 0.000000 0.040195 -0.999192
vn -0.865324 0.040195 -0.499599
vn -0.865324 0.040195 -0.499599
vn -0.865218 0.043138 -0.499537
vn -0.865218 0.043138 -0.499537
vn -0.865328 0.040197 0.499592
vn -0.865328 0.040197 0.499592
vn -0.865222 0.043141 0.499529
vn -0.865222 0.043141 0.499529
vn 0.000000 0.040195 0.999192
vn 0.000000 0.040195 0.999192
vn 0.000000 0.043139 0.999069
vn 0.000000 0.043139 0.999069
vn 0.865325 0.040193 0.499596
vn 0.865325 0.040193 0.499596
vn 0.865218 0.043136 0.499536
vn 0.865218 0.043136 0.499536
vn 0.865324 0.040192 -0.499599
vn 0.865324 0.040192 -0.499599
vn 0.865217 0.043135 -0.499539
vn 0.865217 0.043135 -0.499539
vn 0.000000 0.040192 -0.999192
vn 0.000000 0.040192 -0.999192
vn 0.000000 0.043136 -0.999069
vn 0.000000 0.043136 -0.999069
s off
f 86/125/1 81/120/2 33/16/3 34/17/4
f 81/120/5 82/121/6 38/19/7 33/16/8
f 82/121/9 83/122/10 37/21/11 38/19/12
f 83/122/13 84/123/14 36/23/15 37/21/16
f 84/123/17 85/124/18 35/25/19 36/23/20
f 85/124/21 86/125/22 34/17/23 35/25/24
f 2/2/25 1/1/26 13/27/27
f 3/3/28 2/2/29 13/27/30
f 4/4/31 3/3/32 13/27/33
f 5/5/34 4/4/35 13/27/36
f 6/6/37 5/5/38 13/27/39
f 1/1/40 6/6/41 13/27/42
f 7/26/43 8/28/44 14/50/45
f 8/28/46 9/51/47 14/50/48
f 9/51/49 10/52/50 14/50/51
f 10/52/52 11/53/53 14/50/54
f 11/53/55 12/54/56 14/50/57
f 12/54/58 7/26/59 14/50/60
f 21/36/61 22/37/62 16/30/63 15/29/64
f 22/37/65 23/38/66 17/31/67 16/30/68
f 23/38/69 24/39/70 18/32/71 17/31/72
f 24/40/73 25/41/74 19/34/75 18/33/76
f 25/41/77 26/42/78 20/35/79 19/34/80
f 26/42/81 21/36/82 15/29/83 20/35/84
f 71/110/85 72/111/86 73/112/87 74/113/88
f 63/82/89 64/83/90 61/79/91 51/68/92
f 61/79/93 65/84/94 66/85/95 51/68/96
f 62/94/97 57/95/98 55/96/99 56/97/100
f 67/86/101 68/87/102 58/76/103 54/71/104
f 58/76/105 69/88/106 70/89/107 54/71/108
f 4/10/109 5/11/110 28/44/111 27/43/112
f 5/11/113 6/12/114 29/45/115 28/44/116
f 6/12/117 1/13/118 30/46/119 29/45/120
f 1/7/121 2/8/122 31/48/123 30/47/124
f 2/8/125 3/9/126 32/49/127 31/48/128
f 3/9/129 4/10/130 27/43/131 32/49/132
f 34/55/133 33/56/134 44/57/135 39/58/136
f 35/59/137 34/55/138 39/58/139 40/60/140
f 36/61/141 35/59/142 40/60/143 41/62/144
f 37/63/145 36/61/146 41/62/147 42/64/148
f 38/65/149 37/63/150 42/64/151 43/66/152
f 33/56/153 38/65/154 43/66/155 44/57/156
f 40/60/157 39/58/158 46/132/159 47/133/160
f 41/62/161 40/60/162 47/133/163 48/134/164
f 42/64/165 41/62/166 48/134/167 49/135/168
f 43/66/169 42/64/170 49/135/171 50/136/172
f 44/57/173 43/66/174 50/136/175 45/137/176
f 39/58/177 44/57/178 45/137/179 46/132/180
f 46/132/181 45/137/182 8/28/183 7/26/184
f 47/133/185 46/132/186 7/26/187 12/54/188
f 48/134/189 47/133/190 12/54/191 11/53/192
f 49/135/193 48/134/194 11/53/195 10/52/196
f 50/136/197 49/135/198 10/52/199 9/51/200
f 45/137/201 50/136/202 9/51/203 8/28/204
f 23/38/205 63/82/206 51/68/207
f 53/70/208 52/69/209 22/37/210 21/36/211
f 54/71/212 70/89/213 26/42/214
f 26/42/215 67/86/216 54/71/217
f 56/74/218 55/72/219 25/41/220 24/40/221
f 51/68/222 66/85/223 23/38/224
f 68/87/225 32/49/226 58/76/227
f 32/49/228 69/88/229 58/76/230
f 27/43/231 28/44/232 60/78/233 59/77/234
f 64/83/235 29/45/236 61/79/237
f 29/45/238 65/84/239 61/79/240
f 30/47/241 31/48/242 57/75/243 62/81/244
f 52/69/245 63/82/246 23/38/247 22/37/248
f 60/91/249 64/98/250 63/99/251 52/92/252
f 28/44/253 29/45/254 64/83/255 60/78/256
f 29/45/257 30/46/258 62/80/259 65/84/260
f 66/100/261 65/101/262 62/94/263 56/97/264
f 23/38/265 66/85/266 56/73/267 24/39/268
f 55/72/269 67/86/270 26/42/271 25/41/272
f 57/95/273 68/102/274 67/103/275 55/96/276
f 31/48/277 32/49/278 68/87/279 57/75/280
f 32/49/281 27/43/282 59/77/283 69/88/284
f 70/104/285 69/105/286 59/90/287 53/93/288
f 26/42/289 70/89/290 53/70/291 21/36/292
f 59/90/293 60/91/294 72/107/295 71/106/296
f 60/91/297 52/92/298 73/108/299 72/107/300
f 52/92/301 53/93/302 74/109/303 73/108/304
f 53/93/305 59/90/306 71/106/307 74/109/308
f 19/34/309 20/35/310 76/115/311 75/114/312
f 20/35/313 15/29/314 77/116/315 76/115/316
f 15/29/317 16/30/318 78/117/319 77/116/320
f 16/30/321 17/31/322 79/118/323 78/117/324
f 17/31/325 18/32/326 80/119/327 79/118/328
f 18/33/329 19/34/330 75/114/331 80/67/332
f 75/14/333 76/15/334 82/18/335 81/20/336
f 76/15/337 77/22/338 83/24/339 82/18/340
f 77/22/341 78/126/342 84/127/343 83/24/344
f 78/126/345 79/128/346 85/129/347 84/127/348
f 79/128/349 80/130/350 86/131/351 85/129/352
f 80/130/353 75/14/354 81/20/355 86/131/356
