# This file uses centimeters as units for non-parametric coordinates.

v 0.000000 8.098894 -0.000000
v 0.000000 5.067264 -28.304800
v 0.000000 -8.098894 -0.000000
v 0.000000 -5.067264 -27.296375
v 0.000000 -0.000000 -30.991344
v 15.215359 5.067264 0.000000
v 14.107319 5.067264 -27.040176
v 18.513226 -0.000000 -29.475431
v 13.478909 -5.067264 0.000000
v 12.453512 -5.067264 -26.126078
v 20.052023 1.438939 0.000000
v 18.713783 1.438939 -27.040176
v 17.954823 -1.438939 0.000000
v 16.716400 -1.438939 -26.126076
v 22.845873 0.719397 0.000000
v 22.803522 -0.530991 0.000000
v 21.334333 -0.530991 -28.239466
v 21.374664 0.719397 -28.257925
v 13.075918 -0.000000 -29.785540
v 0.000000 5.067264 28.304800
v 0.000000 -5.067264 27.296375
v 0.000000 -0.000000 30.991344
v 14.107320 5.067264 27.040178
v 18.513226 -0.000000 29.475430
v 12.453512 -5.067264 26.126076
v 18.713783 1.438939 27.040178
v 16.716398 -1.438939 26.126078
v 21.334333 -0.530991 28.239466
v 21.374664 0.719397 28.257925
v 13.075918 -0.000000 29.785540
v -15.215347 5.067264 0.000000
v -14.107316 5.067264 -27.040178
v -18.513226 -0.000000 -29.475430
v -13.478897 -5.067264 0.000000
v -12.453512 -5.067264 -26.126076
v -20.052023 1.438939 0.000000
v -18.713778 1.438939 -27.040178
v -17.954819 -1.438939 0.000000
v -16.716398 -1.438939 -26.126078
v -22.845873 0.719397 0.000000
v -22.803518 -0.530991 0.000000
v -21.334330 -0.530991 -28.239466
v -21.374664 0.719397 -28.257925
v -13.075918 -0.000000 -29.785540
v -14.107315 5.067264 27.040176
v -18.513226 -0.000000 29.475431
v -12.453512 -5.067264 26.126078
v -18.713776 1.438939 27.040176
v -16.716400 -1.438939 26.126076
v -21.334330 -0.530991 28.239466
v -21.374664 0.719397 28.257925
v -13.075918 -0.000000 29.785540
v -3.143774 7.472502 5.848307
v -12.071567 5.693657 5.848307
v -11.421417 5.693657 21.714460
v -3.143774 5.693657 22.456493
v 3.368379 7.427752 0.000000
v 3.123078 5.067264 28.024839
v 2.894752 -0.000000 30.724403
v 2.756960 -5.067264 27.037296
v 2.983960 -7.427752 0.000000
v 2.756960 -5.067264 -27.037296
v 2.894751 -0.000000 -30.724401
v 3.123078 5.067264 -28.024837
v 9.898117 -5.872643 0.000000
v 9.145128 -5.067264 26.436977
v 9.602183 -0.000000 30.105871
v 10.359588 5.067264 27.376135
v 11.173265 5.872643 0.000000
v 10.359588 5.067264 -27.376135
v 9.602184 -0.000000 -30.105873
v 9.145128 -5.067264 -26.436979
vt 0.133308 0.375889
vt 0.133308 0.375888
vt 0.133308 0.375888
vt 0.133308 0.375888
vt 0.133308 0.375888
vt 0.133308 0.375888
vt 0.133308 0.375888
vt 0.133308 0.375888
vt 0.133308 0.375889
vt 0.133308 0.375889
vt 0.133308 0.375889
vt 0.133308 0.375889
vt 0.133308 0.375889
vt 0.133308 0.375889
vt 0.133308 0.375889
vt 0.133308 0.375889
vt 0.133308 0.375889
vt 0.133308 0.375889
vt 0.133308 0.375889
vt 0.133308 0.375888
vt 0.133308 0.375888
vt 0.133308 0.375888
vt 0.133308 0.375888
vt 0.133308 0.375889
vt 0.133308 0.375889
vt 0.133308 0.375889
vt 0.133308 0.375889
vt 0.133308 0.375889
vt 0.133308 0.375889
vt 0.133308 0.375889
vt 0.133308 0.375888
vt 0.133308 0.375888
vt 0.133308 0.375888
vt 0.133308 0.375888
vt 0.133308 0.375889
vt 0.133308 0.375889
vt 0.133308 0.375889
vt 0.133308 0.375889
vt 0.133308 0.375889
vt 0.133308 0.375889
vt 0.133308 0.375889
vt 0.133308 0.375889
vt 0.133308 0.375889
vt 0.133308 0.375889
vt 0.133308 0.375888
vt 0.133308 0.375888
vt 0.133308 0.375889
vt 0.133308 0.375889
vt 0.133308 0.375889
vt 0.133308 0.375889
vt 0.133308 0.375889
vt 0.133308 0.375889
vt 0.133308 0.375889
vt 0.133308 0.375888
vt 0.133308 0.375888
vt 0.133308 0.375888
vt 0.145267 0.491195
vt 0.145271 0.491195
vt 0.145271 0.491195
vt 0.145267 0.491195
vt 0.133308 0.375889
vt 0.133308 0.375888
vt 0.133308 0.375889
vt 0.133308 0.375888
vt 0.133308 0.375888
vt 0.133308 0.375888
vt 0.133308 0.375889
vt 0.133308 0.375888
vt 0.133308 0.375888
vt 0.133308 0.375888
vt 0.133308 0.375889
vt 0.133308 0.375888
vt 0.133308 0.375888
vt 0.133308 0.375888
vt 0.133308 0.375889
vt 0.133308 0.375888
vt 0.009060 0.487363
vt 0.009060 0.487363
vt 0.009060 0.487363
vt 0.009060 0.487363
vt 0.009060 0.487363
vt 0.009060 0.487363
vt 0.009060 0.487363
vt 0.009060 0.487363
vt 0.009060 0.487363
vt 0.009060 0.487363
vt 0.009060 0.487363
vt 0.009060 0.487363
vt 0.009060 0.487363
vt 0.009060 0.487363
vt 0.009060 0.487363
vt 0.009060 0.487363
vn 0.105169 0.992718 -0.058739
vn 0.105169 0.992718 -0.058739
vn 0.105169 0.992718 -0.058739
vn 0.105169 0.992718 -0.058739
vn 0.118608 -0.991075 -0.060849
vn 0.118608 -0.991075 -0.060849
vn 0.118608 -0.991075 -0.060849
vn 0.118608 -0.991075 -0.060849
vn 0.609095 0.792619 -0.027552
vn 0.609095 0.792619 -0.027552
vn 0.609095 0.792619 -0.027552
vn 0.609095 0.792619 -0.027552
vn 0.396986 -0.026349 -0.917446
vn 0.396986 -0.026349 -0.917446
vn 0.396986 -0.026349 -0.917446
vn 0.638604 -0.769038 -0.027667
vn 0.638604 -0.769038 -0.027667
vn 0.638604 -0.769038 -0.027667
vn 0.638604 -0.769038 -0.027667
vn 0.998092 -0.033383 -0.051946
vn 0.998092 -0.033383 -0.051946
vn 0.998092 -0.033383 -0.051946
vn 0.998092 -0.033383 -0.051946
vn 0.252396 0.967539 -0.012823
vn 0.252396 0.967539 -0.012823
vn 0.252396 0.967539 -0.012823
vn 0.252396 0.967539 -0.012823
vn 0.186379 -0.982434 -0.009282
vn 0.186379 -0.982434 -0.009282
vn 0.186379 -0.982434 -0.009282
vn 0.186379 -0.982434 -0.009282
vn 0.233072 0.578363 -0.781776
vn 0.233072 0.578363 -0.781776
vn 0.233072 0.578363 -0.781776
vn 0.233072 0.578363 -0.781776
vn 0.298942 -0.748633 -0.591761
vn 0.298942 -0.748633 -0.591761
vn 0.298942 -0.748633 -0.591761
vn 0.298942 -0.748633 -0.591761
vn 0.000000 0.860938 -0.508710
vn 0.000000 0.860938 -0.508710
vn 0.000000 0.860938 -0.508710
vn 0.000000 -0.918797 -0.394731
vn 0.000000 -0.918797 -0.394731
vn 0.000000 -0.918797 -0.394731
vn 0.080144 0.464640 -0.881865
vn 0.080144 0.464640 -0.881865
vn 0.080144 0.464640 -0.881865
vn 0.080144 0.464640 -0.881865
vn 0.074916 -0.588636 -0.804919
vn 0.074916 -0.588636 -0.804919
vn 0.074916 -0.588636 -0.804919
vn 0.074916 -0.588636 -0.804919
vn 0.105169 0.992718 0.058739
vn 0.105169 0.992718 0.058739
vn 0.105169 0.992718 0.058739
vn 0.105169 0.992718 0.058739
vn 0.118608 -0.991075 0.060849
vn 0.118608 -0.991075 0.060849
vn 0.118608 -0.991075 0.060849
vn 0.118608 -0.991075 0.060849
vn 0.609095 0.792619 0.027552
vn 0.609095 0.792619 0.027552
vn 0.609095 0.792619 0.027552
vn 0.609095 0.792619 0.027552
vn 0.396986 -0.026351 0.917446
vn 0.396986 -0.026351 0.917446
vn 0.396986 -0.026351 0.917446
vn 0.638604 -0.769038 0.027667
vn 0.638604 -0.769038 0.027667
vn 0.638604 -0.769038 0.027667
vn 0.638604 -0.769038 0.027667
vn 0.998092 -0.033383 0.051946
vn 0.998092 -0.033383 0.051946
vn 0.998092 -0.033383 0.051946
vn 0.998092 -0.033383 0.051946
vn 0.252396 0.967539 0.012823
vn 0.252396 0.967539 0.012823
vn 0.252396 0.967539 0.012823
vn 0.252396 0.967539 0.012823
vn 0.186379 -0.982434 0.009282
vn 0.186379 -0.982434 0.009282
vn 0.186379 -0.982434 0.009282
vn 0.186379 -0.982434 0.009282
vn 0.233072 0.578363 0.781776
vn 0.233072 0.578363 0.781776
vn 0.233072 0.578363 0.781776
vn 0.233072 0.578363 0.781776
vn 0.298942 -0.748634 0.591761
vn 0.298942 -0.748634 0.591761
vn 0.298942 -0.748634 0.591761
vn 0.298942 -0.748634 0.591761
vn 0.000000 0.860938 0.508710
vn 0.000000 0.860938 0.508710
vn 0.000000 0.860938 0.508710
vn 0.000000 -0.918797 0.394731
vn 0.000000 -0.918797 0.394731
vn 0.000000 -0.918797 0.394731
vn 0.080144 0.464640 0.881865
vn 0.080144 0.464640 0.881865
vn 0.080144 0.464640 0.881865
vn 0.080144 0.464640 0.881865
vn 0.074916 -0.588636 0.804919
vn 0.074916 -0.588636 0.804919
vn 0.074916 -0.588636 0.804919
vn 0.074916 -0.588636 0.804919
vn -0.105086 0.992857 -0.056490
vn -0.105086 0.992857 -0.056490
vn -0.105086 0.992857 -0.056490
vn -0.105086 0.992857 -0.056490
vn -0.118520 -0.991225 -0.058525
vn -0.118520 -0.991225 -0.058525
vn -0.118520 -0.991225 -0.058525
vn -0.118520 -0.991225 -0.058525
vn -0.609094 0.792619 -0.027552
vn -0.609094 0.792619 -0.027552
vn -0.609094 0.792619 -0.027552
vn -0.609094 0.792619 -0.027552
vn -0.396987 -0.026351 -0.917446
vn -0.396987 -0.026351 -0.917446
vn -0.396987 -0.026351 -0.917446
vn -0.638604 -0.769038 -0.027667
vn -0.638604 -0.769038 -0.027667
vn -0.638604 -0.769038 -0.027667
vn -0.638604 -0.769038 -0.027667
vn -0.998092 -0.033386 -0.051946
vn -0.998092 -0.033386 -0.051946
vn -0.998092 -0.033386 -0.051946
vn -0.998092 -0.033386 -0.051946
vn -0.252396 0.967539 -0.012823
vn -0.252396 0.967539 -0.012823
vn -0.252396 0.967539 -0.012823
vn -0.252396 0.967539 -0.012823
vn -0.186379 -0.982434 -0.009282
vn -0.186379 -0.982434 -0.009282
vn -0.186379 -0.982434 -0.009282
vn -0.186379 -0.982434 -0.009282
vn -0.233072 0.578363 -0.781776
vn -0.233072 0.578363 -0.781776
vn -0.233072 0.578363 -0.781776
vn -0.233072 0.578363 -0.781776
vn -0.298942 -0.748634 -0.591761
vn -0.298942 -0.748634 -0.591761
vn -0.298942 -0.748634 -0.591761
vn -0.298942 -0.748634 -0.591761
vn -0.000000 0.860938 -0.508710
vn -0.000000 0.860938 -0.508710
vn -0.000000 0.860938 -0.508710
vn -0.000000 -0.918797 -0.394731
vn -0.000000 -0.918797 -0.394731
vn -0.000000 -0.918797 -0.394731
vn -0.080149 0.464535 -0.881920
vn -0.080149 0.464535 -0.881920
vn -0.080149 0.464535 -0.881920
vn -0.080149 0.464535 -0.881920
vn -0.074913 -0.588688 -0.804882
vn -0.074913 -0.588688 -0.804882
vn -0.074913 -0.588688 -0.804882
vn -0.074913 -0.588688 -0.804882
vn -0.105086 0.992857 0.056490
vn -0.105086 0.992857 0.056490
vn -0.105086 0.992857 0.056490
vn -0.105086 0.992857 0.056490
vn -0.118520 -0.991225 0.058525
vn -0.118520 -0.991225 0.058525
vn -0.118520 -0.991225 0.058525
vn -0.118520 -0.991225 0.058525
vn -0.609094 0.792619 0.027552
vn -0.609094 0.792619 0.027552
vn -0.609094 0.792619 0.027552
vn -0.609094 0.792619 0.027552
vn -0.396987 -0.026353 0.917446
vn -0.396987 -0.026353 0.917446
vn -0.396987 -0.026353 0.917446
vn -0.638604 -0.769038 0.027667
vn -0.638604 -0.769038 0.027667
vn -0.638604 -0.769038 0.027667
vn -0.638604 -0.769038 0.027667
vn -0.998092 -0.033386 0.051946
vn -0.998092 -0.033386 0.051946
vn -0.998092 -0.033386 0.051946
vn -0.998092 -0.033386 0.051946
vn -0.252396 0.967539 0.012823
vn -0.252396 0.967539 0.012823
vn -0.252396 0.967539 0.012823
vn -0.252396 0.967539 0.012823
vn -0.186379 -0.982434 0.009282
vn -0.186379 -0.982434 0.009282
vn -0.186379 -0.982434 0.009282
vn -0.186379 -0.982434 0.009282
vn -0.233072 0.578363 0.781776
vn -0.233072 0.578363 0.781776
vn -0.233072 0.578363 0.781776
vn -0.233072 0.578363 0.781776
vn -0.298942 -0.748633 0.591761
vn -0.298942 -0.748633 0.591761
vn -0.298942 -0.748633 0.591761
vn -0.298942 -0.748633 0.591761
vn -0.000000 0.860938 0.508710
vn -0.000000 0.860938 0.508710
vn -0.000000 0.860938 0.508710
vn -0.000000 -0.918797 0.394730
vn -0.000000 -0.918797 0.394730
vn -0.000000 -0.918797 0.394730
vn -0.080149 0.464535 0.881920
vn -0.080149 0.464535 0.881920
vn -0.080149 0.464535 0.881920
vn -0.080149 0.464535 0.881920
vn -0.074913 -0.588688 0.804882
vn -0.074913 -0.588688 0.804882
vn -0.074913 -0.588688 0.804882
vn -0.074913 -0.588688 0.804882
vn -0.195407 0.980722 0.000000
vn -0.195407 0.980722 0.000000
vn -0.195407 0.980722 0.000000
vn -0.195407 0.980722 0.000000
vn -0.210834 0.977484 0.008639
vn -0.210834 0.977484 0.008639
vn -0.210834 0.977484 0.008639
vn -0.210834 0.977484 0.008639
vn -0.010024 0.993678 0.111818
vn -0.010024 0.993678 0.111818
vn -0.010024 0.993678 0.111818
vn -0.010024 0.993678 0.111818
vn 0.000000 0.994313 0.106497
vn 0.000000 0.994313 0.106497
vn 0.000000 0.994313 0.106497
vn 0.000000 0.994313 0.106497
vn 0.106435 0.989751 0.095207
vn 0.106435 0.989751 0.095207
vn 0.106435 0.989751 0.095207
vn 0.106435 0.989751 0.095207
vn 0.080061 0.466387 0.880950
vn 0.080061 0.466387 0.880950
vn 0.080061 0.466387 0.880950
vn 0.080061 0.466387 0.880950
vn 0.074974 -0.587781 0.805539
vn 0.074974 -0.587781 0.805539
vn 0.074974 -0.587781 0.805539
vn 0.074974 -0.587781 0.805539
vn 0.119935 -0.987879 0.098539
vn 0.119935 -0.987879 0.098539
vn 0.119935 -0.987879 0.098539
vn 0.119935 -0.987879 0.098539
vn 0.119935 -0.987879 -0.098539
vn 0.119935 -0.987879 -0.098539
vn 0.119935 -0.987879 -0.098539
vn 0.119935 -0.987879 -0.098539
vn 0.074974 -0.587781 -0.805539
vn 0.074974 -0.587781 -0.805539
vn 0.074974 -0.587781 -0.805539
vn 0.074974 -0.587781 -0.805539
vn 0.080061 0.466387 -0.880950
vn 0.080061 0.466387 -0.880950
vn 0.080061 0.466387 -0.880950
vn 0.080061 0.466387 -0.880950
vn 0.106435 0.989751 -0.095207
vn 0.106435 0.989751 -0.095207
vn 0.106435 0.989751 -0.095207
vn 0.106435 0.989751 -0.095207
vn 0.116946 -0.992953 0.019171
vn 0.116946 -0.992953 0.019171
vn 0.116946 -0.992953 0.019171
vn 0.116946 -0.992953 0.019171
vn 0.074855 -0.589541 0.804262
vn 0.074855 -0.589541 0.804262
vn 0.074855 -0.589541 0.804262
vn 0.074855 -0.589541 0.804262
vn 0.080232 0.462783 0.882834
vn 0.080232 0.462783 0.882834
vn 0.080232 0.462783 0.882834
vn 0.080232 0.462783 0.882834
vn 0.103607 0.994449 0.018377
vn 0.103607 0.994449 0.018377
vn 0.103607 0.994449 0.018377
vn 0.103607 0.994449 0.018377
vn 0.103607 0.994448 -0.018377
vn 0.103607 0.994448 -0.018377
vn 0.103607 0.994448 -0.018377
vn 0.103607 0.994448 -0.018377
vn 0.080232 0.462783 -0.882833
vn 0.080232 0.462783 -0.882833
vn 0.080232 0.462783 -0.882833
vn 0.080232 0.462783 -0.882833
vn 0.074855 -0.589541 -0.804262
vn 0.074855 -0.589541 -0.804262
vn 0.074855 -0.589541 -0.804262
vn 0.074855 -0.589541 -0.804262
vn 0.116946 -0.992953 -0.019171
vn 0.116946 -0.992953 -0.019171
vn 0.116946 -0.992953 -0.019171
vn 0.116946 -0.992953 -0.019171
s off
f 64/77/1 57/78/2 69/79/3 70/80/4
f 72/81/5 65/82/6 61/83/7 62/84/8
f 6/2/9 11/9/10 12/10/11 7/3/12
f 18/11/13 17/12/14 8/13/15
f 10/8/16 14/14/17 13/15/18 9/5/19
f 16/16/20 17/12/21 18/11/22 15/17/23
f 11/9/24 15/17/25 18/11/26 12/10/27
f 16/16/28 13/15/29 14/14/30 17/12/31
f 8/13/32 19/18/33 7/3/34 12/10/35
f 10/8/36 19/18/37 8/13/38 14/14/39
f 18/11/40 8/13/41 12/10/42
f 17/12/43 14/14/44 8/13/45
f 63/85/46 64/77/47 70/80/48 71/86/49
f 62/84/50 63/85/51 71/86/52 72/81/53
f 57/78/54 58/87/55 68/88/56 69/79/57
f 65/82/58 66/89/59 60/90/60 61/83/61
f 6/2/62 23/21/63 26/24/64 11/9/65
f 29/25/66 24/26/67 28/27/68
f 25/22/69 9/5/70 13/15/71 27/28/72
f 16/16/73 15/17/74 29/25/75 28/27/76
f 11/9/77 26/24/78 29/25/79 15/17/80
f 16/16/81 28/27/82 27/28/83 13/15/84
f 24/26/85 26/24/86 23/21/87 30/29/88
f 25/22/89 27/28/90 24/26/91 30/29/92
f 29/25/93 26/24/94 24/26/95
f 28/27/96 24/26/97 27/28/98
f 58/87/99 59/91/100 67/92/101 68/88/102
f 59/91/103 60/90/104 66/89/105 67/92/106
f 1/1/107 2/4/108 32/31/109 31/32/110
f 34/33/111 35/34/112 4/7/113 3/6/114
f 31/32/115 32/31/116 37/35/117 36/36/118
f 43/37/119 33/38/120 42/39/121
f 35/34/122 34/33/123 38/40/124 39/41/125
f 41/42/126 40/43/127 43/37/128 42/39/129
f 36/36/130 37/35/131 43/37/132 40/43/133
f 41/42/134 42/39/135 39/41/136 38/40/137
f 33/38/138 37/35/139 32/31/140 44/44/141
f 35/34/142 39/41/143 33/38/144 44/44/145
f 43/37/146 37/35/147 33/38/148
f 42/39/149 33/38/150 39/41/151
f 5/19/152 44/44/153 32/31/154 2/4/155
f 4/7/156 35/34/157 44/44/158 5/19/159
f 53/57/160 54/58/161 55/59/162 56/60/163
f 34/33/164 3/6/165 21/23/166 47/46/167
f 31/32/168 36/36/169 48/47/170 45/45/171
f 51/48/172 50/49/173 46/50/174
f 47/46/175 49/51/176 38/40/177 34/33/178
f 41/42/179 50/49/180 51/48/181 40/43/182
f 36/36/183 40/43/184 51/48/185 48/47/186
f 41/42/187 38/40/188 49/51/189 50/49/190
f 46/50/191 52/52/192 45/45/193 48/47/194
f 47/46/195 52/52/196 46/50/197 49/51/198
f 51/48/199 46/50/200 48/47/201
f 50/49/202 49/51/203 46/50/204
f 22/30/205 20/20/206 45/45/207 52/52/208
f 21/23/209 22/30/210 52/52/211 47/46/212
f 1/1/213 31/32/214 54/54/215 53/53/216
f 31/32/217 45/45/218 55/55/219 54/54/220
f 45/45/221 20/20/222 56/56/223 55/55/224
f 20/20/225 1/1/226 53/53/227 56/56/228
f 1/1/229 20/20/230 58/62/231 57/61/232
f 22/30/233 59/63/234 58/62/235 20/20/236
f 21/23/237 60/64/238 59/63/239 22/30/240
f 61/65/241 60/64/242 21/23/243 3/6/244
f 62/66/245 61/65/246 3/6/247 4/7/248
f 4/7/249 5/19/250 63/67/251 62/66/252
f 5/19/253 2/4/254 64/68/255 63/67/256
f 1/1/257 57/61/258 64/68/259 2/4/260
f 9/5/261 25/22/262 66/70/263 65/69/264
f 67/71/265 66/70/266 25/22/267 30/29/268
f 68/72/269 67/71/270 30/29/271 23/21/272
f 69/73/273 68/72/274 23/21/275 6/2/276
f 70/74/277 69/73/278 6/2/279 7/3/280
f 71/75/281 70/74/282 7/3/283 19/18/284
f 72/76/285 71/75/286 19/18/287 10/8/288
f 9/5/289 65/69/290 72/76/291 10/8/292
