# This file uses centimeters as units for non-parametric coordinates.

v 2.871399 0.000000 -4.973389
v -2.871399 0.000000 -4.973389
v -5.742767 0.000000 0.000000
v -2.871399 0.000000 4.973389
v 2.871399 0.000000 4.973389
v 5.742798 0.000000 0.000000
v 1.123352 48.237793 -1.945618
v -1.123322 48.237793 -1.945618
v -2.246674 48.237793 0.000000
v -1.123322 48.237793 1.945648
v 1.123352 48.237793 1.945648
v 2.246674 48.237793 0.000000
v 0.000000 0.000000 0.000000
v 0.000000 48.237793 0.000000
v -1.806915 31.973722 3.129649
v 1.806946 31.973722 3.129649
v 3.613815 31.973722 -0.000002
v 1.806946 31.973722 -3.129617
v -1.806870 31.973722 -3.129617
v -3.613785 31.973722 -0.000002
v -3.535004 27.017532 6.122803
v 3.535004 27.017532 6.122803
v 7.070007 27.017532 0.000000
v 3.535004 27.017532 -6.122772
v -3.535004 27.017532 -6.122772
v -7.070007 27.017532 0.000000
v -3.535004 1.951479 6.122803
v 3.535004 1.951479 6.122803
v 7.070007 1.951479 0.000000
v 3.535004 1.951479 -6.122772
v -3.535004 1.951479 -6.122772
v -7.070007 1.951479 0.000000
v -1.228088 45.296478 -2.127197
v 1.228119 45.296478 -2.127197
v 2.456268 45.296478 0.000000
v 1.228119 45.296478 2.127197
v -1.228088 45.296478 2.127197
v -2.456238 45.296478 0.000000
v 1.469147 45.499752 -2.544678
v 2.938354 45.499752 0.000000
v 1.469147 45.499752 2.544678
v -1.469116 45.499752 2.544678
v -2.938354 45.499752 0.000000
v -1.469116 45.499752 -2.544678
v -1.410187 47.132507 -2.442627
v 1.410217 47.132507 -2.442627
v 2.820526 47.132507 0.000000
v 1.410217 47.132507 2.442627
v -1.410187 47.132507 2.442627
v -2.820496 47.132507 0.000000
v 7.070007 23.442234 0.000000
v 3.535004 23.442234 6.122803
v -3.535004 23.442234 6.122803
v -7.070007 23.442234 0.000000
v -3.535004 23.442234 -6.122772
v 3.535004 23.442234 -6.122772
v -3.535004 6.652582 -6.122772
v -7.070007 6.652582 0.000000
v -3.535004 6.652582 6.122803
v 3.534943 6.652582 6.122803
v 7.070007 6.652582 0.000000
v 3.534943 6.652582 -6.122772
v 5.302521 23.442234 3.061432
v 5.302521 6.652582 3.061432
v 5.302521 6.652582 -3.061432
v 5.302521 23.442234 -3.061432
v -5.302490 23.442234 -3.061432
v -5.302490 6.652582 -3.061432
v -5.302490 6.652582 3.061432
v -5.302490 23.442234 3.061432
v -2.712585 18.441940 6.122803
v 2.712555 18.441940 6.122803
v 2.712616 20.503241 6.122803
v -2.712585 20.503241 6.122803
v -2.150421 35.302391 -3.724685
v -4.300888 35.302391 -0.000005
v -2.150452 35.302391 3.724707
v 2.150482 35.302391 3.724707
v 4.300919 35.302391 -0.000005
v 2.150482 35.302387 -3.724685
v 1.328400 38.966473 -2.300841
v 2.656784 38.966473 -0.000002
v 1.328400 38.966473 2.300847
v -1.328369 38.966473 2.300847
v -2.656754 38.966473 -0.000002
v -1.328354 38.966473 -2.300841
v 2.916108 29.884510 5.050807
v -2.916093 29.884510 5.050807
v -5.832160 29.884510 -0.000002
v -2.916068 29.884510 -5.050775
v 2.916108 29.884510 -5.050775
v 5.832176 29.884510 -0.000002
vt 0.123774 0.179796
vt 0.123774 0.179796
vt 0.123774 0.179796
vt 0.123774 0.179796
vt 0.123774 0.179796
vt 0.123774 0.179796
vt 0.123774 0.179796
vt 0.123774 0.179796
vt 0.123774 0.179796
vt 0.123774 0.179796
vt 0.123774 0.179796
vt 0.123774 0.179796
vt 0.123774 0.179796
vt 0.079103 0.227989
vt 0.079103 0.227989
vt 0.079103 0.227989
vt 0.079103 0.227989
vt 0.079103 0.227989
vt 0.079103 0.227989
vt 0.079103 0.227989
vt 0.079103 0.227989
vt 0.079103 0.227989
vt 0.079103 0.227989
vt 0.079103 0.227989
vt 0.079103 0.227989
vt 0.079103 0.227989
vt 0.123774 0.179796
vt 0.079103 0.227989
vt 0.123774 0.179796
vt 0.123774 0.179796
vt 0.123774 0.179796
vt 0.123774 0.179796
vt 0.123774 0.179796
vt 0.123774 0.179796
vt 0.123774 0.179796
vt 0.123774 0.179796
vt 0.123774 0.179796
vt 0.123774 0.179796
vt 0.123774 0.179796
vt 0.123774 0.179796
vt 0.123774 0.179796
vt 0.123774 0.179796
vt 0.123774 0.179796
vt 0.123774 0.179796
vt 0.123774 0.179796
vt 0.123774 0.179796
vt 0.123774 0.179796
vt 0.123774 0.179796
vt 0.123774 0.179796
vt 0.123774 0.179796
vt 0.123774 0.179796
vt 0.123774 0.179796
vt 0.079103 0.227989
vt 0.079103 0.227989
vt 0.079103 0.227989
vt 0.079103 0.227989
vt 0.079103 0.227989
vt 0.079103 0.227989
vt 0.079103 0.227989
vt 0.079103 0.227989
vt 0.079103 0.227989
vt 0.079103 0.227989
vt 0.079103 0.227989
vt 0.123774 0.179796
vt 0.123774 0.179796
vt 0.123774 0.179796
vt 0.123774 0.179796
vt 0.123774 0.179796
vt 0.123774 0.179796
vt 0.123774 0.179796
vt 0.123774 0.179796
vt 0.123774 0.179796
vt 0.123774 0.179796
vt 0.123774 0.179796
vt 0.123774 0.179796
vt 0.123774 0.179796
vt 0.123774 0.179796
vt 0.123774 0.179796
vt 0.123774 0.179796
vt 0.123774 0.179796
vt 0.123774 0.179796
vt 0.123774 0.179796
vt 0.123774 0.179796
vt 0.123774 0.179796
vt 0.123774 0.179796
vt 0.047902 0.352670
vt 0.047902 0.352670
vt 0.047902 0.352672
vt 0.047902 0.352672
vt 0.047902 0.352670
vt 0.047902 0.352670
vt 0.047902 0.352672
vt 0.047902 0.352672
vt 0.047902 0.352670
vt 0.047902 0.352672
vt 0.047902 0.352672
vt 0.047902 0.352670
vt 0.047902 0.352670
vt 0.047902 0.352672
vt 0.047902 0.352672
vt 0.047902 0.352670
vt 0.047902 0.352670
vt 0.047902 0.352670
vt 0.047902 0.352672
vt 0.047902 0.352672
vt 0.104584 0.205109
vt 0.104584 0.205109
vt 0.104584 0.205109
vt 0.104584 0.205109
vt 0.123774 0.179796
vt 0.123774 0.179796
vt 0.123774 0.179796
vt 0.123774 0.179796
vt 0.123774 0.179796
vt 0.123774 0.179796
vt 0.123774 0.179796
vt 0.123774 0.179796
vt 0.123774 0.179796
vt 0.123774 0.179796
vt 0.123774 0.179796
vt 0.123774 0.179796
vt 0.123774 0.179796
vt 0.123774 0.179796
vt 0.123774 0.179796
vt 0.123774 0.179796
vt 0.123774 0.179796
vt 0.123774 0.179796
vt 0.123774 0.179796
vt 0.123774 0.179796
vt 0.123774 0.179796
vt 0.123774 0.179796
vt 0.123774 0.179796
vt 0.123774 0.179796
vn 0.000000 0.362208 -0.932097
vn 0.000000 0.362208 -0.932097
vn 0.000000 0.362208 -0.932097
vn 0.000000 0.362208 -0.932097
vn -0.807217 0.362212 -0.466051
vn -0.807217 0.362212 -0.466051
vn -0.807217 0.362212 -0.466051
vn -0.807217 0.362212 -0.466051
vn -0.807220 0.362214 0.466043
vn -0.807221 0.362214 0.466043
vn -0.807220 0.362214 0.466043
vn -0.807221 0.362214 0.466043
vn 0.000000 0.362212 0.932096
vn 0.000000 0.362212 0.932096
vn 0.000000 0.362212 0.932096
vn 0.000000 0.362212 0.932096
vn 0.807220 0.362214 0.466043
vn 0.807220 0.362214 0.466043
vn 0.807220 0.362214 0.466043
vn 0.807220 0.362214 0.466043
vn 0.807219 0.362213 -0.466046
vn 0.807219 0.362213 -0.466046
vn 0.807219 0.362213 -0.466046
vn 0.807219 0.362213 -0.466046
vn 0.000000 -1.000000 0.000000
vn 0.000000 -1.000000 0.000000
vn 0.000000 -1.000000 0.000000
vn 0.000000 -1.000000 0.000000
vn 0.000000 -1.000000 0.000000
vn 0.000000 -1.000000 0.000000
vn 0.000000 -1.000000 0.000000
vn 0.000000 -1.000000 0.000000
vn 0.000000 -1.000000 0.000000
vn 0.000000 -1.000000 0.000000
vn 0.000000 -1.000000 0.000000
vn 0.000000 -1.000000 0.000000
vn 0.000000 -1.000000 0.000000
vn 0.000000 -1.000000 0.000000
vn 0.000000 -1.000000 0.000000
vn 0.000000 -1.000000 0.000000
vn 0.000000 -1.000000 0.000000
vn 0.000000 -1.000000 0.000000
vn 0.000000 1.000000 0.000000
vn 0.000000 1.000000 0.000000
vn 0.000000 1.000000 0.000000
vn 0.000000 1.000000 0.000000
vn 0.000000 1.000000 0.000000
vn 0.000000 1.000000 0.000000
vn 0.000000 1.000000 0.000000
vn 0.000000 1.000000 0.000000
vn 0.000000 1.000000 0.000000
vn 0.000000 1.000000 0.000000
vn 0.000000 1.000000 0.000000
vn 0.000000 1.000000 0.000000
vn 0.000000 1.000000 0.000000
vn 0.000000 1.000000 0.000000
vn 0.000000 1.000000 0.000000
vn 0.000000 1.000000 0.000000
vn 0.000000 1.000000 0.000000
vn 0.000000 1.000000 0.000000
vn 0.000000 0.350230 0.936664
vn 0.000000 0.350230 0.936664
vn 0.000000 0.350230 0.936664
vn 0.000000 0.350230 0.936664
vn 0.811176 0.350226 0.468332
vn 0.811176 0.350226 0.468332
vn 0.811176 0.350226 0.468332
vn 0.811176 0.350226 0.468332
vn 0.811175 0.350226 -0.468333
vn 0.811175 0.350226 -0.468334
vn 0.811175 0.350226 -0.468333
vn 0.811175 0.350226 -0.468334
vn 0.000000 0.350230 -0.936664
vn 0.000000 0.350230 -0.936664
vn 0.000000 0.350230 -0.936664
vn 0.000000 0.350230 -0.936664
vn -0.811172 0.350233 -0.468334
vn -0.811172 0.350233 -0.468334
vn -0.811172 0.350233 -0.468334
vn -0.811172 0.350233 -0.468334
vn -0.811175 0.350230 0.468331
vn -0.811175 0.350230 0.468331
vn -0.811175 0.350230 0.468331
vn -0.811175 0.350230 0.468331
vn 0.000000 0.000000 1.000000
vn 0.000000 0.000000 1.000000
vn 0.000000 0.000000 1.000000
vn 0.000000 0.000000 1.000000
vn 0.866029 0.000000 0.499993
vn 0.866029 0.000000 0.499993
vn 0.866029 0.000000 0.499993
vn 0.866029 0.000000 0.499993
vn 0.866029 0.000000 -0.499993
vn 0.866029 0.000000 -0.499993
vn 0.866029 0.000000 -0.499993
vn 0.866029 0.000000 -0.499993
vn 0.000000 0.000000 -1.000000
vn 0.000000 0.000000 -1.000000
vn 0.000000 0.000000 -1.000000
vn 0.000000 0.000000 -1.000000
vn -0.866026 0.000000 -0.500000
vn -0.866026 0.000000 -0.500000
vn -0.866026 0.000000 -0.500000
vn -0.866026 0.000000 -0.500000
vn -0.866026 0.000000 0.500000
vn -0.866026 0.000000 0.500000
vn -0.866026 0.000000 0.500000
vn -0.866026 0.000000 0.500000
vn 0.000000 -0.507507 0.861647
vn 0.000000 -0.507507 0.861647
vn 0.000000 -0.507507 0.861647
vn 0.000000 -0.507507 0.861647
vn 0.746210 -0.507503 0.430826
vn 0.746210 -0.507503 0.430826
vn 0.746210 -0.507503 0.430826
vn 0.746210 -0.507503 0.430826
vn 0.746211 -0.507501 -0.430827
vn 0.746211 -0.507501 -0.430827
vn 0.746211 -0.507501 -0.430827
vn 0.746211 -0.507501 -0.430827
vn 0.000000 -0.507497 -0.861653
vn 0.000000 -0.507497 -0.861653
vn 0.000000 -0.507497 -0.861653
vn 0.000000 -0.507497 -0.861653
vn -0.746210 -0.507505 -0.430824
vn -0.746210 -0.507505 -0.430824
vn -0.746210 -0.507505 -0.430824
vn -0.746210 -0.507505 -0.430825
vn -0.746209 -0.507507 0.430823
vn -0.746209 -0.507507 0.430823
vn -0.746209 -0.507507 0.430823
vn -0.746209 -0.507507 0.430823
vn 0.000000 -0.899087 -0.437770
vn 0.000000 -0.899087 -0.437770
vn 0.000000 -0.899087 -0.437770
vn 0.000000 -0.899087 -0.437770
vn 0.379114 -0.899090 -0.218884
vn 0.379114 -0.899090 -0.218884
vn 0.379114 -0.899090 -0.218884
vn 0.379114 -0.899090 -0.218884
vn 0.379114 -0.899090 0.218884
vn 0.379114 -0.899090 0.218884
vn 0.379114 -0.899090 0.218884
vn 0.379114 -0.899090 0.218884
vn 0.000000 -0.899087 0.437770
vn 0.000000 -0.899087 0.437770
vn 0.000000 -0.899087 0.437770
vn 0.000000 -0.899087 0.437770
vn -0.379103 -0.899095 0.218881
vn -0.379103 -0.899095 0.218881
vn -0.379103 -0.899095 0.218881
vn -0.379103 -0.899095 0.218881
vn -0.379103 -0.899096 -0.218878
vn -0.379103 -0.899096 -0.218878
vn -0.379103 -0.899096 -0.218878
vn -0.379103 -0.899096 -0.218878
vn 0.864332 0.062381 -0.499038
vn 0.864332 0.062381 -0.499038
vn 0.864332 0.062381 -0.499038
vn 0.864332 0.062381 -0.499038
vn 0.864332 0.062381 0.499039
vn 0.864331 0.062381 0.499039
vn 0.864331 0.062381 0.499039
vn 0.864331 0.062381 0.499039
vn 0.000000 0.062380 0.998052
vn 0.000000 0.062380 0.998052
vn 0.000000 0.062380 0.998052
vn 0.000000 0.062380 0.998052
vn -0.864329 0.062389 0.499042
vn -0.864329 0.062389 0.499042
vn -0.864329 0.062389 0.499042
vn -0.864329 0.062389 0.499042
vn -0.864329 0.062389 -0.499042
vn -0.864329 0.062389 -0.499042
vn -0.864329 0.062389 -0.499042
vn -0.864329 0.062389 -0.499042
vn 0.000000 0.062380 -0.998052
vn 0.000000 0.062380 -0.998052
vn 0.000000 0.062380 -0.998052
vn 0.000000 0.062380 -0.998052
vn 0.000000 0.410111 -0.912036
vn 0.000000 0.410111 -0.912036
vn 0.000000 0.410111 -0.912036
vn 0.000000 0.410111 -0.912036
vn 0.789855 0.410073 -0.456036
vn 0.789855 0.410073 -0.456036
vn 0.789855 0.410073 -0.456036
vn 0.789855 0.410073 -0.456036
vn 0.789858 0.410068 0.456035
vn 0.789858 0.410068 0.456035
vn 0.789858 0.410068 0.456035
vn 0.789858 0.410068 0.456035
vn 0.000000 0.410090 0.912045
vn 0.000000 0.410090 0.912045
vn 0.000000 0.410090 0.912045
vn 0.000000 0.410090 0.912045
vn -0.789860 0.410059 0.456041
vn -0.789860 0.410059 0.456041
vn -0.789859 0.410059 0.456041
vn -0.789860 0.410059 0.456041
vn -0.789856 0.410064 -0.456043
vn -0.789856 0.410064 -0.456043
vn -0.789856 0.410064 -0.456043
vn -0.789856 0.410064 -0.456043
vn 0.866029 0.000000 0.499993
vn 0.866029 0.000000 0.499993
vn 0.866029 0.000000 0.499993
vn 0.000000 0.000000 1.000000
vn 0.000000 0.000000 1.000000
vn 0.000000 0.000000 1.000000
vn 0.000000 0.000000 1.000000
vn -0.866026 0.000000 0.500000
vn -0.866025 0.000000 0.500000
vn -0.866025 0.000000 0.500000
vn -0.866025 0.000000 -0.500000
vn -0.866025 0.000000 -0.500000
vn -0.866026 0.000000 -0.500000
vn 0.000000 0.000000 -1.000000
vn 0.000000 0.000000 -1.000000
vn 0.000000 0.000000 -1.000000
vn 0.000000 0.000000 -1.000000
vn 0.866029 0.000000 -0.499993
vn 0.866029 0.000000 -0.499993
vn 0.866029 0.000000 -0.499993
vn -0.866026 0.000000 -0.500000
vn -0.866026 0.000000 -0.500000
vn -0.866026 0.000000 -0.500000
vn -0.866026 0.000000 0.500000
vn -0.866026 0.000000 0.500000
vn -0.866026 0.000000 0.500000
vn 0.000000 0.000000 1.000000
vn 0.000000 0.000000 1.000000
vn 0.000000 0.000000 1.000000
vn 0.000000 0.000000 1.000000
vn 0.866029 0.000000 0.499993
vn 0.866029 0.000000 0.499993
vn 0.866029 0.000000 0.499993
vn 0.866029 0.000000 -0.499993
vn 0.866029 0.000000 -0.499993
vn 0.866029 0.000000 -0.499993
vn 0.000000 0.000000 -1.000000
vn 0.000000 0.000000 -1.000000
vn 0.000000 0.000000 -1.000000
vn 0.000000 0.000000 -1.000000
vn 0.866024 0.000005 0.500002
vn 0.866024 0.000005 0.500002
vn 0.866024 0.000005 0.500002
vn 0.866024 0.000005 0.500002
vn 0.866018 -0.000002 0.500014
vn 0.866018 -0.000002 0.500014
vn 0.866018 -0.000002 0.500014
vn 0.866018 -0.000002 0.500014
vn 0.866022 -0.000000 0.500007
vn 0.866022 -0.000000 0.500007
vn 0.866021 -0.000000 0.500007
vn 0.866021 -0.000000 0.500007
vn 0.866020 -0.000001 -0.500009
vn 0.866020 -0.000001 -0.500009
vn 0.866020 -0.000001 -0.500009
vn 0.866020 -0.000001 -0.500009
vn 0.866015 -0.000002 -0.500017
vn 0.866015 -0.000002 -0.500017
vn 0.866015 -0.000002 -0.500017
vn 0.866015 -0.000002 -0.500017
vn 0.866023 0.000007 -0.500005
vn 0.866023 0.000007 -0.500005
vn 0.866023 0.000007 -0.500005
vn 0.866023 0.000007 -0.500005
vn -0.866024 0.000002 -0.500003
vn -0.866024 0.000002 -0.500003
vn -0.866024 0.000002 -0.500003
vn -0.866024 0.000002 -0.500003
vn -0.866023 0.000000 -0.500004
vn -0.866023 0.000000 -0.500004
vn -0.866023 0.000000 -0.500004
vn -0.866023 0.000000 -0.500004
vn -0.866024 -0.000001 -0.500003
vn -0.866024 -0.000001 -0.500003
vn -0.866024 -0.000001 -0.500003
vn -0.866024 -0.000001 -0.500003
vn -0.866025 -0.000000 0.500000
vn -0.866025 -0.000000 0.500000
vn -0.866025 -0.000000 0.500000
vn -0.866025 -0.000000 0.500000
vn -0.866025 0.000000 0.500001
vn -0.866025 0.000000 0.500001
vn -0.866025 0.000000 0.500001
vn -0.866025 0.000000 0.500001
vn -0.866025 0.000000 0.500000
vn -0.866025 0.000000 0.500000
vn -0.866025 0.000000 0.500000
vn -0.866025 0.000000 0.500000
vn 0.000000 0.000000 1.000000
vn 0.000000 0.000000 1.000000
vn 0.000000 0.000000 1.000000
vn 0.000000 0.000000 1.000000
vn -0.000001 0.000000 1.000000
vn -0.000001 0.000000 1.000000
vn -0.000001 0.000000 1.000000
vn -0.000001 0.000000 1.000000
vn 0.000000 0.000000 1.000000
vn 0.000000 0.000000 1.000000
vn 0.000000 0.000000 1.000000
vn 0.000000 0.000000 1.000000
vn 0.000000 0.000000 1.000000
vn 0.000000 0.000000 1.000000
vn 0.000000 0.000000 1.000000
vn 0.000000 0.000000 1.000000
vn -0.852508 -0.175977 -0.492202
vn -0.852508 -0.175977 -0.492202
vn -0.852508 -0.175977 -0.492202
vn -0.852508 -0.175977 -0.492202
vn -0.852514 -0.175974 0.492192
vn -0.852514 -0.175974 0.492192
vn -0.852514 -0.175974 0.492192
vn -0.852514 -0.175974 0.492192
vn 0.000000 -0.175978 0.984394
vn 0.000000 -0.175978 0.984394
vn 0.000000 -0.175978 0.984394
vn 0.000000 -0.175978 0.984394
vn 0.852514 -0.175974 0.492192
vn 0.852514 -0.175974 0.492192
vn 0.852514 -0.175974 0.492192
vn 0.852514 -0.175974 0.492192
vn 0.852512 -0.175975 -0.492195
vn 0.852512 -0.175975 -0.492195
vn 0.852512 -0.175975 -0.492196
vn 0.852512 -0.175975 -0.492196
vn -0.000000 -0.175980 -0.984394
vn -0.000000 -0.175980 -0.984394
vn -0.000000 -0.175980 -0.984394
vn -0.000000 -0.175980 -0.984394
vn 0.865699 0.027424 -0.499813
vn 0.865699 0.027424 -0.499813
vn 0.865699 0.027424 -0.499813
vn 0.865699 0.027424 -0.499813
vn 0.865700 0.027424 0.499812
vn 0.865700 0.027424 0.499812
vn 0.865700 0.027424 0.499812
vn 0.865700 0.027424 0.499812
vn 0.000000 0.027422 0.999624
vn 0.000000 0.027422 0.999624
vn 0.000000 0.027422 0.999624
vn 0.000000 0.027422 0.999624
vn -0.865700 0.027424 0.499812
vn -0.865700 0.027424 0.499812
vn -0.865700 0.027424 0.499812
vn -0.865700 0.027424 0.499812
vn -0.865698 0.027423 -0.499815
vn -0.865698 0.027423 -0.499815
vn -0.865698 0.027423 -0.499815
vn -0.865698 0.027423 -0.499815
vn 0.000000 0.027422 -0.999624
vn 0.000000 0.027422 -0.999624
vn 0.000000 0.027422 -0.999624
vn 0.000000 0.027422 -0.999624
vn 0.000000 0.676881 0.736092
vn 0.000000 0.676881 0.736092
vn 0.000000 0.676881 0.736092
vn 0.000000 0.676881 0.736092
vn -0.637475 0.676882 0.368043
vn -0.637476 0.676882 0.368043
vn -0.637475 0.676882 0.368043
vn -0.637475 0.676882 0.368043
vn -0.637471 0.676884 -0.368048
vn -0.637471 0.676884 -0.368048
vn -0.637471 0.676884 -0.368048
vn -0.637470 0.676884 -0.368048
vn 0.000000 0.676881 -0.736092
vn 0.000000 0.676881 -0.736092
vn 0.000000 0.676881 -0.736092
vn 0.000000 0.676881 -0.736092
vn 0.637476 0.676880 -0.368046
vn 0.637476 0.676880 -0.368046
vn 0.637476 0.676880 -0.368046
vn 0.637476 0.676880 -0.368046
vn 0.637478 0.676880 0.368044
vn 0.637478 0.676880 0.368044
vn 0.637478 0.676880 0.368044
vn 0.637478 0.676880 0.368044
s off
f 80/118/1 75/113/2 86/126/3 81/120/4
f 85/125/5 86/126/6 75/113/7 76/114/8
f 84/124/9 85/125/10 76/114/11 77/115/12
f 83/123/13 84/124/14 77/115/15 78/116/16
f 82/122/17 83/123/18 78/116/19 79/117/20
f 81/121/21 82/122/22 79/117/23 80/119/24
f 2/2/25 1/1/26 13/27/27
f 3/3/28 2/2/29 13/27/30
f 4/4/31 3/3/32 13/27/33
f 5/5/34 4/4/35 13/27/36
f 6/6/37 5/5/38 13/27/39
f 1/1/40 6/6/41 13/27/42
f 7/14/43 8/15/44 14/16/45
f 8/15/46 9/17/47 14/16/48
f 9/17/49 10/18/50 14/16/51
f 10/18/52 11/19/53 14/16/54
f 11/19/55 12/20/56 14/16/57
f 12/20/58 7/14/59 14/16/60
f 21/36/61 22/37/62 87/127/63 88/128/64
f 22/37/65 23/38/66 92/133/67 87/127/68
f 23/38/69 24/39/70 91/131/71 92/133/72
f 24/40/73 25/41/74 90/130/75 91/132/76
f 25/41/77 26/42/78 89/129/79 90/130/80
f 26/42/81 21/36/82 88/128/83 89/129/84
f 71/106/85 72/107/86 73/108/87 74/109/88
f 63/78/89 64/79/90 61/75/91 51/64/92
f 61/75/93 65/80/94 66/81/95 51/64/96
f 62/90/97 57/91/98 55/92/99 56/93/100
f 67/82/101 68/83/102 58/72/103 54/67/104
f 58/72/105 69/84/106 70/85/107 54/67/108
f 4/10/109 5/11/110 28/44/111 27/43/112
f 5/11/113 6/12/114 29/45/115 28/44/116
f 6/12/117 1/13/118 30/46/119 29/45/120
f 1/7/121 2/8/122 31/48/123 30/47/124
f 2/8/125 3/9/126 32/49/127 31/48/128
f 3/9/129 4/10/130 27/43/131 32/49/132
f 34/21/133 33/22/134 44/23/135 39/24/136
f 35/25/137 34/21/138 39/24/139 40/26/140
f 36/28/141 35/25/142 40/26/143 41/53/144
f 37/54/145 36/28/146 41/53/147 42/55/148
f 38/56/149 37/54/150 42/55/151 43/57/152
f 33/22/153 38/56/154 43/57/155 44/23/156
f 40/26/157 39/24/158 46/58/159 47/59/160
f 41/53/161 40/26/162 47/59/163 48/60/164
f 42/55/165 41/53/166 48/60/167 49/61/168
f 43/57/169 42/55/170 49/61/171 50/62/172
f 44/23/173 43/57/174 50/62/175 45/63/176
f 39/24/177 44/23/178 45/63/179 46/58/180
f 46/58/181 45/63/182 8/15/183 7/14/184
f 47/59/185 46/58/186 7/14/187 12/20/188
f 48/60/189 47/59/190 12/20/191 11/19/192
f 49/61/193 48/60/194 11/19/195 10/18/196
f 50/62/197 49/61/198 10/18/199 9/17/200
f 45/63/201 50/62/202 9/17/203 8/15/204
f 23/38/205 63/78/206 51/64/207
f 53/66/208 52/65/209 22/37/210 21/36/211
f 54/67/212 70/85/213 26/42/214
f 26/42/215 67/82/216 54/67/217
f 56/70/218 55/68/219 25/41/220 24/40/221
f 51/64/222 66/81/223 23/38/224
f 68/83/225 32/49/226 58/72/227
f 32/49/228 69/84/229 58/72/230
f 27/43/231 28/44/232 60/74/233 59/73/234
f 64/79/235 29/45/236 61/75/237
f 29/45/238 65/80/239 61/75/240
f 30/47/241 31/48/242 57/71/243 62/77/244
f 52/65/245 63/78/246 23/38/247 22/37/248
f 60/87/249 64/94/250 63/95/251 52/88/252
f 28/44/253 29/45/254 64/79/255 60/74/256
f 29/45/257 30/46/258 62/76/259 65/80/260
f 66/96/261 65/97/262 62/90/263 56/93/264
f 23/38/265 66/81/266 56/69/267 24/39/268
f 55/68/269 67/82/270 26/42/271 25/41/272
f 57/91/273 68/98/274 67/99/275 55/92/276
f 31/48/277 32/49/278 68/83/279 57/71/280
f 32/49/281 27/43/282 59/73/283 69/84/284
f 70/100/285 69/101/286 59/86/287 53/89/288
f 26/42/289 70/85/290 53/66/291 21/36/292
f 59/86/293 60/87/294 72/103/295 71/102/296
f 60/87/297 52/88/298 73/104/299 72/103/300
f 52/88/301 53/89/302 74/105/303 73/104/304
f 53/89/305 59/86/306 71/102/307 74/105/308
f 76/114/309 75/113/310 19/34/311 20/35/312
f 77/115/313 76/114/314 20/35/315 15/29/316
f 78/116/317 77/115/318 15/29/319 16/30/320
f 79/117/321 78/116/322 16/30/323 17/31/324
f 80/119/325 79/117/326 17/31/327 18/32/328
f 19/34/329 75/113/330 80/118/331 18/33/332
f 34/51/333 35/112/334 82/122/335 81/121/336
f 35/112/337 36/111/338 83/123/339 82/122/340
f 36/111/341 37/110/342 84/124/343 83/123/344
f 37/110/345 38/52/346 85/125/347 84/124/348
f 38/52/349 33/50/350 86/126/351 85/125/352
f 81/120/353 86/126/354 33/50/355 34/51/356
f 88/128/357 87/127/358 16/30/359 15/29/360
f 89/129/361 88/128/362 15/29/363 20/35/364
f 90/130/365 89/129/366 20/35/367 19/34/368
f 91/132/369 90/130/370 19/34/371 18/33/372
f 92/133/373 91/131/374 18/32/375 17/31/376
f 87/127/377 92/133/378 17/31/379 16/30/380
