# This file uses centimeters as units for non-parametric coordinates.

v 2.563910 0.000000 -4.440804
v -2.563910 0.000000 -4.440804
v -5.127793 0.000000 0.000000
v -2.563910 0.000000 4.440804
v 2.563910 0.000000 4.440804
v 5.127820 0.000000 0.000000
v 1.003056 42.781254 -1.737268
v -1.003029 42.781254 -1.737268
v -2.006084 42.781254 0.000000
v -1.003029 42.781254 1.737295
v 1.003056 42.781254 1.737295
v 2.006084 42.781254 0.000000
v 0.000000 0.000000 0.000000
v 0.000000 42.781254 0.000000
v -1.406540 29.501184 2.436191
v 1.406567 29.501184 2.436191
v 2.813080 29.501184 0.000000
v 1.406567 29.501184 -2.436164
v -1.406513 29.501184 -2.436164
v -2.813053 29.501184 0.000000
v -3.156451 24.124311 5.467132
v 3.156451 24.124311 5.467132
v 6.312903 24.124311 0.000000
v 3.156451 24.124311 -5.467104
v -3.156451 24.124311 -5.467104
v -6.312903 24.124311 0.000000
v -3.156451 1.742501 5.467132
v 3.156451 1.742501 5.467132
v 6.312903 1.742501 0.000000
v 3.156451 1.742501 -5.467104
v -3.156451 1.742501 -5.467104
v -6.312903 1.742501 0.000000
v -1.096576 40.736732 -1.899402
v 1.096604 40.736732 -1.899402
v 2.193234 40.736732 0.000000
v 1.096604 40.736732 1.899402
v -1.096576 40.736732 1.899402
v -2.193207 40.736732 0.000000
v 1.311821 40.878029 -2.272176
v 2.623695 40.878029 0.000000
v 1.311821 40.878029 2.272176
v -1.311793 40.878029 2.272176
v -2.623695 40.878029 0.000000
v -1.311793 40.878029 -2.272176
v -1.259174 42.012966 -2.181054
v 1.259202 42.012966 -2.181054
v 2.518485 42.012966 0.000000
v 1.259202 42.012966 2.181054
v -1.259174 42.012966 2.181054
v -2.518458 42.012966 0.000000
v 6.312903 20.931881 0.000000
v 3.156451 20.931881 5.467132
v -3.156451 20.931881 5.467132
v -6.312903 20.931881 0.000000
v -3.156451 20.931881 -5.467104
v 3.156451 20.931881 -5.467104
v -3.156451 5.940178 -5.467104
v -6.312903 5.940178 0.000000
v -3.156451 5.940178 5.467132
v 3.156397 5.940178 5.467132
v 6.312903 5.940178 0.000000
v 3.156397 5.940178 -5.467104
v 4.734691 20.931881 2.733593
v 4.734691 5.940178 2.733593
v 4.734691 5.940178 -2.733593
v 4.734691 20.931881 -2.733593
v -4.734663 20.931881 -2.733593
v -4.734663 5.940178 -2.733593
v -4.734663 5.940178 2.733593
v -4.734663 20.931881 2.733593
v -1.565446 15.842957 5.467132
v 1.565439 15.842957 5.467132
v 1.565473 18.931709 5.467132
v -1.565446 18.931709 5.467132
v -1.354575 30.738953 -2.346218
v -2.709184 30.738953 0.000000
v -1.354595 30.738953 2.346241
v 1.354623 30.738953 2.346241
v 2.709211 30.738953 0.000000
v 1.354623 30.738953 -2.346218
vt 0.014854 0.229820
vt 0.014854 0.229820
vt 0.014854 0.229820
vt 0.014854 0.229820
vt 0.014854 0.229820
vt 0.014854 0.229820
vt 0.014854 0.229820
vt 0.014854 0.229820
vt 0.014854 0.229820
vt 0.014854 0.229820
vt 0.014854 0.229820
vt 0.014854 0.229820
vt 0.014854 0.229820
vt 0.103928 0.086727
vt 0.103928 0.086727
vt 0.103928 0.086727
vt 0.103928 0.086727
vt 0.103928 0.086727
vt 0.103928 0.086727
vt 0.103928 0.086727
vt 0.103928 0.086727
vt 0.103928 0.086727
vt 0.103928 0.086727
vt 0.103928 0.086727
vt 0.103928 0.086727
vt 0.103928 0.086727
vt 0.103928 0.086727
vt 0.123062 0.206131
vt 0.123062 0.206131
vt 0.123062 0.206131
vt 0.123062 0.206131
vt 0.123062 0.206131
vt 0.123062 0.206131
vt 0.123062 0.206131
vt 0.014854 0.229820
vt 0.014854 0.229820
vt 0.014854 0.229820
vt 0.014854 0.229820
vt 0.014854 0.229820
vt 0.014854 0.229820
vt 0.014854 0.229820
vt 0.103928 0.086727
vt 0.103928 0.086727
vt 0.103928 0.086727
vt 0.103928 0.086727
vt 0.103928 0.086727
vt 0.103928 0.086727
vt 0.103928 0.086727
vt 0.103928 0.086727
vt 0.103928 0.086727
vt 0.103928 0.086727
vt 0.103928 0.086727
vt 0.103928 0.086727
vt 0.103928 0.086727
vt 0.103928 0.086727
vt 0.014854 0.229820
vt 0.014854 0.229820
vt 0.014854 0.229820
vt 0.014854 0.229820
vt 0.014854 0.229820
vt 0.014854 0.229820
vt 0.014854 0.229820
vt 0.014854 0.229820
vt 0.014854 0.229820
vt 0.014854 0.229820
vt 0.014854 0.229820
vt 0.014854 0.229820
vt 0.014854 0.229820
vt 0.014854 0.229820
vt 0.014854 0.229820
vt 0.014854 0.229820
vt 0.014854 0.229820
vt 0.014854 0.229820
vt 0.014854 0.229820
vt 0.014854 0.229820
vt 0.014854 0.229820
vt 0.014854 0.229820
vt 0.133942 0.183986
vt 0.133942 0.183986
vt 0.133942 0.183986
vt 0.133942 0.183986
vt 0.133942 0.183987
vt 0.133942 0.183987
vt 0.133942 0.183987
vt 0.133942 0.183987
vt 0.133942 0.183987
vt 0.133942 0.183986
vt 0.133942 0.183986
vt 0.133942 0.183987
vt 0.133942 0.183987
vt 0.133942 0.183986
vt 0.133942 0.183986
vt 0.133942 0.183987
vt 0.133942 0.183987
vt 0.104866 0.186504
vt 0.104866 0.186504
vt 0.104866 0.186504
vt 0.104866 0.186504
vt 0.103928 0.086727
vt 0.103928 0.086727
vt 0.103928 0.086727
vt 0.133942 0.183987
vt 0.133942 0.183987
vt 0.133942 0.183987
vt 0.014854 0.229820
vt 0.014854 0.229820
vt 0.014854 0.229820
vt 0.123062 0.206131
vt 0.123062 0.206131
vt 0.123062 0.206131
vt 0.123062 0.206131
vt 0.123062 0.206131
vn 0.000000 0.048190 -0.998838
vn 0.000000 0.048190 -0.998838
vn 0.000000 0.047719 -0.998861
vn 0.000000 0.047719 -0.998861
vn -0.865036 0.047722 -0.499435
vn -0.865036 0.047722 -0.499435
vn -0.865016 0.048193 -0.499424
vn -0.865016 0.048193 -0.499424
vn -0.865040 0.047724 0.499428
vn -0.865040 0.047724 0.499428
vn -0.865020 0.048195 0.499418
vn -0.865020 0.048195 0.499418
vn 0.000000 0.047722 0.998861
vn 0.000000 0.047722 0.998861
vn 0.000000 0.048193 0.998838
vn 0.000000 0.048193 0.998838
vn 0.865040 0.047724 0.499428
vn 0.865040 0.047724 0.499428
vn 0.865020 0.048195 0.499418
vn 0.865020 0.048195 0.499418
vn 0.865039 0.047723 -0.499431
vn 0.865038 0.047723 -0.499431
vn 0.865018 0.048195 -0.499420
vn 0.865018 0.048194 -0.499420
vn 0.000000 -1.000000 0.000000
vn 0.000000 -1.000000 0.000000
vn 0.000000 -1.000000 0.000000
vn 0.000000 -1.000000 0.000000
vn 0.000000 -1.000000 0.000000
vn 0.000000 -1.000000 0.000000
vn 0.000000 -1.000000 0.000000
vn 0.000000 -1.000000 0.000000
vn 0.000000 -1.000000 0.000000
vn 0.000000 -1.000000 0.000000
vn 0.000000 -1.000000 0.000000
vn 0.000000 -1.000000 0.000000
vn 0.000000 -1.000000 0.000000
vn 0.000000 -1.000000 0.000000
vn 0.000000 -1.000000 0.000000
vn 0.000000 -1.000000 0.000000
vn 0.000000 -1.000000 0.000000
vn 0.000000 -1.000000 0.000000
vn 0.000000 1.000000 0.000002
vn 0.000000 1.000000 0.000002
vn 0.000000 1.000000 0.000002
vn 0.000000 1.000000 -0.000002
vn 0.000000 1.000000 -0.000002
vn 0.000000 1.000000 -0.000002
vn 0.000000 1.000000 0.000003
vn 0.000000 1.000000 0.000003
vn 0.000000 1.000000 0.000003
vn 0.000000 1.000000 -0.000002
vn 0.000000 1.000000 -0.000002
vn 0.000000 1.000000 -0.000002
vn 0.000000 1.000000 0.000002
vn 0.000000 1.000000 0.000002
vn 0.000000 1.000000 0.000002
vn 0.000000 1.000000 -0.000003
vn 0.000000 1.000000 -0.000003
vn 0.000000 1.000000 -0.000003
vn 0.000000 0.491054 0.871129
vn 0.000000 0.491054 0.871129
vn 0.000000 0.491054 0.871129
vn 0.000000 0.491055 0.871129
vn 0.754421 0.491053 0.435563
vn 0.754421 0.491053 0.435563
vn 0.754421 0.491053 0.435563
vn 0.754421 0.491053 0.435564
vn 0.754420 0.491053 -0.435566
vn 0.754420 0.491053 -0.435566
vn 0.754420 0.491053 -0.435566
vn 0.754420 0.491053 -0.435566
vn 0.000000 0.491055 -0.871129
vn 0.000000 0.491055 -0.871129
vn 0.000000 0.491055 -0.871129
vn 0.000000 0.491055 -0.871129
vn -0.754417 0.491057 -0.435566
vn -0.754417 0.491057 -0.435566
vn -0.754417 0.491057 -0.435566
vn -0.754417 0.491057 -0.435566
vn -0.754420 0.491056 0.435563
vn -0.754420 0.491056 0.435563
vn -0.754420 0.491056 0.435563
vn -0.754420 0.491056 0.435563
vn 0.000000 0.000000 1.000000
vn 0.000000 0.000000 1.000000
vn 0.000000 0.000000 1.000000
vn 0.000000 0.000000 1.000000
vn 0.866029 0.000000 0.499993
vn 0.866029 0.000000 0.499993
vn 0.866029 0.000000 0.499993
vn 0.866029 0.000000 0.499993
vn 0.866029 0.000000 -0.499993
vn 0.866029 0.000000 -0.499993
vn 0.866029 0.000000 -0.499993
vn 0.866029 0.000000 -0.499993
vn 0.000000 0.000000 -1.000000
vn 0.000000 0.000000 -1.000000
vn 0.000000 0.000000 -1.000000
vn 0.000000 0.000000 -1.000000
vn -0.866026 0.000000 -0.500000
vn -0.866026 0.000000 -0.500000
vn -0.866026 0.000000 -0.500000
vn -0.866026 0.000000 -0.500000
vn -0.866026 0.000000 0.500000
vn -0.866026 0.000000 0.500000
vn -0.866026 0.000000 0.500000
vn -0.866026 0.000000 0.500000
vn 0.000000 -0.507507 0.861647
vn 0.000000 -0.507507 0.861647
vn 0.000000 -0.507507 0.861647
vn 0.000000 -0.507507 0.861647
vn 0.746210 -0.507503 0.430826
vn 0.746210 -0.507503 0.430826
vn 0.746210 -0.507503 0.430826
vn 0.746210 -0.507503 0.430826
vn 0.746211 -0.507501 -0.430827
vn 0.746211 -0.507501 -0.430827
vn 0.746211 -0.507501 -0.430827
vn 0.746211 -0.507501 -0.430827
vn 0.000000 -0.507497 -0.861653
vn 0.000000 -0.507497 -0.861653
vn 0.000000 -0.507497 -0.861653
vn 0.000000 -0.507497 -0.861653
vn -0.746210 -0.507505 -0.430824
vn -0.746210 -0.507505 -0.430824
vn -0.746210 -0.507505 -0.430824
vn -0.746210 -0.507505 -0.430824
vn -0.746209 -0.507507 0.430823
vn -0.746209 -0.507507 0.430823
vn -0.746209 -0.507507 0.430823
vn -0.746209 -0.507507 0.430823
vn 0.000000 -0.935081 -0.354433
vn 0.000000 -0.935081 -0.354433
vn 0.000000 -0.935081 -0.354433
vn 0.000000 -0.935081 -0.354433
vn 0.306941 -0.935083 -0.177218
vn 0.306941 -0.935083 -0.177218
vn 0.306941 -0.935083 -0.177218
vn 0.306941 -0.935084 -0.177218
vn 0.306941 -0.935083 0.177219
vn 0.306941 -0.935083 0.177219
vn 0.306941 -0.935083 0.177219
vn 0.306941 -0.935083 0.177219
vn 0.000000 -0.935081 0.354433
vn 0.000000 -0.935081 0.354433
vn 0.000000 -0.935081 0.354433
vn 0.000000 -0.935081 0.354433
vn -0.306932 -0.935087 0.177212
vn -0.306932 -0.935087 0.177212
vn -0.306932 -0.935087 0.177212
vn -0.306932 -0.935087 0.177212
vn -0.306932 -0.935087 -0.177214
vn -0.306932 -0.935087 -0.177214
vn -0.306932 -0.935087 -0.177214
vn -0.306932 -0.935087 -0.177214
vn 0.863241 0.080031 -0.498407
vn 0.863241 0.080031 -0.498407
vn 0.863241 0.080031 -0.498407
vn 0.863241 0.080031 -0.498407
vn 0.863241 0.080031 0.498408
vn 0.863241 0.080031 0.498408
vn 0.863241 0.080031 0.498408
vn 0.863241 0.080031 0.498408
vn 0.000000 0.080031 0.996792
vn 0.000000 0.080031 0.996792
vn 0.000000 0.080031 0.996792
vn 0.000000 0.080031 0.996792
vn -0.863237 0.080042 0.498412
vn -0.863237 0.080042 0.498412
vn -0.863237 0.080042 0.498412
vn -0.863237 0.080042 0.498412
vn -0.863238 0.080042 -0.498412
vn -0.863238 0.080042 -0.498412
vn -0.863238 0.080042 -0.498412
vn -0.863238 0.080042 -0.498412
vn 0.000000 0.080031 -0.996792
vn 0.000000 0.080031 -0.996792
vn 0.000000 0.080031 -0.996792
vn 0.000000 0.080031 -0.996792
vn 0.000000 0.500183 -0.865920
vn 0.000000 0.500183 -0.865920
vn 0.000000 0.500183 -0.865920
vn 0.000000 0.500183 -0.865920
vn 0.749924 0.500140 -0.432983
vn 0.749924 0.500140 -0.432983
vn 0.749924 0.500140 -0.432983
vn 0.749924 0.500140 -0.432983
vn 0.749928 0.500134 0.432983
vn 0.749928 0.500134 0.432983
vn 0.749928 0.500134 0.432983
vn 0.749928 0.500134 0.432983
vn 0.000000 0.500160 0.865933
vn 0.000000 0.500160 0.865933
vn 0.000000 0.500160 0.865933
vn 0.000000 0.500160 0.865933
vn -0.749931 0.500124 0.432989
vn -0.749931 0.500124 0.432989
vn -0.749931 0.500124 0.432989
vn -0.749931 0.500124 0.432989
vn -0.749927 0.500130 -0.432990
vn -0.749927 0.500130 -0.432990
vn -0.749927 0.500130 -0.432990
vn -0.749927 0.500130 -0.432990
vn 0.866029 0.000000 0.499993
vn 0.866029 0.000000 0.499993
vn 0.866029 0.000000 0.499993
vn 0.000000 0.000000 1.000000
vn 0.000000 0.000000 1.000000
vn 0.000000 0.000000 1.000000
vn 0.000000 0.000000 1.000000
vn -0.866026 0.000000 0.500000
vn -0.866025 0.000000 0.500000
vn -0.866025 0.000000 0.500000
vn -0.866025 0.000000 -0.500000
vn -0.866025 0.000000 -0.500000
vn -0.866026 0.000000 -0.500000
vn 0.000000 0.000000 -1.000000
vn 0.000000 0.000000 -1.000000
vn 0.000000 0.000000 -1.000000
vn 0.000000 0.000000 -1.000000
vn 0.866029 0.000000 -0.499993
vn 0.866029 0.000000 -0.499993
vn 0.866029 0.000000 -0.499993
vn -0.866026 0.000000 -0.500000
vn -0.866026 0.000000 -0.500000
vn -0.866026 0.000000 -0.500000
vn -0.866026 0.000000 0.500000
vn -0.866026 0.000000 0.500000
vn -0.866026 0.000000 0.500000
vn 0.000000 0.000000 1.000000
vn 0.000000 0.000000 1.000000
vn 0.000000 0.000000 1.000000
vn 0.000000 0.000000 1.000000
vn 0.866029 0.000000 0.499993
vn 0.866029 0.000000 0.499993
vn 0.866029 0.000000 0.499993
vn 0.866029 0.000000 -0.499993
vn 0.866029 0.000000 -0.499993
vn 0.866029 0.000000 -0.499993
vn 0.000000 0.000000 -1.000000
vn 0.000000 0.000000 -1.000000
vn 0.000000 0.000000 -1.000000
vn 0.000000 0.000000 -1.000000
vn 0.866024 0.000005 0.500002
vn 0.866024 0.000005 0.500002
vn 0.866024 0.000005 0.500002
vn 0.866024 0.000005 0.500002
vn 0.866018 -0.000001 0.500013
vn 0.866018 -0.000001 0.500013
vn 0.866018 -0.000001 0.500013
vn 0.866018 -0.000001 0.500013
vn 0.866023 0.000001 0.500005
vn 0.866024 0.000003 0.500003
vn 0.866021 -0.000008 0.500008
vn 0.866019 -0.000005 -0.500011
vn 0.866019 -0.000005 -0.500011
vn 0.866024 0.000006 -0.500003
vn 0.866024 0.000006 -0.500003
vn 0.866015 -0.000002 -0.500017
vn 0.866015 -0.000002 -0.500017
vn 0.866015 -0.000002 -0.500017
vn 0.866015 -0.000002 -0.500017
vn 0.866023 0.000007 -0.500005
vn 0.866023 0.000007 -0.500005
vn 0.866023 0.000007 -0.500005
vn 0.866023 0.000007 -0.500005
vn -0.866024 0.000002 -0.500003
vn -0.866024 0.000002 -0.500003
vn -0.866024 0.000002 -0.500003
vn -0.866024 0.000002 -0.500003
vn -0.866023 0.000000 -0.500004
vn -0.866023 0.000000 -0.500004
vn -0.866023 0.000000 -0.500004
vn -0.866023 0.000000 -0.500004
vn -0.866023 -0.000001 -0.500003
vn -0.866023 -0.000001 -0.500003
vn -0.866024 -0.000001 -0.500002
vn -0.866024 -0.000001 -0.500002
vn -0.866025 -0.000000 0.500000
vn -0.866025 -0.000000 0.500000
vn -0.866025 -0.000000 0.500000
vn -0.866025 -0.000000 0.500000
vn -0.866025 0.000000 0.500001
vn -0.866025 0.000000 0.500001
vn -0.866025 0.000000 0.500001
vn -0.866025 0.000000 0.500001
vn -0.866025 0.000000 0.500000
vn -0.866025 0.000000 0.500000
vn -0.866025 0.000000 0.500000
vn -0.866025 0.000000 0.500000
vn 0.000000 0.000000 1.000000
vn 0.000000 0.000000 1.000000
vn 0.000000 0.000000 1.000000
vn 0.000000 0.000000 1.000000
vn 0.000000 0.000000 1.000000
vn 0.000000 0.000000 1.000000
vn 0.000000 0.000000 1.000000
vn 0.000000 0.000000 1.000000
vn 0.000000 0.000000 1.000000
vn 0.000000 0.000000 1.000000
vn 0.000000 0.000000 1.000000
vn 0.000000 0.000000 1.000000
vn -0.000000 0.000000 1.000000
vn -0.000000 0.000000 1.000000
vn -0.000000 0.000000 1.000000
vn -0.000000 0.000000 1.000000
vn 0.866023 0.000001 0.500005
vn 0.866021 -0.000008 0.500008
vn 0.866014 0.000012 0.500020
vn -0.865016 0.048193 -0.499424
vn -0.865016 0.048193 -0.499424
vn -0.865036 0.047722 -0.499435
vn -0.865036 0.047722 -0.499435
vn -0.865020 0.048195 0.499418
vn -0.865020 0.048195 0.499418
vn -0.865040 0.047724 0.499428
vn -0.865040 0.047724 0.499428
vn 0.000000 0.048193 0.998838
vn 0.000000 0.048193 0.998838
vn 0.000000 0.047722 0.998861
vn 0.000000 0.047722 0.998861
vn 0.865020 0.048195 0.499418
vn 0.865020 0.048195 0.499418
vn 0.865040 0.047724 0.499428
vn 0.865040 0.047724 0.499428
vn 0.865018 0.048194 -0.499420
vn 0.865018 0.048195 -0.499420
vn 0.865038 0.047723 -0.499431
vn 0.865038 0.047723 -0.499431
vn 0.000000 0.047719 -0.998861
vn 0.000000 0.048190 -0.998838
vn 0.000000 0.048190 -0.998838
vn 0.000000 0.047719 -0.998861
s off
f 80/14/1 75/15/2 33/16/3 34/17/4
f 38/18/5 33/16/6 75/15/7 76/19/8
f 37/20/9 38/18/10 76/19/11 77/21/12
f 36/22/13 37/20/14 77/21/15 78/23/16
f 35/24/17 36/22/18 78/23/19 79/25/20
f 34/17/21 35/24/22 79/25/23 80/14/24
f 2/1/25 1/2/26 13/3/27
f 3/4/28 2/1/29 13/3/30
f 4/5/31 3/4/32 13/3/33
f 5/6/34 4/5/35 13/3/36
f 6/7/37 5/6/38 13/3/39
f 1/2/40 6/7/41 13/3/42
f 7/26/43 8/27/44 14/42/45
f 8/27/46 9/43/47 14/42/48
f 9/43/49 10/44/50 14/42/51
f 10/44/52 11/45/53 14/42/54
f 11/45/55 12/46/56 14/42/57
f 12/46/58 7/26/59 14/42/60
f 21/8/61 22/9/62 16/10/63 15/11/64
f 22/9/65 23/12/66 17/13/67 16/10/68
f 23/12/69 24/35/70 18/36/71 17/13/72
f 24/35/73 25/37/74 19/38/75 18/36/76
f 25/37/77 26/39/78 20/40/79 19/38/80
f 26/39/81 21/8/82 15/11/83 20/40/84
f 71/95/85 72/96/86 73/97/87 74/98/88
f 63/41/89 64/56/90 61/57/91 51/58/92
f 61/57/93 65/59/94 66/60/95 51/58/96
f 62/80/97 57/81/98 55/82/99 56/83/100
f 67/61/101 68/62/102 58/63/103 54/64/104
f 69/65/105 70/66/106 54/64/107 58/63/108
f 4/5/109 5/6/110 28/67/111 27/68/112
f 5/6/113 6/7/114 29/69/115 28/67/116
f 6/7/117 1/2/118 30/70/119 29/69/120
f 1/2/121 2/1/122 31/71/123 30/70/124
f 2/1/125 3/4/126 32/72/127 31/71/128
f 3/4/129 4/5/130 27/68/131 32/72/132
f 34/17/133 33/16/134 44/47/135 39/48/136
f 35/24/137 34/17/138 39/48/139 40/49/140
f 36/22/141 35/24/142 40/49/143 41/50/144
f 37/20/145 36/22/146 41/50/147 42/51/148
f 38/18/149 37/20/150 42/51/151 43/52/152
f 33/16/153 38/18/154 43/52/155 44/47/156
f 40/49/157 39/48/158 46/53/159 47/54/160
f 41/50/161 40/49/162 47/54/163 48/55/164
f 42/51/165 41/50/166 48/55/167 49/99/168
f 43/52/169 42/51/170 49/99/171 50/100/172
f 44/47/173 43/52/174 50/100/175 45/101/176
f 39/48/177 44/47/178 45/101/179 46/53/180
f 46/53/181 45/101/182 8/27/183 7/26/184
f 47/54/185 46/53/186 7/26/187 12/46/188
f 48/55/189 47/54/190 12/46/191 11/45/192
f 49/99/193 48/55/194 11/45/195 10/44/196
f 50/100/197 49/99/198 10/44/199 9/43/200
f 45/101/201 50/100/202 9/43/203 8/27/204
f 23/12/205 63/41/206 51/58/207
f 53/73/208 52/74/209 22/9/210 21/8/211
f 54/64/212 70/66/213 26/39/214
f 26/39/215 67/61/216 54/64/217
f 56/75/218 55/76/219 25/37/220 24/35/221
f 51/58/222 66/60/223 23/12/224
f 58/63/225 68/62/226 32/72/227
f 69/65/228 58/63/229 32/72/230
f 28/67/231 60/77/232 59/105/233 27/68/234
f 64/56/235 29/69/236 61/57/237
f 29/69/238 65/59/239 61/57/240
f 57/106/241 62/107/242 30/70/243 31/71/244
f 52/74/245 63/41/246 23/12/247 22/9/248
f 60/78/249 64/79/250 63/84/251 52/85/252
f 28/67/253 29/69/254 64/56/255
f 62/107/256 65/59/257 29/69/258 30/70/259
f 66/86/260 65/87/261 62/80/262 56/83/263
f 23/12/264 66/60/265 56/75/266 24/35/267
f 55/76/268 67/61/269 26/39/270 25/37/271
f 57/81/272 68/88/273 67/89/274 55/82/275
f 68/62/276 57/106/277 31/71/278 32/72/279
f 59/105/280 69/65/281 32/72/282 27/68/283
f 70/90/284 69/91/285 59/92/286 53/93/287
f 26/39/288 70/66/289 53/73/290 21/8/291
f 59/92/292 60/78/293 72/94/294 71/102/295
f 60/78/296 52/85/297 73/103/298 72/94/299
f 52/85/300 53/93/301 74/104/302 73/103/303
f 53/93/304 59/92/305 71/102/306 74/104/307
f 28/67/308 64/56/309 60/77/310
f 76/28/311 75/29/312 19/30/313 20/31/314
f 77/32/315 76/28/316 20/31/317 15/33/318
f 78/34/319 77/32/320 15/33/321 16/108/322
f 79/109/323 78/34/324 16/108/325 17/110/326
f 80/111/327 79/109/328 17/110/329 18/112/330
f 19/30/331 75/29/332 80/111/333 18/112/334
