# This file uses centimeters as units for non-parametric coordinates.

v -3.227979 -2.040133 5.522386
v 3.227979 -2.040133 5.522386
v -3.227979 2.040133 5.522386
v 3.227979 2.040133 5.522386
v -3.227979 2.040133 -5.522386
v 3.227979 2.040133 -5.522386
v -3.227979 -2.040133 -5.522386
v 3.227979 -2.040133 -5.522386
v -3.227979 2.040133 2.344767
v 3.227979 2.040133 2.344767
v 3.227979 -2.040133 2.344767
v -3.227979 -2.040133 2.344767
v -2.495639 1.478671 -5.522386
v 2.495639 1.478671 -5.522386
v 2.495639 -1.478671 -5.522386
v -2.495639 -1.478671 -5.522386
v -2.578411 -1.471522 5.522386
v 2.561541 -1.471522 5.522386
v 2.561541 1.471522 5.522386
v -2.578411 1.471522 5.522386
v 0.000000 1.471522 5.522386
v 0.000000 -1.471522 5.522386
v -1.981785 -0.567655 5.522386
v -0.846739 -0.567655 5.522386
v -0.846739 0.567655 5.522386
v -1.981785 0.567655 5.522386
v 0.762211 -0.722800 5.522386
v 0.762211 0.722800 5.522386
v 2.207474 -0.722800 5.522386
v 2.207474 0.722800 5.522386
v -1.414262 -0.756873 5.522386
v -0.657565 0.000000 5.522386
v -1.414262 0.756873 5.522386
v -2.170959 0.000000 5.522386
v 0.521334 0.000000 5.522386
v 1.484843 -0.963733 5.522386
v 2.448351 0.000000 5.522386
v 1.484843 0.963733 5.522386
v -1.981785 -0.567655 6.100282
v -2.170959 0.000000 6.100282
v -1.414262 -0.756873 6.100282
v -1.414262 0.000000 6.100282
v -0.846739 -0.567655 6.100282
v -0.657565 0.000000 6.100282
v -0.846739 0.567655 6.100282
v -1.414262 0.756873 6.100282
v -1.981785 0.567655 6.100282
v 0.762211 0.722800 6.100282
v 1.484843 0.963733 6.100282
v 0.521334 0.000000 6.100282
v 1.484843 0.000000 6.100282
v 0.762211 -0.722800 6.100282
v 1.484843 -0.963733 6.100282
v 2.207474 -0.722800 6.100282
v 2.448351 0.000000 6.100282
v 2.207474 0.722800 6.100282
v 0.000000 0.000000 5.522386
vt 0.208907 0.251287
vt 0.208907 0.251287
vt 0.208907 0.251287
vt 0.208907 0.251287
vt 0.079773 0.252284
vt 0.079773 0.252284
vt 0.079773 0.252284
vt 0.079773 0.252284
vt 0.208907 0.251287
vt 0.208907 0.251287
vt 0.079773 0.252284
vt 0.079773 0.252284
vt 0.079773 0.252284
vt 0.079773 0.252284
vt 0.208907 0.251287
vt 0.208907 0.251287
vt 0.126142 0.348012
vt 0.126142 0.348012
vt 0.126142 0.348012
vt 0.126142 0.348012
vt 0.126142 0.348012
vt 0.126142 0.348012
vt 0.126142 0.348012
vt 0.126142 0.348012
vt 0.126142 0.348012
vt 0.126142 0.348012
vt 0.126142 0.348012
vt 0.126142 0.348012
vt 0.126142 0.348012
vt 0.126142 0.348012
vt 0.126142 0.348012
vt 0.126142 0.348012
vt 0.126142 0.348012
vt 0.126142 0.348012
vt 0.126142 0.348012
vt 0.126142 0.348012
vt 0.126142 0.348012
vt 0.126142 0.348012
vt 0.126142 0.348012
vt 0.126142 0.348012
vt 0.126142 0.348012
vt 0.126142 0.348012
vt 0.126142 0.348012
vt 0.126142 0.348012
vt 0.126142 0.348012
vt 0.126142 0.348012
vt 0.126142 0.348012
vt 0.126142 0.348012
vt 0.126142 0.348012
vt 0.126142 0.348012
vt 0.122153 0.303139
vt 0.126142 0.348012
vt 0.126142 0.348012
vt 0.126142 0.348012
vt 0.126142 0.348012
vt 0.126142 0.348012
vt 0.126142 0.348012
vt 0.126142 0.348012
vt 0.126142 0.348012
vt 0.126142 0.348012
vt 0.126142 0.348012
vt 0.126142 0.348012
vt 0.126142 0.348012
vt 0.126142 0.348012
vt 0.126142 0.348012
vt 0.126142 0.348012
vt 0.126142 0.348012
vt 0.126142 0.348012
vt 0.126142 0.348012
vt 0.122153 0.303139
vt 0.122153 0.303139
vt 0.122153 0.303139
vt 0.122153 0.303139
vt 0.122153 0.303139
vt 0.122153 0.303139
vt 0.122153 0.303139
vt 0.122153 0.303139
vt 0.122153 0.303139
vt 0.122153 0.303139
vt 0.122153 0.303139
vt 0.122153 0.303139
vt 0.122153 0.303139
vt 0.122153 0.303139
vt 0.122153 0.303139
vt 0.122153 0.303139
vt 0.122153 0.303139
vt 0.122153 0.303139
vt 0.122153 0.303139
vt 0.122153 0.303139
vt 0.122153 0.303139
vt 0.122153 0.303139
vt 0.122153 0.303139
vt 0.122153 0.303139
vt 0.122153 0.303139
vt 0.122153 0.303139
vn 0.000000 0.000000 1.000000
vn 0.000000 0.000000 1.000000
vn 0.000000 0.000000 1.000000
vn 0.000000 0.000000 1.000000
vn 0.000000 1.000000 0.000000
vn 0.000000 1.000000 0.000000
vn 0.000000 1.000000 0.000000
vn 0.000000 1.000000 0.000000
vn 0.000000 0.000000 -1.000000
vn 0.000000 0.000000 -1.000000
vn 0.000000 0.000000 -1.000000
vn 0.000000 0.000000 -1.000000
vn 0.000000 -1.000000 0.000000
vn 0.000000 -1.000000 0.000000
vn 0.000000 -1.000000 0.000000
vn 0.000000 -1.000000 0.000000
vn 1.000000 0.000000 0.000000
vn 1.000000 0.000000 0.000000
vn 1.000000 0.000000 0.000000
vn 1.000000 0.000000 0.000000
vn -1.000000 0.000000 0.000000
vn -1.000000 0.000000 0.000000
vn -1.000000 0.000000 0.000000
vn -1.000000 0.000000 0.000000
vn 0.000000 1.000000 0.000000
vn 0.000000 1.000000 0.000000
vn 0.000000 1.000000 0.000000
vn 0.000000 1.000000 0.000000
vn 1.000000 0.000000 0.000000
vn 1.000000 0.000000 0.000000
vn 1.000000 0.000000 0.000000
vn 1.000000 0.000000 0.000000
vn 0.000000 -1.000000 0.000000
vn 0.000000 -1.000000 0.000000
vn 0.000000 -1.000000 0.000000
vn 0.000000 -1.000000 0.000000
vn -1.000000 0.000000 0.000000
vn -1.000000 0.000000 0.000000
vn -1.000000 0.000000 0.000000
vn -1.000000 0.000000 0.000000
vn 0.000000 0.000000 -1.000000
vn 0.000000 0.000000 -1.000000
vn 0.000000 0.000000 -1.000000
vn 0.000000 0.000000 -1.000000
vn 0.000000 0.000000 -1.000000
vn 0.000000 0.000000 -1.000000
vn 0.000000 0.000000 -1.000000
vn 0.000000 0.000000 -1.000000
vn 0.000000 0.000000 -1.000000
vn 0.000000 0.000000 -1.000000
vn 0.000000 0.000000 -1.000000
vn 0.000000 0.000000 -1.000000
vn -0.000000 0.000000 -1.000000
vn -0.000000 0.000000 -1.000000
vn -0.000000 0.000000 -1.000000
vn -0.000000 0.000000 -1.000000
vn 0.000000 0.000000 1.000000
vn 0.000000 0.000000 1.000000
vn 0.000000 0.000000 1.000000
vn 0.000000 0.000000 1.000000
vn 0.000000 0.000000 1.000000
vn 0.000000 0.000000 1.000000
vn 0.000000 0.000000 1.000000
vn 0.000000 0.000000 1.000000
vn 0.000000 0.000000 1.000000
vn 0.000000 0.000000 1.000000
vn -0.000000 0.000000 1.000000
vn -0.000000 0.000000 1.000000
vn -0.000000 0.000000 1.000000
vn -0.000000 0.000000 1.000000
vn 0.000000 0.000000 1.000000
vn 0.000000 0.000000 1.000000
vn 0.000000 0.000000 1.000000
vn 0.000000 0.000000 1.000000
vn 0.000000 0.000000 1.000000
vn 0.000000 0.000000 1.000000
vn 0.000000 0.000000 1.000000
vn -0.000001 0.000000 1.000000
vn 0.000000 0.000000 1.000000
vn -0.000001 0.000000 1.000000
vn -0.000001 0.000000 1.000000
vn 0.000000 0.000000 1.000000
vn 0.000000 0.000000 1.000000
vn 0.000000 0.000000 1.000000
vn 0.000001 0.000000 1.000000
vn 0.000001 0.000000 1.000000
vn 0.000001 0.000000 1.000000
vn 0.000001 0.000000 1.000000
vn 0.000000 0.000000 1.000000
vn 0.000001 0.000000 1.000000
vn 0.000001 0.000000 1.000000
vn -0.000000 0.000000 1.000000
vn -0.000000 0.000000 1.000000
vn -0.000000 0.000000 1.000000
vn -0.000001 0.000000 1.000000
vn -0.000001 0.000000 1.000000
vn -0.000001 0.000000 1.000000
vn 0.000000 0.000000 1.000000
vn 0.000000 0.000000 1.000000
vn 0.000000 0.000000 1.000000
vn 0.000000 0.000000 1.000000
vn 0.000000 0.000000 1.000000
vn 0.000000 0.000000 1.000000
vn 0.000000 0.000000 1.000000
vn 0.000000 0.000000 1.000000
vn 0.000000 0.000000 1.000000
vn 0.000000 0.000000 1.000000
vn 0.000000 0.000000 1.000000
vn 0.000000 0.000000 1.000000
vn 0.000000 0.000000 1.000000
vn 0.000000 0.000000 1.000000
vn 0.000000 0.000000 1.000000
vn 0.000000 0.000000 1.000000
vn 0.000000 0.000000 1.000000
vn 0.000000 0.000000 1.000000
vn 0.000000 0.000000 1.000000
vn 0.000000 0.000000 1.000000
vn 0.000000 0.000000 1.000000
vn 0.000000 0.000000 1.000000
vn 0.000000 0.000000 1.000000
vn 0.000000 0.000000 1.000000
vn 0.000000 0.000000 1.000000
vn 0.000000 0.000000 1.000000
vn 0.000000 0.000000 1.000000
vn -0.942798 -0.333365 0.000000
vn -0.942798 -0.333365 0.000000
vn -0.942798 -0.333365 0.000000
vn -0.942798 -0.333365 0.000000
vn -0.299784 -0.954007 0.000000
vn -0.299784 -0.954007 0.000000
vn -0.299784 -0.954007 0.000000
vn -0.299784 -0.954007 0.000000
vn 0.299784 -0.954007 0.000000
vn 0.299784 -0.954007 0.000000
vn 0.299784 -0.954007 0.000000
vn 0.299784 -0.954007 0.000000
vn 0.942798 -0.333365 0.000000
vn 0.942798 -0.333365 0.000000
vn 0.942798 -0.333365 0.000000
vn 0.942798 -0.333365 0.000000
vn 0.942798 0.333365 0.000000
vn 0.942798 0.333365 0.000000
vn 0.942798 0.333365 0.000000
vn 0.942798 0.333365 0.000000
vn 0.299784 0.954007 0.000000
vn 0.299784 0.954007 0.000000
vn 0.299784 0.954007 0.000000
vn 0.299784 0.954007 0.000000
vn -0.299784 0.954007 0.000000
vn -0.299784 0.954007 0.000000
vn -0.299784 0.954007 0.000000
vn -0.299784 0.954007 0.000000
vn -0.942798 0.333365 0.000000
vn -0.942798 0.333365 0.000000
vn -0.942798 0.333365 0.000000
vn -0.942798 0.333365 0.000000
vn -0.299784 0.954007 0.000000
vn -0.299784 0.954007 0.000000
vn -0.299784 0.954007 0.000000
vn -0.299784 0.954007 0.000000
vn -0.942798 0.333365 0.000000
vn -0.942798 0.333365 0.000000
vn -0.942798 0.333365 0.000000
vn -0.942798 0.333365 0.000000
vn -0.942798 -0.333365 0.000000
vn -0.942798 -0.333365 0.000000
vn -0.942798 -0.333365 0.000000
vn -0.942798 -0.333365 0.000000
vn -0.299784 -0.954007 0.000000
vn -0.299784 -0.954007 0.000000
vn -0.299784 -0.954007 0.000000
vn -0.299784 -0.954007 0.000000
vn 0.299784 -0.954007 0.000000
vn 0.299784 -0.954007 0.000000
vn 0.299784 -0.954007 0.000000
vn 0.299784 -0.954007 0.000000
vn 0.942798 -0.333365 0.000000
vn 0.942798 -0.333365 0.000000
vn 0.942798 -0.333365 0.000000
vn 0.942798 -0.333365 0.000000
vn 0.942798 0.333365 0.000000
vn 0.942798 0.333365 0.000000
vn 0.942798 0.333365 0.000000
vn 0.942798 0.333365 0.000000
vn 0.299784 0.954007 0.000000
vn 0.299784 0.954007 0.000000
vn 0.299784 0.954007 0.000000
vn 0.299784 0.954007 0.000000
vn 0.000001 0.000000 1.000000
vn 0.000000 0.000000 1.000000
vn 0.000001 0.000000 1.000000
vn 0.000001 0.000000 1.000000
vn -0.000001 0.000000 1.000000
vn 0.000000 0.000000 1.000000
vn -0.000001 0.000000 1.000000
vn -0.000001 0.000000 1.000000
vn -0.000001 0.000000 1.000000
vn -0.000001 0.000000 1.000000
vn -0.000001 0.000000 1.000000
vn -0.000001 0.000000 1.000000
vn -0.000001 0.000000 1.000000
vn -0.000001 0.000000 1.000000
vn 0.000000 0.000000 1.000000
vn 0.000000 0.000000 1.000000
vn 0.000000 0.000000 1.000000
vn 0.000000 0.000000 1.000000
vn 0.000000 0.000000 1.000000
vn 0.000000 0.000000 1.000000
vn 0.000000 0.000000 1.000000
vn 0.000000 0.000000 1.000000
vn 0.000000 0.000000 1.000000
vn 0.000000 0.000000 1.000000
vn 0.000000 0.000000 1.000000
vn 0.000000 0.000000 1.000000
vn 0.000001 0.000000 1.000000
vn 0.000001 0.000000 1.000000
vn 0.000001 0.000000 1.000000
vn 0.000001 0.000000 1.000000
vn 0.000001 0.000000 1.000000
vn 0.000001 0.000000 1.000000
vn 0.000000 0.000000 1.000000
vn 0.000000 0.000000 1.000000
vn 0.000000 0.000000 1.000000
vn 0.000000 0.000000 1.000000
vn 0.000000 0.000000 1.000000
vn 0.000000 0.000000 1.000000
vn -0.000000 0.000000 1.000000
vn -0.000000 0.000000 1.000000
vn -0.000000 0.000000 1.000000
vn -0.000000 0.000000 1.000000
vn -0.000000 0.000000 1.000000
vn -0.000000 0.000000 1.000000
vn 0.000000 0.000000 1.000000
vn 0.000000 0.000000 1.000000
vn 0.000000 0.000000 1.000000
vn 0.000000 0.000000 1.000000
vn 0.000000 0.000000 1.000000
vn 0.000000 0.000000 1.000000
vn 0.000000 0.000000 1.000000
vn 0.000000 0.000000 1.000000
vn 0.000000 0.000000 1.000000
vn 0.000000 0.000000 1.000000
vn 0.000000 0.000000 1.000000
vn 0.000000 0.000000 1.000000
s off
f 40/23/1 39/24/2 41/25/3 42/26/4
f 5/5/5 9/6/6 10/7/7 6/8/8
f 16/51/9 13/70/10 14/71/11 15/72/12
f 12/11/13 7/12/14 8/13/15 11/14/16
f 10/7/17 11/14/18 8/13/19 6/8/20
f 7/12/21 12/11/22 9/6/23 5/5/24
f 9/1/25 3/2/26 4/3/27 10/4/28
f 2/9/29 11/10/30 10/4/31 4/3/32
f 1/15/33 12/16/34 11/10/35 2/9/36
f 9/1/37 12/16/38 1/15/39 3/2/40
f 13/28/41 5/31/42 6/32/43 14/29/44
f 6/32/45 8/33/46 15/30/47 14/29/48
f 7/34/49 16/27/50 15/30/51 8/33/52
f 7/34/53 5/31/54 13/28/55 16/27/56
f 22/35/57 1/36/58 2/37/59
f 2/37/60 4/38/61 19/39/62 18/40/63
f 3/41/64 21/42/65 4/38/66
f 3/41/67 1/36/68 17/43/69 20/44/70
f 49/45/71 48/46/72 50/47/73 51/48/74
f 17/73/75 31/74/76 23/75/77
f 22/76/78 57/77/79 32/78/80 24/79/81
f 21/80/82 33/81/83 25/82/84
f 20/83/85 34/84/86 26/85/87
f 35/86/88 57/77/89 22/76/90 27/87/91
f 22/76/92 36/88/93 27/87/94
f 18/89/95 19/90/96 37/91/97
f 19/90/98 38/92/99 30/93/100
f 41/25/101 43/64/102 44/65/103 42/26/104
f 44/65/105 45/66/106 46/67/107 42/26/108
f 46/67/109 47/68/110 40/23/111 42/26/112
f 50/47/113 52/69/114 53/22/115 51/48/116
f 53/22/117 54/21/118 55/20/119 51/48/120
f 55/20/121 56/19/122 49/45/123 51/48/124
f 34/56/125 23/50/126 39/24/127 40/23/128
f 23/50/129 31/49/130 41/25/131 39/24/132
f 31/49/133 24/53/134 43/64/135 41/25/136
f 24/53/137 32/52/138 44/65/139 43/64/140
f 32/52/141 25/55/142 45/66/143 44/65/144
f 25/55/145 33/54/146 46/67/147 45/66/148
f 33/54/149 26/57/150 47/68/151 46/67/152
f 26/57/153 34/56/154 40/23/155 47/68/156
f 38/62/157 28/18/158 48/46/159 49/45/160
f 28/18/161 35/58/162 50/47/163 48/46/164
f 35/58/165 27/59/166 52/69/167 50/47/168
f 27/59/169 36/60/170 53/22/171 52/69/172
f 36/60/173 29/17/174 54/21/175 53/22/176
f 29/17/177 37/61/178 55/20/179 54/21/180
f 37/61/181 30/63/182 56/19/183 55/20/184
f 30/63/185 38/62/186 49/45/187 56/19/188
f 21/80/189 57/77/190 35/86/191 28/94/192
f 32/78/193 57/77/194 21/80/195 25/82/196
f 37/91/197 19/90/198 30/93/199
f 18/89/200 37/91/201 29/95/202
f 38/92/203 21/80/204 28/94/205
f 19/90/206 21/80/207 38/92/208
f 33/81/209 20/83/210 26/85/211
f 21/80/212 20/83/213 33/81/214
f 34/84/215 17/73/216 23/75/217
f 20/83/218 17/73/219 34/84/220
f 31/74/221 22/76/222 24/79/223
f 17/73/224 22/76/225 31/74/226
f 36/88/227 18/89/228 29/95/229
f 22/76/230 18/89/231 36/88/232
f 21/42/233 3/41/234 20/44/235
f 4/38/236 21/42/237 19/39/238
f 22/35/239 2/37/240 18/40/241
f 1/36/242 22/35/243 17/43/244
