# This file uses centimeters as units for non-parametric coordinates.

v -4.383780 6.975595 9.673967
v -4.383780 0.149205 8.364171
v 4.383958 6.975595 9.673967
v 4.383958 0.149205 8.364171
v 4.566377 7.181762 7.895689
v -4.566644 7.181762 7.895689
v -4.566644 -0.057390 6.585893
v 4.566377 -0.057390 6.585893
v -3.522144 5.876388 -6.510262
v -3.522144 1.121490 -8.425178
v 3.521887 1.121490 -8.425178
v 3.521887 5.876388 -6.510262
v -6.522817 3.480815 8.268771
v -6.794826 3.480815 6.490493
v 6.794738 3.480815 6.490493
v 6.523084 3.480815 8.268771
v 5.240382 3.909202 -7.923877
v -5.240528 3.909202 -7.923877
v -0.000089 7.608759 10.513208
v -0.000089 7.866665 8.734930
v -0.000089 -1.345056 6.585893
v -0.000089 -1.087148 8.364171
v -0.000129 0.128425 -8.425178
v -0.000129 6.665051 -6.089738
v 6.359778 3.762492 -7.397282
v 4.274221 0.272661 -7.878529
v -0.000240 -0.932314 -7.878528
v -4.274588 0.272661 -7.878529
v -6.360549 3.762492 -7.397282
v -4.274588 6.547953 -5.755689
v -0.000240 7.541305 -5.278138
v 4.274221 6.547953 -5.755690
v -0.000240 3.909199 -7.923877
v -0.001081 4.526456 -10.139392
v -0.000855 -0.407295 -10.725072
v -3.903105 0.693247 -10.725072
v -5.807976 4.526456 -10.139392
v -3.903105 6.907331 -8.610520
v -0.000855 7.798972 -8.161306
v -3.974596 6.365120 -6.362874
v -0.000240 7.276848 -5.908064
v -3.974596 0.611705 -8.414366
v -5.913691 3.906303 -7.913460
v -0.000240 -0.508498 -8.414366
v 5.912992 3.906303 -7.913460
v 3.973714 0.611705 -8.414366
v 3.901923 0.693247 -10.725072
v 5.805587 4.526457 -10.139392
v 3.973714 6.365119 -6.362874
v 3.901923 6.907331 -8.610520
v -7.531299 3.480815 6.833551
v -5.061595 -0.761775 6.928951
v -5.048562 -0.746589 8.364171
v -7.511825 3.480815 8.268771
v 7.512179 3.480815 8.268771
v 5.048800 -0.746589 8.364171
v 5.061269 -0.761775 6.928951
v 7.531299 3.480815 6.833551
v -0.000089 -2.225188 6.928951
v -0.000089 -2.205729 8.364171
v -0.000089 8.746799 9.077990
v -5.061595 7.886116 8.238748
v -5.048562 7.871421 9.673967
v -0.000089 8.727826 10.513208
v 5.048800 7.871421 9.673967
v 5.061269 7.886116 8.238748
v -5.311173 4.564389 0.685947
v -0.000040 5.838631 0.685947
v 5.311091 4.564389 0.685947
v 7.902862 2.921413 1.192661
v 5.311091 -0.006470 1.560312
v -0.000040 -1.281252 1.560312
v -5.311173 -0.006470 1.560312
v -7.903250 2.921413 1.192661
v -5.556834 4.800124 1.164361
v -0.000040 6.134225 1.164360
v 5.556638 4.800124 1.164361
v 8.268367 2.921413 1.671075
v 5.556638 -0.242745 2.038726
v -0.000040 -1.576342 2.038726
v -5.556834 -0.242745 2.038726
v -8.268870 2.921413 1.671075
v -4.778019 4.051806 1.326628
v -0.000078 5.198524 1.326628
v 4.778128 4.051806 1.326628
v 7.109571 2.921396 1.833343
v 4.778128 0.506120 2.200994
v -0.000078 -0.640925 2.200994
v -4.778019 0.506120 2.200994
v -7.109347 2.921396 1.833343
vt 0.104746 0.183283
vt 0.104746 0.159088
vt 0.071965 0.381366
vt 0.056843 0.381366
vt 0.056843 0.381366
vt 0.071965 0.381366
vt 0.071965 0.381365
vt 0.104746 0.159088
vt 0.104746 0.183283
vt 0.104746 0.183285
vt 0.104746 0.159090
vt 0.104746 0.159090
vt 0.104746 0.183285
vt 0.104746 0.159088
vt 0.071965 0.381365
vt 0.104746 0.183283
vt 0.104746 0.183283
vt 0.056843 0.381365
vt 0.056843 0.381365
vt 0.104746 0.183285
vt 0.104746 0.183285
vt 0.104746 0.183284
vt 0.104746 0.183284
vt 0.104746 0.159089
vt 0.104746 0.183284
vt 0.104746 0.159089
vt 0.104746 0.183284
vt 0.104746 0.159089
vt 0.104746 0.159090
vt 0.104746 0.183285
vt 0.071965 0.381366
vt 0.056843 0.381366
vt 0.056843 0.381366
vt 0.071965 0.381366
vt 0.056843 0.381366
vt 0.056843 0.381366
vt 0.071965 0.381366
vt 0.071965 0.381366
vt 0.071965 0.381366
vt 0.071965 0.381366
vt 0.104746 0.183284
vt 0.104746 0.183285
vt 0.071965 0.381366
vt 0.104746 0.183283
vt 0.056843 0.381366
vt 0.104746 0.159089
vt 0.104746 0.183284
vt 0.104746 0.159089
vt 0.104746 0.159089
vt 0.104746 0.183284
vt 0.104746 0.183284
vt 0.104746 0.183284
vt 0.104746 0.183284
vt 0.056843 0.381366
vt 0.056843 0.381366
vt 0.071965 0.381366
vt 0.071965 0.381365
vt 0.056843 0.381365
vt 0.071965 0.381365
vt 0.071965 0.381366
vt 0.071965 0.381366
vt 0.071965 0.381365
vt 0.071965 0.381366
vt 0.071965 0.381366
vt 0.071965 0.381366
vt 0.071965 0.381365
vt 0.071965 0.381366
vt 0.056843 0.381366
vt 0.056843 0.381366
vt 0.071965 0.381366
vt 0.056843 0.381366
vt 0.071965 0.381366
vt 0.071965 0.381366
vt 0.071965 0.381366
vt 0.104746 0.183284
vt 0.104746 0.159089
vt 0.104746 0.159089
vt 0.104746 0.159089
vt 0.104746 0.183284
vt 0.104746 0.183284
vt 0.104746 0.183284
vt 0.104746 0.183284
vt 0.104746 0.183284
vt 0.104746 0.159089
vt 0.104746 0.159089
vt 0.104746 0.159089
vt 0.104746 0.183284
vt 0.104746 0.183284
vt 0.104746 0.183284
vt 0.104746 0.183284
vt 0.071965 0.381365
vt 0.071965 0.381365
vt 0.071965 0.381365
vt 0.071965 0.381365
vt 0.056843 0.381365
vt 0.056843 0.381365
vt 0.056843 0.381365
vt 0.071965 0.381365
vn -0.921427 -0.388351 0.012489
vn -0.921427 -0.388351 0.012489
vn -0.921427 -0.388351 0.012489
vn -0.921427 -0.388351 0.012489
vn 0.000000 0.000000 1.000000
vn 0.000000 0.000000 1.000000
vn 0.000000 0.000000 1.000000
vn 0.000000 0.000000 1.000000
vn 0.921418 -0.388382 0.012194
vn 0.921418 -0.388382 0.012194
vn 0.921418 -0.388382 0.012195
vn 0.921418 -0.388382 0.012195
vn 0.000000 0.000000 -1.000000
vn 0.000000 0.000000 -1.000000
vn 0.000000 0.000000 -1.000000
vn 0.000000 0.000000 -1.000000
vn -0.277683 -0.960587 0.012855
vn -0.277683 -0.960587 0.012855
vn -0.277683 -0.960587 0.012855
vn -0.277683 -0.960587 0.012855
vn -0.277678 0.960593 0.012528
vn -0.277678 0.960593 0.012528
vn -0.277678 0.960593 0.012528
vn -0.277678 0.960593 0.012528
vn -0.271115 0.961623 -0.042172
vn -0.271115 0.961623 -0.042172
vn -0.271115 0.961623 -0.042172
vn -0.271115 0.961623 -0.042172
vn -0.917066 -0.396500 -0.042160
vn -0.917066 -0.396500 -0.042160
vn -0.917066 -0.396500 -0.042160
vn -0.917066 -0.396500 -0.042160
vn -0.271121 -0.961621 -0.042183
vn -0.271121 -0.961621 -0.042183
vn -0.271121 -0.961620 -0.042183
vn -0.271121 -0.961620 -0.042183
vn 0.917089 -0.396405 -0.042554
vn 0.917089 -0.396405 -0.042554
vn 0.917089 -0.396405 -0.042554
vn 0.917089 -0.396405 -0.042554
vn 0.915688 0.395760 0.069923
vn 0.915688 0.395760 0.069923
vn 0.790091 0.609830 0.062160
vn 0.789192 0.609249 0.077398
vn 0.270759 0.960135 0.069506
vn 0.270759 0.960135 0.069506
vn 0.249916 0.965831 0.068649
vn 0.249913 0.965830 0.068673
vn -0.915679 0.395777 0.069946
vn -0.915679 0.395777 0.069946
vn -0.789176 0.609268 0.077417
vn -0.790075 0.609849 0.062180
vn 0.195819 -0.977356 0.080191
vn 0.270698 -0.960148 0.069558
vn 0.270698 -0.960148 0.069558
vn 0.194835 -0.977045 0.086157
vn -0.921444 0.388312 0.012423
vn -0.921444 0.388312 0.012423
vn -0.921444 0.388312 0.012423
vn -0.921444 0.388312 0.012423
vn -0.917097 0.396435 -0.042108
vn -0.917097 0.396435 -0.042108
vn -0.917097 0.396435 -0.042108
vn -0.917097 0.396435 -0.042108
vn 0.000000 0.000000 -1.000000
vn 0.000000 0.000000 -1.000000
vn 0.000000 0.000000 -1.000000
vn 0.000000 0.000000 -1.000000
vn 0.917120 0.396339 -0.042502
vn 0.917120 0.396339 -0.042502
vn 0.917120 0.396339 -0.042502
vn 0.917120 0.396339 -0.042502
vn 0.921435 0.388343 0.012128
vn 0.921435 0.388343 0.012128
vn 0.921435 0.388343 0.012128
vn 0.921435 0.388343 0.012128
vn -0.666765 -0.742682 0.062021
vn -0.915693 -0.395742 0.069962
vn -0.915693 -0.395742 0.069962
vn -0.653295 -0.755939 0.041965
vn 0.000000 -0.000000 1.000000
vn 0.000000 -0.000000 1.000000
vn 0.000000 -0.000000 1.000000
vn 0.000000 -0.000000 1.000000
vn 0.915702 -0.395726 0.069939
vn 0.915702 -0.395726 0.069939
vn 0.666786 -0.742665 0.062007
vn 0.653317 -0.755921 0.041951
vn 0.277671 0.960595 0.012473
vn 0.277671 0.960595 0.012473
vn 0.277671 0.960595 0.012473
vn 0.277671 0.960595 0.012473
vn 0.271110 0.961620 -0.042261
vn 0.271110 0.961620 -0.042261
vn 0.271110 0.961620 -0.042261
vn 0.271110 0.961620 -0.042261
vn -0.000000 0.000000 -1.000000
vn -0.000000 0.000000 -1.000000
vn -0.000000 0.000000 -1.000000
vn -0.000000 0.000000 -1.000000
vn 0.000000 0.000000 -1.000000
vn 0.000000 0.000000 -1.000000
vn 0.000000 0.000000 -1.000000
vn 0.000000 0.000000 -1.000000
vn 0.271116 -0.961618 -0.042273
vn 0.271116 -0.961618 -0.042273
vn 0.271116 -0.961618 -0.042273
vn 0.271116 -0.961618 -0.042273
vn 0.277676 -0.960590 0.012800
vn 0.277676 -0.960589 0.012800
vn 0.277676 -0.960590 0.012800
vn 0.277676 -0.960589 0.012800
vn -0.249905 0.965834 0.068652
vn -0.270748 0.960138 0.069510
vn -0.270748 0.960138 0.069510
vn -0.249902 0.965833 0.068676
vn -0.000000 0.000000 1.000000
vn -0.000000 0.000000 1.000000
vn -0.000000 0.000000 1.000000
vn -0.000000 0.000000 1.000000
vn -0.000000 -0.000000 1.000000
vn -0.000000 -0.000000 1.000000
vn -0.000000 -0.000000 1.000000
vn -0.000000 -0.000000 1.000000
vn -0.270686 -0.960151 0.069562
vn -0.270686 -0.960151 0.069562
vn -0.195810 -0.977357 0.080198
vn -0.194825 -0.977046 0.086169
vn 0.917338 -0.396504 -0.035733
vn 0.917338 -0.396503 -0.035733
vn 0.917338 -0.396503 -0.035733
vn 0.917338 -0.396503 -0.035733
vn 0.271178 -0.961872 -0.035552
vn 0.271178 -0.961872 -0.035552
vn 0.271178 -0.961872 -0.035552
vn 0.271178 -0.961872 -0.035552
vn -0.271181 -0.961872 -0.035544
vn -0.271181 -0.961872 -0.035544
vn -0.271181 -0.961872 -0.035544
vn -0.271181 -0.961872 -0.035544
vn -0.917316 -0.396556 -0.035705
vn -0.917316 -0.396556 -0.035705
vn -0.917316 -0.396556 -0.035705
vn -0.917316 -0.396556 -0.035705
vn -0.917333 0.396517 -0.035711
vn -0.917333 0.396517 -0.035711
vn -0.917333 0.396517 -0.035711
vn -0.917333 0.396517 -0.035711
vn -0.271181 0.961874 -0.035501
vn -0.271181 0.961874 -0.035501
vn -0.271181 0.961874 -0.035501
vn -0.271181 0.961874 -0.035501
vn 0.271177 0.961874 -0.035509
vn 0.271177 0.961874 -0.035509
vn 0.271177 0.961874 -0.035509
vn 0.271177 0.961874 -0.035509
vn 0.917354 0.396465 -0.035739
vn 0.917354 0.396465 -0.035739
vn 0.917354 0.396465 -0.035739
vn 0.917354 0.396465 -0.035739
vn -0.215984 0.765855 -0.605654
vn -0.215984 0.765855 -0.605654
vn -0.215984 0.765855 -0.605654
vn -0.215984 0.765855 -0.605654
vn -0.728967 -0.315114 -0.607709
vn -0.728967 -0.315114 -0.607709
vn -0.728967 -0.315114 -0.607709
vn -0.728967 -0.315114 -0.607709
vn -0.215894 -0.765898 -0.605632
vn -0.215894 -0.765898 -0.605632
vn -0.215894 -0.765898 -0.605632
vn -0.215894 -0.765898 -0.605632
vn 0.728839 -0.315042 -0.607899
vn 0.728839 -0.315042 -0.607899
vn 0.728839 -0.315042 -0.607899
vn 0.728839 -0.315042 -0.607899
vn -0.728976 0.315079 -0.607717
vn -0.728976 0.315079 -0.607717
vn -0.728976 0.315079 -0.607716
vn -0.728976 0.315079 -0.607716
vn 0.728849 0.315007 -0.607906
vn 0.728849 0.315007 -0.607906
vn 0.728849 0.315007 -0.607906
vn 0.728849 0.315007 -0.607906
vn 0.215978 0.765804 -0.605720
vn 0.215978 0.765804 -0.605720
vn 0.215978 0.765804 -0.605720
vn 0.215978 0.765804 -0.605720
vn 0.215888 -0.765848 -0.605698
vn 0.215888 -0.765848 -0.605698
vn 0.215888 -0.765848 -0.605698
vn 0.215888 -0.765848 -0.605698
vn -0.402699 -0.171750 -0.899075
vn -0.402699 -0.171750 -0.899075
vn -0.402699 -0.171750 -0.899075
vn -0.402698 -0.171750 -0.899075
vn 0.000000 0.000000 1.000000
vn 0.000000 0.000000 1.000000
vn 0.000000 0.000000 1.000000
vn 0.000000 0.000000 1.000000
vn 0.000000 0.000000 1.000000
vn 0.000000 0.000000 1.000000
vn 0.000000 0.000000 1.000000
vn 0.000000 0.000000 1.000000
vn 0.402684 -0.171762 -0.899079
vn 0.402684 -0.171762 -0.899079
vn 0.402684 -0.171762 -0.899079
vn 0.402684 -0.171762 -0.899079
vn -0.104971 -0.367372 -0.924132
vn -0.104971 -0.367372 -0.924132
vn -0.104971 -0.367372 -0.924132
vn -0.104971 -0.367372 -0.924132
vn 0.000000 0.000000 1.000000
vn 0.000000 0.000000 1.000000
vn 0.000000 0.000000 1.000000
vn 0.000000 0.000000 1.000000
vn -0.104969 0.367378 -0.924129
vn -0.104969 0.367378 -0.924129
vn -0.104969 0.367378 -0.924129
vn -0.104969 0.367378 -0.924129
vn -0.000000 0.000000 1.000000
vn -0.000000 0.000000 1.000000
vn -0.000000 0.000000 1.000000
vn -0.000000 0.000000 1.000000
vn -0.402708 0.171739 -0.899073
vn -0.402708 0.171739 -0.899073
vn -0.402708 0.171739 -0.899073
vn -0.402708 0.171739 -0.899073
vn 0.000001 0.000000 1.000000
vn 0.000001 0.000000 1.000000
vn 0.000001 0.000000 1.000000
vn 0.000001 0.000000 1.000000
vn -0.000001 0.000000 1.000000
vn -0.000001 0.000000 1.000000
vn -0.000001 0.000000 1.000000
vn -0.000001 0.000000 1.000000
vn 0.402694 0.171751 -0.899077
vn 0.402694 0.171751 -0.899077
vn 0.402694 0.171751 -0.899077
vn 0.402694 0.171751 -0.899077
vn 0.104973 0.367380 -0.924128
vn 0.104973 0.367380 -0.924128
vn 0.104973 0.367380 -0.924128
vn 0.104973 0.367380 -0.924128
vn 0.000000 0.000000 1.000000
vn 0.000000 0.000000 1.000000
vn 0.000000 0.000000 1.000000
vn 0.000000 0.000000 1.000000
vn 0.104974 -0.367374 -0.924130
vn 0.104974 -0.367374 -0.924130
vn 0.104974 -0.367374 -0.924130
vn 0.104974 -0.367374 -0.924130
vn -0.000000 0.000000 1.000000
vn -0.000000 0.000000 1.000000
vn -0.000000 0.000000 1.000000
vn -0.000000 0.000000 1.000000
vn -0.271086 0.961314 0.048871
vn -0.271086 0.961314 0.048871
vn -0.271086 0.961314 0.048871
vn -0.271086 0.961314 0.048871
vn 0.271092 0.961312 0.048872
vn 0.271092 0.961312 0.048872
vn 0.271092 0.961312 0.048872
vn 0.271092 0.961312 0.048872
vn 0.916818 0.396268 0.049163
vn 0.916818 0.396268 0.049163
vn 0.916818 0.396268 0.049163
vn 0.916818 0.396268 0.049163
vn 0.916810 -0.396283 0.049189
vn 0.916810 -0.396283 0.049189
vn 0.916810 -0.396283 0.049189
vn 0.916810 -0.396283 0.049189
vn 0.271049 -0.961321 0.048925
vn 0.271049 -0.961321 0.048925
vn 0.271049 -0.961322 0.048925
vn 0.271049 -0.961321 0.048925
vn -0.271043 -0.961323 0.048924
vn -0.271043 -0.961323 0.048924
vn -0.271043 -0.961323 0.048924
vn -0.271043 -0.961323 0.048924
vn -0.916805 -0.396288 0.049228
vn -0.916805 -0.396288 0.049228
vn -0.916805 -0.396288 0.049228
vn -0.916805 -0.396288 0.049228
vn -0.916813 0.396273 0.049203
vn -0.916813 0.396273 0.049203
vn -0.916813 0.396273 0.049203
vn -0.916813 0.396273 0.049203
vn -0.233322 0.827583 -0.510555
vn -0.233322 0.827584 -0.510555
vn -0.233322 0.827584 -0.510555
vn -0.233322 0.827583 -0.510555
vn 0.233327 0.827593 -0.510538
vn 0.233327 0.827592 -0.510538
vn 0.233327 0.827592 -0.510538
vn 0.233327 0.827592 -0.510538
vn 0.788236 0.340690 -0.512460
vn 0.788236 0.340690 -0.512460
vn 0.788236 0.340690 -0.512460
vn 0.788236 0.340690 -0.512460
vn 0.788152 -0.340671 -0.512601
vn 0.788152 -0.340671 -0.512601
vn 0.788152 -0.340671 -0.512602
vn 0.788152 -0.340671 -0.512601
vn 0.233327 -0.827579 -0.510561
vn 0.233327 -0.827579 -0.510561
vn 0.233327 -0.827579 -0.510561
vn 0.233327 -0.827579 -0.510561
vn -0.233322 -0.827570 -0.510577
vn -0.233322 -0.827570 -0.510577
vn -0.233322 -0.827570 -0.510577
vn -0.233322 -0.827570 -0.510577
vn -0.788072 -0.340676 -0.512721
vn -0.788072 -0.340676 -0.512721
vn -0.788072 -0.340676 -0.512721
vn -0.788072 -0.340676 -0.512721
vn -0.788156 0.340695 -0.512578
vn -0.788156 0.340695 -0.512578
vn -0.788156 0.340695 -0.512578
vn -0.788156 0.340695 -0.512578
vn 0.270698 -0.960148 0.069558
vn 0.195819 -0.977356 0.080191
vn 0.194835 -0.977045 0.086157
vn 0.270698 -0.960148 0.069558
vn -0.194825 -0.977046 0.086169
vn -0.195810 -0.977357 0.080198
vn -0.270687 -0.960151 0.069562
vn -0.270687 -0.960151 0.069562
vn -0.915693 -0.395742 0.069962
vn -0.666765 -0.742682 0.062021
vn -0.653295 -0.755939 0.041965
vn -0.915693 -0.395742 0.069962
vn -0.790075 0.609849 0.062180
vn -0.789176 0.609268 0.077417
vn -0.915679 0.395777 0.069946
vn -0.915679 0.395777 0.069946
vn -0.270748 0.960138 0.069510
vn -0.249905 0.965834 0.068652
vn -0.249902 0.965833 0.068676
vn -0.270748 0.960138 0.069510
vn 0.249913 0.965830 0.068673
vn 0.249916 0.965831 0.068649
vn 0.270759 0.960135 0.069506
vn 0.270759 0.960135 0.069506
vn 0.789192 0.609249 0.077398
vn 0.790091 0.609830 0.062160
vn 0.915688 0.395760 0.069923
vn 0.915688 0.395760 0.069923
vn 0.653317 -0.755921 0.041951
vn 0.666786 -0.742665 0.062007
vn 0.915702 -0.395726 0.069939
vn 0.915702 -0.395725 0.069939
s off
f 51/3/1 52/4/2 53/5/3 54/6/4
f 33/7/5 18/15/6 10/18/7 23/19/8
f 55/31/9 56/32/10 57/33/11 58/34/12
f 34/10/13 35/11/14 36/12/15 37/13/16
f 52/4/17 59/35/18 60/36/19 53/5/20
f 61/37/21 62/38/22 63/39/23 64/40/24
f 39/20/25 38/21/26 40/22/27 41/23/28
f 37/13/29 36/12/30 42/24/31 43/25/32
f 36/12/33 35/11/34 44/26/35 42/24/36
f 45/27/37 46/28/38 47/29/39 48/30/40
f 13/43/41 2/45/42 89/97/43 90/98/44
f 2/45/45 22/54/46 88/96/47 89/97/48
f 4/55/49 16/56/50 86/94/51 87/95/52
f 84/92/53 19/60/54 1/61/55 83/91/56
f 62/38/57 51/3/58 54/6/59 63/39/60
f 38/21/61 37/13/62 43/25/63 40/22/64
f 39/20/65 34/10/66 37/13/67 38/21/68
f 49/41/69 45/27/70 48/30/71 50/42/72
f 65/63/73 55/31/74 58/34/75 66/64/76
f 86/94/77 16/56/78 3/65/79 85/93/80
f 9/62/81 18/15/82 33/7/83 24/59/84
f 1/61/85 13/43/86 90/98/87 83/91/88
f 66/64/89 61/37/90 64/40/91 65/63/92
f 50/42/93 39/20/94 41/23/95 49/41/96
f 50/42/97 48/30/98 34/10/99 39/20/100
f 48/30/101 47/29/102 35/11/103 34/10/104
f 44/26/105 35/11/106 47/29/107 46/28/108
f 60/36/109 59/35/110 57/33/111 56/32/112
f 88/96/113 22/54/114 4/55/115 87/95/116
f 33/7/117 23/19/118 11/58/119 17/57/120
f 24/59/121 33/7/122 17/57/123 12/66/124
f 3/65/125 19/60/126 84/92/127 85/93/128
f 70/87/129 71/86/130 26/46/131 25/47/132
f 72/85/133 27/48/134 26/46/135 71/86/136
f 28/49/137 27/48/138 72/85/139 73/84/140
f 29/50/141 28/49/142 73/84/143 74/83/144
f 30/51/145 29/50/146 74/83/147 67/90/148
f 31/52/149 30/51/150 67/90/151 68/89/152
f 32/53/153 31/52/154 68/89/155 69/88/156
f 69/88/157 70/87/158 25/47/159 32/53/160
f 30/51/161 31/52/162 41/23/163 40/22/164
f 28/49/165 29/50/166 43/25/167 42/24/168
f 27/48/169 28/49/170 42/24/171 44/26/172
f 25/47/173 26/46/174 46/28/175 45/27/176
f 29/50/177 30/51/178 40/22/179 43/25/180
f 32/53/181 25/47/182 45/27/183 49/41/184
f 31/52/185 32/53/186 49/41/187 41/23/188
f 26/46/189 27/48/190 44/26/191 46/28/192
f 14/67/193 7/68/194 52/4/195 51/3/196
f 2/45/197 13/43/198 54/6/199 53/5/200
f 16/56/201 4/55/202 56/32/203 55/31/204
f 8/69/205 15/70/206 58/34/207 57/33/208
f 7/68/209 21/71/210 59/35/211 52/4/212
f 22/54/213 2/45/214 53/5/215 60/36/216
f 20/72/217 6/73/218 62/38/219 61/37/220
f 1/61/221 19/60/222 64/40/223 63/39/224
f 6/73/225 14/67/226 51/3/227 62/38/228
f 13/43/229 1/61/230 63/39/231 54/6/232
f 3/65/233 16/56/234 55/31/235 65/63/236
f 15/70/237 5/74/238 66/64/239 58/34/240
f 5/74/241 20/72/242 61/37/243 66/64/244
f 19/60/245 3/65/246 65/63/247 64/40/248
f 21/71/249 8/69/250 57/33/251 59/35/252
f 4/55/253 22/54/254 60/36/255 56/32/256
f 76/82/257 75/81/258 6/17/259 20/16/260
f 77/80/261 76/82/262 20/16/263 5/44/264
f 5/44/265 15/9/266 78/79/267 77/80/268
f 15/9/269 8/8/270 79/78/271 78/79/272
f 21/14/273 80/77/274 79/78/275 8/8/276
f 81/76/277 80/77/278 21/14/279 7/2/280
f 82/75/281 81/76/282 7/2/283 14/1/284
f 75/81/285 82/75/286 14/1/287 6/17/288
f 68/89/289 67/90/290 75/81/291 76/82/292
f 69/88/293 68/89/294 76/82/295 77/80/296
f 70/87/297 69/88/298 77/80/299 78/79/300
f 71/86/301 70/87/302 78/79/303 79/78/304
f 72/85/305 71/86/306 79/78/307 80/77/308
f 73/84/309 72/85/310 80/77/311 81/76/312
f 74/83/313 73/84/314 81/76/315 82/75/316
f 67/90/317 74/83/318 82/75/319 75/81/320
f 24/59/321 84/92/322 83/91/323 9/62/324
f 85/93/325 84/92/326 24/59/327 12/66/328
f 17/57/329 86/94/330 85/93/331 12/66/332
f 87/95/333 86/94/334 17/57/335 11/58/336
f 23/19/337 88/96/338 87/95/339 11/58/340
f 89/97/341 88/96/342 23/19/343 10/18/344
f 90/98/345 89/97/346 10/18/347 18/15/348
f 83/91/349 90/98/350 18/15/351 9/62/352
