# This file uses centimeters as units for non-parametric coordinates.

v -11.421727 -29.771334 0.000000
v -8.076382 -29.771334 8.076382
v 0.000000 -29.771334 11.421735
v 8.076382 -29.771334 8.076382
v 11.421728 -29.771334 0.000000
v -11.421727 29.771334 0.000000
v -8.076382 29.771334 8.076382
v 0.000000 29.771334 11.421735
v 8.076382 29.771334 8.076382
v 11.421728 29.771334 0.000000
v -3.426175 29.771334 0.000000
v 0.000000 29.771334 3.426180
v 3.426176 29.771334 0.000000
v 3.426176 -29.771334 0.000000
v 0.000000 -29.771334 3.426180
v -3.426175 -29.771334 0.000000
v -2.754821 29.771334 1.991109
v 2.744661 29.771334 1.948007
v -2.826367 -29.771334 1.919561
v 2.907663 -29.771334 1.784996
v -6.530365 29.771334 0.000000
v -4.733185 29.771334 4.467573
v 0.000000 29.771334 6.530371
v 4.729651 29.771334 4.452582
v 6.530365 29.771334 0.000000
v 6.839260 -29.771334 0.000000
v 5.012741 -29.771334 4.603819
v 0.000000 -29.771334 6.839265
v -4.983130 -29.771334 4.652834
v -6.839260 -29.771334 0.000000
v -10.457279 29.771334 0.000000
v -7.434479 29.771334 7.342361
v 0.000000 29.771334 10.457291
v 7.433253 29.771334 7.337160
v 10.457282 29.771334 0.000000
v 10.457282 -29.771334 0.000000
v 7.452915 -29.771334 7.317499
v 0.000000 -29.771334 10.457291
v -7.443110 -29.771334 7.333729
v -10.457279 -29.771334 0.000000
v 6.371086 -29.771334 6.000694
v 8.783786 -29.771334 0.000000
v 8.783786 29.771334 0.000000
v 6.317308 29.771334 6.054474
v 0.000000 29.771334 8.783792
v -6.320660 29.771334 6.068692
v -8.783786 29.771334 0.000000
v -8.783786 -29.771334 0.000000
v -6.344265 -29.771334 6.045090
v 0.000000 -29.771334 8.783792
v -8.076382 -29.771334 -8.076382
v 0.000000 -29.771334 -11.421735
v 8.076382 -29.771334 -8.076382
v -8.076382 29.771334 -8.076382
v 0.000000 29.771334 -11.421735
v 8.076382 29.771334 -8.076382
v 0.000000 29.771334 -3.426180
v 0.000000 -29.771334 -3.426180
v -2.754821 29.771334 -1.991109
v 2.744661 29.771334 -1.948007
v -2.826367 -29.771334 -1.919561
v 2.907663 -29.771334 -1.784996
v -4.733185 29.771334 -4.467573
v 0.000000 29.771334 -6.530371
v 4.729651 29.771334 -4.452582
v 5.012741 -29.771334 -4.603819
v 0.000000 -29.771334 -6.839265
v -4.983130 -29.771334 -4.652834
v -7.434479 29.771334 -7.342361
v 0.000000 29.771334 -10.457291
v 7.433253 29.771334 -7.337160
v 7.452915 -29.771334 -7.317499
v 0.000000 -29.771334 -10.457291
v -7.443110 -29.771334 -7.333729
v 6.371086 -29.771334 -6.000694
v 6.317308 29.771334 -6.054474
v 0.000000 29.771334 -8.783792
v -6.320660 29.771334 -6.068692
v -6.344265 -29.771334 -6.045090
v 0.000000 -29.771334 -8.783792
vt 0.014933 0.274771
vt 0.014933 0.274771
vt 0.014933 0.274771
vt 0.014933 0.274771
vt 0.014933 0.274771
vt 0.014933 0.274771
vt 0.014933 0.274771
vt 0.014933 0.274771
vt 0.014933 0.274771
vt 0.014933 0.274771
vt 0.014933 0.274771
vt 0.014933 0.274771
vt 0.014933 0.274771
vt 0.014933 0.274771
vt 0.014933 0.274771
vt 0.014933 0.274771
vt 0.014933 0.274771
vt 0.014933 0.274771
vt 0.016128 0.376915
vt 0.014933 0.274771
vt 0.016128 0.376915
vt 0.014933 0.274771
vt 0.016128 0.376915
vt 0.016128 0.376915
vt 0.016128 0.376915
vt 0.016128 0.376915
vt 0.016128 0.376915
vt 0.016128 0.376915
vt 0.016128 0.376915
vt 0.016128 0.376915
vt 0.016128 0.376915
vt 0.016128 0.376915
vt 0.016128 0.376915
vt 0.016128 0.376915
vt 0.016128 0.376915
vt 0.016128 0.376915
vt 0.016128 0.376915
vt 0.016128 0.376915
vt 0.016128 0.376915
vt 0.016128 0.376915
vt 0.016128 0.354216
vt 0.016128 0.354216
vt 0.016128 0.376915
vt 0.016128 0.376915
vt 0.016128 0.376915
vt 0.016128 0.376915
vt 0.016128 0.376915
vt 0.016128 0.354216
vt 0.016128 0.376915
vt 0.016128 0.354216
vt 0.016128 0.376915
vt 0.016128 0.376915
vt 0.016128 0.376915
vt 0.016128 0.376915
vt 0.016128 0.354216
vt 0.016128 0.354216
vt 0.016128 0.354216
vt 0.016128 0.354216
vt 0.016128 0.354216
vt 0.016128 0.354216
vt 0.016128 0.354216
vt 0.016128 0.354216
vt 0.016128 0.354216
vt 0.016128 0.354216
vt 0.016128 0.354216
vt 0.016128 0.354216
vt 0.016128 0.354216
vt 0.016128 0.354216
vt 0.016128 0.354216
vt 0.016128 0.354216
vt 0.016128 0.354216
vt 0.016128 0.354216
vt 0.016128 0.354216
vt 0.016128 0.354216
vt 0.016128 0.354216
vt 0.016128 0.354216
vt 0.016128 0.354216
vt 0.016128 0.354216
vt 0.016128 0.354216
vt 0.016128 0.354216
vt 0.016128 0.354216
vt 0.016128 0.354216
vt 0.016128 0.354216
vt 0.016128 0.354216
vt 0.016128 0.354216
vt 0.016128 0.354216
vt 0.016128 0.354216
vt 0.016128 0.354216
vt 0.016128 0.354216
vt 0.016128 0.354216
vt 0.014933 0.274771
vt 0.014933 0.274771
vt 0.014933 0.274771
vt 0.014933 0.274771
vt 0.014933 0.274771
vt 0.014933 0.274771
vt 0.014933 0.274771
vt 0.014933 0.274771
vt 0.014933 0.274771
vt 0.014933 0.274771
vt 0.016128 0.354216
vt 0.016128 0.354216
vt 0.016128 0.354216
vt 0.016128 0.354216
vt 0.016128 0.354216
vt 0.016128 0.354216
vt 0.016128 0.354216
vt 0.016128 0.354216
vt 0.016128 0.376915
vt 0.016128 0.376915
vt 0.016128 0.376915
vt 0.016128 0.376915
vt 0.016128 0.376915
vt 0.016128 0.376915
vt 0.016128 0.376915
vt 0.016128 0.376915
vt 0.016128 0.376915
vt 0.016128 0.376915
vt 0.016128 0.354216
vt 0.016128 0.354216
vt 0.016128 0.354216
vt 0.016128 0.354216
vt 0.016128 0.354216
vt 0.016128 0.354216
vt 0.016128 0.354216
vt 0.016128 0.354216
vt 0.016128 0.354216
vt 0.016128 0.354216
vt 0.016128 0.354216
vt 0.016128 0.354216
vt 0.016128 0.354216
vt 0.016128 0.354216
vt 0.016128 0.354216
vt 0.016128 0.354216
vt 0.016128 0.354216
vt 0.016128 0.354216
vt 0.016128 0.354216
vt 0.016128 0.354216
vt 0.016128 0.354216
vt 0.016128 0.354216
vt 0.016128 0.354216
vt 0.016128 0.354216
vt 0.016128 0.354216
vt 0.016128 0.354216
vt 0.016128 0.354216
vt 0.016128 0.354216
vt 0.016128 0.354216
vt 0.016128 0.354216
vt 0.016128 0.354216
vt 0.016128 0.354216
vt 0.014933 0.274771
vt 0.014933 0.274771
vt 0.014933 0.274771
vt 0.014933 0.274771
vt 0.014933 0.274771
vt 0.014933 0.274771
vt 0.014933 0.274771
vt 0.014933 0.274771
vt 0.014933 0.274771
vt 0.014933 0.274771
vt 0.016128 0.376915
vt 0.016128 0.376915
vt 0.016128 0.376915
vt 0.016128 0.376915
vt 0.016128 0.376915
vt 0.016128 0.376915
vt 0.016128 0.376915
vt 0.016128 0.376915
vt 0.016128 0.376915
vt 0.016128 0.376915
vt 0.016128 0.376915
vt 0.016128 0.376915
vt 0.016128 0.376915
vt 0.016128 0.376915
vt 0.016128 0.376915
vt 0.016128 0.376915
vt 0.016128 0.376915
vt 0.016128 0.376915
vt 0.016128 0.376915
vt 0.016128 0.376915
vn -0.923880 0.000000 0.382683
vn -0.923880 0.000000 0.382683
vn -0.923880 0.000000 0.382683
vn -0.923880 0.000000 0.382683
vn -0.382684 0.000000 0.923879
vn -0.382684 0.000000 0.923879
vn -0.382684 0.000000 0.923879
vn -0.382684 0.000000 0.923879
vn 0.382684 0.000000 0.923879
vn 0.382684 0.000000 0.923879
vn 0.382684 0.000000 0.923879
vn 0.382684 0.000000 0.923879
vn 0.923880 0.000000 0.382683
vn 0.923880 0.000000 0.382683
vn 0.923880 0.000000 0.382683
vn 0.923880 0.000000 0.382683
vn 0.000000 1.000000 -0.000000
vn 0.000000 1.000000 -0.000000
vn 0.000000 1.000000 0.000000
vn 0.000000 1.000000 -0.000000
vn 0.000000 1.000000 0.000000
vn 0.000000 1.000000 -0.000000
vn 0.000000 1.000000 0.000000
vn 0.000000 1.000000 0.000000
vn 0.000000 -1.000000 0.000000
vn 0.000000 -1.000000 -0.000000
vn 0.000000 -1.000000 0.000000
vn 0.000000 -1.000000 0.000000
vn 0.000000 -1.000000 -0.000000
vn 0.000000 -1.000000 -0.000000
vn 0.000000 -1.000000 0.000000
vn 0.000000 -1.000000 -0.000000
vn 0.000000 1.000000 -0.000000
vn 0.000000 1.000000 -0.000000
vn 0.000000 1.000000 -0.000000
vn 0.000000 1.000000 0.000000
vn 0.000000 1.000000 -0.000000
vn 0.000000 -1.000000 -0.000000
vn 0.000000 -1.000000 -0.000000
vn 0.000000 -1.000000 0.000000
vn 0.000000 -1.000000 -0.000000
vn 0.000000 -1.000000 -0.000000
vn 0.000000 1.000000 -0.000000
vn 0.000000 1.000000 -0.000000
vn 0.000000 1.000000 -0.000000
vn 0.000000 1.000000 -0.000000
vn 0.000000 1.000000 -0.000000
vn 0.000000 1.000000 0.000000
vn 0.000000 1.000000 0.000000
vn 0.000000 1.000000 0.000000
vn 0.000000 -1.000000 -0.000000
vn 0.000000 -1.000000 0.000000
vn 0.000000 -1.000000 0.000001
vn 0.000000 -1.000000 0.000000
vn 0.000000 -1.000000 -0.000000
vn 0.000000 -1.000000 -0.000000
vn 0.000000 -1.000000 -0.000000
vn 0.000000 -1.000000 0.000000
vn 0.000000 1.000000 0.000000
vn 0.000000 1.000000 -0.000000
vn 0.000000 1.000000 -0.000000
vn 0.000000 1.000000 0.000000
vn 0.000000 1.000000 -0.000000
vn 0.000000 1.000000 -0.000000
vn 0.000000 1.000000 -0.000000
vn 0.000000 1.000000 -0.000000
vn 0.000000 1.000000 0.000000
vn 0.000000 1.000000 -0.000000
vn 0.000000 1.000000 -0.000000
vn 0.000000 1.000000 0.000000
vn 0.000000 1.000000 0.000000
vn 0.000000 1.000000 -0.000000
vn 0.000000 1.000000 -0.000000
vn 0.000000 1.000000 0.000000
vn 0.000000 -1.000000 -0.000000
vn 0.000000 -1.000000 -0.000000
vn 0.000000 -1.000000 -0.000000
vn 0.000000 -1.000000 -0.000000
vn 0.000000 -1.000000 0.000000
vn 0.000000 -1.000000 -0.000000
vn 0.000000 -1.000000 -0.000000
vn 0.000000 -1.000000 0.000000
vn 0.000000 -1.000000 -0.000000
vn 0.000000 -1.000000 -0.000000
vn 0.000000 -1.000000 0.000000
vn 0.000000 -1.000000 0.000000
vn 0.000000 -1.000000 0.000000
vn 0.000000 -1.000000 0.000000
vn 0.000000 -1.000000 -0.000000
vn 0.000000 -1.000000 -0.000000
vn 0.000000 1.000000 -0.000000
vn 0.000000 1.000000 -0.000000
vn 0.000000 1.000000 0.000000
vn 0.000000 1.000000 0.000000
vn 0.000000 1.000000 -0.000000
vn 0.000000 1.000000 -0.000000
vn 0.000000 1.000000 -0.000000
vn 0.000000 1.000000 -0.000000
vn 0.000000 1.000000 0.000000
vn 0.000000 1.000000 -0.000000
vn 0.000000 1.000000 0.000000
vn 0.000000 1.000000 0.000000
vn 0.000000 1.000000 0.000000
vn 0.000000 1.000000 -0.000000
vn 0.000000 1.000000 0.000000
vn 0.000000 1.000000 0.000000
vn 0.000000 -1.000000 0.000000
vn 0.000000 -1.000000 -0.000000
vn 0.000000 -1.000000 -0.000000
vn 0.000000 -1.000000 0.000000
vn 0.000000 -1.000000 0.000000
vn 0.000000 -1.000000 -0.000000
vn 0.000000 -1.000000 0.000000
vn 0.000000 -1.000000 0.000000
vn 0.000000 -1.000000 0.000000
vn 0.000000 -1.000000 -0.000000
vn 0.000000 -1.000000 -0.000000
vn 0.000000 -1.000000 0.000000
vn 0.000000 -1.000000 -0.000000
vn 0.000000 -1.000000 -0.000000
vn 0.000000 -1.000000 0.000000
vn 0.000000 -1.000000 -0.000000
vn 0.000000 -1.000000 -0.000000
vn 0.000000 -1.000000 -0.000000
vn 0.000000 -1.000000 0.000000
vn 0.000000 -1.000000 -0.000000
vn 0.000000 1.000000 0.000000
vn 0.000000 1.000000 0.000000
vn 0.000000 1.000000 -0.000000
vn 0.000000 1.000000 0.000000
vn 0.000000 1.000000 0.000000
vn 0.000000 1.000000 -0.000000
vn 0.000000 1.000000 0.000000
vn 0.000000 1.000000 0.000000
vn 0.000000 1.000000 -0.000000
vn 0.000000 1.000000 -0.000000
vn 0.000000 1.000000 -0.000000
vn 0.000000 1.000000 -0.000000
vn 0.000000 1.000000 0.000000
vn 0.000000 1.000000 -0.000000
vn 0.000000 1.000000 -0.000000
vn 0.000000 1.000000 0.000000
vn 0.000000 -1.000000 -0.000000
vn 0.000000 -1.000000 0.000000
vn 0.000000 -1.000000 0.000000
vn 0.000000 -1.000000 0.000000
vn 0.000000 -1.000000 0.000000
vn 0.000000 -1.000000 0.000000
vn 0.000000 -1.000000 0.000000
vn 0.000000 -1.000000 0.000001
vn 0.000000 -1.000000 0.000000
vn 0.000000 -1.000000 0.000000
vn 0.000000 -1.000000 -0.000000
vn 0.000000 -1.000000 0.000000
vn -0.923880 0.000000 -0.382683
vn -0.923880 0.000000 -0.382683
vn -0.923880 0.000000 -0.382683
vn -0.923880 0.000000 -0.382683
vn -0.382684 0.000000 -0.923879
vn -0.382684 0.000000 -0.923879
vn -0.382684 0.000000 -0.923879
vn -0.382684 0.000000 -0.923879
vn 0.382684 0.000000 -0.923879
vn 0.382684 0.000000 -0.923879
vn 0.382684 0.000000 -0.923879
vn 0.382684 0.000000 -0.923879
vn 0.923880 0.000000 -0.382683
vn 0.923880 0.000000 -0.382683
vn 0.923880 0.000000 -0.382683
vn 0.923880 0.000000 -0.382683
vn 0.000000 1.000000 -0.000000
vn 0.000000 1.000000 -0.000000
vn 0.000000 1.000000 -0.000000
vn 0.000000 1.000000 -0.000000
vn 0.000000 1.000000 -0.000000
vn 0.000000 -1.000000 -0.000000
vn 0.000000 -1.000000 -0.000000
vn 0.000000 -1.000000 0.000000
vn 0.000000 -1.000000 0.000000
vn 0.000000 -1.000000 0.000000
vn 0.000000 1.000000 -0.000000
vn 0.000000 1.000000 0.000000
vn 0.000000 1.000000 0.000000
vn 0.000000 1.000000 -0.000000
vn 0.000000 1.000000 -0.000000
vn 0.000000 1.000000 0.000000
vn 0.000000 1.000000 0.000000
vn 0.000000 1.000000 -0.000000
vn 0.000000 1.000000 -0.000000
vn 0.000000 1.000000 0.000000
vn 0.000000 1.000000 0.000000
vn 0.000000 1.000000 -0.000000
vn 0.000000 1.000000 -0.000000
vn 0.000000 1.000000 0.000000
vn 0.000000 1.000000 0.000000
vn 0.000000 1.000000 -0.000000
vn 0.000000 -1.000000 0.000000
vn 0.000000 -1.000000 -0.000000
vn 0.000000 -1.000000 -0.000000
vn 0.000000 -1.000000 -0.000000
vn 0.000000 -1.000000 0.000000
vn 0.000000 -1.000000 0.000000
vn 0.000000 -1.000000 -0.000000
vn 0.000000 -1.000000 0.000000
vn 0.000000 -1.000000 0.000000
vn 0.000000 -1.000000 -0.000000
vn 0.000000 -1.000000 -0.000001
vn 0.000000 -1.000000 0.000000
vn 0.000000 -1.000000 -0.000000
vn 0.000000 -1.000000 -0.000000
vn 0.000000 -1.000000 -0.000000
vn 0.000000 -1.000000 0.000000
vn 0.000000 1.000000 0.000000
vn 0.000000 1.000000 0.000000
vn 0.000000 1.000000 0.000000
vn 0.000000 1.000000 0.000000
vn 0.000000 1.000000 0.000000
vn 0.000000 1.000000 0.000000
vn 0.000000 1.000000 0.000000
vn 0.000000 1.000000 0.000000
vn 0.000000 1.000000 0.000001
vn 0.000000 1.000000 0.000001
vn 0.000000 1.000000 0.000001
vn 0.000000 1.000000 0.000000
vn 0.000000 1.000000 0.000000
vn 0.000000 1.000000 0.000000
vn 0.000000 1.000000 0.000000
vn 0.000000 1.000000 0.000001
vn 0.000000 -1.000000 -0.000000
vn 0.000000 -1.000000 -0.000000
vn 0.000000 -1.000000 -0.000000
vn 0.000000 -1.000000 -0.000000
vn 0.000000 -1.000000 0.000000
vn 0.000000 -1.000000 0.000000
vn 0.000000 -1.000000 -0.000000
vn 0.000000 -1.000000 -0.000000
vn 0.000000 -1.000000 0.000000
vn 0.000000 -1.000000 -0.000000
vn 0.000000 -1.000000 -0.000000
vn 0.000000 -1.000000 0.000000
vn 0.000000 -1.000000 0.000000
vn 0.000000 -1.000000 -0.000000
vn 0.000000 -1.000000 0.000000
vn 0.000000 -1.000000 -0.000000
vn 0.000000 1.000000 0.000000
vn 0.000000 1.000000 0.000000
vn 0.000000 1.000000 0.000000
vn 0.000000 1.000000 0.000000
vn 0.000000 1.000000 0.000000
vn 0.000000 1.000000 0.000000
vn 0.000000 1.000000 0.000000
vn 0.000000 1.000000 0.000000
vn 0.000000 1.000000 0.000000
vn 0.000000 1.000000 0.000000
vn 0.000000 1.000000 0.000001
vn 0.000000 1.000000 0.000000
vn 0.000000 1.000000 0.000000
vn 0.000000 1.000000 0.000000
vn 0.000000 1.000000 0.000000
vn 0.000000 1.000000 0.000000
vn 0.000000 -1.000000 0.000000
vn 0.000000 -1.000000 0.000000
vn 0.000000 -1.000000 -0.000000
vn 0.000000 -1.000000 -0.000000
vn 0.000000 -1.000000 0.000000
vn 0.000000 -1.000000 0.000000
vn 0.000000 -1.000000 0.000000
vn 0.000000 -1.000000 -0.000000
vn 0.000000 -1.000000 -0.000000
vn 0.000000 -1.000000 0.000001
vn 0.000000 -1.000000 0.000000
vn 0.000000 -1.000000 0.000000
vn 0.000000 -1.000000 -0.000000
vn 0.000000 -1.000000 -0.000000
vn 0.000000 -1.000000 -0.000000
vn 0.000000 -1.000000 0.000000
vn 0.000000 -1.000000 -0.000000
vn 0.000000 -1.000000 -0.000000
vn 0.000000 -1.000000 -0.000000
vn 0.000000 -1.000000 -0.000000
vn 0.000000 1.000000 0.000000
vn 0.000000 1.000000 0.000000
vn 0.000000 1.000000 0.000001
vn 0.000000 1.000000 0.000000
vn 0.000000 1.000000 0.000001
vn 0.000000 1.000000 0.000000
vn 0.000000 1.000000 0.000000
vn 0.000000 1.000000 0.000001
vn 0.000000 1.000000 0.000000
vn 0.000000 1.000000 0.000000
vn 0.000000 1.000000 0.000000
vn 0.000000 1.000000 0.000000
vn 0.000000 1.000000 0.000000
vn 0.000000 1.000000 0.000000
vn 0.000000 1.000000 0.000000
vn 0.000000 1.000000 0.000000
vn 0.000000 -1.000000 -0.000000
vn 0.000000 -1.000000 0.000000
vn 0.000000 -1.000000 -0.000000
vn 0.000000 -1.000000 -0.000000
vn 0.000000 -1.000000 -0.000000
vn 0.000000 -1.000000 -0.000001
vn 0.000000 -1.000000 -0.000000
vn 0.000000 -1.000000 -0.000000
vn 0.000000 -1.000000 0.000000
vn 0.000000 -1.000000 0.000000
vn 0.000000 -1.000000 -0.000000
vn 0.000000 -1.000000 -0.000000
s off
f 1/1/1 2/2/2 7/3/3 6/4/4
f 2/2/5 3/5/6 8/6/7 7/3/8
f 3/5/9 4/7/10 9/8/11 8/6/12
f 4/7/13 5/9/14 10/10/15 9/8/16
f 17/55/17 11/41/18 21/61/19 22/62/20
f 18/56/21 12/57/22 23/63/23 24/64/24
f 15/58/25 20/59/26 27/67/27 28/68/28
f 16/42/29 19/60/30 29/69/31 30/70/32
f 11/19/33 17/25/34 12/27/35 18/26/36 13/24/37
f 14/23/38 20/29/39 15/28/40 19/30/41 16/21/42
f 12/57/43 17/55/44 22/62/45 23/63/46
f 13/50/47 18/56/48 24/64/49 25/65/50
f 19/60/51 15/58/52 28/68/53 29/69/54
f 20/59/55 14/48/56 26/66/57 27/67/58
f 31/71/59 32/72/60 46/73/61 47/74/62
f 45/75/63 46/73/64 32/72/65 33/76/66
f 33/76/67 34/77/68 44/78/69 45/75/70
f 43/79/71 44/78/72 34/77/73 35/80/74
f 36/82/75 37/83/76 41/84/77 42/81/78
f 50/85/79 41/84/80 37/83/81 38/86/82
f 38/86/83 39/87/84 49/88/85 50/85/86
f 48/89/87 49/88/88 39/87/89 40/90/90
f 7/3/91 32/11/92 31/12/93 6/4/94
f 33/13/95 32/11/96 7/3/97 8/6/98
f 9/8/99 34/14/100 33/13/101 8/6/102
f 35/15/103 34/14/104 9/8/105 10/10/106
f 4/7/107 37/17/108 36/16/109 5/9/110
f 38/18/111 37/17/112 4/7/113 3/5/114
f 2/2/115 39/20/116 38/18/117 3/5/118
f 40/22/119 39/20/120 2/2/121 1/1/122
f 42/49/123 41/51/124 27/37/125 26/36/126
f 25/35/127 24/34/128 44/46/129 43/47/130
f 45/45/131 44/46/132 24/34/133 23/33/134
f 23/33/135 22/32/136 46/43/137 45/45/138
f 47/44/139 46/43/140 22/32/141 21/31/142
f 30/40/143 29/39/144 49/53/145 48/54/146
f 50/52/147 49/53/148 29/39/149 28/38/150
f 28/38/151 27/37/152 41/51/153 50/52/154
f 1/91/155 6/94/156 54/93/157 51/92/158
f 51/92/159 54/93/160 55/96/161 52/95/162
f 52/95/163 55/96/164 56/98/165 53/97/166
f 53/97/167 56/98/168 10/100/169 5/99/170
f 11/109/171 13/113/172 60/112/173 57/111/174 59/110/175
f 14/114/176 16/118/177 61/117/178 58/116/179 62/115/180
f 59/101/181 63/122/182 21/121/183 11/102/184
f 57/104/185 64/123/186 63/122/187 59/101/188
f 60/103/189 65/124/190 64/123/191 57/104/192
f 13/119/193 25/125/194 65/124/195 60/103/196
f 62/106/197 66/127/198 26/126/199 14/120/200
f 58/105/201 67/128/202 66/127/203 62/106/204
f 61/108/205 68/129/206 67/128/207 58/105/208
f 16/107/209 30/130/210 68/129/211 61/108/212
f 31/131/213 47/134/214 78/133/215 69/132/216
f 77/135/217 70/136/218 69/132/219 78/133/220
f 70/136/221 77/135/222 76/138/223 71/137/224
f 43/139/225 35/140/226 71/137/227 76/138/228
f 36/141/229 42/144/230 75/143/231 72/142/232
f 80/145/233 73/146/234 72/142/235 75/143/236
f 73/146/237 80/145/238 79/148/239 74/147/240
f 48/149/241 40/150/242 74/147/243 79/148/244
f 54/93/245 6/94/246 31/152/247 69/151/248
f 70/153/249 55/96/250 54/93/251 69/151/252
f 56/98/253 55/96/254 70/153/255 71/154/256
f 35/155/257 10/100/258 56/98/259 71/154/260
f 53/97/261 5/99/262 36/157/263 72/156/264
f 73/158/265 52/95/266 53/97/267 72/156/268
f 51/92/269 52/95/270 73/158/271 74/159/272
f 40/160/273 1/91/274 51/92/275 74/159/276
f 42/161/277 26/164/278 66/163/279 75/162/280
f 25/165/281 43/168/282 76/167/283 65/166/284
f 77/169/285 64/170/286 65/166/287 76/167/288
f 64/170/289 77/169/290 78/172/291 63/171/292
f 47/173/293 21/174/294 63/171/295 78/172/296
f 30/175/297 48/178/298 79/177/299 68/176/300
f 80/179/301 67/180/302 68/176/303 79/177/304
f 67/180/305 80/179/306 75/162/307 66/163/308
