# This file uses centimeters as units for non-parametric coordinates.

v -1.818935 -0.469743 2.442265
v 1.818935 -0.469743 2.442265
v -1.818935 1.818935 7.125305
v 1.818935 1.818935 7.125305
v -1.818935 1.818935 -0.595829
v 1.818935 1.818935 -0.595829
v -1.818935 -1.818935 -0.712569
v 1.818935 -1.818935 -0.712569
v -1.818935 1.818935 1.831435
v 1.818935 1.818935 1.831435
v 1.818935 -1.818935 1.106367
v -1.818935 -1.818935 1.106367
v -1.818935 0.695445 7.125305
v 1.818935 0.695445 7.125305
v 1.818935 0.000000 0.000000
v 1.818935 0.000000 -1.818935
v -1.818935 0.000000 -1.818935
v -1.818935 0.000000 0.000000
v -1.373774 1.818935 0.575557
v 1.373774 1.818935 0.575557
v 1.392257 1.818935 1.676376
v -1.383780 1.818935 1.656089
v -1.373774 0.377383 0.093774
v -1.383780 0.377383 1.174307
v 1.392257 0.377383 1.194593
v 1.373774 0.377383 0.093774
v -1.231728 0.876793 7.125305
v 1.231728 0.876793 7.125305
v 1.231728 1.637587 7.125305
v -1.231728 1.637587 7.125305
vt 0.139229 0.443002
vt 0.139229 0.443002
vt 0.139229 0.443002
vt 0.139229 0.443002
vt 0.139229 0.443002
vt 0.139229 0.443002
vt 0.139229 0.443002
vt 0.139229 0.443002
vt 0.139229 0.443002
vt 0.139229 0.443002
vt 0.139229 0.443002
vt 0.139229 0.443002
vt 0.139229 0.443002
vt 0.139229 0.443002
vt 0.139229 0.443002
vt 0.139229 0.443002
vt 0.139229 0.443002
vt 0.139229 0.443002
vt 0.139229 0.443002
vt 0.139229 0.443002
vt 0.139229 0.443002
vt 0.139229 0.443002
vt 0.139229 0.443002
vt 0.139229 0.443002
vt 0.139229 0.443002
vt 0.139229 0.443002
vt 0.139229 0.443002
vt 0.139229 0.443002
vt 0.139229 0.443002
vt 0.139229 0.443002
vt 0.146261 0.399405
vt 0.146261 0.399405
vt 0.146261 0.399405
vt 0.146261 0.399405
vt 0.146261 0.403624
vt 0.146261 0.403624
vt 0.146261 0.403624
vt 0.146261 0.403624
vn 0.000000 0.000000 1.000000
vn 0.000000 0.000000 1.000000
vn 0.000000 0.000000 1.000000
vn 0.000000 0.000000 1.000000
vn 0.000000 0.519669 -0.854368
vn 0.000000 0.519669 -0.854368
vn 0.000000 0.519669 -0.854368
vn 0.000000 0.519669 -0.854368
vn 0.000000 -1.000000 0.000000
vn 0.000000 -1.000000 0.000000
vn 0.000000 -1.000000 0.000000
vn 0.000000 -1.000000 0.000000
vn 1.000000 -0.000000 0.000000
vn 1.000000 -0.000000 0.000000
vn 1.000000 -0.000000 0.000000
vn 1.000000 -0.000000 0.000000
vn -1.000000 -0.000000 0.000000
vn -1.000000 -0.000000 0.000000
vn -1.000000 -0.000000 0.000000
vn -1.000000 -0.000000 0.000000
vn 0.000000 1.000000 0.000000
vn 0.000000 1.000000 0.000000
vn 0.000000 1.000000 0.000000
vn 0.000000 1.000000 0.000000
vn 1.000000 0.000000 0.000000
vn 1.000000 0.000000 0.000000
vn 1.000000 0.000000 0.000000
vn 1.000000 0.000000 0.000000
vn 0.000000 -0.703597 0.710599
vn 0.000000 -0.703597 0.710599
vn 0.000000 -0.703597 0.710599
vn 0.000000 -0.703597 0.710599
vn -1.000000 0.000000 0.000000
vn -1.000000 0.000000 0.000000
vn -1.000000 0.000000 0.000000
vn 0.000000 -0.970414 0.241449
vn 0.000000 -0.970414 0.241449
vn 0.000000 -0.970414 0.241449
vn 0.000000 -0.970414 0.241449
vn 1.000000 0.000000 0.000000
vn 1.000000 0.000000 0.000000
vn 1.000000 0.000000 0.000000
vn 1.000000 0.000000 0.000000
vn 1.000000 0.000000 0.000000
vn 1.000000 0.000000 0.000000
vn 1.000000 0.000000 0.000000
vn 0.000000 -0.519669 -0.854368
vn 0.000000 -0.519669 -0.854368
vn 0.000000 -0.519669 -0.854368
vn 0.000000 -0.519669 -0.854368
vn -1.000000 0.000000 0.000000
vn -1.000000 0.000000 0.000000
vn -1.000000 0.000000 0.000000
vn -1.000000 0.000000 0.000000
vn -1.000000 0.000000 0.000000
vn -1.000000 0.000000 0.000000
vn -1.000000 0.000000 0.000000
vn -1.000000 0.000000 0.000000
vn -1.000000 0.000000 0.000000
vn -1.000000 0.000000 0.000000
vn -1.000000 0.000000 0.000000
vn 1.000000 0.000000 0.000000
vn 1.000000 0.000000 0.000000
vn 1.000000 0.000000 0.000000
vn 0.000000 1.000000 -0.000001
vn 0.000000 1.000000 -0.000001
vn 0.000000 1.000000 -0.000001
vn 0.000000 1.000000 -0.000001
vn 0.000000 1.000000 0.000000
vn 0.000000 1.000000 0.000000
vn 0.000000 1.000000 0.000000
vn 0.000000 1.000000 0.000000
vn 0.000000 1.000000 0.000000
vn 0.000000 1.000000 0.000000
vn 0.000000 1.000000 0.000000
vn 0.000000 1.000000 0.000000
vn 0.000000 1.000000 0.000000
vn 0.000000 1.000000 0.000000
vn 0.000000 1.000000 0.000000
vn 0.000000 1.000000 0.000000
vn 0.000000 1.000000 0.000000
vn 0.000000 1.000000 0.000000
vn 0.000000 1.000000 0.000000
vn 0.000000 1.000000 0.000000
vn 0.999952 -0.003095 0.009260
vn 0.999952 -0.003095 0.009260
vn 0.999952 -0.003095 0.009260
vn 0.999952 -0.003095 0.009260
vn 0.006931 0.316969 -0.948411
vn 0.006931 0.316969 -0.948411
vn 0.006931 0.316969 -0.948411
vn 0.006931 0.316969 -0.948411
vn -0.999843 -0.005611 0.016788
vn -0.999843 -0.005611 0.016788
vn -0.999843 -0.005611 0.016788
vn -0.999843 -0.005611 0.016788
vn 0.000000 -0.316977 0.948433
vn 0.000000 -0.316977 0.948433
vn 0.000000 -0.316977 0.948433
vn 0.000000 -0.316977 0.948433
vn 0.000000 0.000000 1.000000
vn 0.000000 0.000000 1.000000
vn 0.000000 0.000000 1.000000
vn 0.000000 0.000000 1.000000
vn 0.000001 0.000000 1.000000
vn 0.000001 0.000000 1.000000
vn 0.000000 0.000000 1.000000
vn 0.000000 0.000000 1.000000
vn 0.000000 0.000000 1.000000
vn 0.000000 0.000000 1.000000
vn 0.000000 0.000000 1.000000
vn 0.000000 0.000000 1.000000
vn -0.000001 0.000000 1.000000
vn -0.000001 0.000000 1.000000
vn 0.000000 0.000000 1.000000
vn 0.000000 0.000000 1.000000
s off
f 27/31/1 28/32/2 29/33/3 30/34/4
f 5/5/5 6/6/6 16/7/7 17/8/8
f 7/9/9 8/10/10 11/11/11 12/12/12
f 10/13/13 15/14/14 16/7/15 6/6/16
f 17/8/17 18/15/18 9/16/19 5/5/20
f 3/17/21 4/18/22 10/13/23 9/16/24
f 2/19/25 10/13/26 4/18/27 14/20/28
f 12/12/29 11/11/30 2/19/31 1/21/32
f 1/21/33 9/16/34 18/15/35
f 1/21/36 2/19/37 14/20/38 13/22/39
f 2/19/40 11/11/41 15/14/42
f 16/7/43 15/14/44 11/11/45 8/10/46
f 17/8/47 16/7/48 8/10/49 7/9/50
f 7/9/51 12/12/52 18/15/53 17/8/54
f 1/21/55 18/15/56 12/12/57
f 13/22/58 3/17/59 9/16/60 1/21/61
f 15/14/62 10/13/63 2/19/64
f 9/16/65 10/13/66 21/23/67 22/24/68
f 5/5/69 19/25/70 20/26/71 6/6/72
f 6/6/73 20/26/74 21/23/75 10/13/76
f 23/35/77 24/36/78 25/37/79 26/38/80
f 9/16/81 22/24/82 19/25/83 5/5/84
f 19/25/85 22/24/86 24/28/87 23/27/88
f 22/24/89 21/23/90 25/29/91 24/28/92
f 21/23/93 20/26/94 26/30/95 25/29/96
f 20/26/97 19/25/98 23/27/99 26/30/100
f 13/22/101 14/20/102 28/2/103 27/1/104
f 14/20/105 4/18/106 29/3/107 28/2/108
f 4/18/109 3/17/110 30/4/111 29/3/112
f 3/17/113 13/22/114 27/1/115 30/4/116
