# This file uses centimeters as units for non-parametric coordinates.

v 2.281039 0.000000 -3.950860
v -2.281039 0.000000 -3.950860
v -4.562055 0.000000 0.000000
v -2.281039 0.000000 3.950860
v 2.281039 0.000000 3.950860
v 4.562078 0.000000 0.000000
v 0.892391 38.061291 -1.545599
v -0.892367 38.061291 -1.545599
v -1.784758 38.061291 0.000000
v -0.892367 38.061291 1.545623
v 0.892391 38.061291 1.545623
v 1.784758 38.061291 0.000000
v 0.000000 0.000000 0.000000
v 0.000000 38.061291 0.000000
v -1.251359 26.246384 2.167412
v 1.251384 26.246384 2.167412
v 2.502719 26.246384 0.000000
v 1.251384 26.246384 -2.167387
v -1.251335 26.246384 -2.167387
v -2.502695 26.246384 0.000000
v -2.808207 21.462729 4.863955
v 2.808207 21.462729 4.863955
v 5.616414 21.462729 0.000000
v 2.808207 21.462729 -4.863931
v -2.808207 21.462729 -4.863931
v -5.616414 21.462729 0.000000
v -2.808207 1.550255 4.863955
v 2.808207 1.550255 4.863955
v 5.616414 1.550255 0.000000
v 2.808207 1.550255 -4.863931
v -2.808207 1.550255 -4.863931
v -5.616414 1.550255 0.000000
v -0.975593 36.242336 -1.689846
v 0.975618 36.242336 -1.689846
v 1.951260 36.242336 0.000000
v 0.975618 36.242336 1.689846
v -0.975593 36.242336 1.689846
v -1.951235 36.242336 0.000000
v 1.167090 36.368042 -2.021492
v 2.334229 36.368042 0.000000
v 1.167090 36.368042 2.021492
v -1.167066 36.368042 2.021492
v -2.334229 36.368042 0.000000
v -1.167066 36.368042 -2.021492
v -1.120252 37.377766 -1.940423
v 1.120277 37.377766 -1.940423
v 2.240626 37.377766 0.000000
v 1.120277 37.377766 1.940423
v -1.120252 37.377766 1.940423
v -2.240602 37.377766 0.000000
v 5.616414 18.622511 0.000000
v 2.808207 18.622511 4.863955
v -2.808207 18.622511 4.863955
v -5.616414 18.622511 0.000000
v -2.808207 18.622511 -4.863931
v 2.808207 18.622511 -4.863931
v -2.808207 5.284811 -4.863931
v -5.616414 5.284811 0.000000
v -2.808207 5.284811 4.863955
v 2.808158 5.284811 4.863955
v 5.616414 5.284811 0.000000
v 2.808158 5.284811 -4.863931
v 4.212323 18.622511 2.432002
v 4.212323 5.284811 2.432002
v 4.212323 5.284811 -2.432002
v 4.212323 18.622511 -2.432002
v -4.212298 18.622511 -2.432002
v -4.212298 5.284811 -2.432002
v -4.212298 5.284811 2.432002
v -4.212298 18.622511 2.432002
v -2.154878 14.650278 4.863955
v 2.154854 14.650278 4.863955
v 2.154902 16.287775 4.863955
v -2.154878 16.287775 4.863955
vt 0.104446 0.088743
vt 0.104446 0.088743
vt 0.104446 0.088743
vt 0.104446 0.088743
vt 0.104446 0.088743
vt 0.104446 0.088743
vt 0.104446 0.088743
vt 0.104446 0.088743
vt 0.104446 0.088743
vt 0.104446 0.088743
vt 0.104446 0.088743
vt 0.104446 0.088743
vt 0.104446 0.088743
vt 0.079103 0.227989
vt 0.079103 0.227989
vt 0.079103 0.227989
vt 0.079103 0.227989
vt 0.079103 0.227989
vt 0.079103 0.227989
vt 0.079103 0.227989
vt 0.079103 0.227989
vt 0.079103 0.227989
vt 0.079103 0.227989
vt 0.079103 0.227989
vt 0.079103 0.227989
vt 0.079103 0.227989
vt 0.104446 0.088743
vt 0.079103 0.227989
vt 0.104446 0.088743
vt 0.104446 0.088743
vt 0.104446 0.088743
vt 0.104446 0.088743
vt 0.104446 0.088743
vt 0.104446 0.088743
vt 0.104446 0.088743
vt 0.104446 0.088743
vt 0.104446 0.088743
vt 0.104446 0.088743
vt 0.104446 0.088743
vt 0.104446 0.088743
vt 0.104446 0.088743
vt 0.104446 0.088743
vt 0.104446 0.088743
vt 0.104446 0.088743
vt 0.104446 0.088743
vt 0.104446 0.088743
vt 0.104446 0.088743
vt 0.104446 0.088743
vt 0.104446 0.088743
vt 0.104446 0.088743
vt 0.104446 0.088743
vt 0.104446 0.088743
vt 0.079103 0.227989
vt 0.079103 0.227989
vt 0.079103 0.227989
vt 0.079103 0.227989
vt 0.079103 0.227989
vt 0.079103 0.227989
vt 0.079103 0.227989
vt 0.079103 0.227989
vt 0.079103 0.227989
vt 0.079103 0.227989
vt 0.079103 0.227989
vt 0.104446 0.088743
vt 0.104446 0.088743
vt 0.104446 0.088743
vt 0.104446 0.088743
vt 0.104446 0.088743
vt 0.104446 0.088743
vt 0.104446 0.088743
vt 0.104446 0.088743
vt 0.104446 0.088743
vt 0.104446 0.088743
vt 0.104446 0.088743
vt 0.104446 0.088743
vt 0.104446 0.088743
vt 0.104446 0.088743
vt 0.104446 0.088743
vt 0.104446 0.088743
vt 0.104446 0.088743
vt 0.104446 0.088743
vt 0.104446 0.088743
vt 0.104446 0.088743
vt 0.104446 0.088743
vt 0.104446 0.088743
vt 0.090323 0.228060
vt 0.090323 0.228060
vt 0.090323 0.228061
vt 0.090323 0.228061
vt 0.090323 0.228060
vt 0.090323 0.228060
vt 0.090323 0.228061
vt 0.090323 0.228061
vt 0.090323 0.228060
vt 0.090323 0.228061
vt 0.090323 0.228061
vt 0.090323 0.228060
vt 0.090323 0.228060
vt 0.090323 0.228061
vt 0.090323 0.228061
vt 0.090323 0.228060
vt 0.090323 0.228060
vt 0.090323 0.228060
vt 0.090323 0.228061
vt 0.090323 0.228061
vt 0.418640 0.008892
vt 0.418640 0.008892
vt 0.418640 0.008892
vt 0.418640 0.008892
vt 0.104446 0.088743
vt 0.104446 0.088743
vt 0.104446 0.088743
vn 0.000000 0.047719 -0.998861
vn 0.000000 0.047719 -0.998861
vn 0.000000 0.047719 -0.998861
vn 0.000000 0.047719 -0.998861
vn -0.865036 0.047722 -0.499435
vn -0.865036 0.047722 -0.499435
vn -0.865036 0.047722 -0.499435
vn -0.865036 0.047722 -0.499435
vn -0.865040 0.047724 0.499428
vn -0.865040 0.047724 0.499428
vn -0.865040 0.047724 0.499428
vn -0.865040 0.047724 0.499428
vn 0.000000 0.047721 0.998861
vn 0.000000 0.047721 0.998861
vn 0.000000 0.047721 0.998861
vn 0.000000 0.047721 0.998861
vn 0.865040 0.047724 0.499428
vn 0.865040 0.047724 0.499428
vn 0.865040 0.047724 0.499428
vn 0.865040 0.047724 0.499428
vn 0.865038 0.047723 -0.499431
vn 0.865038 0.047723 -0.499431
vn 0.865038 0.047723 -0.499431
vn 0.865038 0.047723 -0.499431
vn 0.000000 -1.000000 0.000000
vn 0.000000 -1.000000 0.000000
vn 0.000000 -1.000000 0.000000
vn 0.000000 -1.000000 0.000000
vn 0.000000 -1.000000 0.000000
vn 0.000000 -1.000000 0.000000
vn 0.000000 -1.000000 0.000000
vn 0.000000 -1.000000 0.000000
vn 0.000000 -1.000000 0.000000
vn 0.000000 -1.000000 0.000000
vn 0.000000 -1.000000 0.000000
vn 0.000000 -1.000000 0.000000
vn 0.000000 -1.000000 0.000000
vn 0.000000 -1.000000 0.000000
vn 0.000000 -1.000000 0.000000
vn 0.000000 -1.000000 0.000000
vn 0.000000 -1.000000 0.000000
vn 0.000000 -1.000000 0.000000
vn 0.000000 1.000000 0.000002
vn 0.000000 1.000000 0.000002
vn 0.000000 1.000000 0.000002
vn 0.000000 1.000000 -0.000002
vn 0.000000 1.000000 -0.000002
vn 0.000000 1.000000 -0.000002
vn 0.000000 1.000000 0.000003
vn 0.000000 1.000000 0.000003
vn 0.000000 1.000000 0.000003
vn 0.000000 1.000000 -0.000002
vn 0.000000 1.000000 -0.000002
vn 0.000000 1.000000 -0.000002
vn 0.000000 1.000000 0.000002
vn 0.000000 1.000000 0.000002
vn 0.000000 1.000000 0.000002
vn 0.000000 1.000000 -0.000003
vn 0.000000 1.000000 -0.000003
vn 0.000000 1.000000 -0.000003
vn 0.000000 0.491054 0.871129
vn 0.000000 0.491055 0.871129
vn 0.000000 0.491055 0.871129
vn 0.000000 0.491055 0.871129
vn 0.754421 0.491053 0.435563
vn 0.754421 0.491053 0.435563
vn 0.754421 0.491053 0.435564
vn 0.754421 0.491053 0.435564
vn 0.754420 0.491053 -0.435566
vn 0.754420 0.491053 -0.435566
vn 0.754420 0.491053 -0.435566
vn 0.754420 0.491053 -0.435566
vn 0.000000 0.491055 -0.871129
vn 0.000000 0.491055 -0.871129
vn 0.000000 0.491055 -0.871129
vn 0.000000 0.491055 -0.871129
vn -0.754417 0.491057 -0.435566
vn -0.754417 0.491057 -0.435566
vn -0.754417 0.491057 -0.435566
vn -0.754417 0.491057 -0.435566
vn -0.754420 0.491056 0.435563
vn -0.754420 0.491056 0.435563
vn -0.754420 0.491056 0.435563
vn -0.754420 0.491056 0.435563
vn 0.000000 0.000000 1.000000
vn 0.000000 0.000000 1.000000
vn 0.000000 0.000000 1.000000
vn 0.000000 0.000000 1.000000
vn 0.866029 0.000000 0.499993
vn 0.866029 0.000000 0.499993
vn 0.866029 0.000000 0.499993
vn 0.866029 0.000000 0.499993
vn 0.866029 0.000000 -0.499993
vn 0.866029 0.000000 -0.499993
vn 0.866029 0.000000 -0.499993
vn 0.866029 0.000000 -0.499993
vn 0.000000 0.000000 -1.000000
vn 0.000000 0.000000 -1.000000
vn 0.000000 0.000000 -1.000000
vn 0.000000 0.000000 -1.000000
vn -0.866026 0.000000 -0.500000
vn -0.866026 0.000000 -0.500000
vn -0.866026 0.000000 -0.500000
vn -0.866026 0.000000 -0.500000
vn -0.866026 0.000000 0.500000
vn -0.866026 0.000000 0.500000
vn -0.866026 0.000000 0.500000
vn -0.866026 0.000000 0.500000
vn 0.000000 -0.507507 0.861648
vn 0.000000 -0.507507 0.861648
vn 0.000000 -0.507507 0.861648
vn 0.000000 -0.507507 0.861648
vn 0.746210 -0.507503 0.430826
vn 0.746210 -0.507503 0.430826
vn 0.746210 -0.507503 0.430826
vn 0.746210 -0.507503 0.430826
vn 0.746211 -0.507501 -0.430827
vn 0.746211 -0.507501 -0.430827
vn 0.746211 -0.507501 -0.430827
vn 0.746211 -0.507501 -0.430827
vn 0.000000 -0.507497 -0.861653
vn 0.000000 -0.507497 -0.861653
vn 0.000000 -0.507497 -0.861653
vn 0.000000 -0.507497 -0.861653
vn -0.746210 -0.507505 -0.430824
vn -0.746210 -0.507505 -0.430824
vn -0.746210 -0.507505 -0.430825
vn -0.746210 -0.507505 -0.430825
vn -0.746209 -0.507507 0.430823
vn -0.746209 -0.507507 0.430823
vn -0.746209 -0.507507 0.430823
vn -0.746209 -0.507507 0.430823
vn 0.000000 -0.935081 -0.354433
vn 0.000000 -0.935081 -0.354433
vn 0.000000 -0.935081 -0.354433
vn 0.000000 -0.935081 -0.354433
vn 0.306941 -0.935083 -0.177218
vn 0.306941 -0.935083 -0.177218
vn 0.306941 -0.935083 -0.177218
vn 0.306941 -0.935084 -0.177218
vn 0.306941 -0.935083 0.177219
vn 0.306941 -0.935083 0.177219
vn 0.306941 -0.935083 0.177219
vn 0.306941 -0.935083 0.177219
vn 0.000000 -0.935081 0.354433
vn 0.000000 -0.935081 0.354433
vn 0.000000 -0.935081 0.354433
vn 0.000000 -0.935081 0.354433
vn -0.306932 -0.935088 0.177212
vn -0.306932 -0.935088 0.177212
vn -0.306932 -0.935088 0.177212
vn -0.306932 -0.935088 0.177212
vn -0.306932 -0.935087 -0.177214
vn -0.306932 -0.935087 -0.177214
vn -0.306932 -0.935087 -0.177214
vn -0.306932 -0.935087 -0.177214
vn 0.863241 0.080031 -0.498407
vn 0.863241 0.080031 -0.498407
vn 0.863241 0.080031 -0.498407
vn 0.863241 0.080031 -0.498407
vn 0.863241 0.080031 0.498408
vn 0.863241 0.080031 0.498408
vn 0.863241 0.080031 0.498408
vn 0.863241 0.080031 0.498408
vn 0.000000 0.080031 0.996792
vn 0.000000 0.080031 0.996792
vn 0.000000 0.080031 0.996792
vn 0.000000 0.080031 0.996792
vn -0.863237 0.080042 0.498412
vn -0.863237 0.080042 0.498412
vn -0.863237 0.080042 0.498412
vn -0.863237 0.080042 0.498412
vn -0.863238 0.080042 -0.498412
vn -0.863238 0.080042 -0.498412
vn -0.863238 0.080042 -0.498412
vn -0.863238 0.080042 -0.498412
vn 0.000000 0.080031 -0.996792
vn 0.000000 0.080031 -0.996792
vn 0.000000 0.080031 -0.996792
vn 0.000000 0.080031 -0.996792
vn 0.000000 0.500182 -0.865920
vn 0.000000 0.500182 -0.865920
vn 0.000000 0.500182 -0.865920
vn 0.000000 0.500182 -0.865920
vn 0.749924 0.500140 -0.432983
vn 0.749924 0.500140 -0.432983
vn 0.749924 0.500140 -0.432983
vn 0.749924 0.500140 -0.432983
vn 0.749928 0.500134 0.432983
vn 0.749928 0.500134 0.432983
vn 0.749928 0.500134 0.432983
vn 0.749928 0.500134 0.432983
vn 0.000000 0.500159 0.865933
vn 0.000000 0.500159 0.865933
vn 0.000000 0.500159 0.865933
vn 0.000000 0.500159 0.865933
vn -0.749931 0.500124 0.432989
vn -0.749931 0.500124 0.432989
vn -0.749931 0.500124 0.432989
vn -0.749931 0.500124 0.432989
vn -0.749927 0.500130 -0.432990
vn -0.749927 0.500130 -0.432990
vn -0.749927 0.500130 -0.432990
vn -0.749927 0.500130 -0.432990
vn 0.866029 0.000000 0.499993
vn 0.866029 0.000000 0.499993
vn 0.866029 0.000000 0.499993
vn 0.000000 0.000000 1.000000
vn 0.000000 0.000000 1.000000
vn 0.000000 0.000000 1.000000
vn 0.000000 0.000000 1.000000
vn -0.866025 0.000000 0.500000
vn -0.866025 0.000000 0.500000
vn -0.866025 0.000000 0.500000
vn -0.866025 0.000000 -0.500000
vn -0.866025 0.000000 -0.500000
vn -0.866025 0.000000 -0.500000
vn 0.000000 0.000000 -1.000000
vn 0.000000 0.000000 -1.000000
vn 0.000000 0.000000 -1.000000
vn 0.000000 0.000000 -1.000000
vn 0.866029 0.000000 -0.499993
vn 0.866029 0.000000 -0.499993
vn 0.866029 0.000000 -0.499993
vn -0.866026 0.000000 -0.500000
vn -0.866026 0.000000 -0.500000
vn -0.866026 0.000000 -0.500000
vn -0.866026 0.000000 0.500000
vn -0.866026 0.000000 0.500000
vn -0.866026 0.000000 0.500000
vn 0.000000 0.000000 1.000000
vn 0.000000 0.000000 1.000000
vn 0.000000 0.000000 1.000000
vn 0.000000 0.000000 1.000000
vn 0.866029 0.000000 0.499993
vn 0.866029 0.000000 0.499993
vn 0.866029 0.000000 0.499993
vn 0.866029 0.000000 -0.499993
vn 0.866029 0.000000 -0.499993
vn 0.866029 0.000000 -0.499993
vn 0.000000 0.000000 -1.000000
vn 0.000000 0.000000 -1.000000
vn 0.000000 0.000000 -1.000000
vn 0.000000 0.000000 -1.000000
vn 0.866024 0.000005 0.500002
vn 0.866024 0.000005 0.500002
vn 0.866024 0.000005 0.500002
vn 0.866024 0.000005 0.500002
vn 0.866017 -0.000002 0.500014
vn 0.866017 -0.000002 0.500014
vn 0.866017 -0.000002 0.500014
vn 0.866018 -0.000002 0.500014
vn 0.866021 -0.000000 0.500007
vn 0.866021 -0.000000 0.500007
vn 0.866021 -0.000000 0.500007
vn 0.866021 -0.000000 0.500007
vn 0.866020 -0.000001 -0.500009
vn 0.866020 -0.000001 -0.500009
vn 0.866020 -0.000001 -0.500009
vn 0.866020 -0.000001 -0.500009
vn 0.866015 -0.000002 -0.500017
vn 0.866015 -0.000002 -0.500017
vn 0.866015 -0.000002 -0.500017
vn 0.866015 -0.000002 -0.500017
vn 0.866023 0.000007 -0.500005
vn 0.866023 0.000007 -0.500005
vn 0.866023 0.000007 -0.500005
vn 0.866023 0.000007 -0.500005
vn -0.866024 0.000002 -0.500003
vn -0.866024 0.000002 -0.500003
vn -0.866024 0.000002 -0.500003
vn -0.866024 0.000002 -0.500003
vn -0.866023 0.000000 -0.500004
vn -0.866023 0.000000 -0.500004
vn -0.866023 0.000000 -0.500004
vn -0.866023 0.000000 -0.500004
vn -0.866024 -0.000001 -0.500003
vn -0.866024 -0.000001 -0.500003
vn -0.866024 -0.000001 -0.500003
vn -0.866024 -0.000001 -0.500003
vn -0.866025 -0.000000 0.500000
vn -0.866025 -0.000000 0.500000
vn -0.866025 -0.000000 0.500000
vn -0.866025 -0.000000 0.500000
vn -0.866025 0.000000 0.500001
vn -0.866025 0.000000 0.500001
vn -0.866025 0.000000 0.500001
vn -0.866025 0.000000 0.500001
vn -0.866025 0.000000 0.500000
vn -0.866025 0.000000 0.500000
vn -0.866025 0.000000 0.500000
vn -0.866025 0.000000 0.500000
vn 0.000000 0.000000 1.000000
vn 0.000000 0.000000 1.000000
vn 0.000000 0.000000 1.000000
vn 0.000000 0.000000 1.000000
vn -0.000001 0.000000 1.000000
vn -0.000001 0.000000 1.000000
vn -0.000001 0.000000 1.000000
vn -0.000001 0.000000 1.000000
vn 0.000000 0.000000 1.000000
vn 0.000000 0.000000 1.000000
vn 0.000000 0.000000 1.000000
vn 0.000000 0.000000 1.000000
vn 0.000000 0.000000 1.000000
vn 0.000000 0.000000 1.000000
vn 0.000000 0.000000 1.000000
vn 0.000000 0.000000 1.000000
s off
f 19/34/1 33/50/2 34/51/3 18/33/4
f 38/52/5 33/50/6 19/34/7 20/35/8
f 37/110/9 38/52/10 20/35/11 15/29/12
f 36/111/13 37/110/14 15/29/15 16/30/16
f 35/112/17 36/111/18 16/30/19 17/31/20
f 34/51/21 35/112/22 17/31/23 18/32/24
f 2/2/25 1/1/26 13/27/27
f 3/3/28 2/2/29 13/27/30
f 4/4/31 3/3/32 13/27/33
f 5/5/34 4/4/35 13/27/36
f 6/6/37 5/5/38 13/27/39
f 1/1/40 6/6/41 13/27/42
f 7/14/43 8/15/44 14/16/45
f 8/15/46 9/17/47 14/16/48
f 9/17/49 10/18/50 14/16/51
f 10/18/52 11/19/53 14/16/54
f 11/19/55 12/20/56 14/16/57
f 12/20/58 7/14/59 14/16/60
f 21/36/61 22/37/62 16/30/63 15/29/64
f 22/37/65 23/38/66 17/31/67 16/30/68
f 23/38/69 24/39/70 18/32/71 17/31/72
f 24/40/73 25/41/74 19/34/75 18/33/76
f 25/41/77 26/42/78 20/35/79 19/34/80
f 26/42/81 21/36/82 15/29/83 20/35/84
f 71/106/85 72/107/86 73/108/87 74/109/88
f 63/78/89 64/79/90 61/75/91 51/64/92
f 61/75/93 65/80/94 66/81/95 51/64/96
f 62/90/97 57/91/98 55/92/99 56/93/100
f 67/82/101 68/83/102 58/72/103 54/67/104
f 58/72/105 69/84/106 70/85/107 54/67/108
f 4/10/109 5/11/110 28/44/111 27/43/112
f 5/11/113 6/12/114 29/45/115 28/44/116
f 6/12/117 1/13/118 30/46/119 29/45/120
f 1/7/121 2/8/122 31/48/123 30/47/124
f 2/8/125 3/9/126 32/49/127 31/48/128
f 3/9/129 4/10/130 27/43/131 32/49/132
f 34/21/133 33/22/134 44/23/135 39/24/136
f 35/25/137 34/21/138 39/24/139 40/26/140
f 36/28/141 35/25/142 40/26/143 41/53/144
f 37/54/145 36/28/146 41/53/147 42/55/148
f 38/56/149 37/54/150 42/55/151 43/57/152
f 33/22/153 38/56/154 43/57/155 44/23/156
f 40/26/157 39/24/158 46/58/159 47/59/160
f 41/53/161 40/26/162 47/59/163 48/60/164
f 42/55/165 41/53/166 48/60/167 49/61/168
f 43/57/169 42/55/170 49/61/171 50/62/172
f 44/23/173 43/57/174 50/62/175 45/63/176
f 39/24/177 44/23/178 45/63/179 46/58/180
f 46/58/181 45/63/182 8/15/183 7/14/184
f 47/59/185 46/58/186 7/14/187 12/20/188
f 48/60/189 47/59/190 12/20/191 11/19/192
f 49/61/193 48/60/194 11/19/195 10/18/196
f 50/62/197 49/61/198 10/18/199 9/17/200
f 45/63/201 50/62/202 9/17/203 8/15/204
f 23/38/205 63/78/206 51/64/207
f 53/66/208 52/65/209 22/37/210 21/36/211
f 54/67/212 70/85/213 26/42/214
f 26/42/215 67/82/216 54/67/217
f 56/70/218 55/68/219 25/41/220 24/40/221
f 51/64/222 66/81/223 23/38/224
f 68/83/225 32/49/226 58/72/227
f 32/49/228 69/84/229 58/72/230
f 27/43/231 28/44/232 60/74/233 59/73/234
f 64/79/235 29/45/236 61/75/237
f 29/45/238 65/80/239 61/75/240
f 30/47/241 31/48/242 57/71/243 62/77/244
f 52/65/245 63/78/246 23/38/247 22/37/248
f 60/87/249 64/94/250 63/95/251 52/88/252
f 28/44/253 29/45/254 64/79/255 60/74/256
f 29/45/257 30/46/258 62/76/259 65/80/260
f 66/96/261 65/97/262 62/90/263 56/93/264
f 23/38/265 66/81/266 56/69/267 24/39/268
f 55/68/269 67/82/270 26/42/271 25/41/272
f 57/91/273 68/98/274 67/99/275 55/92/276
f 31/48/277 32/49/278 68/83/279 57/71/280
f 32/49/281 27/43/282 59/73/283 69/84/284
f 70/100/285 69/101/286 59/86/287 53/89/288
f 26/42/289 70/85/290 53/66/291 21/36/292
f 59/86/293 60/87/294 72/103/295 71/102/296
f 60/87/297 52/88/298 73/104/299 72/103/300
f 52/88/301 53/89/302 74/105/303 73/104/304
f 53/89/305 59/86/306 71/102/307 74/105/308
