# This file uses centimeters as units for non-parametric coordinates.

v 3.245673 9.287500 -7.818303
v -5.644312 7.396990 -7.379221
v -9.630708 6.120745 0.700289
v -4.727120 6.735011 8.340718
v 4.162865 8.625522 7.901635
v 8.149261 9.901766 -0.177876
v 1.998779 11.085156 -6.055246
v -5.074419 9.580997 -5.705896
v -8.246144 8.565570 0.722459
v -4.344668 9.054302 6.801460
v 2.728530 10.558462 6.452111
v 5.900251 11.573888 0.023759
v -0.447534 11.335338 -1.456558
v -2.518656 10.894900 -1.354263
v -3.447378 10.597570 0.528041
v -2.304976 10.740678 2.308053
v -0.233853 11.181115 2.205758
v 0.694868 11.478445 0.323453
v -0.110782 9.473927 -1.454142
v -2.068875 9.057526 -1.357430
v -2.946911 8.776423 0.422151
v -1.866856 8.911719 2.105020
v 0.091237 9.328120 2.008308
v 0.969273 9.609223 0.228728
v 0.927014 -2.240320 -1.605636
v -0.927013 -2.240320 -1.605636
v -1.854027 -2.240320 -0.000000
v -0.927014 -2.240320 1.605636
v 0.927013 -2.240320 1.605636
v 1.854027 -2.240320 -0.000000
v 0.041800 7.447196 -1.041461
v 0.807227 7.543079 0.151175
v 0.184969 7.343863 1.412350
v -1.202716 7.048763 1.480889
v -1.968143 6.952880 0.288253
v -1.345885 7.152096 -0.972922
v 0.808659 2.904765 -1.400639
v 1.607684 3.114140 -0.000000
v 0.805833 3.027578 1.395745
v -0.812699 2.729134 1.407636
v -1.635244 2.515109 -0.000000
v -0.815572 2.604217 -1.412614
vt 0.104189 0.179874
vt 0.104189 0.179874
vt 0.104189 0.179874
vt 0.104189 0.179874
vt 0.104189 0.179874
vt 0.104189 0.179874
vt 0.104189 0.179874
vt 0.104189 0.179874
vt 0.104189 0.179874
vt 0.104189 0.179874
vt 0.104189 0.179874
vt 0.104189 0.179874
vt 0.104189 0.179874
vt 0.104189 0.179874
vt 0.104189 0.179874
vt 0.104189 0.179874
vt 0.104189 0.179874
vt 0.104189 0.179874
vt 0.071129 0.376567
vt 0.071129 0.376567
vt 0.071129 0.376567
vt 0.071129 0.376567
vt 0.071129 0.376567
vt 0.071129 0.376567
vt 0.071129 0.376567
vt 0.071129 0.376567
vt 0.014368 0.274926
vt 0.014367 0.274925
vt 0.014367 0.274925
vt 0.014367 0.274925
vt 0.014368 0.274926
vt 0.014367 0.274925
vt 0.014368 0.274926
vt 0.014367 0.274925
vt 0.014368 0.274925
vt 0.014367 0.274925
vt 0.014368 0.274925
vt 0.014367 0.274925
vt 0.071129 0.376567
vt 0.071129 0.376567
vt 0.071129 0.376567
vt 0.071129 0.376567
vt 0.071129 0.376567
vt 0.071129 0.376567
vt 0.071129 0.376567
vt 0.071129 0.376567
vt 0.071129 0.376567
vt 0.071129 0.376567
vt 0.071129 0.376567
vt 0.071129 0.376567
vt 0.071129 0.376567
vt 0.071129 0.376567
vt 0.071129 0.376567
vt 0.071129 0.376567
vn -0.170866 0.626948 -0.760093
vn -0.170866 0.626948 -0.760093
vn -0.170866 0.626948 -0.760093
vn -0.170866 0.626948 -0.760093
vn -0.819898 0.467328 -0.330715
vn -0.819898 0.467328 -0.330715
vn -0.819898 0.467328 -0.330715
vn -0.819898 0.467328 -0.330715
vn -0.773667 0.433961 0.461647
vn -0.773667 0.433961 0.461647
vn -0.773667 0.433961 0.461647
vn -0.773667 0.433961 0.461647
vn -0.078404 0.560215 0.824629
vn -0.078404 0.560215 0.824629
vn -0.078404 0.560215 0.824629
vn -0.078404 0.560215 0.824629
vn 0.570628 0.719834 0.395251
vn 0.570628 0.719834 0.395251
vn 0.570628 0.719834 0.395251
vn 0.570628 0.719834 0.395251
vn 0.524397 0.753201 -0.397110
vn 0.524397 0.753201 -0.397110
vn 0.524397 0.753201 -0.397110
vn 0.524397 0.753201 -0.397110
vn -0.205200 0.977277 0.053127
vn -0.205200 0.977277 0.053127
vn -0.205200 0.977277 0.053127
vn -0.205200 0.977277 0.053127
vn -0.022092 0.997574 -0.066023
vn -0.022092 0.997573 -0.066023
vn -0.022092 0.997573 -0.066023
vn -0.022092 0.997573 -0.066023
vn -0.212952 0.962915 -0.165667
vn -0.212952 0.962915 -0.165667
vn -0.212952 0.962915 -0.165667
vn -0.212952 0.962915 -0.165667
vn -0.391121 0.919097 -0.047796
vn -0.391121 0.919097 -0.047796
vn -0.391121 0.919097 -0.047796
vn -0.391121 0.919097 -0.047796
vn -0.378430 0.909938 0.169719
vn -0.378430 0.909938 0.169719
vn -0.378430 0.909938 0.169719
vn -0.378430 0.909938 0.169719
vn -0.187570 0.944596 0.269363
vn -0.187570 0.944596 0.269363
vn -0.187570 0.944596 0.269363
vn -0.187570 0.944596 0.269363
vn -0.009401 0.988414 0.151492
vn -0.009401 0.988414 0.151492
vn -0.009401 0.988414 0.151492
vn -0.009401 0.988414 0.151492
vn -0.205200 0.977277 0.053126
vn -0.205200 0.977277 0.053126
vn -0.205200 0.977277 0.053126
vn -0.205200 0.977277 0.053126
vn 0.212575 -0.967000 0.140438
vn 0.212575 -0.967000 0.140438
vn 0.212575 -0.967000 0.140438
vn 0.212575 -0.967000 0.140438
vn 0.370307 -0.928208 0.036088
vn 0.370307 -0.928208 0.036088
vn 0.370307 -0.928208 0.036088
vn 0.370307 -0.928208 0.036088
vn 0.359072 -0.920099 -0.156477
vn 0.359072 -0.920099 -0.156477
vn 0.359072 -0.920099 -0.156477
vn 0.359072 -0.920099 -0.156477
vn 0.190104 -0.950782 -0.244692
vn 0.190104 -0.950782 -0.244692
vn 0.190104 -0.950782 -0.244692
vn 0.190104 -0.950782 -0.244692
vn 0.032372 -0.989574 -0.140342
vn 0.032372 -0.989574 -0.140342
vn 0.032372 -0.989574 -0.140342
vn 0.032372 -0.989574 -0.140342
vn 0.043607 -0.997683 0.052224
vn 0.043607 -0.997683 0.052224
vn 0.043607 -0.997683 0.052224
vn 0.043607 -0.997683 0.052224
vn -0.035026 0.082530 -0.995973
vn -0.035026 0.082530 -0.995973
vn -0.035026 0.082530 -0.995973
vn -0.035026 0.082530 -0.995973
vn -0.877195 -0.045547 -0.477968
vn -0.877195 -0.045547 -0.477968
vn -0.877195 -0.045547 -0.477968
vn -0.877195 -0.045547 -0.477968
vn -0.844972 -0.091503 0.526925
vn -0.844972 -0.091503 0.526925
vn -0.844972 -0.091503 0.526925
vn -0.844972 -0.091503 0.526925
vn 0.028146 -0.007106 0.999579
vn 0.028146 -0.007106 0.999579
vn 0.028146 -0.007106 0.999579
vn 0.028146 -0.007106 0.999579
vn 0.867710 0.131830 0.479271
vn 0.867710 0.131830 0.479271
vn 0.867710 0.131830 0.479271
vn 0.867710 0.131830 0.479271
vn 0.833705 0.175436 -0.523602
vn 0.833705 0.175436 -0.523602
vn 0.833705 0.175436 -0.523602
vn 0.833705 0.175436 -0.523602
vn 0.842372 -0.045913 -0.536937
vn 0.842372 -0.045913 -0.536937
vn 0.842372 -0.045913 -0.536937
vn 0.842372 -0.045913 -0.536937
vn 0.898775 -0.086622 0.429768
vn 0.898775 -0.086622 0.429768
vn 0.898775 -0.086622 0.429768
vn 0.898775 -0.086622 0.429768
vn 0.106934 -0.281363 0.953625
vn 0.106934 -0.281363 0.953625
vn 0.106934 -0.281363 0.953625
vn 0.106934 -0.281363 0.953625
vn -0.741311 -0.435396 0.510773
vn -0.741311 -0.435396 0.510773
vn -0.741311 -0.435396 0.510773
vn -0.741311 -0.435396 0.510773
vn -0.797714 -0.394687 -0.455933
vn -0.797714 -0.394687 -0.455933
vn -0.797714 -0.394687 -0.455933
vn -0.797714 -0.394687 -0.455933
vn -0.005873 -0.199946 -0.979789
vn -0.005873 -0.199946 -0.979789
vn -0.005873 -0.199946 -0.979789
vn -0.005873 -0.199946 -0.979789
vn -0.000000 0.039812 -0.999207
vn -0.000000 0.039812 -0.999207
vn -0.000000 0.039812 -0.999207
vn -0.000000 0.039812 -0.999207
vn -0.865339 0.039812 -0.499603
vn -0.865339 0.039812 -0.499603
vn -0.865339 0.039812 -0.499603
vn -0.865339 0.039812 -0.499603
vn -0.865339 0.039812 0.499603
vn -0.865339 0.039812 0.499603
vn -0.865339 0.039812 0.499603
vn -0.865339 0.039812 0.499603
vn 0.000000 0.039812 0.999207
vn 0.000000 0.039812 0.999207
vn 0.000000 0.039812 0.999207
vn 0.000000 0.039812 0.999207
vn 0.865339 0.039812 0.499603
vn 0.865339 0.039812 0.499603
vn 0.865339 0.039812 0.499603
vn 0.865339 0.039812 0.499603
vn 0.865339 0.039812 -0.499603
vn 0.865339 0.039812 -0.499603
vn 0.865339 0.039812 -0.499603
vn 0.865339 0.039812 -0.499603
s off
f 1/1/1 2/2/2 8/3/3 7/4/4
f 2/2/5 3/5/6 9/6/7 8/3/8
f 3/5/9 4/7/10 10/8/11 9/6/12
f 4/7/13 5/9/14 11/10/15 10/8/16
f 5/9/17 6/11/18 12/12/19 11/10/20
f 6/11/21 1/1/22 7/4/23 12/12/24
f 17/13/25 14/14/26 15/15/27 16/16/28
f 12/12/29 7/4/30 13/17/31 18/18/32
f 7/4/33 8/3/34 14/14/35 13/17/36
f 8/3/37 9/6/38 15/15/39 14/14/40
f 9/6/41 10/8/42 16/16/43 15/15/44
f 10/8/45 11/10/46 17/13/47 16/16/48
f 11/10/49 12/12/50 18/18/51 17/13/52
f 18/18/53 13/17/54 14/14/55 17/13/56
f 2/27/57 1/28/58 19/29/59 20/30/60
f 3/31/61 2/27/62 20/30/63 21/32/64
f 4/33/65 3/31/66 21/32/67 22/34/68
f 5/35/69 4/33/70 22/34/71 23/36/72
f 6/37/73 5/35/74 23/36/75 24/38/76
f 1/28/77 6/37/78 24/38/79 19/29/80
f 36/19/81 31/20/82 37/21/83 42/22/84
f 35/23/85 36/19/86 42/22/87 41/24/88
f 34/25/89 35/23/90 41/24/91 40/26/92
f 33/39/93 34/25/94 40/26/95 39/40/96
f 32/41/97 33/39/98 39/40/99 38/42/100
f 31/20/101 32/41/102 38/42/103 37/21/104
f 19/43/105 24/44/106 32/41/107 31/20/108
f 24/44/109 23/45/110 33/39/111 32/41/112
f 23/45/113 22/46/114 34/25/115 33/39/116
f 22/46/117 21/47/118 35/23/119 34/25/120
f 21/47/121 20/48/122 36/19/123 35/23/124
f 20/48/125 19/43/126 31/20/127 36/19/128
f 42/22/129 37/21/130 25/49/131 26/50/132
f 41/24/133 42/22/134 26/50/135 27/51/136
f 40/26/137 41/24/138 27/51/139 28/52/140
f 39/40/141 40/26/142 28/52/143 29/53/144
f 38/42/145 39/40/146 29/53/147 30/54/148
f 37/21/149 38/42/150 30/54/151 25/49/152
