# This file uses centimeters as units for non-parametric coordinates.

v -3.995326 -2.164170 5.812052
v 3.995326 -2.164170 5.812052
v -3.995326 2.164169 5.812052
v 3.995326 2.164169 5.812052
v -3.995326 2.164169 -5.812021
v 3.995326 2.164169 -5.812021
v -3.995326 -2.164170 -5.812021
v 3.995326 -2.164170 -5.812021
v -3.249492 -1.760170 5.812052
v 3.249492 -1.760170 5.812052
v 3.249492 1.760169 5.812052
v -3.249492 1.760169 5.812052
v -3.249492 -1.760170 -4.955698
v 3.249492 -1.760170 -4.955698
v 3.249492 1.760169 -4.955698
v -3.249492 1.760169 -4.955698
v 3.995326 -1.692092 -5.542607
v 3.995326 -1.692092 5.542638
v 3.995326 1.692091 -5.542607
v 3.995326 1.692091 5.542638
v -3.995326 -1.692092 -5.542607
v -3.995326 -1.692092 5.542638
v -3.995326 1.692091 5.542638
v -3.995326 1.692091 -5.542607
v -3.503565 2.164169 5.096658
v 3.503565 2.164169 5.096658
v 3.503565 2.164169 1.540266
v -3.503565 2.164169 1.540266
v -3.176915 -2.164170 -4.621457
v 3.176915 -2.164170 -4.621457
v 3.176915 -2.164170 4.621487
v -3.176915 -2.164170 4.621487
v -3.995326 -0.312534 5.812052
v 3.995326 -0.481407 5.812052
v -3.995326 0.042512 -5.812021
v 3.995326 -0.126361 -5.812021
v 3.249492 -0.465645 5.812052
v -3.249492 -0.328296 5.812052
v 3.249492 -0.136754 -4.955698
v -3.249492 0.000594 -4.955698
v 3.995326 -0.134590 -5.542607
v 3.995326 -0.473178 5.542637
v -3.995326 -0.304305 5.542638
v -3.995326 0.034284 -5.542607
v 0.464138 -0.775926 -5.812021
v 3.995326 -0.882051 -1.925398
v -3.995326 -0.654625 -0.402014
v -3.995326 -0.022436 1.199446
v -3.995326 1.692091 -0.533988
v -3.995326 2.164169 -0.863496
v -3.682835 2.164169 -1.139987
v 3.868819 2.164169 -3.920605
v 3.995326 2.164169 -3.920680
v 3.995326 1.692091 -3.611485
v -0.542693 2.164169 -3.918420
vt 0.035101 0.335234
vt 0.035101 0.335234
vt 0.035101 0.379620
vt 0.035101 0.379620
vt 0.035101 0.379620
vt 0.035101 0.379620
vt 0.037382 0.354523
vt 0.037382 0.354523
vt 0.035101 0.335234
vt 0.035101 0.335234
vt 0.035101 0.335234
vt 0.035101 0.335234
vt 0.035101 0.335234
vt 0.035101 0.335234
vt 0.035101 0.379620
vt 0.035101 0.379620
vt 0.035101 0.335234
vt 0.035101 0.335234
vt 0.037382 0.354523
vt 0.035101 0.379620
vt 0.035101 0.335234
vt 0.035101 0.335234
vt 0.035101 0.379620
vt 0.037382 0.354523
vt 0.147505 0.404654
vt 0.129875 0.417099
vt 0.129875 0.396150
vt 0.129875 0.396150
vt 0.129875 0.417099
vt 0.147505 0.404654
vt 0.129875 0.396150
vt 0.129875 0.396150
vt 0.035101 0.379620
vt 0.035101 0.379620
vt 0.035101 0.379620
vt 0.035101 0.379620
vt 0.138617 0.443324
vt 0.138617 0.443324
vt 0.138617 0.443324
vt 0.138617 0.443324
vt 0.035101 0.335234
vt 0.035101 0.335234
vt 0.035101 0.335234
vt 0.035101 0.335234
vt 0.028722 0.230060
vt 0.028722 0.230060
vt 0.028722 0.230060
vt 0.028722 0.230060
vt 0.035101 0.379620
vt 0.035101 0.335233
vt 0.037382 0.354523
vt 0.037382 0.354523
vt 0.035101 0.379620
vt 0.035101 0.335233
vt 0.035101 0.335233
vt 0.035101 0.379620
vt 0.035101 0.335233
vt 0.129875 0.396150
vt 0.035101 0.335233
vt 0.129875 0.396150
vt 0.129875 0.396150
vt 0.035101 0.335234
vt 0.129875 0.396150
vt 0.035101 0.335233
vt 0.037382 0.354523
vt 0.147505 0.404654
vt 0.129875 0.396150
vt 0.147505 0.404654
vt 0.037382 0.354523
vt 0.147505 0.404654
vt 0.129875 0.396150
vt 0.035101 0.379620
vt 0.147505 0.404654
vt 0.035101 0.335233
vt 0.035101 0.335233
vt 0.035101 0.335233
vt 0.129875 0.417099
vt 0.035101 0.379620
vt 0.035101 0.379620
vt 0.035101 0.335233
vt 0.147505 0.404654
vt 0.037382 0.354523
vt 0.035101 0.379620
vt 0.035101 0.335233
vt 0.035101 0.335234
vt 0.035101 0.379620
vt 0.129875 0.417099
vt 0.129875 0.417099
vt 0.035101 0.379620
vt 0.035101 0.379620
vt 0.035101 0.379620
vt 0.035101 0.379620
vt 0.035101 0.379620
vt 0.035101 0.379620
vt 0.129875 0.417099
vt 0.035101 0.379620
vt 0.037382 0.354523
vt 0.147505 0.404654
vt 0.037382 0.354523
vt 0.037382 0.354523
vt 0.037382 0.354523
vt 0.037382 0.354523
vt 0.037382 0.354523
vt 0.147505 0.404654
vt 0.037382 0.354523
vt 0.147505 0.404654
vt 0.147505 0.404654
vt 0.129875 0.417099
vn 0.000000 0.000000 1.000000
vn 0.000000 0.000000 1.000000
vn 0.000000 0.000000 1.000000
vn 0.000000 0.000000 1.000000
vn 0.000000 1.000000 0.000000
vn 0.000000 1.000000 0.000000
vn 0.000000 1.000000 0.000000
vn 0.000000 1.000000 0.000000
vn -0.000000 0.000000 -1.000000
vn -0.000000 0.000000 -1.000000
vn 0.000000 0.000000 -1.000000
vn 0.000000 -1.000000 0.000000
vn 0.000000 -1.000000 0.000000
vn 0.000000 -1.000000 0.000000
vn 0.000000 -1.000000 0.000000
vn 1.000000 0.000000 -0.000000
vn 1.000000 0.000000 0.000000
vn 1.000000 -0.000000 -0.000000
vn -1.000000 0.000000 0.000000
vn -1.000000 0.000000 0.000000
vn -1.000000 0.000000 0.000000
vn -1.000000 0.000000 0.000000
vn 0.000000 0.000000 1.000000
vn 0.000000 0.000000 1.000000
vn 0.000000 0.000000 1.000000
vn 0.000000 0.000000 1.000000
vn -0.000001 0.000000 1.000000
vn -0.000000 0.000000 1.000000
vn -0.000000 0.000000 1.000000
vn -0.000001 0.000000 1.000000
vn 0.000000 0.000000 1.000000
vn 0.000000 0.000000 1.000000
vn 0.000000 0.000000 1.000000
vn 0.000000 0.000000 1.000000
vn 0.000000 0.000000 1.000000
vn 0.000000 0.000000 1.000000
vn 0.000000 0.000000 1.000000
vn 0.000000 0.000000 1.000000
vn 0.000000 1.000000 0.000000
vn 0.000000 1.000000 0.000000
vn 0.000000 1.000000 0.000000
vn 0.000000 1.000000 0.000000
vn -1.000000 0.000000 0.000000
vn -1.000000 0.000000 0.000000
vn -1.000000 0.000000 0.000000
vn -1.000000 0.000000 0.000000
vn 0.000000 -1.000000 0.000000
vn 0.000000 -1.000000 0.000000
vn 0.000000 -1.000000 0.000000
vn 0.000000 -1.000000 0.000000
vn 1.000000 0.000000 0.000000
vn 1.000000 0.000000 0.000000
vn 1.000000 0.000000 0.000000
vn 1.000000 0.000000 0.000000
vn 1.000000 0.000000 0.000000
vn 1.000000 0.000000 0.000000
vn 1.000000 0.000000 0.000000
vn 1.000000 0.000000 0.000000
vn 1.000000 0.000000 0.000000
vn 1.000000 0.000000 0.000000
vn 1.000000 0.000000 0.000000
vn 1.000000 0.000000 0.000000
vn 1.000000 0.000000 0.000000
vn 1.000000 0.000001 0.000000
vn 1.000000 0.000001 0.000000
vn 1.000000 0.000000 0.000000
vn 1.000000 -0.000000 0.000000
vn 1.000000 0.000000 0.000000
vn 1.000000 -0.000000 0.000000
vn 1.000000 -0.000000 0.000000
vn -1.000000 0.000000 0.000000
vn -1.000000 0.000000 0.000000
vn -1.000000 0.000000 0.000000
vn -1.000000 0.000000 0.000000
vn -1.000000 0.000000 0.000000
vn -1.000000 0.000000 0.000000
vn -1.000000 0.000000 0.000000
vn -1.000000 0.000000 0.000000
vn -1.000000 -0.000000 0.000000
vn -1.000000 -0.000001 0.000000
vn -1.000000 -0.000001 0.000000
vn -1.000000 -0.000001 0.000000
vn -1.000000 0.000000 0.000000
vn -1.000000 0.000000 0.000000
vn -1.000000 0.000000 0.000000
vn -1.000000 0.000000 0.000000
vn 0.000000 1.000000 -0.000000
vn 0.000000 1.000000 -0.000000
vn 0.000000 1.000000 -0.000000
vn 0.000000 1.000000 -0.000000
vn 0.000000 1.000000 0.000000
vn 0.000000 1.000000 0.000000
vn 0.000000 1.000000 0.000000
vn 0.000000 1.000000 -0.000000
vn 0.000000 1.000000 -0.000000
vn 0.000000 1.000000 -0.000000
vn 0.000000 1.000000 -0.000000
vn 0.000000 1.000000 0.000000
vn 0.000000 1.000000 0.000000
vn 0.000000 1.000000 0.000000
vn 0.000000 -1.000000 -0.000000
vn 0.000000 -1.000000 -0.000000
vn 0.000000 -1.000000 -0.000000
vn 0.000000 -1.000000 -0.000000
vn 0.000000 -1.000000 0.000000
vn 0.000000 -1.000000 0.000000
vn 0.000000 -1.000000 0.000000
vn 0.000000 -1.000000 0.000000
vn 0.000000 -1.000000 0.000000
vn 0.000000 -1.000000 0.000000
vn 0.000000 -1.000000 0.000000
vn 0.000000 -1.000000 0.000000
vn 0.000000 -1.000000 0.000000
vn 0.000000 -1.000000 0.000000
vn 0.000000 -1.000000 0.000000
vn 0.000000 -1.000000 0.000000
vn 0.000000 0.000000 1.000000
vn 0.000000 0.000000 1.000000
vn 0.000000 0.000000 1.000000
vn 0.000000 0.000000 1.000000
vn 0.000000 0.000000 -1.000000
vn -0.000000 0.000000 -1.000000
vn 0.000000 0.000000 -1.000000
vn 0.000000 0.000000 -1.000000
vn 1.000000 0.000000 0.000000
vn 1.000000 0.000000 0.000000
vn 1.000000 -0.000000 0.000000
vn 1.000000 -0.000000 -0.000000
vn -1.000000 0.000000 0.000000
vn -1.000000 0.000000 0.000000
vn -1.000000 0.000000 0.000000
vn -0.000000 0.000000 1.000000
vn -0.000000 0.000000 1.000000
vn 0.000000 0.000000 1.000000
vn 0.000000 0.000000 1.000000
vn 0.000000 0.000000 1.000000
vn 0.000000 0.000000 1.000000
vn 0.000000 0.000000 1.000000
vn 0.000000 0.000000 1.000000
vn -1.000000 0.000000 0.000000
vn -1.000000 0.000000 0.000000
vn -1.000000 0.000000 0.000000
vn -1.000000 0.000000 0.000000
vn 1.000000 0.000000 0.000000
vn 1.000000 0.000000 0.000000
vn 1.000000 0.000000 0.000000
vn 1.000000 0.000000 0.000000
vn 1.000000 0.000000 0.000000
vn 1.000000 0.000000 0.000000
vn 1.000000 0.000000 0.000000
vn 1.000000 0.000000 0.000000
vn 1.000000 -0.000000 0.000000
vn 1.000000 0.000000 0.000000
vn 1.000000 0.000000 0.000000
vn 1.000000 0.000000 0.000000
vn -1.000000 0.000000 0.000000
vn -1.000000 0.000000 0.000000
vn -1.000000 0.000000 0.000000
vn -1.000000 0.000000 0.000000
vn -1.000000 0.000000 0.000000
vn -1.000000 0.000000 0.000000
vn -1.000000 0.000000 0.000000
vn -1.000000 0.000000 0.000000
vn -0.000000 0.000000 -1.000000
vn -0.000000 0.000000 -1.000000
vn 0.000000 0.000000 -1.000000
vn -0.000000 0.000000 -1.000000
vn -0.000000 0.000000 -1.000000
vn -0.000000 0.000000 -1.000000
vn -0.000000 0.000000 -1.000000
vn 1.000000 0.000000 -0.000000
vn 1.000000 0.000000 0.000000
vn 1.000000 0.000000 0.000000
vn 1.000000 0.000000 0.000000
vn 1.000000 0.000000 0.000000
vn 1.000000 0.000000 0.000000
vn 1.000000 0.000000 0.000000
vn -1.000000 0.000000 0.000000
vn -1.000000 0.000000 0.000000
vn -1.000000 0.000000 0.000000
vn -1.000000 0.000000 0.000000
vn -1.000000 0.000000 0.000000
vn -1.000000 0.000000 0.000000
vn -1.000000 0.000000 0.000000
vn -1.000000 0.000000 0.000000
vn -1.000000 0.000000 0.000000
vn -1.000000 0.000000 0.000000
vn -1.000000 0.000000 0.000000
vn -1.000000 0.000000 0.000000
vn -1.000000 0.000000 0.000000
vn -1.000000 0.000000 0.000000
vn -1.000000 -0.000000 0.000000
vn -1.000000 -0.000000 0.000000
vn -1.000000 -0.000000 0.000000
vn -1.000000 -0.000001 0.000000
vn 0.000000 1.000000 0.000000
vn 0.000000 1.000000 0.000000
vn 0.000000 1.000000 0.000000
vn 0.000000 1.000000 0.000000
vn 0.000000 1.000000 0.000000
vn 0.000000 1.000000 -0.000000
vn 0.000000 1.000000 -0.000000
vn 0.000000 1.000000 -0.000000
vn 0.000000 1.000000 0.000000
vn 0.000000 1.000000 0.000000
vn 0.000000 1.000000 0.000000
vn 0.000000 1.000000 0.000000
vn 0.000000 1.000000 0.000000
vn 1.000000 0.000001 0.000000
vn 1.000000 0.000001 0.000000
vn 1.000000 0.000001 0.000000
vn 1.000000 0.000001 0.000000
vn 0.000000 1.000000 -0.000000
vn 0.000000 1.000000 -0.000000
vn 0.000000 1.000000 0.000000
vn 0.000000 1.000000 -0.000000
vn 0.000000 1.000000 -0.000000
vn 0.000000 1.000000 0.000000
vn 0.000000 1.000000 0.000000
vn 1.000000 -0.000000 -0.000000
vn 1.000000 -0.000000 0.000000
vn 1.000000 -0.000000 0.000000
s off
f 13/1/1 14/2/2 39/55/3 40/84/4
f 25/37/5 26/38/6 27/39/7 28/40/8
f 45/65/9 6/7/10 36/52/11
f 29/45/12 30/46/13 31/47/14 32/48/15
f 18/31/16 46/71/17 42/60/18
f 21/28/19 22/27/20 43/61/21 47/67/22
f 1/12/23 2/11/24 10/13/25 9/14/26
f 2/11/27 34/50/28 37/85/29 10/13/30
f 4/6/31 3/5/32 12/16/33 11/15/34
f 3/5/35 33/49/36 38/83/37 12/16/38
f 9/14/39 10/13/40 14/2/41 13/1/42
f 10/13/43 37/85/44 39/55/45 14/2/46
f 11/15/47 12/16/48 16/4/49 15/3/50
f 12/16/51 38/83/52 40/56/53 16/4/54
f 2/11/55 8/9/56 17/17/57 18/18/58
f 8/9/59 36/80/60 41/57/61 17/17/62
f 6/7/63 53/99/64 54/97/65 19/19/66
f 4/6/67 34/79/68 42/72/69 20/20/70
f 7/10/71 1/12/72 22/21/73 21/22/74
f 1/12/75 33/76/76 43/62/77 22/21/78
f 49/105/79 50/103/80 5/8/81 24/24/82
f 5/8/83 35/51/84 44/69/85 24/24/86
f 3/5/87 4/6/88 26/34/89 25/33/90
f 52/100/91 53/99/92 6/7/93
f 6/7/94 5/8/95 55/101/96 52/100/97
f 5/8/98 50/103/99 51/102/100
f 7/10/101 8/9/102 30/42/103 29/41/104
f 8/9/105 2/11/106 31/43/107 30/42/108
f 2/11/109 1/12/110 32/44/111 31/43/112
f 1/12/113 7/10/114 29/41/115 32/44/116
f 40/56/117 39/86/118 15/3/119 16/4/120
f 7/10/121 45/74/122 36/80/123 8/9/124
f 46/66/125 19/30/126 54/98/127 42/73/128
f 43/107/129 48/106/130 47/68/131
f 37/53/132 34/79/133 4/6/134 11/15/135
f 38/54/136 33/76/137 1/12/138 9/14/139
f 39/86/140 37/53/141 11/15/142 15/3/143
f 40/84/144 38/54/145 9/14/146 13/1/147
f 41/82/148 36/52/149 6/7/150 19/19/151
f 42/59/152 34/50/153 2/11/154 18/18/155
f 43/78/156 33/49/157 3/5/158 23/23/159
f 44/64/160 35/75/161 7/10/162 21/22/163
f 35/75/164 45/74/165 7/10/166
f 5/8/167 6/7/168 45/65/169 35/51/170
f 18/31/171 17/32/172 41/58/173 46/71/174
f 19/30/175 46/66/176 41/81/177
f 44/70/178 47/68/179 48/106/180 49/104/181 24/25/182
f 21/28/183 47/67/184 44/63/185
f 23/26/186 48/87/187 43/77/188
f 49/88/189 48/87/190 23/26/191
f 49/89/192 23/23/193 3/5/194 50/90/195
f 51/91/196 50/90/197 3/5/198 25/33/199 28/36/200
f 52/92/201 55/96/202 27/35/203
f 4/6/204 53/93/205 52/92/206 27/35/207 26/34/208
f 54/94/209 53/93/210 4/6/211 20/20/212
f 55/101/213 5/8/214 51/102/215
f 27/35/216 55/96/217 51/91/218 28/36/219
f 42/108/220 54/95/221 20/29/222
v -3.238387 1.757808 12.636261
v 3.238387 1.757808 12.636261
v -3.238387 1.757808 1.783447
v 3.238387 1.757808 1.783447
v -3.238387 -1.761305 1.783447
v 3.238387 -1.761305 1.783447
v -3.238387 -1.761305 12.636261
v 3.238387 -1.761305 12.636261
v -2.633856 1.757808 12.232269
v 2.633856 1.757808 12.232269
v 2.633856 1.757808 2.187439
v -2.633856 1.757808 2.187439
v -2.633856 1.108663 12.232269
v 2.633856 1.108663 12.232269
v 2.633856 1.108663 2.187439
v -2.633856 1.108663 2.187439
v -3.238387 -0.205482 1.783447
v 3.238387 -0.342360 1.783447
v -3.238387 -0.536971 12.636261
v 3.238387 -1.178838 12.636261
v -1.387231 -1.331554 12.636261
v -3.238387 -0.974609 8.149780
v 2.633856 1.108664 10.489075
v -2.633856 1.108663 10.472473
vt 0.037817 0.374656
vt 0.037817 0.374656
vt 0.037817 0.374656
vt 0.037817 0.374656
vt 0.037817 0.374656
vt 0.037817 0.374656
vt 0.037609 0.332344
vt 0.037609 0.332344
vt 0.037609 0.332344
vt 0.037609 0.332344
vt 0.037817 0.374656
vt 0.037817 0.374656
vt 0.037817 0.374656
vt 0.037817 0.374656
vt 0.037817 0.374656
vt 0.037817 0.374656
vt 0.926738 0.294428
vt 0.926738 0.294428
vt 0.909209 0.171010
vt 0.969439 0.171011
vt 0.037609 0.332344
vt 0.037817 0.374656
vt 0.037609 0.332344
vt 0.037609 0.332344
vt 0.037817 0.374656
vt 0.037609 0.332344
vt 0.037817 0.374656
vt 0.037817 0.374656
vt 0.037609 0.332344
vt 0.037817 0.374656
vt 0.037817 0.374656
vt 0.037609 0.332344
vt 0.909209 0.248976
vt 0.037817 0.374656
vt 0.037817 0.374656
vt 0.969439 0.248819
vt 0.926738 0.294428
vt 0.926738 0.294428
vn -0.000000 1.000000 0.000000
vn -0.000000 1.000000 0.000000
vn -0.000000 1.000000 0.000000
vn -0.000000 1.000000 -0.000000
vn 0.000000 0.000000 -1.000000
vn 0.000000 0.000000 -1.000000
vn 0.000000 0.000000 -1.000000
vn 0.000000 0.000000 -1.000000
vn 0.000000 -1.000000 0.000000
vn 0.000000 -1.000000 0.000000
vn 0.000000 -1.000000 0.000000
vn 0.000000 -1.000000 0.000000
vn 0.000001 0.000000 1.000000
vn -0.000000 0.000000 1.000000
vn -0.000000 0.000000 1.000000
vn 1.000000 0.000000 0.000000
vn 1.000000 0.000000 0.000000
vn 1.000000 0.000000 0.000000
vn 1.000000 0.000000 0.000000
vn -1.000000 0.000000 0.000000
vn -1.000000 0.000000 0.000000
vn -1.000000 0.000000 0.000000
vn -1.000000 0.000000 0.000000
vn 0.000000 1.000000 0.000000
vn 0.000000 1.000000 0.000000
vn 0.000000 1.000000 0.000000
vn 0.000000 1.000000 0.000000
vn 0.000000 1.000000 0.000000
vn 0.000000 1.000000 0.000000
vn 0.000000 1.000000 0.000000
vn 0.000000 1.000000 0.000000
vn 0.000000 1.000000 -0.000000
vn 0.000000 1.000000 -0.000000
vn 0.000000 1.000000 -0.000000
vn 0.000000 1.000000 -0.000000
vn 0.000000 1.000000 0.000000
vn 0.000000 1.000000 0.000000
vn 0.000000 1.000000 0.000000
vn 0.000000 1.000000 0.000000
vn 0.000000 0.000000 -1.000000
vn 0.000000 0.000000 -1.000000
vn 0.000000 0.000000 -1.000000
vn 0.000000 0.000000 -1.000000
vn -1.000000 -0.000000 0.000000
vn -1.000000 -0.000000 0.000000
vn -1.000000 -0.000000 0.000000
vn -1.000000 -0.000000 0.000000
vn -1.000000 -0.000000 0.000000
vn 0.000000 0.000000 1.000000
vn 0.000000 0.000000 1.000000
vn 0.000000 0.000000 1.000000
vn 0.000000 0.000000 1.000000
vn 1.000000 0.000000 0.000000
vn 1.000000 0.000000 0.000000
vn 1.000000 0.000000 0.000000
vn 1.000000 0.000000 0.000000
vn 1.000000 0.000000 0.000000
vn 0.000000 0.000000 -1.000000
vn 0.000000 0.000000 -1.000000
vn 0.000000 0.000000 -1.000000
vn 0.000000 0.000000 -1.000000
vn -0.000000 0.000000 1.000000
vn -0.000000 0.000000 1.000000
vn -0.000000 0.000000 1.000000
vn -0.000000 0.000000 1.000000
vn 1.000000 0.000000 0.000000
vn 1.000000 0.000000 0.000000
vn 1.000000 0.000000 0.000000
vn 1.000000 0.000000 0.000000
vn -1.000000 0.000000 0.000000
vn -1.000000 0.000000 0.000000
vn -1.000000 0.000000 0.000000
vn 0.000001 0.000000 1.000000
vn 0.000000 0.000000 1.000000
vn 0.000000 0.000000 1.000000
vn -0.000000 0.000000 1.000000
vn -0.000000 0.000000 1.000000
vn -0.000000 0.000000 1.000000
vn 0.000000 0.000000 1.000000
vn -1.000000 0.000000 0.000000
vn -1.000000 0.000000 0.000000
vn -1.000000 0.000000 0.000000
vn -1.000000 0.000000 0.000000
vn -1.000000 0.000000 0.000000
vn -1.000000 0.000000 0.000000
vn -1.000000 0.000000 0.000000
vn -0.000000 1.000000 -0.000000
vn -0.000000 1.000000 0.000000
vn -0.000000 1.000000 -0.000000
vn -0.000000 1.000000 -0.000000
s off
f 68/125/223 69/126/224 78/145/225 79/146/226
f 58/113/227 59/114/228 73/130/229 72/136/230
f 60/116/231 61/115/232 63/117/233 62/118/234
f 62/118/235 76/137/236 74/131/237
f 57/119/238 75/139/239 73/130/240 59/114/241
f 62/118/242 74/131/243 77/134/244 60/116/245
f 56/120/246 57/119/247 65/121/248 64/122/249
f 57/119/250 59/114/251 66/123/252 65/121/253
f 59/114/254 58/113/255 67/124/256 66/123/257
f 58/113/258 56/120/259 64/122/260 67/124/261
f 64/122/262 65/121/263 69/110/264 68/109/265
f 65/121/266 66/123/267 70/111/268 78/142/269 69/110/270
f 66/123/271 67/124/272 71/112/273 70/111/274
f 67/124/275 64/122/276 68/109/277 79/143/278 71/112/279
f 72/129/280 73/140/281 61/115/282 60/116/283
f 74/138/284 76/133/285 57/119/286 56/120/287
f 73/140/288 75/132/289 63/117/290 61/115/291
f 56/120/292 77/135/293 74/138/294
f 62/118/295 63/117/296 75/132/297 76/137/298
f 57/119/299 76/133/300 75/139/301
f 72/136/302 77/135/303 56/120/304 58/113/305
f 60/116/306 77/134/307 72/129/308
f 79/144/309 78/141/310 70/127/311 71/128/312
