# This file uses centimeters as units for non-parametric coordinates.

v 2.919888 9.183200 -7.158020
v -5.243568 7.447190 -6.754822
v -8.904179 6.275246 0.664398
v -4.401335 6.839311 7.680420
v 3.762121 8.575321 7.277222
v 7.422733 9.747265 -0.141998
v 3.390598 11.530745 -8.876129
v -6.786463 9.366533 -8.373474
v -11.350005 7.905513 0.875763
v -5.736483 8.608714 9.622345
v 4.440575 10.772931 9.119690
v 9.004112 12.233945 -0.129547
v 0.052903 11.495553 -2.470810
v -3.134234 10.817787 -2.313394
v -4.563396 10.360243 0.583167
v -2.805413 10.580462 3.322312
v 0.381724 11.258228 3.164896
v 1.810885 11.715773 0.268335
v -0.110783 9.473927 -1.454132
v -2.068874 9.057526 -1.357422
v -2.946911 8.776423 0.422150
v -1.866856 8.911719 2.105011
v 0.091236 9.328120 2.008301
v 0.969273 9.609223 0.228729
v 0.927013 -2.240320 -1.605621
v -0.927013 -2.240320 -1.605621
v -1.854027 -2.240320 0.000000
v -0.927013 -2.240320 1.605621
v 0.927013 -2.240320 1.605621
v 1.854027 -2.240320 0.000000
v 0.041800 7.447196 -1.041473
v 0.807226 7.543079 0.151184
v 0.184969 7.343863 1.412354
v -1.202717 7.048763 1.480896
v -1.968143 6.952880 0.288239
v -1.345884 7.152096 -0.972931
v 0.808659 2.904765 -1.400635
v 1.607683 3.114140 0.000000
v 0.805834 3.027578 1.395752
v -0.812698 2.729134 1.407623
v -1.635244 2.515109 0.000000
v -0.815573 2.604217 -1.412628
v 2.205135 11.044133 -6.436218
v -5.281267 9.452106 -6.066467
v -8.638277 8.377357 0.737427
v -4.508884 8.894643 7.171539
v 2.977514 10.486673 6.801788
v 6.334522 11.561418 -0.002106
vt 0.014368 0.274925
vt 0.014368 0.274926
vt 0.069544 0.327526
vt 0.069544 0.327526
vt 0.014368 0.274925
vt 0.069544 0.327526
vt 0.014368 0.274925
vt 0.069544 0.327526
vt 0.014368 0.274926
vt 0.069542 0.349959
vt 0.014368 0.274925
vt 0.069544 0.349959
vt 0.069544 0.327526
vt 0.069544 0.327526
vt 0.069544 0.349959
vt 0.069544 0.349959
vt 0.069544 0.349959
vt 0.069544 0.349959
vt 0.071129 0.376567
vt 0.071129 0.376567
vt 0.071129 0.376567
vt 0.071129 0.376567
vt 0.071129 0.376567
vt 0.071129 0.376567
vt 0.071129 0.376567
vt 0.071129 0.376567
vt 0.014367 0.274925
vt 0.014367 0.274925
vt 0.014367 0.274925
vt 0.014368 0.274926
vt 0.014367 0.274925
vt 0.014368 0.274925
vt 0.014367 0.274925
vt 0.014368 0.274925
vt 0.014367 0.274925
vt 0.071129 0.376567
vt 0.071129 0.376567
vt 0.071129 0.376567
vt 0.071129 0.376567
vt 0.071129 0.376567
vt 0.071129 0.376567
vt 0.071129 0.376567
vt 0.071129 0.376567
vt 0.071129 0.376567
vt 0.071129 0.376567
vt 0.071129 0.376567
vt 0.071129 0.376567
vt 0.071129 0.376567
vt 0.071129 0.376567
vt 0.071129 0.376567
vt 0.071129 0.376567
vt 0.069544 0.349959
vt 0.069544 0.349959
vt 0.069543 0.349959
vt 0.069544 0.349959
vt 0.069544 0.349959
vt 0.069542 0.349959
vt 0.014368 0.274925
vt 0.014368 0.274925
vt 0.014368 0.274925
vt 0.068047 0.299402
vt 0.068047 0.299402
vt 0.068047 0.299402
vt 0.068047 0.299402
vt 0.068047 0.299402
vt 0.068047 0.299402
vn 0.088261 -0.599757 -0.795300
vn 0.088261 -0.599757 -0.795300
vn 0.088261 -0.599757 -0.795300
vn 0.088261 -0.599757 -0.795300
vn -0.535042 -0.753052 -0.382940
vn -0.535042 -0.753052 -0.382940
vn -0.535042 -0.753052 -0.382940
vn -0.535042 -0.753052 -0.382940
vn -0.490642 -0.785097 0.378011
vn -0.490642 -0.785097 0.378011
vn -0.490642 -0.785097 0.378011
vn -0.490642 -0.785098 0.378011
vn 0.177059 -0.663847 0.726606
vn 0.177059 -0.663847 0.726606
vn 0.177059 -0.663847 0.726606
vn 0.177059 -0.663847 0.726606
vn 0.800363 -0.510556 0.314248
vn 0.800363 -0.510556 0.314248
vn 0.800363 -0.510556 0.314248
vn 0.800363 -0.510556 0.314248
vn 0.755965 -0.478511 -0.446704
vn 0.755965 -0.478511 -0.446704
vn 0.755965 -0.478511 -0.446704
vn 0.755965 -0.478511 -0.446704
vn -0.205200 0.977277 0.053127
vn -0.205200 0.977277 0.053127
vn -0.205200 0.977277 0.053127
vn -0.205200 0.977277 0.053127
vn 0.028085 0.994790 -0.098003
vn 0.028085 0.994790 -0.098003
vn 0.028085 0.994790 -0.098003
vn 0.028085 0.994790 -0.098003
vn -0.213291 0.950958 -0.224020
vn -0.213291 0.950958 -0.224020
vn -0.213291 0.950958 -0.224020
vn -0.213291 0.950958 -0.224020
vn -0.438618 0.895543 -0.074952
vn -0.438618 0.895542 -0.074952
vn -0.438618 0.895542 -0.074952
vn -0.438618 0.895543 -0.074952
vn -0.422568 0.883959 0.200135
vn -0.422568 0.883959 0.200135
vn -0.422568 0.883959 0.200135
vn -0.422568 0.883958 0.200135
vn -0.181192 0.927790 0.326151
vn -0.181192 0.927790 0.326151
vn -0.181192 0.927790 0.326151
vn -0.181192 0.927790 0.326151
vn 0.044135 0.983206 0.177084
vn 0.044135 0.983206 0.177084
vn 0.044135 0.983206 0.177084
vn 0.044135 0.983206 0.177084
vn -0.205200 0.977277 0.053127
vn -0.205200 0.977277 0.053127
vn -0.205200 0.977277 0.053127
vn -0.205200 0.977277 0.053127
vn 0.212909 -0.963509 0.162236
vn 0.212909 -0.963509 0.162236
vn 0.212909 -0.963509 0.162236
vn 0.212909 -0.963509 0.162236
vn 0.388301 -0.920374 0.046203
vn 0.388300 -0.920374 0.046203
vn 0.388300 -0.920374 0.046203
vn 0.388300 -0.920374 0.046203
vn 0.375807 -0.911357 -0.167921
vn 0.375807 -0.911357 -0.167921
vn 0.375807 -0.911357 -0.167921
vn 0.375807 -0.911357 -0.167921
vn 0.187923 -0.945475 -0.266012
vn 0.187923 -0.945475 -0.266012
vn 0.187923 -0.945475 -0.266012
vn 0.187923 -0.945475 -0.266012
vn 0.012531 -0.988610 -0.149978
vn 0.012531 -0.988610 -0.149978
vn 0.012531 -0.988610 -0.149978
vn 0.012531 -0.988610 -0.149978
vn 0.025024 -0.997627 0.064145
vn 0.025024 -0.997627 0.064145
vn 0.025024 -0.997627 0.064145
vn 0.025024 -0.997627 0.064145
vn -0.035021 0.082529 -0.995973
vn -0.035021 0.082529 -0.995973
vn -0.035021 0.082529 -0.995973
vn -0.035021 0.082529 -0.995973
vn -0.877196 -0.045548 -0.477967
vn -0.877196 -0.045548 -0.477967
vn -0.877196 -0.045548 -0.477967
vn -0.877196 -0.045548 -0.477967
vn -0.844972 -0.091504 0.526924
vn -0.844972 -0.091504 0.526924
vn -0.844972 -0.091504 0.526924
vn -0.844972 -0.091504 0.526924
vn 0.028141 -0.007109 0.999579
vn 0.028141 -0.007109 0.999579
vn 0.028141 -0.007109 0.999579
vn 0.028141 -0.007109 0.999579
vn 0.867710 0.131830 0.479271
vn 0.867710 0.131830 0.479271
vn 0.867710 0.131830 0.479271
vn 0.867710 0.131830 0.479271
vn 0.833706 0.175436 -0.523599
vn 0.833706 0.175436 -0.523599
vn 0.833706 0.175436 -0.523599
vn 0.833706 0.175436 -0.523599
vn 0.842373 -0.045911 -0.536936
vn 0.842373 -0.045911 -0.536936
vn 0.842373 -0.045911 -0.536936
vn 0.842373 -0.045911 -0.536936
vn 0.898774 -0.086620 0.429770
vn 0.898774 -0.086620 0.429770
vn 0.898774 -0.086620 0.429770
vn 0.898774 -0.086620 0.429770
vn 0.106933 -0.281357 0.953626
vn 0.106933 -0.281357 0.953626
vn 0.106933 -0.281357 0.953626
vn 0.106933 -0.281357 0.953626
vn -0.741312 -0.435395 0.510771
vn -0.741312 -0.435395 0.510771
vn -0.741312 -0.435395 0.510771
vn -0.741312 -0.435395 0.510771
vn -0.797714 -0.394684 -0.455935
vn -0.797714 -0.394684 -0.455935
vn -0.797714 -0.394683 -0.455935
vn -0.797714 -0.394684 -0.455935
vn -0.005875 -0.199937 -0.979791
vn -0.005875 -0.199937 -0.979791
vn -0.005875 -0.199937 -0.979791
vn -0.005875 -0.199937 -0.979791
vn 0.000006 0.039808 -0.999207
vn 0.000006 0.039808 -0.999207
vn 0.000006 0.039808 -0.999207
vn 0.000006 0.039808 -0.999207
vn -0.865339 0.039810 -0.499603
vn -0.865339 0.039810 -0.499603
vn -0.865339 0.039810 -0.499603
vn -0.865339 0.039810 -0.499603
vn -0.865337 0.039812 0.499607
vn -0.865337 0.039812 0.499607
vn -0.865337 0.039812 0.499607
vn -0.865337 0.039812 0.499607
vn -0.000006 0.039810 0.999207
vn -0.000006 0.039810 0.999207
vn -0.000006 0.039810 0.999207
vn -0.000006 0.039810 0.999207
vn 0.865339 0.039811 0.499604
vn 0.865339 0.039811 0.499604
vn 0.865339 0.039811 0.499604
vn 0.865339 0.039811 0.499604
vn 0.865338 0.039811 -0.499605
vn 0.865338 0.039811 -0.499605
vn 0.865338 0.039811 -0.499605
vn 0.865338 0.039811 -0.499605
vn -0.202507 0.974566 0.095975
vn -0.202507 0.974566 0.095975
vn -0.202507 0.974566 0.095975
vn -0.202507 0.974566 0.095975
vn -0.167369 0.983208 0.072729
vn -0.167369 0.983208 0.072729
vn -0.167369 0.983208 0.072729
vn -0.167369 0.983208 0.072729
vn -0.169872 0.985015 0.029831
vn -0.169872 0.985014 0.029831
vn -0.169872 0.985015 0.029831
vn -0.169872 0.985015 0.029831
vn -0.207513 0.978179 0.010179
vn -0.207513 0.978179 0.010179
vn -0.207513 0.978179 0.010179
vn -0.207513 0.978179 0.010179
vn -0.242652 0.969538 0.033425
vn -0.242652 0.969538 0.033425
vn -0.242652 0.969537 0.033425
vn -0.242652 0.969538 0.033425
vn -0.240149 0.967731 0.076324
vn -0.240149 0.967731 0.076324
vn -0.240149 0.967731 0.076324
vn -0.240149 0.967731 0.076324
s off
f 1/1/1 2/2/2 8/5/3 7/7/4
f 2/2/5 3/9/6 9/11/7 8/5/8
f 3/9/9 4/30/10 10/58/11 9/11/12
f 4/30/13 5/32/14 11/59/15 10/58/16
f 5/32/17 6/34/18 12/60/19 11/59/20
f 6/34/21 1/1/22 7/7/23 12/60/24
f 17/61/25 14/62/26 15/63/27 16/64/28
f 48/10/29 43/12/30 13/13/31 18/14/32
f 43/12/33 44/15/34 14/4/35 13/13/36
f 44/15/37 45/16/38 15/6/39 14/4/40
f 45/16/41 46/17/42 16/8/43 15/6/44
f 46/17/45 47/18/46 17/3/47 16/8/48
f 47/18/49 48/10/50 18/14/51 17/3/52
f 18/65/53 13/66/54 14/62/55 17/61/56
f 2/2/57 1/1/58 19/27/59 20/28/60
f 3/9/61 2/2/62 20/28/63 21/29/64
f 4/30/65 3/9/66 21/29/67 22/31/68
f 5/32/69 4/30/70 22/31/71 23/33/72
f 6/34/73 5/32/74 23/33/75 24/35/76
f 1/1/77 6/34/78 24/35/79 19/27/80
f 36/19/81 31/20/82 37/21/83 42/22/84
f 35/23/85 36/19/86 42/22/87 41/24/88
f 34/25/89 35/23/90 41/24/91 40/26/92
f 33/36/93 34/25/94 40/26/95 39/37/96
f 32/38/97 33/36/98 39/37/99 38/39/100
f 31/20/101 32/38/102 38/39/103 37/21/104
f 19/40/105 24/41/106 32/38/107 31/20/108
f 24/41/109 23/42/110 33/36/111 32/38/112
f 23/42/113 22/43/114 34/25/115 33/36/116
f 22/43/117 21/44/118 35/23/119 34/25/120
f 21/44/121 20/45/122 36/19/123 35/23/124
f 20/45/125 19/40/126 31/20/127 36/19/128
f 42/22/129 37/21/130 25/46/131 26/47/132
f 41/24/133 42/22/134 26/47/135 27/48/136
f 40/26/137 41/24/138 27/48/139 28/49/140
f 39/37/141 40/26/142 28/49/143 29/50/144
f 38/39/145 39/37/146 29/50/147 30/51/148
f 37/21/149 38/39/150 30/51/151 25/46/152
f 7/52/153 8/53/154 44/15/155 43/12/156
f 8/53/157 9/54/158 45/16/159 44/15/160
f 9/54/161 10/55/162 46/17/163 45/16/164
f 10/55/165 11/56/166 47/18/167 46/17/168
f 11/56/169 12/57/170 48/10/171 47/18/172
f 12/57/173 7/52/174 43/12/175 48/10/176
