# This file uses centimeters as units for non-parametric coordinates.

v -0.547254 4.579469 2.741852
v -0.547254 4.579469 1.741852
v -0.547254 5.445495 1.241852
v -0.547254 6.311520 1.741852
v -0.547254 6.311520 2.741852
v -0.574967 5.511706 3.137299
v 0.547254 4.579469 2.741852
v 0.547254 4.579469 1.741852
v 0.547254 5.445495 1.241852
v 0.547254 6.311520 1.741852
v 0.547254 6.311520 2.741852
v 0.547254 5.445495 3.241852
v -1.959653 -3.224730 -3.731155
v -1.959652 -3.373243 3.731155
v -1.959653 3.373243 -3.731155
v -1.959652 3.161832 3.731155
v 1.959652 3.373243 -3.731155
v 1.935646 3.345666 3.738495
v 1.959652 -3.373243 -3.731155
v 1.959653 -3.317814 3.731155
v -2.229851 -3.373243 0.000000
v 2.229851 -3.373243 0.000000
v 2.229851 3.183976 0.000000
v -2.229851 3.373243 0.000000
v 1.635224 3.373243 0.000000
v -1.635224 3.373243 0.000000
v -1.437078 3.373243 3.216721
v 1.437078 3.373243 3.216721
v -1.437078 3.373243 -3.216721
v 1.437078 3.373243 -3.216721
v 1.635224 4.039543 0.000000
v -1.635224 4.039543 0.000000
v -1.437078 4.039543 3.216721
v 1.261999 4.005515 3.223083
v -1.437078 4.039543 -3.216721
v 1.437078 4.039543 -3.216721
v 1.635224 4.283372 0.000000
v -1.635224 4.283372 0.000000
v -1.146383 4.283372 1.726746
v 1.146383 4.283372 1.726746
v -1.146383 4.283372 -1.726746
v 1.146383 4.283372 -1.726746
v 1.635224 6.618436 0.000000
v -1.635224 6.618436 0.000000
v -1.239535 6.487110 1.548279
v 1.146383 6.618436 1.726746
v -1.146383 6.618436 -1.726746
v 1.135905 6.455620 -1.674438
v -0.839063 4.854999 2.436493
v 0.839063 4.854999 2.436493
v 0.839063 6.046810 2.436493
v -0.839063 6.046810 2.436493
v 1.170781 6.595314 0.000000
v -1.170781 6.595314 0.000000
v -0.887477 6.501288 1.108536
v 0.820782 6.595314 1.236313
v -0.820782 6.595314 -1.236313
v 0.813280 6.478742 -1.198853
v 0.970300 5.061845 0.000000
v -0.970300 5.061845 0.000000
v -0.735508 4.983920 0.918716
v 0.680234 5.061845 1.024612
v -0.680234 5.061845 -1.024612
v 0.674017 4.965234 -0.993561
v 0.441194 5.212399 0.000000
v -0.441194 5.212399 0.000000
v -0.334435 5.176967 0.417740
v 0.309302 5.212399 0.465897
v -0.309302 5.212399 -0.465897
v 0.306475 5.168469 -0.451767
v 0.441194 6.135083 0.000000
v -0.441194 6.135083 0.000000
v -0.334435 6.386709 0.417740
v 0.309302 6.422142 0.465897
v -0.309302 6.422142 -0.465897
v 0.306475 6.378212 -0.451767
v 0.391031 7.182898 0.000000
v -0.391031 7.182898 0.000000
v -0.296410 6.900457 0.370239
v 0.274134 6.931861 0.412918
v -0.274134 6.931861 -0.412918
v 0.271629 6.892927 -0.400406
vt 0.090710 0.253144
vt 0.090710 0.253144
vt 0.090710 0.253144
vt 0.090710 0.253144
vt 0.090710 0.253144
vt 0.090710 0.253144
vt 0.090710 0.253144
vt 0.090710 0.253144
vt 0.090710 0.253144
vt 0.090710 0.253144
vt 0.090710 0.253144
vt 0.090710 0.253144
vt 0.649132 0.432895
vt 0.649132 0.377554
vt 0.674873 0.377554
vt 0.674873 0.432895
vt 0.586285 0.489543
vt 0.586285 0.443364
vt 0.598198 0.450266
vt 0.598198 0.482641
vt 0.685309 0.461287
vt 0.633826 0.461287
vt 0.633826 0.433616
vt 0.685309 0.433616
vt 0.543583 0.440525
vt 0.543583 0.377554
vt 0.569324 0.381369
vt 0.569324 0.436710
vt 0.581312 0.496588
vt 0.581312 0.441247
vt 0.632795 0.441247
vt 0.632795 0.496588
vt 0.528798 0.441247
vt 0.580281 0.441247
vt 0.580281 0.496588
vt 0.528798 0.496588
vt 0.517841 0.381369
vt 0.517841 0.436710
vt 0.633826 0.488958
vt 0.685309 0.488958
vt 0.574372 0.450266
vt 0.574372 0.482641
vt 0.623391 0.377554
vt 0.623391 0.432895
vt 0.596374 0.377554
vt 0.622115 0.381369
vt 0.618566 0.388748
vt 0.596374 0.385950
vt 0.622115 0.436710
vt 0.618566 0.429331
vt 0.596374 0.440526
vt 0.596374 0.432129
vt 0.570633 0.381369
vt 0.574182 0.388748
vt 0.570633 0.436710
vt 0.574182 0.429331
vt 0.522682 0.465102
vt 0.522682 0.441247
vt 0.527767 0.441247
vt 0.527767 0.465102
vt 0.604192 0.483947
vt 0.604192 0.443364
vt 0.609277 0.443364
vt 0.609277 0.483947
vt 0.528960 0.435733
vt 0.528960 0.459589
vt 0.523875 0.459589
vt 0.523875 0.435733
vt 0.522682 0.488958
vt 0.527767 0.488958
vt 0.528960 0.483444
vt 0.523875 0.483444
vt 0.610418 0.483947
vt 0.610418 0.443364
vt 0.615503 0.443364
vt 0.615503 0.483947
vt 0.530134 0.467219
vt 0.532737 0.443364
vt 0.536555 0.454413
vt 0.530134 0.467219
vt 0.570491 0.443364
vt 0.566672 0.454413
vt 0.573093 0.467219
vt 0.573093 0.467219
vt 0.532737 0.491075
vt 0.536555 0.480025
vt 0.570491 0.491075
vt 0.566672 0.480025
vt 0.641876 0.453802
vt 0.641876 0.440997
vt 0.659695 0.440997
vt 0.659695 0.453802
vt 0.679889 0.459428
vt 0.679889 0.435733
vt 0.688984 0.435733
vt 0.688984 0.459428
vt 0.678701 0.440997
vt 0.678701 0.453802
vt 0.660883 0.453802
vt 0.660883 0.440997
vt 0.641876 0.466608
vt 0.659695 0.466608
vt 0.678701 0.466608
vt 0.660883 0.466608
vt 0.616644 0.475738
vt 0.616644 0.443364
vt 0.634463 0.443364
vt 0.634463 0.475738
vt 0.635650 0.475738
vt 0.635650 0.443364
vt 0.640547 0.447703
vt 0.640547 0.471399
vt 0.665245 0.435733
vt 0.674339 0.435733
vt 0.603094 0.454606
vt 0.603094 0.478301
vt 0.646239 0.435733
vt 0.655333 0.435733
vt 0.586285 0.443364
vt 0.598198 0.450266
vt 0.598198 0.482641
vt 0.586285 0.489543
vt 0.574372 0.450266
vt 0.574372 0.482641
vt 0.586285 0.443364
vt 0.598198 0.450266
vt 0.598198 0.482641
vt 0.586285 0.489543
vt 0.574372 0.450266
vt 0.574372 0.482641
vt 0.586285 0.443364
vt 0.598198 0.450266
vt 0.598198 0.482641
vt 0.586285 0.489543
vt 0.574372 0.450266
vt 0.574372 0.482641
vt 0.080887 0.228713
vt 0.080887 0.228713
vt 0.080887 0.228713
vt 0.080887 0.228713
vt 0.080887 0.228713
vt 0.080887 0.228713
vt 0.005295 0.281196
vt 0.005295 0.281196
vt 0.005295 0.281196
vt 0.005295 0.281196
vt 0.005295 0.281196
vt 0.005295 0.281196
vt 0.005295 0.281196
vt 0.005295 0.281196
vt 0.005295 0.281196
vt 0.005295 0.281196
vt 0.005295 0.281196
vt 0.005295 0.281196
vt 0.080887 0.228713
vt 0.080887 0.228713
vt 0.080887 0.228713
vt 0.080887 0.228713
vt 0.080887 0.228713
vt 0.080887 0.228713
vn 0.000000 -1.000000 0.000000
vn 0.000000 -1.000000 0.000000
vn 0.000000 -1.000000 0.000000
vn 0.000000 -1.000000 0.000000
vn 0.000000 1.000000 0.000000
vn 0.000000 1.000000 0.000000
vn 0.000000 1.000000 0.000000
vn 0.000000 1.000000 0.000000
vn -0.027372 0.473643 0.880292
vn -0.027372 0.473643 0.880292
vn -0.027372 0.473643 0.880292
vn -0.027372 0.473643 0.880292
vn -0.055454 -0.445744 0.893441
vn -0.055454 -0.445744 0.893441
vn -0.055454 -0.445744 0.893441
vn -0.055454 -0.445744 0.893441
vn -0.999831 -0.015943 -0.009205
vn -0.999954 0.000086 -0.009573
vn -0.999954 -0.000552 -0.009558
vn -0.999831 -0.015943 -0.009205
vn 1.000000 0.000000 0.000000
vn 1.000000 0.000000 0.000000
vn 1.000000 -0.000000 0.000000
vn 1.000000 -0.000000 0.000000
vn -0.999954 -0.000552 -0.009558
vn -0.999954 0.000086 -0.009573
vn -0.999801 0.017258 -0.009964
vn -0.999801 0.017258 -0.009964
vn 1.000000 0.000000 0.000000
vn 1.000000 0.000000 0.000000
vn 1.000000 0.000000 0.000000
vn 1.000000 0.000000 0.000000
vn -0.999999 0.000000 -0.001496
vn -1.000000 0.000000 0.000755
vn -0.997388 0.000000 0.072228
vn -0.997388 0.000000 0.072228
vn -0.004166 0.999991 0.001041
vn -0.004718 0.999936 0.010306
vn -0.036916 0.826395 0.561879
vn -0.036916 0.826395 0.561880
vn 0.999999 0.000880 0.000999
vn 0.999999 0.000883 0.001179
vn 0.997160 0.001769 0.075293
vn 0.997160 0.001769 0.075293
vn -0.005555 -0.999965 -0.006237
vn -0.005554 -0.999965 -0.006237
vn 0.006615 -0.999951 0.007427
vn 0.006615 -0.999951 0.007427
vn -0.000922 -0.000558 0.999999
vn -0.000922 -0.000558 0.999999
vn -0.000922 -0.000558 0.999999
vn -0.000922 -0.000558 0.999999
vn 0.000000 0.000000 -1.000000
vn 0.000000 0.000000 -1.000000
vn 0.000000 0.000000 -1.000000
vn 0.000000 0.000000 -1.000000
vn -0.017718 -0.999645 -0.019895
vn -0.005554 -0.999965 -0.006237
vn -0.005555 -0.999965 -0.006237
vn -0.017718 -0.999645 -0.019895
vn 0.997388 0.000000 -0.072228
vn 0.999999 0.000883 0.001179
vn 0.999999 0.000880 0.000999
vn 0.997388 0.000000 -0.072228
vn 0.029620 0.832214 -0.553664
vn -0.004718 0.999936 0.010306
vn -0.004166 0.999991 0.001041
vn 0.029620 0.832213 -0.553664
vn -0.997388 0.000000 -0.072228
vn -1.000000 0.000000 0.000755
vn -0.999999 0.000000 -0.001496
vn -0.997388 0.000000 -0.072228
vn -0.084653 0.996192 0.020863
vn -0.105243 0.986718 0.123741
vn -0.100866 0.986443 0.129444
vn -0.084650 0.996192 0.020862
vn -0.105243 0.986718 0.123741
vn 0.095585 0.990354 0.100312
vn 0.092837 0.990323 0.103161
vn -0.100866 0.986443 0.129444
vn 0.095585 0.990354 0.100312
vn 0.186100 0.982525 0.003286
vn 0.186115 0.982523 0.003271
vn 0.092837 0.990323 0.103161
vn 0.000000 1.000000 -0.000000
vn -0.084653 0.996192 0.020863
vn -0.084650 0.996192 0.020862
vn 0.000000 1.000000 -0.000000
vn 0.186100 0.982525 0.003286
vn 0.098461 0.995104 0.008561
vn 0.092345 0.995695 0.008029
vn 0.186115 0.982523 0.003271
vn 0.098461 0.995104 0.008561
vn 0.000000 1.000000 -0.000000
vn 0.000000 1.000000 -0.000000
vn 0.092345 0.995695 0.008029
vn -0.998108 0.000000 0.061482
vn -0.998108 0.000000 0.061482
vn -0.998108 0.000000 0.061482
vn -0.998108 0.000000 0.061482
vn -0.001173 -0.005058 0.999987
vn -0.001173 -0.005058 0.999987
vn -0.001173 -0.005058 0.999987
vn -0.001173 -0.005058 0.999987
vn 0.987220 0.132669 0.088292
vn 0.987220 0.132669 0.088292
vn 0.987220 0.132669 0.088292
vn 0.987220 0.132669 0.088292
vn -0.998108 0.000000 -0.061482
vn -0.998108 0.000000 -0.061482
vn -0.998108 0.000000 -0.061482
vn -0.998108 0.000000 -0.061482
vn 0.998108 0.000000 -0.061482
vn 0.998108 0.000000 -0.061482
vn 0.998108 0.000000 -0.061482
vn 0.998108 0.000000 -0.061482
vn 0.000000 0.000000 -1.000000
vn 0.000000 0.000000 -1.000000
vn 0.000000 0.000000 -1.000000
vn 0.000000 0.000000 -1.000000
vn -0.696539 0.710960 0.096797
vn -0.696539 0.710960 0.096797
vn -0.696539 0.710960 0.096797
vn -0.696539 0.710960 0.096797
vn 0.006495 0.984996 0.172453
vn 0.006495 0.984996 0.172453
vn 0.006495 0.984996 0.172453
vn 0.006495 0.984996 0.172453
vn 0.797244 0.586505 0.142880
vn 0.797244 0.586505 0.142880
vn 0.797244 0.586505 0.142880
vn 0.797244 0.586505 0.142880
vn -0.696539 0.710960 -0.096797
vn -0.696539 0.710960 -0.096797
vn -0.696539 0.710960 -0.096797
vn -0.696539 0.710960 -0.096797
vn 0.696539 0.710960 -0.096797
vn 0.696539 0.710960 -0.096797
vn 0.696539 0.710960 -0.096797
vn 0.696539 0.710960 -0.096797
vn 0.000000 0.986873 -0.161499
vn 0.000000 0.986873 -0.161499
vn 0.000000 0.986873 -0.161499
vn 0.000000 0.986873 -0.161499
vn -0.965461 -0.009577 0.260371
vn -0.965461 -0.009577 0.260371
vn -0.965461 -0.009577 0.260371
vn -0.965461 -0.009577 0.260371
vn 0.000000 0.000000 1.000000
vn 0.000000 0.000000 1.000000
vn 0.000000 0.000000 1.000000
vn 0.000000 0.000000 1.000000
vn 0.962186 0.000000 0.272395
vn 0.962186 0.000000 0.272395
vn 0.962186 0.000000 0.272395
vn 0.962186 0.000000 0.272395
vn -0.962186 0.000000 -0.272395
vn -0.962186 0.000000 -0.272395
vn -0.962186 0.000000 -0.272395
vn -0.962186 0.000000 -0.272395
vn 0.960207 0.005473 -0.279235
vn 0.960207 0.005473 -0.279235
vn 0.960207 0.005473 -0.279235
vn 0.960207 0.005473 -0.279235
vn 0.011846 0.011631 -0.999862
vn 0.011846 0.011631 -0.999862
vn 0.011846 0.011631 -0.999862
vn 0.011846 0.011631 -0.999862
vn 0.000000 -0.778815 0.627254
vn 0.000000 -0.778815 0.627254
vn 0.000000 -0.778815 0.627254
vn 0.000000 -0.778815 0.627254
vn 0.917668 0.000000 0.397349
vn 0.917668 0.000000 0.397349
vn 0.917668 0.000000 0.397349
vn 0.917668 0.000000 0.397349
vn -0.050778 0.842416 0.536429
vn -0.050778 0.842416 0.536429
vn -0.050778 0.842416 0.536429
vn -0.050778 0.842416 0.536429
vn -0.914202 -0.003781 0.405242
vn -0.914202 -0.003781 0.405241
vn -0.914202 -0.003781 0.405242
vn -0.914202 -0.003781 0.405242
vn 0.049594 0.996184 0.071823
vn 0.049594 0.996184 0.071823
vn 0.049594 0.996184 0.071823
vn 0.049594 0.996184 0.071823
vn -0.054125 0.998472 -0.011140
vn -0.054125 0.998472 -0.011140
vn -0.054125 0.998472 -0.011140
vn -0.054125 0.998472 -0.011140
vn -0.049718 0.998664 -0.014075
vn -0.049718 0.998664 -0.014075
vn -0.049718 0.998664 -0.014075
vn -0.049718 0.998664 -0.014075
vn 0.049718 0.998664 0.014075
vn 0.049718 0.998664 0.014075
vn 0.049718 0.998664 0.014075
vn 0.049718 0.998664 0.014075
vn -0.049555 0.995399 -0.082012
vn -0.049555 0.995399 -0.082012
vn -0.049555 0.995399 -0.082012
vn -0.049555 0.995399 -0.082012
vn 0.071163 0.997465 -0.000219
vn 0.071163 0.997465 -0.000219
vn 0.071163 0.997465 -0.000219
vn 0.071163 0.997465 -0.000219
vn 0.963652 0.125985 -0.235590
vn 0.963652 0.125985 -0.235590
vn 0.963652 0.125985 -0.235590
vn 0.963652 0.125985 -0.235590
vn 0.066812 0.130439 -0.989203
vn 0.066812 0.130439 -0.989203
vn 0.066812 0.130439 -0.989203
vn 0.066812 0.130439 -0.989203
vn -0.954662 0.124810 -0.270264
vn -0.954662 0.124810 -0.270264
vn -0.954662 0.124810 -0.270264
vn -0.954662 0.124810 -0.270264
vn 0.954662 0.124810 0.270264
vn 0.954662 0.124810 0.270264
vn 0.954662 0.124810 0.270264
vn 0.954662 0.124810 0.270264
vn -0.954071 0.124733 0.272378
vn -0.954071 0.124733 0.272378
vn -0.954071 0.124733 0.272378
vn -0.954071 0.124733 0.272378
vn -0.013041 0.135574 0.990681
vn -0.013041 0.135574 0.990682
vn -0.013041 0.135574 0.990682
vn -0.013041 0.135574 0.990681
vn -0.270592 0.950966 0.149814
vn -0.270592 0.950966 0.149814
vn -0.270592 0.950966 0.149814
vn -0.270592 0.950966 0.149814
vn -0.075107 0.949183 0.305632
vn -0.075107 0.949183 0.305632
vn -0.075107 0.949183 0.305632
vn -0.075107 0.949183 0.305632
vn 0.272863 0.958947 0.077247
vn 0.272863 0.958947 0.077247
vn 0.272863 0.958947 0.077247
vn 0.272863 0.958947 0.077247
vn -0.272863 0.958947 -0.077247
vn -0.272863 0.958947 -0.077247
vn -0.272863 0.958947 -0.077247
vn -0.272863 0.958947 -0.077247
vn 0.269575 0.947401 -0.172512
vn 0.269575 0.947401 -0.172512
vn 0.269575 0.947401 -0.172512
vn 0.269575 0.947401 -0.172512
vn 0.074726 0.949286 -0.305404
vn 0.074726 0.949286 -0.305404
vn 0.074726 0.949286 -0.305404
vn 0.074726 0.949286 -0.305404
vn -0.968861 0.000000 0.247607
vn -0.968861 0.000000 0.247607
vn -0.968861 0.000000 0.247607
vn -0.968861 0.000000 0.247607
vn -0.074600 0.000000 0.997214
vn -0.074600 0.000000 0.997214
vn -0.074600 0.000000 0.997214
vn -0.074600 0.000000 0.997214
vn 0.962187 0.000000 0.272390
vn 0.962187 0.000000 0.272390
vn 0.962187 0.000000 0.272390
vn 0.962187 0.000000 0.272390
vn -0.962187 0.000000 -0.272390
vn -0.962187 0.000000 -0.272390
vn -0.962187 0.000000 -0.272390
vn -0.962187 0.000000 -0.272390
vn 0.958298 0.000000 -0.285771
vn 0.958298 0.000000 -0.285771
vn 0.958298 0.000000 -0.285771
vn 0.958298 0.000000 -0.285771
vn 0.022940 0.000000 -0.999737
vn 0.022940 0.000000 -0.999737
vn 0.022940 0.000000 -0.999737
vn 0.022940 0.000000 -0.999737
vn -0.966401 0.062163 0.249411
vn -0.966401 0.062163 0.249411
vn -0.966401 0.062163 0.249411
vn -0.966401 0.062163 0.249410
vn -0.079583 0.097616 0.992037
vn -0.079583 0.097616 0.992037
vn -0.079583 0.097616 0.992037
vn -0.079583 0.097616 0.992037
vn 0.961008 0.061817 0.269524
vn 0.961008 0.061817 0.269524
vn 0.961007 0.061817 0.269524
vn 0.961008 0.061817 0.269524
vn -0.961008 0.061817 -0.269524
vn -0.961008 0.061817 -0.269524
vn -0.961007 0.061817 -0.269524
vn -0.961008 0.061817 -0.269524
vn 0.955556 0.061464 -0.288330
vn 0.955556 0.061464 -0.288330
vn 0.955556 0.061464 -0.288330
vn 0.955556 0.061464 -0.288330
vn 0.030033 0.101272 -0.994405
vn 0.030033 0.101272 -0.994405
vn 0.030033 0.101272 -0.994405
vn 0.030033 0.101272 -0.994405
s off
f 1/1/1 2/2/2 8/3/3 7/4/4
f 4/5/5 5/6/6 11/7/7 10/8/8
f 5/6/9 6/9/10 12/10/11 11/7/12
f 6/9/13 1/1/14 7/4/15 12/10/16
f 1/1/17 6/9/18 3/11/19 2/2/20
f 12/10/21 9/12/22 10/8/23 11/7/24
f 3/11/25 6/9/26 5/6/27 4/5/28
f 7/4/29 8/3/30 9/12/31 12/10/32
f 24/13/33 21/14/34 14/15/35 16/16/36
f 77/137/37 78/138/38 79/139/39 80/140/40
f 22/21/41 23/22/42 18/23/43 20/24/44
f 21/25/45 22/26/46 20/27/47 14/28/48
f 14/29/49 20/30/50 18/31/51 16/32/52
f 19/33/53 13/34/54 15/35/55 17/36/56
f 19/37/57 22/26/58 21/25/59 13/38/60
f 17/39/61 23/22/62 22/21/63 19/40/64
f 81/141/65 78/138/66 77/137/67 82/142/68
f 13/43/69 21/14/70 24/13/71 15/44/72
f 24/45/73 16/46/74 27/47/75 26/48/76
f 16/46/77 18/49/78 28/50/79 27/47/80
f 18/49/81 23/51/82 25/52/83 28/50/84
f 15/53/85 24/45/86 26/48/87 29/54/88
f 23/51/89 17/55/90 30/56/91 25/52/92
f 17/55/93 15/53/94 29/54/95 30/56/96
f 26/57/97 27/58/98 33/59/99 32/60/100
f 27/61/101 28/62/102 34/63/103 33/64/104
f 28/65/105 25/66/106 31/67/107 34/68/108
f 29/69/109 26/57/110 32/60/111 35/70/112
f 25/66/113 30/71/114 36/72/115 31/67/116
f 30/73/117 29/74/118 35/75/119 36/76/120
f 32/77/121 33/78/122 39/79/123 38/80/124
f 33/78/125 34/81/126 40/82/127 39/79/128
f 34/81/129 31/83/130 37/84/131 40/82/132
f 35/85/133 32/77/134 38/80/135 41/86/136
f 31/83/137 36/87/138 42/88/139 37/84/140
f 36/87/141 35/85/142 41/86/143 42/88/144
f 38/89/145 39/90/146 45/91/147 44/92/148
f 49/93/149 50/94/150 51/95/151 52/96/152
f 40/97/153 37/98/154 43/99/155 46/100/156
f 41/101/157 38/89/158 44/92/159 47/102/160
f 37/98/161 42/103/162 48/104/163 43/99/164
f 42/105/165 41/106/166 47/107/167 48/108/168
f 39/109/169 40/110/170 50/111/171 49/112/172
f 40/97/173 46/100/174 51/113/175 50/114/176
f 46/20/177 45/19/178 52/115/179 51/116/180
f 45/91/181 39/90/182 49/117/183 52/118/184
f 44/18/185 45/19/186 55/120/187 54/119/188
f 45/19/189 46/20/190 56/121/191 55/120/192
f 46/20/193 43/17/194 53/122/195 56/121/196
f 47/41/197 44/18/198 54/119/199 57/123/200
f 43/17/201 48/42/202 58/124/203 53/122/204
f 48/42/205 47/41/206 57/123/207 58/124/208
f 54/119/209 55/120/210 61/126/211 60/125/212
f 55/120/213 56/121/214 62/127/215 61/126/216
f 56/121/217 53/122/218 59/128/219 62/127/220
f 57/123/221 54/119/222 60/125/223 63/129/224
f 53/122/225 58/124/226 64/130/227 59/128/228
f 58/124/229 57/123/230 63/129/231 64/130/232
f 60/125/233 61/126/234 67/132/235 66/131/236
f 61/126/237 62/127/238 68/133/239 67/132/240
f 62/127/241 59/128/242 65/134/243 68/133/244
f 63/129/245 60/125/246 66/131/247 69/135/248
f 59/128/249 64/130/250 70/136/251 65/134/252
f 64/130/253 63/129/254 69/135/255 70/136/256
f 66/143/257 67/144/258 73/145/259 72/146/260
f 67/144/261 68/147/262 74/148/263 73/145/264
f 68/147/265 65/149/266 71/150/267 74/148/268
f 69/151/269 66/143/270 72/146/271 75/152/272
f 65/149/273 70/153/274 76/154/275 71/150/276
f 70/153/277 69/151/278 75/152/279 76/154/280
f 72/155/281 73/156/282 79/139/283 78/138/284
f 73/156/285 74/157/286 80/140/287 79/139/288
f 74/157/289 71/158/290 77/137/291 80/140/292
f 75/159/293 72/155/294 78/138/295 81/141/296
f 71/158/297 76/160/298 82/142/299 77/137/300
f 76/160/301 75/159/302 81/141/303 82/142/304
v -1.950881 0.889387 -6.339260
v -1.959653 6.012239 -11.645468
v -1.959653 3.373243 -3.731157
v -1.959653 8.649896 -9.007811
v 1.959653 3.373243 -3.731157
v 1.959653 8.659737 -8.997969
v 1.959653 0.735586 -6.368814
v 2.106246 5.870840 -11.525715
v -2.229851 3.039019 -9.342033
v 2.170342 3.039019 -9.342034
v 2.229851 6.011569 -6.369484
v -2.229851 5.990132 -6.390921
v 1.635225 6.011569 -6.369484
v -1.635225 6.011569 -6.369484
v -1.437079 8.286133 -8.644049
v 1.437079 8.286133 -8.644048
v -1.437079 3.737005 -4.094920
v 1.437079 3.737005 -4.094920
v 1.635225 3.236186 -9.144867
v -1.635225 3.236186 -9.144867
v -1.437079 5.816412 -11.113770
v 1.437079 5.816412 -11.113769
v -1.437079 1.267283 -6.564641
v 1.437079 1.267283 -6.564641
vt 0.647509 0.496627
vt 0.614883 0.496627
vt 0.614883 0.441225
vt 0.647509 0.441225
vt 0.613851 0.496627
vt 0.581226 0.496627
vt 0.581226 0.441225
vt 0.613851 0.441225
vt 0.594689 0.443311
vt 0.625238 0.443311
vt 0.625238 0.483939
vt 0.594689 0.483939
vt 0.626475 0.443311
vt 0.657024 0.443311
vt 0.657024 0.483939
vt 0.626475 0.483939
vt 0.530955 0.465107
vt 0.533939 0.441225
vt 0.577211 0.441225
vt 0.580194 0.465107
vt 0.577211 0.488988
vt 0.533939 0.488988
vt 0.547345 0.377554
vt 0.576849 0.381373
vt 0.576849 0.436775
vt 0.547345 0.440595
vt 0.517842 0.436775
vt 0.517842 0.381373
vt 0.607673 0.440595
vt 0.607673 0.432189
vt 0.633109 0.429388
vt 0.637177 0.436775
vt 0.578169 0.436775
vt 0.582237 0.429388
vt 0.633109 0.388760
vt 0.637177 0.381373
vt 0.578169 0.381373
vt 0.582237 0.388760
vt 0.607673 0.385959
vt 0.607673 0.377554
vt 0.638465 0.405255
vt 0.638465 0.377554
vt 0.671090 0.377554
vt 0.675233 0.405255
vt 0.671090 0.432956
vt 0.638465 0.432956
vt 0.648540 0.461287
vt 0.652683 0.433586
vt 0.685309 0.433586
vt 0.685309 0.461287
vt 0.685309 0.488988
vt 0.652683 0.488988
vt 0.558205 0.459554
vt 0.523875 0.459554
vt 0.527656 0.435673
vt 0.558205 0.435673
vt 0.558205 0.483436
vt 0.527656 0.483436
vt 0.559298 0.443311
vt 0.589847 0.443311
vt 0.593628 0.467193
vt 0.559298 0.467193
vt 0.589847 0.491075
vt 0.559298 0.491075
vn -1.000000 -0.000709 -0.000664
vn -0.997388 0.051073 -0.051073
vn -0.997388 0.051073 -0.051073
vn -0.999999 -0.000013 -0.001342
vn 0.000000 0.707107 0.707107
vn 0.000000 0.606631 0.794984
vn 0.000000 0.606631 0.794984
vn 0.000000 0.707107 0.707107
vn 0.999944 -0.006658 0.008191
vn 0.998927 0.038975 -0.025010
vn 0.998927 0.038975 -0.025010
vn 0.999946 -0.006558 0.008118
vn -0.008042 -0.713068 -0.701048
vn 0.000977 -0.611589 -0.791175
vn 0.000977 -0.611588 -0.791175
vn -0.007941 -0.711995 -0.702140
vn 0.023108 0.689606 -0.723816
vn 0.023108 0.689607 -0.723816
vn 0.023108 0.689607 -0.723816
vn 0.023108 0.689606 -0.723816
vn -0.011418 -0.715493 0.698527
vn -0.011418 -0.715493 0.698527
vn -0.011418 -0.715493 0.698527
vn -0.011418 -0.715493 0.698527
vn -0.016963 -0.801837 -0.597302
vn -0.016963 -0.801837 -0.597302
vn -0.008042 -0.713068 -0.701048
vn -0.007941 -0.711995 -0.702140
vn 0.997872 -0.051099 0.040514
vn 0.997872 -0.051099 0.040514
vn 0.999944 -0.006658 0.008191
vn 0.999946 -0.006558 0.008118
vn 0.000000 0.794984 0.606631
vn 0.000000 0.794984 0.606631
vn 0.000000 0.707107 0.707107
vn 0.000000 0.707107 0.707107
vn -0.997224 -0.054021 0.051240
vn -0.997224 -0.054021 0.051240
vn -1.000000 -0.000709 -0.000664
vn -0.999999 -0.000013 -0.001342
vn -0.028256 0.706825 0.706824
vn -0.028256 0.706825 0.706824
vn -0.015825 0.701546 0.712448
vn -0.016738 0.701811 0.712167
vn -0.016738 0.701811 0.712167
vn -0.015825 0.701546 0.712448
vn -0.006851 0.701506 0.712631
vn -0.007169 0.701771 0.712366
vn -0.007169 0.701771 0.712366
vn -0.006851 0.701506 0.712631
vn -0.005594 0.706120 0.708070
vn -0.005594 0.706120 0.708070
vn -0.015838 0.707992 0.706043
vn -0.014854 0.707942 0.706115
vn -0.028256 0.706825 0.706824
vn -0.028256 0.706825 0.706824
vn -0.005594 0.706120 0.708070
vn -0.005594 0.706120 0.708070
vn 0.000000 0.707107 0.707107
vn 0.000000 0.707107 0.707107
vn 0.000000 0.707107 0.707107
vn 0.000000 0.707107 0.707107
vn -0.014854 0.707942 0.706115
vn -0.015838 0.707992 0.706043
vn 0.998108 -0.043474 0.043474
vn 0.998108 -0.043474 0.043474
vn 0.998108 -0.043474 0.043474
vn 0.998108 -0.043474 0.043474
vn -0.000000 -0.707107 0.707107
vn -0.000000 -0.707107 0.707107
vn -0.000000 -0.707107 0.707107
vn -0.000000 -0.707107 0.707107
vn -0.998108 -0.043474 0.043474
vn -0.998108 -0.043474 0.043474
vn -0.998108 -0.043474 0.043474
vn -0.998108 -0.043474 0.043474
vn 0.998108 0.043474 -0.043474
vn 0.998108 0.043474 -0.043474
vn 0.998108 0.043474 -0.043474
vn 0.998108 0.043474 -0.043474
vn -0.998108 0.043474 -0.043474
vn -0.998108 0.043474 -0.043474
vn -0.998108 0.043474 -0.043474
vn -0.998108 0.043474 -0.043474
vn 0.000000 0.707107 -0.707107
vn 0.000000 0.707107 -0.707107
vn 0.000000 0.707107 -0.707107
vn 0.000000 0.707107 -0.707107
s off
f 94/201/305 86/202/306 84/203/307 91/204/308
f 101/177/309 104/178/310 103/179/311 102/180/312
f 92/207/313 90/208/314 88/209/315 93/210/316
f 91/183/317 84/184/318 90/185/319 92/186/320
f 84/161/321 86/162/322 88/163/323 90/164/324
f 89/165/325 87/166/326 85/167/327 83/168/328
f 89/187/329 83/188/330 91/183/331 92/186/332
f 87/211/333 89/212/334 92/207/335 93/210/336
f 105/181/337 106/182/338 101/177/339 102/180/340
f 83/205/341 85/206/342 94/201/343 91/204/344
f 94/189/345 96/190/346 97/191/347 86/192/348
f 86/192/349 97/191/350 98/195/351 88/196/352
f 88/196/353 98/195/354 95/199/355 93/200/356
f 85/193/357 99/194/358 96/190/359 94/189/360
f 93/200/361 95/199/362 100/198/363 87/197/364
f 87/197/365 100/198/366 99/194/367 85/193/368
f 96/213/369 102/214/370 103/215/371 97/216/372
f 97/169/373 103/170/374 104/171/375 98/172/376
f 98/219/377 104/220/378 101/221/379 95/222/380
f 99/217/381 105/218/382 102/214/383 96/213/384
f 95/222/385 101/221/386 106/223/387 100/224/388
f 100/173/389 106/174/390 105/175/391 99/176/392
