# This file uses centimeters as units for non-parametric coordinates.

v 5.684691 0.000000 -4.458676
v -5.488304 0.000000 -4.458676
v -6.498274 0.000000 0.000000
v -5.488304 0.000000 4.458676
v 5.684644 0.000000 4.458676
v 6.557883 0.000000 0.000000
v 1.574590 39.806980 -2.661659
v -1.566753 39.806980 -2.661659
v -3.137445 39.806980 0.000007
v -1.566753 39.806980 2.661627
v 1.574590 39.806980 2.661627
v 3.145197 39.806980 0.000007
v 0.015949 0.000000 0.000000
v 0.003962 39.806980 0.000004
v -1.755747 29.956980 2.981929
v 1.763626 29.956980 2.981929
v 3.523256 29.956980 0.000001
v 1.763626 29.956980 -2.981961
v -1.755715 29.956980 -2.981961
v -3.515377 29.956980 0.000001
v -6.533560 26.829775 6.111635
v 6.588422 26.829775 6.111635
v 7.785352 26.829775 0.000000
v 6.588422 26.829775 -6.111667
v -6.533560 26.829775 -6.111667
v -7.917865 26.829775 0.000000
v -6.533560 1.832867 6.111635
v 6.588422 1.832867 6.111635
v 7.785352 1.832867 0.000000
v 6.588422 1.832867 -6.111667
v -6.533560 1.832867 -6.111667
v -7.917865 1.832868 0.000000
v -1.273175 37.089386 -2.164202
v 1.281021 37.089386 -2.164202
v 2.558127 37.089386 0.000001
v 1.281021 37.089386 2.164170
v -1.273223 37.089386 2.164170
v -2.550281 37.089386 0.000001
v 1.708674 37.387955 -2.888903
v 3.413420 37.387955 0.000003
v 1.708674 37.387955 2.888872
v -1.700798 37.387955 2.888872
v -3.405525 37.387955 0.000003
v -1.700798 37.387955 -2.888903
v 6.588422 24.959150 -6.111667
v 6.588422 24.959150 6.111635
v -6.533560 24.959150 6.111635
v -6.533560 24.959150 -6.111667
v -6.533560 5.060846 6.111635
v 6.588422 5.060846 6.111635
v 6.588422 5.060846 -6.111667
v -6.533560 5.060846 -6.111667
v -7.225737 24.959150 3.055817
v -7.225737 5.060846 3.055817
v -7.225737 5.060846 -3.055849
v -7.225737 24.959150 -3.055849
v 7.186887 24.959150 3.055817
v 7.186887 5.060846 3.055817
v 7.186887 5.060846 -3.055849
v 7.186887 24.959150 -3.055849
v -5.414776 17.208986 6.111635
v 5.446641 17.208986 6.111635
v 5.446641 21.815092 6.111635
v -5.414776 21.815092 6.111635
v 5.697189 28.289194 5.532792
v -5.645954 28.289194 5.532792
v -7.209148 28.289194 0.000001
v -5.645938 28.289194 -5.532824
v 5.697189 28.289194 -5.532824
v 7.111634 28.289194 0.000001
v -1.548444 33.020695 -2.630694
v -3.100803 33.020695 0.000001
v -1.548476 33.020695 2.630661
v 1.556323 33.020695 2.630661
v 3.108698 33.020695 0.000001
v 1.556323 33.020695 -2.630694
v -3.242505 17.208986 6.111635
v 3.274355 17.208986 6.111635
v -3.909176 5.060846 6.111635
v -3.575833 11.134917 6.111635
v 3.619189 11.134917 6.111635
v 0.021670 8.913411 6.111635
vt 0.102218 0.302822
vt 0.102218 0.302822
vt 0.102218 0.302822
vt 0.102218 0.302822
vt 0.102218 0.302822
vt 0.102218 0.302822
vt 0.102218 0.302822
vt 0.102218 0.302822
vt 0.102218 0.302822
vt 0.102218 0.302822
vt 0.102218 0.302822
vt 0.102218 0.302822
vt 0.102218 0.302822
vt 0.131866 0.184761
vt 0.131866 0.184761
vt 0.132431 0.159187
vt 0.132431 0.159187
vt 0.131866 0.184761
vt 0.132431 0.159187
vt 0.131866 0.184761
vt 0.132431 0.159187
vt 0.131866 0.184761
vt 0.132431 0.159187
vt 0.131866 0.184761
vt 0.132431 0.159187
vt 0.132431 0.159187
vt 0.102218 0.302822
vt 0.132431 0.159187
vt 0.102218 0.302822
vt 0.102218 0.302822
vt 0.102218 0.302822
vt 0.102218 0.302822
vt 0.102218 0.302822
vt 0.102218 0.302822
vt 0.102218 0.302822
vt 0.102218 0.302822
vt 0.102218 0.302822
vt 0.102218 0.302822
vt 0.102218 0.302822
vt 0.102218 0.302822
vt 0.102218 0.302822
vt 0.102218 0.302822
vt 0.102218 0.302822
vt 0.102218 0.302822
vt 0.102218 0.302822
vt 0.102218 0.302822
vt 0.102218 0.302822
vt 0.102218 0.302822
vt 0.102218 0.302822
vt 0.132431 0.159187
vt 0.132431 0.159187
vt 0.132431 0.159187
vt 0.132431 0.159187
vt 0.132431 0.159187
vt 0.132431 0.159187
vt 0.132431 0.159187
vt 0.132431 0.159187
vt 0.132431 0.159187
vt 0.132431 0.159187
vt 0.132431 0.159187
vt 0.101883 0.181234
vt 0.102218 0.302822
vt 0.102218 0.302822
vt 0.102218 0.302822
vt 0.102218 0.302822
vt 0.102218 0.302822
vt 0.102218 0.302822
vt 0.102218 0.302822
vt 0.102218 0.302822
vt 0.102218 0.302822
vt 0.102218 0.302822
vt 0.102218 0.302822
vt 0.102218 0.302822
vt 0.102218 0.302822
vt 0.102218 0.302822
vt 0.102218 0.302822
vt 0.102218 0.302822
vt 0.102218 0.302822
vt 0.102218 0.302822
vt 0.131864 0.184761
vt 0.131864 0.184761
vt 0.131864 0.184761
vt 0.131864 0.184761
vt 0.131864 0.184761
vt 0.131864 0.184761
vt 0.131864 0.184761
vt 0.131864 0.184761
vt 0.131864 0.184761
vt 0.131864 0.184761
vt 0.131864 0.184761
vt 0.131864 0.184761
vt 0.131864 0.184761
vt 0.131864 0.184761
vt 0.131864 0.184761
vt 0.131864 0.184761
vt 0.131864 0.184761
vt 0.131864 0.184761
vt 0.131864 0.184761
vt 0.131864 0.184761
vt 0.101883 0.181234
vt 0.101883 0.181234
vt 0.101883 0.181234
vt 0.101883 0.181234
vt 0.102218 0.302822
vt 0.102218 0.302822
vt 0.102218 0.302822
vt 0.102218 0.302822
vt 0.102218 0.302822
vt 0.102218 0.302822
vt 0.102218 0.302822
vt 0.102218 0.302822
vt 0.102218 0.302822
vt 0.102218 0.302822
vt 0.102218 0.302822
vt 0.102218 0.302822
vt 0.102218 0.302822
vt 0.102218 0.302822
vt 0.101883 0.181234
vt 0.131864 0.184761
vt 0.101883 0.181234
vt 0.131864 0.184761
vt 0.102218 0.302822
vt 0.131864 0.184761
vt 0.131864 0.184761
vt 0.131864 0.184761
vt 0.131864 0.184761
vt 0.101883 0.181234
vt 0.101883 0.181234
vt 0.131866 0.184761
vt 0.131866 0.184761
vt 0.131866 0.184761
vt 0.131866 0.184761
vt 0.131866 0.184761
vt 0.131866 0.184761
vn 0.000000 0.113908 -0.993491
vn 0.000000 0.113908 -0.993491
vn 0.000000 0.056696 -0.998392
vn 0.000000 0.056696 -0.998392
vn -0.855443 0.115752 -0.504796
vn -0.855443 0.115752 -0.504796
vn -0.864633 0.056694 -0.499196
vn -0.864633 0.056694 -0.499196
vn -0.855445 0.115751 0.504792
vn -0.855445 0.115751 0.504792
vn -0.864635 0.056694 0.499192
vn -0.864635 0.056694 0.499192
vn 0.000000 0.113908 0.993491
vn 0.000000 0.113908 0.993491
vn 0.000000 0.056696 0.998392
vn 0.000000 0.056696 0.998392
vn 0.855439 0.115757 0.504801
vn 0.855439 0.115757 0.504801
vn 0.864632 0.056697 0.499196
vn 0.864632 0.056697 0.499196
vn 0.855442 0.115757 -0.504796
vn 0.855442 0.115757 -0.504796
vn 0.864635 0.056697 -0.499191
vn 0.864635 0.056697 -0.499191
vn 0.000000 -1.000000 0.000000
vn 0.000000 -1.000000 0.000000
vn 0.000000 -1.000000 0.000000
vn 0.000000 -1.000000 0.000000
vn 0.000000 -1.000000 0.000000
vn 0.000000 -1.000000 0.000000
vn 0.000000 -1.000000 0.000000
vn 0.000000 -1.000000 0.000000
vn 0.000000 -1.000000 0.000000
vn 0.000000 -1.000000 0.000000
vn 0.000000 -1.000000 0.000000
vn 0.000000 -1.000000 0.000000
vn 0.000000 -1.000000 0.000000
vn 0.000000 -1.000000 0.000000
vn 0.000000 -1.000000 0.000000
vn 0.000000 -1.000000 0.000000
vn 0.000000 -1.000000 0.000000
vn 0.000000 -1.000000 0.000000
vn 0.000000 1.000000 0.000000
vn 0.000000 1.000000 0.000000
vn 0.000000 1.000000 0.000000
vn 0.000000 1.000000 0.000000
vn 0.000000 1.000000 0.000000
vn 0.000000 1.000000 0.000000
vn 0.000000 1.000000 0.000000
vn 0.000000 1.000000 0.000000
vn 0.000000 1.000000 0.000000
vn 0.000000 1.000000 0.000000
vn 0.000000 1.000000 0.000000
vn 0.000000 1.000000 0.000000
vn 0.000000 1.000000 0.000002
vn 0.000000 1.000000 0.000002
vn 0.000000 1.000000 0.000002
vn 0.000000 1.000000 -0.000004
vn 0.000000 1.000000 -0.000004
vn 0.000000 1.000000 -0.000004
vn 0.000000 0.595235 0.803552
vn 0.000000 0.595235 0.803552
vn 0.000000 0.514718 0.857360
vn 0.000000 0.515663 0.856792
vn 0.689760 0.671988 0.269561
vn 0.689760 0.671988 0.269561
vn 0.582218 0.796055 0.165281
vn 0.596549 0.785004 0.167027
vn 0.689761 0.671988 -0.269559
vn 0.689761 0.671988 -0.269559
vn 0.596549 0.785004 -0.167026
vn 0.582218 0.796055 -0.165280
vn 0.000000 0.595234 -0.803552
vn 0.000000 0.595234 -0.803552
vn 0.000000 0.515661 -0.856792
vn 0.000000 0.514717 -0.857360
vn -0.689757 0.671992 -0.269560
vn -0.689757 0.671992 -0.269560
vn -0.578192 0.796321 -0.177673
vn -0.585987 0.790323 -0.178906
vn -0.689758 0.671991 0.269560
vn -0.689758 0.671991 0.269560
vn -0.585990 0.790321 0.178907
vn -0.578194 0.796319 0.177673
vn 0.000000 0.000000 1.000000
vn 0.000000 0.000000 1.000000
vn 0.000000 0.000000 1.000000
vn 0.000000 0.000000 1.000000
vn 0.000000 0.000000 1.000000
vn 0.000000 0.000000 1.000000
vn 0.956625 0.000000 0.291323
vn 0.956625 0.000000 0.291323
vn 0.956625 0.000000 0.291323
vn 0.956625 0.000000 0.291323
vn 0.956626 0.000000 -0.291320
vn 0.956626 0.000000 -0.291320
vn 0.956626 0.000000 -0.291320
vn 0.956626 0.000000 -0.291320
vn 0.000000 0.000000 -1.000000
vn 0.000000 0.000000 -1.000000
vn 0.000000 0.000000 -1.000000
vn 0.000000 0.000000 -1.000000
vn -0.956625 0.000000 -0.291323
vn -0.956625 0.000000 -0.291323
vn -0.956625 0.000000 -0.291323
vn -0.956625 0.000000 -0.291323
vn -0.956625 0.000000 0.291323
vn -0.956625 0.000000 0.291323
vn -0.956625 0.000000 0.291323
vn -0.956625 0.000000 0.291323
vn 0.000000 -0.669721 0.742613
vn 0.000000 -0.669721 0.742613
vn 0.000000 -0.669721 0.742613
vn 0.000000 -0.669721 0.742613
vn 0.677719 -0.705762 0.206390
vn 0.677719 -0.705762 0.206390
vn 0.677719 -0.705762 0.206390
vn 0.677719 -0.705762 0.206390
vn 0.677725 -0.705757 -0.206387
vn 0.677725 -0.705757 -0.206387
vn 0.677725 -0.705757 -0.206387
vn 0.677725 -0.705757 -0.206387
vn 0.000000 -0.669728 -0.742607
vn 0.000000 -0.669728 -0.742607
vn 0.000000 -0.669728 -0.742607
vn 0.000000 -0.669728 -0.742607
vn -0.677720 -0.705761 -0.206392
vn -0.677720 -0.705761 -0.206392
vn -0.677720 -0.705761 -0.206392
vn -0.677720 -0.705761 -0.206392
vn -0.677721 -0.705760 0.206393
vn -0.677721 -0.705760 0.206393
vn -0.677721 -0.705760 0.206393
vn -0.677721 -0.705760 0.206393
vn 0.000000 -0.942094 -0.335348
vn 0.000000 -0.942094 -0.335348
vn 0.000000 -0.942094 -0.335348
vn 0.000000 -0.942094 -0.335348
vn 0.290432 -0.942090 -0.167679
vn 0.290432 -0.942090 -0.167679
vn 0.290432 -0.942090 -0.167679
vn 0.290432 -0.942090 -0.167679
vn 0.290431 -0.942090 0.167679
vn 0.290431 -0.942090 0.167679
vn 0.290431 -0.942090 0.167679
vn 0.290431 -0.942090 0.167679
vn 0.000000 -0.942094 0.335348
vn 0.000000 -0.942094 0.335348
vn 0.000000 -0.942094 0.335348
vn 0.000000 -0.942094 0.335348
vn -0.290449 -0.942082 0.167691
vn -0.290449 -0.942082 0.167691
vn -0.290449 -0.942082 0.167691
vn -0.290449 -0.942082 0.167691
vn -0.290440 -0.942086 -0.167685
vn -0.290440 -0.942086 -0.167685
vn -0.290440 -0.942086 -0.167685
vn -0.290440 -0.942086 -0.167685
vn 0.862878 0.085169 -0.498185
vn 0.862878 0.085169 -0.498185
vn 0.737683 0.523861 -0.425903
vn 0.737683 0.523861 -0.425903
vn 0.862877 0.085162 0.498188
vn 0.862877 0.085162 0.498188
vn 0.737678 0.523867 0.425904
vn 0.737678 0.523867 0.425904
vn 0.000000 0.085173 0.996366
vn 0.000000 0.085173 0.996366
vn 0.000000 0.523858 0.851806
vn 0.000000 0.523858 0.851806
vn -0.862875 0.085150 0.498192
vn -0.862875 0.085150 0.498192
vn -0.737685 0.523846 0.425919
vn -0.737685 0.523846 0.425919
vn -0.862876 0.085157 -0.498189
vn -0.862876 0.085157 -0.498189
vn -0.737689 0.523839 -0.425918
vn -0.737690 0.523839 -0.425919
vn 0.000000 0.085201 -0.996364
vn 0.000000 0.085201 -0.996364
vn 0.000000 0.523832 -0.851821
vn 0.000000 0.523832 -0.851821
vn 0.000000 0.000000 1.000000
vn 0.000000 0.000000 1.000000
vn 0.000000 0.000000 1.000000
vn 0.000000 0.000000 1.000000
vn -0.956625 0.000000 0.291323
vn -0.956625 0.000000 0.291323
vn -0.956625 0.000000 0.291323
vn -0.956625 0.000000 0.291323
vn -0.956625 0.000001 -0.291322
vn -0.956625 0.000001 -0.291322
vn -0.956625 0.000001 -0.291322
vn -0.956625 0.000001 -0.291322
vn 0.000000 0.000000 -1.000000
vn 0.000000 0.000000 -1.000000
vn 0.000000 0.000000 -1.000000
vn 0.000000 0.000000 -1.000000
vn -0.956625 0.000000 0.291323
vn -0.956625 0.000000 0.291323
vn -0.956625 0.000000 0.291323
vn -0.956625 0.000000 0.291323
vn 0.000000 0.000000 1.000000
vn 0.000000 0.000000 1.000000
vn 0.000000 0.000000 1.000000
vn 0.000000 0.000000 1.000000
vn 0.000000 0.000000 1.000000
vn 0.000000 0.000000 -1.000000
vn 0.000000 0.000000 -1.000000
vn 0.000000 0.000000 -1.000000
vn 0.000000 0.000000 -1.000000
vn -0.956625 -0.000001 -0.291322
vn -0.956625 -0.000001 -0.291322
vn -0.956625 -0.000001 -0.291322
vn -0.956625 -0.000001 -0.291322
vn -0.956625 0.000000 0.291323
vn -0.956625 0.000000 0.291323
vn -0.956625 0.000000 0.291323
vn -0.956625 0.000000 0.291323
vn -0.956626 0.000000 -0.291320
vn -0.956626 0.000000 -0.291320
vn -0.956626 0.000000 -0.291320
vn -0.956626 0.000000 -0.291320
vn 0.956625 0.000000 0.291323
vn 0.956625 0.000000 0.291323
vn 0.956625 0.000000 0.291323
vn 0.956625 0.000000 0.291323
vn 0.956625 0.000000 0.291323
vn 0.956625 0.000000 0.291323
vn 0.956625 0.000000 0.291323
vn 0.956625 0.000000 0.291323
vn 0.956625 -0.000000 0.291323
vn 0.956625 -0.000000 0.291323
vn 0.956625 -0.000000 0.291323
vn 0.956625 -0.000000 0.291323
vn 0.956625 -0.000001 -0.291322
vn 0.956625 -0.000001 -0.291322
vn 0.956625 -0.000001 -0.291322
vn 0.956625 -0.000001 -0.291322
vn 0.956625 0.000000 -0.291323
vn 0.956625 0.000000 -0.291323
vn 0.956625 0.000000 -0.291323
vn 0.956625 0.000000 -0.291323
vn 0.956625 0.000001 -0.291322
vn 0.956625 0.000001 -0.291322
vn 0.956625 0.000001 -0.291322
vn 0.956625 0.000001 -0.291322
vn 0.000000 0.000000 1.000000
vn -0.000000 0.000000 1.000000
vn -0.000000 0.000000 1.000000
vn -0.000000 0.000000 1.000000
vn -0.000000 0.000000 1.000000
vn 0.000000 0.000000 1.000000
vn 0.000000 0.000000 1.000000
vn 0.000000 0.000000 1.000000
vn 0.000000 0.000000 1.000000
vn 0.000000 0.000000 1.000000
vn 0.000000 0.000000 1.000000
vn 0.000000 0.000000 1.000000
vn 0.000000 0.000000 1.000000
vn 0.000000 0.000000 1.000000
vn 0.000000 0.000000 1.000000
vn 0.000000 0.000000 1.000000
vn 0.000000 0.000000 1.000000
vn 0.000000 0.515663 0.856792
vn 0.000000 0.514718 0.857360
vn 0.000000 0.595235 0.803552
vn 0.000000 0.595235 0.803552
vn -0.578194 0.796319 0.177673
vn -0.585990 0.790321 0.178907
vn -0.689758 0.671991 0.269560
vn -0.689758 0.671991 0.269560
vn -0.585987 0.790323 -0.178906
vn -0.578192 0.796321 -0.177673
vn -0.689757 0.671992 -0.269560
vn -0.689757 0.671992 -0.269560
vn 0.000000 0.514717 -0.857360
vn 0.000000 0.515661 -0.856792
vn 0.000000 0.595234 -0.803552
vn 0.000000 0.595234 -0.803552
vn 0.582218 0.796055 -0.165280
vn 0.596549 0.785004 -0.167026
vn 0.689761 0.671988 -0.269559
vn 0.689761 0.671988 -0.269559
vn 0.596549 0.785004 0.167027
vn 0.582218 0.796055 0.165281
vn 0.689760 0.671988 0.269561
vn 0.689760 0.671988 0.269561
vn -0.864633 0.056694 -0.499196
vn -0.864633 0.056694 -0.499196
vn -0.855443 0.115752 -0.504796
vn -0.855443 0.115752 -0.504796
vn -0.864635 0.056694 0.499192
vn -0.864635 0.056694 0.499192
vn -0.855445 0.115751 0.504792
vn -0.855445 0.115751 0.504792
vn 0.000000 0.056696 0.998392
vn 0.000000 0.056696 0.998392
vn 0.000000 0.113908 0.993491
vn 0.000000 0.113908 0.993491
vn 0.864632 0.056697 0.499196
vn 0.864632 0.056697 0.499196
vn 0.855439 0.115757 0.504801
vn 0.855439 0.115757 0.504801
vn 0.864635 0.056697 -0.499191
vn 0.864635 0.056697 -0.499191
vn 0.855442 0.115757 -0.504796
vn 0.855442 0.115757 -0.504796
vn 0.000000 0.056696 -0.998392
vn 0.000000 0.056696 -0.998392
vn 0.000000 0.113908 -0.993491
vn 0.000000 0.113908 -0.993491
vn 0.000000 0.000000 1.000000
vn -0.000000 0.000000 1.000000
vn -0.000000 0.000000 1.000000
vn 0.000000 0.000000 1.000000
vn -0.000000 0.000000 1.000000
vn 0.000000 0.000000 1.000000
vn 0.000000 0.000000 1.000000
vn -0.000000 0.000000 1.000000
vn 0.000000 0.000000 1.000000
vn -0.000000 0.000000 1.000000
vn 0.000000 0.000000 1.000000
vn 0.000000 0.000000 1.000000
vn -0.000000 0.000000 1.000000
vn 0.000000 0.000000 1.000000
vn -0.000000 0.000000 1.000000
vn 0.000000 0.000000 1.000000
vn 0.000000 0.000000 1.000000
vn -0.000000 0.000000 1.000000
s off
f 76/14/1 71/15/2 33/18/3 34/20/4
f 71/15/5 72/22/6 38/24/7 33/18/8
f 72/22/9 73/129/10 37/130/11 38/24/12
f 73/129/13 74/131/14 36/132/15 37/130/16
f 74/131/17 75/133/18 35/134/19 36/132/20
f 75/133/21 76/14/22 34/20/23 35/134/24
f 2/2/25 1/1/26 13/27/27
f 3/3/28 2/2/29 13/27/30
f 4/4/31 3/3/32 13/27/33
f 5/5/34 4/4/35 13/27/36
f 6/6/37 5/5/38 13/27/39
f 1/1/40 6/6/41 13/27/42
f 7/26/43 8/28/44 14/50/45
f 8/28/46 9/51/47 14/50/48
f 9/51/49 10/52/50 14/50/51
f 10/52/52 11/53/53 14/50/54
f 11/53/55 12/54/56 14/50/57
f 12/54/58 7/26/59 14/50/60
f 21/36/61 22/37/62 65/104/63 66/105/64
f 22/37/65 23/38/66 70/110/67 65/104/68
f 23/38/69 24/39/70 69/108/71 70/110/72
f 24/40/73 25/41/74 68/107/75 69/109/76
f 25/41/77 26/42/78 67/106/79 68/107/80
f 26/42/81 21/36/82 66/105/83 67/106/84
f 61/100/85 77/101/86 78/102/87 62/103/88 63/118/89 64/120/90
f 57/76/91 58/77/92 29/45/93 23/38/94
f 29/45/95 59/78/96 60/79/97 23/38/98
f 51/84/99 52/85/100 48/86/101 45/87/102
f 52/85/103 55/88/104 56/89/105 48/86/106
f 53/90/107 54/91/108 49/80/109 47/83/110
f 4/10/111 5/11/112 28/44/113 27/43/114
f 5/11/115 6/12/116 29/45/117 28/44/118
f 6/12/119 1/13/120 30/46/121 29/45/122
f 1/7/123 2/8/124 31/48/125 30/47/126
f 2/8/127 3/9/128 32/49/129 31/48/130
f 3/9/131 4/10/132 27/43/133 32/49/134
f 34/17/135 33/16/136 44/55/137 39/56/138
f 35/25/139 34/17/140 39/56/141 40/57/142
f 36/23/143 35/25/144 40/57/145 41/58/146
f 37/21/147 36/23/148 41/58/149 42/59/150
f 38/19/151 37/21/152 42/59/153 43/60/154
f 33/16/155 38/19/156 43/60/157 44/55/158
f 40/57/159 39/56/160 7/26/161 12/54/162
f 41/58/163 40/57/164 12/54/165 11/53/166
f 42/59/167 41/58/168 11/53/169 10/52/170
f 43/60/171 42/59/172 10/52/173 9/51/174
f 44/55/175 43/60/176 9/51/177 8/28/178
f 39/56/179 44/55/180 8/28/181 7/26/182
f 47/65/183 46/64/184 22/37/185 21/36/186
f 26/42/187 53/72/188 47/65/189 21/36/190
f 48/66/191 56/75/192 26/42/193 25/41/194
f 45/63/195 48/66/196 25/41/197 24/40/198
f 32/49/199 27/43/200 49/67/201 54/73/202
f 27/43/203 28/44/204 50/68/205 79/122/206 49/67/207
f 30/47/208 31/48/209 52/71/210 51/70/211
f 31/48/212 32/49/213 55/74/214 52/71/215
f 32/49/216 54/73/217 53/72/218 26/42/219
f 56/75/220 55/74/221 32/49/222 26/42/223
f 46/64/224 57/76/225 23/38/226 22/37/227
f 50/81/228 58/92/229 57/93/230 46/82/231
f 28/44/232 29/45/233 58/77/234 50/68/235
f 29/45/236 30/46/237 51/69/238 59/78/239
f 60/94/240 59/95/241 51/84/242 45/87/243
f 23/38/244 60/79/245 45/62/246 24/39/247
f 77/101/248 80/127/249 82/128/250 81/61/251 78/102/252
f 50/81/253 46/82/254 63/98/255 62/97/256
f 46/82/257 47/83/258 64/99/259 63/98/260
f 47/83/261 49/80/262 61/96/263 64/99/264
f 66/105/265 65/104/266 16/30/267 15/29/268
f 67/106/269 66/105/270 15/29/271 20/35/272
f 68/107/273 67/106/274 20/35/275 19/34/276
f 69/109/277 68/107/278 19/34/279 18/33/280
f 70/110/281 69/108/282 18/32/283 17/31/284
f 65/104/285 70/110/286 17/31/287 16/30/288
f 19/34/289 20/35/290 72/112/291 71/111/292
f 20/35/293 15/29/294 73/113/295 72/112/296
f 15/29/297 16/30/298 74/114/299 73/113/300
f 16/30/301 17/31/302 75/115/303 74/114/304
f 17/31/305 18/32/306 76/117/307 75/115/308
f 18/33/309 19/34/310 71/111/311 76/116/312
f 49/80/313 82/126/314 80/124/315
f 49/80/316 80/124/317 77/119/318 61/96/319
f 82/126/320 50/81/321 81/125/322
f 79/123/323 50/81/324 82/126/325 49/80/326
f 81/125/327 50/81/328 62/97/329 78/121/330
