# This file uses centimeters as units for non-parametric coordinates.

v -14.159959 3.872530 17.029322
v 14.277762 1.826045 15.599918
v -3.299212 4.285071 -26.061915
v 14.580263 4.573075 -16.492535
v -6.078842 -2.766230 -24.091251
v 14.159946 -3.872499 -17.029335
v -14.580271 -4.573017 16.492570
v 15.449896 -5.984978 15.198019
v -15.285273 4.375384 -12.064699
v 14.738741 4.313518 -12.533219
v 14.326887 -4.145893 -12.858681
v -15.741069 -2.672053 -12.508387
v -15.056500 4.000749 -6.349292
v 14.960799 3.095784 -7.610065
v 14.517863 -4.458649 -8.087531
v -15.512303 -3.046719 -6.792982
v -10.929184 4.402871 6.157747
v 11.804628 2.443655 5.119371
v 11.462693 3.003599 -3.423557
v -11.235627 3.564735 -2.478243
v 0.434809 -5.278981 15.845280
v -0.497220 -3.752684 -7.440257
v -0.707096 -3.408966 -12.683526
v -0.855125 -3.166533 -16.382061
v -0.325508 5.068462 -15.828011
v -0.291006 5.043551 -12.252417
v -0.054283 3.801735 -6.962807
v 0.107114 3.537642 -2.933998
v 0.449050 2.977653 5.608912
v 0.887295 1.899857 16.297729
v -15.870208 -2.460598 -15.734788
v -15.138917 4.072583 -13.836315
v -4.414797 5.404430 -19.603128
v -5.142367 -2.599754 -19.990959
v -7.132377 -2.438130 -24.019235
v -4.358920 4.589848 -26.217569
v -1.187404 -2.605940 -15.918447
v -6.033013 -2.462581 -19.447065
v -0.722650 4.514566 -15.401905
v -5.330819 5.520341 -19.303813
v -15.284799 -1.947076 -15.703410
v -14.599155 3.469524 -13.825491
v 12.062093 -3.305994 -11.307129
v -14.901166 -2.575325 -6.118889
v -14.272366 2.934366 -5.661166
v 12.526849 3.814513 -10.790587
vt 0.217596 0.472545
vt 0.217596 0.472545
vt 0.217596 0.472545
vt 0.217596 0.472545
vt 0.217596 0.472545
vt 0.217596 0.472545
vt 0.217596 0.472545
vt 0.217596 0.472545
vt 0.217596 0.472545
vt 0.217596 0.472545
vt 0.217596 0.472545
vt 0.217596 0.472545
vt 0.217596 0.472545
vt 0.351248 0.471489
vt 0.351248 0.471489
vt 0.351248 0.471489
vt 0.351248 0.471489
vt 0.351248 0.471489
vt 0.351248 0.471489
vt 0.351248 0.471489
vt 0.351248 0.471489
vt 0.351248 0.471489
vt 0.351248 0.471489
vt 0.351248 0.471489
vt 0.351248 0.471489
vt 0.414409 0.081458
vt 0.437458 0.081458
vt 0.437458 0.088121
vt 0.414409 0.088121
vt 0.217596 0.472545
vt 0.217596 0.472545
vt 0.217596 0.472545
vt 0.217596 0.472545
vt 0.217596 0.472545
vt 0.217596 0.472545
vt 0.217596 0.472545
vt 0.217596 0.472545
vt 0.217596 0.472545
vt 0.217596 0.472545
vt 0.217596 0.472545
vt 0.217596 0.472545
vt 0.217596 0.472545
vt 0.217596 0.472545
vt 0.217596 0.472545
vt 0.217596 0.472545
vt 0.217529 0.472549
vt 0.217529 0.472549
vt 0.217529 0.472549
vt 0.350586 0.472412
vt 0.350586 0.472412
vt 0.350586 0.472412
vt 0.350586 0.472412
vt 0.217529 0.472549
vt 0.217529 0.472549
vt 0.217529 0.472549
vt 0.217529 0.472549
vt 0.217529 0.472549
vt 0.350586 0.472412
vt 0.217529 0.472549
vt 0.217529 0.472549
vt 0.350586 0.472412
vt 0.217596 0.472545
vt 0.217529 0.472549
vt 0.217596 0.472545
vt 0.217596 0.472545
vt 0.217596 0.472545
vt 0.351248 0.471489
vt 0.351248 0.471489
vt 0.217596 0.472545
vt 0.425934 0.088121
vt 0.217596 0.472545
vt 0.425934 0.081458
vt 0.217596 0.472545
vt 0.217596 0.472545
vt 0.217596 0.472545
vt 0.217529 0.472549
vt 0.217596 0.472545
vt 0.217596 0.472545
vt 0.217529 0.472549
vt 0.217596 0.472545
vt 0.217596 0.472545
vt 0.217596 0.472545
vt 0.217596 0.472545
vt 0.217596 0.472545
vt 0.057415 0.299557
vt 0.057415 0.299557
vt 0.057415 0.299557
vt 0.057415 0.299557
vt 0.057415 0.299557
vt 0.057415 0.299557
vt 0.057415 0.299557
vt 0.057415 0.299557
vt 0.057415 0.299557
vt 0.057415 0.299557
vt 0.057415 0.299557
vt 0.057415 0.299557
vt 0.057415 0.299557
vt 0.057415 0.299557
vt 0.057415 0.299557
vt 0.057415 0.299557
vt 0.057415 0.299557
vt 0.057415 0.299557
vt 0.057415 0.299557
vt 0.057415 0.299557
vt 0.057415 0.299557
vt 0.057415 0.299557
vt 0.057415 0.299557
vt 0.057415 0.299557
vt 0.057415 0.299557
vt 0.057415 0.299557
vt 0.057415 0.299557
vt 0.057415 0.299557
vt 0.057415 0.299557
vt 0.057415 0.299557
vt 0.057415 0.299557
vt 0.057415 0.299557
vt 0.057415 0.299557
vt 0.057415 0.299557
vt 0.057415 0.299557
vt 0.057415 0.299557
vt 0.057415 0.299557
vt 0.057415 0.299557
vt 0.057415 0.299557
vt 0.057415 0.299557
vt 0.057415 0.299557
vt 0.057415 0.299557
vt 0.057415 0.299557
vt 0.057415 0.299557
vt 0.057415 0.299557
vt 0.057415 0.299557
vt 0.057415 0.299557
vt 0.057415 0.299557
vt 0.057415 0.299557
vt 0.057415 0.299557
vn -0.000190 1.000000 -0.000659
vn 0.042028 0.998445 0.036618
vn 0.042028 0.998445 0.036618
vn 0.002544 0.999995 0.001755
vn 0.149376 0.050831 -0.987473
vn -0.040995 0.067527 -0.996875
vn -0.040995 0.067527 -0.996875
vn 0.155638 0.050241 -0.986536
vn 0.997971 -0.046932 -0.043022
vn 0.997971 -0.046932 -0.043022
vn 0.997971 -0.046932 -0.043022
vn 0.997971 -0.046932 -0.043022
vn -0.996113 0.087940 -0.005039
vn -0.996113 0.087940 -0.005039
vn -0.996113 0.087940 -0.005039
vn -0.996113 0.087940 -0.005039
vn 0.020338 0.981953 0.188029
vn 0.053577 0.971353 0.231525
vn 0.053577 0.971353 0.231525
vn 0.019541 0.982170 0.186979
vn 0.997436 -0.050709 -0.050502
vn 0.997436 -0.050709 -0.050502
vn 0.997436 -0.050709 -0.050502
vn 0.997436 -0.050709 -0.050502
vn -0.997125 0.061722 0.043958
vn -0.997125 0.061722 0.043958
vn -0.997125 0.061722 0.043958
vn -0.997125 0.061722 0.043958
vn 0.056348 0.998161 0.022331
vn 0.049606 0.996758 0.063350
vn 0.049606 0.996758 0.063350
vn 0.056348 0.998161 0.022331
vn 0.998866 0.047545 -0.002490
vn 0.998866 0.047545 -0.002490
vn 0.998866 0.047545 -0.002490
vn 0.998866 0.047545 -0.002490
vn -0.997708 0.053825 0.041004
vn -0.997708 0.053825 0.041004
vn -0.997708 0.053825 0.041004
vn -0.997708 0.053825 0.041004
vn 0.082002 0.993109 0.083721
vn 0.028126 0.996714 0.075956
vn 0.028126 0.996714 0.075956
vn 0.082050 0.993105 0.083728
vn 0.026895 0.997966 0.057794
vn 0.026895 0.997966 0.057794
vn 0.026895 0.997966 0.057794
vn 0.026895 0.997966 0.057794
vn 0.049601 0.996757 0.063373
vn 0.030773 0.996868 0.072854
vn 0.030773 0.996868 0.072853
vn 0.049601 0.996757 0.063373
vn -0.034091 0.999201 -0.020876
vn -0.034091 0.999201 -0.020876
vn -0.034091 0.999201 -0.020876
vn -0.034091 0.999201 -0.020876
vn -0.049596 -0.996758 -0.063352
vn -0.049596 -0.996758 -0.063352
vn -0.049596 -0.996758 -0.063350
vn -0.049596 -0.996758 -0.063350
vn -0.049596 -0.996758 -0.063355
vn -0.049596 -0.996758 -0.063355
vn -0.049596 -0.996758 -0.063355
vn -0.049596 -0.996758 -0.063355
vn -0.049597 -0.996758 -0.063350
vn -0.049597 -0.996758 -0.063350
vn -0.049596 -0.996758 -0.063350
vn -0.049596 -0.996758 -0.063350
vn -0.049596 -0.996758 -0.063350
vn -0.049596 -0.996758 -0.063350
vn -0.049596 -0.996758 -0.063349
vn -0.049596 -0.996758 -0.063349
vn -0.049596 -0.996758 -0.063355
vn -0.049596 -0.996758 -0.063355
vn -0.049596 -0.996758 -0.063356
vn -0.049596 -0.996758 -0.063356
vn -0.049596 -0.996758 -0.063350
vn -0.049596 -0.996758 -0.063350
vn -0.049595 -0.996759 -0.063347
vn -0.049595 -0.996759 -0.063347
vn 0.974001 -0.222312 0.043594
vn 0.885840 -0.112273 -0.450202
vn 0.907223 -0.125944 -0.401354
vn 0.974001 -0.222312 0.043594
vn -0.059527 0.996816 -0.053048
vn -0.000190 1.000000 -0.000659
vn 0.002544 0.999995 0.001755
vn -0.059527 0.996816 -0.053048
vn -0.011578 0.989247 0.145793
vn 0.020338 0.981953 0.188029
vn 0.019541 0.982170 0.186979
vn -0.011578 0.989247 0.145793
vn 0.030773 0.996868 0.072853
vn 0.030773 0.996868 0.072854
vn 0.011894 0.996535 0.082320
vn 0.011894 0.996535 0.082320
vn 0.062962 0.997844 -0.018532
vn 0.056348 0.998161 0.022331
vn 0.056348 0.998161 0.022331
vn 0.062962 0.997844 -0.018532
vn 0.131328 0.987186 0.090642
vn 0.082002 0.993109 0.083721
vn 0.082050 0.993105 0.083728
vn 0.131328 0.987186 0.090642
vn 0.885840 -0.112273 -0.450202
vn 0.149376 0.050831 -0.987473
vn 0.155638 0.050241 -0.986536
vn 0.907223 -0.125944 -0.401354
vn -0.042260 -0.268308 -0.962406
vn -0.042260 -0.268308 -0.962406
vn -0.042260 -0.268307 -0.962406
vn -0.042260 -0.268308 -0.962406
vn -0.254411 -0.950646 0.177615
vn -0.290577 -0.914722 0.280800
vn -0.290577 -0.914722 0.280800
vn -0.252993 -0.951745 0.173710
vn -0.136711 0.937910 0.318803
vn -0.136711 0.937910 0.318803
vn -0.136711 0.937910 0.318803
vn -0.136711 0.937910 0.318803
vn -0.007193 0.419921 -0.907532
vn 0.012001 0.384579 -0.923014
vn 0.012106 0.384383 -0.923094
vn -0.007193 0.419921 -0.907532
vn 0.012001 0.384579 -0.923014
vn -0.051148 -0.190090 -0.980433
vn -0.049727 -0.183796 -0.981706
vn 0.012106 0.384383 -0.923094
vn -0.051148 -0.190090 -0.980433
vn -0.089699 -0.361534 -0.928034
vn -0.089699 -0.361534 -0.928034
vn -0.049727 -0.183796 -0.981706
vn 0.198577 0.972939 -0.118142
vn 0.198577 0.972939 -0.118142
vn 0.198577 0.972939 -0.118142
vn 0.198577 0.972939 -0.118142
vn -0.212462 -0.974949 0.065841
vn -0.254411 -0.950646 0.177615
vn -0.252993 -0.951745 0.173710
vn -0.212462 -0.974949 0.065841
vn -0.616898 0.013287 0.786931
vn -0.616898 0.013287 0.786931
vn -0.616898 0.013287 0.786931
vn -0.616898 0.013287 0.786931
vn -0.974410 0.224671 -0.006909
vn -0.974410 0.224671 -0.006909
vn -0.974410 0.224670 -0.006909
vn -0.974410 0.224671 -0.006909
vn 0.040881 0.997699 0.054094
vn 0.040881 0.997699 0.054094
vn 0.040881 0.997699 0.054094
vn 0.040881 0.997699 0.054094
vn 0.992888 -0.109417 -0.046914
vn 0.992888 -0.109417 -0.046914
vn 0.992888 -0.109417 -0.046914
vn 0.992888 -0.109417 -0.046914
vn 0.026495 -0.991921 -0.124059
vn 0.026495 -0.991921 -0.124059
vn 0.026495 -0.991921 -0.124059
vn 0.026495 -0.991921 -0.124059
vn -0.330545 -0.046807 0.942629
vn -0.330545 -0.046807 0.942629
vn -0.330545 -0.046807 0.942629
vn -0.330545 -0.046807 0.942629
vn -0.187924 0.091704 -0.977893
vn -0.187924 0.091704 -0.977893
vn -0.187924 0.091704 -0.977893
vn -0.187924 0.091704 -0.977893
vn 0.045731 -0.054655 0.997458
vn 0.045731 -0.054655 0.997458
vn 0.045731 -0.054655 0.997458
vn 0.045731 -0.054655 0.997458
vn 0.039910 -0.065355 0.997064
vn 0.039910 -0.065355 0.997064
vn 0.039910 -0.065355 0.997064
vn 0.039910 -0.065355 0.997064
s off
f 26/66/1 10/2/2 4/3/3 25/64/4
f 25/77/5 4/5/6 6/6/7 24/75/8
f 10/8/9 11/9/10 6/10/11 4/11/12
f 12/12/13 9/13/14 32/81/15 31/80/16
f 27/68/17 14/15/18 10/16/19 26/67/20
f 14/18/21 15/19/22 11/20/23 10/21/24
f 16/22/25 13/23/26 9/24/27 12/25/28
f 29/72/29 18/27/30 19/28/31 28/70/32
f 2/30/33 8/31/34 15/32/35 14/33/36
f 7/34/37 1/35/38 13/36/39 16/37/40
f 30/74/41 2/39/42 18/40/43 29/73/44
f 2/39/45 14/42/46 19/43/47 18/40/48
f 14/42/49 27/69/50 28/71/51 19/43/52
f 13/44/53 1/38/54 17/41/55 20/45/56
f 6/46/57 11/47/58 23/60/59 24/63/60
f 11/49/61 15/50/62 22/58/63 23/61/64
f 15/53/65 8/54/66 21/57/67 22/59/68
f 22/59/69 21/57/70 7/55/71 16/56/72
f 23/61/73 22/58/74 16/51/75 12/52/76
f 24/76/77 23/60/78 12/48/79 31/79/80
f 3/4/81 33/83/82 34/84/83 5/7/84
f 9/1/85 26/66/86 25/78/87 32/82/88
f 13/14/89 27/68/90 26/67/91 9/17/92
f 28/71/93 27/69/94 13/44/95 20/45/96
f 17/26/97 29/72/98 28/70/99 20/29/100
f 1/38/101 30/74/102 29/73/103 17/41/104
f 33/83/105 25/65/106 24/62/107 34/84/108
f 3/105/109 5/106/110 35/107/111 36/108/112
f 34/85/113 24/86/114 37/87/115 38/88/116
f 25/91/117 33/92/118 40/93/119 39/94/120
f 24/109/121 31/110/122 41/111/123 37/112/124
f 31/110/125 32/113/126 42/114/127 41/111/128
f 32/113/129 25/115/130 39/116/131 42/114/132
f 33/92/133 3/95/134 36/96/135 40/93/136
f 5/89/137 34/85/138 38/88/139 35/90/140
f 39/117/141 40/121/142 38/122/143 37/118/144
f 40/127/145 36/128/146 35/129/147 38/130/148
f 37/97/149 41/98/150 44/99/151 43/100/152
f 41/131/153 42/132/154 45/133/155 44/134/156
f 42/101/157 39/102/158 46/103/159 45/104/160
f 39/117/161 37/118/162 43/119/163 46/120/164
f 44/123/165 45/124/166 46/125/167 43/126/168
f 21/57/169 8/31/170 2/39/171 30/74/172
f 21/57/173 30/74/174 1/35/175 7/55/176
