# This file uses centimeters as units for non-parametric coordinates.

v 3.729088 -14.986835 -6.435722
v -3.695160 -14.986835 -6.435722
v -7.407288 -14.986835 -0.006134
v -3.695160 -14.986835 6.423462
v 3.729088 -14.986835 6.423462
v 7.441216 -14.986835 -0.006134
v 3.729088 5.417179 -6.435722
v -3.695160 5.417179 -6.435722
v -7.407288 5.417179 -0.006134
v -3.695160 5.417179 6.423462
v 3.593742 5.417179 5.952026
v 7.441216 5.417179 -0.006134
v 2.860390 -14.986835 -4.931099
v -2.826462 -14.986835 -4.931099
v -5.669891 -14.986835 -0.006134
v -2.826469 -14.986835 4.918823
v 2.860390 -14.986835 4.918823
v 5.703819 -14.986835 -0.006134
v 2.860390 5.417179 -4.931099
v -2.826462 5.417179 -4.931099
v -5.669891 5.417179 -0.006134
v -2.826469 5.417179 4.918823
v 2.725044 5.417179 4.447388
v 5.703819 5.417179 -0.006134
v 2.684334 -14.105929 -4.626152
v -2.650406 -14.105929 -4.626160
v 0.016960 -14.105929 -0.006134
v -5.317780 -14.105929 -0.006134
v -2.650406 -14.105929 4.613892
v 2.684334 -14.105929 4.613892
v 5.351707 -14.105929 -0.006134
v 2.684334 4.536274 -4.626152
v -2.650406 4.536274 -4.626160
v -5.317780 4.536274 -0.006134
v -2.650406 4.536274 4.613892
v 2.548988 4.536274 4.142456
v 5.351707 4.536274 -0.006134
v 7.241951 3.223366 0.116104
v 3.593742 3.729914 5.952026
v -3.214729 3.414824 6.338776
v -6.926857 3.414824 -0.090805
v -3.695160 3.729914 -6.435722
v 3.529823 3.223366 -6.313477
v -3.626709 -13.279602 -6.245193
v -7.441216 -12.891027 0.334427
v -3.797539 -13.373078 6.573486
v 3.419441 -13.366077 6.288940
v 7.131569 -13.153814 -0.140656
v 3.729088 -13.549390 -6.435722
v -0.005592 -4.388236 -0.084702
v -0.716728 9.442883 -0.516693
v 2.602699 9.389061 -6.573471
v -3.233665 6.166611 -5.824944
v -6.316223 5.866659 0.348724
v -4.752983 10.269117 5.195404
v -0.639580 14.986835 2.878784
v 3.177246 14.525150 -2.460815
v 3.183876 8.833302 -6.250008
v -2.882957 5.385935 -5.687759
v -5.965523 5.085983 0.485916
v -4.171791 9.713364 5.518860
v 0.097488 14.748692 3.267731
v 3.914299 14.286999 -2.071869
v -0.143257 8.828115 -0.280762
vt 0.283913 0.134881
vt 0.283913 0.184544
vt 0.292287 0.184544
vt 0.292287 0.134881
vt 0.279726 0.184544
vt 0.279726 0.134881
vt 0.283913 0.184544
vt 0.283913 0.134881
vt 0.292134 0.184544
vt 0.292287 0.134881
vt 0.296474 0.184544
vt 0.296474 0.134881
vt 0.099648 0.303244
vt 0.099648 0.303244
vt 0.099649 0.336144
vt 0.099649 0.303244
vt 0.099649 0.303244
vt 0.099648 0.303244
vt 0.099648 0.303244
vt 0.099648 0.303244
vt 0.099648 0.303244
vt 0.099648 0.303244
vt 0.099648 0.303244
vt 0.099649 0.303244
vt 0.099649 0.303244
vt 0.099649 0.303244
vt 0.099649 0.303244
vt 0.099648 0.303244
vt 0.099648 0.303244
vt 0.099648 0.303244
vt 0.099648 0.303244
vt 0.099648 0.303244
vt 0.099649 0.303244
vt 0.099649 0.303244
vt 0.099648 0.303244
vt 0.099649 0.303244
vt 0.099649 0.303244
vt 0.099648 0.303244
vt 0.099648 0.303244
vt 0.099648 0.303244
vt 0.099648 0.303244
vt 0.099648 0.303244
vt 0.099648 0.303244
vt 0.099649 0.303244
vt 0.099648 0.303244
vt 0.099649 0.303244
vt 0.099648 0.303244
vt 0.099648 0.303244
vt 0.099648 0.303244
vt 0.099648 0.303244
vt 0.099648 0.303244
vt 0.099648 0.303244
vt 0.099648 0.303244
vt 0.099648 0.303244
vt 0.099648 0.303244
vt 0.099648 0.303244
vt 0.099648 0.303244
vt 0.099648 0.303244
vt 0.099648 0.303244
vt 0.099649 0.303244
vt 0.099649 0.303244
vt 0.099648 0.303244
vt 0.099648 0.303244
vt 0.099648 0.303244
vt 0.099648 0.303244
vt 0.099648 0.303244
vt 0.099648 0.303244
vt 0.099648 0.303244
vt 0.099648 0.303244
vt 0.099648 0.303244
vt 0.099648 0.303244
vt 0.099648 0.303244
vt 0.099648 0.303244
vt 0.099648 0.303244
vt 0.099648 0.303244
vt 0.099649 0.303244
vt 0.099649 0.303244
vt 0.080360 0.228277
vt 0.080360 0.228277
vt 0.080360 0.228277
vt 0.080360 0.228277
vt 0.080360 0.228277
vt 0.080360 0.228277
vt 0.080360 0.228277
vt 0.099648 0.303244
vt 0.099649 0.303244
vt 0.099649 0.336144
vt 0.099649 0.303244
vt 0.099648 0.303244
vt 0.099648 0.303244
vt 0.099648 0.303244
vt 0.099648 0.303244
vt 0.099648 0.303244
vt 0.099648 0.303244
vt 0.099648 0.303244
vt 0.099648 0.303244
vt 0.099648 0.303244
vt 0.099648 0.303244
vt 0.099648 0.303244
vt 0.099648 0.303244
vt 0.099648 0.303244
vt 0.099648 0.303244
vt 0.099648 0.303244
vt 0.099648 0.303244
vn -0.005382 0.003246 -0.999980
vn -0.003438 -0.005414 -0.999979
vn -0.003587 -0.005045 -0.999981
vn -0.005426 0.003645 -0.999979
vn -0.877917 -0.007681 -0.478751
vn -0.877912 -0.008177 -0.478753
vn -0.876429 0.011495 -0.481394
vn -0.876746 0.009777 -0.480854
vn -0.864301 0.010713 0.502861
vn -0.864342 0.007991 0.502841
vn -0.864113 0.024939 0.502680
vn -0.864140 0.024225 0.502668
vn 0.048877 0.012559 0.998726
vn 0.048875 0.012565 0.998726
vn 0.044950 0.014178 0.998889
vn 0.044658 0.013989 0.998904
vn 0.856023 -0.008062 0.516874
vn 0.855873 -0.008283 0.517120
vn 0.858045 0.013951 0.513385
vn 0.858022 0.013028 0.513448
vn 0.871925 -0.005695 -0.489606
vn 0.871919 -0.005785 -0.489615
vn 0.872590 0.012869 -0.488283
vn 0.872584 0.013152 -0.488288
vn 0.000000 -1.000000 0.000000
vn 0.000000 -1.000000 0.000000
vn 0.000000 -1.000000 0.000000
vn 0.000000 -1.000000 0.000000
vn 0.000000 -1.000000 0.000000
vn 0.000000 -1.000000 0.000000
vn 0.000000 -1.000000 -0.000000
vn 0.000000 -1.000000 0.000000
vn 0.000000 -1.000000 0.000000
vn 0.000000 -1.000000 -0.000000
vn 0.000000 -1.000000 -0.000000
vn 0.000000 -1.000000 0.000000
vn 0.000000 -1.000000 0.000000
vn 0.000000 -1.000000 -0.000000
vn 0.000000 -1.000000 0.000000
vn 0.000000 -1.000000 0.000000
vn 0.000000 -1.000000 0.000000
vn 0.000000 -1.000000 0.000000
vn 0.000000 -1.000000 0.000000
vn 0.000000 -1.000000 0.000000
vn 0.000000 -1.000000 0.000000
vn 0.000000 -1.000000 0.000000
vn 0.000000 -1.000000 0.000000
vn 0.000000 -1.000000 0.000000
vn 0.000000 -1.000000 0.000000
vn 0.000000 -1.000000 0.000000
vn 0.000000 -1.000000 -0.000000
vn 0.000000 -1.000000 -0.000000
vn 0.000000 -1.000000 -0.000000
vn 0.000000 -1.000000 -0.000000
vn 0.000000 -1.000000 0.000000
vn 0.000000 -1.000000 0.000000
vn 0.000000 -1.000000 0.000000
vn 0.000000 -1.000000 0.000000
vn 0.000000 -1.000000 -0.000000
vn 0.000000 -1.000000 -0.000000
vn 0.000000 -1.000000 -0.000000
vn 0.000000 -1.000000 -0.000000
vn 0.000000 -1.000000 0.000000
vn 0.000000 -1.000000 0.000000
vn 0.000000 -1.000000 0.000000
vn 0.000000 -1.000000 0.000000
vn 0.000000 1.000000 -0.000000
vn 0.000000 1.000000 -0.000000
vn 0.000000 1.000000 -0.000000
vn 0.000000 1.000000 -0.000000
vn 0.000000 1.000000 0.000000
vn 0.000000 1.000000 0.000000
vn 0.000000 1.000000 0.000000
vn 0.000000 1.000000 0.000000
vn 0.000000 1.000000 0.000000
vn 0.000000 1.000000 0.000000
vn 0.000000 1.000000 0.000000
vn 0.000000 1.000000 0.000000
vn 0.000000 1.000000 -0.000000
vn 0.000000 1.000000 -0.000000
vn 0.000000 1.000000 -0.000000
vn 0.000000 1.000000 -0.000000
vn 0.000000 1.000000 0.000000
vn 0.000000 1.000000 0.000000
vn 0.000000 1.000000 0.000000
vn 0.000000 1.000000 0.000000
vn 0.000000 1.000000 0.000000
vn 0.000000 1.000000 0.000000
vn 0.000000 1.000000 0.000000
vn 0.000000 1.000000 0.000000
vn -0.000001 -0.327124 0.944981
vn -0.000001 -0.327124 0.944981
vn -0.000001 -0.327124 0.944981
vn -0.000001 -0.327124 0.944981
vn 0.818379 -0.327119 0.472491
vn 0.818380 -0.327119 0.472491
vn 0.818379 -0.327119 0.472491
vn 0.818379 -0.327119 0.472491
vn 0.818379 -0.327121 -0.472491
vn 0.818379 -0.327121 -0.472491
vn 0.818379 -0.327121 -0.472491
vn 0.818379 -0.327121 -0.472491
vn 0.000000 -0.327114 -0.944985
vn 0.000000 -0.327114 -0.944985
vn 0.000000 -0.327114 -0.944985
vn 0.000000 -0.327114 -0.944985
vn -0.818380 -0.327118 -0.472492
vn -0.818380 -0.327118 -0.472492
vn -0.818380 -0.327118 -0.472492
vn -0.818380 -0.327118 -0.472492
vn -0.818379 -0.327121 0.472491
vn -0.818379 -0.327121 0.472491
vn -0.818379 -0.327121 0.472491
vn -0.818379 -0.327121 0.472491
vn -0.000001 0.327124 0.944981
vn -0.000001 0.327124 0.944981
vn -0.000001 0.327124 0.944981
vn -0.000001 0.327124 0.944981
vn 0.818379 0.327120 0.472492
vn 0.818379 0.327120 0.472492
vn 0.818379 0.327120 0.472492
vn 0.818379 0.327120 0.472491
vn 0.818379 0.327121 -0.472491
vn 0.818379 0.327121 -0.472491
vn 0.818379 0.327121 -0.472491
vn 0.818379 0.327121 -0.472491
vn -0.082594 0.325995 -0.941756
vn -0.082594 0.325995 -0.941756
vn -0.082594 0.325995 -0.941756
vn -0.082594 0.325995 -0.941757
vn -0.784496 0.326439 -0.527261
vn -0.784496 0.326439 -0.527261
vn -0.784496 0.326439 -0.527261
vn -0.784496 0.326439 -0.527261
vn -0.818379 0.327121 0.472491
vn -0.818379 0.327121 0.472491
vn -0.818379 0.327122 0.472491
vn -0.818379 0.327121 0.472491
vn 0.855873 -0.008283 0.517120
vn 0.856023 -0.008062 0.516874
vn 0.843167 -0.026377 0.537004
vn 0.843167 -0.026377 0.537004
vn 0.048875 0.012565 0.998726
vn 0.048877 0.012559 0.998726
vn 0.061089 -0.014953 0.998020
vn 0.061089 -0.014953 0.998020
vn -0.864342 0.007991 0.502841
vn -0.864301 0.010713 0.502861
vn -0.844186 -0.223159 0.487391
vn -0.844186 -0.223159 0.487391
vn -0.877912 -0.008177 -0.478753
vn -0.877917 -0.007681 -0.478751
vn -0.872879 -0.102712 -0.477003
vn -0.872879 -0.102712 -0.477003
vn -0.003587 -0.005045 -0.999981
vn -0.003438 -0.005414 -0.999979
vn 0.007239 -0.031853 -0.999466
vn 0.007239 -0.031853 -0.999466
vn 0.871919 -0.005785 -0.489615
vn 0.871925 -0.005695 -0.489606
vn 0.861153 -0.105922 -0.497188
vn 0.861153 -0.105922 -0.497188
vn -0.861939 0.077790 -0.501009
vn -0.861939 0.077790 -0.501009
vn -0.876746 0.009777 -0.480854
vn -0.876429 0.011495 -0.481394
vn -0.862287 -0.097407 0.496963
vn -0.862287 -0.097407 0.496963
vn -0.864140 0.024225 0.502668
vn -0.864113 0.024939 0.502680
vn 0.019432 -0.002317 0.999809
vn 0.019432 -0.002317 0.999809
vn 0.044658 0.013989 0.998904
vn 0.044950 0.014178 0.998889
vn 0.848781 0.190612 0.493191
vn 0.848781 0.190613 0.493191
vn 0.858022 0.013028 0.513448
vn 0.858045 0.013951 0.513385
vn 0.870311 0.062306 -0.488545
vn 0.870311 0.062306 -0.488545
vn 0.872584 0.013152 -0.488288
vn 0.872590 0.012869 -0.488283
vn -0.011758 0.060728 -0.998085
vn -0.011758 0.060728 -0.998085
vn -0.005382 0.003246 -0.999980
vn -0.005426 0.003645 -0.999979
vn -0.000001 0.453530 0.891241
vn -0.000001 0.453530 0.891241
vn -0.000001 0.453530 0.891241
vn 0.771146 0.455094 0.445222
vn 0.771146 0.455094 0.445222
vn 0.771146 0.455094 0.445222
vn 0.768387 0.461277 -0.443628
vn 0.768387 0.461277 -0.443628
vn 0.768386 0.461277 -0.443628
vn -0.080846 0.445472 -0.891638
vn -0.080846 0.445472 -0.891638
vn -0.080846 0.445472 -0.891638
vn -0.740449 0.448888 -0.500235
vn -0.740449 0.448888 -0.500235
vn -0.740449 0.448888 -0.500235
vn -0.769776 0.458177 0.444431
vn -0.769776 0.458177 0.444431
vn -0.769776 0.458177 0.444431
vn -0.491435 0.825800 -0.276670
vn -0.491435 0.825800 -0.276670
vn -0.491435 0.825800 -0.276670
vn -0.548722 0.802296 -0.235001
vn -0.548722 0.802296 -0.235001
vn -0.548722 0.802296 -0.235001
vn -0.524952 0.707421 -0.473265
vn -0.524952 0.707421 -0.473265
vn -0.524952 0.707421 -0.473265
vn -0.736264 0.360852 -0.572452
vn -0.736264 0.360852 -0.572452
vn -0.736264 0.360852 -0.572452
vn -0.745537 0.355602 -0.563668
vn -0.745537 0.355602 -0.563668
vn -0.745537 0.355602 -0.563668
vn -0.787272 0.436666 -0.435346
vn -0.787272 0.436665 -0.435346
vn -0.787272 0.436666 -0.435346
vn 0.057037 -0.289560 -0.955459
vn 0.057037 -0.289560 -0.955459
vn 0.057037 -0.289560 -0.955459
vn 0.057037 -0.289560 -0.955459
vn -0.798187 -0.432297 -0.419544
vn -0.798187 -0.432297 -0.419544
vn -0.798187 -0.432297 -0.419544
vn -0.798187 -0.432297 -0.419544
vn -0.756634 -0.333819 0.562201
vn -0.756634 -0.333819 0.562201
vn -0.756634 -0.333819 0.562201
vn -0.756634 -0.333819 0.562201
vn -0.143533 0.518229 0.843111
vn -0.143533 0.518229 0.843111
vn -0.143533 0.518229 0.843112
vn -0.143533 0.518229 0.843112
vn 0.257312 0.961053 0.100833
vn 0.257312 0.961053 0.100833
vn 0.257312 0.961053 0.100833
vn 0.257312 0.961053 0.100833
vn 0.616869 0.436655 -0.654832
vn 0.616869 0.436655 -0.654832
vn 0.616869 0.436655 -0.654832
vn 0.616869 0.436655 -0.654832
vn 0.494154 -0.824830 0.274714
vn 0.494154 -0.824830 0.274714
vn 0.494154 -0.824830 0.274714
vn 0.547279 -0.803508 0.234222
vn 0.547279 -0.803508 0.234222
vn 0.547279 -0.803508 0.234222
vn 0.520176 -0.713001 0.470156
vn 0.520176 -0.713001 0.470156
vn 0.520176 -0.713001 0.470156
vn 0.735600 -0.370006 0.567440
vn 0.735600 -0.370006 0.567440
vn 0.735600 -0.370006 0.567440
vn 0.741516 -0.366845 0.561764
vn 0.741516 -0.366845 0.561764
vn 0.741516 -0.366845 0.561764
vn 0.784616 -0.439835 0.436947
vn 0.784616 -0.439835 0.436947
vn 0.784616 -0.439835 0.436947
s off
f 44/1/1 42/2/2 43/3/3 49/4/4
f 41/5/5 42/2/6 44/1/7 45/6/8
f 40/7/9 41/5/10 45/6/11 46/8/12
f 39/9/13 40/7/14 46/8/15 47/10/16
f 38/11/17 39/9/18 47/10/19 48/12/20
f 43/3/21 38/11/22 48/12/23 49/4/24
f 26/13/25 25/14/26 27/15/27
f 28/16/28 26/13/29 27/15/30
f 29/17/31 28/16/32 27/15/33
f 30/18/34 29/17/35 27/15/36
f 31/19/37 30/18/38 27/15/39
f 25/14/40 31/19/41 27/15/42
f 2/20/43 1/21/44 13/22/45 14/23/46
f 3/24/47 2/20/48 14/23/49 15/25/50
f 4/26/51 3/24/52 15/25/53 16/27/54
f 5/28/55 4/26/56 16/27/57 17/29/58
f 6/30/59 5/28/60 17/29/61 18/31/62
f 1/21/63 6/30/64 18/31/65 13/22/66
f 7/32/67 8/33/68 20/34/69 19/35/70
f 8/33/71 9/36/72 21/37/73 20/34/74
f 9/36/75 10/38/76 22/39/77 21/37/78
f 10/38/79 11/40/80 23/41/81 22/39/82
f 11/40/83 12/42/84 24/43/85 23/41/86
f 12/42/87 7/32/88 19/35/89 24/43/90
f 14/23/91 13/22/92 25/14/93 26/13/94
f 15/25/95 14/23/96 26/13/97 28/16/98
f 16/27/99 15/25/100 28/16/101 29/17/102
f 17/29/103 16/27/104 29/17/105 30/18/106
f 18/31/107 17/29/108 30/18/109 31/19/110
f 13/22/111 18/31/112 31/19/113 25/14/114
f 19/35/115 20/34/116 33/44/117 32/45/118
f 20/34/119 21/37/120 34/46/121 33/44/122
f 21/37/123 22/39/124 35/47/125 34/46/126
f 22/39/127 23/41/128 36/48/129 35/47/130
f 23/41/131 24/43/132 37/49/133 36/48/134
f 24/43/135 19/35/136 32/45/137 37/49/138
f 39/50/139 38/51/140 12/52/141 11/53/142
f 40/54/143 39/50/144 11/53/145 10/55/146
f 41/56/147 40/54/148 10/55/149 9/57/150
f 42/58/151 41/56/152 9/57/153 8/59/154
f 43/60/155 42/58/156 8/59/157 7/61/158
f 38/51/159 43/62/160 7/63/161 12/52/162
f 2/64/163 3/65/164 45/66/165 44/67/166
f 3/65/167 4/68/168 46/69/169 45/66/170
f 4/68/171 5/70/172 47/71/173 46/69/174
f 5/70/175 6/72/176 48/73/177 47/71/178
f 6/72/179 1/74/180 49/75/181 48/73/182
f 1/76/183 2/64/184 44/67/185 49/77/186
f 32/78/187 33/79/188 50/80/189
f 33/79/190 34/81/191 50/80/192
f 34/81/193 35/82/194 50/80/195
f 35/82/196 36/83/197 50/80/198
f 36/83/199 37/84/200 50/80/201
f 37/84/202 32/78/203 50/80/204
f 52/85/205 53/86/206 51/87/207
f 53/86/208 54/88/209 51/87/210
f 54/88/211 55/89/212 51/87/213
f 55/89/214 56/90/215 51/87/216
f 56/90/217 57/91/218 51/87/219
f 57/91/220 52/85/221 51/87/222
f 53/92/223 52/93/224 58/94/225 59/95/226
f 54/96/227 53/92/228 59/95/229 60/97/230
f 55/98/231 54/96/232 60/97/233 61/99/234
f 56/100/235 55/98/236 61/99/237 62/101/238
f 57/102/239 56/100/240 62/101/241 63/103/242
f 52/93/243 57/102/244 63/103/245 58/94/246
f 59/95/247 58/94/248 64/104/249
f 60/97/250 59/95/251 64/104/252
f 61/99/253 60/97/254 64/104/255
f 62/101/256 61/99/257 64/104/258
f 63/103/259 62/101/260 64/104/261
f 58/94/262 63/103/263 64/104/264
