# This file uses centimeters as units for non-parametric coordinates.

v 9.614868 0.063343 -10.643066
v -10.103760 0.063347 -10.190674
v 9.615845 9.201576 -10.592529
v -10.102417 9.201576 -10.140137
v 10.103882 9.138264 10.191162
v -9.614746 9.138248 10.643311
v 10.102539 0.000000 10.140625
v -9.615723 0.000000 10.593018
v 7.951416 9.193298 -9.055908
v -8.369263 9.193272 -8.681641
v -7.961182 9.094685 9.106934
v 8.359497 9.094639 8.732666
v 7.950195 1.773327 -9.097168
v -8.370361 1.773323 -8.722656
v -7.962036 1.674694 9.065918
v 8.358276 1.674679 8.691406
v 3.462402 2.438880 8.803711
v -3.065674 2.438896 8.953613
v 3.507935 2.482502 10.301270
v -3.020508 2.482532 10.451172
v -5.513184 7.748310 9.043213
v -5.468140 7.791904 10.541016
v 5.911499 7.748325 8.781250
v 5.956665 7.791931 10.278809
vt 0.208178 0.353698
vt 0.208178 0.353698
vt 0.208178 0.353698
vt 0.208178 0.353698
vt 0.208178 0.353698
vt 0.208178 0.353698
vt 0.208178 0.353698
vt 0.208178 0.353698
vt 0.208178 0.353698
vt 0.208178 0.353698
vt 0.208178 0.353698
vt 0.208178 0.353698
vt 0.208178 0.353698
vt 0.208178 0.353698
vt 0.208178 0.353698
vt 0.208178 0.353698
vt 0.208178 0.353698
vt 0.208178 0.353698
vt 0.208178 0.353698
vt 0.208178 0.353698
vt 0.208178 0.353698
vt 0.208178 0.353698
vt 0.208178 0.353698
vt 0.208178 0.353698
vt 0.208178 0.353698
vt 0.208178 0.353698
vt 0.208178 0.353698
vt 0.208178 0.353698
vt 0.208178 0.353698
vt 0.208178 0.353698
vt 0.208178 0.353698
vt 0.208178 0.353698
vt 0.208178 0.353698
vt 0.208178 0.353698
vt 0.208178 0.353698
vt 0.208178 0.353698
vt 0.208178 0.353698
vt 0.208178 0.353698
vt 0.208178 0.353698
vt 0.208178 0.353698
vt 0.208178 0.353698
vt 0.208178 0.353698
vt 0.208178 0.353698
vt 0.208178 0.353698
vt 0.208178 0.353698
vt 0.208178 0.353698
vt 0.208178 0.353698
vt 0.208178 0.353698
vt 0.208178 0.353698
vt 0.208178 0.353698
vt 0.208178 0.353698
vt 0.208178 0.353698
vt 0.208178 0.353698
vt 0.208178 0.353698
vt 0.208178 0.353698
vt 0.208178 0.353698
vt 0.208178 0.353698
vt 0.208178 0.353698
vt 0.208178 0.353698
vt 0.208178 0.353698
vt 0.208178 0.353698
vt 0.208178 0.353698
vt 0.208178 0.353698
vt 0.208178 0.353698
vt 0.208178 0.353698
vt 0.208178 0.353698
vt 0.208178 0.353698
vt 0.208178 0.353698
vt 0.208178 0.353698
vt 0.208178 0.353698
vt 0.208178 0.353698
vt 0.208178 0.353698
vn 0.000128 0.999985 0.005542
vn 0.000128 0.999985 0.005542
vn 0.000128 0.999985 0.005542
vn 0.000128 0.999985 0.005542
vn 0.022924 -0.005532 0.999722
vn 0.022918 -0.005535 0.999722
vn 0.022917 -0.005524 0.999722
vn 0.022918 -0.005535 0.999722
vn 0.022926 -0.005480 0.999722
vn 0.022917 -0.005524 0.999722
vn 0.022917 -0.005524 0.999722
vn 0.022926 -0.005480 0.999722
vn 0.022924 -0.005524 0.999722
vn 0.022926 -0.005480 0.999722
vn 0.022948 -0.005554 0.999721
vn 0.022924 -0.005524 0.999722
vn 0.022875 -0.005504 0.999723
vn 0.022924 -0.005524 0.999722
vn 0.022905 -0.005520 0.999722
vn 0.022948 -0.005554 0.999721
vn 0.022905 -0.005520 0.999722
vn 0.022924 -0.005524 0.999722
vn -0.999725 -0.000003 0.023467
vn -0.999725 -0.000003 0.023467
vn -0.999725 -0.000003 0.023467
vn -0.999725 -0.000003 0.023467
vn 0.999725 0.000003 -0.023466
vn 0.999725 0.000003 -0.023466
vn 0.999725 0.000003 -0.023466
vn 0.999725 0.000003 -0.023466
vn 0.000126 0.999985 0.005534
vn 0.000126 0.999985 0.005534
vn 0.000126 0.999985 0.005534
vn 0.000126 0.999985 0.005534
vn 0.015402 0.999874 0.003840
vn 0.015402 0.999874 0.003840
vn 0.015402 0.999874 0.003840
vn 0.015402 0.999874 0.003840
vn -0.000665 0.999576 -0.029101
vn -0.000665 0.999576 -0.029101
vn -0.000665 0.999576 -0.029101
vn -0.000665 0.999576 -0.029101
vn -0.015120 0.999875 0.004550
vn -0.015120 0.999875 0.004550
vn -0.015120 0.999875 0.004550
vn -0.015120 0.999875 0.004550
vn 0.022933 -0.005546 0.999722
vn 0.022933 -0.005546 0.999722
vn 0.022933 -0.005546 0.999722
vn 0.022933 -0.005546 0.999722
vn 0.999737 -0.000005 -0.022941
vn 0.999737 -0.000005 -0.022941
vn 0.999737 -0.000005 -0.022941
vn 0.999737 -0.000005 -0.022941
vn -0.022935 0.005537 -0.999722
vn -0.022935 0.005537 -0.999722
vn -0.022935 0.005537 -0.999722
vn -0.022935 0.005537 -0.999722
vn -0.022935 0.005537 -0.999722
vn -0.022935 0.005537 -0.999722
vn -0.022935 0.005537 -0.999722
vn -0.022935 0.005537 -0.999722
vn -0.022935 0.005537 -0.999722
vn -0.022935 0.005537 -0.999722
vn -0.022935 0.005537 -0.999722
vn -0.022935 0.005537 -0.999722
vn -0.022935 0.005537 -0.999722
vn -0.022935 0.005537 -0.999722
vn -0.022935 0.005537 -0.999722
vn -0.022935 0.005537 -0.999722
vn -0.022935 0.005537 -0.999722
vn -0.022935 0.005537 -0.999722
vn -0.999737 0.000037 0.022935
vn -0.999737 0.000037 0.022935
vn -0.999737 0.000037 0.022935
vn -0.999737 0.000037 0.022935
vn 0.926622 0.373988 -0.038798
vn 0.926622 0.373988 -0.038798
vn 0.926622 0.373988 -0.038798
vn 0.926622 0.373988 -0.038798
vn -0.367228 0.909358 0.195480
vn -0.367228 0.909358 0.195480
vn -0.367228 0.909358 0.195480
vn -0.367228 0.909358 0.195480
vn 0.376043 0.910270 0.173205
vn 0.376043 0.910270 0.173205
vn 0.376043 0.910270 0.173205
vn 0.376043 0.910270 0.173205
vn -0.927289 0.373950 0.017190
vn -0.927289 0.373950 0.017190
vn -0.927289 0.373950 0.017190
vn -0.927290 0.373950 0.017190
vn -0.022936 0.005532 -0.999722
vn -0.022936 0.005532 -0.999722
vn -0.022936 0.005532 -0.999722
vn -0.022936 0.005532 -0.999722
vn -0.000070 -0.999995 -0.003046
vn -0.000070 -0.999995 -0.003046
vn -0.000070 -0.999995 -0.003046
vn -0.000070 -0.999995 -0.003046
s off
f 13/1/1 14/2/2 15/3/3 16/4/4
f 5/5/5 24/6/6 7/7/7
f 24/6/8 19/8/9 7/7/10
f 7/7/11 19/8/12 8/9/13
f 19/8/14 20/10/15 8/9/16
f 6/11/17 8/9/18 22/12/19
f 20/10/20 22/12/21 8/9/22
f 2/13/23 8/14/24 6/15/25 4/16/26
f 7/17/27 1/18/28 3/19/29 5/20/30
f 3/21/31 4/22/32 10/23/33 9/24/34
f 4/25/35 6/26/36 11/27/37 10/28/38
f 18/29/39 20/30/40 19/31/41 17/32/42
f 5/33/43 3/34/44 9/35/45 12/36/46
f 9/24/47 10/23/48 14/37/49 13/38/50
f 10/39/51 11/40/52 15/41/53 14/42/54
f 11/43/55 21/44/56 15/50/57
f 21/44/58 18/45/59 15/50/60
f 15/50/61 18/45/62 16/49/63
f 18/45/64 17/46/65 16/49/66
f 12/48/67 16/49/68 23/47/69
f 17/46/70 23/47/71 16/49/72
f 12/51/73 9/52/74 13/53/75 16/54/76
f 21/55/77 22/56/78 20/57/79 18/58/80
f 23/59/81 24/60/82 5/61/83 12/62/84
f 6/63/85 22/64/86 21/65/87 11/66/88
f 17/67/89 19/68/90 24/69/91 23/70/92
f 3/21/93 1/71/94 2/72/95 4/22/96
f 1/18/97 7/7/98 8/14/99 2/72/100
