# This file uses centimeters as units for non-parametric coordinates.

v 3.712135 0.000000 -6.429573
v -3.712120 0.000000 -6.429573
v -7.424248 0.000000 0.000015
v -3.712120 0.000000 6.429604
v 3.712128 0.000000 6.429604
v 7.424255 0.000000 0.000015
v 3.712135 20.404015 -6.429573
v -3.712120 20.404015 -6.429573
v -7.424248 19.737270 0.000015
v -3.712120 20.404015 6.429604
v 3.712128 20.404015 6.429604
v 7.424255 20.404015 0.000015
v 2.843437 0.000000 -4.924950
v -2.843422 0.000000 -4.924950
v -5.686852 0.000000 0.000015
v -2.843422 0.000000 4.924980
v 2.843437 0.000000 4.924980
v 5.686859 0.000000 0.000015
v 2.843437 20.404015 -4.924950
v -2.843422 20.404015 -4.924950
v -5.985939 19.737270 0.000015
v -2.915909 20.404015 5.199547
v 2.843437 20.404015 4.924980
v 5.686859 20.404015 0.000015
v 2.667381 0.880906 -4.620003
v -2.667366 0.880906 -4.620010
v 0.000008 0.880906 0.000015
v -5.334740 0.880906 0.000015
v -2.667366 0.880906 4.620033
v 2.667374 0.880906 4.620033
v 5.334747 0.880906 0.000015
v 2.667381 19.523109 -4.620003
v -2.667366 19.523109 -4.620010
v 0.000008 19.523109 0.000015
v -5.334740 19.523109 0.000015
v -2.667366 19.523109 4.620033
v 2.667374 19.523109 4.620033
v 5.334747 19.523109 0.000015
v -3.599083 10.695030 -6.242607
v -7.198166 10.497675 0.000015
v -3.599083 10.695030 6.242638
v 3.599091 11.089741 6.242638
v 7.198174 11.287096 0.000015
v 3.599091 11.089741 -6.242607
v -3.667633 3.748497 -6.412483
v -7.369843 3.730438 0.000015
v -3.667633 3.748497 6.412506
v 3.736786 3.784614 6.412506
v 7.438995 3.802672 0.000015
v 3.736794 3.784614 -6.412483
v 7.409874 18.912540 0.000015
v 3.700165 18.908117 6.425415
v -3.719238 18.899271 6.425415
v -7.436440 18.209122 0.000015
v -3.719238 18.899271 -6.425377
v 3.700172 18.908117 -6.425377
v -3.712120 1.039486 -6.429573
v -7.424248 1.039486 0.000015
v -3.712120 1.039486 6.429604
v 3.712128 1.039486 6.429604
v 7.424255 1.039486 0.000015
v 3.712135 1.039486 -6.429573
v -3.670166 12.027380 6.252747
v -3.740196 17.846277 6.409515
v 3.537102 12.508136 6.254448
v 3.666656 18.014807 6.412086
v -5.426003 13.376861 3.388077
v -5.430435 16.246376 3.474937
v 5.223061 16.664394 3.669258
v 5.149818 13.532458 3.595970
v 7.447594 5.097075 0.000015
v 3.762955 5.047395 6.382553
v -3.606308 4.948036 6.382553
v -7.290947 4.898356 0.000015
v -3.606308 4.948036 -6.382530
v 3.762962 5.047395 -6.382530
v 7.439163 6.196930 0.000015
v 3.773651 6.113366 6.350479
v -3.557365 5.946239 6.350479
v -7.222870 5.862675 0.000015
v -3.557365 5.946239 -6.350441
v 3.773659 6.113367 -6.350441
vt 0.099648 0.303244
vt 0.099648 0.303244
vt 0.099649 0.303244
vt 0.099649 0.303244
vt 0.099648 0.303244
vt 0.099648 0.303244
vt 0.099649 0.303244
vt 0.099648 0.303244
vt 0.099648 0.303244
vt 0.099648 0.303244
vt 0.099648 0.303244
vt 0.099648 0.303244
vt 0.099648 0.303244
vt 0.099649 0.303244
vt 0.099648 0.303244
vt 0.099648 0.303244
vt 0.099648 0.303244
vt 0.099648 0.303244
vt 0.099648 0.303244
vt 0.099648 0.303244
vt 0.099648 0.303244
vt 0.099648 0.303244
vt 0.099649 0.303244
vt 0.099649 0.303244
vt 0.099648 0.303244
vt 0.099648 0.303244
vt 0.099649 0.335567
vt 0.099649 0.335567
vt 0.099648 0.303244
vt 0.099648 0.303244
vt 0.099649 0.303244
vt 0.099649 0.303244
vt 0.099648 0.303244
vt 0.099648 0.303244
vt 0.099648 0.303244
vt 0.099649 0.303244
vt 0.099649 0.303244
vt 0.099648 0.303244
vt 0.099648 0.303244
vt 0.099648 0.303244
vt 0.099648 0.303244
vt 0.099648 0.303244
vt 0.099649 0.303244
vt 0.099649 0.303244
vt 0.099648 0.303244
vt 0.099648 0.303244
vt 0.099648 0.303244
vt 0.099649 0.303244
vt 0.099649 0.303244
vt 0.099648 0.303244
vt 0.099648 0.303244
vt 0.099648 0.303244
vt 0.104701 0.182351
vt 0.104701 0.182351
vt 0.104701 0.182351
vt 0.104701 0.182351
vt 0.104701 0.182351
vt 0.104701 0.182351
vt 0.104701 0.205762
vt 0.067719 0.302941
vt 0.104701 0.205762
vt 0.104701 0.205762
vt 0.104701 0.205762
vt 0.104701 0.205762
vt 0.104701 0.205762
vt 0.104701 0.205762
vt 0.067719 0.302941
vt 0.067719 0.302941
vt 0.067719 0.302941
vt 0.104701 0.205762
vt 0.067719 0.302941
vt 0.067719 0.302941
vt 0.067719 0.302941
vt 0.067719 0.302941
vt 0.067719 0.302941
vt 0.067719 0.302941
vt 0.067719 0.302941
vt 0.067719 0.302941
vt 0.104701 0.205762
vt 0.104701 0.182351
vt 0.104701 0.205762
vt 0.104701 0.182351
vt 0.104701 0.205762
vt 0.104701 0.182351
vt 0.104701 0.205762
vt 0.104701 0.182351
vt 0.104701 0.205762
vt 0.104701 0.182351
vt 0.104701 0.205762
vt 0.104701 0.182351
vt 0.104701 0.205762
vt 0.099648 0.303244
vt 0.099648 0.303244
vt 0.099648 0.303244
vt 0.099648 0.303244
vt 0.099648 0.303244
vt 0.099649 0.303244
vt 0.104701 0.205763
vt 0.099648 0.303244
vt 0.099648 0.303244
vt 0.099648 0.303244
vt 0.099648 0.303244
vt 0.099648 0.303244
vt 0.099649 0.303244
vt 0.104701 0.205763
vt 0.104701 0.205763
vt 0.104701 0.205763
vt 0.099648 0.303244
vt 0.104701 0.205763
vt 0.104701 0.205763
vt 0.104701 0.205763
vt 0.104701 0.205763
vt 0.104701 0.205763
vt 0.104701 0.205763
vt 0.104701 0.205763
vt 0.104701 0.205763
vt 0.104701 0.205762
vt 0.104701 0.205762
vt 0.104701 0.205762
vt 0.104701 0.205762
vt 0.104701 0.205762
vt 0.104701 0.205762
vt 0.104701 0.205762
vt 0.104701 0.205762
vt 0.099648 0.303244
vt 0.104701 0.205762
vt 0.104701 0.205762
vt 0.104701 0.205762
vt 0.104701 0.205762
vt 0.104701 0.205762
vt 0.104701 0.205762
vt 0.104701 0.205762
vt 0.104701 0.205762
vt 0.104701 0.205762
vt 0.104701 0.205762
vt 0.104701 0.205762
vt 0.104701 0.205762
vt 0.104701 0.205762
vt 0.104701 0.205762
vt 0.104701 0.205762
vt 0.067718 0.302941
vt 0.067718 0.302941
vt 0.104701 0.205762
vt 0.104701 0.205762
vt 0.104701 0.205762
vt 0.104701 0.205762
vt 0.104701 0.205762
vt 0.104701 0.205762
vt 0.104701 0.205762
vt 0.104701 0.205762
vt 0.067718 0.302941
vt 0.067718 0.302941
vt 0.104701 0.205762
vt 0.104701 0.205762
vt 0.067718 0.302941
vt 0.067718 0.302941
vt 0.067718 0.302941
vt 0.067718 0.302941
vt 0.067718 0.302941
vt 0.067718 0.302941
vt 0.067718 0.302941
vt 0.067718 0.302941
vt 0.091537 0.228222
vt 0.091537 0.228222
vt 0.091537 0.228222
vt 0.091537 0.228222
vt 0.091537 0.228222
vt 0.091537 0.228222
vt 0.091537 0.228222
vt 0.091537 0.228222
vt 0.091537 0.228222
vt 0.091537 0.228222
vt 0.091537 0.228222
vt 0.091537 0.228222
vt 0.104701 0.182351
vt 0.104701 0.182351
vt 0.104701 0.182351
vt 0.104701 0.182351
vt 0.104701 0.182351
vt 0.104701 0.182351
vt 0.104701 0.182351
vt 0.104701 0.182351
vt 0.104701 0.182351
vt 0.104701 0.182351
vt 0.104701 0.182351
vt 0.104701 0.182351
vn 0.000089 -0.006457 -0.999979
vn 0.000051 -0.005301 -0.999986
vn 0.000529 -0.019598 -0.999808
vn 0.000528 -0.019571 -0.999808
vn -0.865480 -0.014557 -0.500731
vn -0.865498 -0.014191 -0.500711
vn -0.865124 -0.020806 -0.501126
vn -0.865169 -0.019818 -0.501089
vn -0.870408 -0.010008 0.492230
vn -0.867680 -0.016623 0.496846
vn -0.863184 -0.007735 0.504830
vn -0.866099 0.004000 0.499857
vn 0.000825 -0.023784 0.999717
vn 0.000836 -0.024135 0.999708
vn 0.000794 -0.025753 0.999668
vn 0.000806 -0.025919 0.999664
vn 0.864740 0.031796 0.501212
vn 0.864937 0.019494 0.501503
vn 0.862881 -0.021631 0.504945
vn 0.862240 -0.015834 0.506252
vn 0.866132 0.001495 -0.499813
vn 0.866124 0.002343 -0.499824
vn 0.866096 -0.020957 -0.499438
vn 0.866096 -0.020945 -0.499438
vn 0.000000 -1.000000 0.000000
vn 0.000000 -1.000000 0.000000
vn 0.000000 -1.000000 0.000000
vn 0.000000 -1.000000 0.000000
vn 0.000000 -1.000000 0.000000
vn 0.000000 -1.000000 0.000000
vn 0.000000 -1.000000 0.000000
vn 0.000000 -1.000000 0.000000
vn 0.000000 -1.000000 0.000000
vn 0.000000 -1.000000 0.000000
vn 0.000000 -1.000000 0.000000
vn 0.000000 -1.000000 0.000000
vn 0.000000 -1.000000 0.000000
vn 0.000000 -1.000000 0.000000
vn 0.000000 -1.000000 0.000000
vn 0.000000 -1.000000 0.000000
vn 0.000000 -1.000000 0.000000
vn 0.000000 -1.000000 0.000000
vn 0.000000 1.000000 0.000000
vn 0.000000 1.000000 0.000000
vn 0.000000 1.000000 0.000000
vn 0.000000 1.000000 0.000000
vn 0.000000 1.000000 0.000000
vn 0.000000 1.000000 0.000000
vn 0.000000 1.000000 0.000000
vn 0.000000 1.000000 0.000000
vn 0.000000 1.000000 0.000000
vn 0.000000 1.000000 0.000000
vn 0.000000 1.000000 0.000000
vn 0.000000 1.000000 0.000000
vn 0.000000 1.000000 0.000000
vn 0.000000 1.000000 0.000000
vn 0.000000 1.000000 0.000000
vn 0.000000 1.000000 0.000000
vn 0.000000 1.000000 0.000000
vn 0.000000 1.000000 0.000000
vn 0.000000 -1.000000 0.000000
vn 0.000000 -1.000000 0.000000
vn 0.000000 -1.000000 0.000000
vn 0.000000 -1.000000 0.000000
vn 0.000000 -1.000000 0.000000
vn 0.000000 -1.000000 0.000000
vn 0.000000 -1.000000 0.000000
vn 0.000000 -1.000000 0.000000
vn 0.000000 -1.000000 0.000000
vn 0.000000 -1.000000 0.000000
vn 0.000000 -1.000000 0.000000
vn 0.000000 -1.000000 0.000000
vn 0.000000 -1.000000 0.000000
vn 0.000000 -1.000000 0.000000
vn 0.000000 -1.000000 0.000000
vn 0.000000 -1.000000 0.000000
vn 0.000000 -1.000000 0.000000
vn 0.000000 -1.000000 0.000000
vn 0.000000 -1.000000 0.000000
vn 0.000000 -1.000000 0.000000
vn 0.000000 -1.000000 0.000000
vn 0.000000 -1.000000 0.000000
vn 0.000000 -1.000000 0.000000
vn 0.000000 -1.000000 0.000000
vn 0.000000 1.000000 0.000000
vn 0.000000 1.000000 0.000000
vn 0.000000 1.000000 0.000000
vn 0.000000 1.000000 0.000000
vn -0.054681 0.994978 0.083841
vn -0.054681 0.994978 0.083841
vn -0.054681 0.994978 0.083841
vn -0.054681 0.994978 0.083841
vn -0.047549 0.995127 -0.086378
vn -0.047549 0.995127 -0.086378
vn -0.047549 0.995127 -0.086378
vn -0.047549 0.995127 -0.086378
vn 0.000000 1.000000 -0.000001
vn 0.000000 1.000000 -0.000001
vn 0.000000 1.000000 -0.000001
vn 0.000000 1.000000 -0.000001
vn 0.000000 1.000000 0.000000
vn 0.000000 1.000000 0.000000
vn 0.000000 1.000000 0.000000
vn 0.000000 1.000000 0.000000
vn 0.000000 1.000000 -0.000000
vn 0.000000 1.000000 -0.000000
vn 0.000000 1.000000 -0.000000
vn 0.000000 1.000000 -0.000000
vn -0.000001 -0.327124 0.944981
vn -0.000001 -0.327124 0.944981
vn -0.000001 -0.327124 0.944981
vn -0.000001 -0.327124 0.944981
vn 0.818379 -0.327120 0.472491
vn 0.818379 -0.327120 0.472492
vn 0.818379 -0.327120 0.472491
vn 0.818379 -0.327120 0.472491
vn 0.818379 -0.327121 -0.472491
vn 0.818379 -0.327121 -0.472491
vn 0.818379 -0.327121 -0.472491
vn 0.818379 -0.327121 -0.472491
vn 0.000000 -0.327128 -0.944980
vn 0.000000 -0.327128 -0.944980
vn 0.000000 -0.327128 -0.944980
vn 0.000000 -0.327128 -0.944980
vn -0.818378 -0.327124 -0.472490
vn -0.818378 -0.327124 -0.472490
vn -0.818378 -0.327124 -0.472490
vn -0.818378 -0.327124 -0.472490
vn -0.818379 -0.327121 0.472491
vn -0.818379 -0.327121 0.472491
vn -0.818379 -0.327121 0.472491
vn -0.818379 -0.327121 0.472490
vn -0.000001 0.327124 0.944981
vn -0.000001 0.327124 0.944981
vn -0.000001 0.327124 0.944981
vn -0.000001 0.327124 0.944981
vn 0.653046 0.616008 0.440529
vn 0.653045 0.616008 0.440529
vn 0.653045 0.616008 0.440529
vn 0.653045 0.616008 0.440529
vn 0.595840 0.698913 -0.395595
vn 0.595840 0.698913 -0.395595
vn 0.595840 0.698913 -0.395595
vn 0.595840 0.698913 -0.395595
vn -0.022122 0.447819 -0.893851
vn -0.022122 0.447819 -0.893851
vn -0.022122 0.447819 -0.893851
vn -0.022122 0.447819 -0.893851
vn -0.818378 0.327125 -0.472490
vn -0.818378 0.327125 -0.472490
vn -0.818378 0.327125 -0.472490
vn -0.818378 0.327125 -0.472490
vn -0.818379 0.327121 0.472490
vn -0.818379 0.327121 0.472490
vn -0.818379 0.327121 0.472490
vn -0.818379 0.327121 0.472490
vn -0.865695 0.029707 -0.499689
vn -0.865702 0.029381 -0.499696
vn -0.864758 0.058490 -0.498771
vn -0.864759 0.058523 -0.498766
vn -0.865702 0.029382 0.499696
vn -0.865695 0.029708 0.499690
vn -0.864759 0.058521 0.498766
vn -0.864758 0.058488 0.498772
vn -0.000078 0.011683 0.999932
vn -0.000081 0.011970 0.999928
vn -0.000381 0.027461 0.999623
vn -0.000371 0.027264 0.999628
vn 0.866025 -0.005038 0.499976
vn 0.866025 -0.005048 0.499976
vn 0.866042 -0.000214 0.499971
vn 0.866042 -0.000387 0.499971
vn 0.866025 -0.005048 -0.499974
vn 0.866025 -0.005038 -0.499975
vn 0.866043 -0.000386 -0.499970
vn 0.866042 -0.000213 -0.499970
vn -0.000081 0.011968 -0.999928
vn -0.000078 0.011681 -0.999932
vn -0.000371 0.027271 -0.999628
vn -0.000381 0.027468 -0.999623
vn -0.865965 0.012594 -0.499946
vn -0.865966 0.012566 -0.499946
vn -0.865702 0.029381 -0.499696
vn -0.865695 0.029707 -0.499689
vn -0.865965 0.012566 0.499946
vn -0.865965 0.012595 0.499946
vn -0.865695 0.029708 0.499690
vn -0.865702 0.029382 0.499696
vn -0.000011 0.004524 0.999990
vn -0.000011 0.004545 0.999990
vn -0.000081 0.011970 0.999928
vn -0.000078 0.011683 0.999932
vn 0.866023 -0.003363 0.499992
vn 0.866023 -0.003371 0.499992
vn 0.866025 -0.005048 0.499976
vn 0.866025 -0.005038 0.499976
vn 0.866024 -0.003371 -0.499991
vn 0.866024 -0.003364 -0.499991
vn 0.866025 -0.005038 -0.499975
vn 0.866025 -0.005048 -0.499974
vn -0.000011 0.004543 -0.999990
vn -0.000011 0.004522 -0.999990
vn -0.000078 0.011681 -0.999932
vn -0.000081 0.011968 -0.999928
vn 0.865566 -0.017713 0.500482
vn 0.864695 -0.019751 0.501909
vn 0.865996 -0.008338 0.499981
vn 0.865996 -0.008338 0.499981
vn 0.000003 -0.007647 0.999971
vn 0.000003 -0.007508 0.999972
vn 0.000002 -0.002792 0.999996
vn 0.000002 -0.002792 0.999996
vn -0.870408 -0.010008 0.492230
vn -0.866099 0.004000 0.499857
vn -0.866017 0.004823 0.499992
vn -0.866017 0.004823 0.499992
vn -0.865169 -0.019818 -0.501089
vn -0.865124 -0.020806 -0.501126
vn -0.866017 0.004822 -0.499992
vn -0.866017 0.004822 -0.499992
vn 0.000528 -0.019571 -0.999808
vn 0.000529 -0.019598 -0.999808
vn 0.000002 -0.002797 -0.999996
vn 0.000002 -0.002797 -0.999996
vn 0.866096 -0.020945 -0.499438
vn 0.866096 -0.020957 -0.499438
vn 0.865997 -0.008339 -0.499980
vn 0.865997 -0.008339 -0.499980
vn -0.866025 0.000000 -0.500000
vn -0.866025 0.000000 -0.500000
vn -0.865966 0.012566 -0.499946
vn -0.865965 0.012594 -0.499946
vn -0.866025 0.000000 0.500000
vn -0.866025 0.000000 0.500000
vn -0.865965 0.012595 0.499946
vn -0.865965 0.012566 0.499946
vn 0.000000 0.000000 1.000000
vn 0.000000 0.000000 1.000000
vn -0.000011 0.004545 0.999990
vn -0.000011 0.004524 0.999990
vn 0.866025 0.000000 0.500000
vn 0.866025 0.000000 0.500000
vn 0.866023 -0.003371 0.499992
vn 0.866023 -0.003363 0.499992
vn 0.866026 0.000000 -0.500000
vn 0.866026 0.000000 -0.500000
vn 0.866024 -0.003364 -0.499991
vn 0.866024 -0.003371 -0.499991
vn 0.000000 0.000000 -1.000000
vn 0.000000 0.000000 -1.000000
vn -0.000011 0.004522 -0.999990
vn -0.000011 0.004543 -0.999990
vn -0.863184 -0.007735 0.504830
vn -0.867680 -0.016623 0.496846
vn -0.867527 -0.031411 0.496397
vn -0.861902 -0.041096 0.505406
vn -0.000595 0.015704 0.999876
vn -0.000585 0.015450 0.999881
vn 0.000836 -0.024135 0.999708
vn 0.000825 -0.023784 0.999717
vn 0.862240 -0.015834 0.506252
vn 0.862881 -0.021631 0.504945
vn 0.863243 -0.028878 0.503962
vn 0.863261 -0.030764 0.503819
vn 0.000806 -0.025919 0.999664
vn 0.000794 -0.025753 0.999668
vn 0.000003 -0.007508 0.999972
vn 0.000003 -0.007647 0.999971
vn -0.868142 -0.008075 0.496250
vn -0.865877 -0.011601 0.500122
vn -0.861902 -0.041096 0.505406
vn -0.867527 -0.031411 0.496397
vn -0.868142 -0.008075 0.496250
vn -0.867527 -0.031411 0.496397
vn -0.867680 -0.016623 0.496846
vn -0.870408 -0.010008 0.492230
vn 0.863243 -0.028878 0.503962
vn 0.864695 -0.019751 0.501909
vn 0.865566 -0.017713 0.500482
vn 0.863261 -0.030764 0.503819
vn 0.862881 -0.021631 0.504945
vn 0.864937 0.019494 0.501503
vn 0.864695 -0.019751 0.501909
vn 0.863243 -0.028878 0.503962
vn 0.866042 -0.000387 0.499971
vn 0.866042 -0.000214 0.499971
vn 0.865321 0.034883 0.500003
vn 0.865327 0.034720 0.500004
vn -0.000371 0.027264 0.999628
vn -0.000381 0.027461 0.999623
vn -0.000805 0.023713 0.999719
vn -0.000803 0.023801 0.999716
vn -0.864758 0.058488 0.498772
vn -0.864759 0.058521 0.498766
vn -0.866177 0.013906 0.499544
vn -0.866174 0.014192 0.499541
vn -0.864759 0.058523 -0.498766
vn -0.864758 0.058490 -0.498771
vn -0.866174 0.014192 -0.499541
vn -0.866177 0.013906 -0.499544
vn -0.000381 0.027468 -0.999623
vn -0.000371 0.027271 -0.999628
vn -0.000803 0.023802 -0.999716
vn -0.000805 0.023714 -0.999718
vn 0.866042 -0.000213 -0.499970
vn 0.866043 -0.000386 -0.499970
vn 0.865327 0.034721 -0.500003
vn 0.865321 0.034884 -0.500002
vn 0.865327 0.034720 0.500004
vn 0.865321 0.034883 0.500003
vn 0.864937 0.019494 0.501503
vn 0.864740 0.031796 0.501212
vn -0.000803 0.023801 0.999716
vn -0.000805 0.023713 0.999719
vn -0.000585 0.015450 0.999881
vn -0.000595 0.015704 0.999876
vn -0.866174 0.014192 0.499541
vn -0.866177 0.013906 0.499544
vn -0.865877 -0.011601 0.500122
vn -0.868142 -0.008075 0.496250
vn -0.866177 0.013906 -0.499544
vn -0.866174 0.014192 -0.499541
vn -0.865498 -0.014191 -0.500711
vn -0.865480 -0.014557 -0.500731
vn -0.000805 0.023714 -0.999718
vn -0.000803 0.023802 -0.999716
vn 0.000051 -0.005301 -0.999986
vn 0.000089 -0.006457 -0.999979
vn 0.865321 0.034884 -0.500002
vn 0.865327 0.034721 -0.500003
vn 0.866124 0.002343 -0.499824
vn 0.866132 0.001495 -0.499813
s off
f 44/59/1 39/89/2 55/127/3 56/122/4
f 39/138/5 40/87/6 54/129/7 55/126/8
f 54/128/9 68/148/10 64/153/11 53/131/12
f 63/160/13 65/156/14 66/152/15 64/142/16
f 42/135/17 43/81/18 70/150/19 65/144/20
f 43/134/21 44/79/22 56/123/23 51/91/24
f 26/41/25 25/42/26 27/27/27
f 28/43/28 26/41/29 27/27/30
f 29/44/31 28/43/32 27/27/33
f 30/45/34 29/44/35 27/27/36
f 31/46/37 30/45/38 27/27/39
f 25/42/40 31/46/41 27/27/42
f 32/47/43 33/48/44 34/28/45
f 33/48/46 35/49/47 34/28/48
f 35/49/49 36/50/50 34/28/51
f 36/50/52 37/51/53 34/28/54
f 37/51/55 38/52/56 34/28/57
f 38/52/58 32/47/59 34/28/60
f 2/2/61 1/1/62 13/30/63 14/29/64
f 3/3/65 2/2/66 14/29/67 15/31/68
f 4/4/69 3/3/70 15/31/71 16/32/72
f 5/5/73 4/4/74 16/32/75 17/33/76
f 6/6/77 5/5/78 17/33/79 18/34/80
f 1/1/81 6/6/82 18/34/83 13/30/84
f 7/25/85 8/24/86 20/36/87 19/35/88
f 8/24/89 9/23/90 21/37/91 20/36/92
f 9/23/93 10/22/94 22/38/95 21/37/96
f 10/22/97 11/21/98 23/39/99 22/38/100
f 11/21/101 12/26/102 24/40/103 23/39/104
f 12/26/105 7/25/106 19/35/107 24/40/108
f 14/29/109 13/30/110 25/42/111 26/41/112
f 15/31/113 14/29/114 26/41/115 28/43/116
f 16/32/117 15/31/118 28/43/119 29/44/120
f 17/33/121 16/32/122 29/44/123 30/45/124
f 18/34/125 17/33/126 30/45/127 31/46/128
f 13/30/129 18/34/130 31/46/131 25/42/132
f 19/35/133 20/36/134 33/48/135 32/47/136
f 20/36/137 21/37/138 35/49/139 33/48/140
f 21/37/141 22/38/142 36/50/143 35/49/144
f 22/38/145 23/39/146 37/51/147 36/50/148
f 23/39/149 24/40/150 38/52/151 37/51/152
f 24/40/153 19/35/154 32/47/155 38/52/156
f 45/60/157 46/67/158 74/68/159 75/69/160
f 46/67/161 47/71/162 73/72/163 74/68/164
f 47/71/165 48/73/166 72/74/167 73/72/168
f 48/73/169 49/75/170 71/76/171 72/74/172
f 49/75/173 50/77/174 76/78/175 71/76/176
f 50/77/177 45/60/178 75/69/179 76/78/180
f 57/107/181 58/115/182 46/61/183 45/121/184
f 58/116/185 59/113/186 47/62/187 46/120/188
f 59/114/189 60/111/190 48/63/191 47/119/192
f 60/112/193 61/109/194 49/64/195 48/118/196
f 61/110/197 62/105/198 50/65/199 49/117/200
f 62/106/201 57/98/202 45/70/203 50/66/204
f 52/92/205 51/125/206 12/19/207 11/18/208
f 53/93/209 52/92/210 11/18/211 10/17/212
f 54/94/213 53/93/214 10/17/215 9/16/216
f 55/95/217 54/94/218 9/16/219 8/15/220
f 56/97/221 55/95/222 8/15/223 7/14/224
f 51/125/225 56/96/226 7/20/227 12/19/228
f 2/8/229 3/9/230 58/99/231 57/108/232
f 3/9/233 4/10/234 59/100/235 58/99/236
f 4/10/237 5/11/238 60/101/239 59/100/240
f 5/11/241 6/12/242 61/102/243 60/101/244
f 6/12/245 1/13/246 62/103/247 61/102/248
f 1/7/249 2/8/250 57/108/251 62/104/252
f 64/141/253 68/161/254 67/162/255 63/159/256
f 41/136/257 42/83/258 65/143/259 63/140/260
f 65/157/261 70/155/262 69/158/263 66/151/264
f 64/154/265 66/145/266 52/133/267 53/130/268
f 40/137/269 41/85/270 63/139/271 67/147/272
f 40/137/273 67/147/274 68/148/275 54/128/276
f 69/149/277 51/124/278 52/132/279 66/146/280
f 70/150/281 43/81/282 51/124/283 69/149/284
f 72/174/285 71/173/286 77/172/287 78/171/288
f 73/170/289 72/174/290 78/171/291 79/169/292
f 74/168/293 73/170/294 79/169/295 80/167/296
f 75/166/297 74/168/298 80/167/299 81/165/300
f 76/164/301 75/166/302 81/165/303 82/163/304
f 71/173/305 76/164/306 82/163/307 77/172/308
f 78/178/309 77/175/310 43/57/311 42/84/312
f 79/180/313 78/177/314 42/56/315 41/86/316
f 80/182/317 79/179/318 41/55/319 40/88/320
f 81/184/321 80/181/322 40/54/323 39/90/324
f 82/186/325 81/183/326 39/53/327 44/80/328
f 77/176/329 82/185/330 44/58/331 43/82/332
