# This file uses centimeters as units for non-parametric coordinates.

v -7.569844 0.000000 10.510719
v 7.569844 0.000000 10.510719
v -7.569844 7.883040 10.510719
v 7.569844 7.883040 10.510719
v -7.569844 7.883040 -10.510719
v 7.569844 7.883040 -10.510719
v -7.569844 0.000000 -10.510719
v 7.569844 0.000000 -10.510719
v 3.240746 0.000000 10.510719
v 3.240746 0.000000 -10.510719
v 3.240746 7.883040 -10.510719
v 3.240746 7.883040 10.510719
v -7.569844 7.883040 0.000000
v 3.240746 7.883040 0.000000
v 7.569844 7.883040 0.000000
v 7.569844 0.000000 0.000000
v 3.240746 0.000000 0.000000
v -7.569844 0.000000 0.000000
v -6.602664 7.883040 -0.940443
v -3.534032 7.883040 -0.940443
v -3.534032 7.883040 -9.570284
v -6.602664 7.883040 -9.570284
v -4.894508 7.883040 7.785757
v -0.013641 7.883040 7.785757
v -0.013641 7.883040 2.724962
v -4.894508 7.883040 2.724962
v -2.454135 7.883040 8.629219
v 0.799857 7.883040 5.255363
v -2.454135 7.883040 1.881501
v -5.708006 7.883040 5.255363
v -4.341119 7.883040 7.211983
v -4.970154 7.883040 5.255363
v -2.454135 7.883040 7.864197
v -0.567030 7.883040 7.211983
v 0.062005 7.883040 5.255363
v -0.567030 7.883040 3.298737
v -2.454135 7.883040 2.646523
v -4.341119 7.883040 3.298737
v -6.282245 6.719938 -10.510719
v 1.953146 6.719938 -10.510719
v 1.953146 4.422351 -10.510719
v -6.282245 4.422351 -10.510719
v -3.124804 7.883040 5.950817
v -3.348442 7.883040 5.255363
v -2.454135 7.883040 6.182634
v -2.454135 7.883040 5.255363
v -1.783344 7.883040 5.950817
v -1.559828 7.883040 5.255363
v -1.783344 7.883040 4.559902
v -2.454135 7.883040 4.328085
v -3.124804 7.883040 4.559902
v 4.275471 7.883040 3.779301
v 6.535119 7.883040 3.779301
v 4.275471 7.883040 9.519877
v 6.535119 7.883040 9.519876
v 3.240746 7.275730 10.510719
v 3.240746 0.607311 10.510719
v 6.842199 0.607311 10.510719
v 6.842199 7.275730 10.510719
v -6.842321 0.607311 10.510719
v -6.842321 7.275730 10.510719
v 6.863684 0.612198 18.637581
v 6.863684 7.270843 18.637581
v -6.849193 7.270843 18.637581
v -6.849193 0.612198 18.637581
v 6.863684 0.612198 9.602871
v 6.863684 7.270843 9.602871
v -6.849193 7.270843 9.602871
v -6.849193 0.612198 9.602871
v -6.294737 6.971651 9.581562
v 6.309228 6.971651 9.581562
v 6.309228 7.270843 9.581562
v -6.294737 7.270843 9.581562
v -6.294737 6.971651 18.034805
v -6.294737 7.270843 18.034805
v 6.309228 6.971651 18.034805
v 6.309228 7.270843 18.034805
vt 0.113386 0.182338
vt 0.075674 0.226063
vt 0.113386 0.182338
vt 0.075674 0.226063
vt 0.113386 0.182338
vt 0.075674 0.226063
vt 0.113386 0.182338
vt 0.075674 0.226063
vt 0.113386 0.182338
vt 0.075674 0.226063
vt 0.075674 0.226063
vt 0.075674 0.226063
vt 0.113386 0.182338
vt 0.113386 0.182338
vt 0.113386 0.182338
vt 0.075674 0.226063
vt 0.113386 0.182338
vt 0.075674 0.226063
vt 0.113386 0.182338
vt 0.075674 0.226063
vt 0.075674 0.226063
vt 0.075674 0.226063
vt 0.113386 0.182338
vt 0.113386 0.182338
vt 0.113386 0.182338
vt 0.113386 0.182338
vt 0.113386 0.182338
vt 0.113386 0.182338
vt 0.138688 0.403365
vt 0.138687 0.403365
vt 0.138687 0.403365
vt 0.138688 0.403365
vt 0.113386 0.182338
vt 0.113386 0.182338
vt 0.113386 0.182338
vt 0.113386 0.182338
vt 0.219751 0.467337
vt 0.113386 0.182338
vt 0.113386 0.182338
vt 0.113386 0.182338
vt 0.113386 0.182338
vt 0.135757 0.398971
vt 0.135757 0.398971
vt 0.135757 0.398971
vt 0.135757 0.398971
vt 0.135757 0.398971
vt 0.135757 0.398971
vt 0.135757 0.398971
vt 0.135757 0.398971
vt 0.219751 0.467337
vt 0.219751 0.467337
vt 0.137711 0.399947
vt 0.219751 0.467337
vt 0.219751 0.467337
vt 0.219751 0.467337
vt 0.219751 0.467337
vt 0.219751 0.467337
vt 0.135757 0.398971
vt 0.135757 0.398971
vt 0.135757 0.398971
vt 0.135757 0.398971
vt 0.135757 0.398971
vt 0.135757 0.398971
vt 0.135757 0.398971
vt 0.135757 0.398971
vt 0.113386 0.182338
vt 0.113386 0.182338
vt 0.113386 0.182338
vt 0.113386 0.182338
vt 0.139176 0.400924
vt 0.139176 0.400924
vt 0.139176 0.400924
vt 0.139176 0.400924
vt 0.219751 0.467337
vt 0.219751 0.467337
vt 0.219751 0.467337
vt 0.219751 0.467337
vt 0.219751 0.467337
vt 0.219751 0.467337
vt 0.219751 0.467337
vt 0.219751 0.467337
vt 0.137711 0.399947
vt 0.137711 0.399947
vt 0.137711 0.399947
vt 0.137711 0.399947
vt 0.137711 0.399947
vt 0.137711 0.399947
vt 0.137711 0.399947
vt 0.137711 0.399947
vt 0.075674 0.226063
vt 0.075674 0.226063
vt 0.075674 0.226063
vt 0.075674 0.226063
vt 0.102551 0.380414
vt 0.102551 0.380414
vt 0.102551 0.380414
vt 0.102551 0.380414
vt 0.075674 0.226063
vt 0.075674 0.226063
vt 0.075674 0.226063
vt 0.075674 0.226063
vt 0.113386 0.182338
vt 0.113386 0.182338
vt 0.113386 0.182338
vt 0.113386 0.182338
vt 0.058138 0.350611
vt 0.058138 0.350611
vt 0.058138 0.350611
vt 0.058138 0.350611
vt 0.058138 0.350611
vt 0.058138 0.350611
vt 0.058138 0.350611
vt 0.058138 0.350611
vt 0.058138 0.350611
vt 0.058138 0.350611
vt 0.058138 0.350611
vt 0.058138 0.350611
vt 0.058138 0.350611
vt 0.058138 0.350611
vt 0.058138 0.350611
vt 0.058138 0.350611
vt 0.468674 0.884764
vt 0.406831 0.884764
vt 0.406831 0.844549
vt 0.468674 0.844549
vn 0.000000 1.000000 0.000000
vn 0.000000 1.000000 0.000000
vn 0.000000 1.000000 0.000000
vn 0.000000 1.000000 0.000000
vn 0.000000 0.000000 -1.000000
vn 0.000000 0.000000 -1.000000
vn 0.000000 0.000000 -1.000000
vn 0.000000 0.000000 -1.000000
vn 0.000000 -1.000000 0.000000
vn 0.000000 -1.000000 0.000000
vn 0.000000 -1.000000 0.000000
vn 0.000000 -1.000000 0.000000
vn 1.000000 0.000000 0.000000
vn 1.000000 0.000000 0.000000
vn 1.000000 0.000000 0.000000
vn 1.000000 0.000000 0.000000
vn -1.000000 0.000000 0.000000
vn -1.000000 0.000000 0.000000
vn -1.000000 0.000000 0.000000
vn -1.000000 0.000000 0.000000
vn 0.000000 -1.000000 0.000000
vn 0.000000 -1.000000 0.000000
vn 0.000000 -1.000000 0.000000
vn 0.000000 -1.000000 0.000000
vn 0.000000 0.000000 -1.000000
vn 0.000000 0.000000 -1.000000
vn 0.000000 0.000000 -1.000000
vn 0.000000 0.000000 -1.000000
vn 0.000000 1.000000 0.000000
vn 0.000000 1.000000 0.000000
vn 0.000000 1.000000 0.000000
vn 0.000000 1.000000 0.000000
vn 0.000000 1.000000 0.000000
vn 0.000000 1.000000 0.000000
vn 0.000000 1.000000 0.000000
vn 0.000000 1.000000 0.000000
vn 0.000000 1.000000 0.000000
vn 0.000000 1.000000 0.000000
vn 0.000000 1.000000 0.000000
vn 0.000000 1.000000 0.000000
vn 1.000000 0.000000 0.000000
vn 1.000000 0.000000 0.000000
vn 1.000000 0.000000 0.000000
vn 1.000000 0.000000 0.000000
vn 0.000000 -1.000000 0.000000
vn 0.000000 -1.000000 0.000000
vn 0.000000 -1.000000 0.000000
vn 0.000000 -1.000000 0.000000
vn 0.000000 -1.000000 0.000000
vn 0.000000 -1.000000 0.000000
vn 0.000000 -1.000000 0.000000
vn 0.000000 -1.000000 0.000000
vn -1.000000 0.000000 0.000000
vn -1.000000 0.000000 0.000000
vn -1.000000 0.000000 0.000000
vn -1.000000 0.000000 0.000000
vn 0.000000 1.000000 -0.000001
vn 0.000000 1.000000 -0.000001
vn 0.000000 1.000000 -0.000001
vn 0.000000 1.000000 -0.000001
vn 0.000000 1.000000 0.000000
vn 0.000000 1.000000 0.000000
vn 0.000000 1.000000 0.000000
vn 0.000000 1.000000 0.000000
vn 0.000000 1.000000 0.000001
vn 0.000000 1.000000 0.000001
vn 0.000000 1.000000 0.000001
vn 0.000000 1.000000 0.000001
vn 0.000000 1.000000 0.000000
vn 0.000000 1.000000 0.000000
vn 0.000000 1.000000 0.000000
vn 0.000000 1.000000 0.000000
vn 0.000000 1.000000 -0.000000
vn 0.000000 1.000000 -0.000000
vn 0.000000 1.000000 -0.000000
vn 0.000000 1.000000 0.000000
vn 0.000000 1.000000 0.000000
vn 0.000000 1.000000 0.000000
vn 0.000000 1.000000 0.000000
vn 0.000000 1.000000 0.000000
vn 0.000000 1.000000 0.000000
vn 0.000000 1.000000 0.000000
vn 0.000000 1.000000 0.000000
vn 0.000000 1.000000 0.000000
vn 0.000000 1.000000 0.000000
vn 0.000000 1.000000 0.000000
vn 0.000000 1.000000 0.000000
vn 0.000000 1.000000 0.000000
vn 0.000000 1.000000 0.000000
vn 0.000000 1.000000 0.000000
vn 0.000000 1.000000 0.000000
vn 0.000000 1.000000 0.000000
vn 0.000000 1.000000 0.000000
vn 0.000000 1.000000 0.000000
vn 0.000000 1.000000 0.000000
vn 0.000000 1.000000 0.000000
vn 0.000000 1.000000 -0.000000
vn 0.000000 1.000000 -0.000000
vn 0.000000 1.000000 -0.000000
vn 0.000000 1.000000 -0.000000
vn 0.000000 1.000000 0.000000
vn 0.000000 1.000000 0.000000
vn 0.000000 1.000000 0.000000
vn 0.000000 1.000000 0.000000
vn 0.000000 1.000000 0.000000
vn 0.000000 1.000000 0.000000
vn 0.000000 1.000000 0.000000
vn 0.000000 1.000000 0.000000
vn 0.000000 1.000000 0.000000
vn 0.000000 1.000000 0.000000
vn 0.000000 1.000000 0.000000
vn 0.000000 1.000000 0.000000
vn 0.000000 1.000000 0.000000
vn 0.000000 1.000000 0.000000
vn 0.000000 1.000000 0.000000
vn 0.000000 1.000000 0.000000
vn 0.000000 1.000000 0.000000
vn 0.000000 1.000000 0.000000
vn 0.000000 1.000000 0.000000
vn 0.000000 1.000000 0.000000
vn 0.000000 1.000000 -0.000001
vn 0.000000 1.000000 -0.000001
vn 0.000000 1.000000 -0.000001
vn 0.000000 1.000000 -0.000001
vn 0.000000 1.000000 0.000000
vn 0.000000 1.000000 0.000000
vn 0.000000 1.000000 0.000000
vn 0.000000 1.000000 0.000000
vn 0.000000 0.000000 -1.000000
vn 0.000000 0.000000 -1.000000
vn 0.000000 0.000000 -1.000000
vn 0.000000 0.000000 -1.000000
vn 0.000001 0.000000 -1.000000
vn 0.000001 0.000000 -1.000000
vn 0.000000 0.000000 -1.000000
vn 0.000000 0.000000 -1.000000
vn 0.000000 0.000000 -1.000000
vn 0.000000 0.000000 -1.000000
vn 0.000000 0.000000 -1.000000
vn 0.000000 0.000000 -1.000000
vn -0.000001 0.000000 -1.000000
vn -0.000001 0.000000 -1.000000
vn 0.000000 0.000000 -1.000000
vn 0.000000 0.000000 -1.000000
vn 0.000000 1.000000 0.000000
vn 0.000000 1.000000 0.000000
vn 0.000000 1.000000 0.000000
vn 0.000000 1.000000 0.000000
vn 0.000000 1.000000 0.000000
vn 0.000000 1.000000 0.000000
vn 0.000000 1.000000 0.000000
vn 0.000000 1.000000 0.000000
vn 0.000000 1.000000 -0.000000
vn 0.000000 1.000000 -0.000000
vn 0.000000 1.000000 0.000000
vn 0.000000 1.000000 0.000000
vn 0.000000 1.000000 0.000000
vn 0.000000 1.000000 0.000000
vn 0.000000 1.000000 0.000000
vn 0.000000 1.000000 0.000000
vn 0.000000 1.000000 0.000000
vn 0.000000 1.000000 0.000000
vn 0.000000 1.000000 0.000000
vn 0.000000 1.000000 0.000000
vn 0.000000 1.000000 0.000000
vn 0.000000 1.000000 0.000000
vn 0.000000 1.000000 0.000000
vn 0.000000 1.000000 0.000000
vn 0.000000 1.000000 -0.000000
vn 0.000000 1.000000 -0.000000
vn 0.000000 1.000000 0.000000
vn 0.000000 1.000000 0.000000
vn 0.000000 1.000000 0.000000
vn 0.000000 1.000000 0.000000
vn 0.000000 1.000000 0.000000
vn 0.000000 1.000000 0.000000
vn 0.000000 1.000000 0.000000
vn 0.000000 1.000000 0.000000
vn 0.000000 1.000000 0.000000
vn 0.000000 1.000000 0.000000
vn 0.000000 1.000000 0.000000
vn 0.000000 1.000000 0.000000
vn 0.000000 1.000000 0.000000
vn 0.000000 1.000000 0.000000
vn 0.000000 1.000000 -0.000001
vn 0.000000 1.000000 -0.000001
vn 0.000000 1.000000 0.000000
vn 0.000000 1.000000 0.000000
vn 0.000000 1.000000 0.000000
vn 0.000000 1.000000 0.000000
vn 0.000000 1.000000 0.000000
vn 0.000000 1.000000 0.000000
vn 0.000000 0.000000 1.000000
vn 0.000000 0.000000 1.000000
vn 0.000000 0.000000 1.000000
vn 0.000000 0.000000 1.000000
vn 0.000000 0.000000 1.000000
vn 0.000000 0.000000 1.000000
vn 0.000000 0.000000 1.000000
vn 0.000000 0.000000 1.000000
vn 0.000000 0.000000 1.000000
vn 0.000000 0.000000 1.000000
vn 0.000000 0.000000 1.000000
vn 0.000000 0.000000 1.000000
vn 0.000000 0.000000 1.000000
vn 0.000000 0.000000 1.000000
vn 0.000000 0.000000 1.000000
vn 0.000000 0.000000 1.000000
vn 0.000000 0.000000 1.000000
vn 0.000000 0.000000 1.000000
vn 0.000000 0.000000 1.000000
vn 0.000000 0.000000 1.000000
vn -0.000001 0.000000 1.000000
vn -0.000001 0.000000 1.000000
vn -0.000001 0.000000 1.000000
vn -0.000001 0.000000 1.000000
vn 0.000000 0.000000 1.000000
vn 0.000000 0.000000 1.000000
vn 0.000000 0.000000 1.000000
vn 0.000000 0.000000 1.000000
vn 1.000000 0.000000 0.000000
vn 1.000000 0.000000 0.000000
vn 1.000000 0.000000 0.000000
vn 1.000000 0.000000 0.000000
vn -1.000000 0.000000 0.000000
vn -1.000000 0.000000 0.000000
vn -1.000000 0.000000 0.000000
vn -1.000000 0.000000 0.000000
vn 0.000000 -1.000000 0.000000
vn 0.000000 -1.000000 0.000000
vn 0.000000 -1.000000 0.000000
vn 0.000000 -1.000000 0.000000
vn 0.000000 0.000000 1.000000
vn 0.000000 0.000000 1.000000
vn 0.000000 0.000000 1.000000
vn 0.000000 0.000000 1.000000
vn 1.000000 0.000000 0.000000
vn 1.000000 0.000000 0.000000
vn 1.000000 0.000000 0.000000
vn 1.000000 0.000000 0.000000
vn -0.000000 0.000000 -1.000000
vn 0.000000 0.000000 -1.000000
vn 0.000000 0.000000 -1.000000
vn -0.000000 0.000000 -1.000000
vn -1.000000 0.000000 0.000000
vn -1.000000 0.000000 0.000000
vn -1.000000 0.000000 0.000000
vn -1.000000 0.000000 0.000000
vn 0.000000 1.000000 0.000000
vn 0.000000 1.000000 0.000000
vn 0.000000 1.000000 0.000000
vn 0.000000 1.000000 0.000000
vn 0.000000 1.000000 -0.000002
vn 0.000000 1.000000 -0.000002
vn -0.000000 1.000000 0.000002
vn 0.000000 1.000000 0.000002
vn 0.000000 1.000000 0.000000
vn 0.000000 1.000000 0.000000
vn 0.000000 1.000000 0.000000
vn 0.000000 1.000000 0.000000
vn 0.000000 1.000000 0.000000
vn 0.000000 1.000000 0.000000
vn 0.000000 1.000000 0.000000
vn 0.000000 1.000000 0.000000
vn 0.000000 1.000000 0.000000
vn 0.000000 1.000000 0.000000
vn 0.000000 1.000000 0.000000
vn 0.000000 1.000000 0.000000
vn 0.000000 1.000000 0.000000
vn 0.000000 1.000000 0.000000
vn 0.000000 1.000000 0.000000
vn 0.000000 1.000000 0.000000
vn 0.000000 1.000000 0.000000
vn 0.000000 1.000000 0.000000
vn 0.000000 1.000000 0.000000
vn 0.000000 1.000000 0.000000
vn 0.000000 1.000000 0.000000
vn 0.000000 1.000000 0.000000
vn 0.000000 1.000000 0.000000
vn 0.000000 1.000000 0.000000
vn 0.000000 1.000000 0.000000
vn 0.000000 1.000000 0.000000
vn 0.000000 1.000000 -0.000000
vn 0.000000 1.000000 -0.000000
vn 0.000000 1.000000 -0.000000
vn 0.000000 1.000000 -0.000000
vn 0.000000 1.000000 -0.000000
vn 0.000000 1.000000 -0.000000
s off
f 11/10/1 14/18/2 15/20/3 6/11/4
f 10/12/5 11/10/6 6/11/7 8/16/8
f 16/21/9 17/22/10 10/12/11 8/16/12
f 15/20/13 16/21/14 8/16/15 6/11/16
f 7/1/17 18/24/18 13/17/19 5/7/20
f 7/1/21 10/9/22 17/23/23 18/24/24
f 39/70/25 40/71/26 41/72/27 42/73/28
f 19/29/29 20/30/30 21/31/31 22/32/32
f 44/52/33 43/82/34 45/83/35 46/84/36
f 53/94/37 52/95/38 54/96/39 55/97/40
f 2/6/41 16/21/42 15/20/43 4/8/44
f 9/4/45 17/22/46 16/21/47 2/6/48
f 18/24/49 17/23/50 9/13/51 1/3/52
f 13/17/53 18/24/54 1/3/55 3/5/56
f 13/17/57 14/19/58 20/26/59 19/25/60
f 14/19/61 11/14/62 21/27/63 20/26/64
f 11/14/65 5/7/66 22/28/67 21/27/68
f 5/7/69 13/17/70 19/25/71 22/28/72
f 3/5/73 12/15/74 27/38/75
f 12/15/76 14/19/77 28/39/78
f 14/19/79 13/17/80 29/40/81
f 13/17/82 3/5/83 30/41/84
f 45/83/85 47/85/86 48/86/87 46/84/88
f 48/86/89 49/87/90 50/88/91 46/84/92
f 50/88/93 51/89/94 44/52/95 46/84/96
f 30/42/97 23/43/98 31/44/99 32/45/100
f 23/43/101 27/46/102 33/47/103 31/44/104
f 27/46/105 24/48/106 34/49/107 33/47/108
f 24/48/109 28/58/110 35/59/111 34/49/112
f 28/58/113 25/60/114 36/61/115 35/59/116
f 25/60/117 29/62/118 37/63/119 36/61/120
f 29/62/121 26/64/122 38/65/123 37/63/124
f 26/64/125 30/42/126 32/45/127 38/65/128
f 5/7/129 11/14/130 40/67/131 39/66/132
f 11/14/133 10/9/134 41/68/135 40/67/136
f 10/9/137 7/1/138 42/69/139 41/68/140
f 7/1/141 5/7/142 39/66/143 42/69/144
f 32/37/145 31/50/146 43/75/147 44/74/148
f 31/50/149 33/51/150 45/76/151 43/75/152
f 33/51/153 34/53/154 47/77/155 45/76/156
f 34/53/157 35/54/158 48/78/159 47/77/160
f 35/54/161 36/55/162 49/79/163 48/78/164
f 36/55/165 37/56/166 50/80/167 49/79/168
f 37/56/169 38/57/170 51/81/171 50/80/172
f 38/57/173 32/37/174 44/74/175 51/81/176
f 15/20/177 14/18/178 52/91/179 53/90/180
f 14/18/181 12/2/182 54/92/183 52/91/184
f 12/2/185 4/8/186 55/93/187 54/92/188
f 4/8/189 15/20/190 53/90/191 55/93/192
f 9/4/193 2/6/194 58/99/195 57/98/196
f 2/6/197 4/8/198 59/100/199 58/99/200
f 4/8/201 12/2/202 56/101/203 59/100/204
f 1/3/205 9/13/206 57/103/207 60/102/208
f 12/15/209 3/5/210 61/105/211 56/104/212
f 3/5/213 1/3/214 60/102/215 61/105/216
f 62/106/217 63/107/218 64/108/219 65/109/220
f 66/110/221 67/111/222 63/107/223 62/106/224
f 68/112/225 69/113/226 65/109/227 64/108/228
f 69/113/229 66/110/230 62/106/231 65/109/232
f 70/114/233 71/115/234 72/116/235 73/117/236
f 74/118/237 70/114/238 73/117/239 75/119/240
f 76/120/241 74/118/242 75/119/243 77/121/244
f 71/115/245 76/120/246 77/121/247 72/116/248
f 64/108/249 75/119/250 73/117/251 68/112/252
f 63/107/253 77/121/254 75/119/255 64/108/256
f 67/111/257 72/116/258 77/121/259 63/107/260
f 74/122/261 76/123/262 71/124/263 70/125/264
f 30/41/265 3/5/266 23/33/267
f 13/17/268 30/41/269 26/36/270
f 29/40/271 13/17/272 26/36/273
f 14/19/274 29/40/275 25/35/276
f 28/39/277 14/19/278 25/35/279
f 12/15/280 28/39/281 24/34/282
f 27/38/283 12/15/284 24/34/285
f 3/5/286 27/38/287 23/33/288
