# This file uses centimeters as units for non-parametric coordinates.

v -6.769810 -29.771334 0.000000
v -4.786979 -29.771334 4.786979
v 0.000000 -29.771334 6.769814
v 4.786979 -29.771334 4.786979
v 6.769810 -29.771334 0.000000
v -6.769810 29.771334 0.000000
v -4.786979 29.771334 4.786979
v 0.000000 29.771334 6.769814
v 4.786979 29.771334 4.786979
v 6.769810 29.771334 0.000000
v -2.030740 29.771334 0.000000
v 0.000000 29.771334 2.030743
v 2.030740 29.771334 0.000000
v 2.030740 -29.771334 0.000000
v 0.000000 -29.771334 2.030743
v -2.030740 -29.771334 0.000000
v -1.632819 29.771334 1.180157
v 1.626797 29.771334 1.154610
v -1.675225 -29.771334 1.137749
v 1.723411 -29.771334 1.057991
v -3.918072 29.771334 0.000000
v -2.999137 29.771334 2.473423
v 0.000000 29.771334 3.918078
v 2.992142 29.771334 2.443749
v 3.918072 29.771334 0.000000
v 3.522933 -29.771334 0.000000
v 2.791274 -29.771334 2.096404
v 0.000000 -29.771334 3.522938
v -2.740956 -29.771334 2.179691
v -3.522933 -29.771334 0.000000
v -6.198169 29.771334 0.000000
v -4.406515 29.771334 4.351915
v 0.000000 29.771334 6.198175
v 4.405788 29.771334 4.348832
v 6.198170 29.771334 0.000000
v 6.198170 -29.771334 0.000000
v 4.417442 -29.771334 4.337179
v 0.000000 -29.771334 6.198175
v -4.411630 -29.771334 4.346799
v -6.198169 -29.771334 0.000000
v 3.776227 -29.771334 3.556691
v 5.206266 -29.771334 0.000000
v 5.206266 29.771334 0.000000
v 3.744352 29.771334 3.588567
v 0.000000 29.771334 5.206270
v -3.746339 29.771334 3.596994
v -5.206266 29.771334 0.000000
v -5.206266 -29.771334 0.000000
v -3.760330 -29.771334 3.583005
v 0.000000 -29.771334 5.206270
v -4.786979 -29.771334 -4.786979
v 0.000000 -29.771334 -6.769814
v 4.786979 -29.771334 -4.786979
v -4.786979 29.771334 -4.786979
v 0.000000 29.771334 -6.769814
v 4.786979 29.771334 -4.786979
v 0.000000 29.771334 -2.030743
v 0.000000 -29.771334 -2.030743
v -1.632819 29.771334 -1.180157
v 1.626797 29.771334 -1.154610
v -1.675225 -29.771334 -1.137749
v 1.723411 -29.771334 -1.057991
v -2.999137 29.771334 -2.473423
v 0.000000 29.771334 -3.918078
v 2.992142 29.771334 -2.443749
v 2.791274 -29.771334 -2.096404
v 0.000000 -29.771334 -3.522938
v -2.740956 -29.771334 -2.179691
v -4.406515 29.771334 -4.351915
v 0.000000 29.771334 -6.198175
v 4.405788 29.771334 -4.348832
v 4.417442 -29.771334 -4.337179
v 0.000000 -29.771334 -6.198175
v -4.411630 -29.771334 -4.346799
v 3.776227 -29.771334 -3.556691
v 3.744352 29.771334 -3.588567
v 0.000000 29.771334 -5.206270
v -3.746339 29.771334 -3.596994
v -3.760330 -29.771334 -3.583005
v 0.000000 -29.771334 -5.206270
vt 0.014933 0.274771
vt 0.014933 0.274771
vt 0.014933 0.274771
vt 0.014933 0.274771
vt 0.014933 0.274771
vt 0.014933 0.274771
vt 0.014933 0.274771
vt 0.014933 0.274771
vt 0.014933 0.274771
vt 0.014933 0.274771
vt 0.014933 0.274771
vt 0.014933 0.274771
vt 0.014933 0.274771
vt 0.014933 0.274771
vt 0.014933 0.274771
vt 0.014933 0.274771
vt 0.014933 0.274771
vt 0.014933 0.274771
vt 0.016128 0.376915
vt 0.014933 0.274771
vt 0.016128 0.376915
vt 0.014933 0.274771
vt 0.016128 0.376915
vt 0.016128 0.376915
vt 0.016128 0.376915
vt 0.016128 0.376915
vt 0.016128 0.376915
vt 0.016128 0.376915
vt 0.016128 0.376915
vt 0.016128 0.376915
vt 0.016128 0.376915
vt 0.016128 0.376915
vt 0.016128 0.376915
vt 0.016128 0.376915
vt 0.016128 0.376915
vt 0.016128 0.376915
vt 0.016128 0.376915
vt 0.016128 0.376915
vt 0.016128 0.376915
vt 0.016128 0.376915
vt 0.016128 0.354216
vt 0.016128 0.354216
vt 0.016128 0.376915
vt 0.016128 0.376915
vt 0.016128 0.376915
vt 0.016128 0.354216
vt 0.016128 0.354216
vt 0.016128 0.376915
vt 0.016128 0.376915
vt 0.016128 0.354216
vt 0.016128 0.376915
vt 0.016128 0.354216
vt 0.016128 0.354216
vt 0.016128 0.376915
vt 0.016128 0.376915
vt 0.016128 0.354216
vt 0.016128 0.354216
vt 0.016128 0.376915
vt 0.016128 0.376915
vt 0.016128 0.354216
vt 0.016128 0.354216
vt 0.016128 0.354216
vt 0.016128 0.354216
vt 0.016128 0.354216
vt 0.016128 0.354216
vt 0.016128 0.354216
vt 0.016128 0.354216
vt 0.016128 0.354216
vt 0.016128 0.354216
vt 0.016128 0.354216
vt 0.016128 0.354216
vt 0.016128 0.354216
vt 0.016128 0.354216
vt 0.016128 0.354216
vt 0.016128 0.354216
vt 0.016128 0.354216
vt 0.016128 0.354216
vt 0.016128 0.354216
vt 0.016128 0.354216
vt 0.016128 0.354216
vt 0.016128 0.354216
vt 0.016128 0.354216
vt 0.016128 0.354216
vt 0.016128 0.354216
vt 0.016128 0.354216
vt 0.016128 0.354216
vt 0.016128 0.354216
vt 0.016128 0.354216
vt 0.016128 0.354216
vt 0.016128 0.354216
vt 0.014933 0.274771
vt 0.014933 0.274771
vt 0.014933 0.274771
vt 0.014933 0.274771
vt 0.014933 0.274771
vt 0.014933 0.274771
vt 0.014933 0.274771
vt 0.014933 0.274771
vt 0.014933 0.274771
vt 0.014933 0.274771
vt 0.016128 0.354216
vt 0.016128 0.354216
vt 0.016128 0.354216
vt 0.016128 0.354216
vt 0.016128 0.354216
vt 0.016128 0.354216
vt 0.016128 0.354216
vt 0.016128 0.354216
vt 0.016128 0.354216
vt 0.016128 0.354216
vt 0.016128 0.354216
vt 0.016128 0.354216
vt 0.016128 0.354216
vt 0.016128 0.354216
vt 0.016128 0.354216
vt 0.016128 0.354216
vt 0.016128 0.376915
vt 0.016128 0.376915
vt 0.016128 0.376915
vt 0.016128 0.376915
vt 0.016128 0.376915
vt 0.016128 0.376915
vt 0.016128 0.376915
vt 0.016128 0.376915
vt 0.016128 0.376915
vt 0.016128 0.376915
vt 0.016128 0.354216
vt 0.016128 0.354216
vt 0.016128 0.354216
vt 0.016128 0.354216
vt 0.016128 0.376915
vt 0.016128 0.376915
vt 0.016128 0.376915
vt 0.016128 0.376915
vt 0.016128 0.376915
vt 0.016128 0.376915
vt 0.016128 0.376915
vt 0.016128 0.376915
vt 0.016128 0.376915
vt 0.016128 0.376915
vt 0.016128 0.354216
vt 0.016128 0.354216
vt 0.016128 0.354216
vt 0.016128 0.354216
vt 0.016128 0.354216
vt 0.016128 0.354216
vt 0.016128 0.354216
vt 0.016128 0.354216
vt 0.016128 0.354216
vt 0.016128 0.354216
vt 0.016128 0.354216
vt 0.016128 0.354216
vt 0.016128 0.354216
vt 0.016128 0.354216
vt 0.016128 0.354216
vt 0.016128 0.354216
vt 0.016128 0.354216
vt 0.016128 0.354216
vt 0.016128 0.354216
vt 0.016128 0.354216
vt 0.014933 0.274771
vt 0.014933 0.274771
vt 0.014933 0.274771
vt 0.014933 0.274771
vt 0.014933 0.274771
vt 0.014933 0.274771
vt 0.014933 0.274771
vt 0.014933 0.274771
vt 0.014933 0.274771
vt 0.014933 0.274771
vt 0.016128 0.376915
vt 0.016128 0.376915
vt 0.016128 0.376915
vt 0.016128 0.376915
vt 0.016128 0.376915
vt 0.016128 0.376915
vt 0.016128 0.376915
vt 0.016128 0.376915
vt 0.016128 0.376915
vt 0.016128 0.376915
vn -0.923880 0.000000 0.382683
vn -0.923880 0.000000 0.382683
vn -0.923880 0.000000 0.382683
vn -0.923880 0.000000 0.382683
vn -0.382684 0.000000 0.923879
vn -0.382684 0.000000 0.923879
vn -0.382684 0.000000 0.923879
vn -0.382684 0.000000 0.923879
vn 0.382684 0.000000 0.923879
vn 0.382684 0.000000 0.923879
vn 0.382684 0.000000 0.923879
vn 0.382684 0.000000 0.923879
vn 0.923880 0.000000 0.382683
vn 0.923880 0.000000 0.382683
vn 0.923880 0.000000 0.382683
vn 0.923880 0.000000 0.382683
vn 0.000000 1.000000 0.000001
vn 0.000000 1.000000 0.000001
vn 0.000000 1.000000 0.000001
vn 0.000000 1.000000 0.000001
vn 0.000000 1.000000 -0.000000
vn 0.000000 1.000000 -0.000000
vn 0.000000 1.000000 0.000001
vn 0.000000 1.000000 0.000001
vn 0.000000 -1.000000 -0.000000
vn 0.000000 -1.000000 -0.000000
vn 0.000000 -1.000000 0.000000
vn 0.000000 -1.000000 0.000000
vn 0.000000 -1.000000 0.000000
vn 0.000000 -1.000000 0.000000
vn 0.000000 -1.000000 0.000000
vn 0.000000 -1.000000 -0.000000
vn 0.000000 1.000000 0.000001
vn 0.000000 1.000000 0.000001
vn 0.000000 1.000000 0.000001
vn 0.000000 1.000000 0.000001
vn 0.000000 1.000000 0.000000
vn 0.000000 -1.000000 -0.000000
vn 0.000000 -1.000000 -0.000000
vn 0.000000 -1.000000 -0.000000
vn 0.000000 -1.000000 0.000000
vn 0.000000 -1.000000 0.000000
vn 0.000000 1.000000 0.000001
vn 0.000000 1.000000 0.000001
vn 0.000000 1.000000 0.000001
vn 0.000000 1.000000 0.000001
vn 0.000000 1.000000 0.000000
vn 0.000000 1.000000 0.000001
vn 0.000000 1.000000 -0.000000
vn 0.000000 1.000000 0.000000
vn 0.000000 -1.000000 0.000001
vn 0.000000 -1.000000 0.000000
vn 0.000000 -1.000000 0.000000
vn 0.000000 -1.000000 -0.000000
vn 0.000000 -1.000000 -0.000000
vn 0.000000 -1.000000 0.000000
vn 0.000000 -1.000000 -0.000000
vn 0.000000 -1.000000 -0.000000
vn 0.000000 1.000000 0.000001
vn 0.000000 1.000000 0.000001
vn 0.000000 1.000000 -0.000000
vn 0.000000 1.000000 0.000000
vn 0.000000 1.000000 0.000001
vn 0.000000 1.000000 0.000001
vn 0.000000 1.000000 0.000000
vn 0.000000 1.000000 0.000001
vn 0.000000 1.000000 -0.000000
vn 0.000000 1.000000 -0.000000
vn 0.000000 1.000000 -0.000000
vn 0.000000 1.000000 0.000000
vn 0.000000 1.000000 0.000000
vn 0.000000 1.000000 -0.000000
vn 0.000000 1.000000 0.000000
vn 0.000000 1.000000 -0.000000
vn 0.000000 -1.000000 0.000000
vn 0.000000 -1.000000 -0.000000
vn 0.000000 -1.000000 -0.000000
vn 0.000000 -1.000000 -0.000000
vn 0.000000 -1.000000 0.000000
vn 0.000000 -1.000000 0.000000
vn 0.000000 -1.000000 -0.000000
vn 0.000000 -1.000000 0.000000
vn 0.000000 -1.000000 0.000000
vn 0.000000 -1.000000 0.000001
vn 0.000000 -1.000000 -0.000001
vn 0.000000 -1.000000 -0.000000
vn 0.000000 -1.000000 -0.000000
vn 0.000000 -1.000000 0.000000
vn 0.000000 -1.000000 -0.000000
vn 0.000000 -1.000000 -0.000000
vn 0.000000 1.000000 -0.000000
vn 0.000000 1.000000 -0.000000
vn 0.000000 1.000000 0.000000
vn 0.000000 1.000000 -0.000000
vn 0.000000 1.000000 0.000001
vn 0.000000 1.000000 0.000000
vn 0.000000 1.000000 -0.000000
vn 0.000000 1.000000 -0.000000
vn 0.000000 1.000000 0.000000
vn 0.000000 1.000000 0.000000
vn 0.000000 1.000000 0.000000
vn 0.000000 1.000000 -0.000000
vn 0.000000 1.000000 -0.000000
vn 0.000000 1.000000 0.000000
vn 0.000000 1.000000 0.000000
vn 0.000000 1.000000 -0.000000
vn 0.000000 -1.000000 -0.000000
vn 0.000000 -1.000000 -0.000000
vn 0.000000 -1.000000 -0.000000
vn 0.000000 -1.000000 -0.000000
vn 0.000000 -1.000000 0.000000
vn 0.000000 -1.000000 -0.000000
vn 0.000000 -1.000000 -0.000000
vn 0.000000 -1.000000 0.000000
vn 0.000000 -1.000000 -0.000001
vn 0.000000 -1.000000 -0.000000
vn 0.000000 -1.000000 -0.000000
vn 0.000000 -1.000000 -0.000001
vn 0.000000 -1.000000 -0.000000
vn 0.000000 -1.000000 -0.000000
vn 0.000000 -1.000000 -0.000000
vn 0.000000 -1.000000 -0.000000
vn 0.000000 1.000000 -0.000000
vn 0.000000 1.000000 -0.000000
vn 0.000000 1.000000 -0.000000
vn 0.000000 1.000000 0.000000
vn 0.000000 1.000000 -0.000000
vn 0.000000 1.000000 -0.000000
vn 0.000000 1.000000 -0.000000
vn 0.000000 1.000000 -0.000000
vn 0.000000 1.000000 0.000000
vn 0.000000 1.000000 0.000000
vn 0.000000 1.000000 0.000000
vn 0.000000 1.000000 0.000000
vn 0.000000 1.000000 -0.000000
vn 0.000000 1.000000 0.000000
vn 0.000000 1.000000 0.000000
vn 0.000000 1.000000 0.000000
vn 0.000000 -1.000000 0.000000
vn 0.000000 -1.000000 -0.000000
vn 0.000000 -1.000000 -0.000000
vn 0.000000 -1.000000 0.000000
vn 0.000000 -1.000000 0.000000
vn 0.000000 -1.000000 -0.000000
vn 0.000000 -1.000000 0.000000
vn 0.000000 -1.000000 0.000000
vn 0.000000 -1.000000 0.000000
vn 0.000000 -1.000000 -0.000000
vn 0.000000 -1.000000 -0.000001
vn 0.000000 -1.000000 0.000000
vn 0.000000 -1.000000 -0.000000
vn 0.000000 -1.000000 -0.000000
vn 0.000000 -1.000000 0.000000
vn 0.000000 -1.000000 -0.000000
vn -0.923880 0.000000 -0.382683
vn -0.923880 0.000000 -0.382683
vn -0.923880 0.000000 -0.382683
vn -0.923880 0.000000 -0.382683
vn -0.382684 0.000000 -0.923879
vn -0.382684 0.000000 -0.923879
vn -0.382684 0.000000 -0.923879
vn -0.382684 0.000000 -0.923879
vn 0.382684 0.000000 -0.923879
vn 0.382684 0.000000 -0.923879
vn 0.382684 0.000000 -0.923879
vn 0.382684 0.000000 -0.923879
vn 0.923880 0.000000 -0.382683
vn 0.923880 0.000000 -0.382683
vn 0.923880 0.000000 -0.382683
vn 0.923880 0.000000 -0.382683
vn 0.000000 1.000000 0.000001
vn 0.000000 1.000000 0.000001
vn 0.000000 1.000000 -0.000000
vn 0.000000 1.000000 0.000001
vn 0.000000 1.000000 0.000000
vn 0.000000 1.000000 -0.000000
vn 0.000000 1.000000 -0.000000
vn 0.000000 1.000000 0.000000
vn 0.000000 -1.000000 -0.000000
vn 0.000000 -1.000000 -0.000001
vn 0.000000 -1.000000 -0.000001
vn 0.000000 -1.000000 -0.000000
vn 0.000000 -1.000000 0.000000
vn 0.000000 -1.000000 -0.000000
vn 0.000000 -1.000000 -0.000001
vn 0.000000 -1.000000 -0.000000
vn 0.000000 1.000000 0.000001
vn 0.000000 1.000000 0.000000
vn 0.000000 1.000000 -0.000000
vn 0.000000 1.000000 -0.000000
vn 0.000000 1.000000 -0.000000
vn 0.000000 -1.000000 -0.000000
vn 0.000000 -1.000000 0.000000
vn 0.000000 -1.000000 -0.000000
vn 0.000000 -1.000000 -0.000000
vn 0.000000 -1.000000 -0.000000
vn 0.000000 1.000000 -0.000000
vn 0.000000 1.000000 0.000000
vn 0.000000 1.000000 0.000001
vn 0.000000 1.000000 -0.000000
vn 0.000000 1.000000 0.000000
vn 0.000000 1.000000 0.000000
vn 0.000000 1.000000 0.000000
vn 0.000000 1.000000 -0.000000
vn 0.000000 -1.000000 -0.000001
vn 0.000000 -1.000000 -0.000000
vn 0.000000 -1.000000 -0.000000
vn 0.000000 -1.000000 -0.000001
vn 0.000000 -1.000000 -0.000000
vn 0.000000 -1.000000 -0.000000
vn 0.000000 -1.000000 -0.000000
vn 0.000000 -1.000000 -0.000001
vn 0.000000 1.000000 -0.000000
vn 0.000000 1.000000 -0.000000
vn 0.000000 1.000000 0.000000
vn 0.000000 1.000000 0.000000
vn 0.000000 1.000000 0.000001
vn 0.000000 1.000000 0.000001
vn 0.000000 1.000000 0.000000
vn 0.000000 1.000000 0.000000
vn 0.000000 1.000000 -0.000000
vn 0.000000 1.000000 0.000000
vn 0.000000 1.000000 -0.000000
vn 0.000000 1.000000 -0.000000
vn 0.000000 1.000000 -0.000000
vn 0.000000 1.000000 -0.000000
vn 0.000000 1.000000 -0.000000
vn 0.000000 1.000000 -0.000000
vn 0.000000 -1.000000 -0.000000
vn 0.000000 -1.000000 -0.000000
vn 0.000000 -1.000000 0.000000
vn 0.000000 -1.000000 0.000001
vn 0.000000 -1.000000 0.000000
vn 0.000000 -1.000000 0.000001
vn 0.000000 -1.000000 0.000001
vn 0.000000 -1.000000 0.000000
vn 0.000000 -1.000000 0.000001
vn 0.000000 -1.000000 0.000001
vn 0.000000 -1.000000 0.000001
vn 0.000000 -1.000000 0.000000
vn 0.000000 -1.000000 -0.000000
vn 0.000000 -1.000000 -0.000000
vn 0.000000 -1.000000 0.000000
vn 0.000000 -1.000000 0.000001
vn 0.000000 1.000000 0.000000
vn 0.000000 1.000000 0.000000
vn 0.000000 1.000000 -0.000000
vn 0.000000 1.000000 0.000000
vn 0.000000 1.000000 0.000001
vn 0.000000 1.000000 0.000000
vn 0.000000 1.000000 0.000000
vn 0.000000 1.000000 0.000000
vn 0.000000 1.000000 -0.000000
vn 0.000000 1.000000 -0.000001
vn 0.000000 1.000000 -0.000000
vn 0.000000 1.000000 -0.000000
vn 0.000000 1.000000 -0.000000
vn 0.000000 1.000000 0.000000
vn 0.000000 1.000000 -0.000000
vn 0.000000 1.000000 -0.000000
vn 0.000000 -1.000000 0.000000
vn 0.000000 -1.000000 0.000000
vn 0.000000 -1.000000 -0.000000
vn 0.000000 -1.000000 0.000001
vn 0.000000 -1.000000 0.000001
vn 0.000000 -1.000000 0.000000
vn 0.000000 -1.000000 0.000000
vn 0.000000 -1.000000 0.000001
vn 0.000000 -1.000000 -0.000002
vn 0.000000 -1.000000 -0.000002
vn 0.000000 -1.000000 0.000001
vn 0.000000 -1.000000 0.000000
vn 0.000000 -1.000000 -0.000000
vn 0.000000 -1.000000 -0.000000
vn 0.000000 -1.000000 -0.000002
vn 0.000000 -1.000000 0.000000
vn 0.000000 -1.000000 -0.000001
vn 0.000000 -1.000000 0.000000
vn 0.000000 -1.000000 -0.000000
vn 0.000000 -1.000000 -0.000000
vn 0.000000 1.000000 0.000000
vn 0.000000 1.000000 -0.000000
vn 0.000000 1.000000 -0.000000
vn 0.000000 1.000000 0.000000
vn 0.000000 1.000000 0.000000
vn 0.000000 1.000000 -0.000000
vn 0.000000 1.000000 0.000000
vn 0.000000 1.000000 0.000000
vn 0.000000 1.000000 0.000000
vn 0.000000 1.000000 0.000001
vn 0.000000 1.000000 0.000000
vn 0.000000 1.000000 0.000001
vn 0.000000 1.000000 0.000001
vn 0.000000 1.000000 0.000000
vn 0.000000 1.000000 -0.000000
vn 0.000000 1.000000 0.000001
vn 0.000000 -1.000000 -0.000000
vn 0.000000 -1.000000 -0.000000
vn 0.000000 -1.000000 0.000001
vn 0.000000 -1.000000 -0.000001
vn 0.000000 -1.000000 -0.000001
vn 0.000000 -1.000000 0.000001
vn 0.000000 -1.000000 0.000001
vn 0.000000 -1.000000 -0.000001
vn 0.000000 -1.000000 -0.000001
vn 0.000000 -1.000000 0.000000
vn 0.000000 -1.000000 0.000000
vn 0.000000 -1.000000 -0.000001
s off
f 1/1/1 2/2/2 7/3/3 6/4/4
f 2/2/5 3/5/6 8/6/7 7/3/8
f 3/5/9 4/7/10 9/8/11 8/6/12
f 4/7/13 5/9/14 10/10/15 9/8/16
f 21/47/17 22/57/18 17/60/19 11/41/20
f 23/61/21 24/62/22 18/63/23 12/64/24
f 15/65/25 20/66/26 27/67/27 28/68/28
f 16/42/29 19/69/30 29/70/31 30/46/32
f 11/19/33 17/30/34 12/34/35 18/33/36 13/26/37
f 14/25/38 20/36/39 15/35/40 19/39/41 16/21/42
f 12/64/43 17/60/44 22/57/45 23/61/46
f 13/52/47 18/63/48 24/62/49 25/53/50
f 28/68/51 29/70/52 19/69/53 15/65/54
f 26/56/55 27/67/56 20/66/57 14/50/58
f 22/29/59 21/24/60 47/44/61 46/43/62
f 23/31/63 22/29/64 46/43/65 45/45/66
f 24/32/67 23/31/68 45/45/69 44/48/70
f 25/27/71 24/32/72 44/48/73 43/49/74
f 27/37/75 26/28/76 42/51/77 41/54/78
f 28/38/79 27/37/80 41/54/81 50/55/82
f 29/40/83 28/38/84 50/55/85 49/58/86
f 30/23/87 29/40/88 49/58/89 48/59/90
f 31/71/91 32/72/92 46/73/93 47/74/94
f 45/75/95 46/73/96 32/72/97 33/76/98
f 33/76/99 34/77/100 44/78/101 45/75/102
f 43/79/103 44/78/104 34/77/105 35/80/106
f 36/82/107 37/83/108 41/84/109 42/81/110
f 50/85/111 41/84/112 37/83/113 38/86/114
f 38/86/115 39/87/116 49/88/117 50/85/118
f 48/89/119 49/88/120 39/87/121 40/90/122
f 7/3/123 32/11/124 31/12/125 6/4/126
f 33/13/127 32/11/128 7/3/129 8/6/130
f 9/8/131 34/14/132 33/13/133 8/6/134
f 35/15/135 34/14/136 9/8/137 10/10/138
f 4/7/139 37/17/140 36/16/141 5/9/142
f 38/18/143 37/17/144 4/7/145 3/5/146
f 2/2/147 39/20/148 38/18/149 3/5/150
f 40/22/151 39/20/152 2/2/153 1/1/154
f 1/91/155 6/94/156 54/93/157 51/92/158
f 51/92/159 54/93/160 55/96/161 52/95/162
f 52/95/163 55/96/164 56/98/165 53/97/166
f 53/97/167 56/98/168 10/100/169 5/99/170
f 21/101/171 11/104/172 59/103/173 63/102/174
f 64/105/175 57/108/176 60/107/177 65/106/178
f 58/109/179 67/112/180 66/111/181 62/110/182
f 16/113/183 30/116/184 68/115/185 61/114/186
f 11/117/187 13/121/188 60/120/189 57/119/190 59/118/191
f 14/122/192 16/126/193 61/125/194 58/124/195 62/123/196
f 57/108/197 64/105/198 63/102/199 59/103/200
f 13/127/201 25/128/202 65/106/203 60/107/204
f 67/112/205 58/109/206 61/114/207 68/115/208
f 26/129/209 14/130/210 62/110/211 66/111/212
f 31/141/213 47/144/214 78/143/215 69/142/216
f 77/145/217 70/146/218 69/142/219 78/143/220
f 70/146/221 77/145/222 76/148/223 71/147/224
f 43/149/225 35/150/226 71/147/227 76/148/228
f 36/151/229 42/154/230 75/153/231 72/152/232
f 80/155/233 73/156/234 72/152/235 75/153/236
f 73/156/237 80/155/238 79/158/239 74/157/240
f 48/159/241 40/160/242 74/157/243 79/158/244
f 54/93/245 6/94/246 31/162/247 69/161/248
f 70/163/249 55/96/250 54/93/251 69/161/252
f 56/98/253 55/96/254 70/163/255 71/164/256
f 35/165/257 10/100/258 56/98/259 71/164/260
f 53/97/261 5/99/262 36/167/263 72/166/264
f 73/168/265 52/95/266 53/97/267 72/166/268
f 51/92/269 52/95/270 73/168/271 74/169/272
f 40/170/273 1/91/274 51/92/275 74/169/276
f 66/136/277 75/172/278 42/171/279 26/137/280
f 25/135/281 43/174/282 76/173/283 65/134/284
f 65/134/285 76/173/286 77/175/287 64/133/288
f 64/133/289 77/175/290 78/176/291 63/131/292
f 63/131/293 78/176/294 47/177/295 21/132/296
f 30/140/297 48/179/298 79/178/299 68/139/300
f 68/139/301 79/178/302 80/180/303 67/138/304
f 67/138/305 80/180/306 75/172/307 66/136/308
