# This file uses centimeters as units for non-parametric coordinates.

v 9.441591 -4.504071 -7.358464
v 2.083127 -4.504071 -10.406440
v -5.275337 -4.504071 -7.358464
v -8.323313 -4.504071 0.000000
v -5.275337 -4.504071 7.358464
v 2.083127 -4.504071 10.406440
v 9.441591 -4.504071 7.358465
v 12.489568 -4.504071 0.000000
v 9.441591 4.504071 -7.358464
v 2.083127 4.504071 -10.406440
v -5.275337 4.504071 -7.358464
v -8.323313 4.504071 0.000000
v -5.275337 4.504071 7.358464
v 2.083127 4.504071 10.406440
v 9.441591 4.504071 7.358465
v 12.489568 4.504071 0.000000
v 5.857721 -4.504071 -3.774595
v 2.083127 -4.504071 -5.338084
v -1.691468 -4.504071 -3.774595
v -3.254957 -4.504071 0.000000
v -1.691468 -4.504071 3.774595
v 2.083127 -4.504071 5.338084
v 5.857722 -4.504071 3.774595
v 7.421212 -4.504071 0.000000
v 5.857721 4.504071 -3.774595
v 2.083127 4.504071 -5.338084
v -1.691468 4.504071 -3.774595
v -3.254957 4.504071 0.000000
v -1.691468 4.504071 3.774595
v 2.083127 4.504071 5.338084
v 5.857722 4.504071 3.774595
v 7.421212 4.504071 0.000000
v 4.865242 -4.504071 -2.782114
v 2.083127 -4.504071 -3.934505
v -0.698987 -4.504071 -2.782114
v -1.851378 -4.504071 0.000000
v -0.698987 -4.504071 2.782114
v 2.083127 -4.504071 3.934505
v 4.865242 -4.504071 2.782115
v 6.017633 -4.504071 0.000000
v 4.865242 4.504071 -2.782114
v 2.083127 4.504071 -3.934505
v -0.698987 4.504071 -2.782114
v -1.851378 4.504071 0.000000
v -0.698987 4.504071 2.782114
v 2.083127 4.504071 3.934505
v 4.865242 4.504071 2.782115
v 6.017633 4.504071 0.000000
v -5.682224 4.504071 6.376153
v -5.685238 -4.504071 6.368876
v -12.082683 4.504071 1.882081
v -12.079667 -4.504071 1.877393
v -12.489568 -4.504071 2.514830
v -12.489568 4.504071 2.514830
v -9.224212 4.504071 3.032749
v -9.223889 -4.504071 3.025471
v -9.267664 -4.504071 3.716083
v -9.267664 4.504071 3.716083
vt 0.113677 0.205915
vt 0.113677 0.205915
vt 0.113677 0.205915
vt 0.113677 0.205915
vt 0.113677 0.205915
vt 0.113677 0.205915
vt 0.113677 0.205915
vt 0.113677 0.205915
vt 0.113677 0.205915
vt 0.113677 0.205915
vt 0.113677 0.205915
vt 0.113677 0.205915
vt 0.113677 0.205915
vt 0.113677 0.205915
vt 0.113677 0.205915
vt 0.113677 0.205915
vt 0.113677 0.205915
vt 0.113677 0.205915
vt 0.113677 0.205915
vt 0.113677 0.205915
vt 0.113677 0.205915
vt 0.113677 0.205915
vt 0.113677 0.205915
vt 0.113677 0.205915
vt 0.113677 0.205915
vt 0.113677 0.205915
vt 0.113677 0.205915
vt 0.113677 0.205915
vt 0.113677 0.205915
vt 0.113677 0.205915
vt 0.113677 0.205915
vt 0.113677 0.205915
vt 0.113677 0.205915
vt 0.113677 0.205915
vt 0.113677 0.205915
vt 0.113677 0.205915
vt 0.113677 0.205915
vt 0.113677 0.205915
vt 0.113677 0.205915
vt 0.113677 0.205915
vt 0.113677 0.205915
vt 0.113677 0.205915
vt 0.006980 0.281201
vt 0.006980 0.281201
vt 0.006980 0.281201
vt 0.006980 0.281201
vt 0.006980 0.281201
vt 0.006980 0.281201
vt 0.006980 0.281201
vt 0.006980 0.281201
vt 0.006980 0.281201
vt 0.006980 0.281201
vt 0.006980 0.281201
vt 0.006980 0.281201
vt 0.006980 0.281201
vt 0.006980 0.281201
vt 0.006980 0.281201
vt 0.006980 0.281201
vt 0.006980 0.281201
vt 0.006980 0.281201
vt 0.006980 0.281201
vt 0.006980 0.281201
vt 0.006980 0.281201
vt 0.006980 0.281201
vt 0.006980 0.281201
vt 0.006980 0.281201
vt 0.006980 0.281201
vt 0.006980 0.281201
vt 0.006980 0.281201
vt 0.006980 0.281201
vt 0.006980 0.281201
vt 0.006980 0.281201
vt 0.006980 0.281201
vt 0.006980 0.281201
vt 0.114176 0.157054
vt 0.114176 0.157054
vt 0.114176 0.157055
vt 0.114176 0.157055
vt 0.114176 0.157054
vt 0.114176 0.157055
vt 0.114176 0.157054
vt 0.114176 0.157055
vt 0.114176 0.157055
vt 0.114176 0.157054
vt 0.114176 0.157054
vt 0.114176 0.157055
vt 0.114176 0.157054
vt 0.114176 0.157054
vt 0.114176 0.157055
vt 0.114176 0.157055
vt 0.114176 0.157054
vt 0.114176 0.157055
vt 0.114176 0.157054
vt 0.114176 0.157055
vt 0.114176 0.157054
vt 0.114176 0.157055
vt 0.114176 0.157055
vt 0.114176 0.157054
vt 0.114176 0.157054
vt 0.114176 0.157055
vn 0.382683 0.000000 -0.923880
vn 0.382683 0.000000 -0.923880
vn 0.382683 0.000000 -0.923880
vn 0.382683 0.000000 -0.923880
vn -0.382683 0.000000 -0.923880
vn -0.382683 0.000000 -0.923880
vn -0.382683 0.000000 -0.923880
vn -0.382683 0.000000 -0.923880
vn -0.923880 0.000000 -0.382683
vn -0.923880 0.000000 -0.382683
vn -0.923880 0.000000 -0.382683
vn -0.923880 0.000000 -0.382683
vn -0.841107 -0.000000 -0.540869
vn -0.841107 -0.000000 -0.540869
vn -0.841107 -0.000000 -0.540869
vn -0.841107 -0.000000 -0.540869
vn -0.382683 0.000000 0.923880
vn -0.382683 0.000000 0.923880
vn -0.382683 0.000000 0.923880
vn -0.382683 0.000000 0.923880
vn 0.382683 0.000000 0.923880
vn 0.382683 0.000000 0.923880
vn 0.382683 0.000000 0.923880
vn 0.382683 0.000000 0.923880
vn 0.923880 0.000000 0.382684
vn 0.923880 0.000000 0.382684
vn 0.923880 0.000000 0.382684
vn 0.923880 0.000000 0.382684
vn 0.923880 0.000000 -0.382684
vn 0.923880 0.000000 -0.382684
vn 0.923880 0.000000 -0.382684
vn 0.923880 0.000000 -0.382684
vn 0.000000 -1.000000 -0.000000
vn 0.000000 -1.000000 -0.000000
vn 0.000000 -1.000000 -0.000000
vn 0.000000 -1.000000 -0.000000
vn 0.000000 -1.000000 0.000000
vn 0.000000 -1.000000 -0.000000
vn 0.000000 -1.000000 -0.000000
vn 0.000000 -1.000000 -0.000000
vn 0.000000 -1.000000 -0.000000
vn 0.000000 -1.000000 0.000000
vn 0.000000 -1.000000 -0.000000
vn 0.000000 -1.000000 -0.000000
vn 0.000000 -1.000000 -0.000000
vn 0.000000 -1.000000 -0.000000
vn 0.000000 -1.000000 -0.000000
vn 0.000000 -1.000000 -0.000000
vn 0.000000 -1.000000 -0.000000
vn 0.000000 -1.000000 -0.000000
vn 0.000000 -1.000000 -0.000000
vn 0.000000 -1.000000 0.000000
vn 0.000000 -1.000000 -0.000000
vn 0.000000 -1.000000 -0.000000
vn 0.000000 -1.000000 -0.000000
vn 0.000000 -1.000000 0.000000
vn 0.000000 -1.000000 0.000000
vn 0.000000 -1.000000 -0.000000
vn 0.000000 -1.000000 -0.000000
vn 0.000000 -1.000000 -0.000000
vn 0.000000 -1.000000 0.000000
vn 0.000000 -1.000000 -0.000000
vn 0.000000 -1.000000 -0.000000
vn 0.000000 1.000000 0.000000
vn 0.000000 1.000000 0.000000
vn 0.000000 1.000000 0.000000
vn 0.000000 1.000000 0.000000
vn 0.000000 1.000000 0.000000
vn 0.000000 1.000000 0.000000
vn 0.000000 1.000000 0.000000
vn 0.000000 1.000000 0.000000
vn 0.000000 1.000000 0.000000
vn 0.000000 1.000000 0.000000
vn 0.000000 1.000000 0.000000
vn 0.000000 1.000000 0.000000
vn 0.000000 1.000000 0.000000
vn 0.000000 1.000000 0.000000
vn 0.000000 1.000000 0.000000
vn 0.000000 1.000000 0.000000
vn 0.000000 1.000000 0.000000
vn 0.000000 1.000000 0.000000
vn 0.000000 1.000000 0.000000
vn 0.000000 1.000000 0.000000
vn 0.000000 1.000000 -0.000000
vn 0.000000 1.000000 -0.000000
vn 0.000000 1.000000 0.000000
vn 0.000000 1.000000 -0.000000
vn 0.000000 1.000000 -0.000000
vn 0.000000 1.000000 -0.000000
vn 0.000000 1.000000 -0.000000
vn 0.000000 1.000000 -0.000000
vn 0.000000 1.000000 0.000000
vn 0.000000 1.000000 0.000000
vn 0.000000 1.000000 -0.000000
vn 0.000000 -1.000000 -0.000000
vn 0.000000 -1.000000 -0.000000
vn 0.000000 -1.000000 0.000000
vn 0.000000 -1.000000 -0.000000
vn 0.000000 -1.000000 -0.000000
vn 0.000000 -1.000000 -0.000000
vn 0.000000 -1.000000 -0.000000
vn 0.000000 -1.000000 -0.000000
vn 0.000000 -1.000000 -0.000000
vn 0.000000 -1.000000 -0.000000
vn 0.000000 -1.000000 -0.000000
vn 0.000000 -1.000000 -0.000000
vn 0.000000 -1.000000 -0.000000
vn 0.000000 -1.000000 -0.000000
vn 0.000000 -1.000000 -0.000000
vn 0.000000 -1.000000 0.000000
vn 0.000000 -1.000000 -0.000000
vn 0.000000 -1.000000 -0.000000
vn 0.000000 -1.000000 0.000000
vn 0.000000 -1.000000 0.000000
vn 0.000000 -1.000000 -0.000000
vn 0.000000 -1.000000 -0.000000
vn 0.000000 -1.000000 0.000000
vn 0.000000 -1.000000 -0.000000
vn 0.000000 -1.000000 -0.000000
vn 0.000000 -1.000000 -0.000000
vn 0.000000 -1.000000 -0.000000
vn 0.000000 -1.000000 -0.000000
vn 0.000000 -1.000000 -0.000000
vn 0.000000 -1.000000 -0.000000
vn 0.000000 -1.000000 -0.000000
vn 0.000000 -1.000000 0.000000
vn 0.000000 1.000000 0.000000
vn 0.000000 1.000000 0.000000
vn 0.000000 1.000000 -0.000000
vn 0.000000 1.000000 0.000000
vn 0.000000 1.000000 0.000000
vn 0.000000 1.000000 0.000000
vn 0.000000 1.000000 -0.000000
vn 0.000000 1.000000 -0.000000
vn 0.000000 1.000000 0.000000
vn 0.000000 1.000000 0.000000
vn 0.000000 1.000000 0.000000
vn 0.000000 1.000000 -0.000000
vn 0.000000 1.000000 0.000000
vn 0.000000 1.000000 0.000000
vn 0.000000 1.000000 0.000000
vn 0.000000 1.000000 0.000000
vn 0.000000 1.000000 0.000000
vn 0.000000 1.000000 0.000000
vn 0.000000 1.000000 0.000000
vn 0.000000 1.000000 0.000000
vn 0.000000 1.000000 0.000000
vn 0.000000 1.000000 -0.000000
vn 0.000000 1.000000 -0.000000
vn 0.000000 1.000000 0.000000
vn 0.000000 1.000000 -0.000000
vn 0.000000 1.000000 -0.000000
vn 0.000000 1.000000 -0.000000
vn 0.000000 1.000000 -0.000000
vn 0.000000 1.000000 -0.000000
vn 0.000000 1.000000 0.000000
vn 0.000000 1.000000 0.000000
vn 0.000000 1.000000 -0.000000
vn -0.382684 0.000000 0.923879
vn -0.382684 0.000000 0.923879
vn -0.382684 0.000000 0.923879
vn -0.382684 0.000000 0.923879
vn -0.923879 0.000000 0.382684
vn -0.923879 0.000000 0.382684
vn -0.923879 0.000000 0.382684
vn -0.923879 0.000000 0.382684
vn -0.923879 0.000000 -0.382684
vn -0.923879 0.000000 -0.382684
vn -0.923879 0.000000 -0.382684
vn -0.923879 0.000000 -0.382684
vn -0.382684 0.000000 -0.923879
vn -0.382684 0.000000 -0.923879
vn -0.382684 0.000000 -0.923879
vn -0.382684 0.000000 -0.923879
vn 0.382684 0.000000 -0.923879
vn 0.382684 0.000000 -0.923879
vn 0.382684 0.000000 -0.923879
vn 0.382684 0.000000 -0.923879
vn 0.923879 0.000000 -0.382684
vn 0.923879 0.000000 -0.382684
vn 0.923879 0.000000 -0.382684
vn 0.923879 0.000000 -0.382684
vn 0.923879 0.000000 0.382684
vn 0.923879 0.000000 0.382684
vn 0.923879 0.000000 0.382684
vn 0.923879 0.000000 0.382684
vn 0.382684 0.000000 0.923879
vn 0.382684 0.000000 0.923879
vn 0.382684 0.000000 0.923879
vn 0.382684 0.000000 0.923879
vn 0.000000 1.000000 0.000000
vn 0.000000 1.000000 0.000000
vn 0.000000 1.000000 0.000000
vn 0.000000 1.000000 0.000000
vn -0.923880 -0.000000 0.382683
vn -0.923880 -0.000000 0.382683
vn -0.923880 -0.000000 0.382683
vn -0.923880 -0.000000 0.382683
vn 0.000000 -1.000000 -0.000000
vn 0.000000 -1.000000 -0.000000
vn 0.000000 -1.000000 -0.000000
vn 0.000000 -1.000000 -0.000000
vn 0.574749 0.000572 -0.818329
vn 0.574675 0.000572 -0.818382
vn 0.373216 0.000685 -0.927744
vn 0.373216 0.000685 -0.927744
vn 0.000000 -1.000000 0.000000
vn 0.000000 -1.000000 0.000000
vn 0.000000 -1.000000 0.000000
vn 0.000000 -1.000000 0.000000
vn -0.557418 0.000000 0.830232
vn -0.557418 0.000000 0.830232
vn -0.349348 0.000000 0.936993
vn -0.349348 0.000000 0.936993
vn 0.000000 1.000000 0.000000
vn 0.000000 1.000000 0.000000
vn 0.000000 1.000000 0.000000
vn 0.000000 1.000000 0.000000
vn 0.686598 0.000485 -0.727037
vn 0.686598 0.000485 -0.727037
vn 0.574675 0.000572 -0.818382
vn 0.574749 0.000572 -0.818329
vn 0.000000 -1.000000 0.000000
vn 0.000000 -1.000000 0.000000
vn 0.000000 -1.000000 0.000000
vn 0.000000 -1.000000 0.000000
vn -0.673988 0.000000 0.738742
vn -0.673988 0.000000 0.738742
vn -0.557418 0.000000 0.830232
vn -0.557418 0.000000 0.830232
vn 0.000000 1.000000 0.000000
vn 0.000000 1.000000 0.000000
vn 0.000000 1.000000 0.000000
vn 0.000000 1.000000 0.000000
s off
f 1/75/1 2/76/2 10/77/3 9/78/4
f 2/76/5 3/79/6 11/80/7 10/77/8
f 3/79/9 4/81/10 12/82/11 11/80/12
f 51/83/13 52/84/14 53/85/15 54/86/16
f 5/87/17 6/88/18 14/89/19 13/90/20
f 6/88/21 7/91/22 15/92/23 14/89/24
f 7/91/25 8/93/26 16/94/27 15/92/28
f 8/93/29 1/75/30 9/78/31 16/94/32
f 2/2/33 1/1/34 17/21/35 18/22/36
f 3/5/37 2/2/38 18/22/39 19/23/40
f 4/7/41 3/5/42 19/23/43 20/24/44
f 5/13/45 50/25/46 21/26/47
f 6/14/48 5/13/49 21/26/50 22/27/51
f 7/17/52 6/14/53 22/27/54 23/28/55
f 8/19/56 7/17/57 23/28/58 24/29/59
f 1/1/60 8/19/61 24/29/62 17/21/63
f 9/4/64 10/3/65 26/30/66 25/31/67
f 10/3/68 11/6/69 27/32/70 26/30/71
f 11/6/72 12/8/73 28/33/74 27/32/75
f 29/34/76 49/35/77 13/16/78
f 13/16/79 14/15/80 30/36/81 29/34/82
f 14/15/83 15/18/84 31/37/85 30/36/86
f 15/18/87 16/20/88 32/38/89 31/37/90
f 16/20/91 9/4/92 25/31/93 32/38/94
f 18/74/95 17/73/96 33/72/97 34/71/98
f 19/70/99 18/74/100 34/71/101 35/69/102
f 20/68/103 19/70/104 35/69/105 36/67/106
f 21/66/107 20/68/108 36/67/109 37/65/110
f 22/64/111 21/66/112 37/65/113 38/63/114
f 23/62/115 22/64/116 38/63/117 39/61/118
f 24/60/119 23/62/120 39/61/121 40/59/122
f 17/73/123 24/60/124 40/59/125 33/72/126
f 25/58/127 26/57/128 42/56/129 41/55/130
f 26/57/131 27/54/132 43/53/133 42/56/134
f 27/54/135 28/52/136 44/51/137 43/53/138
f 28/52/139 29/50/140 45/49/141 44/51/142
f 29/50/143 30/48/144 46/47/145 45/49/146
f 30/48/147 31/46/148 47/45/149 46/47/150
f 31/46/151 32/44/152 48/43/153 47/45/154
f 32/44/155 25/58/156 41/55/157 48/43/158
f 34/71/159 33/72/160 41/55/161 42/56/162
f 33/72/163 40/59/164 48/43/165 41/55/166
f 40/59/167 39/61/168 47/45/169 48/43/170
f 39/61/171 38/63/172 46/47/173 47/45/174
f 38/63/175 37/65/176 45/49/177 46/47/178
f 37/65/179 36/67/180 44/51/181 45/49/182
f 36/67/183 35/69/184 43/53/185 44/51/186
f 35/69/187 34/71/188 42/56/189 43/53/190
f 12/8/191 49/35/192 29/34/193 28/33/194
f 4/81/195 50/95/196 49/96/197 12/82/198
f 21/26/199 50/25/200 4/7/201 20/24/202
f 55/97/203 56/98/204 52/84/205 51/83/206
f 56/40/207 57/41/208 53/11/209 52/10/210
f 57/99/211 58/100/212 54/86/213 53/85/214
f 58/42/215 55/39/216 51/9/217 54/12/218
f 49/96/219 50/95/220 56/98/221 55/97/222
f 50/25/223 5/13/224 57/41/225 56/40/226
f 5/87/227 13/90/228 58/100/229 57/99/230
f 13/16/231 49/35/232 55/39/233 58/42/234
