# This file uses centimeters as units for non-parametric coordinates.

v -7.569844 0.000000 10.510719
v 7.569844 0.000000 10.510719
v -7.569844 7.883040 10.510719
v 7.569844 7.883040 10.510719
v -7.569844 7.883040 -10.510719
v 7.569844 7.883040 -10.510719
v -7.569844 0.000000 -10.510719
v 7.569844 0.000000 -10.510719
v 3.240868 0.000000 10.510719
v 3.240868 0.000000 -10.510719
v 3.240868 7.883040 -10.510719
v 3.240868 7.883040 10.510719
v -7.569844 7.883040 0.000000
v 3.240868 7.883040 0.000000
v 7.569844 7.883040 0.000000
v 7.569844 0.000000 0.000000
v 3.240868 0.000000 0.000000
v -7.569844 0.000000 0.000000
v -6.602541 7.883040 -0.940443
v -3.533910 7.883040 -0.940443
v -3.533910 7.883040 -9.570284
v -6.602541 7.883040 -9.570284
v -4.894386 7.883040 7.785757
v -0.013519 7.883040 7.785757
v -0.013519 7.883040 2.724962
v -4.894386 7.883040 2.724962
v -2.454013 7.883040 8.629219
v 0.799980 7.883040 5.255363
v -2.454013 7.883040 1.881501
v -5.707884 7.883040 5.255363
v -4.340997 7.883040 7.211983
v -4.970032 7.883040 5.255363
v -2.454013 7.883040 7.864197
v -0.566908 7.883040 7.211983
v 0.062127 7.883040 5.255363
v -0.566908 7.883040 3.298737
v -2.454013 7.883040 2.646523
v -4.340997 7.883040 3.298737
v -6.282123 6.719938 -10.510719
v 1.953146 6.719938 -10.510719
v 1.953146 4.422351 -10.510719
v -6.282123 4.422351 -10.510719
v -3.124682 7.883040 5.950817
v -3.348320 7.883040 5.255363
v -2.454013 7.883040 6.182634
v -2.454013 7.883040 5.255363
v -1.783221 7.883040 5.950817
v -1.559706 7.883040 5.255363
v -1.783221 7.883040 4.559902
v -2.454013 7.883040 4.328085
v -3.124682 7.883040 4.559902
v 4.275593 7.883040 3.779301
v 6.535241 7.883040 3.779301
v 4.275593 7.883040 9.519877
v 6.535241 7.883040 9.519876
v -6.282123 4.422351 10.510719
v -6.282123 6.719938 10.510719
v 1.953146 6.719938 10.510719
v 1.953146 4.422351 10.510719
vt 0.113386 0.182338
vt 0.075674 0.226063
vt 0.113386 0.182338
vt 0.075674 0.226063
vt 0.113386 0.182338
vt 0.075674 0.226063
vt 0.113386 0.182338
vt 0.075674 0.226063
vt 0.113386 0.182338
vt 0.075674 0.226063
vt 0.075674 0.226063
vt 0.075674 0.226063
vt 0.113386 0.182338
vt 0.113386 0.182338
vt 0.113386 0.182338
vt 0.075674 0.226063
vt 0.113386 0.182338
vt 0.075674 0.226063
vt 0.113386 0.182338
vt 0.075674 0.226063
vt 0.075674 0.226063
vt 0.075674 0.226063
vt 0.113386 0.182338
vt 0.113386 0.182338
vt 0.113386 0.182338
vt 0.113386 0.182338
vt 0.113386 0.182338
vt 0.113386 0.182338
vt 0.138688 0.403365
vt 0.138687 0.403365
vt 0.138687 0.403365
vt 0.138688 0.403365
vt 0.113386 0.182338
vt 0.113386 0.182338
vt 0.113386 0.182338
vt 0.113386 0.182338
vt 0.219751 0.467337
vt 0.113386 0.182338
vt 0.113386 0.182338
vt 0.113386 0.182338
vt 0.113386 0.182338
vt 0.135757 0.398971
vt 0.135757 0.398971
vt 0.135757 0.398971
vt 0.135757 0.398971
vt 0.135757 0.398971
vt 0.135757 0.398971
vt 0.135757 0.398971
vt 0.135757 0.398971
vt 0.219751 0.467337
vt 0.219751 0.467337
vt 0.137711 0.399947
vt 0.219751 0.467337
vt 0.219751 0.467337
vt 0.219751 0.467337
vt 0.219751 0.467337
vt 0.219751 0.467337
vt 0.135757 0.398971
vt 0.135757 0.398971
vt 0.135757 0.398971
vt 0.135757 0.398971
vt 0.135757 0.398971
vt 0.135757 0.398971
vt 0.135757 0.398971
vt 0.135757 0.398971
vt 0.113386 0.182338
vt 0.113386 0.182338
vt 0.113386 0.182338
vt 0.113386 0.182338
vt 0.139176 0.400924
vt 0.139176 0.400924
vt 0.139176 0.400924
vt 0.139176 0.400924
vt 0.219751 0.467337
vt 0.219751 0.467337
vt 0.219751 0.467337
vt 0.219751 0.467337
vt 0.219751 0.467337
vt 0.219751 0.467337
vt 0.219751 0.467337
vt 0.219751 0.467337
vt 0.137711 0.399947
vt 0.137711 0.399947
vt 0.137711 0.399947
vt 0.137711 0.399947
vt 0.137711 0.399947
vt 0.137711 0.399947
vt 0.137711 0.399947
vt 0.137711 0.399947
vt 0.075674 0.226063
vt 0.075674 0.226063
vt 0.075674 0.226063
vt 0.075674 0.226063
vt 0.102551 0.380414
vt 0.102551 0.380414
vt 0.102551 0.380414
vt 0.102551 0.380414
vt 0.113386 0.182338
vt 0.113386 0.182338
vt 0.113386 0.182338
vt 0.137222 0.401412
vt 0.113386 0.182338
vt 0.137222 0.401412
vt 0.137222 0.401412
vt 0.137222 0.401412
vn 0.000000 1.000000 0.000000
vn 0.000000 1.000000 0.000000
vn 0.000000 1.000000 0.000000
vn 0.000000 1.000000 0.000000
vn 0.000000 0.000000 -1.000000
vn 0.000000 0.000000 -1.000000
vn 0.000000 0.000000 -1.000000
vn 0.000000 0.000000 -1.000000
vn 0.000000 -1.000000 0.000000
vn 0.000000 -1.000000 0.000000
vn 0.000000 -1.000000 0.000000
vn 0.000000 -1.000000 0.000000
vn 1.000000 0.000000 0.000000
vn 1.000000 0.000000 0.000000
vn 1.000000 0.000000 0.000000
vn 1.000000 0.000000 0.000000
vn -1.000000 0.000000 0.000000
vn -1.000000 0.000000 0.000000
vn -1.000000 0.000000 0.000000
vn -1.000000 0.000000 0.000000
vn 0.000000 -1.000000 0.000000
vn 0.000000 -1.000000 0.000000
vn 0.000000 -1.000000 0.000000
vn 0.000000 -1.000000 0.000000
vn 0.000000 0.000000 -1.000000
vn 0.000000 0.000000 -1.000000
vn 0.000000 0.000000 -1.000000
vn 0.000000 0.000000 -1.000000
vn 0.000000 1.000000 0.000000
vn 0.000000 1.000000 0.000000
vn 0.000000 1.000000 0.000000
vn 0.000000 1.000000 0.000000
vn 0.000000 1.000000 0.000000
vn 0.000000 1.000000 0.000000
vn 0.000000 1.000000 0.000000
vn 0.000000 1.000000 0.000000
vn 0.000000 1.000000 0.000000
vn 0.000000 1.000000 0.000000
vn 0.000000 1.000000 0.000000
vn 0.000000 1.000000 0.000000
vn 1.000000 0.000000 0.000000
vn 1.000000 0.000000 0.000000
vn 1.000000 0.000000 0.000000
vn 1.000000 0.000000 0.000000
vn 0.000000 -1.000000 0.000000
vn 0.000000 -1.000000 0.000000
vn 0.000000 -1.000000 0.000000
vn 0.000000 -1.000000 0.000000
vn 0.000000 -1.000000 0.000000
vn 0.000000 -1.000000 0.000000
vn 0.000000 -1.000000 0.000000
vn 0.000000 -1.000000 0.000000
vn -1.000000 0.000000 0.000000
vn -1.000000 0.000000 0.000000
vn -1.000000 0.000000 0.000000
vn -1.000000 0.000000 0.000000
vn 0.000000 1.000000 -0.000001
vn 0.000000 1.000000 -0.000001
vn 0.000000 1.000000 -0.000001
vn 0.000000 1.000000 -0.000001
vn 0.000000 1.000000 0.000000
vn 0.000000 1.000000 0.000000
vn 0.000000 1.000000 0.000000
vn 0.000000 1.000000 0.000000
vn 0.000000 1.000000 0.000001
vn 0.000000 1.000000 0.000001
vn 0.000000 1.000000 0.000001
vn 0.000000 1.000000 0.000001
vn 0.000000 1.000000 0.000000
vn 0.000000 1.000000 0.000000
vn 0.000000 1.000000 0.000000
vn 0.000000 1.000000 0.000000
vn 0.000000 1.000000 -0.000000
vn 0.000000 1.000000 -0.000000
vn 0.000000 1.000000 -0.000000
vn 0.000000 1.000000 0.000000
vn 0.000000 1.000000 0.000000
vn 0.000000 1.000000 0.000000
vn 0.000000 1.000000 0.000000
vn 0.000000 1.000000 0.000000
vn 0.000000 1.000000 0.000000
vn 0.000000 1.000000 0.000000
vn 0.000000 1.000000 0.000000
vn 0.000000 1.000000 0.000000
vn 0.000000 1.000000 0.000000
vn 0.000000 1.000000 0.000000
vn 0.000000 1.000000 0.000000
vn 0.000000 1.000000 0.000000
vn 0.000000 1.000000 0.000000
vn 0.000000 1.000000 0.000000
vn 0.000000 1.000000 0.000000
vn 0.000000 1.000000 0.000000
vn 0.000000 1.000000 0.000000
vn 0.000000 1.000000 0.000000
vn 0.000000 1.000000 0.000000
vn 0.000000 1.000000 0.000000
vn 0.000000 1.000000 -0.000000
vn 0.000000 1.000000 -0.000000
vn 0.000000 1.000000 -0.000000
vn 0.000000 1.000000 -0.000000
vn 0.000000 1.000000 0.000000
vn 0.000000 1.000000 0.000000
vn 0.000000 1.000000 0.000000
vn 0.000000 1.000000 0.000000
vn 0.000000 1.000000 0.000000
vn 0.000000 1.000000 0.000000
vn 0.000000 1.000000 0.000000
vn 0.000000 1.000000 0.000000
vn 0.000000 1.000000 0.000000
vn 0.000000 1.000000 0.000000
vn 0.000000 1.000000 0.000000
vn 0.000000 1.000000 0.000000
vn 0.000000 1.000000 0.000000
vn 0.000000 1.000000 0.000000
vn 0.000000 1.000000 0.000000
vn 0.000000 1.000000 0.000000
vn 0.000000 1.000000 0.000000
vn 0.000000 1.000000 0.000000
vn 0.000000 1.000000 0.000000
vn 0.000000 1.000000 0.000000
vn 0.000000 1.000000 -0.000001
vn 0.000000 1.000000 -0.000001
vn 0.000000 1.000000 -0.000001
vn 0.000000 1.000000 -0.000001
vn 0.000000 1.000000 0.000000
vn 0.000000 1.000000 0.000000
vn 0.000000 1.000000 0.000000
vn 0.000000 1.000000 0.000000
vn 0.000000 0.000000 -1.000000
vn 0.000000 0.000000 -1.000000
vn 0.000000 0.000000 -1.000000
vn 0.000000 0.000000 -1.000000
vn 0.000001 0.000000 -1.000000
vn 0.000001 0.000000 -1.000000
vn 0.000000 0.000000 -1.000000
vn 0.000000 0.000000 -1.000000
vn 0.000000 0.000000 -1.000000
vn 0.000000 0.000000 -1.000000
vn 0.000000 0.000000 -1.000000
vn 0.000000 0.000000 -1.000000
vn -0.000001 0.000000 -1.000000
vn -0.000001 0.000000 -1.000000
vn 0.000000 0.000000 -1.000000
vn 0.000000 0.000000 -1.000000
vn 0.000000 1.000000 0.000000
vn 0.000000 1.000000 0.000000
vn 0.000000 1.000000 0.000000
vn 0.000000 1.000000 0.000000
vn 0.000000 1.000000 0.000000
vn 0.000000 1.000000 0.000000
vn 0.000000 1.000000 0.000000
vn 0.000000 1.000000 0.000000
vn 0.000000 1.000000 -0.000000
vn 0.000000 1.000000 -0.000000
vn 0.000000 1.000000 0.000000
vn 0.000000 1.000000 0.000000
vn 0.000000 1.000000 0.000000
vn 0.000000 1.000000 0.000000
vn 0.000000 1.000000 0.000000
vn 0.000000 1.000000 0.000000
vn 0.000000 1.000000 0.000000
vn 0.000000 1.000000 0.000000
vn 0.000000 1.000000 0.000000
vn 0.000000 1.000000 0.000000
vn 0.000000 1.000000 0.000000
vn 0.000000 1.000000 0.000000
vn 0.000000 1.000000 0.000000
vn 0.000000 1.000000 0.000000
vn 0.000000 1.000000 -0.000000
vn 0.000000 1.000000 -0.000000
vn 0.000000 1.000000 0.000000
vn 0.000000 1.000000 0.000000
vn 0.000000 1.000000 0.000000
vn 0.000000 1.000000 0.000000
vn 0.000000 1.000000 0.000000
vn 0.000000 1.000000 0.000000
vn 0.000000 1.000000 -0.000000
vn 0.000000 1.000000 -0.000000
vn 0.000000 1.000000 0.000000
vn 0.000000 1.000000 0.000000
vn 0.000000 1.000000 0.000000
vn 0.000000 1.000000 0.000000
vn 0.000000 1.000000 0.000000
vn 0.000000 1.000000 0.000000
vn 0.000000 1.000000 0.000001
vn 0.000000 1.000000 0.000001
vn 0.000000 1.000000 0.000000
vn 0.000000 1.000000 0.000000
vn 0.000000 1.000000 0.000000
vn 0.000000 1.000000 0.000000
vn 0.000000 1.000000 0.000000
vn 0.000000 1.000000 0.000000
vn 0.000000 0.000000 1.000000
vn 0.000000 0.000000 1.000000
vn 0.000000 0.000000 1.000000
vn 0.000000 0.000000 1.000000
vn -0.000001 0.000000 1.000000
vn -0.000001 0.000000 1.000000
vn -0.000001 0.000000 1.000000
vn -0.000001 0.000000 1.000000
vn 0.000000 0.000000 1.000000
vn 0.000000 0.000000 1.000000
vn 0.000000 0.000000 1.000000
vn 0.000000 0.000000 1.000000
vn 0.000000 0.000000 1.000000
vn 0.000000 0.000000 1.000000
vn 0.000000 0.000000 1.000000
vn 0.000000 0.000000 1.000000
vn 0.000000 0.000000 1.000000
vn 0.000000 0.000000 1.000000
vn 0.000000 0.000000 1.000000
vn 0.000000 0.000000 1.000000
vn 0.000000 0.000000 1.000000
vn 0.000000 0.000000 1.000000
vn 0.000000 0.000000 1.000000
vn 0.000000 0.000000 1.000000
vn 0.000000 1.000000 -0.000000
vn 0.000000 1.000000 -0.000000
vn 0.000000 1.000000 -0.000000
vn 0.000000 1.000000 -0.000000
vn 0.000000 1.000000 -0.000000
vn 0.000000 1.000000 -0.000000
vn 0.000000 1.000000 0.000000
vn 0.000000 1.000000 0.000000
vn 0.000000 1.000000 0.000000
vn 0.000000 1.000000 0.000000
vn 0.000000 1.000000 0.000000
vn 0.000000 1.000000 0.000000
vn 0.000000 1.000000 0.000000
vn 0.000000 1.000000 0.000000
vn 0.000000 1.000000 0.000000
vn 0.000000 1.000000 0.000000
vn 0.000000 1.000000 0.000000
vn 0.000000 1.000000 0.000000
vn 0.000000 1.000000 0.000000
vn 0.000000 1.000000 0.000000
vn 0.000000 1.000000 0.000000
vn 0.000000 1.000000 0.000000
vn 0.000000 1.000000 0.000000
vn 0.000000 1.000000 0.000000
s off
f 11/10/1 14/18/2 15/20/3 6/11/4
f 10/12/5 11/10/6 6/11/7 8/16/8
f 16/21/9 17/22/10 10/12/11 8/16/12
f 15/20/13 16/21/14 8/16/15 6/11/16
f 7/1/17 18/24/18 13/17/19 5/7/20
f 10/9/21 17/23/22 18/24/23 7/1/24
f 40/71/25 41/72/26 42/73/27 39/70/28
f 20/30/29 21/31/30 22/32/31 19/29/32
f 44/52/33 43/82/34 45/83/35 46/84/36
f 53/94/37 52/95/38 54/96/39 55/97/40
f 2/6/41 16/21/42 15/20/43 4/8/44
f 9/4/45 17/22/46 16/21/47 2/6/48
f 17/23/49 9/13/50 1/3/51 18/24/52
f 13/17/53 18/24/54 1/3/55 3/5/56
f 13/17/57 14/19/58 20/26/59 19/25/60
f 14/19/61 11/14/62 21/27/63 20/26/64
f 21/27/65 11/14/66 5/7/67 22/28/68
f 5/7/69 13/17/70 19/25/71 22/28/72
f 3/5/73 27/38/74 23/33/75
f 12/15/76 28/39/77 24/34/78
f 14/19/79 29/40/80 25/35/81
f 13/17/82 30/41/83 26/36/84
f 45/83/85 47/85/86 48/86/87 46/84/88
f 48/86/89 49/87/90 50/88/91 46/84/92
f 50/88/93 51/89/94 44/52/95 46/84/96
f 30/42/97 23/43/98 31/44/99 32/45/100
f 23/43/101 27/46/102 33/47/103 31/44/104
f 27/46/105 24/48/106 34/49/107 33/47/108
f 24/48/109 28/58/110 35/59/111 34/49/112
f 28/58/113 25/60/114 36/61/115 35/59/116
f 25/60/117 29/62/118 37/63/119 36/61/120
f 29/62/121 26/64/122 38/65/123 37/63/124
f 26/64/125 30/42/126 32/45/127 38/65/128
f 11/14/129 40/67/130 39/66/131 5/7/132
f 11/14/133 10/9/134 41/68/135 40/67/136
f 41/68/137 10/9/138 7/1/139 42/69/140
f 7/1/141 5/7/142 39/66/143 42/69/144
f 32/37/145 31/50/146 43/75/147 44/74/148
f 31/50/149 33/51/150 45/76/151 43/75/152
f 33/51/153 34/53/154 47/77/155 45/76/156
f 34/53/157 35/54/158 48/78/159 47/77/160
f 35/54/161 36/55/162 49/79/163 48/78/164
f 36/55/165 37/56/166 50/80/167 49/79/168
f 37/56/169 38/57/170 51/81/171 50/80/172
f 38/57/173 32/37/174 44/74/175 51/81/176
f 15/20/177 14/18/178 52/91/179 53/90/180
f 14/18/181 12/2/182 54/92/183 52/91/184
f 12/2/185 4/8/186 55/93/187 54/92/188
f 4/8/189 15/20/190 53/90/191 55/93/192
f 58/100/193 12/15/194 3/5/195 57/99/196
f 3/5/197 1/3/198 56/98/199 57/99/200
f 9/4/201 2/6/202 4/8/203 12/2/204
f 59/101/205 58/103/206 57/104/207 56/105/208
f 9/13/209 12/15/210 58/100/211 59/102/212
f 9/13/213 59/102/214 56/98/215 1/3/216
f 27/38/217 12/15/218 24/34/219
f 3/5/220 12/15/221 27/38/222
f 28/39/223 14/19/224 25/35/225
f 12/15/226 14/19/227 28/39/228
f 29/40/229 13/17/230 26/36/231
f 14/19/232 13/17/233 29/40/234
f 30/41/235 3/5/236 23/33/237
f 13/17/238 3/5/239 30/41/240
