# This file uses centimeters as units for non-parametric coordinates.

v 3.132016 0.000000 -5.424846
v -3.132082 0.000000 -5.424846
v -6.264132 0.000000 0.000000
v -3.132082 0.000000 5.424846
v 3.132016 0.000000 5.424846
v 6.264065 0.000000 0.000000
v 1.394825 54.550259 -2.415869
v -1.394859 54.550259 -2.415869
v -2.789717 54.550259 -0.000000
v -1.394859 54.550259 2.415907
v 1.394825 54.550259 2.415907
v 2.789651 54.550259 -0.000000
v -0.000033 0.000000 0.000000
v -0.000033 54.550259 -0.000000
v -1.718250 32.915138 2.976029
v 1.718216 32.915138 2.976029
v 3.436399 32.915138 -0.000000
v 1.718216 32.915138 -2.975996
v -1.718216 32.915138 -2.975996
v -3.436433 32.915138 -0.000000
v -3.855926 20.857504 6.678598
v 3.855859 20.857504 6.678598
v 7.711751 20.857504 -0.000000
v 3.855859 20.857504 -6.678565
v -3.855926 20.857504 -6.678565
v -7.711818 20.857504 -0.000000
v -3.855926 2.223292 6.678598
v 3.855859 2.223292 6.678598
v 7.711751 2.223292 0.000000
v 3.855859 2.223292 -6.678565
v -3.855926 2.223292 -6.678565
v -7.711818 2.223292 0.000000
v -1.339601 47.076149 -2.320293
v 1.339568 47.076149 -2.320293
v 2.679202 47.076149 -0.000000
v 1.339568 47.076149 2.320293
v -1.339601 47.076149 2.320293
v -2.679235 47.076149 -0.000000
v 1.824171 47.592667 -3.159721
v 3.648510 47.592667 -0.000000
v 1.824171 47.592667 3.159721
v -1.824238 47.592667 3.159721
v -3.648576 47.592667 -0.000000
v -1.824238 47.592667 -3.159721
v -1.751071 51.741642 -3.033005
v 1.751038 51.741642 -3.033005
v 3.502209 51.741642 -0.000000
v 1.751038 51.741642 3.033005
v -1.751071 51.741642 3.033005
v -3.502243 51.741642 -0.000000
v 7.711751 16.306959 -0.000000
v 3.855859 16.306959 6.678598
v -3.855926 16.306959 6.678598
v -7.711818 16.306959 -0.000000
v -3.855926 16.306959 -6.678565
v 3.855859 16.306959 -6.678565
v -3.855926 5.534084 -6.678565
v -7.711818 5.534084 -0.000000
v -3.855926 5.534084 6.678598
v 3.855793 5.534084 6.678598
v 7.711751 5.534084 -0.000000
v 3.855793 5.534084 -6.678565
v 5.783822 16.306959 3.339332
v 5.783822 5.534084 3.339332
v 5.783822 5.534084 -3.339332
v 5.783822 16.306959 -3.339332
v -5.783855 16.306959 -3.339332
v -5.783855 5.534084 -3.339332
v -5.783855 5.534084 3.339332
v -5.783855 16.306959 3.339332
v -2.958853 12.596498 6.678598
v 2.958753 12.596498 6.678598
v 2.958786 14.056810 6.678598
v -2.958853 14.056810 6.678598
v -1.574446 36.946331 -2.727003
v -3.148893 36.946331 -0.000000
v -1.574480 36.946331 2.727036
v 1.574380 36.946331 2.727036
v 3.148826 36.946331 -0.000000
v 1.574380 36.946331 -2.727003
vt 0.122943 0.178974
vt 0.122943 0.178974
vt 0.122943 0.178974
vt 0.122943 0.178974
vt 0.122943 0.178974
vt 0.122943 0.178974
vt 0.122943 0.178974
vt 0.122943 0.178974
vt 0.122943 0.178974
vt 0.122943 0.178974
vt 0.122943 0.178974
vt 0.122943 0.178974
vt 0.122943 0.178974
vt 0.133392 0.182693
vt 0.133392 0.182693
vt 0.133392 0.182693
vt 0.133392 0.182693
vt 0.133392 0.182693
vt 0.133392 0.182693
vt 0.133392 0.182693
vt 0.133392 0.182693
vt 0.133392 0.182693
vt 0.133392 0.182693
vt 0.133392 0.182693
vt 0.133392 0.182693
vt 0.133392 0.158909
vt 0.122943 0.178974
vt 0.133392 0.158909
vt 0.122943 0.178974
vt 0.122943 0.178974
vt 0.122943 0.178974
vt 0.122943 0.178974
vt 0.122943 0.178974
vt 0.122943 0.178974
vt 0.122943 0.178974
vt 0.122943 0.178974
vt 0.122943 0.178974
vt 0.122943 0.178974
vt 0.122943 0.178974
vt 0.122943 0.178974
vt 0.122943 0.178974
vt 0.122943 0.178974
vt 0.122943 0.178974
vt 0.122943 0.178974
vt 0.122943 0.178974
vt 0.122943 0.178974
vt 0.122943 0.178974
vt 0.122943 0.178974
vt 0.122943 0.178974
vt 0.133392 0.158909
vt 0.133392 0.158909
vt 0.133392 0.158909
vt 0.133392 0.158909
vt 0.133392 0.158909
vt 0.133392 0.158909
vt 0.133392 0.158909
vt 0.133392 0.158909
vt 0.133392 0.158909
vt 0.133392 0.158909
vt 0.133392 0.158909
vt 0.133392 0.158909
vt 0.133392 0.158909
vt 0.133392 0.158909
vt 0.133392 0.158909
vt 0.133392 0.158909
vt 0.133392 0.158909
vt 0.080414 0.230280
vt 0.122943 0.178974
vt 0.122943 0.178974
vt 0.122943 0.178974
vt 0.122943 0.178974
vt 0.122943 0.178974
vt 0.122943 0.178974
vt 0.122943 0.178974
vt 0.122943 0.178974
vt 0.122943 0.178974
vt 0.122943 0.178974
vt 0.122943 0.178974
vt 0.122943 0.178974
vt 0.122943 0.178974
vt 0.122943 0.178974
vt 0.122943 0.178974
vt 0.122943 0.178974
vt 0.122943 0.178974
vt 0.122943 0.178974
vt 0.122943 0.178974
vt 0.122943 0.178974
vt 0.122943 0.178974
vt 0.122943 0.178974
vt 0.081447 0.229691
vt 0.081447 0.229691
vt 0.081447 0.229693
vt 0.081447 0.229693
vt 0.081447 0.229691
vt 0.081447 0.229691
vt 0.081447 0.229693
vt 0.081447 0.229693
vt 0.081447 0.229691
vt 0.081447 0.229693
vt 0.081447 0.229693
vt 0.081447 0.229691
vt 0.081447 0.229691
vt 0.081447 0.229693
vt 0.081447 0.229693
vt 0.081447 0.229691
vt 0.081447 0.229691
vt 0.081447 0.229691
vt 0.081447 0.229693
vt 0.081447 0.229693
vt 0.133156 0.204697
vt 0.133156 0.204697
vt 0.133156 0.204697
vt 0.133156 0.204697
vt 0.080414 0.230280
vt 0.080414 0.230282
vt 0.080414 0.230282
vt 0.080414 0.230280
vt 0.080414 0.230282
vt 0.080414 0.230280
vt 0.080414 0.230282
vt 0.080414 0.230280
vt 0.080414 0.230282
vt 0.080414 0.230280
vt 0.080414 0.230282
vt 0.133392 0.158909
vt 0.133392 0.158909
vt 0.133392 0.158909
vt 0.133392 0.158909
vt 0.133392 0.158909
vt 0.133392 0.158909
vn 0.000000 0.045690 -0.998956
vn 0.000000 0.045690 -0.998956
vn 0.000000 0.045690 -0.998956
vn 0.000000 0.045690 -0.998956
vn -0.865119 0.045693 -0.499481
vn -0.865119 0.045693 -0.499481
vn -0.865119 0.045693 -0.499481
vn -0.865119 0.045693 -0.499481
vn -0.865123 0.045696 0.499474
vn -0.865123 0.045696 0.499474
vn -0.865123 0.045696 0.499474
vn -0.865123 0.045696 0.499474
vn 0.000000 0.045694 0.998956
vn 0.000000 0.045694 0.998956
vn 0.000000 0.045694 0.998956
vn 0.000000 0.045694 0.998956
vn 0.865121 0.045691 0.499478
vn 0.865121 0.045691 0.499478
vn 0.865121 0.045691 0.499478
vn 0.865121 0.045691 0.499478
vn 0.865119 0.045690 -0.499481
vn 0.865119 0.045690 -0.499481
vn 0.865119 0.045690 -0.499481
vn 0.865119 0.045690 -0.499481
vn 0.000000 -1.000000 0.000000
vn 0.000000 -1.000000 0.000000
vn 0.000000 -1.000000 0.000000
vn 0.000000 -1.000000 0.000000
vn 0.000000 -1.000000 0.000000
vn 0.000000 -1.000000 0.000000
vn 0.000000 -1.000000 0.000000
vn 0.000000 -1.000000 0.000000
vn 0.000000 -1.000000 0.000000
vn 0.000000 -1.000000 0.000000
vn 0.000000 -1.000000 0.000000
vn 0.000000 -1.000000 0.000000
vn 0.000000 -1.000000 0.000000
vn 0.000000 -1.000000 0.000000
vn 0.000000 -1.000000 0.000000
vn 0.000000 -1.000000 0.000000
vn 0.000000 -1.000000 0.000000
vn 0.000000 -1.000000 0.000000
vn 0.000000 1.000000 0.000002
vn 0.000000 1.000000 0.000002
vn 0.000000 1.000000 0.000002
vn 0.000000 1.000000 -0.000002
vn 0.000000 1.000000 -0.000002
vn 0.000000 1.000000 -0.000002
vn 0.000000 1.000000 0.000004
vn 0.000000 1.000000 0.000004
vn 0.000000 1.000000 0.000004
vn 0.000000 1.000000 -0.000002
vn 0.000000 1.000000 -0.000002
vn 0.000000 1.000000 -0.000002
vn 0.000000 1.000000 0.000002
vn 0.000000 1.000000 0.000002
vn 0.000000 1.000000 0.000002
vn 0.000000 1.000000 -0.000004
vn 0.000000 1.000000 -0.000004
vn 0.000000 1.000000 -0.000004
vn 0.000000 0.474942 0.880017
vn 0.000000 0.474942 0.880017
vn 0.000000 0.474942 0.880017
vn 0.000000 0.474942 0.880017
vn 0.762119 0.474941 0.440007
vn 0.762119 0.474941 0.440007
vn 0.762119 0.474941 0.440007
vn 0.762119 0.474941 0.440008
vn 0.762117 0.474941 -0.440010
vn 0.762117 0.474941 -0.440010
vn 0.762117 0.474941 -0.440010
vn 0.762117 0.474941 -0.440010
vn 0.000000 0.474942 -0.880017
vn 0.000000 0.474942 -0.880017
vn 0.000000 0.474942 -0.880017
vn 0.000000 0.474942 -0.880017
vn -0.762114 0.474945 -0.440010
vn -0.762114 0.474945 -0.440011
vn -0.762114 0.474945 -0.440011
vn -0.762114 0.474945 -0.440010
vn -0.762117 0.474943 0.440007
vn -0.762117 0.474943 0.440007
vn -0.762117 0.474943 0.440007
vn -0.762117 0.474943 0.440007
vn 0.000000 0.000000 1.000000
vn 0.000000 0.000000 1.000000
vn 0.000000 0.000000 1.000000
vn 0.000000 0.000000 1.000000
vn 0.866029 0.000000 0.499993
vn 0.866029 0.000000 0.499993
vn 0.866029 0.000000 0.499993
vn 0.866029 0.000000 0.499993
vn 0.866029 0.000000 -0.499993
vn 0.866029 0.000000 -0.499993
vn 0.866029 0.000000 -0.499993
vn 0.866029 0.000000 -0.499993
vn 0.000000 0.000000 -1.000000
vn 0.000000 0.000000 -1.000000
vn 0.000000 0.000000 -1.000000
vn 0.000000 0.000000 -1.000000
vn -0.866026 0.000000 -0.500000
vn -0.866026 0.000000 -0.500000
vn -0.866026 0.000000 -0.500000
vn -0.866026 0.000000 -0.500000
vn -0.866026 0.000000 0.500000
vn -0.866026 0.000000 0.500000
vn -0.866026 0.000000 0.500000
vn -0.866026 0.000000 0.500000
vn 0.000000 -0.491199 0.871048
vn 0.000000 -0.491199 0.871048
vn 0.000000 -0.491199 0.871048
vn 0.000000 -0.491199 0.871048
vn 0.754351 -0.491194 0.435526
vn 0.754351 -0.491194 0.435526
vn 0.754351 -0.491194 0.435526
vn 0.754351 -0.491194 0.435526
vn 0.754352 -0.491192 -0.435527
vn 0.754352 -0.491192 -0.435527
vn 0.754352 -0.491192 -0.435527
vn 0.754352 -0.491192 -0.435527
vn 0.000000 -0.491189 -0.871053
vn 0.000000 -0.491189 -0.871053
vn 0.000000 -0.491189 -0.871053
vn 0.000000 -0.491189 -0.871053
vn -0.754352 -0.491192 -0.435527
vn -0.754352 -0.491192 -0.435527
vn -0.754352 -0.491192 -0.435527
vn -0.754352 -0.491192 -0.435527
vn -0.754351 -0.491194 0.435526
vn -0.754351 -0.491194 0.435526
vn -0.754351 -0.491194 0.435526
vn -0.754351 -0.491194 0.435526
vn 0.000000 -0.929788 -0.368094
vn 0.000000 -0.929789 -0.368094
vn 0.000000 -0.929789 -0.368094
vn 0.000000 -0.929788 -0.368094
vn 0.318785 -0.929785 -0.184056
vn 0.318785 -0.929785 -0.184056
vn 0.318785 -0.929785 -0.184056
vn 0.318785 -0.929785 -0.184056
vn 0.318784 -0.929784 0.184059
vn 0.318784 -0.929784 0.184059
vn 0.318784 -0.929784 0.184059
vn 0.318784 -0.929784 0.184059
vn 0.000000 -0.929790 0.368090
vn 0.000000 -0.929790 0.368090
vn 0.000000 -0.929790 0.368090
vn 0.000000 -0.929790 0.368090
vn -0.318767 -0.929793 0.184046
vn -0.318767 -0.929793 0.184046
vn -0.318767 -0.929793 0.184046
vn -0.318767 -0.929793 0.184046
vn -0.318767 -0.929793 -0.184047
vn -0.318767 -0.929793 -0.184047
vn -0.318767 -0.929793 -0.184047
vn -0.318767 -0.929793 -0.184047
vn 0.863470 0.076634 -0.498545
vn 0.863470 0.076634 -0.498545
vn 0.863470 0.076634 -0.498545
vn 0.863470 0.076634 -0.498545
vn 0.863469 0.076634 0.498546
vn 0.863469 0.076634 0.498546
vn 0.863469 0.076634 0.498546
vn 0.863469 0.076634 0.498546
vn 0.000000 0.076643 0.997059
vn 0.000000 0.076643 0.997059
vn 0.000000 0.076643 0.997059
vn 0.000000 0.076643 0.997059
vn -0.863468 0.076654 0.498545
vn -0.863468 0.076654 0.498545
vn -0.863468 0.076654 0.498545
vn -0.863468 0.076654 0.498545
vn -0.863468 0.076654 -0.498545
vn -0.863468 0.076654 -0.498545
vn -0.863468 0.076654 -0.498545
vn -0.863468 0.076654 -0.498545
vn 0.000000 0.076643 -0.997059
vn 0.000000 0.076643 -0.997059
vn 0.000000 0.076643 -0.997059
vn 0.000000 0.076643 -0.997059
vn 0.000000 0.483957 -0.875092
vn 0.000000 0.483957 -0.875092
vn 0.000000 0.483957 -0.875092
vn 0.000000 0.483957 -0.875092
vn 0.757866 0.483915 -0.437568
vn 0.757866 0.483915 -0.437568
vn 0.757866 0.483915 -0.437568
vn 0.757866 0.483915 -0.437568
vn 0.757869 0.483909 0.437568
vn 0.757869 0.483909 0.437568
vn 0.757869 0.483909 0.437568
vn 0.757869 0.483909 0.437568
vn 0.000000 0.483934 0.875104
vn 0.000000 0.483934 0.875104
vn 0.000000 0.483934 0.875104
vn 0.000000 0.483934 0.875104
vn -0.757872 0.483900 0.437574
vn -0.757872 0.483900 0.437574
vn -0.757872 0.483899 0.437574
vn -0.757872 0.483900 0.437574
vn -0.757868 0.483905 -0.437575
vn -0.757868 0.483905 -0.437575
vn -0.757868 0.483905 -0.437575
vn -0.757868 0.483905 -0.437575
vn 0.866029 0.000000 0.499993
vn 0.866029 0.000000 0.499993
vn 0.866029 0.000000 0.499993
vn 0.000000 0.000000 1.000000
vn 0.000000 0.000000 1.000000
vn 0.000000 0.000000 1.000000
vn 0.000000 0.000000 1.000000
vn -0.866025 0.000000 0.500000
vn -0.866026 0.000000 0.500000
vn -0.866026 0.000000 0.500000
vn -0.866026 0.000000 -0.500000
vn -0.866026 0.000000 -0.500000
vn -0.866025 0.000000 -0.500000
vn 0.000000 0.000000 -1.000000
vn 0.000000 0.000000 -1.000000
vn 0.000000 0.000000 -1.000000
vn 0.000000 0.000000 -1.000000
vn 0.866029 0.000000 -0.499993
vn 0.866029 0.000000 -0.499993
vn 0.866029 0.000000 -0.499993
vn -0.866026 0.000000 -0.500000
vn -0.866026 0.000000 -0.500000
vn -0.866026 0.000000 -0.500000
vn -0.866026 0.000000 0.500000
vn -0.866026 0.000000 0.500000
vn -0.866026 0.000000 0.500000
vn 0.000000 0.000000 1.000000
vn 0.000000 0.000000 1.000000
vn 0.000000 0.000000 1.000000
vn 0.000000 0.000000 1.000000
vn 0.866029 0.000000 0.499993
vn 0.866029 0.000000 0.499993
vn 0.866029 0.000000 0.499993
vn 0.866029 0.000000 -0.499993
vn 0.866029 0.000000 -0.499993
vn 0.866029 0.000000 -0.499993
vn 0.000000 0.000000 -1.000000
vn 0.000000 0.000000 -1.000000
vn 0.000000 0.000000 -1.000000
vn 0.000000 0.000000 -1.000000
vn 0.866024 0.000005 0.500002
vn 0.866024 0.000005 0.500002
vn 0.866024 0.000005 0.500002
vn 0.866024 0.000005 0.500002
vn 0.866017 -0.000002 0.500014
vn 0.866017 -0.000002 0.500014
vn 0.866017 -0.000002 0.500014
vn 0.866018 -0.000002 0.500014
vn 0.866021 -0.000000 0.500007
vn 0.866021 -0.000000 0.500007
vn 0.866022 -0.000000 0.500007
vn 0.866022 -0.000000 0.500007
vn 0.866020 -0.000001 -0.500009
vn 0.866020 -0.000001 -0.500009
vn 0.866020 -0.000001 -0.500009
vn 0.866020 -0.000001 -0.500009
vn 0.866015 -0.000002 -0.500017
vn 0.866015 -0.000002 -0.500017
vn 0.866015 -0.000002 -0.500017
vn 0.866015 -0.000002 -0.500017
vn 0.866023 0.000006 -0.500005
vn 0.866023 0.000006 -0.500005
vn 0.866023 0.000006 -0.500005
vn 0.866023 0.000006 -0.500005
vn -0.866024 0.000002 -0.500003
vn -0.866024 0.000002 -0.500003
vn -0.866024 0.000002 -0.500003
vn -0.866024 0.000002 -0.500003
vn -0.866023 0.000000 -0.500004
vn -0.866023 0.000000 -0.500004
vn -0.866023 0.000000 -0.500004
vn -0.866023 0.000000 -0.500004
vn -0.866024 -0.000001 -0.500003
vn -0.866024 -0.000001 -0.500003
vn -0.866024 -0.000001 -0.500003
vn -0.866024 -0.000001 -0.500003
vn -0.866025 -0.000000 0.500000
vn -0.866025 -0.000000 0.500000
vn -0.866025 -0.000000 0.500000
vn -0.866025 -0.000000 0.500000
vn -0.866025 0.000000 0.500001
vn -0.866025 0.000000 0.500001
vn -0.866025 0.000000 0.500001
vn -0.866025 0.000000 0.500001
vn -0.866025 0.000000 0.500000
vn -0.866025 0.000000 0.500000
vn -0.866025 0.000000 0.500000
vn -0.866025 0.000000 0.500000
vn 0.000000 0.000000 1.000000
vn 0.000000 0.000000 1.000000
vn 0.000000 0.000000 1.000000
vn 0.000000 0.000000 1.000000
vn -0.000001 0.000000 1.000000
vn -0.000001 0.000000 1.000000
vn -0.000001 0.000000 1.000000
vn -0.000001 0.000000 1.000000
vn 0.000000 0.000000 1.000000
vn 0.000000 0.000000 1.000000
vn 0.000000 0.000000 1.000000
vn 0.000000 0.000000 1.000000
vn 0.000000 0.000000 1.000000
vn 0.000000 0.000000 1.000000
vn 0.000000 0.000000 1.000000
vn 0.000000 0.000000 1.000000
vn -0.865118 0.045697 -0.499482
vn -0.865118 0.045697 -0.499482
vn -0.865118 0.045697 -0.499482
vn -0.865118 0.045697 -0.499482
vn -0.865125 0.045697 0.499470
vn -0.865125 0.045697 0.499470
vn -0.865125 0.045697 0.499470
vn -0.865125 0.045697 0.499470
vn 0.000000 0.045694 0.998955
vn 0.000000 0.045694 0.998955
vn 0.000000 0.045694 0.998955
vn 0.000000 0.045694 0.998955
vn 0.865123 0.045705 0.499473
vn 0.865123 0.045705 0.499473
vn 0.865123 0.045705 0.499473
vn 0.865123 0.045705 0.499473
vn 0.865120 0.045705 -0.499478
vn 0.865120 0.045705 -0.499478
vn 0.865120 0.045705 -0.499478
vn 0.865120 0.045705 -0.499478
vn 0.000000 0.045694 -0.998955
vn 0.000000 0.045694 -0.998955
vn 0.000000 0.045694 -0.998956
vn 0.000000 0.045694 -0.998955
s off
f 80/14/1 75/15/2 33/16/3 34/17/4
f 75/15/5 76/18/6 38/19/7 33/16/8
f 76/18/9 77/20/10 37/21/11 38/19/12
f 77/20/13 78/22/14 36/23/15 37/21/16
f 78/22/17 79/24/18 35/25/19 36/23/20
f 79/24/21 80/14/22 34/17/23 35/25/24
f 2/2/25 1/1/26 13/27/27
f 3/3/28 2/2/29 13/27/30
f 4/4/31 3/3/32 13/27/33
f 5/5/34 4/4/35 13/27/36
f 6/6/37 5/5/38 13/27/39
f 1/1/40 6/6/41 13/27/42
f 7/26/43 8/28/44 14/50/45
f 8/28/46 9/51/47 14/50/48
f 9/51/49 10/52/50 14/50/51
f 10/52/52 11/53/53 14/50/54
f 11/53/55 12/54/56 14/50/57
f 12/54/58 7/26/59 14/50/60
f 21/36/61 22/37/62 16/30/63 15/29/64
f 22/37/65 23/38/66 17/31/67 16/30/68
f 23/38/69 24/39/70 18/32/71 17/31/72
f 24/40/73 25/41/74 19/34/75 18/33/76
f 25/41/77 26/42/78 20/35/79 19/34/80
f 26/42/81 21/36/82 15/29/83 20/35/84
f 71/110/85 72/111/86 73/112/87 74/113/88
f 63/82/89 64/83/90 61/79/91 51/68/92
f 61/79/93 65/84/94 66/85/95 51/68/96
f 62/94/97 57/95/98 55/96/99 56/97/100
f 67/86/101 68/87/102 58/76/103 54/71/104
f 58/76/105 69/88/106 70/89/107 54/71/108
f 4/10/109 5/11/110 28/44/111 27/43/112
f 5/11/113 6/12/114 29/45/115 28/44/116
f 6/12/117 1/13/118 30/46/119 29/45/120
f 1/7/121 2/8/122 31/48/123 30/47/124
f 2/8/125 3/9/126 32/49/127 31/48/128
f 3/9/129 4/10/130 27/43/131 32/49/132
f 34/55/133 33/56/134 44/57/135 39/58/136
f 35/59/137 34/55/138 39/58/139 40/60/140
f 36/61/141 35/59/142 40/60/143 41/62/144
f 37/63/145 36/61/146 41/62/147 42/64/148
f 38/65/149 37/63/150 42/64/151 43/66/152
f 33/56/153 38/65/154 43/66/155 44/57/156
f 40/60/157 39/58/158 46/125/159 47/126/160
f 41/62/161 40/60/162 47/126/163 48/127/164
f 42/64/165 41/62/166 48/127/167 49/128/168
f 43/66/169 42/64/170 49/128/171 50/129/172
f 44/57/173 43/66/174 50/129/175 45/130/176
f 39/58/177 44/57/178 45/130/179 46/125/180
f 46/125/181 45/130/182 8/28/183 7/26/184
f 47/126/185 46/125/186 7/26/187 12/54/188
f 48/127/189 47/126/190 12/54/191 11/53/192
f 49/128/193 48/127/194 11/53/195 10/52/196
f 50/129/197 49/128/198 10/52/199 9/51/200
f 45/130/201 50/129/202 9/51/203 8/28/204
f 23/38/205 63/82/206 51/68/207
f 53/70/208 52/69/209 22/37/210 21/36/211
f 54/71/212 70/89/213 26/42/214
f 26/42/215 67/86/216 54/71/217
f 56/74/218 55/72/219 25/41/220 24/40/221
f 51/68/222 66/85/223 23/38/224
f 68/87/225 32/49/226 58/76/227
f 32/49/228 69/88/229 58/76/230
f 27/43/231 28/44/232 60/78/233 59/77/234
f 64/83/235 29/45/236 61/79/237
f 29/45/238 65/84/239 61/79/240
f 30/47/241 31/48/242 57/75/243 62/81/244
f 52/69/245 63/82/246 23/38/247 22/37/248
f 60/91/249 64/98/250 63/99/251 52/92/252
f 28/44/253 29/45/254 64/83/255 60/78/256
f 29/45/257 30/46/258 62/80/259 65/84/260
f 66/100/261 65/101/262 62/94/263 56/97/264
f 23/38/265 66/85/266 56/73/267 24/39/268
f 55/72/269 67/86/270 26/42/271 25/41/272
f 57/95/273 68/102/274 67/103/275 55/96/276
f 31/48/277 32/49/278 68/87/279 57/75/280
f 32/49/281 27/43/282 59/77/283 69/88/284
f 70/104/285 69/105/286 59/90/287 53/93/288
f 26/42/289 70/89/290 53/70/291 21/36/292
f 59/90/293 60/91/294 72/107/295 71/106/296
f 60/91/297 52/92/298 73/108/299 72/107/300
f 52/92/301 53/93/302 74/109/303 73/108/304
f 53/93/305 59/90/306 71/106/307 74/109/308
f 19/67/309 20/114/310 76/115/311 75/116/312
f 20/114/313 15/117/314 77/118/315 76/115/316
f 15/117/317 16/119/318 78/120/319 77/118/320
f 16/119/321 17/121/322 79/122/323 78/120/324
f 17/121/325 18/123/326 80/124/327 79/122/328
f 18/123/329 19/67/330 75/116/331 80/124/332
