# This file uses centimeters as units for non-parametric coordinates.

v 0.867004 15.316157 -0.759845
v -0.010345 15.316157 -0.759845
v -0.449036 15.316157 -0.000000
v -0.010345 15.316157 0.759845
v 0.867004 15.316157 0.759845
v 1.305756 15.316157 0.000000
v 0.867004 16.629959 -0.759845
v 1.305756 16.629959 0.000000
v 0.867004 16.629959 0.759845
v -0.010345 16.629959 0.759845
v -0.449036 16.629959 -0.000000
v -0.010345 16.629959 -0.759845
v 1.038574 18.017567 -1.056962
v -0.181915 18.017567 -1.056962
v -0.792145 18.017567 -0.000000
v -0.181915 18.017567 1.056962
v 1.038574 18.017567 1.056962
v 1.648804 18.017567 0.000000
v 1.038574 16.561501 -1.056962
v 1.648804 16.561501 0.000000
v 1.038574 16.561501 1.056962
v -0.181915 16.561501 1.056962
v -0.792145 16.561501 -0.000000
v -0.181915 16.561501 -1.056962
v -1.578308 15.388661 -1.378770
v -3.170380 15.388661 -1.378770
v -3.966431 15.388661 -0.000000
v -3.170380 15.388661 1.378770
v -1.578308 15.388661 1.378770
v -0.782288 15.388661 0.000000
v -1.830078 19.538212 -0.942649
v -2.918579 19.538212 -0.942649
v -3.462830 19.538212 -0.000000
v -2.918579 19.538212 0.942649
v -1.830078 19.538212 0.942649
v -1.285889 19.538212 -0.000000
v -1.830078 32.212193 -0.942649
v -2.918579 32.212193 -0.942649
v -3.462830 32.212193 -0.000000
v -2.918579 32.212193 0.942649
v -1.830078 32.212193 0.942649
v -1.285889 32.212193 -0.000000
v -3.993958 -5.005587 2.360753
v -3.993958 -3.993980 3.372359
v -5.005585 -3.993980 2.360753
v 5.005554 -3.993980 2.360753
v 3.993958 -3.993980 3.372359
v 3.993958 -5.005587 2.360753
v -5.005585 -3.993980 -2.360753
v -3.993958 -3.993980 -3.372359
v -3.993958 -5.005587 -2.360753
v 3.993958 -5.005587 -2.360753
v 3.993958 -3.993980 -3.372359
v 5.005554 -3.993980 -2.360753
v -5.005585 5.005587 2.360753
v -3.993958 5.005587 3.372359
v 3.993958 5.005587 3.372359
v 5.005554 5.005587 2.360753
v -3.993958 5.005587 -3.372359
v -5.005585 5.005587 -2.360753
v 5.005554 5.005587 -2.360753
v 3.993958 5.005587 -3.372359
v -4.429626 5.533693 3.679766
v -5.551575 5.533693 2.575947
v -4.429626 14.394728 3.679766
v -5.551575 14.394728 2.575947
v 5.551575 5.533693 2.575947
v 4.429626 5.533693 3.679766
v 5.551575 14.394728 2.575947
v 4.429626 14.394728 3.679766
v -5.551575 5.533693 -2.575947
v -4.429626 5.533693 -3.679766
v -5.551575 14.394728 -2.575947
v -4.429626 14.394728 -3.679766
v 4.429626 5.533693 -3.679766
v 5.551575 5.533693 -2.575947
v 4.429626 14.394728 -3.679766
v 5.551575 14.394728 -2.575947
v -4.429626 15.498547 2.575947
v -4.429626 15.498547 -2.575947
v 4.429626 15.498547 2.575947
v 4.429626 15.498547 -2.575947
v -5.230469 6.799531 1.122155
v -5.230469 13.128891 1.122155
v -5.230469 6.799531 -1.122155
v -5.230469 13.128891 -1.122155
v -6.621216 6.799531 1.122155
v -6.621216 6.799531 -1.122155
v -6.621216 13.128891 1.122155
v -6.621216 13.128891 -1.122155
v 3.346069 15.266120 -0.759845
v 2.468689 15.266120 -0.759845
v 2.030029 15.266120 -0.000000
v 2.468689 15.266120 0.759845
v 3.346069 15.266120 0.759845
v 3.784790 15.266120 0.000000
v 3.346069 15.772449 -0.759845
v 3.784790 15.772449 0.000000
v 3.346069 15.772449 0.759845
v 2.468689 15.772449 0.759845
v 2.030029 15.772449 -0.000000
v 2.468689 15.772449 -0.759845
v 3.517609 17.160053 -1.056962
v 2.297150 17.160053 -1.056962
v 1.686890 17.160053 -0.000000
v 2.297150 17.160053 1.056962
v 3.517609 17.160053 1.056962
v 4.127869 17.160053 0.000000
v 3.517609 15.703987 -1.056962
v 4.127869 15.703987 0.000000
v 3.517609 15.703987 1.056962
v 2.297150 15.703987 1.056962
v 1.686890 15.703987 -0.000000
v 2.297150 15.703987 -1.056962
v 3.514038 5.823184 3.679766
v -3.514038 5.823184 3.679766
v 3.514038 14.105236 3.679766
v -3.514038 14.105236 3.679766
vt 0.094142 0.505600
vt 0.094142 0.505600
vt 0.094142 0.505600
vt 0.094142 0.505600
vt 0.094142 0.505600
vt 0.094142 0.505600
vt 0.094142 0.505600
vt 0.094142 0.505600
vt 0.094142 0.505600
vt 0.094142 0.505600
vt 0.094142 0.505600
vt 0.094142 0.505600
vt 0.094142 0.505600
vt 0.094142 0.505600
vt 0.094142 0.505600
vt 0.094142 0.505600
vt 0.094142 0.505600
vt 0.094142 0.505600
vt 0.094142 0.505600
vt 0.094142 0.505600
vt 0.094142 0.505600
vt 0.094142 0.505600
vt 0.094142 0.505600
vt 0.094142 0.505600
vt 0.094142 0.505600
vt 0.094142 0.505600
vt 0.094142 0.505600
vt 0.094142 0.505600
vt 0.094142 0.505600
vt 0.094142 0.505600
vt 0.094142 0.505600
vt 0.094142 0.505600
vt 0.094142 0.505600
vt 0.094142 0.505600
vt 0.094142 0.505600
vt 0.094142 0.505600
vt 0.094142 0.505600
vt 0.094142 0.505600
vt 0.094142 0.505600
vt 0.094142 0.505600
vt 0.094142 0.505600
vt 0.094142 0.505600
vt 0.094142 0.505600
vt 0.094142 0.505600
vt 0.094142 0.505600
vt 0.094142 0.505600
vt 0.094142 0.505600
vt 0.094142 0.505600
vt 0.094142 0.505600
vt 0.094142 0.505600
vt 0.094142 0.505600
vt 0.094142 0.505600
vt 0.094142 0.505600
vt 0.094142 0.505600
vt 0.094142 0.505600
vt 0.094142 0.505600
vt 0.094142 0.505600
vt 0.094142 0.505600
vt 0.094142 0.505600
vt 0.094142 0.505600
vt 0.094142 0.505600
vt 0.094142 0.505600
vt 0.094142 0.505600
vt 0.094142 0.505600
vt 0.094142 0.505600
vt 0.094142 0.505600
vt 0.094142 0.505600
vt 0.094142 0.505600
vt 0.094142 0.505600
vt 0.094142 0.505600
vt 0.094142 0.505600
vt 0.094142 0.505600
vt 0.094142 0.505600
vt 0.094142 0.505600
vt 0.094142 0.505600
vt 0.094142 0.505600
vt 0.094142 0.505600
vt 0.094142 0.505600
vt 0.094142 0.505600
vt 0.094142 0.505600
vt 0.094142 0.505600
vt 0.094142 0.505600
vt 0.094142 0.505600
vt 0.094142 0.505600
vt 0.229885 0.305661
vt 0.229885 0.305661
vt 0.229885 0.305661
vt 0.229885 0.305661
vt 0.229885 0.305661
vt 0.229885 0.305661
vt 0.229885 0.305661
vt 0.229885 0.305661
vt 0.094142 0.505600
vt 0.094142 0.505600
vt 0.094142 0.505600
vt 0.094142 0.505600
vt 0.094142 0.505600
vt 0.094142 0.505600
vt 0.094142 0.505600
vt 0.094142 0.505600
vt 0.094142 0.505600
vt 0.094142 0.505600
vt 0.094142 0.505600
vt 0.094142 0.505600
vt 0.094142 0.505600
vt 0.094142 0.505600
vt 0.094142 0.505600
vt 0.094142 0.505600
vt 0.094142 0.505600
vt 0.094142 0.505600
vt 0.094142 0.505600
vt 0.094142 0.505600
vt 0.094142 0.505600
vt 0.094142 0.505600
vt 0.094142 0.505600
vt 0.094142 0.505600
vt 0.040915 0.521119
vt 0.040915 0.521075
vt 0.117289 0.521075
vt 0.117289 0.521119
vt 0.094142 0.505600
vt 0.094142 0.505600
vn 0.000000 0.000000 -1.000000
vn 0.000000 0.000000 -1.000000
vn 0.000000 0.000000 -1.000000
vn 0.000000 0.000000 -1.000000
vn -0.866029 0.000000 -0.499994
vn -0.866029 0.000000 -0.499994
vn -0.866029 0.000000 -0.499994
vn -0.866029 0.000000 -0.499994
vn -0.866029 0.000000 0.499994
vn -0.866029 0.000000 0.499994
vn -0.866029 0.000000 0.499994
vn -0.866029 0.000000 0.499994
vn -0.000000 0.000000 1.000000
vn -0.000000 0.000000 1.000000
vn -0.000000 0.000000 1.000000
vn -0.000000 0.000000 1.000000
vn 0.865998 0.000000 0.500047
vn 0.865998 0.000000 0.500047
vn 0.865998 0.000000 0.500047
vn 0.865998 0.000000 0.500047
vn 0.865998 0.000000 -0.500047
vn 0.865998 0.000000 -0.500047
vn 0.865998 0.000000 -0.500047
vn 0.865998 0.000000 -0.500047
vn 0.000000 1.000000 -0.000002
vn 0.000000 1.000000 -0.000002
vn 0.000000 1.000000 -0.000000
vn 0.000000 1.000000 -0.000000
vn 0.866028 0.000000 -0.499995
vn 0.866028 0.000000 -0.499995
vn 0.866028 0.000000 -0.499995
vn 0.866028 0.000000 -0.499995
vn 0.866028 0.000000 0.499995
vn 0.866028 0.000000 0.499995
vn 0.866028 0.000000 0.499995
vn 0.866028 0.000000 0.499995
vn -0.000000 0.000000 1.000000
vn -0.000000 0.000000 1.000000
vn -0.000000 0.000000 1.000000
vn -0.000000 0.000000 1.000000
vn -0.866028 0.000000 0.499995
vn -0.866028 0.000000 0.499995
vn -0.866028 0.000000 0.499995
vn -0.866028 0.000000 0.499995
vn -0.866028 0.000000 -0.499995
vn -0.866028 0.000000 -0.499995
vn -0.866028 0.000000 -0.499995
vn -0.866028 0.000000 -0.499995
vn 0.000000 0.000000 -1.000000
vn 0.000000 0.000000 -1.000000
vn 0.000000 0.000000 -1.000000
vn 0.000000 0.000000 -1.000000
vn -0.194445 -0.974468 0.112268
vn -0.194445 -0.974468 0.112268
vn -0.194445 -0.974468 0.112268
vn -0.194445 -0.974468 0.112268
vn -0.194445 -0.974468 -0.112267
vn -0.194445 -0.974468 -0.112267
vn -0.194445 -0.974468 -0.112267
vn -0.194445 -0.974468 -0.112267
vn 0.000000 -0.974468 -0.224528
vn 0.000000 -0.974468 -0.224528
vn 0.000000 -0.974468 -0.224528
vn 0.000000 -0.974468 -0.224528
vn 0.194431 -0.974472 -0.112255
vn 0.194431 -0.974472 -0.112255
vn 0.194431 -0.974472 -0.112255
vn 0.194431 -0.974472 -0.112255
vn 0.194431 -0.974472 0.112253
vn 0.194431 -0.974472 0.112253
vn 0.194431 -0.974472 0.112253
vn 0.194431 -0.974472 0.112253
vn -0.000000 -0.974468 0.224528
vn -0.000000 -0.974468 0.224528
vn -0.000000 -0.974468 0.224528
vn -0.000000 -0.974468 0.224528
vn 0.000000 1.000000 -0.000000
vn 0.000000 1.000000 -0.000000
vn 0.000000 1.000000 0.000001
vn 0.000000 1.000000 0.000001
vn 0.000000 0.104525 -0.994522
vn 0.000000 0.104525 -0.994522
vn 0.000000 0.104525 -0.994522
vn 0.000000 0.104525 -0.994522
vn -0.861277 0.104527 -0.497269
vn -0.861277 0.104527 -0.497269
vn -0.861277 0.104527 -0.497269
vn -0.861277 0.104527 -0.497269
vn -0.861277 0.104527 0.497269
vn -0.861277 0.104527 0.497269
vn -0.861277 0.104527 0.497269
vn -0.861277 0.104527 0.497269
vn 0.000000 0.104525 0.994522
vn 0.000000 0.104525 0.994522
vn 0.000000 0.104525 0.994522
vn 0.000000 0.104525 0.994522
vn 0.861292 0.104524 0.497244
vn 0.861292 0.104524 0.497244
vn 0.861292 0.104524 0.497244
vn 0.861292 0.104524 0.497244
vn 0.861292 0.104524 -0.497244
vn 0.861292 0.104524 -0.497244
vn 0.861292 0.104524 -0.497244
vn 0.861292 0.104524 -0.497244
vn 0.000000 1.000000 0.000001
vn 0.000000 1.000000 0.000001
vn 0.000000 1.000000 -0.000000
vn 0.000000 1.000000 -0.000000
vn 0.000000 0.000000 -1.000000
vn 0.000000 0.000000 -1.000000
vn 0.000000 0.000000 -1.000000
vn 0.000000 0.000000 -1.000000
vn -0.866021 0.000000 -0.500008
vn -0.866021 0.000000 -0.500008
vn -0.866021 0.000000 -0.500008
vn -0.866021 0.000000 -0.500008
vn -0.866021 -0.000000 0.500008
vn -0.866021 -0.000000 0.500008
vn -0.866021 -0.000000 0.500008
vn -0.866021 -0.000000 0.500008
vn 0.000000 0.000000 1.000000
vn 0.000000 0.000000 1.000000
vn 0.000000 0.000000 1.000000
vn 0.000000 0.000000 1.000000
vn 0.866045 0.000000 0.499966
vn 0.866045 0.000000 0.499966
vn 0.866045 0.000000 0.499966
vn 0.866045 0.000000 0.499966
vn 0.866045 -0.000000 -0.499966
vn 0.866045 -0.000000 -0.499966
vn 0.866045 -0.000000 -0.499966
vn 0.866045 -0.000000 -0.499966
vn 0.000000 1.000000 -0.000000
vn 0.000000 1.000000 -0.000000
vn 0.000000 1.000000 -0.000001
vn 0.000000 1.000000 -0.000001
vn -0.707100 -0.707114 0.000000
vn -0.707100 -0.707114 0.000000
vn -0.707100 -0.707114 0.000000
vn -0.707100 -0.707114 0.000000
vn 0.000000 -0.707107 0.707107
vn 0.000000 -0.707107 0.707107
vn 0.000000 -0.707107 0.707107
vn 0.000000 -0.707107 0.707107
vn -0.707100 0.000000 0.707114
vn -0.707100 0.000000 0.707114
vn -0.707100 0.000000 0.707114
vn -0.707100 0.000000 0.707114
vn 0.707110 -0.707103 0.000000
vn 0.707110 -0.707103 0.000000
vn 0.707110 -0.707103 0.000000
vn 0.707110 -0.707103 0.000000
vn 0.707110 0.000000 0.707103
vn 0.707110 0.000000 0.707103
vn 0.707110 0.000000 0.707103
vn 0.707110 0.000000 0.707103
vn -0.707100 0.000000 -0.707114
vn -0.707100 0.000000 -0.707114
vn -0.707100 0.000000 -0.707114
vn -0.707100 0.000000 -0.707114
vn 0.000000 -0.707107 -0.707107
vn 0.000000 -0.707107 -0.707107
vn 0.000000 -0.707107 -0.707107
vn 0.000000 -0.707107 -0.707107
vn 0.707110 0.000000 -0.707103
vn 0.707110 0.000000 -0.707103
vn 0.707110 0.000000 -0.707103
vn 0.707110 0.000000 -0.707103
vn -0.701324 0.000000 0.712843
vn -0.701324 0.000000 0.712843
vn -0.701324 0.000000 0.712843
vn -0.701324 0.000000 0.712843
vn 0.701324 0.000000 0.712843
vn 0.701324 0.000000 0.712843
vn 0.701324 0.000000 0.712843
vn 0.701324 0.000000 0.712843
vn -0.701324 0.000000 -0.712843
vn -0.701324 0.000000 -0.712843
vn -0.701324 0.000000 -0.712843
vn -0.701324 0.000000 -0.712843
vn 0.701324 0.000000 -0.712843
vn 0.701324 0.000000 -0.712843
vn 0.701324 0.000000 -0.712843
vn 0.701324 0.000000 -0.712843
vn -0.701324 0.712843 0.000000
vn -0.701324 0.712843 0.000000
vn -0.701324 0.712843 0.000000
vn -0.701324 0.712843 0.000000
vn 0.000000 0.707107 0.707107
vn 0.000000 0.707107 0.707107
vn 0.000000 0.707107 0.707107
vn 0.000000 0.707107 0.707107
vn 0.701324 0.712843 0.000000
vn 0.701324 0.712843 0.000000
vn 0.701324 0.712843 0.000000
vn 0.701324 0.712843 0.000000
vn 0.000000 0.707107 -0.707107
vn 0.000000 0.707107 -0.707107
vn 0.000000 0.707107 -0.707107
vn 0.000000 0.707107 -0.707107
vn 0.000000 0.000000 1.000000
vn 0.000000 0.000000 1.000000
vn 0.000000 0.000000 1.000000
vn 0.000000 0.000000 1.000000
vn 0.000000 1.000000 0.000000
vn 0.000000 1.000000 0.000000
vn 0.000000 1.000000 0.000000
vn 0.000000 1.000000 0.000000
vn 0.000000 0.000000 -1.000000
vn 0.000000 0.000000 -1.000000
vn 0.000000 0.000000 -1.000000
vn 0.000000 0.000000 -1.000000
vn 0.000000 -1.000000 0.000000
vn 0.000000 -1.000000 0.000000
vn 0.000000 -1.000000 0.000000
vn 0.000000 -1.000000 0.000000
vn 1.000000 0.000000 0.000000
vn 1.000000 0.000000 0.000000
vn 1.000000 0.000000 0.000000
vn 1.000000 0.000000 0.000000
vn -1.000000 0.000000 0.000000
vn -1.000000 0.000000 0.000000
vn -1.000000 0.000000 0.000000
vn -1.000000 0.000000 0.000000
vn 0.000000 0.000000 1.000000
vn 0.000000 0.000000 1.000000
vn 0.000000 0.000000 1.000000
vn 0.000000 0.000000 1.000000
vn 1.000000 0.000000 0.000000
vn 1.000000 0.000000 0.000000
vn 1.000000 0.000000 0.000000
vn 1.000000 0.000000 0.000000
vn 0.000000 0.000000 -1.000000
vn 0.000000 0.000000 -1.000000
vn 0.000000 0.000000 -1.000000
vn 0.000000 0.000000 -1.000000
vn -1.000000 0.000000 0.000000
vn -1.000000 0.000000 0.000000
vn -1.000000 0.000000 0.000000
vn -1.000000 0.000000 0.000000
vn -0.577343 -0.577354 0.577354
vn -0.577343 -0.577354 0.577354
vn -0.577343 -0.577354 0.577354
vn 0.577354 -0.577349 0.577348
vn 0.577354 -0.577349 0.577348
vn 0.577354 -0.577349 0.577348
vn -0.577343 -0.577354 -0.577354
vn -0.577343 -0.577354 -0.577354
vn -0.577343 -0.577354 -0.577354
vn 0.577354 -0.577349 -0.577348
vn 0.577354 -0.577349 -0.577348
vn 0.577354 -0.577349 -0.577348
vn -0.571080 0.580460 0.580460
vn -0.571080 0.580460 0.580460
vn -0.571080 0.580460 0.580460
vn 0.571080 0.580460 0.580460
vn 0.571080 0.580460 0.580460
vn 0.571080 0.580460 0.580460
vn 0.571080 0.580460 -0.580460
vn 0.571080 0.580460 -0.580460
vn 0.571080 0.580460 -0.580460
vn -0.571080 0.580460 -0.580460
vn -0.571080 0.580460 -0.580460
vn -0.571080 0.580460 -0.580460
vn -0.496433 -0.709128 0.500692
vn -0.496432 -0.709128 0.500692
vn -0.496433 -0.709128 0.500692
vn -0.496433 -0.709128 0.500692
vn 0.496431 -0.709136 0.500683
vn 0.496431 -0.709136 0.500683
vn 0.496431 -0.709136 0.500683
vn 0.496431 -0.709136 0.500683
vn -0.496432 -0.709128 -0.500692
vn -0.496432 -0.709128 -0.500692
vn -0.496432 -0.709128 -0.500692
vn -0.496432 -0.709128 -0.500692
vn 0.496431 -0.709136 -0.500683
vn 0.496431 -0.709136 -0.500683
vn 0.496431 -0.709136 -0.500683
vn 0.496431 -0.709136 -0.500683
vn 0.000000 -0.503071 0.864245
vn 0.000000 -0.503071 0.864245
vn 0.000000 -0.503071 0.864245
vn 0.000000 -0.503071 0.864245
vn 0.695217 -0.718800 0.000000
vn 0.695217 -0.718800 0.000000
vn 0.695217 -0.718800 0.000000
vn 0.695217 -0.718800 0.000000
vn 0.000000 -0.503071 -0.864245
vn 0.000000 -0.503071 -0.864245
vn 0.000000 -0.503071 -0.864245
vn 0.000000 -0.503071 -0.864245
vn -0.695237 -0.718781 0.000000
vn -0.695237 -0.718781 0.000000
vn -0.695237 -0.718781 0.000000
vn -0.695237 -0.718781 0.000000
vn -1.000000 0.000000 0.000000
vn -1.000000 0.000000 0.000000
vn -1.000000 0.000000 0.000000
vn -1.000000 0.000000 0.000000
vn 0.000000 -1.000000 0.000000
vn 0.000000 -1.000000 0.000000
vn 0.000000 -1.000000 0.000000
vn 0.000000 -1.000000 0.000000
vn 0.000000 0.000000 1.000000
vn 0.000000 0.000000 1.000000
vn 0.000000 0.000000 1.000000
vn 0.000000 0.000000 1.000000
vn 0.000000 1.000000 0.000000
vn 0.000000 1.000000 0.000000
vn 0.000000 1.000000 0.000000
vn 0.000000 1.000000 0.000000
vn 0.000000 0.000000 -1.000000
vn 0.000000 0.000000 -1.000000
vn 0.000000 0.000000 -1.000000
vn 0.000000 0.000000 -1.000000
vn 0.000000 0.000000 -1.000000
vn 0.000000 0.000000 -1.000000
vn 0.000000 0.000000 -1.000000
vn 0.000000 0.000000 -1.000000
vn -0.866044 0.000000 -0.499969
vn -0.866044 0.000000 -0.499969
vn -0.866044 0.000000 -0.499969
vn -0.866044 0.000000 -0.499969
vn -0.866044 0.000000 0.499968
vn -0.866044 0.000000 0.499968
vn -0.866044 0.000000 0.499968
vn -0.866044 0.000000 0.499968
vn -0.000000 0.000000 1.000000
vn -0.000000 0.000000 1.000000
vn -0.000000 0.000000 1.000000
vn -0.000000 0.000000 1.000000
vn 0.866013 0.000000 0.500021
vn 0.866013 0.000000 0.500021
vn 0.866013 0.000000 0.500021
vn 0.866013 0.000000 0.500021
vn 0.866013 0.000000 -0.500021
vn 0.866013 0.000000 -0.500021
vn 0.866013 0.000000 -0.500021
vn 0.866013 0.000000 -0.500021
vn 0.000000 1.000000 0.000001
vn 0.000000 1.000000 0.000001
vn 0.000000 1.000000 -0.000000
vn 0.000000 1.000000 -0.000000
vn 0.866017 0.000000 -0.500014
vn 0.866017 0.000000 -0.500014
vn 0.866017 0.000000 -0.500014
vn 0.866017 0.000000 -0.500014
vn 0.866017 0.000000 0.500014
vn 0.866017 0.000000 0.500014
vn 0.866017 0.000000 0.500014
vn 0.866017 0.000000 0.500014
vn -0.000000 0.000000 1.000000
vn -0.000000 0.000000 1.000000
vn -0.000000 0.000000 1.000000
vn -0.000000 0.000000 1.000000
vn -0.866017 0.000000 0.500014
vn -0.866017 0.000000 0.500014
vn -0.866017 0.000000 0.500014
vn -0.866017 0.000000 0.500014
vn -0.866017 0.000000 -0.500014
vn -0.866017 0.000000 -0.500014
vn -0.866017 0.000000 -0.500014
vn -0.866017 0.000000 -0.500014
vn 0.000000 0.000000 -1.000000
vn 0.000000 0.000000 -1.000000
vn 0.000000 0.000000 -1.000000
vn 0.000000 0.000000 -1.000000
vn -0.194452 -0.974466 0.112272
vn -0.194452 -0.974466 0.112272
vn -0.194452 -0.974466 0.112272
vn -0.194452 -0.974466 0.112272
vn -0.194452 -0.974466 -0.112271
vn -0.194452 -0.974466 -0.112271
vn -0.194452 -0.974466 -0.112271
vn -0.194452 -0.974466 -0.112271
vn 0.000000 -0.974466 -0.224535
vn 0.000000 -0.974466 -0.224535
vn 0.000000 -0.974466 -0.224535
vn 0.000000 -0.974466 -0.224535
vn 0.194439 -0.974470 -0.112259
vn 0.194439 -0.974470 -0.112259
vn 0.194439 -0.974470 -0.112259
vn 0.194439 -0.974470 -0.112259
vn 0.194439 -0.974470 0.112257
vn 0.194439 -0.974470 0.112257
vn 0.194439 -0.974470 0.112257
vn 0.194439 -0.974470 0.112257
vn -0.000000 -0.974466 0.224535
vn -0.000000 -0.974466 0.224535
vn -0.000000 -0.974466 0.224535
vn -0.000000 -0.974466 0.224535
vn 0.000000 1.000000 -0.000000
vn 0.000000 1.000000 -0.000000
vn 0.000000 1.000000 -0.000001
vn 0.000000 1.000000 -0.000001
vn 0.000000 0.000000 1.000000
vn 0.000000 0.000000 1.000000
vn 0.000000 0.000000 1.000000
vn 0.000000 0.000000 1.000000
vn 0.000001 0.000000 1.000000
vn 0.000001 0.000000 1.000000
vn 0.000001 0.000000 1.000000
vn 0.000001 0.000000 1.000000
vn 0.000000 0.000000 1.000000
vn 0.000000 0.000000 1.000000
vn 0.000000 0.000000 1.000000
vn 0.000000 0.000000 1.000000
vn -0.000000 0.000000 1.000000
vn -0.000000 0.000000 1.000000
vn -0.000000 0.000000 1.000000
vn -0.000000 0.000000 1.000000
s off
f 1/1/1 2/2/2 12/3/3 7/4/4
f 2/2/5 3/5/6 11/6/7 12/3/8
f 3/5/9 4/7/10 10/8/11 11/6/12
f 4/7/13 5/9/14 9/10/15 10/8/16
f 5/9/17 6/11/18 8/12/19 9/10/20
f 6/11/21 1/1/22 7/4/23 8/12/24
f 13/13/25 14/14/26 15/15/27 18/16/28
f 20/17/29 19/18/30 13/13/31 18/16/32
f 21/19/33 20/17/34 18/16/35 17/20/36
f 22/21/37 21/19/38 17/20/39 16/22/40
f 23/23/41 22/21/42 16/22/43 15/15/44
f 24/24/45 23/23/46 15/15/47 14/14/48
f 19/18/49 24/24/50 14/14/51 13/13/52
f 8/12/53 7/4/54 19/18/55 20/17/56
f 9/10/57 8/12/58 20/17/59 21/19/60
f 10/8/61 9/10/62 21/19/63 22/21/64
f 11/6/65 10/8/66 22/21/67 23/23/68
f 12/3/69 11/6/70 23/23/71 24/24/72
f 7/4/73 12/3/74 24/24/75 19/18/76
f 18/16/77 15/15/78 16/22/79 17/20/80
f 25/25/81 26/26/82 32/27/83 31/28/84
f 26/26/85 27/29/86 33/30/87 32/27/88
f 27/29/89 28/31/90 34/32/91 33/30/92
f 28/31/93 29/33/94 35/34/95 34/32/96
f 29/33/97 30/35/98 36/36/99 35/34/100
f 30/35/101 25/25/102 31/28/103 36/36/104
f 37/37/105 38/38/106 39/39/107 42/40/108
f 31/28/109 32/27/110 38/38/111 37/37/112
f 32/27/113 33/30/114 39/39/115 38/38/116
f 33/30/117 34/32/118 40/41/119 39/39/120
f 34/32/121 35/34/122 41/42/123 40/41/124
f 35/34/125 36/36/126 42/40/127 41/42/128
f 36/36/129 31/28/130 37/37/131 42/40/132
f 42/40/133 39/39/134 40/41/135 41/42/136
f 43/43/137 45/44/138 49/45/139 51/46/140
f 44/47/141 43/43/142 48/48/143 47/49/144
f 45/44/145 44/47/146 56/50/147 55/51/148
f 46/52/149 48/48/150 52/53/151 54/54/152
f 47/49/153 46/52/154 58/55/155 57/56/156
f 50/57/157 49/45/158 60/58/159 59/59/160
f 51/46/161 50/57/162 53/60/163 52/53/164
f 54/54/165 53/60/166 62/61/167 61/62/168
f 64/63/169 63/64/170 65/65/171 66/66/172
f 68/67/173 67/68/174 69/69/175 70/70/176
f 72/71/177 71/72/178 73/73/179 74/74/180
f 76/75/181 75/76/182 77/77/183 78/78/184
f 66/66/185 79/79/186 80/80/187 73/73/188
f 79/79/189 65/65/190 70/70/191 81/81/192
f 81/81/193 69/69/194 78/78/195 82/82/196
f 82/82/197 77/77/198 74/74/199 80/80/200
f 44/47/201 47/49/202 57/56/203 56/50/204
f 79/79/205 81/81/206 82/82/207 80/80/208
f 59/59/209 62/61/210 53/60/211 50/57/212
f 51/46/213 52/53/214 48/48/215 43/43/216
f 46/52/217 54/54/218 61/62/219 58/55/220
f 49/45/221 45/44/222 55/51/223 60/58/224
f 116/117/225 115/118/226 117/119/227 118/120/228
f 67/68/229 76/75/230 78/78/231 69/69/232
f 75/76/233 72/71/234 74/74/235 77/77/236
f 71/72/237 64/63/238 66/66/239 73/73/240
f 43/43/241 44/47/242 45/44/243
f 46/52/244 47/49/245 48/48/246
f 49/45/247 50/57/248 51/46/249
f 52/53/250 53/60/251 54/54/252
f 66/66/253 65/65/254 79/79/255
f 81/81/256 70/70/257 69/69/258
f 82/82/259 78/78/260 77/77/261
f 80/80/262 74/74/263 73/73/264
f 55/51/265 56/50/266 63/64/267 64/63/268
f 57/56/269 58/55/270 67/68/271 68/67/272
f 59/59/273 60/58/274 71/72/275 72/71/276
f 61/62/277 62/61/278 75/76/279 76/75/280
f 56/50/281 57/56/282 68/67/283 63/64/284
f 58/55/285 61/62/286 76/75/287 67/68/288
f 62/61/289 59/59/290 72/71/291 75/76/292
f 60/58/293 55/51/294 64/63/295 71/72/296
f 88/85/297 87/86/298 89/87/299 90/88/300
f 85/89/301 83/90/302 87/86/303 88/85/304
f 83/90/305 84/91/306 89/87/307 87/86/308
f 84/91/309 86/92/310 90/88/311 89/87/312
f 86/92/313 85/89/314 88/85/315 90/88/316
f 91/93/317 92/94/318 102/95/319 97/96/320
f 92/94/321 93/97/322 101/98/323 102/95/324
f 93/97/325 94/99/326 100/100/327 101/98/328
f 94/99/329 95/101/330 99/102/331 100/100/332
f 95/101/333 96/103/334 98/104/335 99/102/336
f 96/103/337 91/93/338 97/96/339 98/104/340
f 103/105/341 104/106/342 105/107/343 108/108/344
f 110/109/345 109/110/346 103/105/347 108/108/348
f 111/111/349 110/109/350 108/108/351 107/112/352
f 112/113/353 111/111/354 107/112/355 106/114/356
f 113/115/357 112/113/358 106/114/359 105/107/360
f 114/116/361 113/115/362 105/107/363 104/106/364
f 109/110/365 114/116/366 104/106/367 103/105/368
f 98/104/369 97/96/370 109/110/371 110/109/372
f 99/102/373 98/104/374 110/109/375 111/111/376
f 100/100/377 99/102/378 111/111/379 112/113/380
f 101/98/381 100/100/382 112/113/383 113/115/384
f 102/95/385 101/98/386 113/115/387 114/116/388
f 97/96/389 102/95/390 114/116/391 109/110/392
f 108/108/393 105/107/394 106/114/395 107/112/396
f 63/64/397 68/67/398 115/83/399 116/84/400
f 68/67/401 70/70/402 117/121/403 115/83/404
f 70/70/405 65/65/406 118/122/407 117/121/408
f 65/65/409 63/64/410 116/84/411 118/122/412
