# This file uses centimeters as units for non-parametric coordinates.

v -1.858108 -29.435724 -0.498616
v -1.384686 -29.283503 0.761455
v -0.160564 -29.260025 1.412850
v 1.089648 -29.359465 1.053716
v 1.641864 -29.545206 -0.083172
v -1.409750 27.478903 -0.359437
v -0.662190 28.287344 0.583274
v 0.737414 28.874619 0.941720
v 1.957757 29.081924 0.501238
v 2.326173 28.928120 -0.553605
v -0.005658 27.513111 -0.507772
v 0.656307 28.024065 -0.152136
v 1.134980 28.039692 -0.603518
v 0.401118 -29.466049 -0.270875
v -0.144814 -29.366825 0.163714
v -0.654792 -29.417622 -0.411641
v 0.159895 27.719364 -0.284575
v 1.071246 28.116392 -0.359926
v -0.572722 -29.379108 -0.117163
v 0.311546 -29.422533 -0.019246
v -0.745652 27.408276 -0.427661
v -0.235209 27.983822 0.178190
v 0.722515 28.467457 0.398222
v 1.551349 28.650492 0.084790
v 1.787831 28.503849 -0.603470
v 1.125104 -29.513407 -0.160178
v 0.739113 -29.377995 0.631402
v -0.157170 -29.296309 0.883556
v -1.031438 -29.308996 0.409682
v -1.361071 -29.416134 -0.474825
v -1.294573 -29.650732 -1.605139
v -0.033125 -29.779369 -1.934036
v 1.179761 -29.726696 -1.312878
v -1.012544 27.073895 -1.426028
v 0.275577 27.513035 -1.985094
v 1.648119 28.350283 -1.617015
v 0.484215 27.526501 -0.974206
v -0.106586 -29.522615 -0.840248
v 0.056538 27.407663 -0.755228
v 0.976300 27.854839 -0.833677
v -0.551306 -29.466381 -0.679597
v 0.331462 -29.503698 -0.542292
v -0.497653 27.140005 -1.119183
v 0.370070 27.434551 -1.497446
v 1.316275 28.037830 -1.274396
v 0.802265 -29.635353 -1.027123
v -0.066923 -29.664087 -1.486575
v -0.968149 -29.566912 -1.252443
v -1.687739 15.730893 -0.256998
v -1.128647 16.140652 0.986122
v 0.188208 16.462162 1.500520
v 1.491787 16.506245 0.984454
v 2.024559 16.230740 -0.262982
v -1.155188 15.456091 -1.504196
v 0.153536 15.487950 -2.025096
v 1.470501 15.809266 -1.510915
v -1.519070 2.417851 -1.234106
v -1.005661 2.700679 -0.226435
v 0.291637 3.082681 0.168380
v 1.617622 3.345672 -0.232887
v 2.189198 3.328167 -1.258977
v -0.953292 2.393468 -2.319495
v 0.365122 2.647541 -2.797503
v 1.668306 3.036479 -2.343027
v -1.924086 -13.572899 -1.333265
v -1.438210 -13.819051 0.029527
v -0.307415 -13.511905 0.730300
v 0.763179 -12.870777 0.382052
v 1.217950 -12.213349 -0.869625
v -1.439613 -12.881520 -2.599169
v -0.291580 -12.178111 -3.011412
v 0.808366 -11.905180 -2.295744
vt 0.014933 0.274771
vt 0.014933 0.274771
vt 0.014933 0.274771
vt 0.014933 0.274771
vt 0.014933 0.274771
vt 0.014933 0.274771
vt 0.014933 0.274771
vt 0.014933 0.274771
vt 0.014933 0.274771
vt 0.014933 0.274771
vt 0.014933 0.274771
vt 0.014933 0.274771
vt 0.014933 0.274771
vt 0.014933 0.274771
vt 0.014933 0.274771
vt 0.014933 0.274771
vt 0.014933 0.274771
vt 0.014933 0.274771
vt 0.016128 0.376915
vt 0.014933 0.274771
vt 0.016128 0.376915
vt 0.014933 0.274771
vt 0.016128 0.376915
vt 0.016128 0.376915
vt 0.016128 0.376915
vt 0.016128 0.376915
vt 0.016128 0.376915
vt 0.016128 0.376915
vt 0.016128 0.376915
vt 0.016128 0.376915
vt 0.016128 0.354216
vt 0.016128 0.354216
vt 0.016128 0.354216
vt 0.016128 0.354216
vt 0.016128 0.354216
vt 0.016128 0.354216
vt 0.016128 0.354216
vt 0.016128 0.354216
vt 0.016128 0.354216
vt 0.016128 0.354216
vt 0.016128 0.354216
vt 0.016128 0.354216
vt 0.016128 0.354216
vt 0.016128 0.354216
vt 0.016128 0.354216
vt 0.016128 0.354216
vt 0.016128 0.354216
vt 0.016128 0.354216
vt 0.016128 0.354216
vt 0.016128 0.354216
vt 0.014933 0.274771
vt 0.014933 0.274771
vt 0.014933 0.274771
vt 0.014933 0.274771
vt 0.014933 0.274771
vt 0.014933 0.274771
vt 0.014933 0.274771
vt 0.014933 0.274771
vt 0.014933 0.274771
vt 0.014933 0.274771
vt 0.016128 0.354216
vt 0.016128 0.354216
vt 0.016128 0.354216
vt 0.016128 0.354216
vt 0.016128 0.354216
vt 0.016128 0.354216
vt 0.016128 0.354216
vt 0.016128 0.354216
vt 0.016128 0.376915
vt 0.016128 0.376915
vt 0.016128 0.376915
vt 0.016128 0.376915
vt 0.016128 0.376915
vt 0.016128 0.376915
vt 0.016128 0.376915
vt 0.016128 0.376915
vt 0.016128 0.376915
vt 0.016128 0.376915
vt 0.016128 0.354216
vt 0.016128 0.354216
vt 0.016128 0.354216
vt 0.016128 0.354216
vt 0.016128 0.354216
vt 0.016128 0.354216
vt 0.016128 0.354216
vt 0.016128 0.354216
vt 0.016128 0.354216
vt 0.016128 0.354216
vt 0.016128 0.354216
vt 0.016128 0.354216
vt 0.014933 0.274771
vt 0.014933 0.274771
vt 0.014933 0.274771
vt 0.014933 0.274771
vt 0.014933 0.274771
vt 0.014933 0.274771
vt 0.014933 0.274771
vt 0.014933 0.274771
vt 0.014933 0.274771
vt 0.014933 0.274771
vt 0.014933 0.274771
vt 0.014933 0.274771
vt 0.014933 0.274771
vt 0.014933 0.274771
vt 0.014933 0.274771
vt 0.014933 0.274771
vt 0.014933 0.274771
vt 0.014933 0.274771
vt 0.014933 0.274771
vt 0.014933 0.274771
vt 0.014933 0.274771
vt 0.014933 0.274771
vt 0.014933 0.274771
vt 0.014933 0.274771
vt 0.014933 0.274771
vt 0.014933 0.274771
vt 0.014933 0.274771
vt 0.014933 0.274771
vt 0.014933 0.274771
vt 0.014933 0.274771
vt 0.014933 0.274771
vt 0.014933 0.274771
vt 0.014933 0.274771
vt 0.014933 0.274771
vt 0.014933 0.274771
vt 0.014933 0.274771
vt 0.014933 0.274771
vt 0.014933 0.274771
vt 0.014933 0.274771
vt 0.014933 0.274771
vn -0.938911 0.013615 0.343889
vn -0.938911 0.013615 0.343889
vn -0.931646 0.018757 0.362884
vn -0.929506 0.020217 0.368254
vn -0.501412 0.035956 0.864461
vn -0.501412 0.035956 0.864461
vn -0.454620 0.035713 0.889969
vn -0.466063 0.035781 0.884028
vn 0.281774 0.044400 0.958453
vn 0.281774 0.044400 0.958453
vn 0.288072 0.028845 0.957174
vn 0.284875 0.036767 0.957859
vn 0.918152 0.037378 0.394461
vn 0.918152 0.037378 0.394461
vn 0.916890 -0.011584 0.398971
vn 0.917801 0.012975 0.396830
vn -0.267103 0.835462 -0.480270
vn -0.288486 0.792975 -0.536625
vn -0.343910 0.778344 -0.525268
vn -0.439879 0.782981 -0.439826
vn -0.510357 0.802455 -0.309196
vn -0.080807 -0.985327 0.150339
vn -0.073351 -0.989331 0.125873
vn -0.055722 -0.991988 0.113382
vn -0.038231 -0.991572 0.123790
vn -0.033387 -0.987851 0.151775
vn -0.028467 0.854243 -0.519093
vn -0.141445 0.758108 -0.636605
vn -0.288486 0.792975 -0.536625
vn -0.267103 0.835462 -0.480270
vn -0.141445 0.758108 -0.636605
vn -0.201517 0.748361 -0.631939
vn -0.343910 0.778344 -0.525268
vn -0.288486 0.792975 -0.536625
vn -0.359951 0.768826 -0.528527
vn -0.444372 0.779213 -0.441997
vn -0.439879 0.782981 -0.439826
vn -0.343910 0.778344 -0.525268
vn -0.444372 0.779213 -0.441997
vn -0.600826 0.777708 -0.184872
vn -0.510357 0.802455 -0.309196
vn -0.439879 0.782981 -0.439826
vn -0.090102 -0.984613 0.149732
vn -0.073995 -0.991714 0.105010
vn -0.073351 -0.989331 0.125873
vn -0.080807 -0.985327 0.150339
vn -0.073351 -0.989331 0.125873
vn -0.073995 -0.991714 0.105010
vn -0.063631 -0.994007 0.088884
vn -0.055722 -0.991988 0.113382
vn -0.023393 -0.996962 0.074293
vn -0.003507 -0.995624 0.093390
vn -0.038231 -0.991572 0.123790
vn -0.055722 -0.991988 0.113382
vn -0.003507 -0.995624 0.093390
vn 0.018031 -0.987871 0.154229
vn -0.033387 -0.987851 0.151775
vn -0.038231 -0.991572 0.123790
vn -0.109503 0.753349 -0.648440
vn -0.141445 0.758108 -0.636605
vn -0.028467 0.854243 -0.519093
vn 0.016041 0.848913 -0.528289
vn -0.201517 0.748361 -0.631939
vn -0.141445 0.758108 -0.636605
vn -0.109503 0.753349 -0.648440
vn -0.182590 0.747144 -0.639091
vn -0.438310 0.784275 -0.439087
vn -0.444372 0.779213 -0.441997
vn -0.359951 0.768826 -0.528527
vn -0.342393 0.776888 -0.528405
vn -0.600826 0.777708 -0.184872
vn -0.444372 0.779213 -0.441997
vn -0.438310 0.784275 -0.439087
vn -0.587424 0.778438 -0.221283
vn -0.073219 -0.992225 0.100644
vn -0.073995 -0.991714 0.105010
vn -0.090102 -0.984613 0.149732
vn -0.089407 -0.985045 0.147288
vn -0.063631 -0.994007 0.088884
vn -0.073995 -0.991714 0.105010
vn -0.073219 -0.992225 0.100644
vn -0.061269 -0.994938 0.079657
vn 0.006616 -0.996501 0.083324
vn -0.003507 -0.995624 0.093390
vn -0.023393 -0.996962 0.074293
vn -0.016697 -0.997860 0.063215
vn 0.018031 -0.987871 0.154229
vn -0.003507 -0.995624 0.093390
vn 0.006616 -0.996501 0.083324
vn 0.031990 -0.987483 0.154447
vn -0.912196 -0.028804 -0.408742
vn -0.913794 -0.008797 -0.406082
vn -0.914961 0.010116 -0.403415
vn -0.912196 -0.028804 -0.408742
vn -0.280124 -0.061026 -0.958022
vn -0.301594 -0.033752 -0.952839
vn -0.325372 -0.002929 -0.945581
vn -0.280124 -0.061026 -0.958022
vn 0.504341 -0.041198 -0.862521
vn 0.480409 -0.032049 -0.876459
vn 0.472328 -0.028988 -0.880946
vn 0.504341 -0.041198 -0.862521
vn 0.950198 0.005814 -0.311594
vn 0.943260 -0.029673 -0.330725
vn 0.945335 -0.019872 -0.325494
vn 0.950198 0.005814 -0.311594
vn -0.267103 0.835462 -0.480270
vn -0.510357 0.802455 -0.309196
vn -0.508235 0.831212 -0.225351
vn -0.447564 0.870906 -0.203001
vn -0.326002 0.893736 -0.308152
vn -0.080807 -0.985327 0.150339
vn -0.033387 -0.987851 0.151775
vn -0.044122 -0.982353 0.181759
vn -0.065798 -0.979600 0.189878
vn -0.079533 -0.981420 0.174612
vn -0.058986 0.990951 -0.120569
vn 0.016041 0.848913 -0.528289
vn -0.028467 0.854243 -0.519093
vn -0.146582 0.983586 -0.105223
vn -0.280763 0.955684 0.088541
vn -0.237891 0.951046 0.197282
vn -0.058986 0.990951 -0.120569
vn -0.146582 0.983586 -0.105223
vn -0.620643 0.781377 0.065201
vn -0.554596 0.802675 0.219400
vn -0.553036 0.820641 0.143877
vn -0.589990 0.805336 0.057840
vn -0.600826 0.777708 -0.184872
vn -0.587424 0.778438 -0.221283
vn -0.620643 0.781377 0.065201
vn -0.589990 0.805336 0.057840
vn -0.087533 -0.975676 0.200982
vn -0.089407 -0.985045 0.147288
vn -0.090102 -0.984613 0.149732
vn -0.086551 -0.976431 0.197715
vn -0.080380 -0.972596 0.218165
vn -0.080529 -0.970265 0.228255
vn -0.087533 -0.975676 0.200982
vn -0.086551 -0.976431 0.197715
vn -0.001693 -0.973576 0.228357
vn -0.034985 -0.966743 0.253345
vn -0.040631 -0.970712 0.236786
vn -0.014147 -0.975623 0.218996
vn 0.018031 -0.987871 0.154229
vn 0.031990 -0.987483 0.154447
vn -0.001693 -0.973576 0.228357
vn -0.014147 -0.975623 0.218996
vn -0.090102 -0.984613 0.149732
vn -0.080807 -0.985327 0.150339
vn -0.079533 -0.981420 0.174612
vn -0.086551 -0.976431 0.197715
vn -0.589990 0.805336 0.057840
vn -0.508235 0.831212 -0.225351
vn -0.510357 0.802455 -0.309196
vn -0.600826 0.777708 -0.184872
vn -0.553036 0.820641 0.143877
vn -0.447564 0.870906 -0.203001
vn -0.508235 0.831212 -0.225351
vn -0.589990 0.805336 0.057840
vn -0.146582 0.983586 -0.105223
vn -0.326002 0.893736 -0.308152
vn -0.447564 0.870906 -0.203001
vn -0.280763 0.955684 0.088541
vn -0.028467 0.854243 -0.519093
vn -0.267103 0.835462 -0.480270
vn -0.326002 0.893736 -0.308152
vn -0.146582 0.983586 -0.105223
vn -0.014147 -0.975623 0.218996
vn -0.044122 -0.982353 0.181759
vn -0.033387 -0.987851 0.151775
vn 0.018031 -0.987871 0.154229
vn -0.040631 -0.970712 0.236786
vn -0.065798 -0.979600 0.189878
vn -0.044122 -0.982353 0.181759
vn -0.014147 -0.975623 0.218996
vn -0.086551 -0.976431 0.197715
vn -0.079533 -0.981420 0.174612
vn -0.065798 -0.979600 0.189878
vn -0.080380 -0.972596 0.218165
vn -0.886147 -0.014048 0.463190
vn -0.880073 0.003240 0.474828
vn -0.866798 0.037520 0.497246
vn -0.866798 0.037520 0.497246
vn -0.312044 -0.034627 0.949437
vn -0.314586 -0.011998 0.949153
vn -0.320739 0.050300 0.945831
vn -0.320739 0.050300 0.945831
vn 0.344630 -0.035592 0.938064
vn 0.344979 -0.032999 0.938030
vn 0.352133 0.024710 0.935624
vn 0.352133 0.024710 0.935624
vn 0.916667 -0.021519 0.399073
vn 0.912089 -0.022984 0.409348
vn 0.929987 -0.017002 0.367198
vn 0.929987 -0.017002 0.367198
vn -0.912883 0.016338 -0.407893
vn -0.916163 0.016325 -0.400473
vn -0.926102 0.016280 -0.376922
vn -0.926102 0.016280 -0.376922
vn -0.372147 0.031076 -0.927653
vn -0.372014 0.031296 -0.927699
vn -0.385358 0.008926 -0.922724
vn -0.385358 0.008926 -0.922724
vn 0.321543 0.024300 -0.946583
vn 0.323983 0.034762 -0.945424
vn 0.314172 -0.006387 -0.949345
vn 0.314172 -0.006387 -0.949345
vn 0.893219 0.002101 -0.449617
vn 0.896501 0.016127 -0.442749
vn 0.886480 -0.024097 -0.462139
vn 0.886480 -0.024097 -0.462139
vn -0.913402 0.000511 0.407059
vn -0.909065 -0.012099 0.416479
vn -0.880073 0.003240 0.474828
vn -0.886147 -0.014048 0.463190
vn -0.378739 -0.011492 0.925432
vn -0.357376 -0.035457 0.933287
vn -0.314586 -0.011998 0.949153
vn -0.312044 -0.034627 0.949437
vn 0.311003 -0.024296 0.950098
vn 0.316787 -0.037881 0.947740
vn 0.344979 -0.032999 0.938030
vn 0.344630 -0.035592 0.938064
vn 0.907321 -0.034099 0.419054
vn 0.907613 -0.034312 0.418404
vn 0.912089 -0.022984 0.409348
vn 0.916667 -0.021519 0.399073
vn -0.910683 0.024553 -0.412376
vn -0.910289 0.024074 -0.413274
vn -0.916163 0.016325 -0.400473
vn -0.912883 0.016338 -0.407893
vn -0.354974 0.040955 -0.933978
vn -0.353778 0.038398 -0.934541
vn -0.372014 0.031296 -0.927699
vn -0.372147 0.031076 -0.927653
vn 0.378719 0.029652 -0.925036
vn 0.400060 0.013901 -0.916384
vn 0.323983 0.034762 -0.945424
vn 0.321543 0.024300 -0.946583
vn 0.920199 -0.006037 -0.391405
vn 0.925773 -0.023918 -0.377324
vn 0.896501 0.016127 -0.442749
vn 0.893219 0.002101 -0.449617
vn -0.929506 0.020217 0.368254
vn -0.931646 0.018757 0.362884
vn -0.909065 -0.012099 0.416479
vn -0.913402 0.000511 0.407059
vn -0.466063 0.035781 0.884028
vn -0.454620 0.035713 0.889969
vn -0.357376 -0.035457 0.933287
vn -0.378739 -0.011492 0.925432
vn 0.284875 0.036767 0.957859
vn 0.288072 0.028845 0.957174
vn 0.316787 -0.037881 0.947740
vn 0.311003 -0.024296 0.950098
vn 0.917801 0.012975 0.396830
vn 0.916890 -0.011584 0.398971
vn 0.907613 -0.034312 0.418404
vn 0.907321 -0.034099 0.419054
vn -0.914961 0.010116 -0.403415
vn -0.913794 -0.008797 -0.406082
vn -0.910289 0.024074 -0.413274
vn -0.910683 0.024553 -0.412376
vn -0.325372 -0.002929 -0.945581
vn -0.301594 -0.033752 -0.952839
vn -0.353778 0.038398 -0.934541
vn -0.354974 0.040955 -0.933978
vn 0.472328 -0.028988 -0.880946
vn 0.480409 -0.032049 -0.876459
vn 0.400060 0.013901 -0.916384
vn 0.378719 0.029652 -0.925036
vn 0.945335 -0.019872 -0.325494
vn 0.943260 -0.029673 -0.330725
vn 0.925773 -0.023918 -0.377324
vn 0.920199 -0.006037 -0.391405
s off
f 1/1/1 2/2/2 66/123/3 65/122/4
f 2/2/5 3/5/6 67/124/7 66/123/8
f 3/5/9 4/7/10 68/125/11 67/124/12
f 4/7/13 5/9/14 69/126/15 68/125/16
f 11/19/17 17/25/18 12/27/19 18/26/20 13/24/21
f 14/23/22 20/29/23 15/28/24 19/30/25 16/21/26
f 21/41/27 22/42/28 17/35/29 11/31/30
f 22/42/31 23/43/32 12/37/33 17/35/34
f 23/43/35 24/44/36 18/36/37 12/37/38
f 24/44/39 25/45/40 13/34/41 18/36/42
f 26/46/43 27/47/44 20/39/45 14/33/46
f 20/39/47 27/47/48 28/48/49 15/38/50
f 28/48/51 29/49/52 19/40/53 15/38/54
f 29/49/55 30/50/56 16/32/57 19/40/58
f 7/3/59 22/11/60 21/12/61 6/4/62
f 23/13/63 22/11/64 7/3/65 8/6/66
f 9/8/67 24/14/68 23/13/69 8/6/70
f 25/15/71 24/14/72 9/8/73 10/10/74
f 4/7/75 27/17/76 26/16/77 5/9/78
f 28/18/79 27/17/80 4/7/81 3/5/82
f 2/2/83 29/20/84 28/18/85 3/5/86
f 30/22/87 29/20/88 2/2/89 1/1/90
f 1/51/91 65/121/92 70/128/93 31/52/94
f 31/52/95 70/128/96 71/129/97 32/55/98
f 32/55/99 71/129/100 72/130/101 33/57/102
f 33/57/103 72/130/104 69/127/105 5/59/106
f 11/69/107 13/73/108 40/72/109 37/71/110 39/70/111
f 14/74/112 16/78/113 41/77/114 38/76/115 42/75/116
f 34/53/117 6/54/118 21/92/119 43/91/120
f 44/93/121 35/56/122 34/53/123 43/91/124
f 36/58/125 35/56/126 44/93/127 45/94/128
f 25/95/129 10/60/130 36/58/131 45/94/132
f 33/57/133 5/59/134 26/97/135 46/96/136
f 47/98/137 32/55/138 33/57/139 46/96/140
f 31/52/141 32/55/142 47/98/143 48/99/144
f 30/100/145 1/51/146 31/52/147 48/99/148
f 26/86/149 14/80/150 42/66/151 46/87/152
f 45/84/153 40/63/154 13/79/155 25/85/156
f 44/83/157 37/64/158 40/63/159 45/84/160
f 43/82/161 39/61/162 37/64/163 44/83/164
f 21/81/165 11/62/166 39/61/167 43/82/168
f 48/89/169 41/68/170 16/67/171 30/90/172
f 47/88/173 38/65/174 41/68/175 48/89/176
f 46/87/177 42/66/178 38/65/179 47/88/180
f 49/102/181 50/103/182 7/3/183 6/4/184
f 50/103/185 51/104/186 8/6/187 7/3/188
f 51/104/189 52/105/190 9/8/191 8/6/192
f 52/105/193 53/106/194 10/10/195 9/8/196
f 54/108/197 49/101/198 6/54/199 34/53/200
f 55/109/201 54/108/202 34/53/203 35/56/204
f 56/110/205 55/109/206 35/56/207 36/58/208
f 53/107/209 56/110/210 36/58/211 10/60/212
f 57/112/213 58/113/214 50/103/215 49/102/216
f 58/113/217 59/114/218 51/104/219 50/103/220
f 59/114/221 60/115/222 52/105/223 51/104/224
f 60/115/225 61/116/226 53/106/227 52/105/228
f 62/118/229 57/111/230 49/101/231 54/108/232
f 63/119/233 62/118/234 54/108/235 55/109/236
f 64/120/237 63/119/238 55/109/239 56/110/240
f 61/117/241 64/120/242 56/110/243 53/107/244
f 65/122/245 66/123/246 58/113/247 57/112/248
f 66/123/249 67/124/250 59/114/251 58/113/252
f 67/124/253 68/125/254 60/115/255 59/114/256
f 68/125/257 69/126/258 61/116/259 60/115/260
f 70/128/261 65/121/262 57/111/263 62/118/264
f 71/129/265 70/128/266 62/118/267 63/119/268
f 72/130/269 71/129/270 63/119/271 64/120/272
f 69/127/273 72/130/274 64/120/275 61/117/276
