# This file uses centimeters as units for non-parametric coordinates.

v -43.858398 7.648337 44.985840
v 5.077148 2.881713 57.145508
v -43.858398 21.962690 44.985840
v 1.591797 21.962690 51.812500
v -38.131836 17.733204 21.938965
v 10.803711 21.962690 34.097656
v -38.131836 2.881713 21.938965
v 10.803711 5.177763 34.097656
v -12.422852 21.962690 52.797363
v 8.072266 21.962690 45.094238
v 5.077148 11.391219 57.145508
v 5.912109 18.288036 53.785156
v 1.125000 18.772394 56.163574
v -30.540039 21.962690 23.825195
v -39.513672 21.962690 27.499023
v -18.812500 2.881713 51.208984
v -42.209961 2.881713 38.349121
v -10.454102 2.881713 28.816406
v 9.769531 2.881713 38.262695
v -26.733398 2.881394 24.011230
v -26.733398 2.881394 -24.011719
v 21.289063 2.881671 -24.011719
v 21.289063 2.881671 24.011230
v -26.733398 43.810585 24.011230
v 21.289063 43.960747 24.011230
v -26.733398 43.945274 -24.011719
v -26.733398 43.904865 -9.604492
v -26.733398 63.643833 -24.011719
v -12.239258 44.185669 -24.012207
v -26.733398 63.395744 -9.945313
v -12.228516 63.360626 -24.011719
v 21.289063 44.225952 7.700195
v 21.289063 22.984470 -24.011719
v 4.893555 44.469795 -24.012207
v 21.289063 22.592077 7.368652
v 4.965820 22.497116 -24.011719
v -12.236328 63.378178 -9.689453
v -12.241211 44.045269 -9.519531
v 4.983398 22.544598 7.286133
v 4.947266 44.347874 7.451172
v 4.083984 43.906952 24.011230
v -5.890625 48.884552 -17.968262
v -35.524414 44.117928 22.828613
v -5.890625 63.198902 -17.968262
v -29.273438 63.198902 21.599121
v 13.324219 58.969421 -4.011719
v -16.309570 63.198902 36.785645
v 13.324219 44.117928 -4.011719
v -16.309570 46.413979 36.785645
v -24.926758 63.198902 8.238770
v -25.477539 63.198902 30.126465
v -35.524414 52.627434 22.828613
v -32.722656 59.524254 24.863281
v -33.129883 60.008610 19.533203
v 8.727539 63.198902 2.317383
v 8.689453 63.198902 -7.378906
v -21.056641 44.117928 2.911621
v -0.356445 44.117928 -13.949219
v -3.436523 44.117928 19.063477
v -19.782227 44.117928 34.263672
v 23.663086 32.934010 1.032227
v 42.342773 -1.254911 -34.139160
v 21.458008 47.341091 -12.099121
v 46.409180 13.544315 -44.254883
v 6.353516 46.396904 -19.360352
v 22.380859 17.062899 -49.536133
v 2.962891 34.053497 -10.923340
v 20.966797 -2.591305 -44.415039
v 29.761719 44.013241 -12.910645
v 25.945313 41.239216 -4.645020
v 31.168945 12.591327 -51.582031
v 22.704102 3.726292 -48.733887
v 6.249023 24.347569 -16.703125
v 8.777344 32.003223 -6.125000
v -44.706055 2.881713 -12.118164
v -0.971680 2.881713 -37.215820
v -44.706055 16.114563 -12.118164
v -0.971680 21.962690 -37.215820
v -56.526367 21.962690 -32.715820
v -12.791992 21.962690 -57.812988
v -56.526367 2.881713 -32.715820
v -12.791992 6.539390 -57.812988
v -53.114258 21.962690 -26.770996
v -22.587891 21.962690 -24.811523
v -43.008789 21.962690 -16.950684
v -27.989258 2.881713 -49.091797
v -5.078125 2.881713 -44.371094
v -36.805664 21.962690 -44.033203
v -18.910156 21.962690 -54.302246
v -25.537109 21.962690 -47.495117
v -28.085938 15.750119 -49.037109
vt 0.657789 0.219989
vt 0.657789 0.219989
vt 0.657789 0.219989
vt 0.657789 0.219989
vt 0.657789 0.219989
vt 0.657789 0.219989
vt 0.657789 0.219989
vt 0.657789 0.219989
vt 0.657789 0.219989
vt 0.657789 0.219989
vt 0.657789 0.219989
vt 0.657789 0.219989
vt 0.657789 0.219989
vt 0.657789 0.219989
vt 0.657789 0.219989
vt 0.657789 0.219989
vt 0.657789 0.219989
vt 0.657789 0.219989
vt 0.657789 0.219989
vt 0.657789 0.219989
vt 0.657789 0.219989
vt 0.657789 0.219989
vt 0.657789 0.219989
vt 0.657789 0.219989
vt 0.657789 0.219989
vt 0.657789 0.219989
vt 0.657789 0.219989
vt 0.657789 0.219989
vt 0.657789 0.219989
vt 0.657789 0.219989
vt 0.654769 0.129295
vt 0.654769 0.129295
vt 0.686943 0.129295
vt 0.686943 0.129295
vt 0.654769 0.148800
vt 0.664421 0.148780
vt 0.664193 0.159600
vt 0.654769 0.159725
vt 0.675416 0.148781
vt 0.686943 0.148808
vt 0.654769 0.129295
vt 0.686943 0.148732
vt 0.654769 0.159725
vt 0.664487 0.159583
vt 0.664480 0.148921
vt 0.654769 0.148800
vt 0.654769 0.139407
vt 0.677079 0.139210
vt 0.677301 0.148941
vt 0.686943 0.148808
vt 0.686943 0.129295
vt 0.675386 0.149064
vt 0.675435 0.139162
vt 0.686943 0.139407
vt 0.686943 0.129295
vt 0.675328 0.139186
vt 0.675746 0.149003
vt 0.675416 0.148781
vt 0.664340 0.159591
vt 0.664451 0.148850
vt 0.699933 0.140297
vt 0.717939 0.150106
vt 0.708488 0.159129
vt 0.699933 0.160025
vt 0.717561 0.139436
vt 0.654769 0.129295
vt 0.654769 0.148732
vt 0.657789 0.219989
vt 0.657789 0.219989
vt 0.657789 0.219989
vt 0.657789 0.219989
vt 0.657789 0.219989
vt 0.657789 0.219989
vt 0.657789 0.219989
vt 0.657789 0.219989
vt 0.657789 0.219989
vt 0.657789 0.219989
vt 0.657789 0.219989
vt 0.657789 0.219989
vt 0.657789 0.219989
vt 0.657789 0.219989
vt 0.657789 0.219989
vt 0.657789 0.219989
vt 0.657789 0.219989
vt 0.657789 0.219989
vt 0.657789 0.219989
vt 0.657789 0.219989
vt 0.657789 0.219989
vt 0.657789 0.219989
vt 0.657789 0.219989
vt 0.657789 0.219989
vt 0.657789 0.219989
vt 0.657789 0.219989
vt 0.657789 0.219989
vt 0.657789 0.219989
vt 0.657789 0.219989
vt 0.657789 0.219989
vt 0.666833 0.230668
vt 0.666833 0.230668
vt 0.666833 0.230668
vt 0.666833 0.230668
vt 0.666833 0.230668
vt 0.666833 0.230668
vt 0.666833 0.230668
vt 0.666833 0.230668
vt 0.666833 0.230668
vt 0.666833 0.230668
vt 0.666833 0.230668
vt 0.655273 0.219820
vt 0.655273 0.219819
vt 0.655273 0.219819
vt 0.666833 0.230668
vt 0.666833 0.230668
vt 0.666833 0.230668
vt 0.655273 0.219820
vt 0.655273 0.219818
vt 0.655273 0.219818
vt 0.666833 0.230668
vt 0.666833 0.230668
vt 0.655273 0.219818
vt 0.655273 0.219820
vt 0.655273 0.219818
vt 0.666833 0.230668
vt 0.666833 0.230668
vt 0.666833 0.230668
vt 0.666833 0.230668
vt 0.666833 0.230668
vt 0.666833 0.230668
vt 0.675013 0.220163
vt 0.675013 0.220163
vt 0.675013 0.220163
vt 0.675013 0.220163
vt 0.675013 0.220163
vt 0.675013 0.220163
vt 0.675013 0.220163
vt 0.675013 0.220163
vt 0.675013 0.220163
vt 0.675013 0.220163
vt 0.675013 0.220163
vt 0.675013 0.220163
vt 0.675013 0.220163
vt 0.675013 0.220163
vt 0.675013 0.220163
vt 0.675013 0.220163
vt 0.675013 0.220163
vt 0.675013 0.220163
vt 0.675013 0.220163
vt 0.675013 0.220163
vt 0.675013 0.220163
vt 0.655273 0.220046
vt 0.655273 0.220045
vt 0.655273 0.220045
vt 0.655273 0.220046
vt 0.655273 0.220046
vt 0.655273 0.220046
vt 0.655273 0.220045
vt 0.655273 0.220045
vt 0.655273 0.220046
vt 0.655273 0.220045
vt 0.655273 0.220045
vt 0.675013 0.220163
vt 0.675013 0.220163
vt 0.675013 0.220163
vt 0.675013 0.220163
vn 0.000000 1.000000 -0.000000
vn 0.000000 1.000000 -0.000000
vn 0.000000 1.000000 -0.000000
vn 0.000000 1.000000 -0.000000
vn 0.000000 1.000000 -0.000000
vn 0.000000 -1.000000 -0.000000
vn 0.000000 -1.000000 -0.000000
vn 0.000000 -1.000000 -0.000000
vn 0.000000 -1.000000 -0.000000
vn 0.970491 0.000035 0.241136
vn 0.970491 0.000035 0.241136
vn 0.970491 0.000035 0.241136
vn 0.970491 0.000035 0.241136
vn 0.970491 0.000035 0.241136
vn -0.970491 -0.000017 -0.241139
vn -0.970491 -0.000017 -0.241139
vn -0.970491 -0.000017 -0.241139
vn -0.970491 -0.000017 -0.241139
vn 0.041722 0.803607 0.593697
vn 0.041722 0.803607 0.593697
vn 0.041722 0.803607 0.593697
vn 0.360565 0.733335 0.576379
vn 0.360565 0.733335 0.576379
vn 0.360565 0.733335 0.576379
vn 0.456506 0.773108 0.440348
vn 0.456506 0.773108 0.440348
vn 0.456506 0.773108 0.440348
vn -0.255778 0.737737 -0.624758
vn -0.255778 0.737737 -0.624758
vn -0.255777 0.737737 -0.624758
vn 0.241132 -0.000003 -0.970492
vn 0.241132 -0.000003 -0.970492
vn 0.241132 -0.000003 -0.970492
vn 0.241132 -0.000003 -0.970492
vn -0.241150 -0.000023 0.970488
vn -0.241150 -0.000023 0.970488
vn -0.241150 -0.000023 0.970488
vn -0.241150 -0.000023 0.970488
vn -0.241150 -0.000023 0.970488
vn -0.281726 -0.811107 0.512578
vn -0.281726 -0.811107 0.512578
vn -0.281726 -0.811107 0.512578
vn 0.445131 0.348096 0.825038
vn 0.445131 0.348096 0.825038
vn 0.445131 0.348096 0.825038
vn 0.202580 -0.877987 -0.433705
vn 0.202580 -0.877987 -0.433705
vn 0.202580 -0.877987 -0.433705
vn 0.000000 -1.000000 0.000000
vn 0.000000 -1.000000 0.000000
vn 0.000000 -1.000000 0.000000
vn 0.000000 -1.000000 0.000000
vn -0.241160 -0.000009 0.970485
vn -0.241160 -0.000009 0.970485
vn -0.241160 -0.000009 0.970485
vn -0.241160 -0.000009 0.970485
vn 0.970494 -0.000041 0.241124
vn 0.970494 -0.000041 0.241124
vn 0.970494 -0.000041 0.241124
vn 0.970494 -0.000041 0.241124
vn 0.000000 1.000000 0.000000
vn 0.000000 1.000000 0.000000
vn 0.000000 1.000000 0.000000
vn 0.000000 1.000000 0.000000
vn 0.241133 -0.000032 -0.970492
vn 0.241133 -0.000032 -0.970492
vn 0.241133 -0.000032 -0.970492
vn 0.241133 -0.000032 -0.970492
vn -0.970488 0.000033 -0.241148
vn -0.970488 0.000033 -0.241148
vn -0.970488 0.000033 -0.241148
vn -0.970488 0.000033 -0.241148
vn 0.000006 -1.000000 0.000000
vn 0.000006 -1.000000 0.000000
vn 0.000006 -1.000000 0.000000
vn 0.000006 -1.000000 0.000000
vn -1.000000 -0.000000 0.000000
vn -1.000000 -0.000000 0.000000
vn -1.000000 -0.000000 0.000000
vn -1.000000 -0.000000 0.000000
vn -0.000000 0.000000 1.000000
vn -0.000000 0.000000 1.000000
vn -0.000000 0.000000 1.000000
vn -1.000000 0.000000 0.000000
vn -1.000000 0.000000 0.000000
vn -1.000000 0.000000 0.000000
vn -1.000000 0.000000 0.000000
vn -1.000000 0.000000 0.000000
vn -0.000017 0.000013 -1.000000
vn -0.000017 0.000013 -1.000000
vn -0.000017 0.000013 -1.000000
vn -0.000017 0.000013 -1.000000
vn 1.000000 0.000000 0.000000
vn 1.000000 0.000000 0.000000
vn 1.000000 0.000000 0.000000
vn 1.000000 0.000000 0.000000
vn 1.000000 0.000000 0.000000
vn 1.000000 0.000000 0.000000
vn -0.000003 -0.000007 -1.000000
vn -0.000003 -0.000007 -1.000000
vn -0.000003 -0.000007 -1.000000
vn -0.000003 -0.000007 -1.000000
vn -0.000003 -0.000007 -1.000000
vn -0.000003 -0.000007 -1.000000
vn -0.000003 -0.000007 -1.000000
vn 0.010180 0.011439 -0.999883
vn 0.010180 0.011439 -0.999883
vn 0.010180 0.011439 -0.999883
vn 0.010180 0.011439 -0.999883
vn -0.016403 0.999850 0.005507
vn -0.016403 0.999850 0.005507
vn -0.016403 0.999850 0.005507
vn -0.016403 0.999850 0.005507
vn 0.001871 0.999767 0.021526
vn 0.001871 0.999767 0.021526
vn 0.001871 0.999767 0.021526
vn 0.001871 0.999767 0.021526
vn 1.000000 -0.000404 0.000337
vn 1.000000 -0.000404 0.000337
vn 1.000000 -0.000404 0.000337
vn 1.000000 -0.000404 0.000337
vn 0.019521 0.999809 -0.001215
vn 0.019521 0.999809 -0.001215
vn 0.019521 0.999809 -0.001215
vn 0.000900 0.999844 0.017634
vn 0.000900 0.999844 0.017634
vn 0.000900 0.999844 0.017634
vn -0.011811 0.013155 0.999844
vn -0.011811 0.013155 0.999844
vn -0.011811 0.013155 0.999844
vn -0.011811 0.013155 0.999844
vn 0.999996 0.002480 -0.001133
vn 0.999996 0.002480 -0.001133
vn 0.999996 0.002480 -0.001133
vn 0.999996 0.002480 -0.001133
vn -0.019925 0.999785 0.005729
vn -0.019925 0.999785 0.005729
vn -0.019925 0.999785 0.005729
vn -0.019925 0.999785 0.005729
vn -0.014399 0.999896 0.000775
vn -0.014399 0.999896 0.000775
vn -0.014399 0.999896 0.000775
vn -0.014399 0.999896 0.000775
vn -0.003126 0.999645 0.026454
vn -0.003126 0.999645 0.026454
vn -0.003126 0.999645 0.026454
vn 0.000000 0.000000 1.000000
vn 0.000000 0.000000 1.000000
vn 0.000000 0.000000 1.000000
vn 0.000000 0.000000 1.000000
vn 0.000000 1.000000 -0.000000
vn 0.000000 1.000000 -0.000000
vn 0.000000 1.000000 -0.000000
vn 0.000000 1.000000 -0.000000
vn 0.000000 1.000000 -0.000000
vn 0.000000 -1.000000 0.000000
vn 0.000000 -1.000000 0.000000
vn 0.000000 -1.000000 0.000000
vn 0.000000 -1.000000 0.000000
vn -0.587690 0.000040 0.809086
vn -0.587690 0.000040 0.809086
vn -0.587690 0.000040 0.809086
vn -0.587690 0.000040 0.809086
vn -0.587690 0.000040 0.809086
vn 0.587674 -0.000035 -0.809098
vn 0.587674 -0.000035 -0.809098
vn 0.587674 -0.000035 -0.809098
vn 0.587674 -0.000035 -0.809098
vn -0.566067 0.803524 -0.184165
vn -0.566067 0.803524 -0.184165
vn -0.566067 0.803524 -0.184165
vn -0.669687 0.733242 0.117796
vn -0.669687 0.733242 0.117796
vn -0.669687 0.733242 0.117796
vn -0.579489 0.773079 0.257955
vn -0.579489 0.773079 0.257955
vn -0.579489 0.773079 0.257955
vn 0.675121 0.737702 -0.002651
vn 0.675121 0.737702 -0.002651
vn 0.675121 0.737702 -0.002651
vn 0.809084 -0.000022 0.587693
vn 0.809084 -0.000022 0.587693
vn 0.809084 -0.000022 0.587693
vn 0.809084 -0.000022 0.587693
vn -0.809090 -0.000022 -0.587685
vn -0.809090 -0.000022 -0.587685
vn -0.809090 -0.000022 -0.587685
vn -0.809090 -0.000022 -0.587685
vn -0.809090 -0.000022 -0.587685
vn -0.369346 -0.811152 -0.453449
vn -0.369346 -0.811152 -0.453449
vn -0.369346 -0.811152 -0.453449
vn -0.931769 0.348185 0.102830
vn -0.931769 0.348185 0.102830
vn -0.931769 0.348185 0.102830
vn 0.325956 -0.878002 0.350521
vn 0.325956 -0.878002 0.350521
vn 0.325956 -0.878002 0.350521
vn 0.000000 -1.000000 0.000000
vn 0.000000 -1.000000 0.000000
vn 0.000000 -1.000000 0.000000
vn 0.000000 -1.000000 0.000000
vn -0.809064 0.000034 -0.587721
vn -0.809064 0.000034 -0.587721
vn -0.809064 0.000034 -0.587721
vn -0.809064 0.000034 -0.587721
vn -0.587704 -0.000016 0.809076
vn -0.587704 -0.000016 0.809076
vn -0.587704 -0.000016 0.809076
vn -0.587704 -0.000016 0.809076
vn 0.000000 1.000000 0.000001
vn 0.000000 1.000000 0.000001
vn 0.000000 1.000000 0.000001
vn 0.000000 1.000000 0.000001
vn 0.809086 0.000014 0.587691
vn 0.809086 0.000014 0.587691
vn 0.809086 0.000014 0.587691
vn 0.809086 0.000014 0.587691
vn 0.587684 0.000029 -0.809091
vn 0.587684 0.000029 -0.809091
vn 0.587684 0.000029 -0.809091
vn 0.587684 0.000029 -0.809091
vn 0.900650 0.047764 0.431912
vn 0.900650 0.047764 0.431912
vn 0.900650 0.047764 0.431912
vn 0.900650 0.047764 0.431912
vn 0.900650 0.047764 0.431912
vn -0.900646 -0.047767 -0.431921
vn -0.900646 -0.047767 -0.431921
vn -0.900646 -0.047767 -0.431921
vn -0.900646 -0.047767 -0.431921
vn -0.900646 -0.047767 -0.431921
vn -0.900646 -0.047767 -0.431921
vn -0.640468 -0.541275 0.544814
vn -0.640468 -0.541275 0.544814
vn -0.640468 -0.541275 0.544814
vn 0.379259 -0.590930 -0.712015
vn 0.379259 -0.590930 -0.712015
vn 0.379259 -0.590930 -0.712015
vn 0.379259 -0.590930 -0.712015
vn 0.379259 -0.590930 -0.712015
vn 0.370306 0.815554 0.444686
vn 0.370306 0.815554 0.444686
vn 0.370306 0.815554 0.444686
vn 0.244089 0.756949 -0.606176
vn 0.244089 0.756949 -0.606176
vn 0.244089 0.756949 -0.606176
vn 0.244089 0.756949 -0.606176
vn 0.244089 0.756949 -0.606176
vn 0.244089 0.756949 -0.606176
vn -0.257161 -0.064235 -0.964231
vn -0.257161 -0.064235 -0.964231
vn -0.257161 -0.064235 -0.964231
vn -0.244101 -0.756947 0.606173
vn -0.244101 -0.756947 0.606173
vn -0.244101 -0.756947 0.606173
vn -0.244101 -0.756947 0.606173
vn -0.244101 -0.756947 0.606173
vn -0.379264 0.590901 0.712036
vn -0.379264 0.590901 0.712036
vn -0.379264 0.590901 0.712036
vn -0.379264 0.590901 0.712036
vn -0.379264 0.590901 0.712036
vn -0.379264 0.590901 0.712036
vn 0.497730 0.000012 0.867332
vn 0.497730 0.000012 0.867332
vn 0.497730 0.000012 0.867332
vn 0.497730 0.000012 0.867332
vn 0.497730 0.000012 0.867332
vn 0.000000 1.000000 -0.000000
vn 0.000000 1.000000 -0.000000
vn 0.000000 1.000000 -0.000000
vn 0.000000 1.000000 -0.000000
vn 0.000000 1.000000 -0.000000
vn -0.497708 -0.000021 -0.867344
vn -0.497708 -0.000021 -0.867344
vn -0.497708 -0.000021 -0.867344
vn -0.497708 -0.000021 -0.867345
vn -0.497708 -0.000021 -0.867344
vn 0.000000 -1.000000 -0.000000
vn 0.000000 -1.000000 -0.000000
vn 0.000000 -1.000000 -0.000000
vn 0.000000 -1.000000 -0.000000
vn 0.000000 -1.000000 -0.000000
vn 0.867325 -0.000004 -0.497742
vn 0.867325 -0.000004 -0.497742
vn 0.867325 -0.000004 -0.497742
vn 0.867325 -0.000004 -0.497742
vn 0.867325 -0.000004 -0.497742
vn -0.867329 0.000015 0.497735
vn -0.867329 0.000015 0.497735
vn -0.867329 0.000015 0.497735
vn -0.867329 0.000015 0.497735
vn -0.867329 0.000015 0.497735
vn 0.298875 0.554842 0.776418
vn 0.298875 0.554842 0.776418
vn 0.298875 0.554842 0.776418
vn 0.060646 -0.953776 -0.294335
vn 0.060646 -0.953776 -0.294335
vn 0.060646 -0.953776 -0.294335
vn -0.545562 0.622244 0.561404
vn -0.545562 0.622244 0.561404
vn -0.545562 0.622244 0.561404
vn -0.649194 0.423213 -0.632011
vn -0.649194 0.423213 -0.632011
vn -0.649194 0.423213 -0.632011
vn -0.276511 0.336840 -0.900045
vn -0.276511 0.336840 -0.900045
vn -0.276511 0.336840 -0.900045
vn -0.497733 -0.000022 -0.867331
vn -0.497733 -0.000022 -0.867331
vn -0.497733 -0.000022 -0.867331
vn -0.497733 -0.000022 -0.867331
vn -0.497733 -0.000022 -0.867331
vn 0.000000 1.000000 -0.000000
vn 0.000000 1.000000 -0.000000
vn 0.000000 1.000000 -0.000000
vn 0.000000 1.000000 -0.000000
vn 0.000000 1.000000 -0.000000
vn 0.000000 1.000000 -0.000000
s off
f 3/1/1 9/2/2 4/3/3 14/4/4 15/5/5
f 7/6/6 18/7/7 16/8/8 17/9/9
f 2/10/10 19/11/11 8/12/12 12/13/13 11/14/14
f 5/15/15 1/16/16 3/1/17 15/17/18
f 9/2/19 13/18/20 4/3/21
f 4/3/22 13/18/23 12/13/24
f 4/3/25 12/13/26 10/19/27
f 15/5/28 14/4/29 5/20/30
f 5/20/31 14/4/32 6/21/33 8/22/34
f 1/16/35 16/23/36 13/18/37 9/2/38 3/1/39
f 17/9/40 16/8/41 1/24/42
f 12/13/43 13/18/44 11/14/45
f 19/25/46 18/7/47 8/22/48
f 16/8/49 18/7/50 19/25/51 2/26/52
f 13/18/53 16/23/54 2/10/55 11/14/56
f 12/13/57 8/12/58 6/27/59 10/19/60
f 14/4/61 4/3/62 10/28/63 6/21/64
f 5/20/65 8/22/66 18/7/67 7/6/68
f 7/29/69 17/30/70 1/16/71 5/15/72
f 21/31/73 22/32/74 23/33/75 20/34/76
f 26/35/77 27/36/78 30/37/79 28/38/80
f 41/39/81 23/33/82 25/40/83
f 21/41/84 20/34/85 24/42/86 27/36/87 26/35/88
f 28/43/89 31/44/90 29/45/91 26/46/92
f 33/47/93 35/48/94 32/49/95 25/50/96 23/51/97 22/32/98
f 21/31/99 26/46/100 29/45/101 34/52/102 36/53/103 33/54/104 22/55/105
f 39/56/106 40/57/107 32/49/108 35/48/109
f 36/53/110 39/56/111 35/48/112 33/54/113
f 25/50/114 32/49/115 40/57/116 41/58/117
f 37/59/118 38/60/119 29/45/120 31/44/121
f 28/38/122 37/59/123 31/44/124
f 30/37/125 37/59/126 28/38/127
f 27/36/128 38/60/129 37/59/130 30/37/131
f 34/52/132 40/57/133 39/56/134 36/53/135
f 38/60/136 40/57/137 34/52/138 29/45/139
f 24/61/140 40/62/141 38/63/142 27/64/143
f 41/65/144 40/62/145 24/61/146
f 20/66/147 23/33/148 41/39/149 24/67/150
f 44/68/151 50/69/152 45/70/153 55/71/154 56/72/155
f 48/73/156 59/74/157 57/75/158 58/76/159
f 43/77/160 60/78/161 49/79/162 53/80/163 52/81/164
f 46/82/165 42/83/166 44/68/167 56/84/168
f 50/69/169 54/85/170 45/70/171
f 45/70/172 54/85/173 53/80/174
f 45/70/175 53/80/176 51/86/177
f 56/72/178 55/71/179 46/87/180
f 46/87/181 55/71/182 47/88/183 49/89/184
f 42/83/185 57/90/186 54/85/187 50/69/188 44/68/189
f 58/76/190 57/75/191 42/91/192
f 53/80/193 54/85/194 52/81/195
f 60/92/196 59/74/197 49/89/198
f 57/75/199 59/74/200 60/92/201 43/93/202
f 54/85/203 57/90/204 43/77/205 52/81/206
f 53/80/207 49/79/208 47/94/209 51/86/210
f 55/71/211 45/70/212 51/95/213 47/88/214
f 46/87/215 49/89/216 59/74/217 48/73/218
f 48/96/219 58/97/220 42/83/221 46/82/222
f 61/98/223 62/99/224 64/100/225 69/101/226 70/102/227
f 65/103/228 66/104/229 72/105/230 68/106/231 73/107/232 67/108/233
f 67/109/234 73/110/235 74/111/236
f 62/99/237 68/112/238 72/113/239 71/114/240 64/100/241
f 70/115/242 69/116/243 63/117/244
f 63/118/245 69/101/246 64/100/247 71/119/248 66/104/249 65/103/250
f 71/120/251 72/121/252 66/122/253
f 74/123/254 73/107/255 68/106/256 62/124/257 61/125/258
f 67/126/259 74/127/260 61/98/261 70/102/262 63/118/263 65/128/264
f 75/129/265 76/130/266 78/131/267 84/132/268 77/133/269
f 90/134/270 84/132/271 78/131/272 80/135/273 89/136/274
f 86/137/275 91/138/276 89/136/277 80/135/278 82/139/279
f 81/140/280 86/137/281 87/141/282 76/142/283 75/143/284
f 76/130/285 87/144/286 82/145/287 80/146/288 78/131/289
f 81/147/290 75/129/291 77/133/292 83/148/293 79/149/294
f 77/150/295 84/151/296 85/152/297
f 87/153/298 86/154/299 82/155/300
f 77/150/301 85/152/302 83/156/303
f 89/157/304 91/158/305 90/159/306
f 90/159/307 91/158/308 88/160/309
f 79/161/310 88/162/311 91/138/312 86/137/313 81/140/314
f 83/163/315 85/164/316 84/132/317 90/134/318 88/162/319 79/161/320
