# This file uses centimeters as units for non-parametric coordinates.

v -47.215942 0.000000 -11.280151
v -47.215942 0.000000 11.279907
v -47.215942 53.466797 -11.280151
v -45.922241 52.189041 11.279907
v 46.188236 52.273819 10.388866
v 47.215942 0.000000 -11.280151
v 47.215942 0.000000 11.279907
v -47.215942 26.733398 -11.280151
v -47.215942 26.733398 11.279907
v 47.215942 26.733398 11.279907
v 46.662479 26.860867 -10.558654
v -44.095337 28.343491 11.279907
v 44.095337 28.343491 11.279907
v 44.095337 50.384399 11.279907
v -44.095337 50.384399 11.279907
v 44.095337 3.082397 11.279907
v -44.095337 3.082397 11.279907
v 44.095337 25.123322 11.279907
v -44.095337 25.123322 11.279907
v -44.095337 28.343491 -7.308960
v 44.095337 28.343491 -7.308960
v 44.095337 50.384399 -7.308960
v -44.095337 50.384399 -7.308960
v 44.095337 3.082397 -7.308960
v -44.095337 3.082397 -7.308960
v 44.095337 25.123322 -7.308960
v -44.095337 25.123322 -7.308960
v 12.044312 28.343491 11.279907
v 37.546265 28.343491 11.279907
v 24.773560 28.343491 7.837769
v 23.644897 27.423691 11.279907
v -33.968140 25.123322 11.279907
v -10.031372 25.123322 11.279907
v -20.338501 26.092300 11.279907
v -21.771606 25.123322 9.173218
v -47.215942 53.466797 8.322632
v -44.899048 53.466797 11.279907
v -47.215942 50.573669 11.280151
v -25.782104 53.466797 11.279907
v -19.263550 53.466797 9.559692
v -15.832397 53.466797 11.279907
v -19.813843 52.249619 11.279907
v 43.775513 0.000000 11.279907
v 19.702026 0.000000 11.279907
v 33.503784 1.207108 11.279907
v 35.616821 0.000000 9.229614
v -47.215942 0.000000 -8.096313
v -47.215942 0.000000 5.186401
v -47.215942 1.280365 -2.101929
v -45.421997 0.000000 -1.111938
v 44.095337 4.732558 11.279907
v 44.095337 11.504984 -7.308960
v -44.095337 15.271976 -7.308960
v -44.095337 4.970663 11.279907
v -47.215942 3.973545 11.279907
v -47.215942 4.361710 -3.213045
v -47.215942 3.043758 -11.280151
v 47.215942 4.424511 -11.280151
v 47.215942 3.660204 11.279907
v 44.095337 6.524418 -0.595893
v 38.029037 6.663615 -7.308960
v 4.763659 9.132129 -7.308960
v -16.156918 6.357201 -7.308960
v -44.095337 7.049311 -2.212101
v -24.510094 4.177792 -11.280151
v 10.751431 3.182646 -11.280151
v 33.659328 5.827778 -11.280151
v 4.048218 3.082397 -7.308960
v 37.489532 28.343491 -2.130535
v -26.334120 28.343491 -3.402634
v 44.095337 42.082932 -7.308960
v 2.081383 28.343491 -4.117995
v -40.907894 28.343491 0.826115
v -44.095337 32.641438 -3.030552
v -32.459114 33.327896 -7.308960
v 0.464568 30.057837 -7.308960
v 30.843706 31.966305 -7.308960
v 44.095337 32.607410 0.159700
v 2.369417 28.343491 -7.308960
v 45.211300 51.486698 11.279907
v 44.938564 53.466797 11.279907
v 47.215942 53.466797 -1.909899
v 47.215942 51.414368 11.279907
v -25.003017 53.466797 -11.280151
v -42.491611 53.466797 -11.280151
v -34.823738 53.466797 -9.115888
v -34.602493 51.659103 -11.231130
v 44.645184 53.466797 -11.280151
v 27.386206 53.466797 -11.280151
v 28.729780 53.466797 -9.502661
v 29.338728 52.039070 -11.241434
v 44.672501 53.466797 -10.238159
v 47.215942 53.466797 -9.173273
v 47.188271 52.136501 -11.244077
v 47.215942 21.541561 11.279907
v 46.218689 7.595488 11.279907
v 47.215942 7.331723 8.820127
v -34.146019 3.082397 11.279907
v -9.954611 3.082397 11.279907
v -14.514320 1.340032 11.279907
v -15.068355 3.082397 9.133428
vt 0.100761 0.304889
vt 0.100761 0.304889
vt 0.100761 0.304889
vt 0.100761 0.304889
vt 0.100761 0.304889
vt 0.100761 0.304889
vt 0.100761 0.304889
vt 0.100761 0.304889
vt 0.100761 0.304889
vt 0.102600 0.258254
vt 0.102600 0.258254
vt 0.102600 0.258254
vt 0.101818 0.280489
vt 0.101818 0.280489
vt 0.100761 0.304889
vt 0.100761 0.304889
vt 0.100761 0.304889
vt 0.102600 0.258254
vt 0.102600 0.258254
vt 0.102600 0.258254
vt 0.102600 0.258254
vt 0.102600 0.258254
vt 0.100761 0.304889
vt 0.100761 0.304889
vt 0.102600 0.233287
vt 0.102600 0.258254
vt 0.102600 0.258254
vt 0.100761 0.304889
vt 0.100761 0.304889
vt 0.100761 0.304889
vt 0.100761 0.304889
vt 0.100761 0.304889
vt 0.100761 0.304889
vt 0.100761 0.304889
vt 0.100761 0.304889
vt 0.100761 0.304889
vt 0.100761 0.304889
vt 0.100761 0.304889
vt 0.100761 0.304889
vt 0.100761 0.304889
vt 0.102600 0.258254
vt 0.102600 0.258254
vt 0.102600 0.258254
vt 0.102600 0.258254
vt 0.100761 0.304889
vt 0.102600 0.258254
vt 0.100761 0.304889
vt 0.100761 0.304889
vt 0.100761 0.304889
vt 0.100761 0.304889
vt 0.100761 0.304889
vt 0.100761 0.304889
vt 0.100761 0.304889
vt 0.100761 0.304889
vt 0.100761 0.304889
vt 0.100761 0.304889
vt 0.100761 0.304889
vt 0.102598 0.258254
vt 0.102600 0.258254
vt 0.102600 0.258254
vt 0.102600 0.250452
vt 0.102600 0.258254
vt 0.102600 0.258254
vt 0.102600 0.258254
vt 0.102600 0.258254
vt 0.102600 0.258254
vt 0.102600 0.233287
vt 0.100761 0.304889
vt 0.100761 0.304889
vt 0.100761 0.304889
vt 0.100761 0.304889
vt 0.100761 0.304889
vt 0.100761 0.304889
vt 0.100761 0.304889
vt 0.100761 0.304889
vt 0.100761 0.304889
vt 0.100761 0.304889
vt 0.100761 0.304889
vt 0.100761 0.304889
vt 0.100761 0.304889
vt 0.100761 0.304889
vt 0.100761 0.304889
vt 0.100761 0.304889
vt 0.100761 0.304889
vt 0.100761 0.304889
vt 0.100761 0.304889
vt 0.102599 0.233287
vt 0.102600 0.258254
vt 0.102600 0.258254
vt 0.102598 0.258254
vt 0.102600 0.258254
vt 0.102600 0.258254
vt 0.102600 0.258254
vt 0.102599 0.258254
vt 0.100761 0.304889
vt 0.100761 0.304889
vt 0.100761 0.304889
vt 0.100761 0.304889
vt 0.100761 0.304889
vt 0.100761 0.304889
vt 0.100761 0.304889
vt 0.100761 0.304889
vt 0.100761 0.304889
vt 0.100761 0.304889
vt 0.101818 0.280489
vt 0.101819 0.280489
vt 0.101819 0.280489
vt 0.101818 0.280489
vt 0.101818 0.280489
vt 0.101820 0.280489
vt 0.101818 0.280489
vt 0.101818 0.280491
vt 0.101818 0.280491
vt 0.101818 0.280489
vt 0.101818 0.280491
vt 0.101818 0.280491
vt 0.101820 0.280491
vt 0.101819 0.280491
vt 0.100761 0.304889
vt 0.100761 0.304889
vt 0.100761 0.304889
vt 0.100761 0.304889
vt 0.100761 0.304889
vt 0.100761 0.304889
vt 0.100761 0.304889
vt 0.100761 0.304889
vt 0.100761 0.304889
vt 0.100761 0.304889
vt 0.100761 0.304889
vt 0.100761 0.304889
vt 0.100761 0.304889
vt 0.100761 0.304889
vt 0.100761 0.304889
vt 0.100761 0.304889
vt 0.100761 0.304889
vt 0.100761 0.304889
vt 0.100761 0.304889
vt 0.100761 0.304889
vt 0.100761 0.304889
vt 0.100761 0.304889
vt 0.100761 0.304889
vt 0.100761 0.304889
vt 0.100761 0.304889
vt 0.100761 0.304889
vt 0.102600 0.257374
vt 0.102600 0.255233
vt 0.102600 0.258254
vt 0.102600 0.252803
vn -1.000000 -0.000000 0.000000
vn -1.000000 -0.000000 0.000000
vn -1.000000 -0.000000 0.000000
vn -1.000000 -0.000000 0.000000
vn -1.000000 -0.000000 0.000000
vn 0.309994 0.872257 -0.378247
vn 0.309994 0.872257 -0.378247
vn 0.309994 0.872257 -0.378247
vn 0.309994 0.872257 -0.378247
vn 0.000000 -1.000000 0.000000
vn 0.000000 -1.000000 0.000000
vn 0.000000 -1.000000 0.000000
vn 0.000000 0.000000 1.000000
vn 0.000000 0.000000 1.000000
vn 0.000000 0.000000 1.000000
vn 0.000000 0.000000 1.000000
vn -1.000000 0.000000 0.000000
vn -1.000000 0.000000 0.000000
vn -1.000000 0.000000 0.000000
vn -1.000000 0.000000 0.000000
vn -1.000000 0.000000 0.000000
vn 0.000000 0.000000 1.000000
vn 0.000000 0.000000 1.000000
vn 0.000000 0.000000 1.000000
vn 1.000000 0.000000 0.000000
vn 1.000000 0.000000 0.000000
vn 1.000000 0.000000 0.000000
vn 1.000000 0.000000 0.000000
vn 0.000000 0.000000 -1.000000
vn 0.000000 0.000000 -1.000000
vn 0.000000 0.000000 -1.000000
vn 0.000000 0.000000 1.000000
vn 0.000000 0.000000 1.000000
vn 0.000000 0.000000 1.000000
vn 0.000000 0.000000 1.000000
vn 0.000000 0.000000 1.000000
vn 0.000000 0.000000 1.000000
vn 0.000000 0.000000 1.000000
vn 0.000000 0.000000 1.000000
vn 0.000000 0.000000 1.000000
vn 0.000000 0.000000 1.000000
vn 0.000000 0.000000 1.000000
vn 0.000000 0.000000 1.000000
vn 0.000000 0.000000 1.000000
vn 0.000000 0.000000 1.000000
vn 0.000000 0.000000 1.000000
vn 0.000000 0.000000 1.000000
vn 0.000000 0.000000 1.000000
vn 0.000000 0.000000 1.000000
vn 0.000000 0.000000 1.000000
vn 0.000000 0.000000 1.000000
vn 0.000000 0.000000 1.000000
vn 0.000000 0.000000 1.000000
vn 0.000000 0.000000 1.000000
vn 0.000000 0.000000 1.000000
vn 0.000000 1.000000 -0.000000
vn 0.000000 1.000000 -0.000000
vn 0.000000 1.000000 -0.000000
vn 0.000000 1.000000 -0.000000
vn -1.000000 0.000000 0.000000
vn -1.000000 0.000000 0.000000
vn -1.000000 0.000000 0.000000
vn -1.000000 0.000000 0.000000
vn 0.000000 -1.000000 0.000000
vn 0.000000 -1.000000 0.000000
vn 0.000000 -1.000000 0.000000
vn 0.000000 -1.000000 0.000000
vn 1.000000 0.000000 0.000000
vn 1.000000 0.000000 0.000000
vn 1.000000 0.000000 0.000000
vn 1.000000 0.000000 0.000000
vn 0.000000 1.000000 0.000000
vn 0.000000 1.000000 0.000000
vn 0.000000 1.000000 0.000000
vn -1.000000 0.000000 0.000000
vn -1.000000 0.000000 0.000000
vn -1.000000 0.000000 0.000000
vn -1.000000 0.000000 0.000000
vn 0.000000 -1.000000 0.000000
vn 0.000000 -1.000000 0.000000
vn 0.000000 -1.000000 0.000000
vn 1.000000 0.000000 0.000000
vn 1.000000 0.000000 0.000000
vn 1.000000 0.000000 0.000000
vn -0.064125 0.969158 0.237950
vn -0.064125 0.969158 0.237950
vn -0.064125 0.969158 0.237950
vn 0.075866 0.956834 0.280558
vn 0.075867 0.956834 0.280558
vn 0.075866 0.956834 0.280558
vn 0.065601 -0.922743 0.379792
vn 0.065601 -0.922743 0.379792
vn 0.065601 -0.922743 0.379792
vn -0.082987 -0.882740 0.462475
vn -0.082987 -0.882740 0.462475
vn -0.082987 -0.882740 0.462475
vn -0.000000 0.000000 1.000000
vn -0.000000 0.000000 1.000000
vn -0.000000 0.000000 1.000000
vn -0.000000 0.000000 1.000000
vn -0.000000 0.000000 1.000000
vn 0.000000 0.000000 1.000000
vn 0.000000 0.000000 1.000000
vn 0.000000 0.000000 1.000000
vn 0.000000 0.000000 1.000000
vn 0.000000 0.000000 1.000000
vn -0.000000 0.000000 1.000000
vn -0.000000 0.000000 1.000000
vn -0.000000 0.000000 1.000000
vn -0.000000 0.000000 1.000000
vn 0.000000 -1.000000 0.000000
vn 0.000000 -1.000000 0.000000
vn 0.000000 -1.000000 0.000000
vn 0.000000 -1.000000 0.000000
vn 0.000000 -1.000000 0.000000
vn 0.000000 -1.000000 0.000000
vn 0.000000 -1.000000 0.000000
vn 0.000000 -1.000000 0.000000
vn 0.000000 1.000000 0.000000
vn 0.000000 1.000000 0.000000
vn 0.000000 1.000000 0.000000
vn 0.000000 1.000000 0.000000
vn 0.000000 1.000000 0.000000
vn 0.000000 1.000000 0.000000
vn 0.000000 1.000000 0.000000
vn 0.000000 1.000000 0.000000
vn -0.665849 0.533336 0.521725
vn -0.665849 0.533336 0.521725
vn -0.665849 0.533336 0.521725
vn -0.665920 0.533254 0.521718
vn -0.665920 0.533254 0.521718
vn -0.665920 0.533254 0.521718
vn 0.000042 -0.000002 1.000000
vn 0.000042 -0.000002 1.000000
vn 0.000042 -0.000002 1.000000
vn 0.000042 -0.000002 1.000000
vn 0.000042 -0.000002 1.000000
vn 0.159308 0.781146 0.603682
vn 0.159308 0.781146 0.603682
vn 0.159308 0.781146 0.603682
vn -0.252553 0.826111 0.503744
vn -0.252553 0.826111 0.503744
vn -0.252553 0.826111 0.503744
vn 0.000001 0.000000 1.000000
vn 0.000001 0.000000 1.000000
vn 0.000001 0.000000 1.000000
vn 0.000000 0.000000 1.000000
vn 0.000000 0.000000 1.000000
vn 0.000000 0.000000 1.000000
vn 0.000000 1.000000 0.000000
vn 0.000000 1.000000 0.000000
vn 0.000000 1.000000 0.000000
vn 0.000000 1.000000 0.000000
vn 0.000000 1.000000 0.000000
vn 0.000000 1.000000 -0.000000
vn 0.000000 1.000000 -0.000000
vn 0.000000 1.000000 -0.000000
vn 0.072172 -0.825197 0.560215
vn 0.072172 -0.825197 0.560215
vn 0.072172 -0.825197 0.560215
vn -0.105855 -0.900757 0.421226
vn -0.105855 -0.900757 0.421226
vn -0.105855 -0.900757 0.421226
vn -0.630942 -0.758716 0.162058
vn -0.630942 -0.758716 0.162058
vn -0.630942 -0.758716 0.162058
vn -0.519180 -0.841775 -0.147877
vn -0.519180 -0.841775 -0.147877
vn -0.519180 -0.841775 -0.147877
vn 0.000000 -1.000000 0.000000
vn 0.000000 -1.000000 0.000000
vn 0.000000 -1.000000 0.000000
vn 0.000000 -1.000000 0.000000
vn 0.000000 -1.000000 0.000000
vn 0.000000 -1.000000 0.000000
vn 0.000000 -1.000000 0.000000
vn 0.000000 -1.000000 0.000000
vn 0.000000 -1.000000 0.000000
vn 0.000000 -1.000000 0.000000
vn 0.000000 -1.000000 0.000000
vn 0.000000 -1.000000 0.000000
vn 0.000000 -1.000000 0.000000
vn -1.000000 0.000001 0.000000
vn -1.000000 0.000001 0.000000
vn -1.000000 0.000001 0.000000
vn -1.000000 0.000001 0.000000
vn -1.000000 0.000001 0.000000
vn 0.000000 0.000000 1.000000
vn 0.000000 0.000000 1.000000
vn 0.000000 0.000000 1.000000
vn 0.000000 0.000000 1.000000
vn 0.000000 0.000000 1.000000
vn -0.000000 0.000000 1.000000
vn -0.000000 0.000000 1.000000
vn -0.000000 0.000000 1.000000
vn -0.000000 0.000000 1.000000
vn -1.000000 0.000000 0.000000
vn -1.000000 0.000000 0.000000
vn -1.000000 0.000000 0.000000
vn -1.000000 0.000000 0.000000
vn 0.000000 0.000000 1.000000
vn 0.000000 0.000000 1.000000
vn 0.000000 0.000000 1.000000
vn 0.000000 0.000000 1.000000
vn 1.000000 0.000000 0.000000
vn 1.000000 0.000000 0.000000
vn 1.000000 0.000000 0.000000
vn 1.000000 0.000000 0.000000
vn 0.000000 0.000000 1.000000
vn 0.000000 0.000000 1.000000
vn 0.000000 0.000000 1.000000
vn 0.000000 0.000000 1.000000
vn -1.000000 0.000000 0.000000
vn -1.000000 0.000000 0.000000
vn -1.000000 0.000000 0.000000
vn -1.000000 0.000000 0.000000
vn -1.000000 0.000000 0.000000
vn -1.000000 0.000000 0.000000
vn -1.000000 0.000000 0.000000
vn -0.000000 0.000000 -1.000000
vn -0.000000 0.000000 -1.000000
vn -0.000000 0.000000 -1.000000
vn 0.999693 0.003116 -0.024577
vn 0.999693 0.003116 -0.024577
vn 0.999693 0.003116 -0.024577
vn 0.999693 0.003116 -0.024577
vn 0.000001 0.000000 1.000000
vn 0.000001 0.000000 1.000000
vn 0.000001 0.000000 1.000000
vn 0.000001 0.000000 1.000000
vn 1.000000 0.000000 0.000000
vn 1.000000 0.000000 0.000000
vn 1.000000 0.000000 0.000000
vn 1.000000 0.000000 0.000000
vn 1.000000 0.000000 0.000000
vn 1.000000 0.000000 0.000000
vn 1.000000 0.000000 0.000000
vn 0.000000 0.000000 1.000000
vn 0.000000 0.000000 1.000000
vn 0.000000 0.000000 1.000000
vn -0.000000 0.000000 1.000000
vn -0.000000 0.000000 1.000000
vn -0.000000 0.000000 1.000000
vn -0.000000 0.000000 1.000000
vn -1.000000 0.000000 0.000000
vn -1.000000 0.000000 0.000000
vn -1.000000 0.000000 0.000000
vn -1.000000 0.000000 0.000000
vn -1.000000 0.000000 0.000000
vn -1.000000 0.000000 0.000000
vn 0.000000 0.000000 1.000000
vn 0.000000 0.000000 1.000000
vn 0.000000 0.000000 1.000000
vn -0.000000 0.000000 1.000000
vn -0.000000 0.000000 1.000000
vn -0.000000 0.000000 1.000000
vn -0.000000 0.000000 1.000000
vn 0.000000 0.000000 1.000000
vn 0.000000 0.000000 1.000000
vn 0.000000 0.000000 1.000000
vn 0.000000 0.000000 1.000000
vn 0.000000 0.000000 1.000000
vn 0.000000 0.000000 1.000000
vn -0.004262 0.036914 -0.999309
vn -0.004262 0.036914 -0.999309
vn -0.004262 0.036914 -0.999309
vn 0.000000 0.000000 -1.000000
vn 0.000000 0.000000 -1.000000
vn 0.000000 0.000000 -1.000000
vn 0.000000 0.000000 -1.000000
vn -0.000000 0.000000 -1.000000
vn -0.000000 0.000000 -1.000000
vn -0.000000 0.000000 -1.000000
vn -0.000000 0.000000 -1.000000
vn 0.005680 0.013981 -0.999886
vn 0.005680 0.013981 -0.999886
vn 0.005680 0.013981 -0.999886
vn 0.005680 0.013981 -0.999886
vn 0.003335 0.032223 -0.999475
vn 0.003335 0.032223 -0.999475
vn 0.003335 0.032223 -0.999475
vn 0.000000 1.000000 0.000000
vn 0.000000 1.000000 0.000000
vn 0.000000 1.000000 0.000000
vn 0.000000 1.000000 0.000000
vn 0.000000 1.000000 0.000000
vn 0.000000 1.000000 0.000000
vn 0.000000 1.000000 0.000001
vn 0.000000 1.000000 0.000001
vn 0.000000 1.000000 0.000001
vn 0.000000 1.000000 0.000001
vn 0.000000 1.000000 0.000000
vn 0.000000 1.000000 0.000000
vn 0.000000 1.000000 0.000000
vn 1.000000 0.000000 0.000000
vn 1.000000 0.000000 0.000000
vn 1.000000 0.000000 0.000000
vn 0.000000 0.000000 1.000000
vn 0.000000 0.000000 1.000000
vn 0.000000 0.000000 1.000000
vn -1.000000 0.000000 0.000000
vn -1.000000 0.000000 0.000000
vn -1.000000 0.000000 0.000000
vn -1.000000 0.000000 0.000000
vn -1.000000 0.000000 0.000000
vn -1.000000 0.000000 0.000000
vn 1.000000 0.000000 0.000000
vn 1.000000 0.000000 0.000000
vn 1.000000 0.000000 0.000000
vn 0.000000 0.000000 1.000000
vn 0.000000 0.000000 1.000000
vn 0.000000 0.000000 1.000000
vn 0.000000 0.000000 1.000000
vn 0.000000 0.000000 1.000000
vn 0.000000 0.000000 1.000000
vn 0.000000 0.000000 1.000000
vn 0.000000 0.000000 1.000000
vn 0.000000 0.000000 1.000000
vn 0.000000 0.000000 1.000000
vn 0.000000 0.000000 1.000000
vn -1.000000 0.000000 0.000000
vn -1.000000 0.000000 0.000000
vn -1.000000 0.000000 0.000000
vn 0.000000 0.000000 1.000000
vn 0.000000 0.000000 1.000000
vn 0.000000 0.000000 1.000000
vn 0.000000 0.000000 1.000000
vn 0.000000 1.000000 -0.000001
vn 0.000000 1.000000 -0.000001
vn 0.000000 1.000000 -0.000001
vn 0.000000 1.000000 -0.000001
vn 0.000000 1.000000 0.000000
vn 0.000000 1.000000 0.000000
vn 0.000000 1.000000 0.000000
vn 0.000000 1.000000 -0.000000
vn 0.000000 1.000000 -0.000000
vn 0.000000 1.000000 -0.000000
vn 0.632117 0.087067 0.769966
vn 0.632117 0.087067 0.769966
vn 0.632117 0.087067 0.769966
vn 0.730578 0.671077 0.126143
vn 0.730578 0.671077 0.126143
vn 0.730578 0.671077 0.126143
vn 0.569608 0.812143 0.126375
vn 0.569608 0.812143 0.126375
vn 0.569608 0.812143 0.126375
vn 0.026505 0.734596 0.677987
vn 0.026505 0.734596 0.677987
vn 0.026505 0.734596 0.677987
vn 0.000000 0.000000 1.000000
vn 0.000000 0.000000 1.000000
vn 0.000000 0.000000 1.000000
vn 0.000000 0.000000 1.000000
vn -0.000000 0.000000 1.000000
vn -0.000000 0.000000 1.000000
vn -0.000000 0.000000 1.000000
vn -0.000000 0.000000 1.000000
vn 0.999835 -0.008041 -0.016298
vn 0.999835 -0.008041 -0.016298
vn 0.999835 -0.008041 -0.016298
vn 0.999835 -0.008041 -0.016298
vn 0.177418 0.757238 -0.628581
vn 0.177418 0.757238 -0.628581
vn 0.177418 0.757238 -0.628581
vn -0.143594 0.744864 -0.651581
vn -0.143594 0.744865 -0.651581
vn -0.143594 0.744865 -0.651581
vn 0.543448 0.732066 -0.410783
vn 0.543448 0.732066 -0.410783
vn 0.543448 0.732066 -0.410784
vn -0.072365 0.758243 -0.647943
vn -0.072365 0.758243 -0.647944
vn -0.072365 0.758243 -0.647943
vn 0.003791 -0.000670 -0.999993
vn 0.003791 -0.000670 -0.999993
vn 0.003791 -0.000670 -0.999993
vn 0.003791 -0.000670 -0.999993
vn 0.000000 1.000000 0.000001
vn 0.000000 1.000000 0.000001
vn 0.000000 1.000000 0.000001
vn 0.000000 1.000000 0.000001
vn 0.000000 1.000000 0.000000
vn 0.000000 1.000000 0.000000
vn 0.000000 1.000000 0.000000
vn 0.999784 -0.020798 0.000000
vn 0.999784 -0.020798 0.000000
vn 0.999784 -0.020798 0.000000
vn 0.999784 -0.020798 0.000000
vn 0.000000 1.000000 0.000001
vn 0.000000 1.000000 0.000001
vn 0.000000 1.000000 0.000001
vn 0.000000 1.000000 0.000001
vn 0.000000 1.000000 -0.000000
vn 0.000000 1.000000 -0.000000
vn 0.000000 1.000000 -0.000000
vn 0.000000 1.000000 -0.000000
vn 0.000000 1.000000 -0.000000
vn 0.000000 1.000000 -0.000000
vn 0.000000 1.000000 -0.000000
vn 0.000000 1.000000 -0.000000
vn 0.000000 1.000000 -0.000001
vn 0.000000 1.000000 -0.000001
vn 0.000000 1.000000 -0.000001
vn 0.006601 -0.005485 -0.999963
vn 0.006601 -0.005485 -0.999963
vn 0.006601 -0.005485 -0.999963
vn 0.006601 -0.005485 -0.999963
vn -0.000000 -0.027108 -0.999633
vn -0.000000 -0.027108 -0.999633
vn -0.000000 -0.027108 -0.999633
vn -0.000000 -0.027108 -0.999633
vn 0.000000 -0.027108 -0.999633
vn 0.000000 -0.027108 -0.999633
vn 0.000000 -0.027108 -0.999633
vn 0.000000 -0.027108 -0.999633
vn 0.922234 -0.065947 0.380967
vn 0.922234 -0.065947 0.380967
vn 0.922234 -0.065947 0.380967
vn 0.910110 0.230633 0.344249
vn 0.910110 0.230633 0.344249
vn 0.910110 0.230633 0.344249
vn 0.999775 0.020992 -0.003036
vn 0.999775 0.020992 -0.003036
vn 0.999775 0.020992 -0.003036
vn 0.999775 0.020992 -0.003036
vn 0.000000 0.000000 1.000000
vn 0.000000 0.000000 1.000000
vn 0.000000 0.000000 1.000000
vn 0.000000 0.000000 1.000000
vn 0.069514 0.783232 0.617832
vn 0.069514 0.783232 0.617832
vn 0.069514 0.783232 0.617832
vn 0.000000 0.000000 1.000000
vn 0.000000 0.000000 1.000000
vn 0.000000 0.000000 1.000000
vn -0.271921 0.711608 0.647821
vn -0.271921 0.711608 0.647821
vn -0.271921 0.711608 0.647821
vn -0.000000 1.000000 0.000000
vn -0.000000 1.000000 0.000000
vn -0.000000 1.000000 0.000000
vn -0.000000 1.000000 0.000000
vn 0.000000 1.000000 0.000000
vn 0.000000 1.000000 0.000000
vn 0.000000 1.000000 0.000000
vn 0.000000 1.000000 0.000000
s off
f 8/1/1 9/2/2 38/3/3 36/4/4 3/5/5
f 94/140/6 88/131/7 92/137/8 93/138/9
f 6/10/10 46/11/11 50/12/12
f 23/16/13 75/101/14 76/102/15 22/15/16
f 55/18/17 56/19/18 49/20/19 48/21/20 2/22/21
f 25/25/22 63/26/23 53/27/24
f 58/41/25 59/42/26 7/43/27 6/10/28
f 65/58/29 1/44/30 57/46/31
f 34/28/32 31/29/33 28/30/34 12/31/35
f 14/34/36 83/124/37 80/119/38
f 15/36/39 42/37/40 39/38/41 37/39/42 4/40/43
f 16/61/44 45/62/45 43/63/46 7/43/47
f 7/43/48 59/42/49 51/64/50 16/61/51
f 54/65/52 55/18/53 2/22/54 17/66/55
f 69/95/56 72/98/57 70/96/58 30/48/59
f 13/35/60 14/34/61 71/97/62 78/104/63
f 14/34/64 15/36/65 23/16/66 22/15/67
f 15/36/68 12/31/69 74/100/70 23/16/71
f 68/87/72 16/61/73 24/67/74
f 16/61/75 51/64/76 60/88/77 24/67/78
f 26/23/79 35/49/80 27/24/81
f 53/27/82 64/89/83 25/25/84
f 29/50/85 30/48/86 31/29/87
f 31/29/88 30/48/89 28/30/90
f 32/51/91 35/49/92 34/28/93
f 34/28/94 35/49/95 33/52/96
f 34/28/97 12/31/98 9/2/99 19/47/100 32/51/101
f 10/32/102 13/35/103 29/50/104 31/29/105 18/45/106
f 18/45/107 31/29/108 34/28/109 33/52/110
f 18/45/111 33/52/112 35/49/113 26/23/114
f 27/24/115 35/49/116 32/51/117 19/47/118
f 73/99/119 28/30/120 30/48/121 70/96/122
f 13/35/123 69/95/124 30/48/125 29/50/126
f 36/4/127 38/3/128 4/40/129
f 37/53/130 36/4/131 4/40/132
f 4/40/133 38/3/134 9/2/135 12/31/136 15/36/137
f 39/38/138 42/37/139 40/54/140
f 40/54/141 42/37/142 41/55/143
f 80/119/144 81/120/145 14/34/146
f 14/34/147 42/37/148 15/36/149
f 3/5/150 36/4/151 37/53/152 39/56/153 40/6/154
f 82/122/155 41/57/156 81/121/157
f 46/11/158 45/62/159 44/90/160
f 43/63/161 45/62/162 46/11/163
f 47/91/164 50/12/165 49/20/166
f 49/20/167 50/12/168 48/21/169
f 50/12/170 46/11/171 44/90/172 2/22/173 48/21/174
f 6/10/175 50/12/176 47/91/177 1/44/178
f 6/10/179 7/43/180 43/63/181 46/11/182
f 1/44/183 47/91/184 49/20/185 56/19/186 57/46/187
f 2/22/188 44/90/189 45/62/190 100/147/191 17/66/192
f 99/146/193 100/147/194 45/62/195 16/61/196
f 52/69/197 60/79/198 18/45/199 26/23/200
f 53/70/201 63/82/202 62/81/203 27/24/204
f 19/47/205 54/71/206 64/83/207 53/70/208
f 9/2/209 55/72/210 54/71/211 19/47/212
f 8/1/213 56/73/214 55/72/215 9/2/216
f 57/74/217 56/73/218 8/1/219
f 8/1/220 65/84/221 57/74/222
f 11/9/223 10/8/224 95/141/225 97/144/226
f 51/68/227 59/78/228 96/143/229 18/45/230
f 25/25/231 64/89/232 54/65/233 17/66/234
f 19/47/235 53/70/236 27/24/237
f 27/24/238 62/81/239 26/23/240
f 26/23/241 62/81/242 61/80/243 52/69/244
f 18/45/245 60/79/246 51/68/247
f 24/67/248 60/88/249 52/92/250
f 61/93/251 24/67/252 52/92/253
f 63/26/254 68/87/255 61/93/256 62/94/257
f 25/25/258 68/87/259 63/26/260
f 61/93/261 68/87/262 24/67/263
f 11/17/264 67/86/265 66/85/266
f 6/10/267 66/59/268 67/60/269 58/41/270
f 6/10/271 1/44/272 65/58/273 66/59/274
f 11/17/275 66/85/276 65/84/277 8/1/278
f 58/76/279 67/86/280 11/17/281
f 17/66/282 98/145/283 25/25/284
f 21/13/285 69/14/286 13/105/287
f 79/106/288 72/107/289 69/14/290 21/13/291
f 20/111/292 73/109/293 70/110/294
f 23/112/295 74/113/296 20/111/297
f 20/111/298 75/114/299 23/112/300
f 21/13/301 78/115/302 71/116/303
f 71/97/304 14/34/305 22/15/306
f 20/111/307 74/113/308 12/108/309
f 77/117/310 21/13/311 71/116/312
f 76/102/313 77/103/314 71/97/315 22/15/316
f 76/118/317 79/106/318 21/13/319 77/117/320
f 13/105/321 78/115/322 21/13/323
f 20/111/324 79/106/325 76/118/326 75/114/327
f 20/111/328 70/110/329 72/107/330 79/106/331
f 12/108/332 73/109/333 20/111/334
f 12/31/335 28/30/336 73/99/337
f 5/33/338 81/120/339 80/119/340
f 82/122/341 81/121/342 5/7/343
f 83/123/344 82/122/345 5/7/346
f 80/119/347 83/124/348 5/33/349
f 14/34/350 81/120/351 41/55/352 42/37/353
f 10/32/354 83/124/355 14/34/356 13/35/357
f 11/9/358 82/122/359 83/123/360 10/8/361
f 85/127/362 86/129/363 87/130/364
f 86/129/365 84/126/366 87/130/367
f 89/133/368 90/135/369 91/136/370
f 90/135/371 88/132/372 91/136/373
f 87/130/374 8/1/375 3/5/376 85/128/377
f 90/135/378 40/6/379 92/137/380 88/131/381
f 93/138/382 92/137/383 82/122/384
f 94/139/385 93/138/386 82/122/387 11/9/388
f 82/122/389 92/137/390 40/6/391 41/57/392
f 84/125/393 40/6/394 90/135/395 89/133/396
f 3/5/397 40/6/398 86/129/399 85/127/400
f 86/129/401 40/6/402 84/125/403
f 11/17/404 8/1/405 87/130/406 84/126/407
f 11/17/408 91/136/409 88/132/410 94/140/411
f 11/17/412 84/126/413 89/134/414 91/136/415
f 96/143/416 97/144/417 95/142/418
f 59/77/419 97/144/420 96/143/421
f 11/9/422 97/144/423 59/77/424 58/75/425
f 18/45/426 96/143/427 95/142/428 10/32/429
f 100/147/430 101/148/431 98/145/432
f 17/66/433 100/147/434 98/145/435
f 99/146/436 101/148/437 100/147/438
f 68/87/439 101/148/440 99/146/441 16/61/442
f 25/25/443 98/145/444 101/148/445 68/87/446
