# This file uses centimeters as units for non-parametric coordinates.

v 18.449266 -16.299614 70.501671
v 14.885328 -16.299614 -70.071426
v -86.666443 -16.299603 73.044525
v -86.666443 -16.299664 69.566223
v -86.666443 -16.299603 66.087914
v -133.254059 -16.299603 -66.087906
v -133.254059 -16.299664 -69.566223
v -133.254059 -16.299603 -73.044525
v 22.900347 -16.299603 139.132431
v 17.682880 -16.299664 139.132431
v 12.465412 -16.299603 139.132431
v -58.983406 -16.299603 104.031616
v 22.900347 -16.299603 -139.132446
v 17.682880 -16.299664 -139.132446
v 12.465412 -16.299603 -139.132446
v -76.293411 -16.299603 -120.300125
v 88.945084 -16.299603 124.971207
v 133.254044 -16.299603 73.044525
v 133.254044 -16.299664 69.566223
v 133.254044 -16.299603 66.087914
v 122.032204 -16.299603 -66.087906
v 122.032204 -16.299664 -69.566223
v 122.032188 -16.299603 -73.044525
v 85.869179 -16.299603 -129.551987
v -85.897896 -16.299603 7.193911
v 18.670160 -16.299622 13.177902
v 98.824654 -16.299603 -28.693363
v -32.023972 -16.299603 100.106224
v 97.643433 -16.299603 95.390030
v -26.669737 -16.299603 -114.747482
v 29.476889 16.299664 -4.842494
v 94.196152 16.299664 -21.566780
v 122.032204 16.299664 -66.087906
v 22.900347 16.299664 -66.087906
v 22.900347 16.299664 -73.044525
v 122.032188 16.299664 -73.044525
v 79.107239 16.299664 -117.249779
v 22.900347 16.299664 -139.132446
v 17.682880 10.530186 69.566223
v 133.254044 10.530186 69.566223
v 26.732279 16.299664 77.721802
v 133.254044 16.299664 73.044525
v 17.682880 10.530186 0.000000
v 17.682880 10.530186 -69.566223
v 1.524060 16.299664 -60.680965
v 8.850714 16.299664 44.376198
v 133.254044 16.299664 66.087914
v 22.900347 16.299664 66.087914
v 122.032204 10.530186 -69.566223
v 17.682880 10.530186 -139.132446
v 12.465412 16.299664 -139.132446
v 9.419011 16.299664 -80.977509
v -86.666443 10.530186 69.566223
v -86.666443 16.299664 73.044525
v 12.465412 16.299664 73.044525
v -86.666443 16.299664 66.087914
v 12.465412 16.299664 66.087914
v -84.073387 16.299664 20.884769
v -133.254059 16.299664 -66.087906
v -133.254059 10.530186 -69.566223
v -115.522964 16.299664 -78.420425
v -80.934128 16.299664 -126.135437
v -25.937149 16.299664 -114.676956
v 77.250748 16.299664 116.043320
v 22.900347 16.299664 139.132431
v 97.643433 16.299664 95.390030
v 17.682880 10.530186 139.132431
v 12.465412 16.299664 139.132431
v -61.928131 16.299664 100.601105
v -36.435028 16.299664 104.936943
v 139.617172 0.068908 76.532532
v 102.306076 0.068908 99.945068
v 93.192360 0.068908 130.938797
v 23.993881 0.068908 145.776245
v 18.527267 -2.953616 145.776245
v 13.060658 0.068908 145.776245
v -40.079430 0.068908 114.326256
v -66.230255 0.068908 119.966751
v -90.804924 0.068908 76.532532
v -90.804924 -2.953616 72.888130
v -90.804924 0.068908 69.243729
v -99.631561 0.068908 20.277534
v -139.617172 0.068908 -69.243721
v -139.617172 -2.953616 -72.888130
v -139.617172 0.068908 -76.532532
v -84.798874 0.068908 -132.158630
v -30.027542 0.068908 -127.754669
v 13.060658 0.068908 -145.776260
v 18.527267 -2.953616 -145.776260
v 23.993881 0.068908 -145.776260
v 89.969574 0.068908 -135.738327
v 127.859459 0.068908 -76.532532
v 127.859459 -2.953616 -72.888130
v 127.859459 0.068908 -69.243721
v 110.781876 0.068908 -31.814032
v 139.617172 0.068908 69.243729
v 139.617172 -2.953616 72.888130
vt 0.570170 0.432023
vt 0.575320 0.404519
vt 0.595133 0.391988
vt 0.595884 0.433753
vt 0.598791 0.433638
vt 0.598079 0.391880
vt 0.616978 0.409393
vt 0.626357 0.432552
vt 0.537215 0.389123
vt 0.538978 0.437806
vt 0.535479 0.434531
vt 0.535796 0.389347
vt 0.568078 0.436656
vt 0.597070 0.435511
vt 0.593790 0.442705
vt 0.549765 0.441421
vt 0.538770 0.389238
vt 0.540438 0.435937
vt 0.596299 0.391754
vt 0.625954 0.434370
vt 0.626393 0.436878
vt 0.602195 0.439101
vt 0.540524 0.480497
vt 0.539160 0.481085
vt 0.537668 0.440398
vt 0.542047 0.480963
vt 0.540593 0.440282
vt 0.597028 0.497356
vt 0.560747 0.479121
vt 0.598148 0.496709
vt 0.601961 0.490047
vt 0.621368 0.475295
vt 0.616400 0.453107
vt 0.509628 0.437151
vt 0.518409 0.413915
vt 0.526843 0.404926
vt 0.509770 0.438960
vt 0.509826 0.441502
vt 0.527309 0.471509
vt 0.525073 0.461148
vt 0.885035 0.888002
vt 0.930689 0.880678
vt 0.937075 0.941175
vt 0.914044 0.930263
vt 0.969277 0.880691
vt 0.969693 0.916225
vt 0.941026 0.940707
vt 0.860266 0.956959
vt 0.858263 0.957197
vt 0.853224 0.891524
vt 0.862269 0.956721
vt 0.939051 0.940941
vt 0.968342 0.875036
vt 0.968809 0.877859
vt 0.846292 0.835647
vt 0.848165 0.835439
vt 0.850038 0.835231
vt 0.917530 0.803873
vt 0.881728 0.832116
vt 0.919361 0.803673
vt 0.921191 0.803473
vt 0.950589 0.829474
vt 0.951702 0.855636
vt 0.815176 0.898369
vt 0.843471 0.937864
vt 0.826159 0.934813
vt 0.814951 0.895481
vt 0.814728 0.892601
vt 0.834287 0.866003
vt 0.830864 0.851945
vt 0.937650 0.943911
vt 0.915715 0.936734
vt 0.970814 0.918501
vt 0.941670 0.943434
vt 0.970368 0.882331
vt 0.859373 0.960166
vt 0.857477 0.960235
vt 0.861554 0.959750
vt 0.939979 0.943751
vt 0.969414 0.876577
vt 0.970364 0.879171
vt 0.845365 0.836515
vt 0.847070 0.835799
vt 0.849172 0.836093
vt 0.874194 0.828865
vt 0.917752 0.804221
vt 0.919799 0.803352
vt 0.921470 0.803815
vt 0.954117 0.827474
vt 0.956269 0.855328
vt 0.824834 0.937430
vt 0.813693 0.900322
vt 0.842440 0.940538
vt 0.813072 0.897200
vt 0.813242 0.894452
vt 0.823693 0.851475
vt 0.827828 0.864571
vt 0.859816 0.955561
vt 0.845888 0.937393
vt 0.833839 0.927638
vt 0.819191 0.900207
vt 0.818296 0.897146
vt 0.818757 0.894768
vt 0.834442 0.867718
vt 0.835517 0.854714
vt 0.848423 0.840955
vt 0.849849 0.839861
vt 0.851957 0.840562
vt 0.875033 0.839274
vt 0.915683 0.810847
vt 0.917742 0.809478
vt 0.923026 0.818577
vt 0.949441 0.832533
vt 0.947878 0.860234
vt 0.963500 0.878194
vt 0.964754 0.880353
vt 0.964367 0.883532
vt 0.957624 0.914192
vt 0.937641 0.940066
vt 0.936332 0.940396
vt 0.933924 0.940506
vt 0.906645 0.928444
vt 0.863582 0.955113
vt 0.861459 0.955610
vn 0.000000 1.000000 0.000000
vn 0.000000 1.000000 0.000000
vn 0.000000 1.000000 0.000000
vn 0.000000 1.000000 0.000000
vn 0.000000 1.000000 0.000000
vn 0.000000 1.000000 0.000000
vn 0.000000 1.000000 0.000000
vn 0.000000 1.000000 0.000000
vn -0.014707 0.715617 -0.698338
vn -0.014707 0.715617 -0.698338
vn -0.014707 0.715617 -0.698338
vn -0.014707 0.715617 -0.698338
vn 0.390173 0.920596 -0.016370
vn 0.390173 0.920596 -0.016370
vn 0.390173 0.920596 -0.016370
vn 0.390173 0.920596 -0.016370
vn 0.000000 0.516309 0.856402
vn 0.000000 0.516309 0.856402
vn 0.000000 0.516309 0.856402
vn 0.000000 0.516309 0.856402
vn 0.000000 0.516310 -0.856402
vn 0.000000 0.516310 -0.856402
vn 0.000000 0.516310 -0.856402
vn 0.000000 0.516310 -0.856402
vn -0.559582 0.828298 0.028133
vn -0.559582 0.828298 0.028133
vn -0.559582 0.828298 0.028133
vn -0.559582 0.828297 0.028133
vn 0.642659 0.765999 0.015329
vn 0.642659 0.765999 0.015329
vn 0.642659 0.765999 0.015329
vn 0.642659 0.765999 0.015329
vn 0.000000 0.516308 0.856403
vn 0.000000 0.516308 0.856403
vn 0.000000 0.516308 0.856403
vn 0.000000 0.516308 0.856403
vn -0.741698 0.670734 0.000000
vn -0.741698 0.670734 0.000000
vn -0.741698 0.670734 0.000000
vn -0.741698 0.670734 0.000000
vn 0.000000 0.516308 -0.856403
vn 0.000000 0.516308 -0.856403
vn 0.000000 0.516308 -0.856403
vn 0.000000 0.516308 -0.856403
vn 0.000000 0.516309 0.856402
vn 0.000000 0.516309 0.856402
vn 0.000000 0.516309 0.856402
vn 0.000000 0.516309 0.856402
vn 0.000000 1.000000 0.000000
vn 0.000000 1.000000 0.000000
vn 0.000000 1.000000 0.000000
vn 0.000000 1.000000 0.000000
vn 0.012742 0.739260 -0.673300
vn 0.012742 0.739260 -0.673300
vn 0.012742 0.739260 -0.673300
vn 0.012742 0.739260 -0.673300
vn 0.004601 0.868070 0.496420
vn 0.004601 0.868070 0.496420
vn 0.004601 0.868070 0.496420
vn 0.004601 0.868070 0.496420
vn 0.000000 1.000000 -0.000000
vn 0.000000 1.000000 -0.000000
vn 0.000000 1.000000 -0.000000
vn 0.000000 1.000000 -0.000000
vn 0.000000 1.000000 0.000000
vn 0.000000 1.000000 0.000000
vn 0.000000 1.000000 0.000000
vn 0.000000 1.000000 0.000000
vn -0.622437 0.782458 -0.018210
vn -0.622437 0.782458 -0.018210
vn -0.622437 0.782458 -0.018210
vn -0.622437 0.782458 -0.018210
vn 0.741698 0.670734 0.000000
vn 0.741698 0.670734 0.000000
vn 0.741698 0.670734 0.000000
vn 0.741698 0.670734 0.000000
vn 0.000000 1.000000 -0.000000
vn 0.000000 1.000000 -0.000000
vn 0.000000 1.000000 -0.000000
vn 0.000000 1.000000 -0.000000
vn 0.000000 1.000000 0.000000
vn 0.000000 1.000000 0.000000
vn 0.000000 1.000000 0.000000
vn 0.000000 1.000000 0.000000
vn 0.592809 0.805001 -0.023476
vn 0.592809 0.805001 -0.023476
vn 0.592809 0.805001 -0.023476
vn 0.592809 0.805001 -0.023476
vn -0.570056 0.821172 -0.026684
vn -0.570056 0.821172 -0.026684
vn -0.570056 0.821172 -0.026684
vn -0.570056 0.821172 -0.026684
vn 0.000000 1.000000 -0.000000
vn 0.000000 1.000000 -0.000000
vn 0.000000 1.000000 -0.000000
vn 0.000000 1.000000 -0.000000
vn 0.000000 1.000000 0.000000
vn 0.000000 1.000000 0.000000
vn 0.000000 1.000000 0.000000
vn 0.000000 1.000000 -0.000000
vn 0.000000 1.000000 -0.000000
vn 0.000000 1.000000 -0.000000
vn 0.000000 1.000000 0.000000
vn 0.000000 1.000000 0.000000
vn 0.000000 1.000000 0.000000
vn 0.000000 -1.000000 -0.000000
vn 0.000000 -1.000000 -0.000000
vn 0.000000 -1.000000 -0.000000
vn 0.000000 -1.000000 -0.000000
vn 0.000000 -1.000000 -0.000000
vn 0.000000 -1.000000 -0.000000
vn 0.000000 -1.000000 -0.000000
vn 0.000000 -1.000000 -0.000000
vn -0.000000 -1.000000 0.000017
vn -0.000000 -1.000000 0.000017
vn -0.000000 -1.000000 0.000017
vn -0.000001 -1.000000 -0.000017
vn -0.000001 -1.000000 -0.000017
vn -0.000001 -1.000000 -0.000017
vn -0.000001 -1.000000 0.000018
vn -0.000001 -1.000000 0.000018
vn -0.000001 -1.000000 0.000018
vn -0.000012 -1.000000 0.000000
vn -0.000012 -1.000000 0.000000
vn -0.000012 -1.000000 0.000000
vn -0.000000 -1.000000 -0.000018
vn -0.000000 -1.000000 -0.000018
vn -0.000000 -1.000000 -0.000018
vn 0.000012 -1.000000 0.000001
vn 0.000012 -1.000000 0.000001
vn 0.000012 -1.000000 0.000001
vn 0.000000 -1.000000 0.000017
vn 0.000000 -1.000000 0.000017
vn 0.000000 -1.000000 0.000017
vn 0.000001 -1.000000 -0.000017
vn 0.000001 -1.000000 -0.000017
vn 0.000001 -1.000000 -0.000017
vn -0.000000 -1.000000 0.000000
vn -0.000000 -1.000000 0.000000
vn -0.000000 -1.000000 0.000000
vn -0.000000 -1.000000 0.000000
vn 0.000000 -1.000000 0.000017
vn 0.000000 -1.000000 0.000017
vn 0.000000 -1.000000 0.000017
vn 0.000000 -1.000000 -0.000017
vn 0.000000 -1.000000 -0.000017
vn 0.000000 -1.000000 -0.000017
vn -0.000000 -1.000000 -0.000000
vn -0.000000 -1.000000 -0.000000
vn -0.000000 -1.000000 -0.000000
vn -0.000000 -1.000000 -0.000000
vn 0.000000 -1.000000 0.000000
vn 0.000000 -1.000000 0.000000
vn 0.000000 -1.000000 0.000000
vn 0.000000 -1.000000 0.000000
vn 0.000012 -1.000000 -0.000001
vn 0.000012 -1.000000 -0.000001
vn 0.000012 -1.000000 -0.000001
vn -0.000012 -1.000000 -0.000001
vn -0.000012 -1.000000 -0.000001
vn -0.000012 -1.000000 -0.000001
vn -0.000000 -1.000000 0.000000
vn -0.000000 -1.000000 0.000000
vn -0.000000 -1.000000 0.000000
vn -0.000000 -1.000000 0.000000
vn -0.000000 -1.000000 0.000000
vn -0.000000 -1.000000 0.000000
vn -0.000000 -1.000000 0.000000
vn -0.000000 -1.000000 0.000000
vn 0.000000 -1.000000 0.000000
vn 0.000000 -1.000000 0.000000
vn 0.000000 -1.000000 0.000000
vn 0.000000 -1.000000 0.000000
vn -0.000000 -1.000000 0.000000
vn -0.000000 -1.000000 0.000000
vn -0.000000 -1.000000 0.000000
vn 0.000000 -1.000000 0.000000
vn 0.000000 -1.000000 0.000000
vn 0.000000 -1.000000 0.000000
vn -0.000000 -1.000000 -0.000000
vn -0.000000 -1.000000 -0.000000
vn -0.000000 -1.000000 -0.000000
vn 0.821026 -0.361275 0.442038
vn 0.821026 -0.361275 0.442038
vn 0.821026 -0.361275 0.442038
vn 0.821026 -0.361275 0.442038
vn 0.778029 -0.383083 -0.497914
vn 0.778029 -0.383083 -0.497914
vn 0.778029 -0.383083 -0.497914
vn 0.778029 -0.383083 -0.497914
vn 0.139107 -0.380399 -0.914301
vn 0.139107 -0.380399 -0.914301
vn 0.139107 -0.380399 -0.914301
vn 0.139107 -0.380399 -0.914301
vn 0.888895 -0.421711 0.178957
vn 0.888895 -0.421711 0.178957
vn 0.888895 -0.421711 0.178957
vn 0.888895 -0.421711 0.178957
vn 0.920047 -0.360676 -0.153056
vn 0.920047 -0.360676 -0.153056
vn 0.920047 -0.360676 -0.153056
vn 0.920047 -0.360676 -0.153056
vn 0.931657 -0.334471 0.141935
vn 0.931657 -0.334471 0.141935
vn 0.931657 -0.334471 0.141935
vn 0.931657 -0.334471 0.141935
vn -0.113442 -0.400999 -0.909027
vn -0.113442 -0.400999 -0.909027
vn -0.113442 -0.400999 -0.909027
vn -0.113442 -0.400999 -0.909027
vn 0.904337 -0.392905 -0.166735
vn 0.904337 -0.392905 -0.166735
vn 0.904337 -0.392905 -0.166735
vn 0.904337 -0.392905 -0.166735
vn 0.116487 -0.411762 -0.903816
vn 0.116487 -0.411762 -0.903816
vn 0.116487 -0.411762 -0.903816
vn 0.116487 -0.411762 -0.903816
vn -0.948154 -0.292559 0.124150
vn -0.948154 -0.292559 0.124150
vn -0.948154 -0.292559 0.124150
vn -0.948154 -0.292559 0.124150
vn -0.963718 -0.245713 -0.104270
vn -0.963718 -0.245713 -0.104270
vn -0.963718 -0.245713 -0.104270
vn -0.963718 -0.245713 -0.104270
vn -0.727221 -0.564746 0.390145
vn -0.727221 -0.564745 0.390144
vn -0.727221 -0.564745 0.390145
vn -0.727221 -0.564746 0.390145
vn -0.920047 -0.360676 0.153056
vn -0.920047 -0.360676 0.153056
vn -0.920047 -0.360676 0.153056
vn -0.920047 -0.360676 0.153056
vn -0.888895 -0.421710 -0.178957
vn -0.888895 -0.421710 -0.178957
vn -0.888895 -0.421710 -0.178957
vn -0.888895 -0.421710 -0.178957
vn -0.567159 -0.546460 -0.616207
vn -0.567159 -0.546460 -0.616207
vn -0.567159 -0.546460 -0.616207
vn -0.567159 -0.546460 -0.616207
vn 0.076987 -0.585224 -0.807209
vn 0.076987 -0.585224 -0.807209
vn 0.076987 -0.585224 -0.807209
vn 0.076987 -0.585224 -0.807209
vn 0.193923 -0.380047 0.904411
vn 0.193923 -0.380047 0.904411
vn 0.193923 -0.380047 0.904411
vn 0.193923 -0.380047 0.904411
vn 0.905016 -0.331854 0.266120
vn 0.905016 -0.331854 0.266120
vn 0.905016 -0.331854 0.266120
vn 0.905016 -0.331854 0.266120
vn 0.116487 -0.411762 0.903816
vn 0.116487 -0.411762 0.903816
vn 0.116487 -0.411762 0.903816
vn 0.116487 -0.411762 0.903816
vn -0.113442 -0.400999 0.909027
vn -0.113442 -0.400999 0.909027
vn -0.113442 -0.400999 0.909027
vn -0.113442 -0.400999 0.909027
vn -0.693814 -0.530349 0.487188
vn -0.693814 -0.530349 0.487188
vn -0.693814 -0.530349 0.487188
vn -0.693815 -0.530349 0.487188
vn 0.136823 -0.635781 0.759646
vn 0.136823 -0.635781 0.759646
vn 0.136823 -0.635781 0.759646
vn 0.136823 -0.635781 0.759646
vn -0.862114 -0.502604 0.064407
vn -0.862114 -0.502604 0.064407
vn -0.862114 -0.502604 0.064407
vn -0.862114 -0.502604 0.064407
vn 0.840026 -0.469805 -0.271366
vn 0.840026 -0.469805 -0.271366
vn 0.840026 -0.469805 -0.271366
vn 0.840026 -0.469805 -0.271366
vn -0.490717 -0.545062 0.679782
vn -0.490717 -0.545062 0.679782
vn -0.490717 -0.545062 0.679782
vn -0.490717 -0.545062 0.679782
vn 0.495673 -0.361015 0.789922
vn 0.495673 -0.361015 0.789922
vn 0.495673 -0.361015 0.789922
vn 0.495673 -0.361015 0.789922
vn -0.397854 -0.496627 -0.771411
vn -0.397854 -0.496627 -0.771411
vn -0.397854 -0.496627 -0.771410
vn -0.397854 -0.496627 -0.771410
vn 0.495123 0.363675 0.789046
vn 0.495123 0.363675 0.789046
vn 0.495123 0.363675 0.789046
vn 0.495123 0.363675 0.789046
vn 0.662118 0.646922 0.378274
vn 0.662118 0.646922 0.378274
vn 0.662118 0.646922 0.378274
vn 0.662118 0.646922 0.378274
vn 0.230461 0.619086 0.750746
vn 0.230461 0.619086 0.750746
vn 0.230461 0.619086 0.750746
vn 0.230461 0.619086 0.750746
vn -0.306060 0.371924 0.876356
vn -0.306060 0.371924 0.876356
vn -0.306060 0.371924 0.876356
vn -0.306060 0.371924 0.876356
vn 0.328188 0.398814 0.856294
vn 0.328188 0.398814 0.856294
vn 0.328188 0.398814 0.856294
vn 0.328188 0.398814 0.856294
vn -0.490367 0.422538 0.762235
vn -0.490367 0.422538 0.762235
vn -0.490367 0.422538 0.762235
vn -0.490367 0.422538 0.762235
vn 0.018965 0.660354 0.750715
vn 0.018965 0.660354 0.750715
vn 0.018965 0.660354 0.750715
vn 0.018965 0.660354 0.750715
vn -0.699520 0.523984 0.485914
vn -0.699520 0.523984 0.485914
vn -0.699520 0.523984 0.485914
vn -0.699520 0.523984 0.485914
vn -0.945344 0.205259 -0.253365
vn -0.945344 0.205259 -0.253365
vn -0.945344 0.205259 -0.253365
vn -0.945344 0.205259 -0.253365
vn -0.855444 0.326007 0.402412
vn -0.855444 0.326007 0.402412
vn -0.855444 0.326007 0.402412
vn -0.855444 0.326007 0.402411
vn -0.851601 0.521151 0.056372
vn -0.851601 0.521151 0.056372
vn -0.851601 0.521151 0.056372
vn -0.851601 0.521151 0.056372
vn -0.781919 0.482237 0.395032
vn -0.781919 0.482237 0.395032
vn -0.781919 0.482237 0.395032
vn -0.781919 0.482237 0.395032
vn -0.731961 0.428899 -0.529414
vn -0.731961 0.428899 -0.529414
vn -0.731961 0.428899 -0.529414
vn -0.731961 0.428899 -0.529414
vn -0.623337 0.659216 -0.420577
vn -0.623337 0.659216 -0.420577
vn -0.623337 0.659216 -0.420577
vn -0.623337 0.659216 -0.420577
vn -0.609446 0.592082 -0.527271
vn -0.609446 0.592082 -0.527271
vn -0.609446 0.592082 -0.527271
vn -0.609446 0.592082 -0.527271
vn 0.125461 0.480112 -0.868189
vn 0.125461 0.480112 -0.868189
vn 0.125461 0.480112 -0.868189
vn 0.125461 0.480112 -0.868189
vn -0.398360 0.507195 -0.764240
vn -0.398360 0.507195 -0.764240
vn -0.398360 0.507195 -0.764240
vn -0.398360 0.507195 -0.764240
vn 0.328187 0.398814 -0.856295
vn 0.328187 0.398814 -0.856295
vn 0.328187 0.398814 -0.856295
vn 0.328187 0.398814 -0.856295
vn -0.306058 0.371925 -0.876357
vn -0.306058 0.371925 -0.876357
vn -0.306058 0.371925 -0.876356
vn -0.306058 0.371925 -0.876356
vn 0.193339 0.644167 -0.740046
vn 0.193339 0.644167 -0.740046
vn 0.193339 0.644167 -0.740046
vn 0.193339 0.644167 -0.740046
vn 0.608692 0.634992 -0.475688
vn 0.608692 0.634992 -0.475688
vn 0.608692 0.634992 -0.475688
vn 0.608692 0.634992 -0.475688
vn 0.899520 0.275010 0.339460
vn 0.899520 0.275010 0.339460
vn 0.899520 0.275010 0.339460
vn 0.899520 0.275010 0.339460
vn 0.761014 0.408370 -0.504075
vn 0.761014 0.408370 -0.504075
vn 0.761014 0.408370 -0.504075
vn 0.761014 0.408370 -0.504075
vn 0.812228 0.377003 0.445146
vn 0.812228 0.377003 0.445146
vn 0.812227 0.377003 0.445146
vn 0.812228 0.377003 0.445146
vn 0.756681 0.594411 -0.272231
vn 0.756681 0.594411 -0.272231
vn 0.756681 0.594411 -0.272231
vn 0.756681 0.594411 -0.272231
vn 0.731960 0.428898 0.529415
vn 0.731960 0.428898 0.529415
vn 0.731961 0.428898 0.529415
vn 0.731960 0.428898 0.529415
vn 0.883447 0.294934 -0.364055
vn 0.883447 0.294934 -0.364055
vn 0.883447 0.294934 -0.364055
vn 0.883447 0.294934 -0.364054
s off
f 31/1/1 32/2/2 33/3/3 34/4/4
f 35/5/5 36/6/6 37/7/7 38/8/8
f 40/9/9 39/10/10 41/11/11 42/12/12
f 43/13/13 44/14/14 45/15/15 46/16/16
f 39/10/17 40/9/18 47/17/19 48/18/20
f 49/19/21 44/14/22 34/4/23 33/3/24
f 44/14/25 43/13/26 31/1/27 34/4/28
f 44/14/29 50/20/30 51/21/31 52/22/32
f 44/14/33 49/19/34 36/6/35 35/5/36
f 50/20/37 44/14/38 35/5/39 38/8/40
f 39/10/41 53/23/42 54/24/43 55/25/44
f 56/26/45 53/23/46 39/10/47 57/27/48
f 59/28/49 58/29/50 46/16/51 45/15/52
f 44/14/53 60/30/54 59/28/55 45/15/56
f 61/31/57 60/30/58 44/14/59 52/22/60
f 62/32/61 61/31/62 52/22/63 63/33/64
f 65/34/65 64/35/66 66/36/67 41/11/68
f 39/10/69 67/37/70 65/34/71 41/11/72
f 68/38/73 67/37/74 39/10/75 55/25/76
f 54/24/77 69/39/78 70/40/79 55/25/80
f 58/29/81 56/26/82 57/27/83 46/16/84
f 39/10/85 43/13/86 46/16/87 57/27/88
f 31/1/89 43/13/90 39/10/91 48/18/92
f 48/18/93 47/17/94 32/2/95 31/1/96
f 55/25/97 70/40/98 68/38/99
f 41/11/100 66/36/101 42/12/102
f 63/33/103 52/22/104 51/21/105
f 26/41/106 2/42/107 21/43/108 27/44/109
f 2/42/110 13/45/111 24/46/112 23/47/113
f 19/48/114 18/49/115 1/50/116
f 1/50/117 20/51/118 19/48/119
f 22/52/120 21/43/121 2/42/122
f 2/42/123 15/53/124 14/54/125
f 2/42/126 23/47/127 22/52/128
f 14/54/129 13/45/130 2/42/131
f 1/50/132 3/55/133 4/56/134
f 5/57/135 1/50/136 4/56/137
f 6/58/138 2/42/139 26/41/140 25/59/141
f 2/42/142 6/58/143 7/60/144
f 8/61/145 2/42/146 7/60/147
f 16/62/148 30/63/149 2/42/150 8/61/151
f 9/64/152 1/50/153 29/65/154 17/66/155
f 1/50/156 9/64/157 10/67/158
f 11/68/159 1/50/160 10/67/161
f 3/55/162 1/50/163 28/69/164 12/70/165
f 25/59/166 26/41/167 1/50/168 5/57/169
f 1/50/170 26/41/171 27/44/172 20/51/173
f 1/50/174 11/68/175 28/69/176
f 1/50/177 18/49/178 29/65/179
f 30/63/180 15/53/181 2/42/182
f 27/44/183 21/43/184 94/71/185 95/72/186
f 23/47/187 24/46/188 91/73/189 92/74/190
f 24/46/191 13/45/192 90/75/193 91/73/194
f 18/49/195 19/48/196 97/76/197 71/77/198
f 19/48/199 20/51/200 96/78/201 97/76/202
f 21/43/203 22/52/204 93/79/205 94/71/206
f 14/54/207 15/53/208 88/80/209 89/81/210
f 22/52/211 23/47/212 92/74/213 93/79/214
f 13/45/215 14/54/216 89/81/217 90/75/218
f 4/56/219 3/55/220 79/82/221 80/83/222
f 5/57/223 4/56/224 80/83/225 81/84/226
f 6/58/227 25/59/228 82/85/229 83/86/230
f 7/60/231 6/58/232 83/86/233 84/87/234
f 8/61/235 7/60/236 84/87/237 85/88/238
f 16/62/239 8/61/240 85/88/241 86/89/242
f 30/63/243 16/62/244 86/89/245 87/90/246
f 9/64/247 17/66/248 73/91/249 74/92/250
f 17/66/251 29/65/252 72/93/253 73/91/254
f 10/67/255 9/64/256 74/92/257 75/94/258
f 11/68/259 10/67/260 75/94/261 76/95/262
f 3/55/263 12/70/264 78/96/265 79/82/266
f 12/70/267 28/69/268 77/97/269 78/96/270
f 25/59/271 5/57/272 81/84/273 82/85/274
f 20/51/275 27/44/276 95/72/277 96/78/278
f 28/69/279 11/68/280 76/95/281 77/97/282
f 29/65/283 18/49/284 71/77/285 72/93/286
f 15/53/287 30/63/288 87/90/289 88/80/290
f 72/93/291 71/77/292 42/98/293 66/99/294
f 73/91/295 72/93/296 66/99/297 64/100/298
f 74/92/299 73/91/300 64/100/301 65/101/302
f 75/94/303 74/92/304 65/101/305 67/102/306
f 76/95/307 75/94/308 67/102/309 68/103/310
f 77/97/311 76/95/312 68/103/313 70/104/314
f 78/96/315 77/97/316 70/104/317 69/105/318
f 79/82/319 78/96/320 69/105/321 54/106/322
f 80/83/323 79/82/324 54/106/325 53/107/326
f 81/84/327 80/83/328 53/107/329 56/108/330
f 82/85/331 81/84/332 56/108/333 58/109/334
f 83/86/335 82/85/336 58/109/337 59/110/338
f 84/87/339 83/86/340 59/110/341 60/111/342
f 85/88/343 84/87/344 60/111/345 61/112/346
f 86/89/347 85/88/348 61/112/349 62/113/350
f 87/90/351 86/89/352 62/113/353 63/114/354
f 88/80/355 87/90/356 63/114/357 51/115/358
f 89/81/359 88/80/360 51/115/361 50/116/362
f 90/75/363 89/81/364 50/116/365 38/117/366
f 91/73/367 90/75/368 38/117/369 37/118/370
f 92/74/371 91/73/372 37/118/373 36/119/374
f 93/79/375 92/74/376 36/119/377 49/120/378
f 94/71/379 93/79/380 49/120/381 33/121/382
f 95/72/383 94/71/384 33/121/385 32/122/386
f 96/78/387 95/72/388 32/122/389 47/123/390
f 97/76/391 96/78/392 47/123/393 40/124/394
f 71/77/395 97/76/396 40/124/397 42/98/398
