# This file uses centimeters as units for non-parametric coordinates.

v -2.190590 -32.300526 -0.739429
v 1.153069 -32.300526 -0.739429
v -1.649551 -27.894579 -0.739429
v -2.416763 -25.544746 -0.739429
v -5.736275 -23.747879 -0.739429
v -7.262840 -19.939590 -0.739429
v -2.428474 -17.111391 -0.739429
v 3.313904 -17.681248 -0.739429
v 5.788040 -22.299160 -0.739429
v 3.966904 -24.728020 -0.739429
v 0.829811 -25.484373 -0.739429
v 0.458641 -28.002586 -0.739429
v -5.736275 -23.747879 0.739429
v -7.262840 -19.939590 0.739429
v -2.428474 -17.111391 0.739429
v -2.416763 -25.544746 0.739429
v 3.313904 -17.681248 0.739429
v 0.829811 -25.484373 0.739429
v 3.966904 -24.728020 0.739429
v 5.788040 -22.299160 0.739429
v -1.649551 -27.894579 0.739429
v 0.458641 -28.002586 0.739429
v -2.190590 -32.300526 0.739429
v 1.153069 -32.300526 0.739429
v -0.715103 -20.192030 0.739429
v -1.056519 -17.886093 0.739429
v 1.493340 -18.139133 0.739429
v -1.056519 -17.886093 -0.739429
v 1.493340 -18.139133 -0.739429
v -0.715103 -20.192030 -0.739429
v 0.862160 -20.060852 0.739429
v 0.930748 -19.997066 -0.739429
v -0.318336 -16.635445 0.390474
v 0.462646 -16.635445 0.390474
v -0.318336 0.232716 0.390474
v 0.462646 0.232716 0.390474
v -0.318336 0.232716 -0.390474
v 0.462646 0.232716 -0.390474
v -0.318336 -16.635445 -0.390474
v 0.462646 -16.635445 -0.390474
v -0.842781 -17.149021 1.211479
v 0.987129 -17.149021 1.211479
v -0.842781 -17.149021 -1.211479
v 0.987129 -17.149021 -1.211479
v -0.422211 -19.245409 0.654625
v 0.566559 -19.245409 0.654625
v -0.422211 -19.245409 -0.654625
v 0.566559 -19.245409 -0.654625
vt 0.185897 0.303570
vt 0.185897 0.303570
vt 0.185897 0.303570
vt 0.185897 0.303570
vt 0.187691 0.254741
vt 0.187691 0.254741
vt 0.187691 0.254741
vt 0.187691 0.254741
vt 0.185897 0.303570
vt 0.185897 0.303570
vt 0.185897 0.303570
vt 0.185897 0.303570
vt 0.185897 0.303570
vt 0.015549 0.304082
vt 0.015549 0.304082
vt 0.015549 0.304082
vt 0.015549 0.304082
vt 0.015549 0.304082
vt 0.015549 0.304082
vt 0.015549 0.304082
vt 0.185897 0.303570
vt 0.185897 0.303570
vt 0.185897 0.303570
vt 0.185897 0.303570
vt 0.187691 0.254741
vt 0.187691 0.254741
vt 0.187691 0.254741
vt 0.187691 0.254741
vt 0.185897 0.303570
vt 0.185897 0.303570
vt 0.185897 0.303570
vt 0.185897 0.303570
vt 0.015549 0.304082
vt 0.015549 0.304082
vt 0.015549 0.304082
vt 0.015549 0.304082
vt 0.015549 0.304082
vt 0.015549 0.304082
vt 0.185897 0.303570
vt 0.185897 0.303570
vt 0.185897 0.303570
vt 0.185897 0.303570
vt 0.185897 0.303570
vt 0.185897 0.303570
vt 0.185897 0.303570
vt 0.015549 0.304082
vt 0.015549 0.304082
vt 0.015549 0.304082
vt 0.015549 0.304082
vt 0.015549 0.304082
vt 0.185897 0.303570
vt 0.185897 0.303570
vt 0.185897 0.303570
vt 0.185897 0.303570
vt 0.185897 0.303570
vt 0.185897 0.303570
vt 0.185897 0.303570
vt 0.185897 0.303570
vt 0.400730 0.468702
vt 0.400730 0.468702
vt 0.400730 0.468702
vt 0.400730 0.468702
vt 0.400730 0.468702
vt 0.400730 0.468702
vt 0.400730 0.468702
vt 0.400730 0.468702
vt 0.400730 0.468702
vt 0.400730 0.468702
vt 0.400730 0.468702
vt 0.400730 0.468702
vt 0.400730 0.468702
vt 0.400730 0.468702
vt 0.400730 0.468702
vt 0.400730 0.468702
vt 0.400730 0.468702
vt 0.400730 0.468702
vt 0.400730 0.468702
vt 0.400730 0.468702
vt 0.400730 0.468702
vt 0.400730 0.468702
vt 0.400730 0.468702
vt 0.400730 0.468702
vt 0.400730 0.468702
vt 0.400730 0.468702
vt 0.400730 0.468702
vt 0.400730 0.468702
vt 0.400730 0.468702
vt 0.400730 0.468702
vt 0.400730 0.468702
vt 0.400730 0.468702
vt 0.400730 0.468702
vt 0.400730 0.468702
vt 0.400730 0.468702
vt 0.400730 0.468702
vt 0.400730 0.468702
vt 0.400730 0.468702
vt 0.400730 0.468702
vt 0.400730 0.468702
vt 0.400730 0.468702
vt 0.400730 0.468702
vt 0.400730 0.468702
vt 0.400730 0.468702
vt 0.185897 0.303570
vt 0.015549 0.304082
vn 0.000000 0.000000 1.000000
vn 0.000000 0.000000 1.000000
vn 0.000000 0.000000 1.000000
vn 0.000000 0.000000 1.000000
vn 0.000000 0.000000 1.000000
vn 0.000000 0.000000 1.000000
vn 0.000000 0.000000 1.000000
vn 0.000000 0.000000 1.000000
vn 0.000000 0.000000 1.000000
vn 0.000000 0.000000 1.000000
vn -0.000000 0.000000 1.000000
vn -0.000000 0.000000 1.000000
vn -0.000000 0.000000 1.000000
vn -0.000000 0.000000 1.000000
vn 0.000000 0.000000 1.000000
vn -0.000000 0.000000 1.000000
vn 0.000000 0.000000 1.000000
vn 0.000000 0.000000 1.000000
vn -0.000000 0.000000 1.000000
vn -0.000000 0.000000 1.000000
vn 0.000000 0.000000 1.000000
vn -0.000000 0.000000 1.000000
vn -0.000000 0.000000 1.000000
vn 0.000000 0.000000 1.000000
vn 0.000000 0.000000 1.000000
vn 0.000000 0.000000 1.000000
vn 0.000000 0.000000 1.000000
vn 0.000000 0.000000 1.000000
vn 0.000000 0.000000 1.000000
vn 0.000000 0.000000 1.000000
vn 0.000000 0.000000 1.000000
vn 0.000000 0.000000 -1.000000
vn -0.000000 0.000000 -1.000000
vn -0.000000 0.000000 -1.000000
vn -0.000000 0.000000 -1.000000
vn -0.000000 0.000000 -1.000000
vn -0.000000 0.000000 -1.000000
vn 0.000000 0.000000 -1.000000
vn 0.000000 0.000000 -1.000000
vn 0.000000 0.000000 -1.000000
vn 0.000000 0.000000 -1.000000
vn -0.000000 0.000000 -1.000000
vn -0.000000 0.000000 -1.000000
vn -0.000000 0.000000 -1.000000
vn -0.000000 0.000000 -1.000000
vn -0.000000 0.000000 -1.000000
vn 0.000000 0.000000 -1.000000
vn 0.000000 0.000000 -1.000000
vn -0.000000 0.000000 -1.000000
vn -0.000000 0.000000 -1.000000
vn -0.000000 0.000000 -1.000000
vn -0.000000 0.000000 -1.000000
vn 0.000000 0.000000 -1.000000
vn -0.000000 0.000000 -1.000000
vn 0.000000 0.000000 -1.000000
vn 0.000000 0.000000 -1.000000
vn 0.000000 0.000000 -1.000000
vn 0.000000 0.000000 -1.000000
vn 0.000000 0.000000 -1.000000
vn 0.000000 0.000000 -1.000000
vn 0.000000 0.000000 -1.000000
vn 0.000000 0.000000 -1.000000
vn -0.928203 -0.372074 0.000000
vn -0.928203 -0.372074 0.000000
vn -0.928203 -0.372074 0.000000
vn -0.928203 -0.372074 0.000000
vn -0.504957 0.863145 0.000000
vn -0.504957 0.863145 0.000000
vn -0.504957 0.863145 0.000000
vn -0.504957 0.863145 0.000000
vn -0.476037 -0.879425 0.000000
vn -0.476037 -0.879425 0.000000
vn -0.476037 -0.879425 0.000000
vn -0.476037 -0.879425 0.000000
vn 0.098752 0.995112 0.000000
vn 0.098752 0.995112 0.000000
vn 0.098752 0.995112 0.000000
vn 0.098752 0.995112 0.000000
vn 0.234384 -0.972144 0.000000
vn 0.234384 -0.972144 0.000000
vn 0.234384 -0.972144 0.000000
vn 0.234384 -0.972144 0.000000
vn 0.800080 -0.599893 0.000000
vn 0.800080 -0.599893 0.000000
vn 0.800080 -0.599893 0.000000
vn 0.800080 -0.599893 0.000000
vn 0.881460 0.472259 0.000000
vn 0.881460 0.472259 0.000000
vn 0.881460 0.472259 0.000000
vn 0.881460 0.472259 0.000000
vn -0.950615 -0.310372 0.000000
vn -0.999440 -0.033460 0.000000
vn -0.999440 -0.033460 0.000000
vn -0.950615 -0.310372 0.000000
vn 0.998877 0.047372 0.000000
vn 0.989311 -0.145819 0.000000
vn 0.989311 -0.145819 0.000000
vn 0.998877 0.047372 0.000000
vn -0.999440 -0.033460 0.000000
vn -0.992545 0.121882 0.000000
vn -0.992545 0.121882 0.000000
vn -0.999440 -0.033460 0.000000
vn 0.987197 0.159504 0.000000
vn 0.998877 0.047372 0.000000
vn 0.998877 0.047372 0.000000
vn 0.987197 0.159504 0.000000
vn 0.000000 -1.000000 0.000000
vn 0.000000 -1.000000 0.000000
vn 0.000000 -1.000000 0.000000
vn 0.000000 -1.000000 0.000000
vn 0.000000 0.000000 1.000000
vn 0.000000 0.000000 1.000000
vn 0.000000 0.000000 1.000000
vn 0.000000 0.000000 1.000000
vn 0.000000 0.000000 1.000000
vn 0.000000 0.000000 1.000000
vn 0.000000 0.000000 1.000000
vn 0.000000 0.000000 1.000000
vn 0.000000 0.000000 1.000000
vn 0.000000 0.000000 1.000000
vn 0.000000 0.000000 1.000000
vn 0.000000 0.000000 1.000000
vn 0.000000 0.000000 1.000000
vn 0.000000 0.000000 1.000000
vn 0.000000 0.000000 1.000000
vn 0.000000 0.000000 1.000000
vn 0.000000 0.000000 1.000000
vn 0.000000 0.000000 -1.000000
vn 0.000000 0.000000 -1.000000
vn 0.000000 0.000000 -1.000000
vn 0.000000 0.000000 -1.000000
vn 0.000000 0.000000 -1.000000
vn -0.000000 0.000000 -1.000000
vn 0.000000 0.000000 -1.000000
vn 0.000000 0.000000 -1.000000
vn -0.000000 0.000000 -1.000000
vn -0.000000 0.000000 -1.000000
vn -0.000000 0.000000 -1.000000
vn -0.000000 0.000000 -1.000000
vn -0.000000 0.000000 -1.000000
vn 0.000000 0.000000 -1.000000
vn 0.000000 0.000000 -1.000000
vn 0.000000 0.000000 -1.000000
vn 0.000000 0.000000 -1.000000
vn 0.000000 0.000000 1.000000
vn 0.000000 0.000000 1.000000
vn 0.000000 0.000000 1.000000
vn 0.000000 0.000000 1.000000
vn 0.000000 1.000000 0.000000
vn 0.000000 1.000000 0.000000
vn 0.000000 1.000000 0.000000
vn 0.000000 1.000000 0.000000
vn 0.000000 0.000000 -1.000000
vn 0.000000 0.000000 -1.000000
vn 0.000000 0.000000 -1.000000
vn 0.000000 0.000000 -1.000000
vn 1.000000 0.000000 0.000000
vn 1.000000 0.000000 0.000000
vn 1.000000 0.000000 0.000000
vn 1.000000 0.000000 0.000000
vn -1.000000 0.000000 0.000000
vn -1.000000 0.000000 0.000000
vn -1.000000 0.000000 0.000000
vn -1.000000 0.000000 0.000000
vn 0.000000 0.847790 0.530332
vn 0.000000 0.847790 0.530332
vn 0.000000 0.847790 0.530332
vn 0.000000 0.847790 0.530332
vn 0.000000 0.847790 -0.530333
vn 0.000000 0.847790 -0.530333
vn 0.000000 0.847790 -0.530333
vn 0.000000 0.847790 -0.530333
vn -0.699665 0.714471 0.000000
vn -0.699665 0.714471 0.000000
vn -0.699665 0.714471 0.000000
vn -0.699665 0.714471 0.000000
vn 0.699639 0.714497 0.000000
vn 0.699639 0.714497 0.000000
vn 0.699639 0.714497 0.000000
vn 0.699639 0.714497 0.000000
vn 0.000000 -0.256723 0.966485
vn 0.000000 -0.256723 0.966485
vn 0.000000 -0.256723 0.966485
vn 0.000000 -0.256723 0.966485
vn 0.000000 -0.256723 -0.966485
vn 0.000000 -0.256723 -0.966485
vn 0.000000 -0.256723 -0.966485
vn 0.000000 -0.256723 -0.966485
vn -0.980464 -0.196697 0.000000
vn -0.980464 -0.196697 0.000000
vn -0.980464 -0.196697 0.000000
vn -0.980464 -0.196697 0.000000
vn 0.980464 -0.196697 0.000000
vn 0.980464 -0.196697 0.000000
vn 0.980464 -0.196697 0.000000
vn 0.980464 -0.196697 0.000000
s off
f 14/1/1 13/2/2 15/3/3
f 13/2/4 16/4/5 15/3/6
f 26/5/7 25/6/8 31/7/9 27/8/10
f 16/4/11 18/9/12 17/10/13
f 18/11/14 19/12/15 17/10/16
f 19/12/17 20/13/18 17/10/19
f 16/14/20 21/15/21 18/16/22
f 18/17/23 21/15/24 22/18/25
f 21/15/26 23/19/27 22/18/28
f 24/20/29 22/18/30 23/19/31
f 6/21/32 7/22/33 5/23/34
f 5/23/35 7/22/36 4/24/37
f 28/25/38 29/26/39 32/27/40 30/28/41
f 4/24/42 8/29/43 11/30/44
f 11/30/45 8/29/46 10/31/47
f 10/31/48 8/29/49 9/32/50
f 4/33/51 11/34/52 3/35/53
f 11/34/54 12/36/55 3/35/56
f 3/35/57 12/36/58 1/37/59
f 2/38/60 1/37/61 12/36/62
f 6/39/63 5/40/64 13/2/65 14/1/66
f 7/41/67 6/39/68 14/1/69 15/3/70
f 5/40/71 4/42/72 16/4/73 13/2/74
f 8/43/75 7/41/76 15/3/77 17/10/78
f 11/103/79 10/44/80 19/12/81 18/11/82
f 10/44/83 9/45/84 20/13/85 19/12/86
f 9/45/87 8/43/88 17/10/89 20/13/90
f 4/46/91 3/47/92 21/15/93 16/14/94
f 12/48/95 11/104/96 18/17/97 22/18/98
f 3/47/99 1/49/100 23/19/101 21/15/102
f 2/50/103 12/48/104 22/18/105 24/20/106
f 1/49/107 2/50/108 24/20/109 23/19/110
f 15/3/111 16/4/112 25/51/113 26/52/114
f 25/51/115 16/4/116 31/53/117
f 16/4/118 17/10/119 31/53/120
f 17/10/121 27/54/122 31/53/123
f 17/10/124 15/3/125 26/52/126 27/54/127
f 7/22/128 8/29/129 29/55/130 28/56/131
f 30/57/132 32/58/133 4/24/134
f 4/24/135 32/58/136 8/29/137
f 8/29/138 32/58/139 29/55/140
f 4/24/141 7/22/142 28/56/143 30/57/144
f 33/59/145 34/60/146 36/61/147 35/62/148
f 35/62/149 36/61/150 38/63/151 37/64/152
f 37/64/153 38/63/154 40/65/155 39/66/156
f 34/60/157 40/67/158 38/68/159 36/61/160
f 39/69/161 33/59/162 35/62/163 37/70/164
f 34/71/165 33/72/166 41/73/167 42/74/168
f 39/75/169 40/76/170 44/77/171 43/78/172
f 33/79/173 39/80/174 43/81/175 41/82/176
f 40/83/177 34/84/178 42/85/179 44/86/180
f 42/87/181 41/88/182 45/89/183 46/90/184
f 43/91/185 44/92/186 48/93/187 47/94/188
f 41/95/189 43/96/190 47/97/191 45/98/192
f 44/99/193 42/100/194 46/101/195 48/102/196
