# This file uses centimeters as units for non-parametric coordinates.

v 18.788696 1.300283 169.050903
v -18.788818 1.300283 171.779968
v 18.788696 5.687194 169.050903
v -18.788818 5.687194 171.779968
v 18.788696 5.687194 -184.511200
v -18.788818 5.687194 -179.115479
v 18.788696 1.300283 -184.511200
v -18.788818 1.300283 -179.115479
v -3.399231 5.687194 -174.746887
v -5.276550 5.687194 169.188202
v -5.628357 1.300283 171.206299
v -3.290771 1.300283 -178.446533
v -7.062622 5.687194 -180.225281
v -7.190247 1.300283 -180.225281
v 0.240967 1.300283 -185.621002
v 0.970337 5.687194 -185.621002
v -18.788818 6.987477 -21.905334
v -18.788818 6.987477 -80.079056
v -12.246399 5.956018 -41.494957
v -18.788818 3.888220 -39.588615
v 18.788696 0.000000 -138.270401
v 18.788696 0.000000 -99.887398
v 18.788696 3.822402 -125.761368
v 13.106201 0.000000 -126.130615
v 18.788696 6.987477 121.222137
v 18.788696 6.987477 41.404099
v 18.788696 4.942589 78.511642
v 12.682251 6.987477 68.516495
v 12.904785 5.956018 95.939056
v 18.788696 4.942589 78.511642
vt 0.058966 0.275784
vt 0.058966 0.275784
vt 0.058966 0.275785
vt 0.058966 0.275785
vt 0.058966 0.304228
vt 0.058966 0.283442
vt 0.058966 0.304228
vt 0.058966 0.283442
vt 0.058966 0.275784
vt 0.058966 0.275784
vt 0.058966 0.283442
vt 0.058966 0.283442
vt 0.058966 0.304228
vt 0.058966 0.304228
vt 0.058966 0.283442
vt 0.058966 0.275785
vt 0.058966 0.275784
vt 0.058966 0.275784
vt 0.058966 0.283442
vt 0.058966 0.283442
vt 0.058966 0.283442
vt 0.058966 0.283442
vt 0.058966 0.283442
vt 0.058966 0.304228
vt 0.058966 0.304228
vt 0.058966 0.304228
vt 0.058966 0.304228
vt 0.058966 0.304228
vt 0.058966 0.304228
vt 0.058966 0.304228
vt 0.058966 0.304228
vt 0.058966 0.304228
vt 0.058966 0.304228
vt 0.058966 0.304228
vt 0.058966 0.304228
vt 0.058966 0.304228
vt 0.058966 0.304228
vt 0.058966 0.275785
vt 0.058966 0.275785
vt 0.058966 0.275785
vt 0.058966 0.275785
vt 0.058966 0.275784
vt 0.058966 0.275785
vt 0.058966 0.275785
vt 0.058966 0.275785
vt 0.058966 0.275785
vn 0.662669 0.289752 -0.690589
vn 0.662669 0.289752 -0.690589
vn 0.662669 0.289752 -0.690589
vn 0.662669 0.289752 -0.690589
vn -1.000000 0.000000 0.000000
vn -1.000000 0.000000 0.000000
vn -1.000000 0.000000 0.000000
vn -1.000000 0.000000 0.000000
vn 1.000000 -0.000001 0.000000
vn 1.000000 -0.000001 0.000000
vn 1.000000 -0.000001 0.000000
vn -0.891982 0.227782 -0.390492
vn -0.891982 0.227782 -0.390492
vn -0.891982 0.227782 -0.390492
vn -0.891982 0.227782 -0.390492
vn -0.094733 0.001378 -0.995502
vn -0.094733 0.001378 -0.995502
vn -0.094733 0.001378 -0.995502
vn -0.094733 0.001378 -0.995502
vn 0.060921 -0.005064 -0.998130
vn 0.060921 -0.005064 -0.998130
vn 0.060921 -0.005064 -0.998130
vn 0.060921 -0.005064 -0.998130
vn 0.046056 0.222168 0.973920
vn 0.046056 0.222168 0.973920
vn 0.046056 0.222168 0.973920
vn 0.046056 0.222168 0.973920
vn -0.028549 -0.999592 -0.000191
vn -0.028549 -0.999592 -0.000191
vn -0.028549 -0.999592 -0.000191
vn -0.028549 -0.999592 -0.000191
vn -0.028549 -0.999592 -0.000191
vn -0.028549 -0.999592 -0.000191
vn 0.115008 0.218291 0.969083
vn 0.115008 0.218291 0.969083
vn 0.115008 0.218291 0.969083
vn 0.115008 0.218291 0.969083
vn -0.040214 0.999167 0.006910
vn -0.040214 0.999167 0.006910
vn -0.040214 0.999167 0.006910
vn -0.040214 0.999167 0.006910
vn -0.340066 0.926283 -0.162345
vn -0.340066 0.926283 -0.162345
vn -0.340066 0.926283 -0.162345
vn -0.281091 0.956882 0.073243
vn -0.281091 0.956882 0.073243
vn -0.281091 0.956882 0.073243
vn 0.529578 -0.811232 0.247889
vn 0.529578 -0.811232 0.247889
vn 0.529578 -0.811232 0.247889
vn 0.559437 -0.819974 -0.121136
vn 0.559437 -0.819974 -0.121136
vn 0.559437 -0.819974 -0.121136
vn 0.054600 0.998504 0.002933
vn 0.054600 0.998504 0.002933
vn 0.054600 0.998504 0.002933
vn 0.054600 0.998504 0.002933
vn 0.054629 0.998497 -0.004500
vn 0.054629 0.998497 -0.004500
vn 0.054629 0.998497 -0.004500
vn 0.054629 0.998497 -0.004500
vn 0.054629 0.998497 -0.004500
vn -1.000000 -0.000001 0.000000
vn -1.000000 -0.000001 0.000000
vn -1.000000 -0.000001 0.000000
vn -1.000000 -0.000001 0.000000
vn -1.000000 0.000000 0.000000
vn -1.000000 0.000000 0.000000
vn -1.000000 0.000000 0.000000
vn 1.000000 0.000000 0.000000
vn 1.000000 0.000000 0.000000
vn 1.000000 0.000000 0.000000
vn 1.000000 0.000000 0.000000
vn 1.000000 0.000000 0.000000
vn 1.000000 0.000000 0.000000
vn 1.000000 0.000000 0.000000
vn 1.000000 0.000000 0.000000
vn 1.000000 0.000000 0.000000
vn -0.003580 -0.999984 0.004474
vn -0.003580 -0.999984 0.004474
vn -0.003580 -0.999984 0.004474
vn -0.003580 -0.999984 0.004474
vn -0.014304 -0.999660 -0.021814
vn -0.014304 -0.999660 -0.021814
vn -0.014304 -0.999660 -0.021814
vn -0.014304 -0.999660 -0.021814
vn -0.014304 -0.999660 -0.021814
vn 0.030380 0.998395 -0.047801
vn 0.030380 0.998395 -0.047801
vn 0.030380 0.998395 -0.047801
vn 1.000000 -0.000001 0.000000
vn 1.000000 -0.000001 0.000000
vn 1.000000 -0.000001 0.000000
vn 1.000000 -0.000001 0.000000
vn 0.000000 0.000000 0.000000
vn 0.000000 0.000000 0.000000
vn 0.000000 0.000000 0.000000
vn 0.237323 0.969959 0.053452
vn 0.237323 0.969959 0.053452
vn 0.237323 0.969959 0.053452
vn 0.266781 0.963155 0.034063
vn 0.266781 0.963155 0.034063
vn 0.266781 0.963155 0.034063
vn 0.000000 0.000000 0.000000
vn 0.000000 0.000000 0.000000
vn 0.000000 0.000000 0.000000
vn -0.006722 0.999964 -0.005158
vn -0.006722 0.999964 -0.005158
vn -0.006722 0.999964 -0.005158
vn -0.006722 0.999964 -0.005158
vn -0.006722 0.999964 -0.005158
vn -0.050323 0.998731 0.002039
vn -0.050323 0.998731 0.002039
vn -0.050323 0.998731 0.002039
vn -0.050323 0.998731 0.002039
vn -0.008510 0.999963 0.001557
vn -0.008510 0.999963 0.001557
vn -0.008510 0.999963 0.001557
s off
f 12/19/1 14/21/2 13/20/3 9/15/4
f 2/2/5 4/4/6 17/25/7 20/29/8
f 25/38/9 3/3/10 27/42/11
f 15/22/12 12/19/13 9/15/14 16/23/15
f 14/21/16 8/8/17 6/6/18 13/20/19
f 5/5/20 7/7/21 15/22/22 16/23/23
f 11/17/24 1/1/25 3/3/26 10/16/27
f 12/19/28 24/36/29 11/18/30 2/10/31 8/8/32 14/21/33
f 10/16/34 4/4/35 2/2/36 11/17/37
f 10/16/38 3/3/39 25/39/40 29/44/41
f 17/25/42 19/30/43 20/29/44
f 19/30/45 18/27/46 20/29/47
f 21/32/48 23/37/49 24/36/50
f 23/37/51 22/34/52 24/36/53
f 19/28/54 17/24/55 4/4/56 10/16/57
f 13/20/58 6/6/59 18/26/60 19/28/61 9/15/62
f 20/29/63 18/27/64 6/12/65 8/11/66
f 2/2/67 20/29/68 8/11/69
f 7/13/70 5/14/71 23/35/72 21/31/73
f 3/3/74 1/1/75 22/33/76 23/35/77 27/42/78
f 24/36/79 22/34/80 1/9/81 11/18/82
f 7/7/83 21/32/84 24/36/85 12/19/86 15/22/87
f 25/39/88 30/46/89 29/44/90
f 5/14/91 26/40/92 27/42/93 23/35/94
f 30/45/95 25/38/96 27/42/97
f 30/46/98 26/41/99 28/43/100
f 30/46/101 28/43/102 29/44/103
f 26/40/104 30/45/105 27/42/106
f 28/43/107 26/41/108 5/5/109 16/23/110 9/15/111
f 29/44/112 28/43/113 9/15/114 19/28/115
f 10/16/116 29/44/117 19/28/118
