# This file uses centimeters as units for non-parametric coordinates.

v -0.829744 8.594463 9.685178
v -0.829744 -13.980848 9.685178
v 0.829744 8.594463 9.685178
v 0.829744 -13.980848 9.685178
v 1.125578 8.135536 8.933669
v 1.125578 -13.521921 8.933669
v -1.125578 8.135536 8.933669
v -1.125578 -13.521921 8.933669
v -1.125578 -15.559996 6.650182
v -0.829744 -16.423050 7.089451
v 1.125578 -15.559996 6.650182
v 0.829744 -16.423050 7.089451
v -1.125578 10.173611 6.650182
v -0.829744 11.036667 7.089451
v 0.829744 11.036667 7.089451
v 1.125578 10.173611 6.650182
v -1.125576 -16.006083 3.381808
v -0.975683 -16.936359 3.381808
v 1.125578 -16.006083 3.381808
v 0.975683 -16.936359 3.381808
v -1.125576 10.619698 3.381808
v -0.975683 11.549973 3.381808
v 0.975683 11.549973 3.381808
v 1.125578 10.619698 3.381808
v -2.662480 3.049177 10.015674
v 2.662480 3.049177 10.015674
v -2.662480 5.194336 10.015674
v 2.662480 5.194336 10.015674
v -2.201209 5.576748 8.933669
v 2.201209 5.576748 8.933669
v -2.201209 2.666765 8.933669
v 2.201209 2.666765 8.933669
v 4.912976 2.666765 6.650182
v 5.634126 3.049177 7.732187
v 4.912976 5.576748 6.650182
v 5.634126 5.194336 7.732187
v -4.912976 2.666765 6.650182
v -5.634126 3.049177 7.732187
v -5.634126 5.194336 7.732187
v -4.912976 5.576748 6.650182
v 5.895140 2.666765 3.381808
v 6.899821 2.860525 3.381808
v 5.895140 5.576748 3.381808
v 6.899821 5.382984 3.381808
v -5.895140 2.666765 3.381808
v -6.899821 2.860525 3.381808
v -6.899821 5.382984 3.381808
v -5.895140 5.576748 3.381808
v -2.662480 -9.107203 10.015674
v 2.662480 -9.107203 10.015674
v -2.662480 -7.001266 10.015674
v 2.662480 -7.001266 10.015674
v -2.201209 -6.625849 8.933669
v 2.201209 -6.625849 8.933669
v -2.201209 -9.482624 8.933669
v 2.201209 -9.482624 8.933669
v 4.912976 -9.482624 6.650182
v 5.634126 -9.107203 7.732187
v 4.912976 -6.625849 6.650182
v 5.634126 -7.001266 7.732187
v -4.912976 -9.482624 6.650182
v -5.634126 -9.107203 7.732187
v -5.634126 -7.001266 7.732187
v -4.912976 -6.625849 6.650182
v 5.895140 -9.482624 3.381808
v 6.899821 -9.292402 3.381808
v 5.895140 -6.625849 3.381808
v 6.899821 -6.816069 3.381808
v -5.895140 -9.482624 3.381808
v -6.899821 -9.292402 3.381808
v -6.899821 -6.816069 3.381808
v -5.895140 -6.625849 3.381808
v -8.555986 -17.860735 3.508182
v 8.555986 -17.860735 3.508182
v -8.555986 12.511108 3.508182
v 8.555986 12.511108 3.508182
v -8.555986 12.511108 -3.049627
v 8.555986 12.511108 -3.049627
v -8.555986 -17.860735 -3.049627
v 8.555986 -17.860735 -3.049627
v -6.055851 -14.229984 3.508182
v 6.055851 -14.229984 3.508182
v 6.055851 8.880360 3.508182
v -6.055851 8.880360 3.508182
v -4.938755 -13.776547 6.770842
v 4.938755 -13.776547 6.770842
v 4.938755 8.426922 6.770842
v -4.938755 8.426922 6.770842
v -2.233403 -13.635349 9.067474
v 2.233403 -13.635349 9.067474
v 2.233403 8.285725 9.067474
v -2.233403 8.285725 9.067474
v -2.963253 10.246777 6.770842
v 2.963253 10.246777 6.770842
v -3.633510 10.760109 3.508182
v 3.633510 10.760109 3.508182
v 2.963253 -15.596402 6.770842
v -2.963253 -15.596401 6.770842
v 3.633510 -16.109735 3.508182
v -3.633510 -16.109735 3.508182
vt 0.112285 0.256332
vt 0.112285 0.256332
vt 0.112285 0.256332
vt 0.112285 0.256332
vt 0.112285 0.256332
vt 0.112285 0.256332
vt 0.112285 0.256332
vt 0.112285 0.256332
vt 0.112285 0.256332
vt 0.112285 0.256332
vt 0.112285 0.256332
vt 0.112285 0.256332
vt 0.112285 0.256332
vt 0.112285 0.256332
vt 0.112285 0.256332
vt 0.112285 0.256332
vt 0.112285 0.256332
vt 0.112285 0.256332
vt 0.112285 0.256332
vt 0.112285 0.256332
vt 0.112285 0.256332
vt 0.112285 0.256332
vt 0.112285 0.256332
vt 0.112285 0.256332
vt 0.112285 0.256332
vt 0.112285 0.256332
vt 0.112285 0.256332
vt 0.112285 0.256332
vt 0.112285 0.256332
vt 0.112285 0.256332
vt 0.112285 0.256332
vt 0.112285 0.256332
vt 0.112285 0.256332
vt 0.112285 0.256332
vt 0.112285 0.256332
vt 0.112285 0.256332
vt 0.112285 0.256332
vt 0.112285 0.256332
vt 0.112285 0.256332
vt 0.112285 0.256332
vt 0.112285 0.256332
vt 0.112285 0.256332
vt 0.112285 0.256332
vt 0.112285 0.256332
vt 0.112285 0.256332
vt 0.112285 0.256332
vt 0.112285 0.256332
vt 0.112285 0.256332
vt 0.112285 0.256332
vt 0.112285 0.256332
vt 0.112285 0.256332
vt 0.112285 0.256332
vt 0.112285 0.256332
vt 0.112285 0.256332
vt 0.112285 0.256332
vt 0.112285 0.256332
vt 0.112285 0.256332
vt 0.112285 0.256332
vt 0.112285 0.256332
vt 0.112285 0.256332
vt 0.112285 0.256332
vt 0.112285 0.256332
vt 0.112285 0.256332
vt 0.112285 0.256332
vt 0.112285 0.256332
vt 0.112285 0.256332
vt 0.112285 0.256332
vt 0.112285 0.256332
vt 0.112285 0.256332
vt 0.112285 0.256332
vt 0.112285 0.256332
vt 0.112285 0.256332
vt 0.112285 0.256332
vt 0.112285 0.256332
vt 0.112285 0.256332
vt 0.112285 0.256332
vt 0.112285 0.256332
vt 0.112285 0.256332
vt 0.112285 0.256332
vt 0.112285 0.256332
vt 0.112285 0.256332
vt 0.112285 0.256332
vt 0.112285 0.256332
vt 0.112285 0.256332
vt 0.112285 0.256332
vt 0.112285 0.256332
vt 0.112285 0.256332
vt 0.112285 0.256332
vt 0.112285 0.256332
vt 0.112285 0.256332
vt 0.112284 0.256332
vt 0.112284 0.256332
vt 0.112284 0.256332
vt 0.112284 0.256332
vt 0.112284 0.256330
vt 0.112284 0.256330
vt 0.112284 0.256330
vt 0.112284 0.256330
vt 0.112285 0.256332
vt 0.112285 0.256330
vt 0.112285 0.256332
vt 0.112285 0.256332
vt 0.112285 0.256330
vt 0.112285 0.256332
vt 0.112285 0.256330
vt 0.112285 0.256330
vt 0.030763 0.062420
vt 0.030763 0.062420
vt 0.030763 0.062420
vt 0.030763 0.062422
vt 0.030763 0.062422
vt 0.030763 0.062422
vt 0.030763 0.062422
vt 0.030763 0.062422
vt 0.030763 0.062420
vt 0.030763 0.062420
vt 0.030763 0.062420
vt 0.030763 0.062420
vt 0.030763 0.062422
vt 0.030763 0.062422
vt 0.030763 0.062420
vt 0.030763 0.062422
vt 0.030763 0.062422
vt 0.030763 0.062420
vt 0.030763 0.062422
vt 0.030763 0.062420
vn 0.000000 0.000000 1.000000
vn 0.000000 0.000000 1.000000
vn 0.000000 0.000000 1.000000
vn 0.000000 0.000000 1.000000
vn 0.939151 -0.041725 0.340960
vn 0.937176 -0.031153 0.347464
vn 0.937176 0.031153 0.347464
vn 0.939151 0.041725 0.340960
vn -0.937176 -0.031153 0.347464
vn -0.939151 -0.041725 0.340960
vn -0.939151 0.041725 0.340960
vn -0.937176 0.031153 0.347464
vn -0.939151 -0.041725 0.340960
vn -0.937176 -0.031153 0.347464
vn -0.948903 -0.232440 0.213435
vn -0.948903 -0.232440 0.213435
vn 0.937176 -0.031153 0.347464
vn 0.939151 -0.041725 0.340960
vn 0.948903 -0.232440 0.213435
vn 0.948903 -0.232440 0.213435
vn 0.000000 -0.728317 0.685241
vn 0.000000 -0.728317 0.685241
vn 0.000000 -0.728317 0.685241
vn 0.000000 -0.728317 0.685241
vn -0.937176 0.031153 0.347464
vn -0.939151 0.041725 0.340960
vn -0.948903 0.232440 0.213435
vn -0.948903 0.232440 0.213435
vn 0.000000 0.728317 0.685241
vn 0.000000 0.728317 0.685241
vn 0.000000 0.728317 0.685241
vn 0.000000 0.728317 0.685241
vn 0.939151 0.041725 0.340960
vn 0.937176 0.031153 0.347464
vn 0.948903 0.232440 0.213435
vn 0.948903 0.232440 0.213435
vn -0.972067 -0.228912 0.051817
vn -0.972067 -0.228912 0.051817
vn -0.972067 -0.228912 0.051817
vn -0.972067 -0.228912 0.051817
vn 0.972067 -0.228912 0.051818
vn 0.972067 -0.228912 0.051818
vn 0.972067 -0.228912 0.051818
vn 0.972067 -0.228912 0.051818
vn 0.000000 -0.990552 0.137138
vn 0.000000 -0.990552 0.137138
vn 0.000000 -0.990552 0.137138
vn 0.000000 -0.990552 0.137138
vn -0.972067 0.228912 0.051817
vn -0.972067 0.228912 0.051817
vn -0.972067 0.228912 0.051817
vn -0.972067 0.228912 0.051817
vn 0.000000 0.990552 0.137137
vn 0.000000 0.990552 0.137137
vn 0.000000 0.990552 0.137137
vn 0.000000 0.990552 0.137137
vn 0.972067 0.228912 0.051817
vn 0.972067 0.228912 0.051817
vn 0.972067 0.228912 0.051817
vn 0.972067 0.228912 0.051817
vn 0.000000 0.000000 1.000000
vn 0.000000 0.000000 1.000000
vn 0.000000 0.000000 1.000000
vn 0.000000 0.000000 1.000000
vn 0.091263 0.953531 0.287139
vn 0.083453 0.953009 0.291222
vn -0.083453 0.953009 0.291222
vn -0.091263 0.953532 0.287139
vn 0.083453 -0.953009 0.291222
vn 0.091263 -0.953531 0.287139
vn -0.091263 -0.953532 0.287139
vn -0.083453 -0.953009 0.291222
vn 0.091263 -0.953531 0.287139
vn 0.083453 -0.953009 0.291222
vn 0.188230 -0.953781 0.234245
vn 0.188230 -0.953781 0.234245
vn 0.083453 0.953009 0.291222
vn 0.091263 0.953531 0.287139
vn 0.188230 0.953781 0.234244
vn 0.188230 0.953781 0.234244
vn 0.609309 0.000000 0.792933
vn 0.609309 0.000000 0.792933
vn 0.609309 0.000000 0.792933
vn 0.609309 0.000000 0.792933
vn -0.083453 -0.953009 0.291222
vn -0.091263 -0.953532 0.287139
vn -0.188230 -0.953781 0.234245
vn -0.188230 -0.953781 0.234245
vn -0.609309 0.000000 0.792933
vn -0.609309 0.000000 0.792933
vn -0.609309 0.000000 0.792933
vn -0.609309 0.000000 0.792933
vn -0.091263 0.953532 0.287139
vn -0.083453 0.953009 0.291222
vn -0.188230 0.953781 0.234244
vn -0.188230 0.953781 0.234244
vn 0.258139 -0.960923 0.099956
vn 0.258139 -0.960923 0.099956
vn 0.258139 -0.960923 0.099956
vn 0.258139 -0.960923 0.099956
vn 0.258141 0.960923 0.099956
vn 0.258141 0.960923 0.099956
vn 0.258141 0.960923 0.099956
vn 0.258141 0.960923 0.099956
vn 0.960188 0.000000 0.279356
vn 0.960188 0.000000 0.279356
vn 0.960188 0.000000 0.279356
vn 0.960188 0.000000 0.279356
vn -0.258139 -0.960923 0.099956
vn -0.258139 -0.960923 0.099956
vn -0.258139 -0.960923 0.099956
vn -0.258139 -0.960923 0.099956
vn -0.960188 0.000000 0.279356
vn -0.960188 0.000000 0.279356
vn -0.960188 0.000000 0.279356
vn -0.960188 0.000000 0.279356
vn -0.258141 0.960923 0.099956
vn -0.258141 0.960923 0.099956
vn -0.258141 0.960923 0.099956
vn -0.258141 0.960923 0.099956
vn 0.000000 0.000000 1.000000
vn 0.000000 0.000000 1.000000
vn 0.000000 0.000000 1.000000
vn 0.000000 0.000000 1.000000
vn 0.089755 0.955105 0.282346
vn 0.082059 0.954597 0.286374
vn -0.082059 0.954597 0.286374
vn -0.089755 0.955105 0.282346
vn 0.082060 -0.954597 0.286377
vn 0.089755 -0.955104 0.282348
vn -0.089755 -0.955104 0.282348
vn -0.082060 -0.954597 0.286377
vn 0.089755 -0.955104 0.282348
vn 0.082060 -0.954597 0.286377
vn 0.185092 -0.955345 0.230340
vn 0.185092 -0.955345 0.230340
vn 0.082059 0.954597 0.286374
vn 0.089755 0.955105 0.282346
vn 0.185090 0.955346 0.230337
vn 0.185090 0.955346 0.230337
vn 0.609309 0.000000 0.792933
vn 0.609309 0.000000 0.792933
vn 0.609309 0.000000 0.792933
vn 0.609309 0.000000 0.792933
vn -0.082060 -0.954597 0.286377
vn -0.089755 -0.955104 0.282348
vn -0.185092 -0.955345 0.230340
vn -0.185092 -0.955345 0.230340
vn -0.609309 0.000000 0.792933
vn -0.609309 0.000000 0.792933
vn -0.609309 0.000000 0.792933
vn -0.609309 0.000000 0.792933
vn -0.089755 0.955105 0.282346
vn -0.082059 0.954597 0.286374
vn -0.185090 0.955346 0.230337
vn -0.185090 0.955346 0.230337
vn 0.253774 -0.962259 0.098265
vn 0.253774 -0.962259 0.098265
vn 0.253774 -0.962259 0.098265
vn 0.253774 -0.962259 0.098265
vn 0.253772 0.962260 0.098265
vn 0.253772 0.962260 0.098265
vn 0.253772 0.962260 0.098265
vn 0.253772 0.962260 0.098265
vn 0.960188 0.000000 0.279356
vn 0.960188 0.000000 0.279356
vn 0.960188 0.000000 0.279356
vn 0.960188 0.000000 0.279356
vn -0.253774 -0.962259 0.098265
vn -0.253774 -0.962259 0.098265
vn -0.253774 -0.962259 0.098265
vn -0.253774 -0.962259 0.098265
vn -0.960188 0.000000 0.279356
vn -0.960188 0.000000 0.279356
vn -0.960188 0.000000 0.279356
vn -0.960188 0.000000 0.279356
vn -0.253772 0.962260 0.098264
vn -0.253772 0.962260 0.098264
vn -0.253772 0.962260 0.098264
vn -0.253772 0.962260 0.098264
vn 0.000000 1.000000 0.000000
vn 0.000000 1.000000 0.000000
vn 0.000000 1.000000 0.000000
vn 0.000000 1.000000 0.000000
vn 0.000000 0.000000 -1.000000
vn 0.000000 0.000000 -1.000000
vn 0.000000 0.000000 -1.000000
vn 0.000000 0.000000 -1.000000
vn 0.000000 -1.000000 0.000000
vn 0.000000 -1.000000 0.000000
vn 0.000000 -1.000000 0.000000
vn 0.000000 -1.000000 0.000000
vn 1.000000 0.000000 0.000000
vn 1.000000 0.000000 0.000000
vn 1.000000 0.000000 0.000000
vn 1.000000 0.000000 0.000000
vn -1.000000 0.000000 0.000000
vn -1.000000 0.000000 0.000000
vn -1.000000 0.000000 0.000000
vn -1.000000 0.000000 0.000000
vn -0.000000 0.000000 1.000000
vn -0.000000 0.000000 1.000000
vn -0.000000 0.000000 1.000000
vn -0.000000 0.000000 1.000000
vn 0.000000 0.000000 1.000000
vn 0.000000 0.000000 1.000000
vn -0.000000 0.000000 1.000000
vn -0.000000 0.000000 1.000000
vn 0.000000 0.000000 1.000000
vn 0.000000 0.000000 1.000000
vn 0.000000 0.000000 1.000000
vn 0.000000 0.000000 1.000000
vn -0.000000 -0.987848 0.155424
vn -0.000000 -0.987848 0.155424
vn -0.000000 -0.987848 0.155424
vn -0.000000 -0.987848 0.155424
vn -0.618320 0.735017 0.278262
vn -0.618320 0.735017 0.278262
vn -0.618320 0.735017 0.278262
vn -0.618320 0.735017 0.278262
vn -0.000000 -0.760481 0.649361
vn -0.000000 -0.760481 0.649361
vn -0.000000 -0.760481 0.649361
vn -0.000000 -0.760481 0.649361
vn -0.517943 0.562242 0.644685
vn -0.517943 0.562242 0.644685
vn -0.517943 0.562242 0.644686
vn -0.946082 0.000000 0.323927
vn -0.946082 0.000000 0.323927
vn -0.946082 0.000000 0.323927
vn -0.946082 0.000000 0.323927
vn -0.647171 0.000000 0.762345
vn -0.647171 0.000000 0.762345
vn -0.647171 0.000000 0.762345
vn -0.647171 0.000000 0.762345
vn 0.000000 0.000000 1.000000
vn 0.000000 0.000000 1.000000
vn 0.000000 0.000000 1.000000
vn 0.000000 0.000000 1.000000
vn 0.647171 0.000000 0.762345
vn 0.647171 0.000000 0.762345
vn 0.647171 0.000000 0.762345
vn 0.647171 0.000000 0.762345
vn 0.946082 0.000000 0.323927
vn 0.946082 0.000000 0.323927
vn 0.946082 0.000000 0.323927
vn 0.946082 0.000000 0.323927
vn -0.000000 0.000000 1.000000
vn -0.000000 0.000000 1.000000
vn -0.000000 0.000000 1.000000
vn 0.517943 0.562242 0.644685
vn 0.517943 0.562242 0.644685
vn 0.517943 0.562242 0.644685
vn 0.618320 0.735018 0.278262
vn 0.618320 0.735017 0.278262
vn 0.618320 0.735017 0.278262
vn 0.618320 0.735018 0.278262
vn 0.000000 0.987848 0.155424
vn 0.000000 0.987848 0.155424
vn 0.000000 0.987848 0.155424
vn 0.000000 0.987848 0.155424
vn 0.000000 0.760481 0.649360
vn 0.000000 0.760481 0.649360
vn 0.000000 0.760481 0.649360
vn 0.000000 0.760481 0.649360
vn -0.517943 -0.562242 0.644686
vn -0.517943 -0.562242 0.644686
vn -0.517943 -0.562242 0.644686
vn -0.618320 -0.735017 0.278262
vn -0.618320 -0.735017 0.278262
vn -0.618320 -0.735017 0.278262
vn -0.618320 -0.735017 0.278262
vn 0.618320 -0.735017 0.278262
vn 0.618320 -0.735017 0.278262
vn 0.618320 -0.735017 0.278262
vn 0.618320 -0.735017 0.278262
vn 0.517943 -0.562241 0.644686
vn 0.517943 -0.562241 0.644686
vn 0.517943 -0.562241 0.644686
vn -0.000000 0.000000 1.000000
vn -0.000000 0.000000 1.000000
vn -0.000000 0.000000 1.000000
vn 0.000000 0.000000 1.000000
vn 0.000000 0.000000 1.000000
vn 0.000000 0.000000 1.000000
vn 0.000000 0.000000 1.000000
vn 0.000000 0.000000 1.000000
vn 0.000000 0.000000 1.000000
vn 0.000000 0.000000 1.000000
vn 0.000000 0.000000 1.000000
vn -0.000000 0.000000 1.000000
vn -0.000000 0.000000 1.000000
s off
f 1/1/1 2/2/2 4/4/3 3/3/4
f 4/4/5 6/6/6 5/5/7 3/3/8
f 8/8/9 2/10/10 1/9/11 7/7/12
f 2/2/13 8/11/14 9/16/15 10/15/16
f 6/12/17 4/4/18 12/18/19 11/17/20
f 4/4/21 2/2/22 10/15/23 12/18/24
f 7/13/25 1/1/26 14/20/27 13/19/28
f 1/1/29 3/3/30 15/21/31 14/20/32
f 3/3/33 5/14/34 16/22/35 15/21/36
f 10/15/37 9/16/38 17/24/39 18/23/40
f 11/17/41 12/18/42 20/26/43 19/25/44
f 12/18/45 10/15/46 18/23/47 20/26/48
f 13/19/49 14/20/50 22/28/51 21/27/52
f 14/20/53 15/21/54 23/29/55 22/28/56
f 15/21/57 16/22/58 24/30/59 23/29/60
f 25/31/61 26/32/62 28/33/63 27/34/64
f 28/33/65 30/35/66 29/36/67 27/34/68
f 32/37/69 26/38/70 25/39/71 31/40/72
f 26/32/73 32/41/74 33/42/75 34/43/76
f 30/44/77 28/33/78 36/45/79 35/46/80
f 28/33/81 26/32/82 34/43/83 36/45/84
f 31/47/85 25/31/86 38/48/87 37/49/88
f 25/31/89 27/34/90 39/50/91 38/48/92
f 27/34/93 29/51/94 40/52/95 39/50/96
f 34/43/97 33/42/98 41/53/99 42/54/100
f 35/46/101 36/45/102 44/55/103 43/56/104
f 36/45/105 34/43/106 42/54/107 44/55/108
f 37/49/109 38/48/110 46/57/111 45/58/112
f 38/48/113 39/50/114 47/59/115 46/57/116
f 39/50/117 40/52/118 48/60/119 47/59/120
f 49/61/121 50/62/122 52/63/123 51/64/124
f 52/63/125 54/65/126 53/66/127 51/64/128
f 56/67/129 50/68/130 49/69/131 55/70/132
f 50/62/133 56/71/134 57/72/135 58/73/136
f 54/74/137 52/63/138 60/75/139 59/76/140
f 52/63/141 50/62/142 58/73/143 60/75/144
f 55/77/145 49/61/146 62/78/147 61/79/148
f 49/61/149 51/64/150 63/80/151 62/78/152
f 51/64/153 53/81/154 64/82/155 63/80/156
f 58/73/157 57/72/158 65/83/159 66/84/160
f 59/76/161 60/75/162 68/85/163 67/86/164
f 60/75/165 58/73/166 66/84/167 68/85/168
f 61/79/169 62/78/170 70/87/171 69/88/172
f 62/78/173 63/80/174 71/89/175 70/87/176
f 63/80/177 64/82/178 72/90/179 71/89/180
f 75/91/181 76/92/182 78/93/183 77/94/184
f 77/94/185 78/93/186 80/95/187 79/96/188
f 79/96/189 80/95/190 74/97/191 73/98/192
f 74/97/193 80/95/194 78/93/195 76/92/196
f 79/96/197 73/98/198 75/91/199 77/94/200
f 74/97/201 76/92/202 83/99/203 82/100/204
f 96/101/205 76/92/206 75/91/207 95/102/208
f 75/91/209 73/98/210 81/103/211 84/104/212
f 98/111/213 100/112/214 99/113/215 97/114/216
f 93/115/217 95/116/218 84/117/219 88/118/220
f 89/119/221 98/111/222 97/114/223 90/120/224
f 92/121/225 93/115/226 88/118/227
f 84/117/228 81/122/229 85/123/230 88/118/231
f 85/123/232 89/119/233 92/121/234 88/118/235
f 91/124/236 92/121/237 89/119/238 90/120/239
f 90/120/240 86/125/241 87/126/242 91/124/243
f 86/125/244 82/110/245 83/109/246 87/126/247
f 73/98/248 100/105/249 81/103/250
f 91/124/251 87/126/252 94/108/253
f 87/126/254 83/109/255 96/107/256 94/108/257
f 94/108/258 96/107/259 95/116/260 93/115/261
f 91/124/262 94/108/263 93/115/264 92/121/265
f 89/119/266 85/123/267 98/111/268
f 85/123/269 81/122/270 100/112/271 98/111/272
f 97/114/273 99/113/274 82/110/275 86/125/276
f 90/120/277 97/114/278 86/125/279
f 95/102/280 75/91/281 84/104/282
f 83/99/283 76/92/284 96/101/285
f 82/100/286 99/106/287 74/97/288
f 74/97/289 99/106/290 100/105/291 73/98/292
