# This file uses centimeters as units for non-parametric coordinates.

v -27.452858 4.648804 -24.476402
v -66.469841 4.648804 -24.476402
v -60.719189 4.648804 -18.503258
v -32.995548 4.648804 -18.503258
v -27.452858 -7.776733 -24.476402
v -66.469841 -7.776733 -24.476402
v -60.719189 -7.776733 -18.503258
v -32.995548 -7.776733 -18.503258
v -17.740969 5.810425 -15.461874
v -69.697456 8.191498 -12.853436
v -64.535385 5.930054 -4.433197
v -21.921577 5.810425 -5.594839
v -64.535385 10.318878 0.000001
v -28.067074 10.457306 0.000031
v -28.067076 5.810425 -5.810036
v -67.177246 4.648804 -477.501251
v -28.160263 4.648804 -477.501251
v -33.910912 4.648804 -483.474396
v -61.634552 4.648804 -483.474396
v -67.177246 -7.776733 -477.501251
v -28.160263 -7.776733 -477.501251
v -33.910912 -7.776733 -483.474396
v -61.634552 -7.776733 -483.474396
v -76.889130 5.810425 -495.566528
v -17.603790 5.898987 -486.449738
v -28.067074 5.890442 -494.201538
v -28.067070 8.944336 -499.999756
v -67.084053 8.944336 -499.999725
v -67.084053 5.810425 -495.566528
v -21.203987 6.214508 -492.449860
v -28.067074 273.608002 -4.433197
v -67.084053 273.608002 -4.433197
v -61.333405 279.581146 -4.433197
v -33.609764 279.581146 -4.433197
v -28.067074 273.608002 0.000000
v -67.084053 273.608002 0.000000
v -61.333405 279.581146 0.000000
v -33.609764 279.581146 0.000000
v -21.921577 282.622528 -5.594838
v -74.763870 284.425995 -8.085000
v -66.220413 290.469208 -8.085000
v -25.668249 289.060516 -5.594839
v -21.203991 279.959320 -494.404877
v -29.114532 291.002167 -495.566528
v -68.681793 291.002167 -495.566528
v -76.889130 279.959320 -495.566528
v -17.740971 283.784821 -13.658821
v -17.928619 285.786224 -487.876251
v -28.067074 273.608002 -495.566528
v -67.084053 273.608002 -495.566528
v -61.333405 279.581146 -495.566528
v -33.609764 279.581146 -495.566528
v -28.067076 273.608002 -499.999725
v -67.084053 273.608002 -499.999725
v -61.333405 279.581146 -499.999725
v -33.609764 279.581146 -499.999725
v -25.765701 292.073883 -12.918299
v -68.354332 292.073883 -18.226246
v -76.889130 285.850067 -19.245760
v -71.944664 8.554688 -26.808218
v -76.889130 5.847229 -101.538925
v -76.889130 18.105255 -23.002140
v -76.817184 15.241364 -8.181669
v -76.889130 8.876617 -314.998413
v -16.537224 11.079224 -482.085907
vt 0.102846 0.327481
vt 0.102846 0.327481
vt 0.102846 0.327481
vt 0.102846 0.327481
vt 0.102846 0.327481
vt 0.102846 0.327481
vt 0.102846 0.327481
vt 0.102846 0.327481
vt 0.102846 0.327481
vt 0.102846 0.327481
vt 0.102846 0.327481
vt 0.102846 0.327481
vt 0.102846 0.327481
vt 0.102846 0.327481
vt 0.102846 0.327481
vt 0.102846 0.327481
vt 0.102846 0.327481
vt 0.102846 0.327481
vt 0.102846 0.327481
vt 0.102846 0.327481
vt 0.102846 0.327481
vt 0.102846 0.327481
vt 0.102846 0.327481
vt 0.102846 0.327481
vt 0.102846 0.327481
vt 0.102846 0.327481
vt 0.102846 0.327481
vt 0.102846 0.327481
vt 0.102846 0.327481
vt 0.102846 0.327481
vt 0.102846 0.327481
vt 0.102846 0.327481
vt 0.102846 0.327481
vt 0.102846 0.327481
vt 0.102846 0.327481
vt 0.102846 0.327481
vt 0.102846 0.327481
vt 0.102846 0.327481
vt 0.102846 0.327481
vt 0.102846 0.327481
vt 0.102846 0.327481
vt 0.102846 0.327481
vt 0.102846 0.327481
vt 0.102846 0.327481
vt 0.102846 0.327481
vt 0.102846 0.327481
vt 0.102846 0.327481
vt 0.102846 0.327481
vt 0.102846 0.327481
vt 0.102846 0.327481
vt 0.102846 0.327481
vt 0.102846 0.327481
vt 0.102846 0.327481
vt 0.102846 0.327481
vt 0.102846 0.327481
vt 0.102846 0.327481
vt 0.102846 0.327481
vt 0.102846 0.327481
vt 0.102846 0.327481
vt 0.102846 0.327481
vt 0.102846 0.327481
vt 0.102846 0.327481
vt 0.102846 0.327481
vt 0.102846 0.327481
vt 0.102846 0.327481
vt 0.102846 0.327482
vt 0.102846 0.327481
vt 0.102846 0.327481
vt 0.102846 0.327481
vt 0.102846 0.327481
vt 0.102846 0.327481
vt 0.102846 0.327481
vt 0.102846 0.327481
vt 0.102846 0.327481
vt 0.102846 0.327481
vt 0.102846 0.327481
vt 0.102846 0.327481
vt 0.102846 0.327481
vt 0.102846 0.327481
vt 0.102846 0.327481
vt 0.102846 0.327481
vt 0.102846 0.327481
vt 0.102846 0.327481
vt 0.102846 0.327481
vt 0.102846 0.327481
vt 0.102846 0.327481
vt 0.102846 0.327481
vt 0.102846 0.327481
vt 0.102846 0.327481
vt 0.102846 0.327481
vt 0.102846 0.327481
vt 0.102846 0.327481
vt 0.102846 0.327481
vt 0.102846 0.327481
vt 0.102846 0.327481
vt 0.102846 0.327481
vt 0.102846 0.327481
vt 0.102846 0.327481
vt 0.102846 0.327481
vt 0.102846 0.327481
vn 0.000000 -1.000000 0.000000
vn 0.000000 -1.000000 0.000000
vn 0.000000 -1.000000 0.000000
vn 0.000000 -1.000000 0.000000
vn 0.000000 -1.000000 -0.000000
vn 0.000000 -1.000000 -0.000000
vn 0.000000 -1.000000 -0.000000
vn 0.000000 -1.000000 -0.000000
vn -0.720396 0.000000 0.693563
vn -0.720396 0.000000 0.693563
vn -0.720396 0.000000 0.693563
vn -0.720396 0.000000 0.693563
vn 0.000000 0.000000 1.000000
vn 0.000000 0.000000 1.000000
vn 0.000000 0.000000 1.000000
vn 0.000000 0.000000 1.000000
vn 0.733026 0.000000 0.680200
vn 0.733026 0.000000 0.680200
vn 0.733026 0.000000 0.680200
vn 0.733026 0.000000 0.680200
vn -0.999999 0.000000 0.001562
vn -0.999999 0.000000 0.001562
vn -0.999999 0.000000 0.001562
vn -0.999999 0.000000 0.001562
vn 0.012680 -0.749861 0.661474
vn 0.012680 -0.749861 0.661474
vn 0.012680 -0.749861 0.661474
vn 0.012680 -0.749861 0.661474
vn 0.067632 -0.996846 0.041515
vn 0.067632 -0.996846 0.041515
vn 0.067632 -0.996846 0.041515
vn 0.067632 -0.996846 0.041515
vn -0.232563 -0.946458 0.223903
vn -0.232563 -0.946458 0.223903
vn -0.232563 -0.946458 0.223903
vn -0.376672 -0.926175 -0.017828
vn -0.376672 -0.926175 -0.017828
vn -0.376672 -0.926175 -0.017828
vn 0.000094 -0.995861 0.090891
vn 0.000094 -0.995861 0.090890
vn 0.000094 -0.995861 0.090891
vn 0.000094 -0.995861 0.090891
vn -0.003235 -0.995719 0.092372
vn -0.003235 -0.995719 0.092372
vn -0.003235 -0.995719 0.092372
vn 0.000000 -1.000000 0.000000
vn 0.000000 -1.000000 0.000000
vn 0.000000 -1.000000 0.000000
vn 0.000000 -1.000000 0.000000
vn 0.720398 0.000000 -0.693561
vn 0.720398 0.000000 -0.693561
vn 0.720398 0.000000 -0.693561
vn 0.720398 0.000000 -0.693561
vn 0.000000 0.000000 -1.000000
vn 0.000000 0.000000 -1.000000
vn 0.000000 0.000000 -1.000000
vn 0.000000 0.000000 -1.000000
vn -0.733026 0.000000 -0.680201
vn -0.733026 0.000000 -0.680201
vn -0.733026 0.000000 -0.680201
vn -0.733026 0.000000 -0.680201
vn 0.999999 0.000000 -0.001562
vn 0.999999 0.000000 -0.001562
vn 0.999999 0.000000 -0.001562
vn 0.999999 0.000000 -0.001562
vn 0.009930 -0.855639 -0.517478
vn 0.009930 -0.855639 -0.517478
vn 0.009930 -0.855639 -0.517478
vn 0.009930 -0.855639 -0.517478
vn 0.338918 -0.940816 -0.000092
vn 0.338918 -0.940816 -0.000092
vn 0.338918 -0.940816 -0.000092
vn 0.338918 -0.940816 -0.000092
vn 0.338918 -0.940816 -0.000092
vn -0.298975 -0.954261 0.000744
vn -0.298975 -0.954261 0.000744
vn -0.298975 -0.954261 0.000744
vn -0.298975 -0.954261 0.000744
vn -0.298975 -0.954261 0.000744
vn -0.043797 -0.998214 -0.040635
vn -0.043797 -0.998214 -0.040635
vn -0.043797 -0.998214 -0.040635
vn 0.064945 -0.995928 -0.062526
vn 0.064945 -0.995928 -0.062526
vn 0.064945 -0.995928 -0.062526
vn 0.067030 -0.994650 -0.078603
vn 0.067030 -0.994650 -0.078603
vn 0.067030 -0.994650 -0.078603
vn 0.003333 -0.994501 -0.104678
vn 0.003333 -0.994501 -0.104678
vn 0.003333 -0.994501 -0.104678
vn 0.003333 -0.994501 -0.104678
vn 0.000000 -0.995417 -0.095631
vn 0.000000 -0.995417 -0.095631
vn 0.000000 -0.995417 -0.095631
vn 0.060105 -0.994274 -0.088357
vn 0.060105 -0.994274 -0.088357
vn 0.060105 -0.994274 -0.088357
vn 0.000000 -0.000000 1.000000
vn 0.000000 -0.000000 1.000000
vn 0.000000 -0.000000 1.000000
vn 0.000000 -0.000000 1.000000
vn -0.000000 0.000000 1.000000
vn -0.000000 0.000000 1.000000
vn -0.000000 0.000000 1.000000
vn -0.000000 0.000000 1.000000
vn -0.720397 0.693562 0.000000
vn -0.720397 0.693562 0.000000
vn -0.720397 0.693562 0.000000
vn -0.720397 0.693562 0.000000
vn 0.000000 1.000000 0.000000
vn 0.000000 1.000000 0.000000
vn 0.000000 1.000000 0.000000
vn 0.000000 1.000000 0.000000
vn 0.733026 0.680201 0.000000
vn 0.733026 0.680200 0.000000
vn 0.733026 0.680201 0.000000
vn 0.733026 0.680201 0.000000
vn -0.999943 -0.009600 0.004752
vn -0.999943 -0.009600 0.004752
vn -0.999943 -0.009600 0.004752
vn -0.999943 -0.009600 0.004752
vn 1.000000 0.000000 -0.000000
vn 1.000000 0.000000 -0.000000
vn 1.000000 0.000000 -0.000000
vn 1.000000 0.000000 -0.000000
vn -0.052114 0.235878 0.970384
vn -0.052114 0.235878 0.970384
vn -0.052114 0.235878 0.970384
vn -0.052114 0.235878 0.970384
vn -0.052114 0.235878 0.970384
vn 0.766638 0.446155 0.461748
vn 0.766638 0.446155 0.461748
vn 0.766638 0.446155 0.461748
vn -0.577066 0.784537 0.226929
vn -0.577066 0.784537 0.226929
vn -0.577066 0.784537 0.226929
vn -0.577066 0.784537 0.226929
vn -0.007687 0.966501 0.256548
vn -0.007687 0.966501 0.256548
vn -0.007687 0.966501 0.256548
vn -0.007687 0.966501 0.256548
vn 0.000000 0.000000 -1.000000
vn 0.000000 0.000000 -1.000000
vn 0.000000 0.000000 -1.000000
vn 0.000000 0.000000 -1.000000
vn -0.996394 0.003202 0.084792
vn -0.996394 0.003202 0.084792
vn -0.996394 0.003202 0.084792
vn -0.996394 0.003202 0.084792
vn 0.000000 0.000000 -1.000000
vn 0.000000 0.000000 -1.000000
vn 0.000000 0.000000 -1.000000
vn 0.000000 0.000000 -1.000000
vn 0.906344 -0.001373 0.422538
vn 0.906344 -0.001373 0.422538
vn 0.906344 -0.001373 0.422538
vn 0.906344 -0.001373 0.422538
vn 0.971428 -0.000082 -0.237334
vn 0.971428 -0.000082 -0.237334
vn 0.971428 -0.000082 -0.237334
vn 0.704990 0.659118 0.261825
vn 0.704990 0.659118 0.261825
vn 0.704990 0.659118 0.261825
vn 0.999996 0.002525 0.001099
vn 0.999996 0.002525 0.001099
vn 0.999996 0.002525 0.001099
vn 0.999996 0.002525 0.001099
vn 0.638090 0.387074 -0.665594
vn 0.638090 0.387074 -0.665594
vn 0.638090 0.387074 -0.665594
vn 0.575428 0.817851 -0.001332
vn 0.575428 0.817851 -0.001332
vn 0.575428 0.817851 -0.001332
vn 0.575428 0.817851 -0.001332
vn 0.000000 0.000000 -1.000000
vn 0.000000 0.000000 -1.000000
vn 0.000000 0.000000 -1.000000
vn 0.000000 0.000000 -1.000000
vn 0.000000 0.000000 -1.000000
vn 0.000000 0.000000 -1.000000
vn 0.000000 0.000000 -1.000000
vn 0.000000 0.000000 -1.000000
vn 0.093060 0.005604 -0.995645
vn 0.093060 0.005604 -0.995645
vn 0.093060 0.005604 -0.995645
vn 0.093060 0.005604 -0.995645
vn 0.000000 0.000000 -1.000000
vn 0.000000 0.000000 -1.000000
vn 0.000000 0.000000 -1.000000
vn 0.000000 0.000000 -1.000000
vn 0.210399 -0.005994 -0.977597
vn 0.210399 -0.005994 -0.977597
vn 0.210399 -0.005994 -0.977597
vn 0.210399 -0.005994 -0.977597
vn -0.720395 0.693564 0.000000
vn -0.720395 0.693564 0.000000
vn -0.720395 0.693564 0.000000
vn -0.720395 0.693564 0.000000
vn 0.000000 1.000000 0.000000
vn 0.000000 1.000000 0.000000
vn 0.000000 1.000000 0.000000
vn 0.000000 1.000000 0.000000
vn 0.733024 0.680203 0.000000
vn 0.733024 0.680203 0.000000
vn 0.733024 0.680203 0.000000
vn 0.733024 0.680203 0.000000
vn -1.000000 0.000000 0.000000
vn -1.000000 0.000000 0.000000
vn -1.000000 0.000000 0.000000
vn -1.000000 0.000000 0.000000
vn 1.000000 0.000000 0.000000
vn 1.000000 0.000000 0.000000
vn 1.000000 0.000000 0.000000
vn 1.000000 0.000000 0.000000
vn -0.348041 -0.000490 0.937479
vn -0.348041 -0.000490 0.937479
vn -0.348041 -0.000490 0.937479
vn -0.348041 -0.000490 0.937479
vn 0.078613 -0.002520 0.996902
vn 0.078613 -0.002520 0.996902
vn 0.078613 -0.002520 0.996902
vn 0.078613 -0.002520 0.996902
vn 0.082740 0.061928 0.994645
vn 0.082740 0.061928 0.994645
vn 0.082740 0.061928 0.994645
vn 0.082740 0.061928 0.994645
vn -0.194331 0.187093 0.962929
vn -0.194331 0.187093 0.962929
vn -0.194331 0.187093 0.962929
vn 0.000144 0.999998 -0.002233
vn 0.000144 0.999997 -0.002233
vn 0.000144 0.999997 -0.002233
vn 0.000144 0.999997 -0.002233
vn -0.717776 0.696257 -0.004837
vn -0.717776 0.696257 -0.004837
vn -0.717776 0.696257 -0.004837
vn -0.717776 0.696257 -0.004837
vn -1.000000 0.000000 0.000000
vn -1.000000 0.000000 0.000000
vn -1.000000 0.000000 0.000000
vn -1.000000 0.000000 0.000000
vn -1.000000 0.000000 0.000000
vn -1.000000 0.000000 0.000000
vn -0.600334 -0.796135 0.075950
vn -0.600334 -0.796135 0.075950
vn -0.600334 -0.796135 0.075950
vn -0.872976 -0.481929 0.075219
vn -0.872976 -0.481929 0.075219
vn -0.872976 -0.481929 0.075219
vn -0.809109 -0.587658 -0.000695
vn -0.809109 -0.587658 -0.000695
vn -0.809109 -0.587658 -0.000695
vn -0.809109 -0.587658 -0.000695
vn -0.628757 -0.755893 0.182459
vn -0.628757 -0.755893 0.182459
vn -0.628757 -0.755893 0.182459
vn -0.149474 -0.988623 0.016788
vn -0.149474 -0.988623 0.016788
vn -0.149474 -0.988623 0.016788
vn 0.877113 -0.002419 -0.480278
vn 0.877113 -0.002419 -0.480278
vn 0.877113 -0.002419 -0.480278
vn 0.877113 -0.002419 -0.480278
s off
f 5/8/1 8/7/2 7/6/3 6/5/4
f 5/8/5 6/5/6 20/20/7 21/23/8
f 2/1/9 6/5/10 7/6/11 3/2/12
f 3/2/13 7/6/14 8/7/15 4/3/16
f 4/3/17 8/7/18 5/8/19 1/4/20
f 6/5/21 2/1/22 16/27/23 20/20/24
f 11/13/25 15/19/26 14/18/27 13/17/28
f 12/12/29 4/11/30 1/16/31 9/14/32
f 10/9/33 2/15/34 3/10/35
f 10/9/36 3/10/37 11/13/38
f 11/13/39 3/10/40 4/11/41 15/19/42
f 15/19/43 4/11/44 12/12/45
f 20/20/46 23/21/47 22/22/48 21/23/49
f 17/24/50 21/23/51 22/22/52 18/25/53
f 18/25/54 22/22/55 23/21/56 19/26/57
f 19/26/58 23/21/59 20/20/60 16/27/61
f 5/8/62 21/23/63 17/24/64 1/4/65
f 26/28/66 29/29/67 28/30/68 27/31/69
f 9/14/70 1/16/71 17/32/72 25/72/73 65/100/74
f 2/15/75 60/93/76 61/94/77 64/98/78 16/34/79
f 24/35/80 19/36/81 16/34/82
f 25/33/83 17/32/84 18/37/85
f 30/38/86 18/37/87 26/28/88
f 26/28/89 18/37/90 19/36/91 29/29/92
f 29/29/93 19/36/94 24/35/95
f 25/33/96 18/37/97 30/38/98
f 35/39/99 38/40/100 37/41/101 36/42/102
f 14/43/103 35/39/104 36/42/105 13/44/106
f 32/45/107 36/42/108 37/41/109 33/46/110
f 33/46/111 37/41/112 38/40/113 34/47/114
f 34/47/115 38/40/116 35/39/117 31/48/118
f 11/49/119 13/44/120 36/42/121 32/45/122
f 31/48/123 35/39/124 14/43/125 15/50/126
f 40/51/127 33/52/128 34/53/129 42/54/130 41/55/131
f 39/56/132 47/57/133 42/54/134
f 58/58/135 59/59/136 40/51/137 41/55/138
f 57/60/139 58/58/140 41/55/141 42/54/142
f 53/61/143 54/62/144 55/63/145 56/64/146
f 59/59/147 62/96/148 63/97/149 40/51/150
f 27/67/151 28/68/152 54/62/153 53/61/154
f 39/56/155 12/69/156 9/70/157 47/57/158
f 48/71/159 65/100/160 25/72/161
f 42/54/162 47/57/163 57/60/164
f 65/100/165 48/71/166 47/57/167 9/70/168
f 44/75/169 48/71/170 43/74/171
f 57/60/172 47/57/173 48/71/174 44/75/175
f 46/77/176 45/79/177 51/80/178 50/81/179
f 45/79/180 44/82/181 52/83/182 51/80/183
f 44/82/184 43/84/185 49/85/186 52/83/187
f 24/78/188 46/77/189 50/81/190 29/86/191
f 43/84/192 30/87/193 26/88/194 49/85/195
f 50/81/196 51/80/197 55/63/198 54/62/199
f 51/80/200 52/83/201 56/64/202 55/63/203
f 52/83/204 49/85/205 53/61/206 56/64/207
f 29/86/208 50/81/209 54/62/210 28/68/211
f 49/85/212 26/88/213 27/67/214 53/61/215
f 63/97/216 11/89/217 32/90/218 40/51/219
f 31/91/220 15/92/221 12/69/222 39/56/223
f 42/54/224 34/53/225 31/91/226 39/56/227
f 40/51/228 32/90/229 33/52/230
f 45/76/231 58/58/232 57/60/233 44/75/234
f 59/59/235 58/58/236 45/76/237 46/77/238
f 59/59/239 46/77/240 24/78/241 64/99/242 61/95/243 62/96/244
f 10/9/245 60/93/246 2/15/247
f 62/96/248 61/95/249 60/65/250
f 63/97/251 62/96/252 60/65/253 10/66/254
f 10/66/255 11/89/256 63/97/257
f 16/34/258 64/98/259 24/35/260
f 48/71/261 25/72/262 30/73/263 43/74/264
