# This file uses centimeters as units for non-parametric coordinates.

v -117.697281 -3.298747 172.628860
v -117.697281 -3.298747 -172.628860
v -61.114532 -3.298747 172.628860
v 90.988235 -3.298747 -172.628860
v -85.151581 -3.298747 124.831039
v -54.622837 -3.298747 108.214493
v -19.652359 -3.298747 42.806503
v -74.769669 -3.298747 -50.411079
v -56.902878 -3.298747 -103.233963
v -31.319025 -3.298747 -70.577492
v 26.583414 -3.298747 -54.156071
v 47.423672 -3.298747 -114.758583
v 117.697281 -3.298747 -129.371185
v -61.114532 3.298747 172.628860
v -85.151581 3.298747 124.831039
v -117.697281 3.298747 172.628860
v -117.697281 3.298747 -172.628860
v -54.622837 3.298747 108.214493
v 117.697281 3.298747 -129.371185
v 90.988235 3.298747 -172.628860
v 47.423672 3.298747 -114.758583
v 26.583414 3.298747 -54.156071
v -19.652359 3.298747 42.806503
v -74.769669 3.298747 -50.411079
v -56.902878 3.298747 -103.233963
v -31.319025 3.298747 -70.577492
vt 0.194492 0.136593
vt 0.190909 0.143073
vt 0.186059 0.136593
vt 0.186059 0.183402
vt 0.195459 0.145326
vt 0.221141 0.177537
vt 0.217161 0.183402
vt 0.210668 0.175556
vt 0.207562 0.167340
vt 0.200671 0.154194
vt 0.192456 0.166832
vt 0.195119 0.173994
vt 0.198932 0.169566
vt 0.194492 0.136593
vt 0.190909 0.143073
vt 0.186059 0.136593
vt 0.186059 0.183402
vt 0.195459 0.145326
vt 0.221141 0.177537
vt 0.217161 0.183402
vt 0.210668 0.175556
vt 0.207562 0.167340
vt 0.200671 0.154194
vt 0.192456 0.166832
vt 0.195119 0.173994
vt 0.198932 0.169566
vt 0.194492 0.136593
vt 0.190909 0.143073
vt 0.186059 0.136593
vt 0.186059 0.183402
vt 0.195459 0.145326
vt 0.221141 0.177537
vt 0.217161 0.183402
vt 0.210668 0.175556
vt 0.207562 0.167340
vt 0.200671 0.154194
vt 0.192456 0.166832
vt 0.195119 0.173994
vt 0.198932 0.169566
vn 0.000000 1.000000 0.000000
vn 0.000000 1.000000 0.000000
vn 0.000000 1.000000 0.000000
vn 0.000000 1.000000 0.000000
vn 0.000000 1.000000 0.000000
vn 0.000000 1.000000 0.000000
vn 0.000000 1.000000 0.000000
vn 0.000000 1.000000 0.000000
vn 0.000000 1.000000 0.000000
vn 0.000000 1.000000 0.000000
vn 0.000000 1.000000 -0.000000
vn 0.000000 1.000000 -0.000000
vn 0.000000 1.000000 -0.000000
vn 0.000000 1.000000 0.000000
vn 0.000000 1.000000 -0.000000
vn 0.000000 1.000000 -0.000000
vn 0.000000 1.000000 0.000000
vn 0.000000 1.000000 0.000000
vn 0.000000 1.000000 0.000000
vn 0.000000 1.000000 0.000000
vn 0.000000 1.000000 0.000000
vn 0.000000 1.000000 0.000000
vn 0.000000 1.000000 0.000000
vn 0.000000 1.000000 0.000000
vn 0.000000 1.000000 0.000000
vn 0.000000 1.000000 0.000000
vn 0.000000 1.000000 0.000000
vn 0.000000 1.000000 0.000000
vn 0.000000 1.000000 0.000000
vn 0.000000 1.000000 0.000000
vn 0.000000 1.000000 0.000000
vn 0.000000 1.000000 0.000000
vn 0.000000 1.000000 0.000000
vn 0.000000 -1.000000 0.000000
vn 0.000000 -1.000000 0.000000
vn 0.000000 -1.000000 0.000000
vn 0.000000 -1.000000 0.000000
vn 0.000000 -1.000000 0.000000
vn 0.000000 -1.000000 0.000000
vn 0.000000 -1.000000 0.000000
vn 0.000000 -1.000000 0.000000
vn 0.000000 -1.000000 0.000000
vn 0.000000 -1.000000 0.000000
vn 0.000000 -1.000000 0.000000
vn 0.000000 -1.000000 0.000000
vn 0.000000 -1.000000 0.000000
vn 0.000000 -1.000000 0.000000
vn 0.000000 -1.000000 0.000000
vn 0.000000 -1.000000 0.000000
vn 0.000000 -1.000000 0.000000
vn 0.000000 -1.000000 0.000000
vn 0.000000 -1.000000 0.000000
vn 0.000000 -1.000000 0.000000
vn 0.000000 -1.000000 0.000000
vn 0.000000 -1.000000 0.000000
vn 0.000000 -1.000000 0.000000
vn 0.000000 -1.000000 0.000000
vn 0.000000 -1.000000 0.000000
vn 0.000000 -1.000000 0.000000
vn 0.000000 -1.000000 0.000000
vn 0.000000 -1.000000 0.000000
vn 0.000000 -1.000000 0.000000
vn 0.000000 -1.000000 0.000000
vn 0.000000 -1.000000 0.000000
vn 0.000000 -1.000000 0.000000
vn 0.000000 -1.000000 -0.000000
vn 0.893392 0.000000 -0.449278
vn 0.893392 0.000000 -0.449278
vn 0.893392 0.000000 -0.449278
vn 0.893392 0.000000 -0.449278
vn 0.000000 0.000000 1.000000
vn 0.000000 0.000000 1.000000
vn 0.000000 0.000000 1.000000
vn 0.000000 0.000000 1.000000
vn -1.000000 0.000000 0.000000
vn -1.000000 0.000000 0.000000
vn -1.000000 0.000000 0.000000
vn -1.000000 0.000000 0.000000
vn 0.478065 0.000000 0.878325
vn 0.478065 0.000000 0.878325
vn 0.478065 0.000000 0.878325
vn 0.478065 0.000000 0.878325
vn 0.850877 0.000000 -0.525366
vn 0.850877 0.000000 -0.525366
vn 0.850877 0.000000 -0.525366
vn 0.850877 0.000000 -0.525366
vn 0.203584 0.000000 0.979057
vn 0.203584 0.000000 0.979057
vn 0.203584 0.000000 0.979057
vn 0.203584 0.000000 0.979057
vn 0.000000 0.000000 -1.000000
vn 0.000000 0.000000 -1.000000
vn 0.000000 0.000000 -1.000000
vn 0.000000 0.000000 -1.000000
vn 0.945648 0.000000 0.325193
vn 0.945648 0.000000 0.325193
vn 0.945648 0.000000 0.325193
vn 0.945648 0.000000 0.325193
vn 0.860788 0.000000 -0.508963
vn 0.860788 0.000000 -0.508963
vn 0.860788 0.000000 -0.508963
vn 0.860788 0.000000 -0.508963
vn 0.881870 0.000000 0.471493
vn 0.881870 0.000000 0.471493
vn 0.881870 0.000000 0.471493
vn 0.881870 0.000000 0.471493
vn 0.947280 0.000000 0.320407
vn 0.947280 0.000000 0.320407
vn 0.947280 0.000000 0.320407
vn 0.947280 0.000000 0.320407
vn -0.787194 0.000000 0.616706
vn -0.787194 0.000000 0.616706
vn -0.787194 0.000000 0.616706
vn -0.787194 0.000000 0.616706
vn -0.272844 0.000000 0.962058
vn -0.272844 0.000000 0.962058
vn -0.272844 0.000000 0.962058
vn -0.272844 0.000000 0.962058
s off
f 14/27/1 15/28/2 16/29/3
f 16/29/4 15/28/5 17/30/6
f 15/28/7 18/31/8 17/30/9
f 19/32/10 20/33/11 21/34/12
f 20/33/13 17/30/14 21/34/15
f 21/34/16 17/30/17 22/35/18
f 23/36/19 24/37/20 18/31/21
f 18/31/22 24/37/23 17/30/24
f 24/37/25 25/38/26 17/30/27
f 17/30/28 25/38/29 22/35/30
f 25/38/31 26/39/32 22/35/33
f 3/14/34 1/16/35 5/15/36
f 1/16/37 2/17/38 5/15/39
f 5/15/40 2/17/41 6/18/42
f 13/19/43 12/21/44 4/20/45
f 4/20/46 12/21/47 2/17/48
f 12/21/49 11/22/50 2/17/51
f 7/23/52 6/18/53 8/24/54
f 6/18/55 2/17/56 8/24/57
f 8/24/58 2/17/59 9/25/60
f 2/17/61 11/22/62 9/25/63
f 9/25/64 11/22/65 10/26/66
f 3/1/67 5/2/68 15/28/69 14/27/70
f 1/3/71 3/1/72 14/27/73 16/29/74
f 2/4/75 1/3/76 16/29/77 17/30/78
f 5/2/79 6/5/80 18/31/81 15/28/82
f 13/6/83 4/7/84 20/33/85 19/32/86
f 12/8/87 13/6/88 19/32/89 21/34/90
f 4/7/91 2/4/92 17/30/93 20/33/94
f 11/9/95 12/8/96 21/34/97 22/35/98
f 7/10/99 8/11/100 24/37/101 23/36/102
f 6/5/103 7/10/104 23/36/105 18/31/106
f 8/11/107 9/12/108 25/38/109 24/37/110
f 9/12/111 10/13/112 26/39/113 25/38/114
f 10/13/115 11/9/116 22/35/117 26/39/118
