# This file uses centimeters as units for non-parametric coordinates.

v -27.452858 4.648804 -24.476379
v -66.469841 4.648804 -24.476379
v -60.719189 4.648804 -18.503235
v -32.995548 4.648804 -18.503235
v -27.452858 -7.776733 -24.476379
v -66.469841 -7.776733 -24.476379
v -60.719189 -7.776733 -18.503235
v -32.995548 -7.776733 -18.503235
v -17.740969 5.810425 -15.461853
v -69.697456 8.191498 -12.853455
v -64.535385 5.930054 -4.433228
v -21.921577 5.810425 -5.594849
v -64.535385 10.318878 0.000000
v -28.067074 10.457306 0.000061
v -28.067076 5.810425 -5.810059
v -28.067074 273.608002 -4.433167
v -67.084053 273.608002 -4.433167
v -61.333405 279.581146 -4.433167
v -33.609764 279.581146 -4.433167
v -28.067074 273.608002 0.000000
v -67.084053 273.608002 0.000000
v -61.333405 279.581146 0.000000
v -33.609764 279.581146 0.000000
v -21.921577 282.622528 -5.594849
v -74.763870 284.425995 -8.085022
v -66.220413 290.469208 -8.085022
v -25.668249 289.060516 -5.594849
v -17.740971 283.784821 -13.658813
v -25.765701 292.073883 -12.918274
v -68.354332 292.073883 -18.226257
v -76.889130 285.850067 -19.245789
v -71.944664 8.554688 -26.808167
v -76.889130 5.847229 -36.436119
v -76.889130 18.105255 -23.002136
v -76.817184 15.241364 -8.181641
v -76.889130 8.876617 -108.995850
v -27.942749 4.648773 -132.201416
v -66.965042 4.648804 -135.604492
v -27.948383 -7.776703 -123.507202
v -66.970680 -7.776764 -126.910645
v -76.889130 8.428741 -135.372192
v -75.316856 8.192169 -135.303711
v -16.914457 9.428070 -129.851196
v -17.785509 284.259857 -44.473930
v -76.889130 284.407562 -54.144463
v -68.427956 291.832977 -43.809135
v -26.498646 291.839325 -36.815117
v -17.357239 138.046783 -98.663239
v -76.889130 131.420990 -121.430534
v -17.020626 41.124420 -130.984573
v -76.889130 57.027374 -153.298813
v -17.219101 104.074677 -116.537277
v -76.889130 88.837769 -126.223320
v -76.889130 160.405273 -98.491142
v -17.668753 207.481659 -68.532349
v -76.889130 212.997040 -90.330460
v -17.170521 83.839264 -113.521133
v -17.593689 181.377045 -94.569794
v -40.711056 180.171661 -101.971542
v -17.737114 242.607758 -55.519638
v -36.653809 206.058563 -73.388550
v -42.679897 191.280060 -91.402359
v -57.535637 199.663422 -93.995941
v -60.377979 205.041107 -83.724548
v -62.994667 214.865265 -78.746674
v -59.482986 264.107391 -58.938736
v -56.472206 278.907135 -50.803841
v -76.889130 229.505829 -74.830170
vt 0.102846 0.327481
vt 0.102846 0.327481
vt 0.102846 0.327481
vt 0.102846 0.327481
vt 0.102846 0.327481
vt 0.102846 0.327481
vt 0.102846 0.327481
vt 0.102846 0.327481
vt 0.102846 0.327481
vt 0.102846 0.327481
vt 0.102846 0.327481
vt 0.102846 0.327481
vt 0.102846 0.327481
vt 0.102846 0.327481
vt 0.102846 0.327481
vt 0.102846 0.327481
vt 0.102846 0.327481
vt 0.102846 0.327481
vt 0.102846 0.327481
vt 0.102846 0.327481
vt 0.102846 0.327481
vt 0.102846 0.327481
vt 0.102846 0.327481
vt 0.102846 0.327481
vt 0.102846 0.327481
vt 0.102846 0.327481
vt 0.102846 0.327481
vt 0.102846 0.327481
vt 0.102846 0.327481
vt 0.102846 0.327481
vt 0.102846 0.327481
vt 0.102846 0.327481
vt 0.102846 0.327481
vt 0.102846 0.327481
vt 0.102846 0.327481
vt 0.102846 0.327481
vt 0.102846 0.327481
vt 0.102846 0.327481
vt 0.102846 0.327481
vt 0.102846 0.327481
vt 0.102846 0.327481
vt 0.102846 0.327481
vt 0.102846 0.327482
vt 0.102846 0.327481
vt 0.102846 0.327481
vt 0.102846 0.327481
vt 0.102846 0.327481
vt 0.102846 0.327481
vt 0.102846 0.327481
vt 0.102846 0.327481
vt 0.102846 0.327481
vt 0.102846 0.327481
vt 0.102846 0.327481
vt 0.102846 0.327481
vt 0.102846 0.327481
vt 0.102846 0.327481
vt 0.102846 0.327481
vt 0.102846 0.327481
vt 0.102846 0.327481
vt 0.102846 0.327481
vt 0.102846 0.327481
vt 0.102846 0.327481
vt 0.102846 0.327481
vt 0.102846 0.327481
vt 0.102846 0.327481
vt 0.102846 0.327481
vt 0.102846 0.327481
vt 0.102846 0.327481
vt 0.102846 0.327481
vt 0.102846 0.327481
vt 0.102846 0.327481
vt 0.102846 0.327481
vt 0.102846 0.327481
vt 0.102846 0.327481
vt 0.102846 0.327481
vt 0.102846 0.327481
vt 0.102846 0.327481
vt 0.102846 0.327481
vt 0.102846 0.327481
vt 0.102846 0.327481
vt 0.102846 0.327481
vt 0.102846 0.327481
vt 0.102846 0.327481
vt 0.102846 0.327481
vt 0.102846 0.327481
vt 0.102846 0.327481
vt 0.102846 0.327481
vt 0.102846 0.327481
vt 0.102846 0.327481
vt 0.102846 0.327481
vt 0.102846 0.327481
vt 0.102846 0.327481
vt 0.102846 0.327481
vt 0.102846 0.327481
vt 0.102846 0.327481
vn 0.000000 -1.000000 0.000000
vn 0.000000 -1.000000 0.000000
vn 0.000000 -1.000000 0.000000
vn 0.000000 -1.000000 0.000000
vn 0.000001 -1.000000 -0.000000
vn 0.000001 -1.000000 -0.000000
vn 0.000001 -1.000000 -0.000000
vn 0.000001 -1.000000 -0.000000
vn -0.720397 0.000000 0.693563
vn -0.720397 0.000000 0.693563
vn -0.720397 0.000000 0.693563
vn -0.720397 0.000000 0.693563
vn 0.000000 0.000000 1.000000
vn 0.000000 0.000000 1.000000
vn 0.000000 0.000000 1.000000
vn 0.000000 0.000000 1.000000
vn 0.733026 0.000000 0.680201
vn 0.733026 0.000000 0.680201
vn 0.733026 0.000000 0.680201
vn 0.733026 0.000000 0.680201
vn -0.999987 0.001859 0.004664
vn -0.999987 0.001859 0.004664
vn -0.999987 0.001859 0.004664
vn -0.999987 0.001859 0.004664
vn 0.012679 -0.749870 0.661464
vn 0.012679 -0.749870 0.661464
vn 0.012679 -0.749870 0.661464
vn 0.012679 -0.749870 0.661464
vn 0.067632 -0.996846 0.041515
vn 0.067632 -0.996846 0.041515
vn 0.067632 -0.996846 0.041515
vn 0.067632 -0.996846 0.041515
vn -0.232564 -0.946458 0.223901
vn -0.232564 -0.946458 0.223901
vn -0.232564 -0.946458 0.223901
vn -0.376672 -0.926175 -0.017825
vn -0.376672 -0.926175 -0.017825
vn -0.376672 -0.926175 -0.017825
vn 0.000094 -0.995860 0.090896
vn 0.000094 -0.995860 0.090896
vn 0.000094 -0.995860 0.090896
vn 0.000094 -0.995861 0.090896
vn -0.003235 -0.995719 0.092380
vn -0.003235 -0.995719 0.092380
vn -0.003235 -0.995719 0.092380
vn 0.999987 -0.001894 -0.004766
vn 0.999987 -0.001894 -0.004766
vn 0.999987 -0.001894 -0.004766
vn 0.999987 -0.001894 -0.004766
vn 0.283022 -0.958993 -0.015190
vn 0.283022 -0.958993 -0.015190
vn 0.283022 -0.958993 -0.015190
vn 0.283022 -0.958993 -0.015190
vn -0.294635 -0.955608 0.002156
vn -0.294635 -0.955608 0.002156
vn -0.294635 -0.955608 0.002156
vn -0.294635 -0.955608 0.002156
vn -0.294635 -0.955608 0.002156
vn -0.294635 -0.955608 0.002156
vn 0.000000 0.000000 1.000000
vn 0.000000 0.000000 1.000000
vn 0.000000 0.000000 1.000000
vn 0.000000 0.000000 1.000000
vn -0.000001 0.000000 1.000000
vn -0.000001 0.000000 1.000000
vn -0.000001 0.000000 1.000000
vn -0.000001 0.000000 1.000000
vn -0.720397 0.693562 0.000000
vn -0.720397 0.693562 0.000000
vn -0.720397 0.693562 0.000000
vn -0.720397 0.693562 0.000000
vn 0.000000 1.000000 0.000000
vn 0.000000 1.000000 0.000000
vn 0.000000 1.000000 0.000000
vn 0.000000 1.000000 0.000000
vn 0.733026 0.680201 0.000000
vn 0.733026 0.680201 0.000000
vn 0.733026 0.680201 0.000000
vn 0.733026 0.680201 0.000000
vn -0.999943 -0.009600 0.004752
vn -0.999943 -0.009600 0.004752
vn -0.999943 -0.009600 0.004752
vn -0.999943 -0.009600 0.004752
vn 1.000000 0.000000 -0.000000
vn 1.000000 0.000000 -0.000000
vn 1.000000 0.000000 -0.000000
vn 1.000000 0.000000 -0.000000
vn -0.052114 0.235880 0.970384
vn -0.052114 0.235880 0.970384
vn -0.052114 0.235880 0.970384
vn -0.052114 0.235880 0.970384
vn -0.052114 0.235880 0.970384
vn 0.766637 0.446154 0.461752
vn 0.766637 0.446154 0.461752
vn 0.766637 0.446154 0.461752
vn -0.577067 0.784537 0.226927
vn -0.577067 0.784537 0.226927
vn -0.577067 0.784537 0.226927
vn -0.577067 0.784537 0.226927
vn -0.007687 0.966501 0.256547
vn -0.007687 0.966501 0.256547
vn -0.007687 0.966501 0.256547
vn -0.007687 0.966501 0.256547
vn -0.996394 0.003202 0.084792
vn -0.996394 0.003202 0.084792
vn -0.996394 0.003202 0.084792
vn -0.996394 0.003202 0.084792
vn 0.906344 -0.001373 0.422539
vn 0.906344 -0.001373 0.422539
vn 0.906344 -0.001373 0.422539
vn 0.906344 -0.001373 0.422539
vn 0.704991 0.659118 0.261824
vn 0.704991 0.659118 0.261824
vn 0.704991 0.659118 0.261824
vn 0.686261 0.727326 -0.006555
vn 0.686261 0.727326 -0.006555
vn 0.686261 0.727326 -0.006555
vn 0.686261 0.727326 -0.006555
vn -0.348041 -0.000490 0.937479
vn -0.348041 -0.000490 0.937479
vn -0.348041 -0.000490 0.937479
vn -0.348041 -0.000490 0.937479
vn 0.078615 -0.002520 0.996902
vn 0.078615 -0.002520 0.996902
vn 0.078615 -0.002520 0.996902
vn 0.078615 -0.002520 0.996902
vn 0.082742 0.061930 0.994645
vn 0.082742 0.061930 0.994645
vn 0.082742 0.061930 0.994645
vn 0.082742 0.061930 0.994645
vn -0.194336 0.187097 0.962927
vn -0.194336 0.187097 0.962927
vn -0.194336 0.187097 0.962927
vn -0.617399 0.786366 -0.021136
vn -0.617399 0.786366 -0.021136
vn -0.617399 0.786366 -0.021136
vn -0.617399 0.786366 -0.021136
vn -1.000000 0.000000 0.000000
vn -1.000000 0.000000 0.000000
vn -1.000000 0.000000 0.000000
vn -0.600334 -0.796135 0.075955
vn -0.600334 -0.796135 0.075955
vn -0.600334 -0.796135 0.075955
vn -0.672232 -0.546888 0.499016
vn -0.672232 -0.546888 0.499016
vn -0.672232 -0.546888 0.499016
vn -0.809109 -0.587658 -0.000694
vn -0.809109 -0.587658 -0.000694
vn -0.809109 -0.587658 -0.000694
vn -0.809109 -0.587658 -0.000694
vn -0.628757 -0.755894 0.182451
vn -0.628757 -0.755894 0.182451
vn -0.628757 -0.755894 0.182451
vn 0.999967 0.003612 0.007339
vn 0.999967 0.003612 0.007339
vn 0.999967 0.003612 0.007339
vn -0.149485 -0.988622 0.016787
vn -0.149485 -0.988622 0.016787
vn -0.149485 -0.988622 0.016787
vn 0.001327 0.999953 -0.009631
vn 0.001327 0.999953 -0.009631
vn 0.001327 0.999953 -0.009631
vn 0.001327 0.999953 -0.009631
vn 0.084797 0.634493 -0.768263
vn 0.084797 0.634493 -0.768263
vn 0.084797 0.634493 -0.768263
vn 0.084797 0.634493 -0.768263
vn 0.345019 0.104977 -0.932707
vn 0.345019 0.104977 -0.932707
vn 0.345019 0.104977 -0.932707
vn 0.083458 0.277968 -0.956958
vn 0.083458 0.277968 -0.956958
vn 0.083458 0.277968 -0.956958
vn 0.083458 0.277968 -0.956958
vn 0.083458 0.277968 -0.956958
vn 0.071275 -0.571856 -0.817252
vn 0.071275 -0.571856 -0.817252
vn 0.071275 -0.571856 -0.817252
vn 0.071275 -0.571856 -0.817252
vn 0.193575 -0.226346 -0.954618
vn 0.193575 -0.226346 -0.954618
vn 0.193575 -0.226346 -0.954618
vn 0.193575 -0.226346 -0.954618
vn 0.194315 -0.144158 -0.970289
vn 0.194315 -0.144158 -0.970289
vn 0.194315 -0.144158 -0.970289
vn 0.224898 0.604696 -0.764044
vn 0.224898 0.604696 -0.764044
vn 0.224898 0.604696 -0.764044
vn 0.334602 0.749232 -0.571570
vn 0.334602 0.749232 -0.571570
vn 0.334602 0.749232 -0.571570
vn 0.334602 0.749232 -0.571570
vn 0.175249 0.308471 -0.934951
vn 0.175249 0.308471 -0.934951
vn 0.175249 0.308471 -0.934951
vn 0.175249 0.308471 -0.934951
vn 0.322758 0.486026 -0.812162
vn 0.322758 0.486026 -0.812162
vn 0.322758 0.486026 -0.812162
vn 0.322758 0.486026 -0.812162
vn 0.360027 0.602293 -0.712477
vn 0.360027 0.602293 -0.712477
vn 0.360027 0.602293 -0.712477
vn 0.360027 0.602293 -0.712477
vn 0.999997 0.000317 0.002565
vn 0.999997 0.000317 0.002565
vn 0.999997 0.000317 0.002565
vn 0.999993 0.000599 0.003637
vn 0.999993 0.000599 0.003637
vn 0.999993 0.000599 0.003637
vn 1.000000 0.000154 -0.000059
vn 1.000000 0.000154 -0.000059
vn 1.000000 0.000154 -0.000059
vn 1.000000 0.000154 -0.000059
vn 0.294577 0.337018 -0.894228
vn 0.294577 0.337018 -0.894228
vn 0.294577 0.337018 -0.894228
vn 0.294577 0.337018 -0.894228
vn 0.252031 0.345623 -0.903894
vn 0.252031 0.345623 -0.903894
vn 0.252031 0.345623 -0.903894
vn -0.040662 -0.100614 -0.994094
vn -0.040662 -0.100614 -0.994094
vn -0.040662 -0.100614 -0.994094
vn 0.024724 0.465560 -0.884671
vn 0.024724 0.465560 -0.884671
vn 0.024724 0.465560 -0.884671
vn 0.999955 0.003707 0.008767
vn 0.999955 0.003707 0.008767
vn 0.999955 0.003707 0.008767
vn 0.999981 0.000893 0.006031
vn 0.999981 0.000893 0.006031
vn 0.999981 0.000893 0.006031
vn 0.999979 0.000853 0.006496
vn 0.999979 0.000853 0.006496
vn 0.999979 0.000853 0.006496
vn 0.209036 0.340069 -0.916873
vn 0.209036 0.340069 -0.916873
vn 0.209036 0.340069 -0.916873
vn 0.163178 0.712060 -0.682893
vn 0.163178 0.712060 -0.682894
vn 0.163178 0.712060 -0.682893
vn 0.163178 0.712060 -0.682894
vn 0.186345 0.694364 -0.695078
vn 0.186345 0.694364 -0.695078
vn 0.186345 0.694364 -0.695078
vn 0.506374 0.813566 -0.285824
vn 0.506374 0.813566 -0.285824
vn 0.506374 0.813566 -0.285824
vn 0.517312 0.492436 -0.699926
vn 0.517312 0.492436 -0.699926
vn 0.517312 0.492436 -0.699926
vn 0.138778 0.354819 -0.924578
vn 0.138778 0.354819 -0.924578
vn 0.138778 0.354819 -0.924578
vn 0.138778 0.354819 -0.924578
vn 0.256528 0.424975 -0.868095
vn 0.256528 0.424975 -0.868095
vn 0.256528 0.424975 -0.868095
vn 0.289915 0.648858 -0.703515
vn 0.289915 0.648858 -0.703515
vn 0.289915 0.648858 -0.703515
vn -1.000000 0.000000 0.000000
vn -1.000000 0.000000 0.000000
vn -1.000000 0.000000 0.000000
vn -0.176048 0.150940 -0.972741
vn -0.176048 0.150940 -0.972741
vn -0.176048 0.150940 -0.972740
vn -1.000000 0.000000 0.000000
vn -1.000000 0.000000 0.000000
vn -1.000000 0.000000 0.000000
vn -1.000000 0.000000 0.000000
vn -1.000000 0.000000 0.000000
vn -1.000000 0.000000 0.000000
vn -1.000000 -0.000000 0.000000
vn -1.000000 -0.000000 0.000000
vn -1.000000 -0.000000 0.000000
vn -1.000000 0.000000 0.000000
vn -1.000000 0.000000 0.000000
vn -1.000000 0.000000 0.000000
vn -1.000000 0.000000 0.000000
vn -1.000000 -0.000000 0.000000
vn -1.000000 -0.000000 0.000000
vn -1.000000 -0.000000 0.000000
vn 0.458378 0.608345 -0.647924
vn 0.458378 0.608345 -0.647924
vn 0.458378 0.608345 -0.647924
vn -1.000000 0.000000 0.000000
vn -1.000000 0.000000 0.000000
vn -1.000000 0.000000 0.000000
vn -1.000000 0.000000 0.000000
vn -1.000000 0.000000 0.000000
vn -1.000000 0.000000 0.000000
vn 0.999924 0.004365 0.011550
vn 0.999924 0.004365 0.011550
vn 0.999924 0.004365 0.011550
vn 0.299333 0.091359 -0.949765
vn 0.299333 0.091359 -0.949765
vn 0.299333 0.091359 -0.949765
s off
f 5/8/1 8/7/2 7/6/3 6/5/4
f 5/8/5 6/5/6 40/62/7 39/61/8
f 2/1/9 6/5/10 7/6/11 3/2/12
f 3/2/13 7/6/14 8/7/15 4/3/16
f 4/3/17 8/7/18 5/8/19 1/4/20
f 6/5/21 2/1/22 38/59/23 40/62/24
f 11/13/25 15/19/26 14/18/27 13/17/28
f 12/12/29 4/11/30 1/16/31 9/14/32
f 10/9/33 2/15/34 3/10/35
f 10/9/36 3/10/37 11/13/38
f 11/13/39 3/10/40 4/11/41 15/19/42
f 15/19/43 4/11/44 12/12/45
f 5/8/46 39/61/47 37/58/48 1/4/49
f 9/14/50 1/16/51 37/57/52 43/67/53
f 2/15/54 32/50/55 33/51/56 36/55/57 42/65/58 38/60/59
f 20/20/60 23/21/61 22/22/62 21/23/63
f 14/24/64 20/20/65 21/23/66 13/25/67
f 17/26/68 21/23/69 22/22/70 18/27/71
f 18/27/72 22/22/73 23/21/74 19/28/75
f 19/28/76 23/21/77 20/20/78 16/29/79
f 11/30/80 13/25/81 21/23/82 17/26/83
f 16/29/84 20/20/85 14/24/86 15/31/87
f 25/32/88 18/33/89 19/34/90 27/35/91 26/36/92
f 24/37/93 28/38/94 27/35/95
f 30/39/96 31/40/97 25/32/98 26/36/99
f 29/41/100 30/39/101 26/36/102 27/35/103
f 31/40/104 34/53/105 35/54/106 25/32/107
f 24/37/108 12/44/109 9/45/110 28/38/111
f 27/35/112 28/38/113 29/41/114
f 29/41/115 28/38/116 44/68/117 47/71/118
f 35/54/119 11/46/120 17/47/121 25/32/122
f 16/48/123 15/49/124 12/44/125 24/37/126
f 27/35/127 19/34/128 16/48/129 24/37/130
f 25/32/131 17/47/132 18/33/133
f 31/40/134 30/39/135 46/70/136 45/69/137
f 31/40/138 45/69/139 68/95/140
f 10/9/141 32/50/142 2/15/143
f 34/53/144 33/52/145 32/42/146
f 35/54/147 34/53/148 32/42/149 10/43/150
f 10/43/151 11/46/152 35/54/153
f 43/66/154 50/75/155 9/45/156
f 41/63/157 42/65/158 36/55/159
f 47/71/160 46/70/161 30/39/162 29/41/163
f 44/68/164 67/94/165 46/70/166 47/71/167
f 49/73/168 48/72/169 53/79/170
f 41/64/171 43/67/172 37/58/173 38/60/174 42/65/175
f 38/60/176 37/58/177 39/61/178 40/62/179
f 51/76/180 50/74/181 43/67/182 41/64/183
f 53/79/184 52/77/185 57/83/186
f 49/73/187 54/80/188 48/72/189
f 61/88/190 62/89/191 63/90/192 64/91/193
f 60/87/194 66/93/195 67/94/196 44/68/197
f 53/79/198 57/83/199 50/74/200 51/76/201
f 59/86/202 56/82/203 63/90/204 62/89/205
f 9/45/206 58/85/207 55/81/208
f 9/45/209 55/81/210 60/87/211
f 9/45/212 60/87/213 44/68/214 28/38/215
f 60/87/216 61/88/217 64/91/218 65/92/219
f 60/87/220 65/92/221 66/93/222
f 48/72/223 54/80/224 59/86/225
f 53/79/226 48/72/227 52/77/228
f 9/45/229 57/84/230 52/78/231
f 9/45/232 52/78/233 48/72/234
f 9/45/235 50/75/236 57/84/237
f 55/81/238 61/88/239 60/87/240
f 58/85/241 62/89/242 61/88/243 55/81/244
f 59/86/245 62/89/246 58/85/247
f 64/91/248 63/90/249 56/82/250
f 65/92/251 64/91/252 56/82/253
f 66/93/254 65/92/255 68/95/256 45/69/257
f 67/94/258 66/93/259 45/69/260
f 46/70/261 67/94/262 45/69/263
f 34/53/264 56/82/265 54/80/266
f 59/86/267 54/80/268 56/82/269
f 34/53/270 53/79/271 51/76/272
f 34/53/273 49/73/274 53/79/275
f 34/53/276 54/80/277 49/73/278
f 33/52/279 51/76/280 41/64/281 36/56/282
f 34/53/283 51/76/284 33/52/285
f 68/95/286 65/92/287 56/82/288
f 34/53/289 68/95/290 56/82/291
f 31/40/292 68/95/293 34/53/294
f 9/45/295 48/72/296 58/85/297
f 58/85/298 48/72/299 59/86/300
