# This file uses centimeters as units for non-parametric coordinates.

v 0.000000 4.785252 0.000488
v 54.690430 -0.000000 0.000488
v 0.000000 19.155544 0.000488
v 49.626953 19.155544 -4.701660
v 0.000000 14.909530 -25.757813
v 54.690430 19.155544 -25.757813
v 0.000000 -0.000000 -25.757813
v 54.690430 2.305023 -25.757813
v 35.132813 19.155544 0.000488
v 54.690430 19.155544 -13.467773
v 54.690430 8.542760 0.000488
v 54.690430 15.466530 -3.755371
v 50.272461 15.952780 0.000488
v 8.485352 19.155544 -25.757813
v 0.000000 19.155544 -19.543945
v 27.991211 -0.000000 0.000488
v 0.000000 -0.000000 -7.417480
v 30.933594 -0.000000 -25.757813
v 54.690430 -0.000000 -21.103516
vt 0.657789 0.219989
vt 0.657789 0.219989
vt 0.657789 0.219989
vt 0.657789 0.219989
vt 0.657789 0.219989
vt 0.657789 0.219989
vt 0.657789 0.219989
vt 0.657789 0.219989
vt 0.657789 0.219989
vt 0.657789 0.219989
vt 0.657789 0.219989
vt 0.657789 0.219989
vt 0.657789 0.219989
vt 0.657789 0.219989
vt 0.657789 0.219989
vt 0.657789 0.219989
vt 0.657789 0.219989
vt 0.657789 0.219989
vt 0.657789 0.219989
vt 0.657789 0.219989
vt 0.657789 0.219989
vt 0.657789 0.219989
vt 0.657789 0.219989
vt 0.657789 0.219989
vt 0.657789 0.219989
vt 0.657789 0.219989
vt 0.657789 0.219989
vt 0.657789 0.219989
vt 0.657789 0.219989
vt 0.657789 0.219989
vn 0.000000 1.000000 -0.000000
vn 0.000000 1.000000 -0.000000
vn 0.000000 1.000000 -0.000000
vn 0.000000 1.000000 -0.000000
vn 0.000000 1.000000 -0.000000
vn 0.000000 -1.000000 0.000000
vn 0.000000 -1.000000 0.000000
vn 0.000000 -1.000000 0.000000
vn 0.000000 -1.000000 0.000000
vn 1.000000 -0.000000 0.000000
vn 1.000000 -0.000000 0.000000
vn 1.000000 -0.000000 0.000000
vn 1.000000 -0.000000 0.000000
vn 1.000000 -0.000000 0.000000
vn -1.000000 0.000000 0.000000
vn -1.000000 0.000000 0.000000
vn -1.000000 0.000000 0.000000
vn -1.000000 0.000000 0.000000
vn 0.174484 0.824794 0.537838
vn 0.174484 0.824794 0.537838
vn 0.174484 0.824794 0.537838
vn 0.468286 0.758859 0.452594
vn 0.468286 0.758859 0.452594
vn 0.468286 0.758859 0.452594
vn 0.523687 0.796398 0.302492
vn 0.523687 0.796398 0.302492
vn 0.523687 0.796398 0.302492
vn -0.381845 0.763090 -0.521429
vn -0.381845 0.763090 -0.521429
vn -0.381845 0.763090 -0.521429
vn -0.000000 0.000000 -1.000000
vn 0.000000 0.000000 -1.000000
vn 0.000000 0.000000 -1.000000
vn 0.000000 0.000000 -1.000000
vn 0.000000 0.000000 1.000000
vn 0.000000 0.000000 1.000000
vn 0.000000 0.000000 1.000000
vn 0.000000 0.000000 1.000000
vn 0.000000 0.000000 1.000000
vn -0.142198 -0.831785 0.536576
vn -0.142198 -0.831785 0.536576
vn -0.142198 -0.831785 0.536576
vn 0.624574 0.372381 0.686469
vn 0.624574 0.372381 0.686469
vn 0.624574 0.372381 0.686469
vn 0.086620 -0.892757 -0.442134
vn 0.086620 -0.892757 -0.442134
vn 0.086620 -0.892757 -0.442134
vn 0.000000 -1.000000 0.000000
vn 0.000000 -1.000000 0.000000
vn 0.000000 -1.000000 0.000000
vn 0.000000 -1.000000 0.000000
vn 0.000000 0.000000 1.000000
vn 0.000000 0.000000 1.000000
vn 0.000000 0.000000 1.000000
vn 0.000000 0.000000 1.000000
vn 1.000000 -0.000000 0.000000
vn 1.000000 -0.000000 0.000000
vn 1.000000 0.000000 0.000000
vn 1.000000 0.000000 0.000000
vn 0.000000 1.000000 -0.000000
vn 0.000000 1.000000 -0.000000
vn 0.000000 1.000000 0.000000
vn 0.000000 1.000000 0.000000
vn -0.000000 0.000000 -1.000000
vn 0.000000 0.000000 -1.000000
vn -0.000000 0.000000 -1.000000
vn -0.000000 0.000000 -1.000000
vn -1.000000 0.000000 0.000000
vn -1.000000 0.000000 0.000000
vn -1.000000 0.000000 0.000000
vn -1.000000 0.000000 0.000000
s off
f 3/3/1 9/15/2 4/4/3 14/21/4 15/23/5
f 7/7/6 18/28/7 16/25/8 17/27/9
f 2/2/10 19/30/11 8/11/12 12/19/13 11/18/14
f 5/14/15 1/1/16 3/3/17 15/22/18
f 9/15/19 13/20/20 4/4/21
f 4/4/22 13/20/23 12/19/24
f 4/4/25 12/19/26 10/17/27
f 15/23/28 14/21/29 5/5/30
f 5/5/31 14/21/32 6/6/33 8/8/34
f 1/1/35 16/24/36 13/20/37 9/15/38 3/3/39
f 17/27/40 16/25/41 1/9/42
f 12/19/43 13/20/44 11/18/45
f 19/29/46 18/28/47 8/8/48
f 16/25/49 18/28/50 19/29/51 2/10/52
f 13/20/53 16/24/54 2/2/55 11/18/56
f 12/19/57 8/11/58 6/12/59 10/17/60
f 14/21/61 4/4/62 10/16/63 6/6/64
f 5/5/65 8/8/66 18/28/67 7/7/68
f 7/13/69 17/26/70 1/1/71 5/14/72
