# This file uses centimeters as units for non-parametric coordinates.

v 27.883686 50.794647 25.934418
v 27.411053 48.801178 -21.474640
v -26.683277 50.794647 26.456512
v -27.155994 48.801178 -20.952545
v -22.767712 53.018280 -20.994568
v -22.295071 54.090424 26.414520
v -22.295071 48.499908 26.414520
v -22.767712 46.506439 -20.994568
v 22.465603 53.018280 -21.427338
v 22.938190 54.090424 25.981720
v 22.938190 48.499908 25.981720
v 22.465603 46.506439 -21.427338
v -27.115986 53.018280 -16.776337
v -27.115986 46.506439 -16.776337
v -22.727734 46.506439 -16.818359
v 22.505497 46.506439 -17.251099
v 27.451084 46.506439 -17.298431
v 27.451084 53.018280 -17.298431
v 22.505497 53.018280 -17.251099
v -22.727734 53.018280 -16.818359
v -26.743549 54.090424 22.144043
v -26.743549 48.499908 22.144043
v -22.355373 48.499908 22.102020
v 22.877964 48.499908 21.669281
v 27.823383 48.499908 21.621948
v 27.823383 54.090424 21.621948
v 22.877964 54.090424 21.669281
v -22.355373 54.090424 22.102020
v 22.434528 0.000000 27.438141
v 22.374271 0.000000 23.125702
v 27.319706 0.000000 23.078400
v 27.379963 0.000000 27.390839
v -27.186977 0.000000 27.912933
v -27.247341 0.000000 23.600403
v -22.859035 0.000000 23.558502
v -22.798733 0.000000 27.870911
v -27.653683 0.000000 -18.879181
v -23.265522 0.000000 -18.921173
v -27.693691 0.000000 -23.055389
v -23.305439 0.000000 -23.097412
v 21.967800 0.000000 -19.353973
v 26.913242 0.000000 -19.401276
v 21.927807 0.000000 -23.530182
v 26.873325 0.000000 -23.577484
v -23.414753 75.929169 -26.454285
v -23.374836 75.929169 -22.278076
v -27.798298 77.713104 -22.375214
v -27.803051 78.037079 -26.412262
v 21.818485 75.929169 -26.887054
v 26.763927 78.037079 -26.934357
v 26.695942 77.834900 -22.896606
v 21.858379 75.929169 -22.710846
v 21.586948 80.509125 -27.267914
v 21.630337 79.836700 -22.987671
v -23.500874 80.265533 -26.836517
v -23.457417 79.593109 -22.556244
v 21.654522 102.053497 -27.730835
v 26.628704 104.730316 -27.869263
v 26.668644 104.730316 -23.693054
v 21.694530 102.053497 -23.554718
v -23.505962 102.112152 -27.298798
v -23.466076 102.112152 -23.122589
v -27.843830 104.774323 -23.171417
v -27.883686 104.774323 -27.347626
v 21.711842 107.407135 -27.912933
v 21.751789 107.407135 -23.736725
v -23.485104 107.436432 -27.480469
v -23.445080 107.436432 -23.304260
v 17.572605 57.254913 15.915649
v -18.716770 57.533569 18.910126
v 18.866886 56.635345 -14.059204
v -17.031513 56.248322 -10.411163
v -20.862164 100.055206 -19.912659
v 17.340122 98.555817 -20.635345
v -20.854443 81.650055 -19.408844
v 19.254589 81.849152 -19.792603
v 19.077915 57.242889 -0.064575
v 5.208530 57.533569 18.647827
v -18.823017 57.227661 7.805145
v -5.790485 56.635345 -13.773560
v 5.600624 100.021912 -20.179688
v 19.289715 89.715515 -20.102844
vt 0.027452 0.300989
vt 0.027452 0.300989
vt 0.027452 0.300989
vt 0.027452 0.300989
vt 0.027452 0.300989
vt 0.027452 0.300989
vt 0.027452 0.300989
vt 0.027452 0.300989
vt 0.027452 0.300989
vt 0.027452 0.300989
vt 0.027452 0.300989
vt 0.027452 0.300989
vt 0.027452 0.300989
vt 0.027452 0.300989
vt 0.027452 0.300989
vt 0.027452 0.300989
vt 0.027452 0.300989
vt 0.027452 0.300989
vt 0.027452 0.300989
vt 0.027452 0.300989
vt 0.027452 0.300989
vt 0.027452 0.300989
vt 0.027452 0.300989
vt 0.027452 0.300989
vt 0.027452 0.300989
vt 0.027452 0.300989
vt 0.027452 0.300989
vt 0.027452 0.300989
vt 0.027452 0.300989
vt 0.027452 0.300989
vt 0.027452 0.300989
vt 0.027452 0.300989
vt 0.027452 0.300989
vt 0.027452 0.300989
vt 0.027452 0.300989
vt 0.027452 0.300989
vt 0.027452 0.300989
vt 0.027452 0.300989
vt 0.027452 0.300989
vt 0.027452 0.300989
vt 0.027452 0.300989
vt 0.027452 0.300989
vt 0.027452 0.300989
vt 0.027452 0.300989
vt 0.027452 0.300989
vt 0.027452 0.300989
vt 0.027452 0.300989
vt 0.027452 0.300989
vt 0.027452 0.300989
vt 0.027452 0.300989
vt 0.090600 0.252822
vt 0.090600 0.252822
vt 0.090600 0.252822
vt 0.090600 0.252822
vt 0.027452 0.300989
vt 0.027452 0.300989
vt 0.027452 0.300989
vt 0.090600 0.252822
vt 0.090600 0.252822
vt 0.090600 0.252822
vt 0.027452 0.300989
vt 0.027452 0.300989
vt 0.027452 0.300989
vt 0.027452 0.300989
vt 0.027452 0.300989
vt 0.027452 0.300989
vt 0.027452 0.300989
vt 0.027452 0.300989
vt 0.027452 0.300989
vt 0.027452 0.300989
vt 0.027452 0.300989
vt 0.027452 0.300989
vt 0.027452 0.300989
vt 0.027452 0.300989
vt 0.027452 0.300989
vt 0.027452 0.300989
vt 0.027452 0.300989
vt 0.027452 0.300989
vt 0.027452 0.300989
vt 0.027452 0.300989
vt 0.027452 0.300989
vt 0.027452 0.300989
vt 0.027452 0.300989
vt 0.027452 0.300989
vt 0.027452 0.300989
vt 0.027452 0.300989
vt 0.027452 0.300989
vt 0.027452 0.300989
vt 0.027452 0.300989
vt 0.027452 0.300989
vt 0.027452 0.300989
vt 0.027452 0.300989
vt 0.027452 0.300989
vt 0.027452 0.300989
vt 0.027452 0.300989
vt 0.027452 0.300989
vt 0.027452 0.300989
vt 0.027452 0.300989
vt 0.027452 0.300989
vt 0.027452 0.300989
vt 0.027452 0.300989
vt 0.090454 0.252821
vt 0.090454 0.252822
vt 0.090454 0.252822
vt 0.090454 0.252821
vt 0.090454 0.252821
vt 0.090454 0.252821
vt 0.090454 0.252821
vt 0.027444 0.300980
vt 0.027444 0.300980
vt 0.027444 0.300980
vt 0.027444 0.300980
vt 0.027444 0.300980
vt 0.027444 0.300980
vt 0.027444 0.300980
vt 0.027444 0.300980
vt 0.090600 0.252822
vt 0.090600 0.252822
vt 0.090600 0.252822
vt 0.090600 0.252822
vt 0.090600 0.252822
vt 0.090600 0.252822
vt 0.090600 0.252822
vt 0.090600 0.252822
vt 0.090454 0.252821
vt 0.090454 0.252821
vt 0.090454 0.252821
vt 0.090454 0.252822
vt 0.090454 0.252822
vt 0.090454 0.252822
vt 0.090454 0.252822
vt 0.090600 0.252822
vn 0.999902 0.000000 -0.013982
vn 0.999902 0.000000 -0.013982
vn 0.999902 0.000000 -0.013982
vn -0.999902 0.000000 0.013975
vn -0.999902 0.000000 0.013975
vn -0.999902 0.000000 0.013975
vn 0.000000 -1.000000 0.000000
vn 0.000000 -1.000000 0.000000
vn 0.000000 -1.000000 0.000000
vn 0.000000 -1.000000 0.000000
vn -0.009567 0.000000 -0.999954
vn -0.009567 0.000000 -0.999954
vn -0.009567 0.000000 -0.999954
vn 0.009563 0.000000 0.999954
vn 0.009563 0.000000 0.999954
vn 0.009563 0.000000 0.999954
vn 0.009573 0.000000 0.999954
vn 0.009573 0.000000 0.999954
vn 0.009573 0.000000 0.999954
vn 0.000000 -1.000000 0.000006
vn 0.000000 -1.000000 0.000006
vn 0.000000 -1.000000 0.000006
vn 0.000000 -1.000000 0.000006
vn -0.009585 0.000000 -0.999954
vn -0.009585 0.000000 -0.999954
vn -0.009585 0.000000 -0.999954
vn 0.000000 1.000000 0.000000
vn 0.000000 1.000000 0.000000
vn 0.000000 1.000000 0.000000
vn 0.000000 1.000000 0.000000
vn 0.009568 0.000000 0.999954
vn 0.009568 0.000000 0.999954
vn 0.009568 0.000000 0.999954
vn 0.009568 0.000000 0.999954
vn 0.000000 -1.000000 0.000005
vn 0.000000 -1.000000 0.000005
vn 0.000000 -1.000000 0.000005
vn 0.000000 -1.000000 0.000005
vn -0.009567 0.000000 -0.999954
vn -0.009567 0.000000 -0.999954
vn -0.009567 0.000000 -0.999954
vn -0.009567 0.000000 -0.999954
vn -0.999954 0.000000 0.009580
vn -0.999954 0.000000 0.009580
vn -0.999954 0.000000 0.009580
vn 0.000000 -1.000000 -0.000004
vn 0.000000 -1.000000 -0.000004
vn 0.000000 -1.000000 -0.000004
vn 0.000000 -1.000000 -0.000004
vn 0.000000 -1.000000 -0.000002
vn 0.000000 -1.000000 -0.000002
vn 0.000000 -1.000000 -0.000002
vn 0.000000 -1.000000 -0.000002
vn 0.000000 -1.000000 0.000003
vn 0.000000 -1.000000 0.000003
vn 0.000000 -1.000000 0.000003
vn 0.000000 -1.000000 0.000003
vn 0.999954 0.000000 -0.009585
vn 0.999954 0.000000 -0.009585
vn 0.999954 0.000000 -0.009585
vn -0.999954 0.000000 0.009569
vn -0.999954 0.000000 0.009569
vn -0.999954 0.000000 0.009569
vn -0.999954 0.000000 0.009569
vn 0.000490 -0.998691 0.051147
vn 0.000490 -0.998691 0.051147
vn 0.000490 -0.998691 0.051147
vn 0.000490 -0.998691 0.051147
vn 0.000489 -0.998691 0.051148
vn 0.000489 -0.998691 0.051148
vn 0.000489 -0.998691 0.051148
vn 0.000489 -0.998691 0.051148
vn 0.000489 -0.998691 0.051147
vn 0.000489 -0.998691 0.051147
vn 0.000489 -0.998691 0.051147
vn 0.000489 -0.998691 0.051147
vn 0.999954 0.000000 -0.009565
vn 0.999954 0.000000 -0.009565
vn 0.999954 0.000000 -0.009565
vn 0.999954 0.000000 -0.009565
vn -0.000263 0.999621 -0.027534
vn -0.000263 0.999621 -0.027534
vn -0.000263 0.999621 -0.027534
vn -0.000263 0.999621 -0.027534
vn 0.022841 0.999738 0.001402
vn 0.022841 0.999738 0.001402
vn 0.022841 0.999738 0.001402
vn -0.000264 0.999621 -0.027535
vn -0.000264 0.999621 -0.027535
vn -0.000264 0.999621 -0.027535
vn -0.000264 0.999621 -0.027535
vn -0.999844 0.010803 0.013967
vn -0.999844 0.010803 0.013967
vn -0.999844 0.010803 0.013967
vn -0.999844 0.010803 0.013967
vn -0.009559 -0.029916 -0.999507
vn -0.009559 -0.029916 -0.999507
vn -0.009559 -0.029916 -0.999507
vn -0.009559 -0.029916 -0.999507
vn 0.999883 -0.010473 -0.011190
vn 0.999883 -0.010473 -0.011190
vn 0.999883 -0.010473 -0.011190
vn 0.999883 -0.010473 -0.011190
vn 0.002762 0.029295 0.999567
vn 0.002762 0.029295 0.999567
vn 0.002762 0.029295 0.999567
vn 0.002762 0.029295 0.999567
vn -0.999883 0.010474 0.011198
vn -0.999883 0.010474 0.011198
vn -0.999883 0.010474 0.011198
vn -0.999882 0.010474 0.011198
vn -0.009558 -0.029915 -0.999507
vn -0.009558 -0.029915 -0.999507
vn -0.009558 -0.029915 -0.999507
vn -0.009558 -0.029915 -0.999507
vn 0.999844 -0.010803 -0.013981
vn 0.999844 -0.010803 -0.013981
vn 0.999844 -0.010803 -0.013981
vn 0.999844 -0.010803 -0.013981
vn 0.017189 0.029144 0.999427
vn 0.017189 0.029144 0.999427
vn 0.017189 0.029144 0.999427
vn 0.017189 0.029144 0.999427
vn 0.009565 -0.045278 0.998929
vn 0.009565 -0.045278 0.998929
vn 0.009565 -0.045278 0.998929
vn 0.009565 -0.045278 0.998929
vn -0.999864 0.010729 0.012526
vn -0.999864 0.010729 0.012526
vn -0.999864 0.010729 0.012526
vn -0.999864 0.010729 0.012526
vn 0.001954 0.044062 -0.999027
vn 0.001954 0.044062 -0.999027
vn 0.001954 0.044062 -0.999027
vn 0.001954 0.044062 -0.999027
vn 0.999892 -0.011129 -0.009565
vn 0.999892 -0.011129 -0.009565
vn 0.999892 -0.011129 -0.009565
vn 0.999892 -0.011129 -0.009565
vn 0.009564 -0.045279 0.998929
vn 0.009564 -0.045279 0.998929
vn 0.009564 -0.045279 0.998929
vn 0.009564 -0.045279 0.998929
vn -0.999892 0.011129 0.009564
vn -0.999892 0.011129 0.009564
vn -0.999892 0.011129 0.009564
vn -0.999892 0.011129 0.009564
vn -0.019832 0.044299 -0.998821
vn -0.019832 0.044299 -0.998821
vn -0.019832 0.044299 -0.998821
vn -0.019832 0.044299 -0.998822
vn 0.999864 -0.010731 -0.012519
vn 0.999864 -0.010731 -0.012519
vn 0.999864 -0.010731 -0.012519
vn 0.999864 -0.010731 -0.012519
vn -0.020642 0.225086 0.974120
vn -0.020642 0.225086 0.974120
vn -0.020642 0.225086 0.974120
vn -0.020642 0.225086 0.974120
vn 0.999671 0.024209 -0.008431
vn 0.999671 0.024209 -0.008431
vn 0.999671 0.024209 -0.008431
vn 0.999671 0.024209 -0.008431
vn -0.053264 -0.205928 -0.977117
vn -0.053264 -0.205928 -0.977117
vn -0.053264 -0.205928 -0.977117
vn -0.053264 -0.205928 -0.977117
vn 0.039903 0.227147 0.973043
vn 0.039903 0.227147 0.973043
vn 0.039903 0.227147 0.973043
vn 0.039903 0.227147 0.973043
vn 0.039622 -0.203850 -0.978200
vn 0.039622 -0.203850 -0.978200
vn 0.039622 -0.203850 -0.978200
vn 0.039622 -0.203850 -0.978200
vn -0.999648 -0.021440 0.015611
vn -0.999648 -0.021440 0.015611
vn -0.999648 -0.021440 0.015611
vn -0.999648 -0.021440 0.015611
vn -0.052144 -0.088714 -0.994691
vn -0.052144 -0.088714 -0.994691
vn -0.052144 -0.088714 -0.994691
vn 0.025247 -0.081579 -0.996347
vn 0.025247 -0.081579 -0.996347
vn 0.025247 -0.081579 -0.996347
vn 0.019787 -0.028932 -0.999386
vn 0.019787 -0.028932 -0.999386
vn 0.019787 -0.028932 -0.999386
vn 0.019787 -0.028932 -0.999386
vn 0.999989 0.003145 0.003492
vn 0.999989 0.003145 0.003492
vn 0.999989 0.003145 0.003492
vn 0.999989 0.003145 0.003492
vn 0.002843 0.027750 0.999611
vn 0.002843 0.027750 0.999611
vn 0.002843 0.027750 0.999611
vn 0.002843 0.027750 0.999611
vn -0.044635 -0.028806 -0.998588
vn -0.044635 -0.028806 -0.998588
vn -0.044635 -0.028806 -0.998588
vn -0.044635 -0.028806 -0.998588
vn 0.017623 0.027486 0.999467
vn 0.017623 0.027486 0.999467
vn 0.017623 0.027486 0.999467
vn 0.017623 0.027486 0.999467
vn -0.999983 -0.002173 0.005346
vn -0.999983 -0.002173 0.005346
vn -0.999983 -0.002173 0.005346
vn -0.999983 -0.002173 0.005346
vn -0.009575 -0.033890 -0.999380
vn -0.009575 -0.033890 -0.999380
vn -0.009575 -0.033890 -0.999380
vn 0.009566 0.033874 0.999380
vn 0.009566 0.033874 0.999380
vn 0.009566 0.033874 0.999380
vn 0.009566 0.034062 0.999374
vn 0.009566 0.034062 0.999374
vn 0.009566 0.034062 0.999374
vn -0.009566 -0.034063 -0.999374
vn -0.009566 -0.034062 -0.999374
vn -0.009566 -0.034063 -0.999374
vn 0.009345 0.073483 0.997253
vn 0.009345 0.073483 0.997253
vn 0.009345 0.073483 0.997253
vn 0.009345 0.073483 0.997253
vn -0.009301 -0.085598 -0.996286
vn -0.009301 -0.085598 -0.996286
vn -0.009301 -0.085598 -0.996286
vn -0.009301 -0.085598 -0.996286
vn 0.009596 0.033967 0.999377
vn 0.009596 0.033967 0.999377
vn 0.009596 0.033967 0.999377
vn 0.009596 0.033967 0.999377
vn 0.000648 1.000000 0.000000
vn 0.000648 1.000000 0.000000
vn 0.000648 1.000000 0.000000
vn 0.000648 1.000000 0.000000
vn -0.009595 -0.033976 -0.999377
vn -0.009595 -0.033976 -0.999377
vn -0.009595 -0.033976 -0.999377
vn -0.009595 -0.033976 -0.999377
vn -0.009520 -0.021303 -0.999728
vn -0.009520 -0.021303 -0.999728
vn -0.009520 -0.021303 -0.999728
vn -0.009520 -0.021303 -0.999728
vn 0.047474 0.070488 0.996382
vn 0.047474 0.070488 0.996382
vn 0.047474 0.070488 0.996382
vn 0.478176 0.878252 -0.004574
vn 0.478176 0.878252 -0.004574
vn 0.478176 0.878252 -0.004574
vn 0.478176 0.878252 -0.004574
vn -0.517652 0.855577 0.004945
vn -0.517652 0.855577 0.004945
vn -0.517652 0.855577 0.004945
vn -0.517652 0.855577 0.004945
vn 0.000000 1.000000 -0.000009
vn 0.000000 1.000000 -0.000009
vn 0.000000 1.000000 -0.000009
vn 0.000000 1.000000 -0.000009
vn -0.999617 -0.025959 0.009549
vn -0.999617 -0.025959 0.009549
vn -0.999618 -0.025959 0.009549
vn -0.999618 -0.025959 0.009549
vn 0.999618 0.025953 -0.009562
vn 0.999618 0.025953 -0.009562
vn 0.999617 0.025953 -0.009562
vn 0.999618 0.025953 -0.009562
vn 0.000000 -1.000000 -0.000002
vn 0.000000 -1.000000 -0.000002
vn 0.000000 -1.000000 -0.000002
vn 0.000000 -1.000000 -0.000002
vn 0.473556 0.702978 0.530628
vn 0.473556 0.702978 0.530628
vn 0.473556 0.702978 0.530628
vn -0.506803 0.681507 0.527919
vn -0.506803 0.681507 0.527919
vn -0.506803 0.681507 0.527919
vn 0.010225 0.071256 0.997406
vn 0.010225 0.071256 0.997406
vn 0.010225 0.071256 0.997406
vn 0.008708 0.075896 0.997078
vn 0.008708 0.075896 0.997078
vn 0.008708 0.075896 0.997078
vn 0.000000 1.000000 0.000010
vn 0.000000 1.000000 0.000010
vn 0.000000 1.000000 0.000010
vn 0.000000 1.000000 0.000013
vn 0.000000 1.000000 0.000013
vn 0.000000 1.000000 0.000013
vn 0.108914 0.909996 0.400056
vn 0.108914 0.909996 0.400056
vn 0.108914 0.909996 0.400056
vn 0.475993 0.878339 0.044179
vn 0.475993 0.878339 0.044179
vn 0.475993 0.878339 0.044179
vn -0.007712 0.661039 -0.750312
vn -0.007712 0.661039 -0.750312
vn -0.007712 0.661039 -0.750312
vn -0.007712 0.661039 -0.750312
vn -0.693362 0.720468 -0.013214
vn -0.693362 0.720468 -0.013214
vn -0.693362 0.720468 -0.013214
vn -0.693362 0.720468 -0.013214
vn 0.006324 0.843696 0.536784
vn 0.006324 0.843696 0.536783
vn 0.006324 0.843696 0.536784
vn 0.006324 0.843696 0.536784
vn -0.773533 0.016257 0.633548
vn -0.773533 0.016257 0.633548
vn -0.773533 0.016257 0.633548
vn -0.773533 0.016257 0.633548
vn 0.009539 -0.841771 0.539750
vn 0.009539 -0.841771 0.539750
vn 0.009539 -0.841771 0.539750
vn 0.009539 -0.841771 0.539750
vn 0.800694 0.014821 0.598890
vn 0.800694 0.014821 0.598890
vn 0.800694 0.014821 0.598890
vn 0.800694 0.014821 0.598890
vn -0.051882 0.996927 -0.058701
vn -0.051882 0.996927 -0.058701
vn -0.051882 0.996927 -0.058701
vn -0.004056 0.999567 -0.029151
vn -0.004056 0.999567 -0.029151
vn -0.004056 0.999567 -0.029151
vn -0.004056 0.999567 -0.029151
vn -0.004056 0.999567 -0.029151
vn -0.004056 0.999567 -0.029151
vn 0.010866 0.028892 0.999524
vn 0.010866 0.028892 0.999523
vn 0.010866 0.028892 0.999523
vn 0.010866 0.028892 0.999524
vn 0.010866 0.028892 0.999523
vn 0.101817 0.559684 0.822427
vn 0.101817 0.559684 0.822427
vn 0.101817 0.559684 0.822427
vn 0.461612 0.154421 0.873538
vn 0.461612 0.154421 0.873538
vn 0.461612 0.154421 0.873538
vn -0.413330 0.906185 -0.089368
vn -0.413330 0.906185 -0.089368
vn -0.413330 0.906185 -0.089368
vn -0.135771 0.927949 -0.347099
vn -0.135771 0.927949 -0.347099
vn -0.135771 0.927949 -0.347099
vn 0.007386 0.678135 0.734900
vn 0.007386 0.678135 0.734900
vn 0.007386 0.678135 0.734900
vn 0.007386 0.678135 0.734900
vn 0.712763 0.700759 -0.030104
vn 0.712763 0.700759 -0.030104
vn 0.712763 0.700759 -0.030104
vn 0.712763 0.700759 -0.030104
s off
f 1/1/1 25/2/2 26/3/3
f 3/4/4 21/5/5 22/6/6
f 29/7/7 30/8/8 31/9/9 32/10/10
f 2/11/11 12/12/12 9/13/13
f 11/14/14 1/1/15 10/15/16
f 3/16/17 7/17/18 6/18/19
f 33/19/20 34/20/21 35/21/22 36/22/23
f 5/23/24 8/24/25 4/25/26
f 10/26/27 27/27/28 28/28/29 6/29/30
f 7/17/31 11/14/32 10/15/33 6/18/34
f 7/30/35 23/31/36 24/32/37 11/33/38
f 9/13/39 12/12/40 8/24/41 5/23/42
f 13/34/43 4/35/44 14/36/45
f 38/37/46 37/38/47 39/39/48 40/40/49
f 16/41/50 15/42/51 8/43/52 12/44/53
f 42/45/54 41/46/55 43/47/56 44/48/57
f 18/49/58 17/50/59 2/11/60
f 21/5/61 13/34/62 14/36/63 22/6/64
f 23/31/65 22/6/66 14/36/67 15/42/68
f 24/51/69 23/52/70 15/53/71 16/54/72
f 25/55/73 24/32/74 16/41/75 17/56/76
f 26/3/77 25/2/78 17/50/79 18/49/80
f 27/27/81 26/3/82 18/49/83 19/57/84
f 77/58/85 78/59/86 69/60/87
f 21/5/88 28/28/89 20/61/90 13/34/91
f 11/33/92 24/32/93 30/8/94 29/7/95
f 24/32/96 25/55/97 31/9/98 30/8/99
f 25/55/100 1/62/101 32/10/102 31/9/103
f 1/62/104 11/33/105 29/7/106 32/10/107
f 3/4/108 22/6/109 34/20/110 33/19/111
f 22/6/112 23/31/113 35/21/114 34/20/115
f 23/31/116 7/30/117 36/22/118 35/21/119
f 7/30/120 3/4/121 33/19/122 36/22/123
f 15/42/124 14/36/125 37/38/126 38/37/127
f 14/36/128 4/35/129 39/39/130 37/38/131
f 4/35/132 8/43/133 40/40/134 39/39/135
f 8/43/136 15/42/137 38/37/138 40/40/139
f 17/56/140 16/41/141 41/46/142 42/45/143
f 16/41/144 12/44/145 43/47/146 41/46/147
f 12/44/148 2/63/149 44/48/150 43/47/151
f 2/63/152 17/56/153 42/45/154 44/48/155
f 19/57/156 18/49/157 51/64/158 52/65/159
f 18/49/160 2/11/161 50/66/162 51/64/163
f 2/11/164 9/67/165 49/68/166 50/66/167
f 13/34/168 20/61/169 46/69/170 47/70/171
f 5/71/172 4/35/173 48/72/174 45/73/175
f 4/35/176 13/34/177 47/70/178 48/72/179
f 45/73/180 48/72/181 55/74/182
f 50/66/183 49/68/184 53/75/185
f 50/66/186 53/75/187 57/76/188 58/77/189
f 51/64/190 50/66/191 58/77/192 59/78/193
f 54/79/194 51/64/195 59/78/196 60/80/197
f 55/74/198 48/72/199 64/81/200 61/82/201
f 47/70/202 56/83/203 62/84/204 63/85/205
f 48/72/206 47/70/207 63/85/208 64/81/209
f 58/77/210 57/76/211 65/86/212
f 60/80/213 59/78/214 66/87/215
f 63/85/216 62/84/217 68/88/218
f 61/82/219 64/81/220 67/89/221
f 52/65/222 54/79/223 56/90/224 46/91/225
f 53/75/226 49/68/227 45/92/228 55/93/229
f 60/80/230 66/87/231 68/94/232 62/95/233
f 66/96/234 65/97/235 67/98/236 68/99/237
f 65/86/238 57/76/239 61/100/240 67/101/241
f 57/102/242 53/103/243 55/104/244 61/105/245
f 74/106/246 81/107/247 82/108/248
f 59/78/249 58/77/250 65/97/251 66/87/252
f 64/81/253 63/85/254 68/99/255 67/89/256
f 20/109/257 19/110/258 9/111/259 5/112/260
f 19/110/261 52/113/262 49/114/263 9/111/264
f 46/115/265 20/109/266 5/112/267 45/116/268
f 52/113/269 46/115/270 45/116/271 49/114/272
f 1/1/273 26/3/274 10/15/275
f 21/5/276 3/16/277 6/29/278
f 52/65/279 51/64/280 54/79/281
f 47/70/282 46/91/283 56/83/284
f 10/15/285 26/3/286 27/27/287
f 21/5/288 6/29/289 28/28/290
f 78/59/291 27/117/292 69/60/293
f 27/117/294 77/58/295 69/60/296
f 19/118/297 20/119/298 80/120/299 71/121/300
f 20/119/301 28/122/302 70/123/303 79/124/304
f 60/125/305 62/126/306 73/127/307 81/107/308
f 62/126/309 56/128/310 75/129/311 73/127/312
f 56/128/313 54/130/314 76/131/315 75/129/316
f 54/130/317 60/125/318 82/108/319 76/131/320
f 79/124/321 80/120/322 72/132/323
f 70/123/324 78/59/325 77/58/326 71/121/327 80/120/328 79/124/329
f 82/108/330 81/107/331 73/127/332 75/129/333 76/131/334
f 60/125/335 81/107/336 74/106/337
f 82/108/338 60/125/339 74/106/340
f 20/119/341 79/124/342 72/132/343
f 80/120/344 20/119/345 72/132/346
f 28/122/347 27/117/348 78/59/349 70/123/350
f 27/117/351 19/118/352 71/121/353 77/58/354
