# This file uses centimeters as units for non-parametric coordinates.

v 0.000000 -0.000000 0.000488
v 54.690430 -0.000000 0.000488
v 0.000000 19.155544 -7.557129
v 54.690430 19.155544 0.000488
v 0.000000 19.155544 -25.757813
v 46.923828 19.155544 -25.757813
v 0.000000 3.178806 -25.757813
v 54.690430 -0.000000 -25.757813
v 5.951172 19.155546 0.000488
v 0.000000 10.749648 0.000488
v 54.690430 19.155544 -18.365234
v 54.690430 8.177036 -25.757813
v 11.597656 -0.000000 -25.757813
v 0.000000 -0.000000 -17.938477
vt 0.666833 0.230668
vt 0.666833 0.230668
vt 0.666833 0.230668
vt 0.666833 0.230668
vt 0.666833 0.230668
vt 0.666833 0.230668
vt 0.666833 0.230668
vt 0.666833 0.230668
vt 0.666833 0.230668
vt 0.666833 0.230668
vt 0.666833 0.230668
vt 0.655273 0.219820
vt 0.666833 0.230668
vt 0.666833 0.230668
vt 0.666833 0.230668
vt 0.666833 0.230668
vt 0.666833 0.230668
vt 0.666833 0.230668
vt 0.666833 0.230668
vt 0.666833 0.230668
vt 0.666833 0.230668
vt 0.666833 0.230668
vt 0.666833 0.230668
vt 0.655273 0.219819
vt 0.655273 0.219819
vt 0.655273 0.219820
vt 0.655273 0.219818
vt 0.655273 0.219818
vt 0.655273 0.219818
vt 0.655273 0.219820
vt 0.655273 0.219818
vn 0.000000 0.000000 1.000000
vn 0.000000 0.000000 1.000000
vn 0.000000 0.000000 1.000000
vn 0.000000 0.000000 1.000000
vn 0.000000 0.000000 1.000000
vn 0.000000 0.000000 -1.000000
vn 0.000000 0.000000 -1.000000
vn 0.000000 0.000000 -1.000000
vn 0.000000 0.000000 -1.000000
vn 0.000000 0.000000 -1.000000
vn 0.000000 0.000000 -1.000000
vn -0.246101 -0.897884 -0.365018
vn -0.246101 -0.897884 -0.365018
vn -0.246101 -0.897884 -0.365018
vn 1.000000 0.000000 0.000000
vn 1.000000 0.000000 0.000000
vn 1.000000 0.000000 0.000000
vn 1.000000 0.000000 0.000000
vn 1.000000 0.000000 0.000000
vn -0.686594 0.486092 0.540651
vn -0.686594 0.486092 0.540651
vn -0.686594 0.486092 0.540651
vn 0.000000 1.000000 -0.000000
vn 0.000000 1.000000 -0.000000
vn 0.000000 1.000000 -0.000000
vn 0.000000 1.000000 -0.000000
vn 0.000000 1.000000 -0.000000
vn 0.000000 1.000000 -0.000000
vn 0.619672 0.438379 -0.651023
vn 0.619672 0.438379 -0.651023
vn 0.619672 0.438379 -0.651023
vn 0.000000 -1.000000 -0.000000
vn 0.000000 -1.000000 -0.000000
vn 0.000000 -1.000000 -0.000000
vn 0.000000 -1.000000 -0.000000
vn 0.000000 -1.000000 -0.000000
vn -1.000000 0.000000 0.000000
vn -1.000000 0.000000 0.000000
vn -1.000000 0.000000 0.000000
vn -1.000000 0.000000 0.000000
vn -1.000000 0.000000 0.000000
vn -1.000000 0.000000 0.000000
s off
f 1/1/1 2/2/2 4/4/3 9/15/4 10/16/5
f 5/5/6 6/6/7 12/19/8 8/8/9 13/21/10 7/7/11
f 7/12/12 13/24/13 14/25/14
f 2/2/15 8/11/16 12/20/17 11/18/18 4/4/19
f 10/26/20 9/27/21 3/28/22
f 3/3/23 9/15/24 4/4/25 11/17/26 6/6/27 5/5/28
f 11/29/29 12/30/30 6/31/31
f 14/23/32 13/21/33 8/8/34 2/10/35 1/9/36
f 7/13/37 14/22/38 1/1/39 10/16/40 3/3/41 5/14/42
