# This file uses centimeters as units for non-parametric coordinates.

v 0.000000 -12.576355 0.000000
v 125.000000 -12.576355 0.000000
v 0.000000 -12.576355 4.323318
v 125.000000 -12.576355 4.323318
v 0.000000 12.576355 4.323318
v 125.000000 12.576355 4.323318
v 0.000000 12.576355 0.000000
v 125.000000 12.576355 0.000000
vt 0.329227 0.193727
vt 0.397880 0.193727
vt 0.397880 0.193727
vt 0.329227 0.193727
vt 0.409444 0.210078
vt 0.340792 0.210078
vt 0.409444 0.210078
vt 0.340792 0.210078
vn 0.000000 -1.000000 0.000000
vn 0.000000 -1.000000 0.000000
vn 0.000000 -1.000000 0.000000
vn 0.000000 -1.000000 0.000000
vn 0.000000 0.000000 1.000000
vn 0.000000 0.000000 1.000000
vn 0.000000 0.000000 1.000000
vn 0.000000 0.000000 1.000000
vn 0.000000 1.000000 0.000000
vn 0.000000 1.000000 0.000000
vn 0.000000 1.000000 0.000000
vn 0.000000 1.000000 0.000000
vn 0.000000 0.000000 -1.000000
vn 0.000000 0.000000 -1.000000
vn 0.000000 0.000000 -1.000000
vn 0.000000 0.000000 -1.000000
vn 1.000000 0.000000 0.000000
vn 1.000000 0.000000 0.000000
vn 1.000000 0.000000 0.000000
vn 1.000000 0.000000 0.000000
vn -1.000000 0.000000 0.000000
vn -1.000000 0.000000 0.000000
vn -1.000000 0.000000 0.000000
vn -1.000000 0.000000 0.000000
s off
f 1/1/1 2/2/2 4/3/3 3/4/4
f 3/4/5 4/3/6 6/5/7 5/6/8
f 5/6/9 6/5/10 8/7/11 7/8/12
f 7/8/13 8/7/14 2/2/15 1/1/16
f 2/2/17 8/7/18 6/5/19 4/3/20
f 7/8/21 1/1/22 3/4/23 5/6/24
