# This file uses centimeters as units for non-parametric coordinates.

v -21.689453 3.566628 88.676559
v -21.760498 7.600778 88.787079
v -22.869873 9.734453 -90.270744
v -22.989624 5.362793 -90.127495
v -28.928345 2.091383 88.721985
v -30.340942 5.465901 -89.449471
v -30.474976 1.034487 -89.201149
v -28.852295 -2.347442 88.749512
v 13.495239 10.450212 -90.261108
v 14.148804 7.851402 89.200058
v 14.267578 2.869209 89.058578
v 13.372559 6.090171 -90.091675
v 6.877075 13.981507 89.315857
v 6.291382 15.147863 -89.909874
v 6.171265 10.778490 -89.761497
v 6.963745 9.637442 89.120605
v -0.161743 9.614269 89.149551
v -1.151733 8.928796 -89.681267
v -1.296265 3.771479 -89.485207
v -0.066406 5.252767 88.995956
v -7.322388 9.261041 90.294128
v -8.314941 13.218390 -89.736008
v -8.434814 8.848181 -89.589516
v -7.269409 6.234757 90.231583
v -14.476807 5.294465 90.124207
v -15.732544 6.782902 -89.754425
v -15.869751 1.928551 -89.561066
v -14.399536 0.924144 89.990356
v 43.530518 4.028028 88.158691
v 42.186157 2.790832 -88.559914
v 42.064453 -1.573215 -88.399551
v 43.625366 -0.354280 88.054077
v 36.047119 8.013727 88.422241
v 35.038696 7.267276 -88.707710
v 34.908081 2.938743 -88.467209
v 36.133301 3.630462 88.319397
v 28.723389 5.605359 88.601334
v 27.663574 3.296779 -88.605568
v 27.510376 -0.943303 -88.165573
v 28.840454 0.699798 88.473358
v 21.282104 12.603868 89.040604
v 20.794922 9.240795 -90.731094
v 20.677979 5.663069 -90.459610
v 21.370483 8.222421 88.933640
v -36.264160 6.099309 88.941208
v -37.554565 9.724129 -89.100365
v -37.673828 5.350721 -88.961075
v -36.187012 1.718356 88.832428
v -43.448364 1.825080 88.547836
v -44.936523 5.779989 -88.938797
v -45.056152 1.408012 -88.796288
v -43.371216 -2.550711 88.426910
v -5.671875 -0.059773 32.573227
v -12.431763 4.119454 32.220154
v -18.572510 -0.201039 39.224518
v -25.826660 2.985283 37.551300
v -32.178955 -2.046164 41.426392
v -37.585815 2.396385 39.315659
v -44.099976 -1.448519 39.408234
v -44.181763 2.936578 39.676102
v -37.711548 6.910036 38.765564
v -32.455566 2.112572 43.127701
v -25.935791 7.496276 37.015015
v -18.609009 4.284571 40.119125
v -12.641113 8.453433 35.818375
v -5.448486 4.353317 32.704971
v 0.508911 7.734989 39.208282
v 8.290894 4.388047 34.411148
v 15.002808 9.367412 32.299988
v 25.594360 6.134818 19.527298
v 33.794922 9.659981 37.410614
v 42.597412 5.229515 33.520721
v 42.824463 0.835752 33.328644
v 33.934937 5.369215 37.655121
v 24.133545 1.926557 21.561951
v 16.757080 4.734217 31.579819
v 8.117432 0.308974 32.162018
v 0.843506 3.569537 37.579544
v -1.157471 -0.320802 -50.339005
v 5.884766 3.019743 -49.478203
v 12.450928 -2.789300 -47.200027
v 19.053955 0.900192 -49.337578
v 24.619873 -4.015654 -51.974052
v 33.258423 0.616168 -47.930496
v 40.509277 -3.231598 -50.285858
v 40.627686 1.144638 -50.732307
v 33.561401 5.154264 -47.257393
v 24.161499 0.103670 -54.146858
v 19.446289 5.439695 -48.636360
v 12.693604 1.326153 -49.657494
v 6.032471 6.921819 -50.383011
v -0.802979 4.286819 -48.527962
v -8.189209 6.955606 -51.501732
v -14.306030 4.167263 -54.818146
v -22.366211 7.359100 -39.213882
v -29.751099 3.825910 -43.221794
v -37.750854 10.837973 -28.324509
v -44.310547 6.418849 -30.609390
v -43.175049 1.310153 -34.447983
v -37.714600 5.779069 -32.101990
v -29.751709 -1.253435 -47.132660
v -22.481079 3.176851 -43.098854
v -14.766113 -0.544551 -58.071510
v -8.295166 2.835616 -52.324852
vt 0.941673 0.090881
vt 0.939909 0.095752
vt 0.100088 0.255417
vt 0.100088 0.255417
vt 0.904195 0.060366
vt 0.909606 0.060151
vt 0.100088 0.255417
vt 0.100088 0.255417
vt 0.909442 0.059877
vt 0.905000 0.060967
vt 0.100088 0.255417
vt 0.100088 0.255417
vt 0.100088 0.255417
vt 0.100088 0.255417
vt 0.941471 0.097407
vt 0.943173 0.092575
vt 0.887594 0.039552
vt 0.887618 0.039507
vt 0.100088 0.255417
vt 0.100088 0.255417
vt 0.890910 0.036459
vt 0.100088 0.255417
vt 0.100088 0.255417
vt 0.100088 0.255417
vt 0.890834 0.036443
vt 0.100088 0.255417
vt 0.100088 0.255417
vt 0.100088 0.255417
vt 0.100088 0.255417
vt 0.964486 0.076896
vt 0.961817 0.080231
vt 0.926240 0.046541
vt 0.930141 0.044549
vt 0.978273 0.097054
vt 0.978397 0.097072
vt 0.100088 0.255417
vt 0.981910 0.094134
vt 0.981749 0.094069
vt 0.100088 0.255417
vt 0.100088 0.255417
vt 0.100088 0.255417
vt 0.931227 0.044100
vt 0.927059 0.047567
vt 0.100088 0.255417
vt 0.100088 0.255417
vt 0.960725 0.079295
vt 0.964587 0.077362
vt 0.893707 0.032770
vt 0.893618 0.032746
vt 0.920779 0.047855
vt 0.959072 0.083401
vt 0.100088 0.255417
vt 0.974861 0.100009
vt 0.100088 0.255417
vt 0.100088 0.255417
vt 0.974975 0.100020
vt 0.100088 0.255417
vt 0.921581 0.048401
vt 0.100088 0.255417
vt 0.100088 0.255417
vt 0.958644 0.083082
vt 0.903670 0.023909
vt 0.903787 0.023955
vt 0.907140 0.020842
vt 0.907029 0.020833
vt 0.920661 0.053169
vt 0.955217 0.085554
vt 0.971348 0.103102
vt 0.971492 0.103123
vt 0.920612 0.053320
vt 0.955779 0.086473
vt 0.900530 0.027005
vt 0.900634 0.027029
vt 0.968138 0.106215
vt 0.968251 0.106225
vt 0.100088 0.255417
vt 0.100088 0.255417
vt 0.100088 0.255417
vt 0.964739 0.109399
vt 0.100088 0.255417
vt 0.100088 0.255417
vt 0.964878 0.109421
vt 0.100088 0.255417
vt 0.100088 0.255417
vt 0.100088 0.255417
vt 0.100088 0.255417
vt 0.100088 0.255417
vt 0.100088 0.255417
vt 0.987436 0.087109
vt 0.987592 0.087155
vt 0.100088 0.255417
vt 0.100088 0.255417
vt 0.100088 0.255417
vt 0.100088 0.255417
vt 0.990789 0.084020
vt 0.100088 0.255417
vt 0.100088 0.255417
vt 0.100088 0.255417
vt 0.100088 0.255417
vt 0.100088 0.255417
vt 0.100088 0.255417
vt 0.100088 0.255417
vt 0.100088 0.255417
vt 0.100088 0.255417
vt 0.100088 0.255417
vt 0.990670 0.084004
vt 0.100088 0.255417
vt 0.917316 0.011749
vt 0.917397 0.011755
vt 0.920916 0.008647
vt 0.100088 0.255417
vt 0.100088 0.255417
vt 0.100088 0.255417
vt 0.100088 0.255417
vt 0.100088 0.255417
vt 0.100088 0.255417
vt 0.920831 0.008644
vt 0.983945 0.090161
vt 0.984191 0.090281
vt 0.100088 0.255417
vt 0.100088 0.255417
vt 0.100088 0.255417
vt 0.100088 0.255417
vt 0.100088 0.255417
vt 0.100088 0.255417
vt 0.100088 0.255417
vt 0.100088 0.255417
vt 0.100088 0.255417
vt 0.100088 0.255417
vt 0.100088 0.255417
vt 0.100088 0.255417
vt 0.100088 0.255417
vt 0.100088 0.255417
vt 0.100088 0.255417
vt 0.100088 0.255417
vt 0.100088 0.255417
vt 0.100088 0.255417
vt 0.968835 0.077202
vt 0.940067 0.045403
vt 0.938589 0.045169
vt 0.968176 0.076085
vt 0.954565 0.118517
vt 0.954675 0.118525
vt 0.958101 0.115572
vt 0.957941 0.115524
vt 0.884165 0.042612
vt 0.884243 0.042625
vt 0.951136 0.121620
vt 0.951248 0.121629
vt 0.881048 0.045867
vt 0.881132 0.045885
vt 0.912078 0.056051
vt 0.903380 0.064185
vt 0.900375 0.066946
vt 0.900231 0.066867
vt 0.903542 0.064472
vt 0.911704 0.055688
vt 0.942225 0.032171
vt 0.936661 0.034308
vt 0.942405 0.032155
vt 0.936628 0.034145
vt 0.970497 0.070660
vt 0.974741 0.068541
vt 0.974973 0.068679
vt 0.970366 0.070245
vt 0.953040 0.089988
vt 0.951577 0.094021
vt 0.930316 0.092885
vt 0.928240 0.096672
vt 0.930290 0.097808
vt 0.931841 0.094468
vt 0.953320 0.090382
vt 0.952667 0.095596
vn -0.535091 0.844668 -0.014652
vn -0.535091 0.844668 -0.014652
vn -0.535091 0.844668 -0.014652
vn -0.535090 0.844668 -0.014652
vn -0.092342 -0.041591 -0.994858
vn -0.092342 -0.041591 -0.994858
vn -0.092342 -0.041591 -0.994858
vn -0.092342 -0.041591 -0.994858
vn 0.569240 -0.821975 0.017995
vn 0.569240 -0.821975 0.017995
vn 0.569240 -0.821975 0.017995
vn 0.569240 -0.821975 0.017995
vn 0.008239 -0.009647 0.999920
vn 0.008239 -0.009647 0.999920
vn 0.008239 -0.009647 0.999920
vn 0.008239 -0.009647 0.999920
vn 0.038175 -0.025665 0.998941
vn 0.038175 -0.025665 0.998941
vn 0.038175 -0.025665 0.998941
vn 0.038175 -0.025665 0.998941
vn -0.550692 0.831385 -0.074409
vn -0.550692 0.831385 -0.074409
vn -0.550692 0.831385 -0.074409
vn -0.550692 0.831385 -0.074409
vn -0.063164 -0.053451 -0.996571
vn -0.063164 -0.053451 -0.996571
vn -0.063164 -0.053451 -0.996571
vn -0.063164 -0.053451 -0.996571
vn 0.515478 -0.853934 0.071278
vn 0.515478 -0.853934 0.071278
vn 0.515478 -0.853934 0.071278
vn 0.515478 -0.853934 0.071278
vn 0.385250 0.922624 0.018623
vn 0.385250 0.922624 0.018623
vn 0.385250 0.922624 0.018623
vn 0.385250 0.922624 0.018623
vn -0.189340 -0.031876 0.981394
vn -0.189341 -0.031876 0.981394
vn -0.189340 -0.031876 0.981394
vn -0.189340 -0.031876 0.981394
vn -0.417758 -0.908358 -0.019068
vn -0.417758 -0.908358 -0.019068
vn -0.417758 -0.908358 -0.019068
vn -0.417758 -0.908358 -0.019068
vn 0.058724 -0.038031 -0.997550
vn 0.058724 -0.038031 -0.997550
vn 0.058724 -0.038031 -0.997550
vn 0.058724 -0.038031 -0.997550
vn 0.524252 0.851449 0.013959
vn 0.524252 0.851449 0.013959
vn 0.524252 0.851449 0.013959
vn 0.524252 0.851449 0.013959
vn -0.069553 -0.034363 -0.996986
vn -0.069553 -0.034363 -0.996986
vn -0.069553 -0.034363 -0.996986
vn -0.069553 -0.034363 -0.996986
vn -0.546186 -0.837537 -0.014612
vn -0.546186 -0.837537 -0.014612
vn -0.546186 -0.837537 -0.014612
vn -0.546186 -0.837537 -0.014612
vn -0.020126 -0.036519 0.999130
vn -0.020126 -0.036519 0.999130
vn -0.020126 -0.036519 0.999130
vn -0.020126 -0.036519 0.999130
vn -0.440090 0.897118 -0.038726
vn -0.440090 0.897118 -0.038726
vn -0.440090 0.897118 -0.038726
vn -0.440090 0.897118 -0.038726
vn -0.001834 -0.036080 -0.999347
vn -0.001834 -0.036080 -0.999347
vn -0.001834 -0.036080 -0.999347
vn -0.001834 -0.036080 -0.999347
vn 0.462996 -0.885603 0.036629
vn 0.462996 -0.885603 0.036629
vn 0.462996 -0.885603 0.036629
vn 0.462996 -0.885603 0.036629
vn 0.004192 -0.039952 0.999193
vn 0.004192 -0.039952 0.999193
vn 0.004192 -0.039952 0.999193
vn 0.004192 -0.039952 0.999193
vn 0.416992 0.908760 0.016517
vn 0.416992 0.908760 0.016517
vn 0.416992 0.908760 0.016517
vn 0.416992 0.908760 0.016517
vn -0.012193 -0.035589 -0.999292
vn -0.012193 -0.035589 -0.999292
vn -0.012193 -0.035589 -0.999292
vn -0.012193 -0.035589 -0.999292
vn -0.464091 -0.885607 -0.017892
vn -0.464091 -0.885607 -0.017892
vn -0.464091 -0.885607 -0.017892
vn -0.464091 -0.885607 -0.017892
vn 0.162336 -0.025596 0.986404
vn 0.162336 -0.025596 0.986404
vn 0.162336 -0.025596 0.986404
vn 0.162336 -0.025596 0.986404
vn -0.490020 0.870923 -0.037059
vn -0.490020 0.870923 -0.037059
vn -0.490020 0.870923 -0.037059
vn -0.490020 0.870923 -0.037059
vn 0.033243 -0.037722 -0.998735
vn 0.033243 -0.037722 -0.998735
vn 0.033243 -0.037722 -0.998735
vn 0.033243 -0.037722 -0.998735
vn 0.516445 -0.855577 0.035685
vn 0.516445 -0.855577 0.035685
vn 0.516445 -0.855577 0.035685
vn 0.516445 -0.855577 0.035685
vn -0.011404 -0.026742 0.999577
vn -0.011404 -0.026742 0.999577
vn -0.011404 -0.026742 0.999577
vn -0.011404 -0.026742 0.999577
vn 0.458413 0.886831 -0.058211
vn 0.458413 0.886831 -0.058211
vn 0.458413 0.886831 -0.058211
vn 0.458413 0.886831 -0.058211
vn -0.013653 -0.045667 -0.998863
vn -0.013653 -0.045667 -0.998863
vn -0.013653 -0.045667 -0.998863
vn -0.013653 -0.045667 -0.998863
vn -0.445603 -0.893088 0.061902
vn -0.445603 -0.893088 0.061902
vn -0.445604 -0.893088 0.061902
vn -0.445603 -0.893088 0.061902
vn 0.022958 -0.023185 0.999468
vn 0.022958 -0.023185 0.999468
vn 0.022958 -0.023185 0.999468
vn 0.022958 -0.023185 0.999468
vn -0.459847 0.886105 -0.057950
vn -0.459847 0.886105 -0.057950
vn -0.459847 0.886105 -0.057950
vn -0.459847 0.886105 -0.057950
vn 0.015101 -0.079657 -0.996708
vn 0.015101 -0.079657 -0.996708
vn 0.015101 -0.079657 -0.996708
vn 0.015101 -0.079657 -0.996708
vn 0.465409 -0.883372 0.055204
vn 0.465409 -0.883372 0.055204
vn 0.465409 -0.883372 0.055204
vn 0.465409 -0.883372 0.055204
vn 0.031582 -0.024139 0.999210
vn 0.031582 -0.024139 0.999210
vn 0.031582 -0.024139 0.999210
vn 0.031582 -0.024139 0.999210
vn 0.505381 0.861565 -0.047904
vn 0.505381 0.861565 -0.047904
vn 0.505381 0.861565 -0.047904
vn 0.505381 0.861565 -0.047904
vn 0.224829 -0.096018 -0.969656
vn 0.224829 -0.096018 -0.969656
vn 0.224829 -0.096018 -0.969656
vn 0.224829 -0.096018 -0.969656
vn -0.471964 -0.880238 0.049315
vn -0.471964 -0.880238 0.049315
vn -0.471964 -0.880238 0.049315
vn -0.471964 -0.880238 0.049315
vn 0.036437 -0.024472 0.999036
vn 0.036437 -0.024472 0.999036
vn 0.036437 -0.024472 0.999036
vn 0.036437 -0.024472 0.999036
vn 0.654323 0.755126 0.040566
vn 0.654323 0.755126 0.040566
vn 0.654323 0.755126 0.040566
vn 0.654323 0.755126 0.040566
vn -0.065740 -0.041998 -0.996953
vn -0.065740 -0.041998 -0.996953
vn -0.065740 -0.041998 -0.996953
vn -0.065740 -0.041998 -0.996953
vn -0.640062 -0.767637 -0.032453
vn -0.640062 -0.767637 -0.032453
vn -0.640062 -0.767637 -0.032453
vn -0.640062 -0.767637 -0.032453
vn 0.015678 -0.008932 0.999837
vn 0.015678 -0.008932 0.999837
vn 0.015678 -0.008932 0.999837
vn 0.015678 -0.008932 0.999837
vn -0.533441 0.844918 0.039422
vn -0.533441 0.844918 0.039422
vn -0.533441 0.844918 0.039422
vn -0.533441 0.844918 0.039422
vn -0.004963 -0.032069 -0.999473
vn -0.004963 -0.032069 -0.999473
vn -0.004963 -0.032069 -0.999473
vn -0.004963 -0.032069 -0.999473
vn 0.563050 -0.825892 -0.029604
vn 0.563050 -0.825892 -0.029604
vn 0.563050 -0.825892 -0.029604
vn 0.563050 -0.825892 -0.029604
vn -0.039546 -0.026892 0.998856
vn -0.039546 -0.026892 0.998856
vn -0.039546 -0.026892 0.998856
vn -0.039546 -0.026892 0.998856
vn 0.999486 0.012643 -0.029446
vn 0.999486 0.012643 -0.029446
vn 0.999486 0.012643 -0.029446
vn 0.999486 0.012643 -0.029446
vn -0.991487 -0.129820 -0.010019
vn -0.991487 -0.129820 -0.010019
vn -0.991487 -0.129820 -0.010019
vn -0.991487 -0.129820 -0.010019
vn -0.335832 -0.936822 0.097888
vn -0.335832 -0.936822 0.097888
vn -0.335832 -0.936822 0.097888
vn -0.335832 -0.936822 0.097888
vn 0.586936 -0.809204 -0.026365
vn 0.586936 -0.809204 -0.026365
vn 0.586936 -0.809204 -0.026365
vn 0.586936 -0.809204 -0.026365
vn -0.385906 -0.921527 0.043185
vn -0.385906 -0.921527 0.043185
vn -0.385906 -0.921527 0.043185
vn -0.385906 -0.921527 0.043185
vn 0.633620 -0.772674 -0.038731
vn 0.633620 -0.772674 -0.038731
vn 0.633620 -0.772674 -0.038731
vn 0.633620 -0.772674 -0.038731
vn -0.553924 -0.832427 0.015280
vn -0.553924 -0.832427 0.015280
vn -0.553924 -0.832427 0.015280
vn -0.553924 -0.832427 0.015280
vn 0.506588 -0.861880 -0.023043
vn 0.506588 -0.861880 -0.023043
vn 0.506588 -0.861880 -0.023043
vn 0.506588 -0.861880 -0.023043
vn -0.999755 -0.018025 0.012865
vn -0.999755 -0.018025 0.012865
vn -0.999755 -0.018025 0.012865
vn -0.999755 -0.018025 0.012865
vn -0.514571 0.857100 0.024428
vn -0.514571 0.857100 0.024428
vn -0.514571 0.857100 0.024428
vn -0.514571 0.857100 0.024428
vn 0.569716 0.821643 -0.018092
vn 0.569716 0.821643 -0.018092
vn 0.569716 0.821643 -0.018092
vn 0.569716 0.821643 -0.018092
vn -0.630363 0.775228 0.040792
vn -0.630363 0.775228 0.040792
vn -0.630363 0.775228 0.040792
vn -0.630363 0.775228 0.040792
vn 0.365179 0.930205 -0.036914
vn 0.365179 0.930205 -0.036914
vn 0.365180 0.930205 -0.036914
vn 0.365180 0.930205 -0.036914
vn -0.525070 0.850479 0.031429
vn -0.525070 0.850479 0.031429
vn -0.525070 0.850479 0.031429
vn -0.525070 0.850479 0.031429
vn 0.246323 0.966050 -0.077925
vn 0.246323 0.966050 -0.077925
vn 0.246323 0.966050 -0.077925
vn 0.246323 0.966050 -0.077925
vn -0.520438 0.853247 -0.033382
vn -0.520438 0.853247 -0.033382
vn -0.520438 0.853247 -0.033382
vn -0.520438 0.853247 -0.033382
vn 0.548846 0.825829 -0.129518
vn 0.548846 0.825829 -0.129518
vn 0.548846 0.825829 -0.129518
vn 0.548846 0.825829 -0.129518
vn -0.576656 0.816864 0.014211
vn -0.576656 0.816864 0.014211
vn -0.576656 0.816864 0.014211
vn -0.576656 0.816864 0.014211
vn 0.502661 0.861609 -0.070448
vn 0.502661 0.861609 -0.070448
vn 0.502661 0.861609 -0.070448
vn 0.502661 0.861609 -0.070448
vn -0.346923 0.937079 0.039086
vn -0.346923 0.937079 0.039086
vn -0.346923 0.937079 0.039086
vn -0.346923 0.937079 0.039086
vn 0.459994 0.887865 0.010089
vn 0.459994 0.887865 0.010089
vn 0.459994 0.887865 0.010089
vn 0.459994 0.887865 0.010089
vn 0.999211 0.036595 -0.015444
vn 0.999211 0.036595 -0.015444
vn 0.999211 0.036595 -0.015444
vn 0.999211 0.036595 -0.015444
vn -0.462628 -0.886477 -0.011577
vn -0.462628 -0.886477 -0.011577
vn -0.462628 -0.886477 -0.011577
vn -0.462628 -0.886477 -0.011577
vn 0.396090 -0.917156 -0.044024
vn 0.396090 -0.917156 -0.044024
vn 0.396090 -0.917156 -0.044024
vn 0.396090 -0.917156 -0.044024
vn -0.525436 -0.848123 0.067856
vn -0.525436 -0.848123 0.067856
vn -0.525436 -0.848123 0.067856
vn -0.525436 -0.848123 0.067856
vn 0.584683 -0.810874 -0.025055
vn 0.584683 -0.810874 -0.025055
vn 0.584683 -0.810875 -0.025055
vn 0.584683 -0.810874 -0.025055
vn -0.584891 -0.801041 0.127415
vn -0.584891 -0.801041 0.127415
vn -0.584891 -0.801041 0.127415
vn -0.584891 -0.801041 0.127415
vn 0.515301 -0.856357 0.033423
vn 0.515301 -0.856357 0.033423
vn 0.515301 -0.856357 0.033423
vn 0.515301 -0.856357 0.033423
vn 0.580334 -0.809440 -0.089550
vn 0.580334 -0.809440 -0.089550
vn 0.580334 -0.809440 -0.089550
vn 0.580334 -0.809440 -0.089550
vn -0.611494 -0.780609 -0.129322
vn -0.611494 -0.780609 -0.129322
vn -0.611494 -0.780609 -0.129322
vn -0.611494 -0.780609 -0.129322
vn 0.234395 -0.964987 -0.117728
vn 0.234395 -0.964987 -0.117728
vn 0.234395 -0.964987 -0.117728
vn 0.234395 -0.964987 -0.117728
vn -0.664458 -0.742831 -0.081839
vn -0.664458 -0.742831 -0.081839
vn -0.664458 -0.742831 -0.081839
vn -0.664458 -0.742831 -0.081839
vn 0.465321 -0.884779 -0.025361
vn 0.465321 -0.884779 -0.025361
vn 0.465321 -0.884779 -0.025361
vn 0.465321 -0.884779 -0.025361
vn -0.507932 -0.859916 -0.050498
vn -0.507932 -0.859916 -0.050498
vn -0.507932 -0.859916 -0.050498
vn -0.507932 -0.859916 -0.050498
vn 0.999140 -0.027653 0.030902
vn 0.999140 -0.027653 0.030902
vn 0.999140 -0.027653 0.030902
vn 0.999140 -0.027653 0.030902
vn 0.516594 0.854900 0.047709
vn 0.516594 0.854900 0.047709
vn 0.516594 0.854900 0.047709
vn 0.516594 0.854900 0.047709
vn -0.469069 0.882886 0.022052
vn -0.469069 0.882886 0.022052
vn -0.469070 0.882886 0.022052
vn -0.469069 0.882886 0.022052
vn 0.676543 0.732384 0.076827
vn 0.676543 0.732384 0.076827
vn 0.676543 0.732384 0.076827
vn 0.676543 0.732384 0.076827
vn -0.192649 0.974793 0.112535
vn -0.192649 0.974793 0.112535
vn -0.192649 0.974793 0.112535
vn -0.192649 0.974793 0.112535
vn 0.595741 0.792179 0.132457
vn 0.595741 0.792179 0.132457
vn 0.595741 0.792179 0.132457
vn 0.595741 0.792179 0.132457
vn -0.516670 0.850303 0.100181
vn -0.516670 0.850303 0.100181
vn -0.516670 0.850303 0.100181
vn -0.516670 0.850303 0.100181
vn 0.407315 0.908719 0.091236
vn 0.407316 0.908719 0.091236
vn 0.407316 0.908719 0.091236
vn 0.407315 0.908719 0.091236
vn -0.581182 0.809531 0.082989
vn -0.581182 0.809531 0.082989
vn -0.581182 0.809531 0.082989
vn -0.581182 0.809531 0.082989
vn 0.384866 0.922139 0.039213
vn 0.384866 0.922139 0.039213
vn 0.384866 0.922139 0.039213
vn 0.384866 0.922139 0.039213
vn -0.466671 0.883527 0.039975
vn -0.466671 0.883527 0.039975
vn -0.466671 0.883527 0.039975
vn -0.466671 0.883527 0.039975
vn 0.594470 0.804115 0.002115
vn 0.594470 0.804115 0.002115
vn 0.594470 0.804115 0.002115
vn 0.594470 0.804115 0.002115
vn -0.515661 0.856647 -0.015789
vn -0.515661 0.856647 -0.015789
vn -0.515661 0.856647 -0.015789
vn -0.515661 0.856647 -0.015789
vn -0.994670 -0.098606 0.030133
vn -0.994670 -0.098606 0.030133
vn -0.994670 -0.098606 0.030133
vn -0.994670 -0.098606 0.030133
vn 0.547143 -0.836996 -0.008544
vn 0.547143 -0.836996 -0.008544
vn 0.547143 -0.836996 -0.008544
vn 0.547143 -0.836996 -0.008544
vn -0.594745 -0.803830 -0.011622
vn -0.594745 -0.803830 -0.011622
vn -0.594745 -0.803830 -0.011622
vn -0.594745 -0.803830 -0.011622
vn 0.504513 -0.862299 -0.043665
vn 0.504513 -0.862299 -0.043665
vn 0.504513 -0.862299 -0.043665
vn 0.504513 -0.862299 -0.043665
vn -0.439199 -0.897693 -0.035370
vn -0.439199 -0.897693 -0.035370
vn -0.439199 -0.897693 -0.035370
vn -0.439199 -0.897693 -0.035370
vn 0.602301 -0.794528 -0.077194
vn 0.602301 -0.794528 -0.077194
vn 0.602301 -0.794528 -0.077194
vn 0.602301 -0.794528 -0.077194
vn -0.484497 -0.870689 -0.084644
vn -0.484496 -0.870689 -0.084644
vn -0.484497 -0.870689 -0.084644
vn -0.484497 -0.870689 -0.084644
s off
f 95/1/1 96/2/2 62/5/3 63/6/4
f 7/8/5 6/7/6 3/3/7 4/4/8
f 56/9/9 57/10/10 101/15/11 102/16/12
f 5/17/13 8/18/14 1/21/15 2/25/16
f 10/11/17 11/12/18 44/13/19 41/14/20
f 89/30/21 90/31/22 68/32/23 69/33/24
f 12/34/25 9/35/26 42/37/27 43/38/28
f 76/42/29 77/43/30 81/46/31 82/47/32
f 63/91/33 64/92/34 94/122/35 95/124/36
f 1/21/37 28/48/38 25/49/39 2/25/40
f 102/135/41 103/136/42 55/78/43 56/80/44
f 3/24/45 26/23/46 27/28/47 4/27/48
f 67/50/49 68/32/50 90/31/51 91/51/52
f 15/53/53 14/56/54 9/35/55 12/34/56
f 77/43/57 78/58/58 80/61/59 81/46/60
f 13/62/61 16/63/62 11/64/63 10/65/64
f 66/66/65 67/50/66 91/51/67 92/67/68
f 19/68/69 18/69/70 14/56/71 15/53/72
f 78/58/73 53/70/74 79/71/75 80/61/76
f 17/72/77 20/73/78 16/63/79 13/62/80
f 65/93/81 66/94/82 92/120/83 93/121/84
f 23/74/85 22/75/86 18/69/87 19/68/88
f 53/76/89 54/77/90 104/137/91 79/107/92
f 21/41/93 24/45/94 20/40/95 17/36/96
f 64/92/97 65/93/98 93/121/99 94/122/100
f 27/79/101 26/82/102 22/75/103 23/74/104
f 54/77/105 55/78/106 103/136/107 104/137/108
f 25/22/109 28/26/110 24/45/111 21/41/112
f 86/114/113 87/115/114 71/99/115 72/100/116
f 35/89/117 34/90/118 30/95/119 31/106/120
f 73/101/121 74/102/122 84/112/123 85/113/124
f 33/108/125 36/109/126 32/110/127 29/117/128
f 87/115/129 88/116/130 70/98/131 71/99/132
f 39/118/133 38/119/134 34/90/135 35/89/136
f 74/102/137 75/103/138 83/111/139 84/112/140
f 37/57/141 40/60/142 36/55/143 33/52/144
f 88/138/145 89/30/146 69/33/147 70/139/148
f 43/38/149 42/37/150 38/119/151 39/118/152
f 75/140/153 76/42/154 82/47/155 83/141/156
f 41/14/157 44/13/158 40/60/159 37/57/160
f 96/125/161 97/127/162 61/87/163 62/88/164
f 47/142/165 46/143/166 6/144/167 7/145/168
f 57/81/169 58/83/170 100/131/171 101/132/172
f 45/146/173 48/147/174 8/18/175 5/17/176
f 97/127/177 98/128/178 60/86/179 61/87/180
f 51/148/181 50/149/182 46/143/183 47/142/184
f 58/83/185 59/85/186 99/130/187 100/131/188
f 49/150/189 52/151/190 48/147/191 45/146/192
f 85/113/193 86/114/194 72/100/195 73/101/196
f 98/128/197 99/129/198 59/84/199 60/86/200
f 24/44/201 54/77/202 53/76/203 20/39/204
f 28/29/205 55/78/206 54/77/207 24/44/208
f 56/9/209 55/152/210 28/48/211 1/21/212
f 8/18/213 57/10/214 56/9/215 1/21/216
f 48/147/217 58/153/218 57/10/219 8/18/220
f 52/151/221 59/154/222 58/153/223 48/147/224
f 60/155/225 59/154/226 52/151/227 49/150/228
f 61/156/229 60/155/230 49/150/231 45/146/232
f 62/5/233 61/156/234 45/146/235 5/17/236
f 63/6/237 62/5/238 5/17/239 2/25/240
f 2/25/241 25/49/242 64/157/243 63/6/244
f 25/22/245 21/41/246 65/93/247 64/92/248
f 21/41/249 17/36/250 66/94/251 65/93/252
f 17/72/253 13/62/254 67/50/255 66/66/256
f 13/62/257 10/65/258 68/32/259 67/50/260
f 69/97/261 68/96/262 10/11/263 41/14/264
f 70/98/265 69/97/266 41/14/267 37/57/268
f 71/99/269 70/98/270 37/57/271 33/52/272
f 72/158/273 71/159/274 33/108/275 29/117/276
f 73/160/277 72/158/278 29/117/279 32/110/280
f 36/109/281 74/161/282 73/160/283 32/110/284
f 40/59/285 75/103/286 74/102/287 36/54/288
f 44/20/289 76/104/290 75/103/291 40/59/292
f 11/19/293 77/105/294 76/104/295 44/20/296
f 16/63/297 78/58/298 77/43/299 11/64/300
f 20/73/301 53/70/302 78/58/303 16/63/304
f 80/61/305 79/71/306 19/68/307 15/53/308
f 81/46/309 80/61/310 15/53/311 12/34/312
f 82/47/313 81/46/314 12/34/315 43/38/316
f 83/141/317 82/47/318 43/38/319 39/118/320
f 84/162/321 83/141/322 39/118/323 35/89/324
f 85/163/325 84/162/326 35/89/327 31/106/328
f 30/95/329 86/164/330 85/163/331 31/106/332
f 34/90/333 87/165/334 86/164/335 30/95/336
f 38/119/337 88/138/338 87/165/339 34/90/340
f 42/37/341 89/30/342 88/138/343 38/119/344
f 9/35/345 90/31/346 89/30/347 42/37/348
f 91/51/349 90/31/350 9/35/351 14/56/352
f 92/67/353 91/51/354 14/56/355 18/69/356
f 93/166/357 92/67/358 18/69/359 22/75/360
f 94/167/361 93/166/362 22/75/363 26/82/364
f 95/124/365 94/122/366 26/23/367 3/24/368
f 6/7/369 96/126/370 95/123/371 3/3/372
f 46/143/373 97/168/374 96/2/375 6/144/376
f 50/149/377 98/169/378 97/168/379 46/143/380
f 50/149/381 51/148/382 99/170/383 98/169/384
f 100/171/385 99/170/386 51/148/387 47/142/388
f 101/15/389 100/171/390 47/142/391 7/145/392
f 102/134/393 101/133/394 7/8/395 4/4/396
f 4/27/397 27/28/398 103/136/399 102/135/400
f 104/172/401 103/173/402 27/79/403 23/74/404
f 79/71/405 104/172/406 23/74/407 19/68/408
