# This file uses centimeters as units for non-parametric coordinates.

v -139.032227 -0.341582 91.557312
v 114.756592 8.134459 24.461670
v -139.032227 4.859875 91.557312
v 115.118164 4.975593 20.176575
v -139.032227 4.859875 -91.582916
v 138.644531 4.859875 -91.582916
v -139.032227 -0.341582 -91.582916
v 138.644531 -0.341582 -91.582916
v -14.439453 -0.341582 91.199890
v -9.234863 -0.341582 -91.363434
v -9.234863 4.859875 -91.363434
v -14.439453 4.859875 91.199890
v -80.769043 -0.341582 91.557312
v -81.879883 4.859875 91.557312
v -139.032227 4.859875 22.945190
v -139.032227 -0.341582 21.611084
v -135.635742 3.287786 -5.657867
v -65.302002 3.287786 87.583984
v -66.416748 8.489244 87.583984
v -135.635742 8.489244 -4.179504
v -140.966309 -0.341582 -21.753540
v -44.687500 -0.341582 91.557312
v -46.262207 4.859875 91.557312
v -140.966309 4.859875 -19.862244
v 138.644531 4.266551 -4.144165
v -139.032227 4.301408 -41.811462
v 138.644531 -0.934907 -4.264832
v -9.234863 7.672574 -24.287598
v -139.032227 9.502864 -41.690796
v -139.032227 -0.341582 -59.110016
v -9.234863 4.859875 -52.683380
v -139.032227 4.859875 -58.726837
v -140.966309 4.859875 -32.294769
v -140.966309 -0.341582 -32.284088
v -9.234863 4.859875 -14.173340
v 138.644531 4.859875 35.983154
v 38.305420 -0.341582 93.514709
v 35.558838 4.859875 91.557312
v 140.966553 -0.341582 38.169128
v 135.075928 6.508045 41.317749
v 80.247559 6.785749 78.718628
v 76.093018 5.198394 75.258118
v 134.236084 9.488701 47.968201
v 67.591309 1.842990 86.275757
v 136.695068 4.090586 48.482483
v 65.438232 4.237879 79.404236
v -110.196777 -0.779712 86.571960
v -110.689209 4.421746 86.571960
v -53.318604 4.421746 -96.568237
v -52.826172 -0.779712 -96.568237
v -102.534912 4.421746 60.541565
v -104.325684 8.051113 40.464966
v -100.307373 4.421744 28.975769
v -71.339600 9.064734 -39.561310
v -64.576172 4.421744 -60.631989
v -73.213379 4.421744 -33.059418
v 23.502686 0.165359 96.568237
v 90.267090 0.165358 -87.912567
v 90.339600 5.366814 -87.912567
v 24.060791 5.366814 95.227661
v 64.476807 8.179515 -7.237579
v 75.156982 5.366815 -45.959747
v 59.895264 5.366814 9.240112
vt 0.687770 0.250876
vt 0.666992 0.290157
vt 0.626637 0.250876
vt 0.748884 0.250876
vt 0.626637 0.374778
vt 0.687770 0.374778
vt 0.748884 0.374778
vt 0.687752 0.374778
vt 0.687752 0.250876
vt 0.695175 0.263379
vt 0.632805 0.359765
vt 0.695174 0.263379
vt 0.695175 0.263379
vt 0.695174 0.263379
vt 0.632805 0.359764
vt 0.695175 0.263379
vt 0.695174 0.263379
vt 0.632805 0.359765
vt 0.632805 0.359765
vt 0.632805 0.359764
vt 0.632805 0.359764
vt 0.632805 0.359765
vt 0.651795 0.250876
vt 0.632805 0.359764
vt 0.632805 0.359764
vt 0.626637 0.297295
vt 0.632805 0.359765
vt 0.632805 0.359765
vt 0.632805 0.359765
vt 0.657107 0.250876
vt 0.632805 0.359764
vt 0.632805 0.359764
vt 0.626637 0.312958
vt 0.632805 0.359765
vt 0.632805 0.359765
vt 0.667474 0.250876
vt 0.632805 0.359764
vt 0.632805 0.359764
vt 0.626637 0.326256
vt 0.748884 0.319012
vt 0.695175 0.263379
vt 0.632805 0.359765
vt 0.695174 0.263379
vt 0.687770 0.332788
vt 0.687752 0.332788
vt 0.632805 0.359764
vt 0.626637 0.346565
vt 0.632805 0.359765
vt 0.687770 0.350781
vt 0.687752 0.350781
vt 0.632805 0.359764
vt 0.626637 0.354721
vt 0.632805 0.359764
vt 0.626637 0.339910
vt 0.632805 0.359765
vt 0.687770 0.322555
vt 0.687752 0.322555
vt 0.748884 0.288474
vt 0.695175 0.263379
vt 0.695174 0.263379
vt 0.666992 0.290157
vt 0.703508 0.250876
vt 0.695175 0.263379
vt 0.666992 0.290157
vt 0.695174 0.263379
vt 0.748884 0.277269
vt 0.695175 0.263379
vt 0.695174 0.263379
vt 0.666992 0.290157
vt 0.724062 0.250876
vt 0.695175 0.263379
vt 0.666992 0.290157
vt 0.695174 0.263379
vt 0.695174 0.263379
vt 0.666992 0.290157
vt 0.666992 0.290157
vt 0.695174 0.263379
vt 0.718659 0.250876
vt 0.695175 0.263379
vt 0.632805 0.359765
vt 0.638661 0.250876
vt 0.632805 0.359764
vt 0.632805 0.359764
vt 0.663915 0.374778
vt 0.632805 0.359765
vt 0.642251 0.268486
vt 0.643274 0.279060
vt 0.646538 0.289521
vt 0.655982 0.339950
vt 0.658960 0.352637
vt 0.655158 0.331811
vt 0.695174 0.263379
vt 0.695174 0.263379
vt 0.695175 0.263379
vt 0.728797 0.374778
vt 0.699621 0.250876
vt 0.695175 0.263379
vt 0.716602 0.326289
vt 0.722113 0.348567
vt 0.714699 0.314908
vt 0.632805 0.359764
vt 0.632805 0.359765
vt 0.695174 0.263379
vt 0.695175 0.263379
vn -0.122652 0.133314 0.983455
vn -0.122652 0.133314 0.983455
vn -0.122652 0.133314 0.983455
vn -0.122652 0.133314 0.983455
vn -0.005454 0.999985 -0.001027
vn -0.005454 0.999985 -0.001027
vn -0.005454 0.999985 -0.001027
vn -0.005454 0.999985 -0.001027
vn 0.034649 -0.000242 -0.999399
vn 0.034649 -0.000242 -0.999399
vn 0.034649 -0.000242 -0.999399
vn 0.034649 -0.000242 -0.999399
vn 0.407496 0.814676 -0.412613
vn 0.407496 0.814676 -0.412613
vn 0.407496 0.814676 -0.412613
vn 0.407496 0.814676 -0.412613
vn -1.000000 0.000003 0.000000
vn -1.000000 0.000003 0.000000
vn -1.000000 0.000003 0.000000
vn -1.000000 0.000003 0.000000
vn -0.057912 -0.002741 -0.998318
vn -0.057912 -0.002741 -0.998318
vn -0.057912 -0.002741 -0.998318
vn -0.057912 -0.002741 -0.998318
vn 0.012952 0.999916 0.001116
vn 0.012952 0.999916 0.001116
vn 0.012952 0.999916 0.001116
vn 0.012952 0.999916 0.001116
vn 0.171901 0.008137 0.985081
vn 0.171901 0.008137 0.985081
vn 0.171901 0.008137 0.985081
vn 0.171901 0.008137 0.985081
vn -1.000000 0.000003 0.000000
vn -1.000000 0.000003 0.000000
vn -1.000000 0.000003 0.000000
vn -1.000000 0.000003 0.000000
vn -0.162718 0.976025 0.144560
vn -0.162718 0.976025 0.144560
vn -0.162718 0.976025 0.144560
vn -0.162718 0.976025 0.144560
vn 0.237325 0.050773 0.970102
vn 0.237325 0.050773 0.970102
vn 0.237325 0.050773 0.970102
vn 0.237325 0.050773 0.970102
vn -0.992294 0.032339 -0.119608
vn -0.992294 0.032339 -0.119608
vn -0.992294 0.032339 -0.119608
vn -0.992294 0.032339 -0.119608
vn 0.345748 0.902240 -0.257723
vn 0.345748 0.902240 -0.257723
vn 0.345748 0.902240 -0.257723
vn 0.345748 0.902240 -0.257723
vn -0.199920 -0.051685 0.978448
vn -0.199920 -0.051685 0.978448
vn -0.199920 -0.051685 0.978448
vn -0.199920 -0.051685 0.978448
vn -0.934529 -0.109669 0.338569
vn -0.934529 -0.109669 0.338569
vn -0.934529 -0.109669 0.338569
vn -0.934529 -0.109669 0.338569
vn 0.006960 0.999973 0.002532
vn 0.006960 0.999973 0.002532
vn 0.006960 0.999973 0.002532
vn 0.006960 0.999973 0.002532
vn 0.011516 0.001743 0.999932
vn 0.011516 0.001743 0.999932
vn 0.011516 0.001743 0.999932
vn 0.011516 0.001743 0.999932
vn 0.010271 0.999934 0.005132
vn 0.044333 0.982656 0.180064
vn 0.011663 0.999857 0.012251
vn 1.000000 0.000000 0.000000
vn 1.000000 0.000000 0.000000
vn 1.000000 0.000000 0.000000
vn 1.000000 0.000000 0.000000
vn -0.979941 0.002106 -0.199277
vn -0.979941 0.002106 -0.199277
vn -0.979941 0.002106 -0.199277
vn -0.979941 0.002106 -0.199277
vn 0.006363 0.971809 -0.235684
vn 0.006363 0.971809 -0.235684
vn 0.006363 0.971809 -0.235684
vn 0.006363 0.971809 -0.235684
vn 0.019798 0.999791 -0.005054
vn 0.021402 0.999743 -0.007431
vn 0.054979 0.996845 -0.057245
vn -1.000000 0.000000 0.000000
vn -1.000000 0.000000 0.000000
vn -1.000000 0.000000 0.000000
vn -1.000000 0.000000 0.000000
vn 0.005510 0.999985 0.000902
vn 0.005510 0.999984 0.000902
vn 0.005510 0.999984 0.000902
vn 0.005510 0.999984 0.000902
vn 0.000503 0.863438 0.504455
vn 0.000503 0.863438 0.504455
vn 0.000503 0.863438 0.504455
vn 0.000503 0.863438 0.504455
vn -1.000000 0.000002 0.000000
vn -1.000000 0.000002 0.000000
vn -1.000000 0.000002 0.000000
vn -1.000000 0.000002 0.000000
vn -0.159201 0.971942 0.173156
vn -0.159201 0.971942 0.173156
vn -0.159201 0.971942 0.173156
vn -0.159201 0.971942 0.173156
vn 0.469623 0.206829 0.858298
vn 0.469623 0.206829 0.858298
vn 0.469623 0.206829 0.858298
vn 0.469623 0.206829 0.858298
vn 0.976800 0.211970 -0.030519
vn 0.976800 0.211970 -0.030519
vn 0.976800 0.211970 -0.030519
vn 0.976800 0.211970 -0.030519
vn -0.213019 0.917905 -0.334774
vn -0.213019 0.917905 -0.334774
vn -0.213019 0.917905 -0.334774
vn 0.910352 0.408212 -0.067993
vn 0.910352 0.408212 -0.067993
vn 0.910352 0.408212 -0.067993
vn -0.451460 0.842133 -0.294952
vn -0.451460 0.842133 -0.294952
vn -0.451460 0.842133 -0.294952
vn -0.451460 0.842133 -0.294952
vn -0.056212 0.998359 -0.010935
vn -0.056212 0.998359 -0.010935
vn -0.056212 0.998359 -0.010935
vn 0.041358 -0.998588 0.033341
vn 0.041358 -0.998588 0.033341
vn 0.041358 -0.998588 0.033341
vn 0.199857 -0.916530 0.346454
vn 0.199857 -0.916530 0.346454
vn 0.199857 -0.916530 0.346455
vn 0.199857 -0.916530 0.346454
vn 0.783511 0.600647 0.159168
vn 0.783511 0.600647 0.159168
vn 0.783511 0.600647 0.159168
vn 0.783511 0.600647 0.159168
vn -0.062292 0.993921 -0.090784
vn -0.062292 0.993921 -0.090784
vn -0.062292 0.993921 -0.090784
vn -0.062292 0.993921 -0.090784
vn 0.171238 0.791825 0.586252
vn 0.171238 0.791825 0.586252
vn 0.171238 0.791825 0.586252
vn 0.171238 0.791825 0.586252
vn 0.117845 0.005578 -0.993016
vn 0.117845 0.005578 -0.993016
vn 0.117845 0.005578 -0.993016
vn 0.117845 0.005578 -0.993016
vn -0.014424 0.999886 -0.004519
vn -0.014424 0.999886 -0.004519
vn -0.014424 0.999886 -0.004519
vn -0.168317 -0.025941 0.985392
vn -0.168317 -0.025941 0.985391
vn -0.168317 -0.025941 0.985392
vn -0.168317 -0.025941 0.985391
vn -0.228091 0.960372 0.160189
vn -0.228091 0.960372 0.160189
vn -0.228091 0.960372 0.160189
vn -0.228091 0.960372 0.160189
vn 0.225420 0.954224 -0.196575
vn 0.225420 0.954224 -0.196575
vn 0.225420 0.954224 -0.196575
vn 0.225420 0.954224 -0.196575
vn -0.004633 0.999988 -0.001771
vn -0.004633 0.999988 -0.001771
vn -0.004633 0.999988 -0.001771
vn -0.004633 0.999988 -0.001771
vn -0.004633 0.999988 -0.001771
vn 0.036517 0.988896 -0.144056
vn 0.036517 0.988896 -0.144056
vn 0.036517 0.988896 -0.144056
vn 0.036517 0.988896 -0.144056
vn -0.008640 0.999962 -0.001304
vn -0.008640 0.999962 -0.001304
vn -0.008640 0.999962 -0.001304
vn -0.008640 0.999962 -0.001304
vn -0.100876 0.911910 0.397800
vn -0.100876 0.911910 0.397800
vn -0.100876 0.911910 0.397800
vn -0.100876 0.911910 0.397800
vn 0.245241 0.339475 0.908082
vn 0.245241 0.339475 0.908082
vn 0.245241 0.339475 0.908082
vn 0.245241 0.339475 0.908082
vn 0.019798 0.999791 -0.005054
vn 0.012318 0.999906 0.006030
vn 0.012318 0.999906 0.006030
vn 0.021402 0.999743 -0.007431
vn -0.075703 0.000528 -0.997130
vn -0.075703 0.000528 -0.997130
vn -0.075703 0.000528 -0.997130
vn -0.075703 0.000528 -0.997130
vn -0.062534 0.978561 0.196236
vn -0.062534 0.978561 0.196236
vn -0.062534 0.978561 0.196236
vn -0.062534 0.978561 0.196236
vn 0.006025 0.996567 -0.082567
vn 0.006025 0.996567 -0.082567
vn 0.006025 0.996567 -0.082567
vn 0.006025 0.996567 -0.082567
vn -0.008931 0.999958 -0.001915
vn -0.008931 0.999958 -0.001915
vn -0.008931 0.999958 -0.001915
vn -0.008931 0.999958 -0.001915
vn 0.009683 0.999951 0.002125
vn 0.010271 0.999934 0.005132
vn 0.011663 0.999857 0.012251
vn 0.009683 0.999951 0.002125
vn 0.009683 0.999951 0.002125
s off
f 12/10/1 9/103/2 57/92/3 60/97/4
f 11/6/5 31/49/6 62/99/7 59/95/8
f 10/14/9 11/104/10 59/94/11 58/93/12
f 2/12/13 43/73/14 40/67/15 4/13/16
f 7/18/17 30/48/18 32/51/19 5/21/20
f 5/21/21 49/83/22 50/85/23 7/18/24
f 3/3/25 48/81/26 51/86/27 15/26/28
f 1/19/29 47/80/30 48/82/31 3/20/32
f 15/25/33 16/27/34 1/19/35 3/20/36
f 15/26/37 51/86/38 52/87/39 20/33/40
f 14/24/41 13/22/42 18/29/43 19/31/44
f 20/32/45 17/28/46 16/27/47 15/25/48
f 20/33/49 52/87/50 53/88/51 24/39/52
f 19/31/53 18/29/54 22/35/55 23/37/56
f 24/38/57 21/34/58 17/28/59 20/32/60
f 24/39/61 53/88/62 56/91/63 33/54/64
f 23/37/65 22/35/66 9/11/67 12/101/68
f 25/40/69 61/98/70 63/100/71
f 25/41/72 27/43/73 8/17/74 6/16/75
f 29/46/76 26/42/77 34/55/78 33/53/79
f 29/47/80 54/89/81 55/90/82 32/52/83
f 25/40/84 62/99/85 61/98/86
f 32/51/87 30/48/88 26/42/89 29/46/90
f 32/52/91 55/90/92 49/84/93 5/5/94
f 33/54/95 56/91/96 54/89/97 29/47/98
f 33/53/99 34/55/100 21/34/101 24/38/102
f 46/79/103 44/74/104 41/68/105 42/71/106
f 44/2/107 45/61/108 43/64/109 41/69/110
f 36/59/111 39/65/112 27/43/113 25/41/114
f 40/66/115 46/78/116 42/70/117
f 40/67/118 43/73/119 45/77/120
f 42/71/121 41/68/122 2/12/123 4/13/124
f 41/69/125 43/64/126 2/72/127
f 40/66/128 42/70/129 4/4/130
f 37/75/131 39/76/132 45/61/133 44/2/134
f 40/67/135 45/77/136 39/65/137 36/59/138
f 36/58/139 38/62/140 46/78/141 40/66/142
f 38/63/143 37/60/144 44/74/145 46/79/146
f 50/85/147 49/83/148 11/15/149 10/102/150
f 51/86/151 48/81/152 14/23/153
f 48/82/154 47/80/155 13/22/156 14/24/157
f 52/87/158 51/86/159 14/23/160 19/30/161
f 53/88/162 52/87/163 19/30/164 23/36/165
f 56/91/166 53/88/167 23/36/168 12/9/169 35/57/170
f 55/90/171 54/89/172 28/45/173 31/50/174
f 49/84/175 55/90/176 31/50/177 11/8/178
f 54/89/179 56/91/180 35/57/181 28/45/182
f 60/97/183 57/92/184 37/60/185 38/63/186
f 25/40/187 6/7/188 59/95/189 62/99/190
f 58/93/191 59/94/192 6/16/193 8/17/194
f 63/100/195 61/98/196 28/44/197 35/56/198
f 61/98/199 62/99/200 31/49/201 28/44/202
f 60/96/203 63/100/204 35/56/205 12/1/206
f 36/58/207 25/40/208 63/100/209 60/96/210 38/62/211
