# This file uses centimeters as units for non-parametric coordinates.

v -23.766895 -3.298747 50.491058
v -49.567696 -3.298747 9.633897
v -48.249805 -3.298747 -32.926666
v -8.364777 -3.298747 -50.491058
v 11.223000 -3.298747 -6.511300
v 49.567696 -3.298747 16.826027
v 34.916199 -3.298747 47.585938
v 8.001634 -3.298747 46.255787
v 49.567696 3.298747 16.826027
v 34.916199 3.298747 47.585938
v 8.001634 3.298747 46.255787
v 11.223000 3.298747 -6.511300
v -48.249805 3.298747 -32.926666
v -8.364777 3.298747 -50.491058
v -49.567696 3.298747 9.633897
v -23.766895 3.298747 50.491058
vt 0.219803 0.166545
vt 0.221986 0.170715
vt 0.215791 0.166725
vt 0.216272 0.173879
vt 0.213352 0.179842
vt 0.207408 0.177460
vt 0.207211 0.171690
vt 0.211057 0.166151
vt 0.219803 0.166545
vt 0.221986 0.170715
vt 0.215791 0.166725
vt 0.216272 0.173879
vt 0.213352 0.179842
vt 0.207408 0.177460
vt 0.207211 0.171690
vt 0.211057 0.166151
vt 0.219803 0.166545
vt 0.221986 0.170715
vt 0.215791 0.166725
vt 0.216272 0.173879
vt 0.213352 0.179842
vt 0.207408 0.177460
vt 0.207211 0.171690
vt 0.211057 0.166151
vn 0.000000 1.000000 0.000000
vn 0.000000 1.000000 -0.000000
vn 0.000000 1.000000 -0.000000
vn 0.000000 1.000000 -0.000000
vn 0.000000 1.000000 -0.000000
vn 0.000000 1.000000 -0.000000
vn 0.000000 1.000000 0.000000
vn 0.000000 1.000000 0.000000
vn 0.000000 1.000000 -0.000000
vn 0.000000 1.000000 0.000000
vn 0.000000 1.000000 0.000000
vn 0.000000 1.000000 -0.000000
vn 0.000000 1.000000 -0.000000
vn 0.000000 1.000000 0.000000
vn 0.000000 1.000000 -0.000000
vn 0.000000 1.000000 -0.000000
vn 0.000000 1.000000 -0.000000
vn 0.000000 1.000000 0.000000
vn 0.000000 -1.000000 0.000000
vn 0.000000 -1.000000 0.000000
vn 0.000000 -1.000000 -0.000000
vn 0.000000 -1.000000 -0.000000
vn 0.000000 -1.000000 0.000000
vn 0.000000 -1.000000 0.000000
vn 0.000000 -1.000000 0.000000
vn 0.000000 -1.000000 0.000000
vn 0.000000 -1.000000 0.000000
vn 0.000000 -1.000000 0.000000
vn 0.000000 -1.000000 0.000000
vn 0.000000 -1.000000 0.000000
vn 0.000000 -1.000000 0.000000
vn 0.000000 -1.000000 0.000000
vn 0.000000 -1.000000 0.000000
vn 0.000000 -1.000000 -0.000000
vn 0.000000 -1.000000 0.000000
vn 0.000000 -1.000000 0.000000
vn 0.902816 0.000000 0.430027
vn 0.902816 0.000000 0.430027
vn 0.902816 0.000000 0.430027
vn 0.902816 0.000000 0.430027
vn 0.049445 0.000000 0.998777
vn -0.049361 0.000000 0.998781
vn -0.049361 0.000000 0.998781
vn 0.049445 0.000000 0.998777
vn 0.519899 0.000000 -0.854228
vn 0.519899 0.000000 -0.854228
vn 0.519899 0.000000 -0.854228
vn 0.519899 0.000000 -0.854228
vn -0.403027 0.000000 -0.915188
vn -0.403027 0.000000 -0.915188
vn -0.403027 0.000000 -0.915188
vn -0.403027 0.000000 -0.915188
vn 0.913494 0.000000 -0.406853
vn 0.913494 0.000000 -0.406853
vn 0.913494 0.000000 -0.406853
vn 0.913494 0.000000 -0.406853
vn -0.999521 0.000000 -0.030950
vn -0.999521 0.000000 -0.030950
vn -0.999521 0.000000 -0.030950
vn -0.999521 0.000000 -0.030950
vn 0.132147 0.000000 0.991230
vn 0.049445 0.000000 0.998777
vn 0.049445 0.000000 0.998777
vn 0.132147 0.000000 0.991230
vn -0.845524 0.000000 0.533938
vn -0.845524 0.000000 0.533938
vn -0.845524 0.000000 0.533938
vn -0.845524 0.000000 0.533938
s off
f 10/17/1 9/18/2 11/19/3
f 9/18/4 12/20/5 11/19/6
f 14/21/7 13/22/8 12/20/9
f 13/22/10 15/23/11 12/20/12
f 12/20/13 15/23/14 11/19/15
f 16/24/16 11/19/17 15/23/18
f 7/9/19 8/11/20 6/10/21
f 6/10/22 8/11/23 5/12/24
f 4/13/25 5/12/26 3/14/27
f 3/14/28 5/12/29 2/15/30
f 5/12/31 8/11/32 2/15/33
f 1/16/34 2/15/35 8/11/36
f 7/1/37 6/2/38 9/18/39 10/17/40
f 8/3/41 7/1/42 10/17/43 11/19/44
f 6/2/45 5/4/46 12/20/47 9/18/48
f 4/5/49 3/6/50 13/22/51 14/21/52
f 5/4/53 4/5/54 14/21/55 12/20/56
f 3/6/57 2/7/58 15/23/59 13/22/60
f 1/8/61 8/3/62 11/19/63 16/24/64
f 2/7/65 1/8/66 16/24/67 15/23/68
