# This file uses centimeters as units for non-parametric coordinates.

v -20.448517 0.000000 12.147263
v 20.448578 0.000000 12.146652
v -20.448517 24.463242 12.147263
v 20.448578 24.463242 12.146652
v -20.448517 24.463242 -12.141304
v 20.448578 24.463242 -12.141914
v -20.448517 0.000000 -12.141304
v 20.448578 0.000000 -12.141914
v -17.735779 6.100169 12.147217
v 17.735840 6.100169 12.146698
v 17.735840 22.500263 12.146698
v -17.735779 22.500263 12.147217
v -17.735779 22.500263 -12.141350
v 17.735840 22.500263 -12.141899
v 17.735840 6.100169 -12.141899
v -17.735779 6.100169 -12.141350
v -21.296494 25.173935 13.059395
v 21.296555 25.173935 13.058754
v 21.296555 25.173935 -13.054024
v -21.296494 25.173935 -13.053413
v 3.743912 27.075928 10.859375
v 17.986557 27.075928 10.859161
v 17.986557 27.075928 6.155533
v 3.743912 27.075928 6.155746
v -21.296494 27.075928 13.059395
v 21.296555 27.075928 13.058754
v 21.296555 27.075928 -13.054024
v -21.296494 27.075928 -13.053413
v 20.448578 19.369934 -10.994789
v 20.448578 19.369934 10.999519
v 20.448578 23.722729 -10.994789
v 20.448578 23.722729 10.999519
v -20.448517 19.369934 -10.994179
v -20.448517 19.369934 11.000130
v -20.448517 23.722729 11.000130
v -20.448517 23.722729 -10.994179
v 24.204483 21.169098 -7.766548
v 24.204483 21.169098 7.771149
v 24.204483 23.722729 -7.766548
v 24.204483 23.722729 7.771149
v -24.204422 21.169098 -7.765816
v -24.204422 21.169098 7.771866
v -24.204422 23.722729 7.771866
v -24.204422 23.722729 -7.765816
v -11.206116 27.075928 -9.454338
v 11.206177 27.075928 -9.454689
v -11.206116 27.075928 2.228317
v 11.206177 27.075928 2.227982
v -10.602585 28.547220 -8.846214
v 10.602646 28.547220 -8.846519
v -10.602585 28.547220 1.620178
v 10.602646 28.547220 1.619873
v 18.101868 27.075930 -5.122795
v 18.101868 27.075930 -8.268913
v 15.377243 27.075930 -9.841957
v 12.652634 27.075930 -8.268837
v 12.652618 27.075930 -5.122688
v 15.377243 27.075930 -3.549683
v 18.101868 30.950342 -5.122795
v 18.101868 30.950342 -8.268913
v 15.377243 30.950342 -9.841957
v 12.652634 30.950342 -8.268837
v 12.652618 30.950342 -5.122688
v 15.377243 30.950342 -3.549683
v 15.377243 30.950342 -6.695808
v -12.652557 27.075930 -5.122322
v -12.652557 27.075930 -8.268440
v -15.377182 27.075930 -9.841484
v -18.101791 27.075930 -8.268364
v -18.101791 27.075930 -5.122246
v -15.377182 27.075930 -3.549225
v -12.652557 30.950342 -5.122322
v -12.652557 30.950342 -8.268440
v -15.377182 30.950342 -9.841484
v -18.101791 30.950342 -8.268364
v -18.101791 30.950342 -5.122246
v -15.377182 30.950342 -3.549225
v -15.377182 30.950342 -6.695366
vt 0.114069 0.205684
vt 0.114069 0.205684
vt 0.114069 0.205685
vt 0.114069 0.205685
vt 0.133602 0.181503
vt 0.133602 0.181503
vt 0.133602 0.181503
vt 0.133602 0.181503
vt 0.114069 0.205685
vt 0.114069 0.205685
vt 0.114069 0.205684
vt 0.114069 0.205684
vt 0.091750 0.230795
vt 0.091749 0.230795
vt 0.091749 0.230795
vt 0.091750 0.230795
vt 0.091749 0.230795
vt 0.091749 0.230795
vt 0.091749 0.230795
vt 0.091749 0.230795
vt 0.091749 0.230795
vt 0.091750 0.230795
vt 0.091750 0.230795
vt 0.091749 0.230795
vt 0.091750 0.230795
vt 0.091749 0.230795
vt 0.091749 0.230795
vt 0.091750 0.230795
vt 0.091749 0.230795
vt 0.091749 0.230795
vt 0.091750 0.230795
vt 0.091750 0.230795
vt 0.091750 0.230795
vt 0.091749 0.230795
vt 0.091749 0.230795
vt 0.091750 0.230795
vt 0.091749 0.230795
vt 0.091750 0.230795
vt 0.091750 0.230795
vt 0.091749 0.230795
vt 0.091749 0.230795
vt 0.091750 0.230795
vt 0.091749 0.230795
vt 0.091749 0.230795
vt 0.101980 0.228933
vt 0.101980 0.228933
vt 0.101980 0.228933
vt 0.101980 0.228933
vt 0.091749 0.230795
vt 0.091750 0.230795
vt 0.091749 0.230795
vt 0.091750 0.230795
vt 0.091750 0.230795
vt 0.091749 0.230795
vt 0.091749 0.230795
vt 0.091749 0.230795
vt 0.091749 0.230795
vt 0.091749 0.230795
vt 0.091749 0.230795
vt 0.091749 0.230795
vt 0.091750 0.230795
vt 0.091749 0.230795
vt 0.091750 0.230795
vt 0.091749 0.230795
vt 0.091749 0.230795
vt 0.091750 0.230795
vt 0.091749 0.230795
vt 0.091750 0.230795
vt 0.091750 0.230795
vt 0.091749 0.230795
vt 0.101980 0.228933
vt 0.101980 0.228933
vt 0.101980 0.228933
vt 0.101980 0.228933
vt 0.081360 0.226814
vt 0.081360 0.226814
vt 0.081360 0.226814
vt 0.081360 0.226814
vt 0.081360 0.226814
vt 0.081360 0.226814
vt 0.081360 0.226814
vt 0.081360 0.226814
vt 0.081360 0.226814
vt 0.081360 0.226814
vt 0.081360 0.226814
vt 0.081360 0.226814
vt 0.081360 0.226814
vt 0.138610 0.421371
vt 0.138610 0.421371
vt 0.138610 0.421371
vt 0.138610 0.421371
vt 0.138610 0.421371
vt 0.138610 0.421371
vt 0.138610 0.421371
vt 0.138610 0.421371
vt 0.138610 0.421371
vt 0.138610 0.421371
vt 0.138610 0.421371
vt 0.138610 0.421371
vt 0.138610 0.421371
vt 0.138610 0.421371
vt 0.138610 0.421371
vt 0.138610 0.421371
vt 0.138610 0.421371
vt 0.138610 0.421371
vt 0.138610 0.421371
vt 0.138610 0.421371
vt 0.138610 0.421371
vt 0.138610 0.421371
vt 0.138610 0.421371
vt 0.138610 0.421371
vt 0.138610 0.421371
vt 0.138610 0.421371
vt 0.138610 0.421371
vt 0.138610 0.421371
vt 0.138610 0.421371
vt 0.138610 0.421371
vt 0.138610 0.421371
vt 0.138610 0.421371
vt 0.138610 0.421371
vt 0.138610 0.421371
vt 0.138610 0.421371
vt 0.138610 0.421371
vt 0.138610 0.421371
vt 0.138610 0.421371
vt 0.138610 0.421371
vt 0.138610 0.421371
vt 0.138610 0.421371
vt 0.138610 0.421371
vn 0.000015 0.000000 1.000000
vn 0.000015 0.000000 1.000000
vn 0.000015 0.000000 1.000000
vn 0.000015 0.000000 1.000000
vn 0.000000 1.000000 0.000000
vn 0.000000 1.000000 0.000000
vn 0.000000 1.000000 0.000000
vn 0.000000 1.000000 0.000000
vn -0.000015 0.000000 -1.000000
vn -0.000015 0.000000 -1.000000
vn -0.000015 0.000000 -1.000000
vn -0.000015 0.000000 -1.000000
vn 0.000000 -1.000000 0.000000
vn 0.000000 -1.000000 0.000000
vn 0.000000 -1.000000 0.000000
vn 0.000000 -1.000000 0.000000
vn 1.000000 0.000000 0.000000
vn 1.000000 0.000000 0.000000
vn 1.000000 0.000000 0.000000
vn 1.000000 0.000000 0.000000
vn -1.000000 0.000000 0.000000
vn -1.000000 0.000000 0.000000
vn -1.000000 0.000000 0.000000
vn -1.000000 0.000000 0.000000
vn 0.000015 0.000000 1.000000
vn 0.000015 0.000000 1.000000
vn 0.000015 0.000000 1.000000
vn 0.000015 0.000000 1.000000
vn 0.000017 0.000000 1.000000
vn 0.000017 0.000000 1.000000
vn 0.000017 0.000000 1.000000
vn 0.000017 0.000000 1.000000
vn 0.000015 0.000000 1.000000
vn 0.000015 0.000000 1.000000
vn 0.000015 0.000000 1.000000
vn 0.000015 0.000000 1.000000
vn 0.000016 0.000000 1.000000
vn 0.000016 0.000000 1.000000
vn 0.000016 0.000000 1.000000
vn 0.000016 0.000000 1.000000
vn -0.000015 0.000008 -1.000000
vn -0.000015 0.000008 -1.000000
vn -0.000015 0.000008 -1.000000
vn -0.000015 0.000008 -1.000000
vn -0.000005 0.000000 -1.000000
vn -0.000005 0.000000 -1.000000
vn -0.000005 0.000000 -1.000000
vn -0.000005 0.000000 -1.000000
vn -0.000015 -0.000003 -1.000000
vn -0.000015 -0.000003 -1.000000
vn -0.000015 -0.000003 -1.000000
vn -0.000015 -0.000003 -1.000000
vn -0.000017 0.000000 -1.000000
vn -0.000017 0.000000 -1.000000
vn -0.000017 0.000000 -1.000000
vn -0.000017 0.000000 -1.000000
vn 0.000000 1.000000 -0.000002
vn 0.000000 1.000000 -0.000002
vn 0.000000 1.000000 -0.000002
vn 0.000000 1.000000 -0.000002
vn 0.000000 1.000000 0.000000
vn 0.000000 1.000000 0.000000
vn 0.000000 1.000000 0.000000
vn 0.000000 1.000000 0.000000
vn 0.000000 1.000000 0.000000
vn 0.000000 1.000000 0.000000
vn 0.000000 1.000000 0.000000
vn 0.000000 1.000000 0.000000
vn 0.000009 -0.788820 0.614624
vn 0.000009 -0.788820 0.614624
vn 0.000009 -0.788820 0.614624
vn 0.000009 -0.788820 0.614624
vn 0.642340 -0.766420 0.000000
vn 0.642340 -0.766420 0.000000
vn 0.642340 -0.766420 0.000000
vn 0.642340 -0.766420 0.000000
vn -0.000009 -0.788818 -0.614627
vn -0.000009 -0.788818 -0.614627
vn -0.000009 -0.788818 -0.614627
vn -0.000009 -0.788818 -0.614627
vn -0.642340 -0.766420 0.000000
vn -0.642340 -0.766420 0.000000
vn -0.642340 -0.766420 0.000000
vn -0.642340 -0.766420 0.000000
vn 0.000015 0.000000 1.000000
vn 0.000015 0.000000 1.000000
vn 0.000015 0.000000 1.000000
vn 0.000015 0.000000 1.000000
vn 1.000000 0.000000 0.000000
vn 1.000000 0.000000 0.000000
vn 1.000000 0.000000 0.000000
vn 1.000000 0.000000 0.000000
vn -0.000014 0.000000 -1.000000
vn -0.000014 0.000000 -1.000000
vn -0.000014 0.000000 -1.000000
vn -0.000014 0.000000 -1.000000
vn -1.000000 0.000000 0.000000
vn -1.000000 0.000000 0.000000
vn -1.000000 0.000000 0.000000
vn -1.000000 0.000000 0.000000
vn 1.000000 0.000000 0.000000
vn 1.000000 0.000000 0.000000
vn 1.000000 0.000000 0.000000
vn 1.000000 0.000000 0.000000
vn 1.000000 0.000000 0.000000
vn 1.000000 0.000000 0.000000
vn 1.000000 0.000000 0.000000
vn 1.000000 0.000000 0.000000
vn 1.000000 -0.000001 0.000000
vn 1.000000 -0.000001 0.000000
vn 1.000000 -0.000001 0.000000
vn 1.000000 -0.000001 0.000000
vn 1.000000 0.000000 0.000000
vn 1.000000 0.000000 0.000000
vn 1.000000 0.000000 0.000000
vn 1.000000 0.000000 0.000000
vn -1.000000 0.000000 0.000000
vn -1.000000 0.000000 0.000000
vn -1.000000 0.000000 0.000000
vn -1.000000 0.000000 0.000000
vn -1.000000 0.000000 0.000000
vn -1.000000 0.000000 0.000000
vn -1.000000 0.000000 0.000000
vn -1.000000 0.000000 0.000000
vn -1.000000 -0.000001 0.000000
vn -1.000000 -0.000001 0.000000
vn -1.000000 -0.000001 0.000000
vn -1.000000 -0.000001 0.000000
vn -1.000000 0.000000 0.000000
vn -1.000000 0.000000 0.000000
vn -1.000000 0.000000 0.000000
vn -1.000000 0.000000 0.000000
vn 0.432015 -0.901867 0.000000
vn 0.432015 -0.901867 0.000000
vn 0.432015 -0.901867 0.000000
vn 0.432015 -0.901867 0.000000
vn 0.651826 0.000000 -0.758369
vn 0.651826 0.000000 -0.758369
vn 0.651826 0.000000 -0.758369
vn 0.651826 0.000000 -0.758369
vn 0.000000 1.000000 0.000000
vn 0.000000 1.000000 0.000000
vn 0.000000 1.000000 0.000000
vn 0.000000 1.000000 0.000000
vn 0.651841 0.000000 0.758356
vn 0.651841 0.000000 0.758356
vn 0.651841 0.000000 0.758356
vn 0.651841 0.000000 0.758356
vn -0.432014 -0.901867 0.000000
vn -0.432015 -0.901867 0.000000
vn -0.432014 -0.901867 0.000000
vn -0.432015 -0.901867 0.000000
vn -0.651829 0.000000 0.758366
vn -0.651829 0.000000 0.758366
vn -0.651829 0.000000 0.758366
vn -0.651829 0.000000 0.758366
vn 0.000000 1.000000 0.000000
vn 0.000000 1.000000 0.000000
vn 0.000000 1.000000 0.000000
vn 0.000000 1.000000 0.000000
vn -0.651840 0.000000 -0.758356
vn -0.651840 0.000000 -0.758356
vn -0.651840 0.000000 -0.758356
vn -0.651840 0.000000 -0.758356
vn 0.000000 1.000000 0.000001
vn 0.000000 1.000000 0.000001
vn 0.000000 1.000000 0.000001
vn 0.000000 1.000000 0.000001
vn 0.000000 1.000000 0.000000
vn 0.000000 1.000000 0.000000
vn 0.000000 1.000000 0.000000
vn 0.000000 1.000000 0.000000
vn 0.000000 1.000000 0.000000
vn 0.000000 1.000000 0.000000
vn 0.000000 1.000000 0.000000
vn 0.000000 1.000000 0.000000
vn 0.000000 1.000000 0.000000
vn 0.000000 1.000000 0.000000
vn 0.000000 1.000000 0.000000
vn 0.000000 1.000000 0.000000
vn -0.000014 0.381996 -0.924164
vn -0.000014 0.381996 -0.924164
vn -0.000014 0.381996 -0.924164
vn -0.000014 0.381996 -0.924164
vn -0.925186 0.379515 0.000000
vn -0.925186 0.379515 0.000000
vn -0.925186 0.379515 0.000000
vn -0.925186 0.379515 0.000000
vn 0.000014 0.381983 0.924169
vn 0.000014 0.381983 0.924169
vn 0.000014 0.381983 0.924169
vn 0.000014 0.381983 0.924169
vn 0.925185 0.379516 0.000000
vn 0.925185 0.379516 0.000000
vn 0.925185 0.379516 0.000000
vn 0.925185 0.379516 0.000000
vn 0.000000 1.000000 0.000000
vn 0.000000 1.000000 0.000000
vn 0.000000 1.000000 0.000000
vn 0.000000 1.000000 0.000000
vn 1.000000 0.000000 0.000000
vn 1.000000 0.000000 0.000000
vn 1.000000 0.000000 0.000000
vn 1.000000 0.000000 0.000000
vn 0.499995 0.000000 -0.866028
vn 0.499995 0.000000 -0.866028
vn 0.499995 0.000000 -0.866028
vn 0.499995 0.000000 -0.866028
vn -0.500016 0.000000 -0.866016
vn -0.500016 0.000000 -0.866016
vn -0.500016 0.000000 -0.866016
vn -0.500016 0.000000 -0.866016
vn -1.000000 0.000000 -0.000005
vn -1.000000 0.000000 -0.000005
vn -1.000000 0.000000 -0.000005
vn -1.000000 0.000000 -0.000005
vn -0.499986 0.000000 0.866033
vn -0.499986 0.000000 0.866033
vn -0.499986 0.000000 0.866033
vn -0.499986 0.000000 0.866033
vn 0.500012 0.000000 0.866019
vn 0.500012 0.000000 0.866019
vn 0.500012 0.000000 0.866019
vn 0.500012 0.000000 0.866019
vn 0.000000 1.000000 0.000000
vn 0.000000 1.000000 0.000000
vn 0.000000 1.000000 0.000000
vn 0.000000 1.000000 0.000000
vn 0.000000 1.000000 0.000000
vn 0.000000 1.000000 0.000000
vn 0.000000 1.000000 0.000000
vn 0.000000 1.000000 0.000000
vn 0.000000 1.000000 0.000000
vn 0.000000 1.000000 0.000000
vn 0.000000 1.000000 0.000000
vn 0.000000 1.000000 0.000000
vn 0.000000 1.000000 0.000000
vn 0.000000 1.000000 0.000000
vn 0.000000 1.000000 0.000000
vn 0.000000 1.000000 0.000000
vn 0.000000 1.000000 0.000000
vn 0.000000 1.000000 0.000000
vn 1.000000 0.000000 0.000000
vn 1.000000 0.000000 0.000000
vn 1.000000 0.000000 0.000000
vn 1.000000 0.000000 0.000000
vn 0.499996 0.000000 -0.866028
vn 0.499996 0.000000 -0.866028
vn 0.499996 0.000000 -0.866028
vn 0.499996 0.000000 -0.866028
vn -0.500016 0.000000 -0.866016
vn -0.500016 0.000000 -0.866016
vn -0.500016 0.000000 -0.866016
vn -0.500016 0.000000 -0.866016
vn -1.000000 0.000000 0.000000
vn -1.000000 0.000000 0.000000
vn -1.000000 0.000000 0.000000
vn -1.000000 0.000000 0.000000
vn -0.499992 0.000000 0.866030
vn -0.499992 0.000000 0.866030
vn -0.499992 0.000000 0.866030
vn -0.499992 0.000000 0.866030
vn 0.500008 0.000000 0.866021
vn 0.500008 0.000000 0.866021
vn 0.500008 0.000000 0.866021
vn 0.500008 0.000000 0.866021
vn 0.000000 1.000000 0.000000
vn 0.000000 1.000000 0.000000
vn 0.000000 1.000000 0.000000
vn 0.000000 1.000000 0.000000
vn 0.000000 1.000000 0.000000
vn 0.000000 1.000000 0.000000
vn 0.000000 1.000000 0.000000
vn 0.000000 1.000000 0.000000
vn 0.000000 1.000000 0.000000
vn 0.000000 1.000000 0.000000
vn 0.000000 1.000000 0.000000
vn 0.000000 1.000000 0.000000
vn 0.000000 1.000000 0.000000
vn 0.000000 1.000000 0.000000
vn 0.000000 1.000000 0.000000
vn 0.000000 1.000000 0.000000
vn 0.000000 1.000000 0.000000
vn 0.000000 1.000000 0.000000
s off
f 9/1/1 10/2/2 11/3/3 12/4/4
f 21/5/5 22/6/6 23/7/7 24/8/8
f 13/9/9 14/10/10 15/11/11 16/12/12
f 7/13/13 8/14/14 2/15/15 1/16/16
f 38/17/17 37/18/18 39/19/19 40/20/20
f 41/21/21 42/22/22 43/23/23 44/24/24
f 1/25/25 2/26/26 10/27/27 9/28/28
f 2/26/29 4/29/30 11/30/31 10/27/32
f 4/29/33 3/31/34 12/32/35 11/30/36
f 3/31/37 1/25/38 9/28/39 12/32/40
f 5/33/41 6/34/42 14/35/43 13/36/44
f 6/34/45 8/14/46 15/37/47 14/35/48
f 8/14/49 7/13/50 16/38/51 15/37/52
f 7/13/53 5/33/54 13/36/55 16/38/56
f 25/39/57 26/40/58 22/41/59 21/42/60
f 26/40/61 27/43/62 23/44/63 22/41/64
f 50/45/65 49/46/66 51/47/67 52/48/68
f 3/31/69 4/29/70 18/49/71 17/50/72
f 4/29/73 6/34/74 19/51/75 18/49/76
f 6/34/77 5/33/78 20/52/79 19/51/80
f 5/33/81 3/31/82 17/50/83 20/52/84
f 17/50/85 18/49/86 26/40/87 25/39/88
f 18/49/89 19/51/90 27/43/91 26/40/92
f 19/51/93 20/52/94 28/53/95 27/43/96
f 20/52/97 17/50/98 25/39/99 28/53/100
f 2/26/101 8/54/102 29/55/103 30/56/104
f 8/54/105 6/57/106 31/58/107 29/55/108
f 6/57/109 4/29/110 32/59/111 31/58/112
f 4/29/113 2/26/114 30/56/115 32/59/116
f 7/60/117 1/25/118 34/61/119 33/62/120
f 1/25/121 3/31/122 35/63/123 34/61/124
f 3/31/125 5/64/126 36/65/127 35/63/128
f 5/64/129 7/60/130 33/62/131 36/65/132
f 30/56/133 29/55/134 37/18/135 38/17/136
f 29/55/137 31/58/138 39/19/139 37/18/140
f 31/58/141 32/59/142 40/20/143 39/19/144
f 32/59/145 30/56/146 38/17/147 40/20/148
f 33/62/149 34/61/150 42/22/151 41/21/152
f 34/61/153 35/63/154 43/23/155 42/22/156
f 35/63/157 36/65/158 44/24/159 43/23/160
f 36/65/161 33/62/162 41/21/163 44/24/164
f 27/43/165 28/53/166 45/66/167 46/67/168
f 24/68/169 47/69/170 25/39/171 21/42/172
f 24/68/173 23/44/174 48/70/175 47/69/176
f 23/44/177 27/43/178 46/67/179 48/70/180
f 46/71/181 45/72/182 49/46/183 50/45/184
f 45/72/185 47/73/186 51/47/187 49/46/188
f 47/73/189 48/74/190 52/48/191 51/47/192
f 48/74/193 46/71/194 50/45/195 52/48/196
f 25/39/197 47/69/198 45/66/199 28/53/200
f 53/75/201 54/76/202 60/77/203 59/78/204
f 54/76/205 55/79/206 61/80/207 60/77/208
f 55/79/209 56/81/210 62/82/211 61/80/212
f 56/81/213 57/83/214 63/84/215 62/82/216
f 57/83/217 58/85/218 64/86/219 63/84/220
f 58/85/221 53/75/222 59/78/223 64/86/224
f 59/78/225 60/77/226 65/87/227
f 60/77/228 61/80/229 65/87/230
f 61/80/231 62/82/232 65/87/233
f 62/82/234 63/84/235 65/87/236
f 63/84/237 64/86/238 65/87/239
f 64/86/240 59/78/241 65/87/242
f 66/129/243 67/89/244 73/119/245 72/121/246
f 67/128/247 68/92/248 74/116/249 73/118/250
f 68/127/251 69/94/252 75/113/253 74/115/254
f 69/126/255 70/96/256 76/110/257 75/112/258
f 70/125/259 71/98/260 77/102/261 76/109/262
f 71/124/263 66/88/264 72/122/265 77/101/266
f 72/91/267 73/120/268 78/107/269
f 73/90/270 74/117/271 78/106/272
f 74/93/273 75/114/274 78/105/275
f 75/95/276 76/111/277 78/104/278
f 76/97/279 77/103/280 78/100/281
f 77/99/282 72/123/283 78/108/284
