# This file uses centimeters as units for non-parametric coordinates.

v 61.747749 -3.298747 75.011749
v -61.747749 -3.298747 75.011749
v 61.747749 -3.298747 -67.648537
v -52.467567 -3.298747 50.928909
v -22.723299 -3.298747 55.705898
v 2.984008 -3.298747 45.084347
v -5.821170 -3.298747 13.583184
v 10.535416 -3.298747 -0.062762
v 1.241611 -3.298747 -29.105974
v 41.892960 -3.298747 -53.860435
v 55.065559 -3.298747 -75.011742
v -61.747749 3.298747 75.011749
v 61.747749 3.298747 75.011749
v -52.467567 3.298747 50.928909
v -22.723299 3.298747 55.705898
v 2.984008 3.298747 45.084347
v 61.747749 3.298747 -67.648537
v 41.892960 3.298747 -53.860435
v 55.065559 3.298747 -75.011742
v 10.535416 3.298747 -0.062762
v 1.241611 3.298747 -29.105974
v -5.821170 3.298747 13.583184
vt 0.190869 0.136983
vt 0.221663 0.136983
vt 0.193183 0.142446
vt 0.200600 0.141362
vt 0.207010 0.143772
vt 0.221663 0.169343
vt 0.219997 0.171013
vt 0.216712 0.166215
vt 0.206576 0.160600
vt 0.208893 0.154012
vt 0.204815 0.150917
vt 0.190869 0.136983
vt 0.221663 0.136983
vt 0.193183 0.142446
vt 0.200600 0.141362
vt 0.207010 0.143772
vt 0.221663 0.169343
vt 0.219997 0.171013
vt 0.216712 0.166215
vt 0.206576 0.160600
vt 0.208893 0.154012
vt 0.204815 0.150917
vt 0.190869 0.136983
vt 0.221663 0.136983
vt 0.193183 0.142446
vt 0.200600 0.141362
vt 0.207010 0.143772
vt 0.221663 0.169343
vt 0.219997 0.171013
vt 0.216712 0.166215
vt 0.206576 0.160600
vt 0.208893 0.154012
vt 0.204815 0.150917
vn 0.000000 1.000000 0.000000
vn 0.000000 1.000000 0.000000
vn 0.000000 1.000000 0.000000
vn 0.000000 1.000000 0.000000
vn 0.000000 1.000000 0.000000
vn 0.000000 1.000000 -0.000000
vn 0.000000 1.000000 -0.000000
vn 0.000000 1.000000 0.000000
vn 0.000000 1.000000 0.000000
vn 0.000000 1.000000 0.000000
vn 0.000000 1.000000 0.000000
vn 0.000000 1.000000 0.000000
vn 0.000000 1.000000 -0.000000
vn 0.000000 1.000000 0.000000
vn 0.000000 1.000000 0.000000
vn 0.000000 1.000000 0.000000
vn 0.000000 1.000000 0.000000
vn 0.000000 1.000000 0.000000
vn 0.000000 1.000000 0.000000
vn 0.000000 1.000000 0.000000
vn 0.000000 1.000000 0.000000
vn 0.000000 1.000000 0.000000
vn 0.000000 1.000000 0.000000
vn 0.000000 1.000000 0.000000
vn 0.000000 1.000000 0.000000
vn 0.000000 1.000000 0.000000
vn 0.000000 1.000000 0.000000
vn 0.000000 -1.000000 0.000000
vn 0.000000 -1.000000 0.000000
vn 0.000000 -1.000000 0.000000
vn 0.000000 -1.000000 0.000000
vn 0.000000 -1.000000 0.000000
vn 0.000000 -1.000000 0.000000
vn 0.000000 -1.000000 0.000000
vn 0.000000 -1.000000 0.000000
vn 0.000000 -1.000000 0.000000
vn 0.000000 -1.000000 0.000000
vn 0.000000 -1.000000 0.000000
vn 0.000000 -1.000000 -0.000000
vn 0.000000 -1.000000 0.000000
vn 0.000000 -1.000000 -0.000000
vn 0.000000 -1.000000 -0.000000
vn 0.000000 -1.000000 -0.000000
vn 0.000000 -1.000000 0.000000
vn 0.000000 -1.000000 -0.000000
vn 0.000000 -1.000000 0.000000
vn 0.000000 -1.000000 -0.000000
vn 0.000000 -1.000000 0.000000
vn 0.000000 -1.000000 -0.000000
vn 0.000000 -1.000000 0.000000
vn 0.000000 -1.000000 0.000000
vn 0.000000 -1.000000 0.000000
vn 0.000000 -1.000000 0.000000
vn 0.000000 -1.000000 0.000000
vn 0.000000 0.000000 1.000000
vn 0.000000 0.000000 1.000000
vn 0.000000 0.000000 1.000000
vn 0.000000 0.000000 1.000000
vn -0.933118 0.000000 -0.359571
vn -0.933118 0.000000 -0.359571
vn -0.933118 0.000000 -0.359571
vn -0.933118 0.000000 -0.359571
vn 0.158570 0.000000 -0.987348
vn 0.158570 0.000000 -0.987348
vn 0.158570 0.000000 -0.987348
vn 0.158570 0.000000 -0.987348
vn -0.381862 0.000000 -0.924219
vn -0.381862 0.000000 -0.924219
vn -0.381862 0.000000 -0.924219
vn -0.381862 0.000000 -0.924219
vn 1.000000 0.000000 0.000000
vn 1.000000 0.000000 0.000000
vn 1.000000 0.000000 0.000000
vn 1.000000 0.000000 0.000000
vn -0.848844 0.000000 -0.528643
vn -0.648923 0.000000 -0.760854
vn -0.648923 0.000000 -0.760854
vn -0.848844 0.000000 -0.528643
vn 0.740522 0.000000 -0.672032
vn 0.740522 0.000000 -0.672032
vn 0.740522 0.000000 -0.672032
vn 0.740522 0.000000 -0.672032
vn -0.952424 0.000000 0.304775
vn -0.952424 0.000000 0.304775
vn -0.952424 0.000000 0.304775
vn -0.952424 0.000000 0.304775
vn -0.648923 0.000000 -0.760854
vn -0.520103 0.000000 -0.854104
vn -0.520103 0.000000 -0.854104
vn -0.648923 0.000000 -0.760854
vn -0.640613 0.000000 -0.767864
vn -0.640613 0.000000 -0.767864
vn -0.640613 0.000000 -0.767864
vn -0.640613 0.000000 -0.767864
vn -0.963084 0.000000 0.269201
vn -0.963084 0.000000 0.269201
vn -0.963084 0.000000 0.269201
vn -0.963084 0.000000 0.269201
s off
f 12/23/1 13/24/2 14/25/3
f 14/25/4 13/24/5 15/26/6
f 15/26/7 13/24/8 16/27/9
f 13/24/10 17/28/11 16/27/12
f 19/29/13 18/30/14 17/28/15
f 17/28/16 18/30/17 16/27/18
f 21/31/19 20/32/20 18/30/21
f 18/30/22 20/32/23 16/27/24
f 20/32/25 22/33/26 16/27/27
f 2/12/28 4/14/29 1/13/30
f 4/14/31 5/15/32 1/13/33
f 5/15/34 6/16/35 1/13/36
f 1/13/37 6/16/38 3/17/39
f 11/18/40 3/17/41 10/19/42
f 3/17/43 6/16/44 10/19/45
f 9/20/46 10/19/47 8/21/48
f 10/19/49 6/16/50 8/21/51
f 8/21/52 6/16/53 7/22/54
f 2/1/55 1/2/56 13/24/57 12/23/58
f 4/3/59 2/1/60 12/23/61 14/25/62
f 5/4/63 4/3/64 14/25/65 15/26/66
f 6/5/67 5/4/68 15/26/69 16/27/70
f 1/2/71 3/6/72 17/28/73 13/24/74
f 11/7/75 10/8/76 18/30/77 19/29/78
f 3/6/79 11/7/80 19/29/81 17/28/82
f 9/9/83 8/10/84 20/32/85 21/31/86
f 10/8/87 9/9/88 21/31/89 18/30/90
f 8/10/91 7/11/92 22/33/93 20/32/94
f 7/11/95 6/5/96 16/27/97 22/33/98
