# This file uses centimeters as units for non-parametric coordinates.

v -57.264679 0.000000 57.264679
v 57.264679 0.000000 57.264679
v -58.219055 41.176537 58.219055
v 58.219055 37.512524 58.219055
v -58.219055 41.176537 -58.219055
v 58.219055 41.176537 -58.219055
v -57.264679 0.000000 -57.264679
v 57.264679 0.000000 -57.264679
v -58.219055 32.476227 58.219055
v 58.219055 32.476227 58.219055
v 58.219055 32.476227 -58.219055
v -58.219055 32.476227 -58.219055
v -51.172424 30.021408 51.172424
v 51.172424 30.021408 51.172424
v 51.172424 30.021423 -51.172424
v -51.172424 30.021423 -51.172424
v -53.894638 26.874119 53.894638
v 53.894638 26.874119 53.894638
v 53.894638 26.874126 -53.894638
v -53.894638 26.874126 -53.894638
v -36.447384 48.262993 29.787987
v 36.447384 48.262993 36.447384
v 36.447384 48.262993 -36.447384
v -36.447384 48.262993 -36.447384
v -57.264679 8.394293 57.264679
v 57.264679 8.394293 57.264679
v 57.264679 8.394295 -57.264679
v -57.264679 8.394295 -57.264679
v 53.894638 9.844739 -53.894638
v 53.894638 9.844737 53.894638
v -53.894638 9.844737 53.894638
v -53.894638 9.844739 -53.894638
v -7.456773 48.262993 36.447384
v -42.810963 46.191715 42.810963
v 47.228931 41.176537 58.219055
v 54.646130 42.339489 54.646130
v 58.219055 41.176537 38.676785
v -41.191029 32.476227 58.219055
v -14.542422 32.476227 58.219055
v -31.405338 35.616184 58.219055
v -31.774214 31.504337 55.429199
v 11.935839 41.176537 -58.219055
v 40.031773 41.176537 -58.219055
v 32.432091 43.126335 -52.228661
v 31.506176 37.709641 -58.219055
v -58.219055 41.176537 5.530673
v -58.219055 41.176537 -21.767830
v -56.352444 41.784103 -5.028959
v -58.219055 38.036583 -4.740512
vt 0.101201 0.278278
vt 0.101201 0.278278
vt 0.059700 0.251240
vt 0.059700 0.251240
vt 0.059700 0.251240
vt 0.059700 0.251240
vt 0.101201 0.278278
vt 0.101201 0.278278
vt 0.101201 0.278278
vt 0.101201 0.278278
vt 0.101201 0.278278
vt 0.059700 0.251240
vt 0.101201 0.278278
vt 0.059700 0.251240
vt 0.059700 0.251240
vt 0.059700 0.251240
vt 0.059700 0.251240
vt 0.059700 0.251240
vt 0.059700 0.251240
vt 0.059700 0.251240
vt 0.101201 0.278278
vt 0.101201 0.278278
vt 0.101201 0.278278
vt 0.101201 0.278278
vt 0.101201 0.278278
vt 0.101201 0.278278
vt 0.101201 0.278278
vt 0.101201 0.278278
vt 0.101201 0.278278
vt 0.101201 0.278278
vt 0.101201 0.278278
vt 0.101201 0.278278
vt 0.059700 0.251240
vt 0.059700 0.251240
vt 0.059700 0.251240
vt 0.059700 0.251240
vt 0.101201 0.278278
vt 0.101201 0.278278
vt 0.101201 0.278278
vt 0.101201 0.278278
vt 0.101201 0.278278
vt 0.101201 0.278278
vt 0.101201 0.278278
vt 0.101201 0.278278
vt 0.101201 0.278278
vt 0.101201 0.278278
vt 0.101201 0.278278
vt 0.101201 0.278278
vt 0.059700 0.251240
vt 0.059700 0.251240
vt 0.059700 0.251240
vt 0.059700 0.251240
vt 0.059700 0.251240
vt 0.059700 0.251240
vt 0.059700 0.251240
vt 0.059700 0.251240
vt 0.059700 0.251240
vt 0.059700 0.251240
vt 0.059700 0.251240
vt 0.059700 0.251240
vt 0.059700 0.251240
vt 0.059700 0.251240
vt 0.059700 0.251240
vt 0.059700 0.251240
vt 0.059700 0.251240
vn 0.000000 0.000000 1.000000
vn 0.000000 0.000000 1.000000
vn 0.000000 0.000000 1.000000
vn 0.000000 1.000000 0.000000
vn 0.000000 1.000000 0.000000
vn 0.000000 1.000000 0.000000
vn 0.000000 1.000000 0.000000
vn 0.000000 1.000000 0.000000
vn 0.000000 0.000000 -1.000000
vn 0.000000 0.000000 -1.000000
vn 0.000000 0.000000 -1.000000
vn 0.000000 0.000000 -1.000000
vn 0.000000 -1.000000 0.000000
vn 0.000000 -1.000000 0.000000
vn 0.000000 -1.000000 0.000000
vn 0.000000 -1.000000 0.000000
vn 1.000000 -0.000000 0.000000
vn 1.000000 -0.000000 0.000000
vn 1.000000 -0.000000 0.000000
vn 1.000000 -0.000000 0.000000
vn 1.000000 -0.000000 0.000000
vn -1.000000 -0.000001 0.000000
vn -1.000000 -0.000001 0.000000
vn -1.000000 -0.000001 0.000000
vn -1.000000 -0.000001 0.000000
vn 0.000000 -0.944337 0.328979
vn 0.000000 -0.944337 0.328979
vn 0.000000 -0.944337 0.328979
vn 0.328976 -0.944338 -0.000000
vn 0.328976 -0.944338 -0.000000
vn 0.328976 -0.944338 -0.000000
vn 0.328976 -0.944338 -0.000000
vn 0.000000 -0.944339 -0.328975
vn 0.000000 -0.944339 -0.328975
vn 0.000000 -0.944339 -0.328975
vn 0.000000 -0.944339 -0.328975
vn -0.328976 -0.944338 -0.000000
vn -0.328976 -0.944338 -0.000000
vn -0.328976 -0.944338 -0.000000
vn -0.328976 -0.944338 -0.000000
vn 0.000000 0.654184 0.756335
vn 0.000000 0.654184 0.756335
vn 0.000000 0.654184 0.756335
vn 0.000000 0.654184 0.756335
vn 0.756335 0.654184 0.000000
vn 0.756335 0.654184 0.000000
vn 0.756335 0.654184 0.000000
vn 0.756335 0.654184 0.000000
vn 0.000000 0.654183 -0.756336
vn 0.000000 0.654183 -0.756336
vn 0.000000 0.654183 -0.756336
vn 0.000000 0.654183 -0.756336
vn -0.756335 0.654184 0.000000
vn -0.756335 0.654184 0.000000
vn -0.756335 0.654184 0.000000
vn -0.756335 0.654184 0.000000
vn 0.000000 0.918538 0.395333
vn 0.000000 0.918538 0.395333
vn 0.000000 0.918538 0.395333
vn 0.000000 0.918538 0.395333
vn 0.395333 0.918538 0.000000
vn 0.395333 0.918538 0.000000
vn 0.395333 0.918538 0.000000
vn 0.395333 0.918538 0.000000
vn 0.000000 0.918538 -0.395333
vn 0.000000 0.918538 -0.395333
vn 0.000000 0.918538 -0.395333
vn 0.000000 0.918538 -0.395333
vn -0.395333 0.918538 0.000000
vn -0.395333 0.918538 0.000000
vn -0.395333 0.918538 0.000000
vn -0.395333 0.918538 0.000000
vn 0.000000 0.950897 0.309507
vn 0.000000 0.950897 0.309507
vn 0.000000 0.950897 0.309507
vn 0.000000 0.950897 0.309507
vn 0.000000 0.950897 0.309507
vn 0.000000 0.950897 0.309507
vn 0.309507 0.950897 0.000000
vn 0.309507 0.950897 0.000000
vn 0.309507 0.950897 0.000000
vn 0.309507 0.950897 0.000000
vn 0.309507 0.950897 0.000000
vn -0.000001 0.950897 -0.309507
vn -0.000001 0.950897 -0.309507
vn -0.000001 0.950897 -0.309507
vn -0.000001 0.950897 -0.309507
vn -0.309507 0.950897 0.000000
vn -0.309507 0.950897 0.000000
vn -0.309507 0.950897 0.000000
vn -0.309507 0.950897 0.000000
vn 0.000000 0.000000 1.000000
vn 0.000000 0.000000 1.000000
vn 0.000000 0.000000 1.000000
vn 0.000000 0.000000 1.000000
vn 1.000000 0.000000 0.000000
vn 1.000000 0.000000 0.000000
vn 1.000000 0.000000 0.000000
vn 1.000000 0.000000 0.000000
vn 0.000000 0.000000 -1.000000
vn 0.000000 0.000000 -1.000000
vn 0.000000 0.000000 -1.000000
vn 0.000000 0.000000 -1.000000
vn -1.000000 0.000000 0.000000
vn -1.000000 0.000000 0.000000
vn -1.000000 0.000000 0.000000
vn -1.000000 0.000000 0.000000
vn 1.000000 0.000000 0.000000
vn 1.000000 0.000000 0.000000
vn 1.000000 0.000000 0.000000
vn 1.000000 0.000000 0.000000
vn 0.000000 0.000000 1.000000
vn 0.000000 0.000000 1.000000
vn 0.000000 0.000000 1.000000
vn 0.000000 0.000000 1.000000
vn -1.000000 0.000000 0.000000
vn -1.000000 0.000000 0.000000
vn -1.000000 0.000000 0.000000
vn -1.000000 0.000000 0.000000
vn 0.000000 0.000000 -1.000000
vn 0.000000 0.000000 -1.000000
vn 0.000000 0.000000 -1.000000
vn 0.000000 0.000000 -1.000000
vn -0.032500 0.989407 0.141482
vn -0.032500 0.989407 0.141482
vn -0.032500 0.989407 0.141482
vn 0.227549 0.682527 0.694534
vn 0.227549 0.682527 0.694535
vn 0.227549 0.682527 0.694534
vn 0.752779 0.646999 0.121307
vn 0.752779 0.646999 0.121307
vn 0.752779 0.646999 0.121307
vn 0.180735 -0.563261 0.806270
vn 0.180735 -0.563261 0.806270
vn 0.180735 -0.563261 0.806270
vn -0.102813 -0.552150 0.827382
vn -0.102813 -0.552150 0.827382
vn -0.102813 -0.552150 0.827382
vn 0.000000 0.000000 1.000000
vn 0.000000 0.000000 1.000000
vn 0.000000 0.000000 1.000000
vn 0.000000 0.000000 1.000000
vn 0.000000 0.000000 1.000000
vn 0.000000 0.000000 1.000000
vn 0.000000 0.000000 1.000000
vn 0.000000 0.000000 1.000000
vn 0.000000 0.000000 1.000000
vn -0.000000 -0.944339 0.328976
vn -0.000000 -0.944338 0.328976
vn -0.000000 -0.944338 0.328976
vn -0.000000 -0.944338 0.328976
vn 0.000000 -0.944338 0.328976
vn 0.000000 -0.944338 0.328976
vn 0.000000 -0.944338 0.328976
vn 0.000000 -0.944338 0.328976
vn -0.297109 0.730633 -0.614737
vn -0.297109 0.730633 -0.614737
vn -0.297109 0.730633 -0.614737
vn 0.128543 0.725613 -0.675990
vn 0.128543 0.725613 -0.675990
vn 0.128543 0.725613 -0.675990
vn 0.000000 0.950897 -0.309507
vn 0.000000 0.950897 -0.309507
vn 0.000000 0.950897 -0.309507
vn 0.000000 0.950897 -0.309507
vn 0.000000 0.950897 -0.309507
vn 0.000000 0.000000 -1.000000
vn 0.000000 0.000000 -1.000000
vn 0.000000 0.000000 -1.000000
vn 0.000000 0.000000 -1.000000
vn 0.000000 0.000000 -1.000000
vn 0.000000 0.000000 -1.000000
vn 0.000000 0.000000 -1.000000
vn -0.889471 0.449415 0.082876
vn -0.889471 0.449415 0.082876
vn -0.889471 0.449415 0.082876
vn -0.891241 0.433716 -0.132589
vn -0.891241 0.433716 -0.132589
vn -0.891241 0.433716 -0.132589
vn -0.309507 0.950897 -0.000000
vn -0.309507 0.950897 -0.000000
vn -0.309507 0.950897 -0.000000
vn -0.309507 0.950897 -0.000000
vn -0.309507 0.950897 -0.000000
vn -1.000000 0.000000 0.000000
vn -1.000000 0.000000 0.000000
vn -1.000000 0.000000 0.000000
vn -1.000000 0.000000 0.000000
vn -1.000000 0.000001 0.000000
vn -1.000000 0.000001 0.000000
vn -1.000000 0.000001 0.000000
vn -0.309507 0.950897 0.000000
vn -0.309507 0.950897 0.000000
vn -0.309507 0.950897 0.000000
s off
f 3/6/1 40/56/2 35/51/3
f 21/12/4 33/49/5 22/14/6 23/15/7 24/16/8
f 11/19/9 45/61/10 43/59/11 6/18/12
f 7/7/13 8/8/14 2/10/15 1/9/16
f 10/4/17 11/19/18 6/18/19 37/53/20 4/5/21
f 12/20/22 49/65/23 47/63/24 5/17/25
f 13/33/26 14/34/27 41/57/28
f 14/34/29 15/35/30 11/19/31 10/4/32
f 12/20/33 11/19/34 15/35/35 16/36/36
f 16/36/37 13/33/38 9/3/39 12/20/40
f 17/27/41 18/28/42 14/22/43 13/21/44
f 18/28/45 19/30/46 15/24/47 14/22/48
f 16/26/49 15/23/50 19/29/51 20/32/52
f 20/31/53 17/27/54 13/21/55 16/25/56
f 25/37/57 26/38/58 30/45/59 31/46/60
f 26/38/61 27/40/62 29/44/63 30/45/64
f 32/48/65 29/43/66 27/39/67 28/42/68
f 28/41/69 25/37/70 31/46/71 32/47/72
f 3/6/73 35/51/74 36/52/75 22/14/76 33/49/77 34/50/78
f 36/52/79 37/53/80 6/18/81 23/15/82 22/14/83
f 6/18/84 43/59/85 44/60/86 23/15/87
f 5/17/88 47/63/89 48/64/90 24/16/91
f 1/1/92 2/2/93 26/38/94 25/37/95
f 2/2/96 8/11/97 27/40/98 26/38/99
f 28/42/100 27/39/101 8/8/102 7/7/103
f 7/13/104 1/1/105 25/37/106 28/41/107
f 30/45/108 29/44/109 19/30/110 18/28/111
f 31/46/112 30/45/113 18/28/114 17/27/115
f 32/47/116 31/46/117 17/27/118 20/31/119
f 20/32/120 19/29/121 29/43/122 32/48/123
f 34/50/124 33/49/125 21/12/126
f 36/52/127 35/51/128 4/5/129
f 4/5/130 37/53/131 36/52/132
f 38/54/133 41/57/134 40/56/135
f 40/56/136 41/57/137 39/55/138
f 9/3/139 38/54/140 40/56/141 3/6/142
f 35/51/143 40/56/144 39/55/145 10/4/146 4/5/147
f 41/57/148 14/34/149 10/4/150 39/55/151
f 13/33/152 41/57/153 38/54/154 9/3/155
f 45/61/156 44/60/157 43/59/158
f 42/58/159 44/60/160 45/61/161
f 23/15/162 44/60/163 42/58/164 5/17/165 24/16/166
f 5/17/167 42/58/168 45/61/169 12/20/170
f 12/20/171 45/61/172 11/19/173
f 47/63/174 49/65/175 48/64/176
f 48/64/177 49/65/178 46/62/179
f 21/12/180 48/64/181 46/62/182 3/6/183 34/50/184
f 49/65/185 9/3/186 3/6/187 46/62/188
f 12/20/189 9/3/190 49/65/191
f 24/16/192 48/64/193 21/12/194
