# This file uses centimeters as units for non-parametric coordinates.

v 27.426331 5.727264 -24.682495
v 27.426331 5.727264 24.956665
v 27.426331 10.661461 -24.682495
v 27.426331 10.661461 24.956665
v 36.623657 10.661461 -24.682495
v 36.623657 8.688446 24.956665
v 36.623657 5.727264 -24.682495
v 36.623657 5.727264 24.956665
v -37.218536 5.727264 -23.691162
v -37.218536 5.727264 25.947998
v -37.218536 8.383781 -23.691162
v -37.218536 10.661461 25.947998
v -28.446045 10.661461 -23.691162
v -28.446045 10.661461 25.947998
v -28.446045 5.727264 -23.691162
v -28.446045 5.727264 25.947998
v -32.029633 10.661461 -23.691162
v -37.218536 10.661461 -13.517212
v 36.623657 10.661461 17.637085
v 32.208618 10.661461 24.956665
v 27.426331 10.661461 -8.176270
v 27.426331 9.157967 -13.974609
v 27.426331 10.661461 -21.834229
v 29.294800 10.661461 -14.418335
v -51.657043 0.000000 10.672485
v 49.451660 0.000000 6.451050
v -51.657043 4.934189 10.672485
v 49.451660 2.365311 6.451050
v -52.642120 4.934189 -5.921387
v 48.466553 4.934189 -10.142944
v -52.642120 0.000000 -5.921387
v 48.466553 0.000000 -10.142944
v -50.613312 0.000000 -11.067627
v 50.620544 0.000000 -11.067627
v -50.613312 4.934189 -11.067627
v 50.620544 4.934189 -11.067627
v -50.613312 4.934189 -27.682007
v 50.620544 2.961189 -27.682007
v -50.613312 0.000000 -27.682007
v 50.620544 0.000000 -27.682007
v -48.591675 0.000000 27.682007
v 52.642151 0.000000 27.682007
v -48.591675 2.656509 27.682007
v 52.642151 4.934189 27.682007
v -48.591675 4.934189 11.067627
v 52.642151 4.934189 11.067627
v -48.591675 0.000000 11.067627
v 52.642151 0.000000 11.067627
v -48.591675 4.934189 17.854736
v -27.842804 4.934189 27.682007
v 35.693176 4.934189 -27.682007
v 50.620544 4.934189 -19.706421
v 37.724487 4.934189 6.940552
v 49.124023 4.934189 0.932983
v -16.950684 4.934189 -11.067627
v -28.775848 3.430710 -11.067627
v -44.804596 4.934189 -11.067627
v -29.680542 4.934189 -14.442871
vt 0.037919 0.286131
vt 0.037919 0.244685
vt 0.037919 0.244685
vt 0.037919 0.286131
vt 0.037919 0.244685
vt 0.037919 0.286131
vt 0.037919 0.244685
vt 0.037919 0.286131
vt 0.037919 0.244685
vt 0.037919 0.286131
vt 0.037919 0.244685
vt 0.037919 0.244685
vt 0.037919 0.286131
vt 0.037919 0.286131
vt 0.037919 0.250336
vt 0.037919 0.286131
vt 0.037919 0.286131
vt 0.037919 0.250336
vt 0.037919 0.286131
vt 0.037919 0.250336
vt 0.037919 0.286131
vt 0.037919 0.250336
vt 0.037919 0.286131
vt 0.037919 0.250336
vt 0.037919 0.286131
vt 0.037919 0.286131
vt 0.037919 0.250336
vt 0.037919 0.250336
vt 0.037919 0.250337
vt 0.037919 0.250337
vt 0.037919 0.250336
vt 0.037919 0.244685
vt 0.037919 0.244685
vt 0.037919 0.244685
vt 0.037919 0.286131
vt 0.037919 0.286131
vt 0.037919 0.286131
vt 0.037919 0.286131
vt 0.037919 0.286131
vt 0.037919 0.244685
vt 0.037919 0.244685
vt 0.037919 0.244685
vt 0.037919 0.286131
vt 0.037919 0.244685
vt 0.037919 0.286131
vt 0.037919 0.286131
vt 0.037919 0.286131
vt 0.037919 0.286131
vt 0.037919 0.244685
vt 0.037919 0.286131
vt 0.037919 0.286131
vt 0.037919 0.286131
vt 0.037919 0.244685
vt 0.037919 0.286131
vt 0.037919 0.286131
vt 0.037919 0.286131
vt 0.037919 0.286131
vt 0.037919 0.286131
vt 0.037919 0.250336
vt 0.037919 0.286131
vt 0.037919 0.286131
vt 0.037919 0.259540
vt 0.037919 0.250336
vt 0.037919 0.259540
vt 0.037919 0.250336
vt 0.037919 0.250336
vt 0.037919 0.286131
vt 0.037919 0.244685
vt 0.037919 0.244685
vt 0.037919 0.286131
vt 0.037919 0.286131
vt 0.037919 0.286131
vt 0.037919 0.244685
vt 0.037919 0.286131
vt 0.037919 0.253889
vt 0.037919 0.288760
vt 0.037919 0.244685
vt 0.037919 0.286131
vt 0.037919 0.253889
vt 0.037919 0.244685
vt 0.037919 0.288760
vt 0.037919 0.286131
vt 0.037919 0.286131
vt 0.037919 0.250336
vt 0.037919 0.250336
vt 0.037919 0.250336
vt 0.037919 0.286131
vt 0.037919 0.286131
vt 0.037919 0.286131
vt 0.037919 0.286131
vt 0.037919 0.286131
vt 0.037919 0.250336
vt 0.037919 0.250336
vn 0.007526 0.999961 0.004540
vn 0.015970 0.999826 0.009633
vn 0.000000 1.000000 0.000000
vn 0.000000 -1.000000 0.000000
vn 0.000000 -1.000000 0.000000
vn 0.000000 -1.000000 0.000000
vn 0.000000 -1.000000 0.000000
vn -0.000000 0.000000 -1.000000
vn -0.000000 0.000000 -1.000000
vn -0.000000 0.000000 -1.000000
vn -0.000000 0.000000 -1.000000
vn -1.000000 0.000000 0.000000
vn -1.000000 0.000000 0.000000
vn -1.000000 0.000000 0.000000
vn -1.000000 0.000000 0.000000
vn -1.000000 0.000000 0.000000
vn -0.015280 0.999853 -0.007793
vn -0.005417 0.999982 -0.002763
vn 0.000000 1.000000 0.000000
vn 0.000000 1.000000 0.000000
vn 0.000000 1.000000 0.000000
vn 1.000000 0.000000 -0.000000
vn 1.000000 0.000000 -0.000000
vn 1.000000 0.000000 -0.000000
vn 1.000000 0.000000 -0.000000
vn 0.000000 -1.000000 0.000000
vn 0.000000 -1.000000 0.000000
vn 0.000000 -1.000000 0.000000
vn 0.000000 -1.000000 0.000000
vn 0.000000 0.000000 1.000000
vn 0.000000 0.000000 1.000000
vn 0.000000 0.000000 1.000000
vn 0.000000 0.000000 1.000000
vn -0.000000 0.000000 -1.000000
vn -0.000000 0.000000 -1.000000
vn 0.000000 0.000000 -1.000000
vn 0.000000 0.000000 -1.000000
vn -0.000000 0.000000 -1.000000
vn 0.000000 1.000000 0.000000
vn -0.005417 0.999982 -0.002763
vn -0.015280 0.999853 -0.007793
vn -0.629591 0.776683 -0.019454
vn -0.026622 0.999645 0.001040
vn -0.011775 0.999926 0.002967
vn 0.000000 0.000000 1.000000
vn 0.000000 0.000000 1.000000
vn 0.000000 0.000000 1.000000
vn 0.000000 0.000000 1.000000
vn 0.000000 0.000000 1.000000
vn 1.000000 0.000000 -0.000000
vn 1.000000 -0.000001 0.000000
vn 1.000000 -0.000001 0.000000
vn 1.000000 0.000000 -0.000000
vn 1.000000 0.000000 -0.000000
vn 0.007526 0.999961 0.004540
vn -0.026622 0.999645 0.001040
vn -0.002826 0.999996 -0.000846
vn 0.000000 1.000000 0.000000
vn 0.015970 0.999826 0.009633
vn -1.000000 0.000000 0.000000
vn -1.000000 0.000000 0.000000
vn -1.000000 -0.000001 0.000000
vn -0.002826 0.999996 -0.000846
vn -0.026622 0.999645 0.001040
vn -0.629591 0.776683 -0.019454
vn 0.000000 1.000000 0.000000
vn -0.011775 0.999926 0.002967
vn -0.026622 0.999645 0.001040
vn 0.000000 1.000000 0.000000
vn 0.000000 1.000000 0.000000
vn -0.026622 0.999645 0.001040
vn 0.007526 0.999961 0.004540
vn -1.000000 -0.000001 0.000000
vn -1.000000 0.000000 0.000000
vn -1.000000 0.000000 0.000000
vn -1.000000 0.000001 0.000000
vn -1.000000 0.000000 0.000000
vn -1.000000 -0.000001 0.000000
vn -1.000000 0.000000 0.000000
vn -1.000000 0.000000 0.000000
vn 0.000000 0.000000 1.000000
vn 0.000000 0.000000 1.000000
vn 0.041715 0.000013 0.999130
vn 0.041715 0.000013 0.999130
vn 0.000000 0.000000 1.000000
vn 0.000000 1.000000 0.000000
vn 0.000846 0.999998 0.001605
vn 0.002749 0.999983 0.005216
vn 0.000000 1.000000 0.000000
vn 0.000000 1.000000 0.000000
vn 0.000000 0.000000 -1.000000
vn 0.000000 0.000000 -1.000000
vn 0.000000 0.000000 -1.000000
vn 0.000000 0.000000 -1.000000
vn 0.000000 -1.000000 0.000000
vn 0.000000 -1.000000 0.000000
vn 0.000000 -1.000000 0.000000
vn 0.000000 -1.000000 0.000000
vn 1.000000 0.000000 0.000000
vn 1.000000 0.000000 0.000000
vn 1.000000 0.000000 0.000000
vn 0.998243 0.000007 -0.059260
vn 0.998243 0.000007 -0.059260
vn -1.000000 0.000000 0.000000
vn -1.000000 0.000000 0.000000
vn -1.000000 0.000000 0.000000
vn -1.000000 0.000000 0.000000
vn 0.001849 0.999992 -0.003462
vn 0.004908 0.999946 -0.009185
vn 0.000000 1.000000 0.000000
vn 0.000000 -1.000000 0.000000
vn 0.000000 -1.000000 0.000000
vn 0.000000 -1.000000 0.000000
vn 0.000000 -1.000000 0.000000
vn -1.000000 0.000000 0.000000
vn -1.000000 0.000000 0.000000
vn -1.000000 0.000000 0.000000
vn -1.000000 0.000000 0.000000
vn 0.000000 0.000000 1.000000
vn 0.000000 0.000000 1.000000
vn 0.000000 0.000000 1.000000
vn -0.000000 0.000000 1.000000
vn -0.000000 0.000000 1.000000
vn -0.003872 0.999959 0.008175
vn -0.001181 0.999996 0.002493
vn 0.000000 1.000000 0.000000
vn 0.000000 1.000000 0.000000
vn 0.000000 1.000000 0.000000
vn 0.000000 0.000000 -1.000000
vn 0.000000 0.000000 -1.000000
vn 0.000000 0.000000 -1.000000
vn 0.000000 0.000000 -1.000000
vn 0.000000 -1.000000 0.000000
vn 0.000000 -1.000000 0.000000
vn 0.000000 -1.000000 0.000000
vn 0.000000 -1.000000 0.000000
vn 1.000000 0.000000 0.000000
vn 1.000000 0.000000 0.000000
vn 1.000000 0.000000 0.000000
vn 1.000000 0.000000 0.000000
vn -1.000000 0.000000 0.000000
vn -1.000000 0.000000 0.000000
vn -1.000000 0.000000 0.000000
vn -1.000000 0.000000 0.000000
vn -1.000000 0.000000 0.000000
vn 0.000000 1.000000 0.000000
vn -0.001181 0.999996 0.002493
vn -0.003872 0.999959 0.008175
vn -0.015333 0.911831 0.410279
vn 0.000670 0.999890 0.014804
vn 0.001113 0.999987 0.004989
vn 1.000000 0.000000 0.000000
vn 1.000000 0.000000 0.000000
vn 1.000000 -0.000000 0.000000
vn 1.000000 -0.000000 0.000000
vn 1.000000 0.000000 0.000000
vn 0.000000 0.000000 -1.000000
vn 0.000000 0.000000 -1.000000
vn 0.000000 0.000000 -1.000000
vn 0.000000 0.000000 -1.000000
vn 0.000000 0.000000 -1.000000
vn 0.002749 0.999983 0.005216
vn 0.000846 0.999998 0.001605
vn 0.000000 1.000000 0.000000
vn 0.001849 0.999992 -0.003462
vn 0.000670 0.999890 0.014804
vn -0.000308 0.999999 0.001162
vn 0.000000 1.000000 0.000000
vn 0.004908 0.999946 -0.009185
vn 0.000000 0.000000 1.000000
vn 0.000000 0.000000 1.000000
vn 0.000000 0.000000 1.000000
vn -0.000308 0.999999 0.001162
vn 0.000670 0.999890 0.014804
vn -0.015333 0.911831 0.410279
vn 0.000000 1.000000 0.000000
vn 0.001113 0.999987 0.004989
vn 0.000670 0.999890 0.014804
vn 0.000000 1.000000 0.000000
vn 0.000000 1.000000 0.000000
vn 0.000670 0.999890 0.014804
vn 0.001849 0.999992 -0.003462
vn 0.000000 0.000000 1.000000
vn 0.000000 0.000000 1.000000
vn 0.000000 0.000000 1.000000
vn -0.000000 0.000000 1.000000
vn 0.000000 0.000000 1.000000
vn 0.000000 0.000000 1.000000
vn 0.000000 0.000000 1.000000
vn 0.000000 0.000000 1.000000
s off
f 19/32/1 20/33/2 6/5/3
f 7/8/4 8/7/5 2/9/6 1/10/7
f 7/13/8 1/1/9 3/4/10 5/14/11
f 9/15/12 10/16/13 12/17/14 18/31/15 11/18/16
f 17/29/17 18/31/18 12/17/19 14/19/20 13/20/21
f 13/20/22 14/19/23 16/21/24 15/22/25
f 15/22/26 16/21/27 10/23/28 9/24/29
f 10/16/30 16/25/31 14/26/32 12/17/33
f 15/27/34 9/15/35 11/18/36 17/30/37 13/28/38
f 11/18/39 18/31/40 17/29/41
f 22/36/42 24/38/43 23/37/44
f 2/2/45 8/11/46 6/12/47 20/34/48 4/3/49
f 5/6/50 19/32/51 6/5/52 8/7/53 7/8/54
f 19/32/55 24/38/56 21/35/57 4/3/58 20/33/59
f 1/1/60 2/2/61 22/36/62
f 21/35/63 24/38/64 22/36/65
f 3/4/66 23/37/67 24/38/68 5/6/69
f 5/6/70 24/38/71 19/32/72
f 22/36/73 2/2/74 4/3/75 21/35/76
f 1/1/77 22/36/78 23/37/79 3/4/80
f 25/39/81 26/40/82 28/41/83 53/42/84 27/43/85
f 27/43/86 53/42/87 54/44/88 30/45/89 29/46/90
f 29/46/91 30/45/92 32/47/93 31/48/94
f 31/48/95 32/47/96 26/49/97 25/50/98
f 26/40/99 32/51/100 30/52/101 54/53/102 28/41/103
f 31/54/104 25/39/105 27/43/106 29/55/107
f 51/56/108 52/57/109 38/58/110
f 39/59/111 40/60/112 34/61/113 33/62/114
f 39/63/115 33/64/116 35/65/117 37/66/118
f 41/67/119 42/68/120 44/69/121 50/70/122 43/71/123
f 49/72/124 50/70/125 44/69/126 46/73/127 45/74/128
f 45/74/129 46/73/130 48/75/131 47/76/132
f 47/76/133 48/75/134 42/77/135 41/78/136
f 42/68/137 48/79/138 46/80/139 44/69/140
f 47/81/141 41/67/142 43/71/143 49/82/144 45/83/145
f 43/71/146 50/70/147 49/72/148
f 56/84/149 58/85/150 57/86/151
f 34/87/152 40/88/153 38/89/154 52/90/155 36/91/156
f 37/92/157 51/56/158 38/58/159 40/60/160 39/59/161
f 54/44/162 53/42/163 28/41/164
f 51/56/165 58/85/166 55/93/167 36/91/168 52/57/169
f 33/64/170 34/87/171 56/84/172
f 55/93/173 58/85/174 56/84/175
f 35/65/176 57/86/177 58/85/178 37/92/179
f 37/92/180 58/85/181 51/56/182
f 56/84/183 34/87/184 36/91/185 55/93/186
f 33/64/187 56/84/188 57/86/189 35/65/190
