# This file uses centimeters as units for non-parametric coordinates.

v 14.570969 -36.102116 -4.027100
v 2.930550 -35.899982 -17.061035
v -14.176819 -35.659851 -13.495117
v -19.643074 -35.621784 3.104492
v -8.002419 -35.823883 16.138184
v 9.104713 -36.064034 12.572510
v 19.643066 312.247864 -3.155518
v 8.301048 332.955780 -16.138184
v -8.874847 328.492279 -12.583984
v -14.571198 312.728180 3.976074
v -2.631912 333.031860 17.061035
v 14.176804 312.285919 13.443848
v -2.535934 -35.861942 -0.461426
v 3.508720 379.282288 0.577148
v 1.281021 366.532501 6.745605
v -4.045403 344.388367 8.026367
v 4.664795 351.732330 8.643066
v -10.235031 235.055023 -12.817871
v -9.371048 294.404724 -12.669434
v -4.683517 261.389709 -13.828857
v -11.208809 270.547028 -8.204346
v 12.189362 188.578186 -5.473389
v 4.454384 140.174744 -13.464111
v -9.603912 126.351715 -10.611328
v -13.539948 160.106262 2.916260
v -3.417480 207.683914 13.591309
v 10.641022 221.506927 10.738525
v 6.986488 359.456970 -8.366455
v -2.382996 354.743134 -8.059570
v 13.209991 199.475845 1.909180
v 15.866211 216.546936 -2.898438
v 14.682892 162.953262 -2.948486
v 15.988007 151.115540 -3.344482
v 5.286186 154.641525 -15.427979
v -10.797562 154.867432 -12.106201
v -15.542198 151.558105 3.250244
v -5.351212 147.527771 15.750977
v 11.144997 147.295853 12.459229
v 16.095169 158.473236 -3.326172
v 5.393349 161.999237 -15.409668
v -10.690643 162.225128 -12.087646
v -15.435051 158.915802 3.268555
v -5.243835 154.885498 15.769287
v 11.252373 154.653549 12.477539
v 0.241135 144.558548 0.231201
v 0.545441 165.467911 0.283447
vt 0.036802 0.221779
vt 0.036802 0.221779
vt 0.036802 0.277481
vt 0.036802 0.277481
vt 0.036802 0.277481
vt 0.036802 0.277481
vt 0.036802 0.277481
vt 0.036802 0.277481
vt 0.036802 0.277481
vt 0.036802 0.221779
vt 0.036802 0.221779
vt 0.036802 0.277481
vt 0.036802 0.277481
vt 0.036802 0.221779
vt 0.036802 0.277481
vt 0.036802 0.221779
vt 0.036802 0.277481
vt 0.036802 0.221779
vt 0.036802 0.277481
vt 0.036802 0.277481
vt 0.035984 0.274970
vt 0.035984 0.274970
vt 0.035984 0.274970
vt 0.035984 0.274970
vt 0.035984 0.274970
vt 0.035984 0.274970
vt 0.035984 0.274970
vt 0.036802 0.326580
vt 0.036802 0.326580
vt 0.036802 0.326580
vt 0.036802 0.326580
vt 0.036802 0.326580
vt 0.036802 0.326580
vt 0.036802 0.326580
vt 0.036802 0.326580
vt 0.036802 0.326580
vt 0.036802 0.326580
vt 0.036802 0.326580
vt 0.036802 0.326580
vt 0.036802 0.326580
vt 0.036802 0.326580
vt 0.036802 0.326580
vt 0.036802 0.326580
vt 0.036802 0.326580
vt 0.036802 0.326580
vt 0.036802 0.326580
vt 0.036802 0.326580
vt 0.036802 0.326580
vt 0.036802 0.326580
vt 0.036802 0.326580
vt 0.036802 0.277481
vt 0.036802 0.277481
vt 0.036802 0.277481
vt 0.036802 0.277481
vt 0.036802 0.277481
vt 0.036802 0.277481
vt 0.036802 0.277481
vt 0.036802 0.277481
vt 0.036802 0.277481
vt 0.036802 0.326580
vt 0.036802 0.326580
vt 0.036802 0.326580
vt 0.036802 0.326580
vt 0.036802 0.277481
vt 0.035984 0.378134
vt 0.035984 0.378134
vt 0.035984 0.378134
vt 0.035984 0.378134
vt 0.035984 0.378134
vt 0.035984 0.378134
vt 0.035984 0.378134
vt 0.035984 0.378134
vt 0.035984 0.378134
vt 0.035984 0.378134
vt 0.035984 0.378134
vt 0.035984 0.378134
vt 0.035984 0.378134
vt 0.035984 0.378134
vt 0.035984 0.378134
vt 0.035984 0.378134
vt 0.035984 0.378134
vt 0.035984 0.378134
vt 0.035984 0.378134
vt 0.035984 0.378134
vt 0.035984 0.378134
vt 0.035984 0.378134
vt 0.035984 0.378134
vt 0.035984 0.378134
vt 0.035984 0.378134
vt 0.035984 0.378134
vt 0.035984 0.378134
vt 0.035984 0.378134
vn 0.729201 0.005014 -0.684281
vn 0.729201 0.005014 -0.684281
vn 0.729201 0.005014 -0.684281
vn 0.729201 0.005014 -0.684281
vn 0.729201 0.005014 -0.684281
vn -0.203979 0.005421 -0.978960
vn -0.203979 0.005421 -0.978960
vn -0.203979 0.005421 -0.978960
vn -0.203979 0.005421 -0.978960
vn -0.943854 0.030646 -0.328939
vn -0.943854 0.030646 -0.328939
vn -0.943854 0.030646 -0.328939
vn -0.943854 0.030646 -0.328939
vn -0.758507 0.022512 0.651276
vn -0.758507 0.022512 0.651276
vn -0.758507 0.022512 0.651276
vn -0.758507 0.022512 0.651276
vn 0.199144 0.006135 0.979951
vn 0.199144 0.006135 0.979951
vn 0.199144 0.006135 0.979951
vn 0.199144 0.006135 0.979951
vn 0.952740 -0.002776 0.303774
vn 0.952740 -0.002776 0.303774
vn 0.952740 -0.002776 0.303774
vn 0.952740 -0.002776 0.303774
vn 0.952740 -0.002776 0.303774
vn -0.014560 -0.999891 -0.002503
vn -0.014560 -0.999891 -0.002503
vn -0.014560 -0.999891 -0.002503
vn -0.014557 -0.999891 -0.002503
vn -0.014557 -0.999891 -0.002503
vn -0.014557 -0.999891 -0.002503
vn -0.014558 -0.999891 -0.002501
vn -0.014558 -0.999891 -0.002501
vn -0.014558 -0.999891 -0.002501
vn -0.014558 -0.999891 -0.002502
vn -0.014558 -0.999891 -0.002502
vn -0.014558 -0.999891 -0.002502
vn -0.014558 -0.999891 -0.002501
vn -0.014558 -0.999891 -0.002501
vn -0.014558 -0.999891 -0.002501
vn -0.014559 -0.999891 -0.002501
vn -0.014559 -0.999891 -0.002501
vn -0.014559 -0.999891 -0.002501
vn 0.957967 0.239375 -0.158112
vn 0.957967 0.239375 -0.158112
vn 0.957967 0.239375 -0.158112
vn -0.215673 0.369849 -0.903713
vn -0.215673 0.369849 -0.903713
vn -0.215673 0.369849 -0.903713
vn -0.963244 0.257820 -0.075438
vn -0.963244 0.257820 -0.075438
vn -0.963243 0.257820 -0.075438
vn -0.959543 0.239377 0.148244
vn -0.959543 0.239377 0.148244
vn -0.959543 0.239377 0.148244
vn 0.450814 0.214170 0.866544
vn 0.450814 0.214170 0.866544
vn 0.450814 0.214170 0.866544
vn 0.929455 0.206691 0.305600
vn 0.929455 0.206692 0.305600
vn 0.929455 0.206692 0.305600
vn -0.479700 0.508921 0.714764
vn -0.479700 0.508921 0.714764
vn -0.479700 0.508921 0.714764
vn -0.147691 0.092477 0.984701
vn -0.147691 0.092477 0.984701
vn -0.147691 0.092477 0.984701
vn -0.871291 0.234520 0.431106
vn -0.871291 0.234520 0.431106
vn -0.871291 0.234520 0.431106
vn -0.913285 0.263944 0.310233
vn -0.913285 0.263944 0.310233
vn -0.913285 0.263944 0.310233
vn 0.641960 0.240127 0.728166
vn 0.641960 0.240127 0.728166
vn 0.641961 0.240127 0.728166
vn 0.632187 0.242024 0.736046
vn 0.632187 0.242024 0.736046
vn 0.632187 0.242024 0.736046
vn -0.574815 0.089951 -0.813324
vn -0.574815 0.089951 -0.813324
vn -0.574815 0.089951 -0.813324
vn -0.710239 -0.076265 -0.699818
vn -0.710239 -0.076265 -0.699818
vn -0.710239 -0.076265 -0.699818
vn -0.949713 0.014612 -0.312781
vn -0.949713 0.014612 -0.312781
vn -0.949713 0.014612 -0.312781
vn -0.949713 0.014612 -0.312781
vn -0.211083 0.022538 -0.977208
vn -0.211083 0.022538 -0.977208
vn -0.211083 0.022538 -0.977208
vn -0.211083 0.022538 -0.977208
vn 0.754548 -0.027965 -0.655649
vn 0.754548 -0.027965 -0.655649
vn 0.754548 -0.027965 -0.655649
vn 0.754548 -0.027965 -0.655649
vn 0.754548 -0.027965 -0.655649
vn -0.970091 -0.005983 -0.242669
vn -0.970091 -0.005983 -0.242669
vn -0.970091 -0.005983 -0.242669
vn -0.970091 -0.005983 -0.242669
vn -0.970091 -0.005983 -0.242669
vn -0.715408 -0.012016 0.698604
vn -0.715408 -0.012016 0.698604
vn -0.715408 -0.012016 0.698604
vn -0.715408 -0.012016 0.698604
vn 0.198174 -0.031952 0.979646
vn 0.198174 -0.031952 0.979646
vn 0.198174 -0.031952 0.979646
vn 0.198174 -0.031952 0.979646
vn 0.938873 -0.041211 0.341789
vn 0.938873 -0.041211 0.341789
vn 0.938873 -0.041211 0.341789
vn 0.938873 -0.041211 0.341789
vn 0.938873 -0.041211 0.341789
vn -0.136846 -0.014804 -0.990482
vn -0.136846 -0.014804 -0.990482
vn -0.136846 -0.014804 -0.990482
vn -0.136846 -0.014804 -0.990482
vn -0.136846 -0.014804 -0.990482
vn 0.865025 0.180225 -0.468243
vn 0.865025 0.180225 -0.468243
vn 0.865025 0.180225 -0.468243
vn -0.221057 0.241917 -0.944780
vn -0.221057 0.241917 -0.944780
vn -0.221057 0.241917 -0.944780
vn -0.221057 0.241917 -0.944780
vn -0.963114 0.253660 -0.089825
vn -0.963114 0.253660 -0.089825
vn -0.963114 0.253660 -0.089825
vn 0.988669 -0.135852 0.063853
vn 0.988669 -0.135852 0.063853
vn 0.988669 -0.135852 0.063853
vn 0.968594 0.070766 -0.238367
vn 0.968594 0.070766 -0.238367
vn 0.968594 0.070766 -0.238367
vn 0.747240 -0.009230 -0.664490
vn 0.747240 -0.009230 -0.664490
vn 0.747240 -0.009230 -0.664490
vn 0.747240 -0.009230 -0.664490
vn -0.202192 0.005395 -0.979331
vn -0.202192 0.005395 -0.979331
vn -0.202192 0.005395 -0.979331
vn -0.202192 0.005395 -0.979331
vn -0.956221 0.014642 -0.292280
vn -0.956221 0.014642 -0.292280
vn -0.956221 0.014642 -0.292280
vn -0.956221 0.014642 -0.292280
vn -0.773503 0.009699 0.633718
vn -0.773503 0.009699 0.633718
vn -0.773503 0.009699 0.633718
vn -0.773503 0.009699 0.633718
vn 0.195613 -0.005295 0.980667
vn 0.195613 -0.005295 0.980667
vn 0.195613 -0.005295 0.980667
vn 0.195613 -0.005295 0.980667
vn 0.957000 -0.014673 0.289718
vn 0.957000 -0.014673 0.289718
vn 0.957000 -0.014673 0.289718
vn 0.957000 -0.014673 0.289718
vn 0.041686 -0.846107 -0.531381
vn 0.301905 -0.898624 -0.318322
vn -0.056439 -0.973228 -0.222803
vn -0.273452 -0.844313 -0.460825
vn 0.041686 -0.846107 -0.531381
vn -0.056439 -0.973228 -0.222803
vn -0.426268 -0.888959 -0.167476
vn -0.273452 -0.844313 -0.460825
vn -0.056439 -0.973228 -0.222803
vn -0.202723 -0.972689 0.113045
vn -0.426268 -0.888959 -0.167476
vn -0.056439 -0.973228 -0.222803
vn 0.203884 -0.978288 0.037189
vn -0.202723 -0.972689 0.113045
vn -0.056439 -0.973228 -0.222803
vn 0.301905 -0.898624 -0.318322
vn 0.203884 -0.978288 0.037189
vn -0.056439 -0.973228 -0.222803
vn 0.435552 0.885901 0.159608
vn 0.189562 0.969442 -0.155718
vn 0.063889 0.971852 0.226764
vn 0.189562 0.969442 -0.155718
vn -0.210202 0.975509 -0.064790
vn 0.063889 0.971852 0.226764
vn -0.210202 0.975509 -0.064790
vn -0.309374 0.897608 0.313986
vn 0.063889 0.971852 0.226764
vn -0.309374 0.897608 0.313986
vn -0.044861 0.832536 0.552152
vn 0.063889 0.971852 0.226764
vn -0.044861 0.832536 0.552152
vn 0.278780 0.826832 0.488498
vn 0.063889 0.971852 0.226764
vn 0.278780 0.826832 0.488498
vn 0.435552 0.885901 0.159608
vn 0.063889 0.971852 0.226764
s off
f 1/1/1 2/2/2 23/3/3 22/4/4 32/5/5
f 8/6/6 20/7/7 19/8/8 9/9/9
f 3/10/10 4/11/11 25/12/12 24/13/13
f 4/11/14 5/14/15 26/15/16 25/12/17
f 5/14/18 6/16/19 27/17/20 26/15/21
f 6/16/22 1/18/23 32/19/24 30/20/25 27/17/26
f 2/21/27 1/22/28 13/23/29
f 3/24/30 2/21/31 13/23/32
f 4/25/33 3/24/34 13/23/35
f 5/26/36 4/25/37 13/23/38
f 6/27/39 5/26/40 13/23/41
f 1/22/42 6/27/43 13/23/44
f 7/28/45 28/29/46 14/30/47
f 28/31/48 29/32/49 14/33/50
f 29/34/51 10/35/52 14/36/53
f 14/37/54 16/38/55 15/39/56
f 11/40/57 12/41/58 17/42/59
f 12/43/60 7/44/61 14/45/62
f 11/40/63 17/42/64 16/46/65
f 16/46/66 17/42/67 15/47/68
f 10/48/69 11/49/70 16/38/71
f 10/48/72 16/38/73 14/37/74
f 17/42/75 14/50/76 15/47/77
f 17/42/78 12/41/79 14/50/80
f 18/51/81 21/52/82 20/7/83
f 20/7/84 21/52/85 19/8/86
f 21/52/87 10/53/88 9/9/89 19/8/90
f 2/2/91 3/10/92 24/13/93 23/3/94
f 31/54/95 22/4/96 23/3/97 8/6/98 7/55/99
f 24/13/100 25/12/101 10/53/102 21/52/103 18/51/104
f 25/12/105 26/15/106 11/56/107 10/53/108
f 26/15/109 27/17/110 12/57/111 11/56/112
f 27/17/113 30/20/114 31/58/115 7/59/116 12/57/117
f 23/3/118 24/13/119 18/51/120 20/7/121 8/6/122
f 7/28/123 8/60/124 28/29/125
f 8/61/126 9/62/127 29/32/128 28/31/129
f 9/63/130 10/35/131 29/34/132
f 31/58/133 30/20/134 22/64/135
f 30/20/136 32/19/137 22/64/138
f 33/65/139 34/66/140 40/67/141 39/68/142
f 34/66/143 35/69/144 41/70/145 40/67/146
f 35/69/147 36/71/148 42/72/149 41/70/150
f 36/71/151 37/73/152 43/74/153 42/72/154
f 37/73/155 38/75/156 44/76/157 43/74/158
f 38/75/159 33/77/160 39/78/161 44/76/162
f 34/79/163 33/80/164 45/81/165
f 35/82/166 34/79/167 45/81/168
f 36/83/169 35/82/170 45/81/171
f 37/84/172 36/83/173 45/81/174
f 38/85/175 37/84/176 45/81/177
f 33/80/178 38/85/179 45/81/180
f 39/86/181 40/87/182 46/88/183
f 40/87/184 41/89/185 46/88/186
f 41/89/187 42/90/188 46/88/189
f 42/90/190 43/91/191 46/88/192
f 43/91/193 44/92/194 46/88/195
f 44/92/196 39/86/197 46/88/198
