# This file uses centimeters as units for non-parametric coordinates.

v -435.595825 124.416687 -11.580292
v -435.595764 124.416687 -105.359726
v -426.292694 0.000000 -100.303543
v -426.292694 0.000000 -11.963654
v -16.027428 124.416687 -12.217865
v -9.226456 124.416687 -102.939804
v -13.022552 0.000000 -100.303543
v -30.429916 0.000000 -11.963654
v -443.264191 118.852455 -6.987854
v -429.259003 112.229973 0.000000
v -27.594223 112.229973 0.000000
v 0.000000 112.229973 -8.548340
v 0.000046 112.229973 -103.730484
v -27.594200 116.472221 -111.475479
v -426.232025 112.698410 -111.191086
v -447.811920 118.852455 -103.730484
v -447.811981 6.474355 -8.548325
v -429.259003 8.482354 0.000000
v -27.594223 8.482354 0.000000
v 0.000000 8.482354 -8.548325
v 0.000046 8.482354 -103.730484
v -13.170761 6.105296 -111.475479
v -429.258942 6.105296 -111.475510
v -447.811920 6.474355 -103.730484
v -447.811920 12.359379 -76.299667
v -426.292694 0.000000 -81.673477
v -438.521301 124.416687 -80.671738
v -33.704712 124.416687 -50.919678
v 0.000000 112.229973 -48.463821
v 0.000000 8.482354 -48.463821
v -30.429901 0.000000 -51.363464
v -429.258942 29.435118 -111.475510
v -424.121460 65.921593 -111.475540
v -429.258942 83.320816 -111.475540
v -437.020782 60.384918 -108.235275
v -447.811920 117.525757 -34.068970
v -438.531219 120.623100 -55.016037
v -436.916260 124.416687 -30.753250
v -430.181702 124.416687 -55.712494
v -447.811981 118.778915 -17.718216
v -447.811981 70.248024 -8.548340
v -441.134857 121.893768 -10.205551
v -12.592834 55.645226 -111.475479
v -318.190155 110.552002 -111.268173
v -245.054810 124.416687 -104.278305
v -376.748657 121.765663 -105.025742
v -320.423126 124.416687 -95.979233
v -447.811920 44.185463 -103.730453
v -447.811920 33.538689 -77.628525
v -429.259003 50.390949 0.000000
v -27.594223 42.989937 0.000000
v 0.000000 60.356163 -8.548340
v 0.000000 31.251152 -48.463821
v 0.000046 49.025875 -103.730484
v -134.860580 26.162367 -111.475510
v -447.811981 38.066959 -14.784195
v -447.811920 42.650711 -39.820129
v -157.841660 30.215965 0.000000
vt 0.103165 0.326239
vt 0.103175 0.326226
vt 0.103197 0.326211
vt 0.101530 0.325880
vt 0.101580 0.325887
vt 0.101560 0.325916
vt 0.102687 0.326621
vt 0.102741 0.326577
vt 0.101348 0.326090
vt 0.102100 0.326483
vt 0.101085 0.326306
vt 0.101077 0.326256
vt 0.101407 0.325971
vt 0.101098 0.299878
vt 0.101567 0.299502
vt 0.101532 0.299513
vt 0.101060 0.299892
vt 0.103153 0.299821
vt 0.101821 0.299553
vt 0.101968 0.300034
vt 0.102704 0.300182
vt 0.102681 0.326596
vt 0.101943 0.326447
vt 0.101072 0.326272
vt 0.101072 0.299917
vt 0.101943 0.300093
vt 0.103189 0.326216
vt 0.103189 0.326042
vt 0.103189 0.299827
vt 0.103197 0.299856
vt 0.102741 0.300222
vt 0.102681 0.300242
vt 0.101060 0.326058
vt 0.101532 0.325587
vt 0.101526 0.325719
vt 0.101552 0.325690
vt 0.101532 0.325775
vt 0.101580 0.299502
vt 0.101846 0.299576
vt 0.102445 0.326104
vt 0.103158 0.326204
vt 0.102509 0.326138
vt 0.102545 0.326098
vt 0.102617 0.326136
vt 0.102627 0.326093
vt 0.101495 0.325961
vt 0.101462 0.326027
vt 0.101580 0.325627
vt 0.101793 0.325633
vt 0.103197 0.325996
vt 0.102741 0.326336
vt 0.102681 0.326416
vt 0.101943 0.326197
vt 0.101072 0.326052
vt 0.101198 0.325836
vt 0.102692 0.325933
vt 0.102403 0.325870
vt 0.102953 0.326178
vn -0.111766 0.653367 0.748745
vn -0.111766 0.653367 0.748745
vn -0.111766 0.653367 0.748745
vn -0.245941 0.267141 -0.931745
vn -0.245941 0.267141 -0.931745
vn -0.245941 0.267141 -0.931745
vn 0.000556 0.698552 0.715559
vn 0.000556 0.698552 0.715560
vn 0.000556 0.698552 0.715559
vn 0.000556 0.698552 0.715559
vn 0.000000 1.000000 0.000000
vn 0.000000 1.000000 0.000000
vn 0.000000 1.000000 0.000000
vn -0.004947 0.593625 -0.804727
vn -0.004947 0.593625 -0.804727
vn -0.004947 0.593625 -0.804727
vn -0.004947 0.593625 -0.804726
vn 0.000000 -0.877515 -0.479548
vn 0.000000 -0.877515 -0.479548
vn 0.000000 -0.877515 -0.479548
vn 0.000000 -0.877515 -0.479548
vn 0.000000 -1.000000 0.000000
vn 0.000000 -1.000000 0.000000
vn 0.000000 -1.000000 0.000000
vn 0.000000 -1.000000 0.000000
vn 0.245063 0.560494 0.791069
vn 0.245063 0.560494 0.791069
vn 0.245063 0.560494 0.791070
vn 0.487386 0.866077 0.111201
vn 0.487386 0.866077 0.111201
vn 0.487386 0.866077 0.111201
vn 0.487386 0.866077 0.111201
vn 0.299435 0.285763 -0.910318
vn 0.299435 0.285763 -0.910318
vn 0.299435 0.285763 -0.910318
vn 0.404711 -0.800169 -0.442649
vn 0.404711 -0.800169 -0.442649
vn 0.404711 -0.800169 -0.442649
vn 0.363653 -0.929552 0.060747
vn 0.363652 -0.929552 0.060747
vn 0.363652 -0.929552 0.060747
vn 0.363652 -0.929552 0.060747
vn -0.427457 0.004829 0.904023
vn -0.427457 0.004829 0.904023
vn -0.427457 0.004829 0.904023
vn -0.427457 0.004829 0.904023
vn 0.000000 0.000000 1.000000
vn 0.000000 0.000000 1.000000
vn 0.000000 0.000000 1.000000
vn 0.295913 0.000000 0.955215
vn 0.295913 0.000000 0.955215
vn 0.295913 0.000000 0.955215
vn 0.295913 0.000000 0.955215
vn 1.000000 0.000000 0.000001
vn 1.000000 0.000000 0.000001
vn 1.000000 0.000000 0.000001
vn 1.000000 0.000000 0.000001
vn 0.523878 0.000000 -0.851794
vn 0.523878 0.000000 -0.851794
vn 0.523878 0.000000 -0.851794
vn 0.000000 -0.000001 -1.000000
vn 0.000000 -0.000001 -1.000000
vn 0.000000 -0.000001 -1.000000
vn 0.000000 -0.000001 -1.000000
vn -0.352555 0.019846 -0.935581
vn -0.352555 0.019846 -0.935581
vn -0.352555 0.019846 -0.935581
vn -0.352555 0.019846 -0.935581
vn -1.000000 -0.000000 0.000000
vn -1.000000 -0.000000 0.000000
vn -1.000000 -0.000000 0.000000
vn -0.161450 -0.823508 0.543846
vn -0.161450 -0.823508 0.543846
vn -0.161450 -0.823508 0.543846
vn 0.000000 -0.815764 0.578385
vn 0.000000 -0.815764 0.578385
vn 0.000000 -0.815764 0.578385
vn 0.000000 -0.815764 0.578385
vn 0.168300 -0.822511 0.543278
vn 0.168300 -0.822511 0.543278
vn 0.168300 -0.822511 0.543277
vn -0.196797 -0.881402 -0.429420
vn -0.196797 -0.881402 -0.429420
vn -0.196797 -0.881402 -0.429420
vn -0.407276 -0.912469 -0.039065
vn -0.407276 -0.912469 -0.039065
vn -0.407276 -0.912469 -0.039065
vn -0.407276 -0.912469 -0.039065
vn -0.393740 -0.911810 0.116498
vn -0.393740 -0.911810 0.116498
vn -0.393740 -0.911810 0.116498
vn -0.393740 -0.911810 0.116498
vn -0.918414 0.073452 0.388743
vn -0.918414 0.073452 0.388743
vn -0.918414 0.073452 0.388743
vn -0.418799 0.901021 -0.113001
vn -0.418799 0.901020 -0.113001
vn -0.418799 0.901020 -0.113001
vn 0.000000 1.000000 -0.000001
vn 0.000000 1.000000 -0.000001
vn 0.000000 1.000000 -0.000001
vn 0.447819 0.888436 -0.100693
vn 0.447819 0.888436 -0.100693
vn 0.447819 0.888436 -0.100693
vn 0.447819 0.888436 -0.100693
vn 1.000000 0.000000 0.000000
vn 1.000000 0.000000 0.000000
vn 1.000000 0.000000 0.000000
vn 1.000000 0.000000 0.000000
vn 0.268514 -0.963276 0.000000
vn 0.268514 -0.963276 0.000000
vn 0.268514 -0.963276 0.000000
vn 0.268514 -0.963276 0.000000
vn 0.000000 -1.000000 0.000000
vn 0.000000 -1.000000 0.000000
vn 0.000000 -1.000000 0.000000
vn 0.000000 -1.000000 0.000000
vn -0.385235 0.000001 -0.922818
vn -0.385235 0.000001 -0.922818
vn -0.385235 0.000001 -0.922818
vn -0.385235 0.000001 -0.922818
vn -0.217152 -0.064119 -0.974030
vn -0.217152 -0.064119 -0.974030
vn -0.217152 -0.064119 -0.974030
vn -0.258111 0.036343 -0.965432
vn -0.258111 0.036343 -0.965432
vn -0.258111 0.036343 -0.965432
vn -0.385236 -0.000000 -0.922818
vn -0.385236 -0.000000 -0.922818
vn -0.385236 -0.000000 -0.922818
vn 0.000000 0.000000 -1.000000
vn 0.000000 0.000000 -1.000000
vn 0.000000 0.000000 -1.000000
vn 0.000000 0.000000 -1.000000
vn 0.000372 0.006098 -0.999981
vn 0.000372 0.006098 -0.999981
vn 0.000372 0.006098 -0.999981
vn 0.000372 0.006098 -0.999981
vn -0.419477 0.906404 -0.049708
vn -0.419477 0.906404 -0.049708
vn -0.419477 0.906404 -0.049708
vn -0.466227 0.884572 -0.012864
vn -0.466227 0.884572 -0.012864
vn -0.466227 0.884572 -0.012864
vn -0.466227 0.884572 -0.012864
vn -0.466227 0.884572 -0.012864
vn -0.400655 0.906397 0.133870
vn -0.400654 0.906397 0.133869
vn -0.400654 0.906397 0.133870
vn 0.000000 1.000000 0.000000
vn 0.000000 1.000000 0.000000
vn 0.000000 1.000000 0.000000
vn 0.000000 1.000000 0.000000
vn 0.000000 1.000000 0.000000
vn 0.000000 1.000000 0.000000
vn 0.000000 1.000000 0.000000
vn -1.000000 0.000001 -0.000002
vn -1.000000 0.000001 -0.000002
vn -1.000000 0.000001 -0.000002
vn -0.635855 0.725063 0.264521
vn -0.635855 0.725063 0.264521
vn -0.635855 0.725063 0.264521
vn 0.000689 0.726519 0.687147
vn 0.000689 0.726519 0.687147
vn 0.000689 0.726519 0.687147
vn 0.507681 -0.005923 -0.861525
vn 0.507681 -0.005923 -0.861525
vn 0.507681 -0.005923 -0.861525
vn 0.279396 0.068905 -0.957700
vn 0.279396 0.068905 -0.957700
vn 0.279396 0.068905 -0.957700
vn -0.000849 0.006662 -0.999978
vn -0.000849 0.006662 -0.999977
vn -0.000849 0.006662 -0.999977
vn 0.015761 0.501973 -0.864740
vn 0.015761 0.501973 -0.864740
vn 0.015761 0.501973 -0.864740
vn 0.015761 0.501973 -0.864740
vn -0.003485 0.999633 -0.026885
vn -0.003485 0.999633 -0.026885
vn -0.003485 0.999633 -0.026885
vn -0.003485 0.999632 -0.026885
vn -0.074419 0.733281 -0.675841
vn -0.074419 0.733281 -0.675841
vn -0.074419 0.733281 -0.675841
vn 0.071670 0.744049 -0.664270
vn 0.071670 0.744049 -0.664270
vn 0.071670 0.744049 -0.664270
vn 0.044973 0.998974 0.005329
vn 0.044973 0.998974 0.005329
vn 0.044973 0.998974 0.005329
vn 0.000000 1.000000 0.000000
vn 0.000000 1.000000 0.000000
vn 0.000000 1.000000 0.000000
vn -0.385236 0.000001 -0.922818
vn -0.385236 0.000001 -0.922818
vn -0.385236 0.000001 -0.922818
vn -1.000000 0.000000 0.000000
vn -1.000000 0.000000 0.000000
vn -1.000000 0.000000 0.000000
vn -1.000000 0.000001 -0.000001
vn -1.000000 0.000001 -0.000001
vn -1.000000 0.000001 -0.000001
vn -1.000000 0.000001 -0.000001
vn -0.418470 0.000000 0.908231
vn -0.418470 0.000000 0.908231
vn -0.418470 0.000000 0.908231
vn -0.418470 0.000000 0.908231
vn 0.000000 0.000000 1.000000
vn 0.000000 0.000000 1.000000
vn 0.000000 0.000000 1.000000
vn 0.295913 0.000000 0.955215
vn 0.295913 0.000000 0.955215
vn 0.295913 0.000000 0.955215
vn 0.295913 0.000000 0.955215
vn 1.000000 0.000000 0.000000
vn 1.000000 0.000000 0.000000
vn 1.000000 0.000000 0.000000
vn 1.000000 0.000000 0.000000
vn 1.000000 0.000000 0.000001
vn 1.000000 0.000000 0.000001
vn 1.000000 0.000000 0.000001
vn 1.000000 0.000000 0.000001
vn 0.523879 0.000000 -0.851793
vn 0.523879 0.000000 -0.851793
vn 0.523879 0.000000 -0.851793
vn 0.000000 -0.000000 -1.000000
vn 0.000000 -0.000000 -1.000000
vn 0.000000 -0.000000 -1.000000
vn 0.000000 -0.000001 -1.000000
vn 0.000000 -0.000001 -1.000000
vn 0.000000 -0.000001 -1.000000
vn -1.000000 0.000000 0.000000
vn -1.000000 0.000000 0.000000
vn -1.000000 0.000000 0.000000
vn -1.000000 0.000000 -0.000003
vn -1.000000 0.000000 -0.000003
vn -1.000000 0.000000 -0.000003
vn -1.000000 0.000000 -0.000003
vn -1.000000 0.000000 0.000000
vn -1.000000 0.000000 0.000000
vn -1.000000 0.000000 0.000000
vn -1.000000 0.000000 0.000000
vn -1.000000 -0.000002 0.000000
vn -1.000000 -0.000002 0.000000
vn -1.000000 -0.000002 0.000000
vn 0.000000 0.000000 1.000000
vn 0.000000 0.000000 1.000000
vn 0.000000 0.000000 1.000000
vn 0.000000 0.000000 1.000000
vn 0.000000 0.000000 1.000000
vn 0.000000 0.000000 1.000000
vn 0.000000 0.000000 1.000000
vn 0.000000 0.000000 1.000000
vn 0.000000 0.000000 1.000000
vn 0.000000 0.000000 1.000000
vn 0.000000 0.000000 1.000000
vn 0.000000 0.000000 1.000000
vn -1.000000 0.000000 0.000000
vn -1.000000 0.000000 0.000000
vn -1.000000 0.000000 0.000000
vn -0.510026 0.854369 -0.099637
vn -0.510026 0.854369 -0.099637
vn -0.510026 0.854369 -0.099637
vn -0.426709 0.903089 0.048468
vn -0.426709 0.903089 0.048468
vn -0.426709 0.903090 0.048468
vn -0.426709 0.903089 0.048468
s off
f 1/1/1 42/2/2 10/3/3
f 15/4/4 16/5/5 2/6/6
f 5/7/7 1/1/8 10/3/9 11/8/10
f 45/9/11 28/10/12 6/11/13
f 6/11/14 14/12/15 44/13/16 45/9/17
f 7/14/18 3/15/19 23/16/20 22/17/21
f 4/18/22 26/19/23 31/20/24 8/21/25
f 5/7/26 11/8/27 12/22/28
f 28/10/29 29/23/30 13/24/31 6/11/32
f 13/24/33 14/12/34 6/11/35
f 21/25/36 7/14/37 22/17/38
f 30/26/39 31/20/40 7/14/41 21/25/42
f 10/3/43 9/27/44 41/28/45 50/50/46
f 11/8/47 10/3/48 58/58/49
f 12/22/50 11/8/51 51/51/52 52/52/53
f 29/23/54 53/53/55 54/54/56 13/24/57
f 54/54/58 43/33/59 13/24/60
f 23/16/61 32/34/62 33/35/63 55/55/64
f 35/36/65 16/5/66 15/4/67 34/37/68
f 48/48/69 49/49/70 16/5/71
f 4/18/72 18/30/73 17/29/74
f 8/21/75 19/31/76 18/30/77 4/18/78
f 8/21/79 20/32/80 19/31/81
f 3/15/82 24/38/83 23/16/84
f 4/18/85 17/29/86 25/39/87 26/19/88
f 26/19/89 25/39/90 24/38/91 3/15/92
f 40/41/93 41/28/94 9/27/95
f 39/42/96 37/43/97 38/44/98
f 28/10/99 27/40/100 39/42/101
f 29/23/102 28/10/103 5/7/104 12/22/105
f 52/52/106 53/53/107 29/23/108 12/22/109
f 8/21/110 31/20/111 30/26/112 20/32/113
f 31/20/114 26/19/115 3/15/116 7/14/117
f 23/16/118 24/38/119 35/36/120 32/34/121
f 33/35/122 35/36/123 34/37/124
f 32/34/125 35/36/126 33/35/127
f 35/36/128 48/48/129 16/5/130
f 43/33/131 55/55/132 33/35/133 14/12/134
f 15/4/135 44/13/136 33/35/137 34/37/138
f 16/5/139 27/40/140 2/6/141
f 38/44/142 36/45/143 40/41/144 42/2/145 1/1/146
f 27/40/147 37/43/148 39/42/149
f 28/10/150 39/42/151 5/7/152
f 5/7/153 39/42/154 38/44/155 1/1/156
f 36/45/157 57/57/158 56/56/159
f 42/2/160 40/41/161 9/27/162
f 10/3/163 42/2/164 9/27/165
f 21/25/166 22/17/167 43/33/168
f 13/24/169 43/33/170 14/12/171
f 33/35/172 44/13/173 14/12/174
f 46/46/175 44/13/176 15/4/177 2/6/178
f 46/46/179 27/40/180 28/10/181 47/47/182
f 44/13/183 47/47/184 45/9/185
f 46/46/186 47/47/187 44/13/188
f 2/6/189 27/40/190 46/46/191
f 45/9/192 47/47/193 28/10/194
f 24/38/195 48/48/196 35/36/197
f 24/38/198 49/49/199 48/48/200
f 17/29/201 56/56/202 57/57/203 25/39/204
f 50/50/205 41/28/206 17/29/207 18/30/208
f 51/51/209 58/58/210 19/31/211
f 52/52/212 51/51/213 19/31/214 20/32/215
f 30/26/216 53/53/217 52/52/218 20/32/219
f 21/25/220 54/54/221 53/53/222 30/26/223
f 21/25/224 43/33/225 54/54/226
f 22/17/227 55/55/228 43/33/229
f 23/16/230 55/55/231 22/17/232
f 41/28/233 56/56/234 17/29/235
f 36/45/236 56/56/237 41/28/238 40/41/239
f 49/49/240 57/57/241 36/45/242 16/5/243
f 25/39/244 57/57/245 49/49/246
f 58/58/247 10/3/248 50/50/249
f 18/30/250 58/58/251 50/50/252
f 11/8/253 58/58/254 51/51/255
f 19/31/256 58/58/257 18/30/258
f 24/38/259 25/39/260 49/49/261
f 38/44/262 37/43/263 36/45/264
f 16/5/265 36/45/266 37/43/267 27/40/268
