# This file uses centimeters as units for non-parametric coordinates.

v -23.018457 1.516203 -49.086439
v -46.927759 1.516203 -28.488493
v -38.206888 1.516203 -17.069883
v -19.472727 1.516203 -35.931791
v -28.509180 1.516203 -51.602705
v -44.357767 1.516203 -42.762068
v -25.713968 1.516203 -20.690184
v 51.842505 1.516203 2.339388
v 11.761862 1.516203 -44.811003
v -45.004633 1.516203 -7.055113
v -7.870127 1.516203 35.257524
v 46.799856 1.516203 -28.449797
v 23.087103 1.516203 -47.147825
v -0.657999 1.516203 -47.667997
v -12.843317 1.516203 -38.021513
v -23.542673 1.516203 -15.088560
v -51.981043 1.516203 14.328066
v -32.758310 1.516203 33.987185
v 18.564291 1.516203 22.785494
v 39.741842 1.516203 20.346498
v 7.415396 1.516203 -6.548155
v 7.415396 1.516203 -6.548155
v -58.992914 1.516203 -14.449003
v -55.524546 1.516203 -22.189756
v -53.177179 1.516203 -8.988829
v -47.700205 1.516203 -11.732512
v -48.192148 1.516203 -18.580351
v -19.472727 -1.516203 -35.931791
v -23.018457 -1.516203 -49.086439
v -25.713968 -1.516203 -20.690184
v -28.509180 -1.516203 -51.602705
v -44.357767 -1.516203 -42.762068
v -46.927759 -1.516203 -28.488493
v -38.206888 -1.516203 -17.069883
v -7.870127 -1.516203 35.257524
v 18.564291 -1.516203 22.785494
v 7.415396 -1.516203 -6.548155
v 7.415396 -1.516203 -6.548155
v 39.741842 -1.516203 20.346498
v 51.842505 -1.516203 2.339388
v 46.799856 -1.516203 -28.449797
v 23.087103 -1.516203 -47.147825
v 11.761862 -1.516203 -44.811003
v -0.657999 -1.516203 -47.667997
v -12.843317 -1.516203 -38.021513
v -23.542673 -1.516203 -15.088560
v -45.004633 -1.516203 -7.055113
v -51.981043 -1.516203 14.328066
v -32.758310 -1.516203 33.987185
v -53.177179 -1.516203 -8.988829
v -47.700205 -1.516203 -11.732512
v -48.192148 -1.516203 -18.580351
v -55.524546 -1.516203 -22.189756
v -58.992914 -1.516203 -14.449003
v 53.032141 1.516203 18.683115
v 58.992914 1.516203 21.255983
v 48.041681 1.516203 23.033148
v 52.110342 1.516203 27.612574
v 58.597067 1.516203 25.363733
v 48.041681 -1.516203 23.033148
v 52.110342 -1.516203 27.612574
v 58.597067 -1.516203 25.363733
v 58.992914 -1.516203 21.255983
v 53.032141 -1.516203 18.683115
v 33.637732 1.516203 28.609499
v -6.340517 1.516203 51.965876
v 2.380354 1.516203 63.384485
v 37.183462 1.516203 41.764147
v 17.927626 1.516203 29.799417
v -3.770525 1.516203 37.692301
v 23.404772 1.516203 63.841860
v 37.183462 -1.516203 41.764147
v 33.637732 -1.516203 28.609499
v 23.404772 -1.516203 63.841860
v 17.927626 -1.516203 29.799417
v -3.770525 -1.516203 37.692301
v -6.340517 -1.516203 51.965876
v 2.380354 -1.516203 63.384485
v -27.208754 1.516203 39.657042
v -17.629689 1.516203 45.454096
v -32.199209 1.516203 44.007074
v -29.816755 1.516203 50.788637
v -18.025537 1.516203 49.561846
v -32.199209 -1.516203 44.007074
v -29.816755 -1.516203 50.788637
v -18.025537 -1.516203 49.561846
v -17.629689 -1.516203 45.454096
v -27.208754 -1.516203 39.657042
v 56.926260 1.516203 43.037355
v 52.879557 1.516203 48.114237
v 54.038015 1.516203 37.080385
v 48.551500 1.516203 39.804964
v 49.019583 1.516203 46.654474
v 54.038015 -1.516203 37.080385
v 48.551500 -1.516203 39.804964
v 49.019583 -1.516203 46.654474
v 52.879557 -1.516203 48.114237
v 56.926260 -1.516202 43.037355
v -15.923471 1.516203 -63.841860
v -7.548531 1.516203 -62.496805
v -19.690962 1.516203 -56.810339
v -15.622301 1.516203 -52.230913
v -9.135576 1.516203 -54.479753
v -19.690962 -1.516203 -56.810339
v -15.622301 -1.516203 -52.230913
v -9.135576 -1.516203 -54.479753
v -7.548531 -1.516203 -62.496805
v -15.923471 -1.516203 -63.841860
vt 0.031509 0.095596
vt 0.031509 0.095596
vt 0.031509 0.095596
vt 0.031509 0.095596
vt 0.031509 0.095596
vt 0.031509 0.095596
vt 0.031509 0.095596
vt 0.031509 0.095596
vt 0.031509 0.095596
vt 0.031509 0.095596
vt 0.031509 0.095596
vt 0.031509 0.095596
vt 0.031509 0.095596
vt 0.031509 0.095596
vt 0.031509 0.095596
vt 0.031509 0.095596
vt 0.031509 0.095596
vt 0.031509 0.095596
vt 0.031509 0.095596
vt 0.031509 0.095596
vt 0.031509 0.095596
vt 0.031509 0.095596
vt 0.032208 0.093506
vt 0.032208 0.093506
vt 0.032208 0.093506
vt 0.032208 0.093506
vt 0.032208 0.093506
vt 0.031509 0.095596
vt 0.031509 0.095596
vt 0.031509 0.095596
vt 0.031509 0.095596
vt 0.031509 0.095596
vt 0.031509 0.095596
vt 0.031509 0.095596
vt 0.031509 0.095596
vt 0.031509 0.095596
vt 0.031509 0.095596
vt 0.031509 0.095596
vt 0.031509 0.095596
vt 0.031509 0.095596
vt 0.031509 0.095596
vt 0.031509 0.095596
vt 0.031509 0.095596
vt 0.031509 0.095596
vt 0.031509 0.095596
vt 0.031509 0.095596
vt 0.031509 0.095596
vt 0.031509 0.095596
vt 0.031509 0.095596
vt 0.032208 0.093506
vt 0.032208 0.093506
vt 0.032208 0.093506
vt 0.032208 0.093506
vt 0.032208 0.093506
vt 0.031509 0.095596
vt 0.031509 0.095596
vt 0.031509 0.095596
vt 0.031509 0.095596
vt 0.031509 0.095596
vt 0.031509 0.095596
vt 0.031509 0.095596
vt 0.031509 0.095596
vt 0.031509 0.095596
vt 0.031509 0.095596
vt 0.031509 0.095596
vt 0.031509 0.095596
vt 0.031509 0.095596
vt 0.031509 0.095596
vt 0.031509 0.095596
vt 0.031509 0.095596
vt 0.031509 0.095596
vt 0.031509 0.095596
vt 0.031509 0.095596
vt 0.031509 0.095596
vt 0.032208 0.093506
vt 0.032208 0.093506
vt 0.032208 0.093506
vt 0.032208 0.093506
vt 0.032208 0.093506
vt 0.032208 0.093506
vt 0.032208 0.093506
vt 0.032208 0.093506
vt 0.032208 0.093506
vt 0.032208 0.093506
vt 0.032208 0.093506
vt 0.032208 0.093506
vt 0.032208 0.093506
vt 0.032208 0.093506
vt 0.032208 0.093506
vt 0.032208 0.093506
vt 0.032208 0.093506
vt 0.032208 0.093506
vt 0.032208 0.093506
vt 0.032208 0.093506
vt 0.031509 0.095596
vt 0.031509 0.095596
vt 0.031509 0.095596
vt 0.031509 0.095596
vt 0.031509 0.095596
vt 0.031509 0.095596
vt 0.031509 0.095596
vt 0.031509 0.095596
vt 0.031509 0.095596
vt 0.031509 0.095596
vt 0.031509 0.095596
vt 0.031509 0.095596
vt 0.031509 0.095596
vt 0.031509 0.095596
vt 0.031509 0.095596
vt 0.031509 0.095596
vt 0.031509 0.095596
vt 0.031509 0.095596
vt 0.031509 0.095596
vt 0.031509 0.095596
vt 0.031509 0.095596
vt 0.032208 0.093506
vt 0.032208 0.093506
vt 0.032208 0.093506
vt 0.032208 0.093506
vt 0.032208 0.093506
vt 0.032208 0.093506
vt 0.032208 0.093506
vt 0.032208 0.093506
vt 0.032208 0.093506
vt 0.032208 0.093506
vt 0.032208 0.093506
vt 0.032208 0.093506
vt 0.032208 0.093506
vt 0.032208 0.093506
vt 0.032208 0.093506
vt 0.032208 0.093506
vt 0.032208 0.093506
vt 0.032208 0.093506
vt 0.032208 0.093506
vt 0.032208 0.093506
vt 0.032208 0.093506
vt 0.032208 0.093506
vt 0.032208 0.093506
vt 0.032208 0.093506
vt 0.032208 0.093506
vt 0.032208 0.093506
vt 0.032208 0.093506
vt 0.032208 0.093506
vt 0.032208 0.093506
vt 0.032208 0.093506
vt 0.032208 0.093506
vt 0.032208 0.093506
vt 0.032208 0.093506
vt 0.032208 0.093506
vt 0.032208 0.093506
vt 0.032208 0.093506
vt 0.032208 0.093506
vt 0.032208 0.093506
vt 0.032208 0.093506
vt 0.032208 0.093506
vt 0.032208 0.093506
vt 0.032208 0.093506
vt 0.032208 0.093506
vt 0.032208 0.093506
vt 0.032208 0.093506
vn 0.000000 -1.000000 0.000000
vn 0.000000 -1.000000 0.000000
vn 0.000000 -1.000000 0.000000
vn 0.000000 -1.000000 0.000000
vn 0.000000 -1.000000 0.000000
vn 0.000000 -1.000000 0.000000
vn 0.000000 -1.000000 0.000000
vn 0.000000 -1.000000 0.000000
vn 0.000000 -1.000000 0.000000
vn 0.000000 -1.000000 0.000000
vn 0.000000 -1.000000 0.000000
vn 0.000000 -1.000000 0.000000
vn 0.000000 -1.000000 0.000000
vn 0.000000 -1.000000 0.000000
vn 0.000000 -1.000000 0.000000
vn 0.000000 -1.000000 0.000000
vn 0.000000 -0.000000 0.000000
vn 0.000000 -0.000000 0.000000
vn 0.000000 -1.000000 0.000000
vn 0.000000 -1.000000 0.000000
vn 0.000000 -0.000000 0.000000
vn 0.000000 -0.000000 0.000000
vn 0.000000 -1.000000 0.000000
vn 0.000000 -1.000000 0.000000
vn 0.000000 -1.000000 0.000000
vn 0.000000 -1.000000 0.000000
vn 0.000000 -1.000000 0.000000
vn 0.000000 -1.000000 0.000000
vn 0.000000 -1.000000 0.000000
vn 0.000000 -1.000000 0.000000
vn 0.000000 -1.000000 0.000000
vn 0.000000 -1.000000 0.000000
vn 0.000000 -1.000000 0.000000
vn 0.000000 -1.000000 0.000000
vn 0.000000 -1.000000 0.000000
vn 0.000000 -1.000000 0.000000
vn 0.000000 -1.000000 0.000000
vn 0.000000 -1.000000 0.000000
vn 0.000000 -1.000000 0.000000
vn 0.000000 -1.000000 0.000000
vn 0.000000 -1.000000 0.000000
vn 0.000000 -1.000000 0.000000
vn 0.000000 -1.000000 0.000000
vn 0.000000 -1.000000 0.000000
vn 0.000000 -1.000000 0.000000
vn 0.000000 -1.000000 0.000000
vn 0.000000 -1.000000 0.000000
vn 0.000000 -1.000000 0.000000
vn 0.000000 -0.000000 0.000000
vn 0.000000 -0.000000 0.000000
vn 0.000000 -1.000000 0.000000
vn 0.000000 -1.000000 0.000000
vn 0.000000 -0.000000 0.000000
vn 0.000000 -0.000000 0.000000
vn 0.000000 -1.000000 0.000000
vn 0.000000 -1.000000 0.000000
vn 0.000000 -1.000000 0.000000
vn 0.000000 -1.000000 0.000000
vn 0.000000 -1.000000 0.000000
vn 0.000000 -1.000000 0.000000
vn 0.000000 -1.000000 0.000000
vn 0.000000 -1.000000 0.000000
vn 0.000000 -1.000000 0.000000
vn 0.000000 1.000000 0.000000
vn 0.000000 1.000000 0.000000
vn 0.000000 1.000000 0.000000
vn 0.000000 1.000000 0.000000
vn 0.000000 1.000000 0.000000
vn 0.000000 1.000000 0.000000
vn 0.000000 1.000000 0.000000
vn 0.000000 1.000000 0.000000
vn 0.000000 1.000000 0.000000
vn 0.000000 1.000000 0.000000
vn 0.000000 1.000000 0.000000
vn 0.000000 1.000000 0.000000
vn 0.000000 1.000000 0.000000
vn 0.000000 1.000000 0.000000
vn 0.000000 1.000000 0.000000
vn 0.000000 1.000000 -0.000000
vn 0.000000 1.000000 -0.000000
vn 0.000000 0.000000 -0.000000
vn 0.000000 0.000000 -0.000000
vn 0.000000 1.000000 0.000000
vn 0.000000 1.000000 0.000000
vn 0.000000 0.000000 0.000000
vn 0.000000 0.000000 0.000000
vn 0.000000 1.000000 0.000000
vn 0.000000 1.000000 0.000000
vn 0.000000 1.000000 0.000000
vn 0.000000 1.000000 0.000000
vn 0.000000 1.000000 0.000000
vn 0.000000 1.000000 0.000000
vn 0.000000 1.000000 -0.000000
vn 0.000000 1.000000 -0.000000
vn 0.000000 1.000000 -0.000000
vn 0.000000 1.000000 0.000000
vn 0.000000 1.000000 0.000000
vn 0.000000 1.000000 0.000000
vn 0.000000 1.000000 -0.000000
vn 0.000000 1.000000 -0.000000
vn 0.000000 1.000000 -0.000000
vn 0.000000 1.000000 0.000000
vn 0.000000 1.000000 0.000000
vn 0.000000 1.000000 0.000000
vn 0.000000 1.000000 0.000000
vn 0.000000 1.000000 0.000000
vn 0.000000 1.000000 0.000000
vn 0.000000 1.000000 0.000000
vn 0.000000 1.000000 0.000000
vn 0.000000 1.000000 0.000000
vn 0.000000 1.000000 0.000000
vn 0.000000 1.000000 0.000000
vn 0.000000 0.000000 0.000000
vn 0.000000 0.000000 0.000000
vn 0.000000 1.000000 0.000000
vn 0.000000 1.000000 0.000000
vn 0.000000 0.000000 0.000000
vn 0.000000 0.000000 0.000000
vn 0.000000 1.000000 -0.000000
vn 0.000000 1.000000 -0.000000
vn 0.000000 1.000000 -0.000000
vn 0.000000 1.000000 0.000000
vn 0.000000 1.000000 0.000000
vn 0.000000 1.000000 0.000000
vn 0.000000 1.000000 0.000000
vn 0.000000 1.000000 0.000000
vn 0.965540 0.000000 -0.260254
vn 0.965540 0.000000 -0.260254
vn 0.965540 0.000000 -0.260254
vn 0.965540 0.000000 -0.260254
vn 0.925418 0.000000 0.378947
vn 0.925418 0.000000 0.378947
vn 0.925418 0.000000 0.378947
vn 0.925418 0.000000 0.378947
vn 0.416611 0.000000 -0.909085
vn 0.416611 0.000000 -0.909085
vn 0.416611 0.000000 -0.909085
vn 0.416611 0.000000 -0.909085
vn -0.487152 0.000000 -0.873317
vn -0.487152 0.000000 -0.873317
vn -0.487152 0.000000 -0.873317
vn -0.487152 0.000000 -0.873317
vn -0.984174 0.000000 -0.177203
vn -0.984174 0.000000 -0.177203
vn -0.984174 0.000000 -0.177203
vn -0.984174 0.000000 -0.177203
vn -0.794727 0.000000 0.606967
vn -0.794727 0.000000 0.606967
vn -0.794727 0.000000 0.606967
vn -0.794727 0.000000 0.606967
vn 0.278337 0.000000 0.960484
vn 0.278337 0.000000 0.960484
vn 0.278337 0.000000 0.960484
vn 0.278337 0.000000 0.960484
vn 0.426702 0.000000 0.904392
vn 0.426702 0.000000 0.904392
vn 0.426702 0.000000 0.904392
vn 0.426702 0.000000 0.904392
vn 0.114413 0.000000 0.993433
vn 0.114413 0.000000 0.993433
vn 0.114413 0.000000 0.993433
vn 0.114413 0.000000 0.993433
vn 0.830004 0.000000 0.557757
vn 0.830004 0.000000 0.557757
vn 0.830004 0.000000 0.557757
vn 0.830004 0.000000 0.557757
vn 0.986852 0.000000 -0.161626
vn 0.986852 0.000000 -0.161626
vn 0.986852 0.000000 -0.161626
vn 0.986852 0.000000 -0.161626
vn 0.619184 0.000000 -0.785246
vn 0.619184 0.000000 -0.785246
vn 0.619184 0.000000 -0.785246
vn 0.619184 0.000000 -0.785246
vn -0.202081 0.000000 -0.979369
vn -0.202081 0.000000 -0.979369
vn -0.202081 0.000000 -0.979369
vn -0.202081 0.000000 -0.979369
vn 0.224180 0.000000 -0.974548
vn 0.224180 0.000000 -0.974548
vn 0.224180 0.000000 -0.974548
vn 0.224180 0.000000 -0.974548
vn -0.620694 0.000000 -0.784053
vn -0.620694 0.000000 -0.784053
vn -0.620694 0.000000 -0.784053
vn -0.620694 0.000000 -0.784053
vn -0.906224 0.000000 -0.422798
vn -0.906224 0.000000 -0.422798
vn -0.906224 0.000000 -0.422798
vn -0.906224 0.000000 -0.422798
vn -0.350558 0.000000 -0.936541
vn -0.350558 0.000000 -0.936541
vn -0.350558 0.000000 -0.936541
vn -0.350558 0.000000 -0.936541
vn -0.950682 0.000000 -0.310167
vn -0.950682 0.000000 -0.310167
vn -0.950682 0.000000 -0.310167
vn -0.950682 0.000000 -0.310167
vn -0.714998 0.000000 0.699127
vn -0.714998 0.000000 0.699127
vn -0.714998 0.000000 0.699127
vn -0.714998 0.000000 0.699127
vn -0.050975 0.000000 0.998700
vn -0.050975 0.000000 0.998700
vn -0.050975 0.000000 0.998700
vn -0.050975 0.000000 0.998700
vn 0.447892 0.000000 0.894088
vn 0.447892 0.000000 0.894088
vn 0.447892 0.000000 0.894088
vn 0.447892 0.000000 0.894088
vn 0.997430 0.000000 -0.071655
vn 0.997430 0.000000 -0.071655
vn 0.997430 0.000000 -0.071655
vn 0.997430 0.000000 -0.071655
vn 0.441646 0.000000 -0.897190
vn 0.441646 0.000000 -0.897190
vn 0.441646 0.000000 -0.897190
vn 0.441646 0.000000 -0.897190
vn -0.912581 0.000000 -0.408896
vn -0.912581 0.000000 -0.408896
vn -0.912581 0.000000 -0.408896
vn -0.912581 0.000000 -0.408896
vn -0.684470 0.000000 0.729042
vn -0.684470 0.000000 0.729042
vn -0.684470 0.000000 0.729042
vn -0.684470 0.000000 0.729042
vn 0.000000 -1.000000 0.000000
vn 0.000000 -1.000000 0.000000
vn 0.000000 -1.000000 0.000000
vn 0.000000 -1.000000 0.000000
vn 0.000000 -1.000000 0.000000
vn 0.000000 1.000000 -0.000000
vn 0.000000 1.000000 -0.000000
vn 0.000000 1.000000 -0.000000
vn 0.000000 1.000000 -0.000000
vn 0.000000 1.000000 -0.000000
vn -0.747567 0.000000 0.664187
vn -0.747567 0.000000 0.664187
vn -0.747567 0.000000 0.664187
vn -0.747567 0.000000 0.664187
vn 0.327557 0.000000 0.944831
vn 0.327557 0.000000 0.944831
vn 0.327557 0.000000 0.944831
vn 0.327557 0.000000 0.944831
vn 0.995389 0.000000 0.095922
vn 0.995389 0.000000 0.095922
vn 0.995389 0.000000 0.095922
vn 0.995389 0.000000 0.095922
vn 0.396293 0.000000 -0.918124
vn 0.396293 0.000000 -0.918124
vn 0.396293 0.000000 -0.918124
vn 0.396293 0.000000 -0.918124
vn -0.657082 0.000000 -0.753819
vn -0.657082 0.000000 -0.753819
vn -0.657082 0.000000 -0.753819
vn -0.657082 0.000000 -0.753819
vn 0.000000 -1.000000 0.000000
vn 0.000000 -1.000000 0.000000
vn 0.000000 -1.000000 0.000000
vn 0.000000 -1.000000 0.000000
vn 0.000000 -1.000000 0.000000
vn 0.000000 -1.000000 0.000000
vn 0.000000 -1.000000 0.000000
vn 0.000000 -1.000000 0.000000
vn 0.000000 -1.000000 0.000000
vn 0.000000 -1.000000 0.000000
vn 0.000000 -1.000000 0.000000
vn 0.000000 -1.000000 0.000000
vn 0.000000 -1.000000 0.000000
vn 0.000000 -1.000000 0.000000
vn 0.000000 -1.000000 0.000000
vn 0.000000 1.000000 0.000000
vn 0.000000 1.000000 0.000000
vn 0.000000 1.000000 0.000000
vn 0.000000 1.000000 0.000000
vn 0.000000 1.000000 0.000000
vn 0.000000 1.000000 0.000000
vn 0.000000 1.000000 0.000000
vn 0.000000 1.000000 0.000000
vn 0.000000 1.000000 0.000000
vn 0.000000 1.000000 0.000000
vn 0.000000 1.000000 0.000000
vn 0.000000 1.000000 0.000000
vn 0.000000 1.000000 0.000000
vn 0.000000 1.000000 0.000000
vn 0.000000 1.000000 0.000000
vn 0.965540 0.000000 -0.260254
vn 0.965540 0.000000 -0.260254
vn 0.965540 0.000000 -0.260254
vn 0.965540 0.000000 -0.260254
vn 0.848341 0.000000 0.529450
vn 0.848341 0.000000 0.529450
vn 0.848341 0.000000 0.529450
vn 0.848341 0.000000 0.529450
vn -0.075526 0.000000 -0.997144
vn -0.075526 0.000000 -0.997144
vn -0.075526 0.000000 -0.997144
vn -0.075526 0.000000 -0.997144
vn -0.341844 0.000000 -0.939757
vn -0.341844 0.000000 -0.939757
vn -0.341844 0.000000 -0.939757
vn -0.341844 0.000000 -0.939757
vn -0.984174 0.000000 -0.177203
vn -0.984174 0.000000 -0.177203
vn -0.984174 0.000000 -0.177203
vn -0.984174 0.000000 -0.177203
vn -0.794727 0.000000 0.606967
vn -0.794727 0.000000 0.606967
vn -0.794727 0.000000 0.606967
vn -0.794727 0.000000 0.606967
vn -0.021749 0.000000 0.999764
vn -0.021749 0.000000 0.999764
vn -0.021749 0.000000 0.999764
vn -0.021749 0.000000 0.999764
vn 0.000000 -1.000000 0.000000
vn 0.000000 -1.000000 0.000000
vn 0.000000 -1.000000 0.000000
vn 0.000000 -1.000000 0.000000
vn 0.000000 -1.000000 0.000000
vn 0.000000 1.000000 -0.000000
vn 0.000000 1.000000 -0.000000
vn 0.000000 1.000000 -0.000000
vn 0.000000 1.000000 -0.000000
vn 0.000000 1.000000 -0.000000
vn -0.943471 0.000000 0.331454
vn -0.943471 0.000000 0.331454
vn -0.943471 0.000000 0.331454
vn -0.943471 0.000000 0.331454
vn 0.103484 0.000000 0.994631
vn 0.103484 0.000000 0.994631
vn 0.103484 0.000000 0.994631
vn 0.103484 0.000000 0.994631
vn 0.995389 0.000000 0.095922
vn 0.995389 0.000000 0.095922
vn 0.995389 0.000000 0.095922
vn 0.995389 0.000000 0.095922
vn 0.517750 0.000000 -0.855532
vn 0.517750 0.000000 -0.855532
vn 0.517750 0.000000 -0.855532
vn 0.517750 0.000000 -0.855532
vn -0.657082 0.000000 -0.753819
vn -0.657082 0.000000 -0.753819
vn -0.657082 0.000000 -0.753819
vn -0.657082 0.000000 -0.753819
vn 0.000000 -1.000000 0.000000
vn 0.000000 -1.000000 0.000000
vn 0.000000 -1.000000 0.000000
vn 0.000000 -1.000000 0.000000
vn 0.000000 -1.000000 0.000000
vn 0.000000 1.000000 0.000000
vn 0.000000 1.000000 0.000000
vn 0.000000 1.000000 0.000000
vn 0.000000 1.000000 0.000000
vn 0.000000 1.000000 0.000000
vn -0.444772 0.000000 -0.895644
vn -0.444772 0.000000 -0.895644
vn -0.444772 0.000000 -0.895644
vn -0.444772 0.000000 -0.895644
vn -0.997673 0.000000 0.068179
vn -0.997673 0.000000 0.068179
vn -0.997673 0.000000 0.068179
vn -0.997673 0.000000 0.068179
vn -0.353729 0.000000 0.935348
vn -0.353729 0.000000 0.935348
vn -0.353729 0.000000 0.935348
vn -0.353729 0.000000 0.935348
vn 0.781980 0.000000 0.623304
vn 0.781980 0.000000 0.623304
vn 0.781980 0.000000 0.623304
vn 0.781980 0.000000 0.623304
vn 0.899813 0.000000 -0.436276
vn 0.899813 0.000000 -0.436276
vn 0.899813 0.000000 -0.436276
vn 0.899813 0.000000 -0.436276
vn 0.000000 -1.000000 0.000000
vn 0.000000 -1.000000 0.000000
vn 0.000000 -1.000000 0.000000
vn 0.000000 -1.000000 0.000000
vn 0.000000 -1.000000 0.000000
vn 0.000000 1.000000 -0.000000
vn 0.000000 1.000000 -0.000000
vn 0.000000 1.000000 -0.000000
vn 0.000000 1.000000 -0.000000
vn 0.000000 1.000000 -0.000000
vn -0.747567 0.000000 0.664187
vn -0.747567 0.000000 0.664187
vn -0.747567 0.000000 0.664187
vn -0.747567 0.000000 0.664187
vn 0.327557 0.000000 0.944831
vn 0.327557 0.000000 0.944831
vn 0.327557 0.000000 0.944831
vn 0.327557 0.000000 0.944831
vn 0.980964 0.000000 0.194190
vn 0.980964 0.000000 0.194190
vn 0.980964 0.000000 0.194190
vn 0.980964 0.000000 0.194190
vn 0.158573 0.000000 -0.987347
vn 0.158573 0.000000 -0.987347
vn 0.158573 0.000000 -0.987347
vn 0.158573 0.000000 -0.987347
vn -0.881449 0.000000 -0.472280
vn -0.881449 0.000000 -0.472280
vn -0.881449 0.000000 -0.472280
vn -0.881449 0.000000 -0.472280
s off
f 28/55/1 30/57/2 29/56/3
f 29/56/4 30/57/5 31/58/6
f 30/57/7 32/59/8 31/58/9
f 32/59/10 30/57/11 33/60/12
f 30/57/13 34/61/14 33/60/15
f 35/62/16 38/11/17 37/10/18 36/63/19
f 36/63/20 37/10/21 38/11/22 39/64/23
f 39/64/24 38/11/25 40/65/26
f 40/65/27 38/11/28 41/66/29
f 41/66/30 38/11/31 42/67/32
f 42/67/33 38/11/34 43/68/35
f 43/68/36 38/11/37 44/69/38
f 44/69/39 38/11/40 45/70/41
f 45/70/42 38/11/43 46/71/44
f 46/71/45 38/11/46 47/72/47
f 47/72/48 38/11/49 37/10/50 48/73/51
f 48/73/52 37/10/53 38/11/54 49/74/55
f 49/74/56 38/11/57 35/62/58
f 50/75/59 54/79/60 53/78/61 52/77/62 51/76/63
f 4/28/64 1/29/65 7/30/66
f 1/29/67 5/31/68 7/30/69
f 7/30/70 5/31/71 6/32/72
f 6/32/73 2/33/74 7/30/75
f 7/30/76 2/33/77 3/34/78
f 11/35/79 19/36/80 22/37/81 21/38/82
f 19/36/83 20/39/84 21/38/85 22/37/86
f 20/39/87 8/40/88 21/38/89
f 8/40/90 12/41/91 21/38/92
f 12/41/93 13/42/94 21/38/95
f 13/42/96 9/43/97 21/38/98
f 9/43/99 14/44/100 21/38/101
f 14/44/102 15/45/103 21/38/104
f 15/45/105 16/46/106 21/38/107
f 16/46/108 10/47/109 21/38/110
f 10/47/111 17/48/112 22/37/113 21/38/114
f 17/48/115 18/49/116 21/38/117 22/37/118
f 18/49/119 11/35/120 21/38/121
f 25/50/122 26/51/123 27/52/124 24/53/125 23/54/126
f 4/3/127 28/55/128 29/56/129 1/4/130
f 7/2/131 30/57/132 28/55/133 4/3/134
f 1/4/135 29/56/136 31/58/137 5/5/138
f 5/5/139 31/58/140 32/59/141 6/6/142
f 6/6/143 32/59/144 33/60/145 2/7/146
f 2/7/147 33/60/148 34/61/149 3/1/150
f 3/1/151 34/61/152 30/57/153 7/2/154
f 11/8/155 35/62/156 36/63/157 19/9/158
f 19/9/159 36/63/160 39/64/161 20/12/162
f 20/12/163 39/64/164 40/65/165 8/13/166
f 8/13/167 40/65/168 41/66/169 12/14/170
f 12/14/171 41/66/172 42/67/173 13/15/174
f 13/15/175 42/67/176 43/68/177 9/16/178
f 9/16/179 43/68/180 44/69/181 14/17/182
f 14/17/183 44/69/184 45/70/185 15/18/186
f 15/18/187 45/70/188 46/71/189 16/19/190
f 16/19/191 46/71/192 47/72/193 10/20/194
f 10/20/195 47/72/196 48/73/197 17/21/198
f 17/21/199 48/73/200 49/74/201 18/22/202
f 18/22/203 49/74/204 35/62/205 11/8/206
f 25/23/207 50/75/208 51/76/209 26/24/210
f 26/24/211 51/76/212 52/77/213 27/25/214
f 27/25/215 52/77/216 53/78/217 24/26/218
f 24/26/219 53/78/220 54/79/221 23/27/222
f 23/27/223 54/79/224 50/75/225 25/23/226
f 60/80/227 64/81/228 63/82/229 62/83/230 61/84/231
f 57/85/232 58/86/233 59/87/234 56/88/235 55/89/236
f 57/90/237 60/80/238 61/84/239 58/91/240
f 58/91/241 61/84/242 62/83/243 59/92/244
f 59/92/245 62/83/246 63/82/247 56/93/248
f 56/93/249 63/82/250 64/81/251 55/94/252
f 55/94/253 64/81/254 60/80/255 57/90/256
f 72/95/257 74/96/258 73/97/259
f 73/97/260 74/96/261 75/98/262
f 74/96/263 76/99/264 75/98/265
f 76/99/266 74/96/267 77/100/268
f 74/96/269 78/101/270 77/100/271
f 68/102/272 65/103/273 71/104/274
f 65/103/275 69/105/276 71/104/277
f 71/104/278 69/105/279 70/106/280
f 70/106/281 66/107/282 71/104/283
f 71/104/284 66/107/285 67/108/286
f 68/109/287 72/95/288 73/97/289 65/110/290
f 71/111/291 74/96/292 72/95/293 68/109/294
f 65/110/295 73/97/296 75/98/297 69/112/298
f 69/112/299 75/98/300 76/99/301 70/113/302
f 70/113/303 76/99/304 77/100/305 66/114/306
f 66/114/307 77/100/308 78/101/309 67/115/310
f 67/115/311 78/101/312 74/96/313 71/111/314
f 84/116/315 88/117/316 87/118/317 86/119/318 85/120/319
f 81/121/320 82/122/321 83/123/322 80/124/323 79/125/324
f 81/126/325 84/116/326 85/120/327 82/127/328
f 82/127/329 85/120/330 86/119/331 83/128/332
f 83/128/333 86/119/334 87/118/335 80/129/336
f 80/129/337 87/118/338 88/117/339 79/130/340
f 79/130/341 88/117/342 84/116/343 81/126/344
f 94/131/345 98/132/346 97/133/347 96/134/348 95/135/349
f 91/136/350 92/137/351 93/138/352 90/139/353 89/140/354
f 91/141/355 94/131/356 95/135/357 92/142/358
f 92/142/359 95/135/360 96/134/361 93/143/362
f 93/143/363 96/134/364 97/133/365 90/144/366
f 90/144/367 97/133/368 98/132/369 89/145/370
f 89/145/371 98/132/372 94/131/373 91/141/374
f 104/146/375 108/147/376 107/148/377 106/149/378 105/150/379
f 101/151/380 102/152/381 103/153/382 100/154/383 99/155/384
f 101/156/385 104/146/386 105/150/387 102/157/388
f 102/157/389 105/150/390 106/149/391 103/158/392
f 103/158/393 106/149/394 107/148/395 100/159/396
f 100/159/397 107/148/398 108/147/399 99/160/400
f 99/160/401 108/147/402 104/146/403 101/156/404
