# This file uses centimeters as units for non-parametric coordinates.

v -28.067074 484.555664 1.276136
v -67.084053 484.555664 1.276136
v -61.333405 490.528870 1.276136
v -33.609764 490.528870 1.276136
v -12.545318 15.980542 1.276136
v -64.535378 31.660000 1.276136
v -14.632537 0.000000 1.276136
v -64.535378 281.603271 1.276136
v -21.662203 279.134827 -0.100703
v -64.584579 0.000000 1.276136
v -28.067074 484.555664 5.709333
v -67.084053 484.555664 5.709333
v -61.333405 490.528870 5.709333
v -33.609764 490.528870 5.709333
v -12.545318 15.980542 5.709333
v -64.535378 31.660000 5.709333
v -14.632537 0.000000 5.709333
v -64.535378 281.603271 5.709333
v -21.675034 279.130493 5.709364
v -64.584572 0.000000 5.709333
v -76.889130 21.738997 -2.475723
v -3.520906 0.000000 0.114494
v -21.921577 493.570190 0.114494
v -74.763870 495.373718 -2.375668
v -3.520906 0.000000 -489.857208
v -76.889130 21.739012 -489.857208
v -66.220413 501.416870 -2.375668
v -25.668249 500.008179 0.114494
v -108.180328 0.000000 -489.857208
v -110.822174 0.000000 0.114494
v -110.746941 21.762009 -13.838945
v -108.180328 22.547113 -489.857208
v -21.203991 490.907043 -488.695557
v -29.114532 496.950195 -489.857208
v -68.681793 496.950195 -489.857208
v -76.889130 490.907043 -489.857208
v -4.227086 3.542019 0.114494
v -0.191567 5.342088 -489.857208
v -0.999096 27.861212 -295.784454
v -0.169922 4.738572 -325.582733
v -0.152864 4.262826 -196.087097
v -5.895154 0.000000 -279.102509
v -9.493263 150.397049 0.114494
v -76.889130 158.347534 -2.475723
v -76.889130 283.119141 -489.857208
v -13.379268 280.533203 -486.740540
v -0.128326 3.578507 -9.819143
v -5.438337 151.655853 -9.752541
v -17.740971 494.732513 -7.949488
v -17.603788 490.907043 -481.636078
v -8.389462 232.684906 -480.740417
v 2.587492 5.271195 -480.591125
v -17.771891 495.594727 -94.709015
v -17.782831 495.899811 -159.049652
v -17.269184 481.576050 -124.223831
v -27.291666 503.021576 -121.884377
v -17.818214 496.886627 -454.180084
v -29.167866 503.021606 -460.213715
v -68.654694 503.021576 -450.348236
v -76.889130 490.907043 -458.702332
v -76.889130 0.000000 -489.857208
v -76.889130 0.000000 0.114494
v -110.822174 9.472242 0.114494
v -95.471581 21.738997 0.114494
v -28.067074 484.555664 -489.857208
v -67.084053 484.555664 -489.857208
v -61.333405 490.528870 -489.857208
v -33.609764 490.528870 -489.857208
v -12.545318 15.980542 -489.857208
v -64.535378 31.660000 -489.857208
v -14.632537 0.000000 -489.857208
v -64.535378 281.603271 -489.857208
v -21.675034 279.130493 -488.492218
v -64.584572 0.000000 -489.857208
v -28.067074 484.555664 -494.290405
v -67.084053 484.555664 -494.290405
v -61.333405 490.528870 -494.290405
v -33.609764 490.528870 -494.290405
v -12.545318 15.980542 -494.290405
v -64.535378 31.660000 -494.290405
v -14.632537 0.000000 -494.290405
v -64.535378 281.603271 -494.290405
v -21.675034 279.130493 -494.290436
v -64.584572 0.000000 -494.290405
v -25.765701 503.021576 -7.208965
v -68.354332 503.021576 -12.516912
v -76.889130 496.797791 -13.536428
v -76.889130 162.710587 -17.018990
v -76.889122 21.738997 -16.911709
v -7.270748 226.713043 -302.198181
v -6.354543 116.151299 -170.130463
v -5.919791 125.004463 -357.854492
v 1.410402 5.043828 -414.420868
v -8.004471 255.806152 -434.351868
v -76.889130 190.638489 -126.690460
v -76.889130 125.444061 -308.273834
vt 0.102846 0.331780
vt 0.102846 0.331780
vt 0.102846 0.331780
vt 0.102846 0.331780
vt 0.102846 0.307188
vt 0.102846 0.307188
vt 0.102846 0.307188
vt 0.102846 0.331780
vt 0.102846 0.331780
vt 0.102846 0.307188
vt 0.102846 0.331780
vt 0.102846 0.331780
vt 0.102846 0.331780
vt 0.102846 0.331780
vt 0.102846 0.307188
vt 0.102846 0.307188
vt 0.102846 0.307188
vt 0.102846 0.331780
vt 0.102846 0.331780
vt 0.102846 0.307188
vt 0.102846 0.331780
vt 0.102846 0.331780
vt 0.102846 0.331780
vt 0.102846 0.331780
vt 0.102846 0.331780
vt 0.102846 0.331780
vt 0.102846 0.331780
vt 0.102846 0.307188
vt 0.102846 0.331780
vt 0.102846 0.331780
vt 0.102846 0.307188
vt 0.102846 0.307190
vt 0.102846 0.331780
vt 0.102846 0.331780
vt 0.102846 0.307188
vt 0.102846 0.331780
vt 0.102846 0.331780
vt 0.102846 0.331780
vt 0.102846 0.331780
vt 0.102846 0.307189
vt 0.102846 0.307190
vt 0.102846 0.307189
vt 0.102846 0.307190
vt 0.102846 0.307190
vt 0.102846 0.307190
vt 0.102846 0.307188
vt 0.102846 0.307188
vt 0.102846 0.331780
vt 0.102846 0.331780
vt 0.102846 0.331780
vt 0.102846 0.331780
vt 0.102846 0.307188
vt 0.102846 0.307188
vt 0.102846 0.307189
vt 0.102846 0.307188
vt 0.102846 0.307188
vt 0.102846 0.307188
vt 0.102846 0.307188
vt 0.102846 0.307188
vt 0.102846 0.307188
vt 0.102846 0.307188
vt 0.102846 0.307188
vt 0.102846 0.307188
vt 0.102846 0.307188
vt 0.102846 0.307188
vt 0.102846 0.331780
vt 0.102846 0.331780
vt 0.102846 0.331780
vt 0.102846 0.331780
vt 0.102846 0.331780
vt 0.102846 0.331780
vt 0.102846 0.331780
vt 0.102846 0.331780
vt 0.102846 0.331780
vt 0.102846 0.331780
vt 0.102846 0.331780
vt 0.102846 0.331780
vt 0.102846 0.331780
vt 0.102846 0.307188
vt 0.102846 0.307190
vt 0.102846 0.307188
vt 0.102846 0.331780
vt 0.102846 0.331780
vt 0.102846 0.331780
vt 0.102846 0.331780
vt 0.102846 0.331780
vt 0.102846 0.331780
vt 0.102846 0.331780
vt 0.102846 0.307188
vt 0.102846 0.307188
vt 0.102846 0.307188
vt 0.102846 0.307188
vt 0.102846 0.331780
vt 0.102846 0.307188
vt 0.102846 0.331780
vt 0.102846 0.331780
vt 0.102846 0.307188
vt 0.102846 0.307188
vt 0.102846 0.307189
vt 0.102846 0.307188
vt 0.102846 0.331780
vt 0.102846 0.331780
vt 0.102846 0.307189
vt 0.102846 0.331780
vt 0.102846 0.307188
vt 0.102846 0.331780
vt 0.102846 0.331780
vt 0.102846 0.331780
vt 0.102846 0.331780
vt 0.102846 0.331780
vt 0.102846 0.307190
vt 0.102846 0.307190
vt 0.102846 0.331780
vt 0.102846 0.331780
vt 0.102846 0.331780
vt 0.102846 0.307188
vt 0.102846 0.331780
vt 0.102846 0.331780
vt 0.102846 0.331780
vt 0.101501 0.325912
vt 0.101501 0.325913
vt 0.101501 0.325913
vt 0.101501 0.325913
vt 0.102808 0.353241
vt 0.102808 0.353241
vt 0.102808 0.353241
vt 0.102808 0.353241
vn 0.000000 0.000000 1.000000
vn 0.000000 0.000000 1.000000
vn 0.000000 0.000000 1.000000
vn 0.000000 0.000000 1.000000
vn 0.000000 0.000000 1.000000
vn 0.000000 0.000000 1.000000
vn 0.000000 0.000000 1.000000
vn -0.000000 -0.000000 1.000000
vn -0.000000 -0.000000 1.000000
vn -0.000000 -0.000000 1.000000
vn -0.000000 -0.000000 1.000000
vn -0.000000 0.000000 1.000000
vn -0.000000 0.000000 1.000000
vn -0.000000 0.000000 1.000000
vn -0.000000 0.000000 1.000000
vn 0.000000 0.000000 1.000000
vn 0.000000 0.000000 1.000000
vn 0.000000 0.000000 1.000000
vn -0.720400 0.693559 0.000000
vn -0.720400 0.693559 0.000000
vn -0.720400 0.693559 0.000000
vn -0.720400 0.693559 0.000000
vn 0.000000 1.000000 0.000000
vn 0.000000 1.000000 0.000000
vn 0.000000 1.000000 0.000000
vn 0.000000 1.000000 0.000000
vn 0.733030 0.680197 0.000000
vn 0.733030 0.680197 0.000000
vn 0.733030 0.680197 0.000000
vn 0.733030 0.680197 0.000000
vn 0.991578 -0.129510 0.000000
vn 0.991578 -0.129510 0.000000
vn 0.991578 -0.129510 0.000000
vn 0.991578 -0.129510 0.000000
vn -1.000000 0.000000 0.000000
vn -1.000000 0.000000 0.000000
vn -1.000000 0.000000 0.000000
vn -1.000000 0.000000 0.000000
vn 0.999399 0.034652 0.001266
vn 0.999399 0.034652 0.001266
vn 0.999399 0.034652 0.001266
vn 0.999399 0.034652 0.001266
vn -0.999921 -0.012557 0.000000
vn -0.999921 -0.012557 0.000000
vn -0.999921 -0.012557 0.000000
vn -0.999921 -0.012557 0.000000
vn 0.999515 0.031128 0.001265
vn 0.999515 0.031128 0.001265
vn 0.999515 0.031128 0.001265
vn 0.999515 0.031128 0.001265
vn 0.000000 -1.000000 0.000000
vn 0.000000 -1.000000 0.000000
vn 0.000000 -1.000000 0.000000
vn 0.000000 -1.000000 0.000000
vn -0.999999 0.001554 0.000001
vn -0.999999 0.001554 0.000001
vn -0.999999 0.001554 0.000001
vn -0.999999 0.001554 0.000001
vn -0.052113 0.235879 0.970384
vn -0.052113 0.235879 0.970384
vn -0.052113 0.235879 0.970384
vn -0.052113 0.235879 0.970384
vn -0.052113 0.235879 0.970384
vn 0.766633 0.446152 0.461760
vn 0.766633 0.446152 0.461760
vn 0.766633 0.446152 0.461760
vn 0.923403 0.033027 0.382407
vn 0.923403 0.033027 0.382407
vn 0.923403 0.033027 0.382407
vn 0.923404 0.033027 0.382407
vn -1.000000 0.000000 -0.000000
vn -1.000000 0.000000 -0.000000
vn -1.000000 0.000000 -0.000000
vn -1.000000 0.000000 -0.000000
vn -0.577064 0.784539 0.226928
vn -0.577064 0.784539 0.226928
vn -0.577064 0.784539 0.226928
vn -0.577064 0.784539 0.226928
vn -0.007687 0.966500 0.256553
vn -0.007687 0.966500 0.256553
vn -0.007687 0.966500 0.256553
vn -0.007687 0.966500 0.256553
vn 0.101700 -0.071813 0.992220
vn 0.101700 -0.071813 0.992220
vn 0.101700 -0.071813 0.992220
vn 0.101700 -0.071813 0.992220
vn 0.000497 1.000000 0.000543
vn 0.000497 1.000000 0.000543
vn 0.000497 1.000000 0.000543
vn 0.000497 1.000000 0.000543
vn 0.000000 0.000000 -1.000000
vn 0.000000 0.000000 -1.000000
vn 0.000000 0.000000 -1.000000
vn 0.000000 0.000000 -1.000000
vn 0.000000 0.000000 -1.000000
vn 0.000000 0.000000 -1.000000
vn 0.000000 0.000000 -1.000000
vn 0.000000 0.000000 -1.000000
vn 0.000000 0.000000 -1.000000
vn 0.000000 0.000000 -1.000000
vn 0.000000 -1.000000 0.000000
vn 0.000000 -1.000000 0.000000
vn 0.000000 -1.000000 0.000000
vn 0.000000 -1.000000 0.000000
vn 0.821648 -0.512076 -0.250345
vn 0.821648 -0.512076 -0.250345
vn 0.821648 -0.512076 -0.250345
vn 0.000000 0.000000 -1.000000
vn 0.000000 0.000000 -1.000000
vn 0.000000 0.000000 -1.000000
vn 0.988037 -0.107309 0.110762
vn 0.988037 -0.107309 0.110762
vn 0.988037 -0.107309 0.110762
vn 0.908864 0.181202 0.375676
vn 0.908864 0.181202 0.375676
vn 0.908864 0.181202 0.375676
vn 0.673418 -0.739223 0.007586
vn 0.673418 -0.739223 0.007586
vn 0.673418 -0.739223 0.007586
vn 0.976930 -0.205809 -0.057007
vn 0.976930 -0.205809 -0.057007
vn 0.976930 -0.205809 -0.057007
vn 0.646044 -0.763280 -0.005493
vn 0.646044 -0.763280 -0.005493
vn 0.646044 -0.763280 -0.005493
vn -0.000000 -0.000000 -1.000000
vn -0.000000 -0.000000 -1.000000
vn -0.000000 -0.000000 -1.000000
vn -0.000000 -0.000000 -1.000000
vn -0.996545 0.002713 0.083007
vn -0.996545 0.002713 0.083007
vn -0.996545 0.002713 0.083007
vn -0.996545 0.002713 0.083007
vn 0.000001 0.000000 -1.000000
vn 0.000001 0.000000 -1.000000
vn 0.000001 0.000000 -1.000000
vn 0.000001 0.000000 -1.000000
vn 0.906659 0.031569 0.420682
vn 0.906659 0.031569 0.420682
vn 0.906659 0.031569 0.420682
vn 0.906659 0.031569 0.420682
vn 0.722041 -0.691846 -0.002637
vn 0.722041 -0.691846 -0.002637
vn 0.722041 -0.691845 -0.002637
vn 0.942373 0.047263 -0.331208
vn 0.942373 0.047263 -0.331208
vn 0.942373 0.047263 -0.331208
vn 0.942373 0.047263 -0.331208
vn 0.880822 0.029154 -0.472549
vn 0.880822 0.029154 -0.472549
vn 0.880822 0.029154 -0.472549
vn 0.880822 0.029154 -0.472550
vn 0.704991 0.659118 0.261825
vn 0.704991 0.659118 0.261825
vn 0.704991 0.659118 0.261825
vn 0.999364 0.035661 0.000038
vn 0.999364 0.035661 0.000038
vn 0.999364 0.035661 0.000038
vn 0.998963 0.044959 -0.007227
vn 0.998963 0.044959 -0.007227
vn 0.998963 0.044959 -0.007227
vn 0.998963 0.044959 -0.007227
vn 0.645556 -0.763661 0.008860
vn 0.645556 -0.763661 0.008860
vn 0.645556 -0.763662 0.008860
vn 0.645556 -0.763661 0.008860
vn 0.605612 0.733381 -0.308847
vn 0.605612 0.733381 -0.308847
vn 0.605612 0.733381 -0.308847
vn 0.999358 0.035837 0.000000
vn 0.999358 0.035837 0.000000
vn 0.999358 0.035837 0.000000
vn 0.999358 0.035837 0.000000
vn 0.999358 0.035837 0.000000
vn 0.999358 0.035837 0.000000
vn 0.901565 0.404638 0.153128
vn 0.901565 0.404638 0.153128
vn 0.901565 0.404638 0.153128
vn 0.536069 0.844174 -0.000303
vn 0.536069 0.844174 -0.000303
vn 0.536069 0.844174 -0.000303
vn 0.536069 0.844174 -0.000303
vn 0.881228 0.432616 -0.190472
vn 0.881229 0.432616 -0.190472
vn 0.881229 0.432616 -0.190472
vn 0.999425 0.031443 -0.012670
vn 0.999425 0.031443 -0.012670
vn 0.999425 0.031443 -0.012670
vn 0.544110 0.821442 -0.170815
vn 0.544110 0.821442 -0.170816
vn 0.544110 0.821442 -0.170816
vn 0.544110 0.821442 -0.170816
vn -0.021579 0.984700 -0.172917
vn -0.021579 0.984700 -0.172917
vn -0.021579 0.984700 -0.172917
vn -0.021579 0.984700 -0.172917
vn -0.726440 0.684731 -0.058553
vn -0.726440 0.684731 -0.058553
vn -0.726440 0.684731 -0.058553
vn -0.726440 0.684731 -0.058553
vn -1.000000 0.000000 0.000000
vn -1.000000 0.000000 0.000000
vn -1.000000 0.000000 0.000000
vn 0.999241 0.038945 0.000144
vn 0.999241 0.038945 0.000144
vn 0.999241 0.038945 0.000144
vn 0.999241 0.038945 0.000144
vn 0.000000 0.000000 -1.000000
vn 0.000000 0.000000 -1.000000
vn 0.000000 0.000000 -1.000000
vn 0.000000 0.118314 0.992976
vn 0.000000 0.118314 0.992976
vn 0.000000 0.118314 0.992976
vn -0.999985 0.000000 -0.005392
vn -0.999985 0.000000 -0.005392
vn -0.999986 0.000000 -0.005392
vn -0.999985 0.000000 -0.005392
vn -0.999986 0.000000 -0.005392
vn -0.515096 0.644591 0.564959
vn -0.515096 0.644591 0.564959
vn -0.515096 0.644591 0.564959
vn 0.000000 -1.000000 0.000000
vn 0.000000 -1.000000 0.000000
vn 0.000000 -1.000000 0.000000
vn 0.000000 0.000000 -1.000000
vn 0.000000 0.000000 -1.000000
vn 0.000000 0.000000 -1.000000
vn 0.000000 0.000000 -1.000000
vn 0.000000 0.000000 -1.000000
vn 0.000000 0.000000 -1.000000
vn 0.000000 0.000000 -1.000000
vn 0.000000 0.000000 -1.000000
vn 0.092989 0.007859 -0.995636
vn 0.092989 0.007859 -0.995636
vn 0.092989 0.007859 -0.995636
vn 0.092989 0.007859 -0.995636
vn -0.000004 0.000000 -1.000000
vn -0.000004 0.000000 -1.000000
vn -0.000004 0.000000 -1.000000
vn -0.000004 0.000000 -1.000000
vn -0.000000 0.000000 -1.000000
vn -0.000000 0.000000 -1.000000
vn -0.000000 0.000000 -1.000000
vn -0.000000 0.000000 -1.000000
vn 0.089852 0.012016 -0.995883
vn 0.089852 0.012016 -0.995883
vn 0.089852 0.012016 -0.995883
vn 0.089852 0.012016 -0.995883
vn -0.000001 0.000000 -1.000000
vn -0.000001 0.000000 -1.000000
vn -0.000001 0.000000 -1.000000
vn -0.000001 0.000000 -1.000000
vn 0.189405 -0.001364 -0.981898
vn 0.189405 -0.001364 -0.981898
vn 0.189405 -0.001364 -0.981898
vn 0.189405 -0.001364 -0.981898
vn 0.000000 0.000000 -1.000000
vn 0.000000 0.000000 -1.000000
vn 0.000000 0.000000 -1.000000
vn 0.000000 0.000000 -1.000000
vn 0.000000 -1.000000 0.000000
vn 0.000000 -1.000000 0.000000
vn 0.000000 -1.000000 0.000000
vn 0.000000 -1.000000 0.000000
vn 0.000000 -1.000000 0.000000
vn 0.000000 -1.000000 0.000000
vn 0.000000 -1.000000 0.000000
vn 0.000000 -1.000000 0.000000
vn 0.000000 -1.000000 0.000000
vn 0.000000 -1.000000 0.000000
vn -0.720401 0.693557 0.000000
vn -0.720401 0.693557 0.000000
vn -0.720401 0.693557 0.000000
vn -0.720401 0.693557 0.000000
vn 0.000000 1.000000 0.000000
vn 0.000000 1.000000 0.000000
vn 0.000000 1.000000 0.000000
vn 0.000000 1.000000 0.000000
vn 0.733030 0.680196 0.000000
vn 0.733030 0.680196 0.000000
vn 0.733030 0.680196 0.000000
vn 0.733030 0.680196 0.000000
vn 0.991578 -0.129509 0.000000
vn 0.991578 -0.129509 0.000000
vn 0.991578 -0.129509 0.000000
vn 0.991578 -0.129509 0.000000
vn -1.000000 0.000000 0.000000
vn -1.000000 0.000000 0.000000
vn -1.000000 0.000000 0.000000
vn -1.000000 0.000000 0.000000
vn 0.999399 0.034673 0.000000
vn 0.999399 0.034673 0.000000
vn 0.999399 0.034673 0.000000
vn 0.999399 0.034673 0.000000
vn -0.999921 -0.012557 0.000000
vn -0.999921 -0.012557 0.000000
vn -0.999921 -0.012557 0.000000
vn -0.999921 -0.012557 0.000000
vn 0.999516 0.031101 0.000000
vn 0.999516 0.031101 0.000000
vn 0.999516 0.031101 0.000000
vn 0.999516 0.031101 0.000000
vn 0.000000 -1.000000 0.000000
vn 0.000000 -1.000000 0.000000
vn 0.000000 -1.000000 0.000000
vn 0.000000 -1.000000 0.000000
vn -0.999999 0.001554 0.000000
vn -0.999999 0.001554 0.000000
vn -0.999999 0.001554 0.000000
vn -0.999999 0.001554 0.000000
vn -0.344454 -0.000444 0.938803
vn -0.344454 -0.000444 0.938803
vn -0.344455 -0.000444 0.938803
vn -0.344454 -0.000444 0.938803
vn -0.290596 0.000000 0.956846
vn -0.290596 0.000000 0.956846
vn -0.290596 0.000000 0.956846
vn -0.290596 0.000000 0.956846
vn -0.213559 0.047529 0.975773
vn -0.213559 0.047529 0.975773
vn -0.213559 0.047529 0.975773
vn -0.213559 0.047529 0.975773
vn 0.103954 0.020726 0.994366
vn 0.103954 0.020726 0.994366
vn 0.103954 0.020726 0.994366
vn 0.091060 0.006538 0.995824
vn 0.091060 0.006538 0.995824
vn 0.091060 0.006538 0.995824
vn 0.091060 0.006538 0.995824
vn 0.045430 -0.000948 0.998967
vn 0.045430 -0.000948 0.998967
vn 0.045430 -0.000948 0.998967
vn 0.045430 -0.000948 0.998967
vn 0.082740 0.061928 0.994645
vn 0.082740 0.061928 0.994645
vn 0.082740 0.061928 0.994645
vn 0.082740 0.061928 0.994645
vn -0.194333 0.187093 0.962928
vn -0.194333 0.187093 0.962928
vn -0.194333 0.187093 0.962928
vn 0.116030 -0.015155 0.993130
vn 0.116030 -0.015155 0.993130
vn 0.116030 -0.015155 0.993130
vn 0.668883 0.743365 -0.001988
vn 0.668883 0.743365 -0.001988
vn 0.668883 0.743365 -0.001988
vn 0.668883 0.743365 -0.001988
vn -0.000000 1.000000 0.000000
vn -0.000000 1.000000 0.000000
vn -0.000000 1.000000 0.000000
vn -0.000000 1.000000 0.000000
vn -0.000000 1.000000 0.000000
vn -0.736882 0.676008 -0.004259
vn -0.736882 0.676008 -0.004259
vn -0.736882 0.676008 -0.004259
vn -0.736882 0.676008 -0.004259
vn -1.000000 -0.000000 0.000000
vn -1.000000 -0.000000 0.000000
vn -1.000000 -0.000000 0.000000
vn -1.000000 -0.000000 -0.000000
vn -1.000000 -0.000000 -0.000000
vn -1.000000 -0.000000 -0.000000
vn 0.012797 0.999918 0.000862
vn 0.012797 0.999918 0.000862
vn 0.012797 0.999918 0.000862
vn 0.012797 0.999918 0.000862
vn 0.999087 0.034600 -0.025054
vn 0.999087 0.034600 -0.025054
vn 0.999087 0.034600 -0.025054
vn 0.999087 0.034600 -0.025054
vn 0.999119 0.039158 0.015069
vn 0.999119 0.039158 0.015069
vn 0.999119 0.039158 0.015069
vn 0.999119 0.039158 0.015069
vn 0.999480 0.027800 0.016339
vn 0.999480 0.027800 0.016339
vn 0.999480 0.027800 0.016339
vn 0.998422 0.045450 0.032995
vn 0.998422 0.045450 0.032995
vn 0.998422 0.045450 0.032995
vn 0.998422 0.045450 0.032995
vn 0.999394 0.025968 -0.023196
vn 0.999394 0.025968 -0.023196
vn 0.999394 0.025968 -0.023196
vn 0.997791 0.044662 0.049175
vn 0.997791 0.044662 0.049175
vn 0.997791 0.044662 0.049175
vn 0.999094 0.042538 -0.001621
vn 0.999094 0.042538 -0.001621
vn 0.999094 0.042538 -0.001621
vn 0.999094 0.042538 -0.001621
vn 0.998886 0.038406 -0.027432
vn 0.998886 0.038406 -0.027432
vn 0.998886 0.038406 -0.027432
vn -1.000000 0.000000 0.000000
vn -1.000000 0.000000 0.000000
vn -1.000000 0.000000 0.000000
vn -1.000000 0.000000 0.000000
vn -1.000000 0.000000 0.000000
vn -1.000000 0.000000 0.000000
vn -1.000000 0.000000 0.000000
vn -1.000000 0.000000 0.000000
vn -1.000000 0.000000 0.000000
vn -1.000000 0.000000 0.000000
vn -1.000000 0.000000 0.000000
vn -1.000000 0.000000 0.000000
vn -1.000000 0.000000 0.000000
vn -1.000000 0.000000 0.000000
vn -1.000000 0.000000 0.000000
vn -1.000000 0.000000 0.000000
s off
f 11/14/1 14/13/2 13/12/3 12/11/4
f 16/17/5 17/16/6 15/15/7
f 16/17/8 15/15/9 19/19/10 18/18/11
f 19/19/12 11/14/13 12/11/14 18/18/15
f 16/17/16 20/20/17 17/16/18
f 2/1/19 12/11/20 13/12/21 3/2/22
f 3/2/23 13/12/24 14/13/25 4/3/26
f 4/3/27 14/13/28 11/14/29 1/4/30
f 5/5/31 15/15/32 17/16/33 7/6/34
f 6/7/35 16/17/36 18/18/37 8/8/38
f 9/9/39 19/19/40 15/15/41 5/5/42
f 8/8/43 18/18/44 12/11/45 2/1/46
f 1/4/47 11/14/48 19/19/49 9/9/50
f 7/6/51 17/16/52 20/20/53 10/10/54
f 10/10/55 20/20/56 16/17/57 6/7/58
f 24/21/59 3/22/60 4/23/61 28/24/62 27/25/63
f 23/26/64 49/27/65 28/24/66
f 47/28/67 48/29/68 43/30/69 37/31/70
f 21/32/71 44/33/72 88/110/73 89/112/74
f 86/108/75 87/109/76 24/21/77 27/25/78
f 85/107/79 86/108/80 27/25/81 28/24/82
f 30/40/83 21/32/84 64/41/85 63/42/86
f 21/32/87 89/111/88 31/45/89 64/41/90
f 26/35/91 29/46/92 32/47/93
f 75/48/94 76/49/95 77/50/96 78/51/97
f 26/35/98 61/52/99 29/46/100
f 61/53/101 62/54/102 30/40/103 29/46/104
f 38/55/105 52/56/106 25/57/107
f 80/58/108 79/59/109 81/60/110
f 39/120/111 42/121/112 40/122/113
f 22/64/114 47/28/115 37/31/116
f 25/57/117 40/63/118 42/62/119
f 41/123/120 42/121/121 39/120/122
f 42/62/123 41/65/124 22/64/125
f 80/58/126 82/66/127 83/67/128 79/59/129
f 87/109/130 88/110/131 44/33/132 24/21/133
f 83/67/134 82/66/135 76/49/136 75/48/137
f 23/26/138 43/30/139 48/29/140 49/27/141
f 22/64/142 41/65/143 47/28/144
f 46/68/145 51/69/146 52/56/147 38/55/148
f 50/70/149 51/69/150 46/68/151 33/71/152
f 28/24/153 49/27/154 85/107/155
f 57/73/156 51/69/157 50/70/158
f 41/65/159 91/114/160 48/29/161 47/28/162
f 25/57/163 52/56/164 93/116/165 40/63/166
f 34/74/167 50/70/168 33/71/169
f 49/27/170 48/29/171 53/72/172
f 53/72/173 48/29/174 55/75/175
f 56/124/176 55/125/177 54/126/178
f 56/39/179 54/76/180 57/73/181 58/38/182
f 56/124/183 53/127/184 55/125/185
f 55/75/186 48/29/187 91/114/188
f 58/38/189 57/73/190 50/70/191 34/74/192
f 34/74/193 35/77/194 59/36/195 58/38/196
f 35/77/197 36/78/198 60/37/199 59/36/200
f 45/34/201 60/37/202 36/78/203
f 90/113/204 57/73/205 54/76/206 55/75/207
f 80/58/208 81/60/209 84/79/210
f 30/40/211 62/54/212 21/32/213
f 29/80/214 30/40/215 63/42/216 31/45/217 32/44/218
f 63/42/219 64/41/220 31/45/221
f 42/62/222 71/81/223 25/57/224
f 36/78/225 35/82/226 67/83/227 66/84/228
f 35/82/229 34/85/230 68/86/231 67/83/232
f 34/85/233 33/87/234 65/88/235 68/86/236
f 38/89/237 25/90/238 71/91/239 69/92/240
f 26/35/241 45/34/242 72/93/243 70/94/244
f 46/95/245 38/89/246 69/92/247 73/96/248
f 45/34/249 36/78/250 66/84/251 72/93/252
f 33/87/253 46/95/254 73/96/255 65/88/256
f 61/52/257 26/35/258 70/94/259 74/97/260
f 74/98/261 10/99/262 62/54/263 61/53/264
f 22/64/265 7/100/266 10/99/267 74/98/268 71/81/269 42/62/270
f 66/84/271 67/83/272 77/50/273 76/49/274
f 67/83/275 68/86/276 78/51/277 77/50/278
f 68/86/279 65/88/280 75/48/281 78/51/282
f 69/92/283 71/91/284 81/60/285 79/59/286
f 70/94/287 72/93/288 82/66/289 80/58/290
f 73/96/291 69/92/292 79/59/293 83/67/294
f 72/93/295 66/84/296 76/49/297 82/66/298
f 65/88/299 73/96/300 83/67/301 75/48/302
f 71/91/303 74/97/304 84/79/305 81/60/306
f 74/97/307 70/94/308 80/58/309 84/79/310
f 44/33/311 8/101/312 2/102/313 24/21/314
f 21/32/315 6/103/316 8/101/317 44/33/318
f 21/32/319 62/54/320 10/99/321 6/103/322
f 7/100/323 22/64/324 37/31/325
f 9/104/326 5/105/327 37/31/328 43/30/329
f 1/106/330 9/104/331 43/30/332 23/26/333
f 28/24/334 4/23/335 1/106/336 23/26/337
f 24/21/338 2/102/339 3/22/340
f 37/31/341 5/105/342 7/100/343
f 85/107/344 49/27/345 53/72/346 56/39/347
f 58/38/348 59/36/349 86/108/350 85/107/351 56/39/352
f 59/36/353 60/37/354 87/109/355 86/108/356
f 45/34/357 96/119/358 60/37/359
f 89/112/360 88/110/361 95/118/362
f 31/45/363 89/111/364 26/43/365 32/44/366
f 40/63/367 92/115/368 90/113/369 39/61/370
f 39/61/371 90/113/372 91/114/373 41/65/374
f 55/75/375 91/114/376 90/113/377
f 93/116/378 94/117/379 92/115/380 40/63/381
f 92/115/382 57/73/383 90/113/384
f 94/117/385 57/73/386 92/115/387
f 52/56/388 51/69/389 94/117/390 93/116/391
f 51/69/392 57/73/393 94/117/394
f 87/109/395 95/118/396 88/110/397
f 60/37/398 96/119/399 95/118/400 87/109/401
f 26/35/402 96/119/403 45/34/404
f 89/112/405 95/118/406 96/119/407
f 89/112/408 96/119/409 26/35/410
