# This file uses centimeters as units for non-parametric coordinates.

v 15.210737 0.000000 11.476288
v 12.701865 0.000000 -5.791830
v 2.333385 0.000000 -18.911043
v -15.148382 5.630089 -11.429238
v -17.544134 0.000000 7.434740
v -2.333389 0.000000 18.911026
v 11.818335 293.467010 9.734408
v 17.544128 293.467010 -7.434756
v 2.333385 293.467010 -18.911043
v -15.210742 293.467010 -11.476287
v -13.792401 293.250031 6.122549
v -2.333389 293.467010 18.911026
v 0.049410 1.837894 -0.090120
v 0.049410 291.629120 -0.090120
v 7.328868 55.099846 10.773479
v 13.964647 147.551926 -5.917868
v -1.103686 231.068710 -13.608782
v -11.402277 225.258453 -8.577394
v -11.243311 136.157990 7.555693
v -1.746343 42.382366 14.208177
v -16.991987 293.467010 2.959780
v -17.122387 266.933441 7.256013
v -14.330723 293.467010 9.859200
v 10.003048 293.467010 13.683163
v 15.143406 286.884827 11.425486
v 15.747809 293.467010 7.123596
v 17.005270 0.000000 -3.067431
v 13.815975 0.000000 -10.247578
v 17.207993 18.966995 -7.292305
v -10.888130 0.000000 -13.308104
v -12.177771 0.000000 -8.878503
v -15.612604 0.000000 -8.219420
v 1.980937 249.747009 -16.054552
v 5.588056 227.014801 -11.700358
v 1.914746 206.137024 -15.518083
v -12.876827 137.958679 1.363886
v -14.849620 167.832031 6.292870
v -14.479654 110.648010 6.136100
v 12.507421 82.550629 9.436676
v 12.339181 62.305550 4.886711
v 12.892424 38.498985 9.727158
v 1.568839 291.629120 -12.404330
v 12.432226 291.629120 -5.337627
v 10.087337 291.629120 8.177817
v -1.562200 291.629120 12.971206
v -10.509169 291.629120 3.936007
v -11.485128 291.629120 -8.792770
v -12.220591 1.837894 5.109584
v -1.712831 1.837894 14.192031
v 11.051706 1.837894 8.210948
v 9.314323 1.837894 -4.314735
v 1.634004 1.837894 -12.932406
v -8.772920 1.837894 -6.522301
vt 0.037579 0.259781
vt 0.037579 0.259781
vt 0.037579 0.259781
vt 0.037579 0.259781
vt 0.037579 0.229314
vt 0.037579 0.229314
vt 0.037579 0.259781
vt 0.037579 0.259781
vt 0.037579 0.259781
vt 0.037579 0.259781
vt 0.037579 0.229314
vt 0.037579 0.229314
vt 0.037579 0.259781
vt 0.037579 0.259781
vt 0.037579 0.259781
vt 0.037579 0.259781
vt 0.037579 0.259781
vt 0.037579 0.259781
vt 0.037579 0.231571
vt 0.037579 0.259781
vt 0.037579 0.259781
vt 0.037579 0.259781
vt 0.037579 0.259781
vt 0.037579 0.259781
vt 0.037579 0.259781
vt 0.037579 0.231571
vt 0.037579 0.308402
vt 0.037579 0.308402
vt 0.037579 0.259781
vt 0.037579 0.259781
vt 0.037579 0.259781
vt 0.037579 0.232699
vt 0.037579 0.259781
vt 0.037579 0.230442
vt 0.037579 0.259781
vt 0.037579 0.259781
vt 0.037579 0.259781
vt 0.037579 0.259781
vt 0.037579 0.259781
vt 0.037579 0.259781
vt 0.037579 0.231571
vt 0.037579 0.231571
vt 0.037579 0.259781
vt 0.037579 0.259781
vt 0.037579 0.259781
vt 0.037579 0.259781
vt 0.037579 0.259781
vt 0.037579 0.259781
vt 0.037579 0.259781
vt 0.037579 0.259781
vt 0.037579 0.259781
vt 0.037579 0.259781
vt 0.037579 0.259781
vt 0.037579 0.259781
vt 0.037579 0.259781
vt 0.037579 0.259781
vt 0.037579 0.259781
vt 0.037579 0.232699
vt 0.037579 0.232699
vt 0.037579 0.230442
vt 0.037579 0.230442
vt 0.037579 0.259781
vt 0.037579 0.259781
vt 0.037579 0.259781
vt 0.037579 0.259781
vt 0.037579 0.259781
vt 0.037579 0.259781
vt 0.037579 0.259781
vt 0.037579 0.308402
vt 0.037579 0.308402
vt 0.037579 0.308402
vt 0.037579 0.308402
vt 0.037579 0.308402
vt 0.037579 0.259781
vt 0.037579 0.308402
vt 0.037579 0.308402
vt 0.037579 0.308402
vt 0.037579 0.308402
vt 0.037579 0.308402
vt 0.037579 0.308402
vt 0.037579 0.259781
vt 0.037579 0.308402
vt 0.037579 0.308402
vt 0.037579 0.308402
vt 0.037579 0.259781
vt 0.037579 0.308402
vt 0.037579 0.259781
vt 0.037579 0.308402
vt 0.037579 0.259781
vt 0.037579 0.308402
vt 0.037579 0.259781
vt 0.037579 0.308402
vt 0.037579 0.259781
vt 0.037579 0.308402
vt 0.037579 0.308402
vt 0.037579 0.308402
vt 0.037579 0.259781
vt 0.037579 0.308402
vt 0.037579 0.259781
vt 0.037579 0.308402
vt 0.037579 0.259781
vt 0.037579 0.308402
vt 0.037579 0.259781
vt 0.037579 0.308402
vt 0.037579 0.308402
vt 0.037579 0.308402
vt 0.037579 0.308402
vt 0.037579 0.308402
vt 0.037579 0.308402
vt 0.037579 0.308402
vt 0.037579 0.308402
vt 0.037579 0.308402
vt 0.037579 0.308402
vn 0.525117 -0.190375 -0.829464
vn 0.525117 -0.190375 -0.829464
vn 0.525117 -0.190375 -0.829464
vn 0.949177 -0.206728 0.237331
vn 0.949177 -0.206728 0.237331
vn 0.949177 -0.206728 0.237331
vn -0.493148 0.039481 0.869049
vn -0.493148 0.039481 0.869049
vn -0.493148 0.039481 0.869049
vn -0.493148 0.039481 0.869049
vn -0.493148 0.039481 0.869049
vn 0.347355 0.076116 0.934639
vn 0.347356 0.076116 0.934639
vn 0.347356 0.076116 0.934639
vn 0.347356 0.076116 0.934639
vn 0.347356 0.076116 0.934639
vn -0.811174 -0.534997 -0.236166
vn -0.811174 -0.534997 -0.236166
vn -0.811174 -0.534997 -0.236166
vn -0.165510 -0.478115 -0.862561
vn -0.165510 -0.478115 -0.862561
vn -0.165510 -0.478115 -0.862561
vn 0.231369 -0.928813 -0.289437
vn 0.231369 -0.928813 -0.289437
vn 0.231369 -0.928814 -0.289437
vn 0.231369 -0.928813 -0.289437
vn -0.157020 -0.921688 -0.354735
vn -0.157020 -0.921688 -0.354735
vn -0.157020 -0.921688 -0.354735
vn -0.157020 -0.921688 -0.354735
vn -0.192845 0.943017 0.271165
vn -0.192845 0.943017 0.271165
vn -0.192845 0.943017 0.271165
vn -0.192845 0.943017 0.271165
vn 0.120875 0.934494 0.334828
vn 0.120875 0.934494 0.334828
vn 0.120875 0.934494 0.334828
vn 0.120875 0.934494 0.334828
vn 0.496250 0.442577 0.746901
vn 0.496250 0.442577 0.746901
vn 0.496250 0.442577 0.746901
vn 0.181664 -0.157110 -0.970729
vn 0.181664 -0.157110 -0.970729
vn 0.181664 -0.157110 -0.970729
vn -0.693986 0.118402 0.710186
vn -0.693986 0.118402 0.710187
vn -0.693986 0.118402 0.710187
vn -0.981894 0.117857 -0.148300
vn -0.981894 0.117857 -0.148300
vn -0.981895 0.117857 -0.148300
vn 0.790619 0.492769 0.363458
vn 0.790619 0.492769 0.363458
vn 0.790619 0.492769 0.363458
vn 0.332424 0.942960 -0.017924
vn 0.332424 0.942960 -0.017924
vn 0.332424 0.942960 -0.017924
vn 0.332424 0.942960 -0.017924
vn 0.332424 0.942960 -0.017924
vn -0.969232 -0.031669 -0.244103
vn -0.969232 -0.031669 -0.244103
vn -0.969232 -0.031669 -0.244103
vn -0.969232 -0.031669 -0.244103
vn -0.969232 -0.031669 -0.244103
vn -0.969232 -0.031669 -0.244103
vn -0.626535 -0.019383 0.779152
vn -0.626535 -0.019383 0.779152
vn -0.626535 -0.019383 0.779152
vn -0.626535 -0.019383 0.779152
vn -0.626535 -0.019383 0.779152
vn -0.626535 -0.019383 0.779152
vn 0.209769 0.955563 -0.207115
vn 0.209769 0.955563 -0.207115
vn 0.209769 0.955563 -0.207115
vn 0.209769 0.955563 -0.207115
vn 0.209769 0.955563 -0.207115
vn -0.168375 0.935386 -0.310970
vn -0.168375 0.935386 -0.310970
vn -0.168375 0.935386 -0.310970
vn -0.168375 0.935386 -0.310970
vn -0.168375 0.935386 -0.310970
vn 0.374875 -0.015586 0.926945
vn 0.374875 -0.015586 0.926944
vn 0.374875 -0.015586 0.926944
vn 0.374875 -0.015586 0.926945
vn 0.374875 -0.015586 0.926944
vn 0.374875 -0.015586 0.926944
vn 0.997262 -0.017464 0.071854
vn 0.997262 -0.017464 0.071854
vn 0.997262 -0.017464 0.071854
vn 0.997262 -0.017464 0.071854
vn 0.997262 -0.017464 0.071854
vn 0.997262 -0.017464 0.071854
vn -0.339919 0.936195 -0.089406
vn -0.339919 0.936195 -0.089406
vn -0.339919 0.936195 -0.089406
vn -0.339919 0.936195 -0.089406
vn -0.339919 0.936195 -0.089406
vn -0.296658 -0.954047 0.042280
vn -0.296658 -0.954047 0.042280
vn -0.296658 -0.954047 0.042280
vn -0.296658 -0.954047 0.042280
vn -0.296658 -0.954047 0.042280
vn -0.221744 -0.957564 0.184121
vn -0.221744 -0.957564 0.184121
vn -0.221744 -0.957564 0.184121
vn -0.221744 -0.957564 0.184121
vn -0.221744 -0.957564 0.184121
vn 0.334783 0.112181 -0.935594
vn 0.334783 0.112181 -0.935594
vn 0.334783 0.112181 -0.935594
vn 0.951590 0.020724 0.306671
vn 0.951590 0.020724 0.306671
vn 0.951590 0.020724 0.306671
vn 0.162720 -0.955360 0.246594
vn 0.162720 -0.955360 0.246594
vn 0.162720 -0.955360 0.246594
vn 0.162720 -0.955360 0.246594
vn 0.162720 -0.955360 0.246594
vn 0.281105 -0.955573 0.088662
vn 0.281105 -0.955573 0.088662
vn 0.281105 -0.955573 0.088662
vn 0.281105 -0.955573 0.088662
vn 0.281105 -0.955573 0.088662
vn -0.997107 0.022967 -0.072458
vn -0.997107 0.022967 -0.072458
vn -0.997107 0.022967 -0.072458
vn -0.997107 0.022967 -0.072458
vn -0.997107 0.022967 -0.072458
vn -0.997107 0.022967 -0.072458
vn 0.432643 -0.019983 -0.901344
vn 0.432643 -0.019983 -0.901344
vn 0.432643 -0.019983 -0.901344
vn 0.637321 0.017809 -0.770392
vn 0.637321 0.017809 -0.770392
vn 0.637322 0.017809 -0.770392
vn 0.637322 0.017809 -0.770392
vn 0.637321 0.017809 -0.770392
vn 0.637321 0.017809 -0.770392
vn -0.414140 0.016456 -0.910065
vn -0.414140 0.016456 -0.910065
vn -0.414140 0.016456 -0.910065
vn -0.414140 0.016456 -0.910065
vn -0.414140 0.016456 -0.910065
vn -0.414140 0.016456 -0.910064
vn -0.396878 -0.058526 -0.916004
vn -0.396878 -0.058526 -0.916004
vn -0.396878 -0.058526 -0.916004
vn -0.396878 -0.058526 -0.916004
vn -0.396878 -0.058526 -0.916004
vn -0.968815 -0.101291 0.226135
vn -0.968815 -0.101291 0.226135
vn -0.968815 -0.101291 0.226135
vn -0.953567 0.105272 0.282184
vn -0.953567 0.105272 0.282184
vn -0.953567 0.105272 0.282184
vn 0.827760 -0.129571 0.545917
vn 0.827760 -0.129571 0.545917
vn 0.827760 -0.129571 0.545917
vn 0.640247 0.167316 0.749726
vn 0.640247 0.167316 0.749726
vn 0.640246 0.167316 0.749726
vn 0.984604 0.055074 0.165897
vn 0.984604 0.055074 0.165897
vn 0.984604 0.055074 0.165897
vn 0.984604 0.055074 0.165897
vn 0.984604 0.055074 0.165897
vn 0.601483 -0.057006 -0.796849
vn 0.601483 -0.057006 -0.796849
vn 0.601483 -0.057006 -0.796849
vn 0.601483 -0.057006 -0.796849
vn 0.000000 1.000000 0.000000
vn 0.000000 1.000000 0.000000
vn 0.000000 1.000000 0.000000
vn 0.000000 1.000000 0.000000
vn 0.000000 1.000000 0.000000
vn 0.000000 1.000000 0.000000
vn 0.000000 1.000000 0.000001
vn 0.000000 1.000000 0.000001
vn 0.000000 1.000000 0.000001
vn 0.000000 1.000000 0.000000
vn 0.000000 1.000000 0.000000
vn 0.000000 1.000000 0.000000
vn 0.000000 1.000000 0.000000
vn 0.000000 1.000000 0.000000
vn 0.000000 1.000000 0.000000
vn 0.000000 1.000000 0.000001
vn 0.000000 1.000000 0.000001
vn 0.000000 1.000000 0.000001
vn 0.000000 -1.000000 0.000000
vn 0.000000 -1.000000 0.000000
vn 0.000000 -1.000000 0.000000
vn 0.000000 -1.000000 0.000000
vn 0.000000 -1.000000 0.000000
vn 0.000000 -1.000000 0.000000
vn 0.000000 -1.000000 -0.000000
vn 0.000000 -1.000000 -0.000000
vn 0.000000 -1.000000 -0.000000
vn 0.000000 -1.000000 0.000000
vn 0.000000 -1.000000 0.000000
vn 0.000000 -1.000000 0.000000
vn 0.000000 -1.000000 0.000000
vn 0.000000 -1.000000 0.000000
vn 0.000000 -1.000000 0.000000
vn 0.000000 -1.000000 0.000000
vn 0.000000 -1.000000 0.000000
vn 0.000000 -1.000000 0.000000
s off
f 29/51/1 27/47/2 2/8/3
f 2/8/4 28/49/5 29/51/6
f 5/11/7 6/12/8 20/35/9 19/34/10 38/62/11
f 6/12/12 1/13/13 41/66/14 15/29/15 20/35/16
f 4/4/17 30/53/18 31/54/19
f 31/54/20 32/56/21 4/4/22
f 6/6/23 5/5/24 48/74/25 49/91/26
f 1/1/27 6/6/28 49/91/29 50/89/30
f 8/24/31 9/23/32 42/68/33 43/103/34
f 9/23/35 10/22/36 47/93/37 42/68/38
f 25/44/39 26/46/40 7/14/41
f 33/57/42 34/58/43 17/32/44
f 21/37/45 22/38/46 11/18/47
f 22/38/48 23/40/49 11/18/50
f 24/42/51 25/43/52 7/20/53
f 10/22/54 21/36/55 11/21/56 46/97/57 47/93/58
f 18/33/59 36/60/60 37/61/61 22/38/62 21/37/63 10/17/64
f 37/61/65 19/34/66 20/35/67 12/19/68 23/40/69 22/38/70
f 11/21/71 23/39/72 12/26/73 45/99/74 46/97/75
f 12/26/76 24/41/77 7/25/78 44/101/79 45/99/80
f 20/35/81 15/29/82 39/63/83 25/43/84 24/42/85 12/19/86
f 39/64/87 40/65/88 16/31/89 8/15/90 26/46/91 25/44/92
f 7/25/93 26/45/94 8/24/95 43/103/96 44/101/97
f 2/2/98 27/48/99 1/1/100 50/89/101 51/87/102
f 3/3/103 28/50/104 2/2/105 51/87/106 52/85/107
f 34/58/108 35/59/109 17/32/110
f 40/65/111 29/51/112 16/31/113
f 31/54/114 30/53/115 3/3/116 52/85/117 53/81/118
f 5/5/119 32/56/120 31/54/121 53/81/122 48/74/123
f 4/10/124 32/55/125 5/11/126 38/62/127 36/60/128 18/33/129
f 16/31/130 34/58/131 8/15/132
f 29/51/133 28/49/134 3/9/135 35/59/136 34/58/137 16/31/138
f 3/9/139 30/52/140 4/10/141 18/33/142 17/32/143 35/59/144
f 33/57/145 17/32/146 18/33/147 10/17/148 9/16/149
f 37/61/150 36/60/151 19/34/152
f 36/60/153 38/62/154 19/34/155
f 15/30/156 40/65/157 39/64/158
f 41/67/159 40/65/160 15/30/161
f 1/7/162 27/47/163 29/51/164 40/65/165 41/67/166
f 8/15/167 34/58/168 33/57/169 9/16/170
f 43/102/171 42/94/172 14/104/173
f 44/100/174 43/69/175 14/105/176
f 45/98/177 44/70/178 14/106/179
f 46/96/180 45/71/181 14/107/182
f 47/92/183 46/72/184 14/108/185
f 42/95/186 47/73/187 14/28/188
f 49/90/189 48/82/190 13/113/191
f 50/88/192 49/75/193 13/27/194
f 51/86/195 50/76/196 13/109/197
f 52/84/198 51/77/199 13/110/200
f 53/80/201 52/78/202 13/111/203
f 48/83/204 53/79/205 13/112/206
