# This file uses centimeters as units for non-parametric coordinates.

v 1.880127 8.798655 7.110229
v -0.000000 9.882665 7.053528
v -1.880127 8.798655 7.110229
v -1.880128 6.630633 7.223602
v -0.000001 5.546622 7.280304
v 1.880126 6.630633 7.223602
v 1.537595 8.666320 8.366455
v 0.000001 9.552837 8.320099
v -1.537595 8.666317 8.366455
v -1.537596 6.893276 8.459167
v -0.000002 6.006758 8.505554
v 1.537593 6.893279 8.459167
v -0.000001 7.779799 8.412811
v 6.046305 3.321477 -6.046326
v -0.000001 3.321477 -8.550751
v -6.046306 3.321477 -6.046326
v -8.550768 3.321477 0.000000
v -6.046306 3.321477 6.046326
v -0.000001 3.321477 8.550781
v 6.046306 3.321477 6.046326
v 8.550768 3.321477 0.000000
v 5.401368 13.094704 -5.401367
v -0.000001 13.094704 -7.638672
v -5.401369 13.094704 -5.401367
v -7.638689 13.094704 0.000000
v -5.401369 13.094704 5.401367
v -0.000001 13.094704 7.638702
v 5.401368 13.094704 5.401367
v 7.638690 13.094704 0.000000
v 7.013023 2.305563 -7.013031
v -0.000001 2.305563 -9.917908
v -7.013024 2.305563 -7.013031
v -9.917913 2.305563 0.000000
v -7.013024 2.305563 7.013031
v -0.000001 2.305563 9.917908
v 7.013024 2.305563 7.013031
v 9.917913 2.305563 0.000000
v 7.013023 0.000000 -7.013031
v -0.000001 0.000000 -9.917908
v -0.000001 0.000000 0.000000
v -7.013024 0.000000 -7.013031
v -9.917913 0.000000 0.000000
v -7.013024 0.000000 7.013031
v -0.000001 0.000000 9.917908
v 7.013024 0.000000 7.013031
v 9.917913 0.000000 0.000000
v 4.386362 13.756971 -4.386322
v -0.000000 13.756971 -6.203247
v -4.386363 13.756971 -4.386322
v -6.203254 13.756971 0.000000
v -4.386363 13.756971 4.386353
v -0.000000 13.756971 6.203278
v 4.386363 13.756971 4.386353
v 6.203255 13.756971 0.000000
v 4.386362 15.745473 -4.386322
v -0.000000 15.745473 -6.203247
v -4.386363 15.745473 -4.386322
v -6.203254 15.745473 0.000000
v -4.386363 15.745473 4.386353
v -0.000000 15.745473 6.203278
v 4.386363 15.745473 4.386353
v 6.203255 15.745473 0.000000
v 5.342779 17.571619 -5.342773
v -0.000001 17.571619 -7.555847
v -5.342781 17.571619 -5.342773
v -7.555833 17.571619 0.000000
v -5.342781 17.571619 5.342773
v -0.000001 17.571619 7.555847
v 5.342780 17.571619 5.342773
v 7.555834 17.571619 0.000000
v 5.342779 30.150696 -5.342773
v -0.000001 30.150696 -7.555847
v -5.342781 30.150696 -5.342773
v -7.555833 30.150696 0.000000
v -5.342781 30.150696 5.342773
v -0.000001 30.150696 7.555847
v 5.342780 30.150696 5.342773
v 7.555834 30.150696 0.000000
v 6.215602 30.789206 -6.215576
v -0.000001 30.789206 -8.790192
v -6.215604 30.789206 -6.215576
v -8.790192 30.789206 0.000000
v -6.215604 30.789206 6.215607
v -0.000001 30.789206 8.790192
v 6.215603 30.789206 6.215607
v 8.790192 30.789206 0.000000
v 6.215602 32.697628 -6.215576
v -0.000001 32.697628 -8.790192
v -6.215604 32.697628 -6.215576
v -8.790192 32.697628 0.000000
v -6.215604 32.697628 6.215607
v -0.000001 32.697628 8.790192
v 6.215603 32.697628 6.215607
v 8.790192 32.697628 0.000000
v 5.491243 33.453224 -5.491211
v -0.000001 33.453224 -7.765778
v -0.000001 33.453224 0.000000
v -5.491244 33.453224 -5.491211
v -7.765791 33.453224 0.000000
v -5.491244 33.453224 5.491241
v -0.000001 33.453224 7.765808
v 5.491243 33.453224 5.491241
v 7.765792 33.453224 0.000000
vt 0.080171 0.250231
vt 0.080171 0.250231
vt 0.080171 0.250231
vt 0.080171 0.250231
vt 0.080171 0.250231
vt 0.080171 0.250231
vt 0.080171 0.250231
vt 0.080171 0.250231
vt 0.080171 0.250231
vt 0.080171 0.250231
vt 0.080171 0.250231
vt 0.080171 0.250231
vt 0.080171 0.250231
vt 0.080171 0.250231
vt 0.080171 0.250231
vt 0.080171 0.250231
vt 0.080171 0.250231
vt 0.080171 0.250231
vt 0.080171 0.250231
vt 0.080171 0.250231
vt 0.080171 0.250231
vt 0.114183 0.180385
vt 0.114183 0.180385
vt 0.114183 0.180385
vt 0.114183 0.180385
vt 0.114183 0.180385
vt 0.114183 0.180385
vt 0.114183 0.180385
vt 0.114183 0.180385
vt 0.114183 0.180385
vt 0.114183 0.180385
vt 0.114183 0.180385
vt 0.114183 0.180385
vt 0.114183 0.180385
vt 0.114183 0.180385
vt 0.114183 0.180385
vt 0.114183 0.180385
vt 0.079564 0.252661
vt 0.079564 0.252661
vt 0.079564 0.252661
vt 0.079564 0.252661
vt 0.079564 0.252661
vt 0.079564 0.252661
vt 0.079564 0.252661
vt 0.079564 0.252661
vt 0.079564 0.252661
vt 0.113576 0.183422
vt 0.113576 0.183422
vt 0.113576 0.183422
vt 0.113576 0.183422
vt 0.113576 0.183422
vt 0.113576 0.183422
vt 0.113576 0.183422
vt 0.113576 0.183422
vt 0.113576 0.183422
vt 0.079564 0.252661
vt 0.079564 0.252661
vt 0.079564 0.252661
vt 0.079564 0.252661
vt 0.079564 0.252661
vt 0.079564 0.252661
vt 0.079564 0.252661
vt 0.079564 0.252661
vt 0.079564 0.252661
vt 0.079564 0.252661
vt 0.079564 0.252661
vt 0.079564 0.252661
vt 0.079564 0.252661
vt 0.079564 0.252661
vt 0.079564 0.252661
vt 0.079564 0.252661
vt 0.114183 0.180385
vt 0.114183 0.180385
vt 0.114183 0.180385
vt 0.114183 0.180385
vt 0.114183 0.180385
vt 0.114183 0.180385
vt 0.114183 0.180385
vt 0.114183 0.180385
vt 0.030368 0.064380
vt 0.030368 0.064380
vt 0.030368 0.064380
vt 0.030368 0.064380
vt 0.030368 0.064380
vt 0.030368 0.064380
vt 0.030368 0.064380
vt 0.030368 0.064380
vt 0.030368 0.064380
vt 0.030368 0.064380
vt 0.030368 0.064380
vt 0.030368 0.064380
vt 0.030368 0.064380
vt 0.030368 0.064380
vt 0.030368 0.064380
vt 0.030368 0.064380
vt 0.030368 0.064380
vt 0.030368 0.064380
vt 0.030368 0.064380
vt 0.030368 0.064380
vt 0.030368 0.064380
vt 0.030368 0.064380
vt 0.030368 0.064380
vt 0.030368 0.064380
vt 0.030368 0.064380
vt 0.030368 0.064380
vt 0.030368 0.064380
vt 0.030368 0.064380
vt 0.030368 0.064380
vt 0.030368 0.064380
vt 0.030368 0.064380
vt 0.030368 0.064380
vt 0.079564 0.253269
vt 0.079564 0.253269
vt 0.079564 0.253269
vt 0.079564 0.253269
vt 0.079564 0.253269
vt 0.079564 0.253269
vt 0.079564 0.253269
vt 0.079564 0.253269
vt 0.079564 0.253269
vt 0.079564 0.253269
vt 0.079564 0.253269
vt 0.079564 0.253269
vt 0.079564 0.253269
vt 0.079564 0.253269
vt 0.079564 0.253269
vt 0.079564 0.253269
vt 0.079564 0.253269
vt 0.079564 0.253269
vt 0.079564 0.253269
vt 0.079564 0.253269
vt 0.079564 0.253269
vt 0.079564 0.253269
vt 0.079564 0.253269
vt 0.079564 0.253269
vt 0.079564 0.253269
vt 0.079564 0.253269
vt 0.079564 0.253269
vt 0.079564 0.253269
vt 0.079564 0.253269
vt 0.079564 0.253269
vt 0.079564 0.253269
vt 0.079564 0.253269
vn 0.482157 0.847810 0.220778
vn 0.482157 0.847810 0.220778
vn 0.482157 0.847810 0.220778
vn 0.482157 0.847810 0.220778
vn -0.482157 0.847809 0.220780
vn -0.482157 0.847809 0.220780
vn -0.482157 0.847809 0.220780
vn -0.482157 0.847809 0.220780
vn -0.964315 0.013826 0.264395
vn -0.964315 0.013826 0.264395
vn -0.964315 0.013826 0.264395
vn -0.964315 0.013826 0.264395
vn -0.482161 -0.820155 0.308006
vn -0.482161 -0.820155 0.308006
vn -0.482161 -0.820155 0.308006
vn -0.482161 -0.820155 0.308006
vn 0.482161 -0.820154 0.308007
vn 0.482161 -0.820154 0.308007
vn 0.482161 -0.820154 0.308007
vn 0.482161 -0.820154 0.308007
vn 0.964315 0.013825 0.264395
vn 0.964316 0.013825 0.264395
vn 0.964315 0.013825 0.264395
vn 0.964316 0.013825 0.264395
vn -0.000000 0.052219 0.998636
vn 0.000000 0.052219 0.998636
vn -0.000000 0.052224 0.998635
vn 0.000000 0.052219 0.998636
vn 0.000000 0.052219 0.998636
vn -0.000000 0.052224 0.998635
vn 0.000000 0.052219 0.998636
vn -0.000005 0.052227 0.998635
vn -0.000000 0.052224 0.998635
vn -0.000005 0.052227 0.998635
vn -0.000000 0.052236 0.998635
vn -0.000000 0.052224 0.998635
vn -0.000000 0.052236 0.998635
vn 0.000005 0.052227 0.998635
vn -0.000000 0.052224 0.998635
vn 0.000005 0.052227 0.998635
vn -0.000000 0.052219 0.998636
vn -0.000000 0.052224 0.998635
vn 0.381265 0.085903 -0.920466
vn 0.381265 0.085903 -0.920466
vn 0.381265 0.085903 -0.920466
vn 0.381265 0.085903 -0.920466
vn -0.381265 0.085903 -0.920466
vn -0.381265 0.085903 -0.920466
vn -0.381265 0.085903 -0.920466
vn -0.381265 0.085903 -0.920466
vn -0.920465 0.085902 -0.381268
vn -0.920465 0.085902 -0.381268
vn -0.920465 0.085902 -0.381268
vn -0.920465 0.085902 -0.381268
vn -0.920465 0.085902 0.381268
vn -0.920465 0.085902 0.381268
vn -0.920465 0.085902 0.381268
vn -0.920465 0.085902 0.381268
vn -0.381269 0.085903 0.920464
vn -0.381269 0.085903 0.920464
vn -0.381269 0.085903 0.920464
vn -0.381270 0.085903 0.920464
vn 0.381269 0.085903 0.920464
vn 0.381269 0.085903 0.920464
vn 0.381270 0.085903 0.920464
vn 0.381269 0.085903 0.920464
vn 0.920465 0.085902 0.381268
vn 0.920465 0.085902 0.381268
vn 0.920465 0.085902 0.381268
vn 0.920465 0.085902 0.381268
vn 0.920465 0.085902 -0.381269
vn 0.920465 0.085902 -0.381269
vn 0.920465 0.085902 -0.381269
vn 0.920465 0.085902 -0.381269
vn 0.000000 -1.000000 0.000000
vn 0.000000 -1.000000 0.000000
vn 0.000000 -1.000000 0.000000
vn 0.000000 -1.000000 0.000000
vn 0.000000 -1.000000 0.000000
vn 0.000000 -1.000000 0.000000
vn 0.000000 -1.000000 0.000000
vn 0.000000 -1.000000 0.000000
vn 0.000000 -1.000000 0.000000
vn 0.000000 -1.000000 0.000000
vn 0.000000 -1.000000 0.000000
vn 0.000000 -1.000000 0.000000
vn 0.000000 -1.000000 0.000000
vn 0.000000 -1.000000 0.000000
vn 0.000000 -1.000000 0.000000
vn 0.000000 -1.000000 0.000000
vn 0.000000 -1.000000 0.000000
vn 0.000000 -1.000000 0.000000
vn 0.000000 -1.000000 0.000000
vn 0.000000 -1.000000 0.000000
vn 0.000000 -1.000000 0.000000
vn 0.000000 -1.000000 0.000000
vn 0.000000 -1.000000 0.000000
vn 0.000000 -1.000000 0.000000
vn 0.000000 1.000000 0.000000
vn 0.000000 1.000000 0.000000
vn 0.000000 1.000000 -0.000000
vn 0.000000 1.000000 0.000000
vn 0.000000 1.000000 -0.000000
vn 0.000000 1.000000 -0.000000
vn 0.000000 1.000000 -0.000000
vn 0.000000 1.000000 -0.000000
vn 0.000000 1.000000 -0.000000
vn 0.000000 1.000000 -0.000000
vn 0.000000 1.000000 0.000000
vn 0.000000 1.000000 -0.000000
vn 0.000000 1.000000 0.000000
vn 0.000000 1.000000 0.000000
vn 0.000000 1.000000 -0.000000
vn 0.000000 1.000000 0.000000
vn 0.000000 1.000000 -0.000000
vn 0.000000 1.000000 -0.000000
vn 0.000000 1.000000 -0.000000
vn 0.000000 1.000000 -0.000000
vn 0.000000 1.000000 -0.000000
vn 0.000000 1.000000 -0.000000
vn 0.000000 1.000000 0.000000
vn 0.000000 1.000000 -0.000000
vn 0.239843 0.779225 -0.579037
vn 0.239843 0.779225 -0.579037
vn 0.239843 0.779225 -0.579037
vn 0.239843 0.779225 -0.579036
vn -0.239843 0.779225 -0.579037
vn -0.239843 0.779225 -0.579037
vn -0.239843 0.779225 -0.579037
vn -0.239843 0.779225 -0.579037
vn -0.579036 0.779225 -0.239844
vn -0.579036 0.779225 -0.239844
vn -0.579036 0.779225 -0.239844
vn -0.579036 0.779225 -0.239844
vn -0.579036 0.779225 0.239844
vn -0.579036 0.779225 0.239844
vn -0.579036 0.779225 0.239844
vn -0.579036 0.779225 0.239844
vn -0.239845 0.779222 0.579040
vn -0.239845 0.779222 0.579040
vn -0.239845 0.779222 0.579040
vn -0.239845 0.779222 0.579040
vn 0.239845 0.779222 0.579040
vn 0.239845 0.779222 0.579040
vn 0.239845 0.779222 0.579040
vn 0.239845 0.779222 0.579040
vn 0.579036 0.779225 0.239844
vn 0.579036 0.779225 0.239844
vn 0.579036 0.779225 0.239844
vn 0.579036 0.779225 0.239844
vn 0.579036 0.779225 -0.239844
vn 0.579036 0.779225 -0.239844
vn 0.579036 0.779225 -0.239844
vn 0.579036 0.779225 -0.239844
vn 0.382682 0.000000 -0.923880
vn 0.382682 0.000000 -0.923880
vn 0.382682 0.000000 -0.923880
vn 0.382682 0.000000 -0.923880
vn -0.382682 0.000000 -0.923880
vn -0.382682 0.000000 -0.923880
vn -0.382682 0.000000 -0.923880
vn -0.382682 0.000000 -0.923880
vn -0.923880 0.000000 -0.382683
vn -0.923880 0.000000 -0.382683
vn -0.923880 0.000000 -0.382683
vn -0.923880 0.000000 -0.382683
vn -0.923880 0.000000 0.382683
vn -0.923880 0.000000 0.382683
vn -0.923880 0.000000 0.382683
vn -0.923880 0.000000 0.382683
vn -0.382682 0.000000 0.923880
vn -0.382682 0.000000 0.923880
vn -0.382682 0.000000 0.923880
vn -0.382682 0.000000 0.923880
vn 0.382682 0.000000 0.923880
vn 0.382682 0.000000 0.923880
vn 0.382682 0.000000 0.923880
vn 0.382682 0.000000 0.923880
vn 0.923880 0.000000 0.382683
vn 0.923880 0.000000 0.382683
vn 0.923880 0.000000 0.382683
vn 0.923880 0.000000 0.382683
vn 0.923880 0.000000 -0.382683
vn 0.923880 0.000000 -0.382683
vn 0.923880 0.000000 -0.382683
vn 0.923880 0.000000 -0.382683
vn 0.170972 0.894649 -0.412760
vn 0.170972 0.894649 -0.412760
vn 0.170972 0.894649 -0.412760
vn 0.170972 0.894649 -0.412760
vn -0.170972 0.894650 -0.412760
vn -0.170972 0.894650 -0.412760
vn -0.170972 0.894650 -0.412760
vn -0.170972 0.894650 -0.412760
vn -0.412762 0.894648 -0.170973
vn -0.412762 0.894648 -0.170973
vn -0.412762 0.894648 -0.170973
vn -0.412762 0.894649 -0.170973
vn -0.412764 0.894648 0.170973
vn -0.412764 0.894648 0.170973
vn -0.412764 0.894648 0.170973
vn -0.412764 0.894648 0.170973
vn -0.170974 0.894648 0.412763
vn -0.170974 0.894648 0.412763
vn -0.170974 0.894648 0.412763
vn -0.170974 0.894648 0.412763
vn 0.170974 0.894647 0.412764
vn 0.170974 0.894647 0.412764
vn 0.170974 0.894647 0.412764
vn 0.170974 0.894647 0.412764
vn 0.412764 0.894648 0.170973
vn 0.412764 0.894648 0.170973
vn 0.412764 0.894648 0.170973
vn 0.412764 0.894648 0.170973
vn 0.412762 0.894648 -0.170972
vn 0.412762 0.894649 -0.170972
vn 0.412762 0.894649 -0.170972
vn 0.412762 0.894648 -0.170972
vn 0.382690 0.000000 -0.923877
vn 0.382690 0.000000 -0.923877
vn 0.382690 0.000000 -0.923877
vn 0.382690 0.000000 -0.923877
vn -0.382690 0.000000 -0.923877
vn -0.382690 0.000000 -0.923877
vn -0.382690 0.000000 -0.923877
vn -0.382690 0.000000 -0.923877
vn -0.923878 0.000000 -0.382686
vn -0.923878 0.000000 -0.382686
vn -0.923878 0.000000 -0.382686
vn -0.923878 0.000000 -0.382686
vn -0.923879 0.000000 0.382684
vn -0.923879 0.000000 0.382684
vn -0.923879 0.000000 0.382684
vn -0.923879 0.000000 0.382684
vn -0.382690 0.000000 0.923877
vn -0.382690 0.000000 0.923877
vn -0.382690 0.000000 0.923877
vn -0.382690 0.000000 0.923877
vn 0.382690 0.000000 0.923877
vn 0.382690 0.000000 0.923877
vn 0.382690 0.000000 0.923877
vn 0.382690 0.000000 0.923877
vn 0.923879 0.000000 0.382684
vn 0.923879 0.000000 0.382684
vn 0.923879 0.000000 0.382684
vn 0.923879 0.000000 0.382684
vn 0.923878 0.000000 -0.382687
vn 0.923878 0.000000 -0.382687
vn 0.923878 0.000000 -0.382687
vn 0.923878 0.000000 -0.382687
vn 0.315821 -0.564738 -0.762448
vn 0.315821 -0.564738 -0.762448
vn 0.315821 -0.564738 -0.762448
vn 0.315821 -0.564738 -0.762448
vn -0.315821 -0.564738 -0.762448
vn -0.315821 -0.564738 -0.762448
vn -0.315821 -0.564738 -0.762448
vn -0.315821 -0.564738 -0.762448
vn -0.762453 -0.564733 -0.315820
vn -0.762453 -0.564733 -0.315820
vn -0.762453 -0.564733 -0.315820
vn -0.762453 -0.564733 -0.315820
vn -0.762455 -0.564731 0.315819
vn -0.762455 -0.564731 0.315819
vn -0.762455 -0.564731 0.315819
vn -0.762455 -0.564731 0.315819
vn -0.315823 -0.564730 0.762454
vn -0.315823 -0.564730 0.762454
vn -0.315823 -0.564730 0.762454
vn -0.315823 -0.564730 0.762454
vn 0.315823 -0.564730 0.762454
vn 0.315823 -0.564730 0.762454
vn 0.315823 -0.564730 0.762454
vn 0.315823 -0.564730 0.762454
vn 0.762454 -0.564731 0.315820
vn 0.762454 -0.564731 0.315820
vn 0.762454 -0.564731 0.315820
vn 0.762455 -0.564731 0.315820
vn 0.762453 -0.564732 -0.315820
vn 0.762453 -0.564733 -0.315820
vn 0.762453 -0.564732 -0.315820
vn 0.762453 -0.564732 -0.315820
vn 0.382687 0.000000 -0.923878
vn 0.382687 0.000000 -0.923878
vn 0.382687 0.000000 -0.923878
vn 0.382687 0.000000 -0.923878
vn -0.382687 0.000000 -0.923878
vn -0.382687 0.000000 -0.923878
vn -0.382687 0.000000 -0.923878
vn -0.382687 0.000000 -0.923878
vn -0.923879 0.000000 -0.382684
vn -0.923879 0.000000 -0.382684
vn -0.923879 0.000000 -0.382684
vn -0.923879 0.000000 -0.382684
vn -0.923879 0.000000 0.382684
vn -0.923879 0.000000 0.382684
vn -0.923879 0.000000 0.382684
vn -0.923879 0.000000 0.382684
vn -0.382687 0.000000 0.923878
vn -0.382687 0.000000 0.923878
vn -0.382687 0.000000 0.923878
vn -0.382687 0.000000 0.923878
vn 0.382687 0.000000 0.923878
vn 0.382687 0.000000 0.923878
vn 0.382687 0.000000 0.923878
vn 0.382687 0.000000 0.923878
vn 0.923879 0.000000 0.382684
vn 0.923879 0.000000 0.382684
vn 0.923879 0.000000 0.382684
vn 0.923879 0.000000 0.382684
vn 0.923879 0.000000 -0.382684
vn 0.923879 0.000000 -0.382684
vn 0.923879 0.000000 -0.382684
vn 0.923879 0.000000 -0.382684
vn 0.186959 -0.872540 -0.451354
vn 0.186959 -0.872540 -0.451354
vn 0.186959 -0.872540 -0.451354
vn 0.186959 -0.872540 -0.451354
vn -0.186959 -0.872540 -0.451355
vn -0.186959 -0.872540 -0.451355
vn -0.186959 -0.872540 -0.451355
vn -0.186959 -0.872539 -0.451355
vn -0.451351 -0.872542 -0.186956
vn -0.451351 -0.872542 -0.186956
vn -0.451351 -0.872542 -0.186956
vn -0.451351 -0.872542 -0.186956
vn -0.451349 -0.872543 0.186955
vn -0.451349 -0.872543 0.186955
vn -0.451349 -0.872543 0.186955
vn -0.451349 -0.872543 0.186955
vn -0.186956 -0.872542 0.451351
vn -0.186956 -0.872542 0.451351
vn -0.186956 -0.872542 0.451351
vn -0.186956 -0.872542 0.451350
vn 0.186956 -0.872543 0.451350
vn 0.186956 -0.872543 0.451350
vn 0.186956 -0.872543 0.451350
vn 0.186956 -0.872543 0.451350
vn 0.451349 -0.872543 0.186956
vn 0.451349 -0.872543 0.186956
vn 0.451349 -0.872543 0.186956
vn 0.451349 -0.872543 0.186956
vn 0.451351 -0.872542 -0.186956
vn 0.451351 -0.872542 -0.186956
vn 0.451351 -0.872542 -0.186956
vn 0.451351 -0.872542 -0.186956
vn 0.382687 0.000000 -0.923878
vn 0.382687 0.000000 -0.923878
vn 0.382687 0.000000 -0.923878
vn 0.382687 0.000000 -0.923878
vn -0.382687 0.000000 -0.923878
vn -0.382687 0.000000 -0.923878
vn -0.382687 0.000000 -0.923878
vn -0.382687 0.000000 -0.923878
vn -0.923879 0.000000 -0.382685
vn -0.923879 0.000000 -0.382685
vn -0.923879 0.000000 -0.382685
vn -0.923879 0.000000 -0.382685
vn -0.923880 0.000000 0.382683
vn -0.923880 0.000000 0.382683
vn -0.923880 0.000000 0.382683
vn -0.923880 0.000000 0.382683
vn -0.382683 0.000000 0.923880
vn -0.382683 0.000000 0.923880
vn -0.382683 0.000000 0.923880
vn -0.382683 0.000000 0.923880
vn 0.382683 0.000000 0.923880
vn 0.382683 0.000000 0.923880
vn 0.382683 0.000000 0.923880
vn 0.382683 0.000000 0.923880
vn 0.923880 0.000000 0.382683
vn 0.923880 0.000000 0.382683
vn 0.923880 0.000000 0.382683
vn 0.923880 0.000000 0.382683
vn 0.923879 0.000000 -0.382685
vn 0.923879 0.000000 -0.382685
vn 0.923879 0.000000 -0.382685
vn 0.923879 0.000000 -0.382685
vn 0.238764 0.781492 -0.576421
vn 0.238764 0.781492 -0.576421
vn 0.238764 0.781492 -0.576421
vn 0.238764 0.781492 -0.576421
vn -0.238764 0.781493 -0.576421
vn -0.238764 0.781493 -0.576421
vn -0.238764 0.781493 -0.576421
vn -0.238764 0.781493 -0.576421
vn -0.576425 0.781490 -0.238764
vn -0.576425 0.781490 -0.238764
vn -0.576425 0.781490 -0.238764
vn -0.576425 0.781490 -0.238764
vn -0.576425 0.781490 0.238763
vn -0.576425 0.781490 0.238763
vn -0.576425 0.781490 0.238763
vn -0.576425 0.781490 0.238763
vn -0.238765 0.781488 0.576427
vn -0.238765 0.781488 0.576427
vn -0.238765 0.781488 0.576427
vn -0.238765 0.781488 0.576427
vn 0.238765 0.781488 0.576427
vn 0.238765 0.781488 0.576427
vn 0.238765 0.781488 0.576427
vn 0.238765 0.781488 0.576427
vn 0.576425 0.781490 0.238763
vn 0.576425 0.781490 0.238763
vn 0.576425 0.781489 0.238763
vn 0.576425 0.781489 0.238763
vn 0.576425 0.781489 -0.238765
vn 0.576425 0.781489 -0.238765
vn 0.576425 0.781489 -0.238765
vn 0.576425 0.781489 -0.238765
s off
f 1/1/1 2/2/2 8/9/3 7/8/4
f 2/2/5 3/3/6 9/10/7 8/9/8
f 3/3/9 4/4/10 10/11/11 9/10/12
f 4/4/13 5/5/14 11/12/15 10/11/16
f 5/5/17 6/6/18 12/13/19 11/12/20
f 6/6/21 1/7/22 7/14/23 12/13/24
f 7/19/25 8/18/26 13/21/27
f 8/18/28 9/17/29 13/21/30
f 9/17/31 10/16/32 13/21/33
f 10/16/34 11/15/35 13/21/36
f 11/15/37 12/20/38 13/21/39
f 12/20/40 7/19/41 13/21/42
f 14/22/43 15/23/44 23/24/45 22/25/46
f 15/23/47 16/26/48 24/27/49 23/24/50
f 16/26/51 17/28/52 25/29/53 24/27/54
f 17/28/55 18/30/56 26/31/57 25/29/58
f 18/30/59 19/32/60 27/33/61 26/31/62
f 19/32/63 20/34/64 28/35/65 27/33/66
f 20/34/67 21/36/68 29/37/69 28/35/70
f 21/36/71 14/22/72 22/25/73 29/37/74
f 39/38/75 38/39/76 40/40/77
f 41/41/78 39/38/79 40/40/80
f 42/42/81 41/41/82 40/40/83
f 43/43/84 42/42/85 40/40/86
f 44/44/87 43/43/88 40/40/89
f 45/45/90 44/44/91 40/40/92
f 46/46/93 45/45/94 40/40/95
f 38/39/96 46/46/97 40/40/98
f 95/47/99 96/48/100 97/49/101
f 96/48/102 98/50/103 97/49/104
f 98/50/105 99/51/106 97/49/107
f 99/51/108 100/52/109 97/49/110
f 100/52/111 101/53/112 97/49/113
f 101/53/114 102/54/115 97/49/116
f 102/54/117 103/55/118 97/49/119
f 103/55/120 95/47/121 97/49/122
f 15/56/123 14/57/124 30/58/125 31/59/126
f 16/60/127 15/56/128 31/59/129 32/61/130
f 17/62/131 16/60/132 32/61/133 33/63/134
f 18/64/135 17/62/136 33/63/137 34/65/138
f 19/66/139 18/64/140 34/65/141 35/67/142
f 20/68/143 19/66/144 35/67/145 36/69/146
f 21/70/147 20/68/148 36/69/149 37/71/150
f 14/57/151 21/70/152 37/71/153 30/58/154
f 31/59/155 30/58/156 38/39/157 39/38/158
f 32/61/159 31/59/160 39/38/161 41/41/162
f 33/63/163 32/61/164 41/41/165 42/42/166
f 34/65/167 33/63/168 42/42/169 43/43/170
f 35/67/171 34/65/172 43/43/173 44/44/174
f 36/69/175 35/67/176 44/44/177 45/45/178
f 37/71/179 36/69/180 45/45/181 46/46/182
f 30/58/183 37/71/184 46/46/185 38/39/186
f 22/25/187 23/24/188 48/72/189 47/73/190
f 23/24/191 24/27/192 49/74/193 48/72/194
f 24/27/195 25/29/196 50/75/197 49/74/198
f 25/29/199 26/31/200 51/76/201 50/75/202
f 26/31/203 27/33/204 52/77/205 51/76/206
f 27/33/207 28/35/208 53/78/209 52/77/210
f 28/35/211 29/37/212 54/79/213 53/78/214
f 29/37/215 22/25/216 47/73/217 54/79/218
f 47/80/219 48/81/220 56/82/221 55/83/222
f 48/81/223 49/84/224 57/85/225 56/82/226
f 49/84/227 50/86/228 58/87/229 57/85/230
f 50/86/231 51/88/232 59/89/233 58/87/234
f 51/88/235 52/90/236 60/91/237 59/89/238
f 52/90/239 53/92/240 61/93/241 60/91/242
f 53/92/243 54/94/244 62/95/245 61/93/246
f 54/94/247 47/80/248 55/83/249 62/95/250
f 55/83/251 56/82/252 64/96/253 63/97/254
f 56/82/255 57/85/256 65/98/257 64/96/258
f 57/85/259 58/87/260 66/99/261 65/98/262
f 58/87/263 59/89/264 67/100/265 66/99/266
f 59/89/267 60/91/268 68/101/269 67/100/270
f 60/91/271 61/93/272 69/102/273 68/101/274
f 61/93/275 62/95/276 70/103/277 69/102/278
f 62/95/279 55/83/280 63/97/281 70/103/282
f 63/97/283 64/96/284 72/104/285 71/105/286
f 64/96/287 65/98/288 73/106/289 72/104/290
f 65/98/291 66/99/292 74/107/293 73/106/294
f 66/99/295 67/100/296 75/108/297 74/107/298
f 67/100/299 68/101/300 76/109/301 75/108/302
f 68/101/303 69/102/304 77/110/305 76/109/306
f 69/102/307 70/103/308 78/111/309 77/110/310
f 70/103/311 63/97/312 71/105/313 78/111/314
f 71/112/315 72/113/316 80/114/317 79/115/318
f 72/113/319 73/116/320 81/117/321 80/114/322
f 73/116/323 74/118/324 82/119/325 81/117/326
f 74/118/327 75/120/328 83/121/329 82/119/330
f 75/120/331 76/122/332 84/123/333 83/121/334
f 76/122/335 77/124/336 85/125/337 84/123/338
f 77/124/339 78/126/340 86/127/341 85/125/342
f 78/126/343 71/112/344 79/115/345 86/127/346
f 79/115/347 80/114/348 88/128/349 87/129/350
f 80/114/351 81/117/352 89/130/353 88/128/354
f 81/117/355 82/119/356 90/131/357 89/130/358
f 82/119/359 83/121/360 91/132/361 90/131/362
f 83/121/363 84/123/364 92/133/365 91/132/366
f 84/123/367 85/125/368 93/134/369 92/133/370
f 85/125/371 86/127/372 94/135/373 93/134/374
f 86/127/375 79/115/376 87/129/377 94/135/378
f 87/129/379 88/128/380 96/136/381 95/137/382
f 88/128/383 89/130/384 98/138/385 96/136/386
f 89/130/387 90/131/388 99/139/389 98/138/390
f 90/131/391 91/132/392 100/140/393 99/139/394
f 91/132/395 92/133/396 101/141/397 100/140/398
f 92/133/399 93/134/400 102/142/401 101/141/402
f 93/134/403 94/135/404 103/143/405 102/142/406
f 94/135/407 87/129/408 95/137/409 103/143/410
