# This file uses centimeters as units for non-parametric coordinates.

v 61.930538 23.499847 26.487246
v 66.749817 23.499847 26.487246
v 61.930538 29.466690 26.487246
v 66.749817 29.466690 26.487246
v 61.930538 29.466690 -26.487246
v 66.749817 29.466690 -26.487246
v 61.930538 23.499847 -26.487246
v 66.749817 23.499847 -26.487246
v -67.455887 23.499847 26.487246
v -62.636608 23.499847 26.487246
v -67.455887 29.466690 26.487246
v -62.636608 29.466690 26.487246
v -67.455887 29.466690 -26.487246
v -62.636608 29.466690 -26.487246
v -67.455887 23.499847 -26.487246
v -62.636608 23.499847 -26.487246
v -68.290237 0.000000 -32.831169
v -68.290237 0.000000 -25.806850
v -68.290237 95.722214 -32.831169
v -68.290237 95.722214 -25.806850
v -61.265915 95.722214 -32.831169
v -61.265915 95.722214 -25.806850
v -61.265915 0.000000 -32.831169
v -61.265915 0.000000 -25.806850
v -67.998108 0.000000 33.123299
v -60.973789 0.000000 33.123299
v -67.998108 95.722214 33.123299
v -60.973789 95.722214 33.123299
v -67.998108 95.722214 26.098980
v -60.973789 95.722214 26.098980
v -67.998108 0.000000 26.098980
v -60.973789 0.000000 26.098980
v 68.290230 0.000000 32.831169
v 68.290230 0.000000 25.806850
v 68.290230 95.722214 32.831169
v 68.290230 95.722214 25.806850
v 61.265903 95.722214 32.831169
v 61.265903 95.722214 25.806850
v 61.265903 0.000000 32.831169
v 61.265903 0.000000 25.806850
v 67.998100 0.000000 -33.123299
v 60.973782 0.000000 -33.123299
v 67.998100 95.722214 -33.123299
v 60.973782 95.722214 -33.123299
v 67.998100 95.722214 -26.098980
v 60.973782 95.722214 -26.098980
v 67.998100 0.000000 -26.098980
v 60.973782 0.000000 -26.098980
v -66.749870 80.934128 31.875061
v 66.749855 80.934128 31.875061
v -66.749870 95.722214 31.875061
v 66.749855 95.722214 31.875061
v -66.749870 95.722214 -31.875061
v 66.749855 95.722214 -31.875061
v -66.749870 80.934128 -31.875061
v 66.749855 80.934128 -31.875061
v -61.666382 80.934128 -27.117088
v 61.666370 80.934128 -27.117088
v 61.666370 80.934128 27.117088
v -61.666382 80.934128 27.117088
v -61.666382 88.196129 -27.117088
v 61.666370 88.196129 -27.117088
v 61.666370 88.196129 27.117088
v -61.666382 88.196129 27.117088
v -72.502701 95.722214 36.397820
v 72.502693 95.722214 36.397820
v 72.502693 95.722214 -36.397820
v -72.502701 95.722214 -36.397820
v -72.502701 100.895752 36.397820
v 72.502693 100.895752 36.397820
v 72.502693 100.895752 -36.397820
v -72.502701 100.895752 -36.397820
v -72.246338 63.553677 36.859985
v -64.817497 63.553677 36.859985
v -64.817497 63.553677 29.144909
v -72.246338 63.553677 29.144909
v -72.555290 63.553677 -36.539131
v -72.555290 63.553677 -28.824051
v -65.126442 63.553677 -28.824051
v -65.126442 63.553677 -36.539131
v 72.555275 63.553677 36.539127
v 72.555275 63.553677 28.824051
v 65.126427 63.553677 28.824051
v 65.126427 63.553677 36.539127
v 72.246315 63.553677 -36.859985
v 64.817482 63.553677 -36.859985
v 64.817482 63.553677 -29.144909
v 72.246315 63.553677 -29.144909
v 68.290230 32.743736 32.831169
v 68.290230 32.743736 25.806850
v 61.265903 32.743736 25.806850
v 61.265903 32.743736 32.831169
v 67.998100 32.743736 -33.123299
v 60.973782 32.743736 -33.123299
v 60.973782 32.743736 -26.098980
v 67.998100 32.743736 -26.098980
v -67.998108 32.743736 33.123299
v -60.973789 32.743736 33.123299
v -60.973789 32.743736 26.098980
v -67.998108 32.743736 26.098980
v -68.290237 32.743736 -32.831169
v -68.290237 32.743736 -25.806850
v -61.265915 32.743736 -25.806850
v -61.265915 32.743736 -32.831169
v -73.639015 98.308983 37.442619
v 73.639015 98.308983 37.442619
v 73.639015 98.308983 -37.442619
v -73.639015 98.308983 -37.442619
v -45.733829 100.895752 36.397820
v -23.847975 100.895760 36.397820
v -32.287842 98.308983 37.442619
v -31.945942 100.895752 33.413746
v 30.450840 100.895752 -36.397820
v 55.175858 100.895752 -36.397820
v 45.795811 98.308983 -37.442619
v 45.036270 100.895752 -33.612854
v -11.621576 100.895760 36.397816
v -0.370962 100.895760 36.397820
v -7.541950 98.308983 37.442619
v -6.916159 100.895760 34.669762
vt 0.496827 0.203777
vt 0.496827 0.203777
vt 0.496827 0.203777
vt 0.496827 0.203777
vt 0.496827 0.179743
vt 0.496827 0.179743
vt 0.496827 0.179743
vt 0.496827 0.179743
vt 0.496827 0.203777
vt 0.496827 0.203777
vt 0.496827 0.179743
vt 0.496827 0.179743
vt 0.496827 0.179743
vt 0.496827 0.179743
vt 0.496827 0.179743
vt 0.496827 0.179743
vt 0.496827 0.203777
vt 0.496827 0.203777
vt 0.496827 0.203777
vt 0.496827 0.203777
vt 0.496827 0.179743
vt 0.496827 0.179743
vt 0.496827 0.179743
vt 0.496827 0.203777
vt 0.496827 0.203777
vt 0.496827 0.203777
vt 0.496827 0.179743
vt 0.496827 0.203777
vt 0.496827 0.203777
vt 0.496827 0.203777
vt 0.496827 0.181745
vt 0.496827 0.181745
vt 0.496827 0.181745
vt 0.496827 0.181745
vt 0.496827 0.203777
vt 0.496827 0.203777
vt 0.496827 0.179743
vt 0.496827 0.179743
vt 0.496827 0.179743
vt 0.496827 0.179743
vt 0.496827 0.203777
vt 0.496827 0.181745
vt 0.496827 0.203777
vt 0.496827 0.181745
vt 0.496827 0.203777
vt 0.496827 0.203777
vt 0.496827 0.203777
vt 0.496827 0.203777
vt 0.496827 0.203777
vt 0.496827 0.203777
vt 0.496827 0.203777
vt 0.496827 0.203777
vt 0.496827 0.179743
vt 0.496827 0.179743
vt 0.496827 0.179743
vt 0.496827 0.179743
vt 0.496827 0.203777
vt 0.496827 0.203777
vt 0.496827 0.203777
vt 0.496827 0.203777
vt 0.496827 0.203777
vt 0.496827 0.203777
vt 0.496827 0.189356
vt 0.496827 0.189356
vt 0.496827 0.189356
vt 0.496827 0.189356
vt 0.496827 0.203777
vt 0.496827 0.203777
vt 0.496827 0.179743
vt 0.496827 0.179743
vt 0.496827 0.179743
vt 0.496827 0.179743
vt 0.496827 0.203777
vt 0.496827 0.189356
vt 0.496827 0.203777
vt 0.496827 0.189356
vt 0.496827 0.203777
vt 0.496827 0.203777
vt 0.496827 0.203777
vt 0.496827 0.203777
vt 0.496827 0.203777
vt 0.496827 0.203777
vt 0.496827 0.203777
vt 0.496827 0.203777
vt 0.496827 0.179743
vt 0.496827 0.179743
vt 0.496827 0.179743
vt 0.496827 0.179743
vt 0.496827 0.203777
vt 0.496827 0.203777
vt 0.496827 0.203777
vt 0.496827 0.203777
vt 0.496827 0.203777
vt 0.496827 0.203777
vt 0.496827 0.189356
vt 0.496827 0.203777
vt 0.496827 0.203777
vt 0.496827 0.189356
vt 0.496827 0.203777
vt 0.496827 0.181745
vt 0.496827 0.181745
vt 0.496827 0.203777
vt 0.496827 0.203777
vt 0.496827 0.203777
vt 0.496827 0.203777
vt 0.496827 0.203777
vt 0.496827 0.189356
vt 0.496827 0.203777
vt 0.496827 0.203777
vt 0.496827 0.203777
vt 0.496827 0.203777
vt 0.496827 0.181745
vt 0.496827 0.203777
vt 0.496827 0.203777
vt 0.496827 0.203777
vt 0.496827 0.203777
vt 0.496827 0.203777
vt 0.496827 0.203777
vt 0.496827 0.189356
vt 0.496827 0.203777
vt 0.496827 0.203777
vt 0.496827 0.181745
vt 0.496827 0.203777
vt 0.496827 0.189356
vt 0.496827 0.203777
vt 0.496827 0.181745
vt 0.496827 0.179743
vt 0.496827 0.179743
vt 0.496827 0.179743
vt 0.496827 0.179743
vt 0.496827 0.179743
vt 0.496827 0.179743
vt 0.496827 0.203777
vt 0.496827 0.203777
vt 0.496827 0.203777
vt 0.496827 0.203777
vt 0.496827 0.203777
vt 0.496827 0.203777
vt 0.496827 0.203777
vt 0.496827 0.203777
vt 0.496827 0.203777
vt 0.496827 0.203777
vt 0.496827 0.203777
vt 0.496827 0.203777
vt 0.496827 0.179743
vt 0.496827 0.179743
vt 0.496827 0.179743
vt 0.496827 0.179743
vt 0.496827 0.179743
vt 0.496827 0.179743
vt 0.496827 0.179743
vt 0.496827 0.179743
vt 0.496827 0.179743
vt 0.496827 0.179743
vt 0.496827 0.179743
vt 0.496827 0.179743
vt 0.496827 0.179743
vt 0.496827 0.179743
vt 0.496827 0.179743
vt 0.496827 0.179743
vt 0.496827 0.179743
vt 0.496827 0.179743
vt 0.496827 0.179743
vt 0.496827 0.179743
vt 0.496827 0.179743
vt 0.496827 0.179743
vt 0.496827 0.203777
vt 0.496827 0.203777
vt 0.496827 0.203777
vt 0.496827 0.203777
vt 0.496827 0.203777
vt 0.496827 0.203777
vt 0.496827 0.203777
vt 0.496827 0.203777
vt 0.496827 0.203777
vt 0.496827 0.203777
vt 0.496827 0.203777
vt 0.496827 0.203777
vn 0.000000 1.000000 0.000000
vn 0.000000 1.000000 0.000000
vn 0.000000 1.000000 0.000000
vn 0.000000 1.000000 0.000000
vn 0.000000 -1.000000 0.000000
vn 0.000000 -1.000000 0.000000
vn 0.000000 -1.000000 0.000000
vn 0.000000 -1.000000 0.000000
vn 1.000000 0.000000 0.000000
vn 1.000000 0.000000 0.000000
vn 1.000000 0.000000 0.000000
vn 1.000000 0.000000 0.000000
vn -1.000000 0.000000 0.000000
vn -1.000000 0.000000 0.000000
vn -1.000000 0.000000 0.000000
vn -1.000000 0.000000 0.000000
vn 0.000000 1.000000 0.000000
vn 0.000000 1.000000 0.000000
vn 0.000000 1.000000 0.000000
vn 0.000000 1.000000 0.000000
vn 0.000000 -1.000000 0.000000
vn 0.000000 -1.000000 0.000000
vn 0.000000 -1.000000 0.000000
vn 0.000000 -1.000000 0.000000
vn 1.000000 0.000000 0.000000
vn 1.000000 0.000000 0.000000
vn 1.000000 0.000000 0.000000
vn 1.000000 0.000000 0.000000
vn -1.000000 0.000000 0.000000
vn -1.000000 0.000000 0.000000
vn -1.000000 0.000000 0.000000
vn -1.000000 0.000000 0.000000
vn -0.991325 0.131435 0.000000
vn -0.991325 0.131435 0.000000
vn -0.991325 0.131435 0.000000
vn -0.991325 0.131435 0.000000
vn 0.992876 -0.119154 0.000000
vn 0.992876 -0.119154 0.000000
vn 0.992876 -0.119154 0.000000
vn 0.992876 -0.119154 0.000000
vn 0.000000 -1.000000 0.000000
vn 0.000000 -1.000000 0.000000
vn 0.000000 -1.000000 0.000000
vn 0.000000 -1.000000 0.000000
vn 0.000000 -0.093384 0.995630
vn 0.000000 -0.093384 0.995630
vn 0.000000 -0.093384 0.995630
vn 0.000000 -0.093384 0.995630
vn 0.000000 0.114508 -0.993422
vn 0.000000 0.114508 -0.993422
vn 0.000000 0.114508 -0.993422
vn 0.000000 0.114508 -0.993422
vn 0.000000 0.115384 0.993321
vn 0.000000 0.115384 0.993321
vn 0.000000 0.115384 0.993321
vn 0.000000 0.115384 0.993321
vn 0.000000 -0.094265 -0.995547
vn 0.000000 -0.094265 -0.995547
vn 0.000000 -0.094265 -0.995547
vn 0.000000 -0.094265 -0.995547
vn 0.000000 -1.000000 0.000000
vn 0.000000 -1.000000 0.000000
vn 0.000000 -1.000000 0.000000
vn 0.000000 -1.000000 0.000000
vn 0.992937 -0.118643 0.000000
vn 0.992937 -0.118643 0.000000
vn 0.992937 -0.118643 0.000000
vn 0.992937 -0.118643 0.000000
vn -0.991392 0.130925 0.000000
vn -0.991392 0.130925 0.000000
vn -0.991392 0.130925 0.000000
vn -0.991392 0.130925 0.000000
vn 0.991325 0.131434 0.000000
vn 0.991325 0.131434 0.000000
vn 0.991325 0.131434 0.000000
vn 0.991325 0.131434 0.000000
vn -0.992876 -0.119154 0.000000
vn -0.992876 -0.119154 0.000000
vn -0.992876 -0.119154 0.000000
vn -0.992876 -0.119154 0.000000
vn 0.000000 -1.000000 0.000000
vn 0.000000 -1.000000 0.000000
vn 0.000000 -1.000000 0.000000
vn 0.000000 -1.000000 0.000000
vn 0.000000 -0.093384 -0.995630
vn 0.000000 -0.093384 -0.995630
vn 0.000000 -0.093384 -0.995630
vn 0.000000 -0.093384 -0.995630
vn 0.000000 0.114508 0.993422
vn 0.000000 0.114508 0.993422
vn 0.000000 0.114508 0.993422
vn 0.000000 0.114508 0.993422
vn 0.000000 0.115384 -0.993321
vn 0.000000 0.115384 -0.993321
vn 0.000000 0.115384 -0.993321
vn 0.000000 0.115384 -0.993321
vn 0.000000 -0.094265 0.995547
vn 0.000000 -0.094265 0.995547
vn 0.000000 -0.094265 0.995547
vn 0.000000 -0.094265 0.995547
vn 0.000000 -1.000000 0.000000
vn 0.000000 -1.000000 0.000000
vn 0.000000 -1.000000 0.000000
vn 0.000000 -1.000000 0.000000
vn -0.992937 -0.118642 0.000000
vn -0.992937 -0.118642 0.000000
vn -0.992937 -0.118642 0.000000
vn -0.992937 -0.118642 0.000000
vn 0.991392 0.130925 0.000000
vn 0.991392 0.130925 0.000000
vn 0.991392 0.130925 0.000000
vn 0.991392 0.130925 0.000000
vn 0.000000 0.000000 1.000000
vn 0.000000 0.000000 1.000000
vn 0.000000 0.000000 1.000000
vn 0.000000 0.000000 1.000000
vn -0.000000 1.000000 -0.000001
vn -0.000000 1.000000 -0.000001
vn -0.000000 1.000000 -0.000001
vn -0.000000 1.000000 -0.000001
vn -0.000000 1.000000 -0.000001
vn 0.000000 0.000000 -1.000000
vn 0.000000 0.000000 -1.000000
vn 0.000000 0.000000 -1.000000
vn 0.000000 0.000000 -1.000000
vn 0.000000 -1.000000 0.000000
vn 0.000000 -1.000000 0.000000
vn 0.000000 -1.000000 0.000000
vn 0.000000 -1.000000 0.000000
vn 1.000000 0.000000 0.000000
vn 1.000000 0.000000 0.000000
vn 1.000000 0.000000 0.000000
vn 1.000000 0.000000 0.000000
vn -1.000000 0.000000 0.000000
vn -1.000000 0.000000 0.000000
vn -1.000000 0.000000 0.000000
vn -1.000000 0.000000 0.000000
vn 0.000000 -1.000000 -0.000000
vn 0.000000 -1.000000 -0.000000
vn 0.000000 -1.000000 -0.000000
vn 0.000000 -1.000000 -0.000000
vn 0.000000 -1.000000 0.000000
vn 0.000000 -1.000000 0.000000
vn 0.000000 -1.000000 0.000000
vn 0.000000 -1.000000 0.000000
vn 0.000000 -1.000000 0.000001
vn 0.000000 -1.000000 0.000001
vn 0.000000 -1.000000 0.000001
vn 0.000000 -1.000000 0.000001
vn 0.000000 -1.000000 0.000000
vn 0.000000 -1.000000 0.000000
vn 0.000000 -1.000000 0.000000
vn 0.000000 -1.000000 0.000000
vn 0.000000 0.000000 1.000000
vn 0.000000 0.000000 1.000000
vn 0.000000 0.000000 1.000000
vn 0.000000 0.000000 1.000000
vn -1.000000 0.000000 0.000000
vn -1.000000 0.000000 0.000000
vn -1.000000 0.000000 0.000000
vn -1.000000 0.000000 0.000000
vn 0.000000 0.000000 -1.000000
vn 0.000000 0.000000 -1.000000
vn 0.000000 0.000000 -1.000000
vn 0.000000 0.000000 -1.000000
vn 1.000000 0.000000 0.000000
vn 1.000000 0.000000 0.000000
vn 1.000000 0.000000 0.000000
vn 1.000000 0.000000 0.000000
vn 0.000000 -1.000000 0.000000
vn 0.000000 -1.000000 0.000000
vn 0.000000 -1.000000 0.000000
vn 0.000000 -1.000000 0.000000
vn 0.000000 -1.000000 0.000000
vn 0.000000 -1.000000 0.000000
vn 0.000000 -1.000000 0.000000
vn 0.000000 -1.000000 0.000000
vn 0.000000 -1.000000 -0.000001
vn 0.000000 -1.000000 -0.000001
vn 0.000000 -1.000000 -0.000001
vn 0.000000 -1.000000 -0.000001
vn 0.000000 -1.000000 0.000000
vn 0.000000 -1.000000 0.000000
vn 0.000000 -1.000000 0.000000
vn 0.000000 -1.000000 0.000000
vn 0.000000 0.374507 0.927224
vn 0.000000 0.374507 0.927224
vn 0.000000 0.374507 0.927224
vn 0.000000 0.374507 0.927224
vn 0.915557 0.402188 0.000000
vn 0.915557 0.402188 0.000000
vn 0.915557 0.402188 0.000000
vn 0.915557 0.402188 0.000000
vn 0.000000 0.374508 -0.927224
vn 0.000000 0.374508 -0.927224
vn 0.000000 0.374508 -0.927224
vn 0.000000 0.374508 -0.927224
vn -0.915558 0.402186 0.000000
vn -0.915558 0.402186 0.000000
vn -0.915558 0.402186 0.000000
vn -0.915558 0.402186 0.000000
vn 0.000000 -0.120400 0.992725
vn 0.000000 -0.120400 0.992726
vn 0.000000 -0.120400 0.992725
vn 0.000000 -0.120400 0.992726
vn 0.992308 0.123796 0.000000
vn 0.992308 0.123796 0.000000
vn 0.992308 0.123796 0.000000
vn 0.992308 0.123796 0.000000
vn 0.000000 0.098382 -0.995149
vn 0.000000 0.098382 -0.995149
vn 0.000000 0.098382 -0.995149
vn 0.000000 0.098382 -0.995149
vn -0.990627 -0.136593 0.000000
vn -0.990627 -0.136593 0.000000
vn -0.990627 -0.136593 0.000000
vn -0.990627 -0.136593 0.000000
vn -0.990554 -0.137124 0.000000
vn -0.990554 -0.137124 0.000000
vn -0.990554 -0.137124 0.000000
vn -0.990554 -0.137124 0.000000
vn 0.000000 0.097463 0.995239
vn 0.000000 0.097463 0.995239
vn 0.000000 0.097463 0.995239
vn 0.000000 0.097463 0.995239
vn 0.992241 0.124329 0.000000
vn 0.992241 0.124329 0.000000
vn 0.992241 0.124329 0.000000
vn 0.992241 0.124329 0.000000
vn 0.000000 -0.119487 -0.992836
vn 0.000000 -0.119487 -0.992836
vn 0.000000 -0.119487 -0.992836
vn 0.000000 -0.119487 -0.992836
vn 0.990554 -0.137123 0.000000
vn 0.990554 -0.137123 0.000000
vn 0.990554 -0.137123 0.000000
vn 0.990554 -0.137123 0.000000
vn 0.000000 0.097463 -0.995239
vn 0.000000 0.097463 -0.995239
vn 0.000000 0.097463 -0.995239
vn 0.000000 0.097463 -0.995239
vn -0.992241 0.124329 0.000000
vn -0.992241 0.124329 0.000000
vn -0.992241 0.124329 0.000000
vn -0.992241 0.124329 0.000000
vn 0.000000 -0.119487 0.992836
vn 0.000000 -0.119487 0.992836
vn 0.000000 -0.119487 0.992836
vn 0.000000 -0.119487 0.992836
vn 0.000000 -0.120400 -0.992725
vn 0.000000 -0.120400 -0.992726
vn 0.000000 -0.120400 -0.992725
vn 0.000000 -0.120400 -0.992725
vn -0.992308 0.123796 0.000000
vn -0.992308 0.123796 0.000000
vn -0.992308 0.123796 0.000000
vn -0.992308 0.123796 0.000000
vn 0.000000 0.098382 0.995149
vn 0.000000 0.098382 0.995149
vn 0.000000 0.098382 0.995149
vn 0.000000 0.098382 0.995149
vn 0.990627 -0.136592 0.000000
vn 0.990627 -0.136592 0.000000
vn 0.990627 -0.136592 0.000000
vn 0.990627 -0.136592 0.000000
vn 1.000000 0.000000 0.000000
vn 1.000000 0.000000 0.000000
vn 1.000000 0.000000 0.000000
vn 1.000000 0.000000 0.000000
vn 0.000000 0.000000 -1.000000
vn 0.000000 0.000000 -1.000000
vn 0.000000 0.000000 -1.000000
vn 0.000000 0.000000 -1.000000
vn -1.000000 0.000000 0.000000
vn -1.000000 0.000000 0.000000
vn -1.000000 0.000000 0.000000
vn -1.000000 0.000000 0.000000
vn 0.000000 0.000000 1.000000
vn 0.000000 0.000000 1.000000
vn 0.000000 0.000000 1.000000
vn 0.000000 0.000000 1.000000
vn 0.000000 0.000000 -1.000000
vn 0.000000 0.000000 -1.000000
vn 0.000000 0.000000 -1.000000
vn 0.000000 0.000000 -1.000000
vn -1.000000 0.000000 0.000000
vn -1.000000 0.000000 0.000000
vn -1.000000 0.000000 0.000000
vn -1.000000 0.000000 0.000000
vn 0.000000 0.000000 1.000000
vn 0.000000 0.000000 1.000000
vn 0.000000 0.000000 1.000000
vn 0.000000 0.000000 1.000000
vn 1.000000 0.000000 0.000000
vn 1.000000 0.000000 0.000000
vn 1.000000 0.000000 0.000000
vn 1.000000 0.000000 0.000000
vn 0.000000 0.000000 1.000000
vn 0.000000 0.000000 1.000000
vn 0.000000 0.000000 1.000000
vn 0.000000 0.000000 1.000000
vn 1.000000 0.000000 0.000000
vn 1.000000 0.000000 0.000000
vn 1.000000 0.000000 0.000000
vn 1.000000 0.000000 0.000000
vn 0.000000 0.000000 -1.000000
vn 0.000000 0.000000 -1.000000
vn 0.000000 0.000000 -1.000000
vn 0.000000 0.000000 -1.000000
vn -1.000000 0.000000 0.000000
vn -1.000000 0.000000 0.000000
vn -1.000000 0.000000 0.000000
vn -1.000000 0.000000 0.000000
vn -1.000000 0.000000 0.000000
vn -1.000000 0.000000 0.000000
vn -1.000000 0.000000 0.000000
vn -1.000000 0.000000 0.000000
vn 0.000000 0.000000 1.000000
vn 0.000000 0.000000 1.000000
vn 0.000000 0.000000 1.000000
vn 0.000000 0.000000 1.000000
vn 1.000000 0.000000 0.000000
vn 1.000000 0.000000 0.000000
vn 1.000000 0.000000 0.000000
vn 1.000000 0.000000 0.000000
vn 0.000000 0.000000 -1.000000
vn 0.000000 0.000000 -1.000000
vn 0.000000 0.000000 -1.000000
vn 0.000000 0.000000 -1.000000
vn 0.000000 -0.374506 0.927224
vn 0.000000 -0.374506 0.927225
vn 0.000000 -0.374506 0.927225
vn 0.915557 -0.402188 0.000000
vn 0.915557 -0.402188 0.000000
vn 0.915557 -0.402188 0.000000
vn 0.915557 -0.402188 0.000000
vn 0.000000 -0.374507 -0.927224
vn 0.000000 -0.374507 -0.927224
vn 0.000000 -0.374507 -0.927224
vn -0.915558 -0.402186 0.000000
vn -0.915558 -0.402186 0.000000
vn -0.915558 -0.402186 0.000000
vn -0.915558 -0.402186 0.000000
vn 0.117646 0.831074 0.543576
vn 0.117646 0.831074 0.543576
vn 0.117646 0.831074 0.543576
vn 0.000000 0.374506 0.927224
vn 0.000000 0.374506 0.927224
vn 0.000000 0.374506 0.927224
vn 0.000000 0.374506 0.927224
vn -0.191169 0.833263 0.518775
vn -0.191169 0.833263 0.518775
vn -0.191169 0.833263 0.518775
vn -0.157657 0.803532 -0.574004
vn -0.157657 0.803532 -0.574004
vn -0.157657 0.803532 -0.574003
vn 0.000000 0.374507 -0.927224
vn 0.000000 0.374507 -0.927224
vn 0.000000 0.374507 -0.927224
vn 0.000000 0.374507 -0.927224
vn 0.103590 0.833632 -0.542520
vn 0.103590 0.833632 -0.542520
vn 0.103590 0.833631 -0.542520
vn 0.000000 1.000000 0.000000
vn 0.000000 1.000000 0.000000
vn 0.000000 1.000000 0.000000
vn 0.000000 1.000000 0.000000
vn 0.000000 1.000000 -0.000000
vn 0.000000 1.000000 -0.000000
vn 0.000000 1.000000 -0.000000
vn 0.000000 1.000000 -0.000000
vn 0.000000 1.000000 0.000000
vn 0.000000 1.000000 0.000000
vn 0.000000 1.000000 0.000000
vn 0.000000 1.000000 0.000000
vn 0.000000 -0.374506 0.927224
vn 0.000000 -0.374506 0.927224
vn 0.000000 -0.374506 0.927224
vn 0.000000 -0.374504 -0.927225
vn 0.000000 -0.374504 -0.927225
vn 0.000000 -0.374504 -0.927225
vn 0.000000 -0.374511 -0.927223
vn 0.000000 -0.374511 -0.927223
vn 0.000000 -0.374511 -0.927223
vn 0.000000 0.374506 0.927225
vn 0.000000 0.374506 0.927225
vn 0.000000 0.374506 0.927225
vn 0.000000 0.374506 0.927225
vn 0.253344 0.678181 0.689846
vn 0.253344 0.678181 0.689846
vn 0.253344 0.678181 0.689846
vn -0.171870 0.739385 0.650976
vn -0.171870 0.739385 0.650976
vn -0.171870 0.739385 0.650976
vn 0.000000 1.000000 -0.000000
vn 0.000000 1.000000 -0.000000
vn 0.000000 1.000000 -0.000000
vn 0.000000 1.000000 -0.000000
vn 0.000000 -0.374509 0.927224
vn 0.000000 -0.374509 0.927223
vn 0.000000 -0.374509 0.927224
vn 0.000000 -0.374509 0.927223
s off
f 3/3/1 4/4/2 6/6/3 5/5/4
f 7/7/5 8/8/6 2/10/7 1/9/8
f 2/2/9 8/11/10 6/12/11 4/4/12
f 7/13/13 1/1/14 3/3/15 5/14/16
f 11/15/17 12/16/18 14/17/19 13/18/20
f 15/19/21 16/20/22 10/21/23 9/22/24
f 10/23/25 16/24/26 14/25/27 12/16/28
f 15/26/29 9/27/30 11/15/31 13/28/32
f 77/29/33 78/30/34 20/31/35 19/32/36
f 21/33/37 22/34/38 79/35/39 80/36/40
f 23/37/41 24/38/42 18/39/43 17/40/44
f 78/30/45 79/41/46 22/42/47 20/31/48
f 80/43/49 77/29/50 19/32/51 21/44/52
f 73/45/53 74/46/54 28/47/55 27/48/56
f 29/49/57 30/50/58 75/51/59 76/52/60
f 31/53/61 32/54/62 26/55/63 25/56/64
f 74/46/65 75/57/66 30/58/67 28/47/68
f 76/59/69 73/45/70 27/48/71 29/60/72
f 81/61/73 82/62/74 36/63/75 35/64/76
f 37/65/77 38/66/78 83/67/79 84/68/80
f 39/69/81 40/70/82 34/71/83 33/72/84
f 82/62/85 83/73/86 38/74/87 36/63/88
f 84/75/89 81/61/90 35/64/91 37/76/92
f 85/77/93 86/78/94 44/79/95 43/80/96
f 45/81/97 46/82/98 87/83/99 88/84/100
f 47/85/101 48/86/102 42/87/103 41/88/104
f 86/78/105 87/89/106 46/90/107 44/79/108
f 88/91/109 85/77/110 43/80/111 45/92/112
f 49/93/113 50/94/114 52/95/115 51/96/116
f 116/174/117 112/170/118 110/168/119 117/175/120 120/178/121
f 53/101/122 54/102/123 56/103/124 55/104/125
f 61/105/126 62/106/127 63/107/128 64/108/129
f 50/94/130 56/109/131 54/110/132 52/95/133
f 55/111/134 49/93/135 51/96/136 53/112/137
f 55/104/138 56/103/139 58/113/140 57/114/141
f 56/103/142 50/115/143 59/116/144 58/113/145
f 50/115/146 49/117/147 60/118/148 59/116/149
f 49/117/150 55/104/151 57/114/152 60/118/153
f 57/114/154 58/113/155 62/106/156 61/105/157
f 58/113/158 59/116/159 63/107/160 62/106/161
f 59/116/162 60/118/163 64/108/164 63/107/165
f 60/118/166 57/114/167 61/105/168 64/108/169
f 51/96/170 52/95/171 66/119/172 65/120/173
f 52/95/174 54/102/175 67/121/176 66/119/177
f 54/102/178 53/101/179 68/122/180 67/121/181
f 53/101/182 51/96/183 65/120/184 68/122/185
f 118/176/186 119/177/187 106/124/188 70/98/189
f 106/124/190 107/125/191 71/99/192 70/98/193
f 113/171/194 115/173/195 108/126/196 72/100/197
f 108/126/198 105/123/199 69/97/200 72/100/201
f 97/127/202 98/128/203 74/46/204 73/45/205
f 98/128/206 99/129/207 75/57/208 74/46/209
f 76/52/210 75/51/211 99/130/212 100/131/213
f 100/132/214 97/127/215 73/45/216 76/59/217
f 101/133/218 102/134/219 78/30/220 77/29/221
f 102/134/222 103/135/223 79/41/224 78/30/225
f 80/36/226 79/35/227 103/136/228 104/137/229
f 104/138/230 101/133/231 77/29/232 80/43/233
f 89/139/234 90/140/235 82/62/236 81/61/237
f 90/140/238 91/141/239 83/73/240 82/62/241
f 84/68/242 83/67/243 91/142/244 92/143/245
f 92/144/246 89/139/247 81/61/248 84/75/249
f 93/145/250 94/146/251 86/78/252 85/77/253
f 94/146/254 95/147/255 87/89/256 86/78/257
f 88/84/258 87/83/259 95/148/260 96/149/261
f 96/150/262 93/145/263 85/77/264 88/91/265
f 33/151/266 34/152/267 90/140/268 89/139/269
f 34/152/270 40/153/271 91/141/272 90/140/273
f 92/143/274 91/142/275 40/70/276 39/69/277
f 39/154/278 33/151/279 89/139/280 92/144/281
f 41/155/282 42/156/283 94/146/284 93/145/285
f 42/156/286 48/157/287 95/147/288 94/146/289
f 96/149/290 95/148/291 48/86/292 47/85/293
f 47/158/294 41/155/295 93/145/296 96/150/297
f 25/159/298 26/160/299 98/128/300 97/127/301
f 26/160/302 32/161/303 99/129/304 98/128/305
f 100/131/306 99/130/307 32/54/308 31/53/309
f 31/162/310 25/159/311 97/127/312 100/132/313
f 17/163/314 18/164/315 102/134/316 101/133/317
f 18/164/318 24/165/319 103/135/320 102/134/321
f 104/137/322 103/136/323 24/38/324 23/37/325
f 23/166/326 17/163/327 101/133/328 104/138/329
f 65/120/330 111/169/331 105/123/332
f 66/119/333 67/121/334 107/125/335 106/124/336
f 67/121/337 115/173/338 107/125/339
f 68/122/340 65/120/341 105/123/342 108/126/343
f 111/169/344 112/170/345 109/167/346
f 105/123/347 111/169/348 109/167/349 69/97/350
f 110/168/351 112/170/352 111/169/353
f 115/173/354 116/174/355 114/172/356
f 107/125/357 115/173/358 114/172/359 71/99/360
f 113/171/361 116/174/362 115/173/363
f 116/174/364 70/98/365 71/99/366 114/172/367
f 69/97/368 109/167/369 112/170/370 72/100/371
f 72/100/372 112/170/373 116/174/374 113/171/375
f 66/119/376 106/124/377 119/177/378
f 115/173/379 68/122/380 108/126/381
f 67/121/382 68/122/383 115/173/384
f 110/168/385 111/169/386 119/177/387 117/175/388
f 117/175/389 119/177/390 120/178/391
f 120/178/392 119/177/393 118/176/394
f 116/174/395 120/178/396 118/176/397 70/98/398
f 66/119/399 119/177/400 111/169/401 65/120/402
