# This file uses centimeters as units for non-parametric coordinates.

v -12.818481 -20.924210 6.772217
v 12.315552 -16.655838 5.794189
v -19.348694 17.439178 4.398193
v 5.785339 21.707527 3.419434
v -1.101746 26.666611 5.096191
v 24.332275 28.454842 5.096191
v -3.831970 65.497879 5.096191
v 21.602112 67.286087 5.096191
v -41.751892 21.571449 5.096191
v -16.445251 18.462593 5.096191
v -37.005554 60.208084 5.096191
v -11.698975 57.099228 5.096191
v 37.647095 22.321190 3.718262
v 62.697815 17.571960 3.718262
v 44.897949 60.567062 3.718262
v 69.948853 55.817749 3.718262
v 30.617737 -9.418304 5.074707
v 55.513489 -25.650177 5.074707
v 47.316528 23.628754 5.074707
v 72.080872 12.718437 5.074707
v 40.136658 1.976585 5.075195
v 57.354614 -21.698166 5.075195
v 23.068909 -12.766495 2.404541
v 49.657593 -7.731895 2.404541
v 14.980774 29.948479 2.404541
v 41.569397 34.983093 2.404541
v -2.767151 29.470032 7.385742
v 8.765442 4.989342 7.385742
v 6.271179 33.727905 7.385254
v 28.584717 14.326004 7.385254
v 75.502991 -48.914505 4.023438
v 64.987122 -27.007080 4.023438
v 55.007019 -65.139633 4.023438
v 40.739075 -42.145378 4.023438
v -72.032166 -28.386597 3.287354
v -51.739868 -17.482651 3.286865
v -63.610962 -25.931000 3.286865
v -55.816162 -7.786865 3.287354
v -75.503052 -16.603790 3.287354
v -31.827393 -21.027840 3.484619
v -8.266479 -34.339058 3.484619
v -16.493103 -48.900192 3.484619
v -46.093994 -46.279755 3.484619
v -30.725586 -53.726212 3.484619
v -44.859070 -35.301388 5.164063
v -18.264893 -30.295906 5.163818
v -26.306274 12.427704 5.164063
v -43.315125 9.226349 5.163818
v -51.429260 -0.394402 5.163818
v -46.198425 -28.185425 7.442627
v -21.019958 -15.658279 7.443115
v 24.755127 -48.870361 4.113525
v 4.926758 -67.286087 4.113037
v 12.856384 -36.058830 4.113037
v -6.972046 -54.474560 4.113037
v 5.188904 -44.194016 4.723633
v 17.087646 -57.005547 4.723633
v -3.516235 -21.993973 3.485107
v 20.454834 -15.918823 3.484619
v -0.681824 -31.375584 3.484619
v 23.289246 -25.300323 3.484619
vt 0.501174 0.064044
vt 0.540860 0.064044
vt 0.540860 0.124391
vt 0.501174 0.124391
vt 0.584936 0.001255
vt 0.624622 0.001255
vt 0.624622 0.061602
vt 0.584936 0.061602
vt 0.543002 0.001255
vt 0.582689 0.001255
vt 0.582689 0.061602
vt 0.543002 0.061602
vt 0.501174 0.001255
vt 0.540860 0.001255
vt 0.540860 0.061602
vt 0.501174 0.061602
vt 0.584814 0.067029
vt 0.623527 0.067029
vt 0.623527 0.075129
vt 0.584814 0.096003
vt 0.623527 0.124654
vt 0.584814 0.124654
vt 0.544305 0.064515
vt 0.583017 0.064515
vt 0.583017 0.124654
vt 0.544305 0.124654
vt 0.500796 0.067029
vt 0.539508 0.067029
vt 0.539508 0.096068
vt 0.500796 0.080272
vt 0.543444 0.023560
vt 0.582156 0.023560
vt 0.582156 0.061451
vt 0.543444 0.061549
vt 0.585997 0.030858
vt 0.624710 0.042913
vt 0.624710 0.061719
vt 0.610216 0.061756
vt 0.585997 0.048512
vt 0.501686 0.086267
vt 0.525534 0.087663
vt 0.539551 0.102187
vt 0.539551 0.123870
vt 0.501686 0.123870
vt 0.502204 0.006223
vt 0.540069 0.006223
vt 0.540069 0.025534
vt 0.502204 0.015611
vt 0.540069 0.062587
vt 0.515852 0.062587
vt 0.502204 0.052275
vt 0.502986 0.026510
vt 0.518594 0.026510
vt 0.518594 0.051893
vt 0.502986 0.051893
vt 0.540852 0.026510
vt 0.540852 0.051893
vt 0.501686 0.073937
vt 0.539551 0.073937
vt 0.539551 0.086643
vt 0.501686 0.086643
vn 0.027546 0.066421 0.997411
vn 0.027546 0.066421 0.997411
vn 0.027546 0.066421 0.997411
vn 0.027546 0.066421 0.997411
vn -0.000000 0.000000 1.000000
vn -0.000000 0.000000 1.000000
vn -0.000000 0.000000 1.000000
vn -0.000000 0.000000 1.000000
vn 0.000000 0.000000 1.000000
vn 0.000000 0.000000 1.000000
vn 0.000000 0.000000 1.000000
vn 0.000000 0.000000 1.000000
vn -0.000000 0.000000 1.000000
vn -0.000000 0.000000 1.000000
vn -0.000000 0.000000 1.000000
vn -0.000000 0.000000 1.000000
vn -0.000035 -0.000037 1.000000
vn -0.000035 -0.000037 1.000000
vn -0.000035 -0.000037 1.000000
vn -0.000035 -0.000037 1.000000
vn 0.000011 0.000013 1.000000
vn 0.000011 0.000013 1.000000
vn 0.000011 0.000013 1.000000
vn 0.000011 0.000013 1.000000
vn -0.000000 0.000000 1.000000
vn -0.000000 0.000000 1.000000
vn -0.000000 0.000000 1.000000
vn -0.000000 0.000000 1.000000
vn 0.000025 0.000019 1.000000
vn 0.000025 0.000019 1.000000
vn 0.000025 0.000019 1.000000
vn 0.000025 0.000019 1.000000
vn -0.000000 0.000000 1.000000
vn -0.000000 0.000000 1.000000
vn -0.000000 0.000000 1.000000
vn -0.000000 0.000000 1.000000
vn 0.000026 -0.000025 1.000000
vn 0.000026 -0.000025 1.000000
vn 0.000026 -0.000025 1.000000
vn 0.000026 -0.000025 1.000000
vn 0.000026 -0.000025 1.000000
vn 0.000000 0.000000 1.000000
vn 0.000000 0.000000 1.000000
vn 0.000000 0.000000 1.000000
vn 0.000000 0.000000 1.000000
vn 0.000000 0.000000 1.000000
vn 0.065301 -0.192843 0.979054
vn 0.065301 -0.192843 0.979054
vn 0.065301 -0.192843 0.979054
vn 0.065301 -0.192843 0.979054
vn -0.034375 0.068184 0.997080
vn -0.034375 0.068184 0.997080
vn -0.034375 0.068184 0.997080
vn -0.034375 0.068184 0.997080
vn -0.034375 0.068184 0.997080
vn 0.040024 0.037191 0.998506
vn 0.040024 0.037191 0.998506
vn 0.040024 0.037191 0.998506
vn 0.040024 0.037191 0.998506
vn -0.028106 -0.026103 0.999264
vn -0.028106 -0.026103 0.999264
vn -0.028106 -0.026103 0.999264
vn -0.028106 -0.026103 0.999264
vn 0.000016 -0.000021 1.000000
vn 0.000016 -0.000021 1.000000
vn 0.000016 -0.000021 1.000000
vn 0.000016 -0.000021 1.000000
s off
f 1/1/1 2/2/2 4/3/3 3/4/4
f 5/5/5 6/6/6 8/7/7 7/8/8
f 9/9/9 10/10/10 12/11/11 11/12/12
f 13/13/13 14/14/14 16/15/15 15/16/16
f 17/17/17 18/18/18 22/19/19 21/20/20
f 21/20/21 22/19/22 20/21/23 19/22/24
f 23/23/25 24/24/26 26/25/27 25/26/28
f 27/27/29 28/28/30 30/29/31 29/30/32
f 31/31/33 32/32/34 34/33/35 33/34/36
f 38/35/37 39/36/38 35/37/39 37/38/40 36/39/41
f 43/40/42 44/41/43 42/42/44 41/43/45 40/44/46
f 45/45/47 46/46/48 51/47/49 50/48/50
f 50/48/51 51/47/52 47/49/53 48/50/54 49/51/55
f 54/52/56 56/53/57 57/54/58 52/55/59
f 57/54/60 56/53/61 55/56/62 53/57/63
f 60/58/64 61/59/65 59/60/66 58/61/67
