# This file uses centimeters as units for non-parametric coordinates.

v 24.533962 12.002724 19.340864
v 35.526970 6.580109 -1.788523
v 23.827541 6.580109 -28.408688
v -6.074163 12.218658 -34.155064
v -25.211082 6.580109 -21.023752
v -35.789001 13.712551 0.459623
v -25.211082 6.580109 19.924810
v -4.980006 6.580109 28.404287
v 23.949310 42.136986 17.897142
v 30.547646 43.048172 3.352324
v 24.762884 38.910210 -14.186846
v 7.444969 44.014603 -23.681093
v -11.221455 47.268948 -19.212379
v -21.815525 50.166481 -4.275278
v -15.233281 46.469864 14.339521
v 2.176321 52.278210 21.926062
v 17.721786 -0.000000 15.407907
v 26.611795 -0.000000 -1.788523
v -4.947354 -0.000000 -0.549517
v 10.275868 -0.000000 -29.373350
v -10.772696 -0.000000 -29.250526
v -18.804077 -0.000000 -16.508520
v -25.691036 -0.000000 -0.549517
v -18.804077 -0.000000 15.407907
v -4.947354 -0.000000 22.019405
v 15.899052 64.191895 -0.385051
v 18.471687 63.081024 -4.120892
v 17.119308 62.605080 -8.517481
v 12.682431 63.114845 -11.023493
v 7.626288 64.108879 -10.111997
v 4.981013 65.109123 -6.340953
v 6.248144 65.455940 -1.903029
v 10.809176 65.134544 0.545637
v 20.599792 73.678757 -0.169733
v 24.007120 71.416290 -5.509340
v 18.370235 71.039787 -10.566000
v 15.575189 71.691048 -15.817503
v 10.133232 73.513939 -13.242956
v 4.741709 75.528305 -9.158335
v 6.744993 76.234406 -2.638269
v 13.262636 73.263680 -2.054506
v 19.585552 74.959435 -2.378723
v 22.234158 73.266174 -6.494860
v 17.866442 72.962807 -10.516808
v 15.746354 73.466003 -14.416666
v 11.757100 74.942711 -12.872849
v 7.492079 76.527740 -9.332788
v 9.006924 77.031387 -4.308998
v 13.984154 74.573616 -4.030867
v 11.848528 64.253448 -5.322596
v 7.359097 60.233772 14.446405
v -6.692101 61.022438 7.031948
v -10.964287 59.348717 -6.326769
v -1.985339 59.615875 -16.324036
v 12.031358 52.476948 -20.375532
v 25.007462 50.055397 -12.440460
v 29.280285 51.728802 0.918439
v 22.478325 56.715885 11.808323
v -3.528547 31.459536 34.155067
v -28.628956 32.688309 22.628963
v -37.838219 28.429632 -0.304567
v -25.562527 27.346087 -23.739988
v 1.150654 26.841887 -33.428947
v 27.321604 26.964155 -23.794212
v 37.838219 26.801805 -0.159410
v 25.489834 27.021303 24.160730
v 16.191021 60.362846 -7.762144
v 17.495636 60.845787 -3.595450
v 15.199586 62.124474 -0.119095
v 10.423959 63.109489 0.736194
v 6.074144 63.387764 -1.580649
v 4.814120 62.972183 -5.769420
v 7.453183 62.487457 -9.138667
v 12.056598 60.968277 -10.182290
v 9.117911 65.496483 -8.303427
v 7.021550 66.297287 -6.157267
v 7.960490 66.576012 -2.936513
v 11.245150 65.999107 -1.574383
v 14.919476 65.562630 -1.802286
v 16.735163 64.669777 -4.493079
v 15.093861 64.368774 -7.307004
v 12.544172 64.725288 -9.524956
vt 0.079247 0.226649
vt 0.079247 0.226649
vt 0.079247 0.226649
vt 0.079247 0.226649
vt 0.079247 0.226649
vt 0.079247 0.226649
vt 0.079247 0.226649
vt 0.079247 0.226649
vt 0.079247 0.226649
vt 0.079247 0.226649
vt 0.079247 0.226649
vt 0.079247 0.226649
vt 0.079247 0.226649
vt 0.079247 0.226649
vt 0.079247 0.226649
vt 0.079247 0.226649
vt 0.079247 0.226649
vt 0.079247 0.253987
vt 0.079247 0.253987
vt 0.079247 0.253987
vt 0.079247 0.253987
vt 0.079247 0.253987
vt 0.079247 0.253987
vt 0.079247 0.246773
vt 0.079247 0.253987
vt 0.079247 0.253987
vt 0.079247 0.246773
vt 0.079247 0.253987
vt 0.079247 0.253987
vt 0.079247 0.253987
vt 0.079247 0.253987
vt 0.079247 0.253987
vt 0.079247 0.253987
vt 0.079247 0.253987
vt 0.079247 0.226649
vt 0.079247 0.253987
vt 0.079247 0.226649
vt 0.079247 0.226649
vt 0.079247 0.226649
vt 0.079247 0.226649
vt 0.079247 0.226649
vt 0.079247 0.226649
vt 0.079247 0.226649
vt 0.079247 0.226649
vt 0.079247 0.253987
vt 0.079247 0.253987
vt 0.079247 0.253987
vt 0.079247 0.253987
vt 0.079247 0.253987
vt 0.079247 0.253987
vt 0.079247 0.253987
vt 0.079247 0.253987
vt 0.079247 0.253987
vt 0.079247 0.253987
vt 0.079247 0.253987
vt 0.079247 0.253987
vt 0.079247 0.253987
vt 0.079247 0.253987
vt 0.079247 0.253987
vt 0.079247 0.253987
vt 0.079247 0.253987
vt 0.079247 0.253987
vt 0.079247 0.253987
vt 0.079247 0.253987
vt 0.079247 0.253987
vt 0.079247 0.253987
vt 0.079247 0.253987
vt 0.079247 0.253987
vt 0.079247 0.253987
vt 0.079247 0.253987
vt 0.079247 0.253987
vt 0.079247 0.253987
vt 0.079247 0.253987
vt 0.079247 0.253987
vt 0.079247 0.253987
vt 0.079247 0.253987
vt 0.079247 0.228927
vt 0.079247 0.228927
vt 0.079247 0.234622
vt 0.079247 0.253987
vt 0.079247 0.230066
vt 0.079247 0.253987
vt 0.079247 0.253987
vt 0.079247 0.234622
vt 0.079247 0.234622
vt 0.079247 0.253987
vt 0.079247 0.253987
vt 0.079247 0.253987
vt 0.079247 0.253987
vt 0.079247 0.253987
vt 0.079247 0.253987
vt 0.079247 0.253987
vt 0.079247 0.253987
vt 0.079247 0.253987
vt 0.079247 0.253987
vt 0.079247 0.253987
vt 0.079247 0.253987
vt 0.079247 0.253987
vt 0.079247 0.253987
vt 0.079247 0.253987
vt 0.079247 0.253987
vn 0.888886 0.123478 0.441174
vn 0.888886 0.123478 0.441174
vn 0.888886 0.123478 0.441174
vn 0.888886 0.123478 0.441174
vn 0.880007 0.104702 -0.463276
vn 0.880007 0.104702 -0.463276
vn 0.880007 0.104702 -0.463276
vn 0.880007 0.104702 -0.463276
vn 0.373287 0.326752 -0.868268
vn 0.373287 0.326752 -0.868268
vn 0.373287 0.326752 -0.868268
vn 0.373287 0.326752 -0.868268
vn -0.545575 0.186442 -0.817060
vn -0.545575 0.186442 -0.817060
vn -0.545575 0.186442 -0.817060
vn -0.545575 0.186442 -0.817060
vn -0.893118 -0.030775 -0.448768
vn -0.893118 -0.030775 -0.448768
vn -0.893118 -0.030775 -0.448768
vn -0.893118 -0.030775 -0.448768
vn -0.905912 -0.065789 0.418324
vn -0.905912 -0.065789 0.418324
vn -0.905912 -0.065789 0.418324
vn -0.905912 -0.065789 0.418324
vn -0.351012 -0.163290 0.922023
vn -0.351012 -0.163290 0.922023
vn -0.351012 -0.163290 0.922023
vn -0.351012 -0.163290 0.922023
vn 0.309006 -0.127566 0.942466
vn 0.309006 -0.127566 0.942466
vn 0.309006 -0.127566 0.942466
vn 0.309006 -0.127566 0.942466
vn 0.000000 -1.000000 0.000000
vn 0.000000 -1.000000 0.000000
vn 0.000000 -1.000000 0.000000
vn 0.000000 -1.000000 0.000000
vn 0.000000 -1.000000 0.000000
vn 0.000000 -1.000000 0.000000
vn 0.000000 -1.000000 0.000000
vn 0.000000 -1.000000 0.000000
vn 0.000000 -1.000000 0.000000
vn 0.000000 -1.000000 0.000000
vn 0.000000 -1.000000 0.000000
vn 0.000000 -1.000000 0.000000
vn 0.000000 -1.000000 0.000000
vn 0.000000 -1.000000 0.000000
vn 0.000000 -1.000000 0.000000
vn 0.000000 -1.000000 0.000000
vn 0.000000 -1.000000 0.000000
vn 0.000000 -1.000000 0.000000
vn 0.000000 -1.000000 0.000000
vn 0.000000 -1.000000 0.000000
vn 0.000000 -1.000000 0.000000
vn 0.000000 -1.000000 0.000000
vn 0.000000 -1.000000 0.000000
vn 0.000000 -1.000000 0.000000
vn 0.644853 -0.635601 0.424472
vn 0.644853 -0.635601 0.424472
vn 0.644853 -0.635601 0.424472
vn 0.644853 -0.635601 0.424472
vn 0.557730 -0.762146 -0.328742
vn 0.557730 -0.762146 -0.328742
vn 0.557730 -0.762146 -0.328742
vn 0.557730 -0.762146 -0.328742
vn 0.061212 -0.732960 -0.677512
vn 0.061212 -0.732960 -0.677512
vn 0.061212 -0.732960 -0.677512
vn 0.061212 -0.732960 -0.677512
vn -0.421038 -0.697768 -0.579523
vn -0.421038 -0.697768 -0.579523
vn -0.421038 -0.697768 -0.579523
vn -0.421038 -0.697768 -0.579523
vn -0.737217 -0.638027 -0.222334
vn -0.737217 -0.638027 -0.222334
vn -0.737217 -0.638027 -0.222334
vn -0.737217 -0.638027 -0.222334
vn -0.724623 -0.650967 0.226196
vn -0.724622 -0.650967 0.226196
vn -0.724622 -0.650967 0.226196
vn -0.724622 -0.650967 0.226196
vn -0.212367 -0.682916 0.698946
vn -0.212367 -0.682916 0.698946
vn -0.212367 -0.682916 0.698946
vn -0.212367 -0.682916 0.698946
vn 0.292779 -0.543582 0.786637
vn 0.292779 -0.543582 0.786637
vn 0.292779 -0.543583 0.786637
vn 0.292779 -0.543582 0.786638
vn 0.798767 0.495361 0.341450
vn 0.798767 0.495361 0.341450
vn 0.798767 0.495361 0.341450
vn 0.798767 0.495361 0.341450
vn 0.856395 0.379464 -0.350134
vn 0.856395 0.379464 -0.350134
vn 0.856395 0.379464 -0.350134
vn 0.856395 0.379464 -0.350134
vn 0.530426 0.291952 -0.795872
vn 0.530426 0.291952 -0.795872
vn 0.530426 0.291952 -0.795872
vn 0.530426 0.291952 -0.795872
vn -0.142958 0.318616 -0.937041
vn -0.142958 0.318616 -0.937041
vn -0.142958 0.318616 -0.937041
vn -0.142958 0.318616 -0.937041
vn -0.695194 0.411822 -0.589158
vn -0.695194 0.411823 -0.589158
vn -0.695194 0.411823 -0.589158
vn -0.695194 0.411823 -0.589158
vn -0.806401 0.506177 0.305783
vn -0.806401 0.506177 0.305783
vn -0.806401 0.506177 0.305783
vn -0.806401 0.506177 0.305783
vn -0.426065 0.569406 0.703026
vn -0.426065 0.569406 0.703026
vn -0.426065 0.569406 0.703026
vn -0.426065 0.569406 0.703026
vn 0.337399 0.532332 0.776392
vn 0.337399 0.532332 0.776392
vn 0.337399 0.532332 0.776392
vn 0.337399 0.532332 0.776392
vn 0.592062 -0.540739 0.597548
vn 0.592062 -0.540739 0.597548
vn 0.592062 -0.540739 0.597548
vn 0.592062 -0.540739 0.597548
vn 0.597351 -0.628388 -0.498297
vn 0.597351 -0.628388 -0.498297
vn 0.597351 -0.628388 -0.498297
vn 0.597351 -0.628388 -0.498297
vn 0.590195 -0.628140 -0.507060
vn 0.590195 -0.628140 -0.507060
vn 0.590195 -0.628140 -0.507060
vn 0.590195 -0.628140 -0.507060
vn -0.459429 -0.449995 -0.765787
vn -0.459429 -0.449995 -0.765787
vn -0.459429 -0.449995 -0.765787
vn -0.459429 -0.449995 -0.765787
vn -0.673449 -0.349301 -0.651502
vn -0.673449 -0.349301 -0.651502
vn -0.673449 -0.349301 -0.651502
vn -0.673449 -0.349301 -0.651502
vn -0.945115 -0.132127 0.298831
vn -0.945115 -0.132127 0.298831
vn -0.945115 -0.132127 0.298831
vn -0.945115 -0.132127 0.298831
vn -0.187897 0.019458 0.981996
vn -0.187897 0.019458 0.981996
vn -0.187897 0.019458 0.981996
vn -0.187897 0.019458 0.981996
vn -0.148792 0.000375 0.988868
vn -0.148792 0.000375 0.988868
vn -0.148792 0.000375 0.988868
vn -0.148792 0.000375 0.988868
vn 0.673292 0.728483 0.126455
vn 0.673291 0.728483 0.126455
vn 0.673292 0.728483 0.126455
vn 0.673292 0.728483 0.126455
vn 0.649104 0.210274 -0.731061
vn 0.649104 0.210274 -0.731061
vn 0.649104 0.210274 -0.731061
vn 0.649104 0.210274 -0.731061
vn 0.866139 0.248049 -0.433907
vn 0.866139 0.248049 -0.433907
vn 0.866139 0.248049 -0.433907
vn 0.866139 0.248049 -0.433907
vn -0.166866 0.546968 -0.820355
vn -0.166866 0.546968 -0.820355
vn -0.166866 0.546968 -0.820355
vn -0.166866 0.546968 -0.820355
vn -0.320125 0.633444 -0.704464
vn -0.320125 0.633444 -0.704464
vn -0.320125 0.633444 -0.704464
vn -0.320125 0.633444 -0.704464
vn -0.336160 0.941797 0.003753
vn -0.336160 0.941797 0.003753
vn -0.336160 0.941797 0.003753
vn -0.336160 0.941797 0.003753
vn 0.286612 0.709176 0.644145
vn 0.286612 0.709176 0.644145
vn 0.286612 0.709176 0.644145
vn 0.286612 0.709176 0.644145
vn -0.195036 0.827800 0.526031
vn -0.195036 0.827800 0.526031
vn -0.195036 0.827800 0.526031
vn -0.195036 0.827799 0.526031
vn -0.563069 0.571155 -0.597274
vn -0.563069 0.571155 -0.597274
vn -0.563069 0.571155 -0.597274
vn -0.525603 0.673303 0.520005
vn -0.525603 0.673303 0.520005
vn -0.525603 0.673303 0.520005
vn -0.610895 0.671877 0.418794
vn -0.610895 0.671877 0.418794
vn -0.610895 0.671877 0.418794
vn 0.468257 0.512442 0.719818
vn 0.468257 0.512442 0.719818
vn 0.468257 0.512442 0.719818
vn 0.665350 0.434487 0.607068
vn 0.665350 0.434487 0.607068
vn 0.665350 0.434487 0.607068
vn 0.925215 0.229710 -0.302012
vn 0.925215 0.229709 -0.302012
vn 0.925215 0.229709 -0.302012
vn 0.105620 0.101953 -0.989166
vn 0.105620 0.101953 -0.989166
vn 0.105620 0.101953 -0.989166
vn 0.278399 0.062352 -0.958440
vn 0.278399 0.062352 -0.958440
vn 0.278399 0.062352 -0.958440
vn -0.047137 0.979368 0.196512
vn -0.047137 0.979368 0.196512
vn -0.047137 0.979368 0.196512
vn -0.047137 0.979368 0.196512
vn -0.217891 0.974823 -0.047373
vn -0.217891 0.974823 -0.047373
vn -0.217891 0.974823 -0.047373
vn -0.217891 0.974823 -0.047373
vn -0.192222 0.964181 -0.182772
vn -0.192222 0.964181 -0.182772
vn -0.192222 0.964181 -0.182772
vn -0.192222 0.964181 -0.182772
vn 0.191791 0.770330 -0.608119
vn 0.191791 0.770330 -0.608119
vn 0.191791 0.770330 -0.608119
vn 0.191791 0.770330 -0.608119
vn 0.466598 0.672589 -0.574378
vn 0.466598 0.672589 -0.574378
vn 0.466598 0.672589 -0.574378
vn 0.466598 0.672589 -0.574378
vn 0.654464 0.696597 -0.293990
vn 0.654464 0.696597 -0.293990
vn 0.654464 0.696597 -0.293990
vn 0.654464 0.696597 -0.293990
vn 0.592629 0.805113 0.024160
vn 0.592629 0.805113 0.024160
vn 0.592629 0.805113 0.024160
vn 0.592629 0.805113 0.024160
vn 0.256237 0.931318 0.258822
vn 0.256237 0.931318 0.258822
vn 0.256237 0.931318 0.258822
vn 0.256237 0.931318 0.258822
vn -0.397135 0.514413 0.760042
vn -0.397135 0.514413 0.760041
vn -0.397135 0.514413 0.760041
vn -0.397135 0.514413 0.760041
vn -0.824923 0.474534 0.307114
vn -0.824923 0.474534 0.307114
vn -0.824924 0.474534 0.307114
vn -0.824923 0.474534 0.307114
vn -0.796102 0.328085 -0.508510
vn -0.796102 0.328085 -0.508510
vn -0.796102 0.328085 -0.508510
vn -0.796102 0.328085 -0.508509
vn -0.244934 0.388603 -0.888254
vn -0.244934 0.388603 -0.888254
vn -0.244934 0.388603 -0.888254
vn -0.244934 0.388603 -0.888254
vn 0.379229 0.597473 -0.706549
vn 0.379229 0.597473 -0.706549
vn 0.379229 0.597473 -0.706549
vn 0.379229 0.597473 -0.706549
vn 0.648717 0.688918 -0.323356
vn 0.648717 0.688918 -0.323356
vn 0.648717 0.688918 -0.323356
vn 0.648717 0.688918 -0.323356
vn 0.740237 0.560822 0.370847
vn 0.740237 0.560822 0.370847
vn 0.740237 0.560822 0.370847
vn 0.740237 0.560822 0.370847
vn 0.360835 0.499550 0.787558
vn 0.360835 0.499550 0.787558
vn 0.360835 0.499550 0.787558
vn 0.360835 0.499550 0.787558
vn 0.872742 -0.434727 -0.222114
vn 0.872742 -0.434727 -0.222114
vn 0.872742 -0.434727 -0.222114
vn 0.872742 -0.434727 -0.222114
vn 0.781604 -0.195411 0.592376
vn 0.781604 -0.195411 0.592376
vn 0.781604 -0.195411 0.592376
vn 0.781604 -0.195411 0.592376
vn 0.189020 0.059240 0.980185
vn 0.189020 0.059240 0.980185
vn 0.189020 0.059240 0.980185
vn 0.189020 0.059240 0.980185
vn -0.455580 0.171700 0.873479
vn -0.455580 0.171700 0.873479
vn -0.455580 0.171700 0.873479
vn -0.455580 0.171700 0.873479
vn -0.954121 0.134241 0.267642
vn -0.954121 0.134241 0.267642
vn -0.954121 0.134241 0.267642
vn -0.954121 0.134241 0.267642
vn -0.809101 -0.159318 -0.565661
vn -0.809101 -0.159318 -0.565661
vn -0.809101 -0.159318 -0.565661
vn -0.809101 -0.159318 -0.565661
vn -0.275660 -0.368994 -0.887612
vn -0.275660 -0.368994 -0.887612
vn -0.275660 -0.368994 -0.887612
vn -0.275660 -0.368994 -0.887612
vn 0.405183 -0.435834 -0.803664
vn 0.405183 -0.435834 -0.803664
vn 0.405183 -0.435834 -0.803664
vn 0.405183 -0.435834 -0.803664
vn -0.311248 0.810547 -0.496124
vn -0.311248 0.810547 -0.496124
vn -0.311248 0.810547 -0.496124
vn -0.311248 0.810547 -0.496124
vn -0.509669 0.856935 0.076818
vn -0.509669 0.856935 0.076818
vn -0.509669 0.856934 0.076818
vn -0.509669 0.856935 0.076818
vn -0.125842 0.876013 0.465580
vn -0.125842 0.876013 0.465580
vn -0.125842 0.876013 0.465580
vn -0.125842 0.876013 0.465580
vn 0.198795 0.841990 0.501531
vn 0.198795 0.841990 0.501531
vn 0.198795 0.841990 0.501531
vn 0.198795 0.841990 0.501531
vn 0.650278 0.728032 0.217042
vn 0.650278 0.728032 0.217042
vn 0.650278 0.728032 0.217042
vn 0.650278 0.728032 0.217042
vn 0.588139 0.741010 -0.324032
vn 0.588139 0.741010 -0.324032
vn 0.588139 0.741010 -0.324032
vn 0.588139 0.741010 -0.324032
vn 0.449513 0.716522 -0.533417
vn 0.449513 0.716522 -0.533417
vn 0.449513 0.716522 -0.533417
vn 0.449513 0.716522 -0.533417
vn -0.013389 0.743531 -0.668567
vn -0.013389 0.743531 -0.668567
vn -0.013389 0.743531 -0.668567
vn -0.013389 0.743531 -0.668567
s off
f 1/9/1 2/10/2 65/83/3 66/85/4
f 2/10/5 3/11/6 64/82/7 65/83/8
f 3/11/9 4/12/10 63/81/11 64/82/12
f 4/12/13 5/13/14 62/80/15 63/81/16
f 5/13/17 6/14/18 61/79/19 62/80/20
f 6/14/21 7/15/22 60/78/23 61/79/24
f 7/15/25 8/16/26 59/77/27 60/78/28
f 8/16/29 1/17/30 66/84/31 59/77/32
f 18/37/33 17/38/34 19/35/35
f 20/39/36 18/37/37 19/35/38
f 21/40/39 20/39/40 19/35/41
f 22/41/42 21/40/43 19/35/44
f 23/42/45 22/41/46 19/35/47
f 24/43/48 23/42/49 19/35/50
f 25/44/51 24/43/52 19/35/53
f 17/38/54 25/44/55 19/35/56
f 2/2/57 1/1/58 17/38/59 18/37/60
f 3/3/61 2/2/62 18/37/63 20/39/64
f 4/4/65 3/3/66 20/39/67 21/40/68
f 5/5/69 4/4/70 21/40/71 22/41/72
f 6/6/73 5/5/74 22/41/75 23/42/76
f 7/7/77 6/6/78 23/42/79 24/43/80
f 8/8/81 7/7/82 24/43/83 25/44/84
f 1/1/85 8/8/86 25/44/87 17/38/88
f 9/33/89 10/32/90 57/75/91 58/76/92
f 10/32/93 11/31/94 56/74/95 57/75/96
f 11/31/97 12/30/98 55/73/99 56/74/100
f 12/30/101 13/29/102 54/72/103 55/73/104
f 13/29/105 14/28/106 53/71/107 54/72/108
f 14/28/109 15/27/110 52/70/111 53/71/112
f 15/27/113 16/34/114 51/69/115 52/70/116
f 16/34/117 9/33/118 58/76/119 51/69/120
f 79/98/121 80/99/122 35/54/123 34/53/124
f 80/99/125 81/100/126 36/55/127 35/54/128
f 81/100/129 82/101/130 37/56/131 36/55/132
f 82/101/133 75/94/134 38/57/135 37/56/136
f 75/94/137 76/95/138 39/58/139 38/57/140
f 76/95/141 77/96/142 40/59/143 39/58/144
f 77/96/145 78/97/146 41/60/147 40/59/148
f 78/97/149 79/98/150 34/53/151 41/60/152
f 34/53/153 35/54/154 43/62/155 42/61/156
f 35/54/157 36/55/158 44/63/159 43/62/160
f 36/55/161 37/56/162 45/64/163 44/63/164
f 37/56/165 38/57/166 46/65/167 45/64/168
f 38/57/169 39/58/170 47/66/171 46/65/172
f 39/58/173 40/59/174 48/67/175 47/66/176
f 40/59/177 41/60/178 49/68/179 48/67/180
f 41/60/181 34/53/182 42/61/183 49/68/184
f 42/61/185 43/62/186 50/36/187
f 43/62/188 44/63/189 50/36/190
f 44/63/191 45/64/192 50/36/193
f 45/64/194 46/65/195 50/36/196
f 46/65/197 47/66/198 50/36/199
f 47/66/200 48/67/201 50/36/202
f 48/67/203 49/68/204 50/36/205
f 49/68/206 42/61/207 50/36/208
f 52/70/209 51/69/210 70/89/211 71/90/212
f 53/71/213 52/70/214 71/90/215 72/91/216
f 54/72/217 53/71/218 72/91/219 73/92/220
f 55/73/221 54/72/222 73/92/223 74/93/224
f 56/74/225 55/73/226 74/93/227 67/86/228
f 57/75/229 56/74/230 67/86/231 68/87/232
f 58/76/233 57/75/234 68/87/235 69/88/236
f 51/69/237 58/76/238 69/88/239 70/89/240
f 60/78/241 59/77/242 16/25/243 15/24/244
f 61/79/245 60/78/246 15/24/247 14/23/248
f 62/80/249 61/79/250 14/23/251 13/22/252
f 63/81/253 62/80/254 13/22/255 12/21/256
f 64/82/257 63/81/258 12/21/259 11/20/260
f 65/83/261 64/82/262 11/20/263 10/19/264
f 66/85/265 65/83/266 10/19/267 9/18/268
f 59/77/269 66/84/270 9/26/271 16/25/272
f 68/87/273 67/86/274 28/47/275 27/46/276
f 69/88/277 68/87/278 27/46/279 26/45/280
f 70/89/281 69/88/282 26/45/283 33/52/284
f 71/90/285 70/89/286 33/52/287 32/51/288
f 72/91/289 71/90/290 32/51/291 31/50/292
f 73/92/293 72/91/294 31/50/295 30/49/296
f 74/93/297 73/92/298 30/49/299 29/48/300
f 67/86/301 74/93/302 29/48/303 28/47/304
f 30/49/305 31/50/306 76/95/307 75/94/308
f 31/50/309 32/51/310 77/96/311 76/95/312
f 32/51/313 33/52/314 78/97/315 77/96/316
f 33/52/317 26/45/318 79/98/319 78/97/320
f 26/45/321 27/46/322 80/99/323 79/98/324
f 27/46/325 28/47/326 81/100/327 80/99/328
f 28/47/329 29/48/330 82/101/331 81/100/332
f 29/48/333 30/49/334 75/94/335 82/101/336
