# This file uses centimeters as units for non-parametric coordinates.

v -27.452858 4.648804 -24.476379
v -66.469841 4.648804 -24.476379
v -60.719189 4.648804 -18.503235
v -32.995548 4.648804 -18.503235
v -27.452858 -7.776733 -24.476379
v -66.469841 -7.776733 -24.476379
v -60.719189 -7.776733 -18.503235
v -32.995548 -7.776733 -18.503235
v -17.740969 5.810425 -15.461853
v -69.697456 8.191498 -12.853455
v -64.535385 5.930054 -4.433228
v -21.921577 5.810425 -5.594849
v -64.535385 10.318878 0.000000
v -28.067074 10.457306 0.000061
v -28.067076 5.810425 -5.810059
v -28.067074 273.608002 -4.433167
v -67.084053 273.608002 -4.433167
v -61.333405 279.581146 -4.433167
v -33.609764 279.581146 -4.433167
v -28.067074 273.608002 0.000000
v -67.084053 273.608002 0.000000
v -61.333405 279.581146 0.000000
v -33.609764 279.581146 0.000000
v -21.921577 282.622528 -5.594849
v -74.763870 284.425995 -8.085022
v -66.220413 290.469208 -8.085022
v -25.668249 289.060516 -5.594849
v -17.740971 283.784821 -13.658813
v -25.765701 292.073883 -12.918274
v -68.354332 292.073883 -18.226257
v -76.889130 285.850067 -19.245789
v -71.944664 8.554688 -26.808167
v -76.889130 5.847229 -101.538879
v -76.889130 18.105255 -23.002136
v -76.817184 15.241364 -8.181641
v -76.889130 8.876617 -314.998474
v -27.942749 4.648773 -338.204041
v -66.965042 4.648804 -341.607117
v -27.948383 -7.776703 -341.813538
v -66.970680 -7.776764 -345.216980
v -76.889130 8.428741 -341.374817
v -75.316856 8.192169 -341.306335
v -16.914457 9.428070 -335.853821
v -17.785509 284.259857 -126.212097
v -76.889130 284.407562 -135.882629
v -68.427956 291.832977 -125.547302
v -26.498646 291.839325 -118.553284
v -17.357607 141.730560 -284.257629
v -76.889130 146.916534 -301.149231
v -17.020626 41.124420 -313.450531
v -76.889130 57.027374 -335.764771
v -17.219101 104.074677 -287.917542
v -76.889130 93.802826 -308.972595
v -17.387337 155.725616 -272.359589
v -76.889130 169.589081 -278.815674
v -17.668753 207.481659 -166.472504
v -76.889130 210.584869 -195.314896
v -17.170521 83.839264 -284.901398
v -17.326775 132.525726 -275.494751
v -17.593689 181.377045 -192.509949
v -17.557991 195.303619 -204.061066
v -17.737114 246.221954 -131.037918
v -36.653809 206.058563 -171.328705
v -42.679897 191.280060 -189.342514
v -57.535637 199.663422 -191.936096
v -60.377979 205.041107 -181.664703
v -62.994667 214.865265 -176.686829
v -59.482986 267.721588 -134.457016
v -56.472206 278.907135 -132.542007
v -76.889130 168.362091 -230.880569
v -76.889130 233.120026 -150.348450
vt 0.102846 0.327481
vt 0.102846 0.327481
vt 0.102846 0.327481
vt 0.102846 0.327481
vt 0.102846 0.327481
vt 0.102846 0.327481
vt 0.102846 0.327481
vt 0.102846 0.327481
vt 0.102846 0.327481
vt 0.102846 0.327481
vt 0.102846 0.327481
vt 0.102846 0.327481
vt 0.102846 0.327481
vt 0.102846 0.327481
vt 0.102846 0.327481
vt 0.102846 0.327481
vt 0.102846 0.327481
vt 0.102846 0.327481
vt 0.102846 0.327481
vt 0.102846 0.327481
vt 0.102846 0.327481
vt 0.102846 0.327481
vt 0.102846 0.327481
vt 0.102846 0.327481
vt 0.102846 0.327481
vt 0.102846 0.327481
vt 0.102846 0.327481
vt 0.102846 0.327481
vt 0.102846 0.327481
vt 0.102846 0.327481
vt 0.102846 0.327481
vt 0.102846 0.327481
vt 0.102846 0.327481
vt 0.102846 0.327481
vt 0.102846 0.327481
vt 0.102846 0.327481
vt 0.102846 0.327481
vt 0.102846 0.327481
vt 0.102846 0.327481
vt 0.102846 0.327481
vt 0.102846 0.327481
vt 0.102846 0.327481
vt 0.102846 0.327482
vt 0.102846 0.327481
vt 0.102846 0.327481
vt 0.102846 0.327481
vt 0.102846 0.327481
vt 0.102846 0.327481
vt 0.102846 0.327481
vt 0.102846 0.327481
vt 0.102846 0.327481
vt 0.102846 0.327481
vt 0.102846 0.327481
vt 0.102846 0.327481
vt 0.102846 0.327481
vt 0.102846 0.327481
vt 0.102846 0.327481
vt 0.102846 0.327481
vt 0.102846 0.327481
vt 0.102846 0.327481
vt 0.102846 0.327481
vt 0.102846 0.327481
vt 0.102846 0.327481
vt 0.102846 0.327481
vt 0.102846 0.327481
vt 0.102846 0.327481
vt 0.102846 0.327481
vt 0.102846 0.327481
vt 0.102846 0.327481
vt 0.102846 0.327481
vt 0.102846 0.327481
vt 0.102846 0.327481
vt 0.102846 0.327481
vt 0.102846 0.327481
vt 0.102846 0.327481
vt 0.102846 0.327481
vt 0.102846 0.327481
vt 0.102846 0.327481
vt 0.102846 0.327481
vt 0.102846 0.327481
vt 0.102846 0.327481
vt 0.102846 0.327481
vt 0.102846 0.327481
vt 0.102846 0.327481
vt 0.102846 0.327481
vt 0.102846 0.327481
vt 0.102846 0.327481
vt 0.102846 0.327481
vt 0.102846 0.327481
vt 0.102846 0.327481
vt 0.102846 0.327481
vt 0.102846 0.327481
vt 0.102846 0.327481
vt 0.102846 0.327481
vt 0.102846 0.327481
vt 0.102846 0.327481
vt 0.102846 0.327481
vt 0.102846 0.327481
vt 0.102846 0.327481
vn 0.000000 -1.000000 0.000000
vn 0.000000 -1.000000 0.000000
vn 0.000000 -1.000000 0.000000
vn 0.000000 -1.000000 0.000000
vn 0.000001 -1.000000 -0.000000
vn 0.000001 -1.000000 -0.000000
vn 0.000001 -1.000000 -0.000000
vn 0.000001 -1.000000 -0.000000
vn -0.720397 0.000000 0.693563
vn -0.720397 0.000000 0.693563
vn -0.720397 0.000000 0.693563
vn -0.720397 0.000000 0.693563
vn 0.000000 0.000000 1.000000
vn 0.000000 0.000000 1.000000
vn 0.000000 0.000000 1.000000
vn 0.000000 0.000000 1.000000
vn 0.733026 0.000000 0.680201
vn 0.733026 0.000000 0.680201
vn 0.733026 0.000000 0.680201
vn 0.733026 0.000000 0.680201
vn -0.999999 0.000000 0.001562
vn -0.999999 0.000000 0.001562
vn -0.999999 0.000000 0.001562
vn -0.999999 0.000000 0.001562
vn 0.012679 -0.749870 0.661464
vn 0.012679 -0.749870 0.661464
vn 0.012679 -0.749870 0.661464
vn 0.012679 -0.749870 0.661464
vn 0.067632 -0.996846 0.041515
vn 0.067632 -0.996846 0.041515
vn 0.067632 -0.996846 0.041515
vn 0.067632 -0.996846 0.041515
vn -0.232564 -0.946458 0.223901
vn -0.232564 -0.946458 0.223901
vn -0.232564 -0.946458 0.223901
vn -0.376672 -0.926175 -0.017825
vn -0.376672 -0.926175 -0.017825
vn -0.376672 -0.926175 -0.017825
vn 0.000094 -0.995860 0.090896
vn 0.000094 -0.995860 0.090896
vn 0.000094 -0.995860 0.090896
vn 0.000094 -0.995861 0.090896
vn -0.003235 -0.995719 0.092380
vn -0.003235 -0.995719 0.092380
vn -0.003235 -0.995719 0.092380
vn 0.999999 0.000000 -0.001562
vn 0.999999 0.000000 -0.001562
vn 0.999999 0.000000 -0.001562
vn 0.999999 0.000000 -0.001562
vn 0.278066 -0.960547 -0.005332
vn 0.278066 -0.960547 -0.005332
vn 0.278066 -0.960547 -0.005332
vn 0.278066 -0.960547 -0.005332
vn -0.280582 -0.959830 0.000769
vn -0.280582 -0.959830 0.000769
vn -0.280582 -0.959830 0.000769
vn -0.280582 -0.959830 0.000769
vn -0.280582 -0.959830 0.000769
vn -0.280582 -0.959830 0.000769
vn 0.000000 0.000000 1.000000
vn 0.000000 0.000000 1.000000
vn 0.000000 0.000000 1.000000
vn 0.000000 0.000000 1.000000
vn -0.000001 0.000000 1.000000
vn -0.000001 0.000000 1.000000
vn -0.000001 0.000000 1.000000
vn -0.000001 0.000000 1.000000
vn -0.720397 0.693562 0.000000
vn -0.720397 0.693562 0.000000
vn -0.720397 0.693562 0.000000
vn -0.720397 0.693562 0.000000
vn 0.000000 1.000000 0.000000
vn 0.000000 1.000000 0.000000
vn 0.000000 1.000000 0.000000
vn 0.000000 1.000000 0.000000
vn 0.733026 0.680201 0.000000
vn 0.733026 0.680201 0.000000
vn 0.733026 0.680201 0.000000
vn 0.733026 0.680201 0.000000
vn -0.999943 -0.009600 0.004752
vn -0.999943 -0.009600 0.004752
vn -0.999943 -0.009600 0.004752
vn -0.999943 -0.009600 0.004752
vn 1.000000 0.000000 -0.000000
vn 1.000000 0.000000 -0.000000
vn 1.000000 0.000000 -0.000000
vn 1.000000 0.000000 -0.000000
vn -0.052114 0.235880 0.970384
vn -0.052114 0.235880 0.970384
vn -0.052114 0.235880 0.970384
vn -0.052114 0.235880 0.970384
vn -0.052114 0.235880 0.970384
vn 0.766637 0.446154 0.461752
vn 0.766637 0.446154 0.461752
vn 0.766637 0.446154 0.461752
vn -0.577067 0.784537 0.226927
vn -0.577067 0.784537 0.226927
vn -0.577067 0.784537 0.226927
vn -0.577067 0.784537 0.226927
vn -0.007687 0.966501 0.256547
vn -0.007687 0.966501 0.256547
vn -0.007687 0.966501 0.256547
vn -0.007687 0.966501 0.256547
vn -0.996394 0.003202 0.084792
vn -0.996394 0.003202 0.084792
vn -0.996394 0.003202 0.084792
vn -0.996394 0.003202 0.084792
vn 0.906344 -0.001373 0.422539
vn 0.906344 -0.001373 0.422539
vn 0.906344 -0.001373 0.422539
vn 0.906344 -0.001373 0.422539
vn 0.704991 0.659118 0.261824
vn 0.704991 0.659118 0.261824
vn 0.704991 0.659118 0.261824
vn 0.687573 0.726114 -0.001650
vn 0.687573 0.726114 -0.001650
vn 0.687573 0.726114 -0.001650
vn 0.687573 0.726114 -0.001650
vn -0.348041 -0.000490 0.937479
vn -0.348041 -0.000490 0.937479
vn -0.348041 -0.000490 0.937479
vn -0.348041 -0.000490 0.937479
vn 0.078615 -0.002520 0.996902
vn 0.078615 -0.002520 0.996902
vn 0.078615 -0.002520 0.996902
vn 0.078615 -0.002520 0.996902
vn 0.082742 0.061930 0.994645
vn 0.082742 0.061930 0.994645
vn 0.082742 0.061930 0.994645
vn 0.082742 0.061930 0.994645
vn -0.194336 0.187097 0.962927
vn -0.194336 0.187097 0.962927
vn -0.194336 0.187097 0.962927
vn -0.623846 0.781527 -0.005669
vn -0.623846 0.781527 -0.005669
vn -0.623846 0.781527 -0.005669
vn -0.623846 0.781527 -0.005669
vn -1.000000 -0.000000 0.000000
vn -1.000000 -0.000000 0.000000
vn -1.000000 -0.000000 0.000000
vn -0.600334 -0.796135 0.075955
vn -0.600334 -0.796135 0.075955
vn -0.600334 -0.796135 0.075955
vn -0.872976 -0.481928 0.075219
vn -0.872976 -0.481928 0.075219
vn -0.872976 -0.481928 0.075219
vn -0.809109 -0.587658 -0.000694
vn -0.809109 -0.587658 -0.000694
vn -0.809109 -0.587658 -0.000694
vn -0.809109 -0.587658 -0.000694
vn -0.628757 -0.755894 0.182451
vn -0.628757 -0.755894 0.182451
vn -0.628757 -0.755894 0.182451
vn 0.999995 0.001514 0.002597
vn 0.999995 0.001514 0.002597
vn 0.999996 0.001514 0.002597
vn -0.149484 -0.988622 0.016787
vn -0.149484 -0.988622 0.016787
vn -0.149484 -0.988622 0.016787
vn 0.000250 0.999997 -0.002234
vn 0.000250 0.999998 -0.002234
vn 0.000250 0.999997 -0.002234
vn 0.000250 0.999998 -0.002234
vn 0.084797 0.634493 -0.768263
vn 0.084797 0.634493 -0.768263
vn 0.084797 0.634493 -0.768263
vn 0.084797 0.634493 -0.768263
vn 0.392758 -0.013669 -0.919540
vn 0.392758 -0.013669 -0.919540
vn 0.392758 -0.013669 -0.919540
vn 0.392758 -0.013669 -0.919540
vn 0.083458 0.277968 -0.956958
vn 0.083458 0.277968 -0.956958
vn 0.083458 0.277968 -0.956958
vn 0.083458 0.277968 -0.956958
vn 0.083458 0.277968 -0.956958
vn 0.083460 0.277964 -0.956959
vn 0.083460 0.277964 -0.956959
vn 0.083460 0.277964 -0.956959
vn 0.083460 0.277964 -0.956959
vn 0.251887 0.319084 -0.913640
vn 0.251887 0.319084 -0.913640
vn 0.251887 0.319084 -0.913640
vn 0.251887 0.319084 -0.913640
vn 0.350528 -0.137247 -0.926441
vn 0.350528 -0.137247 -0.926441
vn 0.350528 -0.137247 -0.926441
vn 0.244891 0.661736 -0.708614
vn 0.244891 0.661736 -0.708614
vn 0.244891 0.661736 -0.708614
vn 0.244891 0.661736 -0.708614
vn 0.334603 0.749232 -0.571570
vn 0.334603 0.749232 -0.571570
vn 0.334603 0.749232 -0.571570
vn 0.334603 0.749232 -0.571570
vn 0.144210 0.125735 -0.981527
vn 0.144210 0.125735 -0.981527
vn 0.144210 0.125735 -0.981527
vn 0.144210 0.125735 -0.981527
vn 0.404184 0.523131 -0.750313
vn 0.404184 0.523131 -0.750313
vn 0.404184 0.523131 -0.750313
vn 0.404184 0.523131 -0.750313
vn 0.999996 0.002702 -0.000680
vn 0.999996 0.002702 -0.000680
vn 0.999996 0.002702 -0.000680
vn 0.276895 0.695724 0.662795
vn 0.276895 0.695724 0.662795
vn 0.276895 0.695724 0.662795
vn 0.276895 0.695724 0.662795
vn -0.422020 0.906289 0.023198
vn -0.422020 0.906289 0.023198
vn -0.422021 0.906290 0.023198
vn 0.999998 0.001029 0.001852
vn 0.999998 0.001029 0.001852
vn 0.999998 0.001029 0.001852
vn 0.999999 0.000597 0.001276
vn 0.999999 0.000597 0.001276
vn 0.999999 0.000597 0.001276
vn 1.000000 0.000153 -0.000016
vn 1.000000 0.000153 -0.000016
vn 1.000000 0.000153 -0.000016
vn 1.000000 0.000153 -0.000016
vn 0.342009 0.567057 -0.749317
vn 0.342009 0.567057 -0.749317
vn 0.342009 0.567057 -0.749317
vn 0.342009 0.567057 -0.749317
vn 0.353977 0.569315 -0.742011
vn 0.353977 0.569315 -0.742011
vn 0.353977 0.569315 -0.742011
vn 0.248007 0.838462 -0.485257
vn 0.248007 0.838462 -0.485257
vn 0.248007 0.838462 -0.485257
vn 0.246391 0.388602 -0.887852
vn 0.246391 0.388602 -0.887852
vn 0.246391 0.388602 -0.887852
vn 0.999992 0.002839 0.002939
vn 0.999992 0.002839 0.002939
vn 0.999992 0.002839 0.002939
vn 0.999997 0.001170 0.002208
vn 0.999997 0.001170 0.002208
vn 0.999997 0.001170 0.002208
vn 0.999997 0.001170 0.002208
vn 0.999996 0.001509 0.002328
vn 0.999996 0.001509 0.002328
vn 0.999996 0.001509 0.002328
vn 0.999993 0.002547 0.002834
vn 0.999993 0.002547 0.002834
vn 0.999993 0.002547 0.002834
vn 0.999995 0.001755 0.002625
vn 0.999995 0.001755 0.002625
vn 0.999995 0.001755 0.002625
vn 0.136813 0.668709 -0.730829
vn 0.136813 0.668709 -0.730829
vn 0.136813 0.668709 -0.730829
vn 0.163178 0.712060 -0.682893
vn 0.163178 0.712060 -0.682893
vn 0.163178 0.712060 -0.682893
vn 0.163178 0.712060 -0.682893
vn 0.329550 0.602246 0.727115
vn 0.329550 0.602246 0.727115
vn 0.329550 0.602246 0.727115
vn 0.508338 0.812692 -0.284822
vn 0.508338 0.812692 -0.284822
vn 0.508338 0.812692 -0.284822
vn 0.650105 0.474051 -0.593834
vn 0.650105 0.474051 -0.593834
vn 0.650105 0.474051 -0.593834
vn -0.156928 0.476289 -0.865172
vn -0.156928 0.476289 -0.865172
vn -0.156928 0.476289 -0.865172
vn -0.156928 0.476289 -0.865172
vn 0.190642 0.115581 -0.974832
vn 0.190642 0.115581 -0.974832
vn 0.190642 0.115581 -0.974832
vn 0.289915 0.648857 -0.703515
vn 0.289915 0.648857 -0.703515
vn 0.289915 0.648857 -0.703515
vn -1.000000 0.000000 0.000000
vn -1.000000 0.000000 0.000000
vn -1.000000 0.000000 0.000000
vn 0.053109 0.643329 -0.763746
vn 0.053109 0.643329 -0.763746
vn 0.053109 0.643329 -0.763746
vn -1.000000 -0.000001 0.000000
vn -1.000000 -0.000001 0.000000
vn -1.000000 -0.000001 0.000000
vn -1.000000 0.000000 0.000000
vn -1.000000 0.000000 0.000000
vn -1.000000 0.000000 0.000000
vn -1.000000 0.000000 0.000000
vn -1.000000 0.000000 0.000000
vn -1.000000 0.000000 0.000000
vn -1.000000 0.000000 0.000000
vn -1.000000 0.000000 0.000000
vn -1.000000 0.000000 0.000000
vn -1.000000 0.000000 0.000000
vn -1.000000 0.000000 0.000000
vn -1.000000 0.000000 0.000000
vn -1.000000 0.000000 0.000000
vn -1.000000 0.000000 0.000000
vn -1.000000 0.000000 0.000000
vn -1.000000 0.000000 0.000000
vn 0.309313 0.850172 -0.426067
vn 0.309313 0.850172 -0.426067
vn 0.309313 0.850172 -0.426067
vn -1.000000 0.000000 0.000000
vn -1.000000 0.000000 0.000000
vn -1.000000 0.000000 0.000000
vn -1.000000 0.000000 0.000000
vn -1.000000 0.000000 0.000000
vn -1.000000 0.000000 0.000000
s off
f 5/8/1 8/7/2 7/6/3 6/5/4
f 5/8/5 6/5/6 40/62/7 39/61/8
f 2/1/9 6/5/10 7/6/11 3/2/12
f 3/2/13 7/6/14 8/7/15 4/3/16
f 4/3/17 8/7/18 5/8/19 1/4/20
f 6/5/21 2/1/22 38/59/23 40/62/24
f 11/13/25 15/19/26 14/18/27 13/17/28
f 12/12/29 4/11/30 1/16/31 9/14/32
f 10/9/33 2/15/34 3/10/35
f 10/9/36 3/10/37 11/13/38
f 11/13/39 3/10/40 4/11/41 15/19/42
f 15/19/43 4/11/44 12/12/45
f 5/8/46 39/61/47 37/58/48 1/4/49
f 9/14/50 1/16/51 37/57/52 43/67/53
f 2/15/54 32/50/55 33/51/56 36/55/57 42/65/58 38/60/59
f 20/20/60 23/21/61 22/22/62 21/23/63
f 14/24/64 20/20/65 21/23/66 13/25/67
f 17/26/68 21/23/69 22/22/70 18/27/71
f 18/27/72 22/22/73 23/21/74 19/28/75
f 19/28/76 23/21/77 20/20/78 16/29/79
f 11/30/80 13/25/81 21/23/82 17/26/83
f 16/29/84 20/20/85 14/24/86 15/31/87
f 25/32/88 18/33/89 19/34/90 27/35/91 26/36/92
f 24/37/93 28/38/94 27/35/95
f 30/39/96 31/40/97 25/32/98 26/36/99
f 29/41/100 30/39/101 26/36/102 27/35/103
f 31/40/104 34/53/105 35/54/106 25/32/107
f 24/37/108 12/44/109 9/45/110 28/38/111
f 27/35/112 28/38/113 29/41/114
f 29/41/115 28/38/116 44/68/117 47/71/118
f 35/54/119 11/46/120 17/47/121 25/32/122
f 16/48/123 15/49/124 12/44/125 24/37/126
f 27/35/127 19/34/128 16/48/129 24/37/130
f 25/32/131 17/47/132 18/33/133
f 31/40/134 30/39/135 46/70/136 45/69/137
f 31/40/138 45/69/139 71/99/140
f 10/9/141 32/50/142 2/15/143
f 34/53/144 33/52/145 32/42/146
f 35/54/147 34/53/148 32/42/149 10/43/150
f 10/43/151 11/46/152 35/54/153
f 43/66/154 50/75/155 9/45/156
f 41/63/157 42/65/158 36/55/159
f 47/71/160 46/70/161 30/39/162 29/41/163
f 44/68/164 69/97/165 46/70/166 47/71/167
f 49/73/168 48/72/169 59/86/170 53/79/171
f 41/64/172 43/67/173 37/58/174 38/60/175 42/65/176
f 38/60/177 37/58/178 39/61/179 40/62/180
f 51/76/181 50/74/182 43/67/183 41/64/184
f 53/79/185 52/77/186 58/84/187
f 49/73/188 55/81/189 54/80/190 48/72/191
f 63/91/192 64/92/193 65/93/194 66/94/195
f 62/90/196 68/96/197 69/97/198 44/68/199
f 53/79/200 58/84/201 50/74/202 51/76/203
f 54/80/204 59/87/205 48/72/206
f 61/89/207 57/83/208 65/93/209 64/92/210
f 61/89/211 55/81/212 70/98/213
f 9/45/214 60/88/215 56/82/216
f 9/45/217 56/82/218 62/90/219
f 9/45/220 62/90/221 44/68/222 28/38/223
f 62/90/224 63/91/225 66/94/226 67/95/227
f 62/90/228 67/95/229 68/96/230
f 54/80/231 55/81/232 61/89/233
f 53/79/234 59/86/235 52/77/236
f 9/45/237 58/85/238 52/78/239
f 60/88/240 59/87/241 54/80/242 61/89/243
f 9/45/244 59/87/245 60/88/246
f 9/45/247 52/78/248 59/87/249
f 9/45/250 50/75/251 58/85/252
f 56/82/253 63/91/254 62/90/255
f 60/88/256 64/92/257 63/91/258 56/82/259
f 61/89/260 64/92/261 60/88/262
f 66/94/263 65/93/264 57/83/265
f 67/95/266 66/94/267 57/83/268
f 68/96/269 67/95/270 71/99/271 45/69/272
f 69/97/273 68/96/274 45/69/275
f 46/70/276 69/97/277 45/69/278
f 34/53/279 57/83/280 70/98/281
f 61/89/282 70/98/283 57/83/284
f 34/53/285 70/98/286 55/81/287
f 34/53/288 53/79/289 51/76/290
f 34/53/291 49/73/292 53/79/293
f 34/53/294 55/81/295 49/73/296
f 33/52/297 51/76/298 41/64/299 36/56/300
f 34/53/301 51/76/302 33/52/303
f 71/99/304 67/95/305 57/83/306
f 34/53/307 71/99/308 57/83/309
f 31/40/310 71/99/311 34/53/312
