# This file uses centimeters as units for non-parametric coordinates.

v 24.080179 8.365216 20.803370
v 32.068794 5.195758 1.135988
v 23.720606 5.132160 -19.107008
v -0.019487 8.245455 -29.174124
v -22.061003 4.834773 -19.107008
v -31.460138 8.208551 2.134554
v -22.061003 3.966923 21.378984
v 2.838458 4.356915 29.763247
v 18.028828 39.344578 15.840189
v 23.690771 45.966026 -1.805089
v 15.559946 43.733215 -19.929762
v -2.888373 47.105621 -26.605833
v -21.172104 43.279053 -18.336721
v -28.521410 37.754269 -0.165769
v -19.815771 33.553120 17.750757
v -1.152224 39.524803 24.501856
v 16.420935 0.000000 15.639143
v 22.036726 0.000000 1.157984
v 2.882403 0.000000 1.157984
v 16.420935 0.000000 -13.323175
v 2.918005 0.000000 -19.322025
v -14.734163 0.000000 -13.323175
v -20.350000 0.000000 1.157984
v -14.734163 0.000000 15.639143
v 2.918005 0.000000 21.636688
v 0.386824 57.877548 4.800560
v 2.294101 59.508446 -0.294952
v -0.078375 60.134113 -5.187352
v -5.321241 59.486671 -7.010609
v -10.419840 57.673248 -4.702033
v -12.358532 55.893414 0.390841
v -10.021943 55.092407 5.284114
v -4.726614 55.993752 7.109578
v 1.660972 70.037827 8.035412
v 3.737626 71.094589 0.089550
v -1.289713 68.238449 -4.032310
v -6.468975 69.641716 -8.724380
v -12.347510 67.235725 -5.261932
v -15.258078 66.133293 2.676281
v -11.894123 66.106468 9.225689
v -5.133025 66.606247 7.393009
v -0.241099 71.165993 6.469213
v 1.429673 72.019814 1.081249
v -2.849114 69.757217 -2.304498
v -6.515472 70.987213 -5.669094
v -11.271279 69.133194 -4.653832
v -13.220592 68.345276 2.339985
v -10.641333 68.276855 7.376089
v -5.467169 68.540115 5.734085
v -5.120289 59.023567 0.232967
v -3.375523 46.842255 19.058220
v -18.081173 44.113167 13.999277
v -24.704227 45.578384 0.450726
v -19.043369 53.123985 -10.818712
v -5.424805 54.564407 -20.049988
v 8.867313 55.293564 -15.014162
v 15.490368 53.828533 -1.466824
v 10.614379 51.272953 12.657000
v 0.212128 22.861544 33.582821
v -22.882294 23.843819 22.859661
v -33.663204 21.227741 0.070600
v -23.585350 23.834841 -23.667746
v 0.200593 23.596466 -33.582821
v 23.861050 23.664101 -23.730186
v 33.663204 23.653204 0.039289
v 23.860500 23.623148 23.806177
v -11.246153 53.969780 0.124276
v -9.181071 53.400742 4.393450
v -4.553568 54.227383 5.986888
v -0.121317 55.735497 3.971024
v 1.472847 56.820320 -0.477322
v -0.606374 57.320080 -4.745962
v -5.141870 56.938637 -6.334564
v -9.504196 55.974075 -3.830624
v -5.379900 60.292801 -4.572779
v -2.329530 60.386169 -2.778531
v -0.289858 60.520119 -0.111951
v -1.493045 59.598763 3.460700
v -4.901904 58.204113 4.445627
v -8.391102 57.707504 3.865047
v -9.987564 58.086464 0.595609
v -8.366378 59.084366 -2.247805
vt 0.079247 0.227029
vt 0.079247 0.227029
vt 0.079247 0.227029
vt 0.079247 0.227029
vt 0.079247 0.227029
vt 0.079247 0.227029
vt 0.079247 0.227029
vt 0.079247 0.227029
vt 0.079247 0.227029
vt 0.079247 0.227029
vt 0.079247 0.227029
vt 0.079247 0.227029
vt 0.079247 0.227029
vt 0.079247 0.227029
vt 0.079247 0.227029
vt 0.079247 0.227029
vt 0.079247 0.227029
vt 0.079247 0.253987
vt 0.079247 0.253987
vt 0.079247 0.253987
vt 0.079247 0.253987
vt 0.079247 0.253987
vt 0.079247 0.253987
vt 0.079247 0.253987
vt 0.079247 0.253987
vt 0.079247 0.253987
vt 0.079247 0.253987
vt 0.079247 0.253987
vt 0.079247 0.253987
vt 0.079247 0.253987
vt 0.079247 0.253987
vt 0.079247 0.253987
vt 0.079247 0.253987
vt 0.079247 0.253987
vt 0.079247 0.227029
vt 0.079247 0.253987
vt 0.079247 0.227029
vt 0.079247 0.227029
vt 0.079247 0.227029
vt 0.079247 0.227029
vt 0.079247 0.227029
vt 0.079247 0.227029
vt 0.079247 0.227029
vt 0.079247 0.227029
vt 0.079247 0.253987
vt 0.079247 0.253987
vt 0.079247 0.253987
vt 0.079247 0.253987
vt 0.079247 0.253987
vt 0.079247 0.253987
vt 0.079247 0.253987
vt 0.079247 0.253987
vt 0.079247 0.253987
vt 0.079247 0.253987
vt 0.079247 0.253987
vt 0.079247 0.253987
vt 0.079247 0.253987
vt 0.079247 0.253987
vt 0.079247 0.253987
vt 0.079247 0.253987
vt 0.079247 0.253987
vt 0.079247 0.253987
vt 0.079247 0.253987
vt 0.079247 0.253987
vt 0.079247 0.253987
vt 0.079247 0.253987
vt 0.079247 0.253987
vt 0.079247 0.253987
vt 0.079247 0.253987
vt 0.079247 0.253987
vt 0.079247 0.253987
vt 0.079247 0.253987
vt 0.079247 0.253987
vt 0.079247 0.253987
vt 0.079247 0.253987
vt 0.079247 0.253987
vt 0.079247 0.227408
vt 0.079247 0.253987
vt 0.079247 0.253987
vt 0.079247 0.228547
vt 0.079247 0.235762
vt 0.079247 0.253987
vt 0.079247 0.253987
vt 0.079247 0.227408
vt 0.079247 0.227408
vt 0.079247 0.253987
vt 0.079247 0.253987
vt 0.079247 0.253987
vt 0.079247 0.253987
vt 0.079247 0.253987
vt 0.079247 0.253987
vt 0.079247 0.253987
vt 0.079247 0.253987
vt 0.079247 0.253987
vt 0.079247 0.253987
vt 0.079247 0.253987
vt 0.079247 0.253987
vt 0.079247 0.253987
vt 0.079247 0.253987
vt 0.079247 0.253987
vt 0.079247 0.253987
vn 0.925587 0.044329 0.375930
vn 0.925587 0.044329 0.375930
vn 0.925587 0.044329 0.375930
vn 0.925587 0.044329 0.375930
vn 0.923838 0.036636 -0.381026
vn 0.923838 0.036636 -0.381026
vn 0.923838 0.036636 -0.381026
vn 0.923838 0.036636 -0.381026
vn 0.338960 -0.192693 -0.920856
vn 0.338960 -0.192693 -0.920856
vn 0.338960 -0.192693 -0.920856
vn 0.338960 -0.192693 -0.920856
vn -0.388221 -0.134482 -0.911701
vn -0.388221 -0.134482 -0.911701
vn -0.388221 -0.134482 -0.911701
vn -0.388221 -0.134482 -0.911701
vn -0.917680 -0.009504 -0.397207
vn -0.917680 -0.009504 -0.397207
vn -0.917680 -0.009504 -0.397207
vn -0.917680 -0.009504 -0.397207
vn -0.900093 0.041363 0.433729
vn -0.900093 0.041363 0.433729
vn -0.900093 0.041363 0.433729
vn -0.900093 0.041363 0.433729
vn -0.366769 -0.161115 0.916255
vn -0.366769 -0.161115 0.916255
vn -0.366769 -0.161115 0.916255
vn -0.366769 -0.161115 0.916254
vn 0.361408 -0.215363 0.907195
vn 0.361408 -0.215363 0.907195
vn 0.361408 -0.215363 0.907195
vn 0.361408 -0.215363 0.907195
vn -0.000000 -1.000000 -0.000000
vn -0.000000 -1.000000 -0.000000
vn -0.000000 -1.000000 -0.000000
vn -0.000000 -1.000000 0.000000
vn -0.000000 -1.000000 0.000000
vn -0.000000 -1.000000 0.000000
vn -0.000000 -1.000000 -0.000000
vn -0.000000 -1.000000 -0.000000
vn -0.000000 -1.000000 -0.000000
vn 0.000000 -1.000000 -0.000000
vn 0.000000 -1.000000 -0.000000
vn 0.000000 -1.000000 -0.000000
vn -0.000000 -1.000000 0.000000
vn -0.000000 -1.000000 0.000000
vn -0.000000 -1.000000 0.000000
vn -0.000000 -1.000000 0.000000
vn -0.000000 -1.000000 0.000000
vn -0.000000 -1.000000 0.000000
vn 0.000000 -1.000000 0.000000
vn 0.000000 -1.000000 0.000000
vn 0.000000 -1.000000 0.000000
vn -0.000000 -1.000000 0.000000
vn -0.000000 -1.000000 0.000000
vn -0.000000 -1.000000 0.000000
vn 0.529538 -0.798936 0.285115
vn 0.529538 -0.798936 0.285115
vn 0.529538 -0.798936 0.285115
vn 0.529538 -0.798936 0.285115
vn 0.457510 -0.870298 -0.182389
vn 0.457510 -0.870298 -0.182389
vn 0.457510 -0.870298 -0.182389
vn 0.457510 -0.870298 -0.182389
vn 0.158713 -0.771653 -0.615924
vn 0.158713 -0.771653 -0.615924
vn 0.158713 -0.771653 -0.615924
vn 0.158713 -0.771653 -0.615924
vn -0.160990 -0.806455 -0.568957
vn -0.160990 -0.806456 -0.568957
vn -0.160990 -0.806456 -0.568957
vn -0.160990 -0.806456 -0.568957
vn -0.544404 -0.825139 -0.150895
vn -0.544404 -0.825139 -0.150895
vn -0.544404 -0.825139 -0.150895
vn -0.544404 -0.825139 -0.150895
vn -0.515365 -0.848130 0.122777
vn -0.515365 -0.848130 0.122777
vn -0.515365 -0.848130 0.122777
vn -0.515365 -0.848130 0.122777
vn -0.144496 -0.880544 0.451401
vn -0.144497 -0.880544 0.451401
vn -0.144496 -0.880544 0.451401
vn -0.144497 -0.880544 0.451401
vn 0.264178 -0.767536 0.584036
vn 0.264178 -0.767536 0.584036
vn 0.264178 -0.767536 0.584036
vn 0.264178 -0.767536 0.584036
vn 0.761170 0.510541 0.399961
vn 0.761170 0.510541 0.399961
vn 0.761170 0.510541 0.399961
vn 0.761170 0.510541 0.399961
vn 0.757418 0.540746 -0.365939
vn 0.757418 0.540746 -0.365939
vn 0.757418 0.540746 -0.365939
vn 0.757418 0.540746 -0.365939
vn 0.318243 0.563282 -0.762518
vn 0.318243 0.563282 -0.762518
vn 0.318244 0.563282 -0.762518
vn 0.318244 0.563282 -0.762518
vn -0.454057 0.618110 -0.641694
vn -0.454057 0.618110 -0.641694
vn -0.454057 0.618110 -0.641694
vn -0.454057 0.618110 -0.641694
vn -0.840194 0.524293 -0.138529
vn -0.840194 0.524293 -0.138529
vn -0.840194 0.524293 -0.138529
vn -0.840194 0.524293 -0.138529
vn -0.765139 0.455742 0.454821
vn -0.765139 0.455742 0.454821
vn -0.765139 0.455741 0.454821
vn -0.765139 0.455742 0.454821
vn -0.400688 0.465807 0.788969
vn -0.400688 0.465807 0.788969
vn -0.400688 0.465807 0.788969
vn -0.400688 0.465807 0.788969
vn 0.318041 0.458594 0.829784
vn 0.318041 0.458594 0.829784
vn 0.318041 0.458594 0.829784
vn 0.318041 0.458594 0.829784
vn 0.405561 0.827130 0.389070
vn 0.405561 0.827130 0.389070
vn 0.405561 0.827130 0.389070
vn 0.405561 0.827130 0.389070
vn 0.219639 0.973421 -0.064879
vn 0.219639 0.973421 -0.064879
vn 0.219639 0.973421 -0.064879
vn 0.219639 0.973421 -0.064879
vn 0.004782 0.977447 -0.211129
vn 0.004782 0.977446 -0.211129
vn 0.004782 0.977446 -0.211129
vn 0.004782 0.977446 -0.211129
vn -0.446417 0.869352 -0.211988
vn -0.446417 0.869352 -0.211988
vn -0.446417 0.869352 -0.211988
vn -0.446417 0.869352 -0.211988
vn -0.628134 0.778048 -0.009433
vn -0.628134 0.778048 -0.009433
vn -0.628134 0.778048 -0.009433
vn -0.628134 0.778048 -0.009433
vn -0.649442 0.643033 0.405875
vn -0.649442 0.643033 0.405875
vn -0.649442 0.643033 0.405875
vn -0.649442 0.643033 0.405875
vn -0.293639 0.667532 0.684234
vn -0.293639 0.667532 0.684234
vn -0.293639 0.667532 0.684234
vn -0.293639 0.667532 0.684234
vn -0.003066 0.712724 0.701438
vn -0.003066 0.712724 0.701438
vn -0.003066 0.712724 0.701438
vn -0.003066 0.712724 0.701438
vn 0.399128 0.885195 0.239012
vn 0.399128 0.885195 0.239012
vn 0.399128 0.885195 0.239012
vn 0.399128 0.885195 0.239012
vn 0.064031 0.785810 -0.615144
vn 0.064031 0.785810 -0.615144
vn 0.064031 0.785810 -0.615144
vn 0.064031 0.785810 -0.615144
vn 0.516476 0.799911 -0.305607
vn 0.516476 0.799911 -0.305607
vn 0.516476 0.799911 -0.305607
vn 0.516476 0.799911 -0.305607
vn -0.494493 0.715115 -0.494052
vn -0.494493 0.715115 -0.494052
vn -0.494493 0.715115 -0.494052
vn -0.494493 0.715115 -0.494052
vn -0.778743 0.601775 -0.177272
vn -0.778743 0.601775 -0.177272
vn -0.778743 0.601775 -0.177272
vn -0.778743 0.601775 -0.177272
vn -0.660314 0.667457 0.344220
vn -0.660314 0.667457 0.344220
vn -0.660314 0.667457 0.344220
vn -0.660314 0.667457 0.344220
vn 0.184034 0.614563 0.767101
vn 0.184034 0.614563 0.767101
vn 0.184034 0.614563 0.767101
vn 0.184034 0.614563 0.767101
vn -0.359209 0.539639 0.761419
vn -0.359209 0.539639 0.761419
vn -0.359209 0.539639 0.761419
vn -0.359209 0.539639 0.761419
vn -0.870012 0.451416 -0.198250
vn -0.870012 0.451416 -0.198250
vn -0.870012 0.451416 -0.198250
vn -0.684599 0.301720 0.663543
vn -0.684599 0.301720 0.663543
vn -0.684599 0.301720 0.663543
vn -0.587664 0.301815 0.750705
vn -0.587664 0.301815 0.750705
vn -0.587664 0.301815 0.750705
vn 0.018128 0.444051 0.895818
vn 0.018128 0.444051 0.895818
vn 0.018128 0.444051 0.895818
vn 0.755365 0.593685 0.277420
vn 0.755365 0.593685 0.277420
vn 0.755365 0.593685 0.277420
vn 0.672279 0.659990 -0.335342
vn 0.672279 0.659990 -0.335342
vn 0.672279 0.659990 -0.335342
vn -0.288478 0.471280 -0.833472
vn -0.288478 0.471280 -0.833472
vn -0.288478 0.471280 -0.833472
vn -0.126613 0.492968 -0.860785
vn -0.126613 0.492968 -0.860785
vn -0.126613 0.492968 -0.860785
vn -0.190417 -0.535051 0.823081
vn -0.190417 -0.535051 0.823081
vn -0.190417 -0.535051 0.823081
vn -0.190417 -0.535051 0.823081
vn -0.794517 -0.526245 0.303001
vn -0.794517 -0.526245 0.303001
vn -0.794517 -0.526245 0.303001
vn -0.794517 -0.526245 0.303001
vn -0.719782 -0.485732 -0.495962
vn -0.719782 -0.485732 -0.495962
vn -0.719782 -0.485732 -0.495962
vn -0.719782 -0.485732 -0.495962
vn -0.321198 -0.396203 -0.860148
vn -0.321198 -0.396203 -0.860148
vn -0.321198 -0.396203 -0.860148
vn -0.321198 -0.396203 -0.860148
vn 0.341784 -0.212973 -0.915328
vn 0.341784 -0.212973 -0.915328
vn 0.341784 -0.212973 -0.915328
vn 0.341784 -0.212973 -0.915328
vn 0.863178 -0.232763 -0.448046
vn 0.863178 -0.232763 -0.448046
vn 0.863178 -0.232763 -0.448046
vn 0.863178 -0.232763 -0.448046
vn 0.918796 -0.305297 0.250215
vn 0.918796 -0.305297 0.250215
vn 0.918796 -0.305297 0.250215
vn 0.918796 -0.305297 0.250215
vn 0.494283 -0.421993 0.760004
vn 0.494283 -0.421993 0.760004
vn 0.494283 -0.421993 0.760004
vn 0.494283 -0.421993 0.760004
vn -0.377384 0.550555 0.744628
vn -0.377384 0.550555 0.744628
vn -0.377384 0.550555 0.744628
vn -0.377384 0.550555 0.744628
vn -0.766195 0.513176 0.386775
vn -0.766195 0.513176 0.386775
vn -0.766195 0.513176 0.386775
vn -0.766195 0.513176 0.386775
vn -0.883618 0.361756 -0.297242
vn -0.883618 0.361756 -0.297242
vn -0.883618 0.361756 -0.297242
vn -0.883618 0.361756 -0.297242
vn -0.401311 0.270677 -0.875033
vn -0.401311 0.270677 -0.875033
vn -0.401311 0.270677 -0.875033
vn -0.401311 0.270677 -0.875033
vn 0.370996 0.238767 -0.897414
vn 0.370996 0.238767 -0.897414
vn 0.370996 0.238767 -0.897414
vn 0.370996 0.238767 -0.897414
vn 0.882226 0.261528 -0.391511
vn 0.882226 0.261528 -0.391511
vn 0.882226 0.261528 -0.391511
vn 0.882226 0.261528 -0.391511
vn 0.863678 0.335265 0.376375
vn 0.863678 0.335265 0.376375
vn 0.863678 0.335265 0.376375
vn 0.863678 0.335265 0.376375
vn 0.342359 0.475698 0.810248
vn 0.342359 0.475698 0.810248
vn 0.342359 0.475698 0.810248
vn 0.342359 0.475698 0.810248
vn -0.490347 0.806168 0.331139
vn -0.490347 0.806168 0.331139
vn -0.490347 0.806168 0.331139
vn -0.490347 0.806168 0.331139
vn -0.317687 0.812335 0.489067
vn -0.317687 0.812335 0.489067
vn -0.317687 0.812335 0.489067
vn -0.317687 0.812335 0.489067
vn -0.050913 0.865122 0.498970
vn -0.050913 0.865122 0.498970
vn -0.050913 0.865122 0.498970
vn -0.050913 0.865122 0.498970
vn 0.204722 0.944620 0.256479
vn 0.204722 0.944620 0.256479
vn 0.204722 0.944620 0.256479
vn 0.204722 0.944620 0.256479
vn 0.211063 0.977461 0.004703
vn 0.211063 0.977461 0.004703
vn 0.211063 0.977461 0.004703
vn 0.211063 0.977461 0.004703
vn 0.004831 0.983895 -0.178683
vn 0.004831 0.983895 -0.178683
vn 0.004831 0.983895 -0.178683
vn 0.004831 0.983895 -0.178683
vn -0.220022 0.965505 -0.139253
vn -0.220022 0.965505 -0.139253
vn -0.220022 0.965505 -0.139253
vn -0.220022 0.965505 -0.139253
vn -0.486074 0.827024 0.282422
vn -0.486074 0.827025 0.282422
vn -0.486074 0.827025 0.282422
vn -0.486074 0.827025 0.282422
vn 0.576171 -0.243526 -0.780207
vn 0.576171 -0.243526 -0.780206
vn 0.576171 -0.243526 -0.780207
vn 0.576171 -0.243526 -0.780206
vn 0.723263 -0.235958 -0.649011
vn 0.723263 -0.235958 -0.649011
vn 0.723263 -0.235958 -0.649011
vn 0.723263 -0.235958 -0.649011
vn 0.912728 -0.357065 0.198575
vn 0.912728 -0.357065 0.198575
vn 0.912728 -0.357065 0.198575
vn 0.912728 -0.357065 0.198575
vn 0.214856 -0.390687 0.895098
vn 0.214856 -0.390687 0.895098
vn 0.214856 -0.390687 0.895098
vn 0.214856 -0.390687 0.895098
vn 0.149809 -0.411304 0.899103
vn 0.149809 -0.411304 0.899103
vn 0.149809 -0.411304 0.899103
vn 0.149809 -0.411304 0.899103
vn -0.748573 -0.559993 0.355031
vn -0.748573 -0.559993 0.355031
vn -0.748573 -0.559993 0.355031
vn -0.748573 -0.559993 0.355031
vn -0.778121 -0.468534 -0.418335
vn -0.778121 -0.468534 -0.418335
vn -0.778121 -0.468534 -0.418335
vn -0.778121 -0.468534 -0.418335
vn -0.357756 -0.440745 -0.823259
vn -0.357756 -0.440745 -0.823259
vn -0.357756 -0.440744 -0.823259
vn -0.357756 -0.440745 -0.823259
s off
f 1/9/1 2/10/2 65/83/3 66/85/4
f 2/10/5 3/11/6 64/82/7 65/83/8
f 3/11/9 4/12/10 63/81/11 64/82/12
f 4/12/13 5/13/14 62/80/15 63/81/16
f 5/13/17 6/14/18 61/79/19 62/80/20
f 6/14/21 7/15/22 60/78/23 61/79/24
f 7/15/25 8/16/26 59/77/27 60/78/28
f 8/16/29 1/17/30 66/84/31 59/77/32
f 18/37/33 17/38/34 19/35/35
f 20/39/36 18/37/37 19/35/38
f 21/40/39 20/39/40 19/35/41
f 22/41/42 21/40/43 19/35/44
f 23/42/45 22/41/46 19/35/47
f 24/43/48 23/42/49 19/35/50
f 25/44/51 24/43/52 19/35/53
f 17/38/54 25/44/55 19/35/56
f 2/2/57 1/1/58 17/38/59 18/37/60
f 3/3/61 2/2/62 18/37/63 20/39/64
f 4/4/65 3/3/66 20/39/67 21/40/68
f 5/5/69 4/4/70 21/40/71 22/41/72
f 6/6/73 5/5/74 22/41/75 23/42/76
f 7/7/77 6/6/78 23/42/79 24/43/80
f 8/8/81 7/7/82 24/43/83 25/44/84
f 1/1/85 8/8/86 25/44/87 17/38/88
f 9/33/89 10/32/90 57/75/91 58/76/92
f 10/32/93 11/31/94 56/74/95 57/75/96
f 11/31/97 12/30/98 55/73/99 56/74/100
f 12/30/101 13/29/102 54/72/103 55/73/104
f 13/29/105 14/28/106 53/71/107 54/72/108
f 14/28/109 15/27/110 52/70/111 53/71/112
f 15/27/113 16/34/114 51/69/115 52/70/116
f 16/34/117 9/33/118 58/76/119 51/69/120
f 26/45/121 27/46/122 77/96/123 78/97/124
f 27/46/125 28/47/126 76/95/127 77/96/128
f 28/47/129 29/48/130 75/94/131 76/95/132
f 29/48/133 30/49/134 82/101/135 75/94/136
f 30/49/137 31/50/138 81/100/139 82/101/140
f 31/50/141 32/51/142 80/99/143 81/100/144
f 32/51/145 33/52/146 79/98/147 80/99/148
f 33/52/149 26/45/150 78/97/151 79/98/152
f 34/53/153 35/54/154 43/62/155 42/61/156
f 35/54/157 36/55/158 44/63/159 43/62/160
f 36/55/161 37/56/162 45/64/163 44/63/164
f 37/56/165 38/57/166 46/65/167 45/64/168
f 38/57/169 39/58/170 47/66/171 46/65/172
f 39/58/173 40/59/174 48/67/175 47/66/176
f 40/59/177 41/60/178 49/68/179 48/67/180
f 41/60/181 34/53/182 42/61/183 49/68/184
f 42/61/185 43/62/186 50/36/187
f 43/62/188 44/63/189 50/36/190
f 44/63/191 45/64/192 50/36/193
f 45/64/194 46/65/195 50/36/196
f 46/65/197 47/66/198 50/36/199
f 47/66/200 48/67/201 50/36/202
f 48/67/203 49/68/204 50/36/205
f 49/68/206 42/61/207 50/36/208
f 68/87/209 69/88/210 33/52/211 32/51/212
f 67/86/213 68/87/214 32/51/215 31/50/216
f 74/93/217 67/86/218 31/50/219 30/49/220
f 73/92/221 74/93/222 30/49/223 29/48/224
f 72/91/225 73/92/226 29/48/227 28/47/228
f 71/90/229 72/91/230 28/47/231 27/46/232
f 70/89/233 71/90/234 27/46/235 26/45/236
f 69/88/237 70/89/238 26/45/239 33/52/240
f 60/78/241 59/77/242 16/25/243 15/24/244
f 61/79/245 60/78/246 15/24/247 14/23/248
f 62/80/249 61/79/250 14/23/251 13/22/252
f 63/81/253 62/80/254 13/22/255 12/21/256
f 64/82/257 63/81/258 12/21/259 11/20/260
f 65/83/261 64/82/262 11/20/263 10/19/264
f 66/85/265 65/83/266 10/19/267 9/18/268
f 59/77/269 66/84/270 9/26/271 16/25/272
f 53/71/273 52/70/274 68/87/275 67/86/276
f 52/70/277 51/69/278 69/88/279 68/87/280
f 51/69/281 58/76/282 70/89/283 69/88/284
f 58/76/285 57/75/286 71/90/287 70/89/288
f 57/75/289 56/74/290 72/91/291 71/90/292
f 56/74/293 55/73/294 73/92/295 72/91/296
f 55/73/297 54/72/298 74/93/299 73/92/300
f 54/72/301 53/71/302 67/86/303 74/93/304
f 76/95/305 75/94/306 37/56/307 36/55/308
f 77/96/309 76/95/310 36/55/311 35/54/312
f 78/97/313 77/96/314 35/54/315 34/53/316
f 79/98/317 78/97/318 34/53/319 41/60/320
f 80/99/321 79/98/322 41/60/323 40/59/324
f 81/100/325 80/99/326 40/59/327 39/58/328
f 82/101/329 81/100/330 39/58/331 38/57/332
f 75/94/333 82/101/334 38/57/335 37/56/336
