# This file uses centimeters as units for non-parametric coordinates.

v 26.725037 2.782310 40.773682
v 57.142883 2.782310 27.478790
v 50.524261 2.782310 44.102966
v 26.725037 -2.782310 40.773682
v 57.142883 -2.782310 27.478790
v 50.524261 -2.782310 44.102966
v 55.359497 2.782310 -27.427216
v 64.622894 2.782310 -10.524139
v 48.157349 2.782310 -6.387787
v 55.359497 -2.782310 -27.427216
v 64.622894 -2.782310 -10.524139
v 48.157349 -2.782310 -6.387787
v 93.500977 2.782310 26.384003
v 77.367340 2.782310 36.930634
v 71.966278 2.782310 20.835541
v 93.500977 -2.782310 26.384003
v 77.367340 -2.782310 36.930634
v 71.966278 -2.782310 20.835541
v -26.797394 2.782310 -26.042343
v -10.665436 2.782310 3.393921
v -39.339752 2.782310 10.597290
v -26.797394 -2.782310 -26.042343
v -10.665436 -2.782310 3.393921
v -39.339752 -2.782310 10.597290
v -16.091339 2.782310 47.697113
v -38.456696 2.782310 63.485626
v 7.706024 2.782310 56.120758
v -23.253967 2.782310 88.084290
v -16.091339 -2.782310 47.697113
v 7.706024 -2.782310 56.120758
v -23.253967 -2.782310 88.084290
v -38.456696 -2.782310 63.485626
v 12.941315 2.782310 -65.136444
v 18.322144 2.782310 -83.645142
v 63.018707 2.782310 -60.593552
v 12.941315 -2.782310 -65.136444
v 18.322144 -2.782310 -83.645142
v 63.018707 -2.782310 -60.593552
v -70.273499 2.782310 41.170410
v -61.350128 2.782310 73.144958
v -76.888947 2.782310 64.272827
v -70.273499 -2.782310 41.170410
v -61.350128 -2.782310 73.144958
v -76.888947 -2.782310 64.272827
v -57.890533 2.782310 31.618286
v -67.538544 2.782310 22.865845
v -49.645294 2.782310 22.865845
v -57.890533 -2.782310 31.618286
v -67.538544 -2.782310 22.865845
v -49.645294 -2.782310 22.865845
v -38.562653 2.782310 -24.399826
v -48.423920 2.782310 -40.961227
v -32.116638 2.782310 -45.683090
v -38.562653 -2.782310 -24.399826
v -48.423920 -2.782310 -40.961227
v -32.116638 -2.782310 -45.683090
v -27.027557 2.782310 -88.084290
v -17.764160 2.782310 -71.181213
v -34.229706 2.782310 -67.044861
v -27.027557 -2.782310 -88.084290
v -17.764160 -2.782310 -71.181213
v -34.229706 -2.782310 -67.044861
v -3.882721 2.782310 14.128113
v 1.476532 2.782310 23.907227
v -8.049438 2.782310 26.300262
v -3.882721 -2.782310 14.128113
v 1.476532 -2.782310 23.907227
v -8.049438 -2.782310 26.300262
v 4.872650 2.782310 5.462585
v 31.773956 2.782310 10.542725
v -12.725372 2.782310 -33.956604
v 31.773956 2.782310 -33.956604
v 4.872650 -2.782310 5.462585
v -12.725372 -2.782310 -33.956604
v 31.773956 -2.782310 -33.956604
v 31.773956 -2.782310 10.542725
v -93.500946 2.782310 -36.467270
v -84.479309 2.782310 -10.619690
v -81.694122 2.782310 -48.921783
v -59.488434 2.782310 -10.358887
v -93.500946 -2.782310 -36.467270
v -81.694122 -2.782310 -48.921783
v -59.488434 -2.782310 -10.358887
v -84.479309 -2.782310 -10.619690
vt 0.210207 0.170807
vt 0.212367 0.152747
vt 0.201585 0.147724
vt 0.210207 0.170807
vt 0.201585 0.147724
vt 0.212367 0.152747
vt 0.210207 0.170807
vt 0.201585 0.147724
vt 0.212367 0.152747
vt 0.206307 0.151282
vt 0.201636 0.167248
vt 0.212315 0.164109
vt 0.206307 0.151282
vt 0.212315 0.164109
vt 0.201636 0.167248
vt 0.206307 0.151282
vt 0.212315 0.164109
vt 0.201636 0.167248
vt 0.205355 0.151094
vt 0.201756 0.167436
vt 0.212195 0.163338
vt 0.205355 0.151094
vt 0.212195 0.163338
vt 0.201756 0.167436
vt 0.205355 0.151094
vt 0.212195 0.163338
vt 0.201756 0.167436
vt 0.205812 0.145363
vt 0.197677 0.173167
vt 0.216275 0.167701
vt 0.205812 0.145363
vt 0.216275 0.167701
vt 0.197677 0.173167
vt 0.205812 0.145363
vt 0.216275 0.167701
vt 0.197677 0.173167
vt 0.193878 0.159809
vt 0.204118 0.176781
vt 0.220073 0.165244
vt 0.199342 0.141750
vt 0.193878 0.159809
vt 0.199342 0.141750
vt 0.220073 0.165244
vt 0.204118 0.176781
vt 0.193878 0.159809
vt 0.199342 0.141750
vt 0.220073 0.165244
vt 0.204118 0.176781
vt 0.211505 0.178266
vt 0.214451 0.140265
vt 0.199500 0.174183
vt 0.211505 0.178266
vt 0.199500 0.174183
vt 0.214451 0.140265
vt 0.211505 0.178266
vt 0.199500 0.174183
vt 0.214451 0.140265
vt 0.206227 0.147133
vt 0.201936 0.164665
vt 0.212015 0.171397
vt 0.206227 0.147133
vt 0.212015 0.171397
vt 0.201936 0.164665
vt 0.206227 0.147133
vt 0.212015 0.171397
vt 0.201936 0.164665
vt 0.209814 0.158733
vt 0.204137 0.152476
vt 0.204137 0.166055
vt 0.209814 0.158733
vt 0.204137 0.166055
vt 0.204137 0.152476
vt 0.209814 0.158733
vt 0.204137 0.166055
vt 0.204137 0.152476
vt 0.208083 0.167341
vt 0.212264 0.151190
vt 0.201687 0.154773
vt 0.208083 0.167341
vt 0.201687 0.154773
vt 0.212264 0.151190
vt 0.208083 0.167341
vt 0.201687 0.154773
vt 0.212264 0.151190
vt 0.206307 0.151282
vt 0.201636 0.167248
vt 0.212315 0.164109
vt 0.206307 0.151282
vt 0.212315 0.164109
vt 0.201636 0.167248
vt 0.206307 0.151282
vt 0.212315 0.164109
vt 0.201636 0.167248
vt 0.206589 0.154647
vt 0.203886 0.163884
vt 0.210065 0.162068
vt 0.206589 0.154647
vt 0.210065 0.162068
vt 0.203886 0.163884
vt 0.206589 0.154647
vt 0.210065 0.162068
vt 0.203886 0.163884
vt 0.218111 0.162795
vt 0.221406 0.142381
vt 0.192545 0.142381
vt 0.192545 0.176149
vt 0.218111 0.162795
vt 0.192545 0.176149
vt 0.192545 0.142381
vt 0.221406 0.142381
vt 0.218111 0.162795
vt 0.192545 0.176149
vt 0.192545 0.142381
vt 0.221406 0.142381
vt 0.195946 0.154085
vt 0.201797 0.173699
vt 0.218006 0.173897
vt 0.203603 0.144633
vt 0.195946 0.154085
vt 0.203603 0.144633
vt 0.218006 0.173897
vt 0.201797 0.173699
vt 0.195946 0.154085
vt 0.203603 0.144633
vt 0.218006 0.173897
vt 0.201797 0.173699
vn 0.000000 -1.000000 0.000000
vn 0.000000 -1.000000 0.000000
vn 0.000000 -1.000000 0.000000
vn 0.000000 1.000000 0.000000
vn 0.000000 1.000000 0.000000
vn 0.000000 1.000000 0.000000
vn -0.400492 0.000000 -0.916300
vn -0.400492 0.000000 -0.916300
vn -0.400492 0.000000 -0.916300
vn -0.400492 0.000000 -0.916300
vn 0.929074 0.000000 0.369894
vn 0.929074 0.000000 0.369894
vn 0.929074 0.000000 0.369894
vn 0.929074 0.000000 0.369894
vn -0.138541 0.000000 0.990357
vn -0.138541 0.000000 0.990357
vn -0.138541 0.000000 0.990357
vn -0.138541 0.000000 0.990357
vn 0.000000 -1.000000 0.000000
vn 0.000000 -1.000000 0.000000
vn 0.000000 -1.000000 0.000000
vn 0.000000 1.000000 0.000000
vn 0.000000 1.000000 0.000000
vn 0.000000 1.000000 0.000000
vn 0.876944 0.000000 -0.480592
vn 0.876944 0.000000 -0.480592
vn 0.876944 0.000000 -0.480592
vn 0.876944 0.000000 -0.480592
vn 0.243642 0.000000 0.969865
vn 0.243642 0.000000 0.969865
vn 0.243642 0.000000 0.969865
vn 0.243642 0.000000 0.969865
vn -0.946103 0.000000 -0.323867
vn -0.946103 0.000000 -0.323867
vn -0.946103 0.000000 -0.323867
vn -0.946103 0.000000 -0.323867
vn 0.000000 -1.000000 0.000000
vn 0.000000 -1.000000 0.000000
vn 0.000000 -1.000000 0.000000
vn 0.000000 1.000000 0.000000
vn 0.000000 1.000000 0.000000
vn 0.000000 1.000000 0.000000
vn 0.547166 0.000000 0.837024
vn 0.547166 0.000000 0.837024
vn 0.547166 0.000000 0.837024
vn 0.547166 0.000000 0.837024
vn -0.948045 0.000000 0.318137
vn -0.948045 0.000000 0.318137
vn -0.948045 0.000000 0.318137
vn -0.948045 0.000000 0.318137
vn 0.249504 0.000000 -0.968374
vn 0.249504 0.000000 -0.968374
vn 0.249504 0.000000 -0.968374
vn 0.249504 0.000000 -0.968374
vn 0.000000 -1.000000 0.000000
vn 0.000000 -1.000000 0.000000
vn 0.000000 -1.000000 0.000000
vn 0.000000 1.000000 0.000000
vn 0.000000 1.000000 0.000000
vn 0.000000 1.000000 0.000000
vn 0.876944 0.000000 -0.480592
vn 0.876944 0.000000 -0.480592
vn 0.876944 0.000000 -0.480592
vn 0.876944 0.000000 -0.480592
vn 0.243643 0.000000 0.969865
vn 0.243643 0.000000 0.969865
vn 0.243643 0.000000 0.969865
vn 0.243643 0.000000 0.969865
vn -0.946103 0.000000 -0.323867
vn -0.946103 0.000000 -0.323867
vn -0.946103 0.000000 -0.323867
vn -0.946103 0.000000 -0.323867
vn 0.000000 -1.000000 -0.000000
vn 0.000000 -1.000000 -0.000000
vn 0.000000 -1.000000 -0.000000
vn 0.000000 -1.000000 -0.000000
vn 0.000000 1.000000 0.000000
vn 0.000000 1.000000 0.000000
vn 0.000000 1.000000 0.000000
vn 0.000000 1.000000 0.000000
vn 0.333685 0.000000 -0.942684
vn 0.333685 0.000000 -0.942684
vn 0.333685 0.000000 -0.942684
vn 0.333685 0.000000 -0.942684
vn 0.718293 0.000000 0.695741
vn 0.718293 0.000000 0.695741
vn 0.718293 0.000000 0.695741
vn 0.718293 0.000000 0.695741
vn -0.850652 0.000000 0.525729
vn -0.850652 0.000000 0.525729
vn -0.850652 0.000000 0.525729
vn -0.850652 0.000000 0.525729
vn -0.576712 0.000000 -0.816947
vn -0.576712 0.000000 -0.816947
vn -0.576712 0.000000 -0.816947
vn -0.576712 0.000000 -0.816947
vn 0.000000 -1.000000 0.000000
vn 0.000000 -1.000000 0.000000
vn 0.000000 -1.000000 0.000000
vn 0.000000 1.000000 0.000000
vn 0.000000 1.000000 0.000000
vn 0.000000 1.000000 0.000000
vn -0.960244 0.000000 -0.279161
vn -0.960244 0.000000 -0.279161
vn -0.960244 0.000000 -0.279161
vn -0.960244 0.000000 -0.279161
vn 0.458367 0.000000 -0.888763
vn 0.458367 0.000000 -0.888763
vn 0.458367 0.000000 -0.888763
vn 0.458367 0.000000 -0.888763
vn -0.090346 0.000000 0.995910
vn -0.090346 0.000000 0.995910
vn -0.090346 0.000000 0.995910
vn -0.090346 0.000000 0.995910
vn 0.000000 -1.000000 0.000000
vn 0.000000 -1.000000 0.000000
vn 0.000000 -1.000000 0.000000
vn 0.000000 1.000000 0.000000
vn 0.000000 1.000000 0.000000
vn 0.000000 1.000000 0.000000
vn 0.963194 0.000000 -0.268806
vn 0.963194 0.000000 -0.268806
vn 0.963194 0.000000 -0.268806
vn 0.963194 0.000000 -0.268806
vn -0.495836 0.000000 0.868416
vn -0.495836 0.000000 0.868416
vn -0.495836 0.000000 0.868416
vn -0.495836 0.000000 0.868416
vn -0.961362 0.000000 -0.275289
vn -0.961362 0.000000 -0.275289
vn -0.961362 0.000000 -0.275289
vn -0.961362 0.000000 -0.275289
vn 0.000000 -1.000000 0.000000
vn 0.000000 -1.000000 0.000000
vn 0.000000 -1.000000 0.000000
vn 0.000000 1.000000 0.000000
vn 0.000000 1.000000 0.000000
vn 0.000000 1.000000 0.000000
vn -0.671896 0.000000 0.740646
vn -0.671896 0.000000 0.740646
vn -0.671896 0.000000 0.740646
vn -0.671896 0.000000 0.740646
vn 0.000000 0.000000 -1.000000
vn 0.000000 0.000000 -1.000000
vn 0.000000 0.000000 -1.000000
vn 0.000000 0.000000 -1.000000
vn 0.727883 0.000000 0.685702
vn 0.727883 0.000000 0.685702
vn 0.727883 0.000000 0.685702
vn 0.727883 0.000000 0.685702
vn 0.000000 -1.000000 0.000000
vn 0.000000 -1.000000 0.000000
vn 0.000000 -1.000000 0.000000
vn 0.000000 1.000000 0.000000
vn 0.000000 1.000000 0.000000
vn 0.000000 1.000000 0.000000
vn -0.859218 0.000000 0.511610
vn -0.859218 0.000000 0.511610
vn -0.859218 0.000000 0.511610
vn -0.859218 0.000000 0.511610
vn -0.278131 0.000000 -0.960543
vn -0.278131 0.000000 -0.960543
vn -0.278131 0.000000 -0.960543
vn -0.278131 0.000000 -0.960543
vn 0.957068 0.000000 0.289865
vn 0.957068 0.000000 0.289865
vn 0.957068 0.000000 0.289865
vn 0.957068 0.000000 0.289865
vn 0.000000 -1.000000 0.000000
vn 0.000000 -1.000000 0.000000
vn 0.000000 -1.000000 0.000000
vn 0.000000 1.000000 0.000000
vn 0.000000 1.000000 0.000000
vn 0.000000 1.000000 0.000000
vn 0.876944 0.000000 -0.480592
vn 0.876944 0.000000 -0.480592
vn 0.876944 0.000000 -0.480592
vn 0.876944 0.000000 -0.480592
vn 0.243642 0.000000 0.969865
vn 0.243642 0.000000 0.969865
vn 0.243642 0.000000 0.969865
vn 0.243642 0.000000 0.969865
vn -0.946103 0.000000 -0.323867
vn -0.946103 0.000000 -0.323867
vn -0.946103 0.000000 -0.323867
vn -0.946103 0.000000 -0.323867
vn 0.000000 -1.000000 -0.000000
vn 0.000000 -1.000000 -0.000000
vn 0.000000 -1.000000 -0.000000
vn 0.000000 1.000000 -0.000000
vn 0.000000 1.000000 -0.000000
vn 0.000000 1.000000 -0.000000
vn 0.876944 0.000000 -0.480592
vn 0.876944 0.000000 -0.480592
vn 0.876944 0.000000 -0.480592
vn 0.876944 0.000000 -0.480592
vn 0.243641 0.000000 0.969865
vn 0.243641 0.000000 0.969865
vn 0.243641 0.000000 0.969865
vn 0.243641 0.000000 0.969865
vn -0.946103 0.000000 -0.323866
vn -0.946103 0.000000 -0.323866
vn -0.946103 0.000000 -0.323866
vn -0.946103 0.000000 -0.323866
vn 0.000000 -1.000000 0.000000
vn 0.000000 -1.000000 0.000000
vn 0.000000 -1.000000 0.000000
vn 0.000000 -1.000000 0.000000
vn 0.000000 1.000000 0.000000
vn 0.000000 1.000000 0.000000
vn 0.000000 1.000000 0.000000
vn 0.000000 1.000000 0.000000
vn -0.913136 0.000000 0.407654
vn -0.913136 0.000000 0.407654
vn -0.913136 0.000000 0.407654
vn -0.913136 0.000000 0.407654
vn 0.000000 0.000000 -1.000000
vn 0.000000 0.000000 -1.000000
vn 0.000000 0.000000 -1.000000
vn 0.000000 0.000000 -1.000000
vn 1.000000 0.000000 0.000000
vn 1.000000 0.000000 0.000000
vn 1.000000 0.000000 0.000000
vn 1.000000 0.000000 0.000000
vn -0.185564 0.000000 0.982632
vn -0.185564 0.000000 0.982632
vn -0.185564 0.000000 0.982632
vn -0.185564 0.000000 0.982632
vn 0.000000 -1.000000 -0.000000
vn 0.000000 -1.000000 -0.000000
vn 0.000000 -1.000000 -0.000000
vn 0.000000 -1.000000 -0.000000
vn 0.000000 1.000000 -0.000000
vn 0.000000 1.000000 -0.000000
vn 0.000000 1.000000 -0.000000
vn 0.000000 1.000000 -0.000000
vn -0.725726 0.000000 -0.687984
vn -0.725726 0.000000 -0.687984
vn -0.725726 0.000000 -0.687984
vn -0.725726 0.000000 -0.687984
vn 0.866595 0.000000 -0.499012
vn 0.866595 0.000000 -0.499012
vn 0.866595 0.000000 -0.499012
vn 0.866595 0.000000 -0.499012
vn -0.010435 0.000000 0.999946
vn -0.010435 0.000000 0.999946
vn -0.010435 0.000000 0.999946
vn -0.010435 0.000000 0.999946
vn -0.944143 0.000000 0.329536
vn -0.944143 0.000000 0.329536
vn -0.944143 0.000000 0.329536
vn -0.944143 0.000000 0.329536
s off
f 4/1/1 5/3/2 6/2/3
f 1/4/4 3/6/5 2/5/6
f 1/7/7 2/8/8 5/3/9 4/1/10
f 2/8/11 3/9/12 6/2/13 5/3/14
f 3/9/15 1/7/16 4/1/17 6/2/18
f 10/10/19 11/12/20 12/11/21
f 7/13/22 9/15/23 8/14/24
f 7/16/25 8/17/26 11/12/27 10/10/28
f 8/17/29 9/18/30 12/11/31 11/12/32
f 9/18/33 7/16/34 10/10/35 12/11/36
f 16/19/37 17/21/38 18/20/39
f 13/22/40 15/24/41 14/23/42
f 13/25/43 14/26/44 17/21/45 16/19/46
f 14/26/47 15/27/48 18/20/49 17/21/50
f 15/27/51 13/25/52 16/19/53 18/20/54
f 22/28/55 23/30/56 24/29/57
f 19/31/58 21/33/59 20/32/60
f 19/34/61 20/35/62 23/30/63 22/28/64
f 20/35/65 21/36/66 24/29/67 23/30/68
f 21/36/69 19/34/70 22/28/71 24/29/72
f 29/37/73 30/40/74 31/39/75 32/38/76
f 25/41/77 26/44/78 28/43/79 27/42/80
f 25/45/81 27/46/82 30/40/83 29/37/84
f 27/46/85 28/47/86 31/39/87 30/40/88
f 28/47/89 26/48/90 32/38/91 31/39/92
f 26/48/93 25/45/94 29/37/95 32/38/96
f 36/49/97 37/51/98 38/50/99
f 33/52/100 35/54/101 34/53/102
f 33/55/103 34/56/104 37/51/105 36/49/106
f 34/56/107 35/57/108 38/50/109 37/51/110
f 35/57/111 33/55/112 36/49/113 38/50/114
f 42/58/115 43/60/116 44/59/117
f 39/61/118 41/63/119 40/62/120
f 39/64/121 40/65/122 43/60/123 42/58/124
f 40/65/125 41/66/126 44/59/127 43/60/128
f 41/66/129 39/64/130 42/58/131 44/59/132
f 48/67/133 49/69/134 50/68/135
f 45/70/136 47/72/137 46/71/138
f 45/73/139 46/74/140 49/69/141 48/67/142
f 46/74/143 47/75/144 50/68/145 49/69/146
f 47/75/147 45/73/148 48/67/149 50/68/150
f 54/76/151 55/78/152 56/77/153
f 51/79/154 53/81/155 52/80/156
f 51/82/157 52/83/158 55/78/159 54/76/160
f 52/83/161 53/84/162 56/77/163 55/78/164
f 53/84/165 51/82/166 54/76/167 56/77/168
f 60/85/169 61/87/170 62/86/171
f 57/88/172 59/90/173 58/89/174
f 57/91/175 58/92/176 61/87/177 60/85/178
f 58/92/179 59/93/180 62/86/181 61/87/182
f 59/93/183 57/91/184 60/85/185 62/86/186
f 66/94/187 67/96/188 68/95/189
f 63/97/190 65/99/191 64/98/192
f 63/100/193 64/101/194 67/96/195 66/94/196
f 64/101/197 65/102/198 68/95/199 67/96/200
f 65/102/201 63/100/202 66/94/203 68/95/204
f 73/103/205 74/106/206 75/105/207 76/104/208
f 69/107/209 70/110/210 72/109/211 71/108/212
f 69/111/213 71/112/214 74/106/215 73/103/216
f 71/112/217 72/113/218 75/105/219 74/106/220
f 72/113/221 70/114/222 76/104/223 75/105/224
f 70/114/225 69/111/226 73/103/227 76/104/228
f 81/115/229 82/118/230 83/117/231 84/116/232
f 77/119/233 78/122/234 80/121/235 79/120/236
f 77/123/237 79/124/238 82/118/239 81/115/240
f 79/124/241 80/125/242 83/117/243 82/118/244
f 80/125/245 78/126/246 84/116/247 83/117/248
f 78/126/249 77/123/250 81/115/251 84/116/252
