# This file uses centimeters as units for non-parametric coordinates.

v 68.842834 -20.947556 11.245270
v 69.918945 -39.857895 11.245270
v 68.842834 -20.947556 14.377380
v 69.918945 -39.857895 14.377380
v -70.573608 -20.947556 14.377380
v -68.445984 -39.857895 14.377380
v -70.573608 -20.947556 11.245270
v -68.445984 -39.857895 11.245270
v -66.723389 -32.113297 14.377380
v 68.896973 -33.058029 14.377380
v 69.692749 -33.235092 11.245270
v -68.182190 -32.058731 11.245239
v -68.883606 -33.956863 14.377380
v -68.883606 -34.021072 11.245270
v -71.011230 -30.281418 11.245270
v -71.011230 -29.914383 14.377380
v -6.454956 -39.857895 15.305725
v -29.393982 -39.857895 15.305725
v -14.179504 -36.565506 14.569305
v -13.427795 -39.857895 13.092957
v -52.339966 -20.947556 10.316895
v -37.204773 -20.947556 10.316895
v -47.407410 -20.947556 13.045959
v -47.552979 -23.807175 10.316895
v 49.983032 -20.947556 15.305725
v 18.509216 -20.947556 15.305725
v 33.141418 -20.947556 13.845734
v 29.200134 -24.020523 15.305725
v 40.013428 -23.908554 14.569305
v 33.141418 -20.947556 13.845734
v 68.218872 55.179367 11.245270
v 71.011292 39.283920 11.245270
v 68.218872 55.179367 14.377380
v 71.011292 39.283920 14.377380
v -66.645874 46.844376 14.377380
v -63.658264 30.960953 14.377380
v -66.645874 46.844376 11.245270
v -63.658264 30.960953 11.245270
v -65.523499 34.642166 14.377380
v 65.250488 48.805328 14.377380
v 67.004395 48.763260 11.245270
v -66.330200 34.638657 11.245239
v 68.831970 51.934250 14.377380
v 68.845947 51.708679 11.245270
v 70.933105 47.225113 11.245270
v 70.946167 47.013336 14.377380
v 51.562256 38.081894 15.305725
v 28.553528 36.659897 15.305725
v 39.684753 40.145355 15.305725
v 40.415466 37.393005 13.092957
v -45.409424 48.156830 10.316895
v -24.823608 49.429108 10.316895
v -34.406006 48.836884 13.045959
v -34.393188 46.407852 10.316895
v 18.371155 52.098648 15.305725
v -11.189575 50.271713 15.305725
v 2.553284 51.121063 13.845734
v -0.987671 48.291107 15.305725
v 9.162415 49.013565 15.305725
v 2.553284 51.121063 13.845734
v 48.811218 -73.375565 3.867920
v 25.348450 -79.088181 3.895538
v 48.729675 -71.849289 8.122864
v 26.896484 -76.119614 8.163818
v 40.494812 73.337387 10.986755
v 17.162109 67.071854 13.615509
v 40.046631 75.742722 6.853210
v 16.713928 69.477188 9.481964
v 7.839783 -73.995071 6.795105
v -15.523438 -70.349426 6.776337
v 3.125488 -51.675949 10.694366
v -14.163025 -70.420166 11.010315
v 12.289185 70.751053 8.864044
v -9.713623 74.251328 8.847443
v 12.396973 74.180603 4.579834
v -10.966309 77.826248 4.561066
v -16.584412 -72.852463 4.141205
v -40.459534 -74.094864 6.829468
v -17.488098 -71.223343 8.701050
v -39.653931 -74.007324 11.027740
v -16.627014 75.498489 7.328308
v -40.502136 74.256088 10.016602
v -17.453674 79.088181 3.104980
v -41.328796 77.845749 5.793274
v 8.751221 -44.285294 10.583862
v 7.839783 -73.961960 8.672699
v 0.914185 -73.180298 11.015839
v -18.644287 -26.682892 6.979187
v -39.097656 -27.929993 8.918701
v -39.855652 -28.012344 5.361572
v -17.856689 -26.767365 3.083832
vt 0.058966 0.275784
vt 0.058966 0.275784
vt 0.058966 0.275785
vt 0.058966 0.275785
vt 0.058966 0.304228
vt 0.058966 0.283442
vt 0.058966 0.304228
vt 0.058966 0.283442
vt 0.058966 0.275784
vt 0.058966 0.275784
vt 0.058966 0.283442
vt 0.058966 0.283442
vt 0.058966 0.304228
vt 0.058966 0.304228
vt 0.058966 0.283442
vt 0.058966 0.275785
vt 0.058966 0.275784
vt 0.058966 0.275784
vt 0.058966 0.283442
vt 0.058966 0.283442
vt 0.058966 0.283442
vt 0.058966 0.283442
vt 0.058966 0.283442
vt 0.058966 0.304228
vt 0.058966 0.304228
vt 0.058966 0.304228
vt 0.058966 0.304228
vt 0.058966 0.304228
vt 0.058966 0.304228
vt 0.058966 0.304228
vt 0.058966 0.304228
vt 0.058966 0.304228
vt 0.058966 0.304228
vt 0.058966 0.304228
vt 0.058966 0.304228
vt 0.058966 0.304228
vt 0.058966 0.304228
vt 0.058966 0.275785
vt 0.058966 0.275785
vt 0.058966 0.275785
vt 0.058966 0.275785
vt 0.058966 0.275784
vt 0.058966 0.275785
vt 0.058966 0.275785
vt 0.058966 0.275785
vt 0.058966 0.275785
vt 0.059419 0.250192
vt 0.059419 0.250192
vt 0.059419 0.250192
vt 0.059419 0.250192
vt 0.059419 0.279730
vt 0.059419 0.279730
vt 0.059419 0.279730
vt 0.059419 0.279730
vt 0.059419 0.253474
vt 0.059419 0.250192
vt 0.059419 0.253474
vt 0.059419 0.250192
vt 0.059419 0.250192
vt 0.059419 0.255115
vt 0.059419 0.255115
vt 0.059419 0.255115
vt 0.059419 0.255115
vt 0.059419 0.279730
vt 0.059419 0.279730
vt 0.059419 0.250192
vt 0.059419 0.279730
vt 0.059419 0.250192
vt 0.059419 0.250192
vt 0.059419 0.279730
vt 0.059419 0.253474
vt 0.059419 0.253474
vt 0.059419 0.279730
vt 0.059419 0.279730
vt 0.059419 0.279730
vt 0.059419 0.279730
vt 0.059419 0.279730
vt 0.059419 0.279730
vt 0.059419 0.279730
vt 0.059419 0.279730
vt 0.059419 0.255115
vt 0.059419 0.255115
vt 0.059419 0.279730
vt 0.059419 0.279730
vt 0.059419 0.279730
vt 0.059419 0.279730
vt 0.059419 0.279730
vt 0.059419 0.250192
vt 0.059419 0.250192
vt 0.059419 0.253474
vt 0.059419 0.253474
vt 0.059419 0.253474
vt 0.059419 0.253474
vt 0.059419 0.253474
vt 0.005099 0.300379
vt 0.005099 0.300379
vt 0.005099 0.300379
vt 0.005099 0.300379
vt 0.005099 0.289451
vt 0.005099 0.282927
vt 0.005099 0.282927
vt 0.005099 0.282927
vt 0.005099 0.300379
vt 0.005099 0.300379
vt 0.005099 0.282927
vt 0.005099 0.289451
vt 0.005099 0.282927
vt 0.005099 0.282927
vt 0.005099 0.285420
vt 0.005099 0.285420
vt 0.005099 0.285420
vt 0.005099 0.282927
vt 0.005099 0.282927
vt 0.005099 0.300379
vt 0.005099 0.300379
vt 0.005099 0.285420
vt 0.005099 0.285420
vt 0.005099 0.285420
vt 0.005099 0.285420
vt 0.005099 0.300379
vt 0.005099 0.300379
vt 0.005099 0.285420
vt 0.005099 0.283758
vt 0.005099 0.283758
vt 0.005099 0.283758
vt 0.005099 0.283758
vt 0.005099 0.280434
vt 0.005099 0.300379
vt 0.005099 0.309936
vt 0.005099 0.300379
vt 0.005099 0.300379
vt 0.005099 0.280434
vt 0.005099 0.293731
vt 0.005099 0.300379
vt 0.005099 0.280434
vt 0.005099 0.300379
vt 0.005099 0.300379
vt 0.005099 0.280434
vt 0.005099 0.300379
vt 0.005099 0.309936
vt 0.005099 0.293731
vt 0.005099 0.300379
vt 0.005099 0.282927
vt 0.005099 0.282927
vt 0.005099 0.285420
vt 0.005099 0.285420
vt 0.005099 0.283758
vt 0.005099 0.283758
vn -0.785907 0.590919 0.182111
vn -0.785907 0.590919 0.182110
vn -0.785907 0.590919 0.182110
vn -0.785908 0.590919 0.182111
vn 0.000000 -1.000000 0.000000
vn 0.000000 -1.000000 0.000000
vn 0.000000 -1.000000 0.000000
vn 0.000000 -1.000000 0.000000
vn 0.000000 1.000000 -0.000001
vn 0.000000 1.000000 -0.000001
vn 0.000000 1.000000 -0.000001
vn -0.481829 -0.862407 0.155225
vn -0.481829 -0.862407 0.155225
vn -0.481829 -0.862407 0.155225
vn -0.481829 -0.862407 0.155225
vn -0.997231 -0.074360 0.000762
vn -0.997231 -0.074360 0.000762
vn -0.997231 -0.074360 0.000762
vn -0.997231 -0.074360 0.000762
vn -0.998854 0.047771 -0.002799
vn -0.998854 0.047771 -0.002799
vn -0.998854 0.047771 -0.002799
vn -0.998854 0.047771 -0.002799
vn 0.991487 0.036739 0.124915
vn 0.991487 0.036739 0.124915
vn 0.991487 0.036739 0.124915
vn 0.991487 0.036739 0.124915
vn -0.000345 -0.040487 -0.999180
vn -0.000345 -0.040487 -0.999180
vn -0.000345 -0.040487 -0.999180
vn -0.000345 -0.040488 -0.999180
vn -0.000345 -0.040487 -0.999180
vn -0.000345 -0.040487 -0.999180
vn 0.988152 0.091888 0.122933
vn 0.988152 0.091888 0.122933
vn 0.988152 0.091888 0.122933
vn 0.988152 0.091888 0.122933
vn 0.012501 -0.057003 0.998296
vn 0.012501 -0.057003 0.998296
vn 0.012501 -0.057003 0.998296
vn 0.012501 -0.057003 0.998296
vn -0.270924 -0.444681 0.853733
vn -0.270924 -0.444681 0.853733
vn -0.270924 -0.444681 0.853733
vn 0.126891 -0.381587 0.915582
vn 0.126891 -0.381587 0.915582
vn 0.126891 -0.381587 0.915582
vn 0.376115 0.629615 -0.679796
vn 0.376115 0.629615 -0.679796
vn 0.376115 0.629615 -0.679796
vn -0.188741 0.683003 -0.705609
vn -0.188741 0.683003 -0.705609
vn -0.188741 0.683003 -0.705609
vn 0.005303 0.077345 0.996990
vn 0.005303 0.077345 0.996990
vn 0.005303 0.077345 0.996990
vn 0.005303 0.077345 0.996990
vn -0.008135 0.077385 0.996968
vn -0.008135 0.077385 0.996968
vn -0.008135 0.077385 0.996968
vn -0.008135 0.077385 0.996968
vn -0.008135 0.077385 0.996968
vn 0.000000 -1.000000 0.000000
vn 0.000000 -1.000000 0.000000
vn 0.000000 -1.000000 0.000000
vn 0.000000 -1.000000 0.000000
vn 0.000000 -1.000000 0.000000
vn 0.000000 -1.000000 0.000000
vn 0.000000 -1.000000 0.000000
vn 0.000000 1.000000 0.000000
vn 0.000000 1.000000 0.000000
vn 0.000000 1.000000 0.000000
vn 0.000000 1.000000 0.000000
vn 0.000000 1.000000 0.000000
vn 0.000000 1.000000 0.000000
vn 0.000000 1.000000 0.000000
vn 0.000000 1.000000 0.000000
vn 0.000000 1.000000 0.000000
vn 0.008100 -0.005080 -0.999954
vn 0.008100 -0.005080 -0.999954
vn 0.008100 -0.005080 -0.999954
vn 0.008100 -0.005080 -0.999954
vn -0.039472 -0.020279 -0.999015
vn -0.039472 -0.020279 -0.999015
vn -0.039472 -0.020279 -0.999015
vn -0.039472 -0.020279 -0.999015
vn -0.039472 -0.020279 -0.999015
vn -0.086286 0.042974 0.995343
vn -0.086286 0.042974 0.995343
vn -0.086286 0.042974 0.995343
vn 0.000000 1.000000 -0.000001
vn 0.000000 1.000000 -0.000001
vn 0.000000 1.000000 -0.000001
vn 0.000000 1.000000 -0.000001
vn 0.000000 0.000000 0.000000
vn 0.000000 0.000000 0.000000
vn 0.000000 0.000000 0.000000
vn 0.093845 0.326491 0.940530
vn 0.093846 0.326491 0.940530
vn 0.093845 0.326491 0.940530
vn 0.059492 0.365104 0.929064
vn 0.059492 0.365104 0.929064
vn 0.059492 0.365104 0.929064
vn 0.000000 0.000000 0.000000
vn 0.000000 0.000000 0.000000
vn 0.000000 0.000000 0.000000
vn -0.009338 -0.009537 0.999911
vn -0.009338 -0.009537 0.999911
vn -0.009338 -0.009537 0.999911
vn -0.009338 -0.009537 0.999911
vn -0.009338 -0.009537 0.999911
vn 0.003687 -0.071304 0.997448
vn 0.003687 -0.071304 0.997448
vn 0.003687 -0.071304 0.997448
vn 0.003687 -0.071304 0.997448
vn 0.002820 -0.012073 0.999923
vn 0.002820 -0.012073 0.999923
vn 0.002820 -0.012073 0.999923
vn 0.324794 0.938682 0.115692
vn 0.324794 0.938682 0.115692
vn 0.324794 0.938682 0.115692
vn 0.324794 0.938682 0.115692
vn 0.061685 -0.998096 -0.000005
vn 0.061685 -0.998096 -0.000005
vn 0.061685 -0.998096 -0.000005
vn 0.061685 -0.998096 -0.000005
vn -0.061685 0.998096 0.000003
vn -0.061685 0.998096 0.000003
vn -0.061685 0.998096 0.000003
vn 0.725536 -0.647743 0.232435
vn 0.725536 -0.647743 0.232435
vn 0.725536 -0.647743 0.232435
vn 0.725536 -0.647743 0.232435
vn -0.846118 -0.521678 0.109255
vn -0.846118 -0.521678 0.109255
vn -0.846118 -0.521678 0.109255
vn -0.846118 -0.521678 0.109255
vn -0.990117 -0.058335 0.127539
vn -0.990117 -0.058335 0.127539
vn -0.990117 -0.058335 0.127539
vn -0.990117 -0.058335 0.127539
vn 0.983364 0.181593 -0.004345
vn 0.983364 0.181593 -0.004345
vn 0.983364 0.181593 -0.004345
vn 0.983364 0.181593 -0.004345
vn 0.004386 -0.041402 -0.999133
vn 0.004386 -0.041402 -0.999133
vn 0.004386 -0.041402 -0.999133
vn 0.004386 -0.041402 -0.999133
vn 0.004386 -0.041402 -0.999133
vn 0.004386 -0.041402 -0.999133
vn 0.999957 0.009145 -0.001776
vn 0.999957 0.009145 -0.001776
vn 0.999957 0.009145 -0.001776
vn 0.999957 0.009145 -0.001776
vn 0.017213 0.017230 0.999703
vn 0.017213 0.017230 0.999703
vn 0.017213 0.017230 0.999703
vn 0.017213 0.017230 0.999703
vn 0.017213 0.017230 0.999703
vn 0.017213 0.017230 0.999703
vn -0.111266 -0.640458 0.759891
vn -0.111266 -0.640458 0.759891
vn -0.111266 -0.640458 0.759891
vn 0.183458 -0.585895 0.789348
vn 0.183458 -0.585895 0.789348
vn 0.183458 -0.585895 0.789348
vn 0.117810 0.742048 -0.659913
vn 0.117810 0.742048 -0.659913
vn 0.117810 0.742048 -0.659913
vn -0.229374 0.726524 -0.647727
vn -0.229374 0.726524 -0.647727
vn -0.229374 0.726524 -0.647727
vn 0.027427 0.041759 0.998751
vn 0.027427 0.041759 0.998751
vn 0.027427 0.041759 0.998751
vn 0.027427 0.041759 0.998751
vn 0.027427 0.041759 0.998751
vn -0.010148 0.013121 0.999862
vn -0.010148 0.013121 0.999862
vn -0.010148 0.013121 0.999862
vn -0.010148 0.013121 0.999862
vn 0.061685 -0.998096 -0.000001
vn 0.061685 -0.998096 -0.000001
vn 0.061685 -0.998096 -0.000001
vn 0.061685 -0.998096 -0.000001
vn 0.061685 -0.998096 0.000000
vn 0.061685 -0.998096 0.000000
vn 0.061685 -0.998096 0.000000
vn -0.061685 0.998096 -0.000003
vn -0.061685 0.998096 -0.000003
vn -0.061685 0.998096 -0.000003
vn -0.061685 0.998096 -0.000003
vn -0.061685 0.998096 0.000002
vn -0.061685 0.998096 0.000002
vn -0.061685 0.998096 0.000002
vn -0.061685 0.998096 0.000002
vn -0.061685 0.998096 0.000002
vn 0.009932 -0.011349 -0.999886
vn 0.009932 -0.011349 -0.999886
vn 0.009932 -0.011349 -0.999886
vn 0.009932 -0.011349 -0.999886
vn 0.009932 -0.011349 -0.999886
vn -0.029084 -0.023615 -0.999298
vn -0.029084 -0.023615 -0.999298
vn -0.029084 -0.023615 -0.999298
vn -0.029084 -0.023615 -0.999298
vn -0.106614 0.318236 0.941998
vn -0.106614 0.318236 0.941998
vn -0.106614 0.318236 0.941998
vn -0.061685 0.998096 0.000003
vn -0.061685 0.998096 0.000003
vn -0.061685 0.998096 0.000003
vn -0.061685 0.998096 0.000003
vn 0.000000 0.000000 0.000000
vn 0.000000 0.000000 0.000000
vn 0.000000 0.000000 0.000000
vn 0.074221 0.382306 0.921050
vn 0.074221 0.382306 0.921050
vn 0.074221 0.382306 0.921050
vn -0.035055 0.492498 0.869607
vn -0.035055 0.492498 0.869607
vn -0.035055 0.492498 0.869607
vn 0.000000 0.000000 0.000000
vn 0.000000 0.000000 0.000000
vn 0.000000 0.000000 0.000000
vn -0.013892 -0.011092 0.999842
vn -0.013892 -0.011092 0.999842
vn -0.013892 -0.011092 0.999842
vn -0.013892 -0.011092 0.999842
vn -0.006336 -0.031636 0.999479
vn -0.006336 -0.031636 0.999479
vn -0.006336 -0.031636 0.999479
vn -0.006336 -0.031636 0.999479
vn -0.098835 -0.878280 0.467821
vn -0.098835 -0.878280 0.467821
vn -0.098835 -0.878280 0.467821
vn -0.098835 -0.878280 0.467821
vn -0.000000 -0.002686 0.999996
vn 0.000433 0.004264 0.999991
vn 0.000433 0.004264 0.999991
vn -0.000000 -0.002686 0.999996
vn -0.000000 0.874541 0.484952
vn -0.000000 0.874541 0.484952
vn -0.000000 0.874541 0.484952
vn -0.000000 0.874541 0.484952
vn 0.000000 -0.002617 -0.999997
vn 0.000113 0.004098 -0.999992
vn 0.000113 0.004098 -0.999992
vn 0.000000 -0.002617 -0.999997
vn -0.995674 -0.010906 0.092268
vn -0.961365 0.003759 0.275251
vn -0.961365 0.003759 0.275251
vn -0.995674 -0.010906 0.092268
vn 0.986595 -0.014000 0.162585
vn 0.986501 0.021834 0.162294
vn 0.986501 0.021834 0.162294
vn 0.986595 -0.014000 0.162585
vn 0.349564 -0.022661 0.936638
vn 0.349564 -0.022661 0.936638
vn 0.349564 -0.022661 0.936638
vn -0.000000 0.769701 0.638404
vn -0.000000 0.769701 0.638404
vn -0.000000 0.769701 0.638404
vn -0.000000 0.769701 0.638404
vn 0.000000 0.000000 -1.000000
vn 0.000000 0.000000 -1.000000
vn 0.000000 0.000000 -1.000000
vn 0.000000 0.000000 -1.000000
vn -1.000000 -0.000000 0.000000
vn -1.000000 -0.000000 0.000000
vn -1.000000 -0.000000 0.000000
vn -1.000000 -0.000000 0.000000
vn 0.127660 -0.078415 0.988713
vn 0.127660 -0.078414 0.988713
vn 0.127660 -0.078415 0.988713
vn 0.075621 -0.978624 0.191249
vn 0.075621 -0.978624 0.191249
vn 0.075621 -0.978624 0.191249
vn 0.075621 -0.978624 0.191249
vn -0.000000 -0.007078 0.999975
vn -0.001570 0.005361 0.999984
vn -0.001523 0.004519 0.999989
vn -0.000000 -0.007078 0.999975
vn -0.000000 0.754773 0.655986
vn -0.000000 0.754773 0.655986
vn -0.000000 0.754773 0.655986
vn -0.000000 0.754773 0.655986
vn 0.000000 -0.006574 -0.999978
vn 0.000000 0.002134 -0.999998
vn 0.000000 0.002134 -0.999998
vn 0.000000 -0.006574 -0.999978
vn -0.990600 -0.028578 0.133773
vn -0.996426 0.012459 0.083542
vn -0.996445 0.012474 0.083321
vn -0.990600 -0.028578 0.133773
vn 0.999818 -0.017237 -0.008144
vn 0.965500 0.004356 0.260366
vn 0.965491 0.004366 0.260401
vn 0.999818 -0.017237 -0.008144
vn 1.000000 0.000000 -0.000000
vn 1.000000 0.000000 -0.000000
vn 1.000000 0.000000 -0.000000
vn 1.000000 0.000000 -0.000000
vn 1.000000 0.000000 -0.000000
vn 0.000000 -1.000000 -0.000000
vn 0.000000 -1.000000 -0.000000
vn 0.000000 -1.000000 -0.000000
vn 0.000000 -1.000000 -0.000000
vn 0.000000 -1.000000 -0.000000
vn -0.000000 -0.000000 1.000000
vn -0.000000 -0.000000 1.000000
vn -0.000000 -0.000000 1.000000
vn -0.000000 -0.000000 1.000000
vn -0.000000 -0.000000 1.000000
vn -0.000000 -0.000000 1.000000
vn -0.000000 -0.000000 1.000000
vn -0.000000 -0.000000 1.000000
vn -0.003210 0.035325 0.999371
vn -0.001523 0.004519 0.999989
vn -0.001570 0.005361 0.999984
vn -0.003210 0.035325 0.999371
vn -0.999843 0.017724 -0.000000
vn -0.999843 0.017724 -0.000000
vn -0.996445 0.012474 0.083321
vn -0.996426 0.012459 0.083542
vn 0.000000 0.002134 -0.999998
vn 0.000000 -0.020730 -0.999785
vn 0.000000 -0.020730 -0.999785
vn 0.000000 0.002134 -0.999998
vn 0.965500 0.004356 0.260366
vn 0.941639 0.025046 0.335691
vn 0.941639 0.025046 0.335692
vn 0.965491 0.004366 0.260401
s off
f 12/19/1 14/21/2 13/20/3 9/15/4
f 2/2/5 4/4/6 17/25/7 20/29/8
f 25/38/9 3/3/10 27/42/11
f 15/22/12 12/19/13 9/15/14 16/23/15
f 14/21/16 8/8/17 6/6/18 13/20/19
f 5/5/20 7/7/21 15/22/22 16/23/23
f 11/17/24 1/1/25 3/3/26 10/16/27
f 12/19/28 24/36/29 11/18/30 2/10/31 8/8/32 14/21/33
f 10/16/34 4/4/35 2/2/36 11/17/37
f 10/16/38 3/3/39 25/39/40 29/44/41
f 17/25/42 19/30/43 20/29/44
f 19/30/45 18/27/46 20/29/47
f 21/32/48 23/37/49 24/36/50
f 23/37/51 22/34/52 24/36/53
f 19/28/54 17/24/55 4/4/56 10/16/57
f 13/20/58 6/6/59 18/26/60 19/28/61 9/15/62
f 20/29/63 18/27/64 6/12/65 8/11/66
f 2/2/67 20/29/68 8/11/69
f 7/13/70 5/14/71 23/35/72 21/31/73
f 3/3/74 1/1/75 22/33/76 23/35/77 27/42/78
f 24/36/79 22/34/80 1/9/81 11/18/82
f 7/7/83 21/32/84 24/36/85 12/19/86 15/22/87
f 25/39/88 30/46/89 29/44/90
f 5/14/91 26/40/92 27/42/93 23/35/94
f 30/45/95 25/38/96 27/42/97
f 30/46/98 26/41/99 28/43/100
f 30/46/101 28/43/102 29/44/103
f 26/40/104 30/45/105 27/42/106
f 28/43/107 26/41/108 5/5/109 16/23/110 9/15/111
f 29/44/112 28/43/113 9/15/114 19/28/115
f 10/16/116 29/44/117 19/28/118
f 40/47/119 46/48/120 45/49/121 41/50/122
f 32/51/123 34/52/124 47/53/125 50/54/126
f 55/55/127 33/56/128 57/57/129
f 43/58/130 40/47/131 41/50/132 44/59/133
f 42/60/134 38/61/135 36/62/136 39/63/137
f 39/63/138 35/64/139 37/65/140 42/60/141
f 31/66/142 33/56/143 43/58/144 44/59/145
f 42/60/146 54/67/147 41/68/148 45/69/149 32/70/150 38/61/151
f 46/48/152 34/52/153 32/51/154 45/49/155
f 40/47/156 43/58/157 33/56/158 55/71/159 59/72/160 49/73/161
f 47/53/162 49/74/163 50/54/164
f 49/74/165 48/75/166 50/54/167
f 51/76/168 53/77/169 54/67/170
f 53/77/171 52/78/172 54/67/173
f 49/73/174 47/79/175 34/52/176 46/48/177 40/47/178
f 36/62/179 48/80/180 49/73/181 39/63/182
f 50/54/183 48/75/184 36/81/185 38/82/186
f 32/51/187 50/54/188 38/82/189
f 37/83/190 35/84/191 53/85/192 51/86/193
f 33/56/194 31/66/195 52/87/196 53/85/197 57/57/198
f 54/67/199 52/78/200 31/88/201 44/89/202 41/68/203
f 37/65/204 51/76/205 54/67/206 42/60/207
f 55/71/208 60/90/209 59/72/210
f 35/84/211 56/91/212 57/57/213 53/85/214
f 60/92/215 55/55/216 57/57/217
f 60/90/218 56/93/219 58/94/220
f 60/90/221 58/94/222 59/72/223
f 56/91/224 60/92/225 57/57/226
f 58/94/227 56/93/228 35/64/229 39/63/230
f 59/72/231 58/94/232 39/63/233 49/73/234
f 61/95/235 63/96/236 64/97/237 62/98/238
f 66/99/239 64/97/240 63/96/241 65/100/242
f 65/100/243 67/101/244 68/102/245 66/99/246
f 67/101/247 61/103/248 62/104/249 68/102/250
f 68/105/251 62/98/252 64/97/253 66/106/254
f 65/107/255 63/96/256 61/95/257 67/108/258
f 86/109/259 71/110/260 87/111/261
f 73/112/262 75/113/263 76/114/264 74/115/265
f 75/113/266 69/116/267 70/117/268 76/114/269
f 70/118/270 72/119/271 74/120/272 76/121/273
f 85/122/274 71/110/275 86/109/276
f 77/123/277 79/124/278 80/125/279 78/126/280
f 82/127/281 89/128/282 88/129/283 81/130/284
f 81/130/285 83/131/286 84/132/287 82/127/288
f 83/131/289 91/133/290 90/134/291 84/132/292
f 84/135/293 90/136/294 89/137/295 82/138/296
f 81/139/297 88/140/298 91/141/299 83/142/300
f 75/143/301 73/144/302 85/122/303 86/109/304 69/145/305
f 69/145/306 86/109/307 87/111/308 72/119/309 70/118/310
f 85/146/311 73/112/312 74/115/313 71/110/314
f 74/115/315 72/119/316 87/111/317 71/110/318
f 79/124/319 88/129/320 89/128/321 80/125/322
f 78/126/323 80/125/324 89/137/325 90/136/326
f 91/133/327 77/147/328 78/148/329 90/134/330
f 88/140/331 79/124/332 77/123/333 91/141/334
