# This file uses centimeters as units for non-parametric coordinates.

v -96.721436 -0.636988 75.882584
v -96.721436 6.008977 75.882584
v -94.191032 6.008977 -69.767647
v -96.583382 -0.636988 -71.697128
v 91.382980 -0.636988 69.151543
v 98.375458 -0.636988 -75.845329
v 98.375458 6.008977 -74.149849
v 91.382980 6.008977 69.151543
v -62.660686 -0.636988 75.882584
v -62.670364 6.008977 75.882584
v 98.375458 -0.636988 -25.703192
v 98.375084 6.008976 -25.709232
v 98.375458 3.260698 -10.246074
v -12.941561 3.260698 69.863243
v -13.454712 9.906663 69.863243
v 98.375084 9.906661 -10.614985
v 92.267502 -0.636988 23.465195
v 13.412616 -0.636988 64.892220
v 12.798620 6.008977 64.892220
v 92.267128 6.008976 23.142878
v -34.356983 5.172029 -71.760040
v -32.778080 -1.473936 -73.455475
v 24.835911 5.172027 14.629724
v 38.573410 9.069714 28.538996
v 58.629856 -1.473936 65.988350
v 57.050957 5.172029 65.988350
v 45.596401 5.172027 43.212788
v -63.250492 6.784828 -72.275024
v -62.708317 0.138864 -74.738205
v -90.094376 6.784829 -37.945927
v -93.326233 0.138864 -35.583466
v -96.983734 5.032146 21.701773
v -42.178051 4.263674 -74.001198
v -40.900196 -2.379414 -75.882584
v -98.375458 -1.629699 24.949617
vt 0.626267 0.251888
vt 0.626267 0.373765
vt 0.748144 0.373765
vt 0.748144 0.251888
vt 0.638566 0.358997
vt 0.638566 0.358998
vt 0.638566 0.358998
vt 0.638566 0.358997
vt 0.638566 0.358998
vt 0.638566 0.358998
vt 0.638566 0.358997
vt 0.638566 0.358997
vt 0.638566 0.358997
vt 0.638566 0.358997
vt 0.638566 0.358997
vt 0.638566 0.358997
vt 0.638566 0.358998
vt 0.647539 0.251888
vt 0.638566 0.358997
vt 0.638566 0.358997
vt 0.638566 0.358997
vt 0.748144 0.333493
vt 0.638566 0.358997
vt 0.638566 0.358998
vt 0.678284 0.251888
vt 0.638566 0.358997
vt 0.638566 0.358997
vt 0.748144 0.316533
vt 0.638566 0.358997
vt 0.638566 0.358998
vt 0.698500 0.251888
vt 0.638566 0.358997
vt 0.638566 0.358997
vt 0.748144 0.285424
vt 0.638566 0.358997
vt 0.665930 0.373765
vt 0.638566 0.358998
vt 0.703969 0.297661
vt 0.711490 0.282615
vt 0.638566 0.358998
vt 0.726848 0.251888
vt 0.638566 0.358997
vt 0.719692 0.266204
vt 0.638566 0.358997
vt 0.643036 0.373765
vt 0.638566 0.358998
vt 0.638566 0.358997
vt 0.626267 0.346190
vt 0.638566 0.358998
vt 0.638566 0.358997
vt 0.626267 0.290459
vt 0.638566 0.358997
vt 0.660453 0.373765
vt 0.638566 0.358998
vt 0.638566 0.358998
vn -0.916133 0.390583 0.090247
vn -0.916134 0.390583 0.090247
vn -0.916133 0.390583 0.090247
vn -0.916134 0.390583 0.090247
vn -0.088390 0.323627 -0.942047
vn -0.088390 0.323627 -0.942047
vn -0.088390 0.323627 -0.942047
vn -0.088390 0.323627 -0.942047
vn -0.005452 0.999940 -0.009509
vn -0.005452 0.999940 -0.009509
vn -0.005452 0.999940 -0.009509
vn -0.005452 0.999940 -0.009509
vn -0.005452 0.999940 -0.009509
vn -0.005452 0.999940 -0.009509
vn 0.000000 0.000000 1.000000
vn 0.000000 0.000000 1.000000
vn 0.000000 0.000000 1.000000
vn 0.000000 0.000000 1.000000
vn 1.000000 0.000027 0.000004
vn 1.000000 0.000027 0.000004
vn 1.000000 0.000027 0.000004
vn 1.000000 0.000027 0.000004
vn -0.130861 0.971212 -0.199054
vn -0.130861 0.971212 -0.199054
vn -0.130861 0.971212 -0.199054
vn -0.130861 0.971212 -0.199054
vn 0.120423 0.004737 0.992711
vn 0.120423 0.004737 0.992711
vn 0.120423 0.004737 0.992711
vn 0.120423 0.004737 0.992711
vn 1.000000 0.000055 -0.000014
vn 1.000000 0.000055 -0.000014
vn 1.000000 0.000055 -0.000014
vn 1.000000 0.000055 -0.000014
vn 0.071941 0.984947 0.157174
vn 0.071941 0.984947 0.157174
vn 0.071941 0.984947 0.157174
vn 0.071941 0.984947 0.157174
vn 0.187954 0.015938 0.982048
vn 0.187954 0.015938 0.982048
vn 0.187954 0.015938 0.982048
vn 0.187954 0.015938 0.982048
vn 0.983767 0.009376 0.179203
vn 0.983767 0.009376 0.179203
vn 0.983767 0.009376 0.179203
vn 0.983767 0.009376 0.179203
vn -0.020018 0.999795 0.003076
vn -0.020018 0.999795 0.003076
vn -0.020018 0.999795 0.003076
vn -0.020018 0.999795 0.003076
vn -0.024571 -0.004054 0.999690
vn -0.024571 -0.004054 0.999690
vn -0.024571 -0.004054 0.999690
vn -0.024571 -0.004054 0.999690
vn 0.999814 0.000495 0.019285
vn 0.999814 0.000495 0.019285
vn 0.999814 0.000495 0.019285
vn 0.999814 0.000495 0.019285
vn -0.019111 0.245017 -0.969331
vn -0.019111 0.245017 -0.969330
vn -0.019111 0.245017 -0.969331
vn -0.019111 0.245017 -0.969330
vn -0.007438 0.999967 0.003266
vn -0.007438 0.999967 0.003266
vn -0.007438 0.999967 0.003266
vn -0.007438 0.999967 0.003266
vn -0.102234 0.982594 -0.155102
vn -0.102234 0.982594 -0.155102
vn -0.102234 0.982594 -0.155102
vn -0.102234 0.982594 -0.155102
vn 0.167752 0.965285 0.200209
vn 0.167752 0.965285 0.200209
vn 0.167752 0.965285 0.200209
vn 0.167752 0.965285 0.200209
vn 0.019147 0.999770 -0.009630
vn 0.019147 0.999770 -0.009630
vn 0.019147 0.999770 -0.009630
vn -0.093606 -0.011119 0.995547
vn -0.093606 -0.011119 0.995547
vn -0.093606 -0.011119 0.995547
vn -0.093606 -0.011119 0.995547
vn -0.951793 0.294462 -0.085922
vn -0.951793 0.294462 -0.085922
vn -0.951793 0.294462 -0.085922
vn -0.951793 0.294462 -0.085922
vn -0.027575 0.307211 -0.951242
vn -0.027575 0.307211 -0.951242
vn -0.027575 0.307211 -0.951242
vn -0.027575 0.307211 -0.951242
vn -0.026757 0.999423 -0.020923
vn -0.026757 0.999423 -0.020923
vn -0.026757 0.999423 -0.020923
vn 0.090816 0.994553 0.051147
vn 0.090816 0.994553 0.051147
vn 0.090816 0.994553 0.051147
vn 0.090816 0.994553 0.051147
vn -0.994033 0.107887 0.016101
vn -0.994033 0.107887 0.016101
vn -0.994033 0.107887 0.016101
vn -0.994033 0.107887 0.016101
vn 0.236545 0.299622 -0.924269
vn 0.236545 0.299622 -0.924269
vn 0.236545 0.299622 -0.924269
vn 0.236545 0.299622 -0.924269
s off
f 4/9/1 31/49/2 30/47/3 3/12/4
f 3/12/5 28/44/6 29/46/7 4/9/8
f 2/1/9 10/18/10 23/38/11 21/36/12 33/53/13 32/51/14
f 1/10/15 9/17/16 10/19/17 2/11/18
f 6/13/19 7/14/20 12/21/21 11/20/22
f 12/22/23 23/38/24 24/39/25 16/28/26
f 10/19/27 9/17/28 14/24/29 15/26/30
f 11/20/31 12/21/32 16/27/33 13/23/34
f 16/28/35 24/39/36 27/43/37 20/34/38
f 15/26/39 14/24/40 18/30/41 19/32/42
f 13/23/43 16/27/44 20/33/45 17/29/46
f 20/34/47 27/43/48 26/41/49 8/4/50
f 19/32/51 18/30/52 25/40/53 26/42/54
f 17/29/55 20/33/56 8/15/57 5/16/58
f 22/37/59 21/35/60 7/8/61 6/7/62
f 21/36/63 23/38/64 12/22/65 7/3/66
f 24/39/67 23/38/68 10/18/69 15/25/70
f 27/43/71 24/39/72 15/25/73 19/31/74
f 26/41/75 27/43/76 19/31/77
f 26/42/78 25/40/79 5/6/80 8/5/81
f 30/47/82 31/49/83 35/55/84 32/50/85
f 29/46/86 28/44/87 33/52/88 34/54/89
f 30/48/90 28/45/91 3/2/92
f 32/51/93 33/53/94 28/45/95 30/48/96
f 32/50/97 35/55/98 1/10/99 2/11/100
f 34/54/101 33/52/102 21/35/103 22/37/104
