# This file uses centimeters as units for non-parametric coordinates.

v 8.819839 0.000000 -5.878052
v 3.380875 0.000000 -3.538361
v 8.410324 0.000000 -11.431274
v 4.299652 0.000000 -12.608398
v -0.824829 0.000000 -6.820740
v -13.895920 0.000000 -7.822479
v -5.972610 0.000000 -5.865936
v -19.775223 0.000000 1.585175
v -12.730988 0.000000 10.459442
v -5.790802 0.000000 4.206543
v 8.482544 0.000000 7.148163
v 11.950958 0.000000 -0.592529
v 14.298325 0.000000 12.608368
v 19.775253 0.000000 9.864685
v 19.283371 0.000000 3.016846
vt 0.128186 0.420089
vt 0.128186 0.420089
vt 0.128186 0.420089
vt 0.128186 0.420089
vt 0.128186 0.420089
vt 0.128186 0.420089
vt 0.128186 0.420089
vt 0.128186 0.420089
vt 0.128186 0.420089
vt 0.128186 0.420089
vt 0.128186 0.420089
vt 0.128186 0.420089
vt 0.128186 0.420089
vt 0.128186 0.420089
vt 0.128186 0.420089
vn 0.000000 1.000000 -0.000000
vn 0.000000 1.000000 -0.000000
vn 0.000000 1.000000 -0.000000
vn 0.000000 1.000000 -0.000000
vn 0.000000 1.000000 -0.000000
vn 0.000000 1.000000 0.000000
vn 0.000000 1.000000 0.000000
vn 0.000000 1.000000 0.000000
vn 0.000000 1.000000 0.000000
vn 0.000000 1.000000 0.000000
vn 0.000000 1.000000 0.000000
vn 0.000000 1.000000 0.000000
vn 0.000000 1.000000 0.000000
vn 0.000000 1.000000 0.000000
vn 0.000000 1.000000 0.000000
s off
f 3/3/1 4/4/2 5/5/3 2/2/4 1/1/5
f 8/6/6 9/7/7 10/8/8 7/9/9 6/10/10
f 13/11/11 14/12/12 15/13/13 12/14/14 11/15/15
