# This file uses centimeters as units for non-parametric coordinates.

v 41.981934 -29.324154 0.000000
v 41.509766 29.841911 1.563477
v 41.176270 -29.324154 2.432129
v 41.514648 29.218582 6.686523
v -40.574219 -29.841927 5.183594
v -41.977051 28.696861 6.686523
v -40.574219 -29.841927 2.876465
v -41.981934 29.320190 1.563477
v -29.740234 11.015755 0.000000
v -23.126953 11.043770 5.183594
v 41.655762 11.486275 5.183594
v 41.655762 11.486275 0.000000
v -40.884766 9.100159 5.183594
v -40.885254 9.164383 0.000000
v -41.850098 12.889168 0.096191
v -41.849121 14.552437 5.276855
v 3.466309 -28.889832 5.183594
v 40.102051 -10.323105 5.183594
v 31.228027 -24.108002 5.183594
v 16.743652 27.118256 6.686523
v -11.158203 27.950577 6.686523
v 1.942383 24.638817 6.473633
v 3.007324 28.332863 4.039063
v -40.625977 -23.272625 0.000000
v -32.953125 -29.809654 0.000000
v 2.612793 28.632256 1.563477
vt 0.224266 0.090461
vt 0.224266 0.090461
vt 0.224209 0.098308
vt 0.224211 0.098041
vt 0.192061 0.091772
vt 0.199282 0.090272
vt 0.208950 0.096084
vt 0.203897 0.097499
vt 0.192012 0.097818
vt 0.192061 0.091061
vt 0.192010 0.098085
vt 0.209208 0.097791
vt 0.196731 0.090260
vt 0.209361 0.097663
vt 0.192553 0.072794
vt 0.192433 0.089441
vt 0.192433 0.089469
vt 0.192533 0.075603
vt 0.192553 0.072794
vt 0.224391 0.073016
vt 0.223666 0.081138
vt 0.224081 0.073016
vt 0.195492 0.072808
vt 0.209538 0.073201
vt 0.220244 0.075246
vt 0.214658 0.097143
vt 0.194824 0.094383
vt 0.194824 0.094383
vt 0.194824 0.094383
vt 0.194824 0.094383
vt 0.194824 0.094383
vt 0.194824 0.094383
vt 0.194824 0.094383
vt 0.194824 0.094383
vt 0.194824 0.094383
vt 0.194824 0.094383
vn 0.999968 0.007955 0.000007
vn 0.999968 0.007955 0.000007
vn 0.999968 0.007955 0.000007
vn 0.999968 0.007955 0.000007
vn -0.005781 -0.089583 0.995963
vn -0.005781 -0.089583 0.995963
vn -0.005781 -0.089583 0.995963
vn -0.005781 -0.089583 0.995963
vn -0.005781 -0.089583 0.995963
vn -0.999962 -0.008631 0.001440
vn -0.999962 -0.008631 0.001440
vn -0.999962 -0.008631 0.001440
vn -0.999962 -0.008631 0.001440
vn -0.001016 0.087680 -0.996148
vn 0.001230 0.086916 -0.996215
vn 0.002221 0.086579 -0.996242
vn 0.002221 0.086579 -0.996243
vn -0.012084 0.978948 0.203751
vn -0.006694 0.981074 0.193518
vn 0.016837 0.988761 0.148554
vn 0.016837 0.988761 0.148554
vn 0.016837 0.988761 0.148554
vn -0.999968 -0.007979 -0.000066
vn -0.999968 -0.007979 -0.000066
vn -0.999968 -0.007979 -0.000066
vn -0.999968 -0.007979 -0.000066
vn -0.999968 -0.007979 -0.000066
vn 0.974123 -0.015676 0.225476
vn 0.974122 -0.015676 0.225476
vn 0.974122 -0.015676 0.225476
vn 0.974122 -0.015676 0.225476
vn 0.974123 -0.015676 0.225476
vn -0.325002 -0.381472 -0.865363
vn -0.325002 -0.381472 -0.865363
vn -0.325002 -0.381472 -0.865363
vn -0.000000 0.000000 1.000000
vn -0.000000 0.000000 1.000000
vn -0.000000 0.000000 1.000000
vn -0.000000 0.000000 1.000000
vn -0.129700 0.987800 0.086192
vn -0.129700 0.987800 0.086192
vn -0.129700 0.987800 0.086192
vn -0.129700 0.987800 0.086192
vn -0.164484 -0.951433 0.260230
vn -0.164484 -0.951433 0.260230
vn -0.164484 -0.951433 0.260230
vn -0.164484 -0.951433 0.260230
vn 0.200799 -0.129264 0.971067
vn 0.200799 -0.129264 0.971067
vn 0.200799 -0.129264 0.971067
vn 0.063436 -0.368286 0.927546
vn 0.063436 -0.368286 0.927546
vn 0.063436 -0.368286 0.927546
vn -0.106957 0.568448 0.815737
vn -0.106957 0.568448 0.815737
vn -0.106957 0.568448 0.815737
vn 0.143990 0.515282 0.844838
vn 0.143990 0.515282 0.844838
vn 0.143990 0.515282 0.844838
vn 0.004833 -0.088067 0.996103
vn 0.004833 -0.088067 0.996103
vn 0.004833 -0.088067 0.996103
vn 0.004833 -0.088067 0.996103
vn 0.000653 -0.095660 0.995414
vn 0.000653 -0.095660 0.995414
vn 0.000653 -0.095660 0.995414
vn 0.000000 0.000000 1.000000
vn 0.000000 0.000000 1.000000
vn 0.000000 0.000000 1.000000
vn 0.000000 0.000000 1.000000
vn 0.008911 -0.996903 0.078135
vn 0.008911 -0.996903 0.078135
vn 0.008911 -0.996903 0.078135
vn 0.008911 -0.996903 0.078135
vn 0.008911 -0.996903 0.078135
vn 0.008911 -0.996903 0.078135
vn 0.000000 0.000000 -1.000000
vn 0.000000 0.000000 -1.000000
vn 0.000000 0.000000 -1.000000
vn 0.000000 0.000000 -1.000000
vn 0.000000 0.000000 -1.000000
vn 0.000000 0.000000 -1.000000
vn -0.000000 0.000000 1.000000
vn -0.000000 0.000000 1.000000
vn 0.000000 0.000000 1.000000
vn -0.039653 0.965943 0.255697
vn -0.006694 0.981074 0.193518
vn -0.012084 0.978948 0.203751
vn -0.039653 0.965943 0.255697
vn -0.039653 0.965943 0.255697
vn -0.001337 0.087789 -0.996138
vn 0.001230 0.086916 -0.996215
vn -0.001016 0.087680 -0.996148
vn -0.001337 0.087789 -0.996138
s off
f 11/1/1 12/2/2 2/3/3 4/4/4
f 16/5/5 10/6/6 22/7/7 21/8/8 6/9/9
f 15/10/10 16/5/11 6/9/12 8/11/13
f 26/27/14 9/28/15 15/29/16 8/30/17
f 23/14/18 26/12/19 8/11/20 6/9/21 21/8/22
f 5/15/23 13/16/24 14/17/25 24/18/26 7/19/27
f 1/20/28 12/2/29 11/1/30 18/21/31 3/22/32
f 7/19/33 24/18/34 25/23/35
f 17/24/36 19/25/37 10/6/38 5/15/39
f 14/17/40 13/16/41 10/6/42 9/13/43
f 9/13/44 10/6/45 16/5/46 15/10/47
f 3/22/48 18/21/49 19/25/50
f 3/22/51 19/25/52 17/24/53
f 20/26/54 23/14/55 22/7/56
f 22/7/57 23/14/58 21/8/59
f 22/7/60 11/1/61 4/4/62 20/26/63
f 22/7/64 10/6/65 11/1/66
f 10/6/67 19/25/68 18/21/69 11/1/70
f 7/19/71 25/23/72 1/20/73 3/22/74 17/24/75 5/15/76
f 25/31/77 24/32/78 14/33/79 9/28/80 12/34/81 1/35/82
f 5/15/83 10/6/84 13/16/85
f 2/3/86 26/12/87 23/14/88 20/26/89 4/4/90
f 12/34/91 9/28/92 26/27/93 2/36/94
