# This file uses centimeters as units for non-parametric coordinates.

v 76.842201 22.281162 -0.245003
v 80.008507 32.606861 -1.439423
v 80.127815 48.656368 -0.753563
v 49.174664 48.079266 -1.953743
v 24.323225 46.160755 -1.953743
v -15.186422 47.074230 -1.953743
v -82.537399 45.825710 -1.953743
v -84.579414 37.291271 -1.030281
v -84.579414 22.169453 -1.030281
v -81.199608 19.258350 -1.173683
v -84.579414 12.278736 -0.853935
v -84.579414 -10.195530 -0.583511
v -79.466339 -21.923603 -0.559364
v -77.657219 -44.453205 1.313362
v -54.287018 -45.199360 0.592499
v 64.136246 -48.656368 -3.258152
v 82.878021 -45.537655 -2.767120
v 81.791786 -16.423885 -1.346756
v 77.133339 0.988567 -0.283798
v 81.791786 -16.423885 3.361450
v 64.136246 -48.656368 -0.314697
v 82.878021 -45.537655 -0.662445
v -81.199608 19.258350 2.068604
v 80.008507 32.606861 3.268784
v 24.323225 46.160755 0.947487
v -15.186422 47.074230 0.947487
v -84.579414 37.291271 1.657089
v -84.579414 22.169453 1.657089
v -79.466339 -21.923603 4.148842
v -84.579414 12.278736 1.833427
v -84.579414 -10.195530 2.103859
v 80.127815 48.656368 2.147667
v 49.174664 48.079266 0.947487
v -82.537399 45.825710 0.947487
v -54.287018 -45.199360 3.535950
v 76.842201 22.281162 2.472557
v 77.133339 0.988567 2.433762
v -77.657219 -44.453205 4.256813
v -8.207451 -43.862263 -1.297905
v 17.695917 -13.175774 -4.869701
v -3.863461 17.433750 -0.971718
v -3.743887 17.443714 3.737389
v 17.814558 -13.171616 -0.162094
v -8.074495 -43.863956 1.641739
vt 0.101795 0.329441
vt 0.101795 0.294920
vt 0.101795 0.294920
vt 0.101795 0.329441
vt 0.101795 0.329441
vt 0.101795 0.329441
vt 0.101795 0.329441
vt 0.101795 0.329441
vt 0.101795 0.329441
vt 0.101795 0.306037
vt 0.101795 0.307207
vt 0.101795 0.299601
vt 0.101795 0.300771
vt 0.101795 0.329441
vt 0.101795 0.329441
vt 0.101795 0.300771
vt 0.101795 0.329441
vt 0.101795 0.329441
vt 0.101795 0.297261
vt 0.101795 0.329441
vt 0.101795 0.294920
vt 0.101795 0.294920
vt 0.101795 0.329441
vt 0.101795 0.329441
vt 0.101795 0.329441
vt 0.101795 0.329441
vt 0.101795 0.329441
vt 0.101795 0.329441
vt 0.101795 0.332367
vt 0.101795 0.299601
vt 0.101795 0.307207
vt 0.101795 0.329441
vt 0.101795 0.300771
vt 0.101795 0.329441
vt 0.101795 0.300771
vt 0.101795 0.329441
vt 0.101795 0.329441
vt 0.101795 0.297261
vt 0.101795 0.322420
vt 0.101795 0.336463
vt 0.101795 0.310718
vt 0.101795 0.310718
vt 0.101795 0.336463
vt 0.101795 0.322420
vn 0.040883 -0.135300 0.989961
vn 0.040883 -0.135300 0.989961
vn 0.040883 -0.135300 0.989961
vn -0.011566 0.063018 0.997945
vn -0.011566 0.063018 0.997945
vn -0.011566 0.063018 0.997945
vn -0.011566 0.063018 0.997945
vn -0.011566 0.063018 0.997945
vn -0.243950 0.029153 0.969350
vn -0.243950 0.029153 0.969350
vn -0.243950 0.029153 0.969350
vn -0.243950 0.029153 0.969350
vn -0.025774 0.097894 0.994863
vn -0.025774 0.097894 0.994863
vn -0.025774 0.097894 0.994863
vn -0.025774 0.097894 0.994863
vn -0.001543 0.083226 0.996529
vn -0.001543 0.083226 0.996529
vn -0.001543 0.083226 0.996529
vn -0.012740 -0.020930 0.999700
vn -0.012740 -0.020930 0.999700
vn -0.012740 -0.020930 0.999700
vn -0.012740 -0.020930 0.999700
vn 0.031062 0.007284 0.999491
vn 0.031062 0.007284 0.999491
vn 0.031062 0.007284 0.999491
vn 0.020629 -0.083153 0.996323
vn 0.001229 -0.075533 0.997143
vn 0.004960 -0.077001 0.997019
vn 0.017945 0.049389 -0.998618
vn 0.017945 0.049389 -0.998618
vn 0.017945 0.049389 -0.998618
vn -0.004443 -0.018524 -0.999819
vn -0.004443 -0.018524 -0.999819
vn -0.004443 -0.018524 -0.999819
vn -0.004443 -0.018524 -0.999819
vn -0.004443 -0.018523 -0.999819
vn -0.043190 -0.015060 -0.998953
vn -0.043190 -0.015060 -0.998953
vn -0.043190 -0.015060 -0.998953
vn -0.043190 -0.015060 -0.998953
vn 0.021106 0.008829 -0.999738
vn 0.021106 0.008829 -0.999738
vn 0.021106 0.008829 -0.999738
vn 0.021106 0.008829 -0.999738
vn 0.002003 -0.108050 -0.994143
vn 0.002003 -0.108050 -0.994144
vn 0.002003 -0.108050 -0.994144
vn 0.009504 -0.032954 -0.999412
vn 0.009504 -0.032954 -0.999412
vn 0.009504 -0.032954 -0.999412
vn 0.009504 -0.032954 -0.999412
vn 0.016132 -0.119773 -0.992670
vn 0.024006 0.042853 -0.998793
vn 0.025791 0.081496 -0.996340
vn -0.033444 -0.085458 -0.995780
vn -0.033444 -0.085458 -0.995780
vn -0.033444 -0.085458 -0.995780
vn 0.164147 -0.986436 0.000000
vn 0.164147 -0.986436 0.000000
vn 0.164147 -0.986436 0.000000
vn 0.164147 -0.986436 0.000000
vn 0.999305 0.037284 0.000000
vn 0.999305 0.037284 0.000000
vn 0.999305 0.037284 0.000000
vn 0.999305 0.037284 0.000000
vn 0.023114 0.999733 0.000000
vn 0.023114 0.999733 0.000000
vn 0.023114 0.999733 0.000000
vn 0.023114 0.999733 0.000000
vn -1.000000 0.000000 0.000000
vn -1.000000 0.000000 0.000000
vn -1.000000 0.000000 0.000000
vn -1.000000 0.000000 0.000000
vn -0.652615 -0.757690 0.000000
vn -0.652615 -0.757690 0.000000
vn -0.652615 -0.757690 0.000000
vn -0.652615 -0.757690 0.000000
vn -0.900029 0.435830 0.000000
vn -0.900029 0.435830 0.000000
vn -0.900029 0.435830 0.000000
vn -0.900029 0.435830 0.000000
vn -1.000000 0.000000 0.000000
vn -1.000000 0.000000 0.000000
vn -1.000000 0.000000 0.000000
vn -1.000000 0.000000 0.000000
vn -0.916672 -0.399640 0.000000
vn -0.916672 -0.399640 0.000000
vn -0.916672 -0.399640 0.000000
vn -0.916672 -0.399640 0.000000
vn 0.999972 -0.007434 0.000000
vn 0.999972 -0.007434 0.000000
vn 0.999972 -0.007434 0.000000
vn 0.999972 -0.007434 0.000000
vn -0.018641 0.999826 0.000000
vn -0.018641 0.999826 0.000000
vn -0.018641 0.999826 0.000000
vn -0.018641 0.999826 0.000000
vn -0.076970 0.997033 0.000000
vn -0.076970 0.997033 0.000000
vn -0.076970 0.997033 0.000000
vn -0.076970 0.997033 0.000000
vn -0.018534 0.999828 0.000000
vn -0.018534 0.999828 0.000000
vn -0.018534 0.999828 0.000000
vn -0.018534 0.999828 0.000000
vn -0.972549 0.232700 0.000000
vn -0.972548 0.232700 0.000000
vn -0.972549 0.232700 0.000000
vn -0.972549 0.232700 0.000000
vn 0.028906 -0.999582 -0.000943
vn 0.028906 -0.999582 -0.000943
vn 0.028906 -0.999582 -0.000943
vn 0.028906 -0.999582 -0.000943
vn 0.956060 -0.293170 0.000000
vn 0.956060 -0.293170 0.000000
vn 0.956060 -0.293170 0.000000
vn 0.956060 -0.293170 0.000000
vn 0.966026 0.258446 0.000000
vn 0.966026 0.258446 0.000000
vn 0.966026 0.258446 0.000000
vn 0.966026 0.258446 0.000000
vn 0.999907 0.013672 0.000000
vn 0.999907 0.013672 0.000000
vn 0.999907 0.013672 0.000000
vn 0.999907 0.013672 0.000000
vn -0.996792 -0.080042 0.000000
vn -0.996791 -0.080042 0.000000
vn -0.996792 -0.080042 0.000000
vn -0.996792 -0.080042 0.000000
vn -0.031911 -0.999491 0.000000
vn -0.031911 -0.999491 0.000000
vn -0.031911 -0.999491 0.000000
vn -0.031911 -0.999491 0.000000
vn -0.008329 0.104755 0.994463
vn -0.008329 0.104754 0.994463
vn -0.008329 0.104754 0.994463
vn -0.008329 0.104754 0.994463
vn 0.041685 0.021495 0.998900
vn 0.041685 0.021495 0.998900
vn 0.041685 0.021495 0.998900
vn 0.041685 0.021495 0.998900
vn 0.015916 -0.020167 0.999670
vn 0.015916 -0.020167 0.999670
vn 0.015916 -0.020167 0.999670
vn 0.015916 -0.020167 0.999670
vn 0.000181 -0.034342 -0.999410
vn 0.000181 -0.034342 -0.999410
vn 0.000181 -0.034342 -0.999410
vn 0.000181 -0.034342 -0.999410
vn -0.036995 -0.086651 -0.995552
vn -0.036995 -0.086651 -0.995552
vn -0.036995 -0.086651 -0.995552
vn -0.036995 -0.086651 -0.995552
vn -0.025011 0.037578 -0.998981
vn -0.025011 0.037578 -0.998981
vn -0.025011 0.037578 -0.998981
vn -0.025011 0.037578 -0.998981
vn -0.066140 -0.997810 0.001208
vn -0.066140 -0.997810 0.001208
vn -0.066140 -0.997810 0.001208
vn -0.066140 -0.997810 0.001208
vn 0.004960 -0.077001 0.997019
vn 0.001229 -0.075533 0.997143
vn -0.001420 -0.070758 0.997493
vn -0.010202 -0.052141 0.998588
vn -0.010202 -0.052141 0.998588
vn -0.001420 -0.070758 0.997493
vn -0.052974 0.038990 0.997834
vn 0.025791 0.081496 -0.996340
vn 0.024006 0.042853 -0.998793
vn 0.032640 0.084458 -0.995892
vn 0.027335 0.086090 -0.995912
vn 0.027335 0.086090 -0.995912
vn 0.032640 0.084458 -0.995892
vn 0.058582 0.076435 -0.995352
s off
f 20/1/1 21/2/2 22/3/3
f 23/4/4 42/42/5 26/7/6 27/8/7 28/9/8
f 29/10/9 23/4/10 30/11/11 31/12/12
f 25/6/13 24/5/14 32/13/15 33/14/16
f 27/8/17 26/7/18 34/15/19
f 20/1/20 43/43/21 44/44/22 21/2/23
f 35/16/24 29/10/25 38/19/26
f 24/5/27 42/42/28 36/17/29
f 18/20/30 17/21/31 16/22/32
f 10/23/33 9/24/34 8/25/35 6/26/36 41/41/37
f 13/29/38 12/30/39 11/31/40 10/23/41
f 5/27/42 4/32/43 3/33/44 2/28/45
f 8/25/46 7/34/47 6/26/48
f 18/20/49 16/22/50 39/39/51 40/40/52
f 2/28/53 1/36/54 41/41/55
f 15/35/56 14/38/57 13/29/58
f 16/22/59 17/21/60 22/3/61 21/2/62
f 22/3/63 17/21/64 18/20/65 20/1/66
f 5/27/67 6/26/68 26/7/69 25/6/70
f 8/25/71 9/24/72 28/9/73 27/8/74
f 9/24/75 10/23/76 23/4/77 28/9/78
f 10/23/79 11/31/80 30/11/81 23/4/82
f 11/31/83 12/30/84 31/12/85 30/11/86
f 12/30/87 13/29/88 29/10/89 31/12/90
f 2/28/91 3/33/92 32/13/93 24/5/94
f 3/33/95 4/32/96 33/14/97 32/13/98
f 4/32/99 5/27/100 25/6/101 33/14/102
f 26/7/103 6/26/104 7/34/105 34/15/106
f 7/34/107 8/25/108 27/8/109 34/15/110
f 15/35/111 39/39/112 44/44/113 35/16/114
f 1/36/115 2/28/116 24/5/117 36/17/118
f 18/20/119 19/37/120 37/18/121 20/1/122
f 19/37/123 1/36/124 36/17/125 37/18/126
f 13/29/127 14/38/128 38/19/129 29/10/130
f 14/38/131 15/35/132 35/16/133 38/19/134
f 26/7/135 42/42/136 24/5/137 25/6/138
f 44/44/139 43/43/140 29/10/141 35/16/142
f 43/43/143 42/42/144 23/4/145 29/10/146
f 41/41/147 6/26/148 5/27/149 2/28/150
f 40/40/151 39/39/152 15/35/153 13/29/154
f 41/41/155 40/40/156 13/29/157 10/23/158
f 44/44/159 39/39/160 16/22/161 21/2/162
f 36/17/163 42/42/164 43/43/165 37/18/166
f 37/18/167 43/43/168 20/1/169
f 41/41/170 1/36/171 19/37/172 40/40/173
f 40/40/174 19/37/175 18/20/176
