# This file uses centimeters as units for non-parametric coordinates.

v 27.294006 15.758286 13.433838
v 15.758362 27.294159 13.434143
v 0.000000 31.516495 13.434143
v -15.758209 27.294159 13.434143
v -27.294159 15.758286 13.433838
v -31.516724 0.000000 13.433838
v -27.294159 -15.758209 13.433838
v -15.758209 -27.294064 13.434143
v 0.000000 -31.516476 13.434143
v 15.758362 -27.294064 13.433838
v 27.294006 -15.758209 13.433838
v 31.516418 0.000000 13.433838
v 22.651909 13.078156 5.515442
v 13.078087 22.652054 5.515442
v 0.000000 26.156311 5.515442
v -13.078079 22.651978 5.515442
v -22.652054 13.078156 5.515442
v -26.156235 0.000000 5.515442
v -22.652054 -13.078117 5.515442
v -13.078079 -22.651978 5.515442
v 0.000000 -26.156254 5.515442
v 13.078087 -22.651978 5.515442
v 22.651909 -13.078117 5.515442
v 26.156395 0.000000 5.515442
v 22.676315 13.092270 -18.931580
v 13.092194 22.676392 -18.931580
v 0.000000 26.184464 -18.931580
v -13.092117 22.676468 -18.931580
v -22.676468 13.092270 -18.931580
v -26.184540 0.000000 -18.931580
v -22.676468 -13.092232 -18.931580
v -13.092117 -22.676392 -18.931580
v 0.000000 -26.184423 -18.931580
v 13.092194 -22.676392 -18.931580
v 22.676315 -13.092232 -18.931580
v 26.184227 0.000000 -18.931580
v 43.546440 25.141678 -18.931580
v 25.141754 43.546524 -18.931580
v 0.000000 50.283203 -18.931580
v -25.141602 43.546524 -18.931580
v -43.546600 25.141678 -18.931580
v -50.283279 0.000000 -18.931580
v -43.546600 -25.141581 -18.931580
v -25.141678 -43.546505 -18.931580
v 0.000000 -50.283234 -18.931580
v 25.141754 -43.546505 -18.931580
v 43.546440 -25.141581 -18.931580
v 50.283195 0.000000 -18.931580
v 44.294586 25.573502 14.435425
v 25.573578 44.294662 14.435425
v 0.000000 51.147079 14.435425
v -25.573425 44.294662 14.435425
v -44.294586 25.573502 14.435425
v -51.147156 0.000000 14.435425
v -44.294586 -25.573502 14.435425
v -25.573425 -44.294655 14.435425
v 0.000000 -51.147022 14.435425
v 25.573578 -44.294624 14.435425
v 44.294586 -25.573502 14.435425
v 51.147308 0.000000 14.435425
v 0.000000 0.000000 -18.931580
v 11.231537 19.453201 17.851563
v 19.453278 11.231308 17.851563
v 0.000000 22.462540 17.851563
v -11.231232 19.453201 17.851563
v -19.453278 11.231308 17.851563
v -22.462616 0.000000 17.851563
v -19.453278 -11.231270 17.851563
v -11.231232 -19.453125 17.851563
v 0.000000 -22.462578 17.851563
v 11.231537 -19.453125 17.851563
v 19.453278 -11.231270 17.851563
v 22.462616 0.000000 17.851563
v 7.291107 12.628784 17.789917
v 12.628784 7.291222 17.789917
v 0.000000 0.000000 17.618408
v 0.000000 14.582443 17.789917
v -7.291260 12.628784 17.789917
v -12.628784 7.291222 17.789917
v -14.582520 0.000000 17.789917
v -12.628784 -7.291145 17.789917
v -7.291260 -12.628670 17.789917
v 0.000000 -14.582367 17.789917
v 7.291107 -12.628670 17.789917
v 12.628784 -7.291145 17.789917
v 14.582367 0.000000 17.789917
vt 0.960942 0.038211
vt 0.953663 0.045570
vt 0.950806 0.042796
vt 0.956792 0.036744
vt 0.943537 0.048279
vt 0.942479 0.045025
vt 0.933306 0.045615
vt 0.934064 0.042838
vt 0.925723 0.038319
vt 0.927822 0.036838
vt 0.922801 0.028369
vt 0.925414 0.028649
vt 0.925295 0.018426
vt 0.927465 0.020461
vt 0.932525 0.011127
vt 0.933418 0.014451
vt 0.942572 0.008407
vt 0.941690 0.012213
vt 0.952772 0.010997
vt 0.950085 0.014351
vt 0.960404 0.018232
vt 0.956360 0.020309
vt 0.963405 0.028194
vt 0.958822 0.028506
vt 0.083249 0.042789
vt 0.083249 0.042789
vt 0.083249 0.042789
vt 0.083249 0.042789
vt 0.083249 0.042789
vt 0.083249 0.042789
vt 0.083249 0.042789
vt 0.083249 0.042789
vt 0.083249 0.042789
vt 0.083249 0.042789
vt 0.083249 0.042789
vt 0.083249 0.042789
vt 0.083249 0.042789
vt 0.083249 0.042789
vt 0.083249 0.042789
vt 0.083249 0.042789
vt 0.083249 0.042789
vt 0.083249 0.042789
vt 0.083249 0.042789
vt 0.083249 0.042789
vt 0.083249 0.042789
vt 0.083249 0.042789
vt 0.083249 0.042789
vt 0.083249 0.042789
vt 0.083249 0.042789
vt 0.083249 0.042789
vt 0.083249 0.042789
vt 0.083249 0.042789
vt 0.083249 0.042789
vt 0.083249 0.042789
vt 0.083249 0.042789
vt 0.083249 0.042789
vt 0.083249 0.042789
vt 0.083249 0.042789
vt 0.083249 0.042789
vt 0.083249 0.042789
vt 0.083249 0.042789
vt 0.083249 0.042789
vt 0.083249 0.042789
vt 0.083249 0.042789
vt 0.083249 0.042789
vt 0.083249 0.042789
vt 0.083249 0.042789
vt 0.083249 0.042789
vt 0.083249 0.042789
vt 0.083249 0.042789
vt 0.083249 0.042789
vt 0.083249 0.042789
vt 0.951192 0.040481
vt 0.956400 0.035217
vt 0.943948 0.042422
vt 0.936624 0.040522
vt 0.931187 0.035303
vt 0.929086 0.028177
vt 0.930869 0.021049
vt 0.936051 0.015816
vt 0.943254 0.013869
vt 0.950563 0.015731
vt 0.956025 0.020918
vt 0.958167 0.028051
vt 0.951894 0.032723
vt 0.948516 0.036136
vt 0.943571 0.028123
vt 0.943818 0.037397
vt 0.939065 0.036168
vt 0.935534 0.032784
vt 0.934165 0.028157
vt 0.935320 0.023526
vt 0.938687 0.020125
vt 0.943368 0.018862
vt 0.948114 0.020075
vt 0.951657 0.023446
vt 0.953042 0.028076
vt 0.947692 0.043333
vt 0.953532 0.037430
vt 0.939193 0.029462
vt 0.939572 0.045507
vt 0.931367 0.043373
vt 0.925282 0.037519
vt 0.922936 0.029529
vt 0.924940 0.021540
vt 0.930748 0.015677
vt 0.938817 0.013494
vt 0.947002 0.015581
vt 0.953119 0.021396
vt 0.955516 0.029394
vn -0.591822 -0.591822 0.547260
vn -0.591822 -0.591822 0.547260
vn -0.591822 -0.591822 0.547260
vn -0.591822 -0.591822 0.547260
vn -0.216621 -0.808452 0.547248
vn -0.216621 -0.808452 0.547248
vn -0.216621 -0.808452 0.547248
vn -0.216621 -0.808452 0.547248
vn 0.216624 -0.808451 0.547249
vn 0.216624 -0.808451 0.547249
vn 0.216624 -0.808451 0.547249
vn 0.216624 -0.808451 0.547249
vn 0.591816 -0.591830 0.547258
vn 0.591816 -0.591830 0.547258
vn 0.591816 -0.591830 0.547258
vn 0.591816 -0.591830 0.547258
vn 0.808436 -0.216621 0.547272
vn 0.808436 -0.216621 0.547272
vn 0.808436 -0.216621 0.547272
vn 0.808436 -0.216621 0.547272
vn 0.808436 0.216622 0.547271
vn 0.808436 0.216622 0.547271
vn 0.808436 0.216622 0.547271
vn 0.808436 0.216622 0.547271
vn 0.591818 0.591831 0.547255
vn 0.591818 0.591831 0.547255
vn 0.591818 0.591831 0.547255
vn 0.591818 0.591831 0.547255
vn 0.216625 0.808452 0.547247
vn 0.216625 0.808452 0.547247
vn 0.216625 0.808452 0.547247
vn 0.216625 0.808452 0.547247
vn -0.216617 0.808448 0.547256
vn -0.216617 0.808448 0.547256
vn -0.216617 0.808448 0.547256
vn -0.216617 0.808448 0.547256
vn -0.591823 0.591816 0.547265
vn -0.591823 0.591816 0.547265
vn -0.591823 0.591816 0.547265
vn -0.591823 0.591816 0.547265
vn -0.808446 0.216629 0.547255
vn -0.808446 0.216629 0.547255
vn -0.808446 0.216629 0.547255
vn -0.808446 0.216629 0.547255
vn -0.808446 -0.216628 0.547255
vn -0.808446 -0.216628 0.547255
vn -0.808446 -0.216628 0.547255
vn -0.808446 -0.216628 0.547255
vn -0.258739 0.965624 -0.025000
vn -0.258739 0.965624 -0.025000
vn -0.258739 0.965624 -0.025000
vn -0.258739 0.965624 -0.025000
vn 0.258738 0.965624 -0.025000
vn 0.258738 0.965624 -0.025000
vn 0.258738 0.965624 -0.025000
vn 0.258738 0.965624 -0.025000
vn 0.706889 0.706883 -0.024998
vn 0.706889 0.706883 -0.024998
vn 0.706889 0.706883 -0.024998
vn 0.706889 0.706883 -0.024998
vn 0.965622 0.258745 -0.025003
vn 0.965622 0.258745 -0.025003
vn 0.965622 0.258745 -0.025003
vn 0.965622 0.258745 -0.025003
vn 0.965622 -0.258745 -0.025004
vn 0.965622 -0.258745 -0.025004
vn 0.965622 -0.258745 -0.025004
vn 0.965622 -0.258745 -0.025004
vn 0.706889 -0.706882 -0.024999
vn 0.706889 -0.706883 -0.024999
vn 0.706889 -0.706882 -0.024999
vn 0.706889 -0.706882 -0.024999
vn 0.258738 -0.965624 -0.024998
vn 0.258738 -0.965624 -0.024998
vn 0.258738 -0.965624 -0.024998
vn 0.258738 -0.965624 -0.024998
vn -0.258739 -0.965624 -0.024998
vn -0.258739 -0.965624 -0.024998
vn -0.258739 -0.965624 -0.024998
vn -0.258739 -0.965624 -0.024998
vn -0.706886 -0.706886 -0.024996
vn -0.706886 -0.706886 -0.024996
vn -0.706886 -0.706886 -0.024996
vn -0.706886 -0.706886 -0.024996
vn -0.965623 -0.258741 -0.024998
vn -0.965623 -0.258741 -0.024998
vn -0.965623 -0.258741 -0.024998
vn -0.965623 -0.258741 -0.024998
vn -0.965623 0.258741 -0.024997
vn -0.965623 0.258741 -0.024997
vn -0.965623 0.258741 -0.024997
vn -0.965623 0.258741 -0.024997
vn -0.706884 0.706887 -0.024996
vn -0.706884 0.706887 -0.024996
vn -0.706884 0.706887 -0.024996
vn -0.706884 0.706887 -0.024996
vn -0.037288 -0.037298 0.998608
vn -0.037288 -0.037298 0.998608
vn -0.037288 -0.037298 0.998608
vn -0.037288 -0.037298 0.998608
vn -0.013648 -0.050935 0.998609
vn -0.013648 -0.050935 0.998609
vn -0.013648 -0.050935 0.998609
vn -0.013648 -0.050935 0.998609
vn 0.013648 -0.050935 0.998609
vn 0.013648 -0.050935 0.998609
vn 0.013648 -0.050935 0.998609
vn 0.013648 -0.050935 0.998609
vn 0.037288 -0.037298 0.998608
vn 0.037288 -0.037298 0.998608
vn 0.037288 -0.037298 0.998608
vn 0.037288 -0.037298 0.998608
vn 0.050951 -0.013653 0.998608
vn 0.050951 -0.013653 0.998608
vn 0.050951 -0.013653 0.998608
vn 0.050951 -0.013653 0.998608
vn 0.050951 0.013653 0.998608
vn 0.050951 0.013653 0.998608
vn 0.050951 0.013653 0.998608
vn 0.050951 0.013653 0.998608
vn 0.037288 0.037298 0.998608
vn 0.037288 0.037298 0.998608
vn 0.037288 0.037298 0.998608
vn 0.037288 0.037298 0.998608
vn 0.013648 0.050935 0.998609
vn 0.013648 0.050935 0.998609
vn 0.013648 0.050935 0.998609
vn 0.013648 0.050935 0.998609
vn -0.013643 0.050945 0.998608
vn -0.013643 0.050945 0.998608
vn -0.013643 0.050945 0.998608
vn -0.013643 0.050945 0.998608
vn -0.037299 0.037298 0.998608
vn -0.037299 0.037298 0.998608
vn -0.037299 0.037298 0.998608
vn -0.037299 0.037298 0.998608
vn -0.050950 0.013652 0.998608
vn -0.050950 0.013652 0.998608
vn -0.050950 0.013652 0.998608
vn -0.050950 0.013652 0.998608
vn -0.050950 -0.013652 0.998608
vn -0.050950 -0.013652 0.998608
vn -0.050950 -0.013652 0.998608
vn -0.050950 -0.013652 0.998608
vn 0.000000 0.000000 -1.000000
vn 0.000000 0.000000 -1.000000
vn 0.000000 0.000000 -1.000000
vn 0.000000 0.000000 -1.000000
vn -0.000000 0.000000 -1.000000
vn -0.000000 0.000000 -1.000000
vn -0.000000 0.000000 -1.000000
vn -0.000000 0.000000 -1.000000
vn 0.000000 0.000000 -1.000000
vn 0.000000 0.000000 -1.000000
vn 0.000000 0.000000 -1.000000
vn 0.000000 0.000000 -1.000000
vn 0.000000 0.000000 -1.000000
vn 0.000000 0.000000 -1.000000
vn 0.000000 0.000000 -1.000000
vn 0.000000 0.000000 -1.000000
vn 0.000000 0.000000 -1.000000
vn 0.000000 0.000000 -1.000000
vn 0.000000 0.000000 -1.000000
vn 0.000000 0.000000 -1.000000
vn 0.000000 0.000000 -1.000000
vn 0.000000 0.000000 -1.000000
vn 0.000000 0.000000 -1.000000
vn 0.000000 0.000000 -1.000000
vn -0.000000 0.000000 -1.000000
vn -0.000000 0.000000 -1.000000
vn -0.000000 0.000000 -1.000000
vn -0.000000 0.000000 -1.000000
vn -0.000000 0.000000 -1.000000
vn -0.000000 0.000000 -1.000000
vn -0.000000 0.000000 -1.000000
vn -0.000000 0.000000 -1.000000
vn -0.000000 0.000000 -1.000000
vn -0.000000 0.000000 -1.000000
vn -0.000000 0.000000 -1.000000
vn -0.000000 0.000000 -1.000000
vn 0.000000 0.000000 -1.000000
vn 0.000000 0.000000 -1.000000
vn 0.000000 0.000000 -1.000000
vn 0.000000 0.000000 -1.000000
vn -0.000000 0.000000 -1.000000
vn -0.000000 0.000000 -1.000000
vn -0.000000 0.000000 -1.000000
vn -0.000000 0.000000 -1.000000
vn -0.000000 0.000000 -1.000000
vn -0.000000 0.000000 -1.000000
vn -0.000000 0.000000 -1.000000
vn -0.000000 0.000000 -1.000000
vn 0.679275 0.679266 0.277820
vn 0.679275 0.679266 0.277820
vn 0.679275 0.679266 0.277820
vn 0.679275 0.679266 0.277820
vn 0.248624 0.927898 0.277832
vn 0.248624 0.927898 0.277832
vn 0.248624 0.927898 0.277832
vn 0.248624 0.927898 0.277832
vn -0.248630 0.927897 0.277833
vn -0.248630 0.927897 0.277833
vn -0.248630 0.927897 0.277833
vn -0.248630 0.927897 0.277833
vn -0.679263 0.679274 0.277829
vn -0.679263 0.679274 0.277829
vn -0.679263 0.679274 0.277829
vn -0.679263 0.679274 0.277829
vn -0.927900 0.248623 0.277827
vn -0.927900 0.248623 0.277827
vn -0.927900 0.248623 0.277827
vn -0.927900 0.248623 0.277827
vn -0.927900 -0.248624 0.277827
vn -0.927900 -0.248624 0.277827
vn -0.927900 -0.248624 0.277827
vn -0.927900 -0.248624 0.277827
vn -0.679262 -0.679274 0.277831
vn -0.679262 -0.679274 0.277831
vn -0.679262 -0.679274 0.277831
vn -0.679262 -0.679274 0.277831
vn -0.248632 -0.927896 0.277832
vn -0.248632 -0.927896 0.277832
vn -0.248632 -0.927896 0.277832
vn -0.248632 -0.927896 0.277832
vn 0.248629 -0.927898 0.277829
vn 0.248629 -0.927898 0.277829
vn 0.248629 -0.927898 0.277829
vn 0.248629 -0.927898 0.277829
vn 0.679273 -0.679267 0.277820
vn 0.679273 -0.679267 0.277820
vn 0.679273 -0.679267 0.277820
vn 0.679273 -0.679267 0.277820
vn 0.927897 -0.248635 0.277828
vn 0.927897 -0.248635 0.277828
vn 0.927897 -0.248635 0.277828
vn 0.927897 -0.248635 0.277828
vn 0.927897 0.248634 0.277828
vn 0.927897 0.248634 0.277828
vn 0.927897 0.248634 0.277828
vn 0.927897 0.248634 0.277828
vn -0.008609 -0.008609 0.999926
vn -0.008609 -0.008609 0.999926
vn -0.008609 -0.008609 0.999926
vn -0.003151 -0.011760 0.999926
vn -0.003151 -0.011760 0.999926
vn -0.003151 -0.011760 0.999926
vn 0.003151 -0.011760 0.999926
vn 0.003151 -0.011760 0.999926
vn 0.003151 -0.011760 0.999926
vn 0.008609 -0.008609 0.999926
vn 0.008609 -0.008609 0.999926
vn 0.008609 -0.008609 0.999926
vn 0.011760 -0.003151 0.999926
vn 0.011760 -0.003151 0.999926
vn 0.011760 -0.003151 0.999926
vn 0.011761 0.003151 0.999926
vn 0.011761 0.003151 0.999926
vn 0.011761 0.003151 0.999926
vn 0.008609 0.008609 0.999926
vn 0.008609 0.008609 0.999926
vn 0.008609 0.008609 0.999926
vn 0.003151 0.011761 0.999926
vn 0.003151 0.011761 0.999926
vn 0.003151 0.011761 0.999926
vn -0.003151 0.011761 0.999926
vn -0.003151 0.011761 0.999926
vn -0.003151 0.011761 0.999926
vn -0.008609 0.008609 0.999926
vn -0.008609 0.008609 0.999926
vn -0.008609 0.008609 0.999926
vn -0.011761 0.003151 0.999926
vn -0.011761 0.003151 0.999926
vn -0.011761 0.003151 0.999926
vn -0.011760 -0.003151 0.999926
vn -0.011760 -0.003151 0.999926
vn -0.011760 -0.003151 0.999926
vn 0.000000 0.000000 -1.000000
vn 0.000000 0.000000 -1.000000
vn 0.000000 0.000000 -1.000000
vn 0.000000 0.000000 -1.000000
vn 0.000000 0.000000 -1.000000
vn 0.000000 0.000000 -1.000000
vn 0.000000 0.000000 -1.000000
vn 0.000000 0.000000 -1.000000
vn 0.000000 0.000000 -1.000000
vn -0.000000 0.000000 -1.000000
vn -0.000000 0.000000 -1.000000
vn -0.000000 0.000000 -1.000000
vn 0.000000 0.000000 -1.000000
vn 0.000000 0.000000 -1.000000
vn 0.000000 0.000000 -1.000000
vn 0.000000 0.000000 -1.000000
vn 0.000000 0.000000 -1.000000
vn 0.000000 0.000000 -1.000000
vn 0.000000 0.000000 -1.000000
vn 0.000000 0.000000 -1.000000
vn 0.000000 0.000000 -1.000000
vn 0.000000 0.000000 -1.000000
vn 0.000000 0.000000 -1.000000
vn 0.000000 0.000000 -1.000000
vn 0.000000 0.000000 -1.000000
vn 0.000000 0.000000 -1.000000
vn 0.000000 0.000000 -1.000000
vn 0.000000 0.000000 -1.000000
vn 0.000000 0.000000 -1.000000
vn 0.000000 0.000000 -1.000000
vn 0.000000 0.000000 -1.000000
vn 0.000000 0.000000 -1.000000
vn 0.000000 0.000000 -1.000000
vn 0.000000 0.000000 -1.000000
vn 0.000000 0.000000 -1.000000
vn 0.000000 0.000000 -1.000000
vn -0.005726 -0.005726 0.999967
vn -0.005726 -0.005726 0.999967
vn -0.005726 -0.005726 0.999967
vn -0.005726 -0.005726 0.999967
vn -0.002096 -0.007823 0.999967
vn -0.002096 -0.007823 0.999967
vn -0.002096 -0.007823 0.999967
vn -0.002096 -0.007823 0.999967
vn 0.002096 -0.007823 0.999967
vn 0.002096 -0.007823 0.999967
vn 0.002096 -0.007823 0.999967
vn 0.002096 -0.007823 0.999967
vn 0.005727 -0.005727 0.999967
vn 0.005727 -0.005727 0.999967
vn 0.005727 -0.005727 0.999967
vn 0.005727 -0.005727 0.999967
vn 0.007823 -0.002096 0.999967
vn 0.007823 -0.002096 0.999967
vn 0.007823 -0.002096 0.999967
vn 0.007823 -0.002096 0.999967
vn 0.007823 0.002096 0.999967
vn 0.007823 0.002096 0.999967
vn 0.007823 0.002096 0.999967
vn 0.007823 0.002096 0.999967
vn 0.005727 0.005727 0.999967
vn 0.005727 0.005727 0.999967
vn 0.005727 0.005727 0.999967
vn 0.005727 0.005727 0.999967
vn 0.002096 0.007823 0.999967
vn 0.002096 0.007823 0.999967
vn 0.002096 0.007823 0.999967
vn 0.002096 0.007823 0.999967
vn -0.002096 0.007823 0.999967
vn -0.002096 0.007823 0.999967
vn -0.002096 0.007823 0.999967
vn -0.002096 0.007823 0.999967
vn -0.005726 0.005726 0.999967
vn -0.005726 0.005726 0.999967
vn -0.005726 0.005726 0.999967
vn -0.005726 0.005726 0.999967
vn -0.007822 0.002096 0.999967
vn -0.007822 0.002096 0.999967
vn -0.007822 0.002096 0.999967
vn -0.007822 0.002096 0.999967
vn -0.007823 -0.002096 0.999967
vn -0.007823 -0.002096 0.999967
vn -0.007823 -0.002096 0.999967
vn -0.007823 -0.002096 0.999967
s off
f 1/1/1 2/2/2 14/3/3 13/4/4
f 2/2/5 3/5/6 15/6/7 14/3/8
f 3/5/9 4/7/10 16/8/11 15/6/12
f 4/7/13 5/9/14 17/10/15 16/8/16
f 5/9/17 6/11/18 18/12/19 17/10/20
f 6/11/21 7/13/22 19/14/23 18/12/24
f 7/13/25 8/15/26 20/16/27 19/14/28
f 8/15/29 9/17/30 21/18/31 20/16/32
f 9/17/33 10/19/34 22/20/35 21/18/36
f 10/19/37 11/21/38 23/22/39 22/20/40
f 11/21/41 12/23/42 24/24/43 23/22/44
f 12/23/45 1/1/46 13/4/47 24/24/48
f 52/37/49 51/38/50 39/27/51 40/28/52
f 51/38/53 50/39/54 38/26/55 39/27/56
f 50/39/57 49/40/58 37/25/59 38/26/60
f 49/40/61 60/41/62 48/36/63 37/25/64
f 60/41/65 59/42/66 47/35/67 48/36/68
f 59/42/69 58/43/70 46/34/71 47/35/72
f 58/43/73 57/44/74 45/33/75 46/34/76
f 57/44/77 56/45/78 44/32/79 45/33/80
f 56/45/81 55/46/82 43/31/83 44/32/84
f 55/46/85 54/47/86 42/30/87 43/31/88
f 54/47/89 53/48/90 41/29/91 42/30/92
f 53/48/93 52/37/94 40/28/95 41/29/96
f 49/40/97 50/39/98 2/49/99 1/50/100
f 50/39/101 51/38/102 3/51/103 2/49/104
f 51/38/105 52/37/106 4/52/107 3/51/108
f 52/37/109 53/48/110 5/53/111 4/52/112
f 53/48/113 54/47/114 6/54/115 5/53/116
f 54/47/117 55/46/118 7/55/119 6/54/120
f 55/46/121 56/45/122 8/56/123 7/55/124
f 56/45/125 57/44/126 9/57/127 8/56/128
f 57/44/129 58/43/130 10/58/131 9/57/132
f 58/43/133 59/42/134 11/59/135 10/58/136
f 59/42/137 60/41/138 12/60/139 11/59/140
f 60/41/141 49/40/142 1/50/143 12/60/144
f 38/26/145 37/25/146 25/61/147 26/62/148
f 39/27/149 38/26/150 26/62/151 27/63/152
f 40/28/153 39/27/154 27/63/155 28/64/156
f 41/29/157 40/28/158 28/64/159 29/65/160
f 42/30/161 41/29/162 29/65/163 30/66/164
f 43/31/165 42/30/166 30/66/167 31/67/168
f 44/32/169 43/31/170 31/67/171 32/68/172
f 45/33/173 44/32/174 32/68/175 33/69/176
f 46/34/177 45/33/178 33/69/179 34/70/180
f 47/35/181 46/34/182 34/70/183 35/71/184
f 48/36/185 47/35/186 35/71/187 36/72/188
f 37/25/189 48/36/190 36/72/191 25/61/192
f 13/4/193 14/3/194 62/73/195 63/74/196
f 14/3/197 15/6/198 64/75/199 62/73/200
f 15/6/201 16/8/202 65/76/203 64/75/204
f 16/8/205 17/10/206 66/77/207 65/76/208
f 17/10/209 18/12/210 67/78/211 66/77/212
f 18/12/213 19/14/214 68/79/215 67/78/216
f 19/14/217 20/16/218 69/80/219 68/79/220
f 20/16/221 21/18/222 70/81/223 69/80/224
f 21/18/225 22/20/226 71/82/227 70/81/228
f 22/20/229 23/22/230 72/83/231 71/82/232
f 23/22/233 24/24/234 73/84/235 72/83/236
f 24/24/237 13/4/238 63/74/239 73/84/240
f 75/85/241 74/86/242 76/87/243
f 74/86/244 77/88/245 76/87/246
f 77/88/247 78/89/248 76/87/249
f 78/89/250 79/90/251 76/87/252
f 79/90/253 80/91/254 76/87/255
f 80/91/256 81/92/257 76/87/258
f 81/92/259 82/93/260 76/87/261
f 82/93/262 83/94/263 76/87/264
f 83/94/265 84/95/266 76/87/267
f 84/95/268 85/96/269 76/87/270
f 85/96/271 86/97/272 76/87/273
f 86/97/274 75/85/275 76/87/276
f 26/98/277 25/99/278 61/100/279
f 27/101/280 26/98/281 61/100/282
f 28/102/283 27/101/284 61/100/285
f 29/103/286 28/102/287 61/100/288
f 30/104/289 29/103/290 61/100/291
f 31/105/292 30/104/293 61/100/294
f 32/106/295 31/105/296 61/100/297
f 33/107/298 32/106/299 61/100/300
f 34/108/301 33/107/302 61/100/303
f 35/109/304 34/108/305 61/100/306
f 36/110/307 35/109/308 61/100/309
f 25/99/310 36/110/311 61/100/312
f 63/74/313 62/73/314 74/86/315 75/85/316
f 62/73/317 64/75/318 77/88/319 74/86/320
f 64/75/321 65/76/322 78/89/323 77/88/324
f 65/76/325 66/77/326 79/90/327 78/89/328
f 66/77/329 67/78/330 80/91/331 79/90/332
f 67/78/333 68/79/334 81/92/335 80/91/336
f 68/79/337 69/80/338 82/93/339 81/92/340
f 69/80/341 70/81/342 83/94/343 82/93/344
f 70/81/345 71/82/346 84/95/347 83/94/348
f 71/82/349 72/83/350 85/96/351 84/95/352
f 72/83/353 73/84/354 86/97/355 85/96/356
f 73/84/357 63/74/358 75/85/359 86/97/360
