# This file uses centimeters as units for non-parametric coordinates.

v -5.536931 0.000000 8.463273
v 7.883385 0.000000 6.872158
v -4.179537 2.551852 5.320217
v 4.892494 2.551852 4.167703
v -3.943278 2.551852 -5.727374
v 4.246766 2.551852 -6.641713
v -5.051185 0.000000 -8.152752
v 5.385732 0.000000 -9.060635
v 6.251897 2.551852 -0.374548
v -6.934154 2.454450 -0.425879
v -9.725472 0.000000 -1.339477
v 9.725473 0.000000 -0.000001
v 1.301124 2.437457 6.063846
v -0.746829 2.622206 -8.020447
v -0.078883 0.000000 -9.804327
v -0.078883 0.000000 9.804326
v -1.744850 1.700023 0.596142
v 0.071132 1.700023 -1.473193
v -3.007233 1.700023 -2.124036
v 0.187643 1.700023 -4.715311
v 2.418458 1.700023 0.761154
v 2.733328 1.700023 -3.150268
vt 0.059913 0.307230
vt 0.059913 0.307230
vt 0.059913 0.307230
vt 0.059913 0.307230
vt 0.059913 0.307230
vt 0.059913 0.307230
vt 0.059913 0.307230
vt 0.059913 0.307230
vt 0.059913 0.307230
vt 0.059913 0.307230
vt 0.059913 0.307230
vt 0.059913 0.307230
vt 0.059913 0.307230
vt 0.059913 0.307230
vt 0.059913 0.307230
vt 0.059913 0.307230
vt 0.059913 0.307230
vt 0.059913 0.307230
vt 0.059913 0.307230
vt 0.011845 0.011843
vt 0.059913 0.307230
vt 0.059913 0.307230
vt 0.059913 0.307230
vt 0.059913 0.270306
vt 0.059913 0.270306
vt 0.059913 0.270306
vt 0.059913 0.270306
vt 0.059913 0.270306
vt 0.011845 0.011843
vt 0.011845 0.011843
vt 0.011845 0.011843
vt 0.011843 0.011843
vt 0.011843 0.011843
vn -0.097779 0.823874 0.558274
vn 0.026534 0.823869 0.566159
vn 0.108156 0.816893 0.566559
vn -0.097779 0.823874 0.558274
vn 0.000000 1.000000 -0.000000
vn 0.000000 1.000000 -0.000000
vn 0.000000 1.000000 -0.000000
vn -0.349141 0.609047 -0.712153
vn -0.114468 0.651928 -0.749591
vn -0.029169 0.658055 -0.752404
vn -0.349141 0.609047 -0.712153
vn 0.564308 0.810250 0.158276
vn 0.624567 0.779551 -0.047076
vn 0.632610 0.769760 -0.085281
vn 0.564308 0.810250 0.158276
vn -0.667877 0.741517 -0.063975
vn -0.667601 0.684088 0.293824
vn -0.667601 0.684088 0.293824
vn -0.675763 0.736868 0.019221
vn 0.000000 1.000000 -0.000000
vn 0.000000 1.000000 -0.000000
vn 0.000000 1.000000 0.000000
vn -0.596023 0.711919 -0.371387
vn -0.667877 0.741517 -0.063975
vn -0.675763 0.736868 0.019221
vn -0.596023 0.711919 -0.371387
vn 0.632610 0.769760 -0.085281
vn 0.624567 0.779551 -0.047076
vn 0.657192 0.702917 -0.272042
vn 0.657192 0.702917 -0.272042
vn 0.000000 1.000000 -0.000000
vn 0.000000 1.000000 0.000000
vn 0.000000 1.000000 -0.000000
vn 0.000000 1.000000 -0.000000
vn 0.000000 1.000000 0.000000
vn 0.000000 1.000000 0.000000
vn 0.000000 1.000000 0.000000
vn 0.000000 1.000000 -0.000000
vn 0.000000 1.000000 0.000000
vn -0.029169 0.658055 -0.752404
vn -0.114468 0.651928 -0.749591
vn 0.154537 0.654872 -0.739771
vn 0.154537 0.654872 -0.739771
vn 0.108156 0.816893 0.566559
vn 0.026534 0.823869 0.566159
vn 0.226256 0.796799 0.560285
vn 0.226256 0.796799 0.560285
vn 0.041816 0.986810 -0.156387
vn 0.041816 0.986810 -0.156387
vn 0.041816 0.986810 -0.156387
vn 0.160135 0.983228 -0.087291
vn 0.160135 0.983228 -0.087291
vn 0.160135 0.983228 -0.087291
vn 0.160135 0.983228 -0.087291
vn 0.148380 0.966791 0.208085
vn 0.148380 0.966791 0.208085
vn 0.148380 0.966791 0.208085
vn 0.148380 0.966791 0.208085
vn 0.252519 0.954273 0.159993
vn 0.252519 0.954273 0.159993
vn 0.252519 0.954273 0.159993
vn -0.047478 0.987938 -0.147394
vn -0.047478 0.987938 -0.147394
vn -0.047478 0.987938 -0.147394
vn -0.047478 0.987938 -0.147394
vn -0.229509 0.972245 -0.045455
vn -0.229509 0.972245 -0.045455
vn -0.229509 0.972245 -0.045455
vn -0.229509 0.972245 -0.045455
vn -0.306592 0.946773 0.098092
vn -0.306592 0.946773 0.098092
vn -0.306592 0.946773 0.098092
vn -0.086533 0.965730 0.244699
vn -0.086533 0.965730 0.244699
vn -0.086533 0.965730 0.244699
vn -0.086533 0.965730 0.244699
s off
f 1/1/1 16/23/2 13/19/3 3/3/4
f 17/20/5 18/29/6 19/30/7
f 5/5/8 14/21/9 15/22/10 7/7/11
f 2/2/12 12/18/13 9/14/14 4/4/15
f 11/17/16 1/1/17 3/3/18 10/15/19
f 19/30/20 18/29/21 20/31/22
f 7/11/23 11/17/24 10/15/25 5/12/26
f 9/14/27 12/18/28 8/9/29 6/10/30
f 17/20/31 21/32/32 18/29/33
f 18/29/34 21/32/35 22/33/36
f 20/31/37 18/29/38 22/33/39
f 15/22/40 14/21/41 6/6/42 8/8/43
f 13/19/44 16/23/45 2/2/46 4/4/47
f 3/3/48 13/19/49 17/24/50
f 10/16/51 3/3/52 17/24/53 19/25/54
f 14/21/55 5/5/56 19/25/57 20/26/58
f 5/5/59 10/16/60 19/25/61
f 13/19/62 4/4/63 21/27/64 17/24/65
f 4/4/66 9/13/67 22/28/68 21/27/69
f 9/13/70 6/6/71 22/28/72
f 6/6/73 14/21/74 20/26/75 22/28/76
