# This file uses centimeters as units for non-parametric coordinates.

v -6.554612 0.000010 8.756748
v 6.554627 0.000010 8.756748
v -6.554612 300.000000 8.756748
v 6.554627 300.000000 8.756748
v -6.554612 300.000000 -8.756748
v 6.554627 300.000000 -8.756748
v -6.554612 0.000010 -8.756748
v 6.554627 0.000010 -8.756748
v -6.554612 0.000010 5.655594
v -6.554612 300.000000 5.655594
v 6.554627 300.000000 5.655594
v 6.554627 0.000010 5.655594
v 6.554627 300.000000 -5.950638
v -6.554612 300.000000 -5.950638
v -6.554612 0.000010 -5.950639
v 6.554627 0.000010 -5.950639
v -1.948190 0.000010 -4.779853
v -1.948190 300.000000 -4.779852
v 1.948206 300.000000 -4.779852
v 1.948206 0.000010 -4.779853
v -1.948190 0.000010 4.034081
v -1.948190 300.000000 4.034082
v 1.948206 300.000000 4.034082
v 1.948206 0.000010 4.034081
v -5.427825 118.241928 7.251384
v 5.427825 56.981335 7.251384
v -5.427825 235.334030 -7.251385
v 5.427825 174.073502 -7.251385
v -5.427825 138.975708 4.683347
v 5.427825 77.715218 4.683347
v -5.427825 216.572906 -4.927670
v 5.427825 155.312332 -4.927670
v -1.613288 187.219055 -3.958153
v 1.613288 169.010834 -3.958153
v -1.613288 128.290634 3.340587
v 1.613288 110.082458 3.340587
vt 0.026561 0.221928
vt 0.026561 0.221928
vt 0.026561 0.277916
vt 0.026561 0.277916
vt 0.026561 0.277916
vt 0.026561 0.277916
vt 0.026561 0.221928
vt 0.026561 0.221928
vt 0.026561 0.221928
vt 0.026561 0.221928
vt 0.026561 0.221928
vt 0.026561 0.277916
vt 0.026561 0.221928
vt 0.026561 0.277916
vt 0.026561 0.221928
vt 0.026561 0.221928
vt 0.026561 0.277916
vt 0.026561 0.277916
vt 0.026561 0.277916
vt 0.026561 0.277916
vt 0.026561 0.221928
vt 0.026561 0.221928
vt 0.026561 0.277916
vt 0.026561 0.277916
vt 0.026561 0.277916
vt 0.026561 0.277916
vt 0.026561 0.221928
vt 0.026561 0.221928
vt 0.026561 0.221928
vt 0.026561 0.221928
vt 0.026561 0.221928
vt 0.026561 0.221928
vt 0.026561 0.277916
vt 0.026561 0.277916
vt 0.026561 0.277916
vt 0.026561 0.277916
vt 0.026561 0.221928
vt 0.026561 0.221928
vt 0.026561 0.221928
vt 0.026561 0.221927
vt 0.026561 0.277916
vt 0.026561 0.277916
vt 0.026561 0.277916
vt 0.026561 0.277916
vt 0.026561 0.221927
vt 0.026561 0.221928
vt 0.026561 0.250583
vt 0.026561 0.250583
vt 0.026561 0.277916
vt 0.026561 0.277916
vt 0.026561 0.277916
vt 0.026561 0.277916
vt 0.026561 0.250583
vt 0.026561 0.250583
vt 0.026561 0.277916
vt 0.026561 0.277916
vt 0.026561 0.277916
vt 0.026561 0.277916
vt 0.026561 0.250583
vt 0.026561 0.250583
vn 0.043874 0.017163 0.998890
vn 0.043874 0.017163 0.998890
vn 0.043874 0.017163 0.998890
vn 0.043874 0.017163 0.998890
vn 0.000000 1.000000 -0.000012
vn 0.000000 1.000000 -0.000012
vn 0.000000 1.000000 -0.000012
vn 0.000000 1.000000 -0.000012
vn -0.040343 -0.015782 -0.999061
vn -0.040343 -0.015782 -0.999061
vn -0.040343 -0.015782 -0.999061
vn -0.040343 -0.015782 -0.999061
vn 0.000000 -1.000000 0.000000
vn 0.000000 -1.000000 0.000000
vn 0.000000 -1.000000 0.000000
vn 0.000000 -1.000000 0.000000
vn 0.254150 0.005124 0.967151
vn 0.254150 0.005124 0.967151
vn 0.254150 0.005124 0.967151
vn 0.254150 0.005124 0.967151
vn -0.221635 0.007516 0.975101
vn -0.221635 0.007516 0.975101
vn -0.221635 0.007516 0.975101
vn -0.221635 0.007516 0.975101
vn -0.999705 -0.006403 -0.023418
vn -0.999705 -0.006403 -0.023418
vn -0.999705 -0.006403 -0.023418
vn -0.999705 -0.006403 -0.023418
vn 0.000000 1.000000 0.000000
vn 0.000000 1.000000 0.000000
vn 0.000000 1.000000 0.000000
vn 0.000000 1.000000 0.000000
vn 0.997695 0.017896 0.065452
vn 0.997695 0.017896 0.065452
vn 0.997695 0.017896 0.065452
vn 0.997695 0.017896 0.065452
vn 0.000000 -1.000000 0.000000
vn 0.000000 -1.000000 0.000000
vn 0.000000 -1.000000 0.000000
vn 0.000000 -1.000000 0.000000
vn 0.000000 1.000000 0.000000
vn 0.000000 1.000000 0.000000
vn 0.000000 1.000000 0.000000
vn 0.000000 1.000000 0.000000
vn -0.999828 0.004886 0.017869
vn -0.999828 0.004886 0.017869
vn -0.999828 0.004886 0.017869
vn -0.999828 0.004886 0.017869
vn 0.000000 -1.000000 0.000000
vn 0.000000 -1.000000 0.000000
vn 0.000000 -1.000000 0.000000
vn 0.000000 -1.000000 0.000000
vn 0.999466 -0.008618 -0.031518
vn 0.999466 -0.008618 -0.031518
vn 0.999466 -0.008618 -0.031518
vn 0.999466 -0.008618 -0.031518
vn -0.999960 -0.002358 -0.008625
vn -0.999960 -0.002358 -0.008625
vn -0.999960 -0.002358 -0.008625
vn -0.999960 -0.002358 -0.008625
vn 0.000000 1.000000 0.000000
vn 0.000000 1.000000 0.000000
vn 0.000000 1.000000 0.000000
vn 0.000000 1.000000 0.000000
vn 0.999969 -0.002090 -0.007645
vn 0.999969 -0.002090 -0.007645
vn 0.999969 -0.002090 -0.007645
vn 0.999969 -0.002090 -0.007645
vn 0.000000 -1.000000 0.000000
vn 0.000000 -1.000000 0.000000
vn 0.000000 -1.000000 0.000000
vn 0.000000 -1.000000 0.000000
vn -0.328326 0.003286 -0.944559
vn -0.328326 0.003286 -0.944559
vn -0.328326 0.003286 -0.944559
vn -0.328326 0.003286 -0.944559
vn 0.000000 1.000000 0.000000
vn 0.000000 1.000000 0.000000
vn 0.000000 1.000000 0.000000
vn 0.000000 1.000000 0.000000
vn 0.340883 0.002590 -0.940102
vn 0.340883 0.002590 -0.940102
vn 0.340883 0.002590 -0.940102
vn 0.340883 0.002590 -0.940102
vn 0.000000 -1.000000 -0.000000
vn 0.000000 -1.000000 -0.000000
vn 0.000000 -1.000000 -0.000000
vn 0.000000 -1.000000 -0.000000
vn -0.018115 -0.007086 0.999811
vn -0.018115 -0.007086 0.999811
vn -0.018115 -0.007086 0.999811
vn -0.018115 -0.007086 0.999811
vn 0.018795 0.007352 -0.999796
vn 0.018795 0.007352 -0.999796
vn 0.018795 0.007352 -0.999796
vn 0.018795 0.007352 -0.999796
vn 0.239535 -0.004443 0.970878
vn 0.239535 -0.004443 0.970878
vn 0.239535 -0.004443 0.970878
vn 0.239535 -0.004443 0.970878
vn -0.257712 -0.003481 0.966216
vn -0.257712 -0.003481 0.966216
vn -0.257712 -0.003481 0.966216
vn -0.257712 -0.003481 0.966216
vn -0.999408 0.009076 0.033193
vn -0.999408 0.009076 0.033193
vn -0.999408 0.009076 0.033193
vn -0.999408 0.009076 0.033193
vn 0.999838 -0.004750 -0.017372
vn 0.999838 -0.004750 -0.017372
vn 0.999838 -0.004750 -0.017372
vn 0.999838 -0.004750 -0.017372
vn -0.998112 -0.016200 -0.059248
vn -0.998112 -0.016200 -0.059248
vn -0.998112 -0.016200 -0.059248
vn -0.998112 -0.016200 -0.059248
vn 0.999682 0.006653 0.024331
vn 0.999682 0.006653 0.024331
vn 0.999682 0.006653 0.024331
vn 0.999682 0.006653 0.024331
vn -0.999968 0.002120 0.007752
vn -0.999968 0.002120 0.007752
vn -0.999968 0.002120 0.007752
vn -0.999968 0.002120 0.007752
vn 0.999959 0.002396 0.008763
vn 0.999959 0.002396 0.008763
vn 0.999959 0.002396 0.008763
vn 0.999959 0.002396 0.008763
vn -0.336581 -0.004028 -0.941646
vn -0.336581 -0.004028 -0.941646
vn -0.336581 -0.004028 -0.941646
vn -0.336581 -0.004028 -0.941646
vn 0.311420 -0.006005 -0.950253
vn 0.311420 -0.006005 -0.950253
vn 0.311420 -0.006005 -0.950253
vn 0.311420 -0.006005 -0.950253
s off
f 1/1/1 2/2/2 26/48/3 25/47/4
f 18/34/5 19/35/6 13/23/7 14/26/8
f 5/5/9 6/6/10 28/51/11 27/50/12
f 15/28/13 16/29/14 20/37/15 17/32/16
f 19/36/17 34/58/18 32/56/19 13/24/20
f 14/25/21 31/55/22 33/57/23 18/33/24
f 10/17/25 29/53/26 25/47/27 3/3/28
f 3/3/29 4/4/30 11/19/31 10/18/32
f 2/2/33 12/22/34 30/54/35 26/48/36
f 9/16/37 12/21/38 2/10/39 1/9/40
f 14/26/41 13/23/42 6/6/43 5/5/44
f 7/13/45 15/27/46 31/55/47 27/49/48
f 7/7/49 8/8/50 16/29/51 15/28/52
f 13/24/53 32/56/54 28/52/55 6/12/56
f 18/33/57 33/57/58 35/59/59 22/41/60
f 22/42/61 23/43/62 19/35/63 18/34/64
f 23/44/65 36/60/66 34/58/67 19/36/68
f 17/32/69 20/37/70 24/45/71 21/40/72
f 22/41/73 35/59/74 29/53/75 10/17/76
f 10/18/77 11/19/78 23/43/79 22/42/80
f 11/20/81 30/54/82 36/60/83 23/44/84
f 21/40/85 24/45/86 12/21/87 9/16/88
f 25/47/89 26/48/90 4/4/91 3/3/92
f 27/50/93 28/51/94 8/8/95 7/7/96
f 32/56/97 34/58/98 20/38/99 16/30/100
f 33/57/101 31/55/102 15/27/103 17/31/104
f 25/47/105 29/53/106 9/15/107 1/1/108
f 26/48/109 30/54/110 11/20/111 4/4/112
f 27/49/113 31/55/114 14/25/115 5/14/116
f 28/52/117 32/56/118 16/30/119 8/11/120
f 35/59/121 33/57/122 17/31/123 21/39/124
f 34/58/125 36/60/126 24/46/127 20/38/128
f 29/53/129 35/59/130 21/39/131 9/15/132
f 36/60/133 30/54/134 12/22/135 24/46/136
