# This file uses centimeters as units for non-parametric coordinates.

v 571.063843 -30.292328 -632.519714
v -376.338226 -30.292328 -691.450073
v 201.059448 -30.292328 -834.582153
v -630.567627 -30.292328 -282.109955
v -275.293152 45.362022 -288.595184
v 90.416283 65.725449 -280.335266
v 446.837250 31.355469 -285.929688
v 781.371826 -30.292328 -283.741333
v -147.040390 24.696220 -499.060394
v 183.427963 26.061829 -568.207886
v 429.775024 10.763983 -511.039917
v -723.125305 -30.292328 44.896469
v -367.175751 60.091793 59.860661
v 64.209274 66.989670 92.848923
v 431.991852 57.369308 78.897614
v 792.935303 -30.292328 46.978500
v -533.485229 -30.292328 -572.685364
v -559.068481 -30.292328 -415.970459
v -126.445862 -30.292328 -753.399292
v 307.486023 -30.292328 -738.876221
v 280.623840 -30.292328 -794.896973
v -517.473145 -30.292328 710.675293
v 428.131470 -30.292328 793.630005
v -152.714600 -30.292328 922.063965
v 692.663086 -30.292328 390.872681
v 337.340332 45.362022 388.340271
v -28.041735 65.725449 370.802856
v -384.491608 31.355469 367.350586
v -718.861938 -30.292328 356.675476
v 203.788025 24.696220 595.482300
v -128.328644 26.061829 656.224060
v -373.146179 10.763983 592.820313
v 588.237549 -30.292328 678.890259
v 617.789185 -30.292328 522.875610
v 176.745667 -30.292328 849.211853
v -256.677460 -30.292328 823.689209
v -231.245544 -30.292328 880.375854
vt -0.184543 1.392319
vt 0.167441 1.676601
vt 0.155637 2.037006
vt -0.556980 1.739606
vt -0.464252 0.861477
vt -1.017495 0.761814
vt -0.382879 -0.581401
vt 0.075758 -0.053126
vt -0.305550 0.449699
vt -0.746989 -0.076499
vt 0.591119 0.492643
vt 0.114507 0.937361
vt 0.974524 1.005286
vt 0.499487 1.444394
vt 1.373693 1.588498
vt 0.886430 1.939234
vt -1.030054 0.405434
vt -0.852319 0.180184
vt -0.829054 1.190822
vt -0.302637 1.797466
vt -0.413037 1.810775
vt 1.153172 -0.400763
vt 0.794328 -0.676404
vt 0.796918 -1.037006
vt 1.260845 -0.808995
vt 1.446181 0.122890
vt 1.516459 -0.757689
vt 1.802324 -0.216034
vt 1.298132 0.538990
vt 1.752431 1.052513
vt 0.069178 -0.921124
vt 0.468566 -0.436118
vt 1.851403 0.793453
vt 2.023349 0.563649
vt 0.865973 0.062270
vt 2.001672 0.207823
vt 1.370808 -0.825140
vn 0.102634 0.967882 -0.229501
vn 0.102634 0.967882 -0.229501
vn 0.102634 0.967882 -0.229501
vn 0.102634 0.967882 -0.229501
vn -0.050549 0.975879 -0.212380
vn -0.050549 0.975879 -0.212380
vn -0.050549 0.975879 -0.212380
vn -0.050549 0.975879 -0.212380
vn -0.225625 0.970691 -0.082777
vn -0.225625 0.970691 -0.082777
vn -0.225625 0.970691 -0.082777
vn -0.225625 0.970691 -0.082777
vn 0.208317 0.977414 -0.035573
vn 0.208317 0.977414 -0.035573
vn 0.208317 0.977414 -0.035573
vn 0.208317 0.977414 -0.035573
vn -0.155098 0.980563 -0.120169
vn -0.155098 0.980563 -0.120169
vn -0.155098 0.980563 -0.120169
vn -0.155098 0.980563 -0.120169
vn -0.043027 0.989374 -0.138879
vn -0.043027 0.989374 -0.138879
vn -0.043027 0.989374 -0.138879
vn -0.043027 0.989374 -0.138879
vn 0.090432 0.990566 -0.102963
vn 0.090432 0.990566 -0.102963
vn 0.090432 0.990566 -0.102963
vn 0.090432 0.990566 -0.102963
vn 0.183836 0.977018 -0.107890
vn 0.183836 0.977018 -0.107890
vn 0.183836 0.977018 -0.107890
vn 0.183836 0.977018 -0.107890
vn -0.032746 0.999085 -0.027502
vn -0.032746 0.999085 -0.027502
vn -0.032746 0.999085 -0.027502
vn -0.032746 0.999085 -0.027502
vn 0.059695 0.997653 -0.033554
vn 0.059695 0.997653 -0.033554
vn 0.059695 0.997653 -0.033554
vn 0.059695 0.997653 -0.033554
vn -0.111678 0.982696 -0.147770
vn -0.111678 0.982696 -0.147770
vn -0.111678 0.982696 -0.147770
vn -0.208924 0.971544 -0.111593
vn -0.208924 0.971544 -0.111593
vn -0.208924 0.971544 -0.111593
vn -0.053335 0.975125 -0.215143
vn -0.053335 0.975125 -0.215143
vn -0.053335 0.975125 -0.215143
vn 0.261904 0.956888 -0.125584
vn 0.261904 0.956888 -0.125584
vn 0.261904 0.956888 -0.125584
vn 0.099575 0.974797 -0.199637
vn 0.099575 0.974797 -0.199637
vn 0.099575 0.974797 -0.199637
vn -0.108426 0.967882 0.226821
vn -0.108426 0.967882 0.226821
vn -0.108426 0.967882 0.226821
vn -0.108426 0.967882 0.226821
vn 0.045147 0.975878 0.213597
vn 0.045147 0.975878 0.213597
vn 0.045147 0.975878 0.213597
vn 0.045147 0.975878 0.213597
vn 0.224812 0.970695 0.084913
vn 0.224812 0.970695 0.084913
vn 0.224812 0.970695 0.084913
vn 0.224812 0.970695 0.084913
vn -0.216343 0.975468 0.040705
vn -0.216343 0.975468 0.040705
vn -0.216343 0.975468 0.040705
vn -0.216343 0.975469 0.040705
vn 0.151999 0.980563 0.124067
vn 0.151999 0.980563 0.124067
vn 0.151999 0.980563 0.124067
vn 0.151999 0.980563 0.124067
vn 0.039489 0.989374 0.139926
vn 0.039489 0.989374 0.139926
vn 0.039489 0.989374 0.139926
vn 0.039489 0.989374 0.139926
vn -0.093016 0.990566 0.100635
vn -0.093016 0.990566 0.100635
vn -0.093016 0.990566 0.100635
vn -0.093016 0.990566 0.100635
vn -0.186514 0.977018 0.103191
vn -0.186514 0.977018 0.103191
vn -0.186514 0.977018 0.103191
vn -0.186514 0.977018 0.103191
vn 0.040663 0.998542 0.035499
vn 0.040663 0.998542 0.035499
vn 0.040663 0.998542 0.035499
vn 0.040663 0.998542 0.035499
vn -0.054156 0.997691 0.040990
vn -0.054156 0.997691 0.040990
vn -0.054156 0.997691 0.040990
vn -0.054156 0.997691 0.040990
vn 0.107894 0.982697 0.150553
vn 0.107894 0.982697 0.150553
vn 0.107894 0.982697 0.150553
vn 0.206026 0.971544 0.116861
vn 0.206026 0.971544 0.116861
vn 0.206026 0.971544 0.116861
vn 0.047853 0.975125 0.216430
vn 0.047853 0.975125 0.216430
vn 0.047853 0.975125 0.216430
vn -0.265011 0.956887 0.118895
vn -0.265011 0.956887 0.118895
vn -0.265011 0.956887 0.118895
vn -0.104603 0.974798 0.197047
vn -0.104603 0.974798 0.197047
vn -0.104603 0.974798 0.197047
s off
f 10/1/1 11/2/2 1/3/3 20/20/4
f 9/5/5 10/1/6 3/4/7 19/19/8
f 12/7/9 13/8/10 5/9/11 4/10/12
f 15/13/13 16/15/14 8/16/15 7/14/16
f 18/18/17 5/9/18 9/5/19 17/17/20
f 5/9/21 6/12/22 10/1/23 9/5/24
f 6/12/25 7/14/26 11/2/27 10/1/28
f 7/14/29 8/16/30 1/3/31 11/2/32
f 13/8/33 14/11/34 6/12/35 5/9/36
f 14/11/37 15/13/38 7/14/39 6/12/40
f 17/17/41 9/5/42 2/6/43
f 4/10/44 5/9/45 18/18/46
f 9/5/47 19/19/48 2/6/49
f 10/1/50 20/20/51 21/21/52
f 10/1/53 21/21/54 3/4/55
f 31/22/56 32/23/57 22/24/58 36/25/59
f 30/26/60 31/22/61 24/27/62 35/28/63
f 16/15/64 15/13/65 26/29/66 25/30/67
f 13/8/68 12/7/69 29/31/70 28/32/71
f 34/33/72 26/29/73 30/26/74 33/34/75
f 26/29/76 27/35/77 31/22/78 30/26/79
f 27/35/80 28/32/81 32/23/82 31/22/83
f 28/32/84 29/31/85 22/24/86 32/23/87
f 15/13/88 14/11/89 27/35/90 26/29/91
f 14/11/92 13/8/93 28/32/94 27/35/95
f 33/34/96 30/26/97 23/36/98
f 25/30/99 26/29/100 34/33/101
f 30/26/102 35/28/103 23/36/104
f 31/22/105 36/25/106 37/37/107
f 31/22/108 37/37/109 24/27/110
