# This file uses centimeters as units for non-parametric coordinates.

v 82.731689 0.000000 -8.666748
v 71.343018 0.000000 -8.666748
v 82.731689 146.453766 -5.048828
v 71.343018 146.453766 -8.666748
v 82.731689 146.453766 2.721802
v 71.343018 146.453766 2.721802
v 82.731689 0.000000 2.721802
v 71.343018 0.000000 -0.492188
v 79.343994 146.453766 -8.666748
v 82.731689 142.761841 -8.666748
v 75.355469 0.000000 2.721802
v 71.343018 12.468632 2.721802
v 71.343018 31.123196 -8.666748
v 71.343018 55.105431 -8.666748
v 74.375244 44.173592 -8.392944
v 71.616943 45.008636 -5.014954
v 82.731689 108.562668 2.721802
v 82.731689 80.167473 2.721802
v 79.119629 90.145439 2.447998
v 82.457764 94.085464 -1.887695
v 72.721680 70.462624 1.343262
v 81.353271 81.152397 -7.288208
v -78.076660 0.000000 2.721802
v -66.687988 0.000000 2.721802
v -78.076660 146.453766 -0.896118
v -66.687988 146.453766 2.721802
v -78.076660 146.453766 -8.666748
v -66.687988 146.453766 -8.666748
v -78.076660 0.000000 -8.666748
v -66.687988 0.000000 -5.452759
v -74.688965 146.453766 2.721802
v -78.076660 142.761841 2.721802
v -70.700439 0.000000 -8.666748
v -66.687988 12.468632 -8.666748
v -66.687988 31.123196 2.721802
v -66.687988 55.105431 2.721802
v -69.720215 44.173592 2.447998
v -66.961914 45.008636 -0.929993
v -78.076660 108.562668 -8.666748
v -78.076660 80.167473 -8.666748
v -74.464600 90.145439 -8.392944
v -77.802734 94.085464 -4.057251
v -68.066650 70.462624 -7.288208
v -76.698242 81.152397 1.343262
v -110.242676 49.764999 2.979614
v -108.819092 154.081116 2.979675
v -110.242676 49.764996 7.366577
v -108.819092 154.081116 7.366516
v 107.641602 43.275536 7.366577
v 106.980713 147.653732 7.366577
v 107.641602 43.275543 2.979614
v 107.421875 147.640594 2.979553
v 102.418945 107.124603 7.366516
v -109.042480 92.903786 7.366516
v -110.257080 93.916962 2.979614
v 103.799805 106.856514 2.979553
v 106.813232 110.211388 7.366516
v 107.243164 109.819214 2.979675
v 110.257324 99.271439 2.979553
v 110.211914 97.746048 7.366516
v 3.646240 150.731445 8.666809
v 44.499268 149.514679 8.666809
v 15.552979 144.821121 7.635376
v 14.543701 150.406876 5.567566
v 70.314453 44.387291 1.679382
v 46.660645 45.091797 1.679382
v 62.605469 44.616890 5.501770
v 63.060547 52.254738 1.679321
v -79.994873 53.185284 8.666809
v -3.672119 50.608295 8.666870
v -40.995605 48.351273 4.677979
v -31.448975 61.323288 8.666809
v -56.570801 61.666439 7.635315
v 64.438965 44.562271 8.005310
v 85.149414 100.158401 7.523926
v 91.202881 109.084198 7.406982
v 68.611572 148.796509 8.193359
v 68.179443 57.664928 7.894531
v 80.918457 65.114357 7.624695
v 90.185059 86.692825 7.545837
v 67.666016 138.337311 7.800842
v 67.928955 148.816864 2.979614
v 93.479736 88.412155 2.505554
v 67.217041 136.438644 2.979614
v 96.840576 108.625572 2.979675
v 98.891113 63.798988 2.540588
v -61.145020 152.661179 7.885864
v -99.742432 98.245491 7.474243
v -86.061523 141.146637 7.787598
v -61.068359 152.658905 2.979614
v -84.646729 137.418976 2.864197
v -100.426270 100.624199 2.878845
vt 0.058530 0.249997
vt 0.058530 0.249997
vt 0.058530 0.276304
vt 0.058530 0.276304
vt 0.058530 0.276304
vt 0.058530 0.254381
vt 0.058530 0.254381
vt 0.058530 0.276304
vt 0.058530 0.276304
vt 0.058530 0.276304
vt 0.058530 0.249997
vt 0.058530 0.249997
vt 0.058530 0.249997
vt 0.058530 0.249997
vt 0.058530 0.249997
vt 0.058530 0.276304
vt 0.058530 0.276304
vt 0.058530 0.254381
vt 0.058530 0.254381
vt 0.058530 0.276304
vt 0.058530 0.249997
vt 0.058530 0.276304
vt 0.058530 0.276304
vt 0.058530 0.254381
vt 0.058530 0.254381
vt 0.058530 0.254381
vt 0.058530 0.249997
vt 0.058530 0.276304
vt 0.058530 0.276304
vt 0.058530 0.249997
vt 0.058530 0.249997
vt 0.058530 0.276304
vt 0.058530 0.254381
vt 0.058530 0.249997
vt 0.058530 0.249997
vt 0.058530 0.276304
vt 0.058530 0.276304
vt 0.058530 0.276304
vt 0.058530 0.254381
vt 0.058530 0.254381
vt 0.058530 0.276304
vt 0.058530 0.276304
vt 0.058530 0.276304
vt 0.058530 0.249997
vt 0.058530 0.249997
vt 0.058530 0.249997
vt 0.058530 0.249997
vt 0.058530 0.249997
vt 0.058530 0.276304
vt 0.058530 0.276304
vt 0.058530 0.254381
vt 0.058530 0.254381
vt 0.058530 0.276304
vt 0.058530 0.249997
vt 0.058530 0.276304
vt 0.058530 0.276304
vt 0.058530 0.254381
vt 0.058530 0.254381
vt 0.058530 0.254381
vt 0.058530 0.249997
vt 0.058530 0.276304
vt 0.058530 0.276304
vt 0.058530 0.249997
vt 0.058530 0.249997
vt 0.058530 0.276304
vt 0.058530 0.254381
vt 0.048875 0.304500
vt 0.048875 0.304500
vt 0.048875 0.304500
vt 0.048875 0.304500
vt 0.048802 0.280865
vt 0.048802 0.280865
vt 0.048802 0.280865
vt 0.048802 0.280865
vt 0.048802 0.327432
vt 0.048802 0.327432
vt 0.048802 0.327432
vt 0.048875 0.304500
vt 0.048875 0.304500
vt 0.048875 0.304500
vt 0.048875 0.304500
vt 0.048875 0.304500
vt 0.048875 0.304500
vt 0.048875 0.304500
vt 0.048875 0.304500
vt 0.048875 0.304500
vt 0.048875 0.304500
vt 0.048875 0.304500
vt 0.048875 0.304500
vt 0.048802 0.303912
vt 0.048802 0.327432
vt 0.048802 0.327432
vt 0.048802 0.303912
vt 0.048802 0.280865
vt 0.048802 0.280865
vt 0.048802 0.280865
vt 0.048802 0.282506
vt 0.048802 0.280865
vt 0.048802 0.280865
vt 0.048802 0.282506
vt 0.048802 0.303912
vt 0.048802 0.327432
vt 0.048802 0.327432
vt 0.048802 0.327432
vt 0.048802 0.327432
vt 0.048802 0.327432
vt 0.048802 0.327432
vt 0.048802 0.327432
vt 0.048802 0.327432
vt 0.048802 0.327432
vt 0.048802 0.327432
vt 0.048802 0.327432
vt 0.048802 0.327432
vt 0.048802 0.327432
vt 0.048802 0.327432
vt 0.048802 0.327432
vt 0.048802 0.280865
vt 0.048802 0.280865
vt 0.048802 0.280865
vt 0.048802 0.327432
vt 0.048802 0.327432
vt 0.048802 0.327432
vt 0.048802 0.327432
vt 0.048802 0.327432
vt 0.048802 0.327432
vt 0.048802 0.327432
vt 0.048802 0.327432
vt 0.048875 0.304500
vt 0.048875 0.304500
vt 0.048875 0.304500
vt 0.048875 0.304500
vt 0.048802 0.327432
vt 0.048802 0.327432
vt 0.048802 0.327432
vt 0.048802 0.327432
vt 0.048802 0.327432
vt 0.048802 0.327432
vt 0.048802 0.327432
vt 0.048802 0.327432
vt 0.048802 0.303912
vt 0.048802 0.327432
vt 0.048802 0.327432
vt 0.048802 0.327432
vt 0.048802 0.327432
vt 0.048802 0.327432
vt 0.048802 0.327432
vt 0.048802 0.327432
vt 0.048802 0.327432
vt 0.048802 0.327432
vt 0.048802 0.327432
vt 0.048802 0.327432
vt 0.048802 0.327432
vt 0.048802 0.327432
vt 0.048802 0.327432
vt 0.048802 0.327432
vt 0.048802 0.327432
vt 0.048802 0.327432
vt 0.048802 0.327432
vt 0.048802 0.327432
vt 0.048802 0.327432
vt 0.048802 0.327432
vt 0.048802 0.327432
vt 0.048802 0.327432
vt 0.048802 0.327432
vt 0.048802 0.327432
vt 0.048802 0.327432
vt 0.048875 0.304500
vt 0.048875 0.304500
vt 0.048875 0.304500
vt 0.048875 0.304500
vt 0.048875 0.304500
vt 0.048875 0.304500
vt 0.048875 0.304500
vt 0.048875 0.304500
vt 0.048875 0.304500
vt 0.048875 0.304500
vt 0.048875 0.304500
vt 0.048875 0.304500
vt 0.048875 0.304500
vt 0.048875 0.304500
vt 0.048875 0.304500
vt 0.048875 0.304500
vt 0.048875 0.304500
vt 0.048875 0.304500
vt 0.048875 0.304500
vt 0.048875 0.304500
vt 0.048875 0.304500
vt 0.048875 0.304500
vt 0.048875 0.304500
vt 0.048875 0.304500
vt 0.048802 0.327432
vt 0.048802 0.303912
vt 0.048802 0.303912
vt 0.048802 0.302271
vt 0.048802 0.302271
vt 0.048802 0.327432
vt 0.048802 0.327432
vt 0.048802 0.302271
vt 0.048802 0.327432
vt 0.048802 0.327432
vt 0.048802 0.327432
vt 0.048802 0.327432
vt 0.048802 0.302271
vt 0.048802 0.302271
vt 0.048802 0.327432
vt 0.048802 0.327432
vt 0.048802 0.302271
vt 0.048802 0.302271
vt 0.048802 0.282506
vt 0.048802 0.282506
vt 0.048802 0.280865
vt 0.048802 0.280865
vt 0.048802 0.327432
vt 0.048802 0.302271
vt 0.048802 0.303912
vt 0.048802 0.327432
vt 0.048802 0.303912
vt 0.048802 0.327432
vt 0.048802 0.327432
vt 0.048802 0.303912
vt 0.048802 0.302271
vt 0.048802 0.327432
vt 0.048802 0.327432
vt 0.048802 0.327432
vt 0.048802 0.303912
vt 0.048875 0.304500
vt 0.048875 0.304500
vt 0.048875 0.304500
vt 0.048875 0.304500
vt 0.048875 0.304500
vt 0.048875 0.304500
vt 0.048875 0.304500
vt 0.048875 0.304500
vt 0.048875 0.304500
vt 0.048875 0.304500
vt 0.048875 0.304500
vt 0.048875 0.304500
vt 0.048802 0.280865
vt 0.048802 0.280865
vt 0.048802 0.282506
vt 0.048802 0.282506
vt 0.048875 0.304500
vt 0.048875 0.304500
vt 0.048875 0.304500
vt 0.048875 0.304500
vt 0.048875 0.304500
vt 0.048875 0.304500
vt 0.048875 0.304500
vt 0.048875 0.304500
vt 0.048802 0.327432
vt 0.048802 0.327432
vt 0.048802 0.327432
vt 0.048875 0.304500
vt 0.048875 0.304500
vt 0.048875 0.304500
vt 0.048875 0.304500
vt 0.048875 0.304500
vt 0.048802 0.327432
vt 0.048802 0.327432
vt 0.048802 0.327432
vt 0.048802 0.327432
vt 0.048802 0.327432
vn 0.038823 0.011730 -0.999177
vn 0.038823 0.011730 -0.999177
vn 0.038823 0.011730 -0.999177
vn 0.038823 0.011730 -0.999177
vn 0.038823 0.011730 -0.999177
vn -0.051954 -0.010409 0.998595
vn -0.051954 -0.010409 0.998595
vn -0.051954 -0.010409 0.998595
vn -0.051954 -0.010409 0.998595
vn -0.051954 -0.010409 0.998595
vn 0.000000 -1.000000 0.000000
vn 0.000000 -1.000000 0.000000
vn 0.000000 -1.000000 0.000000
vn 0.000000 -1.000000 0.000000
vn 0.000000 -1.000000 0.000000
vn -0.997222 -0.006903 0.074170
vn -0.997222 -0.006903 0.074170
vn -0.997222 -0.006903 0.074170
vn -0.997222 -0.006903 0.074170
vn -0.997222 -0.006903 0.074170
vn 0.997571 0.006477 -0.069357
vn 0.997571 0.006477 -0.069357
vn 0.997571 0.006477 -0.069357
vn 0.997571 0.006477 -0.069357
vn 0.997571 0.006477 -0.069357
vn 0.606477 0.556500 -0.567885
vn 0.606477 0.556500 -0.567885
vn 0.606477 0.556500 -0.567885
vn 0.000000 1.000000 0.000000
vn 0.000000 1.000000 0.000000
vn 0.000000 1.000000 0.000000
vn 0.000000 1.000000 0.000000
vn 0.000000 1.000000 0.000000
vn -0.612892 -0.197231 0.765155
vn -0.612893 -0.197231 0.765155
vn -0.612892 -0.197231 0.765155
vn -0.738268 0.185143 -0.648601
vn -0.738268 0.185143 -0.648601
vn -0.738268 0.185143 -0.648601
vn -0.780814 -0.231118 -0.580442
vn -0.780814 -0.231118 -0.580442
vn -0.780814 -0.231118 -0.580442
vn 0.642228 0.252350 0.723784
vn 0.642228 0.252350 0.723784
vn 0.642228 0.252350 0.723784
vn 0.850402 -0.174165 0.496470
vn 0.850402 -0.174165 0.496470
vn 0.850402 -0.174165 0.496470
vn -0.999432 0.012334 0.031355
vn -0.999432 0.012334 0.031355
vn -0.999432 0.012334 0.031355
vn -0.999432 0.012334 0.031355
vn -0.999432 0.012334 0.031355
vn -0.999432 0.012334 0.031355
vn -0.064151 0.007869 0.997909
vn -0.064151 0.007869 0.997909
vn -0.064151 0.007869 0.997909
vn -0.064151 0.007869 0.997909
vn -0.064151 0.007869 0.997909
vn -0.064151 0.007869 0.997909
vn 0.077540 -0.007730 -0.996959
vn 0.077540 -0.007730 -0.996959
vn 0.077540 -0.007730 -0.996959
vn 0.077540 -0.007730 -0.996959
vn 0.077540 -0.007730 -0.996959
vn 0.077540 -0.007730 -0.996959
vn 0.998564 -0.010650 -0.052505
vn 0.998564 -0.010650 -0.052505
vn 0.998564 -0.010650 -0.052505
vn 0.998564 -0.010650 -0.052505
vn 0.998564 -0.010650 -0.052505
vn 0.998564 -0.010650 -0.052505
vn -0.038823 0.011730 0.999177
vn -0.038823 0.011730 0.999177
vn -0.038823 0.011730 0.999177
vn -0.038823 0.011730 0.999177
vn -0.038823 0.011730 0.999177
vn 0.051954 -0.010409 -0.998595
vn 0.051954 -0.010409 -0.998595
vn 0.051954 -0.010409 -0.998595
vn 0.051954 -0.010409 -0.998595
vn 0.051954 -0.010409 -0.998595
vn 0.000000 -1.000000 0.000000
vn 0.000000 -1.000000 0.000000
vn 0.000000 -1.000000 0.000000
vn 0.000000 -1.000000 0.000000
vn 0.000000 -1.000000 0.000000
vn 0.997222 -0.006903 -0.074170
vn 0.997222 -0.006903 -0.074170
vn 0.997222 -0.006903 -0.074170
vn 0.997222 -0.006903 -0.074170
vn 0.997222 -0.006903 -0.074170
vn -0.997571 0.006477 0.069357
vn -0.997571 0.006477 0.069357
vn -0.997571 0.006477 0.069357
vn -0.997571 0.006477 0.069357
vn -0.997571 0.006477 0.069357
vn -0.606477 0.556500 0.567885
vn -0.606477 0.556500 0.567885
vn -0.606477 0.556500 0.567885
vn 0.000000 1.000000 0.000000
vn 0.000000 1.000000 0.000000
vn 0.000000 1.000000 0.000000
vn 0.000000 1.000000 0.000000
vn 0.000000 1.000000 0.000000
vn 0.612892 -0.197231 -0.765155
vn 0.612893 -0.197231 -0.765155
vn 0.612892 -0.197231 -0.765155
vn 0.738268 0.185142 0.648601
vn 0.738268 0.185142 0.648601
vn 0.738268 0.185142 0.648601
vn 0.780815 -0.231117 0.580442
vn 0.780815 -0.231117 0.580442
vn 0.780815 -0.231117 0.580442
vn -0.642228 0.252351 -0.723784
vn -0.642228 0.252351 -0.723784
vn -0.642228 0.252351 -0.723784
vn -0.850402 -0.174166 -0.496470
vn -0.850402 -0.174166 -0.496470
vn -0.850402 -0.174166 -0.496470
vn 0.999432 0.012334 -0.031355
vn 0.999432 0.012334 -0.031355
vn 0.999432 0.012334 -0.031355
vn 0.999432 0.012334 -0.031355
vn 0.999432 0.012334 -0.031355
vn 0.999432 0.012334 -0.031355
vn 0.064151 0.007869 -0.997909
vn 0.064151 0.007869 -0.997909
vn 0.064151 0.007869 -0.997909
vn 0.064151 0.007869 -0.997909
vn 0.064151 0.007869 -0.997909
vn 0.064151 0.007869 -0.997909
vn -0.077540 -0.007730 0.996959
vn -0.077540 -0.007730 0.996959
vn -0.077540 -0.007730 0.996959
vn -0.077540 -0.007730 0.996959
vn -0.077540 -0.007730 0.996959
vn -0.077540 -0.007730 0.996959
vn -0.998564 -0.010650 0.052505
vn -0.998564 -0.010650 0.052505
vn -0.998564 -0.010650 0.052505
vn -0.998564 -0.010650 0.052505
vn -0.998564 -0.010650 0.052505
vn -0.998564 -0.010650 0.052505
vn 0.600743 -0.778319 0.182560
vn 0.600743 -0.778319 0.182560
vn 0.600743 -0.778319 0.182560
vn 0.600743 -0.778319 0.182560
vn 0.029771 0.999557 -0.000002
vn 0.029771 0.999557 -0.000002
vn 0.029771 0.999557 0.000001
vn 0.029771 0.999557 0.000001
vn 0.022430 -0.522407 0.852401
vn 0.022430 -0.522407 0.852401
vn 0.022430 -0.522407 0.852401
vn 0.748323 0.628637 0.211729
vn 0.748323 0.628637 0.211729
vn 0.748323 0.628637 0.211729
vn 0.748323 0.628637 0.211729
vn 0.995076 -0.004577 0.099005
vn 0.995076 -0.004577 0.099005
vn 0.995076 -0.004577 0.099005
vn 0.995076 -0.004577 0.099005
vn 0.998895 -0.046895 -0.002983
vn 0.998895 -0.046895 -0.002983
vn 0.998895 -0.046895 -0.002983
vn 0.998895 -0.046895 -0.002983
vn -0.990252 0.013452 0.138638
vn -0.990252 0.013452 0.138638
vn -0.990252 0.013452 0.138638
vn -0.990252 0.013452 0.138638
vn 0.000464 0.003914 -0.999992
vn -0.000186 0.005512 -0.999985
vn -0.004810 0.002209 -0.999986
vn -0.990248 0.013558 0.138651
vn -0.990249 0.013558 0.138651
vn -0.990248 0.013558 0.138651
vn -0.990248 0.013558 0.138651
vn -0.010551 0.025009 0.999632
vn -0.010551 0.025009 0.999632
vn -0.010551 0.025009 0.999632
vn -0.010551 0.025009 0.999632
vn 0.263788 0.376432 0.888096
vn 0.263788 0.376432 0.888096
vn 0.263788 0.376432 0.888096
vn -0.087290 0.331934 0.939255
vn -0.087290 0.331934 0.939255
vn -0.087290 0.331934 0.939255
vn -0.418954 -0.386288 -0.821742
vn -0.418953 -0.386288 -0.821742
vn -0.418953 -0.386288 -0.821742
vn 0.195751 -0.448188 -0.872244
vn 0.195751 -0.448188 -0.872244
vn 0.195751 -0.448188 -0.872244
vn -0.015840 0.001233 0.999874
vn -0.003076 -0.002498 0.999992
vn -0.003599 -0.057382 0.998346
vn -0.004979 -0.038919 0.999230
vn 0.001230 -0.024694 0.999694
vn 0.005394 -0.067714 0.997690
vn -0.004063 -0.085612 0.996320
vn 0.029771 0.999557 0.000003
vn 0.029771 0.999557 0.000003
vn 0.029771 0.999557 0.000001
vn 0.029771 0.999557 0.000001
vn -0.029771 -0.999557 -0.000001
vn -0.029771 -0.999557 -0.000001
vn -0.029771 -0.999557 -0.000001
vn -0.029771 -0.999557 -0.000001
vn -0.028449 -0.993870 0.106830
vn -0.028449 -0.993870 0.106830
vn -0.028449 -0.993870 0.106830
vn -0.028449 -0.993870 0.106830
vn -0.028449 -0.993870 0.106830
vn -0.007537 0.002406 -0.999969
vn -0.007537 0.002406 -0.999969
vn -0.007537 0.002406 -0.999969
vn -0.007537 0.002406 -0.999969
vn 0.022641 0.007458 -0.999716
vn 0.030228 0.002236 -0.999541
vn 0.023911 0.004934 -0.999702
vn 0.021658 0.007365 -0.999738
vn 0.086479 -0.118541 0.989176
vn 0.086479 -0.118541 0.989176
vn 0.086479 -0.118541 0.989176
vn -0.046822 -0.842960 0.535935
vn -0.044187 -0.903431 0.426450
vn -0.047436 -0.823436 0.565423
vn -0.047436 -0.823436 0.565423
vn -0.089489 -0.231980 0.968596
vn -0.089489 -0.231980 0.968596
vn -0.089489 -0.231980 0.968596
vn -0.043171 -0.264478 0.963425
vn -0.043171 -0.264478 0.963425
vn -0.043171 -0.264478 0.963425
vn 0.008940 0.007346 0.999933
vn 0.009363 0.014102 0.999857
vn 0.011196 0.011719 0.999869
vn 0.009826 0.006405 0.999931
vn -0.002215 0.013594 0.999905
vn -0.002215 0.013594 0.999905
vn -0.002197 0.013584 0.999905
vn -0.002109 0.013536 0.999906
vn -0.002215 0.013594 0.999905
vn 0.008590 0.004945 0.999951
vn 0.008825 0.003522 0.999955
vn 0.008543 0.001063 0.999963
vn 0.006737 0.004742 0.999966
vn -0.002109 0.013536 0.999906
vn -0.002197 0.013584 0.999905
vn 0.005272 0.009526 0.999941
vn 0.001230 -0.024694 0.999694
vn 0.009454 -0.004127 0.999947
vn 0.005394 -0.067714 0.997690
vn 0.029771 0.999557 0.000001
vn 0.029771 0.999557 0.000001
vn 0.029771 0.999557 0.000000
vn 0.029771 0.999557 0.000000
vn 0.000204 0.000807 -1.000000
vn -0.000180 0.009155 -0.999958
vn 0.000320 0.005166 -0.999987
vn 0.025369 0.006645 -0.999656
vn 0.030228 0.002236 -0.999541
vn 0.022641 0.007458 -0.999716
vn 0.023371 0.007527 -0.999699
vn -0.029771 -0.999557 -0.000004
vn -0.044187 -0.903431 0.426450
vn -0.046822 -0.842960 0.535935
vn -0.000587 -0.002136 0.999998
vn -0.003446 -0.002048 0.999992
vn -0.014601 -0.001973 0.999891
vn 0.029771 0.999557 0.000001
vn 0.029771 0.999557 0.000001
vn 0.029771 0.999557 0.000003
vn 0.029771 0.999557 0.000003
vn 0.029771 0.999557 0.000000
vn 0.029771 0.999557 0.000000
vn 0.029771 0.999557 0.000000
vn 0.000293 0.002320 -0.999997
vn 0.000324 0.005059 -0.999987
vn -0.000186 0.005512 -0.999985
vn 0.000464 0.003914 -0.999992
vn -0.000741 -0.006775 0.999977
vn -0.003117 -0.062379 0.998048
vn -0.003599 -0.057382 0.998346
vn -0.003076 -0.002498 0.999992
vn -0.014601 -0.001973 0.999891
vn -0.003446 -0.002048 0.999992
vn -0.003076 -0.002498 0.999992
vn -0.015840 0.001233 0.999874
vn -0.000741 -0.006775 0.999977
vn -0.003076 -0.002498 0.999992
vn -0.003446 -0.002048 0.999992
vn -0.000587 -0.002136 0.999998
vn -0.001346 0.011686 -0.999931
vn -0.000180 0.009155 -0.999958
vn -0.001823 0.018633 -0.999825
vn -0.002592 0.015442 -0.999877
vn -0.000186 0.005512 -0.999985
vn 0.000324 0.005059 -0.999987
vn 0.000320 0.005166 -0.999987
vn -0.000180 0.009155 -0.999958
vn -0.001346 0.011686 -0.999931
vn 0.000204 0.000807 -1.000000
vn 0.000320 0.005166 -0.999987
vn 0.000324 0.005059 -0.999987
vn 0.000293 0.002320 -0.999997
vn -0.000001 -0.000002 -1.000000
vn -0.000001 -0.000002 -1.000000
vn 0.036953 -0.005621 -0.999301
vn 0.023911 0.004934 -0.999702
vn 0.030228 0.002236 -0.999541
vn 0.036953 -0.005621 -0.999301
vn 0.030228 0.002236 -0.999541
vn 0.025369 0.006645 -0.999656
vn -0.004810 0.002209 -0.999986
vn -0.000186 0.005512 -0.999985
vn -0.001346 0.011686 -0.999931
vn -0.002592 0.015442 -0.999877
vn 0.011067 0.001434 0.999938
vn 0.009651 0.004060 0.999945
vn 0.009826 0.006405 0.999931
vn 0.011196 0.011719 0.999869
vn 0.008543 0.001063 0.999963
vn 0.008825 0.003522 0.999955
vn 0.009651 0.004060 0.999945
vn 0.011067 0.001434 0.999938
vn 0.007382 -0.004442 0.999963
vn 0.001230 -0.024694 0.999694
vn -0.004979 -0.038919 0.999230
vn 0.009020 -0.002729 0.999956
vn 0.009454 -0.004127 0.999947
vn 0.001230 -0.024694 0.999694
vn 0.007382 -0.004442 0.999963
vn 0.009020 -0.002729 0.999956
vn 0.008940 0.007346 0.999933
vn 0.009826 0.006405 0.999931
vn 0.009651 0.004060 0.999945
vn 0.008825 0.003522 0.999955
vn 0.008590 0.004945 0.999951
s off
f 1/1/1 2/2/2 13/3/3 15/4/4 22/5/5
f 5/6/6 6/7/7 21/8/8 19/9/9 17/10/10
f 7/11/11 11/12/12 8/13/13 2/14/14 1/15/15
f 16/16/16 21/17/17 6/18/18 4/19/19 14/20/20
f 7/21/21 1/1/22 22/5/23 20/22/24 18/23/25
f 10/24/26 9/25/27 3/26/28
f 3/26/29 9/25/30 4/19/31 6/7/32 5/6/33
f 11/12/34 12/27/35 8/13/36
f 16/16/37 15/4/38 13/3/39
f 14/20/40 15/4/41 16/16/42
f 18/23/43 20/22/44 19/28/45
f 19/28/46 20/22/47 17/29/48
f 2/2/49 8/30/50 12/31/51 21/17/52 16/16/53 13/3/54
f 19/9/55 21/8/56 12/27/57 11/12/58 7/11/59 18/32/60
f 22/5/61 15/4/62 14/20/63 4/19/64 9/25/65 10/24/66
f 20/22/67 22/5/68 10/24/69 3/26/70 5/33/71 17/29/72
f 23/34/73 24/35/74 35/36/75 37/37/76 44/38/77
f 27/39/78 28/40/79 43/41/80 41/42/81 39/43/82
f 29/44/83 33/45/84 30/46/85 24/47/86 23/48/87
f 38/49/88 43/50/89 28/51/90 26/52/91 36/53/92
f 29/54/93 23/34/94 44/38/95 42/55/96 40/56/97
f 32/57/98 31/58/99 25/59/100
f 25/59/101 31/58/102 26/52/103 28/40/104 27/39/105
f 33/45/106 34/60/107 30/46/108
f 38/49/109 37/37/110 35/36/111
f 36/53/112 37/37/113 38/49/114
f 40/56/115 42/55/116 41/61/117
f 41/61/118 42/55/119 39/62/120
f 24/35/121 30/63/122 34/64/123 43/50/124 38/49/125 35/36/126
f 41/42/127 43/41/128 34/60/129 33/45/130 29/44/131 40/65/132
f 44/38/133 37/37/134 36/53/135 26/52/136 31/58/137 32/57/138
f 42/55/139 44/38/140 32/57/141 25/59/142 27/66/143 39/62/144
f 56/67/145 58/68/146 57/69/147 53/70/148
f 46/71/149 48/72/150 87/73/151 90/74/152
f 69/75/153 47/76/154 71/77/155
f 59/78/156 56/79/157 53/80/158 60/81/159
f 58/82/160 52/83/161 50/84/162 57/85/163
f 49/86/164 51/87/165 59/88/166 60/89/167
f 55/90/168 45/91/169 47/92/170 54/93/171
f 90/94/172 91/95/173 46/96/174
f 54/97/175 48/98/176 46/99/177 55/100/178
f 54/101/179 47/102/180 69/103/181 73/104/182
f 61/105/183 63/106/184 64/107/185
f 63/108/186 62/109/187 64/110/188
f 65/111/189 67/112/190 68/113/191
f 67/114/192 66/115/193 68/116/194
f 48/117/195 89/118/196 87/119/197
f 63/120/198 81/121/199 77/122/200 62/123/201
f 64/124/202 62/125/203 77/126/204 82/127/205
f 51/128/206 49/129/207 67/130/208 65/131/209
f 47/132/210 45/133/211 66/134/212 67/135/213 71/136/214
f 68/137/215 66/138/216 45/139/217 55/140/218
f 83/141/219 86/142/220 65/143/221 68/144/222
f 69/145/223 71/146/224 73/147/225
f 67/148/226 74/149/227 70/150/228 71/151/229
f 71/152/230 70/153/231 72/154/232
f 71/155/233 72/156/234 73/157/235
f 72/158/236 70/159/237 74/160/238 78/161/239
f 73/162/240 72/163/241 75/164/242 76/165/243 63/166/244
f 75/167/245 80/168/246 60/169/247 53/170/248
f 76/171/249 75/172/250 53/173/251
f 81/174/252 50/175/253 77/176/254
f 82/177/255 77/178/256 50/179/257 52/180/258
f 56/181/259 83/182/260 85/183/261
f 59/184/262 86/185/263 83/186/264 56/187/265
f 49/188/266 74/189/267 67/190/268
f 73/191/269 88/192/270 54/193/271
f 90/194/272 87/195/273 61/196/274 64/197/275
f 90/198/276 64/199/277 82/200/278
f 82/201/279 84/202/280 91/203/281 90/204/282
f 63/205/283 61/206/284 87/207/285 89/208/286
f 54/209/287 88/210/288 89/211/289 48/212/290
f 63/213/291 89/214/292 88/215/293 73/216/294
f 92/217/295 83/218/296 68/219/297 55/220/298
f 91/221/299 84/222/300 85/223/301 83/224/302 92/225/303
f 56/226/304 85/227/305 84/228/306 82/229/307 52/230/308 58/231/309
f 51/232/310 65/233/311 86/234/312
f 51/235/313 86/236/314 59/237/315
f 46/238/316 91/239/317 92/240/318 55/241/319
f 49/242/320 79/243/321 78/244/322 74/245/323
f 60/246/324 80/247/325 79/248/326 49/249/327
f 76/250/328 81/251/329 63/252/330
f 57/253/331 50/254/332 81/255/333 76/256/334 53/257/335
f 72/258/336 78/259/337 79/260/338 80/261/339 75/262/340
