# This file uses centimeters as units for non-parametric coordinates.

v 114.237762 6.597090 43.161194
v 107.629166 7.072200 39.936554
v 102.505676 6.915841 45.224304
v 105.947739 6.344097 51.716888
v 113.198593 6.147098 50.441803
v 114.388062 12.181706 43.420685
v 107.779465 12.656816 40.196075
v 102.655945 12.500458 45.483826
v 106.098038 11.928713 51.976410
v 113.348877 11.731714 50.701324
v 108.854065 12.199882 46.355682
v 111.267960 5.315884 -52.174500
v 103.943283 6.226935 -52.110779
v 101.844727 7.727913 -45.163147
v 107.872421 7.744516 -40.933014
v 113.696289 6.253800 -45.266266
v 111.734497 10.823411 -52.854218
v 104.409836 11.734463 -52.790466
v 102.311279 13.235439 -45.842865
v 108.338974 13.252043 -41.612732
v 114.162842 11.761327 -45.945984
v 108.191483 12.161337 -47.809265
v -102.465523 6.609434 -49.170471
v -109.804123 6.609434 -49.780670
v -112.652199 6.609434 -42.989838
v -107.073822 6.609434 -38.182648
v -100.778107 6.609434 -42.002502
v -102.465523 12.205712 -49.170471
v -109.804123 12.205712 -49.780670
v -112.652199 12.205712 -42.989838
v -107.073822 12.205712 -38.182648
v -100.778107 12.205712 -42.002502
v -106.554756 12.205712 -44.425232
v -104.661911 7.536010 38.799500
v -111.578598 6.698378 41.229065
v -111.352402 5.767476 48.548767
v -104.295921 6.029778 50.643066
v -100.160973 7.122792 44.617645
v -104.951500 13.089382 39.295532
v -111.868187 12.251751 41.725128
v -111.641991 11.320848 49.044830
v -104.585510 11.583151 51.139099
v -100.450562 12.676165 45.113708
v -106.699554 12.184260 45.263641
v -121.125679 0.000000 57.749542
v 121.125687 0.000015 57.749420
v -121.125679 5.388863 57.749542
v 121.125687 6.605728 57.749420
v -121.125679 6.469818 -57.749451
v 121.125687 4.877190 -57.749573
v -121.125679 0.000000 -57.749451
v 121.125687 0.000015 -57.749573
v -44.577557 8.684258 57.749512
v -121.125679 8.684250 22.049866
v -94.740883 8.684250 51.823975
v -112.256927 8.684250 39.694092
v 121.125687 8.684265 -27.400818
v 54.639313 8.684258 -57.749542
v 111.749557 8.684265 -44.720520
v 91.290848 8.684265 -52.935883
v -121.125679 8.684250 -18.070038
v -121.125679 7.272118 -43.690735
v -113.721970 8.684250 -30.267242
v -121.125679 5.262001 -28.738098
v 121.125687 7.489075 50.044006
v 121.125687 8.684265 22.971588
v 112.657089 8.684265 40.226288
v 121.125687 6.644302 37.829407
v -2.564415 0.000008 57.749481
v -2.200768 7.968138 -57.749512
v -2.229210 0.000008 -57.749512
v -2.535316 8.156893 57.749481
v -2.242218 8.684258 -42.593750
v -2.470634 8.684259 36.111938
v -2.519829 8.684259 53.062347
vt 0.112048 0.228792
vt 0.112048 0.228792
vt 0.112048 0.228792
vt 0.112048 0.228792
vt 0.112048 0.228792
vt 0.112048 0.228792
vt 0.112048 0.228792
vt 0.112048 0.228792
vt 0.112048 0.228792
vt 0.112048 0.228792
vt 0.112048 0.228792
vt 0.112048 0.228792
vt 0.112048 0.228792
vt 0.112048 0.228792
vt 0.112048 0.228792
vt 0.112048 0.228792
vt 0.112048 0.228792
vt 0.112048 0.228792
vt 0.112048 0.228792
vt 0.112048 0.228792
vt 0.112048 0.228792
vt 0.112048 0.228792
vt 0.112048 0.228792
vt 0.112048 0.228792
vt 0.112048 0.228792
vt 0.112048 0.228792
vt 0.112048 0.228792
vt 0.112048 0.228792
vt 0.112048 0.228792
vt 0.112048 0.228792
vt 0.112048 0.228792
vt 0.112048 0.228792
vt 0.112048 0.228792
vt 0.112048 0.228792
vt 0.112048 0.228792
vt 0.112048 0.228792
vt 0.112048 0.228792
vt 0.112048 0.228792
vt 0.112048 0.228792
vt 0.112048 0.228792
vt 0.112048 0.228792
vt 0.112048 0.228792
vt 0.112048 0.228792
vt 0.112048 0.228792
vt 0.112048 0.228792
vt 0.112048 0.228792
vt 0.112048 0.228792
vt 0.112048 0.228792
vt 0.112048 0.228792
vt 0.112048 0.228792
vt 0.112048 0.228792
vt 0.112048 0.228792
vt 0.112048 0.228792
vt 0.112048 0.228792
vt 0.112048 0.228792
vt 0.112048 0.228792
vt 0.112048 0.228792
vt 0.112048 0.228792
vt 0.112048 0.228792
vt 0.112048 0.228792
vt 0.112048 0.228792
vt 0.112048 0.228792
vt 0.112048 0.228792
vt 0.112048 0.228792
vt 0.112048 0.228792
vt 0.112048 0.228792
vt 0.112048 0.228792
vt 0.112048 0.228792
vt 0.112048 0.228792
vt 0.112048 0.228792
vt 0.112048 0.228792
vt 0.112048 0.228792
vt 0.753034 0.002972
vt 0.774578 0.009179
vt 0.760276 0.021887
vt 0.762856 0.028355
vt 0.762849 0.028356
vt 0.762824 0.028354
vt 0.762824 0.028354
vt 0.762856 0.028355
vt 0.762824 0.028354
vt 0.762856 0.028355
vt 0.762824 0.028356
vt 0.762849 0.028357
vt 0.762856 0.028355
vt 0.759079 0.095181
vt 0.815540 0.002972
vt 0.869320 0.092178
vt 0.861664 0.110322
vt 0.844958 0.118929
vt 0.762856 0.028355
vt 0.762856 0.028357
vt 0.753034 0.040372
vt 0.869320 0.123972
vt 0.762824 0.028356
vt 0.762824 0.028356
vt 0.815030 0.123972
vt 0.753034 0.109244
vt 0.753034 0.093579
vt 0.753034 0.082403
vt 0.753034 0.123972
vt 0.862405 0.021329
vt 0.869320 0.039406
vt 0.762856 0.028357
vt 0.762856 0.028357
vt 0.869320 0.011044
vt 0.869320 0.023840
vt 0.762824 0.028356
vt 0.762824 0.028356
vt 0.869320 0.002972
vt 0.762837 0.028354
vt 0.762849 0.028355
vt 0.850143 0.123972
vt 0.762837 0.028354
vt 0.768344 0.002972
vt 0.762838 0.028356
vt 0.768583 0.108095
vt 0.849922 0.025640
vt 0.849882 0.007882
vt 0.768357 0.007882
vt 0.768357 0.007882
vt 0.762844 0.028357
vt 0.849870 0.002972
vt 0.768397 0.025640
vt 0.768397 0.025640
vt 0.768583 0.108095
vt 0.850109 0.108095
vt 0.768617 0.123972
vt 0.762837 0.028354
vt 0.762843 0.028355
vt 0.762837 0.028354
vt 0.762843 0.028355
vt 0.862405 0.021329
vt 0.862405 0.021329
vt 0.862405 0.021329
vt 0.869320 0.092178
vt 0.869320 0.092178
vt 0.762824 0.028356
vt 0.762824 0.028354
vt 0.762824 0.028354
vt 0.762824 0.028354
vt 0.815030 0.123972
vt 0.762824 0.028354
vt 0.762824 0.028354
vt 0.762824 0.028354
vt 0.762824 0.028356
vt 0.869320 0.023840
vt 0.762824 0.028356
vt 0.869320 0.011044
vt 0.869320 0.039406
vt 0.844958 0.118929
vt 0.844958 0.118929
vt 0.844958 0.118929
vt 0.762824 0.028354
vt 0.869320 0.123972
vt 0.869320 0.123972
vt 0.861664 0.110322
vt 0.861664 0.110322
vt 0.762849 0.028354
vt 0.762849 0.028354
vn 0.440062 0.029859 -0.897471
vn 0.440062 0.029859 -0.897471
vn 0.440062 0.029859 -0.897471
vn 0.440062 0.029859 -0.897471
vn -0.717978 0.051579 -0.694152
vn -0.717978 0.051579 -0.694152
vn -0.717978 0.051579 -0.694152
vn -0.717979 0.051579 -0.694152
vn -0.883442 0.002000 0.468537
vn -0.883442 0.002000 0.468537
vn -0.883442 0.002000 0.468537
vn -0.883442 0.002000 0.468537
vn 0.171650 -0.050341 0.983871
vn 0.171650 -0.050341 0.983871
vn 0.171650 -0.050341 0.983871
vn 0.171650 -0.050341 0.983871
vn 0.989708 -0.033103 0.139217
vn 0.989708 -0.033103 0.139217
vn 0.989709 -0.033103 0.139217
vn 0.989708 -0.033103 0.139217
vn 0.038900 0.996983 0.067172
vn 0.038900 0.996983 0.067172
vn 0.038900 0.996983 0.067172
vn 0.038900 0.996983 0.067172
vn 0.038899 0.996983 0.067172
vn 0.038900 0.996983 0.067172
vn 0.038899 0.996983 0.067172
vn 0.038900 0.996983 0.067173
vn 0.038900 0.996983 0.067172
vn 0.038900 0.996983 0.067173
vn 0.038900 0.996983 0.067173
vn 0.038900 0.996983 0.067172
vn 0.038900 0.996983 0.067173
vn 0.038900 0.996983 0.067172
vn 0.038900 0.996983 0.067172
vn -0.023621 -0.120479 -0.992435
vn -0.023621 -0.120479 -0.992435
vn -0.023621 -0.120479 -0.992435
vn -0.023621 -0.120479 -0.992435
vn -0.953679 0.044063 -0.297582
vn -0.953679 0.044063 -0.297582
vn -0.953679 0.044063 -0.297582
vn -0.953679 0.044063 -0.297582
vn -0.568385 0.148034 0.809335
vn -0.568385 0.148034 0.809335
vn -0.568385 0.148034 0.809335
vn -0.568385 0.148034 0.809335
vn 0.604000 0.047024 0.795596
vn 0.604000 0.047024 0.795596
vn 0.604000 0.047024 0.795596
vn 0.604000 0.047024 0.795596
vn 0.941679 -0.118636 -0.314906
vn 0.941679 -0.118636 -0.314906
vn 0.941679 -0.118636 -0.314906
vn 0.941679 -0.118636 -0.314906
vn 0.120030 0.977248 -0.174871
vn 0.120029 0.977248 -0.174872
vn 0.120030 0.977248 -0.174871
vn 0.120029 0.977248 -0.174872
vn 0.120030 0.977248 -0.174872
vn 0.120030 0.977248 -0.174871
vn 0.120030 0.977248 -0.174872
vn 0.120030 0.977248 -0.174871
vn 0.120030 0.977248 -0.174871
vn 0.120030 0.977248 -0.174871
vn 0.120030 0.977248 -0.174871
vn 0.120030 0.977248 -0.174871
vn 0.120030 0.977248 -0.174871
vn 0.120030 0.977248 -0.174871
vn 0.120030 0.977248 -0.174871
vn 0.082864 0.000000 -0.996561
vn 0.082864 0.000000 -0.996561
vn 0.082864 0.000000 -0.996561
vn 0.082864 0.000000 -0.996561
vn -0.922180 0.000000 -0.386762
vn -0.922180 0.000000 -0.386762
vn -0.922180 0.000000 -0.386762
vn -0.922180 0.000000 -0.386762
vn -0.652803 0.000000 0.757528
vn -0.652803 0.000000 0.757528
vn -0.652803 0.000000 0.757528
vn -0.652803 0.000000 0.757528
vn 0.518726 0.000000 0.854941
vn 0.518726 0.000000 0.854941
vn 0.518726 0.000000 0.854941
vn 0.518726 0.000000 0.854941
vn 0.973392 0.000000 -0.229147
vn 0.973392 0.000000 -0.229147
vn 0.973392 0.000000 -0.229147
vn 0.973392 0.000000 -0.229147
vn 0.000000 1.000000 -0.000000
vn 0.000000 1.000000 0.000000
vn 0.000000 1.000000 0.000000
vn 0.000000 1.000000 0.000000
vn 0.000000 1.000000 0.000000
vn 0.000000 1.000000 0.000000
vn 0.000000 1.000000 0.000000
vn 0.000000 1.000000 0.000000
vn 0.000000 1.000000 0.000000
vn 0.000000 1.000000 0.000000
vn 0.000000 1.000000 -0.000000
vn 0.000000 1.000000 0.000000
vn 0.000000 1.000000 -0.000000
vn 0.000000 1.000000 -0.000000
vn 0.000000 1.000000 0.000000
vn -0.337816 0.066248 -0.938878
vn -0.337816 0.066248 -0.938878
vn -0.337816 0.066248 -0.938878
vn -0.337816 0.066248 -0.938878
vn -0.998243 -0.054195 0.023956
vn -0.998243 -0.054195 0.023956
vn -0.998243 -0.054195 0.023956
vn -0.998243 -0.054195 0.023956
vn -0.279685 -0.099879 0.954882
vn -0.279685 -0.099879 0.954882
vn -0.279685 -0.099879 0.954882
vn -0.279685 -0.099879 0.954882
vn 0.825127 -0.007430 0.564898
vn 0.825127 -0.007430 0.564898
vn 0.825128 -0.007430 0.564898
vn 0.825128 -0.007430 0.564898
vn 0.790616 0.095257 -0.604857
vn 0.790617 0.095257 -0.604857
vn 0.790616 0.095257 -0.604857
vn 0.790617 0.095257 -0.604857
vn -0.074773 0.988941 0.128082
vn -0.074773 0.988941 0.128082
vn -0.074773 0.988941 0.128082
vn -0.074773 0.988941 0.128082
vn -0.074773 0.988941 0.128082
vn -0.074773 0.988941 0.128082
vn -0.074773 0.988941 0.128082
vn -0.074774 0.988941 0.128081
vn -0.074773 0.988941 0.128082
vn -0.074774 0.988941 0.128081
vn -0.074774 0.988941 0.128082
vn -0.074773 0.988941 0.128082
vn -0.074774 0.988941 0.128082
vn -0.074773 0.988941 0.128082
vn -0.074773 0.988941 0.128082
vn -0.093043 0.986555 0.134358
vn -0.093043 0.986555 0.134358
vn -0.093043 0.986555 0.134358
vn -0.000000 -0.000000 -1.000000
vn -0.000000 -0.000000 -1.000000
vn -0.000000 -0.000000 -1.000000
vn -0.000000 -0.000000 -1.000000
vn -0.000000 -0.000000 -1.000000
vn -0.000000 -0.000000 -1.000000
vn -0.000000 -0.000000 -1.000000
vn 0.000000 -1.000000 0.000000
vn 0.000000 -1.000000 0.000000
vn 0.000000 -1.000000 0.000000
vn 0.000000 -1.000000 0.000000
vn 0.000001 -0.000001 1.000000
vn 0.000001 -0.000000 1.000000
vn 0.000001 -0.000000 1.000000
vn 0.000001 -0.000001 1.000000
vn 0.000001 -0.000001 1.000000
vn -0.000000 1.000000 -0.000000
vn -0.000000 1.000000 -0.000000
vn -0.000000 1.000000 -0.000000
vn -0.000000 1.000000 -0.000000
vn -1.000000 0.000000 0.000000
vn -1.000000 0.000000 0.000000
vn -1.000000 0.000000 0.000000
vn -1.000000 0.000000 0.000000
vn -0.179886 0.979523 0.090418
vn -0.179886 0.979523 0.090418
vn -0.179886 0.979523 0.090418
vn -0.040414 0.938783 0.342132
vn -0.040414 0.938783 0.342132
vn -0.040414 0.938783 0.342132
vn 0.088429 0.971435 -0.220216
vn 0.088429 0.971435 -0.220216
vn 0.088429 0.971435 -0.220216
vn 1.000000 -0.000001 0.000000
vn 1.000000 -0.000001 0.000000
vn 1.000000 -0.000001 0.000000
vn 1.000000 -0.000001 0.000000
vn 0.224074 0.966993 -0.121304
vn 0.224074 0.966993 -0.121304
vn 0.224074 0.966993 -0.121304
vn 0.052417 0.915405 -0.399106
vn 0.052417 0.915405 -0.399106
vn 0.052417 0.915405 -0.399106
vn -0.395490 0.910282 0.122371
vn -0.395490 0.910282 0.122371
vn -0.395490 0.910282 0.122371
vn -0.449521 0.850575 -0.272860
vn -0.449521 0.850575 -0.272860
vn -0.449521 0.850575 -0.272860
vn -0.011647 0.997710 -0.066632
vn -0.010477 0.998313 -0.057109
vn -0.010339 0.998378 -0.055982
vn -0.011647 0.997710 -0.066632
vn -0.011647 0.997710 -0.066632
vn -0.000000 1.000000 0.000000
vn -0.000000 1.000000 0.000000
vn -0.000000 1.000000 0.000000
vn -0.000000 1.000000 0.000000
vn -0.000000 1.000000 0.000000
vn -0.000000 1.000000 0.000000
vn -0.000000 1.000000 0.000000
vn -0.000000 1.000000 0.000000
vn -0.000000 1.000000 0.000000
vn -0.000000 1.000000 0.000000
vn -0.000000 1.000000 0.000000
vn -1.000000 -0.000001 0.000000
vn -1.000000 -0.000001 0.000000
vn -1.000000 -0.000001 0.000000
vn -1.000000 -0.000001 0.000000
vn -1.000000 -0.000001 0.000000
vn -1.000000 -0.000001 0.000000
vn -1.000000 -0.000001 0.000000
vn -1.000000 -0.000001 0.000000
vn 0.215592 0.974157 -0.067374
vn 0.215592 0.974157 -0.067374
vn 0.215592 0.974157 -0.067374
vn 0.267078 0.954718 0.131082
vn 0.267078 0.954718 0.131082
vn 0.267078 0.954718 0.131082
vn 1.000000 0.000000 0.000000
vn 1.000000 0.000000 0.000000
vn 1.000000 0.000000 0.000000
vn 1.000000 0.000000 0.000000
vn 1.000000 0.000000 0.000000
vn 1.000000 0.000000 0.000000
vn 1.000000 0.000000 0.000000
vn 1.000000 0.000000 0.000000
vn 0.012363 0.993644 0.111888
vn 0.012369 0.993644 0.111885
vn 0.012370 0.993644 0.111885
vn 0.012363 0.993644 0.111888
vn 0.012363 0.993644 0.111888
vn 0.000000 -1.000000 0.000000
vn 0.000000 -1.000000 0.000000
vn 0.000000 -1.000000 0.000000
vn 0.000000 -1.000000 0.000000
vn 0.000001 -0.000000 1.000000
vn 0.000001 -0.000000 1.000000
vn 0.000000 -0.000000 1.000000
vn 0.000000 -0.000000 1.000000
vn -0.000000 1.000000 -0.000000
vn -0.000000 1.000000 -0.000000
vn -0.000000 1.000000 -0.000000
vn -0.000000 1.000000 -0.000000
vn -0.000000 1.000000 -0.000000
vn -0.010339 0.998378 -0.055982
vn -0.010477 0.998313 -0.057109
vn -0.006417 0.999689 -0.024085
vn -0.006417 0.999689 -0.024085
vn -0.000000 1.000000 0.000000
vn -0.000000 1.000000 0.000000
vn -0.000000 1.000000 0.000000
vn 0.012370 0.993644 0.111885
vn 0.012369 0.993644 0.111885
vn 0.012464 0.993648 0.111840
s off
f 1/1/1 2/2/2 7/8/3 6/7/4
f 2/2/5 3/3/6 8/9/7 7/8/8
f 3/3/9 4/4/10 9/10/11 8/9/12
f 4/4/13 5/5/14 10/11/15 9/10/16
f 5/5/17 1/6/18 6/12/19 10/11/20
f 6/16/21 7/15/22 11/18/23
f 7/15/24 8/14/25 11/18/26
f 8/14/27 9/13/28 11/18/29
f 9/13/30 10/17/31 11/18/32
f 10/17/33 6/16/34 11/18/35
f 12/19/36 13/20/37 18/21/38 17/22/39
f 13/20/40 14/23/41 19/24/42 18/21/43
f 14/23/44 15/25/45 20/26/46 19/24/47
f 15/25/48 16/27/49 21/28/50 20/26/51
f 16/27/52 12/29/53 17/30/54 21/28/55
f 17/31/56 18/32/57 22/33/58
f 18/32/59 19/34/60 22/33/61
f 19/34/62 20/35/63 22/33/64
f 20/35/65 21/36/66 22/33/67
f 21/36/68 17/31/69 22/33/70
f 23/37/71 24/38/72 29/39/73 28/40/74
f 24/38/75 25/41/76 30/42/77 29/39/78
f 25/41/79 26/43/80 31/44/81 30/42/82
f 26/43/83 27/45/84 32/46/85 31/44/86
f 27/45/87 23/47/88 28/48/89 32/46/90
f 28/49/91 29/50/92 33/51/93
f 29/50/94 30/52/95 33/51/96
f 30/52/97 31/53/98 33/51/99
f 31/53/100 32/54/101 33/51/102
f 32/54/103 28/49/104 33/51/105
f 34/55/106 35/56/107 40/57/108 39/58/109
f 35/56/110 36/59/111 41/60/112 40/57/113
f 36/59/114 37/61/115 42/62/116 41/60/117
f 37/61/118 38/63/119 43/64/120 42/62/121
f 38/63/122 34/65/123 39/66/124 43/64/125
f 39/67/126 40/68/127 44/69/128
f 40/68/129 41/70/130 44/69/131
f 41/70/132 42/71/133 44/69/134
f 42/71/135 43/72/136 44/69/137
f 43/72/138 39/67/139 44/69/140
f 47/73/141 55/74/142 56/75/143
f 49/159/144 70/112/145 58/77/146 50/78/147 52/141/148 71/131/149 51/160/150
f 51/80/151 71/132/152 69/130/153 45/82/154
f 45/82/155 69/130/156 72/122/157 53/84/158 47/85/159
f 63/86/160 53/87/161 74/118/162 73/127/163
f 51/80/164 64/91/165 62/92/166 49/76/167
f 47/73/168 56/75/169 54/93/170
f 47/73/171 53/87/172 55/74/173
f 50/156/174 60/152/175 59/158/176
f 48/83/177 46/143/178 68/146/179 65/96/180
f 50/155/181 59/89/182 57/136/183
f 58/97/184 60/151/185 50/94/186
f 62/98/187 64/99/188 63/86/189
f 63/86/190 64/99/191 61/100/192
f 63/86/193 73/127/194 70/113/195 49/101/196 62/98/197
f 54/93/198 56/75/199 55/74/200 53/87/201 63/86/202 61/100/203
f 57/137/204 74/125/205 75/120/206 67/102/207 66/150/208
f 64/91/209 45/82/210 47/85/211 54/104/212 61/105/213
f 51/80/214 45/82/215 64/91/216
f 65/149/217 68/107/218 67/134/219
f 67/133/220 68/147/221 66/103/222
f 68/148/223 52/140/224 50/154/225 57/108/226 66/109/227
f 68/95/228 46/144/229 52/139/230
f 67/135/231 75/121/232 72/115/233 48/110/234 65/106/235
f 69/129/236 71/114/237 52/79/238 46/145/239
f 72/116/240 69/111/241 46/81/242 48/138/243
f 73/126/244 74/124/245 57/88/246 59/157/247 60/153/248
f 70/128/249 73/117/250 60/90/251 58/142/252
f 75/119/253 74/118/254 53/87/255
f 72/123/256 75/119/257 53/87/258
