# This file uses centimeters as units for non-parametric coordinates.

v 32.806885 102.447464 -28.000000
v 32.806885 102.447464 28.000000
v 37.870605 102.447464 -28.000000
v 37.870605 102.447464 28.000000
v 37.870605 0.000000 -24.914551
v 37.870605 0.000000 24.914551
v 32.806885 0.000000 -24.914551
v 32.806885 0.000000 24.914551
v 37.870605 98.281929 -23.769287
v 37.870605 98.281929 23.769287
v 37.870605 3.344985 22.273438
v 37.870605 3.344985 -22.273438
v 32.806885 3.344985 -22.273438
v 32.806885 3.344985 22.273438
v 32.806885 98.281929 23.769287
v 32.806885 98.281929 -23.769287
v -37.870117 102.447464 -28.000000
v -37.870117 102.447464 28.000000
v -32.806152 102.447464 -28.000000
v -32.806152 102.447464 28.000000
v -32.806152 0.000000 -24.914551
v -32.806152 0.000000 24.914551
v -37.870117 0.000000 -24.914551
v -37.870117 0.000000 24.914551
v -32.806152 98.281929 -23.769287
v -32.806152 98.281929 23.769287
v -32.806152 3.344985 22.273438
v -32.806152 3.344985 -22.273438
v -37.870117 3.344985 -22.273438
v -37.870117 3.344985 22.273438
v -37.870117 98.281929 23.769287
v -37.870117 98.281929 -23.769287
v -37.106201 40.876335 -26.604004
v -37.106201 40.876335 26.174805
v -37.106201 45.199074 -26.604004
v -37.106201 45.199074 26.174805
v 37.106689 45.199074 -26.604004
v 37.106689 45.199074 26.174805
v 37.106689 40.876335 -26.604004
v 37.106689 40.876335 26.174805
v -36.898926 82.718994 -26.769775
v -37.432861 76.704079 25.662354
v -36.612549 87.003807 -26.275391
v -37.146484 80.988884 26.156738
v 37.433350 82.032379 -26.091553
v 36.899414 76.017464 26.340576
v 37.146973 77.747574 -26.585938
v 36.613037 71.732651 25.846191
v -37.870117 105.676506 -21.994873
v -37.870117 101.510963 -18.671631
v -32.806152 101.510963 -18.671631
v -32.806152 105.676498 -21.995117
v -32.806152 105.676498 23.784424
v -32.806152 101.510963 20.190674
v -37.870117 101.510963 20.190674
v -37.870117 105.676498 23.784424
v 32.806885 105.676498 23.572754
v 32.806885 101.510963 20.010986
v 37.870605 101.510963 20.010986
v 37.870605 105.676498 23.572754
v 32.806885 105.676498 -23.503906
v 32.806885 101.510963 -19.952637
v 37.870605 101.510963 -19.952637
v 37.870605 105.676498 -23.503906
v 32.806885 5.999332 28.000000
v 32.806885 5.999332 23.769287
v 37.870605 5.999332 23.769287
v 37.870605 5.999332 28.000000
v -37.870117 5.999332 28.000000
v -37.870117 5.999332 23.769287
v -32.806152 5.999332 23.769287
v -32.806152 5.999332 28.000000
v -37.870361 5.999332 -28.000000
v -37.870361 5.999332 -23.769287
v -32.806152 5.999332 -23.769287
v -32.806152 5.999332 -28.000000
v 32.806885 5.999332 -28.000000
v 32.806885 5.999332 -23.769287
v 37.870605 5.999332 -23.769287
v 37.870605 5.999332 -28.000000
v -6.870605 78.956169 26.231934
v 34.555664 79.328285 4.520020
v 34.264648 74.992287 4.471924
v -6.480469 74.625931 25.739258
v -4.238770 84.830254 -26.195068
v 21.227783 70.375069 24.132568
v -3.706055 80.490417 -26.687500
v 20.694824 74.714897 24.624756
v 9.887451 77.816086 4.305908
v 10.386230 73.486763 3.742188
v -12.973389 42.612045 24.429443
v -12.973389 38.648392 24.429443
v 6.334717 38.648392 -24.858643
v 6.334717 42.612038 -24.858643
vt 0.102622 0.303700
vt 0.102622 0.303700
vt 0.102622 0.303700
vt 0.102622 0.303700
vt 0.102622 0.286994
vt 0.102622 0.278640
vt 0.102622 0.278640
vt 0.102622 0.286994
vt 0.102622 0.303700
vt 0.102622 0.278640
vt 0.102622 0.278640
vt 0.102622 0.303700
vt 0.102622 0.286994
vt 0.102622 0.303700
vt 0.102622 0.303700
vt 0.102622 0.286994
vt 0.102622 0.303700
vt 0.102622 0.303700
vt 0.102622 0.303700
vt 0.102622 0.303700
vt 0.102622 0.303700
vt 0.102622 0.278640
vt 0.102622 0.278640
vt 0.102622 0.303700
vt 0.102622 0.278640
vt 0.102622 0.286994
vt 0.102622 0.286994
vt 0.102622 0.278640
vt 0.102622 0.286994
vt 0.102622 0.303700
vt 0.102622 0.303700
vt 0.102622 0.286994
vt 0.102622 0.286994
vt 0.102622 0.278640
vt 0.102622 0.278640
vt 0.102622 0.286994
vt 0.102622 0.278640
vt 0.102622 0.303700
vt 0.102622 0.303700
vt 0.102622 0.278640
vt 0.102622 0.303700
vt 0.102622 0.303700
vt 0.102622 0.303700
vt 0.102622 0.303700
vt 0.102622 0.303700
vt 0.102622 0.286994
vt 0.102622 0.286994
vt 0.102622 0.303700
vt 0.102622 0.278640
vt 0.102622 0.286994
vt 0.102622 0.286994
vt 0.102622 0.278640
vt 0.102622 0.286994
vt 0.102622 0.303700
vt 0.102622 0.303700
vt 0.102622 0.286994
vt 0.102622 0.278640
vt 0.102622 0.278640
vt 0.102622 0.303700
vt 0.102622 0.303700
vt 0.102622 0.303700
vt 0.102622 0.303700
vt 0.102622 0.303700
vt 0.102622 0.303700
vt 0.102622 0.303700
vt 0.102622 0.303700
vt 0.102622 0.303700
vt 0.102622 0.303700
vt 0.102622 0.278640
vt 0.102622 0.286994
vt 0.102622 0.286994
vt 0.102622 0.278640
vt 0.102622 0.303700
vt 0.102622 0.286994
vt 0.102622 0.286994
vt 0.102622 0.303700
vt 0.102622 0.278640
vt 0.102622 0.303700
vt 0.102622 0.303700
vt 0.102622 0.278640
vt 0.102622 0.303700
vt 0.102622 0.303700
vt 0.102622 0.303700
vt 0.102622 0.303700
vt 0.102622 0.303700
vt 0.102622 0.286994
vt 0.102622 0.286994
vt 0.102622 0.303700
vt 0.102622 0.286994
vt 0.102622 0.278640
vt 0.102622 0.278640
vt 0.102622 0.286994
vt 0.102622 0.278640
vt 0.102622 0.303700
vt 0.102622 0.303700
vt 0.102622 0.278640
vt 0.102622 0.278640
vt 0.102622 0.286994
vt 0.102622 0.286994
vt 0.102622 0.278640
vt 0.102622 0.286994
vt 0.102622 0.303700
vt 0.102622 0.303700
vt 0.102622 0.286994
vt 0.102622 0.303700
vt 0.102622 0.303700
vt 0.102622 0.303700
vt 0.102622 0.303700
vt 0.102622 0.303700
vt 0.102622 0.278640
vt 0.102622 0.278640
vt 0.102622 0.303700
vt 0.102622 0.286994
vt 0.102622 0.278640
vt 0.102622 0.278640
vt 0.102622 0.286994
vt 0.102622 0.278640
vt 0.102622 0.303700
vt 0.102622 0.303700
vt 0.102622 0.278640
vt 0.102622 0.286994
vt 0.102622 0.286994
vt 0.102622 0.303700
vt 0.102622 0.303700
vt 0.102622 0.303700
vt 0.102622 0.303700
vt 0.102622 0.303700
vt 0.102622 0.303700
vt 0.102622 0.279834
vt 0.102622 0.303700
vt 0.102622 0.303700
vt 0.102622 0.279834
vt 0.102622 0.279834
vt 0.102622 0.303700
vt 0.102622 0.303700
vt 0.102622 0.303700
vt 0.102622 0.303700
vt 0.102622 0.303700
vt 0.102622 0.303700
vt 0.102622 0.303700
vt 0.102622 0.303700
vt 0.102622 0.303700
vt 0.102622 0.303700
vt 0.102622 0.279834
vt 0.102622 0.303700
vt 0.102622 0.303700
vt 0.102622 0.303700
vt 0.102622 0.303700
vt 0.102622 0.303700
vt 0.102622 0.279834
vt 0.102622 0.279834
vt 0.102622 0.303700
vt 0.102622 0.303700
vt 0.102622 0.303700
vt 0.102622 0.303700
vt 0.102622 0.303700
vt 0.102622 0.303700
vt 0.102622 0.303700
vt 0.102622 0.303700
vt 0.102622 0.303700
vt 0.102622 0.303700
vt 0.102622 0.303700
vt 0.102622 0.303700
vt 0.102622 0.303700
vt 0.102622 0.303700
vt 0.102622 0.303700
vt 0.102622 0.303700
vt 0.102622 0.303700
vt 0.102622 0.303700
vt 0.102622 0.303700
vt 0.102622 0.303700
vt 0.102622 0.303700
vt 0.102622 0.303700
vt 0.102622 0.303700
vt 0.102622 0.303700
vt 0.102622 0.303700
vt 0.102622 0.303700
vt 0.102622 0.303700
vt 0.102622 0.303700
vt 0.102622 0.303700
vt 0.102622 0.303700
vt 0.102622 0.303700
vt 0.102622 0.303700
vt 0.102622 0.303700
vt 0.102622 0.303700
vt 0.102622 0.303700
vt 0.102622 0.303700
vt 0.102622 0.303700
vt 0.102622 0.303700
vt 0.102622 0.303700
vt 0.102622 0.303700
vt 0.102622 0.303700
vt 0.102622 0.303700
vt 0.102622 0.303700
vt 0.102622 0.303700
vt 0.102622 0.303700
vt 0.102622 0.303700
vt 0.102622 0.303700
vt 0.102622 0.303700
vt 0.102622 0.303700
vt 0.102622 0.303700
vt 0.102622 0.303700
vt 0.102622 0.303700
vt 0.102622 0.303700
vt 0.102622 0.303700
vt 0.102622 0.303700
vt 0.102622 0.303700
vt 0.102622 0.303700
vt 0.102622 0.278640
vt 0.102622 0.278640
vt 0.102622 0.278640
vt 0.102622 0.278640
vt 0.102622 0.278640
vt 0.102622 0.278640
vt 0.102622 0.278640
vt 0.102622 0.278640
vt 0.102622 0.286994
vt 0.102622 0.286994
vt 0.102622 0.286994
vt 0.102622 0.286994
vt 0.102622 0.286994
vt 0.102622 0.286994
vt 0.102622 0.286994
vt 0.102622 0.286994
vt 0.102622 0.278640
vt 0.102622 0.278640
vt 0.102622 0.278640
vt 0.102622 0.278640
vt 0.102622 0.278640
vt 0.102622 0.278640
vt 0.102622 0.278640
vt 0.102622 0.278640
vt 0.102622 0.286994
vt 0.102622 0.286994
vt 0.102622 0.286994
vt 0.102622 0.286994
vt 0.102622 0.286994
vt 0.102622 0.286994
vt 0.102622 0.286994
vt 0.102622 0.286994
vt 0.102622 0.298330
vt 0.102622 0.298330
vt 0.102622 0.268497
vt 0.102622 0.268497
vt 0.102622 0.268497
vt 0.102622 0.268497
vt 0.102622 0.298330
vt 0.102622 0.298330
vt 0.102622 0.303700
vt 0.102622 0.303700
vt 0.102622 0.285204
vt 0.102622 0.285204
vt 0.102622 0.303700
vt 0.102622 0.303700
vt 0.102622 0.285204
vt 0.102622 0.285204
vt 0.102622 0.278640
vt 0.102622 0.278640
vt 0.102622 0.303700
vt 0.102622 0.303700
vt 0.102622 0.303700
vt 0.102622 0.303700
vt 0.102622 0.294154
vt 0.102622 0.294154
vt 0.102622 0.294154
vt 0.102622 0.294154
vn 0.000000 0.807935 0.589272
vn 0.000000 0.807935 0.589272
vn 0.000000 0.807935 0.589272
vn 0.000000 0.807935 0.589272
vn 0.000000 -1.000000 0.000000
vn 0.000000 -1.000000 0.000000
vn 0.000000 -1.000000 0.000000
vn 0.000000 -1.000000 0.000000
vn 0.000000 -0.457357 0.889283
vn 0.000000 -0.457357 0.889283
vn 0.000000 -0.457357 0.889283
vn 0.000000 -0.457357 0.889283
vn 0.000000 0.000000 -1.000000
vn 0.000000 0.000000 -1.000000
vn 0.000000 0.000000 -1.000000
vn 0.000000 0.000000 -1.000000
vn 1.000000 0.000001 0.000000
vn 1.000000 0.000001 0.000000
vn 1.000000 0.000001 0.000000
vn 1.000000 0.000001 0.000000
vn 1.000000 -0.000000 0.000000
vn 1.000000 -0.000000 0.000000
vn 1.000000 -0.000000 0.000000
vn 1.000000 -0.000000 0.000000
vn 1.000000 0.000000 0.000000
vn 1.000000 0.000000 0.000000
vn 1.000000 0.000000 0.000000
vn 1.000000 0.000000 0.000000
vn 1.000000 0.000000 0.000000
vn 1.000000 0.000000 0.000000
vn 1.000000 0.000000 0.000000
vn 1.000000 0.000000 0.000000
vn -1.000000 0.000001 0.000000
vn -1.000000 0.000001 0.000000
vn -1.000000 0.000001 0.000000
vn -1.000000 0.000001 0.000000
vn -1.000000 0.000000 0.000000
vn -1.000000 0.000000 0.000000
vn -1.000000 0.000000 0.000000
vn -1.000000 0.000000 0.000000
vn -1.000000 0.000001 0.000000
vn -1.000000 0.000001 0.000000
vn -1.000000 0.000001 0.000000
vn -1.000000 0.000001 0.000000
vn -1.000000 0.000000 0.000000
vn -1.000000 0.000000 0.000000
vn -1.000000 0.000000 0.000000
vn -1.000000 0.000000 0.000000
vn 0.000000 1.000000 0.000000
vn 0.000000 1.000000 0.000000
vn 0.000000 1.000000 0.000000
vn 0.000000 1.000000 0.000000
vn 0.000000 0.000000 1.000000
vn 0.000000 0.000000 1.000000
vn 0.000000 0.000000 1.000000
vn 0.000000 0.000000 1.000000
vn 0.000000 0.490954 -0.871185
vn 0.000000 0.490954 -0.871185
vn 0.000000 0.490954 -0.871185
vn 0.000000 0.490954 -0.871185
vn 0.000000 -0.758494 -0.651679
vn 0.000000 -0.758494 -0.651679
vn 0.000000 -0.758494 -0.651679
vn 0.000000 -0.758494 -0.651679
vn 0.000001 1.000000 0.000000
vn 0.000001 1.000000 0.000000
vn 0.000001 1.000000 0.000000
vn 0.000001 1.000000 0.000000
vn 0.000000 -1.000000 0.000000
vn 0.000000 -1.000000 0.000000
vn 0.000000 -1.000000 0.000000
vn 0.000000 -1.000000 0.000000
vn 0.000000 -0.457357 0.889283
vn 0.000000 -0.457357 0.889283
vn 0.000000 -0.457357 0.889283
vn 0.000000 -0.457357 0.889283
vn 0.000000 0.000000 -1.000000
vn 0.000000 0.000000 -1.000000
vn 0.000000 0.000000 -1.000000
vn 0.000000 0.000000 -1.000000
vn 1.000000 0.000000 0.000000
vn 1.000000 0.000000 0.000000
vn 1.000000 0.000000 0.000000
vn 1.000000 0.000000 0.000000
vn 1.000000 -0.000000 0.000000
vn 1.000000 -0.000000 0.000000
vn 1.000000 -0.000000 0.000000
vn 1.000000 -0.000000 0.000000
vn 1.000000 0.000001 0.000000
vn 1.000000 0.000001 0.000000
vn 1.000000 0.000001 0.000000
vn 1.000000 0.000001 0.000000
vn 1.000000 0.000000 0.000000
vn 1.000000 0.000000 0.000000
vn 1.000000 0.000000 0.000000
vn 1.000000 0.000000 0.000000
vn -1.000000 0.000000 0.000000
vn -1.000000 0.000000 0.000000
vn -1.000000 0.000000 0.000000
vn -1.000000 0.000000 0.000000
vn -1.000000 0.000000 0.000000
vn -1.000000 0.000000 0.000000
vn -1.000000 0.000000 0.000000
vn -1.000000 0.000000 0.000000
vn -1.000000 0.000000 0.000000
vn -1.000000 0.000000 0.000000
vn -1.000000 0.000000 0.000000
vn -1.000000 0.000000 0.000000
vn -1.000000 0.000003 0.000001
vn -1.000000 0.000003 0.000001
vn -1.000000 0.000003 0.000001
vn -1.000000 0.000003 0.000001
vn 0.000000 1.000000 0.000000
vn 0.000000 1.000000 0.000000
vn 0.000000 1.000000 0.000000
vn 0.000000 1.000000 0.000000
vn 0.000000 0.000000 1.000000
vn 0.000000 0.000000 1.000000
vn 0.000000 0.000000 1.000000
vn 0.000000 0.000000 1.000000
vn 0.000000 0.490954 -0.871186
vn 0.000000 0.490954 -0.871186
vn 0.000000 0.490954 -0.871186
vn 0.000000 0.490954 -0.871186
vn 0.000000 -1.000000 0.000000
vn 0.000000 -1.000000 0.000000
vn 0.000000 -1.000000 0.000000
vn 0.000000 -1.000000 0.000000
vn -1.000000 0.000000 0.000000
vn -1.000000 0.000000 0.000000
vn -1.000000 0.000000 0.000000
vn -1.000000 0.000000 0.000000
vn -0.063859 0.997886 -0.012080
vn -0.063859 0.997886 -0.012080
vn -0.063859 0.997886 -0.012080
vn -0.063859 0.997886 -0.012080
vn 1.000000 0.000000 0.000000
vn 1.000000 0.000000 0.000000
vn 1.000000 0.000000 0.000000
vn 1.000000 0.000000 0.000000
vn 0.055025 -0.998431 0.010409
vn 0.055025 -0.998431 0.010409
vn 0.055025 -0.998431 0.010409
vn 0.055025 -0.998431 0.010409
vn -0.034830 0.000000 0.999393
vn -0.034830 0.000000 0.999393
vn -0.034830 0.000000 0.999393
vn -0.034830 0.000000 0.999393
vn -0.056628 0.000000 -0.998395
vn -0.056628 0.000000 -0.998395
vn -0.056628 0.000000 -0.998395
vn -0.056628 0.000000 -0.998395
vn -0.997752 0.066971 -0.002478
vn -0.997752 0.066971 -0.002478
vn -0.997752 0.066971 -0.002478
vn -0.997752 0.066971 -0.002478
vn 0.098262 0.988415 0.115678
vn 0.098262 0.988415 0.115678
vn 0.098262 0.988415 0.115678
vn 0.098262 0.988415 0.115678
vn 0.098262 0.988415 0.115678
vn 0.993653 -0.071989 0.086435
vn 0.993653 -0.071989 0.086435
vn 0.993653 -0.071989 0.086435
vn 0.993653 -0.071989 0.086435
vn -0.016911 -0.987970 -0.153722
vn -0.016911 -0.987970 -0.153722
vn -0.016911 -0.987969 -0.153722
vn -0.016911 -0.987970 -0.153722
vn -0.010118 -0.113944 0.993436
vn -0.010118 -0.113944 0.993436
vn -0.010118 -0.113944 0.993436
vn -0.010118 -0.113944 0.993436
vn 0.010120 0.113956 -0.993434
vn 0.010120 0.113956 -0.993434
vn 0.010120 0.113956 -0.993434
vn 0.010120 0.113956 -0.993434
vn -1.000000 0.000000 0.000000
vn -1.000000 0.000000 0.000000
vn -1.000000 0.000000 0.000000
vn -1.000000 0.000000 0.000000
vn 0.000000 -0.844780 0.535114
vn 0.000000 -0.844780 0.535114
vn 0.000000 -0.844780 0.535114
vn 0.000000 -0.844780 0.535114
vn 1.000000 0.000000 0.000000
vn 1.000000 0.000000 0.000000
vn 1.000000 0.000000 0.000000
vn 1.000000 0.000000 0.000000
vn -0.000011 0.880742 -0.473597
vn -0.000011 0.880742 -0.473597
vn -0.000011 0.880742 -0.473597
vn -0.000011 0.880742 -0.473597
vn 1.000000 -0.000000 0.000000
vn 1.000000 -0.000000 0.000000
vn 1.000000 -0.000000 0.000000
vn 1.000000 -0.000000 0.000000
vn 0.000000 -0.742439 -0.669914
vn 0.000000 -0.742439 -0.669914
vn 0.000000 -0.742439 -0.669914
vn 0.000000 -0.742439 -0.669914
vn -1.000000 -0.000001 0.000000
vn -1.000000 -0.000001 0.000000
vn -1.000000 -0.000001 0.000000
vn -1.000000 -0.000001 0.000000
vn 0.000000 0.793870 0.608087
vn 0.000000 0.793870 0.608087
vn 0.000000 0.793870 0.608087
vn 0.000000 0.793870 0.608087
vn -1.000000 0.000000 0.000000
vn -1.000000 0.000000 0.000000
vn -1.000000 0.000000 0.000000
vn -1.000000 0.000000 0.000000
vn 0.000000 -1.000000 0.000000
vn 0.000000 -1.000000 0.000000
vn 0.000000 -1.000000 0.000000
vn 0.000000 -1.000000 0.000000
vn 1.000000 0.000001 0.000000
vn 1.000000 0.000001 0.000000
vn 1.000000 0.000001 0.000000
vn 1.000000 0.000001 0.000000
vn 0.000000 1.000000 0.000000
vn 0.000000 1.000000 0.000000
vn 0.000000 1.000000 0.000000
vn 0.000000 1.000000 0.000000
vn -1.000000 -0.000000 0.000000
vn -1.000000 -0.000000 0.000000
vn -1.000000 -0.000000 0.000000
vn -1.000000 -0.000000 0.000000
vn 0.000000 -0.763429 0.645892
vn 0.000000 -0.763429 0.645892
vn 0.000000 -0.763429 0.645892
vn 0.000000 -0.763429 0.645892
vn 1.000000 0.000001 0.000000
vn 1.000000 0.000001 0.000000
vn 1.000000 0.000001 0.000000
vn 1.000000 0.000001 0.000000
vn 0.000000 0.812232 -0.583335
vn 0.000000 0.812232 -0.583335
vn 0.000000 0.812232 -0.583335
vn 0.000000 0.812232 -0.583335
vn -1.000000 0.000000 0.000000
vn -1.000000 0.000000 0.000000
vn -1.000000 0.000000 0.000000
vn -1.000000 0.000000 0.000000
vn 0.000000 0.000000 -1.000000
vn 0.000000 0.000000 -1.000000
vn 0.000000 0.000000 -1.000000
vn 0.000000 0.000000 -1.000000
vn 1.000000 0.000000 0.000000
vn 1.000000 0.000000 0.000000
vn 1.000000 0.000000 0.000000
vn 1.000000 0.000000 0.000000
vn 0.000000 0.000000 1.000000
vn 0.000000 0.000000 1.000000
vn 0.000000 0.000000 1.000000
vn 0.000000 0.000000 1.000000
vn -1.000000 0.000000 0.000000
vn -1.000000 0.000000 0.000000
vn -1.000000 0.000000 0.000000
vn -1.000000 0.000000 0.000000
vn 0.000000 0.000000 -1.000000
vn 0.000000 0.000000 -1.000000
vn 0.000000 0.000000 -1.000000
vn 0.000000 0.000000 -1.000000
vn 1.000000 0.000000 0.000000
vn 1.000000 0.000000 0.000000
vn 1.000000 0.000000 0.000000
vn 1.000000 0.000000 0.000000
vn 0.000000 0.000000 1.000000
vn 0.000000 0.000000 1.000000
vn 0.000000 0.000000 1.000000
vn 0.000000 0.000000 1.000000
vn -1.000000 -0.000045 0.000022
vn -1.000000 -0.000045 0.000022
vn -1.000000 -0.000045 0.000022
vn -1.000000 -0.000045 0.000022
vn 0.000000 0.490954 0.871186
vn 0.000000 0.490954 0.871186
vn 0.000000 0.490954 0.871185
vn 0.000000 0.490954 0.871186
vn 1.000000 -0.000000 0.000000
vn 1.000000 -0.000000 0.000000
vn 1.000000 -0.000000 0.000000
vn 1.000000 -0.000000 0.000000
vn 0.000000 -0.457357 -0.889283
vn 0.000000 -0.457357 -0.889283
vn 0.000000 -0.457357 -0.889283
vn 0.000000 -0.457357 -0.889283
vn -1.000000 0.000000 0.000000
vn -1.000000 0.000000 0.000000
vn -1.000000 0.000000 0.000000
vn -1.000000 0.000000 0.000000
vn 0.000000 0.490954 0.871185
vn 0.000000 0.490954 0.871185
vn 0.000000 0.490954 0.871185
vn 0.000000 0.490954 0.871185
vn 1.000000 -0.000000 0.000000
vn 1.000000 -0.000000 0.000000
vn 1.000000 -0.000000 0.000000
vn 1.000000 -0.000000 0.000000
vn 0.000000 -0.457357 -0.889283
vn 0.000000 -0.457357 -0.889283
vn 0.000000 -0.457357 -0.889283
vn 0.000000 -0.457357 -0.889283
vn -0.075798 0.981987 0.173077
vn -0.075798 0.981987 0.173077
vn -0.075798 0.981987 0.173077
vn -0.075798 0.981987 0.173077
vn 0.991412 -0.059059 -0.116678
vn 0.991412 -0.059059 -0.116678
vn 0.991412 -0.059059 -0.116678
vn 0.991412 -0.059059 -0.116678
vn -0.155137 -0.985556 -0.067915
vn -0.155137 -0.985556 -0.067915
vn -0.155137 -0.985556 -0.067915
vn 0.041090 -0.108452 0.993252
vn 0.041090 -0.108452 0.993252
vn 0.041090 -0.108452 0.993252
vn 0.041090 -0.108452 0.993252
vn 0.018410 0.987943 0.153717
vn 0.018410 0.987943 0.153717
vn 0.018410 0.987943 0.153717
vn 0.018410 0.987943 0.153717
vn -0.097647 -0.988468 -0.115738
vn -0.097647 -0.988468 -0.115738
vn -0.097647 -0.988468 -0.115738
vn -0.097647 -0.988468 -0.115738
vn -0.097647 -0.988468 -0.115738
vn 0.010115 0.113956 -0.993434
vn 0.010115 0.113956 -0.993434
vn 0.010115 0.113956 -0.993434
vn 0.010115 0.113956 -0.993434
vn 0.155577 0.985504 0.067664
vn 0.155577 0.985504 0.067664
vn 0.155577 0.985504 0.067664
vn 0.082467 -0.980984 -0.175696
vn 0.082467 -0.980984 -0.175696
vn 0.082467 -0.980984 -0.175696
vn 0.082467 -0.980984 -0.175696
vn -0.097553 -0.115859 0.988463
vn -0.097553 -0.115859 0.988464
vn -0.097553 -0.115859 0.988463
vn -0.097553 -0.115859 0.988463
vn 0.072135 0.000000 0.997395
vn 0.072135 0.000000 0.997395
vn 0.072135 0.000000 0.997395
vn 0.072135 0.000000 0.997395
vn -0.065793 -0.997756 -0.012446
vn -0.065793 -0.997756 -0.012446
vn -0.065793 -0.997756 -0.012446
vn -0.065793 -0.997756 -0.012446
vn 0.040145 0.000000 -0.999194
vn 0.040145 0.000000 -0.999194
vn 0.040145 0.000000 -0.999194
vn 0.040145 0.000000 -0.999194
vn 0.076338 0.996977 0.014441
vn 0.076338 0.996978 0.014441
vn 0.076338 0.996977 0.014441
vn 0.076338 0.996978 0.014441
s off
f 60/199/1 57/193/2 2/2/3 4/3/4
f 5/5/5 6/6/6 8/7/7 7/8/8
f 68/215/9 65/209/10 8/10/11 6/11/12
f 80/239/13 77/233/14 1/14/15 3/15/16
f 59/197/17 60/200/18 4/18/19 10/19/20
f 67/213/21 68/216/22 6/22/23 11/23/24
f 6/25/25 5/26/26 12/27/27 11/28/28
f 79/237/29 80/240/30 3/30/31 9/31/32
f 7/33/33 8/34/34 14/35/35 13/36/36
f 8/37/37 65/210/38 66/211/39 14/40/40
f 2/41/41 57/194/42 58/195/43 15/44/44
f 1/45/45 77/234/46 78/235/47 16/48/48
f 11/49/49 12/50/50 13/51/51 14/52/52
f 78/236/53 79/238/54 9/54/55 16/55/56
f 11/57/57 14/58/58 66/212/59 67/214/60
f 10/61/61 15/62/62 58/196/63 59/198/64
f 52/183/65 49/177/66 56/191/67 53/185/68
f 21/69/69 22/70/70 24/71/71 23/72/72
f 72/223/73 69/217/74 24/74/75 22/75/76
f 76/231/77 73/225/78 17/78/79 19/79/80
f 51/181/81 52/184/82 53/186/83 54/187/84
f 71/221/85 72/224/86 22/86/87 27/87/88
f 22/89/89 21/90/90 28/91/91 27/92/92
f 75/229/93 76/232/94 19/94/95 25/95/96
f 23/97/97 24/98/98 30/99/99 29/100/100
f 24/101/101 69/218/102 70/219/103 30/104/104
f 55/189/105 56/192/106 49/178/107 50/179/108
f 17/109/109 73/226/110 74/227/111 32/112/112
f 27/113/113 28/114/114 29/115/115 30/116/116
f 74/228/117 75/230/118 25/118/119 32/119/120
f 27/121/121 30/122/122 70/220/123 71/222/124
f 54/188/125 55/190/126 50/180/127 51/182/128
f 33/129/129 34/130/130 36/131/131 35/132/132
f 94/265/133 91/259/134 38/135/135 37/136/136
f 37/137/137 38/138/138 40/139/139 39/140/140
f 39/141/141 40/142/142 92/261/143 93/263/144
f 91/260/145 92/262/146 40/146/147 38/147/148
f 93/264/149 94/266/150 37/152/151 39/149/152
f 41/153/153 42/154/154 44/155/155 43/156/156
f 43/157/157 44/158/158 81/241/159 89/257/160 85/249/161
f 45/161/162 82/244/163 83/245/164 47/164/165
f 47/165/166 83/246/167 90/258/168 87/253/169
f 42/169/170 84/248/171 81/242/172 44/172/173
f 47/173/174 87/254/175 85/250/176 45/176/177
f 50/179/178 49/178/179 17/106/180 32/107/181
f 51/182/182 50/180/183 32/127/184 25/128/185
f 19/81/186 52/184/187 51/181/188 25/84/189
f 17/65/190 49/177/191 52/183/192 19/68/193
f 54/187/194 53/186/195 20/82/196 26/83/197
f 26/125/198 31/126/199 55/190/200 54/188/201
f 18/105/202 56/192/203 55/189/204 31/108/205
f 53/185/206 56/191/207 18/66/208 20/67/209
f 58/195/210 57/194/211 61/202/212 62/203/213
f 59/198/214 58/196/215 62/204/216 63/206/217
f 63/205/218 64/208/219 60/200/220 59/197/221
f 64/207/222 61/201/223 57/193/224 60/199/225
f 62/203/226 61/202/227 1/42/228 16/43/229
f 63/206/230 62/204/231 16/63/232 9/64/233
f 3/17/234 64/208/235 63/205/236 9/20/237
f 1/1/238 61/201/239 64/207/240 3/4/241
f 66/211/242 65/210/243 2/38/244 15/39/245
f 67/214/246 66/212/247 15/59/248 10/60/249
f 4/21/250 68/216/251 67/213/252 10/24/253
f 2/9/254 65/209/255 68/215/256 4/12/257
f 70/219/258 69/218/259 18/102/260 31/103/261
f 71/222/262 70/220/263 31/123/264 26/124/265
f 20/85/266 72/224/267 71/221/268 26/88/269
f 18/73/270 69/217/271 72/223/272 20/76/273
f 74/227/274 73/226/275 23/110/276 29/111/277
f 28/117/278 75/230/279 74/228/280 29/120/281
f 21/93/282 76/232/283 75/229/284 28/96/285
f 23/77/286 73/225/287 76/231/288 21/80/289
f 78/235/290 77/234/291 7/46/292 13/47/293
f 12/53/294 79/238/295 78/236/296 13/56/297
f 5/29/298 80/240/299 79/237/300 12/32/301
f 7/13/302 77/233/303 80/239/304 5/16/305
f 82/243/306 89/257/307 88/255/308 46/159/309
f 83/245/310 82/244/311 46/162/312 48/163/313
f 84/247/314 90/258/315 86/251/316
f 81/242/317 84/248/318 86/252/319 88/256/320
f 85/249/321 89/257/322 82/243/323 45/160/324
f 87/253/325 90/258/326 84/247/327 42/167/328 41/168/329
f 85/250/330 87/254/331 41/174/332 43/175/333
f 88/255/334 89/257/335 81/241/336
f 86/251/337 90/258/338 83/246/339 48/166/340
f 88/256/341 86/252/342 48/170/343 46/171/344
f 34/145/345 92/262/346 91/260/347 36/148/348
f 93/263/349 92/261/350 34/143/351 33/144/352
f 35/151/353 94/266/354 93/264/355 33/150/356
f 35/133/357 36/134/358 91/259/359 94/265/360
