# This file uses centimeters as units for non-parametric coordinates.

v -0.266377 -1.282837 1495.074219
v 1.614482 -0.411194 1495.074219
v -1.458760 0.413757 1495.074219
v 0.422100 1.285950 1495.074219
v -1.459675 0.413635 0.000000
v 0.422161 1.285950 0.000000
v -0.266316 -1.281921 0.000000
v 1.614543 -0.410217 0.000000
v -7.855244 -40.993713 373.768555
v -6.661885 -42.689484 373.768555
v -4.781025 -41.817566 373.768555
v -5.974385 -40.121765 373.768555
v -9.486104 -54.982643 747.537109
v -8.292745 -56.677437 747.537109
v -6.411885 -55.805458 747.536133
v -7.605244 -54.109810 747.537109
v -7.855233 -40.993713 1121.305664
v -6.661873 -42.690063 1121.305664
v -4.781014 -41.818451 1121.305664
v -5.974373 -40.122894 1121.305664
v -2.776137 -23.019444 1308.189941
v -4.656996 -23.890949 1308.189941
v -3.464125 -25.587421 1308.189941
v -1.583266 -24.715794 1308.189941
v -5.596449 -51.777748 934.420898
v -7.477309 -52.649544 934.421387
v -8.670669 -50.953972 934.421387
v -6.789809 -50.082146 934.421387
v -5.596455 -51.777306 560.652344
v -7.477315 -52.649254 560.652832
v -8.670674 -50.953972 560.652832
v -6.789814 -50.081581 560.652832
v -1.583241 -24.714863 186.884277
v -3.464100 -25.586674 186.884277
v -4.657460 -23.891010 186.884277
v -2.776112 -23.018879 186.884277
vt 0.079050 0.229305
vt 0.079050 0.229305
vt 0.079050 0.229305
vt 0.079050 0.229305
vt 0.079050 0.229305
vt 0.079050 0.229305
vt 0.079050 0.229305
vt 0.079050 0.229305
vt 0.079050 0.229305
vt 0.079050 0.229305
vt 0.079050 0.229305
vt 0.079050 0.229305
vt 0.079050 0.229305
vt 0.079050 0.229305
vt 0.079050 0.229305
vt 0.079050 0.229305
vt 0.079050 0.229305
vt 0.079050 0.229305
vt 0.079050 0.229305
vt 0.079050 0.229305
vt 0.079050 0.229305
vt 0.079050 0.229305
vt 0.079050 0.229305
vt 0.079050 0.229305
vt 0.079050 0.229305
vt 0.079050 0.229305
vt 0.079050 0.229305
vt 0.079050 0.229305
vt 0.079050 0.229305
vt 0.079050 0.229305
vt 0.079050 0.229305
vt 0.079050 0.229305
vt 0.079050 0.229305
vt 0.079050 0.229305
vt 0.079050 0.229305
vt 0.079050 0.229305
vt 0.079050 0.229305
vt 0.079050 0.229305
vt 0.079050 0.229305
vt 0.079050 0.229305
vt 0.079050 0.229305
vt 0.079050 0.229305
vt 0.079050 0.229305
vt 0.079050 0.229305
vt 0.079050 0.229305
vt 0.079050 0.229305
vt 0.079050 0.229305
vt 0.079050 0.229305
vt 0.079050 0.229305
vt 0.079050 0.229305
vt 0.079050 0.229305
vt 0.079050 0.229305
vt 0.079050 0.229305
vt 0.079050 0.229305
vt 0.079050 0.229305
vt 0.079050 0.229305
vt 0.079050 0.229305
vt 0.079050 0.229305
vt 0.079050 0.229305
vt 0.079050 0.229305
vt 0.079050 0.229305
vt 0.079050 0.229305
vt 0.079050 0.229305
vt 0.079050 0.229305
vt 0.079050 0.229305
vt 0.079050 0.229305
vt 0.079050 0.229305
vt 0.079050 0.229305
vt 0.079050 0.229305
vt 0.079050 0.229305
vn 0.000000 0.000000 1.000000
vn 0.000000 0.000000 1.000000
vn 0.000000 0.000000 1.000000
vn 0.000000 0.000000 1.000000
vn -0.417766 0.901608 -0.112134
vn -0.417766 0.901608 -0.112134
vn -0.418579 0.903345 -0.093595
vn -0.418622 0.903464 -0.092239
vn 0.000000 0.000000 -1.000000
vn 0.000000 0.000000 -1.000000
vn 0.000000 0.000000 -1.000000
vn 0.000000 0.000000 -1.000000
vn 0.418674 -0.903440 0.092234
vn 0.418622 -0.903325 0.093591
vn 0.417820 -0.901584 0.112129
vn 0.417820 -0.901584 0.112129
vn 0.814700 0.572897 -0.089736
vn 0.815571 0.573521 -0.076921
vn 0.815512 0.573454 -0.078043
vn 0.814700 0.572897 -0.089736
vn -0.815594 -0.573490 0.076917
vn -0.814720 -0.572869 0.089732
vn -0.814720 -0.572869 0.089732
vn -0.815529 -0.573430 0.078039
vn -0.814479 -0.573207 -0.089771
vn -0.815356 -0.573824 -0.076951
vn -0.815283 -0.573775 -0.078075
vn -0.814479 -0.573207 -0.089771
vn 0.417886 -0.901554 -0.112124
vn 0.417886 -0.901554 -0.112124
vn 0.418691 -0.903294 -0.093587
vn 0.418746 -0.903408 -0.092230
vn 0.815451 0.573540 0.078051
vn 0.815515 0.573601 0.076928
vn 0.814642 0.572979 0.089745
vn 0.814642 0.572979 0.089745
vn -0.418782 0.903391 0.092229
vn -0.418729 0.903276 0.093586
vn -0.417922 0.901537 0.112120
vn -0.417922 0.901538 0.112120
vn -0.817301 -0.575323 -0.031983
vn -0.817464 -0.575439 -0.024938
vn -0.817459 -0.575432 -0.025264
vn -0.817301 -0.575323 -0.031983
vn 0.420195 -0.906417 -0.042936
vn 0.420195 -0.906417 -0.042936
vn 0.420367 -0.906780 -0.032283
vn 0.420372 -0.906790 -0.031918
vn 0.817532 0.575329 0.025259
vn 0.817539 0.575334 0.024935
vn 0.817376 0.575216 0.031977
vn 0.817376 0.575216 0.031977
vn -0.420555 0.906706 0.031918
vn -0.420548 0.906696 0.032278
vn -0.420380 0.906332 0.042932
vn -0.420380 0.906332 0.042932
vn -0.817347 -0.575257 0.031979
vn -0.817510 -0.575374 0.024936
vn -0.817506 -0.575366 0.025262
vn -0.817347 -0.575257 0.031979
vn 0.420153 -0.906437 0.042935
vn 0.420153 -0.906437 0.042935
vn 0.420317 -0.906803 0.032278
vn 0.420323 -0.906813 0.031922
vn 0.817507 0.575364 -0.025261
vn 0.817514 0.575369 -0.024932
vn 0.817348 0.575257 -0.031977
vn 0.817348 0.575257 -0.031977
vn -0.420332 0.906809 -0.031921
vn -0.420322 0.906801 -0.032282
vn -0.420156 0.906436 -0.042937
vn -0.420156 0.906435 -0.042937
vn -0.418622 0.903464 -0.092239
vn -0.418579 0.903345 -0.093595
vn -0.417766 0.901608 -0.112134
vn -0.417766 0.901608 -0.112134
vn -0.814720 -0.572869 0.089732
vn -0.815594 -0.573490 0.076917
vn -0.815529 -0.573430 0.078039
vn -0.814720 -0.572869 0.089732
vn 0.417820 -0.901584 0.112129
vn 0.417820 -0.901584 0.112129
vn 0.418622 -0.903325 0.093591
vn 0.418674 -0.903440 0.092234
vn 0.815512 0.573454 -0.078043
vn 0.815571 0.573521 -0.076921
vn 0.814700 0.572897 -0.089736
vn 0.814700 0.572897 -0.089736
vn 0.420323 -0.906813 0.031922
vn 0.420317 -0.906803 0.032278
vn 0.420153 -0.906437 0.042935
vn 0.420153 -0.906437 0.042935
vn -0.817506 -0.575366 0.025262
vn -0.817510 -0.575374 0.024936
vn -0.817347 -0.575257 0.031979
vn -0.817347 -0.575257 0.031979
vn -0.420156 0.906436 -0.042937
vn -0.420156 0.906435 -0.042937
vn -0.420322 0.906801 -0.032282
vn -0.420332 0.906809 -0.031921
vn 0.817348 0.575257 -0.031977
vn 0.817348 0.575257 -0.031977
vn 0.817514 0.575369 -0.024932
vn 0.817507 0.575364 -0.025261
vn 0.420372 -0.906790 -0.031918
vn 0.420367 -0.906780 -0.032283
vn 0.420195 -0.906417 -0.042936
vn 0.420195 -0.906417 -0.042936
vn -0.817459 -0.575432 -0.025264
vn -0.817464 -0.575439 -0.024938
vn -0.817301 -0.575323 -0.031983
vn -0.817301 -0.575323 -0.031983
vn -0.420380 0.906332 0.042932
vn -0.420380 0.906332 0.042932
vn -0.420548 0.906696 0.032278
vn -0.420555 0.906706 0.031918
vn 0.817376 0.575216 0.031977
vn 0.817376 0.575216 0.031977
vn 0.817539 0.575334 0.024935
vn 0.817532 0.575329 0.025259
vn 0.418746 -0.903408 -0.092230
vn 0.418691 -0.903294 -0.093587
vn 0.417886 -0.901554 -0.112124
vn 0.417886 -0.901554 -0.112124
vn -0.815283 -0.573775 -0.078075
vn -0.815356 -0.573824 -0.076951
vn -0.814479 -0.573207 -0.089771
vn -0.814479 -0.573207 -0.089771
vn -0.417922 0.901537 0.112120
vn -0.417923 0.901538 0.112120
vn -0.418729 0.903276 0.093586
vn -0.418782 0.903391 0.092229
vn 0.814642 0.572979 0.089745
vn 0.814642 0.572979 0.089745
vn 0.815515 0.573601 0.076928
vn 0.815451 0.573540 0.078051
s off
f 1/1/1 2/2/2 4/3/3 3/4/4
f 3/4/5 4/3/6 21/39/7 22/41/8
f 5/7/9 6/8/10 8/9/11 7/10/12
f 23/43/13 24/45/14 2/13/15 1/14/16
f 2/2/17 24/46/18 21/40/19 4/3/20
f 23/44/21 1/1/22 3/4/23 22/42/24
f 7/19/25 34/65/26 35/67/27 5/22/28
f 7/10/29 8/9/30 33/63/31 34/66/32
f 36/69/33 33/64/34 8/27/35 6/28/36
f 35/68/37 36/70/38 6/8/39 5/7/40
f 10/20/41 30/57/42 31/59/43 9/21/44
f 10/24/45 11/23/46 29/55/47 30/58/48
f 32/61/49 29/56/50 11/26/51 12/25/52
f 31/60/53 32/62/54 12/30/55 9/29/56
f 14/31/57 26/49/58 27/51/59 13/32/60
f 14/34/61 15/33/62 25/47/63 26/50/64
f 28/53/65 25/48/66 15/36/67 16/35/68
f 27/52/69 28/54/70 16/38/71 13/37/72
f 22/41/73 21/39/74 20/5/75 17/6/76
f 18/17/77 23/44/78 22/42/79 17/18/80
f 18/11/81 19/12/82 24/45/83 23/43/84
f 21/40/85 24/46/86 19/15/87 20/16/88
f 26/50/89 25/47/90 19/12/91 18/11/92
f 27/51/93 26/49/94 18/17/95 17/18/96
f 17/6/97 20/5/98 28/54/99 27/52/100
f 20/16/101 19/15/102 25/48/103 28/53/104
f 30/58/105 29/55/106 15/33/107 14/34/108
f 31/59/109 30/57/110 14/31/111 13/32/112
f 13/37/113 16/38/114 32/62/115 31/60/116
f 16/35/117 15/36/118 29/56/119 32/61/120
f 34/66/121 33/63/122 11/23/123 10/24/124
f 35/67/125 34/65/126 10/20/127 9/21/128
f 9/29/129 12/30/130 36/70/131 35/68/132
f 12/25/133 11/26/134 33/64/135 36/69/136
