# This file uses centimeters as units for non-parametric coordinates.

v 29.476425 74.748672 16.735840
v 28.759842 80.307632 15.965805
v 25.782425 83.322128 19.714890
v 23.521606 80.777802 24.234123
v 24.238197 75.218826 25.004196
v 27.215584 72.204300 21.255035
v 41.169807 77.262512 24.001007
v 40.453224 82.821487 23.230972
v 37.475807 85.835968 26.980057
v 35.214996 83.291641 31.499252
v 35.931595 77.732635 32.269363
v 38.908997 74.718109 28.520241
v -12.932273 -3.952732 15.161095
v 9.915047 -8.763027 16.095123
v -12.111034 6.945934 15.136566
v 10.736303 2.135639 16.070595
v -11.494590 6.713543 -1.139717
v 11.352749 1.903248 -0.205727
v -12.315818 -4.185106 -1.115189
v 10.531521 -8.995419 -0.181160
v 0.535908 9.777851 12.651787
v 0.931282 9.628811 2.212601
v -0.892162 -6.590290 -0.648193
v -1.508589 -6.357882 15.628128
v 7.108412 2.899475 15.922241
v 7.724810 2.667046 -0.354042
v -8.483115 6.182156 15.284920
v -7.866669 5.949726 -0.991364
v -0.687370 4.540806 15.603600
v -0.070934 4.308376 -0.672722
v 10.928555 35.915161 16.984863
v 37.099373 58.807358 32.263145
v 8.620358 39.672485 15.308914
v 32.786369 60.811066 29.416847
v 12.214870 39.349808 9.635086
v 36.380875 60.488373 23.742981
v 14.523106 35.592560 11.311073
v 40.693901 58.484711 26.589355
v 37.783417 76.670593 23.711319
v 34.188900 76.993195 29.385223
v 34.060593 75.579361 21.414871
v 30.466042 75.901932 27.088699
v 11.144638 32.637272 9.338722
v 7.550087 32.959919 15.012550
v 4.259930 38.315720 12.623558
v 7.854443 37.993073 6.949768
v -0.038433 53.767380 9.021797
v 3.556080 53.444763 3.348007
v 0.177593 50.489563 1.375694
v -3.416910 50.812164 7.049484
v 4.140701 35.512104 6.154099
v 2.091341 34.820347 4.895096
v -0.092001 34.578457 6.094322
v -0.225859 35.028324 8.552704
v 1.823521 35.720123 9.811668
v 4.006786 35.962006 8.612404
v -4.118404 73.426575 -1.234207
v -6.167764 72.734848 -2.493248
v -8.351078 72.492920 -1.293945
v -8.484963 72.942795 1.164360
v -6.435585 73.634583 2.423325
v -4.252300 73.876434 1.224060
v 0.187912 27.851963 6.654167
v 4.417391 28.100758 9.319534
v 2.201443 28.142605 10.481987
v 0.086718 28.018131 9.149323
v 4.518633 27.934589 6.824417
v 2.403889 27.810192 5.491753
v -3.071785 2.091808 6.053848
v 1.157665 2.340603 8.719215
v -1.058273 2.382393 9.881668
v -3.173008 2.257977 8.548965
v 1.258926 2.174435 6.224098
v -0.855827 2.049980 4.891434
v 8.567438 57.483200 -7.338142
v 8.750753 71.454788 -15.313301
v 2.351742 86.017212 -12.898560
v -6.881171 92.639984 -1.508369
v -13.539420 87.443558 12.184944
v -13.722725 73.471924 20.160065
v -7.323704 58.909546 17.745323
v 1.909189 52.286743 6.355209
v 20.812752 49.633804 -10.415382
v 21.113441 72.552887 -23.497849
v 10.616455 96.441132 -19.536629
v -4.529190 107.305130 -0.852242
v -15.451412 98.780884 21.610336
v -15.752087 75.861801 34.692764
v -5.255127 51.973557 30.731583
v 9.890518 41.109604 12.047157
v -4.119339 71.912064 1.419983
v 10.823565 72.375168 -12.907486
v 22.789116 73.434204 -20.848503
v 22.500465 51.433655 -8.290367
v 10.622988 59.066299 -5.288734
v 4.702673 86.244263 -10.584869
v 12.712851 96.365067 -17.046051
v -4.089937 92.586761 0.262947
v -1.825829 106.793686 0.889511
v -10.433282 87.602829 13.306580
v -12.310276 98.611053 22.451859
v -10.617065 74.299561 20.935631
v -12.598924 76.610504 35.009956
v -4.512959 60.424866 18.602676
v -2.522659 53.679642 31.207542
v 4.296455 54.087967 7.765160
v 12.016029 43.251022 13.271980
v -1.411924 72.825912 3.083267
vt 0.090117 0.280960
vt 0.090117 0.280960
vt 0.090117 0.280960
vt 0.090117 0.280960
vt 0.090117 0.280960
vt 0.090117 0.280960
vt 0.090117 0.280960
vt 0.090117 0.280960
vt 0.090117 0.280960
vt 0.090117 0.280960
vt 0.090117 0.280960
vt 0.090117 0.280960
vt 0.090117 0.280962
vt 0.090117 0.280960
vt 0.090117 0.280960
vt 0.090117 0.280962
vt 0.090117 0.280960
vt 0.090117 0.280962
vt 0.090117 0.280962
vt 0.090117 0.280962
vt 0.090117 0.280962
vt 0.090117 0.280962
vt 0.090117 0.280960
vt 0.090117 0.280962
vt 0.090117 0.280962
vt 0.090117 0.280960
vt 0.090117 0.280962
vt 0.090117 0.280962
vt 0.090117 0.280962
vt 0.090117 0.280960
vt 0.090117 0.280960
vt 0.090117 0.280960
vt 0.090117 0.280960
vt 0.090117 0.280960
vt 0.090117 0.280960
vt 0.090117 0.280960
vt 0.090117 0.280960
vt 0.090117 0.280960
vt 0.090117 0.280960
vt 0.090117 0.280960
vt 0.090117 0.280960
vt 0.090117 0.280960
vt 0.090117 0.280960
vt 0.090117 0.280960
vt 0.090117 0.280960
vt 0.090117 0.280960
vt 0.090117 0.280960
vt 0.090117 0.280960
vt 0.090117 0.280960
vt 0.090117 0.280960
vt 0.090117 0.280960
vt 0.090117 0.280960
vt 0.090117 0.280960
vt 0.090117 0.280960
vt 0.090117 0.280960
vt 0.090117 0.280960
vt 0.090117 0.280960
vt 0.090117 0.280960
vt 0.090117 0.280960
vt 0.090117 0.280960
vt 0.090117 0.280960
vt 0.090117 0.280960
vt 0.090117 0.280962
vt 0.090117 0.280962
vt 0.090117 0.280962
vt 0.090117 0.280962
vt 0.090117 0.280962
vt 0.090117 0.280962
vt 0.090117 0.280960
vt 0.090117 0.280960
vt 0.090117 0.280960
vt 0.090117 0.280960
vt 0.090117 0.280960
vt 0.090117 0.280960
vt 0.090117 0.280960
vt 0.090117 0.280960
vt 0.090117 0.280960
vt 0.090117 0.280960
vt 0.090117 0.280960
vt 0.090117 0.280960
vt 0.090117 0.280960
vt 0.090117 0.280960
vt 0.090117 0.280960
vt 0.090117 0.280960
vt 0.090117 0.280960
vt 0.090117 0.280960
vt 0.090117 0.280960
vt 0.090117 0.280960
vt 0.090117 0.280960
vt 0.090117 0.280960
vt 0.090117 0.280960
vt 0.090117 0.280960
vt 0.090117 0.280960
vt 0.090117 0.280960
vt 0.090117 0.280960
vt 0.090117 0.280960
vt 0.090117 0.280960
vt 0.090117 0.280960
vt 0.090117 0.280960
vt 0.090117 0.280960
vt 0.090117 0.280960
vt 0.090117 0.280960
vt 0.090117 0.280960
vt 0.090117 0.280960
vt 0.090117 0.280960
vt 0.090117 0.280960
vt 0.090117 0.280960
vt 0.090117 0.280960
vn 0.534554 -0.047973 -0.843772
vn 0.534554 -0.047973 -0.843772
vn 0.534554 -0.047973 -0.843772
vn 0.534554 -0.047973 -0.843772
vn 0.157581 0.826938 -0.539761
vn 0.157581 0.826938 -0.539761
vn 0.157581 0.826938 -0.539761
vn 0.157581 0.826938 -0.539761
vn -0.376965 0.874919 0.303998
vn -0.376965 0.874919 0.303998
vn -0.376965 0.874919 0.303998
vn -0.376965 0.874919 0.303998
vn -0.534553 0.047980 0.843772
vn -0.534553 0.047981 0.843772
vn -0.534553 0.047980 0.843772
vn -0.534553 0.047980 0.843772
vn -0.157584 -0.826938 0.539760
vn -0.157584 -0.826938 0.539760
vn -0.157584 -0.826938 0.539760
vn -0.157584 -0.826938 0.539760
vn 0.376968 -0.874915 -0.304005
vn 0.376968 -0.874915 -0.304005
vn 0.376968 -0.874915 -0.304005
vn 0.376968 -0.874915 -0.304005
vn -0.835590 -0.179630 -0.519156
vn -0.835590 -0.179630 -0.519156
vn -0.835593 -0.179631 -0.519151
vn -0.835593 -0.179631 -0.519151
vn 0.835588 0.179632 0.519158
vn 0.835588 0.179632 0.519158
vn 0.835589 0.179633 0.519156
vn 0.835589 0.179633 0.519156
vn 0.835589 0.179633 0.519156
vn 0.835589 0.179633 0.519156
vn 0.835590 0.179634 0.519155
vn 0.835590 0.179634 0.519155
vn -0.835587 -0.179630 -0.519161
vn -0.835590 -0.179630 -0.519156
vn -0.835590 -0.179630 -0.519156
vn -0.835587 -0.179630 -0.519161
vn -0.039745 0.005242 0.999196
vn -0.032795 0.038165 0.998733
vn -0.039755 0.005244 0.999196
vn 0.206254 0.978479 -0.006160
vn -0.170355 0.985169 -0.020519
vn -0.170354 0.985169 -0.020519
vn 0.206254 0.978479 -0.006160
vn 0.039755 -0.005244 -0.999196
vn 0.046414 0.026566 -0.998569
vn 0.039742 -0.005241 -0.999196
vn 0.996428 -0.074996 0.038810
vn 0.996428 -0.074996 0.038810
vn 0.996428 -0.074996 0.038810
vn 0.996428 -0.074996 0.038810
vn -0.996428 0.074995 -0.038810
vn -0.996428 0.074995 -0.038810
vn -0.996428 0.074995 -0.038810
vn -0.996428 0.074995 -0.038810
vn 0.206262 0.978477 -0.006160
vn 0.553567 0.832756 0.009074
vn 0.553568 0.832755 0.009074
vn 0.206264 0.978477 -0.006160
vn 0.045873 0.023968 -0.998660
vn 0.057910 0.081869 -0.994959
vn 0.131482 0.453329 -0.881593
vn -0.206262 -0.978478 0.006159
vn -0.206262 -0.978478 0.006159
vn -0.206260 -0.978478 0.006159
vn -0.206261 -0.978478 0.006159
vn 0.064933 0.478426 0.875724
vn -0.020586 0.095456 0.995221
vn -0.033359 0.035483 0.998813
vn 0.553567 0.832756 0.009074
vn 0.206259 0.978478 -0.006160
vn 0.206259 0.978478 -0.006160
vn 0.553568 0.832755 0.009074
vn 0.039744 -0.005245 -0.999196
vn 0.045873 0.023968 -0.998660
vn 0.039744 -0.005247 -0.999196
vn -0.033359 0.035483 0.998813
vn -0.039741 0.005246 0.999196
vn -0.039755 0.005245 0.999196
vn -0.170355 0.985169 -0.020519
vn 0.206262 0.978477 -0.006160
vn 0.206264 0.978477 -0.006160
vn -0.170354 0.985169 -0.020519
vn 0.057910 0.081869 -0.994959
vn 0.046414 0.026566 -0.998569
vn 0.131482 0.453329 -0.881593
vn -0.206263 -0.978477 0.006159
vn -0.206263 -0.978477 0.006159
vn -0.206262 -0.978478 0.006159
vn -0.206262 -0.978478 0.006159
vn -0.032795 0.038165 0.998733
vn -0.020586 0.095456 0.995221
vn 0.064933 0.478426 0.875724
vn -0.032795 0.038165 0.998733
vn -0.039745 0.005242 0.999196
vn -0.039742 0.005244 0.999196
vn -0.020586 0.095456 0.995221
vn -0.033359 0.035483 0.998813
vn -0.020586 0.095456 0.995221
vn -0.039742 0.005244 0.999196
vn -0.039741 0.005246 0.999196
vn 0.039743 -0.005243 -0.999196
vn 0.057910 0.081869 -0.994959
vn 0.045873 0.023968 -0.998660
vn 0.039744 -0.005245 -0.999196
vn 0.039742 -0.005241 -0.999196
vn 0.046414 0.026566 -0.998569
vn 0.057910 0.081869 -0.994959
vn 0.039743 -0.005243 -0.999196
vn -0.534552 0.047974 0.843773
vn -0.534552 0.047974 0.843773
vn -0.534552 0.047974 0.843773
vn -0.534552 0.047974 0.843773
vn -0.489291 0.796477 -0.355274
vn -0.489291 0.796477 -0.355274
vn -0.489291 0.796477 -0.355274
vn -0.489291 0.796477 -0.355274
vn 0.534555 -0.047980 -0.843771
vn 0.534555 -0.047980 -0.843771
vn 0.534555 -0.047980 -0.843771
vn 0.534555 -0.047980 -0.843771
vn 0.489291 -0.796477 0.355272
vn 0.489291 -0.796477 0.355272
vn 0.489291 -0.796477 0.355272
vn 0.489291 -0.796477 0.355272
vn -0.179804 0.969076 -0.169006
vn -0.179804 0.969076 -0.169006
vn -0.179803 0.969076 -0.169006
vn -0.179803 0.969076 -0.169006
vn -0.689091 -0.602762 -0.402283
vn -0.689091 -0.602762 -0.402283
vn -0.689091 -0.602762 -0.402283
vn -0.689091 -0.602762 -0.402283
vn 0.830588 0.214273 0.514014
vn 0.830588 0.214273 0.514014
vn 0.830588 0.214273 0.514014
vn 0.830588 0.214273 0.514014
vn 0.534553 -0.047981 -0.843772
vn 0.534553 -0.047981 -0.843772
vn 0.534553 -0.047981 -0.843772
vn 0.534553 -0.047981 -0.843772
vn -0.831676 -0.207340 -0.515098
vn -0.831676 -0.207340 -0.515098
vn -0.831676 -0.207340 -0.515098
vn -0.831676 -0.207340 -0.515098
vn -0.534553 0.047979 0.843772
vn -0.534553 0.047979 0.843772
vn -0.534553 0.047979 0.843772
vn -0.534553 0.047979 0.843772
vn 0.489296 -0.796473 0.355274
vn 0.489296 -0.796473 0.355274
vn 0.489296 -0.796473 0.355274
vn 0.489296 -0.796473 0.355274
vn -0.534557 0.047978 0.843770
vn -0.534557 0.047978 0.843770
vn -0.534557 0.047978 0.843770
vn -0.534557 0.047978 0.843770
vn -0.489291 0.796479 -0.355268
vn -0.489292 0.796479 -0.355268
vn -0.489292 0.796479 -0.355268
vn -0.489291 0.796479 -0.355268
vn 0.534556 -0.047975 -0.843770
vn 0.534556 -0.047975 -0.843770
vn 0.534556 -0.047975 -0.843770
vn 0.534556 -0.047975 -0.843770
vn 0.689092 0.602762 0.402282
vn 0.689092 0.602762 0.402282
vn 0.689092 0.602762 0.402282
vn 0.689092 0.602762 0.402282
vn 0.534553 -0.047979 -0.843772
vn 0.534553 -0.047979 -0.843772
vn 0.534553 -0.047979 -0.843772
vn 0.534553 -0.047979 -0.843772
vn -0.689090 -0.602762 -0.402284
vn -0.689090 -0.602762 -0.402284
vn -0.689090 -0.602762 -0.402284
vn -0.689090 -0.602762 -0.402284
vn -0.534556 0.047978 0.843770
vn -0.534556 0.047978 0.843770
vn -0.534556 0.047978 0.843770
vn -0.534556 0.047978 0.843770
vn 0.534561 -0.047977 -0.843767
vn 0.534561 -0.047977 -0.843767
vn 0.534561 -0.047977 -0.843767
vn 0.534561 -0.047977 -0.843767
vn -0.441860 -0.263362 -0.857555
vn -0.441860 -0.263362 -0.857555
vn -0.441860 -0.263362 -0.857555
vn -0.441860 -0.263362 -0.857555
vn -0.976433 -0.215382 -0.013759
vn -0.976433 -0.215382 -0.013759
vn -0.976433 -0.215382 -0.013759
vn -0.976433 -0.215382 -0.013759
vn -0.534543 0.047984 0.843778
vn -0.534543 0.047984 0.843778
vn -0.534543 0.047984 0.843778
vn -0.534543 0.047984 0.843778
vn 0.441872 0.263364 0.857548
vn 0.441872 0.263364 0.857548
vn 0.441872 0.263364 0.857548
vn 0.441872 0.263364 0.857548
vn 0.976432 0.215385 0.013770
vn 0.976432 0.215385 0.013770
vn 0.976432 0.215385 0.013770
vn 0.976432 0.215385 0.013770
vn 0.016395 -0.997611 0.067114
vn 0.016395 -0.997611 0.067114
vn 0.016396 -0.997611 0.067108
vn 0.016396 -0.997611 0.067108
vn -0.209085 0.959845 -0.187034
vn -0.209085 0.959845 -0.187034
vn -0.209084 0.959843 -0.187041
vn -0.209084 0.959843 -0.187041
vn -0.209084 0.959843 -0.187041
vn -0.209084 0.959843 -0.187041
vn -0.209083 0.959842 -0.187048
vn -0.209083 0.959842 -0.187048
vn 0.016395 -0.997610 0.067119
vn 0.016395 -0.997611 0.067114
vn 0.016395 -0.997611 0.067114
vn 0.016395 -0.997610 0.067119
vn 0.466909 0.102216 0.878378
vn 0.466909 0.102216 0.878378
vn 0.466909 0.102216 0.878378
vn 0.466909 0.102216 0.878378
vn -0.534548 0.047979 0.843775
vn -0.534548 0.047979 0.843775
vn -0.534548 0.047979 0.843775
vn -0.534548 0.047979 0.843775
vn -0.998051 -0.046548 -0.041570
vn -0.998051 -0.046548 -0.041570
vn -0.998051 -0.046548 -0.041570
vn -0.998051 -0.046548 -0.041570
vn 0.997685 0.054577 0.040576
vn 0.997685 0.054577 0.040576
vn 0.997685 0.054577 0.040576
vn 0.997685 0.054577 0.040576
vn -0.467548 -0.094164 -0.878938
vn -0.467548 -0.094164 -0.878938
vn -0.467548 -0.094164 -0.878938
vn -0.467548 -0.094164 -0.878938
vn 0.534553 -0.047982 -0.843772
vn 0.534553 -0.047982 -0.843772
vn 0.534553 -0.047982 -0.843772
vn 0.534553 -0.047982 -0.843772
vn 0.461923 -0.079039 0.883391
vn 0.461923 -0.079039 0.883391
vn 0.461923 -0.079039 0.883391
vn 0.461923 -0.079039 0.883391
vn -0.534559 0.047980 0.843768
vn -0.534559 0.047980 0.843768
vn -0.534559 0.047980 0.843768
vn -0.534559 0.047980 0.843768
vn -0.990774 0.126506 -0.048613
vn -0.990774 0.126506 -0.048613
vn -0.990774 0.126506 -0.048613
vn -0.990774 0.126506 -0.048613
vn 0.990773 -0.126507 0.048630
vn 0.990773 -0.126507 0.048630
vn 0.990773 -0.126507 0.048630
vn 0.990773 -0.126507 0.048630
vn -0.461908 0.079037 -0.883399
vn -0.461908 0.079037 -0.883399
vn -0.461908 0.079037 -0.883399
vn -0.461908 0.079037 -0.883399
vn 0.534549 -0.047979 -0.843774
vn 0.534549 -0.047979 -0.843774
vn 0.534549 -0.047979 -0.843774
vn 0.534549 -0.047979 -0.843774
vn 0.471854 0.432498 0.768310
vn 0.471853 0.432498 0.768310
vn 0.471853 0.432498 0.768310
vn 0.471854 0.432498 0.768310
vn 0.544098 0.100843 0.832939
vn 0.544098 0.100843 0.832940
vn 0.544098 0.100843 0.832940
vn 0.544098 0.100843 0.832939
vn 0.725570 -0.145098 0.672678
vn 0.725570 -0.145098 0.672678
vn 0.725570 -0.145098 0.672678
vn 0.725570 -0.145098 0.672678
vn 0.910277 -0.161676 0.381126
vn 0.910277 -0.161676 0.381126
vn 0.910277 -0.161676 0.381126
vn 0.910277 -0.161676 0.381126
vn 0.989701 0.060848 0.129574
vn 0.989701 0.060848 0.129574
vn 0.989701 0.060848 0.129574
vn 0.989701 0.060848 0.129574
vn 0.917455 0.392503 0.064947
vn 0.917455 0.392503 0.064947
vn 0.917455 0.392503 0.064947
vn 0.917455 0.392503 0.064947
vn 0.735983 0.638444 0.225209
vn 0.735983 0.638443 0.225209
vn 0.735983 0.638444 0.225209
vn 0.735983 0.638444 0.225209
vn 0.551278 0.655022 0.516758
vn 0.551278 0.655022 0.516758
vn 0.551278 0.655022 0.516758
vn 0.551278 0.655022 0.516758
vn 0.794363 0.216237 0.567653
vn 0.794363 0.216237 0.567653
vn 0.794363 0.216237 0.567653
vn 0.794363 0.216237 0.567653
vn 0.863549 0.210027 0.458445
vn 0.863549 0.210027 0.458445
vn 0.863549 0.210027 0.458445
vn 0.863549 0.210027 0.458445
vn 0.836487 0.334257 0.434237
vn 0.836487 0.334257 0.434237
vn 0.836487 0.334257 0.434237
vn 0.836487 0.334257 0.434237
vn 0.767301 0.340466 0.543444
vn 0.767301 0.340466 0.543444
vn 0.767301 0.340466 0.543444
vn 0.767301 0.340466 0.543444
vn -0.470622 -0.432739 -0.768929
vn -0.470622 -0.432739 -0.768929
vn -0.470622 -0.432739 -0.768929
vn -0.470622 -0.432739 -0.768929
vn -0.543022 -0.100369 -0.833699
vn -0.543022 -0.100369 -0.833699
vn -0.543022 -0.100369 -0.833698
vn -0.543022 -0.100369 -0.833698
vn -0.725106 0.146398 -0.672896
vn -0.725106 0.146398 -0.672896
vn -0.725106 0.146398 -0.672896
vn -0.725106 0.146398 -0.672896
vn -0.910209 0.163012 -0.380720
vn -0.910209 0.163012 -0.380720
vn -0.910209 0.163012 -0.380720
vn -0.910209 0.163012 -0.380720
vn -0.989900 -0.060260 -0.128322
vn -0.989900 -0.060260 -0.128322
vn -0.989900 -0.060260 -0.128322
vn -0.989900 -0.060260 -0.128322
vn -0.917499 -0.392629 -0.063555
vn -0.917499 -0.392629 -0.063555
vn -0.917499 -0.392629 -0.063555
vn -0.917499 -0.392629 -0.063555
vn -0.735417 -0.639395 -0.224357
vn -0.735417 -0.639395 -0.224357
vn -0.735417 -0.639395 -0.224357
vn -0.735416 -0.639395 -0.224357
vn -0.550314 -0.656010 -0.516532
vn -0.550314 -0.656010 -0.516532
vn -0.550314 -0.656010 -0.516532
vn -0.550314 -0.656010 -0.516532
vn -0.793460 -0.214261 -0.569662
vn -0.793459 -0.214261 -0.569662
vn -0.793460 -0.214261 -0.569662
vn -0.793460 -0.214261 -0.569662
vn -0.864873 -0.207851 -0.456939
vn -0.864873 -0.207851 -0.456939
vn -0.864873 -0.207851 -0.456939
vn -0.864873 -0.207851 -0.456939
vn -0.836939 -0.336081 -0.431952
vn -0.836939 -0.336081 -0.431952
vn -0.836939 -0.336081 -0.431952
vn -0.836939 -0.336081 -0.431952
vn -0.765527 -0.342490 -0.544674
vn -0.765527 -0.342490 -0.544674
vn -0.765527 -0.342490 -0.544674
vn -0.765527 -0.342490 -0.544674
vn 0.852017 -0.267911 -0.449768
vn 0.852017 -0.267911 -0.449767
vn 0.852017 -0.267911 -0.449767
vn 0.852017 -0.267911 -0.449767
vn 0.705160 0.406228 -0.581144
vn 0.705160 0.406228 -0.581144
vn 0.705160 0.406228 -0.581144
vn 0.705160 0.406228 -0.581144
vn 0.335839 0.906747 -0.254994
vn 0.335838 0.906747 -0.254994
vn 0.335838 0.906747 -0.254994
vn 0.335839 0.906747 -0.254994
vn -0.039607 0.940446 0.337628
vn -0.039607 0.940446 0.337628
vn -0.039607 0.940446 0.337628
vn -0.039607 0.940446 0.337628
vn -0.201239 0.487581 0.849569
vn -0.201239 0.487581 0.849569
vn -0.201239 0.487581 0.849569
vn -0.201239 0.487581 0.849569
vn -0.054382 -0.186557 0.980938
vn -0.054382 -0.186557 0.980938
vn -0.054382 -0.186557 0.980938
vn -0.054382 -0.186557 0.980938
vn 0.314927 -0.687082 0.654782
vn 0.314927 -0.687082 0.654782
vn 0.314927 -0.687082 0.654782
vn 0.314927 -0.687082 0.654782
vn 0.690373 -0.720778 0.062162
vn 0.690373 -0.720778 0.062162
vn 0.690373 -0.720778 0.062162
vn 0.690373 -0.720778 0.062162
s off
f 1/1/1 2/2/2 8/3/3 7/4/4
f 2/2/5 3/5/6 9/6/7 8/3/8
f 3/5/9 4/7/10 10/8/11 9/6/12
f 4/7/13 5/9/14 11/10/15 10/8/16
f 5/9/17 6/11/18 12/12/19 11/10/20
f 6/11/21 1/1/22 7/4/23 12/12/24
f 3/5/25 6/11/26 5/9/27 4/7/28
f 7/4/29 8/3/30 9/6/31 12/12/32
f 12/12/33 9/6/34 10/8/35 11/10/36
f 1/1/37 6/11/38 3/5/39 2/2/40
f 13/13/41 27/14/42 15/15/43
f 15/15/44 27/14/45 28/16/46 17/17/47
f 17/17/48 28/16/49 19/18/50
f 14/19/51 20/20/52 18/21/53 16/22/54
f 19/18/55 13/13/56 15/15/57 17/17/58
f 21/23/59 25/24/60 26/25/61 22/26/62
f 26/25/63 30/27/64 22/26/65
f 24/28/66 23/29/67 20/20/68 14/19/69
f 21/23/70 29/30/71 25/24/72
f 25/24/73 16/22/74 18/21/75 26/25/76
f 20/20/77 26/25/78 18/21/79
f 25/24/80 14/19/81 16/22/82
f 27/14/83 21/23/84 22/26/85 28/16/86
f 30/27/87 28/16/88 22/26/89
f 13/13/90 19/18/91 23/29/92 24/28/93
f 27/14/94 29/30/95 21/23/96
f 27/14/97 13/13/98 24/28/99 29/30/100
f 25/24/101 29/30/102 24/28/103 14/19/104
f 23/29/105 30/27/106 26/25/107 20/20/108
f 19/18/109 28/16/110 30/27/111 23/29/112
f 31/31/113 32/32/114 34/33/115 33/34/116
f 33/34/117 34/33/118 36/35/119 35/36/120
f 35/36/121 36/35/122 38/37/123 37/38/124
f 37/38/125 38/37/126 32/32/127 31/31/128
f 40/39/129 39/40/130 41/41/131 42/42/132
f 43/43/133 44/44/134 45/45/135 46/46/136
f 32/32/137 38/37/138 39/40/139 40/39/140
f 38/37/141 36/35/142 41/41/143 39/40/144
f 36/35/145 34/33/146 42/42/147 41/41/148
f 34/33/149 32/32/150 40/39/151 42/42/152
f 37/38/153 31/31/154 44/44/155 43/43/156
f 31/31/157 33/34/158 45/45/159 44/44/160
f 47/47/161 48/48/162 49/49/163 50/50/164
f 35/36/165 37/38/166 43/43/167 46/46/168
f 33/34/169 35/36/170 48/48/171 47/47/172
f 35/36/173 46/46/174 49/49/175 48/48/176
f 46/46/177 45/45/178 50/50/179 49/49/180
f 45/45/181 33/34/182 47/47/183 50/50/184
f 51/51/185 52/52/186 58/53/187 57/54/188
f 52/52/189 53/55/190 59/56/191 58/53/192
f 53/55/193 54/57/194 60/58/195 59/56/196
f 54/57/197 55/59/198 61/60/199 60/58/200
f 55/59/201 56/61/202 62/62/203 61/60/204
f 56/61/205 51/51/206 57/54/207 62/62/208
f 69/63/209 70/64/210 71/65/211 72/66/212
f 57/54/213 58/53/214 59/56/215 62/62/216
f 62/62/217 59/56/218 60/58/219 61/60/220
f 73/67/221 70/64/222 69/63/223 74/68/224
f 56/61/225 55/59/226 65/69/227 64/70/228
f 55/59/229 54/57/230 66/71/231 65/69/232
f 54/57/233 53/55/234 63/72/235 66/71/236
f 51/51/237 56/61/238 64/70/239 67/73/240
f 53/55/241 52/52/242 68/74/243 63/72/244
f 52/52/245 51/51/246 67/73/247 68/74/248
f 64/70/249 65/69/250 71/65/251 70/64/252
f 65/69/253 66/71/254 72/66/255 71/65/256
f 66/71/257 63/72/258 69/63/259 72/66/260
f 67/73/261 64/70/262 70/64/263 73/67/264
f 63/72/265 68/74/266 74/68/267 69/63/268
f 68/74/269 67/73/270 73/67/271 74/68/272
f 92/75/273 95/76/274 94/77/275 93/78/276
f 96/79/277 92/75/278 93/78/279 97/80/280
f 98/81/281 96/79/282 97/80/283 99/82/284
f 100/83/285 98/81/286 99/82/287 101/84/288
f 102/85/289 100/83/290 101/84/291 103/86/292
f 104/87/293 102/85/294 103/86/295 105/88/296
f 106/89/297 104/87/298 105/88/299 107/90/300
f 95/76/301 106/89/302 107/90/303 94/77/304
f 96/79/305 98/81/306 108/91/307 92/75/308
f 100/83/309 102/85/310 108/91/311 98/81/312
f 104/87/313 106/89/314 108/91/315 102/85/316
f 95/76/317 92/75/318 108/91/319 106/89/320
f 76/92/321 84/93/322 83/94/323 75/95/324
f 77/96/325 85/97/326 84/93/327 76/92/328
f 78/98/329 86/99/330 85/97/331 77/96/332
f 79/100/333 87/101/334 86/99/335 78/98/336
f 80/102/337 88/103/338 87/101/339 79/100/340
f 81/104/341 89/105/342 88/103/343 80/102/344
f 82/106/345 90/107/346 89/105/347 81/104/348
f 75/95/349 83/94/350 90/107/351 82/106/352
f 77/96/353 76/92/354 91/108/355 78/98/356
f 79/100/357 78/98/358 91/108/359 80/102/360
f 81/104/361 80/102/362 91/108/363 82/106/364
f 75/95/365 82/106/366 91/108/367 76/92/368
f 84/93/369 93/78/370 94/77/371 83/94/372
f 85/97/373 97/80/374 93/78/375 84/93/376
f 86/99/377 99/82/378 97/80/379 85/97/380
f 87/101/381 101/84/382 99/82/383 86/99/384
f 88/103/385 103/86/386 101/84/387 87/101/388
f 89/105/389 105/88/390 103/86/391 88/103/392
f 90/107/393 107/90/394 105/88/395 89/105/396
f 83/94/397 94/77/398 107/90/399 90/107/400
