# This file uses centimeters as units for non-parametric coordinates.

v -195.097260 -3.164000 91.570129
v 186.625427 -3.164000 88.981171
v -195.097260 3.163991 91.570129
v 186.625427 3.163991 88.981171
v -185.889618 3.163991 -89.624794
v 195.093536 3.163991 -91.570045
v -185.889618 -3.164000 -89.624794
v 195.093536 -3.164000 -91.570045
v -5.133398 -3.164000 88.588943
v 8.775828 -3.164000 -94.022270
v 8.775828 3.163991 -94.022270
v -5.133398 3.163991 88.588943
v -126.013885 3.163991 -89.624794
v -124.099335 -3.163999 -89.624794
v -185.889618 3.163991 -63.769566
v -185.889618 -3.164000 -62.943092
v -185.889618 7.046509 -56.644684
v -98.438416 5.800390 -85.862190
v -96.570000 -0.527599 -85.862190
v -185.889618 0.718519 -55.939728
v -193.307022 3.163991 -44.774258
v -52.154663 3.163990 -87.644844
v -50.354729 -3.164000 -87.644844
v -193.307022 -3.164000 -44.226887
v 9.104100 1.939935 89.673401
v 50.148125 -1.061263 -90.871010
v 50.514713 5.266727 -90.843086
v 9.467351 8.267922 89.701065
v 31.428677 -3.164000 91.373833
v 80.066116 -3.164001 -88.592194
v 80.308411 3.163991 -88.573746
v 31.669115 3.163991 91.392143
v 186.888855 3.163991 12.878968
v 187.119919 -3.164000 10.183715
v 134.286804 -3.164000 90.086792
v 135.752518 3.163990 90.212906
v 195.493896 -1.135859 -11.388783
v 106.998543 3.133853 95.883286
v 110.063690 9.461842 95.883286
v 195.494278 5.192132 -7.673148
v -47.078575 -5.019994 95.421448
v -50.471928 1.307997 95.421448
v -157.712051 1.307997 -85.773468
v -154.318710 -5.019994 -85.773468
v -148.414673 -5.019994 -76.487709
v -151.489120 1.307997 -75.986618
v -146.791504 5.190514 -68.598305
v -143.692490 -1.137476 -69.061806
v -147.297928 1.307995 -55.750248
v -144.162445 -5.019994 -56.155407
v -188.713882 1.301801 -0.160208
v 180.242416 1.301801 49.950798
v -0.283832 -5.026189 22.298254
v -0.366379 1.301801 23.381998
v -188.713882 -5.026189 -1.247181
v 21.258829 8.158020 28.908649
v 21.151211 1.830030 27.783182
v 44.227982 1.301801 33.349369
v 44.277882 -5.026190 32.258579
v 180.242065 -5.026189 48.863735
v 160.075089 1.301800 53.378147
v 159.438980 -5.026189 52.036770
v 143.607010 8.885303 55.862835
v 141.721252 2.557314 54.512306
v -92.577263 -0.554195 17.504318
v -89.720383 -6.882184 16.816696
vt 0.877105 0.373765
vt 0.877106 0.373765
vt 0.877106 0.251888
vt 0.877105 0.251888
vt 0.998983 0.251888
vt 0.877105 0.251888
vt 0.877106 0.251888
vt 0.877105 0.373765
vt 0.998983 0.373765
vt 0.998983 0.251888
vt 0.877106 0.373765
vt 0.998983 0.373765
vt 0.998983 0.373765
vt 0.998983 0.251888
vt 0.998983 0.373765
vt 0.998983 0.251888
vt 0.889404 0.358997
vt 0.889404 0.358998
vt 0.889404 0.358998
vt 0.889404 0.358997
vt 0.889404 0.358998
vt 0.889404 0.358997
vt 0.889404 0.358997
vt 0.889404 0.358998
vt 0.889404 0.358998
vt 0.889404 0.358998
vt 0.889404 0.358997
vt 0.889404 0.358997
vt 0.889404 0.358997
vt 0.914510 0.373765
vt 0.915706 0.373765
vt 0.889404 0.358998
vt 0.889404 0.358997
vt 0.877105 0.356559
vt 0.889404 0.358998
vt 0.877105 0.356009
vt 0.889404 0.358997
vt 0.877105 0.351818
vt 0.889404 0.358997
vt 0.931738 0.373765
vt 0.932905 0.373765
vt 0.889404 0.358998
vt 0.889404 0.358998
vt 0.877105 0.351348
vt 0.889404 0.358997
vt 0.877105 0.345236
vt 0.889404 0.358997
vt 0.965284 0.373765
vt 0.966410 0.373765
vt 0.889404 0.358998
vt 0.889404 0.358998
vt 0.877105 0.344871
vt 0.889404 0.358998
vt 0.889697 0.251888
vt 0.906698 0.373765
vt 0.889404 0.358998
vt 0.889404 0.358997
vt 0.998983 0.343944
vt 0.877106 0.360945
vt 0.889404 0.358997
vt 0.889404 0.358998
vt 0.901086 0.251888
vt 0.922845 0.373765
vt 0.889404 0.358998
vt 0.889404 0.358997
vt 0.998983 0.327874
vt 0.877106 0.349633
vt 0.889404 0.358997
vt 0.927140 0.251888
vt 0.889404 0.358997
vt 0.998983 0.303584
vt 0.889404 0.358998
vt 0.889404 0.358998
vt 0.972572 0.251888
vt 0.877106 0.277450
vt 0.889404 0.358997
vt 0.998983 0.323276
vt 0.889404 0.358998
vt 0.889404 0.358998
vt 0.943699 0.251888
vt 0.877106 0.305257
vt 0.889404 0.358997
vt 0.946021 0.251888
vt 0.889404 0.358997
vt 0.889404 0.358998
vt 0.971330 0.251888
vt 0.969210 0.251888
vt 0.889404 0.358997
vt 0.889404 0.358997
vt 0.896464 0.373765
vt 0.898584 0.373765
vt 0.889404 0.358998
vt 0.902272 0.367586
vt 0.900351 0.367252
vt 0.903287 0.362335
vt 0.905222 0.362644
vt 0.907603 0.355103
vt 0.909562 0.355373
vt 0.889404 0.358997
vt 0.877105 0.308349
vt 0.898495 0.251888
vt 0.889404 0.358997
vt 0.877106 0.291537
vt 0.998983 0.291537
vt 0.916031 0.373765
vt 0.998983 0.290813
vt 0.889404 0.358998
vt 0.877105 0.309072
vt 0.913456 0.355874
vt 0.894871 0.288980
vt 0.911671 0.343462
vt 0.907387 0.287180
vt 0.998983 0.274001
vt 0.889404 0.358998
vt 0.900456 0.265520
vt 0.984904 0.276027
vt 0.903259 0.285003
vt 0.964649 0.278941
vt 0.940997 0.299156
vt 0.942844 0.299614
vn -0.075950 0.000000 0.997112
vn -0.075950 0.000000 0.997112
vn -0.075950 0.000000 0.997112
vn -0.075950 0.000000 0.997112
vn -0.136393 0.990304 -0.026381
vn -0.136393 0.990304 -0.026381
vn -0.136393 0.990304 -0.026381
vn -0.136393 0.990304 -0.026381
vn 0.075948 0.000000 -0.997112
vn 0.075948 0.000000 -0.997112
vn 0.075948 0.000000 -0.997112
vn 0.075948 0.000000 -0.997112
vn 0.308239 -0.949704 0.055243
vn 0.308239 -0.949703 0.055243
vn 0.308239 -0.949703 0.055243
vn 0.308239 -0.949704 0.055243
vn 0.987046 0.013702 -0.159853
vn 0.987046 0.013702 -0.159853
vn 0.987046 0.013702 -0.159853
vn 0.987046 0.013702 -0.159853
vn -1.000000 0.000000 0.000000
vn -1.000000 0.000000 0.000000
vn -1.000000 0.000000 0.000000
vn -1.000000 0.000000 0.000000
vn -0.052476 -0.998585 0.008614
vn -0.052476 -0.998585 0.008614
vn -0.052476 -0.998585 0.008614
vn -0.052476 -0.998585 0.008614
vn 0.129911 0.034832 -0.990914
vn 0.129911 0.034832 -0.990914
vn 0.129911 0.034832 -0.990914
vn 0.129911 0.034832 -0.990914
vn 0.017704 0.999514 -0.025671
vn 0.017704 0.999514 -0.025671
vn 0.017704 0.999514 -0.025671
vn 0.017704 0.999514 -0.025671
vn -0.026401 -0.007079 0.999626
vn -0.026401 -0.007079 0.999626
vn -0.026401 -0.007079 0.999626
vn -0.026401 -0.007079 0.999626
vn -1.000000 0.000003 0.000000
vn -1.000000 0.000003 0.000000
vn -1.000000 0.000003 0.000000
vn -1.000000 0.000003 0.000000
vn 0.107076 -0.889726 0.443759
vn 0.107076 -0.889726 0.443759
vn 0.107076 -0.889726 0.443759
vn 0.107076 -0.889726 0.443759
vn 0.131507 0.039309 -0.990535
vn 0.131507 0.039309 -0.990536
vn 0.131507 0.039309 -0.990535
vn 0.131507 0.039309 -0.990536
vn 0.057865 0.998273 -0.010103
vn 0.057865 0.998273 -0.010103
vn 0.057865 0.998273 -0.010103
vn 0.057865 0.998273 -0.010103
vn -0.100957 0.890450 -0.443742
vn -0.100957 0.890450 -0.443742
vn -0.100957 0.890450 -0.443742
vn -0.100957 0.890450 -0.443742
vn -0.837141 -0.053862 -0.544329
vn -0.837141 -0.053862 -0.544329
vn -0.837141 -0.053862 -0.544329
vn -0.837141 -0.053862 -0.544329
vn -0.130030 -0.932881 -0.335894
vn -0.130030 -0.932881 -0.335894
vn -0.130030 -0.932881 -0.335894
vn -0.130030 -0.932881 -0.335894
vn -0.039159 -0.011350 -0.999169
vn -0.039159 -0.011350 -0.999169
vn -0.039159 -0.011350 -0.999169
vn -0.039159 -0.011350 -0.999169
vn 0.130975 0.933039 0.335089
vn 0.130975 0.933039 0.335089
vn 0.130975 0.933039 0.335089
vn 0.130975 0.933039 0.335089
vn -0.994555 -0.004436 0.104114
vn -0.994556 -0.004436 0.104114
vn -0.994556 -0.004436 0.104114
vn -0.994556 -0.004436 0.104114
vn -0.024227 -0.999511 -0.019770
vn -0.024227 -0.999511 -0.019770
vn -0.024227 -0.999511 -0.019770
vn -0.024227 -0.999511 -0.019770
vn -0.105630 -0.015023 -0.994292
vn -0.105630 -0.015023 -0.994292
vn -0.105630 -0.015023 -0.994292
vn -0.105630 -0.015023 -0.994292
vn -0.075948 0.000001 0.997112
vn -0.075948 0.000001 0.997112
vn -0.075948 0.000001 0.997112
vn -0.075948 0.000001 0.997112
vn 0.162360 0.985933 0.039695
vn 0.162360 0.985933 0.039695
vn 0.162360 0.985933 0.039695
vn 0.162360 0.985933 0.039695
vn 0.075948 -0.000000 -0.997112
vn 0.075948 -0.000000 -0.997112
vn 0.075948 -0.000000 -0.997112
vn 0.075948 -0.000000 -0.997112
vn -0.249788 -0.967645 -0.035623
vn -0.249788 -0.967645 -0.035623
vn -0.249788 -0.967645 -0.035623
vn -0.249788 -0.967645 -0.035622
vn -0.059503 0.014097 0.998129
vn -0.059503 0.014097 0.998129
vn -0.059503 0.014097 0.998129
vn -0.059503 0.014097 0.998129
vn -0.023542 0.999411 -0.024988
vn -0.023542 0.999411 -0.024988
vn -0.023542 0.999411 -0.024988
vn -0.023542 0.999411 -0.024988
vn -0.023542 0.999411 -0.024988
vn -0.025987 0.001955 -0.999660
vn -0.025987 0.001955 -0.999660
vn -0.025987 0.001955 -0.999660
vn -0.025987 0.001955 -0.999660
vn 0.070961 -0.995805 0.057762
vn 0.070961 -0.995805 0.057762
vn 0.070961 -0.995805 0.057762
vn 0.070961 -0.995805 0.057762
vn 0.920406 -0.163186 0.355279
vn 0.920406 -0.163186 0.355279
vn 0.920406 -0.163186 0.355279
vn 0.920406 -0.163186 0.355279
vn 0.022639 -0.012583 0.999665
vn 0.022639 -0.012583 0.999665
vn 0.022639 -0.012583 0.999665
vn 0.022639 -0.012583 0.999665
vn 0.008793 0.998622 0.051739
vn 0.008793 0.998622 0.051739
vn 0.008793 0.998622 0.051739
vn 0.002824 -0.998830 0.048268
vn 0.002824 -0.998830 0.048268
vn 0.002824 -0.998830 0.048268
vn 0.002824 -0.998830 0.048268
vn 0.192955 -0.078824 0.978036
vn 0.192955 -0.078824 0.978036
vn 0.192955 -0.078824 0.978036
vn 0.192955 -0.078824 0.978036
vn 0.401044 0.869582 0.288080
vn 0.401044 0.869583 0.288080
vn 0.401044 0.869582 0.288080
vn 0.401044 0.869582 0.288080
vn -0.323791 -0.921185 -0.215818
vn -0.323791 -0.921185 -0.215818
vn -0.323791 -0.921185 -0.215818
vn -0.323791 -0.921185 -0.215818
vn 0.999987 0.001414 -0.004917
vn 0.999987 0.001414 -0.004917
vn 0.999987 0.001414 -0.004917
vn 0.999987 0.001414 -0.004917
vn 0.056685 -0.997741 -0.036041
vn 0.056685 -0.997741 -0.036041
vn 0.056685 -0.997741 -0.036041
vn -0.120314 -0.050460 -0.991453
vn -0.120314 -0.050460 -0.991453
vn -0.120314 -0.050460 -0.991453
vn -0.120314 -0.050460 -0.991453
vn -0.010938 0.999612 0.025629
vn -0.010938 0.999612 0.025629
vn -0.010938 0.999612 0.025629
vn -0.010938 0.999612 0.025629
vn -0.010938 0.999612 0.025629
vn 0.152843 0.040981 0.987400
vn 0.152843 0.040981 0.987400
vn 0.152843 0.040981 0.987400
vn 0.152843 0.040981 0.987400
vn 0.122373 -0.969544 0.212152
vn 0.122373 -0.969544 0.212152
vn 0.122373 -0.969544 0.212152
vn 0.122373 -0.969544 0.212152
vn -0.054240 0.997932 0.034489
vn -0.054240 0.997932 0.034489
vn -0.054240 0.997932 0.034489
vn -0.121886 0.969231 -0.213857
vn -0.121886 0.969231 -0.213857
vn -0.121886 0.969231 -0.213857
vn -0.121886 0.969231 -0.213857
vn -0.073204 -0.962078 -0.262768
vn -0.073204 -0.962078 -0.262768
vn -0.073204 -0.962078 -0.262768
vn -0.073204 -0.962078 -0.262768
vn 0.073485 0.962057 0.262766
vn 0.073485 0.962057 0.262766
vn 0.073485 0.962057 0.262766
vn 0.073485 0.962057 0.262766
vn 0.028425 -0.999429 0.018275
vn 0.028425 -0.999429 0.018275
vn 0.028425 -0.999429 0.018275
vn 0.028425 -0.999429 0.018275
vn -0.303963 0.951105 -0.054832
vn -0.303963 0.951105 -0.054832
vn -0.303963 0.951105 -0.054832
vn -0.303963 0.951105 -0.054832
vn 0.137574 -0.990134 0.026618
vn 0.137574 -0.990134 0.026618
vn 0.137574 -0.990134 0.026618
vn 0.137574 -0.990134 0.026618
vn 0.984151 -0.034071 0.174029
vn 0.984151 -0.034071 0.174029
vn 0.984151 -0.034071 0.174029
vn 0.984151 -0.034071 0.174029
vn 0.025212 0.999504 0.018895
vn 0.025212 0.999504 0.018895
vn 0.025212 0.999504 0.018895
vn 0.025212 0.999504 0.018895
vn -0.997590 0.005933 -0.069132
vn -0.997590 0.005933 -0.069132
vn -0.997590 0.005933 -0.069132
vn -0.997590 0.005933 -0.069132
vn -0.017271 -0.999529 0.025369
vn -0.017271 -0.999529 0.025369
vn -0.017271 -0.999529 0.025369
vn -0.017271 -0.999529 0.025369
vn 0.251296 0.967261 0.035441
vn 0.251296 0.967261 0.035441
vn 0.251296 0.967261 0.035441
vn 0.251296 0.967261 0.035441
vn -0.161520 -0.986081 -0.039454
vn -0.161520 -0.986081 -0.039454
vn -0.161520 -0.986080 -0.039454
vn -0.161520 -0.986081 -0.039454
vn -0.069074 0.995968 -0.057242
vn -0.069074 0.995968 -0.057242
vn -0.069074 0.995968 -0.057242
vn -0.069074 0.995968 -0.057242
vn 0.024198 -0.999380 0.025572
vn 0.024198 -0.999380 0.025572
vn 0.024198 -0.999380 0.025572
vn 0.024198 -0.999380 0.025572
vn 0.024198 -0.999380 0.025572
vn -0.003266 0.998754 -0.049803
vn -0.003266 0.998754 -0.049803
vn -0.003266 0.998754 -0.049803
vn -0.003266 0.998754 -0.049803
vn -0.007538 -0.998750 -0.049424
vn -0.007538 -0.998749 -0.049424
vn -0.007538 -0.998749 -0.049424
vn 0.344259 0.910186 0.230318
vn 0.344259 0.910186 0.230318
vn 0.344259 0.910186 0.230318
vn 0.344259 0.910187 0.230318
vn -0.371669 -0.889490 -0.265838
vn -0.371669 -0.889490 -0.265838
vn -0.371669 -0.889490 -0.265838
vn -0.371669 -0.889490 -0.265838
vn -0.027103 0.999453 -0.018937
vn -0.027103 0.999453 -0.018937
vn -0.027103 0.999453 -0.018937
vn -0.027103 0.999453 -0.018937
vn 0.011190 -0.999603 -0.025866
vn 0.011190 -0.999603 -0.025866
vn 0.011190 -0.999603 -0.025866
vn 0.011190 -0.999603 -0.025866
vn 0.011190 -0.999603 -0.025866
s off
f 12/17/1 9/18/2 25/53/3 28/60/4
f 11/9/5 54/105/6 56/109/7 27/58/8
f 10/21/9 11/22/10 27/57/11 26/56/12
f 9/3/13 53/103/14 57/110/15 25/54/16
f 2/19/17 60/114/18 52/102/19 4/20/20
f 7/25/21 16/35/22 15/33/23 5/28/24
f 7/1/25 44/91/26 45/93/27 16/36/28
f 5/28/29 43/89/30 44/92/31 7/25/32
f 3/6/33 42/87/34 65/119/35 51/100/36
f 1/26/37 41/85/38 42/88/39 3/27/40
f 15/33/41 16/35/42 20/43/43 17/37/44
f 16/36/45 45/93/46 48/96/47 20/44/48
f 14/32/49 13/29/50 18/39/51 19/42/52
f 15/34/53 46/94/54 43/90/55 5/8/56
f 17/38/57 47/95/58 46/94/59 15/34/60
f 17/37/61 20/43/62 24/51/63 21/45/64
f 20/44/65 48/96/66 50/98/67 24/52/68
f 19/42/69 18/39/70 22/47/71 23/50/72
f 21/46/73 49/97/74 47/95/75 17/38/76
f 21/45/77 24/51/78 55/107/79 51/99/80
f 24/52/81 50/98/82 66/120/83 55/108/84
f 23/50/85 22/47/86 11/22/87 10/21/88
f 28/60/89 25/53/90 29/61/91 32/68/92
f 27/58/93 56/109/94 58/111/95 31/66/96
f 26/56/97 27/57/98 31/65/99 30/64/100
f 25/54/101 57/110/102 59/112/103 29/62/104
f 32/68/105 29/61/106 38/79/107 39/82/108
f 31/66/109 58/111/110 63/117/111 40/83/112 6/10/113
f 30/64/114 31/65/115 6/23/116 8/24/117
f 29/62/118 59/112/119 64/118/120 38/80/121
f 33/70/122 34/72/123 37/78/124 40/84/125
f 36/76/126 35/73/127 2/19/128 4/20/129
f 33/69/130 61/115/131 52/101/132
f 35/74/133 62/116/134 60/113/135 2/5/136
f 39/82/137 38/79/138 35/73/139 36/76/140
f 40/83/141 63/117/142 61/115/143 33/69/144
f 38/80/145 64/118/146 62/116/147 35/74/148
f 40/84/149 37/78/150 8/24/151 6/23/152
f 45/93/153 44/91/154 14/31/155
f 44/92/156 43/89/157 13/29/158 14/32/159
f 49/97/160 65/119/161 54/106/162 11/15/163 22/48/164
f 42/88/165 41/85/166 9/18/167 12/17/168
f 48/96/169 45/93/170 14/31/171 19/41/172
f 43/90/173 46/94/174 13/30/175
f 46/94/176 47/95/177 18/40/178 13/30/179
f 50/98/180 48/96/181 19/41/182 23/49/183
f 47/95/184 49/97/185 22/48/186 18/40/187
f 41/86/188 66/120/189 53/104/190 9/14/191
f 56/109/192 54/105/193 12/2/194 28/59/195
f 57/110/196 53/103/197 10/11/198 26/55/199
f 52/102/200 60/114/201 34/72/202 33/70/203
f 51/100/204 65/119/205 49/97/206 21/46/207
f 51/99/208 55/107/209 1/26/210 3/27/211
f 55/108/212 66/120/213 41/86/214 1/4/215
f 58/111/216 56/109/217 28/59/218 32/67/219
f 59/112/220 57/110/221 26/55/222 30/63/223
f 63/117/224 58/111/225 32/67/226 39/81/227
f 64/118/228 59/112/229 30/63/230 8/12/231 37/77/232
f 52/101/233 61/115/234 36/75/235 4/7/236
f 60/113/237 62/116/238 34/71/239
f 61/115/240 63/117/241 39/81/242 36/75/243
f 62/116/244 64/118/245 37/77/246 34/71/247
f 54/106/248 65/119/249 42/87/250 12/16/251
f 53/104/252 66/120/253 50/98/254 23/49/255 10/13/256
