# This file uses centimeters as units for non-parametric coordinates.

v -24.324219 0.531668 35.871872
v 25.000000 0.000000 36.410324
v -25.000000 46.508095 36.410324
v 23.974121 45.644386 35.144333
v -24.277344 45.702923 -35.816925
v 25.000008 46.508095 -36.410301
v -25.000000 0.000000 -36.410309
v 25.000008 0.000000 -36.410301
v 4.918213 46.508095 36.410324
v 4.918221 46.508095 -36.410301
v 4.918221 0.000000 -36.410301
v 4.918213 0.000000 36.410324
v -4.918457 0.000000 -36.410309
v -4.918457 46.508095 -36.410309
v -4.918457 46.508095 36.410324
v -4.918457 0.000000 36.410324
v 4.918465 37.206490 -36.410301
v -4.918457 37.206490 -36.410309
v 4.918465 11.161942 -36.410301
v -4.918457 11.161942 -36.410309
v -4.918457 37.206490 36.410324
v 4.918213 37.206490 36.410324
v -4.918457 7.441295 36.410324
v 4.918457 7.441295 36.410324
v 10.511963 46.508095 36.410324
v 25.000000 46.508095 5.003815
v 25.000000 42.526081 25.482712
v 25.000000 42.180634 32.978195
v 25.000000 36.323917 36.410324
v 19.776367 46.508095 31.258469
v 24.479736 45.695564 28.920639
v -18.074707 46.508095 -36.410309
v -24.999992 46.508095 -28.502991
v -25.000000 39.942379 -36.410309
v -25.000000 0.000000 29.507370
v -19.339844 0.000000 36.410324
v -25.000000 5.637020 36.410324
v -0.871338 46.508095 36.410324
v -0.871330 46.508095 -36.410309
v 1.263680 46.508095 -36.410309
v 1.263672 46.508095 36.410324
vt 0.050575 0.276436
vt 0.050575 0.276436
vt 0.050575 0.302389
vt 0.050575 0.302389
vt 0.050575 0.302389
vt 0.050575 0.302389
vt 0.050575 0.276436
vt 0.050575 0.276436
vt 0.050575 0.276436
vt 0.050575 0.276436
vt 0.050575 0.276436
vt 0.050575 0.302389
vt 0.050575 0.276436
vt 0.050575 0.302389
vt 0.050575 0.302389
vt 0.050575 0.302389
vt 0.050575 0.276436
vt 0.050575 0.276436
vt 0.050575 0.276436
vt 0.050575 0.276436
vt 0.050575 0.302389
vt 0.050575 0.302389
vt 0.050575 0.276436
vt 0.050575 0.276436
vt 0.050575 0.302389
vt 0.050575 0.302389
vt 0.050575 0.276436
vt 0.050575 0.276436
vt 0.050575 0.302389
vt 0.050575 0.302389
vt 0.050575 0.276436
vt 0.050575 0.284334
vt 0.038791 0.302271
vt 0.038791 0.302271
vt 0.038791 0.302271
vt 0.038791 0.302271
vt 0.038791 0.302271
vt 0.038791 0.302271
vt 0.038791 0.302271
vt 0.038791 0.302271
vt 0.038791 0.276311
vt 0.038791 0.276311
vt 0.038791 0.276311
vt 0.038791 0.276311
vt 0.038791 0.276311
vt 0.038791 0.276311
vt 0.038791 0.284210
vt 0.038791 0.276311
vt 0.050575 0.302389
vt 0.050575 0.302389
vt 0.050575 0.302389
vt 0.050575 0.302389
vt 0.050575 0.302389
vt 0.050575 0.302389
vt 0.050575 0.302389
vt 0.050575 0.302389
vt 0.050575 0.302389
vt 0.050575 0.302389
vt 0.050575 0.302389
vt 0.050575 0.302389
vt 0.050575 0.302389
vt 0.050575 0.302389
vt 0.050575 0.276436
vt 0.050575 0.276436
vt 0.050575 0.276436
vt 0.050575 0.276436
vt 0.050575 0.276436
vt 0.038791 0.302271
vt 0.038791 0.302271
vt 0.038791 0.302271
vt 0.038791 0.302271
vt 0.038547 0.277308
vt 0.038547 0.277308
vt 0.038547 0.277308
vt 0.038547 0.277308
vn 0.000000 0.000000 1.000000
vn 0.000000 0.000000 1.000000
vn 0.000000 0.000000 1.000000
vn 0.000000 1.000000 0.000000
vn 0.000000 1.000000 0.000000
vn 0.000000 1.000000 0.000000
vn 0.000000 1.000000 0.000000
vn -0.000000 0.000000 -1.000000
vn -0.000000 0.000000 -1.000000
vn -0.000000 0.000000 -1.000000
vn 0.000000 -1.000000 0.000000
vn 0.000000 -1.000000 0.000000
vn 0.000000 -1.000000 0.000000
vn 0.000000 -1.000000 0.000000
vn -0.000000 1.000000 0.000000
vn -0.000000 1.000000 0.000000
vn -0.000000 1.000000 0.000000
vn -0.000000 1.000000 0.000000
vn -0.000000 1.000000 0.000000
vn -0.000000 1.000000 0.000000
vn -0.000000 0.000000 -1.000000
vn -0.000000 0.000000 -1.000000
vn -0.000000 0.000000 -1.000000
vn 0.000000 -1.000000 0.000000
vn 0.000000 -1.000000 0.000000
vn 0.000000 -1.000000 0.000000
vn 0.000000 -1.000000 0.000000
vn 0.000000 0.000000 1.000000
vn 0.000000 0.000000 1.000000
vn 0.000000 0.000000 1.000000
vn -0.000000 0.000000 -1.000000
vn -0.000000 0.000000 -1.000000
vn -0.000000 0.000000 -1.000000
vn -0.000000 1.000000 0.000000
vn -0.000000 1.000000 0.000000
vn -0.000000 1.000000 0.000000
vn -0.000000 1.000000 0.000000
vn -0.000000 1.000000 0.000000
vn -0.119246 -0.119736 0.985618
vn -0.119246 -0.119736 0.985618
vn -0.119246 -0.119736 0.985618
vn -0.115716 -0.988740 0.094883
vn -0.115716 -0.988740 0.094883
vn -0.115716 -0.988740 0.094883
vn -0.000000 0.000000 -1.000000
vn -0.000000 0.000000 -1.000000
vn -0.000000 0.000000 -1.000000
vn -0.000000 0.000000 -1.000000
vn -0.000000 0.000000 -1.000000
vn -0.000000 0.000000 -1.000000
vn -0.000000 0.000000 -1.000000
vn -0.000000 0.000000 -1.000000
vn 0.000000 0.000000 1.000000
vn 0.000000 0.000000 1.000000
vn 0.000000 0.000000 1.000000
vn 0.000000 0.000000 1.000000
vn 0.000000 0.000000 1.000000
vn 0.000000 0.000000 1.000000
vn 0.000000 0.000000 1.000000
vn 0.000000 0.000000 1.000000
vn 1.000000 0.000000 -0.000000
vn 1.000000 0.000000 -0.000000
vn 1.000000 0.000000 -0.000000
vn 1.000000 0.000000 -0.000000
vn -0.982961 -0.142374 0.116264
vn -0.982961 -0.142374 0.116264
vn -0.982961 -0.142374 0.116264
vn -1.000000 0.000000 0.000000
vn -1.000000 0.000000 0.000000
vn -1.000000 0.000000 0.000000
vn -1.000000 0.000000 0.000000
vn 0.187259 0.981667 0.035549
vn 0.187259 0.981667 0.035550
vn 0.187259 0.981667 0.035550
vn 0.990448 0.135633 0.024843
vn 0.990448 0.135633 0.024843
vn 0.990448 0.135633 0.024843
vn 0.962115 0.137848 0.235230
vn 0.962115 0.137848 0.235230
vn 0.962115 0.137848 0.235230
vn 0.101850 0.144892 0.984191
vn 0.101850 0.144892 0.984191
vn 0.101850 0.144892 0.984191
vn 0.181187 0.983184 0.022804
vn 0.181187 0.983184 0.022804
vn 0.181187 0.983184 0.022804
vn 0.980263 0.193248 0.041714
vn 0.980263 0.193248 0.041714
vn 0.980263 0.193248 0.041714
vn 0.980263 0.193248 0.041714
vn 0.076260 0.987612 0.137135
vn 0.076260 0.987613 0.137135
vn 0.076260 0.987612 0.137135
vn -0.089665 0.988849 -0.118907
vn -0.089665 0.988848 -0.118907
vn -0.089665 0.988848 -0.118907
vn -0.960047 0.219796 -0.173205
vn -0.960047 0.219796 -0.173205
vn -0.960047 0.219796 -0.173205
vn -0.107882 0.181552 -0.977446
vn -0.107882 0.181552 -0.977446
vn -0.107882 0.181552 -0.977446
vn 0.000000 -1.000000 0.000000
vn 0.000000 -1.000000 0.000000
vn 0.000000 -1.000000 0.000000
vn 0.000000 -1.000000 0.000000
vn 0.000000 -1.000000 0.000000
vn 0.000000 0.000000 1.000000
vn 0.000000 0.000000 1.000000
vn 0.000000 0.000000 1.000000
vn 0.000000 0.000000 1.000000
vn 0.000000 0.000000 1.000000
vn 0.000000 0.000000 1.000000
vn 0.000000 1.000000 0.000000
vn 0.000000 1.000000 0.000000
vn 0.000000 1.000000 0.000000
vn 0.000000 1.000000 0.000000
vn -0.000000 0.000000 -1.000000
vn -0.000000 0.000000 -1.000000
vn -0.000000 0.000000 -1.000000
vn -0.000000 0.000000 -1.000000
vn -0.000000 0.000000 -1.000000
vn -0.000000 0.000000 -1.000000
vn -0.000000 0.000000 -1.000000
vn 0.000000 1.000000 0.000000
vn 0.000000 1.000000 0.000000
vn 0.000000 1.000000 0.000000
vn 0.000000 1.000000 0.000000
vn 0.000000 0.000000 1.000000
vn 0.000000 0.000000 1.000000
vn 0.000000 0.000000 1.000000
vn 0.000000 0.000000 1.000000
vn 0.000000 0.000000 1.000000
vn 0.000000 0.000000 1.000000
vn 0.000000 0.000000 1.000000
vn 0.000000 0.000000 1.000000
vn 0.000000 0.000000 1.000000
vn 0.000000 0.000000 1.000000
vn 0.000000 0.000000 1.000000
vn 0.000000 0.000000 1.000000
vn 0.000000 0.000000 1.000000
vn 0.000000 0.000000 1.000000
vn 0.000000 0.000000 1.000000
vn 0.000000 0.000000 1.000000
vn 0.000000 0.000000 1.000000
vn 0.000000 0.000000 1.000000
vn 0.000000 0.000000 1.000000
vn 0.000000 0.000000 1.000000
vn -0.000000 0.000000 -1.000000
vn -0.000000 0.000000 -1.000000
vn -0.000000 0.000000 -1.000000
vn -0.000000 0.000000 -1.000000
vn -0.000000 0.000000 -1.000000
vn -0.000000 0.000000 -1.000000
vn -0.000000 0.000000 -1.000000
vn -0.000000 0.000000 -1.000000
vn -0.000000 0.000000 -1.000000
vn -0.000000 0.000000 -1.000000
vn -0.000000 0.000000 -1.000000
vn -0.000000 0.000000 -1.000000
vn -0.000000 0.000000 -1.000000
vn -0.000000 0.000000 -1.000000
vn -0.000000 0.000000 -1.000000
vn -1.000000 0.000000 0.000000
vn -1.000000 0.000000 0.000000
vn -1.000000 0.000000 0.000000
vn -1.000000 0.000000 -0.000000
vn 1.000000 0.000000 -0.000000
vn 1.000000 0.000000 -0.000000
vn 1.000000 0.000000 -0.000000
vn 1.000000 0.000000 -0.000000
vn 1.000000 0.000000 -0.000000
s off
f 21/33/1 38/68/2 15/36/3
f 38/68/4 39/69/5 14/38/6 15/36/7
f 39/69/8 18/40/9 14/38/10
f 11/41/11 12/42/12 16/43/13 13/44/14
f 10/16/15 9/15/16 25/49/17 30/55/18 26/50/19 6/6/20
f 6/6/21 17/25/22 10/16/23
f 12/19/24 11/17/25 8/8/26 2/10/27
f 9/15/28 22/30/29 25/49/30
f 7/7/31 20/28/32 13/20/33
f 3/3/34 15/22/35 14/21/36 32/58/37 33/60/38
f 1/1/39 36/65/40 37/67/41
f 35/64/42 36/66/43 1/9/44
f 18/26/45 17/25/46 19/27/47 20/28/48
f 20/45/49 19/46/50 11/41/51 13/44/52
f 23/31/53 24/32/54 22/30/55 21/29/56
f 12/42/57 24/47/58 23/48/59 16/43/60
f 6/12/61 26/51/62 27/52/63 8/11/64
f 1/1/65 37/67/66 35/63/67
f 37/67/68 3/3/69 33/59/70 34/61/71
f 26/50/72 30/55/73 31/56/74
f 27/52/75 26/51/76 31/57/77
f 4/4/78 29/54/79 28/53/80
f 25/49/81 29/54/82 4/4/83
f 31/56/84 30/55/85 4/4/86
f 27/52/87 31/57/88 4/4/89 28/53/90
f 4/4/91 30/55/92 25/49/93
f 33/60/94 32/58/95 5/5/96
f 5/14/97 34/61/98 33/59/99
f 5/5/100 32/58/101 34/62/102
f 7/7/103 13/20/104 16/24/105 36/66/106 35/64/107
f 3/3/108 21/29/109 15/22/110
f 41/71/111 22/34/112 9/35/113
f 9/35/114 10/37/115 40/70/116 41/71/117
f 10/37/118 17/39/119 40/70/120
f 40/70/121 17/39/122 18/40/123 39/69/124
f 41/72/125 40/73/126 39/74/127 38/75/128
f 21/33/129 22/34/130 41/71/131 38/68/132
f 37/67/133 36/65/134 16/23/135 23/31/136
f 37/67/137 23/31/138 21/29/139 3/3/140
f 29/54/141 24/32/142 12/18/143 2/2/144
f 25/49/145 22/30/146 24/32/147 29/54/148
f 34/62/149 32/58/150 14/21/151 18/26/152
f 34/62/153 18/26/154 20/28/155 7/7/156
f 11/17/157 19/27/158 8/8/159
f 8/8/160 19/27/161 17/25/162 6/6/163
f 37/67/164 34/61/165 7/13/166 35/63/167
f 8/11/168 27/52/169 28/53/170 29/54/171 2/2/172
