# This file uses centimeters as units for non-parametric coordinates.

v 1.493197 1.493198 3.687286
v -0.000000 2.111700 3.687286
v -1.493199 1.493198 3.687286
v -2.111701 0.000000 3.687286
v -1.493199 -1.493198 3.687286
v -0.000000 -2.111700 3.687286
v 1.493197 -1.493198 3.687286
v 2.111701 0.000000 3.687286
v 1.493197 1.493198 -7.177223
v -0.000000 2.111700 -7.177223
v -1.493199 1.493198 -7.177223
v -2.111701 0.000000 -7.177223
v -1.493199 -1.493198 -7.177223
v -0.000000 -2.111700 -7.177223
v 1.493197 -1.493198 -7.177223
v 2.111701 0.000000 -7.177223
v 1.073716 1.073716 -7.857162
v -0.000000 1.518464 -7.857162
v -0.000000 0.000000 -7.857162
v -1.073717 1.073716 -7.857162
v -1.518465 0.000000 -7.857162
v -1.073717 -1.073716 -7.857162
v -0.000000 -1.518464 -7.857162
v 1.073716 -1.073717 -7.857162
v 1.518464 0.000000 -7.857162
v 1.495544 1.495545 7.857162
v -0.000000 2.115019 7.857162
v -1.495545 1.495545 7.857162
v -2.115019 -0.000000 7.857162
v -1.495545 -1.495545 7.857162
v -0.000000 -2.115019 7.857162
v 1.495545 -1.495545 7.857162
v 2.115019 -0.000000 7.857162
v 1.095526 1.095526 7.857162
v -0.000000 1.549308 7.857162
v -0.000000 -0.000000 7.857162
v -1.095525 1.095526 7.857162
v -1.549308 -0.000000 7.857162
v -1.095525 -1.095526 7.857162
v -0.000000 -1.549308 7.857162
v 1.095526 -1.095526 7.857162
v 1.549308 -0.000000 7.857162
v -1.494371 1.494371 4.001472
v -0.000000 2.113360 4.001472
v 1.494370 1.494371 4.001472
v 2.113360 0.000000 4.001472
v 1.494371 -1.494371 4.001472
v -0.000000 -2.113360 4.001472
v -1.494371 -1.494371 4.001472
v -2.113360 0.000000 4.001472
vt 0.103251 0.180385
vt 0.103251 0.180385
vt 0.103251 0.180385
vt 0.103252 0.180385
vt 0.103252 0.180385
vt 0.103252 0.180385
vt 0.103251 0.180385
vt 0.103251 0.180385
vt 0.103251 0.180385
vt 0.031822 0.065159
vt 0.031822 0.065159
vt 0.031822 0.065159
vt 0.031822 0.065159
vt 0.031822 0.065159
vt 0.031822 0.065159
vt 0.031822 0.065159
vt 0.031822 0.065159
vt 0.031822 0.065159
vt 0.103251 0.180385
vt 0.103251 0.180385
vt 0.103251 0.180385
vt 0.103251 0.180385
vt 0.103252 0.180385
vt 0.103252 0.180385
vt 0.103252 0.180385
vt 0.103252 0.180385
vt 0.103252 0.180385
vt 0.103252 0.180385
vt 0.103251 0.180385
vt 0.103251 0.180385
vt 0.103251 0.180385
vt 0.103251 0.180385
vt 0.103251 0.180385
vt 0.103251 0.180385
vt 0.079563 0.258127
vt 0.104467 0.180386
vt 0.104465 0.180386
vt 0.079563 0.258127
vt 0.079563 0.258127
vt 0.104465 0.180386
vt 0.079563 0.258127
vt 0.104467 0.180385
vt 0.079563 0.258127
vt 0.104465 0.180386
vt 0.079563 0.258127
vt 0.104465 0.180385
vt 0.079563 0.258127
vt 0.104465 0.180385
vt 0.079563 0.258127
vt 0.104465 0.180385
vt 0.104465 0.180385
vt 0.104465 0.180385
vt 0.104465 0.180386
vt 0.104465 0.180386
vt 0.104467 0.180385
vt 0.104467 0.180385
vt 0.104467 0.180385
vt 0.104467 0.180385
vt 0.104465 0.180386
vt 0.104465 0.180386
vt 0.104467 0.180386
vt 0.104467 0.180385
vt 0.104467 0.180385
vt 0.104465 0.180386
vt 0.104465 0.180385
vt 0.104465 0.180385
vt 0.079563 0.258127
vt 0.079563 0.258127
vt 0.079563 0.258127
vt 0.079563 0.258127
vt 0.079563 0.258127
vt 0.079563 0.258127
vt 0.079563 0.258127
vt 0.079563 0.258127
vn 0.000001 0.000000 -1.000000
vn 0.000000 0.000000 -1.000000
vn 0.000000 0.000000 -1.000000
vn 0.000001 0.000000 -1.000000
vn 0.000001 0.000000 -1.000000
vn 0.000000 0.000000 -1.000000
vn 0.000000 0.000000 -1.000000
vn 0.000001 0.000000 -1.000000
vn 0.000000 0.000000 -1.000000
vn 0.000000 0.000000 -1.000000
vn 0.000000 0.000000 -1.000000
vn 0.000000 0.000000 -1.000000
vn 0.000000 0.000000 -1.000000
vn 0.000000 0.000000 -1.000000
vn 0.000000 0.000000 -1.000000
vn 0.000000 0.000000 -1.000000
vn 0.000000 0.000000 -1.000000
vn 0.000000 0.000000 -1.000000
vn 0.000000 0.000000 -1.000000
vn 0.000000 0.000000 -1.000000
vn 0.000000 0.000000 -1.000000
vn 0.000000 0.000000 -1.000000
vn 0.000000 0.000000 -1.000000
vn 0.000000 0.000000 -1.000000
vn -0.000001 0.000000 1.000000
vn -0.000000 0.000000 1.000000
vn -0.000000 0.000000 1.000000
vn -0.000000 0.000000 1.000000
vn 0.000001 0.000000 1.000000
vn -0.000000 0.000000 1.000000
vn 0.000001 0.000000 1.000000
vn -0.000000 0.000000 1.000000
vn -0.000000 0.000000 1.000000
vn -0.000000 0.000000 1.000000
vn 0.000001 0.000000 1.000000
vn -0.000000 0.000000 1.000000
vn 0.000001 0.000000 1.000000
vn -0.000000 0.000000 1.000000
vn -0.000000 0.000000 1.000000
vn -0.000000 0.000000 1.000000
vn -0.000001 0.000000 1.000000
vn -0.000000 0.000000 1.000000
vn -0.000001 0.000000 1.000000
vn -0.000000 0.000000 1.000000
vn -0.000000 0.000000 1.000000
vn -0.000000 0.000000 1.000000
vn -0.000001 0.000000 1.000000
vn -0.000000 0.000000 1.000000
vn 0.382683 0.923880 0.000000
vn 0.382683 0.923880 0.000000
vn 0.382683 0.923880 0.000000
vn 0.382683 0.923880 0.000000
vn -0.382683 0.923880 0.000000
vn -0.382683 0.923880 0.000000
vn -0.382683 0.923880 0.000000
vn -0.382683 0.923880 0.000000
vn -0.923880 0.382683 0.000000
vn -0.923880 0.382683 0.000000
vn -0.923880 0.382683 0.000000
vn -0.923880 0.382683 0.000000
vn -0.923880 -0.382683 0.000000
vn -0.923880 -0.382683 0.000000
vn -0.923880 -0.382683 0.000000
vn -0.923880 -0.382683 0.000000
vn -0.382683 -0.923880 0.000000
vn -0.382683 -0.923880 0.000000
vn -0.382683 -0.923880 0.000000
vn -0.382683 -0.923880 0.000000
vn 0.382683 -0.923880 0.000000
vn 0.382683 -0.923880 0.000000
vn 0.382683 -0.923880 0.000000
vn 0.382683 -0.923880 0.000000
vn 0.923879 -0.382684 0.000000
vn 0.923879 -0.382684 0.000000
vn 0.923879 -0.382684 0.000000
vn 0.923879 -0.382684 0.000000
vn 0.923879 0.382684 0.000000
vn 0.923879 0.382684 0.000000
vn 0.923879 0.382684 0.000000
vn 0.923879 0.382684 0.000000
vn 0.297941 0.719294 -0.627572
vn 0.297941 0.719294 -0.627572
vn 0.297941 0.719294 -0.627572
vn 0.297941 0.719294 -0.627572
vn -0.297942 0.719294 -0.627572
vn -0.297942 0.719294 -0.627572
vn -0.297941 0.719294 -0.627572
vn -0.297942 0.719294 -0.627572
vn -0.719293 0.297941 -0.627573
vn -0.719293 0.297941 -0.627573
vn -0.719293 0.297941 -0.627573
vn -0.719293 0.297941 -0.627573
vn -0.719294 -0.297941 -0.627573
vn -0.719294 -0.297941 -0.627573
vn -0.719294 -0.297941 -0.627573
vn -0.719294 -0.297941 -0.627573
vn -0.297941 -0.719294 -0.627572
vn -0.297941 -0.719294 -0.627572
vn -0.297941 -0.719294 -0.627572
vn -0.297941 -0.719294 -0.627572
vn 0.297941 -0.719294 -0.627572
vn 0.297941 -0.719294 -0.627572
vn 0.297941 -0.719294 -0.627572
vn 0.297941 -0.719294 -0.627572
vn 0.719294 -0.297941 -0.627573
vn 0.719294 -0.297941 -0.627573
vn 0.719294 -0.297941 -0.627573
vn 0.719294 -0.297941 -0.627573
vn 0.719294 0.297941 -0.627573
vn 0.719294 0.297941 -0.627573
vn 0.719294 0.297941 -0.627573
vn 0.719294 0.297941 -0.627573
vn 0.382679 0.923869 -0.004880
vn 0.382683 0.923879 -0.000735
vn 0.382683 0.923879 -0.000735
vn 0.382679 0.923869 -0.004880
vn -0.382679 0.923869 -0.004879
vn -0.382683 0.923879 -0.000735
vn -0.382683 0.923879 -0.000735
vn -0.382679 0.923869 -0.004879
vn -0.923869 0.382679 -0.004877
vn -0.923879 0.382683 -0.000734
vn -0.923879 0.382683 -0.000734
vn -0.923869 0.382679 -0.004877
vn -0.923869 -0.382679 -0.004877
vn -0.923879 -0.382683 -0.000734
vn -0.923879 -0.382683 -0.000734
vn -0.923869 -0.382679 -0.004877
vn -0.382679 -0.923869 -0.004879
vn -0.382683 -0.923879 -0.000735
vn -0.382683 -0.923879 -0.000735
vn -0.382679 -0.923869 -0.004879
vn 0.382679 -0.923869 -0.004880
vn 0.382683 -0.923879 -0.000735
vn 0.382683 -0.923879 -0.000735
vn 0.382679 -0.923869 -0.004880
vn 0.923868 -0.382679 -0.004881
vn 0.923879 -0.382683 -0.000735
vn 0.923879 -0.382683 -0.000735
vn 0.923868 -0.382679 -0.004881
vn 0.923868 0.382679 -0.004880
vn 0.923879 0.382684 -0.000735
vn 0.923879 0.382684 -0.000735
vn 0.923868 0.382679 -0.004880
vn 0.000000 0.000000 1.000000
vn 0.000000 0.000000 1.000000
vn 0.000000 0.000000 1.000000
vn 0.000000 0.000000 1.000000
vn -0.000001 0.000000 1.000000
vn -0.000001 0.000000 1.000000
vn -0.000001 0.000000 1.000000
vn -0.000001 0.000000 1.000000
vn -0.000001 0.000000 1.000000
vn -0.000001 0.000000 1.000000
vn -0.000001 0.000000 1.000000
vn -0.000001 0.000000 1.000000
vn -0.000001 0.000000 1.000000
vn -0.000001 0.000000 1.000000
vn -0.000001 0.000000 1.000000
vn -0.000001 0.000000 1.000000
vn -0.000000 0.000000 1.000000
vn -0.000000 0.000000 1.000000
vn -0.000000 0.000000 1.000000
vn -0.000000 0.000000 1.000000
vn 0.000001 0.000000 1.000000
vn 0.000001 0.000000 1.000000
vn 0.000001 0.000000 1.000000
vn 0.000001 0.000000 1.000000
vn 0.000001 0.000000 1.000000
vn 0.000001 0.000000 1.000000
vn 0.000001 0.000000 1.000000
vn 0.000001 0.000000 1.000000
vn 0.000001 0.000000 1.000000
vn 0.000001 0.000000 1.000000
vn 0.000001 0.000000 1.000000
vn 0.000001 0.000000 1.000000
vn -0.382683 0.923879 -0.000735
vn -0.382683 0.923880 -0.000398
vn -0.382683 0.923879 -0.000398
vn -0.382683 0.923879 -0.000735
vn 0.382683 0.923879 -0.000735
vn 0.382683 0.923879 -0.000735
vn 0.382683 0.923879 -0.000398
vn 0.382683 0.923880 -0.000398
vn 0.923879 0.382684 -0.000735
vn 0.923879 0.382684 -0.000735
vn 0.923879 0.382684 -0.000398
vn 0.923879 0.382684 -0.000398
vn 0.923879 -0.382683 -0.000735
vn 0.923879 -0.382683 -0.000735
vn 0.923879 -0.382684 -0.000398
vn 0.923879 -0.382684 -0.000398
vn 0.382683 -0.923879 -0.000735
vn 0.382683 -0.923879 -0.000735
vn 0.382683 -0.923880 -0.000398
vn 0.382683 -0.923880 -0.000398
vn -0.382683 -0.923879 -0.000735
vn -0.382683 -0.923879 -0.000735
vn -0.382683 -0.923879 -0.000398
vn -0.382683 -0.923880 -0.000398
vn -0.923879 -0.382683 -0.000734
vn -0.923879 -0.382683 -0.000734
vn -0.923880 -0.382684 -0.000398
vn -0.923880 -0.382684 -0.000398
vn -0.923879 0.382683 -0.000734
vn -0.923879 0.382683 -0.000734
vn -0.923880 0.382684 -0.000398
vn -0.923880 0.382684 -0.000398
s off
f 18/1/1 17/2/2 19/3/3
f 20/4/4 18/1/5 19/3/6
f 21/5/7 20/4/8 19/3/9
f 22/6/10 21/5/11 19/3/12
f 23/7/13 22/6/14 19/3/15
f 24/8/16 23/7/17 19/3/18
f 25/9/19 24/8/20 19/3/21
f 17/2/22 25/9/23 19/3/24
f 34/10/25 35/11/26 36/12/27
f 35/11/28 37/13/29 36/12/30
f 37/13/31 38/14/32 36/12/33
f 38/14/34 39/15/35 36/12/36
f 39/15/37 40/16/38 36/12/39
f 40/16/40 41/17/41 36/12/42
f 41/17/43 42/18/44 36/12/45
f 42/18/46 34/10/47 36/12/48
f 2/19/49 1/20/50 9/21/51 10/22/52
f 3/23/53 2/19/54 10/22/55 11/24/56
f 4/25/57 3/23/58 11/24/59 12/26/60
f 5/27/61 4/25/62 12/26/63 13/28/64
f 6/29/65 5/27/66 13/28/67 14/30/68
f 7/31/69 6/29/70 14/30/71 15/32/72
f 8/33/73 7/31/74 15/32/75 16/34/76
f 1/20/77 8/33/78 16/34/79 9/21/80
f 10/22/81 9/21/82 17/2/83 18/1/84
f 11/24/85 10/22/86 18/1/87 20/4/88
f 12/26/89 11/24/90 20/4/91 21/5/92
f 13/28/93 12/26/94 21/5/95 22/6/96
f 14/30/97 13/28/98 22/6/99 23/7/100
f 15/32/101 14/30/102 23/7/103 24/8/104
f 16/34/105 15/32/106 24/8/107 25/9/108
f 9/21/109 16/34/110 25/9/111 17/2/112
f 2/35/113 44/38/114 45/39/115 1/41/116
f 3/43/117 43/45/118 44/38/119 2/35/120
f 4/47/121 50/49/122 43/45/123 3/43/124
f 5/67/125 49/68/126 50/49/127 4/47/128
f 6/69/129 48/70/130 49/68/131 5/67/132
f 7/71/133 47/72/134 48/70/135 6/69/136
f 8/73/137 46/74/138 47/72/139 7/71/140
f 1/41/141 45/39/142 46/74/143 8/73/144
f 26/36/145 27/37/146 35/40/147 34/42/148
f 27/37/149 28/44/150 37/46/151 35/40/152
f 28/44/153 29/48/154 38/50/155 37/46/156
f 29/48/157 30/51/158 39/52/159 38/50/160
f 30/51/161 31/53/162 40/54/163 39/52/164
f 31/53/165 32/55/166 41/56/167 40/54/168
f 32/55/169 33/57/170 42/58/171 41/56/172
f 33/57/173 26/36/174 34/42/175 42/58/176
f 43/59/177 28/44/178 27/37/179 44/60/180
f 45/61/181 44/60/182 27/37/183 26/36/184
f 46/62/185 45/61/186 26/36/187 33/57/188
f 47/63/189 46/62/190 33/57/191 32/55/192
f 48/64/193 47/63/194 32/55/195 31/53/196
f 49/65/197 48/64/198 31/53/199 30/51/200
f 50/66/201 49/65/202 30/51/203 29/48/204
f 43/59/205 50/66/206 29/48/207 28/44/208
