# This file uses centimeters as units for non-parametric coordinates.

v -35.915787 49.306416 -15.646172
v 35.581810 49.306416 -15.646172
v -35.915787 139.234711 0.835323
v 35.581810 139.234711 0.835323
v -35.915787 139.783020 -2.156399
v 35.581810 139.783020 -2.156399
v -35.915787 49.854717 -18.637890
v 35.581810 49.854717 -18.637890
v -36.400131 139.632462 2.100674
v 36.066147 139.632462 2.100674
v 36.066147 140.603653 -3.198452
v -36.400131 140.603653 -3.198452
v -36.400131 49.456974 -19.903244
v 36.066147 49.456974 -19.903244
v 36.066147 48.485779 -14.604118
v -36.400131 48.485779 -14.604118
v -39.731758 143.747223 2.854803
v 39.397774 143.747223 2.854803
v 39.397774 144.718430 -2.444323
v -39.731758 144.718430 -2.444323
v -39.731758 45.342213 -20.657375
v 39.397774 45.342213 -20.657375
v 39.397774 44.371017 -15.358246
v -39.731758 44.371017 -15.358246
v -35.673607 144.718430 -2.444323
v 35.339622 144.718430 -2.444323
v -35.673607 143.747223 2.854803
v 35.339622 143.747223 2.854803
v -39.731758 147.601242 3.561142
v -36.068428 147.601242 3.561142
v -36.068428 148.572418 -1.737984
v -39.731758 148.572418 -1.737984
v 35.734444 147.601242 3.561142
v 35.734444 148.572418 -1.737984
v 39.397774 147.601242 3.561142
v 39.397774 148.572418 -1.737984
v -35.433205 44.371017 -15.358246
v 35.099220 44.371017 -15.358246
v -35.433205 45.342213 -20.657375
v 35.099220 45.342213 -20.657375
v -39.731758 0.709532 -28.837368
v -35.433205 0.709532 -28.837368
v -35.433205 -0.261654 -23.538242
v -39.731758 -0.261654 -23.538242
v 35.099220 0.709532 -28.837368
v 35.099220 -0.261654 -23.538242
v 39.397774 0.709532 -28.837368
v 39.397774 -0.261654 -23.538242
v -35.581810 49.754162 22.282009
v 35.915787 49.754162 22.282009
v -35.581810 139.954514 7.361065
v 35.915787 139.954514 7.361065
v -35.581810 139.458130 4.360291
v 35.915787 139.458130 4.360291
v -35.581810 49.257771 19.281237
v 35.915787 49.257771 19.281237
v -36.066147 140.756973 8.417179
v 36.400131 140.756973 8.417179
v 36.400131 139.877731 3.102022
v -36.066147 139.877731 3.102022
v -36.066147 48.455318 18.225121
v 36.400131 48.455318 18.225121
v 36.400131 49.334553 23.540279
v -36.066147 49.334553 23.540279
v -39.397774 144.884186 7.734455
v 39.731758 144.884186 7.734455
v 39.731758 144.004944 2.419298
v -39.397774 144.004944 2.419298
v -39.397774 44.328106 18.907845
v 39.731758 44.328106 18.907845
v 39.731758 45.207340 24.223001
v -39.397774 45.207340 24.223001
v -35.339622 144.004944 2.419298
v 35.673599 144.004944 2.419298
v -35.339622 144.884186 7.734455
v 35.673599 144.884186 7.734455
v -39.397774 148.749847 7.094997
v -35.734451 148.749847 7.094997
v -35.734451 147.870621 1.779839
v -39.397774 147.870621 1.779839
v 36.068428 148.749847 7.094997
v 36.068428 147.870621 1.779839
v 39.731758 148.749847 7.094997
v 39.731758 147.870621 1.779839
v -35.099220 45.207340 24.223001
v 35.433197 45.207340 24.223001
v -35.099220 44.328106 18.907845
v 35.433197 44.328106 18.907845
v -39.397774 -0.439590 26.313320
v -35.099220 -0.439590 26.313320
v -35.099220 0.439636 31.628477
v -39.397774 0.439636 31.628477
v 35.433197 -0.439590 26.313320
v 35.433197 0.439636 31.628477
v 39.731758 -0.439590 26.313320
v 39.731758 0.439636 31.628477
vt 0.417580 0.075241
vt 0.417580 0.075241
vt 0.417580 0.075241
vt 0.417580 0.075241
vt 0.469286 0.078404
vt 0.414628 0.078404
vt 0.469286 0.022130
vt 0.414628 0.022130
vt 0.487158 0.204872
vt 0.487158 0.204872
vt 0.487158 0.204872
vt 0.487158 0.204872
vt 0.487158 0.204870
vt 0.487158 0.204870
vt 0.487158 0.204870
vt 0.487158 0.204870
vt 0.487158 0.204872
vt 0.487158 0.204872
vt 0.487158 0.204872
vt 0.487158 0.204872
vt 0.487158 0.204872
vt 0.487158 0.204872
vt 0.487158 0.204872
vt 0.487158 0.204872
vt 0.487158 0.204870
vt 0.487158 0.204870
vt 0.487158 0.204870
vt 0.487158 0.204870
vt 0.487158 0.204870
vt 0.487158 0.204870
vt 0.487158 0.204870
vt 0.487158 0.204870
vt 0.487158 0.204872
vt 0.487158 0.204872
vt 0.487158 0.204872
vt 0.487158 0.204872
vt 0.487158 0.204872
vt 0.487158 0.204872
vt 0.487158 0.204872
vt 0.487158 0.204872
vt 0.487158 0.204872
vt 0.487158 0.204872
vt 0.487158 0.204872
vt 0.487158 0.204872
vt 0.487158 0.204870
vt 0.487158 0.204870
vt 0.487158 0.204870
vt 0.487158 0.204870
vt 0.487158 0.204870
vt 0.487158 0.204870
vt 0.487158 0.204870
vt 0.487158 0.204870
vt 0.487158 0.204870
vt 0.487158 0.204870
vt 0.487158 0.204870
vt 0.487158 0.204870
vt 0.414628 0.022130
vt 0.469286 0.022130
vt 0.469286 0.078404
vt 0.414628 0.078404
vt 0.487158 0.204872
vt 0.487158 0.204872
vt 0.487158 0.204872
vt 0.487158 0.204872
vt 0.417580 0.075241
vt 0.417580 0.075241
vt 0.417580 0.075241
vt 0.417580 0.075241
vt 0.487158 0.204870
vt 0.487158 0.204870
vt 0.487158 0.204870
vt 0.487158 0.204870
vt 0.487158 0.204870
vt 0.487158 0.204870
vt 0.487158 0.204872
vt 0.487158 0.204872
vt 0.487158 0.204870
vt 0.487158 0.204870
vt 0.487158 0.204872
vt 0.487158 0.204872
vt 0.487158 0.204872
vt 0.487158 0.204872
vt 0.487158 0.204872
vt 0.487158 0.204872
vt 0.487158 0.204872
vt 0.487158 0.204872
vt 0.487158 0.204872
vt 0.487158 0.204872
vt 0.487158 0.204870
vt 0.487158 0.204870
vt 0.487158 0.204870
vt 0.487158 0.204870
vt 0.487158 0.204870
vt 0.487158 0.204870
vt 0.487158 0.204870
vt 0.487158 0.204870
vt 0.487158 0.204872
vt 0.487158 0.204872
vt 0.487158 0.204872
vt 0.487158 0.204872
vt 0.487158 0.204872
vt 0.487158 0.204872
vt 0.487158 0.204872
vt 0.487158 0.204872
vt 0.487158 0.204870
vt 0.487158 0.204870
vt 0.487158 0.204870
vt 0.487158 0.204870
vt 0.487158 0.204870
vt 0.487158 0.204870
vt 0.487158 0.204870
vt 0.487158 0.204870
vn 0.000000 -0.180271 0.983617
vn 0.000000 -0.180271 0.983617
vn 0.000000 -0.180271 0.983617
vn 0.000000 -0.180271 0.983617
vn 0.000000 0.983616 0.180275
vn 0.000000 0.983616 0.180275
vn 0.000000 0.983616 0.180275
vn 0.000000 0.983616 0.180275
vn 0.000000 0.180271 -0.983617
vn 0.000000 0.180271 -0.983617
vn 0.000000 0.180271 -0.983617
vn 0.000000 0.180271 -0.983617
vn 0.000000 -0.983617 -0.180272
vn 0.000000 -0.983617 -0.180272
vn 0.000000 -0.983617 -0.180272
vn 0.000000 -0.983617 -0.180272
vn 1.000000 0.000000 0.000000
vn 1.000000 0.000000 0.000000
vn 1.000000 0.000000 0.000000
vn 1.000000 0.000000 0.000000
vn -1.000000 0.000000 0.000000
vn -1.000000 0.000000 0.000000
vn -1.000000 0.000000 0.000000
vn -1.000000 0.000000 0.000000
vn 0.000000 -0.953981 0.299867
vn 0.000000 -0.953981 0.299867
vn 0.000000 -0.953981 0.299867
vn 0.000000 -0.953981 0.299867
vn 0.000000 -0.785635 -0.618691
vn 0.000000 -0.785635 -0.618691
vn 0.000000 -0.785635 -0.618691
vn 0.000000 -0.785635 -0.618691
vn 0.000000 0.953981 -0.299866
vn 0.000000 0.953981 -0.299866
vn 0.000000 0.953981 -0.299866
vn 0.000000 0.953981 -0.299866
vn 0.000000 0.785629 0.618698
vn 0.000000 0.785629 0.618698
vn 0.000000 0.785629 0.618698
vn 0.000000 0.785629 0.618698
vn -0.924298 0.068805 -0.375419
vn -0.924298 0.068805 -0.375419
vn -0.924298 0.068805 -0.375419
vn -0.924298 0.068805 -0.375419
vn -0.924297 -0.068805 0.375420
vn -0.924297 -0.068805 0.375420
vn -0.924297 -0.068805 0.375420
vn -0.924297 -0.068805 0.375420
vn 0.924295 -0.068806 0.375425
vn 0.924295 -0.068806 0.375425
vn 0.924295 -0.068806 0.375425
vn 0.924295 -0.068806 0.375425
vn 0.924296 0.068805 -0.375424
vn 0.924296 0.068805 -0.375424
vn 0.924296 0.068805 -0.375424
vn 0.924296 0.068805 -0.375424
vn 0.000000 -0.180271 0.983617
vn 0.000000 -0.180271 0.983617
vn 0.000000 -0.180271 0.983617
vn -0.000000 0.180271 -0.983617
vn 0.000000 0.180271 -0.983617
vn -0.000001 0.180271 -0.983617
vn 0.000000 0.180271 -0.983617
vn 0.000000 0.180272 -0.983617
vn 0.000000 0.180271 -0.983617
vn -0.000000 -0.180271 0.983617
vn 0.000000 -0.180271 0.983617
vn -0.000000 -0.180271 0.983617
vn -0.000000 0.180271 -0.983617
vn -0.000000 0.180271 -0.983617
vn -0.000001 0.180271 -0.983617
vn -0.000000 0.180271 -0.983617
vn -0.000000 -0.180271 0.983617
vn -0.000000 -0.180271 0.983617
vn -0.000000 -0.180271 0.983617
vn -0.000000 -0.180271 0.983617
vn 0.000000 -0.180271 0.983617
vn 0.000000 -0.180271 0.983617
vn 0.000000 -0.180271 0.983617
vn 0.000000 -0.180271 0.983617
vn 0.000000 0.180271 -0.983617
vn 0.000000 0.180271 -0.983617
vn 0.000000 0.180271 -0.983617
vn 0.000001 0.180271 -0.983617
vn 0.000000 0.983617 0.180269
vn 0.000000 0.983617 0.180269
vn 0.000000 0.983617 0.180269
vn 0.000000 0.983617 0.180269
vn 0.000000 0.983617 0.180269
vn 0.000000 0.983617 0.180269
vn 0.000000 0.983617 0.180269
vn 0.000000 0.983617 0.180269
vn 0.000000 -0.180271 0.983617
vn -0.000000 -0.180271 0.983617
vn -0.000000 -0.180271 0.983617
vn 0.000000 -0.180271 0.983617
vn -0.000000 -0.180271 0.983617
vn 0.000000 -0.180271 0.983617
vn 0.000000 -0.180271 0.983617
vn 0.000000 0.180271 -0.983617
vn 0.000000 0.180271 -0.983617
vn 0.000001 0.180271 -0.983617
vn -0.000000 0.180271 -0.983617
vn 0.000000 0.180271 -0.983617
vn 0.000000 0.180271 -0.983617
vn 0.000000 0.180271 -0.983617
vn 0.000000 -0.180271 0.983617
vn 0.000000 -0.180271 0.983617
vn 0.000000 -0.180270 0.983617
vn 0.000000 -0.180270 0.983617
vn 0.994961 0.098616 0.018074
vn 0.994962 0.098616 0.018074
vn 0.994962 0.098616 0.018074
vn 0.994961 0.098616 0.018074
vn 0.000000 0.180271 -0.983617
vn 0.000001 0.180271 -0.983617
vn 0.000000 0.180271 -0.983617
vn 0.000000 0.180271 -0.983617
vn -1.000000 0.000000 0.000000
vn -1.000000 0.000000 0.000000
vn -1.000000 0.000000 0.000000
vn -1.000000 0.000000 0.000000
vn -0.994962 0.098616 0.018074
vn -0.994961 0.098616 0.018074
vn -0.994961 0.098616 0.018074
vn -0.994962 0.098616 0.018074
vn 0.000000 -0.180271 0.983617
vn -0.000000 -0.180271 0.983617
vn 0.000000 -0.180270 0.983617
vn 0.000000 -0.180270 0.983617
vn 1.000000 0.000000 0.000000
vn 1.000000 0.000000 0.000000
vn 1.000000 -0.000000 0.000000
vn 1.000000 -0.000000 0.000000
vn -0.000001 0.180271 -0.983617
vn 0.000000 0.180271 -0.983617
vn 0.000000 0.180271 -0.983617
vn 0.000000 0.180271 -0.983617
vn 0.000000 -0.180271 0.983617
vn 0.000000 -0.180271 0.983617
vn 0.000000 -0.180271 0.983617
vn 0.000000 -0.983617 -0.180270
vn 0.000000 -0.983617 -0.180270
vn 0.000000 -0.983617 -0.180270
vn 0.000000 -0.983617 -0.180270
vn 0.000000 -0.983617 -0.180270
vn 0.000000 -0.983617 -0.180270
vn 0.000000 -0.983617 -0.180270
vn 0.000000 -0.983617 -0.180270
vn -0.000000 -0.180271 0.983617
vn 0.000000 -0.180271 0.983617
vn 0.000000 -0.180271 0.983617
vn 0.000000 -0.180271 0.983617
vn 0.000000 0.180272 -0.983617
vn -0.000000 0.180271 -0.983617
vn -0.000000 0.180271 -0.983617
vn 0.000000 0.180271 -0.983617
vn -0.000000 0.180271 -0.983617
vn 0.000000 0.180272 -0.983617
vn 0.000000 0.180272 -0.983617
vn 0.000000 0.180271 -0.983617
vn 0.000000 0.180272 -0.983617
vn 0.000000 0.180271 -0.983617
vn 0.000000 0.180271 -0.983617
vn 1.000000 0.000000 0.000000
vn 1.000000 0.000000 0.000000
vn 1.000000 0.000000 0.000000
vn 1.000000 0.000000 0.000000
vn 0.000000 -0.180271 0.983617
vn 0.000000 -0.180271 0.983617
vn 0.000000 -0.180271 0.983617
vn 0.000000 -0.180271 0.983617
vn -1.000000 0.000000 0.000000
vn -1.000000 0.000000 0.000000
vn -1.000000 0.000000 0.000000
vn -1.000000 0.000000 0.000000
vn -1.000000 0.000000 0.000000
vn -1.000000 0.000000 0.000000
vn -1.000000 0.000000 0.000000
vn -1.000000 0.000000 0.000000
vn 0.000000 0.180272 -0.983617
vn -0.000000 0.180271 -0.983617
vn 0.000000 0.180271 -0.983617
vn 0.000000 0.180271 -0.983617
vn 1.000000 0.000000 0.000000
vn 1.000000 0.000000 0.000000
vn 1.000000 0.000000 0.000000
vn 1.000000 0.000000 0.000000
vn -0.000000 -0.180271 0.983617
vn 0.000000 -0.180271 0.983617
vn 0.000000 -0.180271 0.983617
vn 0.000000 -0.180271 0.983617
vn 0.000000 0.163202 0.986593
vn 0.000000 0.163202 0.986593
vn 0.000000 0.163202 0.986593
vn 0.000000 0.163202 0.986593
vn 0.000000 0.986593 -0.163203
vn 0.000000 0.986593 -0.163203
vn 0.000000 0.986593 -0.163203
vn 0.000000 0.986593 -0.163203
vn 0.000000 -0.163202 -0.986593
vn 0.000000 -0.163202 -0.986593
vn 0.000000 -0.163202 -0.986593
vn 0.000000 -0.163202 -0.986593
vn 0.000000 -0.986593 0.163203
vn 0.000000 -0.986593 0.163203
vn 0.000000 -0.986593 0.163203
vn 0.000000 -0.986593 0.163203
vn 1.000000 0.000000 0.000000
vn 1.000000 0.000000 0.000000
vn 1.000000 0.000000 0.000000
vn 1.000000 0.000000 0.000000
vn -1.000000 0.000000 0.000000
vn -1.000000 0.000000 0.000000
vn -1.000000 0.000000 0.000000
vn -1.000000 0.000000 0.000000
vn 0.000000 -0.796230 0.604995
vn 0.000000 -0.796230 0.604995
vn 0.000000 -0.796230 0.604995
vn 0.000000 -0.796230 0.604995
vn 0.000000 -0.948641 -0.316353
vn 0.000000 -0.948641 -0.316353
vn 0.000000 -0.948641 -0.316353
vn 0.000000 -0.948642 -0.316353
vn 0.000000 0.796233 -0.604990
vn 0.000000 0.796233 -0.604990
vn 0.000000 0.796233 -0.604990
vn 0.000000 0.796233 -0.604990
vn 0.000000 0.948641 0.316354
vn 0.000000 0.948641 0.316354
vn 0.000000 0.948641 0.316354
vn 0.000000 0.948641 0.316354
vn -0.924295 -0.062291 -0.376561
vn -0.924295 -0.062291 -0.376561
vn -0.924295 -0.062291 -0.376561
vn -0.924295 -0.062291 -0.376561
vn -0.924295 0.062291 0.376561
vn -0.924295 0.062291 0.376561
vn -0.924295 0.062291 0.376561
vn -0.924295 0.062291 0.376561
vn 0.924298 0.062290 0.376555
vn 0.924298 0.062290 0.376555
vn 0.924298 0.062290 0.376555
vn 0.924298 0.062290 0.376555
vn 0.924298 -0.062290 -0.376555
vn 0.924298 -0.062290 -0.376555
vn 0.924298 -0.062290 -0.376555
vn 0.924298 -0.062290 -0.376555
vn -0.000000 0.163202 0.986593
vn 0.000000 0.163202 0.986593
vn -0.000000 0.163202 0.986593
vn -0.000000 -0.163202 -0.986593
vn 0.000000 -0.163202 -0.986593
vn -0.000000 -0.163202 -0.986593
vn 0.000000 -0.163202 -0.986593
vn 0.000000 -0.163202 -0.986593
vn 0.000000 -0.163202 -0.986593
vn 0.000000 0.163202 0.986593
vn 0.000000 0.163202 0.986593
vn 0.000000 0.163202 0.986593
vn -0.000000 -0.163202 -0.986593
vn -0.000000 -0.163202 -0.986593
vn -0.000000 -0.163202 -0.986593
vn -0.000000 -0.163202 -0.986593
vn 0.000000 0.163202 0.986593
vn 0.000000 0.163202 0.986593
vn 0.000000 0.163202 0.986593
vn 0.000000 0.163202 0.986593
vn -0.000000 0.163202 0.986593
vn -0.000000 0.163202 0.986593
vn -0.000000 0.163202 0.986593
vn -0.000000 0.163202 0.986593
vn 0.000000 -0.163202 -0.986593
vn 0.000000 -0.163202 -0.986593
vn 0.000000 -0.163202 -0.986593
vn 0.000000 -0.163202 -0.986593
vn 0.000000 0.986593 -0.163201
vn 0.000000 0.986593 -0.163201
vn 0.000000 0.986593 -0.163201
vn 0.000000 0.986593 -0.163201
vn 0.000000 0.986593 -0.163200
vn 0.000000 0.986593 -0.163200
vn 0.000000 0.986593 -0.163200
vn 0.000000 0.986593 -0.163200
vn 0.000000 0.163202 0.986593
vn 0.000000 0.163202 0.986593
vn 0.000000 0.163202 0.986593
vn -0.000000 0.163202 0.986593
vn 0.000000 0.163202 0.986593
vn 0.000000 0.163202 0.986593
vn 0.000000 0.163202 0.986593
vn 0.000000 -0.163202 -0.986593
vn 0.000000 -0.163202 -0.986593
vn 0.000000 -0.163202 -0.986593
vn -0.000000 -0.163202 -0.986593
vn 0.000000 -0.163202 -0.986593
vn 0.000000 -0.163202 -0.986593
vn 0.000000 -0.163202 -0.986593
vn -0.000000 0.163202 0.986593
vn 0.000000 0.163202 0.986593
vn 0.000000 0.163202 0.986593
vn 0.000000 0.163202 0.986593
vn 0.994961 0.098916 -0.016363
vn 0.994961 0.098916 -0.016363
vn 0.994961 0.098916 -0.016363
vn 0.994961 0.098916 -0.016363
vn 0.000000 -0.163202 -0.986593
vn 0.000000 -0.163202 -0.986593
vn 0.000000 -0.163202 -0.986593
vn 0.000000 -0.163202 -0.986593
vn -1.000000 0.000000 0.000000
vn -1.000000 0.000000 0.000000
vn -1.000000 0.000000 0.000000
vn -1.000000 0.000000 0.000000
vn -0.994961 0.098916 -0.016363
vn -0.994961 0.098916 -0.016363
vn -0.994961 0.098916 -0.016363
vn -0.994961 0.098916 -0.016363
vn 0.000000 0.163202 0.986593
vn 0.000000 0.163202 0.986593
vn 0.000000 0.163202 0.986593
vn 0.000000 0.163202 0.986593
vn 1.000000 0.000000 0.000000
vn 1.000000 0.000000 0.000000
vn 1.000000 0.000000 0.000000
vn 1.000000 0.000000 0.000000
vn -0.000000 -0.163202 -0.986593
vn 0.000000 -0.163202 -0.986593
vn 0.000000 -0.163202 -0.986593
vn 0.000000 -0.163202 -0.986593
vn 0.000000 0.163202 0.986593
vn -0.000000 0.163202 0.986593
vn -0.000000 0.163202 0.986593
vn 0.000000 -0.986593 0.163201
vn 0.000000 -0.986593 0.163201
vn 0.000000 -0.986593 0.163201
vn 0.000000 -0.986593 0.163201
vn 0.000000 -0.986593 0.163201
vn 0.000000 -0.986593 0.163201
vn 0.000000 -0.986593 0.163201
vn 0.000000 -0.986593 0.163201
vn 0.000000 0.163202 0.986593
vn -0.000000 0.163202 0.986593
vn 0.000000 0.163202 0.986593
vn 0.000000 0.163202 0.986593
vn 0.000000 -0.163202 -0.986593
vn -0.000000 -0.163202 -0.986593
vn -0.000000 -0.163202 -0.986593
vn 0.000000 -0.163202 -0.986593
vn -0.000000 -0.163202 -0.986593
vn 0.000000 -0.163202 -0.986593
vn 0.000000 -0.163202 -0.986593
vn 0.000000 -0.163202 -0.986593
vn 0.000000 -0.163202 -0.986593
vn 0.000000 -0.163202 -0.986593
vn 0.000000 -0.163202 -0.986593
vn 1.000000 0.000000 0.000000
vn 1.000000 0.000000 0.000000
vn 1.000000 0.000000 0.000000
vn 1.000000 0.000000 0.000000
vn 0.000000 0.163202 0.986593
vn -0.000000 0.163202 0.986593
vn 0.000000 0.163202 0.986593
vn 0.000000 0.163202 0.986593
vn -1.000000 0.000000 0.000000
vn -1.000000 0.000000 0.000000
vn -1.000000 0.000000 0.000000
vn -1.000000 0.000000 0.000000
vn -1.000000 0.000000 0.000000
vn -1.000000 0.000000 0.000000
vn -1.000000 0.000000 0.000000
vn -1.000000 0.000000 0.000000
vn 0.000000 -0.163202 -0.986593
vn -0.000000 -0.163202 -0.986593
vn 0.000000 -0.163202 -0.986593
vn 0.000000 -0.163202 -0.986593
vn 1.000000 0.000000 0.000000
vn 1.000000 0.000000 0.000000
vn 1.000000 0.000000 0.000000
vn 1.000000 0.000000 0.000000
vn 0.000000 0.163202 0.986593
vn 0.000000 0.163202 0.986593
vn 0.000000 0.163202 0.986593
vn 0.000000 0.163202 0.986593
s off
f 1/1/1 2/2/2 4/3/3 3/4/4
f 25/33/5 27/35/6 28/36/7 26/34/8
f 5/6/9 6/5/10 8/7/11 7/8/12
f 37/45/13 39/47/14 40/48/15 38/46/16
f 23/15/17 22/14/18 19/11/19 18/10/20
f 21/13/21 24/16/22 17/9/23 20/12/24
f 3/17/25 4/18/26 10/19/27 9/20/28
f 6/21/29 5/22/30 12/23/31 11/24/32
f 7/25/33 8/26/34 14/27/35 13/28/36
f 2/29/37 1/30/38 16/31/39 15/32/40
f 8/26/41 6/21/42 11/24/43 14/27/44
f 4/18/45 2/29/46 15/32/47 10/19/48
f 1/30/49 3/17/50 9/20/51 16/31/52
f 5/22/53 7/25/54 13/28/55 12/23/56
f 9/20/57 27/35/58 17/9/59
f 11/24/60 26/34/61 19/11/62
f 13/28/63 39/47/64 21/13/65
f 15/32/66 38/46/67 23/15/68
f 14/27/69 11/24/70 19/11/71 22/14/72
f 10/19/73 15/32/74 23/15/75 18/10/76
f 16/31/77 9/20/78 17/9/79 24/16/80
f 12/23/81 13/28/82 21/13/83 20/12/84
f 29/37/85 30/38/86 31/39/87 32/40/88
f 34/41/89 33/42/90 35/43/91 36/44/92
f 28/36/93 10/19/94 18/10/95
f 9/20/96 10/19/97 28/36/98 27/35/99
f 25/33/100 12/23/101 20/12/102
f 11/24/103 12/23/104 25/33/105 26/34/106
f 17/9/107 27/35/108 30/38/109 29/37/110
f 27/35/111 25/33/112 31/39/113 30/38/114
f 25/33/115 20/12/116 32/40/117 31/39/118
f 20/12/119 17/9/120 29/37/121 32/40/122
f 26/34/123 28/36/124 33/42/125 34/41/126
f 28/36/127 18/10/128 35/43/129 33/42/130
f 18/10/131 19/11/132 36/44/133 35/43/134
f 19/11/135 26/34/136 34/41/137 36/44/138
f 37/45/139 16/31/140 24/16/141
f 41/49/142 42/50/143 43/51/144 44/52/145
f 46/53/146 45/54/147 47/55/148 48/56/149
f 15/32/150 16/31/151 37/45/152 38/46/153
f 40/48/154 14/27/155 22/14/156
f 13/28/157 14/27/158 40/48/159 39/47/160
f 21/13/161 39/47/162 42/50/163 41/49/164
f 39/47/165 37/45/166 43/51/167 42/50/168
f 37/45/169 24/16/170 44/52/171 43/51/172
f 24/16/173 21/13/174 41/49/175 44/52/176
f 38/46/177 40/48/178 45/54/179 46/53/180
f 40/48/181 22/14/182 47/55/183 45/54/184
f 22/14/185 23/15/186 48/56/187 47/55/188
f 23/15/189 38/46/190 46/53/191 48/56/192
f 49/57/193 50/58/194 52/59/195 51/60/196
f 73/61/197 75/62/198 76/63/199 74/64/200
f 53/65/201 54/66/202 56/67/203 55/68/204
f 85/69/205 87/70/206 88/71/207 86/72/208
f 71/73/209 70/74/210 67/75/211 66/76/212
f 69/77/213 72/78/214 65/79/215 68/80/216
f 51/81/217 52/82/218 58/83/219 57/84/220
f 54/85/221 53/86/222 60/87/223 59/88/224
f 55/89/225 56/90/226 62/91/227 61/92/228
f 50/93/229 49/94/230 64/95/231 63/96/232
f 56/90/233 54/85/234 59/88/235 62/91/236
f 52/82/237 50/93/238 63/96/239 58/83/240
f 49/94/241 51/81/242 57/84/243 64/95/244
f 53/86/245 55/89/246 61/92/247 60/87/248
f 57/84/249 75/62/250 65/79/251
f 59/88/252 74/64/253 67/75/254
f 61/92/255 87/70/256 69/77/257
f 63/96/258 86/72/259 71/73/260
f 62/91/261 59/88/262 67/75/263 70/74/264
f 58/83/265 63/96/266 71/73/267 66/76/268
f 64/95/269 57/84/270 65/79/271 72/78/272
f 60/87/273 61/92/274 69/77/275 68/80/276
f 77/97/277 78/98/278 79/99/279 80/100/280
f 82/101/281 81/102/282 83/103/283 84/104/284
f 76/63/285 58/83/286 66/76/287
f 57/84/288 58/83/289 76/63/290 75/62/291
f 73/61/292 60/87/293 68/80/294
f 59/88/295 60/87/296 73/61/297 74/64/298
f 65/79/299 75/62/300 78/98/301 77/97/302
f 75/62/303 73/61/304 79/99/305 78/98/306
f 73/61/307 68/80/308 80/100/309 79/99/310
f 68/80/311 65/79/312 77/97/313 80/100/314
f 74/64/315 76/63/316 81/102/317 82/101/318
f 76/63/319 66/76/320 83/103/321 81/102/322
f 66/76/323 67/75/324 84/104/325 83/103/326
f 67/75/327 74/64/328 82/101/329 84/104/330
f 85/69/331 64/95/332 72/78/333
f 89/105/334 90/106/335 91/107/336 92/108/337
f 94/109/338 93/110/339 95/111/340 96/112/341
f 63/96/342 64/95/343 85/69/344 86/72/345
f 88/71/346 62/91/347 70/74/348
f 61/92/349 62/91/350 88/71/351 87/70/352
f 69/77/353 87/70/354 90/106/355 89/105/356
f 87/70/357 85/69/358 91/107/359 90/106/360
f 85/69/361 72/78/362 92/108/363 91/107/364
f 72/78/365 69/77/366 89/105/367 92/108/368
f 86/72/369 88/71/370 93/110/371 94/109/372
f 88/71/373 70/74/374 95/111/375 93/110/376
f 70/74/377 71/73/378 96/112/379 95/111/380
f 71/73/381 86/72/382 94/109/383 96/112/384
