# This file uses centimeters as units for non-parametric coordinates.

v 8.177368 0.000000 -8.178711
v 0.000000 0.000000 -11.565430
v -8.177368 0.000000 -8.178711
v -11.564697 0.000000 -0.000977
v -8.177368 0.000000 8.176758
v 0.000000 0.000000 11.563477
v 8.177368 0.000000 8.176758
v 11.564697 0.000000 -0.000977
v 8.177368 627.118164 -8.178711
v 0.000000 627.118164 -11.565430
v -8.177368 630.317932 -8.178711
v -11.564697 630.317932 -0.000977
v -8.177368 630.317932 8.176758
v 0.000000 630.317932 11.563477
v 8.177368 627.410156 8.176758
v 11.564697 630.317932 -0.000977
v 0.000000 0.000000 -0.000977
v 0.000000 630.317932 -0.000977
v -1.122559 108.753761 12.063477
v -9.322388 114.483543 7.741211
v -12.061523 108.172775 -1.116211
v -7.734863 114.170120 -9.320313
v 1.122559 108.310516 -12.065430
v 9.322388 108.629524 -7.743164
v 12.061523 120.524689 1.114258
v 8.768799 114.991745 8.616211
v 0.191895 361.566345 11.524414
v -7.485962 359.989044 10.097656
v -12.328247 362.867004 1.083008
v -9.677002 363.253113 -7.352539
v -1.839722 363.100525 -11.463867
v 7.371094 362.498535 -8.409180
v 10.680420 361.799835 -1.021484
v 8.029175 361.413727 7.414063
v 5.484009 536.062683 -7.371094
v 5.484253 528.987976 -7.371094
v -0.642944 525.450378 -7.371094
v -6.769897 528.987732 -7.371094
v -6.769897 536.062439 -7.371094
v -0.642944 539.599976 -7.372070
v 3.834595 535.110535 -21.520508
v 3.834473 529.939697 -21.520508
v -0.643188 527.354370 -21.521484
v -5.120483 529.939697 -21.520508
v -5.120361 535.110535 -21.520508
v -0.642700 537.695557 -21.520508
v -0.642944 532.525085 -7.371094
v -0.642944 532.525208 -21.521484
v 5.484009 536.062683 7.369141
v 5.484253 528.987976 7.369141
v -0.642944 525.450378 7.369141
v -6.769897 528.987732 7.369141
v -6.769897 536.062439 7.369141
v -0.642944 539.599976 7.370117
v 3.834595 535.110535 21.518555
v 3.834473 529.939697 21.518555
v -0.643188 527.354370 21.519531
v -5.120483 529.939697 21.518555
v -5.120361 535.110535 21.518555
v -0.642700 537.695557 21.518555
v -0.642944 532.525085 7.369141
v -0.642944 532.525208 21.519531
vt 0.038631 0.226928
vt 0.038631 0.226928
vt 0.038631 0.226928
vt 0.038631 0.226928
vt 0.038631 0.226928
vt 0.038631 0.226928
vt 0.038631 0.226928
vt 0.038631 0.226928
vt 0.038631 0.226928
vt 0.038631 0.226928
vt 0.038631 0.226928
vt 0.038631 0.226928
vt 0.038631 0.226928
vt 0.038631 0.226928
vt 0.038631 0.226928
vt 0.038631 0.226928
vt 0.038631 0.226928
vt 0.038631 0.226928
vt 0.038631 0.226928
vt 0.038631 0.226928
vt 0.038631 0.226928
vt 0.038631 0.226928
vt 0.038631 0.226928
vt 0.038631 0.226928
vt 0.038631 0.226928
vt 0.038631 0.226928
vt 0.038631 0.226928
vt 0.038631 0.226928
vt 0.038631 0.226928
vt 0.038631 0.226928
vt 0.038631 0.226928
vt 0.038631 0.226928
vt 0.038631 0.226928
vt 0.038631 0.226928
vt 0.038631 0.226928
vt 0.038631 0.226928
vt 0.038631 0.226928
vt 0.038631 0.226928
vt 0.038631 0.226928
vt 0.038631 0.226928
vt 0.038631 0.226928
vt 0.038631 0.226928
vt 0.038631 0.226928
vt 0.038631 0.226928
vt 0.038631 0.226928
vt 0.038631 0.226928
vt 0.038631 0.226928
vt 0.038631 0.226928
vt 0.038631 0.226928
vt 0.038631 0.226928
vt 0.038631 0.226928
vt 0.038631 0.226928
vt 0.038631 0.226928
vt 0.038631 0.226928
vt 0.038631 0.226928
vt 0.038631 0.226928
vt 0.037883 0.277638
vt 0.037883 0.277638
vt 0.037883 0.277638
vt 0.037883 0.277638
vt 0.037883 0.277638
vt 0.037883 0.277638
vt 0.037883 0.277638
vt 0.037883 0.277638
vt 0.037883 0.277638
vt 0.037883 0.249366
vt 0.037883 0.249366
vt 0.037883 0.277638
vt 0.037883 0.277638
vt 0.037883 0.249366
vt 0.037883 0.277638
vt 0.037883 0.249366
vt 0.037883 0.277638
vt 0.037883 0.249366
vt 0.037883 0.277638
vt 0.037883 0.249366
vt 0.037883 0.277638
vt 0.037883 0.249366
vt 0.037883 0.249366
vt 0.037883 0.277638
vt 0.037883 0.277638
vt 0.037883 0.249366
vt 0.037883 0.277638
vt 0.037883 0.277638
vt 0.037883 0.277638
vt 0.037883 0.277638
vt 0.037883 0.277638
vt 0.037883 0.277638
vt 0.037883 0.277638
vt 0.037883 0.277638
vt 0.037883 0.277638
vt 0.037883 0.277638
vt 0.080546 0.274181
vt 0.080546 0.274181
vt 0.080546 0.274181
vt 0.080546 0.274181
vt 0.080546 0.274181
vt 0.080546 0.274181
vt 0.080546 0.274181
vt 0.080546 0.274181
vt 0.080546 0.274181
vt 0.080546 0.274181
vt 0.080546 0.274181
vt 0.080546 0.274181
vt 0.080546 0.274181
vt 0.080546 0.274181
vt 0.080546 0.274181
vt 0.080546 0.274181
vt 0.080546 0.274181
vt 0.080546 0.274181
vt 0.080546 0.274181
vt 0.080546 0.274181
vt 0.080546 0.274181
vt 0.080546 0.274181
vt 0.080546 0.274181
vt 0.080546 0.274181
vt 0.080546 0.274181
vt 0.080546 0.274181
vt 0.080546 0.274181
vt 0.080546 0.274181
vt 0.080546 0.274181
vt 0.080546 0.274181
vt 0.080546 0.274181
vt 0.080546 0.274181
vt 0.080546 0.274181
vt 0.080546 0.274181
vt 0.080546 0.274181
vt 0.080546 0.274181
vt 0.080546 0.274181
vt 0.080546 0.274181
vt 0.080546 0.274181
vt 0.080546 0.274181
vt 0.080546 0.274181
vt 0.080546 0.274181
vt 0.080546 0.274181
vt 0.080546 0.274181
vt 0.080546 0.274181
vt 0.080546 0.274181
vt 0.080546 0.274181
vt 0.080546 0.274181
vt 0.080546 0.274181
vt 0.080546 0.274181
vt 0.080546 0.274181
vt 0.080546 0.274181
vt 0.080546 0.274181
vt 0.080546 0.274181
vt 0.080546 0.274181
vt 0.080546 0.274181
vn 0.425961 -0.004721 -0.904729
vn 0.425961 -0.004721 -0.904729
vn 0.425961 -0.004721 -0.904729
vn 0.425961 -0.004721 -0.904729
vn -0.340066 -0.004547 -0.940390
vn -0.340066 -0.004547 -0.940390
vn -0.340066 -0.004547 -0.940390
vn -0.340066 -0.004547 -0.940390
vn -0.904061 -0.004559 -0.427379
vn -0.904061 -0.004559 -0.427379
vn -0.904061 -0.004559 -0.427379
vn -0.904061 -0.004559 -0.427379
vn -0.940447 -0.004567 0.339911
vn -0.940447 -0.004567 0.339911
vn -0.940447 -0.004567 0.339911
vn -0.940447 -0.004567 0.339911
vn -0.427203 -0.004600 0.904144
vn -0.427203 -0.004600 0.904144
vn -0.427203 -0.004600 0.904144
vn -0.427203 -0.004600 0.904144
vn 0.354693 -0.003084 0.934978
vn 0.354693 -0.003084 0.934978
vn 0.354693 -0.003084 0.934978
vn 0.354693 -0.003084 0.934978
vn 0.920834 -0.006829 0.389895
vn 0.920834 -0.006829 0.389895
vn 0.920834 -0.006829 0.389895
vn 0.920834 -0.006829 0.389895
vn 0.941979 -0.004478 -0.335643
vn 0.941979 -0.004478 -0.335643
vn 0.941979 -0.004478 -0.335643
vn 0.941979 -0.004478 -0.335643
vn 0.000000 -1.000000 0.000000
vn 0.000000 -1.000000 0.000000
vn 0.000000 -1.000000 0.000000
vn 0.000000 -1.000000 0.000000
vn 0.000000 -1.000000 0.000000
vn 0.000000 -1.000000 0.000000
vn 0.000000 -1.000000 0.000000
vn 0.000000 -1.000000 0.000000
vn 0.000000 -1.000000 0.000000
vn 0.000000 -1.000000 0.000000
vn 0.000000 -1.000000 0.000000
vn 0.000000 -1.000000 0.000000
vn 0.000000 -1.000000 0.000000
vn 0.000000 -1.000000 0.000000
vn 0.000000 -1.000000 0.000000
vn 0.000000 -1.000000 0.000000
vn 0.000000 -1.000000 0.000000
vn 0.000000 -1.000000 0.000000
vn 0.000000 -1.000000 0.000000
vn 0.000000 -1.000000 0.000000
vn 0.000000 -1.000000 0.000000
vn 0.000000 -1.000000 0.000000
vn 0.000000 -1.000000 0.000000
vn 0.000000 -1.000000 0.000000
vn 0.109776 0.957965 -0.265053
vn 0.109776 0.957965 -0.265053
vn 0.109776 0.957965 -0.265053
vn 0.257677 0.931241 -0.257668
vn 0.257677 0.931241 -0.257668
vn 0.257677 0.931241 -0.257668
vn 0.000000 1.000000 0.000000
vn 0.000000 1.000000 0.000000
vn 0.000000 1.000000 0.000000
vn 0.000000 1.000000 0.000000
vn 0.000000 1.000000 0.000000
vn 0.000000 1.000000 0.000000
vn 0.000000 1.000000 0.000000
vn 0.000000 1.000000 0.000000
vn 0.000000 1.000000 0.000000
vn 0.335037 0.942205 0.000000
vn 0.335037 0.942205 0.000000
vn 0.335037 0.942205 0.000000
vn 0.000000 0.942209 0.335027
vn 0.000000 0.942209 0.335027
vn 0.000000 0.942209 0.335027
vn 0.000000 0.931249 -0.364383
vn 0.000000 0.931249 -0.364383
vn 0.000000 0.931249 -0.364383
vn -0.340746 -0.001274 0.940154
vn -0.340746 -0.001274 0.940154
vn -0.340746 -0.001274 0.940154
vn -0.340746 -0.001274 0.940154
vn -0.920548 -0.000669 0.390629
vn -0.920548 -0.000669 0.390629
vn -0.920548 -0.000669 0.390629
vn -0.920548 -0.000669 0.390629
vn -0.922079 -0.000842 -0.387001
vn -0.922079 -0.000842 -0.387001
vn -0.922079 -0.000842 -0.387001
vn -0.922079 -0.000842 -0.387001
vn -0.379589 0.001023 -0.925155
vn -0.379589 0.001023 -0.925155
vn -0.379589 0.001023 -0.925155
vn -0.379589 0.001023 -0.925155
vn 0.390177 0.003652 -0.920733
vn 0.390177 0.003652 -0.920733
vn 0.390177 0.003652 -0.920733
vn 0.390177 0.003652 -0.920733
vn 0.936167 0.004311 -0.351530
vn 0.936167 0.004311 -0.351530
vn 0.936167 0.004311 -0.351530
vn 0.936167 0.004311 -0.351530
vn 0.936148 0.006477 0.351546
vn 0.936148 0.006477 0.351546
vn 0.936148 0.006477 0.351546
vn 0.936148 0.006477 0.351546
vn 0.391346 0.002759 0.920240
vn 0.391346 0.002759 0.920240
vn 0.391346 0.002759 0.920240
vn 0.391346 0.002759 0.920240
vn -0.290757 0.002864 0.956793
vn -0.290757 0.002864 0.956793
vn -0.290757 0.002864 0.956793
vn -0.290757 0.002864 0.956793
vn -0.901819 0.002535 0.432105
vn -0.901820 0.002535 0.432106
vn -0.901820 0.002535 0.432106
vn -0.901819 0.002535 0.432105
vn -0.939858 0.002759 -0.341554
vn -0.939858 0.002759 -0.341554
vn -0.939858 0.002759 -0.341554
vn -0.939858 0.002759 -0.341554
vn -0.423839 0.001083 -0.905737
vn -0.423839 0.001083 -0.905737
vn -0.423839 0.001083 -0.905737
vn -0.423839 0.001083 -0.905737
vn 0.347331 -0.001510 -0.937741
vn 0.347331 -0.001510 -0.937741
vn 0.347331 -0.001510 -0.937741
vn 0.347331 -0.001510 -0.937741
vn 0.918708 -0.001986 -0.394933
vn 0.918708 -0.001986 -0.394933
vn 0.918708 -0.001986 -0.394933
vn 0.918708 -0.001986 -0.394933
vn 0.940025 -0.002954 0.341093
vn 0.940025 -0.002954 0.341093
vn 0.940025 -0.002954 0.341093
vn 0.940025 -0.002954 0.341093
vn 0.423772 -0.001323 0.905768
vn 0.423772 -0.001323 0.905768
vn 0.423772 -0.001323 0.905768
vn 0.423772 -0.001323 0.905768
vn 0.993273 0.000010 -0.115800
vn 0.993273 0.000010 -0.115800
vn 0.993273 0.000010 -0.115800
vn 0.993273 0.000010 -0.115800
vn 0.496659 -0.860191 -0.115760
vn 0.496659 -0.860191 -0.115760
vn 0.496659 -0.860191 -0.115760
vn 0.496659 -0.860191 -0.115760
vn -0.496666 -0.860188 -0.115753
vn -0.496666 -0.860188 -0.115753
vn -0.496666 -0.860188 -0.115753
vn -0.496666 -0.860188 -0.115753
vn -0.993274 0.000010 -0.115791
vn -0.993274 0.000010 -0.115791
vn -0.993274 0.000010 -0.115791
vn -0.993274 0.000010 -0.115791
vn -0.496644 0.860198 -0.115777
vn -0.496645 0.860198 -0.115777
vn -0.496645 0.860198 -0.115777
vn -0.496644 0.860198 -0.115777
vn 0.496643 0.860199 -0.115774
vn 0.496643 0.860199 -0.115774
vn 0.496643 0.860199 -0.115774
vn 0.496643 0.860199 -0.115774
vn 0.000000 0.000000 1.000000
vn 0.000000 0.000000 1.000000
vn 0.000000 0.000000 1.000000
vn 0.000000 0.000000 1.000000
vn 0.000000 0.000000 1.000000
vn 0.000000 0.000000 1.000000
vn 0.000000 0.000000 1.000000
vn 0.000000 0.000000 1.000000
vn 0.000000 0.000000 1.000000
vn 0.000000 0.000000 1.000000
vn 0.000000 0.000000 1.000000
vn 0.000000 0.000000 1.000000
vn 0.000080 0.000138 1.000000
vn 0.000080 0.000138 1.000000
vn 0.000080 0.000138 1.000000
vn -0.000080 0.000138 1.000000
vn -0.000080 0.000138 1.000000
vn -0.000080 0.000138 1.000000
vn 0.000218 -0.000000 -1.000000
vn 0.000218 -0.000000 -1.000000
vn 0.000218 -0.000000 -1.000000
vn 0.000218 -0.000000 -1.000000
vn 0.000218 -0.000000 -1.000000
vn 0.000218 -0.000000 -1.000000
vn -0.000218 0.000000 -1.000000
vn -0.000218 0.000000 -1.000000
vn -0.000218 0.000000 -1.000000
vn -0.000218 0.000000 -1.000000
vn -0.000218 0.000000 -1.000000
vn -0.000218 0.000000 -1.000000
vn -0.000109 0.000189 -1.000000
vn -0.000109 0.000189 -1.000000
vn -0.000109 0.000189 -1.000000
vn 0.000109 0.000189 -1.000000
vn 0.000109 0.000189 -1.000000
vn 0.000109 0.000189 -1.000000
vn 0.993273 0.000010 0.115800
vn 0.993273 0.000010 0.115800
vn 0.993273 0.000010 0.115800
vn 0.993273 0.000010 0.115800
vn 0.496659 -0.860191 0.115760
vn 0.496659 -0.860192 0.115760
vn 0.496659 -0.860191 0.115760
vn 0.496659 -0.860191 0.115760
vn -0.496666 -0.860188 0.115752
vn -0.496666 -0.860188 0.115752
vn -0.496666 -0.860188 0.115752
vn -0.496666 -0.860188 0.115752
vn -0.993274 0.000010 0.115791
vn -0.993274 0.000010 0.115791
vn -0.993274 0.000010 0.115791
vn -0.993274 0.000010 0.115791
vn -0.496644 0.860198 0.115777
vn -0.496644 0.860198 0.115777
vn -0.496644 0.860198 0.115777
vn -0.496644 0.860198 0.115777
vn 0.496643 0.860199 0.115773
vn 0.496643 0.860199 0.115773
vn 0.496643 0.860199 0.115773
vn 0.496643 0.860199 0.115773
vn 0.000000 0.000000 -1.000000
vn 0.000000 0.000000 -1.000000
vn 0.000000 0.000000 -1.000000
vn 0.000000 0.000000 -1.000000
vn 0.000000 0.000000 -1.000000
vn 0.000000 0.000000 -1.000000
vn 0.000000 0.000000 -1.000000
vn 0.000000 0.000000 -1.000000
vn 0.000000 0.000000 -1.000000
vn 0.000000 0.000000 -1.000000
vn 0.000000 0.000000 -1.000000
vn 0.000000 0.000000 -1.000000
vn 0.000080 0.000138 -1.000000
vn 0.000080 0.000138 -1.000000
vn 0.000080 0.000138 -1.000000
vn -0.000080 0.000138 -1.000000
vn -0.000080 0.000138 -1.000000
vn -0.000080 0.000138 -1.000000
vn 0.000218 -0.000000 1.000000
vn 0.000218 -0.000000 1.000000
vn 0.000218 -0.000000 1.000000
vn 0.000218 -0.000000 1.000000
vn 0.000218 -0.000000 1.000000
vn 0.000218 -0.000000 1.000000
vn -0.000218 0.000000 1.000000
vn -0.000218 0.000000 1.000000
vn -0.000218 0.000000 1.000000
vn -0.000218 0.000000 1.000000
vn -0.000218 0.000000 1.000000
vn -0.000218 0.000000 1.000000
vn -0.000109 0.000189 1.000000
vn -0.000109 0.000189 1.000000
vn -0.000109 0.000189 1.000000
vn 0.000109 0.000189 1.000000
vn 0.000109 0.000189 1.000000
vn 0.000109 0.000189 1.000000
s off
f 1/1/1 2/2/2 23/3/3 24/4/4
f 2/5/5 3/6/6 22/7/7 23/8/8
f 3/9/9 4/10/10 21/11/11 22/12/12
f 4/13/13 5/14/14 20/15/15 21/16/16
f 5/17/17 6/18/18 19/19/19 20/20/20
f 6/21/21 7/22/22 26/23/23 19/24/24
f 7/25/25 8/26/26 25/27/27 26/28/28
f 8/29/29 1/30/30 24/31/31 25/32/32
f 2/33/33 1/34/34 17/35/35
f 3/36/36 2/37/37 17/38/38
f 4/39/39 3/40/40 17/41/41
f 5/42/42 4/43/43 17/44/44
f 6/45/45 5/46/46 17/47/47
f 7/48/48 6/49/49 17/50/50
f 8/51/51 7/52/52 17/53/53
f 1/54/54 8/55/55 17/56/56
f 9/57/57 10/58/58 18/59/59
f 10/58/60 11/60/61 18/59/62
f 11/60/63 12/61/64 18/59/65
f 12/61/66 13/62/67 18/59/68
f 13/62/69 14/63/70 18/59/71
f 14/63/72 15/64/73 18/59/74
f 15/64/75 16/65/76 18/59/77
f 16/65/78 9/57/79 18/59/80
f 20/66/81 19/67/82 27/68/83 28/69/84
f 21/70/85 20/66/86 28/69/87 29/71/88
f 22/72/89 21/70/90 29/71/91 30/73/92
f 23/74/93 22/72/94 30/73/95 31/75/96
f 24/76/97 23/74/98 31/75/99 32/77/100
f 25/78/101 24/79/102 32/80/103 33/81/104
f 26/82/105 25/78/106 33/81/107 34/83/108
f 19/67/109 26/82/110 34/83/111 27/68/112
f 28/69/113 27/68/114 14/84/115 13/85/116
f 29/71/117 28/69/118 13/85/119 12/86/120
f 30/73/121 29/71/122 12/86/123 11/87/124
f 31/75/125 30/73/126 11/87/127 10/88/128
f 32/77/129 31/75/130 10/88/131 9/89/132
f 33/81/133 32/80/134 9/90/135 16/91/136
f 34/83/137 33/81/138 16/91/139 15/92/140
f 27/68/141 34/83/142 15/92/143 14/84/144
f 35/93/145 36/94/146 42/95/147 41/96/148
f 36/94/149 37/97/150 43/98/151 42/95/152
f 37/97/153 38/99/154 44/100/155 43/98/156
f 38/99/157 39/101/158 45/102/159 44/100/160
f 39/101/161 40/103/162 46/104/163 45/102/164
f 40/103/165 35/105/166 41/106/167 46/104/168
f 36/107/169 35/108/170 47/109/171
f 37/110/172 36/107/173 47/109/174
f 38/111/175 37/110/176 47/109/177
f 39/112/178 38/111/179 47/109/180
f 40/113/181 39/112/182 47/109/183
f 35/108/184 40/113/185 47/109/186
f 41/114/187 42/115/188 48/116/189
f 42/115/190 43/117/191 48/116/192
f 43/117/193 44/118/194 48/116/195
f 44/118/196 45/119/197 48/116/198
f 45/119/199 46/120/200 48/116/201
f 46/120/202 41/114/203 48/116/204
f 49/121/205 55/124/206 56/123/207 50/122/208
f 50/122/209 56/123/210 57/126/211 51/125/212
f 51/125/213 57/126/214 58/128/215 52/127/216
f 52/127/217 58/128/218 59/130/219 53/129/220
f 53/129/221 59/130/222 60/132/223 54/131/224
f 54/131/225 60/132/226 55/134/227 49/133/228
f 50/135/229 61/137/230 49/136/231
f 51/138/232 61/137/233 50/135/234
f 52/139/235 61/137/236 51/138/237
f 53/140/238 61/137/239 52/139/240
f 54/141/241 61/137/242 53/140/243
f 49/136/244 61/137/245 54/141/246
f 55/142/247 62/144/248 56/143/249
f 56/143/250 62/144/251 57/145/252
f 57/145/253 62/144/254 58/146/255
f 58/146/256 62/144/257 59/147/258
f 59/147/259 62/144/260 60/148/261
f 60/148/262 62/144/263 55/142/264
