# This file uses centimeters as units for non-parametric coordinates.

v 0.000000 -8.109989 3.147163
v 6.718521 -3.359289 3.147163
v 0.000000 -1.391459 3.147163
v 6.718521 3.359251 3.147163
v -6.718521 3.359251 3.147163
v 0.000000 8.109999 3.147163
v -6.718521 -3.359289 3.147163
v 0.000000 -8.109989 -3.147125
v 6.718521 -3.359289 -3.147125
v -6.718521 3.359251 -3.147125
v 0.000000 8.109999 -3.147125
v 6.718521 3.359251 -3.147125
v -6.718521 -3.359289 -3.147125
vt 0.401906 0.465912
vt 0.401906 0.465912
vt 0.401906 0.465912
vt 0.401906 0.465912
vt 0.082081 0.252916
vt 0.082081 0.252916
vt 0.082081 0.252916
vt 0.082081 0.252916
vt 0.402457 0.492748
vt 0.402457 0.492748
vt 0.402457 0.492748
vt 0.402457 0.492748
vt 0.079533 0.093412
vt 0.079533 0.093412
vt 0.079533 0.093412
vt 0.079533 0.093412
vt 0.079533 0.093413
vt 0.079533 0.093413
vt 0.079533 0.093413
vt 0.079533 0.093413
vt 0.079533 0.093413
vt 0.079533 0.093413
vt 0.079533 0.093412
vt 0.079533 0.093412
vn 0.000000 0.000000 1.000000
vn 0.000000 0.000000 1.000000
vn 0.000000 0.000000 1.000000
vn 0.000000 0.000000 1.000000
vn 0.000000 0.000000 1.000000
vn 0.000000 0.000000 1.000000
vn 0.000000 0.000000 1.000000
vn 0.000000 0.000000 1.000000
vn 0.000000 0.000000 1.000000
vn 0.000000 0.000000 1.000000
vn 0.000000 0.000000 1.000000
vn 0.000000 0.000000 1.000000
vn 0.577349 -0.816497 0.000000
vn 0.577349 -0.816497 0.000000
vn 0.577349 -0.816497 0.000000
vn 0.577349 -0.816497 0.000000
vn -0.577353 0.816495 0.000000
vn -0.577353 0.816495 0.000000
vn -0.577353 0.816495 0.000000
vn -0.577353 0.816495 0.000000
vn 1.000000 0.000000 0.000000
vn 1.000000 0.000000 0.000000
vn 1.000000 0.000000 0.000000
vn 1.000000 0.000000 0.000000
vn 0.577353 0.816495 0.000000
vn 0.577353 0.816495 0.000000
vn 0.577353 0.816495 0.000000
vn 0.577353 0.816495 0.000000
vn -1.000000 0.000000 0.000000
vn -1.000000 0.000000 0.000000
vn -1.000000 0.000000 0.000000
vn -1.000000 0.000000 0.000000
vn -0.577349 -0.816497 0.000000
vn -0.577349 -0.816497 0.000000
vn -0.577349 -0.816497 0.000000
vn -0.577349 -0.816497 0.000000
s off
f 1/1/1 2/2/2 4/3/3 3/4/4
f 3/5/5 4/6/6 6/7/7 5/8/8
f 7/9/9 1/10/10 3/11/11 5/12/12
f 2/13/13 1/14/14 8/15/15 9/16/16
f 5/17/17 6/18/18 11/19/19 10/20/20
f 4/21/21 2/13/22 9/16/23 12/22/24
f 6/18/25 4/21/26 12/22/27 11/19/28
f 7/23/29 5/17/30 10/20/31 13/24/32
f 1/14/33 7/23/34 13/24/35 8/15/36
