# This file uses centimeters as units for non-parametric coordinates.

v 252.745117 5.402962 -21.895720
v 252.745117 5.402962 21.530697
v 208.531494 5.402962 21.530697
v 208.531494 5.402962 -21.895720
v 252.745117 -16.822397 -21.895720
v 252.745117 -16.822397 21.530697
v 208.531494 -16.822397 21.530697
v 208.531494 -16.822397 -21.895720
v 252.745117 8.580138 -489.019012
v 252.745117 8.580138 -445.592621
v 208.531494 8.580138 -445.592621
v 208.531494 8.580138 -489.019012
v 252.745117 -16.822397 -489.019012
v 252.745117 -16.822397 -445.592621
v 208.531494 -16.822397 -445.592621
v 208.531494 -16.822397 -489.019012
v 21.777588 8.580138 -484.973877
v 21.777588 8.580138 -441.547485
v -22.436008 8.580138 -441.547485
v -22.436008 8.580138 -484.973877
v 21.777588 -16.822397 -484.973877
v 21.777588 -16.822397 -441.547485
v -22.436008 -16.822397 -441.547485
v -22.436008 -16.822397 -484.973877
v 21.777542 5.402946 -21.895445
v 21.777542 5.402946 21.530960
v -22.436054 5.402946 21.530960
v -22.436054 5.402946 -21.895445
v 21.777542 -16.822397 -21.895445
v 21.777542 -16.822397 21.530960
v -22.436054 -16.822397 21.530960
v -22.436054 -16.822397 -21.895445
vt 0.890496 0.016352
vt 0.876705 0.011267
vt 0.886689 0.004937
vt 0.900571 0.010192
vt 0.890632 0.013306
vt 0.876872 0.008190
vt 0.886837 0.001823
vt 0.900687 0.007109
vt 0.908163 0.105087
vt 0.918652 0.109023
vt 0.918730 0.119713
vt 0.907999 0.115992
vt 0.906707 0.106261
vt 0.917182 0.110145
vt 0.917226 0.120805
vt 0.906510 0.117135
vt 0.891819 0.019965
vt 0.879348 0.014832
vt 0.889304 0.005903
vt 0.901996 0.011398
vt 0.891568 0.017452
vt 0.879160 0.012296
vt 0.889054 0.003329
vt 0.901680 0.008847
vt 0.904532 0.100410
vt 0.912722 0.102136
vt 0.914396 0.114194
vt 0.906076 0.112745
vt 0.902735 0.101147
vt 0.910932 0.102846
vt 0.912561 0.114862
vt 0.904234 0.113437
vn 0.000000 1.000000 0.000000
vn 0.000000 1.000000 0.000000
vn 0.000000 1.000000 0.000000
vn 0.000000 1.000000 0.000000
vn 1.000000 0.000000 0.000000
vn 1.000000 0.000000 0.000000
vn 1.000000 0.000000 0.000000
vn 1.000000 0.000000 0.000000
vn 0.000000 0.000000 1.000000
vn 0.000000 0.000000 1.000000
vn 0.000000 0.000000 1.000000
vn 0.000000 0.000000 1.000000
vn -1.000000 0.000000 0.000000
vn -1.000000 0.000000 0.000000
vn -1.000000 0.000000 0.000000
vn -1.000000 0.000000 0.000000
vn 0.000000 0.000000 -1.000000
vn 0.000000 0.000000 -1.000000
vn 0.000000 0.000000 -1.000000
vn 0.000000 0.000000 -1.000000
vn 0.000000 1.000000 0.000000
vn 0.000000 1.000000 0.000000
vn 0.000000 1.000000 0.000000
vn 0.000000 1.000000 0.000000
vn 1.000000 0.000000 0.000000
vn 1.000000 0.000000 0.000000
vn 1.000000 0.000000 0.000000
vn 1.000000 0.000000 0.000000
vn 0.000000 0.000000 1.000000
vn 0.000000 0.000000 1.000000
vn 0.000000 0.000000 1.000000
vn 0.000000 0.000000 1.000000
vn -1.000000 0.000000 0.000000
vn -1.000000 0.000000 0.000000
vn -1.000000 0.000000 0.000000
vn -1.000000 0.000000 0.000000
vn 0.000000 0.000000 -1.000000
vn 0.000000 0.000000 -1.000000
vn 0.000000 0.000000 -1.000000
vn 0.000000 0.000000 -1.000000
vn 0.000000 1.000000 0.000000
vn 0.000000 1.000000 0.000000
vn 0.000000 1.000000 0.000000
vn 0.000000 1.000000 0.000000
vn 1.000000 0.000000 0.000000
vn 1.000000 0.000000 0.000000
vn 1.000000 0.000000 0.000000
vn 1.000000 0.000000 0.000000
vn 0.000000 0.000000 1.000000
vn 0.000000 0.000000 1.000000
vn 0.000000 0.000000 1.000000
vn 0.000000 0.000000 1.000000
vn -1.000000 0.000000 0.000000
vn -1.000000 0.000000 0.000000
vn -1.000000 0.000000 0.000000
vn -1.000000 0.000000 0.000000
vn 0.000000 0.000000 -1.000000
vn 0.000000 0.000000 -1.000000
vn 0.000000 0.000000 -1.000000
vn 0.000000 0.000000 -1.000000
vn 0.000000 1.000000 0.000000
vn 0.000000 1.000000 0.000000
vn 0.000000 1.000000 0.000000
vn 0.000000 1.000000 0.000000
vn 1.000000 0.000000 0.000000
vn 1.000000 0.000000 0.000000
vn 1.000000 0.000000 0.000000
vn 1.000000 0.000000 0.000000
vn 0.000000 0.000000 1.000000
vn 0.000000 0.000000 1.000000
vn 0.000000 0.000000 1.000000
vn 0.000000 0.000000 1.000000
vn -1.000000 0.000000 0.000000
vn -1.000000 0.000000 0.000000
vn -1.000000 0.000000 0.000000
vn -1.000000 0.000000 0.000000
vn 0.000000 0.000000 -1.000000
vn 0.000000 0.000000 -1.000000
vn 0.000000 0.000000 -1.000000
vn 0.000000 0.000000 -1.000000
s off
f 4/4/1 3/3/2 2/2/3 1/1/4
f 2/2/5 6/6/6 5/5/7 1/1/8
f 6/6/9 2/2/10 3/3/11 7/7/12
f 4/4/13 8/8/14 7/7/15 3/3/16
f 8/8/17 4/4/18 1/1/19 5/5/20
f 12/12/21 11/11/22 10/10/23 9/9/24
f 10/10/25 14/14/26 13/13/27 9/9/28
f 14/14/29 10/10/30 11/11/31 15/15/32
f 12/12/33 16/16/34 15/15/35 11/11/36
f 16/16/37 12/12/38 9/9/39 13/13/40
f 20/20/41 19/19/42 18/18/43 17/17/44
f 18/18/45 22/22/46 21/21/47 17/17/48
f 22/22/49 18/18/50 19/19/51 23/23/52
f 20/20/53 24/24/54 23/23/55 19/19/56
f 24/24/57 20/20/58 17/17/59 21/21/60
f 28/28/61 27/27/62 26/26/63 25/25/64
f 26/26/65 30/30/66 29/29/67 25/25/68
f 30/30/69 26/26/70 27/27/71 31/31/72
f 28/28/73 32/32/74 31/31/75 27/27/76
f 32/32/77 28/28/78 25/25/79 29/29/80
