# This file uses centimeters as units for non-parametric coordinates.

v -435.595825 124.416687 -11.580286
v -435.595764 124.416687 -483.855957
v -426.292694 0.000000 -478.799774
v -426.292694 0.000000 -11.963643
v -16.027428 124.416687 -12.217860
v -9.226456 124.416687 -481.436035
v -13.022552 0.000000 -478.799774
v -30.429916 0.000000 -11.963643
v -443.264191 118.852455 -6.987849
v -429.259003 112.229973 0.000000
v -27.594223 112.229973 0.000000
v 0.000000 112.229973 -8.548334
v 0.000046 112.229973 -482.226715
v -27.594200 116.472221 -489.971710
v -426.232025 112.698410 -489.687317
v -447.811920 118.852455 -482.226715
v -447.811981 6.474355 -8.548326
v -429.259003 8.482354 0.000000
v -27.594223 8.482354 0.000000
v 0.000000 8.482354 -8.548326
v 0.000046 8.482354 -482.226715
v -13.170761 6.105296 -489.971710
v -429.258942 6.105296 -489.971741
v -447.811920 6.474355 -482.226715
v -447.811920 12.359379 -403.912994
v -426.292694 0.000000 -403.907196
v -427.164307 124.416687 -220.590851
v -33.704712 124.416687 -190.838791
v 0.000000 112.229973 -225.625671
v 0.000000 8.482354 -225.625671
v -30.429901 0.000000 -228.525314
v -447.811920 116.199059 -339.427826
v -429.258942 29.435118 -489.971741
v -424.121460 65.921593 -489.971771
v -429.258942 83.320816 -489.971771
v -437.020782 60.384918 -486.731506
v -447.811920 117.525757 -173.988083
v -438.531219 120.623100 -194.935150
v -429.178009 124.416687 -170.672363
v -409.044159 124.416687 -195.631607
v -447.811981 118.778915 -17.718204
v -447.811981 70.248024 -8.548331
v -441.134857 121.893768 -10.205544
v -12.592834 55.645226 -489.971710
v -318.190155 110.552002 -489.764404
v -245.054810 124.416687 -482.774536
v -376.748657 121.765663 -483.521973
v -320.423126 124.416687 -474.475464
v -447.811920 44.185463 -482.226685
v -447.811920 33.538689 -419.487976
v -447.811920 64.279221 -371.670410
v -429.259003 50.390949 0.000000
v -27.594223 42.989937 0.000000
v 0.000000 60.356163 -8.548330
v 0.000000 31.251152 -225.625671
v 0.000046 49.025875 -482.226715
v -134.860580 26.162367 -489.971741
v -447.811981 38.066959 -154.703308
v -447.811920 42.650711 -239.954147
v -157.841660 30.215965 0.000000
v 0.000031 62.502724 -392.015503
v 0.000023 112.229965 -326.108734
vt 0.103165 0.326239
vt 0.103175 0.326226
vt 0.103197 0.326211
vt 0.101530 0.325880
vt 0.101580 0.325887
vt 0.101560 0.325916
vt 0.102687 0.326621
vt 0.102741 0.326577
vt 0.101348 0.326090
vt 0.102100 0.326483
vt 0.101085 0.326306
vt 0.101077 0.326256
vt 0.101407 0.325971
vt 0.101098 0.299878
vt 0.101567 0.299502
vt 0.101532 0.299513
vt 0.101060 0.299892
vt 0.103153 0.299821
vt 0.101821 0.299553
vt 0.101968 0.300034
vt 0.102704 0.300182
vt 0.102681 0.326596
vt 0.101943 0.326447
vt 0.101072 0.326272
vt 0.101072 0.299917
vt 0.101943 0.300093
vt 0.103189 0.326216
vt 0.103189 0.326042
vt 0.103189 0.299827
vt 0.103197 0.299856
vt 0.102741 0.300222
vt 0.102681 0.300242
vt 0.101060 0.326058
vt 0.101532 0.325587
vt 0.101526 0.325719
vt 0.101552 0.325690
vt 0.101532 0.325775
vt 0.101580 0.299502
vt 0.101846 0.299576
vt 0.102445 0.326104
vt 0.102065 0.325975
vt 0.103158 0.326204
vt 0.102509 0.326138
vt 0.102545 0.326098
vt 0.102617 0.326136
vt 0.102627 0.326093
vt 0.101495 0.325961
vt 0.101462 0.326027
vt 0.101580 0.325627
vt 0.101793 0.325633
vt 0.101955 0.325772
vt 0.103197 0.325996
vt 0.102741 0.326336
vt 0.102681 0.326416
vt 0.101943 0.326197
vt 0.101072 0.326052
vt 0.101198 0.325836
vt 0.102692 0.325933
vt 0.102403 0.325870
vt 0.102953 0.326178
vt 0.101378 0.326103
vt 0.101602 0.326379
vn -0.111765 0.653367 0.748745
vn -0.111765 0.653367 0.748745
vn -0.111765 0.653367 0.748745
vn -0.245943 0.267141 -0.931745
vn -0.245943 0.267141 -0.931745
vn -0.245943 0.267141 -0.931744
vn 0.000556 0.698551 0.715560
vn 0.000556 0.698551 0.715560
vn 0.000556 0.698552 0.715560
vn 0.000556 0.698551 0.715560
vn 0.000000 1.000000 0.000000
vn 0.000000 1.000000 0.000000
vn 0.000000 1.000000 0.000000
vn -0.004947 0.593625 -0.804727
vn -0.004947 0.593625 -0.804727
vn -0.004947 0.593625 -0.804727
vn -0.004947 0.593625 -0.804726
vn 0.000000 -0.877515 -0.479548
vn 0.000000 -0.877515 -0.479548
vn 0.000000 -0.877515 -0.479548
vn 0.000000 -0.877515 -0.479548
vn 0.000000 -1.000000 0.000000
vn 0.000000 -1.000000 0.000000
vn 0.000000 -1.000000 0.000000
vn 0.000000 -1.000000 0.000000
vn 0.245063 0.560494 0.791070
vn 0.245063 0.560494 0.791070
vn 0.245063 0.560494 0.791070
vn 0.340029 0.940415 -0.000000
vn 0.340029 0.940415 -0.000000
vn 0.340029 0.940415 -0.000000
vn 0.299437 0.285762 -0.910317
vn 0.299437 0.285762 -0.910317
vn 0.299437 0.285762 -0.910317
vn 0.404711 -0.800169 -0.442650
vn 0.404711 -0.800169 -0.442650
vn 0.404711 -0.800169 -0.442649
vn 0.363788 -0.931398 0.012493
vn 0.363788 -0.931398 0.012493
vn 0.363788 -0.931398 0.012493
vn 0.363788 -0.931398 0.012493
vn -0.427457 0.004828 0.904023
vn -0.427457 0.004828 0.904023
vn -0.427457 0.004828 0.904023
vn -0.427457 0.004828 0.904023
vn 0.000000 0.000000 1.000000
vn 0.000000 0.000000 1.000000
vn 0.000000 0.000000 1.000000
vn 0.295913 0.000000 0.955215
vn 0.295913 0.000000 0.955215
vn 0.295913 0.000000 0.955215
vn 0.295913 0.000000 0.955215
vn 1.000000 -0.000000 0.000000
vn 1.000000 -0.000000 0.000000
vn 1.000000 -0.000000 0.000000
vn 1.000000 -0.000000 0.000000
vn 0.523875 0.000000 -0.851795
vn 0.523875 0.000000 -0.851795
vn 0.523875 0.000000 -0.851795
vn -0.000000 -0.000001 -1.000000
vn -0.000000 -0.000001 -1.000000
vn -0.000000 -0.000001 -1.000000
vn -0.000000 -0.000001 -1.000000
vn -0.352554 0.019846 -0.935581
vn -0.352554 0.019846 -0.935581
vn -0.352554 0.019846 -0.935581
vn -0.352554 0.019846 -0.935581
vn -1.000000 -0.000000 0.000000
vn -1.000000 -0.000000 0.000000
vn -1.000000 -0.000000 0.000000
vn -0.161449 -0.823509 0.543845
vn -0.161449 -0.823509 0.543845
vn -0.161449 -0.823509 0.543845
vn 0.000000 -0.815764 0.578385
vn 0.000000 -0.815764 0.578385
vn 0.000000 -0.815764 0.578385
vn 0.000000 -0.815764 0.578385
vn 0.168300 -0.822511 0.543278
vn 0.168300 -0.822511 0.543278
vn 0.168300 -0.822511 0.543278
vn -0.196796 -0.881402 -0.429420
vn -0.196796 -0.881402 -0.429420
vn -0.196796 -0.881402 -0.429420
vn -0.401343 -0.915902 -0.006846
vn -0.401343 -0.915902 -0.006846
vn -0.401343 -0.915902 -0.006846
vn -0.401343 -0.915902 -0.006846
vn -0.431270 0.902101 0.014850
vn -0.431269 0.902101 0.014850
vn -0.431269 0.902101 0.014850
vn -0.431269 0.902101 0.014850
vn -0.403001 -0.914525 0.035129
vn -0.403001 -0.914525 0.035129
vn -0.403001 -0.914525 0.035129
vn -0.403001 -0.914525 0.035129
vn -0.918414 0.073452 0.388743
vn -0.918414 0.073452 0.388743
vn -0.918414 0.073452 0.388743
vn -0.129328 0.986099 -0.104324
vn -0.129328 0.986099 -0.104324
vn -0.129328 0.986099 -0.104324
vn 0.000000 1.000000 -0.000001
vn 0.000000 1.000000 -0.000001
vn 0.000000 1.000000 -0.000001
vn 0.430279 0.902492 -0.019222
vn 0.430279 0.902492 -0.019222
vn 0.430278 0.902492 -0.019222
vn 0.430279 0.902492 -0.019222
vn 1.000000 0.000000 0.000000
vn 1.000000 0.000000 0.000000
vn 1.000000 0.000000 0.000000
vn 1.000000 0.000000 0.000000
vn 0.268514 -0.963276 0.000000
vn 0.268514 -0.963276 0.000000
vn 0.268514 -0.963276 0.000000
vn 0.268514 -0.963276 0.000000
vn 0.000000 -1.000000 0.000000
vn 0.000000 -1.000000 0.000000
vn 0.000000 -1.000000 0.000000
vn 0.000000 -1.000000 0.000000
vn -1.000000 0.000000 0.000000
vn -1.000000 0.000000 0.000000
vn -1.000000 0.000000 0.000000
vn -1.000000 0.000000 0.000000
vn -0.385234 0.000001 -0.922819
vn -0.385234 0.000001 -0.922819
vn -0.385234 0.000001 -0.922819
vn -0.385234 0.000001 -0.922819
vn -0.217148 -0.064119 -0.974031
vn -0.217148 -0.064119 -0.974031
vn -0.217148 -0.064119 -0.974031
vn -0.258098 0.036343 -0.965435
vn -0.258098 0.036343 -0.965435
vn -0.258098 0.036343 -0.965435
vn -0.385234 -0.000000 -0.922819
vn -0.385234 -0.000000 -0.922819
vn -0.385234 -0.000000 -0.922819
vn 0.000000 0.000000 -1.000000
vn 0.000000 0.000000 -1.000000
vn 0.000000 0.000000 -1.000000
vn 0.000000 0.000000 -1.000000
vn 0.000371 0.006098 -0.999981
vn 0.000371 0.006098 -0.999981
vn 0.000371 0.006098 -0.999981
vn 0.000371 0.006098 -0.999981
vn -0.331886 0.943289 -0.007564
vn -0.331886 0.943289 -0.007564
vn -0.331886 0.943289 -0.007564
vn -0.331886 0.943289 -0.007564
vn -0.371482 0.928370 -0.011448
vn -0.371482 0.928370 -0.011448
vn -0.371482 0.928369 -0.011448
vn -0.371482 0.928369 -0.011448
vn -0.371482 0.928370 -0.011448
vn -0.371482 0.928370 -0.011448
vn -0.124966 0.988004 0.090724
vn -0.124966 0.988004 0.090724
vn -0.124966 0.988004 0.090724
vn 0.000000 1.000000 0.000000
vn 0.000000 1.000000 0.000000
vn 0.000000 1.000000 0.000000
vn 0.000000 1.000000 0.000000
vn 0.000000 1.000000 0.000000
vn 0.000000 1.000000 0.000000
vn 0.000000 1.000000 0.000000
vn -1.000000 0.000000 -0.000001
vn -1.000000 0.000000 -0.000001
vn -1.000000 0.000000 -0.000001
vn -0.635866 0.725052 0.264526
vn -0.635866 0.725052 0.264526
vn -0.635866 0.725052 0.264526
vn 0.000690 0.726519 0.687147
vn 0.000690 0.726519 0.687147
vn 0.000690 0.726519 0.687147
vn 0.507679 -0.005923 -0.861526
vn 0.507679 -0.005923 -0.861526
vn 0.507679 -0.005923 -0.861526
vn 0.279396 0.068905 -0.957700
vn 0.279396 0.068905 -0.957700
vn 0.279396 0.068905 -0.957700
vn -0.000849 0.006662 -0.999978
vn -0.000849 0.006662 -0.999977
vn -0.000849 0.006662 -0.999977
vn 0.015761 0.501973 -0.864740
vn 0.015761 0.501973 -0.864740
vn 0.015761 0.501973 -0.864740
vn 0.015761 0.501973 -0.864740
vn -0.005688 0.999981 -0.002391
vn -0.005688 0.999981 -0.002391
vn -0.005688 0.999981 -0.002391
vn -0.005688 0.999981 -0.002391
vn -0.074419 0.733281 -0.675841
vn -0.074419 0.733281 -0.675841
vn -0.074419 0.733281 -0.675841
vn 0.071669 0.744049 -0.664270
vn 0.071669 0.744049 -0.664270
vn 0.071669 0.744049 -0.664270
vn 0.045012 0.998985 -0.001442
vn 0.045012 0.998985 -0.001442
vn 0.045012 0.998985 -0.001442
vn 0.000000 1.000000 0.000000
vn 0.000000 1.000000 0.000000
vn 0.000000 1.000000 0.000000
vn -0.385245 0.000001 -0.922814
vn -0.385245 0.000001 -0.922814
vn -0.385245 0.000001 -0.922814
vn -1.000000 0.000000 0.000000
vn -1.000000 0.000000 0.000000
vn -1.000000 0.000000 0.000000
vn -1.000000 0.000000 0.000000
vn -1.000000 0.000000 0.000000
vn -1.000000 0.000000 0.000000
vn -1.000000 0.000000 0.000000
vn -1.000000 -0.000002 -0.000000
vn -1.000000 -0.000002 -0.000000
vn -1.000000 -0.000002 -0.000000
vn -1.000000 -0.000002 -0.000000
vn -0.418469 0.000000 0.908231
vn -0.418469 0.000000 0.908231
vn -0.418469 0.000000 0.908231
vn -0.418469 0.000000 0.908231
vn 0.000000 0.000000 1.000000
vn 0.000000 0.000000 1.000000
vn 0.000000 0.000000 1.000000
vn 0.295913 0.000000 0.955215
vn 0.295913 0.000000 0.955215
vn 0.295913 0.000000 0.955215
vn 0.295913 0.000000 0.955215
vn 1.000000 0.000000 0.000000
vn 1.000000 0.000000 0.000000
vn 1.000000 0.000000 0.000000
vn 1.000000 0.000000 0.000000
vn 1.000000 0.000000 0.000000
vn 1.000000 0.000000 0.000000
vn 1.000000 0.000000 0.000000
vn 0.523881 0.000000 -0.851791
vn 0.523881 0.000000 -0.851791
vn 0.523881 0.000000 -0.851792
vn 0.000001 -0.000000 -1.000000
vn 0.000001 -0.000000 -1.000000
vn 0.000001 -0.000000 -1.000000
vn 0.000000 -0.000001 -1.000000
vn 0.000000 -0.000001 -1.000000
vn 0.000000 -0.000001 -1.000000
vn -1.000000 -0.000000 0.000000
vn -1.000000 -0.000000 0.000000
vn -1.000000 -0.000000 0.000000
vn -1.000000 0.000001 -0.000000
vn -1.000000 0.000001 -0.000000
vn -1.000000 0.000001 -0.000000
vn -1.000000 0.000001 -0.000000
vn -1.000000 0.000000 0.000000
vn -1.000000 0.000000 0.000000
vn -1.000000 0.000000 0.000000
vn -1.000000 0.000000 0.000000
vn -1.000000 0.000000 0.000000
vn -1.000000 0.000000 0.000000
vn -1.000000 0.000000 0.000000
vn 0.000000 0.000000 1.000000
vn 0.000000 0.000000 1.000000
vn 0.000000 0.000000 1.000000
vn 0.000000 0.000000 1.000000
vn 0.000000 0.000000 1.000000
vn 0.000000 0.000000 1.000000
vn 0.000000 0.000000 1.000000
vn 0.000000 0.000000 1.000000
vn 0.000000 0.000000 1.000000
vn 0.000000 0.000000 1.000000
vn 0.000000 0.000000 1.000000
vn 0.000000 0.000000 1.000000
vn 1.000000 -0.000000 0.000000
vn 1.000000 -0.000000 0.000000
vn 1.000000 -0.000000 0.000000
vn 1.000000 -0.000000 0.000000
vn 1.000000 -0.000000 0.000000
vn 1.000000 -0.000000 0.000000
vn 1.000000 -0.000000 0.000000
vn 1.000000 -0.000000 0.000000
vn 0.566003 0.823820 0.031015
vn 0.566003 0.823820 0.031015
vn 0.566003 0.823820 0.031015
vn 0.566003 0.823820 0.031015
s off
f 1/1/1 43/2/2 10/3/3
f 15/4/4 16/5/5 2/6/6
f 5/7/7 1/1/8 10/3/9 11/8/10
f 46/9/11 28/10/12 6/11/13
f 6/11/14 14/12/15 45/13/16 46/9/17
f 7/14/18 3/15/19 23/16/20 22/17/21
f 4/18/22 26/19/23 31/20/24 8/21/25
f 5/7/26 11/8/27 12/22/28
f 62/62/29 28/10/30 29/23/31
f 13/24/32 14/12/33 6/11/34
f 21/25/35 7/14/36 22/17/37
f 30/26/38 31/20/39 7/14/40 21/25/41
f 10/3/42 9/27/43 42/28/44 52/52/45
f 11/8/46 10/3/47 60/60/48
f 12/22/49 11/8/50 53/53/51 54/54/52
f 61/61/53 62/62/54 29/23/55 55/55/56
f 56/56/57 44/33/58 13/24/59
f 23/16/60 33/34/61 34/35/62 57/57/63
f 36/36/64 16/5/65 15/4/66 35/37/67
f 49/49/68 50/50/69 16/5/70
f 4/18/71 18/30/72 17/29/73
f 8/21/74 19/31/75 18/30/76 4/18/77
f 8/21/78 20/32/79 19/31/80
f 3/15/81 24/38/82 23/16/83
f 4/18/84 17/29/85 25/39/86 26/19/87
f 27/40/88 2/6/89 16/5/90 32/41/91
f 26/19/92 25/39/93 24/38/94 3/15/95
f 41/42/96 42/28/97 9/27/98
f 40/43/99 38/44/100 39/45/101
f 28/10/102 27/40/103 40/43/104
f 29/23/105 28/10/106 5/7/107 12/22/108
f 54/54/109 55/55/110 29/23/111 12/22/112
f 8/21/113 31/20/114 30/26/115 20/32/116
f 31/20/117 26/19/118 3/15/119 7/14/120
f 16/5/121 50/50/122 51/51/123 32/41/124
f 23/16/125 24/38/126 36/36/127 33/34/128
f 34/35/129 36/36/130 35/37/131
f 33/34/132 36/36/133 34/35/134
f 36/36/135 49/49/136 16/5/137
f 44/33/138 57/57/139 34/35/140 14/12/141
f 15/4/142 45/13/143 34/35/144 35/37/145
f 27/40/146 32/41/147 37/46/148 38/44/149
f 39/45/150 38/44/151 37/46/152 41/42/153 43/2/154 1/1/155
f 27/40/156 38/44/157 40/43/158
f 28/10/159 40/43/160 5/7/161
f 5/7/162 40/43/163 39/45/164 1/1/165
f 37/46/166 59/59/167 58/58/168
f 43/2/169 41/42/170 9/27/171
f 10/3/172 43/2/173 9/27/174
f 21/25/175 22/17/176 44/33/177
f 13/24/178 44/33/179 14/12/180
f 34/35/181 45/13/182 14/12/183
f 47/47/184 45/13/185 15/4/186 2/6/187
f 47/47/188 27/40/189 28/10/190 48/48/191
f 45/13/192 48/48/193 46/9/194
f 47/47/195 48/48/196 45/13/197
f 2/6/198 27/40/199 47/47/200
f 46/9/201 48/48/202 28/10/203
f 24/38/204 49/49/205 36/36/206
f 24/38/207 25/39/208 50/50/209 49/49/210
f 51/51/211 50/50/212 25/39/213
f 17/29/214 58/58/215 59/59/216 25/39/217
f 52/52/218 42/28/219 17/29/220 18/30/221
f 53/53/222 60/60/223 19/31/224
f 54/54/225 53/53/226 19/31/227 20/32/228
f 30/26/229 55/55/230 54/54/231 20/32/232
f 56/56/233 61/61/234 21/25/235
f 21/25/236 44/33/237 56/56/238
f 22/17/239 57/57/240 44/33/241
f 23/16/242 57/57/243 22/17/244
f 42/28/245 58/58/246 17/29/247
f 37/46/248 58/58/249 42/28/250 41/42/251
f 32/41/252 51/51/253 59/59/254 37/46/255
f 25/39/256 59/59/257 51/51/258
f 60/60/259 10/3/260 52/52/261
f 18/30/262 60/60/263 52/52/264
f 11/8/265 60/60/266 53/53/267
f 19/31/268 60/60/269 18/30/270
f 21/25/271 61/61/272 55/55/273 30/26/274
f 13/24/275 62/62/276 61/61/277 56/56/278
f 6/11/279 28/10/280 62/62/281 13/24/282
