# This file uses centimeters as units for non-parametric coordinates.

v -40.558357 -2.296495 -60.837101
v -19.894226 1.050449 -71.328751
v 16.733383 80.931076 78.554108
v 37.397579 84.278000 68.062485
v 23.174534 92.715729 68.870354
v -34.117203 9.488176 -70.520859
v -37.309738 -2.056903 -58.384705
v -20.044563 0.376015 -66.933502
v 35.129044 80.526543 67.304214
v 17.863861 78.093620 75.853004
v -32.078121 7.514812 -66.250046
v 23.095465 87.665344 67.987701
v -51.285698 5.981384 44.942390
v -31.776627 5.157778 57.865242
v 20.606842 125.507820 -55.973217
v 40.115936 124.684227 -43.050339
v 34.605980 116.679932 -56.456100
v -37.286560 -2.846523 44.459476
v -49.108513 9.423114 45.140629
v -33.076420 9.025028 56.090397
v 36.158165 124.132423 -41.094173
v 20.126020 124.530487 -52.044033
v -37.738148 2.252932 44.748371
v 31.496441 117.360321 -52.436199
v 84.384651 14.853047 -13.356276
v 72.893661 -5.116190 -17.536167
v -65.315781 99.621887 -6.791409
v -76.806816 79.652649 -10.971270
v -71.709480 87.600899 2.629700
v 77.990829 2.832067 -3.935225
v 80.832611 15.196475 -15.328741
v 71.327011 -1.291855 -19.183886
v -72.838730 80.342964 -12.861708
v -63.333065 96.831299 -9.006533
v 75.639458 5.432828 -7.676753
v -68.526299 87.067657 -1.354545
v -9.990656 70.094261 -10.690397
v -10.337484 68.616966 -12.810745
v -5.827116 52.432529 -7.156493
v -10.042967 43.836048 -15.691172
v -11.688458 41.820377 -13.896629
v -8.742599 51.947510 -0.129160
v -18.480341 55.672924 1.135609
v -17.436352 57.230137 2.935608
v -8.576436 54.536888 4.987722
v -2.366993 61.160358 12.006781
v 0.077989 59.176151 12.186634
v -6.540695 48.264896 1.308822
v -11.610001 39.711525 7.122594
v -9.363872 38.479218 7.116923
v -5.126151 42.573147 -2.406603
v 5.891601 41.077419 0.775021
v 7.056344 43.226902 -1.168854
v -6.792170 49.181747 -4.046896
vt 0.936449 0.060115
vt 0.937406 0.057785
vt 0.947949 0.075008
vt 0.945711 0.076932
vt 0.926971 0.044089
vt 0.929209 0.042165
vt 0.899396 0.072015
vt 0.900178 0.066959
vt 0.902151 0.070439
vt 0.898732 0.071738
vt 0.899301 0.067514
vt 0.925244 0.047282
vt 0.928570 0.047479
vt 0.921476 0.064418
vt 0.918237 0.065122
vt 0.915174 0.081583
vt 0.911849 0.081385
vt 0.901818 0.072155
vt 0.903791 0.068675
vt 0.904574 0.073730
vt 0.957963 0.066210
vt 0.960539 0.066989
vt 0.967375 0.083266
vt 0.964561 0.083433
vt 0.951661 0.050590
vt 0.954475 0.050423
vt 0.918175 0.058235
vt 0.915961 0.055502
vt 0.925599 0.038025
vt 0.928354 0.040395
vt 0.908894 0.074498
vt 0.906139 0.072129
vt 0.951661 0.031085
vt 0.956493 0.028518
vt 0.956457 0.029593
vt 0.952421 0.031685
vt 0.958955 0.047711
vt 0.958430 0.047712
vt 0.965057 0.065189
vt 0.965321 0.064528
vt 0.961178 0.061151
vt 0.961680 0.060676
vt 0.971278 0.077614
vt 0.970401 0.077429
vt 0.951819 0.043510
vt 0.951661 0.044586
vt 0.901818 0.083181
vt 0.902387 0.078957
vt 0.904056 0.081901
vt 0.928486 0.078435
vt 0.929055 0.082659
vt 0.926817 0.081379
vt 0.935920 0.079710
vt 0.937991 0.079051
vt 0.947361 0.094421
vt 0.944702 0.096176
vt 0.928514 0.068013
vt 0.931173 0.066259
vt 0.902828 0.076940
vt 0.899807 0.072166
vt 0.902941 0.073515
vt 0.901910 0.077057
vt 0.899349 0.073135
vt 0.957250 0.091833
vt 0.954116 0.093791
vt 0.941201 0.077764
vt 0.943744 0.075094
vt 0.930520 0.064547
vt 0.933655 0.062589
vt 0.974191 0.077794
vt 0.977325 0.076446
vt 0.974303 0.081219
vt 0.919411 0.084864
vt 0.921053 0.086484
vt 0.908637 0.101891
vt 0.905985 0.100234
vt 0.928708 0.072072
vt 0.931360 0.073729
vt 0.924625 0.073999
vt 0.921834 0.072186
vt 0.930973 0.055100
vt 0.934246 0.057260
vt 0.917436 0.086504
vt 0.914163 0.084344
vt 0.928823 0.077990
vt 0.933384 0.077788
vt 0.933080 0.078734
vt 0.929332 0.078832
vt 0.940832 0.091004
vt 0.940261 0.091490
vt 0.950194 0.107032
vt 0.949268 0.106897
vt 0.953667 0.101582
vt 0.967020 0.084496
vt 0.967441 0.084877
vt 0.954586 0.101343
vt 0.977263 0.072338
vt 0.977309 0.073180
vt 0.928297 0.085728
vt 0.925737 0.081806
vt 0.928389 0.082946
vt 0.934407 0.081815
vt 0.931846 0.085738
vt 0.931755 0.082956
vt 0.911039 0.056018
vt 0.914823 0.054914
vt 0.906725 0.070254
vt 0.904442 0.068984
vt 0.923529 0.033712
vt 0.925812 0.034982
vt 0.899709 0.081362
vt 0.898732 0.076476
vt 0.901912 0.078421
vt 0.951284 0.065065
vt 0.948104 0.066312
vt 0.947420 0.050380
vt 0.950639 0.049659
vt 0.946569 0.029686
vt 0.949749 0.028439
vt 0.902281 0.077865
vt 0.905461 0.075920
vt 0.904484 0.080806
vt 0.967986 0.048713
vt 0.969981 0.049745
vt 0.969320 0.065108
vt 0.966629 0.064053
vt 0.968108 0.028781
vt 0.970798 0.029836
vt 0.935060 0.051413
vt 0.939303 0.051718
vt 0.946207 0.065254
vt 0.943396 0.066818
vt 0.923576 0.030192
vt 0.926387 0.028628
vt 0.918552 0.028692
vt 0.923221 0.031504
vt 0.922327 0.031887
vt 0.918472 0.029561
vt 0.912247 0.052198
vt 0.911776 0.051795
vt 0.903401 0.068130
vt 0.903240 0.067159
vt 0.898732 0.065318
vt 0.899385 0.064833
vt 0.965549 0.065290
vt 0.966461 0.051754
vt 0.966957 0.051839
vt 0.966067 0.064805
vt 0.967084 0.028664
vt 0.967545 0.029533
vt 0.972932 0.084604
vt 0.972030 0.080570
vt 0.974721 0.082215
vt 0.932131 0.079229
vt 0.931229 0.083263
vt 0.929440 0.080874
vn 0.828339 -0.560122 0.010891
vn 0.828339 -0.560122 0.010891
vn 0.828339 -0.560122 0.010891
vn 0.828339 -0.560122 0.010891
vn 0.332780 0.483431 0.809662
vn 0.332780 0.483431 0.809662
vn 0.332780 0.483431 0.809662
vn 0.402898 0.701217 -0.588190
vn 0.402898 0.701217 -0.588190
vn 0.402898 0.701217 -0.588190
vn 0.402898 0.701217 -0.588190
vn -0.332784 -0.483429 -0.809662
vn -0.332784 -0.483429 -0.809662
vn -0.332784 -0.483429 -0.809662
vn -0.338005 -0.730782 0.593052
vn -0.338005 -0.730782 0.593052
vn -0.338005 -0.730782 0.593052
vn -0.338005 -0.730782 0.593052
vn -0.861074 0.505938 0.050775
vn -0.861075 0.505938 0.050775
vn -0.861074 0.505938 0.050775
vn -0.861074 0.505938 0.050775
vn 0.097173 -0.989520 -0.106803
vn 0.097173 -0.989520 -0.106803
vn 0.097173 -0.989520 -0.106803
vn 0.097173 -0.989520 -0.106803
vn 0.451585 -0.474657 0.755495
vn 0.451585 -0.474657 0.755495
vn 0.451585 -0.474657 0.755495
vn 0.451585 -0.474657 0.755495
vn -0.402898 -0.714609 0.571845
vn -0.402898 -0.714609 0.571845
vn -0.402898 -0.714609 0.571845
vn -0.402898 -0.714609 0.571845
vn 0.855784 -0.512331 -0.071772
vn 0.855784 -0.512331 -0.071772
vn 0.855784 -0.512331 -0.071772
vn 0.855784 -0.512331 -0.071772
vn 0.332778 0.483434 0.809661
vn 0.332778 0.483434 0.809661
vn 0.332778 0.483434 0.809661
vn -0.332778 -0.483432 -0.809662
vn -0.332778 -0.483432 -0.809662
vn -0.332778 -0.483432 -0.809662
vn 0.209721 0.564502 0.798345
vn 0.209721 0.564502 0.798345
vn 0.209721 0.564502 0.798345
vn 0.209721 0.564502 0.798345
vn 0.417591 0.694276 -0.586172
vn 0.417591 0.694276 -0.586172
vn 0.417591 0.694276 -0.586172
vn 0.849788 -0.526939 -0.013978
vn 0.849788 -0.526939 -0.013978
vn 0.849788 -0.526939 -0.013978
vn 0.849788 -0.526939 -0.013978
vn -0.417592 -0.694275 0.586173
vn -0.417592 -0.694275 0.586173
vn -0.417592 -0.694275 0.586173
vn -0.818203 0.570903 0.067930
vn -0.818203 0.570903 0.067930
vn -0.818203 0.570903 0.067930
vn -0.818203 0.570903 0.067930
vn -0.316794 -0.490632 -0.811740
vn -0.316794 -0.490632 -0.811740
vn -0.316794 -0.490632 -0.811740
vn -0.316794 -0.490632 -0.811740
vn -0.535749 0.239003 0.809846
vn -0.535749 0.239003 0.809846
vn -0.535749 0.239003 0.809846
vn -0.535749 0.239003 0.809846
vn -0.091015 0.978407 0.185569
vn -0.091015 0.978407 0.185569
vn -0.091015 0.978407 0.185569
vn -0.091015 0.978407 0.185569
vn -0.860632 0.508146 0.033167
vn -0.860632 0.508146 0.033167
vn -0.860632 0.508146 0.033167
vn -0.860632 0.508146 0.033167
vn 0.332635 0.480732 0.811326
vn 0.332635 0.480732 0.811326
vn 0.332635 0.480732 0.811326
vn 0.332635 0.480732 0.811326
vn 0.417590 0.694276 -0.586173
vn 0.417590 0.694276 -0.586173
vn 0.417590 0.694276 -0.586173
vn -0.417591 -0.694276 0.586172
vn -0.417591 -0.694276 0.586173
vn -0.417591 -0.694276 0.586173
vn -0.303419 -0.428457 -0.851094
vn -0.303419 -0.428457 -0.851094
vn -0.303419 -0.428457 -0.851094
vn -0.303419 -0.428457 -0.851094
vn -0.869542 0.492383 0.038140
vn -0.869542 0.492383 0.038140
vn -0.869542 0.492383 0.038140
vn -0.384003 -0.714550 0.584774
vn -0.384003 -0.714550 0.584774
vn -0.384003 -0.714549 0.584774
vn -0.384003 -0.714550 0.584774
vn 0.869543 -0.492384 -0.038130
vn 0.869543 -0.492384 -0.038130
vn 0.869543 -0.492384 -0.038130
vn 0.336554 0.673528 -0.658097
vn 0.336554 0.673528 -0.658097
vn 0.336554 0.673528 -0.658097
vn 0.336554 0.673528 -0.658097
vn 0.313958 0.486498 0.815322
vn 0.313958 0.486498 0.815322
vn 0.313958 0.486498 0.815322
vn 0.313958 0.486498 0.815322
vn 0.513744 -0.108303 -0.851080
vn 0.513744 -0.108303 -0.851080
vn 0.513744 -0.108303 -0.851080
vn 0.513744 -0.108303 -0.851080
vn -0.412309 0.416083 -0.810479
vn -0.412309 0.416083 -0.810479
vn -0.412310 0.416083 -0.810479
vn -0.412310 0.416083 -0.810479
vn 0.347566 0.730447 -0.587916
vn 0.347566 0.730447 -0.587916
vn 0.347566 0.730447 -0.587916
vn 0.347566 0.730447 -0.587916
vn -0.312289 -0.473601 -0.823515
vn -0.312289 -0.473601 -0.823515
vn -0.312289 -0.473601 -0.823515
vn -0.312289 -0.473601 -0.823515
vn -0.869544 0.492381 0.038129
vn -0.869544 0.492381 0.038129
vn -0.869544 0.492381 0.038129
vn 0.869543 -0.492384 -0.038126
vn 0.869543 -0.492384 -0.038126
vn 0.869543 -0.492384 -0.038126
vn 0.400218 0.710977 -0.578219
vn 0.400218 0.710977 -0.578219
vn 0.400218 0.710977 -0.578219
vn 0.400218 0.710977 -0.578219
vn -0.267633 -0.434074 -0.860205
vn -0.267633 -0.434074 -0.860205
vn -0.267633 -0.434074 -0.860205
vn -0.267633 -0.434074 -0.860205
vn 0.358254 0.661899 -0.658441
vn 0.358254 0.661899 -0.658441
vn 0.358254 0.661899 -0.658441
vn 0.358254 0.661899 -0.658441
vn -0.302216 -0.481008 -0.822981
vn -0.302216 -0.481008 -0.822981
vn -0.302216 -0.481008 -0.822980
vn -0.302216 -0.481008 -0.822980
vn -0.377133 -0.717993 0.585028
vn -0.377133 -0.717993 0.585028
vn -0.377133 -0.717993 0.585028
vn -0.377133 -0.717993 0.585028
vn 0.310153 0.487652 0.816089
vn 0.310153 0.487652 0.816089
vn 0.310153 0.487652 0.816089
vn 0.310153 0.487652 0.816089
vn -0.838525 0.544751 -0.011086
vn -0.838525 0.544751 -0.011086
vn -0.838524 0.544751 -0.011086
vn -0.838524 0.544751 -0.011086
vn 0.199203 0.545563 0.814051
vn 0.199203 0.545563 0.814051
vn 0.199203 0.545563 0.814051
vn 0.199203 0.545563 0.814051
vn -0.830627 0.549341 0.091016
vn -0.830627 0.549341 0.091016
vn -0.830627 0.549341 0.091016
vn -0.830627 0.549341 0.091016
vn 0.336013 0.484786 0.807513
vn 0.336013 0.484786 0.807513
vn 0.336013 0.484786 0.807513
vn 0.336013 0.484786 0.807513
vn 0.852188 -0.522915 -0.018311
vn 0.852188 -0.522915 -0.018311
vn 0.852188 -0.522915 -0.018311
vn 0.852188 -0.522915 -0.018311
vn -0.319664 -0.495293 -0.807775
vn -0.319664 -0.495293 -0.807775
vn -0.319664 -0.495293 -0.807775
vn -0.319664 -0.495293 -0.807775
vn -0.392795 -0.697778 0.599014
vn -0.392794 -0.697778 0.599014
vn -0.392795 -0.697778 0.599014
vn -0.392795 -0.697778 0.599014
vn 0.816455 -0.577337 -0.009109
vn 0.816455 -0.577337 -0.009109
vn 0.816455 -0.577337 -0.009109
vn 0.816455 -0.577337 -0.009109
vn -0.341910 -0.748331 0.568417
vn -0.341910 -0.748331 0.568417
vn -0.341910 -0.748331 0.568417
vn -0.341910 -0.748331 0.568417
vn 0.870101 -0.491377 -0.038389
vn 0.870101 -0.491377 -0.038389
vn 0.870101 -0.491377 -0.038389
vn 0.870101 -0.491377 -0.038389
vn 0.404337 0.704783 -0.582917
vn 0.404337 0.704783 -0.582917
vn 0.404337 0.704783 -0.582917
vn 0.404337 0.704783 -0.582917
vn -0.860428 0.506900 0.052105
vn -0.860429 0.506900 0.052105
vn -0.860429 0.506900 0.052105
vn -0.860428 0.506900 0.052105
s off
f 50/1/1 51/2/2 12/3/3 10/4/4
f 3/7/5 4/8/6 5/9/7
f 5/12/8 4/13/9 53/14/10 54/15/11
f 6/18/12 2/19/13 1/20/14
f 51/21/15 52/22/16 9/23/17 12/24/18
f 54/27/19 49/28/20 3/29/21 5/30/22
f 1/33/23 2/34/24 8/35/25 7/36/26
f 4/8/27 3/7/28 10/10/29 9/11/30
f 3/39/31 49/38/32 50/37/33 10/40/34
f 52/41/35 53/42/36 4/43/37 9/44/38
f 7/47/39 8/48/40 11/49/41
f 9/50/42 10/51/43 12/52/44
f 44/53/45 45/54/46 24/55/47 22/56/48
f 15/59/49 16/60/50 17/61/51
f 17/64/52 16/65/53 47/66/54 48/67/55
f 18/70/56 14/71/57 13/72/58
f 45/73/59 46/74/60 21/75/61 24/76/62
f 48/79/63 43/80/64 15/81/65 17/82/66
f 13/85/67 14/86/68 20/87/69 19/88/70
f 16/60/71 15/59/72 22/62/73 21/63/74
f 15/93/75 43/94/76 44/95/77 22/96/78
f 46/90/79 47/89/80 16/91/81 21/92/82
f 19/99/83 20/100/84 23/101/85
f 21/102/86 22/103/87 24/104/88
f 38/105/89 39/106/90 36/107/91 34/108/92
f 27/111/93 28/112/94 29/113/95
f 29/114/96 28/115/97 41/116/98 42/117/99
f 30/120/100 26/121/101 25/122/102
f 39/123/103 40/124/104 33/125/105 36/126/106
f 42/129/107 37/130/108 27/131/109 29/132/110
f 25/135/111 26/136/112 32/137/113 31/138/114
f 28/141/115 27/143/116 34/144/117 33/142/118
f 27/145/119 37/146/120 38/147/121 34/148/122
f 40/140/123 41/139/124 28/141/125 33/142/126
f 31/151/127 32/152/128 35/153/129
f 33/154/130 34/155/131 36/156/132
f 38/147/133 37/146/134 25/149/135 31/150/136
f 31/109/137 35/110/138 39/106/139 38/105/140
f 35/127/141 32/128/142 40/124/143 39/123/144
f 26/136/145 41/139/146 40/140/147 32/137/148
f 42/117/149 41/116/150 26/118/151 30/119/152
f 30/133/153 25/134/154 37/130/155 42/129/156
f 44/95/157 43/94/158 13/97/159 19/98/160
f 19/57/161 23/58/162 45/54/163 44/53/164
f 23/77/165 20/78/166 46/74/167 45/73/168
f 14/86/169 47/89/170 46/90/171 20/87/172
f 48/67/173 47/66/174 14/68/175 18/69/176
f 18/83/177 13/84/178 43/80/179 48/79/180
f 50/37/181 49/38/182 1/33/183 7/36/184
f 7/5/185 11/6/186 51/2/187 50/1/188
f 11/25/189 8/26/190 52/22/191 51/21/192
f 2/45/193 53/42/194 52/41/195 8/46/196
f 54/15/197 53/14/198 2/16/199 6/17/200
f 6/31/201 1/32/202 49/28/203 54/27/204
