# This file uses centimeters as units for non-parametric coordinates.

v 53.960008 -3.452047 -26.341054
v 37.234775 -3.737339 -47.147789
v 13.137315 -3.917940 -58.637573
v -13.559553 -3.958084 -58.534720
v -37.568200 -3.849819 -46.859611
v -54.133422 -3.614586 -25.924620
v -59.974255 -3.298978 0.123796
v -53.933869 -2.965503 26.126440
v -37.208610 -2.680212 46.933173
v -13.111163 -2.499610 58.422965
v 13.585706 -2.459467 58.320104
v 37.594356 -2.567732 46.644995
v 54.159574 -2.802964 25.710003
v 60.000372 -3.118573 -0.338419
v 51.596612 3.766306 -25.590608
v 35.543406 3.496398 -45.246763
v 12.514607 3.323803 -56.227003
v -12.998333 3.285440 -56.128716
v -34.865384 3.389482 -45.059188
v -51.772856 3.613705 -24.964785
v -57.354668 3.915318 -0.071540
v -51.965932 4.232876 24.735304
v -35.598616 4.506644 44.661970
v -12.569823 4.679237 55.642227
v 13.186985 4.723426 55.980888
v 51.861878 4.385287 24.037229
v 57.299425 4.087723 -0.513257
v 44.605367 3.780372 -23.591703
v 30.560957 3.567151 -38.949991
v 10.757809 3.418733 -48.392211
v -11.181517 3.385741 -48.307689
v -27.118102 3.464037 -40.041976
v -44.524878 3.668027 -21.508910
v -49.324848 3.927393 -0.102475
v -46.164152 4.196143 21.065894
v -30.616167 4.435890 38.365193
v -10.813031 4.584309 47.807426
v 12.270619 4.644631 49.773220
v 30.856454 4.528327 38.128358
v 45.146482 4.316017 19.315763
v 49.269618 4.075649 -0.482320
v 42.435442 1.505713 -22.574675
v 29.049674 1.306380 -36.900702
v 10.240460 1.165410 -45.869025
v -10.560268 1.134963 -45.722231
v -24.980725 1.208400 -38.035149
v -42.267541 1.402193 -20.335016
v -46.826593 1.648541 -0.002981
v -44.289362 1.901859 20.004790
v -29.056926 2.131517 36.533961
v -10.247728 2.272486 45.502288
v 11.863412 2.334225 47.702805
v 29.602216 2.219936 36.325056
v 43.013190 2.014572 18.179113
v 46.819334 1.789356 -0.363762
v 26.546992 4.659104 49.157109
v 35.910626 1.741770 44.434237
v 41.815823 4.529204 36.834273
v 33.545411 4.574194 41.473500
v 0.360759 1.715886 -0.466244
v 0.360757 1.715886 -0.466244
vt 0.058760 0.231154
vt 0.058760 0.231154
vt 0.058760 0.231154
vt 0.058760 0.233427
vt 0.058760 0.237469
vt 0.058760 0.239742
vt 0.058760 0.231154
vt 0.058760 0.231154
vt 0.058760 0.231154
vt 0.058760 0.231154
vt 0.058760 0.236964
vt 0.058760 0.236964
vt 0.058760 0.236964
vt 0.058760 0.231154
vt 0.058760 0.231154
vt 0.058760 0.247825
vt 0.058760 0.247825
vt 0.058760 0.247825
vt 0.058760 0.247825
vt 0.058760 0.247825
vt 0.058760 0.247825
vt 0.058760 0.247825
vt 0.058760 0.247825
vt 0.058760 0.247825
vt 0.058760 0.247825
vt 0.058760 0.247825
vt 0.058760 0.247825
vt 0.058760 0.247825
vt 0.058760 0.247825
vt 0.058760 0.247825
vt 0.058760 0.247825
vt 0.058760 0.247825
vt 0.058760 0.247825
vt 0.058760 0.247825
vt 0.058760 0.247825
vt 0.058760 0.247825
vt 0.058760 0.247825
vt 0.058760 0.247825
vt 0.058760 0.247825
vt 0.058760 0.247825
vt 0.058760 0.247825
vt 0.058760 0.247825
vt 0.058760 0.247825
vt 0.058760 0.247825
vt 0.058760 0.247825
vt 0.058760 0.247825
vt 0.058760 0.247825
vt 0.058760 0.247825
vt 0.058760 0.247825
vt 0.058760 0.247825
vt 0.058760 0.247825
vt 0.058760 0.247825
vt 0.058760 0.247825
vt 0.058760 0.247825
vt 0.058760 0.247825
vt 0.058760 0.247825
vt 0.058760 0.247825
vt 0.058760 0.247825
vt 0.058760 0.247825
vt 0.058760 0.247825
vt 0.058760 0.247825
vt 0.058760 0.247825
vt 0.058760 0.247825
vt 0.058760 0.247825
vt 0.058760 0.247825
vt 0.058760 0.247825
vt 0.058760 0.247825
vt 0.058760 0.247825
vt 0.058760 0.247825
vt 0.058760 0.247825
vt 0.058760 0.247825
vt 0.058760 0.247825
vt 0.058760 0.247825
vt 0.058760 0.247825
vt 0.058760 0.247825
vt 0.058760 0.247825
vt 0.016201 0.012462
vt 0.016201 0.012462
vt 0.016201 0.012462
vt 0.016201 0.012462
vt 0.016201 0.012462
vt 0.016201 0.012462
vt 0.016201 0.012462
vt 0.016201 0.012462
vt 0.016201 0.012462
vt 0.016201 0.012462
vt 0.016201 0.012462
vt 0.016201 0.012462
vt 0.016201 0.012462
vt 0.016201 0.012462
vt 0.016201 0.012462
vt 0.016201 0.012462
vn 0.776996 -0.013216 -0.629366
vn 0.776996 -0.013216 -0.629366
vn 0.776996 -0.013216 -0.629366
vn 0.776996 -0.013216 -0.629366
vn 0.430426 -0.010760 -0.902561
vn 0.430427 -0.010760 -0.902561
vn 0.430426 -0.010760 -0.902561
vn 0.430427 -0.010760 -0.902561
vn -0.003832 -0.013327 -0.999904
vn -0.003832 -0.013327 -0.999904
vn -0.003832 -0.013327 -0.999904
vn -0.003832 -0.013327 -0.999904
vn -0.444350 0.001153 -0.895853
vn -0.444350 0.001153 -0.895853
vn -0.444350 0.001153 -0.895853
vn -0.444350 0.001153 -0.895853
vn -0.774426 0.017315 -0.632428
vn -0.774426 0.017315 -0.632428
vn -0.774426 0.017315 -0.632428
vn -0.774426 0.017315 -0.632428
vn -0.975769 -0.005770 -0.218727
vn -0.975769 -0.005770 -0.218727
vn -0.975769 -0.005770 -0.218727
vn -0.975769 -0.005770 -0.218727
vn -0.975539 -0.013066 0.219439
vn -0.975539 -0.013066 0.219439
vn -0.975539 -0.013066 0.219439
vn -0.975539 -0.013066 0.219439
vn -0.776040 -0.003620 0.630673
vn -0.776040 -0.003620 0.630673
vn -0.776040 -0.003620 0.630673
vn -0.776040 -0.003620 0.630673
vn -0.430427 0.010760 0.902561
vn -0.430427 0.010760 0.902561
vn -0.430427 0.010760 0.902561
vn -0.430427 0.010760 0.902561
vn -0.004685 -0.002374 0.999986
vn -0.004685 -0.002374 0.999986
vn -0.004685 -0.002374 0.999986
vn -0.004685 -0.002374 0.999986
vn 0.451031 0.796846 0.402004
vn 0.451031 0.796846 0.402004
vn 0.451031 0.796846 0.402004
vn 0.298502 0.797428 0.524410
vn 0.298502 0.797428 0.524410
vn 0.298502 0.797428 0.524410
vn 0.976057 0.003372 0.217489
vn 0.976057 0.003372 0.217489
vn 0.976057 0.003372 0.217489
vn 0.976057 0.003372 0.217489
vn 0.974592 -0.004409 -0.223946
vn 0.974592 -0.004409 -0.223946
vn 0.974592 -0.004409 -0.223946
vn 0.974592 -0.004409 -0.223946
vn -0.001552 0.999921 -0.012463
vn -0.001552 0.999921 -0.012463
vn -0.001552 0.999921 -0.012463
vn -0.001552 0.999921 -0.012463
vn -0.001552 0.999921 -0.012463
vn -0.001552 0.999921 -0.012463
vn -0.001552 0.999921 -0.012463
vn -0.001552 0.999921 -0.012463
vn -0.001552 0.999921 -0.012463
vn -0.001552 0.999921 -0.012463
vn -0.001552 0.999921 -0.012463
vn -0.001552 0.999921 -0.012463
vn -0.001552 0.999921 -0.012463
vn -0.001552 0.999921 -0.012463
vn -0.001552 0.999921 -0.012463
vn -0.001552 0.999921 -0.012463
vn -0.001552 0.999921 -0.012463
vn -0.001552 0.999921 -0.012463
vn -0.001552 0.999921 -0.012463
vn -0.001552 0.999921 -0.012463
vn -0.001552 0.999921 -0.012463
vn -0.001552 0.999921 -0.012463
vn -0.001552 0.999921 -0.012463
vn -0.001552 0.999921 -0.012463
vn -0.001552 0.999921 -0.012463
vn -0.001552 0.999921 -0.012463
vn -0.001552 0.999921 -0.012463
vn -0.001552 0.999921 -0.012463
vn -0.001552 0.999921 -0.012463
vn -0.001552 0.999921 -0.012463
vn -0.001552 0.999921 -0.012463
vn -0.001552 0.999921 -0.012463
vn -0.001552 0.999921 -0.012463
vn -0.001552 0.999921 -0.012463
vn -0.001552 0.999921 -0.012463
vn -0.001552 0.999921 -0.012463
vn -0.001552 0.999921 -0.012463
vn -0.001552 0.999921 -0.012463
vn -0.001552 0.999921 -0.012463
vn -0.001552 0.999921 -0.012463
vn -0.001552 0.999921 -0.012463
vn -0.001552 0.999921 -0.012463
vn -0.001552 0.999921 -0.012463
vn -0.001552 0.999921 -0.012463
vn -0.001552 0.999921 -0.012463
vn -0.001552 0.999921 -0.012463
vn -0.001552 0.999921 -0.012463
vn -0.001552 0.999921 -0.012463
vn -0.733807 -0.030109 0.678691
vn -0.733807 -0.030109 0.678690
vn -0.733807 -0.030109 0.678691
vn -0.733807 -0.030109 0.678691
vn -0.430427 0.011372 0.902554
vn -0.430427 0.011372 0.902554
vn -0.430427 0.011372 0.902554
vn -0.430427 0.011372 0.902554
vn 0.005410 0.027504 0.999607
vn 0.005410 0.027504 0.999607
vn 0.005410 0.027504 0.999607
vn 0.005410 0.027504 0.999607
vn 0.464293 0.075107 0.882491
vn 0.464293 0.075107 0.882491
vn 0.464293 0.075107 0.882491
vn 0.464293 0.075107 0.882491
vn 0.719266 0.096584 0.687989
vn 0.719266 0.096584 0.687989
vn 0.719265 0.096584 0.687989
vn 0.719265 0.096584 0.687989
vn 0.975739 0.011027 0.218657
vn 0.975739 0.011027 0.218657
vn 0.975739 0.011027 0.218657
vn 0.975739 0.011027 0.218657
vn 0.988316 -0.069612 -0.135594
vn 0.988316 -0.069612 -0.135594
vn 0.988316 -0.069612 -0.135594
vn 0.988316 -0.069612 -0.135594
vn 0.738897 -0.051903 -0.671816
vn 0.738897 -0.051903 -0.671816
vn 0.738897 -0.051903 -0.671816
vn 0.738897 -0.051903 -0.671816
vn 0.430427 -0.011372 -0.902554
vn 0.430427 -0.011372 -0.902554
vn 0.430427 -0.011372 -0.902554
vn 0.430427 -0.011372 -0.902554
vn 0.091947 -0.068300 -0.993419
vn 0.091947 -0.068300 -0.993419
vn 0.091947 -0.068300 -0.993419
vn 0.091947 -0.068300 -0.993419
vn -0.532799 -0.108142 -0.839304
vn -0.532799 -0.108142 -0.839304
vn -0.532799 -0.108142 -0.839304
vn -0.532799 -0.108142 -0.839304
vn -0.799795 -0.042483 -0.598767
vn -0.799795 -0.042483 -0.598767
vn -0.799795 -0.042483 -0.598767
vn -0.799795 -0.042483 -0.598767
vn -0.979137 -0.019999 -0.202214
vn -0.979137 -0.019999 -0.202214
vn -0.979137 -0.019999 -0.202214
vn -0.979137 -0.019999 -0.202214
vn -0.980400 -0.020550 0.195942
vn -0.980400 -0.020550 0.195942
vn -0.980400 -0.020550 0.195942
vn -0.980400 -0.020550 0.195942
vn 0.445697 -0.006301 0.895162
vn 0.441256 0.001751 0.897380
vn 0.441256 0.001751 0.897380
vn 0.443084 -0.001555 0.896479
vn 0.785296 0.012985 0.618984
vn 0.785640 0.014238 0.618520
vn 0.786554 0.017588 0.617271
vn -0.001552 0.999921 -0.012463
vn -0.001552 0.999921 -0.012463
vn -0.001552 0.999921 -0.012463
vn -0.001552 0.999921 -0.012463
vn -0.001552 0.999921 -0.012463
vn -0.001552 0.999921 -0.012463
vn -0.001552 0.999921 -0.012463
vn -0.001552 0.999921 -0.012463
vn -0.001552 0.999921 -0.012463
vn -0.001552 0.999921 -0.012463
vn -0.001552 0.999921 -0.012463
vn 0.445697 -0.006301 0.895162
vn 0.443084 -0.001555 0.896479
vn 0.454659 -0.022773 0.890374
vn -0.001552 0.999921 -0.012463
vn -0.001552 0.999921 -0.012463
vn -0.001552 0.999921 -0.012463
vn 0.785086 0.012224 0.619266
vn 0.785640 0.014238 0.618520
vn 0.785296 0.012985 0.618984
vn 0.785086 0.012224 0.619266
vn -0.001553 0.999921 -0.012462
vn -0.001553 0.999921 -0.012462
vn -0.001553 0.999921 -0.012462
vn -0.001553 0.999921 -0.012462
vn -0.001553 0.999921 -0.012461
vn -0.001553 0.999921 -0.012461
vn -0.001553 0.999921 -0.012461
vn -0.001552 0.999921 -0.012461
vn -0.001552 0.999921 -0.012461
vn -0.001552 0.999921 -0.012461
vn -0.001551 0.999921 -0.012461
vn -0.001551 0.999921 -0.012461
vn -0.001551 0.999921 -0.012461
vn -0.001550 0.999921 -0.012462
vn -0.001550 0.999921 -0.012462
vn -0.001550 0.999921 -0.012462
vn -0.001550 0.999921 -0.012462
vn -0.001549 0.999921 -0.012463
vn -0.001549 0.999921 -0.012463
vn -0.001549 0.999921 -0.012463
vn -0.001549 0.999921 -0.012464
vn -0.001549 0.999921 -0.012464
vn -0.001549 0.999921 -0.012464
vn -0.001550 0.999921 -0.012465
vn -0.001550 0.999921 -0.012465
vn -0.001550 0.999921 -0.012465
vn -0.001550 0.999921 -0.012465
vn -0.001551 0.999921 -0.012465
vn -0.001551 0.999921 -0.012465
vn -0.001551 0.999921 -0.012465
vn -0.001551 0.999921 -0.012465
vn -0.001551 0.999921 -0.012465
vn -0.001551 0.999921 -0.012465
vn -0.001553 0.999921 -0.012465
vn -0.001553 0.999921 -0.012465
vn -0.001553 0.999921 -0.012465
vn -0.001553 0.999921 -0.012465
vn -0.001553 0.999921 -0.012465
vn -0.001553 0.999921 -0.012465
vn -0.001553 0.999921 -0.012465
vn -0.001554 0.999921 -0.012464
vn -0.001554 0.999921 -0.012464
vn -0.001554 0.999921 -0.012464
vn -0.001554 0.999921 -0.012463
vn -0.001554 0.999921 -0.012463
vn -0.001554 0.999921 -0.012463
s off
f 1/1/1 2/2/2 16/17/3 15/16/4
f 2/2/5 3/3/6 17/18/7 16/17/8
f 3/3/9 4/4/10 18/19/11 17/18/12
f 4/4/13 5/5/14 19/20/15 18/19/16
f 5/5/17 6/6/18 20/21/19 19/20/20
f 6/6/21 7/7/22 21/22/23 20/21/24
f 7/7/25 8/8/26 22/23/27 21/22/28
f 8/8/29 9/9/30 23/24/31 22/23/32
f 9/9/33 10/10/34 24/25/35 23/24/36
f 10/10/37 11/11/38 25/26/39 24/25/40
f 56/71/41 57/73/42 59/76/43
f 59/76/44 57/73/45 58/75/46
f 13/13/47 14/14/48 27/28/49 26/27/50
f 14/14/51 1/15/52 15/29/53 27/28/54
f 15/41/55 16/40/56 29/44/57 28/43/58
f 16/40/59 17/39/60 30/45/61 29/44/62
f 17/39/63 18/38/64 31/46/65 30/45/66
f 18/38/67 19/37/68 32/47/69 31/46/70
f 19/37/71 20/36/72 33/48/73 32/47/74
f 20/36/75 21/35/76 34/49/77 33/48/78
f 21/35/79 22/34/80 35/50/81 34/49/82
f 22/34/83 23/33/84 36/51/85 35/50/86
f 23/33/87 24/32/88 37/52/89 36/51/90
f 24/32/91 25/31/92 38/53/93 37/52/94
f 26/30/95 27/42/96 41/56/97 40/55/98
f 27/42/99 15/41/100 28/43/101 41/56/102
f 28/43/103 29/44/104 43/58/105 42/57/106
f 29/44/107 30/45/108 44/59/109 43/58/110
f 30/45/111 31/46/112 45/60/113 44/59/114
f 31/46/115 32/47/116 46/61/117 45/60/118
f 32/47/119 33/48/120 47/62/121 46/61/122
f 33/48/123 34/49/124 48/63/125 47/62/126
f 34/49/127 35/50/128 49/64/129 48/63/130
f 35/50/131 36/51/132 50/65/133 49/64/134
f 36/51/135 37/52/136 51/66/137 50/65/138
f 37/52/139 38/53/140 52/67/141 51/66/142
f 38/53/143 39/54/144 53/68/145 52/67/146
f 39/54/147 40/55/148 54/69/149 53/68/150
f 40/55/151 41/56/152 55/70/153 54/69/154
f 41/56/155 28/43/156 42/57/157 55/70/158
f 11/11/159 12/12/160 57/73/161 56/71/162
f 58/74/163 13/13/164 26/27/165
f 59/76/166 58/75/167 40/55/168 39/54/169
f 25/31/170 56/72/171 38/53/172
f 38/53/173 56/72/174 59/76/175 39/54/176
f 11/11/177 56/71/178 25/26/179
f 40/55/180 58/75/181 26/30/182
f 12/12/183 13/13/184 58/74/185 57/73/186
f 42/77/187 43/78/188 60/79/189 61/80/190
f 43/78/191 44/81/192 60/79/193
f 44/81/194 45/82/195 60/79/196
f 45/82/197 46/83/198 60/79/199
f 46/83/200 47/84/201 61/80/202 60/79/203
f 47/84/204 48/85/205 61/80/206
f 48/85/207 49/86/208 61/80/209
f 49/86/210 50/87/211 60/79/212 61/80/213
f 50/87/214 51/88/215 60/79/216
f 51/88/217 52/89/218 60/79/219
f 52/89/220 53/90/221 60/79/222
f 53/90/223 54/91/224 61/80/225 60/79/226
f 54/91/227 55/92/228 61/80/229
f 55/92/230 42/77/231 61/80/232
