# This file uses centimeters as units for non-parametric coordinates.

v 13.397503 10.278000 -22.781658
v -1.355457 4.424000 -20.124722
v -0.926495 10.254000 -22.024822
v 33.043575 11.876999 -21.339703
v 11.896420 4.392000 -20.235729
v -14.696407 3.847000 -17.420483
v -25.904560 5.388000 -14.965725
v 31.019497 19.292999 -16.622448
v 12.035465 17.540998 -19.255733
v -26.095486 11.921999 -16.673565
v -21.302509 18.409000 -16.533566
v 5.710506 1.063000 -16.056728
v 31.807423 4.255000 -13.602734
v 29.670429 2.334000 -10.973644
v -15.143490 20.262999 -14.463711
v 34.126568 11.841000 -18.922710
v -14.996433 1.668000 -11.886501
v -34.127522 12.018000 -10.153484
v -32.014561 6.164999 -8.459759
v -6.738567 0.099000 -0.117779
v 12.499523 20.842999 -9.451580
v -31.014538 17.073000 -12.745571
v 29.622555 22.417999 -7.606792
v -19.203472 21.768999 -3.540707
v -31.681538 18.243999 -8.464718
v -33.728504 15.351999 -8.668804
v -23.776531 2.605000 -2.752590
v 31.665516 20.868000 13.461399
v 17.702579 0.018000 -0.189495
v 31.588459 2.946000 10.115528
v 0.693417 0.000000 8.391285
v -24.549580 3.820000 11.481190
v -29.346561 11.958000 16.051197
v -28.628445 19.742001 -1.895809
v 18.219471 0.434000 8.942127
v 34.127518 11.839000 21.689320
v -16.739559 21.503000 9.938526
v 13.439465 20.840000 8.229542
v -17.784405 3.078000 16.539478
v -27.709484 16.983000 16.730213
v 28.306484 20.327000 18.177509
v -20.822430 20.150000 16.543293
v 30.011463 3.845000 18.099308
v 0.253582 2.036999 17.528248
v 7.492542 19.474998 14.949512
v 30.416584 16.772001 22.104359
v 7.015514 16.078999 20.138264
v -24.522495 7.022000 20.193195
v -21.777439 18.345001 19.816303
v -21.964550 11.919999 21.566486
v -12.967587 6.928999 21.450520
v 13.509464 10.250999 22.781467
vt 0.003918 0.303451
vt 0.003918 0.303451
vt 0.003918 0.303451
vt 0.003918 0.303451
vt 0.003918 0.303451
vt 0.003918 0.303451
vt 0.003918 0.303451
vt 0.003918 0.303451
vt 0.003918 0.303451
vt 0.003918 0.303451
vt 0.003918 0.303451
vt 0.003918 0.303451
vt 0.003918 0.303451
vt 0.003918 0.303451
vt 0.003918 0.303451
vt 0.003918 0.303451
vt 0.003918 0.303451
vt 0.003918 0.303451
vt 0.003918 0.303451
vt 0.003918 0.303451
vt 0.003918 0.303451
vt 0.003918 0.303451
vt 0.003918 0.303451
vt 0.003918 0.303451
vt 0.003918 0.303451
vt 0.003918 0.303451
vt 0.003918 0.303451
vt 0.003918 0.303451
vt 0.003918 0.303451
vt 0.003918 0.303451
vt 0.003918 0.303451
vt 0.003918 0.303451
vt 0.003918 0.303451
vt 0.003918 0.303451
vt 0.003918 0.303451
vt 0.003918 0.303451
vt 0.003918 0.303451
vt 0.003918 0.303451
vt 0.003918 0.303451
vt 0.003918 0.303451
vt 0.003918 0.303451
vt 0.003918 0.303451
vt 0.003918 0.303451
vt 0.003918 0.303451
vt 0.003918 0.303451
vt 0.003918 0.303451
vt 0.003918 0.303451
vt 0.003918 0.303451
vt 0.003918 0.303451
vt 0.003918 0.303451
vt 0.003918 0.303451
vt 0.003918 0.303451
vt 0.003918 0.303451
vt 0.003918 0.303451
vt 0.003918 0.303451
vt 0.003918 0.303451
vt 0.003918 0.303451
vt 0.003918 0.303451
vt 0.003918 0.303451
vt 0.003918 0.303451
vt 0.003918 0.303451
vt 0.003918 0.303451
vt 0.003918 0.303451
vt 0.003918 0.303451
vt 0.003918 0.303451
vt 0.003918 0.303451
vt 0.003918 0.303451
vt 0.003918 0.303451
vt 0.003918 0.303451
vt 0.003918 0.303451
vt 0.003918 0.303451
vt 0.003918 0.303451
vt 0.003918 0.303451
vt 0.003918 0.303451
vt 0.003918 0.303451
vt 0.003918 0.303451
vt 0.003918 0.303451
vt 0.003918 0.303451
vt 0.003918 0.303451
vt 0.003918 0.303451
vt 0.003918 0.303451
vt 0.003918 0.303451
vt 0.003918 0.303451
vt 0.003918 0.303451
vt 0.003918 0.303451
vt 0.003918 0.303451
vt 0.003918 0.303451
vt 0.003918 0.303451
vt 0.003918 0.303451
vt 0.003918 0.303451
vt 0.003918 0.303451
vt 0.003918 0.303451
vt 0.003918 0.303451
vt 0.003918 0.303451
vt 0.003918 0.303451
vt 0.003918 0.303451
vt 0.003918 0.303451
vt 0.003918 0.303451
vn -0.049716 -0.306183 -0.950674
vn -0.049716 -0.306183 -0.950674
vn -0.049716 -0.306183 -0.950674
vn -0.008655 -0.395120 -0.918589
vn -0.008655 -0.395120 -0.918589
vn -0.008655 -0.395120 -0.918589
vn 0.029934 0.441064 -0.896976
vn 0.029934 0.441064 -0.896976
vn 0.029934 0.441064 -0.896976
vn -0.048380 0.428853 -0.902078
vn -0.048380 0.428853 -0.902078
vn -0.048380 0.428853 -0.902078
vn 0.100219 -0.416415 -0.903634
vn 0.100219 -0.416415 -0.903634
vn 0.100219 -0.416415 -0.903634
vn -0.177741 -0.293094 -0.939417
vn -0.177741 -0.293094 -0.939417
vn -0.177741 -0.293094 -0.939417
vn 0.065075 0.548159 -0.833839
vn 0.065075 0.548159 -0.833839
vn 0.065075 0.548159 -0.833839
vn -0.061180 0.447802 -0.892037
vn -0.061180 0.447802 -0.892037
vn -0.061180 0.447802 -0.892037
vn -0.234254 -0.182741 -0.954846
vn -0.234254 -0.182741 -0.954846
vn -0.234254 -0.182741 -0.954846
vn -0.007146 -0.776959 -0.629510
vn -0.007146 -0.776959 -0.629510
vn -0.007146 -0.776959 -0.629510
vn -0.194670 0.164702 -0.966942
vn -0.194670 0.164702 -0.966942
vn -0.194670 0.164702 -0.966942
vn -0.217209 -0.252781 -0.942827
vn -0.217210 -0.252781 -0.942827
vn -0.217209 -0.252781 -0.942827
vn 0.234015 -0.752038 -0.616178
vn 0.234015 -0.752038 -0.616178
vn 0.234015 -0.752038 -0.616178
vn 0.790144 -0.495022 -0.361421
vn 0.790144 -0.495022 -0.361421
vn 0.790144 -0.495022 -0.361421
vn 0.146678 -0.868029 -0.474353
vn 0.146678 -0.868029 -0.474353
vn 0.146678 -0.868029 -0.474353
vn -0.006446 0.853356 -0.521289
vn -0.006446 0.853356 -0.521289
vn -0.006446 0.853356 -0.521289
vn -0.029824 0.787022 -0.616204
vn -0.029824 0.787022 -0.616204
vn -0.029824 0.787022 -0.616204
vn -0.382175 0.301227 -0.873616
vn -0.382175 0.301227 -0.873616
vn -0.382175 0.301227 -0.873616
vn 0.816781 0.451448 -0.359256
vn 0.816781 0.451448 -0.359256
vn 0.816781 0.451448 -0.359256
vn -0.259832 -0.666835 -0.698440
vn -0.259832 -0.666835 -0.698440
vn -0.259832 -0.666835 -0.698440
vn -0.124676 -0.860331 -0.494254
vn -0.124676 -0.860331 -0.494254
vn -0.124676 -0.860331 -0.494254
vn -0.034354 -0.929283 -0.367767
vn -0.034354 -0.929283 -0.367767
vn -0.034354 -0.929283 -0.367767
vn 0.012197 0.983396 -0.181064
vn 0.012197 0.983396 -0.181064
vn 0.012197 0.983396 -0.181064
vn -0.616945 -0.215845 -0.756829
vn -0.616945 -0.215845 -0.756829
vn -0.616945 -0.215845 -0.756829
vn -0.205310 -0.906802 -0.368183
vn -0.205310 -0.906802 -0.368183
vn -0.205310 -0.906802 -0.368183
vn -0.240805 0.925980 -0.290816
vn -0.240805 0.925980 -0.290816
vn -0.240805 0.925980 -0.290816
vn -0.630285 -0.009924 -0.776300
vn -0.630285 -0.009924 -0.776300
vn -0.630285 -0.009924 -0.776300
vn -0.215814 0.953222 -0.211641
vn -0.215814 0.953222 -0.211641
vn -0.215814 0.953222 -0.211641
vn -0.184700 0.958315 -0.217985
vn -0.184700 0.958315 -0.217985
vn -0.184700 0.958315 -0.217985
vn -0.280784 -0.947900 -0.150486
vn -0.280785 -0.947900 -0.150486
vn -0.280785 -0.947900 -0.150486
vn -0.048828 -0.993963 -0.098253
vn -0.048828 -0.993963 -0.098253
vn -0.048828 -0.993963 -0.098253
vn -0.050581 0.941190 -0.334072
vn -0.050581 0.941190 -0.334072
vn -0.050581 0.941190 -0.334072
vn -0.686124 -0.419654 -0.594243
vn -0.686124 -0.419654 -0.594243
vn -0.686124 -0.419654 -0.594243
vn 0.917742 0.395117 -0.040393
vn 0.917742 0.395117 -0.040393
vn 0.917742 0.395117 -0.040393
vn 0.003728 0.990809 -0.135221
vn 0.003728 0.990808 -0.135221
vn 0.003728 0.990809 -0.135221
vn -0.775179 0.568166 -0.276199
vn -0.775179 0.568166 -0.276199
vn -0.775179 0.568166 -0.276199
vn -0.847926 0.297014 -0.439094
vn -0.847926 0.297014 -0.439094
vn -0.847926 0.297014 -0.439094
vn 0.643025 -0.764985 -0.036283
vn 0.643025 -0.764985 -0.036283
vn 0.643025 -0.764985 -0.036283
vn -0.284592 -0.942183 -0.176915
vn -0.284592 -0.942183 -0.176915
vn -0.284592 -0.942183 -0.176915
vn 0.856791 0.513670 -0.045291
vn 0.856791 0.513670 -0.045291
vn 0.856791 0.513670 -0.045291
vn 0.956302 -0.292380 -0.000037
vn 0.956302 -0.292380 -0.000037
vn 0.956302 -0.292380 -0.000037
vn 0.078942 -0.989037 -0.124799
vn 0.078942 -0.989037 -0.124799
vn 0.078941 -0.989037 -0.124799
vn -0.227942 0.966912 -0.114555
vn -0.227942 0.966912 -0.114555
vn -0.227942 0.966912 -0.114555
vn -0.003493 -0.998002 -0.063088
vn -0.003493 -0.998002 -0.063088
vn -0.003493 -0.998002 -0.063088
vn -0.140375 -0.989534 -0.033426
vn -0.140375 -0.989534 -0.033426
vn -0.140375 -0.989534 -0.033426
vn -0.003340 -0.999956 -0.008717
vn -0.003340 -0.999956 -0.008717
vn -0.003340 -0.999956 -0.008717
vn 0.031785 0.999398 0.013912
vn 0.031785 0.999398 0.013912
vn 0.031785 0.999398 0.013912
vn 0.963548 -0.267470 -0.005866
vn 0.963548 -0.267471 -0.005866
vn 0.963548 -0.267470 -0.005866
vn -0.941493 -0.290367 0.171107
vn -0.941493 -0.290367 0.171107
vn -0.941493 -0.290367 0.171107
vn -0.156530 -0.984779 0.075560
vn -0.156530 -0.984779 0.075560
vn -0.156530 -0.984779 0.075560
vn -0.092135 0.995734 0.005067
vn -0.092135 0.995734 0.005067
vn -0.092135 0.995734 0.005067
vn -0.427303 -0.902505 0.053831
vn -0.427303 -0.902505 0.053831
vn -0.427303 -0.902505 0.053831
vn 0.023344 -0.998751 0.044178
vn 0.023344 -0.998751 0.044178
vn 0.023344 -0.998751 0.044178
vn 0.021907 0.999759 -0.000995
vn 0.021907 0.999759 -0.000995
vn 0.021907 0.999759 -0.000995
vn -0.200584 0.978077 0.055967
vn -0.200584 0.978077 0.055967
vn -0.200584 0.978077 0.055967
vn -0.983045 0.037744 0.179440
vn -0.983045 0.037744 0.179440
vn -0.983045 0.037744 0.179440
vn 0.198959 -0.979953 0.010343
vn 0.198959 -0.979953 0.010343
vn 0.198959 -0.979953 0.010343
vn 0.964778 0.263065 -0.000010
vn 0.964778 0.263065 -0.000010
vn 0.964778 0.263065 -0.000010
vn 0.181632 -0.982762 0.034490
vn 0.181632 -0.982762 0.034490
vn 0.181632 -0.982762 0.034490
vn 0.034288 0.973058 0.227997
vn 0.034288 0.973058 0.227997
vn 0.034288 0.973058 0.227997
vn -0.811381 0.563286 0.156109
vn -0.811381 0.563286 0.156109
vn -0.811381 0.563286 0.156109
vn -0.160213 -0.984608 0.069846
vn -0.160213 -0.984608 0.069846
vn -0.160213 -0.984608 0.069846
vn -0.122461 -0.987871 0.095466
vn -0.122461 -0.987871 0.095466
vn -0.122461 -0.987871 0.095466
vn -0.023231 0.996868 0.075593
vn -0.023231 0.996868 0.075593
vn -0.023231 0.996868 0.075593
vn -0.212436 0.974781 0.068364
vn -0.212436 0.974781 0.068364
vn -0.212436 0.974781 0.068364
vn -0.664453 0.733816 0.141480
vn -0.664453 0.733816 0.141480
vn -0.664453 0.733816 0.141480
vn -0.062895 0.987443 0.144916
vn -0.062895 0.987443 0.144916
vn -0.062895 0.987443 0.144916
vn -0.409405 0.899361 0.153418
vn -0.409405 0.899361 0.153418
vn -0.409405 0.899361 0.153418
vn -0.779779 -0.584944 0.223126
vn -0.779779 -0.584944 0.223126
vn -0.779779 -0.584944 0.223126
vn 0.170579 -0.974844 0.143464
vn 0.170579 -0.974844 0.143464
vn 0.170579 -0.974844 0.143464
vn 0.017298 -0.975715 0.218359
vn 0.017298 -0.975715 0.218359
vn 0.017298 -0.975715 0.218359
vn -0.028477 0.995176 0.093877
vn -0.028477 0.995176 0.093877
vn -0.028477 0.995176 0.093877
vn -0.067968 -0.974471 0.213977
vn -0.067968 -0.974471 0.213977
vn -0.067968 -0.974471 0.213977
vn 0.035709 0.974462 0.221695
vn 0.035709 0.974462 0.221695
vn 0.035709 0.974462 0.221695
vn -0.938516 0.278115 0.204549
vn -0.938516 0.278115 0.204549
vn -0.938516 0.278115 0.204549
vn 0.822943 -0.523182 0.221463
vn 0.822943 -0.523182 0.221463
vn 0.822943 -0.523182 0.221463
vn -0.340039 -0.882338 0.325351
vn -0.340039 -0.882338 0.325351
vn -0.340039 -0.882338 0.325351
vn -0.382003 0.851867 0.358325
vn -0.382003 0.851867 0.358325
vn -0.382003 0.851867 0.358325
vn 0.052551 -0.956051 0.288452
vn 0.052551 -0.956051 0.288452
vn 0.052551 -0.956051 0.288452
vn 0.482432 0.762517 0.431078
vn 0.482431 0.762517 0.431078
vn 0.482431 0.762517 0.431077
vn 0.050838 0.833492 0.550188
vn 0.050838 0.833492 0.550188
vn 0.050838 0.833492 0.550188
vn -0.596549 0.086528 0.797899
vn -0.596549 0.086529 0.797899
vn -0.596549 0.086528 0.797899
vn -0.782869 -0.583200 0.216782
vn -0.782869 -0.583200 0.216782
vn -0.782869 -0.583200 0.216782
vn 0.758383 0.539765 0.365389
vn 0.758383 0.539765 0.365389
vn 0.758383 0.539765 0.365389
vn -0.482724 0.145772 0.863555
vn -0.482724 0.145772 0.863555
vn -0.482724 0.145772 0.863555
vn -0.079298 -0.745190 0.662121
vn -0.079298 -0.745190 0.662121
vn -0.079298 -0.745190 0.662121
vn 0.062617 0.866112 0.495913
vn 0.062617 0.866112 0.495913
vn 0.062617 0.866112 0.495913
vn -0.070320 0.837600 0.541739
vn -0.070320 0.837600 0.541739
vn -0.070320 0.837600 0.541739
vn -0.077977 -0.745952 0.661419
vn -0.077977 -0.745952 0.661419
vn -0.077977 -0.745952 0.661419
vn -0.137746 0.696314 0.704395
vn -0.137746 0.696314 0.704395
vn -0.137746 0.696314 0.704395
vn -0.731310 0.199003 0.652367
vn -0.731310 0.199003 0.652367
vn -0.731310 0.199003 0.652367
vn 0.020445 -0.591190 0.806274
vn 0.020445 -0.591190 0.806274
vn 0.020445 -0.591190 0.806274
vn -0.088731 0.327724 0.940598
vn -0.088731 0.327724 0.940598
vn -0.088731 0.327724 0.940598
vn 0.024179 0.435143 0.900037
vn 0.024179 0.435143 0.900037
vn 0.024179 0.435143 0.900037
vn -0.107342 -0.216040 0.970466
vn -0.107342 -0.216040 0.970466
vn -0.107342 -0.216040 0.970466
vn -0.020643 0.263329 0.964485
vn -0.020643 0.263329 0.964485
vn -0.020643 0.263329 0.964485
vn -0.038425 -0.092384 0.994982
vn -0.038425 -0.092384 0.994982
vn -0.038425 -0.092384 0.994982
vn 0.026244 -0.544938 0.838065
vn 0.026244 -0.544939 0.838065
vn 0.026244 -0.544938 0.838065
vn 0.056059 -0.041759 0.997554
vn 0.056059 -0.041759 0.997554
vn 0.056059 -0.041759 0.997554
vn 0.081407 -0.442894 0.892871
vn 0.081407 -0.442894 0.892871
vn 0.081407 -0.442894 0.892871
s off
f 3/1/1 1/2/2 2/3/3
f 2/3/4 1/2/5 5/4/6
f 9/5/7 4/6/8 1/2/9
f 1/2/10 3/1/11 9/5/12
f 1/2/13 4/6/14 5/4/15
f 2/3/16 6/7/17 3/1/18
f 8/8/19 4/6/20 9/5/21
f 3/1/22 11/9/23 9/5/24
f 3/1/25 6/7/26 7/10/27
f 2/11/28 5/12/29 12/13/30
f 10/14/31 11/9/32 3/1/33
f 3/1/34 7/10/35 10/14/36
f 5/12/37 4/15/38 14/16/39
f 16/17/40 13/18/41 4/19/42
f 12/13/43 5/12/44 14/16/45
f 15/20/46 8/21/47 9/22/48
f 9/22/49 11/23/50 15/20/51
f 22/24/52 11/9/53 10/14/54
f 8/25/55 16/17/56 4/19/57
f 4/26/58 13/27/59 14/28/60
f 17/29/61 2/11/62 12/13/63
f 17/29/64 6/30/65 2/11/66
f 8/21/67 15/20/68 21/31/69
f 7/10/70 18/32/71 10/14/72
f 7/33/73 6/30/74 17/29/75
f 11/23/76 22/34/77 25/35/78
f 18/32/79 22/24/80 10/14/81
f 24/36/82 15/20/83 11/23/84
f 11/23/85 25/35/86 24/36/87
f 19/37/88 7/33/89 17/29/90
f 20/38/91 17/29/92 12/13/93
f 21/31/94 23/39/95 8/21/96
f 7/40/97 19/41/98 18/42/99
f 8/25/100 28/43/101 16/17/102
f 24/36/103 21/31/104 15/20/105
f 22/44/106 26/45/107 25/46/108
f 22/44/109 18/42/110 26/45/111
f 13/47/112 30/48/113 14/16/114
f 27/49/115 19/37/116 17/29/117
f 28/43/118 8/25/119 23/50/120
f 16/17/121 36/51/122 13/18/123
f 14/16/124 29/52/125 12/13/126
f 34/53/127 24/36/128 25/35/129
f 12/13/130 29/52/131 20/38/132
f 20/38/133 27/49/134 17/29/135
f 31/54/136 20/38/137 29/52/138
f 24/36/139 37/55/140 21/31/141
f 36/51/142 30/56/143 13/18/144
f 19/41/145 33/57/146 18/42/147
f 20/38/148 32/58/149 27/49/150
f 21/31/151 38/59/152 23/39/153
f 27/49/154 32/58/155 19/37/156
f 29/52/157 35/60/158 31/54/159
f 37/55/160 38/59/161 21/31/162
f 34/53/163 37/55/164 24/36/165
f 26/45/166 18/42/167 33/57/168
f 14/16/169 30/48/170 29/52/171
f 28/43/172 36/51/173 16/17/174
f 29/52/175 30/48/176 35/60/177
f 45/61/178 38/59/179 37/55/180
f 25/46/181 26/45/182 40/62/183
f 39/63/184 32/58/185 20/38/186
f 31/54/187 39/63/188 20/38/189
f 38/59/190 28/64/191 23/39/192
f 34/53/193 42/65/194 37/55/195
f 25/35/196 40/66/197 34/53/198
f 45/61/199 41/67/200 38/59/201
f 40/66/202 42/65/203 34/53/204
f 32/68/205 33/57/206 19/41/207
f 43/69/208 35/60/209 30/48/210
f 35/60/211 44/70/212 31/54/213
f 41/67/214 28/64/215 38/59/216
f 44/70/217 39/63/218 31/54/219
f 42/65/220 45/61/221 37/55/222
f 33/57/223 40/62/224 26/45/225
f 30/56/226 36/51/227 43/71/228
f 39/63/229 48/72/230 32/58/231
f 40/66/232 49/73/233 42/65/234
f 43/69/235 44/70/236 35/60/237
f 41/67/238 46/74/239 28/64/240
f 47/75/241 45/61/242 42/65/243
f 48/76/244 40/77/245 33/78/246
f 48/79/247 33/57/248 32/68/249
f 28/43/250 46/80/251 36/51/252
f 48/76/253 49/81/254 40/77/255
f 51/82/256 39/63/257 44/70/258
f 49/73/259 47/75/260 42/65/261
f 46/74/262 45/61/263 47/75/264
f 51/82/265 48/72/266 39/63/267
f 46/83/268 41/84/269 45/85/270
f 48/86/271 50/87/272 49/88/273
f 43/89/274 51/90/275 44/91/276
f 46/92/277 47/93/278 52/94/279
f 52/94/280 47/93/281 49/95/282
f 51/90/283 50/96/284 48/97/285
f 52/94/286 49/95/287 50/96/288
f 52/94/289 50/96/290 51/90/291
f 52/94/292 51/90/293 43/89/294
f 52/94/295 36/98/296 46/92/297
f 36/98/298 52/94/299 43/89/300
