# This file uses centimeters as units for non-parametric coordinates.

v 6.639199 4.074999 -16.812374
v -6.639218 4.074999 -16.812374
v -18.177364 13.714596 -7.172777
v 18.177347 13.714596 -7.172777
v 5.944679 5.656080 -15.231293
v -5.944700 5.656077 -15.231295
v -16.275852 14.508041 -6.379330
v 16.275839 14.508039 -6.379333
v -16.275854 24.153690 3.266320
v -18.177366 23.688652 2.801280
v 16.275837 24.153690 3.266318
v 18.177347 23.688652 2.801280
v 6.639199 6.738434 -19.475809
v -6.639218 6.738434 -19.475809
v -5.944700 8.319515 -17.894730
v 5.944679 8.319515 -17.894730
v -18.177364 16.378033 -9.836212
v -16.275852 17.171476 -9.042767
v 16.275837 26.817127 0.602882
v 18.177347 26.352091 0.137845
v 18.177347 16.378033 -9.836213
v 16.275839 17.171474 -9.042769
v -18.177366 26.352091 0.137845
v -16.275854 26.817129 0.602884
v -12.991379 11.047194 -15.167049
v -14.509171 9.859932 -16.354311
v -14.509171 7.196497 -13.690875
v -12.991379 8.383759 -12.503613
v 14.509153 7.196497 -13.690875
v 14.509153 9.859932 -16.354313
v 12.991362 11.047194 -15.167050
v 12.991362 8.383759 -12.503613
v 8.799359 0.000000 -8.799362
v -0.000001 0.000000 -12.444176
v -8.799361 0.000000 -8.799362
v -12.444187 0.000000 0.000000
v -8.799361 0.000000 8.799362
v -0.000001 0.000000 12.444178
v 8.799360 0.000000 8.799362
v 12.444168 0.000000 0.000000
v 12.506615 27.530926 -12.506624
v -0.000001 27.530926 -17.687037
v -12.506634 27.530926 -12.506624
v -17.687042 27.530926 -0.000000
v -12.506634 27.530926 12.506622
v -0.000001 27.530926 17.687038
v 12.506617 27.530926 12.506624
v 17.687038 27.530926 -0.000000
v -0.000001 0.000000 0.000000
v 10.515691 28.275063 -10.515697
v -0.000001 28.275063 -14.871446
v -10.515708 28.275063 -10.515697
v -14.871450 28.275063 -0.000000
v -10.515708 28.275063 10.515696
v -0.000001 28.275063 14.871447
v 10.515692 28.275063 10.515697
v 14.871433 28.275063 -0.000000
v 7.893020 1.732084 -7.893020
v -0.000001 1.732084 -11.162417
v -0.000001 1.732084 -0.000000
v -7.893022 1.732084 -7.893020
v -11.162417 1.732084 -0.000000
v -7.893022 1.732084 7.893019
v -0.000001 1.732084 11.162417
v 7.893005 1.732084 7.893020
v 11.162416 1.732084 -0.000000
vt 0.100808 0.305756
vt 0.100808 0.305756
vt 0.100808 0.305756
vt 0.100808 0.305756
vt 0.100808 0.305756
vt 0.100808 0.305756
vt 0.100808 0.305756
vt 0.100808 0.305756
vt 0.100808 0.305756
vt 0.100808 0.305756
vt 0.100808 0.305756
vt 0.100808 0.305756
vt 0.100808 0.305756
vt 0.100808 0.305756
vt 0.100808 0.305756
vt 0.100808 0.305756
vt 0.100808 0.305756
vt 0.100808 0.305756
vt 0.100808 0.305756
vt 0.100808 0.305756
vt 0.100808 0.305756
vt 0.100808 0.305756
vt 0.100808 0.305756
vt 0.100808 0.305756
vt 0.100808 0.305756
vt 0.100808 0.305756
vt 0.100808 0.305756
vt 0.100808 0.305756
vt 0.100808 0.305756
vt 0.100808 0.305756
vt 0.100808 0.305756
vt 0.100808 0.305756
vt 0.100808 0.305756
vt 0.100808 0.305756
vt 0.100808 0.305756
vt 0.100808 0.305756
vt 0.100808 0.305756
vt 0.100808 0.305756
vt 0.100808 0.305756
vt 0.100808 0.305756
vt 0.100808 0.305756
vt 0.100808 0.305756
vt 0.100808 0.305756
vt 0.100808 0.305756
vt 0.100808 0.305756
vt 0.100808 0.305756
vt 0.100808 0.305756
vt 0.100808 0.305756
vt 0.100808 0.278689
vt 0.100808 0.278689
vt 0.100808 0.305756
vt 0.100808 0.296152
vt 0.100808 0.278689
vt 0.100808 0.296152
vt 0.100808 0.278689
vt 0.100808 0.296152
vt 0.100808 0.278689
vt 0.100808 0.305756
vt 0.100808 0.278689
vt 0.100808 0.296152
vt 0.100808 0.278689
vt 0.100808 0.305756
vt 0.100808 0.278689
vt 0.100808 0.296152
vt 0.100808 0.278689
vt 0.100808 0.296152
vt 0.100808 0.278689
vt 0.100808 0.278689
vt 0.100808 0.278689
vt 0.100808 0.278689
vt 0.100808 0.278689
vt 0.100808 0.278689
vt 0.100808 0.278689
vt 0.100808 0.278689
vt 0.100808 0.278689
vt 0.100808 0.278689
vt 0.100808 0.278689
vt 0.100808 0.278689
vt 0.100808 0.278689
vt 0.100808 0.278689
vt 0.100808 0.278689
vt 0.100808 0.278689
vt 0.100808 0.278689
vt 0.100808 0.278689
vt 0.100808 0.296152
vt 0.100808 0.305756
vt 0.100808 0.305756
vt 0.100808 0.305756
vt 0.100808 0.296152
vt 0.100808 0.305756
vt 0.100808 0.296152
vt 0.100808 0.305756
vt 0.100808 0.305756
vt 0.100808 0.305756
vt 0.100808 0.296152
vt 0.100808 0.305756
vt 0.100808 0.305756
vt 0.100808 0.305756
vt 0.100808 0.296152
vt 0.100808 0.305756
vn 0.000000 0.707106 -0.707107
vn 0.000000 0.707106 -0.707107
vn 0.000000 0.707106 -0.707107
vn 0.000000 0.707106 -0.707107
vn 0.000000 0.707107 -0.707107
vn 0.000000 0.707107 -0.707107
vn 0.000000 0.707107 -0.707107
vn 0.000000 0.707107 -0.707107
vn -0.000000 0.707107 -0.707107
vn -0.000000 0.707107 -0.707107
vn -0.000000 0.707107 -0.707107
vn -0.000000 0.707107 -0.707107
vn -0.000000 0.707107 -0.707106
vn -0.000000 0.707107 -0.707106
vn -0.000000 0.707107 -0.707106
vn -0.000000 0.707107 -0.707106
vn 0.000001 0.707107 -0.707107
vn 0.000001 0.707107 -0.707107
vn 0.000001 0.707107 -0.707107
vn 0.000001 0.707107 -0.707107
vn 0.000000 -0.707107 0.707107
vn 0.000000 -0.707107 0.707107
vn 0.000000 -0.707107 0.707107
vn 0.000000 -0.707107 0.707107
vn 0.000000 -0.707107 0.707107
vn 0.000000 -0.707107 0.707107
vn 0.000000 -0.707107 0.707107
vn 0.000000 -0.707107 0.707107
vn -0.000000 -0.707107 0.707107
vn -0.000000 -0.707107 0.707107
vn -0.000000 -0.707107 0.707107
vn -0.000000 -0.707107 0.707107
vn 0.000000 -0.707107 0.707107
vn 0.000000 -0.707107 0.707107
vn 0.000000 -0.707107 0.707107
vn 0.000000 -0.707107 0.707106
vn -0.000000 -0.707107 0.707107
vn -0.000000 -0.707107 0.707107
vn -0.000000 -0.707107 0.707107
vn -0.000000 -0.707107 0.707107
vn 0.000000 -0.707107 -0.707107
vn 0.000000 -0.707107 -0.707107
vn 0.000000 -0.707107 -0.707107
vn 0.000000 -0.707107 -0.707107
vn -0.000000 0.707107 0.707107
vn -0.000000 0.707107 0.707107
vn -0.000000 0.707107 0.707107
vn -0.000000 0.707107 0.707107
vn -0.929136 -0.261445 -0.261445
vn -0.929136 -0.261445 -0.261445
vn -0.929136 -0.261445 -0.261445
vn -0.929136 -0.261445 -0.261445
vn 0.935024 0.250729 0.250728
vn 0.935024 0.250729 0.250728
vn 0.935024 0.250729 0.250728
vn 0.935024 0.250729 0.250728
vn 0.326865 0.668266 0.668266
vn 0.326865 0.668266 0.668266
vn 0.326865 0.668266 0.668266
vn 0.326865 0.668266 0.668266
vn 1.000000 -0.000000 0.000000
vn 1.000000 -0.000000 0.000000
vn 1.000000 -0.000000 0.000000
vn 1.000000 -0.000000 0.000000
vn -1.000000 -0.000000 -0.000000
vn -1.000000 -0.000000 -0.000000
vn -1.000000 -0.000000 -0.000000
vn -1.000000 -0.000000 -0.000000
vn 0.929136 -0.261445 -0.261445
vn 0.929136 -0.261445 -0.261445
vn 0.929136 -0.261445 -0.261445
vn 0.929136 -0.261445 -0.261445
vn -0.935024 0.250729 0.250729
vn -0.935024 0.250729 0.250729
vn -0.935024 0.250729 0.250729
vn -0.935024 0.250729 0.250729
vn -1.000000 -0.000000 -0.000000
vn -1.000000 -0.000000 -0.000000
vn -1.000000 -0.000000 -0.000000
vn -1.000000 -0.000000 -0.000000
vn -0.326866 0.668265 0.668266
vn -0.326866 0.668266 0.668266
vn -0.326866 0.668265 0.668266
vn -0.326866 0.668266 0.668266
vn 1.000000 0.000000 0.000000
vn 1.000000 0.000000 0.000000
vn 1.000000 0.000000 0.000000
vn 1.000000 0.000000 0.000000
vn -0.000000 0.707107 -0.707107
vn -0.000000 0.707106 -0.707107
vn -0.000000 0.707107 -0.707107
vn -0.000000 0.707107 -0.707107
vn -0.489219 -0.616711 -0.616711
vn -0.489219 -0.616711 -0.616711
vn -0.489219 -0.616711 -0.616711
vn -0.489219 -0.616711 -0.616711
vn 0.000000 -0.707107 0.707107
vn 0.000000 -0.707107 0.707107
vn 0.000000 -0.707107 0.707107
vn 0.000000 -0.707107 0.707107
vn 0.480183 0.620252 0.620252
vn 0.480183 0.620252 0.620252
vn 0.480183 0.620252 0.620252
vn 0.480183 0.620252 0.620252
vn 0.489219 -0.616711 -0.616711
vn 0.489218 -0.616711 -0.616711
vn 0.489218 -0.616711 -0.616711
vn 0.489219 -0.616711 -0.616711
vn 0.000000 0.707107 -0.707107
vn 0.000000 0.707107 -0.707107
vn 0.000000 0.707107 -0.707107
vn 0.000000 0.707107 -0.707107
vn -0.480183 0.620252 0.620251
vn -0.480183 0.620252 0.620251
vn -0.480183 0.620252 0.620251
vn -0.480183 0.620252 0.620251
vn 0.000000 -0.707107 0.707107
vn 0.000000 -0.707107 0.707107
vn 0.000000 -0.707107 0.707107
vn 0.000000 -0.707107 0.707107
vn 0.376895 -0.173278 -0.909904
vn 0.376895 -0.173278 -0.909904
vn 0.376895 -0.173278 -0.909904
vn 0.376895 -0.173278 -0.909904
vn -0.376894 -0.173278 -0.909904
vn -0.376894 -0.173278 -0.909904
vn -0.376894 -0.173278 -0.909904
vn -0.376894 -0.173278 -0.909904
vn -0.909904 -0.173278 -0.376895
vn -0.909904 -0.173278 -0.376895
vn -0.909904 -0.173278 -0.376895
vn -0.909904 -0.173278 -0.376895
vn -0.909904 -0.173278 0.376895
vn -0.909904 -0.173278 0.376895
vn -0.909904 -0.173278 0.376895
vn -0.909904 -0.173278 0.376895
vn -0.376895 -0.173278 0.909904
vn -0.376895 -0.173278 0.909904
vn -0.376895 -0.173278 0.909904
vn -0.376895 -0.173278 0.909904
vn 0.376895 -0.173278 0.909904
vn 0.376895 -0.173278 0.909904
vn 0.376895 -0.173278 0.909904
vn 0.376895 -0.173278 0.909904
vn 0.909904 -0.173278 0.376895
vn 0.909904 -0.173278 0.376895
vn 0.909904 -0.173278 0.376895
vn 0.909904 -0.173278 0.376895
vn 0.909904 -0.173278 -0.376895
vn 0.909904 -0.173278 -0.376895
vn 0.909904 -0.173278 -0.376895
vn 0.909904 -0.173278 -0.376895
vn 0.000000 -1.000000 0.000000
vn 0.000000 -1.000000 0.000000
vn 0.000000 -1.000000 0.000000
vn 0.000000 -1.000000 0.000000
vn 0.000000 -1.000000 0.000000
vn 0.000000 -1.000000 0.000000
vn 0.000000 -1.000000 0.000000
vn 0.000000 -1.000000 0.000000
vn 0.000000 -1.000000 0.000000
vn 0.000000 -1.000000 0.000000
vn 0.000000 -1.000000 0.000000
vn 0.000000 -1.000000 0.000000
vn 0.000000 -1.000000 0.000000
vn 0.000000 -1.000000 0.000000
vn 0.000000 -1.000000 0.000000
vn 0.000000 -1.000000 0.000000
vn 0.000000 -1.000000 0.000000
vn 0.000000 -1.000000 0.000000
vn 0.000000 -1.000000 0.000000
vn 0.000000 -1.000000 0.000000
vn 0.000000 -1.000000 0.000000
vn 0.000000 -1.000000 0.000000
vn 0.000000 -1.000000 0.000000
vn 0.000000 -1.000000 0.000000
vn 0.000000 1.000000 0.000000
vn 0.000000 1.000000 0.000000
vn 0.000000 1.000000 -0.000000
vn 0.000000 1.000000 0.000000
vn 0.000000 1.000000 0.000000
vn 0.000000 1.000000 -0.000000
vn 0.000000 1.000000 0.000000
vn 0.000000 1.000000 0.000000
vn 0.000000 1.000000 -0.000000
vn 0.000000 1.000000 0.000000
vn 0.000000 1.000000 0.000000
vn 0.000000 1.000000 -0.000000
vn 0.000000 1.000000 0.000000
vn 0.000000 1.000000 0.000000
vn 0.000000 1.000000 -0.000000
vn 0.000000 1.000000 0.000000
vn 0.000000 1.000000 -0.000000
vn 0.000000 1.000000 -0.000000
vn 0.000000 1.000000 -0.000000
vn 0.000000 1.000000 -0.000000
vn 0.000000 1.000000 -0.000000
vn 0.000000 1.000000 -0.000000
vn 0.000000 1.000000 0.000000
vn 0.000000 1.000000 -0.000000
vn 0.105251 0.961434 -0.254099
vn 0.105251 0.961434 -0.254099
vn 0.105251 0.961434 -0.254099
vn 0.105251 0.961434 -0.254099
vn -0.105251 0.961434 -0.254099
vn -0.105251 0.961434 -0.254099
vn -0.105251 0.961434 -0.254099
vn -0.105251 0.961434 -0.254099
vn -0.254099 0.961434 -0.105251
vn -0.254099 0.961434 -0.105251
vn -0.254099 0.961434 -0.105251
vn -0.254099 0.961434 -0.105251
vn -0.254099 0.961434 0.105251
vn -0.254099 0.961434 0.105251
vn -0.254099 0.961434 0.105251
vn -0.254099 0.961434 0.105251
vn -0.105251 0.961434 0.254099
vn -0.105251 0.961434 0.254099
vn -0.105251 0.961434 0.254099
vn -0.105251 0.961434 0.254099
vn 0.105251 0.961434 0.254099
vn 0.105251 0.961434 0.254099
vn 0.105251 0.961434 0.254099
vn 0.105251 0.961434 0.254099
vn 0.254098 0.961435 0.105251
vn 0.254098 0.961435 0.105251
vn 0.254098 0.961435 0.105251
vn 0.254098 0.961435 0.105251
vn 0.254098 0.961434 -0.105251
vn 0.254098 0.961434 -0.105251
vn 0.254098 0.961434 -0.105251
vn 0.254098 0.961434 -0.105251
vn -0.379534 0.128037 0.916275
vn -0.379534 0.128037 0.916275
vn -0.379534 0.128037 0.916275
vn -0.379534 0.128037 0.916275
vn 0.379534 0.128037 0.916276
vn 0.379534 0.128037 0.916275
vn 0.379534 0.128037 0.916276
vn 0.379534 0.128037 0.916275
vn 0.916276 0.128037 0.379534
vn 0.916275 0.128037 0.379534
vn 0.916275 0.128037 0.379534
vn 0.916275 0.128037 0.379534
vn 0.916275 0.128037 -0.379534
vn 0.916275 0.128037 -0.379534
vn 0.916275 0.128037 -0.379534
vn 0.916275 0.128037 -0.379534
vn 0.379534 0.128037 -0.916275
vn 0.379534 0.128037 -0.916275
vn 0.379534 0.128037 -0.916275
vn 0.379534 0.128037 -0.916275
vn -0.379534 0.128037 -0.916275
vn -0.379534 0.128037 -0.916275
vn -0.379534 0.128037 -0.916275
vn -0.379534 0.128037 -0.916275
vn -0.916275 0.128037 -0.379534
vn -0.916275 0.128037 -0.379534
vn -0.916275 0.128037 -0.379534
vn -0.916275 0.128037 -0.379534
vn -0.916276 0.128037 0.379534
vn -0.916276 0.128037 0.379534
vn -0.916276 0.128037 0.379534
vn -0.916276 0.128037 0.379534
s off
f 13/25/1 14/26/2 15/27/3 16/28/4
f 25/37/5 26/38/6 17/29/7 18/30/8
f 19/31/9 20/32/10 21/33/11 22/34/12
f 21/33/13 30/45/14 31/46/15 22/34/16
f 17/29/17 23/35/18 24/36/19 18/30/20
f 1/13/21 5/16/22 6/15/23 2/14/24
f 27/40/25 28/41/26 7/18/27 3/17/28
f 11/19/29 8/22/30 4/21/31 12/20/32
f 4/21/33 8/22/34 32/47/35 29/44/36
f 3/17/37 7/18/38 9/24/39 10/23/40
f 1/3/41 2/2/42 14/26/43 13/25/44
f 6/6/45 5/5/46 16/28/47 15/27/48
f 26/38/49 27/39/50 3/1/51 17/29/52
f 7/7/53 28/42/54 25/37/55 18/30/56
f 11/11/57 12/12/58 20/32/59 19/31/60
f 12/12/61 4/4/62 21/33/63 20/32/64
f 8/8/65 11/11/66 19/31/67 22/34/68
f 4/4/69 29/43/70 30/45/71 21/33/72
f 31/46/73 32/48/74 8/8/75 22/34/76
f 3/1/77 10/10/78 23/35/79 17/29/80
f 10/10/81 9/9/82 24/36/83 23/35/84
f 9/9/85 7/7/86 18/30/87 24/36/88
f 14/26/89 26/38/90 25/37/91 15/27/92
f 2/2/93 27/39/94 26/38/95 14/26/96
f 2/14/97 6/15/98 28/41/99 27/40/100
f 25/37/101 28/42/102 6/6/103 15/27/104
f 30/45/105 29/43/106 1/3/107 13/25/108
f 31/46/109 30/45/110 13/25/111 16/28/112
f 5/5/113 32/48/114 31/46/115 16/28/116
f 29/44/117 32/47/118 5/16/119 1/13/120
f 33/49/121 34/50/122 42/51/123 41/52/124
f 34/50/125 35/53/126 43/54/127 42/51/128
f 35/53/129 36/55/130 44/56/131 43/54/132
f 36/55/133 37/57/134 45/58/135 44/56/136
f 37/57/137 38/59/138 46/60/139 45/58/140
f 38/59/141 39/61/142 47/62/143 46/60/144
f 39/61/145 40/63/146 48/64/147 47/62/148
f 40/63/149 33/65/150 41/66/151 48/64/152
f 34/67/153 33/68/154 49/69/155
f 35/70/156 34/67/157 49/69/158
f 36/71/159 35/70/160 49/69/161
f 37/72/162 36/71/163 49/69/164
f 38/73/165 37/72/166 49/69/167
f 39/74/168 38/73/169 49/69/170
f 40/75/171 39/74/172 49/69/173
f 33/68/174 40/75/175 49/69/176
f 58/76/177 59/77/178 60/78/179
f 59/77/180 61/79/181 60/78/182
f 61/79/183 62/80/184 60/78/185
f 62/80/186 63/81/187 60/78/188
f 63/81/189 64/82/190 60/78/191
f 64/82/192 65/83/193 60/78/194
f 65/83/195 66/84/196 60/78/197
f 66/84/198 58/76/199 60/78/200
f 41/85/201 42/86/202 51/87/203 50/88/204
f 42/86/205 43/89/206 52/90/207 51/87/208
f 43/89/209 44/91/210 53/92/211 52/90/212
f 44/91/213 45/93/214 54/94/215 53/92/216
f 45/93/217 46/95/218 55/96/219 54/94/220
f 46/95/221 47/97/222 56/98/223 55/96/224
f 47/97/225 48/99/226 57/100/227 56/98/228
f 48/99/229 41/85/230 50/88/231 57/100/232
f 50/88/233 51/87/234 59/77/235 58/76/236
f 51/87/237 52/90/238 61/79/239 59/77/240
f 52/90/241 53/92/242 62/80/243 61/79/244
f 53/92/245 54/94/246 63/81/247 62/80/248
f 54/94/249 55/96/250 64/82/251 63/81/252
f 55/96/253 56/98/254 65/83/255 64/82/256
f 56/98/257 57/100/258 66/84/259 65/83/260
f 57/100/261 50/88/262 58/76/263 66/84/264
