# This file uses centimeters as units for non-parametric coordinates.

v 30.620405 -3.298747 42.659252
v -30.620403 -3.298747 22.524689
v 30.620405 -3.298747 -42.659256
v -30.620403 3.298747 22.524689
v 30.620405 3.298747 -42.659256
v 30.620405 3.298747 42.659252
vt 0.208163 0.165781
vt 0.199036 0.156944
vt 0.208163 0.154214
vt 0.208163 0.165781
vt 0.199036 0.156944
vt 0.208163 0.154214
vt 0.208163 0.165781
vt 0.199036 0.156944
vt 0.208163 0.154214
vn 0.000000 1.000000 0.000000
vn 0.000000 1.000000 0.000000
vn 0.000000 1.000000 0.000000
vn 0.000000 -1.000000 0.000000
vn 0.000000 -1.000000 0.000000
vn 0.000000 -1.000000 0.000000
vn -0.728807 0.000000 -0.684720
vn -0.728807 0.000000 -0.684720
vn -0.728807 0.000000 -0.684720
vn -0.728807 0.000000 -0.684720
vn -0.312330 0.000000 0.949974
vn -0.312330 0.000000 0.949974
vn -0.312330 0.000000 0.949974
vn -0.312330 0.000000 0.949974
vn 1.000000 0.000000 0.000000
vn 1.000000 0.000000 0.000000
vn 1.000000 0.000000 0.000000
vn 1.000000 0.000000 0.000000
s off
f 5/7/1 4/8/2 6/9/3
f 3/4/4 1/6/5 2/5/6
f 3/1/7 2/2/8 4/8/9 5/7/10
f 2/2/11 1/3/12 6/9/13 4/8/14
f 1/3/15 3/1/16 5/7/17 6/9/18
