# This file uses centimeters as units for non-parametric coordinates.

v 30.494873 32.642754 36.550293
v 29.333008 32.642754 -38.531982
v 40.381592 32.642754 36.385498
v 39.219727 32.642754 -38.696777
v 29.333008 25.877766 -38.531982
v 30.494873 25.877766 36.550293
v 40.381592 25.877766 36.385498
v 39.219727 25.877766 -38.696777
v -38.826416 32.642761 37.705078
v -39.988525 32.642761 -37.377197
v -29.637207 32.642761 37.552734
v -30.799316 31.115253 -37.530029
v -39.988525 25.877766 -37.377197
v -38.826416 25.877766 37.705078
v -29.637207 25.877766 37.552734
v -30.799316 25.877766 -37.530029
v -3.815674 17.170271 38.209473
v 6.570557 17.170271 38.042725
v -3.815674 27.557833 38.209473
v 6.570557 27.557833 38.042725
v -3.864746 27.557833 35.145996
v 6.521484 27.557833 34.979492
v -3.864746 17.170271 35.145996
v 6.521484 17.170271 34.979492
v -72.381592 0.000000 36.862061
v 73.543945 0.000000 34.518799
v -72.381592 28.089050 36.862061
v 73.543945 30.717594 34.518799
v -73.543701 30.717594 -35.503906
v 72.381836 28.424057 -37.847168
v -73.543701 0.000000 -35.503906
v 72.381836 0.000000 -37.847168
v -72.381592 21.254995 36.862061
v -73.543701 21.254995 -35.503906
v 73.543945 21.254995 34.518799
v 72.381836 21.254995 -37.847168
v -73.543701 24.234793 -35.503906
v -72.381592 24.234793 36.862061
v 72.381836 24.234793 -37.847168
v 73.543945 24.234793 34.518799
v -1.241943 17.170271 38.209473
v 3.972412 17.170271 38.042725
v 3.972412 25.754311 38.042725
v -1.241943 25.754311 38.209473
v -1.266602 17.170271 36.351807
v 3.947754 17.170271 36.185303
v -1.225586 14.422918 40.132080
v 3.988770 14.422918 39.965332
v 4.005127 25.338388 39.329590
v -1.209229 25.338388 39.496338
v -1.266602 14.422918 37.765625
v 3.947754 14.422918 37.599121
v 72.796143 22.857912 34.027832
v 71.645752 22.857912 -37.323242
v -72.795898 22.857912 -35.012939
v -71.645508 22.857912 36.338135
v -64.924561 30.717594 36.768311
v -72.589355 30.717594 23.922607
v -30.673340 32.642761 -29.380859
v -34.119629 32.642761 -37.474854
v -1.002441 30.717596 35.716064
v 29.342285 30.717594 35.228516
v 16.689697 30.717594 26.362061
v 16.434082 28.064589 35.436035
v 72.462158 30.717594 -32.851807
v 61.895264 30.717594 -37.678711
v 73.543945 4.242710 34.518799
v 73.543945 16.557407 34.518799
v 70.567139 10.666971 34.557373
v 73.506836 11.812756 32.205322
vt 0.123047 0.157768
vt 0.123047 0.157768
vt 0.123047 0.157768
vt 0.123047 0.157768
vt 0.123047 0.157768
vt 0.123047 0.157768
vt 0.123047 0.157768
vt 0.123047 0.157768
vt 0.123047 0.157768
vt 0.123047 0.157768
vt 0.123047 0.157768
vt 0.123047 0.157768
vt 0.123047 0.157768
vt 0.123047 0.157768
vt 0.123047 0.157768
vt 0.123047 0.157768
vt 0.101807 0.228197
vt 0.101807 0.228197
vt 0.101807 0.228197
vt 0.101807 0.228197
vt 0.101807 0.228197
vt 0.101807 0.228197
vt 0.101807 0.228197
vt 0.101807 0.228197
vt 0.123047 0.157768
vt 0.123047 0.157768
vt 0.123047 0.157768
vt 0.123047 0.157768
vt 0.123047 0.157768
vt 0.123047 0.157768
vt 0.123047 0.157768
vt 0.123047 0.157768
vt 0.122559 0.162864
vt 0.122559 0.162864
vt 0.122559 0.162864
vt 0.122559 0.162864
vt 0.122559 0.179405
vt 0.122559 0.179405
vt 0.122559 0.179405
vt 0.122559 0.179405
vt 0.122559 0.179405
vt 0.122559 0.179405
vt 0.122559 0.179405
vt 0.122559 0.179405
vt 0.122559 0.179405
vt 0.122559 0.179405
vt 0.122559 0.179405
vt 0.122559 0.179405
vt 0.101807 0.228197
vt 0.101807 0.228197
vt 0.101807 0.228197
vt 0.101807 0.228197
vt 0.101807 0.228197
vt 0.101807 0.228197
vt 0.101074 0.277065
vt 0.101074 0.277065
vt 0.101074 0.277067
vt 0.101074 0.277067
vt 0.101074 0.277065
vt 0.101074 0.277065
vt 0.101074 0.277067
vt 0.101074 0.277067
vt 0.101074 0.277067
vt 0.101074 0.277067
vt 0.101074 0.277067
vt 0.101074 0.277067
vt 0.123047 0.157768
vt 0.123047 0.157768
vt 0.123047 0.157768
vt 0.123047 0.157768
vt 0.122559 0.179405
vt 0.122559 0.179405
vt 0.123047 0.157768
vt 0.123047 0.157768
vt 0.122559 0.179405
vt 0.122559 0.179405
vt 0.122559 0.179405
vt 0.122559 0.179405
vt 0.122559 0.179405
vt 0.122559 0.179405
vt 0.122559 0.179405
vt 0.122559 0.179405
vt 0.122559 0.179405
vt 0.122559 0.179405
vn 0.000000 1.000000 0.000000
vn 0.000000 1.000000 0.000000
vn 0.000000 1.000000 0.000000
vn 0.000000 1.000000 0.000000
vn -0.999880 0.000000 0.015473
vn -0.999880 0.000000 0.015473
vn -0.999880 0.000000 0.015473
vn -0.999880 0.000000 0.015473
vn 0.016666 0.000000 0.999861
vn 0.016666 0.000000 0.999861
vn 0.016666 0.000000 0.999861
vn 0.016666 0.000000 0.999861
vn 0.999880 0.000000 -0.015473
vn 0.999880 0.000000 -0.015473
vn 0.999880 0.000000 -0.015473
vn 0.999880 0.000000 -0.015473
vn -0.016666 0.000000 -0.999861
vn -0.016666 0.000000 -0.999861
vn -0.016666 0.000000 -0.999861
vn -0.016666 0.000000 -0.999861
vn 0.000000 1.000000 0.000000
vn 0.000000 1.000000 0.000000
vn 0.000000 1.000000 0.000000
vn 0.000000 1.000000 0.000000
vn 0.000000 1.000000 0.000000
vn -0.999880 0.000000 0.015476
vn -0.999880 0.000000 0.015476
vn -0.999880 0.000000 0.015476
vn -0.999880 0.000000 0.015476
vn 0.016576 0.000000 0.999863
vn 0.016576 0.000000 0.999863
vn 0.016576 0.000000 0.999863
vn 0.016576 0.000000 0.999863
vn 0.999880 0.000012 -0.015476
vn 0.999880 0.000012 -0.015476
vn 0.999880 0.000012 -0.015476
vn 0.999880 0.000012 -0.015476
vn 0.999880 0.000012 -0.015476
vn -0.016630 -0.000004 -0.999862
vn -0.016630 -0.000004 -0.999862
vn -0.016630 -0.000004 -0.999862
vn -0.016630 -0.000004 -0.999862
vn -0.016630 -0.000004 -0.999862
vn 0.000000 -1.000000 0.000000
vn 0.000000 -1.000000 0.000000
vn 0.000000 -1.000000 0.000000
vn 0.000000 -1.000000 0.000000
vn 0.000000 -1.000000 0.000000
vn 0.000000 -1.000000 0.000000
vn 0.000000 -1.000000 0.000000
vn 0.000000 -1.000000 0.000000
vn 0.031909 0.058067 0.997803
vn 0.031909 0.058067 0.997803
vn 0.031909 0.058067 0.997803
vn 0.031909 0.058067 0.997803
vn 0.000000 1.000000 0.000000
vn 0.000000 1.000000 0.000000
vn 0.000000 1.000000 0.000000
vn 0.000000 1.000000 0.000000
vn 0.000000 -1.000000 -0.000000
vn 0.000000 -1.000000 -0.000000
vn 0.000000 -1.000000 -0.000000
vn 0.000000 -1.000000 -0.000000
vn 0.999872 0.000000 -0.016018
vn 0.999872 0.000000 -0.016018
vn 0.999872 0.000000 -0.016018
vn 0.999872 0.000000 -0.016018
vn -0.999872 0.000000 0.016016
vn -0.999872 0.000000 0.016016
vn -0.999872 0.000000 0.016016
vn -0.999872 0.000000 0.016016
vn 0.015036 -0.345827 0.938178
vn 0.015036 -0.345827 0.938178
vn 0.015036 -0.345827 0.938178
vn 0.015036 -0.345827 0.938178
vn -0.015036 -0.345827 -0.938178
vn -0.015036 -0.345827 -0.938178
vn -0.015036 -0.345827 -0.938178
vn -0.015036 -0.345827 -0.938178
vn 0.000000 -1.000000 0.000000
vn 0.000000 -1.000000 0.000000
vn 0.000000 -1.000000 0.000000
vn 0.000000 -1.000000 0.000000
vn 0.880165 -0.474456 -0.014162
vn 0.880165 -0.474456 -0.014162
vn 0.880165 -0.474456 -0.014162
vn 0.880165 -0.474456 -0.014162
vn -0.999871 0.000000 0.016057
vn -0.999871 0.000000 0.016057
vn -0.999871 0.000000 0.016057
vn -0.999871 0.000000 0.016057
vn -0.324009 0.926090 0.193330
vn -0.324009 0.926090 0.193330
vn -0.324009 0.926090 0.193330
vn 0.016118 0.000022 0.999870
vn 0.016036 -0.000007 0.999871
vn 0.016118 -0.000021 0.999870
vn 0.999871 -0.000004 -0.016057
vn 0.999871 -0.000000 -0.016057
vn 0.999871 0.000000 -0.016057
vn 0.999871 -0.000004 -0.016057
vn -0.016056 0.000000 -0.999871
vn -0.016056 0.000000 -0.999871
vn -0.016056 0.000000 -0.999871
vn -0.016056 0.000000 -0.999871
vn -0.880167 -0.474453 0.014162
vn -0.880167 -0.474453 0.014162
vn -0.880167 -0.474453 0.014162
vn -0.880167 -0.474453 0.014162
vn -0.016056 0.000005 -0.999871
vn -0.016056 0.000005 -0.999871
vn -0.016056 0.000005 -0.999871
vn -0.016056 0.000005 -0.999871
vn -0.016056 0.000005 -0.999871
vn 0.999871 -0.000007 -0.016056
vn 0.999871 -0.000007 -0.016056
vn 0.999871 -0.000007 -0.016056
vn 0.999871 -0.000007 -0.016056
vn 0.999871 -0.000007 -0.016056
vn 0.000001 0.000000 1.000000
vn 0.000001 0.000000 1.000000
vn 0.000001 0.000000 1.000000
vn 0.000001 0.000000 1.000000
vn 0.021372 -0.000145 0.999772
vn 0.021372 -0.000145 0.999772
vn 0.021372 -0.000145 0.999772
vn 0.021372 -0.000145 0.999772
vn -0.000000 0.000000 1.000000
vn -0.000000 0.000000 1.000000
vn -0.000000 0.000000 1.000000
vn -0.000000 0.000000 1.000000
vn 0.000000 -1.000000 -0.000000
vn 0.000000 -1.000000 -0.000000
vn 0.000000 -1.000000 -0.000000
vn 0.000000 -1.000000 -0.000000
vn 0.000000 -1.000000 0.000000
vn 0.000000 -1.000000 0.000000
vn 0.000000 -1.000000 0.000000
vn 0.000000 -1.000000 0.000000
vn 0.000000 -1.000000 0.000000
vn 0.000000 -1.000000 0.000000
vn 0.000000 -1.000000 0.000000
vn 0.000000 -1.000000 0.000000
vn 0.999860 -0.001382 -0.016649
vn 0.999860 -0.001382 -0.016649
vn 0.999861 -0.001382 -0.016649
vn 0.999861 -0.001382 -0.016649
vn 0.009827 0.951562 0.307301
vn 0.009827 0.951562 0.307301
vn 0.009827 0.951562 0.307301
vn 0.009827 0.951562 0.307301
vn -0.999861 0.001382 0.016649
vn -0.999860 0.001382 0.016649
vn -0.999860 0.001382 0.016649
vn -0.999860 0.001382 0.016649
vn -0.028382 -0.457392 -0.888812
vn -0.028382 -0.457392 -0.888812
vn -0.028382 -0.457392 -0.888812
vn -0.028382 -0.457392 -0.888812
vn 0.999858 -0.006464 -0.015547
vn 0.999858 -0.006464 -0.015547
vn 0.999858 -0.006464 -0.015547
vn 0.999858 -0.006464 -0.015547
vn -0.999858 0.006463 0.015545
vn -0.999858 0.006463 0.015545
vn -0.999858 0.006463 0.015545
vn -0.999858 0.006463 0.015545
vn 0.907344 0.420135 -0.014600
vn 0.907344 0.420135 -0.014600
vn 0.907344 0.420135 -0.014600
vn 0.907344 0.420135 -0.014600
vn -0.015277 0.301830 -0.953240
vn -0.015277 0.301830 -0.953240
vn -0.015277 0.301830 -0.953240
vn -0.015277 0.301830 -0.953240
vn -0.907345 0.420133 0.014600
vn -0.907345 0.420133 0.014600
vn -0.907345 0.420133 0.014600
vn -0.907345 0.420133 0.014600
vn 0.015277 0.301830 0.953240
vn 0.015277 0.301830 0.953240
vn 0.015277 0.301830 0.953240
vn 0.015277 0.301830 0.953240
vn 0.016143 -0.002444 0.999867
vn 0.016063 -0.000220 0.999871
vn 0.016145 -0.002494 0.999867
vn 0.016145 -0.002494 0.999867
vn 0.016145 -0.002494 0.999867
vn 0.000000 1.000000 -0.000000
vn 0.000000 1.000000 -0.000000
vn 0.000000 1.000000 0.000000
vn -0.000000 1.000000 0.000000
vn 0.000000 1.000000 -0.000000
vn -0.999871 0.000003 0.016057
vn -0.999871 0.000003 0.016057
vn -0.999871 0.000003 0.016057
vn -0.999871 0.000003 0.016057
vn -0.999871 0.000003 0.016057
vn 0.409161 0.895677 -0.174214
vn 0.409161 0.895677 -0.174214
vn 0.409161 0.895677 -0.174214
vn -0.189633 0.943827 0.270610
vn -0.189633 0.943827 0.270610
vn -0.189633 0.943827 0.270610
vn 0.148759 0.948001 0.281363
vn 0.148759 0.948001 0.281363
vn 0.148759 0.948001 0.281363
vn 0.188331 0.891375 -0.412289
vn 0.188331 0.891375 -0.412289
vn 0.188331 0.891375 -0.412289
vn 0.544635 0.247557 0.801304
vn 0.544635 0.247557 0.801304
vn 0.544635 0.247557 0.801304
vn 0.664813 -0.331589 0.669382
vn 0.664813 -0.331589 0.669382
vn 0.664813 -0.331589 0.669382
vn -0.000000 1.000000 0.000000
vn -0.000000 1.000000 0.000000
vn -0.000000 1.000000 0.000000
vn -0.000000 1.000000 0.000000
vn -0.000000 1.000000 0.000000
vn -0.000000 1.000000 0.000000
vn 0.000000 1.000000 0.000000
vn -0.000000 1.000000 0.000000
vn 0.016063 -0.000220 0.999871
vn 0.016058 0.000020 0.999871
vn 0.016058 0.000024 0.999871
vn 0.016058 0.000024 0.999871
vn 0.016143 -0.002444 0.999867
vn 0.016058 0.000020 0.999871
vn 0.016063 -0.000220 0.999871
vn 0.016118 0.000022 0.999870
vn 0.016031 0.000858 0.999871
vn 0.016031 0.000858 0.999871
vn 0.016036 -0.000007 0.999871
vn 0.016118 -0.000021 0.999870
vn 0.016036 -0.000007 0.999871
vn 0.016028 -0.000864 0.999871
vn 0.016028 -0.000864 0.999871
vn 0.999871 0.000000 -0.016057
vn 0.999871 0.000000 -0.016057
vn 0.999871 0.000005 -0.016056
vn 0.999871 0.000005 -0.016056
vn 0.999871 0.000000 -0.016057
vn 0.999871 -0.000000 -0.016057
vn 0.999871 0.000000 -0.016057
s off
f 2/1/1 1/2/2 3/3/3 4/4/4
f 5/5/5 6/6/6 1/2/7 2/1/8
f 6/6/9 7/7/10 3/3/11 1/2/12
f 7/7/13 8/8/14 4/4/15 3/3/16
f 8/8/17 5/5/18 2/1/19 4/4/20
f 10/9/21 9/10/22 11/11/23 59/73/24 60/74/25
f 13/13/26 14/14/27 9/10/28 10/9/29
f 14/14/30 15/15/31 11/11/32 9/10/33
f 15/15/34 16/16/35 12/12/36 59/73/37 11/11/38
f 16/16/39 13/13/40 10/9/41 60/74/42 12/12/43
f 6/6/44 5/5/45 8/8/46 7/7/47
f 13/13/48 16/16/49 15/15/50 14/14/51
f 47/55/52 48/56/53 49/57/54 50/58/55
f 19/20/56 20/19/57 22/21/58 21/22/59
f 51/59/60 52/60/61 48/56/62 47/55/63
f 18/18/64 24/24/65 22/21/66 20/19/67
f 23/23/68 17/17/69 19/20/70 21/22/71
f 56/70/72 53/67/73 40/27/74 38/28/75
f 37/29/76 39/30/77 54/68/78 55/69/79
f 31/33/80 32/34/81 26/35/82 25/36/83
f 53/67/84 54/68/85 39/30/86 40/27/87
f 31/33/88 25/36/89 33/37/90 34/38/91
f 57/71/92 58/72/93 27/42/94
f 25/36/95 69/83/96 33/37/97
f 26/35/98 32/34/99 70/84/100 67/81/101
f 34/38/102 36/46/103 32/34/104 31/33/105
f 55/69/106 56/70/107 38/28/108 37/29/109
f 29/41/110 66/80/111 30/40/112 39/47/113 37/43/114
f 40/48/115 39/47/116 30/40/117 65/79/118 28/39/119
f 18/18/120 20/19/121 43/50/122 42/49/123
f 20/19/124 19/20/125 44/51/126 43/50/127
f 19/20/128 17/17/129 41/52/130 44/51/131
f 23/23/132 24/24/133 46/54/134 45/53/135
f 24/24/136 18/18/137 42/49/138 46/54/139
f 17/17/140 23/23/141 45/53/142 41/52/143
f 42/61/144 43/62/145 49/57/146 48/56/147
f 43/62/148 44/63/149 50/58/150 49/57/151
f 44/63/152 41/64/153 47/55/154 50/58/155
f 45/65/156 46/66/157 52/60/158 51/59/159
f 46/66/160 42/61/161 48/56/162 52/60/163
f 41/64/164 45/65/165 51/59/166 47/55/167
f 35/26/168 36/31/169 54/68/170 53/67/171
f 55/69/172 54/68/173 36/31/174 34/32/175
f 34/32/176 33/25/177 56/70/178 55/69/179
f 33/25/180 35/26/181 53/67/182 56/70/183
f 38/44/184 64/78/185 61/75/186 57/71/187 27/42/188
f 28/39/189 65/79/190 66/80/191 63/77/192 62/76/193
f 37/43/194 38/44/195 27/42/196 58/72/197 29/41/198
f 60/74/199 59/73/200 12/12/201
f 62/76/202 63/77/203 64/78/204
f 64/78/205 63/77/206 61/75/207
f 66/80/208 65/79/209 30/40/210
f 67/81/211 70/84/212 69/83/213
f 69/83/214 70/84/215 68/82/216
f 63/77/217 29/41/218 58/72/219 57/71/220 61/75/221
f 63/77/222 66/80/223 29/41/224
f 64/78/225 40/48/226 28/39/227 62/76/228
f 38/44/229 40/48/230 64/78/231
f 25/36/232 26/35/233 67/81/234 69/83/235
f 33/37/236 69/83/237 68/82/238 35/45/239
f 70/84/240 36/46/241 35/45/242 68/82/243
f 70/84/244 32/34/245 36/46/246
