# This file uses centimeters as units for non-parametric coordinates.

v 74.208740 87.464386 5.495728
v 70.088867 87.865242 5.999878
v 68.419067 84.035820 6.275696
v 71.506958 81.268250 5.941956
v 75.085083 83.387230 5.459900
v 74.462036 87.365868 8.629883
v 70.342163 87.766701 9.134033
v 68.672363 83.937286 9.409851
v 71.760254 81.169739 9.076172
v 75.338501 83.288712 8.594116
v 72.115112 84.705673 8.968811
v -66.779297 102.083817 5.775024
v -70.850952 102.936394 5.775024
v -72.920044 99.327461 5.775024
v -70.127075 96.244446 5.775024
v -66.331909 97.947960 5.775024
v -66.779297 102.083817 8.936462
v -70.850952 102.936394 8.936462
v -72.920044 99.327461 8.936462
v -70.127075 96.244446 8.936462
v -66.331909 97.947960 8.936462
v -69.401855 99.708023 8.936462
v 74.143921 126.293747 5.495728
v 70.009399 126.095871 5.999878
v 68.909668 122.065590 6.275696
v 72.364502 119.772591 5.941956
v 75.599487 122.385735 5.459900
v 74.408813 126.232811 8.629883
v 70.274292 126.034935 9.134033
v 69.174561 122.004654 9.409851
v 72.629517 119.711662 9.076172
v 75.864380 122.324791 8.594116
v 72.470337 123.261780 8.968811
v -67.554688 123.998604 5.775024
v -71.706665 124.254692 5.775024
v -73.233398 120.384956 5.775024
v -70.024780 117.737236 5.775024
v -66.515137 119.970596 5.775024
v -67.554688 123.998604 8.936462
v -71.706665 124.254692 8.936462
v -73.233398 120.384956 8.936462
v -70.024780 117.737236 8.936462
v -66.515137 119.970596 8.936462
v -69.806885 121.269226 8.936462
v -83.972168 90.927917 0.483459
v 80.400513 75.213470 0.483459
v -83.972168 90.927917 6.754883
v 80.400513 75.213470 3.489807
v -83.319458 109.247749 6.754883
v 81.053101 93.533432 6.754883
v -83.319458 109.247749 0.483459
v 81.053101 93.533432 0.483459
v -81.251465 110.387657 0.483459
v 83.971924 113.917557 0.483459
v -81.251465 110.387657 6.754883
v 83.971924 113.917557 6.754883
v -81.670654 130.008896 6.754883
v 83.552734 133.538788 4.247192
v -81.670654 130.008896 0.483459
v 83.552734 133.538788 0.483459
v 59.189819 133.018295 6.754883
v 83.753906 124.119797 6.754883
v 61.335693 77.036240 6.754883
v 80.617432 81.305489 6.754883
v -26.310669 111.561432 6.754883
v -45.610596 111.149101 4.843933
v -71.770996 110.590202 6.754883
v -47.172363 115.103645 6.754883
v 77.404419 0.000000 -9.409912
v 66.015747 0.000000 -9.409912
v 77.404419 146.453766 -5.791992
v 66.015747 146.453766 -9.409912
v 77.404419 146.453766 1.978638
v 66.015747 146.453766 1.978638
v 77.404419 0.000000 1.978638
v 66.015747 0.000000 -1.235352
v 74.016724 146.453766 -9.409912
v 77.404419 142.761841 -9.409912
v 70.028076 0.000000 1.978638
v 66.015747 12.468632 1.978638
v 66.015747 31.123196 -9.409912
v 66.015747 55.105431 -9.409912
v 69.047974 44.173592 -9.136108
v 66.289551 45.008636 -5.758118
v 77.404419 108.562668 1.978638
v 77.404419 80.167473 1.978638
v 73.792236 90.145439 1.704834
v 77.130615 94.085464 -2.630859
v 67.394287 70.462624 0.600098
v 76.025879 81.152397 -8.031372
v -75.719482 0.000000 1.978638
v -64.330933 0.000000 1.978638
v -75.719482 146.453766 -1.639282
v -64.330933 146.453766 1.978638
v -75.719482 146.453766 -9.409912
v -64.330933 146.453766 -9.409912
v -75.719482 0.000000 -9.409912
v -64.330933 0.000000 -6.195923
v -72.331909 146.453766 1.978638
v -75.719482 142.761841 1.978638
v -68.343262 0.000000 -9.409912
v -64.330933 12.468632 -9.409912
v -64.330933 31.123196 1.978638
v -64.330933 55.105431 1.978638
v -67.363159 44.173592 1.704834
v -64.604736 45.008636 -1.673157
v -75.719482 108.562668 -9.409912
v -75.719482 80.167473 -9.409912
v -72.107422 90.145439 -9.136108
v -75.445801 94.085464 -4.800415
v -65.709473 70.462624 -8.031372
v -74.341064 81.152397 0.600098
vt 0.098813 0.230518
vt 0.098813 0.230518
vt 0.098813 0.230518
vt 0.098813 0.230518
vt 0.098813 0.230518
vt 0.098813 0.230518
vt 0.098813 0.230518
vt 0.098813 0.230518
vt 0.098813 0.230518
vt 0.098813 0.230518
vt 0.098813 0.230518
vt 0.098813 0.230518
vt 0.098813 0.230518
vt 0.098813 0.230518
vt 0.098813 0.230518
vt 0.098813 0.230518
vt 0.098813 0.230518
vt 0.098813 0.230518
vt 0.098813 0.230518
vt 0.098813 0.230518
vt 0.098813 0.230518
vt 0.098813 0.230518
vt 0.098813 0.230518
vt 0.098813 0.230518
vt 0.098813 0.230518
vt 0.098813 0.230518
vt 0.098813 0.230518
vt 0.098813 0.230518
vt 0.098813 0.230518
vt 0.098813 0.230518
vt 0.098813 0.230518
vt 0.098813 0.230518
vt 0.098813 0.230518
vt 0.098813 0.230518
vt 0.098813 0.230518
vt 0.098813 0.230518
vt 0.098813 0.230518
vt 0.098813 0.230518
vt 0.098813 0.230518
vt 0.098813 0.230518
vt 0.098813 0.230518
vt 0.098813 0.230518
vt 0.098813 0.230518
vt 0.098813 0.230518
vt 0.098813 0.230518
vt 0.098813 0.230518
vt 0.098813 0.230518
vt 0.098813 0.230518
vt 0.098813 0.230518
vt 0.098813 0.230518
vt 0.098813 0.230518
vt 0.098813 0.230518
vt 0.098813 0.230518
vt 0.098813 0.230518
vt 0.098813 0.230518
vt 0.098813 0.230518
vt 0.098813 0.230518
vt 0.098813 0.230518
vt 0.098813 0.230518
vt 0.098813 0.230518
vt 0.098813 0.230518
vt 0.098813 0.230518
vt 0.098813 0.230518
vt 0.098813 0.230518
vt 0.098813 0.230518
vt 0.098813 0.230518
vt 0.098813 0.230518
vt 0.098813 0.230518
vt 0.098813 0.230518
vt 0.098813 0.230518
vt 0.098813 0.230518
vt 0.098813 0.230518
vt 0.047394 0.309995
vt 0.047394 0.268549
vt 0.047394 0.268549
vt 0.047394 0.268549
vt 0.047394 0.309995
vt 0.047394 0.268549
vt 0.047394 0.309995
vt 0.047394 0.309995
vt 0.047394 0.309995
vt 0.047394 0.309995
vt 0.047394 0.268549
vt 0.047394 0.309995
vt 0.047394 0.309995
vt 0.047394 0.309995
vt 0.047394 0.268549
vt 0.047394 0.309995
vt 0.047394 0.309995
vt 0.047394 0.309995
vt 0.047394 0.309995
vt 0.047394 0.309995
vt 0.047394 0.274201
vt 0.047394 0.309995
vt 0.047394 0.309995
vt 0.047394 0.283405
vt 0.047394 0.274201
vt 0.047394 0.283405
vt 0.047394 0.274201
vt 0.047394 0.274201
vt 0.047394 0.274201
vt 0.047394 0.274201
vt 0.047394 0.274201
vt 0.047394 0.309995
vt 0.047394 0.309995
vt 0.047394 0.309995
vt 0.047394 0.309995
vt 0.047394 0.309995
vt 0.047394 0.274201
vt 0.047394 0.274201
vt 0.058530 0.249997
vt 0.058530 0.249997
vt 0.058530 0.276304
vt 0.058530 0.276304
vt 0.058530 0.276304
vt 0.058530 0.254381
vt 0.058530 0.254381
vt 0.058530 0.276304
vt 0.058530 0.276304
vt 0.058530 0.276304
vt 0.058530 0.249997
vt 0.058530 0.249997
vt 0.058530 0.249997
vt 0.058530 0.249997
vt 0.058530 0.249997
vt 0.058530 0.276304
vt 0.058530 0.276304
vt 0.058530 0.254381
vt 0.058530 0.254381
vt 0.058530 0.276304
vt 0.058530 0.249997
vt 0.058530 0.276304
vt 0.058530 0.276304
vt 0.058530 0.254381
vt 0.058530 0.254381
vt 0.058530 0.254381
vt 0.058530 0.249997
vt 0.058530 0.276304
vt 0.058530 0.276304
vt 0.058530 0.249997
vt 0.058530 0.249997
vt 0.058530 0.276304
vt 0.058530 0.254381
vt 0.058530 0.249997
vt 0.058530 0.249997
vt 0.058530 0.276304
vt 0.058530 0.276304
vt 0.058530 0.276304
vt 0.058530 0.254381
vt 0.058530 0.254381
vt 0.058530 0.276304
vt 0.058530 0.276304
vt 0.058530 0.276304
vt 0.058530 0.249997
vt 0.058530 0.249997
vt 0.058530 0.249997
vt 0.058530 0.249997
vt 0.058530 0.249997
vt 0.058530 0.276304
vt 0.058530 0.276304
vt 0.058530 0.254381
vt 0.058530 0.254381
vt 0.058530 0.276304
vt 0.058530 0.249997
vt 0.058530 0.276304
vt 0.058530 0.276304
vt 0.058530 0.254381
vt 0.058530 0.254381
vt 0.058530 0.254381
vt 0.058530 0.249997
vt 0.058530 0.276304
vt 0.058530 0.276304
vt 0.058530 0.249997
vt 0.058530 0.249997
vt 0.058530 0.276304
vt 0.058530 0.254381
vn 0.099627 0.994754 0.023219
vn 0.099627 0.994754 0.023219
vn 0.099627 0.994754 0.023219
vn 0.099627 0.994754 0.023219
vn -0.910934 0.403424 0.086304
vn -0.910934 0.403424 0.086304
vn -0.910934 0.403424 0.086304
vn -0.910934 0.403424 0.086304
vn -0.665300 -0.745960 0.030316
vn -0.665300 -0.745960 0.030316
vn -0.665300 -0.745960 0.030316
vn -0.665300 -0.745960 0.030316
vn 0.501616 -0.862440 -0.067659
vn 0.501616 -0.862440 -0.067659
vn 0.501616 -0.862440 -0.067659
vn 0.501616 -0.862440 -0.067659
vn 0.974986 0.210211 -0.072207
vn 0.974986 0.210211 -0.072207
vn 0.974986 0.210211 -0.072207
vn 0.974986 0.210211 -0.072207
vn 0.123150 0.017770 0.992229
vn 0.123147 0.017770 0.992229
vn 0.123148 0.017769 0.992229
vn 0.123147 0.017770 0.992229
vn 0.123146 0.017769 0.992230
vn 0.123148 0.017769 0.992229
vn 0.123146 0.017769 0.992230
vn 0.123148 0.017768 0.992229
vn 0.123148 0.017769 0.992229
vn 0.123148 0.017768 0.992229
vn 0.123150 0.017769 0.992229
vn 0.123148 0.017769 0.992229
vn 0.123150 0.017769 0.992229
vn 0.123150 0.017770 0.992229
vn 0.123148 0.017769 0.992229
vn 0.204948 0.978773 0.000000
vn 0.204948 0.978773 0.000000
vn 0.204948 0.978773 0.000000
vn 0.204948 0.978773 0.000000
vn -0.867534 0.497379 0.000000
vn -0.867534 0.497379 0.000000
vn -0.867534 0.497379 0.000000
vn -0.867534 0.497379 0.000000
vn -0.741108 -0.671386 0.000000
vn -0.741108 -0.671386 0.000000
vn -0.741108 -0.671386 0.000000
vn -0.741108 -0.671386 0.000000
vn 0.409503 -0.912309 0.000000
vn 0.409503 -0.912309 0.000000
vn 0.409503 -0.912309 0.000000
vn 0.409503 -0.912309 0.000000
vn 0.994200 0.107545 0.000000
vn 0.994200 0.107545 0.000000
vn 0.994200 0.107545 0.000000
vn 0.994200 0.107545 0.000000
vn 0.000000 0.000000 1.000000
vn 0.000000 0.000000 1.000000
vn 0.000000 0.000000 1.000000
vn 0.000000 0.000000 1.000000
vn 0.000000 0.000000 1.000000
vn 0.000000 0.000000 1.000000
vn 0.000000 0.000000 1.000000
vn -0.000000 0.000000 1.000000
vn 0.000000 0.000000 1.000000
vn -0.000000 0.000000 1.000000
vn -0.000000 0.000000 1.000000
vn 0.000000 0.000000 1.000000
vn -0.000000 0.000000 1.000000
vn 0.000000 0.000000 1.000000
vn 0.000000 0.000000 1.000000
vn -0.044967 0.998719 0.023214
vn -0.044967 0.998719 0.023214
vn -0.044967 0.998719 0.023214
vn -0.044967 0.998719 0.023214
vn -0.959613 0.267755 0.086311
vn -0.959613 0.267755 0.086311
vn -0.959613 0.267755 0.086311
vn -0.959613 0.267755 0.086311
vn -0.550694 -0.834156 0.030335
vn -0.550694 -0.834156 0.030335
vn -0.550694 -0.834156 0.030335
vn -0.550694 -0.834156 0.030335
vn 0.620822 -0.781026 -0.067668
vn 0.620822 -0.781026 -0.067668
vn 0.620822 -0.781026 -0.067668
vn 0.620821 -0.781026 -0.067668
vn 0.934449 0.348702 -0.072197
vn 0.934449 0.348702 -0.072197
vn 0.934449 0.348702 -0.072197
vn 0.934449 0.348702 -0.072197
vn 0.119298 0.035354 0.992229
vn 0.119296 0.035354 0.992229
vn 0.119297 0.035354 0.992229
vn 0.119296 0.035354 0.992229
vn 0.119294 0.035354 0.992229
vn 0.119297 0.035354 0.992229
vn 0.119294 0.035354 0.992229
vn 0.119297 0.035355 0.992229
vn 0.119297 0.035354 0.992229
vn 0.119297 0.035355 0.992229
vn 0.119300 0.035354 0.992229
vn 0.119297 0.035354 0.992229
vn 0.119300 0.035354 0.992229
vn 0.119298 0.035354 0.992229
vn 0.119297 0.035354 0.992229
vn 0.061562 0.998103 0.000000
vn 0.061562 0.998103 0.000000
vn 0.061562 0.998103 0.000000
vn 0.061562 0.998103 0.000000
vn -0.930221 0.367001 0.000000
vn -0.930221 0.367001 0.000000
vn -0.930221 0.367001 0.000000
vn -0.930221 0.367001 0.000000
vn -0.636470 -0.771301 0.000000
vn -0.636470 -0.771301 0.000000
vn -0.636470 -0.771301 0.000000
vn -0.636470 -0.771301 0.000000
vn 0.536867 -0.843667 0.000000
vn 0.536867 -0.843667 0.000000
vn 0.536867 -0.843667 0.000000
vn 0.536867 -0.843667 0.000000
vn 0.968273 0.249893 0.000000
vn 0.968273 0.249893 0.000000
vn 0.968273 0.249893 0.000000
vn 0.968273 0.249893 0.000000
vn -0.000000 0.000000 1.000000
vn 0.000000 0.000000 1.000000
vn 0.000000 0.000000 1.000000
vn 0.000000 0.000000 1.000000
vn 0.000000 0.000000 1.000000
vn 0.000000 0.000000 1.000000
vn 0.000000 0.000000 1.000000
vn 0.000000 0.000000 1.000000
vn 0.000000 0.000000 1.000000
vn 0.000000 0.000000 1.000000
vn -0.000000 0.000000 1.000000
vn 0.000000 0.000000 1.000000
vn -0.000000 0.000000 1.000000
vn -0.000000 0.000000 1.000000
vn 0.000000 0.000000 1.000000
vn 0.000000 -1.000000 -0.000000
vn 0.000000 -1.000000 -0.000000
vn -0.095168 -0.995461 0.000010
vn -0.095168 -0.995461 0.000010
vn 0.000000 -1.000000 -0.000000
vn 0.000000 -0.000000 1.000000
vn 0.000294 -0.001328 0.999999
vn 0.001713 -0.007736 0.999969
vn 0.000000 -0.000000 1.000000
vn 0.000000 -0.000000 1.000000
vn 0.000000 1.000000 0.000000
vn 0.000000 1.000000 0.000000
vn 0.000000 1.000000 0.000000
vn 0.000000 1.000000 0.000000
vn 0.000000 0.000000 -1.000000
vn 0.000000 0.000000 -1.000000
vn 0.000000 0.000000 -1.000000
vn 0.000000 0.000000 -1.000000
vn 1.000000 0.000000 0.000000
vn 1.000000 0.000000 0.000000
vn 1.000000 0.000000 0.000000
vn 0.999366 -0.035600 0.000008
vn 0.999366 -0.035600 0.000008
vn -1.000000 0.000000 0.000000
vn -1.000000 0.000000 0.000000
vn -1.000000 0.000000 0.000000
vn -1.000000 0.000000 0.000000
vn 0.000978 0.002700 0.999996
vn 0.004225 0.011662 0.999923
vn 0.000000 -0.000000 1.000000
vn 0.000000 0.000000 -1.000000
vn 0.000000 0.000000 -1.000000
vn 0.000000 0.000000 -1.000000
vn 0.000000 0.000000 -1.000000
vn -1.000000 0.000000 0.000000
vn -1.000000 0.000000 0.000000
vn -1.000000 0.000000 0.000000
vn -1.000000 0.000000 0.000000
vn -0.006730 -0.437238 0.899321
vn 0.001051 -0.016917 0.999856
vn 0.000712 -0.003878 0.999992
vn 1.000000 0.000000 0.000000
vn 1.000000 0.000000 0.000000
vn 0.999772 0.021360 0.000005
vn 0.999772 0.021360 0.000005
vn 1.000000 0.000000 0.000000
vn 0.000000 1.000000 0.000000
vn -0.021359 0.999772 -0.000002
vn -0.021359 0.999772 -0.000002
vn 0.000000 1.000000 0.000000
vn 0.000000 1.000000 0.000000
vn 0.001713 -0.007736 0.999969
vn 0.000294 -0.001328 0.999999
vn 0.000000 -0.000000 1.000000
vn 0.000978 0.002700 0.999996
vn 0.001051 -0.016917 0.999856
vn -0.000154 -0.000909 1.000000
vn 0.000000 -0.000000 1.000000
vn 0.004225 0.011662 0.999923
vn 0.000000 -1.000000 -0.000000
vn 0.000000 -1.000000 -0.000000
vn 0.021360 -0.999772 0.000001
vn -0.000154 -0.000909 1.000000
vn 0.001051 -0.016917 0.999856
vn -0.006730 -0.437238 0.899321
vn 0.000000 -0.000000 1.000000
vn 0.000712 -0.003878 0.999992
vn 0.001051 -0.016917 0.999856
vn 0.000000 -0.000000 1.000000
vn 0.000000 -0.000000 1.000000
vn 0.001051 -0.016917 0.999856
vn 0.000978 0.002700 0.999996
vn 0.021360 -0.999772 0.000001
vn 0.000000 -1.000000 -0.000000
vn 0.000000 -1.000000 -0.000000
vn 0.021360 -0.999772 0.000002
vn 0.000000 -1.000000 -0.000000
vn 0.021360 -0.999772 0.000001
vn 0.021359 -0.999772 0.000000
vn 0.000000 -1.000000 -0.000000
vn 0.038823 0.011730 -0.999177
vn 0.038823 0.011730 -0.999177
vn 0.038823 0.011730 -0.999177
vn 0.038823 0.011730 -0.999177
vn 0.038823 0.011730 -0.999177
vn -0.051954 -0.010408 0.998595
vn -0.051954 -0.010408 0.998595
vn -0.051954 -0.010408 0.998595
vn -0.051954 -0.010408 0.998595
vn -0.051954 -0.010408 0.998595
vn 0.000000 -1.000000 0.000000
vn 0.000000 -1.000000 0.000000
vn 0.000000 -1.000000 0.000000
vn 0.000000 -1.000000 0.000000
vn 0.000000 -1.000000 0.000000
vn -0.997222 -0.006902 0.074162
vn -0.997222 -0.006902 0.074162
vn -0.997222 -0.006902 0.074162
vn -0.997222 -0.006902 0.074162
vn -0.997222 -0.006902 0.074162
vn 0.997571 0.006477 -0.069363
vn 0.997570 0.006477 -0.069363
vn 0.997571 0.006477 -0.069363
vn 0.997571 0.006477 -0.069363
vn 0.997571 0.006477 -0.069363
vn 0.606477 0.556500 -0.567885
vn 0.606477 0.556500 -0.567885
vn 0.606477 0.556501 -0.567885
vn 0.000000 1.000000 0.000000
vn 0.000000 1.000000 0.000000
vn 0.000000 1.000000 0.000000
vn 0.000000 1.000000 0.000000
vn 0.000000 1.000000 0.000000
vn -0.612904 -0.197229 0.765147
vn -0.612904 -0.197229 0.765147
vn -0.612904 -0.197229 0.765147
vn -0.738255 0.185140 -0.648616
vn -0.738255 0.185140 -0.648616
vn -0.738255 0.185140 -0.648616
vn -0.780802 -0.231114 -0.580461
vn -0.780802 -0.231114 -0.580461
vn -0.780802 -0.231114 -0.580461
vn 0.642205 0.252350 0.723804
vn 0.642205 0.252350 0.723804
vn 0.642205 0.252350 0.723804
vn 0.850383 -0.174167 0.496502
vn 0.850383 -0.174167 0.496502
vn 0.850383 -0.174167 0.496502
vn -0.999432 0.012332 0.031356
vn -0.999432 0.012332 0.031356
vn -0.999432 0.012332 0.031356
vn -0.999432 0.012332 0.031356
vn -0.999432 0.012332 0.031356
vn -0.999432 0.012332 0.031356
vn -0.064150 0.007869 0.997909
vn -0.064150 0.007869 0.997909
vn -0.064150 0.007869 0.997909
vn -0.064150 0.007869 0.997909
vn -0.064150 0.007869 0.997909
vn -0.064150 0.007869 0.997909
vn 0.077541 -0.007731 -0.996959
vn 0.077541 -0.007731 -0.996959
vn 0.077541 -0.007731 -0.996959
vn 0.077541 -0.007731 -0.996959
vn 0.077541 -0.007731 -0.996959
vn 0.077541 -0.007731 -0.996959
vn 0.998564 -0.010649 -0.052513
vn 0.998564 -0.010649 -0.052513
vn 0.998564 -0.010649 -0.052513
vn 0.998564 -0.010649 -0.052513
vn 0.998563 -0.010649 -0.052513
vn 0.998563 -0.010649 -0.052513
vn -0.038823 0.011730 0.999177
vn -0.038823 0.011730 0.999177
vn -0.038823 0.011730 0.999177
vn -0.038823 0.011730 0.999177
vn -0.038823 0.011730 0.999177
vn 0.051955 -0.010408 -0.998595
vn 0.051955 -0.010408 -0.998595
vn 0.051955 -0.010408 -0.998595
vn 0.051955 -0.010408 -0.998595
vn 0.051955 -0.010408 -0.998595
vn 0.000000 -1.000000 0.000000
vn 0.000000 -1.000000 0.000000
vn 0.000000 -1.000000 0.000000
vn 0.000000 -1.000000 0.000000
vn 0.000000 -1.000000 0.000000
vn 0.997222 -0.006902 -0.074162
vn 0.997222 -0.006902 -0.074162
vn 0.997222 -0.006902 -0.074162
vn 0.997222 -0.006902 -0.074162
vn 0.997222 -0.006902 -0.074162
vn -0.997571 0.006476 0.069357
vn -0.997571 0.006476 0.069357
vn -0.997571 0.006476 0.069357
vn -0.997571 0.006476 0.069357
vn -0.997571 0.006476 0.069357
vn -0.606491 0.556494 0.567876
vn -0.606491 0.556494 0.567876
vn -0.606491 0.556494 0.567876
vn 0.000000 1.000000 0.000000
vn 0.000000 1.000000 0.000000
vn 0.000000 1.000000 0.000000
vn 0.000000 1.000000 0.000000
vn 0.000000 1.000000 0.000000
vn 0.612904 -0.197229 -0.765147
vn 0.612904 -0.197229 -0.765147
vn 0.612904 -0.197229 -0.765147
vn 0.738255 0.185140 0.648616
vn 0.738255 0.185140 0.648616
vn 0.738255 0.185140 0.648616
vn 0.780802 -0.231113 0.580461
vn 0.780802 -0.231113 0.580461
vn 0.780802 -0.231113 0.580461
vn -0.642210 0.252344 -0.723801
vn -0.642210 0.252344 -0.723801
vn -0.642210 0.252344 -0.723801
vn -0.850382 -0.174162 -0.496505
vn -0.850382 -0.174162 -0.496506
vn -0.850382 -0.174162 -0.496506
vn 0.999432 0.012332 -0.031356
vn 0.999432 0.012332 -0.031356
vn 0.999432 0.012332 -0.031356
vn 0.999432 0.012332 -0.031356
vn 0.999432 0.012332 -0.031356
vn 0.999432 0.012332 -0.031356
vn 0.064151 0.007869 -0.997909
vn 0.064151 0.007869 -0.997909
vn 0.064151 0.007869 -0.997909
vn 0.064151 0.007869 -0.997909
vn 0.064151 0.007869 -0.997909
vn 0.064151 0.007869 -0.997909
vn -0.077541 -0.007730 0.996959
vn -0.077541 -0.007730 0.996959
vn -0.077541 -0.007730 0.996959
vn -0.077541 -0.007730 0.996959
vn -0.077541 -0.007730 0.996959
vn -0.077541 -0.007730 0.996959
vn -0.998564 -0.010647 0.052511
vn -0.998564 -0.010647 0.052511
vn -0.998564 -0.010647 0.052511
vn -0.998564 -0.010647 0.052511
vn -0.998564 -0.010647 0.052511
vn -0.998564 -0.010647 0.052511
s off
f 1/1/1 2/2/2 7/3/3 6/4/4
f 2/2/5 3/5/6 8/6/7 7/3/8
f 3/5/9 4/7/10 9/8/11 8/6/12
f 4/7/13 5/9/14 10/10/15 9/8/16
f 5/9/17 1/11/18 6/12/19 10/10/20
f 6/13/21 7/14/22 11/15/23
f 7/14/24 8/16/25 11/15/26
f 8/16/27 9/17/28 11/15/29
f 9/17/30 10/18/31 11/15/32
f 10/18/33 6/13/34 11/15/35
f 12/19/36 13/20/37 18/21/38 17/22/39
f 13/20/40 14/23/41 19/24/42 18/21/43
f 14/23/44 15/25/45 20/26/46 19/24/47
f 15/25/48 16/27/49 21/28/50 20/26/51
f 16/27/52 12/29/53 17/30/54 21/28/55
f 17/31/56 18/32/57 22/33/58
f 18/32/59 19/34/60 22/33/61
f 19/34/62 20/35/63 22/33/64
f 20/35/65 21/36/66 22/33/67
f 21/36/68 17/31/69 22/33/70
f 23/37/71 24/38/72 29/39/73 28/40/74
f 24/38/75 25/41/76 30/42/77 29/39/78
f 25/41/79 26/43/80 31/44/81 30/42/82
f 26/43/83 27/45/84 32/46/85 31/44/86
f 27/45/87 23/47/88 28/48/89 32/46/90
f 28/49/91 29/50/92 33/51/93
f 29/50/94 30/52/95 33/51/96
f 30/52/97 31/53/98 33/51/99
f 31/53/100 32/54/101 33/51/102
f 32/54/103 28/49/104 33/51/105
f 34/55/106 35/56/107 40/57/108 39/58/109
f 35/56/110 36/59/111 41/60/112 40/57/113
f 36/59/114 37/61/115 42/62/116 41/60/117
f 37/61/118 38/63/119 43/64/120 42/62/121
f 38/63/122 34/65/123 39/66/124 43/64/125
f 39/67/126 40/68/127 44/69/128
f 40/68/129 41/70/130 44/69/131
f 41/70/132 42/71/133 44/69/134
f 42/71/135 43/72/136 44/69/137
f 43/72/138 39/67/139 44/69/140
f 45/73/141 46/74/142 48/75/143 63/76/144 47/77/145
f 47/77/146 63/76/147 64/78/148 50/79/149 49/80/150
f 49/80/151 50/79/152 52/81/153 51/82/154
f 51/82/155 52/81/156 46/83/157 45/84/158
f 46/74/159 52/85/160 50/86/161 64/87/162 48/75/163
f 51/88/164 45/73/165 47/77/166 49/89/167
f 61/90/168 62/91/169 58/92/170
f 59/93/171 60/94/172 54/95/173 53/96/174
f 59/97/175 53/98/176 55/99/177 57/100/178
f 66/101/179 68/102/180 67/103/181
f 54/104/182 60/105/183 58/106/184 62/107/185 56/108/186
f 57/109/187 61/90/188 58/92/189 60/94/190 59/93/191
f 64/78/192 63/76/193 48/75/194
f 61/90/195 68/102/196 65/110/197 56/108/198 62/91/199
f 53/98/200 54/104/201 66/101/202
f 65/110/203 68/102/204 66/101/205
f 55/99/206 67/103/207 68/102/208 57/109/209
f 57/109/210 68/102/211 61/90/212
f 66/101/213 54/104/214 56/108/215 65/110/216
f 53/98/217 66/101/218 67/103/219 55/99/220
f 69/111/221 70/112/222 81/113/223 83/114/224 90/115/225
f 73/116/226 74/117/227 89/118/228 87/119/229 85/120/230
f 75/121/231 79/122/232 76/123/233 70/124/234 69/125/235
f 84/126/236 89/127/237 74/128/238 72/129/239 82/130/240
f 75/131/241 69/111/242 90/115/243 88/132/244 86/133/245
f 78/134/246 77/135/247 71/136/248
f 71/136/249 77/135/250 72/129/251 74/117/252 73/116/253
f 79/122/254 80/137/255 76/123/256
f 84/126/257 83/114/258 81/113/259
f 82/130/260 83/114/261 84/126/262
f 86/133/263 88/132/264 87/138/265
f 87/138/266 88/132/267 85/139/268
f 70/112/269 76/140/270 80/141/271 89/127/272 84/126/273 81/113/274
f 87/119/275 89/118/276 80/137/277 79/122/278 75/121/279 86/142/280
f 90/115/281 83/114/282 82/130/283 72/129/284 77/135/285 78/134/286
f 88/132/287 90/115/288 78/134/289 71/136/290 73/143/291 85/139/292
f 91/144/293 92/145/294 103/146/295 105/147/296 112/148/297
f 95/149/298 96/150/299 111/151/300 109/152/301 107/153/302
f 97/154/303 101/155/304 98/156/305 92/157/306 91/158/307
f 106/159/308 111/160/309 96/161/310 94/162/311 104/163/312
f 97/164/313 91/144/314 112/148/315 110/165/316 108/166/317
f 100/167/318 99/168/319 93/169/320
f 93/169/321 99/168/322 94/162/323 96/150/324 95/149/325
f 101/155/326 102/170/327 98/156/328
f 106/159/329 105/147/330 103/146/331
f 104/163/332 105/147/333 106/159/334
f 108/166/335 110/165/336 109/171/337
f 109/171/338 110/165/339 107/172/340
f 92/145/341 98/173/342 102/174/343 111/160/344 106/159/345 103/146/346
f 109/152/347 111/151/348 102/170/349 101/155/350 97/154/351 108/175/352
f 112/148/353 105/147/354 104/163/355 94/162/356 99/168/357 100/167/358
f 110/165/359 112/148/360 100/167/361 93/169/362 95/176/363 107/172/364
