# This file uses centimeters as units for non-parametric coordinates.

v -17.204285 0.000000 170.924622
v 17.204224 0.000000 170.924622
v -17.204285 5.637227 170.924622
v 17.204224 5.637227 170.924622
v -17.204285 5.637227 -170.924622
v 17.204224 5.637227 -170.924622
v -17.204285 0.000000 -170.924622
v 17.204224 0.000000 -170.924622
v 4.100191 3.998601 -167.321793
v -4.912309 3.937601 168.278946
v -4.912309 1.699625 168.278946
v 4.100191 1.638626 -167.321793
v 3.112532 5.637227 -150.599457
v 9.437120 5.637227 -171.952682
v 9.553982 0.000000 -171.952682
v 3.013224 0.000000 -148.968964
v -0.220691 0.000000 -171.952682
v -0.888528 5.637227 -171.952682
v -3.947623 5.637227 134.850372
v -10.174047 5.637227 171.952698
v -9.689126 0.000000 171.952698
v -3.625415 0.000000 130.024460
v 0.188439 0.000000 171.952698
v 0.643679 5.637227 171.952698
v 17.204224 5.637227 72.897644
v 17.204224 5.637227 15.345606
v 11.213688 5.637227 43.619217
v 17.204224 3.136865 45.016151
v -17.204285 0.000000 -84.025864
v -17.204285 0.000000 -17.798714
v -17.204285 3.083766 -48.626617
v -12.001043 0.000000 -49.066578
vt 0.060603 0.278493
vt 0.060603 0.301466
vt 0.060603 0.278493
vt 0.060603 0.301466
vt 0.060603 0.301466
vt 0.060603 0.282322
vt 0.060603 0.301466
vt 0.060603 0.282321
vt 0.060603 0.278492
vt 0.060603 0.301466
vt 0.060603 0.282321
vt 0.060603 0.282322
vt 0.060603 0.301466
vt 0.060603 0.301466
vt 0.060603 0.282322
vt 0.060603 0.278493
vt 0.060603 0.278493
vt 0.060603 0.278492
vt 0.060603 0.282321
vt 0.060603 0.282322
vt 0.060603 0.282322
vt 0.060603 0.282321
vt 0.060603 0.282321
vt 0.060603 0.282321
vt 0.060603 0.282322
vt 0.060603 0.278493
vt 0.060603 0.278493
vt 0.060603 0.278493
vt 0.060603 0.278492
vt 0.060603 0.278492
vt 0.060603 0.278493
vt 0.060603 0.278492
vt 0.060603 0.278493
vt 0.060603 0.301466
vt 0.060603 0.301466
vt 0.060603 0.301466
vt 0.060603 0.301466
vt 0.060603 0.301466
vt 0.060603 0.301466
vt 0.060603 0.301466
vt 0.060603 0.301466
vt 0.060603 0.301466
vt 0.060603 0.301466
vt 0.060603 0.301466
vt 0.060603 0.301466
vt 0.060603 0.301466
vt 0.060603 0.301466
vn -0.567325 0.032795 0.822841
vn -0.567325 0.032795 0.822841
vn -0.567325 0.032795 0.822841
vn -0.567325 0.032795 0.822841
vn -0.379495 0.918341 -0.112402
vn -0.379495 0.918341 -0.112402
vn -0.379495 0.918341 -0.112402
vn -0.651272 -0.009517 -0.758785
vn -0.651272 -0.009517 -0.758785
vn -0.651272 -0.009517 -0.758785
vn -0.651272 -0.009517 -0.758785
vn -0.366331 -0.924626 -0.104251
vn -0.366331 -0.924626 -0.104251
vn -0.366331 -0.924626 -0.104251
vn 1.000000 0.000000 0.000000
vn 1.000000 0.000000 0.000000
vn 1.000000 0.000000 0.000000
vn 1.000000 0.000000 0.000000
vn -1.000000 0.000000 0.000000
vn -1.000000 0.000000 0.000000
vn -1.000000 0.000000 0.000000
vn 0.368607 0.927016 -0.069068
vn 0.368607 0.927016 -0.069068
vn 0.368607 0.927016 -0.069068
vn 0.590237 0.036344 0.806411
vn 0.590237 0.036344 0.806411
vn 0.590237 0.036344 0.806411
vn 0.590237 0.036344 0.806411
vn 0.407095 -0.911588 -0.057280
vn 0.407095 -0.911588 -0.057280
vn 0.407095 -0.911588 -0.057280
vn 0.704064 0.058795 -0.707699
vn 0.704064 0.058795 -0.707699
vn 0.704064 0.058795 -0.707699
vn 0.704064 0.058795 -0.707699
vn -0.315847 0.948005 0.039085
vn -0.315847 0.948005 0.039085
vn -0.315847 0.948005 0.039085
vn 0.132194 0.001370 -0.991223
vn 0.132194 0.001370 -0.991223
vn 0.132194 0.001370 -0.991223
vn 0.132194 0.001370 -0.991223
vn -0.335702 -0.941473 0.030536
vn -0.335702 -0.941473 0.030536
vn -0.335702 -0.941473 0.030536
vn 0.371123 -0.927031 0.053672
vn 0.371123 -0.927032 0.053672
vn 0.371123 -0.927032 0.053672
vn -0.061629 -0.003651 -0.998092
vn -0.061629 -0.003651 -0.998093
vn -0.061629 -0.003651 -0.998092
vn -0.061629 -0.003651 -0.998092
vn 0.343039 0.937555 0.057568
vn 0.343039 0.937555 0.057568
vn 0.343039 0.937555 0.057568
vn 0.000000 1.000000 -0.000000
vn 0.000000 1.000000 -0.000000
vn 0.000000 1.000000 -0.000000
vn 0.000000 1.000000 -0.000000
vn 0.000000 1.000000 -0.000000
vn 0.000000 1.000000 -0.000000
vn -0.139968 -0.006020 0.990138
vn -0.139968 -0.006020 0.990138
vn -0.139968 -0.006020 0.990138
vn -0.139968 -0.006020 0.990138
vn 0.000000 -1.000000 0.000000
vn 0.000000 -1.000000 0.000000
vn 0.000000 -1.000000 0.000000
vn 0.000000 -1.000000 0.000000
vn 0.000000 -1.000000 0.000000
vn 0.000000 -1.000000 0.000000
vn 0.000000 -1.000000 0.000000
vn 0.000000 -1.000000 0.000000
vn 0.000000 -1.000000 0.000000
vn 0.061124 -0.002468 0.998127
vn 0.061124 -0.002468 0.998127
vn 0.061124 -0.002468 0.998127
vn 0.061124 -0.002468 0.998127
vn 0.000000 1.000000 0.000000
vn 0.000000 1.000000 0.000000
vn 0.000000 1.000000 0.000000
vn 0.400084 0.912815 -0.081860
vn 0.400084 0.912815 -0.081860
vn 0.400084 0.912815 -0.081860
vn 0.368447 0.926365 0.078066
vn 0.368447 0.926365 0.078066
vn 0.368447 0.926365 0.078066
vn -0.503713 -0.860612 0.074971
vn -0.503713 -0.860612 0.074971
vn -0.503713 -0.860612 0.074971
vn -0.513319 -0.853936 -0.085421
vn -0.513319 -0.853936 -0.085421
vn -0.513319 -0.853936 -0.085421
vn 0.000000 1.000000 0.000000
vn 0.000000 1.000000 0.000000
vn 0.000000 1.000000 0.000000
vn 0.000000 1.000000 0.000000
vn 0.000000 1.000000 0.000000
vn 0.000000 1.000000 0.000000
vn 0.000000 1.000000 0.000000
vn 0.000000 1.000000 0.000000
vn 0.000000 1.000000 0.000000
vn 0.000000 1.000000 0.000000
vn 1.000000 -0.000000 0.000000
vn 1.000000 -0.000000 0.000000
vn 1.000000 -0.000000 0.000000
vn 1.000000 -0.000000 0.000000
vn 1.000000 0.000000 0.000000
vn 1.000000 0.000000 0.000000
vn 1.000000 0.000000 0.000000
vn -1.000000 0.000001 0.000000
vn -1.000000 0.000001 0.000000
vn -1.000000 0.000001 0.000000
vn -1.000000 0.000001 0.000000
vn -1.000000 0.000000 0.000000
vn -1.000000 0.000000 0.000000
vn -1.000000 0.000000 0.000000
vn -1.000000 0.000000 0.000000
vn 0.000000 -1.000000 0.000000
vn 0.000000 -1.000000 0.000000
vn 0.000000 -1.000000 0.000000
vn 0.000000 -1.000000 0.000000
vn 0.000000 -1.000000 0.000000
vn 0.000000 -1.000000 0.000000
vn 0.000000 -1.000000 0.000000
vn 0.000000 -1.000000 0.000000
vn 0.000000 -1.000000 0.000000
vn 0.000000 -1.000000 0.000000
s off
f 10/16/1 11/17/2 23/31/3 24/33/4
f 9/15/5 13/20/6 14/21/7
f 12/19/8 9/15/9 14/21/10 15/22/11
f 15/22/12 16/23/13 12/19/14
f 2/2/15 28/39/16 25/35/17 4/4/18
f 5/14/19 31/45/20 3/3/21
f 18/25/22 13/20/23 9/15/24
f 20/27/25 21/28/26 11/17/27 10/16/28
f 16/23/29 17/24/30 12/19/31
f 17/24/32 18/25/33 9/15/34 12/19/35
f 24/33/36 19/26/37 10/16/38
f 15/22/39 14/21/40 6/6/41 8/8/42
f 11/18/43 22/30/44 23/32/45
f 21/29/46 22/30/47 11/18/48
f 5/5/49 18/25/50 17/24/51 7/7/52
f 19/26/53 20/27/54 10/16/55
f 3/3/56 20/27/57 19/26/58 13/20/59 18/25/60 5/5/61
f 1/1/62 21/28/63 20/27/64 3/3/65
f 32/46/66 16/23/67 22/30/68
f 23/32/69 22/30/70 16/23/71 15/22/72 8/8/73 2/10/74
f 24/33/75 23/31/76 2/2/77 4/4/78
f 27/38/79 13/20/80 19/26/81
f 25/35/82 28/39/83 27/40/84
f 27/40/85 28/39/86 26/37/87
f 29/42/88 32/46/89 31/47/90
f 31/47/91 32/46/92 30/44/93
f 27/38/94 19/26/95 24/33/96 4/4/97 25/34/98
f 14/21/99 13/20/100 27/38/101 26/36/102 6/6/103
f 28/39/104 8/11/105 6/12/106 26/37/107
f 2/2/108 8/11/109 28/39/110
f 7/13/111 29/41/112 31/45/113 5/14/114
f 3/3/115 31/45/116 30/43/117 1/1/118
f 32/46/119 22/30/120 21/29/121 1/9/122 30/44/123
f 7/7/124 17/24/125 16/23/126 32/46/127 29/42/128
