# This file uses centimeters as units for non-parametric coordinates.

v -31.540401 -32.742043 -1.537506
v -31.540401 -32.742043 2.300995
v -33.065830 42.229156 -13.046570
v -33.065830 42.229156 -9.208069
v -29.227341 42.229156 -13.046570
v -29.227341 42.229156 -9.208069
v -27.701912 -32.742043 -1.537506
v -27.701912 -32.742043 2.300995
v 28.353626 -32.742043 -1.537506
v 28.353626 -32.742043 2.300995
v 28.353626 42.452148 -3.977722
v 28.353626 42.452148 -0.139221
v 32.192116 42.452148 -3.977722
v 32.192116 42.452148 -0.139221
v 32.192116 -32.742043 -1.537506
v 32.192116 -32.742043 2.300995
v 17.871235 -32.742043 11.535675
v 17.871235 -32.742043 15.374176
v 19.865246 26.705025 9.265289
v 19.865246 26.705025 13.103790
v 23.703735 26.705025 9.265289
v 23.703735 26.705025 13.103790
v 21.709724 -32.742043 11.535675
v 21.709724 -32.742043 15.374176
v -5.015332 -42.452156 11.535675
v -5.015332 -42.452156 15.374176
v -1.919272 31.141029 11.535675
v -1.919272 31.141029 15.374176
v 1.919217 31.141029 11.535675
v 1.919217 31.141029 15.374176
v -1.176842 -42.452156 11.535675
v -1.176842 -42.452156 15.374176
v -26.073700 18.432701 12.976318
v -29.332689 18.432701 16.814789
v 26.073700 18.432701 12.976318
v 29.332718 18.432701 16.814789
v 26.073700 14.594215 12.976318
v 29.332718 14.594215 16.814789
v -26.073700 14.594215 12.976318
v -29.332689 14.594215 16.814789
v 29.942871 18.432701 6.970428
v 33.685539 18.432701 10.059509
v 33.685539 14.594215 10.059509
v 29.942871 14.594215 6.970428
v -29.942898 14.594215 6.970428
v -33.685539 14.594215 10.059509
v -33.685539 18.432701 10.059509
v -29.942898 18.432701 6.970428
v 29.942871 18.432701 -21.635315
v 33.685539 18.432701 -21.442261
v 33.685539 14.594215 -21.442261
v 29.942871 14.594215 -21.635315
v -29.942898 14.594215 -21.635315
v -33.685539 14.594215 -21.442261
v -33.685539 18.432701 -21.442261
v -29.942898 18.432701 -21.635315
v -26.073700 -17.638824 12.976318
v -29.332689 -17.638824 16.814789
v 26.073700 -17.638824 12.976318
v 29.332718 -17.638824 16.814789
v 26.073700 -21.477341 12.976318
v 29.332718 -21.477341 16.814789
v -26.073700 -21.477341 12.976318
v -29.332689 -21.477341 16.814789
v 29.942871 -17.638824 6.970428
v 33.685539 -17.638824 10.059509
v 33.685539 -21.477341 10.059509
v 29.942871 -21.477341 6.970428
v -29.942898 -21.477341 6.970428
v -33.685539 -21.477341 10.059509
v -33.685539 -17.638824 10.059509
v -29.942898 -17.638824 6.970428
v 29.942871 -22.628601 -10.352386
v 33.685539 -22.628601 -10.159302
v 33.685539 -26.467117 -10.159302
v 29.942871 -26.467117 -10.352386
v -29.942898 -25.000000 -8.309631
v -33.685539 -25.000000 -8.116547
v -33.685539 -21.161484 -8.116547
v -29.942898 -21.161484 -8.309631
v -22.322697 -32.742043 11.535675
v -22.322697 -32.742043 15.374176
v -32.698486 31.604691 18.561066
v -33.163712 28.937019 21.281586
v -28.888420 31.301010 18.914856
v -29.353642 28.633369 21.635315
v -18.484207 -32.742043 11.535675
v -18.484207 -32.742043 15.374176
v 24.514608 -2.848907 11.479462
v 24.514608 -2.848907 7.640961
v 20.676119 -2.848907 7.640961
v 20.676119 -2.848907 11.479462
v -21.304577 14.058289 6.122681
v -25.143066 14.058289 6.122681
v -25.143066 14.058289 9.961182
v -21.304577 14.058289 9.961182
v -29.924818 -12.089005 -0.880920
v -29.924818 -12.089005 -4.719421
v -26.086329 -12.089005 -4.719421
v -26.086329 -12.089005 -0.880920
v -31.495327 22.554993 -0.780334
v -31.495327 22.554993 -4.618835
v -27.656837 22.554993 -4.618835
v -27.656837 22.554993 -0.780334
v -33.685539 10.794113 -11.208954
v -29.942898 10.794113 -12.850006
v -29.942898 14.632599 -12.850006
v -33.685539 14.632599 -11.208954
v 32.192116 1.308647 -3.007172
v 32.192116 1.308647 -6.845642
v 28.353626 1.308647 -6.845642
v 28.353626 1.308647 -3.007172
vt 0.026372 0.279118
vt 0.026372 0.279118
vt 0.026372 0.279118
vt 0.026372 0.279118
vt 0.026372 0.279118
vt 0.026372 0.279118
vt 0.026372 0.279118
vt 0.026372 0.279118
vt 0.026372 0.279118
vt 0.026372 0.279118
vt 0.026372 0.279118
vt 0.026372 0.279118
vt 0.026372 0.279118
vt 0.026372 0.279118
vt 0.026372 0.279118
vt 0.026372 0.279118
vt 0.026372 0.279118
vt 0.026372 0.279118
vt 0.026372 0.279118
vt 0.026372 0.279118
vt 0.026372 0.279118
vt 0.026372 0.279118
vt 0.026372 0.279118
vt 0.026372 0.279118
vt 0.026372 0.279118
vt 0.026372 0.279118
vt 0.026372 0.279118
vt 0.026372 0.279118
vt 0.026372 0.279118
vt 0.026372 0.279118
vt 0.026372 0.279118
vt 0.026372 0.279118
vt 0.026372 0.279118
vt 0.026372 0.279118
vt 0.026372 0.279118
vt 0.026372 0.279118
vt 0.026372 0.279118
vt 0.026372 0.279118
vt 0.026372 0.279118
vt 0.026372 0.279118
vt 0.026372 0.279118
vt 0.026372 0.279118
vt 0.026372 0.279118
vt 0.026372 0.279118
vt 0.026372 0.279118
vt 0.026372 0.279118
vt 0.026372 0.279118
vt 0.026372 0.279118
vt 0.026372 0.279118
vt 0.026372 0.279118
vt 0.026372 0.279118
vt 0.026372 0.279118
vt 0.026372 0.279118
vt 0.026372 0.279118
vt 0.026372 0.279118
vt 0.026372 0.279118
vt 0.026372 0.279118
vt 0.026372 0.279118
vt 0.026372 0.279118
vt 0.026372 0.279118
vt 0.026372 0.279118
vt 0.026372 0.279118
vt 0.026372 0.279118
vt 0.026372 0.279118
vt 0.026372 0.279118
vt 0.026372 0.279118
vt 0.026372 0.279118
vt 0.026372 0.279118
vt 0.026372 0.279118
vt 0.026372 0.279118
vt 0.026372 0.279118
vt 0.026372 0.279118
vt 0.026372 0.279118
vt 0.026372 0.279118
vt 0.026372 0.279118
vt 0.026372 0.279118
vt 0.026372 0.279118
vt 0.026372 0.279118
vt 0.026372 0.279118
vt 0.026372 0.279118
vt 0.026372 0.279118
vt 0.026372 0.279118
vt 0.026372 0.279118
vt 0.026372 0.279118
vt 0.026372 0.279118
vt 0.026372 0.279118
vt 0.026372 0.279118
vt 0.026372 0.279118
vt 0.026372 0.279118
vt 0.026372 0.279118
vt 0.026372 0.279118
vt 0.026372 0.279118
vt 0.026372 0.279118
vt 0.026372 0.279118
vt 0.026372 0.279118
vt 0.026372 0.279118
vt 0.026372 0.279118
vt 0.026372 0.279118
vt 0.026372 0.279118
vt 0.026372 0.279118
vt 0.026372 0.279118
vt 0.026372 0.279118
vt 0.026372 0.279118
vt 0.026372 0.279118
vt 0.026372 0.279118
vt 0.026372 0.279118
vt 0.026372 0.279118
vt 0.026372 0.279118
vt 0.026372 0.279118
vt 0.026372 0.279118
vt 0.026372 0.279118
vt 0.026372 0.279118
vt 0.026372 0.279118
vt 0.026372 0.279118
vt 0.026372 0.279118
vt 0.026372 0.279118
vt 0.026372 0.279118
vt 0.026372 0.279118
vt 0.026372 0.279118
vt 0.026372 0.279118
vt 0.026372 0.279118
vt 0.026372 0.279118
vt 0.026372 0.279118
vt 0.026372 0.279118
vt 0.026372 0.279118
vt 0.026372 0.279118
vt 0.026372 0.279118
vt 0.026372 0.279118
vt 0.026372 0.279118
vt 0.026372 0.279118
vt 0.026372 0.279118
vt 0.026372 0.279118
vt 0.026372 0.279118
vt 0.026372 0.279118
vt 0.026372 0.279118
vt 0.026372 0.279118
vt 0.026372 0.279118
vt 0.026372 0.279118
vt 0.026372 0.279118
vt 0.026372 0.279118
vt 0.026372 0.279118
vt 0.026372 0.279118
vt 0.026372 0.279118
vt 0.026372 0.279118
vt 0.026372 0.279118
vt 0.026372 0.279118
vt 0.026372 0.279118
vt 0.026372 0.279118
vt 0.026372 0.279118
vt 0.026372 0.279118
vt 0.026372 0.279118
vt 0.026372 0.279118
vt 0.026372 0.279118
vt 0.026372 0.279118
vn -0.996954 0.077987 0.000000
vn -0.996954 0.077987 0.000000
vn -0.999994 0.003468 0.000000
vn -0.999998 -0.002044 0.000000
vn 0.999998 0.002044 0.000000
vn 0.999994 -0.003468 0.000000
vn 0.996954 -0.077987 0.000000
vn 0.996954 -0.077987 0.000000
vn 0.000000 0.152269 0.988339
vn 0.000000 0.152269 0.988339
vn 0.000000 0.054867 0.998494
vn 0.000000 0.056352 0.998411
vn 0.000000 -0.152269 -0.988339
vn 0.000000 -0.152269 -0.988339
vn 0.000000 -0.056352 -0.998411
vn 0.000000 -0.054867 -0.998494
vn -1.000000 0.000000 0.000000
vn -1.000000 0.000000 0.000000
vn -1.000000 0.000000 0.000000
vn -1.000000 0.000000 0.000000
vn 1.000000 0.000000 0.000000
vn 1.000000 0.000000 0.000000
vn 1.000000 0.000000 0.000000
vn 1.000000 0.000000 0.000000
vn 0.000000 0.032435 0.999474
vn 0.000000 0.032435 0.999474
vn 0.000000 -0.069537 0.997579
vn 0.000000 -0.069537 0.997579
vn 0.000000 -0.032435 -0.999474
vn 0.000000 -0.032435 -0.999474
vn 0.000000 0.069537 -0.997579
vn 0.000000 0.069537 -0.997579
vn -0.999488 0.032007 0.000000
vn -0.999392 0.034872 0.000000
vn -0.999624 -0.027427 0.000000
vn -0.999624 -0.027427 0.000000
vn 0.999624 0.027427 0.000000
vn 0.999624 0.027427 0.000000
vn 0.999392 -0.034872 0.000000
vn 0.999488 -0.032007 0.000000
vn 0.000000 0.040016 0.999199
vn 0.000000 0.036163 0.999346
vn 0.000000 -0.054879 0.998493
vn 0.000000 -0.054879 0.998493
vn 0.000000 -0.036163 -0.999346
vn 0.000000 -0.040016 -0.999199
vn 0.000000 0.054879 -0.998493
vn 0.000000 0.054879 -0.998493
vn -0.999116 0.042033 0.000000
vn -0.999116 0.042033 0.000000
vn -0.999116 0.042033 0.000000
vn -0.999116 0.042033 0.000000
vn 0.999116 -0.042033 0.000000
vn 0.999116 -0.042033 0.000000
vn 0.999116 -0.042033 0.000000
vn 0.999116 -0.042033 0.000000
vn 0.000000 0.000000 1.000000
vn 0.000000 0.000000 1.000000
vn 0.000000 0.000000 1.000000
vn 0.000000 0.000000 1.000000
vn 0.000000 0.000000 -1.000000
vn 0.000000 0.000000 -1.000000
vn 0.000000 0.000000 -1.000000
vn 0.000000 0.000000 -1.000000
vn 0.000000 1.000000 -0.000000
vn 0.000000 1.000000 -0.000000
vn 0.000000 1.000000 -0.000000
vn 0.000000 1.000000 -0.000000
vn 0.051513 0.000000 -0.998672
vn 0.051513 0.000000 -0.998672
vn 0.051513 0.000000 -0.998672
vn 0.051513 0.000000 -0.998672
vn 0.000000 -1.000000 -0.000000
vn 0.000000 -1.000000 -0.000000
vn 0.000000 -1.000000 -0.000000
vn 0.000000 -1.000000 -0.000000
vn -0.051514 0.000000 -0.998672
vn -0.051514 0.000000 -0.998672
vn -0.051514 0.000000 -0.998672
vn -0.051514 0.000000 -0.998672
vn 0.000000 0.000000 1.000000
vn 0.000000 0.000000 1.000000
vn 0.000000 0.000000 1.000000
vn 0.000000 0.000000 1.000000
vn 0.000000 0.000000 -1.000000
vn 0.000000 0.000000 -1.000000
vn 0.000000 0.000000 -1.000000
vn 0.000000 0.000000 -1.000000
vn 0.000000 1.000000 -0.000000
vn 0.000000 1.000000 -0.000000
vn 0.000000 1.000000 -0.000000
vn 0.000000 1.000000 -0.000000
vn 0.840604 0.000000 0.541650
vn 0.840604 0.000000 0.541650
vn 0.840604 0.000000 0.541650
vn 0.840604 0.000000 0.541650
vn 0.000000 -1.000000 0.000000
vn 0.000000 -1.000000 0.000000
vn 0.000000 -1.000000 0.000000
vn 0.000000 -1.000000 0.000000
vn -0.840653 0.000000 -0.541574
vn -0.840653 0.000000 -0.541574
vn -0.840653 0.000000 -0.541574
vn -0.840653 0.000000 -0.541574
vn 0.000000 -1.000000 0.000000
vn 0.000000 -1.000000 0.000000
vn 0.000000 -1.000000 0.000000
vn 0.000000 -1.000000 0.000000
vn -0.840602 0.000000 0.541653
vn -0.840602 0.000000 0.541653
vn -0.840602 0.000000 0.541653
vn -0.840602 0.000000 0.541653
vn 0.000000 1.000000 0.000000
vn 0.000000 1.000000 0.000000
vn 0.000000 1.000000 0.000000
vn 0.000000 1.000000 0.000000
vn 0.840652 0.000000 -0.541576
vn 0.840652 0.000000 -0.541576
vn 0.840652 0.000000 -0.541576
vn 0.840652 0.000000 -0.541576
vn 0.000000 1.000000 0.000000
vn 0.000000 1.000000 0.000000
vn 0.000000 1.000000 0.000000
vn 0.000000 1.000000 0.000000
vn 1.000000 0.000000 0.000000
vn 1.000000 0.000000 0.000000
vn 1.000000 0.000000 0.000000
vn 1.000000 0.000000 0.000000
vn 0.000000 -1.000000 0.000000
vn 0.000000 -1.000000 0.000000
vn 0.000000 -1.000000 0.000000
vn 0.000000 -1.000000 0.000000
vn -1.000000 0.000000 0.000000
vn -1.000000 0.000000 0.000000
vn -1.000000 0.000000 0.000000
vn -1.000000 0.000000 0.000000
vn 0.114186 -0.976889 0.180695
vn 0.114185 -0.976888 0.180695
vn 0.069954 -0.995875 0.057791
vn 0.023118 -0.997289 -0.069860
vn -1.000000 0.000000 0.000000
vn -1.000000 0.000000 0.000000
vn -1.000000 0.000000 0.000000
vn -1.000000 0.000000 0.000000
vn -0.114185 0.976888 -0.180695
vn -0.114186 0.976889 -0.180695
vn -0.023118 0.997289 0.069860
vn -0.069954 0.995875 -0.057791
vn 1.000000 0.000000 0.000000
vn 1.000000 0.000000 0.000000
vn 1.000000 0.000000 0.000000
vn 1.000000 0.000000 0.000000
vn 0.000000 1.000000 0.000000
vn 0.000000 1.000000 0.000000
vn 0.000000 1.000000 0.000000
vn 0.000000 1.000000 0.000000
vn 0.051522 0.000000 -0.998672
vn 0.051522 0.000000 -0.998672
vn 0.051522 0.000000 -0.998672
vn 0.051522 0.000000 -0.998672
vn 0.000000 -1.000000 -0.000001
vn 0.000000 -1.000000 -0.000001
vn 0.000000 -1.000000 -0.000001
vn 0.000000 -1.000000 -0.000001
vn -0.051522 0.000000 -0.998672
vn -0.051522 0.000000 -0.998672
vn -0.051522 0.000000 -0.998672
vn -0.051522 0.000000 -0.998672
vn 0.000000 0.000000 1.000000
vn 0.000000 0.000000 1.000000
vn 0.000000 0.000000 1.000000
vn 0.000000 0.000000 1.000000
vn 0.000000 0.000000 -1.000000
vn 0.000000 0.000000 -1.000000
vn 0.000000 0.000000 -1.000000
vn 0.000000 0.000000 -1.000000
vn 0.000000 1.000000 -0.000000
vn 0.000000 1.000000 -0.000000
vn 0.000000 1.000000 -0.000000
vn 0.000000 1.000000 -0.000000
vn 0.840604 0.000000 0.541650
vn 0.840604 0.000000 0.541650
vn 0.840604 0.000000 0.541650
vn 0.840604 0.000000 0.541650
vn 0.000000 -1.000000 0.000000
vn 0.000000 -1.000000 0.000000
vn 0.000000 -1.000000 0.000000
vn 0.000000 -1.000000 0.000000
vn -0.840653 0.000000 -0.541574
vn -0.840653 0.000000 -0.541574
vn -0.840653 0.000000 -0.541574
vn -0.840653 0.000000 -0.541574
vn 0.000000 -1.000000 0.000000
vn 0.000000 -1.000000 0.000000
vn 0.000000 -1.000000 0.000000
vn 0.000000 -1.000000 0.000000
vn -0.840602 0.000000 0.541653
vn -0.840602 0.000000 0.541653
vn -0.840602 0.000000 0.541653
vn -0.840602 0.000000 0.541653
vn 0.000000 1.000000 0.000000
vn 0.000000 1.000000 0.000000
vn 0.000000 1.000000 0.000000
vn 0.000000 1.000000 0.000000
vn 0.840652 0.000000 -0.541576
vn 0.840652 0.000000 -0.541576
vn 0.840652 0.000000 -0.541576
vn 0.840652 0.000000 -0.541576
vn 0.111939 0.960363 -0.255290
vn 0.111939 0.960363 -0.255290
vn 0.111939 0.960363 -0.255290
vn 0.111939 0.960363 -0.255290
vn 1.000000 0.000000 0.000000
vn 1.000000 0.000000 0.000000
vn 1.000000 0.000000 0.000000
vn 1.000000 0.000000 0.000000
vn -0.111939 -0.960363 0.255290
vn -0.111939 -0.960363 0.255290
vn -0.111939 -0.960363 0.255290
vn -0.111939 -0.960363 0.255290
vn -1.000000 0.000000 0.000000
vn -1.000000 0.000000 0.000000
vn -1.000000 0.000000 0.000000
vn -1.000000 0.000000 0.000000
vn 0.089989 -0.974568 0.205228
vn 0.089989 -0.974568 0.205228
vn 0.089989 -0.974568 0.205228
vn 0.089989 -0.974568 0.205228
vn -1.000000 0.000000 0.000000
vn -1.000000 0.000000 0.000000
vn -1.000000 0.000000 0.000000
vn -1.000000 0.000000 0.000000
vn -0.089989 0.974568 -0.205228
vn -0.089989 0.974568 -0.205228
vn -0.089989 0.974568 -0.205228
vn -0.089989 0.974568 -0.205228
vn 1.000000 0.000000 0.000000
vn 1.000000 0.000000 0.000000
vn 1.000000 0.000000 0.000000
vn 1.000000 0.000000 0.000000
vn -0.992415 -0.115425 -0.042297
vn -0.986831 -0.147316 -0.066806
vn -0.932092 -0.307629 -0.191231
vn -0.932092 -0.307629 -0.191231
vn 0.931191 0.309832 0.192062
vn 0.931191 0.309832 0.192062
vn 0.986654 0.148295 0.067249
vn 0.992519 0.114782 0.041612
vn -0.022336 -0.151478 0.988208
vn -0.014159 -0.052983 0.998495
vn -0.060825 -0.634642 0.770409
vn -0.060825 -0.634642 0.770409
vn 0.016416 0.072558 -0.997229
vn 0.023743 0.157573 -0.987222
vn 0.060736 0.603198 -0.795275
vn 0.060736 0.603198 -0.795276
vn 0.999488 -0.032007 0.000000
vn 0.999392 -0.034872 0.000000
vn 0.995627 -0.093420 0.000000
vn 0.995627 -0.093420 0.000000
vn 0.000000 -0.129196 -0.991619
vn 0.000000 -0.129196 -0.991619
vn 0.000000 -0.040016 -0.999199
vn 0.000000 -0.036163 -0.999346
vn -0.995627 0.093420 0.000000
vn -0.995627 0.093420 0.000000
vn -0.999392 0.034872 0.000000
vn -0.999488 0.032007 0.000000
vn 0.000000 0.129196 0.991619
vn 0.000000 0.129196 0.991619
vn 0.000000 0.036163 0.999346
vn 0.000000 0.040016 0.999199
vn 0.000000 -0.114896 -0.993378
vn 0.000000 -0.114896 -0.993378
vn 0.023743 0.157573 -0.987222
vn 0.016416 0.072558 -0.997229
vn -0.998189 -0.060155 0.000000
vn -0.998189 -0.060155 0.000000
vn -0.986831 -0.147316 -0.066806
vn -0.992415 -0.115425 -0.042297
vn 0.000000 0.114896 0.993378
vn 0.000000 0.114896 0.993378
vn -0.014159 -0.052983 0.998495
vn -0.022336 -0.151478 0.988208
vn 0.992519 0.114782 0.041612
vn 0.986654 0.148295 0.067249
vn 0.998189 0.060155 0.000000
vn 0.998189 0.060155 0.000000
vn -0.999998 -0.002044 0.000000
vn -0.999994 0.003468 0.000000
vn -0.998459 -0.055497 0.000000
vn -0.998224 -0.059578 0.000000
vn 0.000000 -0.054867 -0.998494
vn 0.000000 -0.056352 -0.998411
vn 0.000000 -0.158793 -0.987312
vn 0.000000 -0.144270 -0.989538
vn 0.998224 0.059578 0.000000
vn 0.998459 0.055497 0.000000
vn 0.999994 -0.003468 0.000000
vn 0.999998 0.002044 0.000000
vn 0.000000 0.056352 0.998411
vn 0.000000 0.054867 0.998494
vn 0.000000 0.144270 0.989538
vn 0.000000 0.158793 0.987312
vn -0.007981 0.714665 0.699421
vn -0.007981 0.714665 0.699421
vn -0.007981 0.714665 0.699421
vn -0.007981 0.714665 0.699421
vn 0.000000 -1.000000 0.000000
vn 0.000000 -1.000000 0.000000
vn 0.000000 -1.000000 0.000000
vn 0.000000 -1.000000 0.000000
vn 0.000000 1.000000 0.000000
vn 0.000000 1.000000 0.000000
vn 0.000000 1.000000 0.000000
vn 0.000000 1.000000 0.000000
vn 0.000000 -1.000000 0.000000
vn 0.000000 -1.000000 0.000000
vn 0.000000 -1.000000 0.000000
vn 0.000000 -1.000000 0.000000
vn 0.000000 1.000000 0.000000
vn 0.000000 1.000000 0.000000
vn 0.000000 1.000000 0.000000
vn 0.000000 1.000000 0.000000
vn 0.000000 -1.000000 0.000000
vn 0.000000 -1.000000 0.000000
vn 0.000000 -1.000000 0.000000
vn 0.000000 -1.000000 0.000000
vn 0.000000 1.000000 0.000000
vn 0.000000 1.000000 0.000000
vn 0.000000 1.000000 0.000000
vn 0.000000 1.000000 0.000000
vn 0.000000 -1.000000 0.000000
vn 0.000000 -1.000000 0.000000
vn 0.000000 -1.000000 0.000000
vn 0.000000 -1.000000 0.000000
vn 0.000000 1.000000 0.000000
vn 0.000000 1.000000 0.000000
vn 0.000000 1.000000 0.000000
vn 0.000000 1.000000 0.000000
vn 0.000000 -1.000000 0.000000
vn 0.000000 -1.000000 0.000000
vn 0.000000 -1.000000 0.000000
vn 0.000000 -1.000000 0.000000
vn -0.998224 -0.059578 0.000000
vn -0.998459 -0.055497 0.000000
vn -0.996829 -0.079573 0.000000
vn -0.996829 -0.079573 0.000000
vn 0.000000 -0.144270 -0.989538
vn 0.000000 -0.158793 -0.987312
vn 0.000000 -0.393759 -0.919213
vn 0.000000 -0.393759 -0.919214
vn 0.996829 0.079572 0.000000
vn 0.996829 0.079572 0.000000
vn 0.998459 0.055497 0.000000
vn 0.998224 0.059578 0.000000
vn 0.000000 0.158793 0.987312
vn 0.000000 0.144270 0.989538
vn 0.000000 0.393759 0.919214
vn 0.000000 0.393759 0.919213
vn 0.023118 -0.997289 -0.069860
vn 0.069954 -0.995875 0.057791
vn -0.090553 -0.924783 -0.369561
vn -0.090553 -0.924783 -0.369562
vn 1.000000 0.000000 0.000000
vn 1.000000 0.000000 0.000000
vn 1.000000 0.000000 0.000000
vn 1.000000 0.000000 0.000000
vn -0.069954 0.995875 -0.057791
vn -0.023118 0.997289 0.069860
vn 0.090553 0.924783 0.369562
vn 0.090553 0.924783 0.369561
vn -1.000000 0.000000 0.000000
vn -1.000000 0.000000 0.000000
vn -1.000000 0.000000 0.000000
vn -1.000000 0.000000 0.000000
vn 1.000000 0.000000 0.000000
vn 1.000000 0.000000 0.000000
vn 1.000000 0.000000 0.000000
vn 1.000000 0.000000 0.000000
vn 0.000000 -0.154029 -0.988066
vn 0.000000 -0.154029 -0.988066
vn 0.000000 -0.032435 -0.999474
vn 0.000000 -0.032435 -0.999474
vn -1.000000 0.000000 0.000000
vn -1.000000 0.000000 0.000000
vn -1.000000 0.000000 0.000000
vn -1.000000 0.000000 0.000000
vn 0.000000 0.154030 0.988066
vn 0.000000 0.154030 0.988066
vn 0.000000 0.032435 0.999474
vn 0.000000 0.032435 0.999474
s off
f 1/1/1 2/2/2 97/133/3 98/134/4
f 99/136/5 100/137/6 8/8/7 7/7/8
f 2/2/9 8/9/10 100/138/11 97/133/12
f 7/11/13 1/1/14 98/134/15 99/135/16
f 111/153/17 112/154/18 12/15/19 11/16/20
f 13/18/21 14/17/22 109/149/23 110/152/24
f 112/154/25 109/150/26 14/22/27 12/15/28
f 110/151/29 111/153/30 11/16/31 13/24/32
f 91/125/33 92/126/34 20/27/35 19/28/36
f 21/30/37 22/29/38 89/121/39 90/124/40
f 92/126/41 89/122/42 22/34/43 20/27/44
f 90/123/45 91/125/46 19/28/47 21/36/48
f 25/37/49 26/38/50 28/39/51 27/40/52
f 29/42/53 30/41/54 32/43/55 31/44/56
f 26/38/57 32/45/58 30/46/59 28/39/60
f 31/47/61 25/37/62 27/40/63 29/48/64
f 33/49/65 34/50/66 36/51/67 35/52/68
f 49/53/69 50/54/70 51/55/71 52/56/72
f 37/57/73 38/58/74 40/59/75 39/60/76
f 53/61/77 54/62/78 55/63/79 56/64/80
f 34/50/81 40/65/82 38/66/83 36/51/84
f 39/67/85 33/49/86 35/52/87 37/68/88
f 35/52/89 36/51/90 42/69/91 41/70/92
f 36/51/93 38/58/94 43/71/95 42/69/96
f 38/58/97 37/57/98 44/72/99 43/71/100
f 37/57/101 35/52/102 41/70/103 44/72/104
f 39/60/105 40/59/106 46/73/107 45/74/108
f 40/59/109 34/75/110 47/76/111 46/73/112
f 34/75/113 33/77/114 48/78/115 47/76/116
f 33/77/117 39/60/118 45/74/119 48/78/120
f 41/70/121 42/69/122 50/54/123 49/53/124
f 42/69/125 43/71/126 51/55/127 50/54/128
f 43/71/129 44/72/130 52/56/131 51/55/132
f 44/72/133 41/70/134 49/53/135 52/56/136
f 45/74/137 46/73/138 105/145/139 106/146/140
f 46/73/141 47/76/142 108/148/143 105/145/144
f 47/76/145 48/78/146 107/147/147 108/148/148
f 48/78/149 45/74/150 106/146/151 107/147/152
f 57/79/153 58/80/154 60/81/155 59/82/156
f 73/83/157 74/84/158 75/85/159 76/86/160
f 61/87/161 62/88/162 64/89/163 63/90/164
f 77/91/165 78/92/166 79/93/167 80/94/168
f 58/80/169 64/95/170 62/96/171 60/81/172
f 63/97/173 57/79/174 59/82/175 61/98/176
f 59/82/177 60/81/178 66/99/179 65/100/180
f 60/81/181 62/88/182 67/101/183 66/99/184
f 62/88/185 61/87/186 68/102/187 67/101/188
f 61/87/189 59/82/190 65/100/191 68/102/192
f 63/90/193 64/89/194 70/103/195 69/104/196
f 64/89/197 58/105/198 71/106/199 70/103/200
f 58/105/201 57/107/202 72/108/203 71/106/204
f 57/107/205 63/90/206 69/104/207 72/108/208
f 65/100/209 66/99/210 74/84/211 73/83/212
f 66/99/213 67/101/214 75/85/215 74/84/216
f 67/101/217 68/102/218 76/86/219 75/85/220
f 68/102/221 65/100/222 73/83/223 76/86/224
f 69/104/225 70/103/226 78/92/227 77/91/228
f 70/103/229 71/106/230 79/93/231 78/92/232
f 71/106/233 72/108/234 80/94/235 79/93/236
f 72/108/237 69/104/238 77/91/239 80/94/240
f 94/129/241 95/130/242 84/111/243 83/112/244
f 85/114/245 86/113/246 96/131/247 93/128/248
f 95/130/249 96/132/250 86/118/251 84/111/252
f 93/127/253 94/129/254 83/112/255 85/120/256
f 90/124/257 89/121/258 24/31/259 23/32/260
f 23/35/261 17/25/262 91/125/263 90/123/264
f 17/25/265 18/26/266 92/126/267 91/125/268
f 18/26/269 24/33/270 89/122/271 92/126/272
f 87/119/273 81/109/274 94/129/275 93/127/276
f 81/109/277 82/110/278 95/130/279 94/129/280
f 82/110/281 88/117/282 96/132/283 95/130/284
f 93/128/285 96/131/286 88/115/287 87/116/288
f 98/134/289 97/133/290 101/139/291 102/140/292
f 99/135/293 98/134/294 102/140/295 103/141/296
f 103/142/297 104/143/298 100/137/299 99/136/300
f 97/133/301 100/138/302 104/144/303 101/139/304
f 84/111/305 86/113/306 85/120/307 83/112/308
f 2/2/309 1/1/310 7/7/311 8/9/312
f 4/4/313 6/6/314 5/12/315 3/3/316
f 10/14/317 9/13/318 15/20/319 16/21/320
f 12/15/321 14/17/322 13/24/323 11/16/324
f 18/26/325 17/25/326 23/32/327 24/33/328
f 20/27/329 22/29/330 21/36/331 19/28/332
f 26/38/333 25/37/334 31/44/335 32/45/336
f 28/39/337 30/41/338 29/48/339 27/40/340
f 82/110/341 81/109/342 87/116/343 88/117/344
f 102/140/345 101/139/346 4/4/347 3/3/348
f 103/141/349 102/140/350 3/3/351 5/12/352
f 5/5/353 6/6/354 104/143/355 103/142/356
f 101/139/357 104/144/358 6/10/359 4/4/360
f 106/146/361 105/145/362 54/62/363 53/61/364
f 107/147/365 106/146/366 53/61/367 56/64/368
f 108/148/369 107/147/370 56/64/371 55/63/372
f 105/145/373 108/148/374 55/63/375 54/62/376
f 110/152/377 109/149/378 16/19/379 15/20/380
f 15/23/381 9/13/382 111/153/383 110/151/384
f 9/13/385 10/14/386 112/154/387 111/153/388
f 10/14/389 16/21/390 109/150/391 112/154/392
