# This file uses centimeters as units for non-parametric coordinates.

v 331.596680 0.000000 1.769531
v 322.724609 0.000000 51.510742
v 331.596680 13.232849 1.769531
v 322.724609 19.080978 51.510742
v 356.733398 19.080978 5.664063
v 347.862305 19.080978 55.405273
v 356.733398 0.000000 5.664063
v 347.862305 3.657677 55.405273
v 349.478516 19.080978 4.540039
v 327.109375 19.080978 26.926270
v 334.457031 19.080978 6.143066
v 350.944336 0.000000 38.120605
v 331.458008 0.000000 52.864258
v 352.732422 19.080978 28.093750
v 349.103516 19.080978 48.445801
v 347.952148 19.080978 39.007813
v 350.963867 12.868406 38.011230
v 247.052734 0.000000 51.119629
v 298.776367 0.000000 36.326660
v 244.859375 19.080978 44.458496
v 298.776367 19.080978 36.326660
v 239.577148 19.080978 28.416016
v 283.955078 19.080978 15.724121
v 239.577148 3.166431 28.416016
v 291.300781 0.000000 13.623535
v 252.679688 19.080980 49.510254
v 247.052734 10.707803 51.119629
v 293.446289 19.080978 20.139160
v 291.300781 8.145205 13.623535
v 250.545898 0.000000 25.279297
v 241.846680 0.000000 35.308105
v 312.670898 2.309895 -48.286621
v 305.061523 23.377541 -2.118652
v 314.250000 14.977277 -54.279297
v 312.404297 37.743961 -13.470703
v 338.886719 10.259005 -48.533203
v 332.269531 39.288181 -6.130859
v 337.250977 -2.883487 -42.315918
v 330.418945 24.434229 0.895508
v 309.698242 31.220627 -25.903320
v 320.291992 39.753532 -8.027832
v 306.000000 30.907879 -5.680664
v 310.419922 36.869156 -7.988281
v 307.385742 35.396805 -12.339355
v 338.253906 17.925087 -43.450684
v 333.297852 14.237329 -51.262695
v 308.520508 11.033110 -23.683594
v 319.375000 -2.189232 -45.146484
v 333.244141 11.418166 -17.332031
v 325.629883 22.578592 1.138672
v 199.986328 0.000000 11.874512
v 199.986328 0.000000 -11.874023
v 0.000000 0.000000 11.874512
v 0.000000 152.802521 11.874512
v 0.000000 152.802521 -11.874023
v 0.000000 0.000000 -11.874023
v 80.865234 152.802521 11.874512
v 103.944336 152.802521 5.461914
v 120.879883 152.802521 5.614258
v 112.230469 147.324478 11.874512
v 126.112305 150.246552 6.646973
v 125.404297 147.755386 10.828125
v 133.166992 112.176247 11.874023
v 160.450195 66.374245 11.874512
v 199.986328 41.779873 11.874512
v 325.596680 0.000000 11.874512
v 125.153320 134.146713 11.874512
v 149.449219 125.347290 11.874023
v 149.879883 112.515678 11.874512
v 124.614258 87.541641 11.874512
v 124.821289 112.006622 11.874512
v 151.181641 87.525932 11.874512
v 151.031250 66.292564 11.874512
v 175.377930 59.600632 11.874512
v 223.577148 41.753490 11.874512
v 224.888672 64.411972 11.874512
v 277.061523 64.846504 11.874512
v 277.681641 42.815228 11.874512
v 301.238281 36.565449 11.874512
v 302.399414 18.456213 11.874512
v 324.593750 18.043007 11.874512
v 125.959961 152.802521 -11.874023
v 199.986328 41.787479 -11.874023
v 327.051758 0.000000 -11.874023
v 125.491211 134.825760 -11.874023
v 150.187500 134.505981 -11.874023
v 150.702148 113.008461 -11.874023
v 125.434570 112.046585 -11.874023
v 124.071289 88.142982 -11.874023
v 150.863281 87.957603 -5.207520
v 150.458984 66.770721 -11.874023
v 175.957031 65.800255 -11.874023
v 175.610352 41.632839 -11.874023
v 223.625977 41.937542 -11.874023
v 223.515625 65.381927 -11.874023
v 276.156250 59.908878 -11.874023
v 276.943359 43.117863 -11.874023
v 300.745117 42.641148 -11.874023
v 302.676758 19.459129 -11.874023
v 324.752930 19.436848 -11.874023
v 175.165039 42.119999 11.874512
v 142.940430 133.532593 11.874512
v 149.677734 133.904663 0.137695
v 136.945313 88.134819 -11.874023
v 150.600586 77.570480 -11.874023
v 175.715820 66.143135 -0.309570
v 172.820313 66.389908 8.804199
v 253.424805 65.142563 -11.874023
v 276.663086 64.887024 3.581055
v 270.521484 64.891571 -6.953613
v 291.735352 42.457966 11.874512
v 300.833008 42.361126 4.129883
vt 0.675013 0.220163
vt 0.675013 0.220163
vt 0.675013 0.220163
vt 0.675013 0.220163
vt 0.675013 0.220163
vt 0.675013 0.220163
vt 0.675013 0.220163
vt 0.675013 0.220163
vt 0.675013 0.220163
vt 0.675013 0.220163
vt 0.675013 0.220163
vt 0.675013 0.220163
vt 0.675013 0.220163
vt 0.675013 0.220163
vt 0.675013 0.220163
vt 0.675013 0.220163
vt 0.675013 0.220163
vt 0.675013 0.220163
vt 0.675013 0.220163
vt 0.675013 0.220163
vt 0.675013 0.220163
vt 0.655273 0.220046
vt 0.655273 0.220045
vt 0.655273 0.220045
vt 0.655273 0.220046
vt 0.655273 0.220046
vt 0.655273 0.220046
vt 0.655273 0.220045
vt 0.655273 0.220045
vt 0.655273 0.220046
vt 0.655273 0.220045
vt 0.655273 0.220045
vt 0.675013 0.220163
vt 0.675013 0.220163
vt 0.675013 0.220163
vt 0.675013 0.220163
vt 0.666833 0.230668
vt 0.666833 0.230668
vt 0.666833 0.230668
vt 0.666833 0.230668
vt 0.666833 0.230668
vt 0.666833 0.230668
vt 0.666833 0.230668
vt 0.666833 0.230668
vt 0.666833 0.230668
vt 0.666833 0.230668
vt 0.666833 0.230668
vt 0.655273 0.219820
vt 0.655273 0.219819
vt 0.655273 0.219819
vt 0.666833 0.230668
vt 0.666833 0.230668
vt 0.666833 0.230668
vt 0.655273 0.219820
vt 0.655273 0.219818
vt 0.655273 0.219818
vt 0.666833 0.230668
vt 0.666833 0.230668
vt 0.655273 0.219818
vt 0.655273 0.219820
vt 0.655273 0.219818
vt 0.666833 0.230668
vt 0.666833 0.230668
vt 0.666833 0.230668
vt 0.666833 0.230668
vt 0.666833 0.230668
vt 0.666833 0.230668
vt 0.657789 0.219989
vt 0.657789 0.219989
vt 0.657789 0.219989
vt 0.657789 0.219989
vt 0.657789 0.219989
vt 0.657789 0.219989
vt 0.657789 0.219989
vt 0.657789 0.219989
vt 0.657789 0.219989
vt 0.657789 0.219989
vt 0.657789 0.219989
vt 0.657789 0.219989
vt 0.657789 0.219989
vt 0.657789 0.219989
vt 0.657789 0.219989
vt 0.657789 0.219989
vt 0.657789 0.219989
vt 0.657789 0.219989
vt 0.657789 0.219989
vt 0.657789 0.219989
vt 0.657789 0.219989
vt 0.657789 0.219989
vt 0.657789 0.219989
vt 0.657789 0.219989
vt 0.657789 0.219989
vt 0.657789 0.219989
vt 0.657789 0.219989
vt 0.657789 0.219989
vt 0.657789 0.219989
vt 0.657789 0.219989
vt 0.654142 0.173165
vt 0.739428 0.173165
vt 0.739428 0.173165
vt 0.654142 0.173165
vt 0.654142 0.244870
vt 0.654142 0.244870
vt 0.704027 0.243596
vt 0.704027 0.243596
vt 0.704027 0.243596
vt 0.704027 0.243596
vt 0.697706 0.244870
vt 0.704929 0.244870
vt 0.707086 0.244870
vt 0.707053 0.213022
vt 0.712332 0.213018
vt 0.717928 0.208168
vt 0.717867 0.203210
vt 0.687864 0.244870
vt 0.707073 0.244870
vt 0.696671 0.181272
vt 0.666455 0.192686
vt 0.685845 0.192194
vt 0.695847 0.191972
vt 0.704027 0.243596
vt 0.704027 0.243596
vt 0.718112 0.202987
vt 0.718176 0.212734
vt 0.707285 0.212742
vt 0.696553 0.180806
vt 0.654142 0.173165
vt 0.707052 0.173165
vt 0.707283 0.180613
vt 0.654142 0.173165
vt 0.707673 0.173165
vt 0.706895 0.234981
vt 0.706751 0.234836
vt 0.714902 0.234706
vt 0.717974 0.234785
vt 0.718191 0.234913
vt 0.735352 0.191551
vt 0.735352 0.191551
vt 0.735352 0.191551
vt 0.735352 0.191551
vt 0.729181 0.202758
vt 0.729078 0.202918
vt 0.728934 0.200165
vt 0.728843 0.192771
vt 0.729032 0.192544
vt 0.722810 0.203027
vt 0.727843 0.203032
vt 0.718040 0.212935
vt 0.707635 0.225550
vt 0.707373 0.225532
vt 0.718410 0.225998
vt 0.718060 0.225769
vt 0.710932 0.225611
vt 0.717876 0.231253
vt 0.707031 0.243713
vt 0.707031 0.243713
vt 0.707031 0.243713
vt 0.707031 0.243713
vt 0.707031 0.243713
vt 0.667969 0.189510
vt 0.667969 0.189510
vt 0.667969 0.189510
vt 0.667969 0.189510
vt 0.666434 0.192600
vt 0.666993 0.201808
vt 0.666408 0.202259
vt 0.659180 0.220856
vt 0.659180 0.220856
vt 0.659180 0.220856
vt 0.686160 0.192053
vt 0.692064 0.191886
vt 0.695885 0.191841
vt 0.696058 0.189165
vt 0.707350 0.181262
vt 0.685896 0.202010
vt 0.654142 0.192616
vt 0.654142 0.192612
vt 0.739428 0.192616
vt 0.739428 0.192612
vt 0.701240 0.242320
vt 0.706771 0.243711
vt 0.659180 0.220871
vt 0.659180 0.220871
vt 0.659180 0.220871
vt 0.659180 0.220856
vt 0.659180 0.220856
vt 0.659180 0.220856
vt 0.659180 0.220856
vt 0.659180 0.220856
vt 0.659180 0.220856
vt 0.659180 0.220856
vt 0.685726 0.202029
vt 0.683467 0.202074
vt 0.677253 0.202148
vt 0.685510 0.199781
vt 0.659180 0.220856
vt 0.659180 0.220856
vt 0.659180 0.220856
vt 0.659180 0.220856
vn -0.984463 -0.000005 -0.175593
vn -0.984463 -0.000005 -0.175593
vn -0.984463 -0.000005 -0.175593
vn -0.984463 -0.000005 -0.175593
vn -0.984463 -0.000005 -0.175593
vn 0.000000 1.000000 -0.000000
vn 0.000000 1.000000 -0.000000
vn 0.000000 1.000000 -0.000000
vn 0.000000 1.000000 -0.000000
vn 0.000000 1.000000 -0.000000
vn 0.984471 -0.000011 0.175545
vn 0.984471 -0.000011 0.175545
vn 0.984471 -0.000011 0.175545
vn 0.984471 -0.000011 0.175545
vn 0.984471 -0.000011 0.175545
vn 0.000000 -1.000000 0.000000
vn 0.000000 -1.000000 0.000000
vn 0.000000 -1.000000 0.000000
vn 0.000000 -1.000000 0.000000
vn 0.000000 -1.000000 0.000000
vn -0.153103 0.000013 0.988210
vn -0.153103 0.000013 0.988210
vn -0.153103 0.000013 0.988210
vn -0.153103 0.000013 0.988210
vn -0.153103 0.000013 0.988210
vn 0.153107 -0.000000 -0.988210
vn 0.153107 -0.000000 -0.988210
vn 0.153107 -0.000000 -0.988210
vn 0.153107 -0.000000 -0.988210
vn 0.153107 -0.000000 -0.988210
vn -0.768608 0.579140 -0.271732
vn -0.768608 0.579140 -0.271732
vn -0.768608 0.579140 -0.271732
vn 0.176942 -0.956034 0.233861
vn 0.176942 -0.956034 0.233861
vn 0.176942 -0.956034 0.233861
vn -0.083041 0.622561 -0.778153
vn -0.083041 0.622560 -0.778153
vn -0.083041 0.622560 -0.778153
vn 0.887621 0.447666 -0.108283
vn 0.887620 0.447666 -0.108283
vn 0.887621 0.447666 -0.108283
vn 0.856341 0.354967 0.375071
vn 0.856342 0.354967 0.375071
vn 0.856341 0.354967 0.375071
vn 0.984463 0.000010 0.175594
vn 0.984463 0.000010 0.175594
vn 0.984463 0.000010 0.175594
vn 0.984463 0.000010 0.175594
vn 0.984463 0.000010 0.175594
vn 0.000000 1.000000 0.000000
vn 0.000000 1.000000 0.000000
vn 0.000000 1.000000 0.000000
vn 0.000000 1.000000 0.000000
vn 0.000000 1.000000 0.000000
vn 0.000000 1.000000 0.000000
vn 0.274975 0.000002 0.961451
vn 0.274975 0.000002 0.961451
vn 0.274975 0.000002 0.961451
vn 0.274975 0.000002 0.961451
vn 0.274975 0.000002 0.961451
vn -0.274968 -0.000012 -0.961453
vn -0.274968 -0.000012 -0.961453
vn -0.274968 -0.000012 -0.961453
vn -0.274968 -0.000012 -0.961453
vn -0.274968 -0.000012 -0.961453
vn -0.274968 -0.000012 -0.961453
vn -0.342247 -0.891479 -0.296873
vn -0.342247 -0.891479 -0.296873
vn -0.342247 -0.891479 -0.296873
vn 0.949833 -0.000001 -0.312756
vn 0.949833 -0.000001 -0.312756
vn 0.949834 -0.000001 -0.312756
vn 0.949833 -0.000001 -0.312756
vn 0.949833 -0.000001 -0.312756
vn -0.480211 0.465594 0.743384
vn -0.480211 0.465594 0.743384
vn -0.480211 0.465594 0.743384
vn -0.000000 1.000000 -0.000000
vn -0.000000 1.000000 -0.000000
vn -0.000000 1.000000 -0.000000
vn -0.000000 1.000000 -0.000000
vn -0.000000 1.000000 -0.000000
vn -0.000000 1.000000 -0.000000
vn 0.383543 0.416008 -0.824520
vn 0.383543 0.416008 -0.824520
vn 0.383543 0.416008 -0.824520
vn 0.000000 -1.000000 0.000000
vn 0.000000 -1.000000 0.000000
vn 0.000000 -1.000000 0.000000
vn 0.000000 -1.000000 0.000000
vn 0.000000 -1.000000 0.000000
vn -0.949836 -0.000006 0.312750
vn -0.949836 -0.000006 0.312750
vn -0.949836 -0.000006 0.312750
vn -0.949836 -0.000006 0.312750
vn -0.949836 -0.000006 0.312750
vn -0.949836 -0.000006 0.312750
vn 0.109886 0.870108 -0.480455
vn 0.109886 0.870108 -0.480455
vn 0.109885 0.870106 -0.480458
vn 0.109886 0.870108 -0.480456
vn 0.109886 0.870108 -0.480455
vn -0.109876 -0.870106 0.480461
vn -0.109878 -0.870109 0.480456
vn -0.109879 -0.870109 0.480455
vn -0.109876 -0.870106 0.480461
vn -0.124106 0.436903 0.890906
vn -0.124106 0.436903 0.890906
vn -0.124106 0.436903 0.890906
vn -0.124106 0.436903 0.890906
vn -0.124106 0.436903 0.890906
vn 0.124103 -0.436910 -0.890903
vn 0.124105 -0.436913 -0.890901
vn 0.124109 -0.436923 -0.890896
vn 0.124109 -0.436923 -0.890896
vn -0.459996 0.823526 -0.331976
vn -0.459996 0.823526 -0.331976
vn -0.459996 0.823526 -0.331976
vn -0.425402 0.904954 -0.009576
vn -0.425402 0.904954 -0.009576
vn -0.425402 0.904954 -0.009576
vn -0.279886 0.958642 0.051663
vn -0.279886 0.958642 0.051663
vn -0.279886 0.958642 0.051663
vn 0.632832 0.463463 -0.620262
vn 0.632832 0.463463 -0.620262
vn 0.632832 0.463463 -0.620262
vn 0.983094 -0.037615 0.179199
vn 0.983087 -0.037687 0.179221
vn 0.983087 -0.037687 0.179221
vn 0.983089 -0.037668 0.179215
vn -0.983086 0.037680 -0.179229
vn -0.983085 0.037680 -0.179230
vn -0.983085 0.037682 -0.179233
vn -0.983086 0.037680 -0.179229
vn -0.983086 0.037680 -0.179229
vn -0.603648 -0.778026 0.174025
vn -0.603648 -0.778026 0.174025
vn -0.603648 -0.778026 0.174025
vn -0.715109 0.639481 0.282281
vn -0.715109 0.639481 0.282281
vn -0.715109 0.639481 0.282281
vn 0.319113 -0.747173 0.583009
vn 0.319113 -0.747173 0.583009
vn 0.319113 -0.747173 0.583009
vn -0.109879 -0.870109 0.480455
vn -0.109878 -0.870109 0.480456
vn -0.109881 -0.870112 0.480450
vn -0.109881 -0.870112 0.480450
vn -0.983085 0.037682 -0.179233
vn -0.983085 0.037680 -0.179230
vn -0.983083 0.037686 -0.179240
vn -0.983083 0.037686 -0.179240
vn -0.124106 0.436903 0.890906
vn -0.124106 0.436903 0.890906
vn -0.124106 0.436903 0.890906
vn -0.124106 0.436903 0.890906
vn 0.109886 0.870108 -0.480456
vn 0.109885 0.870106 -0.480458
vn 0.109884 0.870105 -0.480461
vn 0.109884 0.870105 -0.480461
vn 0.983094 -0.037615 0.179199
vn 0.983089 -0.037668 0.179215
vn 0.983098 -0.037568 0.179184
vn 0.983098 -0.037568 0.179184
vn 0.124099 -0.436900 -0.890908
vn 0.124099 -0.436900 -0.890908
vn 0.124105 -0.436913 -0.890901
vn 0.124103 -0.436910 -0.890903
vn 0.000000 -1.000000 0.000000
vn 0.000000 -1.000000 0.000000
vn 0.000000 -1.000000 0.000000
vn 0.000000 -1.000000 0.000000
vn -1.000000 0.000000 0.000000
vn -1.000000 0.000000 0.000000
vn -1.000000 0.000000 0.000000
vn -1.000000 0.000000 0.000000
vn -0.005882 0.756560 0.653898
vn -0.005882 0.756560 0.653898
vn -0.005882 0.756560 0.653898
vn 0.146277 0.837525 0.526455
vn 0.146277 0.837525 0.526455
vn 0.146277 0.837525 0.526455
vn 0.000000 1.000000 0.000000
vn 0.000000 1.000000 0.000000
vn 0.000000 1.000000 0.000000
vn 0.000000 1.000000 0.000000
vn 0.000000 0.000000 -1.000000
vn 0.000000 0.000000 -1.000000
vn 0.000000 0.000000 -1.000000
vn 0.000000 0.000000 -1.000000
vn 0.000000 0.000000 -1.000000
vn 0.000000 1.000000 0.000000
vn 0.000000 1.000000 0.000000
vn 0.000000 1.000000 0.000000
vn 0.000000 1.000000 0.000000
vn 0.416325 0.901137 0.120936
vn 0.416325 0.901137 0.120936
vn 0.416325 0.901137 0.120936
vn 0.000000 0.000000 -1.000000
vn 0.000000 0.000000 -1.000000
vn 0.000000 0.000000 -1.000000
vn 0.000000 0.000000 -1.000000
vn 0.087372 0.752571 0.652689
vn 0.087372 0.752572 0.652689
vn 0.087372 0.752572 0.652689
vn 0.087372 0.752572 0.652689
vn 0.000000 0.000000 1.000000
vn 0.000000 0.000000 1.000000
vn 0.000000 0.000000 1.000000
vn 0.000000 0.000000 1.000000
vn 0.000000 0.000000 1.000000
vn 0.000000 0.000000 1.000000
vn 0.000000 0.000000 1.000000
vn 0.000000 0.000000 1.000000
vn 0.000000 -1.000000 0.000000
vn 0.000000 -1.000000 0.000000
vn 0.000000 -1.000000 0.000000
vn 0.000000 -1.000000 0.000000
vn 0.022827 0.998972 0.039174
vn 0.022827 0.998972 0.039174
vn 0.022827 0.998972 0.039174
vn 0.022827 0.998972 0.039174
vn 0.022827 0.998972 0.039174
vn 0.003770 0.999942 -0.010061
vn 0.003770 0.999942 -0.010061
vn 0.003770 0.999942 -0.010061
vn 0.003770 0.999942 -0.010061
vn 0.999710 -0.013335 0.020041
vn 0.999710 -0.013335 0.020041
vn 0.999710 -0.013335 0.020041
vn 0.999710 -0.013335 0.020041
vn 0.999710 -0.013335 0.020041
vn 0.016897 0.999853 -0.002993
vn 0.016897 0.999853 -0.002993
vn 0.016897 0.999853 -0.002993
vn 0.016897 0.999853 -0.002993
vn 0.016897 0.999853 -0.002993
vn 0.016897 0.999853 -0.002993
vn 0.000611 0.999680 0.025277
vn 0.000611 0.999680 0.025277
vn 0.000611 0.999680 0.025277
vn 0.000611 0.999680 0.025277
vn 0.000611 0.999680 0.025277
vn 0.999473 -0.032448 0.001041
vn 0.999473 -0.032448 0.001041
vn 0.999473 -0.032448 0.001041
vn 0.999473 -0.032448 0.001041
vn 0.029214 -0.999520 -0.010327
vn 0.029214 -0.999520 -0.010327
vn 0.029214 -0.999520 -0.010327
vn 0.029214 -0.999520 -0.010327
vn 0.029214 -0.999520 -0.010327
vn 0.998842 0.028165 0.039003
vn 0.998842 0.028165 0.039003
vn 0.998842 0.028165 0.039003
vn 0.998842 0.028165 0.039003
vn 0.998842 0.028165 0.039003
vn 0.999152 -0.039127 0.012863
vn 0.999152 -0.039127 0.012863
vn 0.999152 -0.039127 0.012863
vn 0.999151 -0.039127 0.012863
vn 0.999151 -0.039127 0.012863
vn -0.002619 0.999988 0.004032
vn -0.002619 0.999988 0.004032
vn -0.002619 0.999988 0.004032
vn -0.002619 0.999988 0.004032
vn -0.999255 0.026035 0.028492
vn -0.999255 0.026035 0.028492
vn -0.999255 0.026035 0.028492
vn -0.999255 0.026035 0.028492
vn 0.181230 0.787133 -0.589557
vn 0.181230 0.787133 -0.589557
vn 0.181230 0.787133 -0.589557
vn 0.022497 0.999642 0.014521
vn 0.022497 0.999642 0.014521
vn 0.022497 0.999642 0.014521
vn 0.022497 0.999642 0.014521
vn 0.022497 0.999642 0.014521
vn 0.997258 0.073785 0.005674
vn 0.997258 0.073785 0.005674
vn 0.997258 0.073785 0.005674
vn 0.997258 0.073785 0.005674
vn 0.997258 0.073785 0.005674
vn 0.009824 0.998677 0.050485
vn 0.009824 0.998677 0.050485
vn 0.009824 0.998677 0.050485
vn 0.009824 0.998677 0.050485
vn 0.995482 0.087696 0.036406
vn 0.995482 0.087696 0.036406
vn 0.995482 0.087696 0.036406
vn 0.995482 0.087696 0.036406
vn 0.000000 0.000000 1.000000
vn 0.000000 0.000000 1.000000
vn 0.000000 0.000000 1.000000
vn 0.000000 0.000000 1.000000
vn 0.000000 0.000000 1.000000
vn 0.000000 0.000000 1.000000
vn 0.000000 0.000000 1.000000
vn 0.000000 0.000000 1.000000
vn 0.000000 0.000000 1.000000
vn 0.000000 0.000000 -1.000000
vn 0.000000 0.000000 -1.000000
vn 0.000000 0.000000 -1.000000
vn 0.000000 0.000000 -1.000000
vn 0.000000 0.000000 -1.000000
vn 0.000000 0.000000 -1.000000
vn 0.000000 0.000000 -1.000000
vn 0.000000 0.000000 -1.000000
vn -0.000000 0.000000 1.000000
vn -0.000000 0.000000 1.000000
vn -0.000000 0.000000 1.000000
vn -0.000000 0.000000 1.000000
vn 0.000000 0.000000 -1.000000
vn 0.000000 0.000000 -1.000000
vn 0.000000 0.000000 -1.000000
vn 0.000000 0.000000 -1.000000
vn -0.000000 0.000000 -1.000000
vn -0.000000 0.000000 -1.000000
vn -0.000000 0.000000 -1.000000
vn 0.000000 0.000000 -1.000000
vn 0.000000 0.000000 -1.000000
vn 0.000000 0.000000 -1.000000
vn 0.000000 0.000000 -1.000000
vn 0.000000 0.000000 1.000000
vn 0.000000 0.000000 1.000000
vn 0.000000 0.000000 1.000000
vn 0.000000 0.000000 1.000000
vn -0.000000 0.000000 1.000000
vn -0.000000 0.000000 1.000000
vn -0.000000 0.000000 1.000000
vn -0.000000 0.000000 1.000000
vn 0.000000 0.000000 1.000000
vn 0.000000 0.000000 1.000000
vn 0.000000 0.000000 1.000000
vn 0.000000 0.000000 1.000000
vn 0.000000 0.000000 1.000000
vn -0.000000 0.000000 1.000000
vn -0.000000 0.000000 1.000000
vn -0.000000 0.000000 1.000000
vn -0.000000 0.000000 1.000000
vn -0.000000 0.000000 1.000000
vn 0.000010 -0.000009 1.000000
vn 0.000010 -0.000009 1.000000
vn 0.000010 -0.000009 1.000000
vn 0.000010 -0.000009 1.000000
vn 0.000010 -0.000009 1.000000
vn 0.000010 -0.000009 1.000000
vn 0.076517 0.075037 0.994241
vn 0.076517 0.075037 0.994241
vn 0.076517 0.075037 0.994241
vn 0.000000 0.000000 -1.000000
vn 0.000000 0.000000 -1.000000
vn 0.000000 0.000000 -1.000000
vn 0.000000 0.000000 -1.000000
vn 0.000000 0.000000 -1.000000
vn 0.000000 0.000000 -1.000000
vn 0.000000 0.000000 -1.000000
vn 0.000000 0.000000 -1.000000
vn 0.000000 0.000000 -1.000000
vn 0.000000 0.000000 -1.000000
vn 0.000000 0.000000 -1.000000
vn 0.708642 0.563473 0.424646
vn 0.708642 0.563473 0.424646
vn 0.708642 0.563473 0.424646
vn 0.381048 0.492536 -0.782439
vn 0.381048 0.492536 -0.782439
vn 0.381048 0.492536 -0.782439
vn 0.999714 -0.009879 -0.021787
vn 0.999714 -0.009879 -0.021787
vn 0.999714 -0.009879 -0.021787
vn 0.999714 -0.009879 -0.021787
vn 0.999714 -0.009879 -0.021787
vn 0.858575 0.441384 0.260824
vn 0.858575 0.441384 0.260824
vn 0.858575 0.441384 0.260824
vn 0.212334 0.467943 0.857871
vn 0.212334 0.467943 0.857871
vn 0.212334 0.467943 0.857871
vn -0.000227 0.999723 0.023519
vn -0.000227 0.999723 0.023519
vn -0.000227 0.999723 0.023519
vn -0.000227 0.999723 0.023519
vn -0.000227 0.999723 0.023519
vn -0.000227 0.999723 0.023519
vn 0.998586 0.036648 -0.038507
vn 0.998586 0.036648 -0.038507
vn 0.998586 0.036648 -0.038507
vn 0.998586 0.036648 -0.038507
vn 0.998586 0.036648 -0.038507
vn -0.000000 0.000000 -1.000000
vn -0.000000 0.000000 -1.000000
vn -0.000000 0.000000 -1.000000
vn -0.000000 0.000000 -1.000000
vn -0.000000 0.000000 -1.000000
vn 0.485131 0.827562 -0.282469
vn 0.485131 0.827562 -0.282469
vn 0.485131 0.827562 -0.282469
vn 0.450204 0.726049 0.519778
vn 0.450204 0.726049 0.519778
vn 0.450204 0.726049 0.519778
s off
f 1/1/1 2/2/2 4/3/3 10/4/4 3/5/5
f 16/6/6 10/4/7 4/3/8 6/7/9 15/8/10
f 12/9/11 17/10/12 15/8/13 6/7/14 8/11/15
f 7/12/16 12/9/17 13/13/18 2/14/19 1/15/20
f 2/2/21 13/16/22 8/17/23 6/18/24 4/3/25
f 7/19/26 1/1/27 3/5/28 9/20/29 5/21/30
f 3/22/31 10/23/32 11/24/33
f 13/25/34 12/26/35 8/27/36
f 3/22/37 11/24/38 9/28/39
f 15/29/40 17/30/41 16/31/42
f 16/31/43 17/30/44 14/32/45
f 5/33/46 14/34/47 17/10/48 12/9/49 7/12/50
f 9/35/51 11/36/52 10/4/53 16/6/54 14/34/55 5/33/56
f 18/37/57 19/38/58 21/39/59 26/40/60 27/41/61
f 22/42/62 23/43/63 29/44/64 25/45/65 30/46/66 24/47/67
f 24/48/68 30/49/69 31/50/70
f 19/38/71 25/51/72 29/52/73 28/53/74 21/39/75
f 27/54/76 26/55/77 20/56/78
f 20/57/79 26/40/80 21/39/81 28/58/82 23/43/83 22/42/84
f 28/59/85 29/60/86 23/61/87
f 31/62/88 30/46/89 25/45/90 19/63/91 18/64/92
f 24/65/93 31/66/94 18/37/95 27/41/96 20/57/97 22/67/98
f 34/68/99 40/69/100 35/70/101 45/71/102 46/72/103
f 38/73/104 49/74/105 47/75/106 48/76/107
f 33/77/108 50/78/109 39/79/110 43/80/111 42/81/112
f 36/82/113 32/83/114 34/68/115 46/84/116
f 40/69/117 44/85/118 35/70/119
f 35/70/120 44/85/121 43/80/122
f 35/70/123 43/80/124 41/86/125
f 46/72/126 45/71/127 36/87/128
f 36/87/129 45/71/130 37/88/131 39/89/132
f 32/83/133 47/90/134 44/85/135 40/69/136 34/68/137
f 48/76/138 47/75/139 32/91/140
f 43/80/141 44/85/142 42/81/143
f 50/92/144 49/74/145 39/89/146
f 47/75/147 49/74/148 50/92/149 33/93/150
f 44/85/151 47/90/152 33/77/153 42/81/154
f 43/80/155 39/79/156 37/94/157 41/86/158
f 45/71/159 35/70/160 41/95/161 37/88/162
f 36/87/163 39/89/164 49/74/165 38/73/166
f 38/96/167 48/97/168 32/83/169 36/82/170
f 56/98/171 52/99/172 51/100/173 53/101/174
f 56/98/175 53/101/176 54/102/177 55/103/178
f 60/104/179 59/105/180 58/106/181
f 60/104/182 58/106/183 57/107/184
f 55/103/185 58/108/186 59/109/187 82/110/188
f 56/98/189 89/111/190 104/112/191 105/113/192 91/114/193
f 54/102/194 57/115/195 58/108/196 55/103/197
f 61/116/198 82/110/199 59/109/200
f 99/117/201 94/118/202 97/119/203 98/120/204
f 62/121/205 61/122/206 59/105/207 60/104/208
f 73/123/209 72/124/210 70/125/211 53/101/212
f 80/126/213 51/127/214 66/128/215 81/129/216
f 52/130/217 84/131/218 66/128/219 51/127/220
f 85/132/221 67/133/222 102/134/223 103/135/224 86/136/225
f 93/137/226 101/138/227 65/139/228 83/140/229
f 92/141/230 106/142/231 74/143/232 101/144/233 93/145/234
f 91/114/235 73/123/236 64/146/237 107/147/238 106/142/239 92/141/240
f 89/111/241 70/125/242 72/124/243 90/148/244 104/112/245
f 88/149/246 71/150/247 70/125/248 89/111/249
f 87/151/250 69/152/251 63/153/252 71/150/253 88/149/254
f 86/136/255 103/135/256 68/154/257 69/152/258 87/151/259
f 62/155/260 67/156/261 85/157/262 82/158/263 61/159/264
f 83/160/265 65/161/266 75/162/267 94/163/268
f 94/118/269 75/164/270 76/165/271 95/166/272
f 108/167/273 110/168/274 96/169/275
f 97/119/276 78/170/277 111/171/278 112/172/279 98/120/280
f 98/120/281 112/172/282 79/173/283 80/126/284 99/117/285
f 99/117/286 80/126/287 81/129/288 100/174/289
f 100/174/290 81/129/291 66/128/292 84/131/293
f 77/175/294 76/165/295 75/164/296 78/170/297
f 78/170/298 75/164/299 80/126/300 79/173/301 111/171/302
f 83/176/303 94/118/304 99/117/305 52/130/306
f 52/130/307 99/117/308 100/174/309 84/131/310
f 80/126/311 75/164/312 65/177/313 51/127/314
f 56/98/315 93/145/316 83/178/317 52/99/318
f 55/103/319 85/132/320 88/149/321
f 56/98/322 91/114/323 92/141/324 93/145/325
f 53/101/326 70/125/327 71/150/328 54/102/329
f 101/144/330 53/101/331 51/100/332 65/179/333
f 73/123/334 53/101/335 101/144/336 74/143/337 64/146/338
f 54/102/339 71/150/340 67/133/341 60/180/342 57/115/343
f 67/133/344 71/150/345 63/153/346 69/152/347 68/154/348 102/134/349
f 60/180/350 67/133/351 62/181/352
f 55/103/353 88/149/354 89/111/355 56/98/356
f 55/103/357 82/110/358 85/132/359
f 88/149/360 85/132/361 86/136/362 87/151/363
f 103/182/364 102/183/365 68/184/366
f 105/185/367 104/186/368 90/187/369
f 105/113/370 90/148/371 72/124/372 73/123/373 91/114/374
f 106/188/375 107/189/376 74/190/377
f 74/190/378 107/189/379 64/191/380
f 95/166/381 76/165/382 77/175/383 109/192/384 110/193/385 108/194/386
f 96/195/387 109/192/388 77/175/389 78/170/390 97/119/391
f 97/119/392 94/118/393 95/166/394 108/194/395 96/195/396
f 96/169/397 110/168/398 109/196/399
f 112/197/400 111/198/401 79/199/402
