# This file uses centimeters as units for non-parametric coordinates.

v -31.126942 0.000000 27.564388
v 31.126942 0.000000 27.564388
v -31.126942 10.867311 17.240681
v 31.126942 10.867311 27.564388
v -31.126942 10.867311 -27.563641
v 31.126942 10.867311 -27.563641
v -31.126942 0.000000 -27.563641
v 31.126942 0.000000 -27.563641
v -12.274770 10.867311 10.870010
v 12.274770 10.867311 10.870010
v 12.274770 10.867311 -10.869263
v -12.274770 10.867311 -10.869263
v -12.274770 94.124290 10.870010
v 12.274770 94.124290 10.870010
v 12.274770 109.459351 -10.869263
v -12.274770 109.459351 -10.869263
v -22.715528 90.320015 20.115685
v 22.715855 90.320015 20.115685
v 22.715855 119.713364 -20.115311
v -22.715528 119.713364 -20.115311
v -23.762781 94.601852 22.718658
v 23.763062 94.601852 22.718658
v 23.763062 125.350174 -19.366854
v -23.762781 125.350174 -19.366854
v -29.242393 91.056625 27.570740
v 29.242672 91.056625 27.570740
v 29.242672 133.722687 -30.652384
v -29.242393 133.722687 -30.652384
v -29.242393 96.171890 31.308170
v 29.242672 96.171890 31.308170
v 29.242672 138.176849 -27.740761
v -29.242393 138.176849 -27.740761
v -22.662327 99.039238 27.383533
v 22.662514 99.039238 27.383533
v 22.662514 101.829193 23.565018
v -22.662327 101.829193 23.565018
v -22.662327 102.025162 29.897200
v 22.662514 104.802605 32.235615
v 22.662514 106.518433 29.718960
v -22.662327 104.986069 27.707878
v -8.228176 18.958633 10.870010
v 8.228363 18.958633 10.870010
v 8.228363 86.715401 10.870010
v -8.228176 86.715401 10.870010
v -8.228176 21.298763 -10.869263
v 8.228363 21.298763 -10.869263
v -8.228176 104.235435 -10.869263
v 8.228363 104.235435 -10.869263
v -5.797884 23.712690 6.831404
v 5.798071 23.712690 6.831404
v 5.798071 81.961349 6.831404
v -5.797884 81.961349 6.831404
v -5.797884 27.427773 -6.830656
v 5.798071 27.427773 -6.830656
v -5.797884 98.106461 -6.830656
v 5.798071 98.106461 -6.830656
v -12.274770 44.693558 -10.869263
v -12.274770 73.907516 -10.869263
v -9.940698 66.085777 -10.869263
v -12.274770 61.104904 -6.290706
v 12.274770 59.811157 10.870010
v 12.274770 30.771549 10.870010
v 10.099693 46.773003 10.870010
v 12.274770 40.403591 5.941700
v -13.059566 10.867311 27.564388
v -31.126942 5.005796 27.564762
v -1.175887 138.176849 -27.740761
v 21.054760 138.176849 -27.740761
v 14.131714 134.899994 -23.079248
v 12.729851 135.804367 -29.291857
v -29.242393 95.602997 30.892279
v -27.776119 96.171890 31.307796
v -28.252266 96.603371 30.717775
v -22.662327 102.025162 29.897200
v -14.961492 104.802605 32.235241
v -22.662327 104.986069 27.707878
v -17.149927 106.518433 29.718960
vt 0.494237 0.205009
vt 0.494237 0.205009
vt 0.494238 0.205009
vt 0.494237 0.205009
vt 0.494237 0.180728
vt 0.494237 0.205009
vt 0.494237 0.180728
vt 0.494237 0.205009
vt 0.494237 0.205009
vt 0.494237 0.205009
vt 0.494237 0.205009
vt 0.494237 0.205009
vt 0.494237 0.180728
vt 0.494237 0.180728
vt 0.494237 0.205009
vt 0.494237 0.205009
vt 0.494237 0.205009
vt 0.494237 0.180728
vt 0.494237 0.182870
vt 0.494237 0.205009
vt 0.494237 0.187227
vt 0.494237 0.205009
vt 0.494237 0.182870
vt 0.494237 0.182870
vt 0.494237 0.205009
vt 0.494237 0.205009
vt 0.494237 0.182870
vt 0.494237 0.182870
vt 0.494237 0.205009
vt 0.494237 0.205009
vt 0.494237 0.182870
vt 0.494237 0.182870
vt 0.494237 0.205009
vt 0.494237 0.205009
vt 0.494237 0.190115
vt 0.494237 0.176209
vt 0.494237 0.212254
vt 0.494237 0.212254
vt 0.494237 0.182870
vt 0.494237 0.182870
vt 0.494237 0.187810
vt 0.494237 0.189456
vt 0.494237 0.182870
vt 0.494237 0.168964
vt 0.494237 0.182870
vt 0.494237 0.182870
vt 0.494237 0.205009
vt 0.494237 0.205009
vt 0.494237 0.205009
vt 0.494237 0.182870
vt 0.494237 0.205009
vt 0.494237 0.205009
vt 0.494237 0.205009
vt 0.494237 0.205009
vt 0.494237 0.205009
vt 0.494237 0.205009
vt 0.494237 0.205009
vt 0.494237 0.205009
vt 0.494237 0.205009
vt 0.494237 0.205009
vt 0.494237 0.205009
vt 0.494237 0.205009
vt 0.494263 0.180729
vt 0.494263 0.180729
vt 0.494263 0.180725
vt 0.494263 0.180725
vt 0.494263 0.180729
vt 0.494263 0.180729
vt 0.494263 0.180725
vt 0.494263 0.180725
vt 0.494237 0.205009
vt 0.494237 0.205009
vt 0.494237 0.205009
vt 0.494237 0.205009
vt 0.494237 0.205009
vt 0.494237 0.205009
vt 0.494237 0.205009
vt 0.494237 0.205009
vt 0.494237 0.205009
vt 0.494237 0.205009
vt 0.494237 0.205009
vt 0.494237 0.212254
vt 0.494237 0.212254
vt 0.494237 0.211305
vt 0.494237 0.208395
vt 0.494237 0.189309
vt 0.494237 0.189766
vt 0.494237 0.189025
vt 0.494237 0.182870
vt 0.494237 0.180508
vt 0.494237 0.185023
vt 0.494237 0.182870
vn 0.000003 -0.000005 1.000000
vn 0.000003 -0.000005 1.000000
vn 0.000003 -0.000005 1.000000
vn 0.000003 -0.000005 1.000000
vn 0.000003 -0.000005 1.000000
vn -0.416838 0.540376 0.730917
vn -0.416838 0.540376 0.730917
vn -0.416838 0.540376 0.730917
vn -0.416838 0.540376 0.730917
vn 0.000000 0.000000 -1.000000
vn 0.000000 0.000000 -1.000000
vn 0.000000 0.000000 -1.000000
vn 0.000000 0.000000 -1.000000
vn 0.000000 -1.000000 0.000000
vn 0.000000 -1.000000 0.000000
vn 0.000000 -1.000000 0.000000
vn 0.000000 -1.000000 0.000000
vn 1.000000 0.000000 0.000000
vn 1.000000 0.000000 0.000000
vn 1.000000 0.000000 0.000000
vn 1.000000 0.000000 0.000000
vn -1.000000 0.000000 0.000000
vn -1.000000 0.000000 0.000000
vn -1.000000 0.000000 0.000000
vn -1.000000 0.000000 0.000000
vn -1.000000 0.000000 0.000000
vn 0.000000 1.000000 0.000000
vn 0.000000 1.000000 0.000000
vn 0.000000 1.000000 0.000000
vn 0.000000 1.000000 0.000000
vn 0.000000 1.000000 0.000000
vn 0.000000 1.000000 0.000000
vn 0.000000 1.000000 0.000000
vn 0.000000 1.000000 0.000000
vn 0.000000 1.000000 0.000000
vn 0.000000 1.000000 0.000000
vn 0.000000 1.000000 0.000000
vn 0.000000 1.000000 0.000000
vn 0.000000 0.000000 1.000000
vn 0.000000 0.000000 1.000000
vn 0.000000 0.000000 1.000000
vn 0.000000 0.000000 1.000000
vn 1.000000 0.000000 0.000000
vn 1.000000 0.000000 0.000000
vn 1.000000 0.000000 0.000000
vn 1.000000 0.000000 0.000000
vn 0.000000 0.000000 -1.000000
vn 0.000000 0.000000 -1.000000
vn 0.000000 0.000000 -1.000000
vn 0.000000 0.000000 -1.000000
vn -1.000000 0.000000 0.000000
vn -1.000000 0.000000 0.000000
vn -1.000000 0.000000 0.000000
vn -1.000000 0.000000 0.000000
vn 0.000000 -0.924775 -0.380513
vn 0.000000 -0.924775 -0.380513
vn 0.000000 -0.924775 -0.380513
vn 0.000000 -0.924775 -0.380513
vn 0.242930 -0.786562 -0.567719
vn 0.242930 -0.786562 -0.567719
vn 0.242930 -0.786562 -0.567719
vn 0.242930 -0.786562 -0.567719
vn 0.000000 -0.669662 -0.742666
vn 0.000000 -0.669662 -0.742666
vn 0.000000 -0.669662 -0.742666
vn 0.000000 -0.669662 -0.742666
vn -0.242937 -0.786561 -0.567718
vn -0.242937 -0.786561 -0.567718
vn -0.242937 -0.786561 -0.567718
vn -0.242937 -0.786561 -0.567718
vn 0.000000 -0.519457 0.854496
vn 0.000000 -0.519457 0.854496
vn 0.000000 -0.519457 0.854496
vn 0.000000 -0.519457 0.854496
vn 0.978705 -0.165745 -0.121096
vn 0.978705 -0.165745 -0.121096
vn 0.978705 -0.165745 -0.121096
vn 0.978705 -0.165745 -0.121096
vn 0.000000 0.131625 -0.991300
vn 0.000000 0.131625 -0.991300
vn 0.000000 0.131625 -0.991300
vn 0.000000 0.131625 -0.991300
vn -0.978704 -0.165753 -0.121101
vn -0.978704 -0.165753 -0.121101
vn -0.978704 -0.165753 -0.121101
vn -0.978704 -0.165753 -0.121101
vn 0.000000 -0.807434 -0.589959
vn 0.000000 -0.807434 -0.589959
vn 0.000000 -0.807434 -0.589959
vn 0.000000 -0.807434 -0.589959
vn 0.008744 -0.806931 -0.590581
vn 0.008744 -0.806931 -0.590581
vn 0.008744 -0.806931 -0.590581
vn 0.008744 -0.806931 -0.590581
vn 0.000000 -0.803119 -0.595819
vn 0.000000 -0.803119 -0.595819
vn 0.000000 -0.803119 -0.595819
vn 0.000000 -0.803119 -0.595819
vn -0.008744 -0.806931 -0.590581
vn -0.008744 -0.806931 -0.590581
vn -0.008744 -0.806931 -0.590581
vn -0.008744 -0.806931 -0.590581
vn -0.000002 -0.589931 0.807454
vn -0.000002 -0.589931 0.807454
vn -0.000002 -0.589931 0.807454
vn -0.000002 -0.589931 0.807454
vn -0.000002 -0.589931 0.807454
vn 1.000000 0.000000 0.000000
vn 1.000000 0.000000 0.000000
vn 1.000000 0.000000 0.000000
vn 1.000000 0.000000 0.000000
vn 0.000010 0.547167 -0.837024
vn 0.000010 0.547167 -0.837024
vn 0.000010 0.547167 -0.837024
vn 0.000010 0.547167 -0.837024
vn -1.000000 -0.000000 0.000000
vn -1.000000 -0.000000 0.000000
vn -1.000000 -0.000000 0.000000
vn -1.000000 -0.000000 0.000000
vn -1.000000 -0.000000 0.000000
vn 0.000154 0.807256 0.590201
vn 0.000154 0.807256 0.590201
vn 0.000154 0.807256 0.590201
vn 0.017334 0.814287 0.580204
vn 0.017334 0.814287 0.580204
vn 0.017334 0.814287 0.580204
vn 0.017334 0.814287 0.580204
vn 0.001368 0.815998 0.578053
vn 0.001368 0.815998 0.578053
vn 0.001368 0.815998 0.578053
vn 0.001368 0.815998 0.578053
vn -0.017335 0.814288 0.580203
vn -0.017335 0.814288 0.580203
vn -0.017335 0.814288 0.580203
vn -0.017335 0.814288 0.580203
vn -0.017335 0.814288 0.580203
vn -0.000003 -0.644020 0.765008
vn -0.000003 -0.644020 0.765008
vn -0.000003 -0.644020 0.765008
vn -0.000003 -0.644020 0.765009
vn -0.000003 -0.644020 0.765008
vn 1.000000 0.000000 0.000000
vn 1.000000 0.000000 0.000000
vn 1.000000 0.000000 0.000000
vn 1.000000 0.000000 0.000000
vn 0.000000 0.795400 -0.606085
vn 0.000000 0.795400 -0.606085
vn 0.000000 0.795400 -0.606085
vn 0.000000 0.795400 -0.606085
vn 0.000000 0.795400 -0.606085
vn -1.000000 0.000000 0.000000
vn -1.000000 0.000000 0.000000
vn -1.000000 0.000000 0.000000
vn -1.000000 0.000000 0.000000
vn 0.000000 0.000000 1.000000
vn 0.000000 0.000000 1.000000
vn 0.000000 0.000000 1.000000
vn 0.000000 0.000000 1.000000
vn -0.000000 0.000000 1.000000
vn -0.000000 0.000000 1.000000
vn -0.000000 0.000000 1.000000
vn -0.000000 0.000000 1.000000
vn 0.000000 0.000000 1.000000
vn 0.000000 0.000000 1.000000
vn 0.000000 0.000000 1.000000
vn 0.000000 0.000000 1.000000
vn -0.000000 0.000000 1.000000
vn -0.000000 0.000000 1.000000
vn -0.000000 0.000000 1.000000
vn -0.000000 0.000000 1.000000
vn 0.000000 0.000000 -1.000000
vn 0.000000 0.000000 -1.000000
vn 0.000000 0.000000 -1.000000
vn 0.000000 0.000000 -1.000000
vn -0.000000 0.000000 -1.000000
vn -0.000000 0.000000 -1.000000
vn -0.000000 0.000000 -1.000000
vn -0.000000 0.000000 -1.000000
vn 0.000000 0.000000 -1.000000
vn 0.000000 0.000000 -1.000000
vn 0.000000 0.000000 -1.000000
vn 0.000000 0.000000 -1.000000
vn -0.000000 0.000000 -1.000000
vn -0.000000 0.000000 -1.000000
vn -0.000000 0.000000 -1.000000
vn -0.000000 0.000000 -1.000000
vn 0.000000 0.647430 0.762125
vn 0.000000 0.647430 0.762125
vn 0.000000 0.647430 0.762125
vn 0.000000 0.647430 0.762125
vn -0.856825 0.000000 0.515607
vn -0.856825 0.000000 0.515607
vn -0.856825 0.000000 0.515607
vn -0.856825 0.000000 0.515607
vn 0.000000 -0.647431 0.762124
vn 0.000000 -0.647431 0.762124
vn 0.000000 -0.647431 0.762124
vn 0.000000 -0.647431 0.762124
vn 0.856825 0.000000 0.515607
vn 0.856825 0.000000 0.515607
vn 0.856825 0.000000 0.515607
vn 0.856825 0.000000 0.515607
vn 0.000000 0.550222 -0.835019
vn 0.000000 0.550222 -0.835019
vn 0.000000 0.550221 -0.835019
vn 0.000000 0.550221 -0.835019
vn 0.856825 0.000000 -0.515607
vn 0.856825 0.000000 -0.515607
vn 0.856825 0.000000 -0.515607
vn 0.856825 0.000000 -0.515607
vn 0.000000 -0.550224 -0.835018
vn 0.000000 -0.550224 -0.835018
vn 0.000000 -0.550224 -0.835017
vn 0.000000 -0.550224 -0.835017
vn -0.856825 0.000000 -0.515607
vn -0.856825 0.000000 -0.515607
vn -0.856825 0.000000 -0.515607
vn -0.856825 0.000000 -0.515607
vn -0.748420 -0.223335 -0.624491
vn -0.748420 -0.223335 -0.624491
vn -0.748420 -0.223335 -0.624491
vn -0.926540 0.101093 -0.362358
vn -0.926540 0.101093 -0.362358
vn -0.926540 0.101093 -0.362358
vn 0.000000 0.000000 -1.000000
vn 0.000000 0.000000 -1.000000
vn 0.000000 0.000000 -1.000000
vn 0.000000 0.000000 -1.000000
vn 0.000001 0.000000 -1.000000
vn 0.000001 0.000000 -1.000000
vn 0.000001 0.000000 -1.000000
vn -1.000000 -0.000000 0.000000
vn -1.000000 -0.000000 0.000000
vn -1.000000 -0.000000 0.000000
vn -1.000000 -0.000000 0.000000
vn -1.000000 0.000000 0.000000
vn -1.000000 0.000000 0.000000
vn -1.000000 0.000000 0.000000
vn 0.827773 -0.138092 0.543804
vn 0.827773 -0.138092 0.543804
vn 0.827773 -0.138092 0.543804
vn 0.958242 0.130254 0.254572
vn 0.958242 0.130254 0.254572
vn 0.958242 0.130254 0.254572
vn 0.000000 0.000000 1.000000
vn 0.000000 0.000000 1.000000
vn 0.000000 0.000000 1.000000
vn 0.000000 0.000000 1.000000
vn 0.000001 0.000000 1.000000
vn 0.000001 0.000000 1.000000
vn 0.000001 0.000000 1.000000
vn 1.000000 -0.000000 0.000000
vn 1.000000 -0.000000 0.000000
vn 1.000000 -0.000000 0.000000
vn 1.000000 -0.000000 0.000000
vn 1.000000 0.000000 0.000000
vn 1.000000 0.000000 0.000000
vn 1.000000 0.000000 0.000000
vn -0.271518 0.836949 0.475179
vn -0.271518 0.836949 0.475179
vn -0.271518 0.836949 0.475179
vn 0.000000 1.000000 0.000000
vn 0.000000 1.000000 0.000000
vn 0.000000 1.000000 0.000000
vn 0.000000 1.000000 -0.000000
vn 0.000000 1.000000 -0.000000
vn 0.000000 1.000000 -0.000000
vn 0.000000 1.000000 -0.000000
vn -0.303271 0.930827 0.203933
vn -0.303271 0.930827 0.203933
vn -0.303271 0.930827 0.203933
vn 0.178369 0.978640 0.102217
vn 0.178369 0.978640 0.102217
vn 0.178369 0.978640 0.102217
vn -0.000241 0.815926 0.578156
vn -0.000241 0.815926 0.578156
vn -0.000241 0.815926 0.578156
vn -0.000241 0.815926 0.578156
vn -0.000241 0.815926 0.578156
vn -0.000004 0.547171 -0.837021
vn -0.000004 0.547170 -0.837021
vn -0.000004 0.547171 -0.837021
vn -0.000004 0.547171 -0.837021
vn 0.000000 0.547088 -0.837075
vn 0.000000 0.547088 -0.837075
vn 0.000000 0.547088 -0.837075
vn -0.000003 0.826219 0.563349
vn -0.000003 0.826219 0.563350
vn -0.000003 0.826219 0.563350
vn -0.000003 0.826219 0.563350
vn 0.000203 -0.590157 0.807289
vn 0.000203 -0.590157 0.807289
vn 0.000203 -0.590157 0.807289
vn 0.000001 0.807440 0.589950
vn 0.000001 0.807440 0.589950
vn 0.000001 0.807440 0.589950
vn 0.000001 0.807440 0.589950
vn 0.000001 0.807440 0.589950
vn 0.000000 0.000000 0.000000
vn 0.000000 0.000000 0.000000
vn 0.000000 0.000000 0.000000
vn 0.000000 0.000000 0.000000
vn 0.000000 0.000000 0.000000
vn 0.000000 0.000000 0.000000
vn 0.000000 0.000000 0.000000
vn 0.000000 0.000000 0.000000
vn 0.000000 0.000000 0.000000
vn 0.000000 0.000000 0.000000
s off
f 1/1/1 2/2/2 4/4/3 65/79/4 66/80/5
f 37/43/6 75/90/7 77/92/8 40/46/9
f 5/5/10 6/6/11 8/8/12 7/7/13
f 7/7/14 8/8/15 2/10/16 1/9/17
f 2/2/18 8/11/19 6/12/20 4/4/21
f 7/13/22 1/1/23 66/80/24 3/3/25 5/14/26
f 4/4/27 6/6/28 11/17/29 10/16/30
f 6/6/31 5/5/32 12/18/33 11/17/34
f 5/5/35 3/81/36 9/15/37 12/18/38
f 49/63/39 50/64/40 51/65/41 52/66/42
f 10/16/43 11/17/44 64/78/45 62/76/46
f 54/67/47 53/68/48 55/69/49 56/70/50
f 12/18/51 9/15/52 60/74/53 57/71/54
f 13/19/55 14/20/56 18/24/57 17/23/58
f 14/20/59 15/21/60 19/25/61 18/24/62
f 15/21/63 16/22/64 20/26/65 19/25/66
f 16/22/67 13/19/68 17/23/69 20/26/70
f 17/23/71 18/24/72 22/28/73 21/27/74
f 18/24/75 19/25/76 23/29/77 22/28/78
f 19/25/79 20/26/80 24/30/81 23/29/82
f 20/26/83 17/23/84 21/27/85 24/30/86
f 21/27/87 22/28/88 26/32/89 25/31/90
f 22/28/91 23/29/92 27/33/93 26/32/94
f 23/29/95 24/30/96 28/34/97 27/33/98
f 24/30/99 21/27/100 25/31/101 28/34/102
f 25/31/103 26/32/104 30/36/105 72/87/106 71/86/107
f 26/32/108 27/33/109 31/37/110 30/36/111
f 27/33/112 70/85/113 68/83/114 31/37/115
f 28/34/116 25/31/117 71/86/118 29/35/119 32/38/120
f 29/35/121 72/87/122 73/88/123
f 30/36/124 31/37/125 35/41/126 34/40/127
f 31/37/128 68/83/129 69/84/130 35/41/131
f 32/38/132 29/35/133 73/88/134 33/39/135 36/42/136
f 33/39/137 34/40/138 38/44/139 75/90/140 74/89/141
f 34/40/142 35/41/143 39/45/144 38/44/145
f 35/41/146 36/42/147 76/91/148 77/92/149 39/45/150
f 36/42/151 33/39/152 74/89/153 76/91/154
f 9/15/155 10/16/156 42/48/157 41/47/158
f 43/49/159 63/77/160 61/75/161 14/20/162
f 14/20/163 13/19/164 44/50/165 43/49/166
f 13/19/167 9/15/168 41/47/169 44/50/170
f 11/17/171 12/18/172 45/52/173 46/51/174
f 47/53/175 59/73/176 58/72/177 16/22/178
f 16/22/179 15/21/180 48/54/181 47/53/182
f 15/21/183 11/17/184 46/51/185 48/54/186
f 41/47/187 42/48/188 50/56/189 49/55/190
f 42/48/191 43/49/192 51/57/193 50/56/194
f 43/49/195 44/50/196 52/58/197 51/57/198
f 44/50/199 41/47/200 49/55/201 52/58/202
f 46/51/203 45/52/204 53/60/205 54/59/206
f 45/52/207 47/53/208 55/61/209 53/60/210
f 47/53/211 48/54/212 56/62/213 55/61/214
f 48/54/215 46/51/216 54/59/217 56/62/218
f 58/72/219 59/73/220 60/74/221
f 60/74/222 59/73/223 57/71/224
f 12/18/225 57/71/226 59/73/227 45/52/228
f 45/52/229 59/73/230 47/53/231
f 60/74/232 13/19/233 16/22/234 58/72/235
f 60/74/236 9/15/237 13/19/238
f 63/77/239 64/78/240 61/75/241
f 62/76/242 64/78/243 63/77/244
f 10/16/245 62/76/246 63/77/247 42/48/248
f 42/48/249 63/77/250 43/49/251
f 64/78/252 15/21/253 14/20/254 61/75/255
f 64/78/256 11/17/257 15/21/258
f 66/80/259 65/79/260 3/3/261
f 3/3/262 65/79/263 9/15/264
f 9/15/265 65/79/266 4/4/267 10/16/268
f 68/83/269 70/85/270 69/84/271
f 69/84/272 70/85/273 67/82/274
f 35/41/275 69/84/276 67/82/277 32/38/278 36/42/279
f 70/85/280 28/34/281 32/38/282 67/82/283
f 27/33/284 28/34/285 70/85/286
f 77/92/287 75/90/288 38/44/289 39/45/290
f 71/86/291 72/87/292 29/35/293
f 73/88/294 72/87/295 30/36/296 34/40/297 33/39/298
f 74/89/299 75/90/300 37/43/301
f 77/92/302 76/91/303 40/46/304
f 76/91/305 74/89/306 37/43/307 40/46/308
