# This file uses centimeters as units for non-parametric coordinates.

v -10.390696 6.536681 18.194439
v -8.991117 6.536681 18.194439
v -10.563028 10.106604 18.194439
v -8.818792 10.106604 18.194439
v -10.824976 10.492033 16.537415
v -8.556837 10.492033 16.537415
v -10.600893 6.151251 16.537415
v -8.780928 6.151251 16.537415
v 8.915197 6.536681 18.194439
v 10.466616 6.536681 18.194439
v 8.794409 10.106604 18.194439
v 10.587404 10.106604 18.194439
v 8.556837 10.492033 16.537415
v 10.824976 10.492033 16.537415
v 8.709639 6.151251 16.537415
v 10.672182 6.151251 16.537415
v -15.849003 0.000000 16.033123
v 15.849003 0.000000 16.033123
v -15.849003 12.479755 16.033123
v 15.849003 12.479755 16.033123
v -15.849003 12.479755 -8.894483
v 15.849003 12.479755 -8.894483
v -15.849003 0.000000 -8.894483
v 15.849003 0.000000 -8.894483
v -16.814142 1.166145 -9.398773
v -16.814142 1.166145 16.537415
v 16.814142 1.166145 16.537415
v 16.814142 1.166145 -9.398773
v 16.814142 11.646454 16.537415
v -16.814142 11.646454 16.537415
v -16.814142 11.646450 -9.398773
v 16.814144 10.931670 -9.398773
v -16.814142 7.737009 16.537415
v 16.814142 7.737009 16.537415
v 16.814142 7.737006 -9.398773
v -16.814142 7.737006 -9.398773
v 16.814142 9.620125 -9.398773
v 16.814142 9.620130 16.537415
v -16.814142 9.620130 16.537415
v -16.814142 9.620125 -9.398773
v -17.319817 7.929749 17.086193
v 17.319817 7.929749 17.086193
v 17.319820 9.427374 17.086193
v -17.319820 9.427374 17.086193
v -17.319817 9.427370 -9.947552
v 17.319817 9.427370 -9.947552
v 17.319817 7.929749 -9.947552
v -17.319817 7.929749 -9.947552
v 12.303789 5.024010 -9.398773
v -12.303789 5.024010 -9.398773
v 12.303789 2.499884 -9.398773
v -12.303789 2.499884 -9.398773
v 8.758928 5.024010 -9.398773
v -8.758928 5.024010 -9.398773
v 8.758928 2.499885 -9.398773
v -8.758928 2.499884 -9.398773
v 8.404642 5.024010 -13.816729
v 8.404642 2.499885 -13.816729
v 11.806114 5.024010 -16.242571
v 11.806114 2.499884 -16.242571
v -8.404642 5.024010 -13.816729
v -11.806114 5.024010 -16.242571
v -8.404642 2.499884 -13.816729
v -11.806114 2.499884 -16.242571
v 7.041986 4.797739 -15.721401
v 7.041986 2.726156 -15.721401
v -7.041986 4.797739 -15.721401
v -7.041986 2.726156 -15.721401
v 8.647409 4.797739 -17.213467
v -9.891967 4.797739 -18.194420
v -9.891967 3.499952 -18.194420
v 9.891967 2.726156 -18.194420
v -16.814142 11.646451 0.975683
v -15.132813 12.479755 6.259564
v -16.814142 11.646454 11.868907
v -16.814142 10.834076 6.023647
v 15.872938 3.523623 16.537415
v 16.814142 3.783481 15.772275
v -12.845129 1.166145 16.537415
v 1.452402 1.166145 16.537415
v -6.031813 0.000000 16.033123
v -6.492747 2.094894 16.537415
v 5.685710 4.797739 -18.194420
v 9.891967 4.053852 -18.194420
v 16.814142 11.646450 -7.783640
v 11.606326 11.646450 -9.398773
v -11.610054 12.479755 -8.894483
v -0.463374 12.479755 -8.894482
v -7.968983 11.646450 -9.398773
v -7.670589 12.479755 -7.227251
v 11.483589 11.646455 16.537415
v 1.079442 11.646454 16.537415
v 5.410350 12.479755 14.426456
v 5.542068 10.711329 16.537415
v -8.536517 2.726156 -17.126057
v -3.023931 2.726156 -18.194420
vt 0.103485 0.325693
vt 0.103485 0.325693
vt 0.103485 0.325693
vt 0.103485 0.325693
vt 0.103485 0.325693
vt 0.103485 0.325693
vt 0.103485 0.325693
vt 0.103485 0.325693
vt 0.103485 0.325693
vt 0.103485 0.325693
vt 0.103485 0.325693
vt 0.103485 0.325693
vt 0.103485 0.325693
vt 0.103485 0.325693
vt 0.103485 0.325693
vt 0.103485 0.325693
vt 0.103485 0.325693
vt 0.103485 0.325693
vt 0.103485 0.325693
vt 0.103485 0.325693
vt 0.103485 0.325693
vt 0.103485 0.325693
vt 0.103485 0.325693
vt 0.103485 0.325693
vt 0.103485 0.325693
vt 0.103485 0.325693
vt 0.103485 0.325693
vt 0.103485 0.325693
vt 0.176544 0.254534
vt 0.176544 0.254534
vt 0.176544 0.254534
vt 0.176544 0.254534
vt 0.176544 0.254534
vt 0.176544 0.254534
vt 0.176544 0.254534
vt 0.176544 0.254534
vt 0.177299 0.279336
vt 0.177299 0.279336
vt 0.177299 0.279336
vt 0.177299 0.279336
vt 0.177299 0.279336
vt 0.177299 0.279336
vt 0.177299 0.279336
vt 0.177299 0.279336
vt 0.177299 0.279336
vt 0.177299 0.279336
vt 0.177299 0.279336
vt 0.177299 0.279336
vt 0.177299 0.279336
vt 0.177299 0.279336
vt 0.177299 0.279336
vt 0.177299 0.279336
vt 0.177299 0.279336
vt 0.177299 0.279336
vt 0.177299 0.279336
vt 0.177299 0.279336
vt 0.177299 0.279336
vt 0.177299 0.279336
vt 0.177299 0.279336
vt 0.177299 0.279336
vt 0.177299 0.279336
vt 0.177299 0.279336
vt 0.177299 0.279336
vt 0.177299 0.279336
vt 0.177299 0.279336
vt 0.177299 0.279336
vt 0.177299 0.279336
vt 0.177299 0.279336
vt 0.177299 0.279336
vt 0.177299 0.279336
vt 0.177299 0.279336
vt 0.177299 0.279336
vt 0.177299 0.279336
vt 0.177299 0.279336
vt 0.177299 0.279336
vt 0.177299 0.279336
vt 0.176544 0.254534
vt 0.176544 0.254534
vt 0.176544 0.254534
vt 0.176544 0.254534
vt 0.176544 0.254534
vt 0.176544 0.254534
vt 0.176544 0.254534
vt 0.176544 0.254534
vt 0.177299 0.279336
vt 0.177299 0.279336
vt 0.177299 0.279336
vt 0.177299 0.279336
vt 0.177299 0.279336
vt 0.177299 0.279336
vt 0.177299 0.253642
vt 0.177299 0.253642
vt 0.177299 0.253642
vt 0.177299 0.253642
vt 0.177299 0.253642
vt 0.177299 0.253642
vt 0.177299 0.253642
vt 0.177299 0.253642
vt 0.177299 0.253642
vt 0.177299 0.253642
vt 0.177299 0.253642
vt 0.177299 0.253642
vt 0.177299 0.253642
vt 0.177299 0.253642
vt 0.177299 0.253642
vt 0.177299 0.253642
vt 0.177299 0.253642
vt 0.177299 0.253642
vt 0.177299 0.253642
vt 0.177299 0.253642
vt 0.177299 0.253642
vt 0.177299 0.253642
vt 0.177299 0.253642
vt 0.177299 0.253642
vt 0.177299 0.253642
vt 0.177299 0.253642
vt 0.177299 0.253642
vt 0.177299 0.253642
vt 0.177299 0.253642
vt 0.177299 0.253642
vt 0.177299 0.253642
vt 0.177299 0.253642
vt 0.177299 0.253642
vt 0.177299 0.253642
vt 0.177299 0.253642
vt 0.177299 0.253642
vt 0.177299 0.253642
vt 0.177299 0.253642
vt 0.177299 0.253642
vt 0.177299 0.253642
vt 0.177299 0.253642
vt 0.177299 0.253642
vt 0.177299 0.253642
vt 0.177299 0.253642
vt 0.177299 0.253642
vt 0.177299 0.253642
vt 0.177299 0.253642
vt 0.177299 0.253642
vt 0.177299 0.253642
vt 0.177299 0.253642
vt 0.177299 0.253642
vt 0.177299 0.253642
vt 0.177299 0.253642
vt 0.177299 0.253642
vt 0.177299 0.253642
vt 0.177299 0.253642
vt 0.177299 0.253642
vt 0.177299 0.253642
vt 0.177299 0.253642
vt 0.177299 0.253642
vt 0.177299 0.253642
vt 0.177299 0.253642
vt 0.177299 0.253642
vt 0.177299 0.253642
vt 0.177299 0.253642
vt 0.177299 0.253642
vt 0.177299 0.253642
vt 0.177299 0.253642
vt 0.177299 0.253642
vt 0.177299 0.253642
vt 0.177299 0.253642
vt 0.177299 0.253642
vt 0.177299 0.253642
vt 0.177299 0.253642
vt 0.177299 0.253642
vt 0.177299 0.253642
vt 0.177299 0.253642
vt 0.177299 0.253642
vt 0.177299 0.253642
vt 0.177299 0.253642
vt 0.177299 0.279336
vt 0.177299 0.279336
vt 0.177299 0.279336
vt 0.177299 0.279336
vt 0.177299 0.279336
vt 0.177299 0.279336
vt 0.177299 0.279336
vt 0.177299 0.279336
vt 0.177299 0.279336
vt 0.177299 0.279336
vt 0.177299 0.279336
vt 0.177299 0.253642
vt 0.177299 0.253642
vt 0.177299 0.253642
vt 0.177299 0.253642
vt 0.177299 0.279336
vt 0.177299 0.279336
vt 0.177299 0.279336
vt 0.177299 0.279336
vt 0.177299 0.279336
vt 0.177299 0.279336
vt 0.177299 0.279336
vt 0.177299 0.279336
vt 0.177299 0.279336
vt 0.177299 0.279336
vt 0.177299 0.279336
vt 0.177299 0.279336
vt 0.177299 0.279336
vt 0.177299 0.253642
vt 0.177299 0.253642
vt 0.177299 0.253642
vt 0.177299 0.253642
vn 0.000000 0.000000 1.000000
vn 0.000000 0.000000 1.000000
vn 0.000000 0.000000 1.000000
vn 0.000000 0.000000 1.000000
vn 0.000000 0.973998 0.226556
vn 0.000000 0.973998 0.226555
vn 0.000000 0.973998 0.226556
vn 0.000000 0.973998 0.226556
vn 0.000000 -0.973998 0.226555
vn 0.000000 -0.973998 0.226555
vn 0.000000 -0.973998 0.226555
vn 0.000000 -0.973998 0.226555
vn 0.988787 -0.049549 0.140870
vn 0.988787 -0.049549 0.140870
vn 0.988787 -0.049549 0.140870
vn 0.988787 -0.049549 0.140870
vn -0.988787 -0.049550 0.140870
vn -0.988787 -0.049550 0.140870
vn -0.988787 -0.049550 0.140870
vn -0.988787 -0.049550 0.140870
vn 0.000000 0.000000 1.000000
vn 0.000000 0.000000 1.000000
vn 0.000000 0.000000 1.000000
vn 0.000000 0.000000 1.000000
vn 0.000000 0.973998 0.226555
vn 0.000000 0.973998 0.226555
vn 0.000000 0.973998 0.226555
vn 0.000000 0.973998 0.226555
vn 0.000000 -0.973998 0.226555
vn 0.000000 -0.973998 0.226555
vn 0.000000 -0.973998 0.226555
vn 0.000000 -0.973998 0.226555
vn 0.990596 -0.034259 0.132458
vn 0.990596 -0.034259 0.132458
vn 0.990596 -0.034259 0.132458
vn 0.990596 -0.034259 0.132458
vn -0.990597 -0.034260 0.132456
vn -0.990597 -0.034260 0.132456
vn -0.990597 -0.034260 0.132456
vn -0.990597 -0.034260 0.132456
vn 0.000000 0.000000 1.000000
vn 0.000000 0.000000 1.000000
vn 0.000000 0.000000 1.000000
vn 0.000000 0.000000 1.000000
vn 0.000000 0.000000 -1.000000
vn 0.000000 0.000000 -1.000000
vn 0.000000 0.000000 -1.000000
vn 0.000000 0.000000 -1.000000
vn 0.000000 -1.000000 0.000000
vn 0.000000 -1.000000 0.000000
vn 0.000000 -1.000000 0.000000
vn 0.000000 -1.000000 0.000000
vn 1.000000 -0.000001 -0.000000
vn 1.000000 -0.000001 -0.000000
vn 1.000000 -0.000001 -0.000000
vn 1.000000 -0.000001 -0.000000
vn -1.000000 -0.000001 -0.000000
vn -1.000000 -0.000001 -0.000000
vn -1.000000 -0.000001 -0.000000
vn -1.000000 -0.000001 -0.000000
vn -0.770376 -0.637589 0.000000
vn -0.770376 -0.637589 0.000000
vn -0.770376 -0.637589 0.000000
vn -0.770376 -0.637589 0.000000
vn -0.028028 -0.239772 0.970425
vn -0.028028 -0.239772 0.970425
vn -0.028028 -0.239772 0.970425
vn 0.770377 -0.637589 0.000000
vn 0.770377 -0.637589 0.000000
vn 0.770377 -0.637589 0.000000
vn 0.770377 -0.637589 0.000000
vn 0.000000 -0.396919 -0.917854
vn 0.000000 -0.396919 -0.917854
vn 0.000000 -0.396919 -0.917854
vn 0.000000 -0.396919 -0.917854
vn 0.023413 0.820923 0.570558
vn 0.023413 0.820923 0.570558
vn 0.023413 0.820923 0.570558
vn 0.023413 0.820923 0.570558
vn -0.557072 0.830317 0.015628
vn -0.557072 0.830317 0.015628
vn -0.557072 0.830317 0.015628
vn -0.557072 0.830317 0.015628
vn 0.000000 0.517744 -0.855536
vn 0.000000 0.517744 -0.855536
vn 0.000000 0.517744 -0.855536
vn 0.000000 0.517744 -0.855536
vn 0.653518 0.756911 -0.000000
vn 0.653518 0.756911 -0.000000
vn 0.653518 0.756911 -0.000000
vn 0.653518 0.756911 -0.000000
vn 0.000000 0.000000 1.000000
vn 0.000000 0.000000 1.000000
vn 0.000000 0.000000 1.000000
vn 0.000000 0.000000 1.000000
vn 1.000000 0.000001 0.000000
vn 1.000000 0.000001 0.000000
vn 1.000000 0.000001 0.000000
vn -0.000000 0.000000 -1.000000
vn -0.000000 0.000000 -1.000000
vn -0.000000 0.000000 -1.000000
vn -0.000000 0.000000 -1.000000
vn -1.000000 0.000000 0.000000
vn -1.000000 0.000000 0.000000
vn -1.000000 0.000000 0.000000
vn -1.000000 0.000000 0.000000
vn 1.000000 0.000000 0.000000
vn 1.000000 0.000000 0.000000
vn 1.000000 0.000000 0.000000
vn 1.000000 0.000000 0.000000
vn 1.000000 0.000000 0.000000
vn 0.000000 0.000000 1.000000
vn 0.000000 0.000000 1.000000
vn 0.000000 0.000000 1.000000
vn 0.000000 0.000000 1.000000
vn -1.000000 -0.000002 0.000000
vn -1.000000 -0.000002 0.000000
vn -1.000000 -0.000002 0.000000
vn -1.000000 -0.000002 0.000000
vn 0.000000 0.000000 -1.000000
vn 0.000000 0.000000 -1.000000
vn 0.000000 0.000000 -1.000000
vn 0.000000 -0.943500 0.331373
vn 0.000000 -0.943500 0.331373
vn 0.000000 -0.943500 0.331373
vn 0.000000 -0.943500 0.331373
vn 0.000000 0.943492 0.331396
vn 0.000000 0.943492 0.331396
vn 0.000000 0.943492 0.331396
vn 0.000000 0.943492 0.331396
vn 0.000000 0.943492 -0.331396
vn 0.000000 0.943492 -0.331396
vn 0.000000 0.943492 -0.331396
vn 0.000000 0.943492 -0.331396
vn 0.000000 -0.943499 -0.331376
vn 0.000000 -0.943499 -0.331376
vn 0.000000 -0.943499 -0.331376
vn 0.000000 -0.943499 -0.331376
vn 0.356162 -0.934424 0.000000
vn 0.356162 -0.934424 0.000000
vn 0.356162 -0.934424 0.000000
vn 0.356162 -0.934424 0.000000
vn 0.356184 0.934416 -0.000000
vn 0.356184 0.934416 -0.000000
vn 0.356184 0.934416 -0.000000
vn 0.356184 0.934416 -0.000000
vn -0.356162 -0.934424 0.000000
vn -0.356162 -0.934424 0.000000
vn -0.356162 -0.934424 0.000000
vn -0.356162 -0.934424 0.000000
vn -0.356184 0.934416 -0.000000
vn -0.356184 0.934416 -0.000000
vn -0.356184 0.934416 -0.000000
vn -0.356184 0.934416 -0.000000
vn 0.000000 1.000000 0.000000
vn 0.000000 1.000000 0.000000
vn 0.000000 1.000000 0.000000
vn 0.000000 1.000000 0.000000
vn 0.000000 0.000000 -1.000000
vn 0.000000 0.000000 -1.000000
vn 0.000000 0.000000 -1.000000
vn 0.000000 0.000000 -1.000000
vn 0.000000 0.000000 -1.000000
vn 0.000000 0.000000 -1.000000
vn 0.000000 0.000000 -1.000000
vn 0.000000 0.000000 -1.000000
vn 0.000000 0.000000 -1.000000
vn 0.000000 0.000000 -1.000000
vn 0.000000 0.000000 -1.000000
vn 0.000000 0.000000 -1.000000
vn 0.000000 0.000000 -1.000000
vn 0.000000 0.000000 -1.000000
vn 0.000000 0.000000 -1.000000
vn 0.000000 0.000000 -1.000000
vn 0.000000 0.000000 -1.000000
vn 0.000000 0.000000 -1.000000
vn 0.000000 0.000000 -1.000000
vn 0.000000 0.000000 -1.000000
vn -0.996800 0.000000 0.079936
vn -0.996800 0.000000 0.079936
vn -0.996800 0.000000 0.079936
vn -0.996800 0.000000 0.079936
vn 0.000000 1.000000 0.000000
vn 0.000000 1.000000 0.000000
vn 0.000000 1.000000 0.000000
vn 0.000000 1.000000 0.000000
vn 0.997366 0.000000 -0.072528
vn 0.997366 0.000000 -0.072528
vn 0.997366 0.000000 -0.072528
vn 0.997366 0.000000 -0.072528
vn -0.000000 -1.000000 0.000000
vn -0.000000 -1.000000 0.000000
vn -0.000000 -1.000000 0.000000
vn -0.000000 -1.000000 0.000000
vn 0.000000 1.000000 -0.000000
vn 0.000000 1.000000 -0.000000
vn 0.000000 1.000000 -0.000000
vn 0.000000 1.000000 -0.000000
vn 0.996800 0.000000 0.079936
vn 0.996800 0.000000 0.079936
vn 0.996800 0.000000 0.079936
vn 0.996800 0.000000 0.079936
vn 0.000000 -1.000000 -0.000000
vn 0.000000 -1.000000 -0.000000
vn 0.000000 -1.000000 -0.000000
vn 0.000000 -1.000000 -0.000000
vn -0.997366 0.000000 -0.072528
vn -0.997366 0.000000 -0.072528
vn -0.997366 0.000000 -0.072528
vn -0.997366 0.000000 -0.072528
vn -0.000000 0.000000 1.000000
vn -0.000000 0.000000 1.000000
vn -0.000000 0.000000 1.000000
vn -0.000000 0.000000 1.000000
vn 0.000000 1.000000 0.000000
vn 0.000000 1.000000 0.000000
vn 0.000000 1.000000 0.000000
vn 0.000000 1.000000 0.000000
vn 0.000000 1.000000 0.000000
vn 0.000000 -1.000000 0.000000
vn 0.000000 -1.000000 0.000000
vn 0.000000 -1.000000 0.000000
vn 0.000000 -1.000000 0.000000
vn 0.000000 -1.000000 0.000000
vn 0.000000 0.000000 -1.000000
vn 0.000000 0.000000 -1.000000
vn 0.000000 0.000000 -1.000000
vn 0.000000 0.000000 -1.000000
vn 0.000000 0.000000 -1.000000
vn 0.000000 0.000000 -1.000000
vn -0.813294 0.000000 0.581854
vn -0.813294 0.000000 0.581854
vn -0.813294 0.000000 0.581854
vn -0.813294 0.000000 0.581854
vn 0.813294 0.000000 0.581853
vn 0.813294 0.000000 0.581853
vn 0.813294 0.000000 0.581853
vn 0.813294 0.000000 0.581853
vn -0.054994 0.996010 -0.070279
vn -0.054994 0.996010 -0.070279
vn -0.054994 0.996010 -0.070279
vn -0.054994 0.996010 -0.070279
vn 0.054981 0.996019 -0.070162
vn 0.054981 0.996019 -0.070162
vn 0.054981 0.996019 -0.070162
vn 0.054981 0.996019 -0.070162
vn 0.054995 -0.996009 -0.070292
vn 0.054995 -0.996009 -0.070292
vn 0.054995 -0.996009 -0.070292
vn 0.054995 -0.996009 -0.070292
vn -0.054981 -0.996019 -0.070162
vn -0.054981 -0.996019 -0.070162
vn -0.054981 -0.996019 -0.070162
vn -0.054981 -0.996019 -0.070162
vn -0.713969 0.000000 -0.700178
vn -0.713969 0.000000 -0.700178
vn -0.713969 0.000000 -0.700178
vn -0.713969 0.000000 -0.700178
vn 0.713969 0.000000 -0.700178
vn 0.713969 0.000000 -0.700178
vn 0.713969 0.000000 -0.700178
vn 0.713969 0.000000 -0.700178
vn -0.579345 0.814576 -0.028730
vn -0.579345 0.814576 -0.028730
vn -0.579345 0.814576 -0.028730
vn -0.579345 0.814576 -0.028730
vn -0.703062 0.702095 0.112989
vn -0.703062 0.702095 0.112989
vn -0.703062 0.702095 0.112989
vn -1.000000 0.000001 0.000000
vn -1.000000 0.000001 0.000000
vn -1.000000 0.000001 0.000000
vn -1.000000 0.000001 0.000000
vn -1.000000 0.000000 0.000000
vn -1.000000 0.000000 0.000000
vn -1.000000 0.000000 0.000000
vn -0.688812 0.718039 -0.099794
vn -0.688812 0.718039 -0.099794
vn -0.688812 0.718039 -0.099794
vn 0.647908 -0.144732 0.747842
vn 0.647908 -0.144732 0.747842
vn 0.647908 -0.144732 0.747842
vn 0.575005 0.229566 0.785283
vn 0.575005 0.229566 0.785283
vn 0.575005 0.229566 0.785283
vn 0.000000 -0.396920 0.917853
vn 0.000000 -0.396920 0.917853
vn 0.000000 -0.396920 0.917853
vn 0.000000 -0.396920 0.917853
vn 0.000000 -0.396920 0.917853
vn 0.000000 -0.396920 0.917853
vn 0.000000 -0.396920 0.917853
vn 0.000000 -0.396920 0.917853
vn 0.000000 0.000000 1.000000
vn 0.000000 0.000000 1.000000
vn 0.000000 0.000000 1.000000
vn 0.000000 0.000000 1.000000
vn -0.000000 0.000000 1.000000
vn -0.000000 0.000000 1.000000
vn -0.000000 0.000000 1.000000
vn -0.000000 0.000000 1.000000
vn 0.033189 -0.227001 0.973329
vn 0.033189 -0.227001 0.973329
vn 0.033189 -0.227001 0.973329
vn 0.000000 -1.000000 0.000000
vn 0.000000 -1.000000 0.000000
vn 0.000000 -1.000000 0.000000
vn 1.000000 -0.000000 0.000000
vn 1.000000 -0.000000 0.000000
vn 1.000000 -0.000000 0.000000
vn 1.000000 -0.000000 0.000000
vn 0.154142 0.871583 -0.465385
vn 0.154142 0.871583 -0.465385
vn 0.154142 0.871583 -0.465385
vn 0.098639 0.849178 -0.518813
vn 0.098639 0.849178 -0.518813
vn 0.098639 0.849178 -0.518813
vn 0.782163 0.569772 -0.252152
vn 0.782163 0.569772 -0.252152
vn 0.782163 0.569772 -0.252152
vn 0.046010 0.335221 -0.941015
vn 0.046010 0.335221 -0.941015
vn 0.046010 0.335221 -0.941015
vn 0.000000 0.517744 -0.855536
vn 0.000000 0.517744 -0.855536
vn 0.000000 0.517744 -0.855536
vn 0.000000 0.517744 -0.855536
vn 0.157689 0.914497 -0.372599
vn 0.157689 0.914497 -0.372599
vn 0.157689 0.914497 -0.372599
vn 0.000000 0.000000 -1.000000
vn 0.000000 0.000000 -1.000000
vn 0.000000 0.000000 -1.000000
vn 0.000000 0.000000 -1.000000
vn 0.000000 0.000000 -1.000000
vn 0.000000 0.000000 -1.000000
vn 0.000000 0.000000 -1.000000
vn -0.080378 0.934242 -0.347464
vn -0.080378 0.934242 -0.347464
vn -0.080378 0.934242 -0.347464
vn -0.067072 0.749758 0.658304
vn -0.067072 0.749758 0.658304
vn -0.067072 0.749758 0.658304
vn -0.067072 0.749758 0.658304
vn 0.159593 0.761613 0.628073
vn 0.159593 0.761613 0.628073
vn 0.159593 0.761613 0.628073
vn -0.119209 0.757419 0.641955
vn -0.119209 0.757419 0.641955
vn -0.119209 0.757419 0.641955
vn -0.000000 0.000000 1.000000
vn -0.000000 0.000000 1.000000
vn -0.000000 0.000000 1.000000
vn -0.000000 0.000000 1.000000
vn 0.000000 0.000000 1.000000
vn 0.000000 0.000000 1.000000
vn 0.000000 0.000000 1.000000
vn -0.096944 -0.860456 -0.500218
vn -0.096944 -0.860456 -0.500218
vn -0.096944 -0.860456 -0.500217
vn -0.080353 -0.852924 -0.515813
vn -0.080353 -0.852924 -0.515813
vn -0.080353 -0.852925 -0.515813
vn 0.000000 1.000000 0.000000
vn 0.000000 1.000000 0.000000
vn 0.000000 1.000000 0.000000
vn 0.000000 1.000000 0.000000
vn 0.000000 1.000000 0.000000
vn 0.000000 1.000000 0.000000
vn 0.000000 1.000000 0.000000
vn 0.000000 1.000000 0.000000
vn 0.000000 1.000000 0.000000
s off
f 1/1/1 2/2/2 4/4/3 3/3/4
f 3/3/5 4/4/6 6/6/7 5/5/8
f 7/7/9 8/8/10 2/10/11 1/9/12
f 2/2/13 8/11/14 6/12/15 4/4/16
f 7/13/17 1/1/18 3/3/19 5/14/20
f 9/15/21 10/16/22 12/17/23 11/18/24
f 11/18/25 12/17/26 14/19/27 13/20/28
f 15/22/29 16/21/30 10/23/31 9/24/32
f 10/16/33 16/25/34 14/26/35 12/17/36
f 15/27/37 9/15/38 11/18/39 13/28/40
f 41/29/41 42/30/42 43/31/43 44/32/44
f 45/33/45 46/34/46 47/35/47 48/36/48
f 23/37/49 24/38/50 81/180/51 17/40/52
f 42/30/53 47/35/54 46/34/55 43/31/56
f 48/36/57 41/29/58 44/32/59 45/33/60
f 23/41/61 17/42/62 26/43/63 25/44/64
f 82/181/65 81/179/66 80/178/67
f 18/45/68 24/47/69 28/48/70 27/46/71
f 25/49/72 28/50/73 24/38/74 23/37/75
f 30/51/76 92/196/77 93/197/78 19/54/79
f 31/55/80 73/171/81 74/172/82 21/56/83
f 21/57/84 87/188/85 89/192/86 31/60/87
f 29/52/88 85/186/89 22/62/90 20/53/91
f 77/175/92 82/181/93 80/178/94 27/46/95
f 27/46/96 28/48/97 78/176/98
f 56/66/99 54/67/100 53/68/101 55/69/102
f 25/44/103 26/43/104 33/64/105 36/70/106
f 38/71/107 37/72/108 32/61/109 85/186/110 29/52/111
f 39/73/112 94/198/113 92/196/114 30/51/115
f 40/74/116 76/174/117 73/171/118 31/55/119
f 40/76/120 89/192/121 37/75/122
f 33/77/123 34/78/124 42/30/125 41/29/126
f 38/79/127 39/80/128 44/32/129 43/31/130
f 40/81/131 37/82/132 46/34/133 45/33/134
f 35/83/135 36/84/136 48/36/137 47/35/138
f 34/78/139 35/83/140 47/35/141 42/30/142
f 37/82/143 38/79/144 43/31/145 46/34/146
f 36/84/147 33/77/148 41/29/149 48/36/150
f 39/80/151 40/81/152 45/33/153 44/32/154
f 74/172/155 90/193/156 87/189/157 21/56/158
f 36/85/159 35/86/160 49/87/161 53/68/162 54/67/163 50/88/164
f 35/86/165 28/50/166 51/89/167 49/87/168
f 28/50/169 25/49/170 52/90/171 56/66/172 55/69/173 51/89/174
f 25/49/175 36/85/176 50/88/177 52/90/178
f 55/91/179 53/92/180 57/93/181 58/94/182
f 53/95/183 49/96/184 59/97/185 57/98/186
f 49/99/187 51/100/188 60/101/189 59/102/190
f 51/103/191 55/104/192 58/105/193 60/106/194
f 50/107/195 54/108/196 61/109/197 62/110/198
f 54/111/199 56/112/200 63/113/201 61/114/202
f 56/115/203 52/116/204 64/117/205 63/118/206
f 52/119/207 50/120/208 62/121/209 64/122/210
f 66/123/211 65/124/212 67/125/213 68/126/214
f 65/127/215 69/128/216 83/183/217 70/129/218 67/130/219
f 66/131/220 68/132/221 95/199/222 96/201/223 72/134/224
f 72/135/225 96/202/226 71/136/227 70/137/228 83/182/229 84/184/230
f 58/139/231 57/140/232 65/141/233 66/142/234
f 61/143/235 63/144/236 68/145/237 67/146/238
f 57/147/239 59/148/240 69/149/241 65/150/242
f 62/151/243 61/152/244 67/153/245 70/154/246
f 63/155/247 64/156/248 95/200/249 68/158/250
f 60/159/251 58/160/252 66/161/253 72/162/254
f 64/163/255 62/164/256 70/165/257 71/166/258
f 59/167/259 60/168/260 72/169/261 84/185/262
f 74/172/263 75/173/264 30/51/265 19/54/266
f 74/172/267 73/171/268 76/174/269
f 76/174/270 39/73/271 30/51/272 75/173/273
f 40/74/274 39/73/275 76/174/276
f 74/172/277 76/174/278 75/173/279
f 34/63/280 77/175/281 78/176/282
f 78/176/283 77/175/284 27/46/285
f 17/42/286 81/179/287 79/177/288 26/43/289
f 80/178/290 81/179/291 18/45/292 27/46/293
f 26/43/294 79/177/295 82/181/296 33/64/297
f 33/64/298 82/181/299 77/175/300 34/63/301
f 79/177/302 81/179/303 82/181/304
f 81/180/305 24/38/306 18/39/307
f 78/176/308 28/48/309 35/65/310 34/63/311
f 84/184/312 83/182/313 69/138/314
f 59/167/315 84/185/316 69/170/317
f 22/62/318 85/186/319 32/61/320
f 86/187/321 22/58/322 32/59/323
f 89/192/324 88/190/325 22/58/326 86/187/327
f 89/192/328 87/188/329 90/194/330
f 31/60/331 89/192/332 40/76/333
f 37/75/334 89/192/335 86/187/336 32/59/337
f 89/192/338 90/194/339 88/190/340
f 93/197/341 91/195/342 29/52/343 20/53/344
f 92/196/345 94/198/346 93/197/347
f 93/197/348 94/198/349 91/195/350
f 94/198/351 38/71/352 29/52/353 91/195/354
f 39/73/355 38/71/356 94/198/357
f 96/201/358 95/199/359 71/133/360
f 95/200/361 64/156/362 71/157/363
f 22/58/364 88/191/365 90/193/366 93/197/367 20/53/368
f 93/197/369 90/193/370 74/172/371 19/54/372
