# This file uses centimeters as units for non-parametric coordinates.

v 30.620382 -3.298747 42.659233
v -30.620382 -3.298747 22.524696
v 30.620382 -3.298747 -42.659233
v -28.357634 -3.298747 -36.533138
v 30.620382 3.298747 42.659233
v -28.357634 3.298747 -36.533138
v -30.620382 3.298746 22.524696
v 30.620382 3.298747 -42.659233
vt 0.215519 0.138341
vt 0.205401 0.150701
vt 0.205013 0.141484
vt 0.215519 0.151657
vt 0.215519 0.138341
vt 0.205401 0.150701
vt 0.205013 0.141484
vt 0.215519 0.151657
vt 0.205401 0.150701
vt 0.205013 0.141484
vt 0.215519 0.138341
vt 0.215519 0.151657
vn -0.000000 1.000000 0.000000
vn -0.000000 1.000000 0.000000
vn -0.000000 1.000000 0.000000
vn 0.000000 1.000000 0.000000
vn -0.000000 1.000000 0.000000
vn -0.000000 1.000000 0.000000
vn 0.000000 -1.000000 0.000000
vn 0.000000 -1.000000 0.000000
vn 0.000000 -1.000000 0.000000
vn 0.000000 -1.000000 0.000000
vn 0.000000 -1.000000 0.000000
vn 0.000000 -1.000000 0.000000
vn -0.999267 0.000000 -0.038286
vn -0.999267 0.000000 -0.038286
vn -0.999267 0.000000 -0.038286
vn -0.999267 0.000000 -0.038286
vn -0.312329 0.000000 0.949974
vn -0.312329 0.000000 0.949974
vn -0.312329 0.000000 0.949974
vn -0.312329 0.000000 0.949974
vn -0.103315 0.000000 -0.994649
vn -0.103315 0.000000 -0.994649
vn -0.103315 0.000000 -0.994649
vn -0.103315 0.000000 -0.994649
vn 1.000000 0.000000 0.000000
vn 1.000000 0.000000 0.000000
vn 1.000000 0.000000 0.000000
vn 1.000000 0.000000 0.000000
s off
f 5/11/1 6/9/2 7/10/3
f 8/12/4 6/9/5 5/11/6
f 1/5/7 2/7/8 4/6/9
f 3/8/10 1/5/11 4/6/12
f 4/2/13 2/3/14 7/10/15 6/9/16
f 2/3/17 1/1/18 5/11/19 7/10/20
f 3/4/21 4/2/22 6/9/23 8/12/24
f 1/1/25 3/4/26 8/12/27 5/11/28
