# This file uses centimeters as units for non-parametric coordinates.

v 37.077133 38.149494 27.422752
v 35.813187 46.559967 1.922226
v 37.331192 39.696857 -19.216221
v 33.939102 14.170753 -31.184704
v 33.732864 6.284657 -25.045368
v 29.519211 5.824254 3.018349
v 34.087021 5.924809 26.142906
v 35.271988 19.357275 31.478325
v -10.613113 36.542236 18.157562
v -11.679031 41.175896 -0.228081
v -12.067093 35.313457 -18.202999
v -11.724899 11.775343 -27.935757
v -7.825027 7.130722 -22.735950
v -7.853073 6.868389 0.517097
v -6.730331 7.297081 24.839905
v -8.685226 20.582325 27.625412
v 51.544601 31.543762 17.172707
v 51.999466 36.889156 2.268303
v 57.465378 15.232059 1.530556
v 52.067429 31.543766 -12.620544
v 51.160477 20.566761 -21.250023
v 49.438522 6.749533 -17.389053
v 48.169418 6.584963 2.539337
v 48.887009 7.447740 22.339645
v 50.855026 18.865526 24.808243
v -38.773483 15.952435 6.564423
v -40.624283 17.910328 1.487419
v -41.619156 15.568928 -3.615456
v -43.008560 10.654541 -5.494423
v -42.162766 8.204071 -3.100800
v -39.736984 7.929153 2.159836
v -38.495987 8.109806 7.147644
v -38.593124 11.093199 8.349113
v -51.405441 17.738365 9.395782
v -53.157211 19.758476 1.405205
v -50.552689 15.201111 -2.646065
v -56.733383 10.209541 -7.384315
v -55.019150 8.456146 -3.856354
v -53.121048 8.270203 4.147034
v -52.503128 8.492828 10.731796
v -49.108932 12.579597 8.873138
v -52.798935 16.254578 7.786903
v -54.148849 17.698219 2.369316
v -52.138657 14.329254 -0.955078
v -57.347794 10.947166 -4.356628
v -57.465378 8.679817 -3.294357
v -55.952438 8.606850 3.739372
v -55.370255 8.804634 8.794434
v -51.229843 12.783066 7.139450
v -41.686966 11.337124 1.906464
v -19.702560 14.526539 22.487366
v -17.472916 7.660122 20.344040
v -18.701065 7.166691 2.346252
v -28.619247 7.661415 -12.350212
v -26.990707 13.576790 -20.284286
v -26.561417 27.910721 -13.103035
v -24.741867 32.555717 0.774750
v -22.606522 28.946507 15.135773
v 7.916122 16.868319 32.776688
v 7.909836 6.621441 27.812508
v 9.869217 6.310282 0.052940
v 9.524490 6.697634 -27.659813
v 10.545456 20.368744 -32.776688
v 10.655319 41.944855 -22.477692
v 9.484360 47.395531 -0.000397
v 7.638199 41.941772 27.636299
v -38.081802 7.929081 1.947693
v -37.199326 8.101200 6.300873
v -37.444656 11.068937 7.272339
v -37.434067 15.365829 5.795326
v -38.679214 16.955563 0.505554
v -39.988632 15.092295 -3.838341
v -41.197159 10.883287 -5.546532
v -39.819717 8.230164 -2.858559
v -43.706039 10.959648 -2.990112
v -42.488602 13.841866 -1.249260
v -41.829697 15.556477 1.514359
v -40.726547 14.436016 5.152061
v -40.547043 11.341751 6.193535
v -40.589981 8.555489 5.495567
v -41.524429 8.341263 2.261307
v -43.047470 8.665970 -1.034309
v -34.487106 21.665161 1.109665
v -34.125412 21.026592 3.099892
v -37.971695 16.237619 3.690430
v -39.815536 16.996494 3.635727
v -35.876511 21.204344 3.176300
v -36.362473 21.787308 1.912468
v -36.390579 18.807129 -4.353172
v -38.042435 16.961065 -5.578705
v -39.549179 15.814890 -2.370514
v -40.297531 16.651712 -1.213776
v -39.711929 17.454603 0.449158
v -38.621384 17.542662 -4.577850
v -37.613876 18.700439 -3.707314
vt 0.083388 0.109789
vt 0.083388 0.109789
vt 0.083388 0.109789
vt 0.083388 0.109789
vt 0.083388 0.108570
vt 0.083388 0.108570
vt 0.083388 0.108570
vt 0.083388 0.109789
vt 0.083388 0.109789
vt 0.083388 0.109789
vt 0.083388 0.109789
vt 0.083388 0.109789
vt 0.083388 0.108570
vt 0.083388 0.108570
vt 0.083388 0.108570
vt 0.083388 0.109789
vt 0.083388 0.109789
vt 0.083388 0.136747
vt 0.083388 0.136747
vt 0.083388 0.136747
vt 0.083388 0.136747
vt 0.083388 0.110773
vt 0.083388 0.110773
vt 0.083388 0.110773
vt 0.083388 0.136747
vt 0.083388 0.136747
vt 0.083388 0.110773
vt 0.083388 0.110773
vt 0.083388 0.110773
vt 0.083388 0.136747
vt 0.083388 0.136747
vt 0.083388 0.136747
vt 0.083388 0.136747
vt 0.083388 0.136747
vt 0.083388 0.109789
vt 0.083388 0.136747
vt 0.083388 0.109789
vt 0.083388 0.109789
vt 0.083388 0.109789
vt 0.083388 0.109789
vt 0.083388 0.108570
vt 0.083388 0.108570
vt 0.083388 0.108570
vt 0.083388 0.109789
vt 0.094299 0.209927
vt 0.094299 0.209927
vt 0.094299 0.209928
vt 0.094299 0.209928
vt 0.094299 0.209928
vt 0.094299 0.209928
vt 0.094299 0.209928
vt 0.094299 0.209928
vt 0.083388 0.136747
vt 0.083388 0.136747
vt 0.083388 0.136747
vt 0.083388 0.136747
vt 0.083388 0.136747
vt 0.083388 0.136747
vt 0.083388 0.136747
vt 0.083388 0.136747
vt 0.083388 0.136747
vt 0.083388 0.136747
vt 0.083388 0.136747
vt 0.083388 0.136747
vt 0.083388 0.136747
vt 0.083388 0.136747
vt 0.083388 0.136747
vt 0.083388 0.136747
vt 0.083388 0.136747
vt 0.083388 0.110773
vt 0.083388 0.110773
vt 0.083388 0.110773
vt 0.083388 0.136747
vt 0.083388 0.136747
vt 0.083388 0.136747
vt 0.083388 0.136747
vt 0.083388 0.110169
vt 0.083388 0.110773
vt 0.083388 0.110773
vt 0.083388 0.108694
vt 0.083388 0.118522
vt 0.083388 0.136747
vt 0.083388 0.136747
vt 0.083388 0.110169
vt 0.083388 0.110169
vt 0.083388 0.110773
vt 0.083388 0.110773
vt 0.083388 0.136747
vt 0.083388 0.136747
vt 0.083388 0.136747
vt 0.083388 0.136747
vt 0.083388 0.136747
vt 0.083388 0.110773
vt 0.083388 0.136747
vt 0.083388 0.136747
vt 0.083388 0.136747
vt 0.083388 0.136747
vt 0.083388 0.136747
vt 0.083388 0.136747
vt 0.083388 0.136747
vt 0.083388 0.136747
vt 0.094299 0.209928
vt 0.094299 0.209928
vt 0.094299 0.209928
vt 0.094299 0.209928
vt 0.094299 0.209928
vt 0.094299 0.209928
vt 0.094299 0.209928
vt 0.094299 0.209928
vt 0.094299 0.209928
vt 0.094299 0.209928
vt 0.094299 0.209928
vt 0.094299 0.209928
vt 0.094299 0.209928
vt 0.094299 0.209928
vt 0.094299 0.209927
vt 0.094299 0.209928
vt 0.083388 0.136747
vt 0.083388 0.136747
vt 0.094299 0.209927
vt 0.083388 0.136747
vt 0.094299 0.209927
vt 0.094330 0.210411
vt 0.094330 0.210411
vt 0.094330 0.210411
vt 0.094299 0.209927
vt 0.094299 0.209927
vt 0.083388 0.136747
vt 0.083388 0.136747
vt 0.094299 0.209927
vt 0.083388 0.136747
vt 0.094543 0.210205
vt 0.094543 0.210205
vt 0.094543 0.210205
vt 0.094543 0.210205
vt 0.094299 0.209927
vt 0.094543 0.210205
vt 0.094299 0.209927
vt 0.094543 0.210205
vt 0.094543 0.210205
vt 0.094543 0.210205
vn 0.072330 0.964878 0.252543
vn 0.072330 0.964878 0.252543
vn 0.072330 0.964878 0.252543
vn 0.072330 0.964878 0.252543
vn 0.081902 0.960457 -0.266111
vn 0.081902 0.960457 -0.266111
vn 0.081902 0.960457 -0.266111
vn 0.081902 0.960457 -0.266111
vn 0.156582 0.412584 -0.897361
vn 0.156582 0.412584 -0.897361
vn 0.156582 0.412584 -0.897361
vn 0.156582 0.412584 -0.897361
vn 0.013933 -0.463434 -0.886022
vn 0.013933 -0.463434 -0.886022
vn 0.013933 -0.463434 -0.886022
vn 0.013933 -0.463434 -0.886022
vn -0.018396 -0.999695 -0.016471
vn -0.018396 -0.999695 -0.016471
vn -0.018396 -0.999695 -0.016471
vn -0.018396 -0.999695 -0.016471
vn -0.026064 -0.999616 0.009424
vn -0.026064 -0.999616 0.009424
vn -0.026064 -0.999616 0.009424
vn -0.026064 -0.999616 0.009424
vn 0.064088 -0.400754 0.913942
vn 0.064088 -0.400754 0.913942
vn 0.064088 -0.400754 0.913942
vn 0.064088 -0.400754 0.913942
vn 0.030731 0.204057 0.978477
vn 0.030731 0.204057 0.978477
vn 0.030731 0.204057 0.978477
vn 0.030731 0.204057 0.978477
vn 0.964057 0.239384 0.115277
vn 0.964057 0.239384 0.115277
vn 0.964057 0.239384 0.115277
vn 0.965478 0.246534 -0.084104
vn 0.965478 0.246534 -0.084104
vn 0.965478 0.246534 -0.084104
vn 0.964249 0.109898 -0.241136
vn 0.964249 0.109898 -0.241136
vn 0.964249 0.109898 -0.241136
vn 0.930938 -0.201178 -0.304764
vn 0.930938 -0.201178 -0.304764
vn 0.930938 -0.201178 -0.304764
vn 0.682789 -0.729655 0.037457
vn 0.682789 -0.729655 0.037457
vn 0.682789 -0.729655 0.037457
vn 0.681491 -0.731791 0.007189
vn 0.681491 -0.731791 0.007189
vn 0.681491 -0.731791 0.007189
vn 0.927659 -0.224424 0.298466
vn 0.927659 -0.224424 0.298466
vn 0.927659 -0.224425 0.298466
vn 0.960990 0.102455 0.256907
vn 0.960990 0.102455 0.256907
vn 0.960990 0.102455 0.256907
vn 0.517756 0.812990 0.266414
vn 0.517756 0.812990 0.266414
vn 0.517756 0.812990 0.266414
vn 0.517756 0.812990 0.266414
vn 0.525122 0.812767 -0.252304
vn 0.525122 0.812767 -0.252304
vn 0.525122 0.812767 -0.252304
vn 0.525122 0.812767 -0.252304
vn 0.437999 0.402113 -0.804028
vn 0.438000 0.402113 -0.804028
vn 0.438000 0.402113 -0.804028
vn 0.437999 0.402113 -0.804028
vn 0.495350 -0.399451 -0.771406
vn 0.495350 -0.399451 -0.771406
vn 0.495350 -0.399451 -0.771406
vn 0.495350 -0.399451 -0.771406
vn 0.037471 -0.999260 -0.008732
vn 0.037471 -0.999260 -0.008732
vn 0.037471 -0.999260 -0.008732
vn 0.037471 -0.999260 -0.008732
vn 0.069861 -0.997462 0.013783
vn 0.069861 -0.997461 0.013783
vn 0.069861 -0.997462 0.013783
vn 0.069861 -0.997462 0.013783
vn 0.318400 -0.320558 0.892112
vn 0.318400 -0.320558 0.892112
vn 0.318400 -0.320558 0.892112
vn 0.318400 -0.320558 0.892112
vn 0.519696 0.261015 0.813503
vn 0.519696 0.261015 0.813503
vn 0.519696 0.261015 0.813503
vn 0.519696 0.261015 0.813503
vn -0.539784 0.802338 0.254731
vn -0.539784 0.802338 0.254731
vn -0.539784 0.802338 0.254730
vn -0.539784 0.802338 0.254731
vn -0.526868 0.817356 -0.233109
vn -0.526868 0.817356 -0.233109
vn -0.526868 0.817356 -0.233109
vn -0.526868 0.817356 -0.233109
vn -0.423860 0.370158 -0.826635
vn -0.423860 0.370158 -0.826635
vn -0.423860 0.370158 -0.826635
vn -0.423860 0.370158 -0.826635
vn -0.327902 -0.763134 -0.556872
vn -0.327902 -0.763134 -0.556872
vn -0.327902 -0.763134 -0.556872
vn -0.327902 -0.763134 -0.556872
vn -0.030784 -0.999455 -0.011915
vn -0.030784 -0.999455 -0.011915
vn -0.030784 -0.999455 -0.011915
vn -0.030784 -0.999455 -0.011915
vn -0.033524 -0.999159 0.023633
vn -0.033524 -0.999159 0.023633
vn -0.033524 -0.999159 0.023633
vn -0.033524 -0.999159 0.023633
vn -0.323788 -0.287690 0.901330
vn -0.323788 -0.287690 0.901330
vn -0.323788 -0.287690 0.901330
vn -0.323788 -0.287690 0.901330
vn -0.494062 0.359653 0.791551
vn -0.494062 0.359653 0.791551
vn -0.494062 0.359653 0.791551
vn -0.494062 0.359653 0.791551
vn -0.751616 0.512976 0.414644
vn -0.751616 0.512976 0.414644
vn -0.751616 0.512976 0.414644
vn -0.751616 0.512976 0.414644
vn -0.899161 0.436147 -0.035845
vn -0.899161 0.436147 -0.035845
vn -0.899162 0.436147 -0.035845
vn -0.899161 0.436147 -0.035845
vn -0.905205 0.385603 -0.178643
vn -0.905206 0.385603 -0.178643
vn -0.905206 0.385603 -0.178643
vn -0.905205 0.385603 -0.178643
vn -0.855350 -0.470339 -0.217157
vn -0.855350 -0.470339 -0.217157
vn -0.855350 -0.470339 -0.217157
vn -0.855350 -0.470339 -0.217157
vn -0.268613 -0.961585 0.056580
vn -0.268613 -0.961585 0.056580
vn -0.268613 -0.961585 0.056580
vn -0.268613 -0.961585 0.056580
vn -0.257677 -0.959452 0.114256
vn -0.257677 -0.959452 0.114256
vn -0.257677 -0.959452 0.114256
vn -0.257677 -0.959452 0.114256
vn -0.687207 -0.232986 0.688088
vn -0.687207 -0.232986 0.688088
vn -0.687207 -0.232986 0.688088
vn -0.687207 -0.232986 0.688088
vn -0.695644 0.212378 0.686276
vn -0.695644 0.212378 0.686276
vn -0.695644 0.212378 0.686276
vn -0.695644 0.212378 0.686276
vn -0.813012 0.489916 0.314633
vn -0.813012 0.489916 0.314633
vn -0.813012 0.489916 0.314633
vn -0.813012 0.489916 0.314633
vn -0.776495 0.122992 -0.618004
vn -0.776495 0.122992 -0.618004
vn -0.776495 0.122992 -0.618004
vn -0.776495 0.122992 -0.618004
vn -0.482961 0.852268 -0.200966
vn -0.482961 0.852268 -0.200966
vn -0.482961 0.852268 -0.200966
vn -0.482961 0.852268 -0.200966
vn -0.641724 -0.673547 -0.366775
vn -0.641724 -0.673547 -0.366775
vn -0.641724 -0.673547 -0.366775
vn -0.641724 -0.673547 -0.366775
vn -0.105377 -0.994409 0.006782
vn -0.105377 -0.994409 0.006782
vn -0.105377 -0.994409 0.006782
vn -0.105377 -0.994409 0.006782
vn -0.132997 -0.989881 0.049465
vn -0.132997 -0.989881 0.049465
vn -0.132997 -0.989881 0.049465
vn -0.132997 -0.989881 0.049465
vn -0.402887 0.654918 0.639347
vn -0.402887 0.654918 0.639347
vn -0.402887 0.654918 0.639347
vn -0.402887 0.654918 0.639347
vn -0.572420 -0.356507 0.738403
vn -0.572420 -0.356507 0.738403
vn -0.572420 -0.356507 0.738403
vn -0.572420 -0.356507 0.738403
vn -0.454843 -0.882210 -0.121752
vn -0.454843 -0.882210 -0.121752
vn -0.454843 -0.882210 -0.121752
vn -0.365232 -0.755133 0.544407
vn -0.365232 -0.755133 0.544407
vn -0.365232 -0.755133 0.544407
vn -0.339783 -0.353300 0.871623
vn -0.339783 -0.353300 0.871623
vn -0.339783 -0.353300 0.871623
vn -0.347090 0.412571 0.842208
vn -0.347090 0.412571 0.842208
vn -0.347090 0.412571 0.842208
vn -0.181641 0.982130 0.049259
vn -0.181641 0.982130 0.049259
vn -0.181641 0.982130 0.049259
vn -0.190000 0.981645 -0.016526
vn -0.190000 0.981645 -0.016526
vn -0.190000 0.981645 -0.016526
vn -0.463768 0.117341 -0.878152
vn -0.463768 0.117341 -0.878152
vn -0.463768 0.117341 -0.878152
vn -0.486701 -0.057404 -0.871681
vn -0.486701 -0.057404 -0.871681
vn -0.486701 -0.057404 -0.871681
vn 0.597504 -0.244460 0.763694
vn 0.597504 -0.244460 0.763694
vn 0.597504 -0.244460 0.763694
vn 0.597504 -0.244460 0.763694
vn 0.009801 -0.999321 0.035512
vn 0.009801 -0.999321 0.035512
vn 0.009801 -0.999321 0.035512
vn 0.009801 -0.999321 0.035512
vn 0.006947 -0.998175 -0.059986
vn 0.006947 -0.998175 -0.059986
vn 0.006947 -0.998175 -0.059986
vn 0.006947 -0.998175 -0.059986
vn 0.075218 -0.686933 -0.722818
vn 0.075218 -0.686933 -0.722818
vn 0.075218 -0.686933 -0.722818
vn 0.075218 -0.686933 -0.722818
vn -0.046752 0.377023 -0.925023
vn -0.046752 0.377023 -0.925023
vn -0.046752 0.377023 -0.925023
vn -0.046752 0.377023 -0.925023
vn 0.435596 0.900059 -0.012283
vn 0.435595 0.900059 -0.012283
vn 0.435595 0.900059 -0.012283
vn 0.419712 0.884243 0.204833
vn 0.419712 0.884243 0.204833
vn 0.419712 0.884243 0.204833
vn 0.419712 0.884243 0.204833
vn 0.615527 0.274575 0.738739
vn 0.615527 0.274575 0.738739
vn 0.615527 0.274575 0.738739
vn 0.615527 0.274575 0.738739
vn -0.280345 -0.321119 0.904593
vn -0.280345 -0.321119 0.904593
vn -0.280345 -0.321119 0.904593
vn -0.280345 -0.321119 0.904593
vn -0.039141 -0.999142 0.013564
vn -0.039141 -0.999142 0.013564
vn -0.039141 -0.999142 0.013564
vn -0.039141 -0.999142 0.013564
vn -0.030175 -0.999466 -0.012553
vn -0.030175 -0.999466 -0.012553
vn -0.030175 -0.999466 -0.012553
vn -0.030175 -0.999466 -0.012553
vn -0.108510 -0.500765 -0.858755
vn -0.108510 -0.500765 -0.858755
vn -0.108510 -0.500765 -0.858755
vn -0.108510 -0.500765 -0.858755
vn -0.306628 0.384949 -0.870513
vn -0.306628 0.384949 -0.870513
vn -0.306628 0.384949 -0.870513
vn -0.306628 0.384949 -0.870513
vn -0.293391 0.919178 -0.262741
vn -0.293391 0.919178 -0.262741
vn -0.293391 0.919178 -0.262741
vn -0.293391 0.919178 -0.262741
vn -0.321630 0.926035 0.197520
vn -0.321630 0.926034 0.197520
vn -0.321630 0.926035 0.197520
vn -0.321630 0.926034 0.197520
vn -0.382183 0.291625 0.876864
vn -0.382183 0.291625 0.876864
vn -0.382183 0.291625 0.876864
vn -0.382183 0.291625 0.876864
vn -0.043214 -0.998493 0.033813
vn -0.043214 -0.998493 0.033813
vn -0.043214 -0.998493 0.033813
vn -0.043214 -0.998493 0.033813
vn -0.551654 -0.374835 0.745102
vn -0.551654 -0.374835 0.745102
vn -0.551654 -0.374835 0.745102
vn -0.551654 -0.374835 0.745102
vn -0.660443 0.234389 0.713356
vn -0.660443 0.234389 0.713356
vn -0.660443 0.234389 0.713356
vn -0.660443 0.234389 0.713356
vn -0.717538 0.639616 0.275738
vn -0.717538 0.639616 0.275738
vn -0.717538 0.639616 0.275738
vn -0.717538 0.639616 0.275738
vn -0.735952 0.667224 -0.114830
vn -0.735952 0.667224 -0.114830
vn -0.735952 0.667224 -0.114830
vn -0.735952 0.667224 -0.114830
vn -0.735952 0.667224 -0.114830
vn -0.713071 0.366959 -0.597386
vn -0.713071 0.366959 -0.597386
vn -0.713071 0.366959 -0.597386
vn -0.713071 0.366959 -0.597386
vn -0.476209 -0.678877 -0.558884
vn -0.476209 -0.678877 -0.558884
vn -0.476209 -0.678877 -0.558884
vn -0.476209 -0.678877 -0.558884
vn -0.047206 -0.998806 -0.012543
vn -0.047206 -0.998806 -0.012543
vn -0.047206 -0.998806 -0.012543
vn -0.047206 -0.998806 -0.012543
vn 0.246639 0.467009 -0.849159
vn 0.246639 0.467009 -0.849159
vn 0.246639 0.467009 -0.849159
vn 0.246639 0.467009 -0.849159
vn 0.261553 0.746250 -0.612128
vn 0.261553 0.746250 -0.612128
vn 0.261553 0.746250 -0.612128
vn 0.261553 0.746250 -0.612128
vn 0.345913 0.923724 0.164553
vn 0.345913 0.923724 0.164553
vn 0.345913 0.923724 0.164553
vn 0.345913 0.923724 0.164553
vn 0.368631 0.168072 0.914256
vn 0.368631 0.168072 0.914255
vn 0.368631 0.168072 0.914256
vn 0.368631 0.168072 0.914255
vn 0.359402 -0.022190 0.932919
vn 0.359402 -0.022190 0.932919
vn 0.359402 -0.022190 0.932919
vn 0.359402 -0.022190 0.932919
vn 0.018271 -0.998969 0.041556
vn 0.018271 -0.998969 0.041556
vn 0.018271 -0.998969 0.041556
vn 0.018271 -0.998969 0.041556
vn 0.013862 -0.998686 -0.049332
vn 0.013862 -0.998686 -0.049332
vn 0.013862 -0.998686 -0.049332
vn 0.013862 -0.998686 -0.049332
vn 0.212617 -0.739994 -0.638125
vn 0.212617 -0.739994 -0.638125
vn 0.212617 -0.739994 -0.638125
vn 0.212617 -0.739994 -0.638125
vn -0.784237 0.406971 0.468345
vn -0.784237 0.406971 0.468345
vn -0.784237 0.406971 0.468345
vn -0.735898 0.589083 0.333821
vn -0.735898 0.589083 0.333821
vn -0.735898 0.589083 0.333821
vn -0.735898 0.589083 0.333821
vn 0.153197 0.937628 0.312066
vn 0.153197 0.937628 0.312066
vn 0.153197 0.937628 0.312066
vn 0.153197 0.937628 0.312066
vn -0.295131 0.394854 -0.870051
vn -0.295131 0.394853 -0.870051
vn -0.295131 0.394854 -0.870051
vn -0.295131 0.394854 -0.870051
vn 0.029604 0.090555 0.995451
vn 0.029604 0.090555 0.995451
vn 0.029604 0.090555 0.995451
vn 0.029604 0.090555 0.995451
vn -0.606540 0.617367 0.500966
vn -0.606540 0.617367 0.500966
vn -0.606540 0.617367 0.500966
vn -0.606540 0.617367 0.500966
vn 0.261765 0.866481 0.425077
vn 0.261765 0.866481 0.425077
vn 0.261765 0.866481 0.425077
vn 0.261765 0.866481 0.425077
vn -0.737045 0.667192 -0.107791
vn -0.737045 0.667192 -0.107791
vn -0.737045 0.667192 -0.107791
vn 0.185572 0.858443 -0.478162
vn 0.185571 0.858443 -0.478162
vn 0.185572 0.858443 -0.478162
vn -0.733945 0.385101 -0.559483
vn -0.733945 0.385101 -0.559483
vn -0.733945 0.385101 -0.559483
vn -0.733945 0.385101 -0.559483
vn -0.878677 -0.118860 -0.462385
vn -0.878677 -0.118860 -0.462385
vn -0.878677 -0.118860 -0.462385
vn -0.878676 -0.118860 -0.462385
vn -0.350985 0.724593 -0.593107
vn -0.350985 0.724593 -0.593107
vn -0.350985 0.724593 -0.593107
vn -0.350985 0.724593 -0.593107
vn 0.003112 0.906574 -0.422035
vn 0.003112 0.906574 -0.422035
vn 0.003112 0.906574 -0.422035
vn 0.003112 0.906574 -0.422035
vn 0.193546 0.850102 -0.489761
vn 0.193546 0.850102 -0.489761
vn 0.193546 0.850102 -0.489761
vn -0.677086 0.723562 -0.134211
vn -0.677086 0.723562 -0.134211
vn -0.677086 0.723562 -0.134211
vn -0.677086 0.723562 -0.134211
s off
f 1/9/1 2/10/2 65/83/3 66/85/4
f 2/10/5 3/11/6 64/82/7 65/83/8
f 3/11/9 4/12/10 63/81/11 64/82/12
f 4/12/13 5/13/14 62/80/15 63/81/16
f 5/13/17 6/14/18 61/79/19 62/80/20
f 6/14/21 7/15/22 60/78/23 61/79/24
f 7/15/25 8/16/26 59/77/27 60/78/28
f 8/16/29 1/17/30 66/84/31 59/77/32
f 18/37/33 17/38/34 19/35/35
f 20/39/36 18/37/37 19/35/38
f 21/40/39 20/39/40 19/35/41
f 22/41/42 21/40/43 19/35/44
f 23/42/45 22/41/46 19/35/47
f 24/43/48 23/42/49 19/35/50
f 25/44/51 24/43/52 19/35/53
f 17/38/54 25/44/55 19/35/56
f 2/2/57 1/1/58 17/38/59 18/37/60
f 3/3/61 2/2/62 18/37/63 20/39/64
f 4/4/65 3/3/66 20/39/67 21/40/68
f 5/5/69 4/4/70 21/40/71 22/41/72
f 6/6/73 5/5/74 22/41/75 23/42/76
f 7/7/77 6/6/78 23/42/79 24/43/80
f 8/8/81 7/7/82 24/43/83 25/44/84
f 1/1/85 8/8/86 25/44/87 17/38/88
f 9/33/89 10/32/90 57/75/91 58/76/92
f 10/32/93 11/31/94 56/74/95 57/75/96
f 11/31/97 12/30/98 55/73/99 56/74/100
f 12/30/101 13/29/102 54/72/103 55/73/104
f 13/29/105 14/28/106 53/71/107 54/72/108
f 14/28/109 15/27/110 52/70/111 53/71/112
f 15/27/113 16/34/114 51/69/115 52/70/116
f 16/34/117 9/33/118 58/76/119 51/69/120
f 26/45/121 86/122/122 77/47/123 78/48/124
f 27/46/125 28/49/126 76/50/127 77/47/128
f 28/49/129 29/51/130 75/52/131 76/50/132
f 29/51/133 30/102/134 82/103/135 75/52/136
f 30/102/137 31/104/138 81/105/139 82/103/140
f 31/104/141 32/106/142 80/107/143 81/105/144
f 32/106/145 33/108/146 79/109/147 80/107/148
f 33/108/149 26/45/150 78/48/151 79/109/152
f 34/53/153 35/54/154 43/62/155 42/61/156
f 35/54/157 36/55/158 44/63/159 43/62/160
f 36/55/161 37/56/162 45/64/163 44/63/164
f 37/56/165 38/57/166 46/65/167 45/64/168
f 38/57/169 39/58/170 47/66/171 46/65/172
f 39/58/173 40/59/174 48/67/175 47/66/176
f 40/59/177 41/60/178 49/68/179 48/67/180
f 41/60/181 34/53/182 42/61/183 49/68/184
f 42/61/185 43/62/186 50/36/187
f 43/62/188 44/63/189 50/36/190
f 44/63/191 45/64/192 50/36/193
f 45/64/194 46/65/195 50/36/196
f 46/65/197 47/66/198 50/36/199
f 47/66/200 48/67/201 50/36/202
f 48/67/203 49/68/204 50/36/205
f 49/68/206 42/61/207 50/36/208
f 68/110/209 69/111/210 33/108/211 32/106/212
f 67/112/213 68/110/214 32/106/215 31/104/216
f 74/113/217 67/112/218 31/104/219 30/102/220
f 73/114/221 74/113/222 30/102/223 29/51/224
f 72/115/225 73/114/226 29/51/227 28/49/228
f 71/116/229 93/138/230 27/46/231
f 70/117/232 85/120/233 86/122/234 26/45/235
f 69/111/236 70/117/237 26/45/238 33/108/239
f 60/78/240 59/77/241 16/25/242 15/24/243
f 61/79/244 60/78/245 15/24/246 14/23/247
f 62/80/248 61/79/249 14/23/250 13/22/251
f 63/81/252 62/80/253 13/22/254 12/21/255
f 64/82/256 63/81/257 12/21/258 11/20/259
f 65/83/260 64/82/261 11/20/262 10/19/263
f 66/85/264 65/83/265 10/19/266 9/18/267
f 59/77/268 66/84/269 9/26/270 16/25/271
f 53/71/272 52/70/273 68/87/274 67/86/275
f 52/70/276 51/69/277 69/88/278 68/87/279
f 51/69/280 58/76/281 70/89/282 69/88/283
f 58/76/284 57/75/285 83/118/286 84/119/287
f 57/75/288 56/74/289 89/128/290 71/90/291 83/118/292
f 90/129/293 55/73/294 73/92/295 72/91/296
f 55/73/297 54/72/298 74/93/299 73/92/300
f 54/72/301 53/71/302 67/86/303 74/93/304
f 76/95/305 75/94/306 37/56/307 36/55/308
f 77/96/309 76/95/310 36/55/311 35/54/312
f 78/97/313 77/96/314 35/54/315 34/53/316
f 79/98/317 78/97/318 34/53/319 41/60/320
f 80/99/321 79/98/322 41/60/323 40/59/324
f 81/100/325 80/99/326 40/59/327 39/58/328
f 82/101/329 81/100/330 39/58/331 38/57/332
f 75/94/333 82/101/334 38/57/335 37/56/336
f 77/47/337 86/122/338 27/46/339
f 70/89/340 58/76/341 84/119/342 85/121/343
f 84/124/344 83/125/345 88/127/346 87/126/347
f 83/125/348 71/116/349 27/46/350 88/127/351
f 84/124/352 87/126/353 86/122/354 85/123/355
f 27/46/356 86/122/357 87/126/358 88/127/359
f 71/132/360 89/133/361 95/141/362 93/139/363
f 91/131/364 90/129/365 72/91/366
f 28/49/367 91/130/368 72/115/369
f 56/74/370 55/73/371 90/129/372 89/128/373
f 92/137/374 94/140/375 90/134/376 91/135/377
f 94/140/378 95/141/379 89/133/380 90/134/381
f 27/46/382 93/138/383 92/136/384 28/49/385
f 28/49/386 92/136/387 91/130/388
f 93/139/389 95/141/390 94/140/391 92/137/392
