# This file uses centimeters as units for non-parametric coordinates.

v -36.979385 43.758961 104.107285
v 36.979385 43.758961 104.107285
v -36.979385 51.035793 104.107285
v 36.979385 51.035793 104.107285
v -36.979385 51.035793 -104.107269
v 36.979385 51.035793 -104.107269
v -36.979385 43.758961 -104.107269
v 36.979385 43.758961 -104.107269
v -33.336090 44.708256 109.072891
v 33.336105 44.708256 109.072891
v 33.336105 50.086494 109.072891
v -33.336090 50.086494 109.072891
v -33.336090 50.086494 -109.072891
v 33.336105 50.086494 -109.072891
v 33.336105 44.708256 -109.072891
v -33.336090 44.708256 -109.072891
v 38.333618 47.433258 -104.674362
v 38.333618 47.433258 104.674362
v 34.556900 47.509697 109.667023
v -34.556885 47.509697 109.667023
v -38.333603 47.433258 104.674362
v -38.333603 47.433258 -104.674362
v -34.556885 47.509697 -109.667023
v 34.556900 47.509697 -109.667023
v -37.842621 43.093468 74.650757
v -39.228470 47.379929 75.057388
v -37.842621 52.413254 74.650742
v 37.842636 52.413254 63.456051
v 39.228470 47.379929 64.198410
v 37.842636 43.093468 63.456074
v 39.228470 47.379929 12.351856
v 37.842636 52.413254 12.284939
v -37.842621 52.413254 -0.214672
v -39.228470 47.379929 -0.106117
v -37.842621 43.093468 -0.214664
v 37.842636 43.093468 12.284946
v 38.333618 47.433258 -84.831665
v 36.979385 51.035793 -84.150177
v -36.979385 51.035793 -77.002670
v -38.333603 47.433258 -77.422104
v -36.979385 43.758957 -77.002670
v 36.979385 43.758957 -84.150192
v -37.842621 43.093468 -61.957981
v -39.228470 47.379929 -62.295467
v -37.842621 52.413254 -61.957966
v 37.842636 52.413254 -45.052357
v 39.228470 47.379929 -45.600712
v 37.842636 43.093468 -45.052380
v -36.979385 43.758961 77.839554
v -38.333603 47.433258 78.263535
v -36.979385 51.035793 77.839539
v 36.979385 51.035793 82.831558
v 38.333618 47.433258 83.605621
v 36.979385 43.758961 82.831558
v -36.979385 43.758961 57.906445
v -38.333603 47.433258 58.140903
v -36.979385 51.035793 57.906445
v 36.979385 51.035793 54.386463
v 38.333618 47.433258 54.814487
v 36.979385 43.758961 54.386463
v 38.333618 47.433258 29.092030
v 36.979385 51.035793 29.014957
v -36.979385 51.035793 34.023495
v -38.333603 47.433258 34.148540
v -36.979385 43.758961 34.023495
v 36.979385 43.758961 29.014957
v -36.979385 43.758961 -16.978714
v -38.333603 47.433258 -16.996216
v -36.979385 51.035793 -16.978710
v 36.979385 51.035793 -12.009968
v 38.333618 47.433258 -12.020756
v 36.979385 43.758961 -12.009968
v 38.333618 47.433258 -40.351845
v 36.979385 51.035793 -40.043694
v -36.979385 51.035793 -44.847710
v -38.333603 47.433258 -45.037376
v -36.979385 43.758957 -44.847717
v 36.979385 43.758957 -40.043713
v -6.278687 52.413254 69.982086
v 26.304428 52.413254 65.162689
v 8.615311 52.248886 63.675014
v 20.322052 52.310947 69.006546
v 4.652344 52.335476 70.614838
v 10.012863 53.157310 67.572388
v -1.338562 52.413254 5.814060
v -27.830826 52.413254 1.438801
v -12.763138 52.318344 0.482815
v -9.642319 52.352932 7.533207
v -3.781998 52.413254 -54.349941
v 22.334503 52.413254 -48.516365
v 11.883636 52.345558 -54.808163
v 11.861420 52.316418 -48.394020
v 11.830124 53.157310 -50.862698
v -11.136917 53.157310 4.195843
vt 0.114886 0.156134
vt 0.114886 0.182369
vt 0.114886 0.156134
vt 0.114886 0.182369
vt 0.114886 0.182369
vt 0.114886 0.157836
vt 0.114886 0.182369
vt 0.114886 0.157836
vt 0.114886 0.156134
vt 0.114886 0.182369
vt 0.114886 0.157836
vt 0.114886 0.157836
vt 0.114886 0.182369
vt 0.114886 0.182369
vt 0.114886 0.156134
vt 0.114886 0.182369
vt 0.114886 0.182369
vt 0.114886 0.156134
vt 0.114886 0.182369
vt 0.114886 0.157836
vt 0.114886 0.157836
vt 0.114886 0.182369
vt 0.114886 0.157836
vt 0.114886 0.157836
vt 0.114886 0.182369
vt 0.114886 0.182369
vt 0.114886 0.156134
vt 0.114886 0.156134
vt 0.114886 0.182369
vt 0.114886 0.182369
vt 0.114886 0.182369
vt 0.114886 0.157836
vt 0.114886 0.159161
vt 0.114886 0.159161
vt 0.114886 0.159161
vt 0.114886 0.159161
vt 0.114886 0.159161
vt 0.114886 0.153747
vt 0.114886 0.153747
vt 0.114886 0.153747
vt 0.114886 0.153747
vt 0.114886 0.153747
vt 0.114886 0.182369
vt 0.114886 0.182369
vt 0.114886 0.182369
vt 0.114886 0.158654
vt 0.114886 0.158654
vt 0.114886 0.158654
vt 0.114886 0.158654
vt 0.114886 0.158654
vt 0.114886 0.182369
vt 0.114886 0.182369
vt 0.114886 0.157836
vt 0.114886 0.157836
vt 0.114886 0.157836
vt 0.114886 0.182369
vt 0.114886 0.182369
vt 0.114886 0.182369
vt 0.114886 0.182369
vt 0.114886 0.182369
vt 0.114886 0.157836
vt 0.114886 0.157836
vt 0.114886 0.182369
vt 0.114886 0.182369
vt 0.114886 0.182369
vt 0.114886 0.182369
vt 0.114886 0.182369
vt 0.114886 0.157836
vt 0.114886 0.157836
vt 0.114886 0.157836
vt 0.114886 0.157836
vt 0.114886 0.157836
vt 0.114886 0.159161
vt 0.114886 0.159161
vt 0.114886 0.159161
vt 0.114886 0.159161
vt 0.114886 0.159161
vt 0.114886 0.182369
vt 0.114886 0.182369
vt 0.114886 0.182369
vt 0.114886 0.182369
vt 0.114886 0.182369
vt 0.114886 0.182369
vt 0.114886 0.182369
vt 0.114886 0.182369
vt 0.114886 0.182369
vt 0.114886 0.182369
vt 0.114886 0.163702
vt 0.114886 0.163702
vt 0.114886 0.163702
vt 0.114886 0.163701
vt 0.114886 0.163702
vt 0.114886 0.164378
vt 0.114886 0.164378
vt 0.114886 0.164378
vt 0.114886 0.182369
vt 0.114886 0.182369
vt 0.114886 0.182369
vt 0.114886 0.182369
vt 0.114886 0.182369
vt 0.114886 0.164378
vt 0.114886 0.164378
vt 0.114886 0.158654
vt 0.114886 0.158654
vt 0.114886 0.158654
vt 0.114886 0.158654
vt 0.114886 0.158654
vt 0.114886 0.182369
vt 0.114886 0.182369
vt 0.114886 0.182369
vt 0.114886 0.182369
vt 0.114886 0.182369
vt 0.114886 0.157836
vt 0.114886 0.157836
vt 0.114886 0.157836
vt 0.114886 0.161107
vt 0.114886 0.161107
vt 0.114886 0.161107
vt 0.114886 0.161107
vt 0.114886 0.161107
vt 0.114886 0.157836
vt 0.114886 0.157836
vt 0.114886 0.182369
vt 0.114886 0.153747
vt 0.114886 0.182369
vt 0.114886 0.153747
vt 0.114886 0.182369
vt 0.114886 0.182369
vt 0.114886 0.182369
vt 0.114886 0.158654
vt 0.114886 0.182369
vt 0.114886 0.182369
vt 0.114886 0.161107
vt 0.114886 0.157836
vt 0.114886 0.157836
vt 0.114886 0.161107
vt 0.114886 0.161107
vt 0.114886 0.182369
vn 0.000000 -0.207466 0.978242
vn 0.000000 -0.207466 0.978242
vn 0.000000 -0.207466 0.978242
vn 0.000000 -0.207466 0.978242
vn 0.000000 1.000000 0.000000
vn 0.000000 1.000000 0.000000
vn 0.000000 1.000000 0.000000
vn 0.000000 1.000000 0.000000
vn 0.000000 -0.207466 -0.978242
vn 0.000000 -0.207466 -0.978242
vn 0.000000 -0.207466 -0.978242
vn 0.000000 -0.207466 -0.978242
vn 0.000000 -1.000000 0.000000
vn 0.000000 -1.000000 0.000000
vn 0.000000 -1.000000 0.000000
vn 0.000000 -1.000000 0.000000
vn 0.938298 -0.345827 0.000000
vn 0.938298 -0.345827 0.000000
vn 0.938298 -0.345827 0.000000
vn 0.938298 -0.345827 0.000000
vn -0.938299 -0.345825 0.000000
vn -0.938299 -0.345824 0.000000
vn -0.938299 -0.345824 0.000000
vn -0.938299 -0.345824 0.000000
vn 0.000000 -0.982212 0.187774
vn 0.000000 -0.982212 0.187774
vn 0.000000 -0.982212 0.187774
vn 0.000000 -0.982212 0.187774
vn 0.719009 -0.389164 0.575827
vn 0.719010 -0.389164 0.575827
vn 0.719009 -0.389164 0.575827
vn 0.719010 -0.389164 0.575827
vn 0.000000 0.982212 0.187774
vn 0.000000 0.982212 0.187774
vn 0.000000 0.982212 0.187774
vn 0.000000 0.982212 0.187774
vn -0.719009 -0.389163 0.575828
vn -0.719009 -0.389163 0.575828
vn -0.719009 -0.389163 0.575828
vn -0.719009 -0.389163 0.575828
vn 0.000000 0.982212 -0.187773
vn 0.000000 0.982212 -0.187773
vn 0.000000 0.982212 -0.187773
vn 0.000000 0.982212 -0.187773
vn 0.719009 -0.389165 -0.575826
vn 0.719009 -0.389165 -0.575826
vn 0.719009 -0.389165 -0.575826
vn 0.719009 -0.389165 -0.575826
vn 0.000000 -0.982213 -0.187773
vn 0.000000 -0.982212 -0.187773
vn 0.000000 -0.982212 -0.187773
vn 0.000000 -0.982212 -0.187773
vn -0.719009 -0.389164 -0.575827
vn -0.719009 -0.389164 -0.575827
vn -0.719009 -0.389164 -0.575827
vn -0.719009 -0.389164 -0.575827
vn 0.936049 0.351870 0.000000
vn 0.936049 0.351870 0.000000
vn 0.936049 0.351870 0.000000
vn 0.936049 0.351870 0.000000
vn 0.715746 0.405155 0.568821
vn 0.715746 0.405155 0.568821
vn 0.715746 0.405155 0.568821
vn 0.715746 0.405155 0.568821
vn 0.000000 0.224675 0.974434
vn 0.000000 0.224675 0.974434
vn 0.000000 0.224675 0.974434
vn 0.000000 0.224675 0.974434
vn -0.715746 0.405153 0.568822
vn -0.715746 0.405153 0.568822
vn -0.715746 0.405153 0.568822
vn -0.715746 0.405153 0.568822
vn -0.936050 0.351868 0.000000
vn -0.936050 0.351868 0.000000
vn -0.936050 0.351868 0.000000
vn -0.936050 0.351868 0.000000
vn -0.715746 0.405154 -0.568821
vn -0.715746 0.405154 -0.568821
vn -0.715746 0.405154 -0.568821
vn -0.715746 0.405154 -0.568821
vn 0.000000 0.224675 -0.974434
vn 0.000000 0.224675 -0.974434
vn 0.000000 0.224675 -0.974434
vn 0.000000 0.224675 -0.974434
vn 0.715746 0.405156 -0.568821
vn 0.715746 0.405156 -0.568821
vn 0.715746 0.405156 -0.568821
vn 0.715746 0.405156 -0.568821
vn -0.896921 -0.338414 0.284621
vn -0.896921 -0.338414 0.284621
vn -0.896921 -0.338414 0.284621
vn -0.896921 -0.338414 0.284621
vn -0.896658 0.314474 0.311625
vn -0.896658 0.314474 0.311625
vn -0.896658 0.314474 0.311625
vn -0.896658 0.314474 0.311625
vn -0.000796 0.994095 0.108513
vn 0.002909 0.995030 0.099532
vn 0.015790 0.997545 0.068228
vn 0.015790 0.997545 0.068228
vn 0.949047 0.310539 0.053625
vn 0.949047 0.310539 0.053625
vn 0.949047 0.310539 0.053625
vn 0.949047 0.310539 0.053625
vn 0.941527 -0.333377 0.048860
vn 0.941527 -0.333377 0.048860
vn 0.941527 -0.333377 0.048860
vn 0.941527 -0.333377 0.048860
vn 0.002441 -0.998262 0.058884
vn 0.002441 -0.998262 0.058884
vn 0.002441 -0.998262 0.058884
vn 0.002441 -0.998262 0.058884
vn 0.951740 0.305756 -0.026531
vn 0.951740 0.305756 -0.026531
vn 0.951740 0.305756 -0.026531
vn 0.951740 0.305756 -0.026531
vn 0.004150 0.997930 -0.064174
vn 0.000601 0.998893 -0.047027
vn 0.000370 0.999040 -0.043808
vn -0.949159 0.307188 -0.068790
vn -0.949159 0.307188 -0.068790
vn -0.949159 0.307188 -0.068790
vn -0.949159 0.307188 -0.068790
vn -0.941842 -0.330145 -0.062747
vn -0.941842 -0.330145 -0.062747
vn -0.941842 -0.330145 -0.062747
vn -0.941842 -0.330145 -0.062747
vn 0.001603 -0.999697 -0.024575
vn 0.001603 -0.999697 -0.024575
vn 0.001603 -0.999697 -0.024575
vn 0.001603 -0.999697 -0.024575
vn 0.944123 -0.328703 -0.024208
vn 0.944123 -0.328703 -0.024208
vn 0.944123 -0.328703 -0.024208
vn 0.944123 -0.328703 -0.024208
vn 0.936048 0.351872 0.000000
vn 0.936048 0.351872 0.000000
vn 0.936048 0.351872 0.000000
vn 0.936048 0.351872 0.000000
vn 0.000000 1.000000 0.000000
vn 0.000000 1.000000 0.000000
vn 0.000000 1.000000 0.000000
vn 0.000000 1.000000 0.000000
vn -0.936050 0.351868 0.000000
vn -0.936050 0.351868 0.000000
vn -0.936050 0.351868 0.000000
vn -0.936050 0.351868 0.000000
vn -0.938299 -0.345824 0.000000
vn -0.938299 -0.345824 0.000000
vn -0.938299 -0.345824 0.000000
vn -0.938299 -0.345824 0.000000
vn -0.000000 -1.000000 -0.000000
vn -0.000000 -1.000000 -0.000000
vn -0.000000 -1.000000 -0.000000
vn -0.000000 -1.000000 -0.000000
vn 0.938298 -0.345828 0.000000
vn 0.938298 -0.345828 0.000000
vn 0.938298 -0.345828 0.000000
vn 0.938298 -0.345828 0.000000
vn -0.938299 -0.345824 0.000000
vn -0.938299 -0.345825 0.000000
vn -0.938299 -0.345824 0.000000
vn -0.938299 -0.345825 0.000000
vn -0.936050 0.351867 0.000000
vn -0.936050 0.351867 0.000000
vn -0.936050 0.351867 0.000000
vn -0.936050 0.351867 0.000000
vn 0.000000 1.000000 0.000000
vn 0.000000 1.000000 0.000000
vn 0.000000 1.000000 0.000000
vn 0.000000 1.000000 0.000000
vn 0.936048 0.351872 0.000000
vn 0.936048 0.351872 0.000000
vn 0.936048 0.351872 0.000000
vn 0.936048 0.351872 0.000000
vn 0.938298 -0.345828 0.000000
vn 0.938298 -0.345828 0.000000
vn 0.938298 -0.345828 0.000000
vn 0.938298 -0.345828 0.000000
vn -0.000000 -1.000000 0.000000
vn -0.000000 -1.000000 0.000000
vn -0.000000 -1.000000 0.000000
vn -0.000000 -1.000000 0.000000
vn -0.938299 -0.345824 0.000000
vn -0.938299 -0.345824 0.000000
vn -0.938299 -0.345824 0.000000
vn -0.938299 -0.345824 0.000000
vn -0.936050 0.351868 0.000000
vn -0.936050 0.351868 0.000000
vn -0.936050 0.351868 0.000000
vn -0.936050 0.351868 0.000000
vn 0.000000 1.000000 0.000000
vn 0.000000 1.000000 0.000000
vn 0.000000 1.000000 0.000000
vn 0.000000 1.000000 0.000000
vn 0.936049 0.351870 0.000000
vn 0.936049 0.351870 0.000000
vn 0.936049 0.351870 0.000000
vn 0.936049 0.351870 0.000000
vn 0.938298 -0.345827 0.000000
vn 0.938298 -0.345827 0.000000
vn 0.938298 -0.345827 0.000000
vn 0.938298 -0.345827 0.000000
vn 0.000000 -1.000000 0.000000
vn 0.000000 -1.000000 0.000000
vn 0.000000 -1.000000 0.000000
vn 0.000000 -1.000000 0.000000
vn -0.945445 -0.320891 -0.056233
vn -0.945445 -0.320891 -0.056233
vn -0.945445 -0.320891 -0.056233
vn -0.945445 -0.320891 -0.056233
vn -0.952675 0.297711 -0.061469
vn -0.952675 0.297711 -0.061469
vn -0.952675 0.297710 -0.061469
vn -0.952675 0.297711 -0.061469
vn -0.014053 0.996533 -0.082009
vn -0.008752 0.990938 -0.134032
vn -0.006742 0.990393 -0.138119
vn 0.951503 0.286827 -0.111233
vn 0.951503 0.286827 -0.111233
vn 0.951503 0.286827 -0.111233
vn 0.951503 0.286827 -0.111233
vn 0.945138 -0.310297 -0.102132
vn 0.945138 -0.310297 -0.102132
vn 0.945137 -0.310297 -0.102132
vn 0.945137 -0.310297 -0.102132
vn -0.005063 -0.998661 -0.051492
vn -0.005063 -0.998661 -0.051492
vn -0.005063 -0.998661 -0.051492
vn -0.005063 -0.998661 -0.051492
vn 0.951043 0.302788 0.061935
vn 0.951043 0.302788 0.061935
vn 0.951043 0.302788 0.061935
vn 0.951043 0.302788 0.061935
vn -0.001216 0.998843 0.048083
vn -0.003063 0.997924 0.064336
vn -0.000343 0.998604 0.052815
vn -0.952497 0.303037 0.030307
vn -0.952497 0.303037 0.030307
vn -0.952497 0.303037 0.030307
vn -0.952497 0.303037 0.030307
vn -0.944944 -0.326059 0.027677
vn -0.944944 -0.326059 0.027677
vn -0.944944 -0.326059 0.027677
vn -0.944944 -0.326059 0.027677
vn -0.001307 -0.999658 0.026105
vn -0.001307 -0.999658 0.026105
vn -0.001307 -0.999658 0.026105
vn -0.001307 -0.999658 0.026105
vn 0.943727 -0.325852 0.056570
vn 0.943727 -0.325852 0.056570
vn 0.943727 -0.325852 0.056570
vn 0.943727 -0.325852 0.056570
vn -0.944257 -0.324366 -0.056256
vn -0.944257 -0.324367 -0.056256
vn -0.944257 -0.324366 -0.056256
vn -0.944257 -0.324366 -0.056256
vn -0.951550 0.301268 -0.061563
vn -0.951550 0.301267 -0.061563
vn -0.951550 0.301268 -0.061563
vn -0.951550 0.301268 -0.061563
vn 0.005630 0.996826 -0.079413
vn 0.006726 0.997224 -0.074153
vn 0.009853 0.998237 -0.058526
vn 0.952385 0.301904 -0.042619
vn 0.952385 0.301904 -0.042619
vn 0.952385 0.301904 -0.042619
vn 0.952385 0.301904 -0.042619
vn 0.944924 -0.324965 -0.038935
vn 0.944924 -0.324965 -0.038935
vn 0.944924 -0.324965 -0.038935
vn 0.944924 -0.324965 -0.038935
vn 0.003782 -0.999468 -0.032399
vn 0.003782 -0.999468 -0.032399
vn 0.003782 -0.999468 -0.032399
vn 0.003782 -0.999468 -0.032399
vn 0.939943 0.278688 0.197078
vn 0.939943 0.278688 0.197078
vn 0.939943 0.278688 0.197078
vn 0.939943 0.278688 0.197078
vn -0.018867 0.996401 0.082638
vn -0.024423 0.978750 0.203598
vn -0.014315 0.986325 0.164188
vn -0.952495 0.298540 0.060227
vn -0.952495 0.298540 0.060227
vn -0.952495 0.298540 0.060227
vn -0.952495 0.298540 0.060227
vn -0.945238 -0.321701 0.055082
vn -0.945238 -0.321701 0.055082
vn -0.945238 -0.321701 0.055082
vn -0.945238 -0.321701 0.055082
vn -0.008714 -0.998157 0.060063
vn -0.008714 -0.998157 0.060063
vn -0.008714 -0.998157 0.060063
vn -0.008714 -0.998157 0.060063
vn 0.935687 -0.302526 0.181573
vn 0.935687 -0.302526 0.181573
vn 0.935687 -0.302526 0.181573
vn 0.935687 -0.302526 0.181573
vn -0.074342 0.976764 -0.201012
vn -0.074342 0.976764 -0.201012
vn -0.074342 0.976764 -0.201012
vn -0.007490 0.968616 0.248448
vn -0.007490 0.968616 0.248448
vn -0.007490 0.968616 0.248448
vn 0.063800 0.990022 0.125644
vn 0.063800 0.990022 0.125644
vn 0.063800 0.990022 0.125644
vn 0.010344 0.973016 -0.230506
vn 0.010344 0.973016 -0.230506
vn 0.010344 0.973016 -0.230506
vn 0.033904 0.948198 0.315865
vn 0.033904 0.948198 0.315865
vn 0.033904 0.948198 0.315865
vn 0.116776 0.956519 -0.267274
vn 0.116776 0.956519 -0.267274
vn 0.116776 0.956519 -0.267274
vn 0.038050 0.975206 0.218002
vn 0.038050 0.975206 0.218002
vn 0.038050 0.975206 0.218002
vn 0.113348 0.973474 -0.198746
vn 0.113348 0.973474 -0.198746
vn 0.113348 0.973474 -0.198746
vn -0.004985 0.946562 0.322483
vn -0.004985 0.946562 0.322483
vn -0.004985 0.946562 0.322483
vn -0.001662 0.979478 -0.201544
vn -0.001662 0.979478 -0.201544
vn -0.001662 0.979478 -0.201544
vn -0.116610 0.939683 0.321557
vn -0.116610 0.939683 0.321557
vn -0.116610 0.939683 0.321557
vn -0.007633 0.976095 -0.217208
vn -0.007633 0.976095 -0.217208
vn -0.007633 0.976095 -0.217208
vn -0.087363 0.958826 0.270223
vn -0.087363 0.958826 0.270223
vn -0.087363 0.958826 0.270223
vn 0.015341 0.976592 0.214551
vn 0.002909 0.995030 0.099532
vn -0.000796 0.994095 0.108513
vn -0.003598 0.992854 0.119280
vn 0.015341 0.976592 0.214551
vn -0.003598 0.992854 0.119280
vn 0.028209 0.960018 0.278514
vn 0.028209 0.960018 0.278514
vn -0.014581 0.996952 -0.076650
vn -0.014581 0.996951 -0.076650
vn -0.008752 0.990938 -0.134032
vn -0.014053 0.996533 -0.082009
vn -0.006742 0.990393 -0.138119
vn -0.008752 0.990938 -0.134032
vn -0.006571 0.991069 -0.133191
vn -0.006571 0.991069 -0.133191
vn -0.000343 0.998604 0.052815
vn -0.003063 0.997924 0.064336
vn -0.008616 0.997263 0.073438
vn -0.008616 0.997263 0.073438
vn -0.001216 0.998843 0.048083
vn -0.000343 0.998604 0.052815
vn -0.008789 0.999170 0.039770
vn -0.008789 0.999170 0.039770
vn 0.005929 0.996974 -0.077509
vn 0.005929 0.996974 -0.077509
vn 0.006726 0.997224 -0.074153
vn 0.005630 0.996826 -0.079413
vn 0.009853 0.998237 -0.058526
vn 0.006726 0.997224 -0.074153
vn 0.010739 0.998479 -0.054077
vn 0.010739 0.998479 -0.054077
vn -0.014315 0.986325 0.164188
vn -0.024423 0.978750 0.203598
vn -0.030943 0.976719 0.212277
vn -0.030943 0.976720 0.212277
vn -0.018867 0.996401 0.082638
vn -0.014315 0.986325 0.164188
vn -0.019193 0.996812 0.077447
vn -0.019193 0.996812 0.077447
vn 0.012761 0.996768 -0.079312
vn 0.012761 0.996768 -0.079312
vn 0.000601 0.998893 -0.047027
vn 0.004150 0.997930 -0.064174
vn 0.000370 0.999040 -0.043808
vn 0.000601 0.998893 -0.047027
vn 0.010318 0.999355 -0.034391
vn 0.010318 0.999355 -0.034391
s off
f 9/15/1 10/16/2 19/26/3 20/27/4
f 57/87/5 58/88/6 62/94/7 63/97/8
f 23/31/9 24/32/10 15/21/11 16/22/12
f 65/100/13 66/101/14 60/91/15 55/84/16
f 59/90/17 60/92/18 66/102/19 61/93/20
f 64/98/21 65/99/22 55/83/23 56/85/24
f 1/1/25 2/2/26 10/16/27 9/15/28
f 2/2/29 18/25/30 19/26/31 10/16/32
f 4/4/33 3/3/34 12/18/35 11/17/36
f 20/27/37 21/28/38 1/1/39 9/15/40
f 5/5/41 6/6/42 14/20/43 13/19/44
f 24/32/45 17/23/46 8/8/47 15/21/48
f 8/8/49 7/7/50 16/22/51 15/21/52
f 7/7/53 22/30/54 23/31/55 16/22/56
f 58/89/57 59/90/58 61/93/59 62/95/60
f 19/26/61 18/25/62 4/4/63 11/17/64
f 20/27/65 19/26/66 11/17/67 12/18/68
f 3/3/69 21/28/70 20/27/71 12/18/72
f 63/96/73 64/98/74 56/85/75 57/86/76
f 23/31/77 22/30/78 5/5/79 13/19/80
f 13/19/81 14/20/82 24/32/83 23/31/84
f 6/6/85 17/23/86 24/32/87 14/20/88
f 26/35/89 25/33/90 49/73/91 50/75/92
f 27/36/93 26/35/94 50/75/95 51/76/96
f 82/126/97 52/78/98 28/38/99 80/124/100
f 52/79/101 53/80/102 29/40/103 28/39/104
f 53/80/105 54/82/106 30/42/107 29/40/108
f 25/34/109 30/41/110 54/81/111 49/74/112
f 46/69/113 47/70/114 37/53/115 38/55/116
f 39/57/117 91/135/118 38/54/119
f 39/56/120 40/58/121 44/65/122 45/66/123
f 40/58/124 41/59/125 43/63/126 44/65/127
f 41/60/128 42/61/129 48/71/130 43/64/131
f 47/70/132 48/72/133 42/62/134 37/53/135
f 38/55/136 37/53/137 17/24/138 6/12/139
f 39/57/140 38/54/141 6/6/142 5/5/143
f 22/29/144 40/58/145 39/56/146 5/14/147
f 7/13/148 41/59/149 40/58/150 22/29/151
f 7/7/152 8/8/153 42/61/154 41/60/155
f 37/53/156 42/62/157 8/11/158 17/24/159
f 76/118/160 77/119/161 67/103/162 68/105/163
f 75/116/164 76/118/165 68/105/166 69/106/167
f 69/107/168 70/108/169 74/114/170 75/117/171
f 70/109/172 71/110/173 73/113/174 74/115/175
f 71/110/176 72/112/177 78/122/178 73/113/179
f 77/120/180 78/121/181 72/111/182 67/104/183
f 50/75/184 49/73/185 1/1/186 21/28/187
f 51/76/188 50/75/189 21/28/190 3/3/191
f 3/3/192 4/4/193 52/78/194 51/77/195
f 18/25/196 53/80/197 52/79/198 4/4/199
f 2/2/200 54/82/201 53/80/202 18/25/203
f 49/74/204 54/81/205 2/10/206 1/9/207
f 56/85/208 55/83/209 25/33/210 26/35/211
f 57/86/212 56/85/213 26/35/214 27/36/215
f 57/87/216 81/125/217 58/88/218
f 28/39/219 29/40/220 59/90/221 58/89/222
f 29/40/223 30/42/224 60/92/225 59/90/226
f 55/84/227 60/91/228 30/41/229 25/34/230
f 62/95/231 61/93/232 31/43/233 32/45/234
f 63/97/235 62/94/236 88/132/237
f 33/46/238 34/48/239 64/98/240 63/96/241
f 34/48/242 35/49/243 65/99/244 64/98/245
f 35/50/246 36/51/247 66/101/248 65/100/249
f 61/93/250 66/102/251 36/52/252 31/43/253
f 68/105/254 67/103/255 35/49/256 34/48/257
f 69/106/258 68/105/259 34/48/260 33/46/261
f 69/107/262 87/131/263 70/108/264
f 32/45/265 31/43/266 71/110/267 70/109/268
f 31/43/269 36/52/270 72/112/271 71/110/272
f 67/104/273 72/111/274 36/51/275 35/50/276
f 74/115/277 73/113/278 47/70/279 46/69/280
f 75/117/281 74/114/282 92/136/283
f 45/66/284 44/65/285 76/118/286 75/116/287
f 44/65/288 43/63/289 77/119/290 76/118/291
f 43/64/292 48/71/293 78/121/294 77/120/295
f 73/113/296 78/122/297 48/72/298 47/70/299
f 84/128/300 81/125/301 79/123/302
f 79/123/303 83/127/304 84/128/305
f 84/128/306 82/126/307 80/124/308
f 80/124/309 81/125/310 84/128/311
f 84/128/312 83/127/313 82/126/314
f 85/129/315 87/131/316 94/138/317
f 94/138/318 88/132/319 85/129/320
f 90/134/321 91/135/322 93/137/323
f 93/137/324 92/136/325 90/134/326
f 93/137/327 91/135/328 89/133/329
f 89/133/330 92/136/331 93/137/332
f 94/138/333 87/131/334 86/130/335
f 86/130/336 88/132/337 94/138/338
f 51/77/339 52/78/340 82/126/341 83/127/342
f 51/77/343 83/127/344 79/123/345 27/37/346
f 27/37/347 79/123/348 81/125/349 57/87/350
f 58/88/351 81/125/352 80/124/353 28/38/354
f 88/132/355 62/94/356 32/44/357 85/129/358
f 63/97/359 88/132/360 86/130/361 33/47/362
f 33/47/363 86/130/364 87/131/365 69/107/366
f 70/108/367 87/131/368 85/129/369 32/44/370
f 92/136/371 74/114/372 46/68/373 90/134/374
f 75/117/375 92/136/376 89/133/377 45/67/378
f 45/67/379 89/133/380 91/135/381 39/57/382
f 38/54/383 91/135/384 90/134/385 46/68/386
