# This file uses centimeters as units for non-parametric coordinates.

v 1.128494 -5.870704 2.064972
v 13.766541 -5.870704 3.826202
v 2.584839 5.870704 0.601898
v 13.578995 5.870704 2.134064
v 9.443130 5.870704 -20.499542
v 22.064423 5.870704 -18.877716
v 9.012253 -5.870704 -22.191681
v 23.520767 -5.870704 -20.327362
v 2.584839 5.870704 -9.137909
v 1.128494 -5.870704 -9.131195
v 23.520767 -5.870704 -9.131195
v 22.064423 5.870704 -9.137909
v 15.405182 -5.870704 16.413727
v 21.625565 -5.870704 17.736664
v 16.054443 1.354772 15.761505
v 21.541946 1.354772 16.982269
v 16.858948 1.354772 7.288910
v 20.861465 1.354772 7.812469
v 16.666855 -5.870704 6.534515
v 21.510727 -5.870704 7.166229
v 13.801392 1.354772 12.354095
v 13.152130 -5.870704 12.357086
v 23.135010 -5.870704 12.357086
v 22.485748 1.354772 12.354095
v -19.394989 -5.870704 22.191681
v -3.564590 -5.870704 21.848602
v -18.206039 1.354772 20.997284
v -3.717712 1.354772 20.467133
v -12.293243 1.354772 2.716644
v -4.963821 1.354772 3.675446
v -12.644989 -5.870704 1.335175
v -3.774872 -5.870704 2.491974
v -22.331833 1.354772 14.757660
v -23.520767 -5.870704 14.763153
v -0.800491 -5.870704 11.997528
v -1.989426 1.354772 11.992035
vt 0.099717 0.277050
vt 0.099717 0.277050
vt 0.099717 0.277050
vt 0.099717 0.277050
vt 0.099717 0.277050
vt 0.099717 0.277050
vt 0.099717 0.277050
vt 0.099717 0.277050
vt 0.099717 0.277050
vt 0.099717 0.277050
vt 0.099717 0.277050
vt 0.099717 0.277050
vt 0.099717 0.277050
vt 0.099717 0.277050
vt 0.099717 0.277050
vt 0.099717 0.277050
vt 0.099717 0.277050
vt 0.099717 0.277050
vt 0.099717 0.277050
vt 0.099717 0.277050
vt 0.099717 0.277050
vt 0.099717 0.277050
vt 0.099717 0.277050
vt 0.099717 0.277050
vt 0.099717 0.277050
vt 0.099717 0.277050
vt 0.099717 0.277050
vt 0.099717 0.277050
vt 0.099717 0.277050
vt 0.099717 0.277050
vt 0.099717 0.277050
vt 0.099717 0.277050
vt 0.099717 0.277050
vt 0.099717 0.277050
vt 0.099717 0.277050
vt 0.099717 0.277050
vt 0.099717 0.277050
vt 0.099717 0.277050
vt 0.099717 0.277050
vt 0.099717 0.277050
vt 0.099717 0.277050
vt 0.099717 0.277050
vt 0.099717 0.277050
vt 0.099717 0.277050
vt 0.099717 0.277050
vt 0.099717 0.277050
vt 0.099717 0.277050
vt 0.099717 0.277050
vt 0.099717 0.277050
vt 0.099717 0.277050
vt 0.099717 0.277050
vt 0.099717 0.277050
vt 0.099717 0.277050
vt 0.099717 0.277050
vt 0.099717 0.277050
vt 0.099717 0.277050
vt 0.099717 0.277050
vt 0.099717 0.277050
vt 0.099717 0.277050
vt 0.099717 0.277050
vt 0.099717 0.277050
vt 0.099717 0.277050
vt 0.099717 0.277050
vt 0.099717 0.277050
vt 0.099717 0.277050
vt 0.099717 0.277050
vn -0.136688 0.139167 0.980790
vn -0.136688 0.139167 0.980790
vn -0.136688 0.139167 0.980790
vn -0.136688 0.139167 0.980790
vn 0.000000 1.000000 0.000000
vn 0.000000 1.000000 0.000000
vn 0.000000 1.000000 0.000000
vn 0.000000 1.000000 0.000000
vn 0.126250 0.136962 -0.982498
vn 0.126250 0.136962 -0.982498
vn 0.126250 0.136962 -0.982498
vn 0.126250 0.136962 -0.982498
vn 0.000000 -1.000000 0.000000
vn 0.000000 -1.000000 0.000000
vn 0.000000 -1.000000 0.000000
vn 0.000000 -1.000000 0.000000
vn 0.795008 0.098951 0.598475
vn 0.924762 0.114911 0.362782
vn 0.917707 0.114046 0.380536
vn 0.795008 0.098951 0.598475
vn -0.946712 0.117255 -0.299978
vn -0.992395 0.123092 0.000000
vn -0.992395 0.123092 0.000000
vn -0.942372 0.116709 -0.313551
vn -0.851357 0.105306 -0.513909
vn -0.946712 0.117255 -0.299978
vn -0.942372 0.116709 -0.313551
vn -0.851357 0.105306 -0.513909
vn 0.000000 -1.000000 0.000000
vn 0.000000 -1.000000 0.000000
vn 0.000000 -1.000000 0.000000
vn 0.000000 -1.000000 0.000000
vn 0.917707 0.114046 0.380536
vn 0.924762 0.114911 0.362782
vn 0.992395 0.123094 0.000000
vn 0.992395 0.123094 0.000000
vn 0.000000 1.000000 0.000000
vn 0.000000 1.000000 0.000000
vn 0.000000 1.000000 0.000000
vn 0.000000 1.000000 0.000000
vn -0.211181 0.102880 0.972018
vn -0.211181 0.102880 0.972018
vn -0.211181 0.102880 0.972018
vn -0.211181 0.102880 0.972018
vn 0.000000 1.000000 0.000000
vn 0.000000 1.000000 0.000000
vn 0.000000 1.000000 0.000000
vn 0.000000 1.000000 -0.000000
vn 0.128838 0.099705 -0.986641
vn 0.128838 0.099705 -0.986641
vn 0.128838 0.099705 -0.986641
vn 0.128838 0.099705 -0.986641
vn 0.000000 -1.000000 0.000000
vn 0.000000 -1.000000 0.000000
vn 0.000000 -1.000000 0.000000
vn 0.000000 -1.000000 0.000000
vn 0.969398 0.061618 0.237635
vn 0.995719 0.083464 -0.039715
vn 0.995630 0.083593 -0.041622
vn 0.969398 0.061618 0.237635
vn -0.988862 0.099738 -0.110473
vn -0.851810 0.099856 0.514246
vn -0.851810 0.099856 0.514246
vn -0.988829 0.099728 -0.110781
vn -0.853607 0.076490 -0.515271
vn -0.988862 0.099738 -0.110473
vn -0.988829 0.099728 -0.110781
vn -0.853607 0.076490 -0.515270
vn 0.000000 -1.000000 0.000000
vn 0.000000 -1.000000 0.000000
vn 0.000000 -1.000000 0.000000
vn 0.000000 -1.000000 0.000000
vn 0.995630 0.083593 -0.041622
vn 0.995719 0.083464 -0.039715
vn 0.943911 0.098841 -0.315061
vn 0.943911 0.098841 -0.315061
vn 0.000000 1.000000 -0.000000
vn 0.000000 1.000000 0.000000
vn 0.000000 1.000000 -0.000000
vn 0.000000 1.000000 -0.000000
vn 0.028356 0.173442 0.984436
vn 0.028356 0.173442 0.984436
vn 0.028356 0.173442 0.984436
vn 0.028356 0.173442 0.984436
vn 0.000000 1.000000 0.000000
vn 0.000000 1.000000 0.000000
vn 0.000000 1.000000 -0.000000
vn 0.000000 1.000000 0.000000
vn 0.127366 0.180487 -0.975296
vn 0.127366 0.180487 -0.975296
vn 0.127366 0.180487 -0.975296
vn 0.127366 0.180487 -0.975296
vn 0.000000 -1.000000 0.000000
vn 0.000000 -1.000000 0.000000
vn 0.000000 -1.000000 0.000000
vn 0.000000 -1.000000 0.000000
vn 0.965097 0.112334 0.236579
vn 0.987675 0.151564 -0.039060
vn 0.987473 0.151974 -0.042446
vn 0.965097 0.112334 0.236579
vn -0.937269 0.183126 -0.296633
vn -0.841989 0.180753 0.508313
vn -0.841989 0.180753 0.508313
vn -0.934431 0.182358 -0.305917
vn -0.765061 0.141385 -0.628245
vn -0.937269 0.183126 -0.296633
vn -0.934431 0.182358 -0.305917
vn -0.765061 0.141385 -0.628245
vn 0.000000 -1.000000 0.000000
vn 0.000000 -1.000000 0.000000
vn 0.000000 -1.000000 0.000000
vn 0.000000 -1.000000 0.000000
vn 0.987473 0.151974 -0.042446
vn 0.987675 0.151564 -0.039060
vn 0.933242 0.178957 -0.311502
vn 0.933242 0.178957 -0.311502
vn 0.000000 1.000000 0.000000
vn 0.000000 1.000000 -0.000000
vn 0.000000 1.000000 -0.000000
vn 0.000000 1.000000 -0.000000
s off
f 1/1/1 2/2/2 4/4/3 3/3/4
f 3/3/5 4/4/6 12/21/7 9/16/8
f 5/5/9 6/6/10 8/8/11 7/7/12
f 10/18/13 11/19/14 2/10/15 1/9/16
f 2/2/17 11/20/18 12/22/19 4/4/20
f 10/17/21 1/1/22 3/3/23 9/15/24
f 7/13/25 10/17/26 9/15/27 5/14/28
f 7/7/29 8/8/30 11/19/31 10/18/32
f 12/22/33 11/20/34 8/11/35 6/12/36
f 9/16/37 12/21/38 6/6/39 5/5/40
f 13/23/41 14/24/42 16/25/43 15/26/44
f 15/26/45 16/25/46 24/27/47 21/28/48
f 17/29/49 18/30/50 20/31/51 19/32/52
f 22/33/53 23/34/54 14/35/55 13/36/56
f 14/24/57 23/37/58 24/38/59 16/25/60
f 22/39/61 13/23/62 15/26/63 21/40/64
f 19/41/65 22/39/66 21/40/67 17/42/68
f 19/32/69 20/31/70 23/34/71 22/33/72
f 24/38/73 23/37/74 20/43/75 18/44/76
f 21/28/77 24/27/78 18/30/79 17/29/80
f 25/45/81 26/46/82 28/47/83 27/48/84
f 27/48/85 28/47/86 36/49/87 33/50/88
f 29/51/89 30/52/90 32/53/91 31/54/92
f 34/55/93 35/56/94 26/57/95 25/58/96
f 26/46/97 35/59/98 36/60/99 28/47/100
f 34/61/101 25/45/102 27/48/103 33/62/104
f 31/63/105 34/61/106 33/62/107 29/64/108
f 31/54/109 32/53/110 35/56/111 34/55/112
f 36/60/113 35/59/114 32/65/115 30/66/116
f 33/50/117 36/49/118 30/52/119 29/51/120
