# This file uses centimeters as units for non-parametric coordinates.

v -28.067074 484.555664 1.276123
v -67.084053 484.555664 1.276123
v -61.333405 490.528870 1.276123
v -33.609764 490.528870 1.276123
v -12.545318 15.980542 1.276123
v -64.535378 31.660000 1.276123
v -14.632537 0.000000 1.276123
v -64.535378 281.603271 1.276123
v -21.662203 279.134827 -0.100708
v -64.584579 0.000000 1.276123
v -28.067074 484.555664 5.709351
v -67.084053 484.555664 5.709351
v -61.333405 490.528870 5.709351
v -33.609764 490.528870 5.709351
v -12.545318 15.980542 5.709351
v -64.535378 31.660000 5.709351
v -14.632537 0.000000 5.709351
v -64.535378 281.603271 5.709351
v -21.675034 279.130493 5.709351
v -64.584572 0.000000 5.709351
v -76.889130 21.738997 -2.475708
v -3.520906 0.000000 0.114502
v -21.921577 493.570190 0.114502
v -74.763870 495.373718 -2.375671
v -3.520906 0.000000 -489.857178
v -76.889130 18.265141 -489.857178
v -66.220413 501.416870 -2.375671
v -25.668249 500.008179 0.114502
v -102.991646 0.000000 -481.828522
v -110.822174 0.000000 0.114502
v -110.746941 21.762009 -13.838928
v -102.991646 12.734900 -481.828522
v -4.227086 3.542019 0.114502
v -0.191567 5.342088 -489.857178
v -0.999096 27.861212 -295.784424
v -0.169922 4.738572 -325.582764
v -0.152864 4.262826 -196.087158
v -5.895154 0.000000 -279.102539
v -9.493263 150.397049 0.114502
v -76.889130 158.347534 -2.475708
v -0.128326 3.578507 -9.819153
v -5.438337 151.655853 -9.752563
v -17.740971 494.732513 -7.949463
v 2.587492 5.271195 -480.591064
v -17.771891 495.594727 -99.969543
v -20.228037 495.551422 -139.521179
v -17.269184 481.576050 -129.484314
v -27.291666 503.021576 -127.144958
v -76.889130 0.000000 -489.857178
v -76.889130 0.000000 0.114502
v -110.822174 9.472242 0.114502
v -95.471581 21.738997 0.114502
v -12.545318 9.382191 -489.857178
v -64.535378 12.934474 -489.857178
v -14.632537 0.000000 -489.857178
v -64.584572 0.000000 -489.857178
v -12.545318 9.382191 -494.290405
v -64.535378 12.934474 -494.290405
v -14.632537 0.000000 -494.290405
v -64.584572 0.000000 -494.290405
v -25.765701 503.021576 -7.208984
v -68.354332 503.021576 -12.516907
v -76.889130 496.797791 -13.536438
v -76.889130 162.710587 -17.018982
v -76.889122 21.738997 -16.911682
v -8.413798 168.443954 -221.054535
v -2.900985 54.222393 -480.665771
v -6.592321 46.047665 -488.344482
v -16.793581 39.695934 -489.222046
v -16.797810 17.424980 -494.290405
v -64.535378 30.769863 -494.290405
v -64.535378 36.346096 -489.857178
v -76.889130 58.113903 -489.857178
v -76.889130 189.654678 -248.372925
v -76.889130 492.430542 -129.329407
v -68.580231 503.021576 -127.568420
v -14.908369 425.251801 -155.255951
v -76.889130 426.280609 -166.401703
v -4.972823 107.089020 -295.449280
v -40.666595 25.446156 -494.290405
v -3.737930 60.623779 -424.984711
v -6.490352 169.217331 -243.197876
v -11.897818 327.974518 -149.580933
v -9.516582 276.182953 -186.596558
v -76.889130 331.115906 -157.494751
v -76.889130 21.739008 -449.920898
v -76.889122 21.739000 -159.502441
v -76.889130 121.428528 -154.406281
v -76.889130 111.401215 -313.293488
v -76.889130 109.741486 -391.368744
v -4.355377 109.904716 -379.194153
v -108.381592 22.485550 -452.529633
v -108.390884 0.000000 -450.807251
vt 0.102846 0.331086
vt 0.102846 0.331086
vt 0.102846 0.331086
vt 0.102846 0.331086
vt 0.102846 0.305337
vt 0.102846 0.305337
vt 0.102846 0.305337
vt 0.102846 0.331086
vt 0.102846 0.331086
vt 0.102846 0.305337
vt 0.102846 0.331086
vt 0.102846 0.331086
vt 0.102846 0.331086
vt 0.102846 0.331086
vt 0.102846 0.305337
vt 0.102846 0.305337
vt 0.102846 0.305337
vt 0.102846 0.331086
vt 0.102846 0.331086
vt 0.102846 0.305337
vt 0.102846 0.331086
vt 0.102846 0.331086
vt 0.102846 0.331086
vt 0.102846 0.331086
vt 0.102846 0.331086
vt 0.102846 0.331086
vt 0.102846 0.331086
vt 0.102846 0.305337
vt 0.102846 0.331086
vt 0.102846 0.331086
vt 0.102846 0.305337
vt 0.102846 0.305339
vt 0.102846 0.331087
vt 0.102846 0.305337
vt 0.102846 0.331086
vt 0.102846 0.305339
vt 0.102846 0.305339
vt 0.102846 0.305339
vt 0.102846 0.305339
vt 0.102846 0.305339
vt 0.102846 0.305339
vt 0.102846 0.305337
vt 0.102846 0.305337
vt 0.102846 0.305337
vt 0.102846 0.305337
vt 0.102846 0.305338
vt 0.102846 0.305337
vt 0.102846 0.305337
vt 0.102846 0.305337
vt 0.102846 0.305337
vt 0.102846 0.305337
vt 0.102846 0.305337
vt 0.102846 0.305337
vt 0.102846 0.305337
vt 0.102846 0.305337
vt 0.102846 0.305337
vt 0.102846 0.305337
vt 0.102846 0.331086
vt 0.102846 0.331086
vt 0.102482 0.352936
vt 0.102846 0.305337
vt 0.102846 0.305339
vt 0.102846 0.305337
vt 0.102846 0.305337
vt 0.102846 0.305337
vt 0.102846 0.305337
vt 0.102846 0.305337
vt 0.102846 0.305337
vt 0.102846 0.305337
vt 0.102846 0.305337
vt 0.102846 0.305338
vt 0.102846 0.305337
vt 0.102846 0.331087
vt 0.102846 0.331086
vt 0.102846 0.305339
vt 0.102846 0.331086
vt 0.102846 0.305337
vt 0.102846 0.331086
vt 0.102846 0.331086
vt 0.102846 0.331086
vt 0.102846 0.331086
vt 0.102846 0.331087
vt 0.102846 0.305339
vt 0.102846 0.305339
vt 0.102846 0.320085
vt 0.102846 0.331086
vt 0.102846 0.331086
vt 0.102846 0.331086
vt 0.102846 0.331086
vt 0.102846 0.331086
vt 0.102846 0.331086
vt 0.102846 0.331086
vt 0.102846 0.331086
vt 0.102846 0.331086
vt 0.102846 0.331086
vt 0.102846 0.331086
vt 0.102846 0.331086
vt 0.102846 0.331086
vt 0.102846 0.331086
vt 0.102846 0.331086
vt 0.102846 0.331086
vt 0.102846 0.331086
vt 0.102846 0.331086
vt 0.102846 0.331086
vt 0.102846 0.331086
vt 0.102846 0.305339
vt 0.102846 0.305338
vt 0.102846 0.305339
vt 0.102846 0.305339
vt 0.102846 0.331087
vt 0.102482 0.352936
vt 0.102482 0.352936
vt 0.102482 0.352936
vt 0.102481 0.352936
vt 0.102478 0.352936
vt 0.102480 0.352921
vt 0.102478 0.352936
vt 0.102478 0.352936
vt 0.102478 0.352936
vt 0.102481 0.352936
vt 0.102480 0.352921
vt 0.102478 0.352921
vt 0.102480 0.352921
vt 0.102478 0.352921
vt 0.102482 0.352928
vt 0.102474 0.352928
vt 0.102480 0.352921
vt 0.102480 0.352921
vt 0.102478 0.352921
vt 0.102482 0.352928
vt 0.102481 0.352936
vt 0.102478 0.352936
vt 0.102480 0.352921
vt 0.102480 0.352921
vt 0.102478 0.352928
vt 0.102846 0.331086
vt 0.102478 0.352925
vt 0.102846 0.331086
vt 0.102480 0.352921
vt 0.102846 0.331086
vt 0.102846 0.305339
vt 0.102846 0.305339
vt 0.102846 0.305337
vn 0.000000 0.000000 1.000000
vn 0.000000 0.000000 1.000000
vn 0.000000 0.000000 1.000000
vn 0.000000 0.000000 1.000000
vn 0.000000 0.000000 1.000000
vn 0.000000 0.000000 1.000000
vn 0.000000 0.000000 1.000000
vn 0.000000 0.000000 1.000000
vn 0.000000 0.000000 1.000000
vn 0.000000 0.000000 1.000000
vn 0.000000 0.000000 1.000000
vn -0.000000 0.000000 1.000000
vn -0.000000 0.000000 1.000000
vn -0.000000 0.000000 1.000000
vn -0.000000 0.000000 1.000000
vn 0.000000 0.000000 1.000000
vn 0.000000 0.000000 1.000000
vn 0.000000 0.000000 1.000000
vn -0.720400 0.693558 0.000000
vn -0.720400 0.693558 0.000000
vn -0.720400 0.693558 0.000000
vn -0.720400 0.693558 0.000000
vn 0.000000 1.000000 0.000000
vn 0.000000 1.000000 0.000000
vn 0.000000 1.000000 0.000000
vn 0.000000 1.000000 0.000000
vn 0.733030 0.680197 0.000000
vn 0.733030 0.680197 0.000000
vn 0.733030 0.680197 0.000000
vn 0.733030 0.680197 0.000000
vn 0.991578 -0.129510 0.000000
vn 0.991578 -0.129510 0.000000
vn 0.991578 -0.129510 0.000000
vn 0.991578 -0.129510 0.000000
vn -1.000000 0.000000 0.000000
vn -1.000000 0.000000 0.000000
vn -1.000000 0.000000 0.000000
vn -1.000000 0.000000 0.000000
vn 0.999399 0.034652 0.001266
vn 0.999399 0.034652 0.001266
vn 0.999399 0.034652 0.001266
vn 0.999399 0.034652 0.001266
vn -0.999921 -0.012557 0.000000
vn -0.999921 -0.012557 0.000000
vn -0.999921 -0.012557 0.000000
vn -0.999921 -0.012557 0.000000
vn 0.999515 0.031128 0.001265
vn 0.999515 0.031128 0.001265
vn 0.999515 0.031128 0.001265
vn 0.999515 0.031128 0.001265
vn 0.000000 -1.000000 0.000000
vn 0.000000 -1.000000 0.000000
vn 0.000000 -1.000000 0.000000
vn 0.000000 -1.000000 0.000000
vn -0.999999 0.001554 0.000001
vn -0.999999 0.001554 0.000001
vn -0.999999 0.001554 0.000001
vn -0.999999 0.001554 0.000001
vn -0.052113 0.235877 0.970384
vn -0.052113 0.235877 0.970385
vn -0.052113 0.235877 0.970385
vn -0.052113 0.235877 0.970384
vn -0.052113 0.235877 0.970384
vn 0.766633 0.446152 0.461760
vn 0.766633 0.446152 0.461760
vn 0.766633 0.446152 0.461760
vn 0.923404 0.033027 0.382406
vn 0.923404 0.033027 0.382406
vn 0.923404 0.033027 0.382407
vn 0.923404 0.033027 0.382407
vn -1.000000 0.000000 -0.000000
vn -1.000000 0.000000 -0.000000
vn -1.000000 0.000000 -0.000000
vn -1.000000 0.000000 -0.000000
vn -0.577064 0.784539 0.226928
vn -0.577064 0.784539 0.226928
vn -0.577064 0.784539 0.226928
vn -0.577064 0.784539 0.226928
vn -0.007687 0.966500 0.256552
vn -0.007687 0.966500 0.256552
vn -0.007687 0.966500 0.256552
vn -0.007687 0.966500 0.256552
vn 0.101699 -0.071813 0.992220
vn 0.101699 -0.071813 0.992220
vn 0.101699 -0.071813 0.992220
vn 0.101699 -0.071813 0.992220
vn 0.000497 1.000000 0.000543
vn 0.000497 1.000000 0.000543
vn 0.000497 1.000000 0.000543
vn 0.000497 1.000000 0.000543
vn -0.293988 0.000000 -0.955809
vn -0.293988 0.000000 -0.955809
vn -0.293988 0.000000 -0.955809
vn -0.293993 0.000000 -0.955808
vn -0.293993 0.000000 -0.955808
vn -0.293993 0.000000 -0.955808
vn 0.000000 -1.000000 0.000000
vn 0.000000 -1.000000 0.000000
vn 0.000000 -1.000000 0.000000
vn 0.000000 -1.000000 0.000000
vn 0.821650 -0.512074 -0.250344
vn 0.821650 -0.512074 -0.250344
vn 0.821650 -0.512074 -0.250344
vn 0.000000 0.000000 -1.000000
vn 0.000000 0.000000 -1.000000
vn 0.000000 0.000000 -1.000000
vn 0.988037 -0.107309 0.110762
vn 0.988037 -0.107309 0.110762
vn 0.988037 -0.107309 0.110762
vn 0.908864 0.181202 0.375675
vn 0.908864 0.181202 0.375675
vn 0.908864 0.181202 0.375675
vn 0.673418 -0.739223 0.007586
vn 0.673418 -0.739223 0.007586
vn 0.673418 -0.739223 0.007586
vn 0.976930 -0.205809 -0.057007
vn 0.976930 -0.205809 -0.057007
vn 0.976930 -0.205809 -0.057007
vn 0.646044 -0.763280 -0.005493
vn 0.646044 -0.763280 -0.005493
vn 0.646044 -0.763280 -0.005493
vn -0.996545 0.002713 0.083007
vn -0.996545 0.002713 0.083007
vn -0.996545 0.002713 0.083007
vn -0.996545 0.002713 0.083007
vn 0.906659 0.031569 0.420682
vn 0.906659 0.031569 0.420682
vn 0.906659 0.031569 0.420682
vn 0.906659 0.031569 0.420682
vn 0.722041 -0.691846 -0.002637
vn 0.722041 -0.691846 -0.002637
vn 0.722041 -0.691846 -0.002637
vn 0.704990 0.659119 0.261824
vn 0.704990 0.659119 0.261824
vn 0.704990 0.659119 0.261824
vn 0.645556 -0.763662 0.008860
vn 0.645556 -0.763662 0.008860
vn 0.645556 -0.763662 0.008860
vn 0.999358 0.035837 0.000000
vn 0.999358 0.035837 0.000000
vn 0.999358 0.035837 0.000000
vn 0.999358 0.035837 0.000000
vn 0.999358 0.035837 0.000000
vn 0.999358 0.035837 0.000000
vn 0.882669 0.382760 0.272745
vn 0.882669 0.382760 0.272745
vn 0.882669 0.382760 0.272745
vn 0.881229 0.432616 -0.190472
vn 0.881229 0.432616 -0.190472
vn 0.881229 0.432616 -0.190472
vn 0.000000 0.000000 -1.000000
vn 0.000000 0.000000 -1.000000
vn 0.000000 0.000000 -1.000000
vn 0.000000 0.118314 0.992976
vn 0.000000 0.118314 0.992976
vn 0.000000 0.118314 0.992976
vn -0.999986 0.000000 -0.005392
vn -0.999985 0.000000 -0.005392
vn -0.999985 0.000000 -0.005392
vn -0.999985 0.000000 -0.005392
vn -0.999986 0.000000 -0.005392
vn -0.515096 0.644591 0.564959
vn -0.515096 0.644590 0.564959
vn -0.515096 0.644590 0.564959
vn 0.000000 -1.000000 0.000000
vn 0.000000 -1.000000 0.000000
vn 0.000000 -1.000000 0.000000
vn 0.000000 0.000000 -1.000000
vn 0.000000 0.000000 -1.000000
vn 0.000000 0.000000 -1.000000
vn 0.000000 0.000000 -1.000000
vn 0.000000 0.000000 -1.000000
vn 0.000000 0.000000 -1.000000
vn 0.000000 0.000000 -1.000000
vn 0.000000 0.000000 -1.000000
vn 0.000000 -1.000000 0.000000
vn 0.000000 -1.000000 0.000000
vn 0.000000 -1.000000 0.000000
vn 0.000000 -1.000000 0.000000
vn 0.000000 -1.000000 0.000000
vn 0.000000 -1.000000 0.000000
vn 0.000000 -1.000000 0.000000
vn 0.000000 -1.000000 0.000000
vn 0.000000 -1.000000 0.000000
vn 0.000000 -1.000000 0.000000
vn 0.976137 -0.217158 0.000000
vn 0.976137 -0.217158 0.000000
vn 0.976137 -0.217158 0.000000
vn 0.976137 -0.217158 0.000000
vn 0.000000 -1.000000 0.000000
vn 0.000000 -1.000000 0.000000
vn 0.000000 -1.000000 0.000000
vn 0.000000 -1.000000 0.000000
vn -0.999993 0.003804 0.000000
vn -0.999993 0.003804 0.000000
vn -0.999993 0.003804 0.000000
vn -0.999993 0.003804 0.000000
vn -0.344453 -0.000444 0.938803
vn -0.344453 -0.000444 0.938803
vn -0.344453 -0.000444 0.938803
vn -0.344453 -0.000444 0.938803
vn -0.290594 0.000000 0.956846
vn -0.290594 0.000000 0.956846
vn -0.290594 0.000000 0.956846
vn -0.290594 0.000000 0.956846
vn -0.213557 0.047528 0.975774
vn -0.213557 0.047528 0.975774
vn -0.213557 0.047528 0.975774
vn -0.213557 0.047528 0.975774
vn 0.103952 0.020725 0.994366
vn 0.103952 0.020725 0.994366
vn 0.103952 0.020725 0.994366
vn 0.091058 0.006538 0.995824
vn 0.091058 0.006538 0.995824
vn 0.091058 0.006538 0.995824
vn 0.091058 0.006538 0.995824
vn 0.045428 -0.000948 0.998967
vn 0.045428 -0.000948 0.998967
vn 0.045428 -0.000948 0.998967
vn 0.045428 -0.000948 0.998967
vn 0.082739 0.061927 0.994645
vn 0.082739 0.061927 0.994645
vn 0.082739 0.061927 0.994645
vn 0.082739 0.061927 0.994645
vn -0.194333 0.187093 0.962928
vn -0.194333 0.187093 0.962928
vn -0.194333 0.187093 0.962928
vn 0.116027 -0.015154 0.993130
vn 0.116027 -0.015154 0.993130
vn 0.116027 -0.015154 0.993130
vn 0.668800 0.743440 -0.001888
vn 0.668800 0.743440 -0.001888
vn 0.668800 0.743440 -0.001888
vn 0.668800 0.743440 -0.001888
vn 0.000680 1.000000 0.000000
vn 0.000680 1.000000 0.000000
vn 0.000680 1.000000 0.000000
vn 0.999813 0.014371 -0.012937
vn 0.999813 0.014371 -0.012937
vn 0.999813 0.014371 -0.012937
vn 0.998764 0.049362 -0.005863
vn 0.998764 0.049362 -0.005863
vn 0.998764 0.049362 -0.005863
vn 0.998764 0.049362 -0.005863
vn 0.905028 0.126528 -0.406098
vn 0.905028 0.126528 -0.406098
vn 0.905028 0.126528 -0.406098
vn 0.905028 0.126528 -0.406098
vn 0.035218 0.035486 -0.998749
vn 0.035218 0.035486 -0.998749
vn 0.035218 0.035486 -0.998749
vn 0.035218 0.035486 -0.998749
vn 0.862019 0.198767 -0.466277
vn 0.862019 0.198767 -0.466277
vn 0.862019 0.198767 -0.466277
vn 0.862019 0.198767 -0.466277
vn 0.000000 0.000000 -1.000000
vn 0.000000 0.000000 -1.000000
vn 0.000000 0.000000 -1.000000
vn -1.000000 0.000000 0.000000
vn -1.000000 0.000000 0.000000
vn -1.000000 0.000000 0.000000
vn -1.000000 0.000000 0.000000
vn 0.000004 0.000000 -1.000000
vn 0.000004 0.000000 -1.000000
vn 0.000004 0.000000 -1.000000
vn 0.000004 0.000000 -1.000000
vn -1.000000 -0.000000 0.000000
vn -1.000000 -0.000000 0.000000
vn -1.000000 -0.000000 0.000000
vn -1.000000 -0.000000 0.000000
vn -1.000000 0.000000 0.000000
vn -1.000000 0.000000 0.000000
vn -1.000000 0.000000 0.000000
vn -0.705391 0.708705 -0.012717
vn -0.705391 0.708705 -0.012717
vn -0.705391 0.708705 -0.012717
vn -0.705391 0.708705 -0.012717
vn 0.000000 1.000000 -0.000000
vn 0.000000 1.000000 -0.000000
vn 0.000000 1.000000 -0.000000
vn 0.000000 1.000000 -0.000000
vn 0.984125 0.106282 -0.142131
vn 0.984125 0.106282 -0.142131
vn 0.984125 0.106282 -0.142131
vn -0.097508 0.617594 -0.780430
vn -0.097508 0.617594 -0.780430
vn -0.097508 0.617594 -0.780430
vn -0.097508 0.617594 -0.780430
vn 0.001134 0.360960 -0.932581
vn 0.001134 0.360960 -0.932581
vn 0.001134 0.360960 -0.932580
vn 0.001134 0.360960 -0.932581
vn 0.999231 0.038508 0.007374
vn 0.999231 0.038508 0.007374
vn 0.999231 0.038508 0.007374
vn 0.429167 0.279129 -0.859012
vn 0.429167 0.279129 -0.859012
vn 0.429167 0.279129 -0.859012
vn -1.000000 0.000000 0.000000
vn -1.000000 0.000000 0.000000
vn -1.000000 0.000000 0.000000
vn 0.223451 0.622352 -0.750165
vn 0.223451 0.622351 -0.750166
vn 0.223451 0.622352 -0.750166
vn -0.012352 0.353394 -0.935393
vn -0.012352 0.353394 -0.935393
vn -0.012352 0.353394 -0.935393
vn 0.127373 0.647909 -0.750993
vn 0.127373 0.647909 -0.750992
vn 0.127373 0.647909 -0.750993
vn 0.020601 0.032762 -0.999251
vn 0.020601 0.032762 -0.999251
vn 0.020601 0.032762 -0.999251
vn 0.020601 0.032762 -0.999251
vn -0.000001 0.000000 -1.000000
vn -0.000001 0.000000 -1.000000
vn -0.000001 0.000000 -1.000000
vn -0.000001 0.000000 -1.000000
vn 0.137480 0.616407 -0.775333
vn 0.137480 0.616407 -0.775333
vn 0.137480 0.616407 -0.775333
vn 0.074362 0.221275 -0.972372
vn 0.074362 0.221276 -0.972372
vn 0.074362 0.221275 -0.972372
vn 0.993608 0.111432 0.018058
vn 0.993608 0.111432 0.018058
vn 0.993608 0.111432 0.018058
vn 0.066179 0.991391 -0.112981
vn 0.066179 0.991391 -0.112981
vn 0.066179 0.991391 -0.112981
vn 0.999358 0.035837 0.000000
vn 0.999358 0.035837 0.000000
vn 0.999358 0.035837 0.000000
vn 0.997164 0.074990 0.006367
vn 0.997164 0.074990 0.006367
vn 0.997164 0.074990 0.006367
vn 0.999505 0.030481 -0.007737
vn 0.999505 0.030481 -0.007737
vn 0.999505 0.030481 -0.007737
vn 0.999119 0.041512 0.006191
vn 0.999119 0.041512 0.006191
vn 0.999119 0.041512 0.006191
vn 0.145726 -0.072483 -0.986666
vn 0.145726 -0.072483 -0.986666
vn 0.145726 -0.072483 -0.986666
vn 0.145726 -0.072483 -0.986666
vn 0.090255 0.550405 -0.830005
vn 0.090255 0.550405 -0.830005
vn 0.090255 0.550405 -0.830005
vn 0.090255 0.550405 -0.830005
vn -1.000000 0.000000 0.000000
vn -1.000000 0.000000 0.000000
vn -1.000000 0.000000 0.000000
vn 0.274447 0.959890 0.057365
vn 0.274447 0.959890 0.057365
vn 0.274447 0.959890 0.057365
vn 0.236964 0.628703 -0.740662
vn 0.236964 0.628703 -0.740662
vn 0.236964 0.628703 -0.740662
vn -1.000000 -0.000000 0.000000
vn -1.000000 -0.000000 0.000000
vn -1.000000 -0.000000 0.000000
vn -1.000000 -0.000000 0.000000
vn 0.030780 0.995766 -0.086617
vn 0.030780 0.995766 -0.086617
vn 0.030780 0.995766 -0.086617
vn -1.000000 0.000000 0.000000
vn -1.000000 0.000000 0.000000
vn -1.000000 0.000000 0.000000
vn -1.000000 0.000000 0.000000
vn -1.000000 0.000000 0.000000
vn -1.000000 0.000000 0.000000
vn 0.999367 0.030119 -0.018939
vn 0.999367 0.030119 -0.018939
vn 0.999367 0.030119 -0.018939
vn 0.999303 0.031196 0.020492
vn 0.999303 0.031196 0.020492
vn 0.999303 0.031196 0.020492
vn 0.999303 0.031196 0.020492
vn 0.120417 0.676544 -0.726490
vn 0.120417 0.676544 -0.726490
vn 0.120417 0.676544 -0.726490
vn -1.000000 0.000000 0.000000
vn -1.000000 0.000000 0.000000
vn -1.000000 0.000000 0.000000
vn 0.356316 0.827558 -0.433805
vn 0.356316 0.827558 -0.433805
vn 0.356316 0.827558 -0.433805
vn -1.000000 0.000000 0.000000
vn -1.000000 0.000000 0.000000
vn -1.000000 0.000000 0.000000
vn -1.000000 0.000000 0.000000
vn -1.000000 -0.000000 0.000000
vn -1.000000 -0.000000 0.000000
vn -1.000000 -0.000000 0.000000
vn 0.027206 0.999604 0.007245
vn 0.027206 0.999604 0.007245
vn 0.027206 0.999604 0.007245
vn 0.027206 0.999604 0.007245
vn 0.998953 0.045527 0.004585
vn 0.998953 0.045527 0.004585
vn 0.998953 0.045527 0.004585
vn 0.998953 0.045527 0.004585
vn 0.014046 0.999901 0.001038
vn 0.014046 0.999901 0.001038
vn 0.014046 0.999901 0.001038
vn 0.014046 0.999901 0.001038
vn -0.984575 -0.008286 -0.174767
vn -0.984575 -0.008286 -0.174767
vn -0.984575 -0.008286 -0.174767
vn -0.984575 -0.008286 -0.174767
vn 0.000000 -1.000000 0.000000
vn 0.000000 -1.000000 0.000000
vn 0.000000 -1.000000 0.000000
vn -0.295996 0.888675 -0.350203
vn -0.295996 0.888675 -0.350203
vn -0.295996 0.888675 -0.350203
s off
f 11/14/1 14/13/2 13/12/3 12/11/4
f 16/17/5 17/16/6 15/15/7
f 16/17/8 15/15/9 19/19/10 18/18/11
f 19/19/12 11/14/13 12/11/14 18/18/15
f 16/17/16 20/20/17 17/16/18
f 2/1/19 12/11/20 13/12/21 3/2/22
f 3/2/23 13/12/24 14/13/25 4/3/26
f 4/3/27 14/13/28 11/14/29 1/4/30
f 5/5/31 15/15/32 17/16/33 7/6/34
f 6/7/35 16/17/36 18/18/37 8/8/38
f 9/9/39 19/19/40 15/15/41 5/5/42
f 8/8/43 18/18/44 12/11/45 2/1/46
f 1/4/47 11/14/48 19/19/49 9/9/50
f 7/6/51 17/16/52 20/20/53 10/10/54
f 10/10/55 20/20/56 16/17/57 6/7/58
f 24/21/59 3/22/60 4/23/61 28/24/62 27/25/63
f 23/26/64 43/27/65 28/24/66
f 41/28/67 42/29/68 39/30/69 33/31/70
f 21/32/71 40/33/72 64/82/73 65/84/74
f 62/80/75 63/81/76 24/21/77 27/25/78
f 61/79/79 62/80/80 27/25/81 28/24/82
f 30/36/83 21/32/84 52/37/85 51/38/86
f 21/32/87 65/83/88 31/41/89 52/37/90
f 26/34/91 29/42/92 32/43/93
f 26/34/94 49/44/95 29/42/96
f 49/45/97 50/46/98 30/36/99 93/143/100
f 34/47/101 44/48/102 25/49/103
f 58/50/104 57/51/105 59/52/106
f 35/53/107 38/54/108 36/55/109
f 22/56/110 41/28/111 33/31/112
f 25/49/113 36/55/114 38/54/115
f 37/57/116 38/54/117 35/53/118
f 38/54/119 37/57/120 22/56/121
f 63/81/122 64/82/123 40/33/124 24/21/125
f 23/26/126 39/30/127 42/29/128 43/27/129
f 22/56/130 37/57/131 41/28/132
f 28/24/133 43/27/134 61/79/135
f 25/49/136 44/48/137 36/55/138
f 43/27/139 42/29/140 45/58/141
f 45/58/142 42/29/143 47/59/144
f 48/60/145 47/111/146 46/112/147
f 48/60/148 45/113/149 47/111/150
f 58/50/151 59/52/152 60/61/153
f 30/36/154 50/46/155 21/32/156
f 92/141/157 93/142/158 30/36/159 51/38/160 31/41/161
f 51/38/162 52/37/163 31/41/164
f 38/54/165 55/63/166 25/49/167
f 34/64/168 25/65/169 55/66/170 53/67/171
f 49/44/172 26/34/173 54/68/174 56/69/175
f 56/70/176 10/71/177 50/46/178 49/45/179
f 22/56/180 7/72/181 10/71/182 56/70/183 55/63/184 38/54/185
f 53/67/186 55/66/187 59/52/188 57/51/189
f 55/66/190 56/69/191 60/61/192 59/52/193
f 56/69/194 54/68/195 58/50/196 60/61/197
f 40/33/198 8/73/199 2/74/200 24/21/201
f 21/32/202 6/75/203 8/73/204 40/33/205
f 21/32/206 50/46/207 10/71/208 6/75/209
f 7/72/210 22/56/211 33/31/212
f 9/76/213 5/77/214 33/31/215 39/30/216
f 1/78/217 9/76/218 39/30/219 23/26/220
f 28/24/221 4/23/222 1/78/223 23/26/224
f 24/21/225 2/74/226 3/22/227
f 33/31/228 5/77/229 7/72/230
f 61/79/231 43/27/232 45/58/233 48/35/234
f 31/41/235 65/83/236 87/108/237
f 84/104/238 42/29/239 66/85/240
f 35/53/241 66/85/242 42/29/243 37/57/244
f 68/87/245 67/86/246 44/48/247 34/47/248
f 69/89/249 68/88/250 34/64/251 53/67/252
f 70/90/253 69/89/254 53/67/255 57/51/256
f 57/51/257 80/100/258 70/90/259
f 54/68/260 72/92/261 71/91/262 58/50/263
f 26/34/264 73/93/265 72/92/266 54/68/267
f 74/94/268 89/136/269 87/109/270 88/110/271
f 75/95/272 78/98/273 63/81/274
f 76/96/275 75/95/276 63/81/277 62/80/278
f 48/35/279 76/96/280 62/80/281 61/79/282
f 77/114/283 46/112/284 47/111/285
f 46/112/286 75/117/287 76/118/288 48/60/289
f 77/114/290 78/119/291 75/117/292 46/112/293
f 47/59/294 42/29/295 77/97/296
f 74/115/297 84/120/298 66/116/299
f 63/81/300 78/98/301 64/82/302
f 74/115/303 79/121/304 89/135/305
f 72/124/306 69/125/307 80/126/308
f 73/122/309 67/127/310 68/128/311
f 73/122/312 68/128/313 69/125/314 72/124/315
f 58/50/316 71/91/317 80/100/318 57/51/319
f 72/124/320 80/126/321 71/129/322
f 80/126/323 69/125/324 70/130/325
f 44/48/326 67/86/327 36/55/328
f 73/122/329 81/123/330 67/127/331
f 37/57/332 42/29/333 41/28/334
f 36/55/335 67/86/336 81/101/337
f 77/97/338 42/29/339 83/103/340
f 83/103/341 42/29/342 84/104/343
f 83/131/344 85/132/345 78/119/346 77/114/347
f 74/115/348 85/132/349 83/131/350 84/120/351
f 85/105/352 74/94/353 88/110/354
f 74/115/355 66/133/356 82/134/357
f 74/115/358 82/134/359 79/121/360
f 65/84/361 64/82/362 88/110/363 87/109/364
f 86/106/365 26/39/366 92/141/367
f 64/82/368 85/105/369 88/110/370
f 64/82/371 78/98/372 85/105/373
f 91/140/374 36/55/375 81/101/376
f 79/99/377 82/102/378 66/85/379 35/53/380
f 81/123/381 90/137/382 91/139/383
f 86/107/384 89/136/385 90/138/386
f 73/122/387 90/137/388 81/123/389
f 86/107/390 90/138/391 73/93/392 26/34/393
f 87/109/394 89/136/395 86/107/396
f 91/139/397 90/137/398 89/135/399 79/121/400
f 79/99/401 35/53/402 36/55/403 91/140/404
f 31/41/405 87/108/406 86/106/407 92/141/408
f 29/62/409 93/142/410 92/141/411 32/40/412
f 49/45/413 93/143/414 29/42/415
f 92/141/416 26/39/417 32/40/418
