# This file uses centimeters as units for non-parametric coordinates.

v 15.164181 0.000000 12.879150
v -6.051235 19.155544 12.879150
v 10.100704 19.155544 8.177002
v 15.164181 19.155544 -12.879150
v -15.164181 0.000000 -12.879150
v 15.164181 2.305023 -12.879150
v -4.393436 19.155544 12.879150
v 15.164181 19.155544 -0.589111
v 15.164181 8.542760 12.879150
v 15.164181 15.466530 9.123291
v 10.746212 15.952780 12.879150
v -6.678829 19.155544 -12.879150
v -11.535038 0.000000 12.879150
v -15.164181 0.000000 5.461182
v -8.592655 0.000000 -12.879150
v 15.164181 0.000000 -8.224854
v -15.164181 12.648675 -12.879150
v -12.936045 19.155544 -6.449146
v -15.164181 12.978893 -6.710274
v -15.164181 5.727390 10.482152
v -13.349791 2.392865 12.879150
v -13.571222 7.297203 12.879150
v -15.164181 8.614716 -3.249287
v -11.460691 12.503275 4.393602
vt 0.657789 0.219989
vt 0.657789 0.219989
vt 0.657789 0.219989
vt 0.657789 0.219989
vt 0.657789 0.219989
vt 0.657789 0.219989
vt 0.657789 0.219989
vt 0.657789 0.219989
vt 0.657789 0.219989
vt 0.657789 0.219989
vt 0.657789 0.219989
vt 0.657789 0.219989
vt 0.657789 0.219989
vt 0.657789 0.219989
vt 0.657789 0.219989
vt 0.657789 0.219989
vt 0.657789 0.219989
vt 0.657789 0.219989
vt 0.657789 0.219989
vt 0.657789 0.219989
vt 0.657789 0.219989
vt 0.657789 0.219989
vt 0.657789 0.219989
vt 0.657789 0.219989
vt 0.657789 0.219989
vt 0.657789 0.219989
vt 0.657789 0.219989
vn 0.000000 -1.000000 -0.000000
vn 0.000000 -1.000000 -0.000000
vn 0.000000 -1.000000 -0.000000
vn 0.000000 -1.000000 -0.000000
vn 1.000000 -0.000000 0.000000
vn 1.000000 -0.000000 0.000000
vn 1.000000 -0.000000 0.000000
vn 1.000000 -0.000000 0.000000
vn 1.000000 -0.000000 0.000000
vn 0.174484 0.824794 0.537838
vn 0.174484 0.824794 0.537838
vn 0.174484 0.824794 0.537838
vn 0.468286 0.758859 0.452594
vn 0.468286 0.758859 0.452594
vn 0.468286 0.758859 0.452594
vn 0.523687 0.796398 0.302492
vn 0.523687 0.796398 0.302492
vn 0.523687 0.796398 0.302492
vn -0.742367 -0.563012 0.363193
vn -0.742367 -0.563012 0.363193
vn -0.742367 -0.563012 0.363193
vn 0.624574 0.372381 0.686469
vn 0.624574 0.372381 0.686469
vn 0.624574 0.372381 0.686469
vn 0.086620 -0.892757 -0.442134
vn 0.086620 -0.892757 -0.442134
vn 0.086620 -0.892757 -0.442134
vn 0.000000 -1.000000 0.000000
vn 0.000000 -1.000000 0.000000
vn 0.000000 -1.000000 0.000000
vn 0.000000 -1.000000 0.000000
vn 0.000000 0.000000 1.000000
vn 0.000000 0.000000 1.000000
vn 0.000000 0.000000 1.000000
vn 0.000000 0.000000 1.000000
vn 1.000000 0.000000 0.000000
vn 1.000000 0.000000 0.000000
vn 1.000000 0.000000 0.000000
vn 1.000000 0.000000 0.000000
vn 0.000000 1.000000 0.000000
vn 0.000000 1.000000 0.000000
vn 0.000000 1.000000 0.000000
vn 0.000000 1.000000 0.000000
vn -0.000000 0.000000 -1.000000
vn -0.000000 0.000000 -1.000000
vn -0.000000 0.000000 -1.000000
vn -0.000000 0.000000 -1.000000
vn 0.000000 0.000000 -1.000000
vn 0.000000 0.000000 -1.000000
vn 0.000000 0.000000 -1.000000
vn 0.000000 0.000000 -1.000000
vn 0.000000 0.000000 1.000000
vn 0.000000 0.000000 1.000000
vn 0.000000 0.000000 1.000000
vn 0.000000 0.000000 1.000000
vn -0.940265 0.339957 -0.018198
vn -0.940265 0.339957 -0.018198
vn -0.940265 0.339957 -0.018198
vn -0.905058 0.286677 0.314144
vn -0.905058 0.286677 0.314144
vn -0.905058 0.286677 0.314144
vn -0.905058 0.286677 0.314144
vn 0.000000 1.000000 -0.000000
vn 0.000000 1.000000 -0.000000
vn 0.000000 1.000000 -0.000000
vn 0.000000 1.000000 -0.000000
vn -0.892422 0.320206 0.317884
vn -0.892422 0.320206 0.317884
vn -0.892422 0.320206 0.317884
vn -0.523600 0.682805 -0.509529
vn -0.523600 0.682805 -0.509529
vn -0.523600 0.682805 -0.509529
vn -0.820925 -0.037065 0.569831
vn -0.820925 -0.037065 0.569831
vn -0.820925 -0.037065 0.569831
vn -1.000000 0.000000 0.000000
vn -1.000000 0.000000 0.000000
vn -1.000000 0.000000 0.000000
vn -1.000000 0.000000 0.000000
vn -1.000000 0.000000 0.000000
vn -1.000000 0.000000 0.000000
vn -1.000000 0.000000 0.000000
vn -0.993809 -0.073241 0.083546
vn -0.993809 -0.073241 0.083546
vn -0.993809 -0.073241 0.083546
vn -0.993809 -0.073241 0.083546
vn -0.818116 0.560938 0.126625
vn -0.818116 0.560938 0.126625
vn -0.818116 0.560938 0.126625
vn -0.818116 0.560938 0.126625
vn -0.838637 0.531823 0.117699
vn -0.838637 0.531823 0.117699
vn -0.838637 0.531823 0.117699
vn 0.000000 0.000000 1.000000
vn 0.000000 0.000000 1.000000
vn 0.000000 0.000000 1.000000
vn 0.000000 0.000000 1.000000
vn 0.000000 1.000000 -0.000000
vn 0.000000 1.000000 -0.000000
vn 0.000000 1.000000 -0.000000
s off
f 5/15/1 15/11/2 13/18/3 14/17/4
f 1/1/5 16/13/6 6/14/7 10/9/8 9/8/9
f 7/5/10 11/10/11 3/2/12
f 3/2/13 11/10/14 10/9/15
f 3/2/16 10/9/17 8/7/18
f 14/17/19 13/18/20 21/25/21
f 10/9/22 11/10/23 9/8/24
f 16/12/25 15/11/26 6/14/27
f 13/18/28 15/11/29 16/12/30 1/3/31
f 11/10/32 13/18/33 1/1/34 9/8/35
f 10/9/36 6/14/37 4/4/38 8/7/39
f 12/22/40 3/2/41 8/6/42 4/4/43
f 17/16/44 6/14/45 15/11/46 5/15/47
f 17/16/48 12/22/49 4/4/50 6/14/51
f 22/21/52 11/10/53 7/5/54 2/24/55
f 17/16/56 19/19/57 18/23/58
f 18/23/59 19/19/60 23/26/61 24/27/62
f 2/24/63 7/5/64 12/22/65 18/23/66
f 18/23/67 24/27/68 2/24/69
f 18/23/70 12/22/71 17/16/72
f 20/20/73 21/25/74 22/21/75
f 5/15/76 23/26/77 19/19/78 17/16/79
f 14/17/80 23/26/81 5/15/82
f 20/20/83 23/26/84 14/17/85 21/25/86
f 24/27/87 23/26/88 20/20/89 22/21/90
f 2/24/91 24/27/92 22/21/93
f 22/21/94 21/25/95 13/18/96 11/10/97
f 12/22/98 7/5/99 3/2/100
