# This file uses centimeters as units for non-parametric coordinates.

v 24.028076 29.262459 -14.791504
v 27.544434 29.262459 -14.430176
v 24.322754 30.645401 -15.031250
v 27.304932 30.645401 -14.724609
v 24.629150 30.645401 -18.013184
v 27.611328 30.645401 -17.706787
v 24.389648 29.262459 -18.307861
v 27.906006 29.262459 -17.946533
v 25.013428 29.262459 18.561035
v 28.235107 29.262459 17.106445
v 25.147705 30.645401 18.205811
v 27.879883 30.645401 16.972168
v 23.914063 30.645401 15.473633
v 26.646240 30.645401 14.239990
v 23.558838 29.262459 15.339355
v 26.780518 29.262459 13.884766
v -26.759521 29.262459 17.699951
v -23.265869 29.262459 18.239258
v -26.453125 30.645401 17.475586
v -23.490234 30.645401 17.932861
v -25.995605 30.645401 14.512695
v -23.032959 30.645401 14.970215
v -26.219971 29.262459 14.206543
v -22.726563 29.262459 14.745850
v -26.340820 29.262459 -14.507324
v -22.811279 29.262459 -14.701172
v -26.087402 30.645401 -14.790039
v -23.093994 30.645401 -14.954590
v -26.251709 30.645401 -17.783447
v -23.258301 30.645401 -17.947754
v -26.534668 29.262459 -18.036865
v -23.004883 29.262459 -18.230713
v -33.797363 22.146729 20.473633
v 33.797363 22.146729 20.473633
v -32.772949 26.703278 20.473633
v 33.797363 26.703278 20.473633
v -33.797363 26.703278 -20.473389
v 32.938721 26.703278 -20.473389
v -33.797363 22.146729 -20.473389
v 33.797363 22.146729 -20.473389
v -28.207275 26.703278 -20.473389
v -28.207275 26.703278 20.473633
v -21.619385 26.703278 20.473633
v -21.619385 26.703278 -20.473389
v 23.138672 26.703278 20.473633
v 23.138672 26.703278 -20.473389
v 28.842529 26.703278 20.473633
v 28.842529 26.703278 -20.473389
v -27.866699 29.262459 -19.184326
v -27.866699 29.262459 19.184570
v -21.960205 29.262459 19.184570
v -21.960205 29.262459 -19.184326
v 23.374268 29.262459 19.184570
v 23.374268 29.262459 -19.184326
v 28.606934 29.262459 19.184570
v 28.606934 29.262459 -19.184326
v -11.427734 22.146729 -20.473389
v -11.793213 25.083153 -20.473389
v 10.157227 26.703278 16.736328
v 10.691650 22.146729 20.473633
v 5.958984 26.703278 -20.473389
v -11.771240 26.703278 -18.045410
v -12.236084 26.703278 20.473633
v 10.131348 24.803074 20.473633
v 17.046387 26.703278 20.473633
v -36.308350 0.000000 21.994629
v 36.308350 0.000000 21.994629
v -36.308350 22.146729 21.994629
v 36.308350 22.146729 21.994629
v -36.308350 22.146729 -21.994629
v 36.308350 22.146729 -21.994629
v -36.308350 0.000000 -21.994629
v 36.308350 0.000000 -21.994629
v -32.571289 22.146729 18.089355
v 32.571289 22.146729 18.089355
v 32.571289 22.146729 -18.089355
v -32.571289 22.146729 -18.089355
v 36.308350 22.146727 16.444092
v 36.308350 0.000000 16.444092
v -36.308350 0.000000 16.444092
v -36.308350 22.146727 16.444092
v -36.308350 0.000000 -16.444092
v 36.308350 0.000000 -16.444092
v 36.308350 22.146729 -16.444092
v -36.308350 22.146729 -16.444092
v 40.180664 0.729022 16.626709
v 40.180664 0.729022 21.811768
v 40.180664 21.417706 16.626709
v 40.180664 21.417706 21.811768
v -40.180664 0.729022 16.626709
v -40.180664 21.417706 16.626709
v -40.180664 0.729022 21.811768
v -40.180664 21.417706 21.811768
v 40.180664 0.729022 -16.626709
v 40.180664 21.417706 -16.626709
v 40.180664 0.729022 -21.811768
v 40.180664 21.417706 -21.811768
v -40.180664 0.729022 -21.811768
v -40.180664 0.729022 -16.626709
v -40.180664 21.417706 -16.626709
v -40.180664 21.417706 -21.811768
v 3.254150 0.000000 21.994629
v -9.548340 0.000000 19.887451
v -24.611816 4.946106 21.994629
v -8.508301 5.257573 21.994629
v 5.972900 0.000000 -21.994629
v 26.988281 0.000000 -21.994629
v 16.862305 3.084083 -21.994629
v 17.054932 0.000000 -20.139893
vt 0.103968 0.302618
vt 0.103968 0.302618
vt 0.103968 0.302618
vt 0.103968 0.302618
vt 0.103968 0.302618
vt 0.103968 0.302618
vt 0.103968 0.302618
vt 0.103968 0.302618
vt 0.103968 0.302618
vt 0.103968 0.302618
vt 0.103968 0.302618
vt 0.103968 0.302618
vt 0.103968 0.302618
vt 0.103968 0.302618
vt 0.103968 0.302618
vt 0.103968 0.302618
vt 0.103968 0.302618
vt 0.103968 0.302618
vt 0.103968 0.302618
vt 0.103968 0.302618
vt 0.103968 0.302618
vt 0.103968 0.302618
vt 0.103968 0.302618
vt 0.103968 0.302618
vt 0.103968 0.302618
vt 0.103968 0.302618
vt 0.103968 0.302618
vt 0.103968 0.302618
vt 0.103968 0.302618
vt 0.103968 0.302618
vt 0.103968 0.302618
vt 0.103968 0.302618
vt 0.103968 0.302618
vt 0.103968 0.302618
vt 0.103968 0.302618
vt 0.103968 0.302618
vt 0.103968 0.302618
vt 0.103968 0.302618
vt 0.103968 0.302618
vt 0.103968 0.302618
vt 0.103968 0.302618
vt 0.103968 0.302618
vt 0.103968 0.302618
vt 0.103968 0.302618
vt 0.103968 0.302618
vt 0.103968 0.302618
vt 0.103968 0.302618
vt 0.103968 0.302618
vt 0.040057 0.355617
vt 0.040057 0.355617
vt 0.040057 0.355617
vt 0.042395 0.356397
vt 0.042395 0.356397
vt 0.042395 0.356397
vt 0.042395 0.356397
vt 0.040057 0.355617
vt 0.040057 0.355617
vt 0.040057 0.355617
vt 0.040057 0.355617
vt 0.040056 0.355617
vt 0.040056 0.355617
vt 0.040057 0.355617
vt 0.040057 0.355617
vt 0.040057 0.355617
vt 0.040057 0.355617
vt 0.040057 0.355617
vt 0.040057 0.355617
vt 0.040057 0.355617
vt 0.040057 0.355617
vt 0.040057 0.355617
vt 0.040057 0.355617
vt 0.040057 0.355617
vt 0.040057 0.355617
vt 0.040057 0.355617
vt 0.040057 0.355617
vt 0.040057 0.355617
vt 0.042395 0.356397
vt 0.042395 0.356397
vt 0.042395 0.356397
vt 0.042395 0.356397
vt 0.040057 0.355617
vt 0.040057 0.355617
vt 0.042395 0.356397
vt 0.042395 0.356397
vt 0.042395 0.356397
vt 0.042395 0.356397
vt 0.042395 0.356397
vt 0.042395 0.356397
vt 0.042395 0.356397
vt 0.042395 0.356397
vt 0.042395 0.356397
vt 0.042395 0.356397
vt 0.042395 0.356397
vt 0.042395 0.356397
vt 0.042395 0.356397
vt 0.042395 0.356397
vt 0.042395 0.356397
vt 0.042395 0.356397
vt 0.042395 0.356397
vt 0.042395 0.356397
vt 0.042395 0.356397
vt 0.042395 0.356397
vt 0.042395 0.356397
vt 0.042395 0.356397
vt 0.042395 0.356397
vt 0.042395 0.356397
vt 0.042395 0.356397
vt 0.042395 0.356397
vt 0.042395 0.356397
vt 0.042395 0.356397
vt 0.042395 0.356397
vt 0.042395 0.356397
vt 0.042395 0.356397
vt 0.042395 0.356397
vt 0.040057 0.355617
vt 0.040057 0.355617
vt 0.040057 0.355617
vt 0.037718 0.356397
vt 0.037718 0.356397
vt 0.037718 0.356397
vt 0.037718 0.356397
vt 0.037718 0.356397
vt 0.037718 0.356397
vt 0.037718 0.356397
vt 0.037718 0.356397
vt 0.037718 0.356397
vt 0.037718 0.356397
vt 0.037718 0.356396
vt 0.037718 0.356397
vt 0.037718 0.356396
vt 0.037718 0.356397
vt 0.037718 0.356397
vt 0.037718 0.356397
vt 0.037718 0.356397
vt 0.037718 0.356397
vt 0.037718 0.356397
vt 0.037718 0.356397
vt 0.037718 0.356397
vt 0.037718 0.356397
vt 0.037718 0.356397
vt 0.037718 0.356397
vt 0.037718 0.356397
vt 0.037718 0.356397
vt 0.037718 0.356397
vt 0.037718 0.356397
vt 0.037718 0.356397
vt 0.037718 0.356397
vt 0.037718 0.356397
vt 0.037718 0.356397
vt 0.037718 0.356397
vt 0.037718 0.356397
vt 0.037718 0.356396
vt 0.037718 0.356396
vt 0.037718 0.356397
vt 0.037718 0.356397
vt 0.037718 0.356397
vt 0.037718 0.356397
vt 0.037718 0.356397
vt 0.037718 0.356397
vt 0.037718 0.356397
vt 0.037718 0.356397
vt 0.037718 0.356397
vt 0.037718 0.356397
vt 0.037718 0.356397
vt 0.037718 0.356397
vt 0.037718 0.356397
vt 0.037718 0.356397
vt 0.037718 0.356397
vt 0.037718 0.356397
vt 0.037718 0.356397
vt 0.037718 0.356397
vt 0.037718 0.356397
vt 0.037718 0.356397
vt 0.037718 0.356397
vt 0.037718 0.356397
vt 0.037718 0.356396
vt 0.037718 0.356397
vn -0.100375 0.190600 0.976523
vn -0.100375 0.190600 0.976523
vn -0.100375 0.190600 0.976523
vn -0.100375 0.190600 0.976523
vn 0.000000 1.000000 0.000000
vn 0.000000 1.000000 0.000000
vn 0.000000 1.000000 0.000000
vn 0.000000 1.000000 0.000000
vn 0.100336 0.190683 -0.976511
vn 0.100336 0.190683 -0.976511
vn 0.100336 0.190683 -0.976510
vn 0.100336 0.190683 -0.976511
vn 0.976526 0.190583 0.100375
vn 0.976526 0.190583 0.100375
vn 0.976526 0.190583 0.100375
vn 0.976526 0.190583 0.100375
vn -0.976524 0.190591 -0.100378
vn -0.976524 0.190591 -0.100378
vn -0.976524 0.190591 -0.100378
vn -0.976524 0.190591 -0.100378
vn 0.403965 0.190612 0.894695
vn 0.403965 0.190612 0.894695
vn 0.403965 0.190612 0.894695
vn 0.403965 0.190612 0.894695
vn 0.000000 1.000000 0.000000
vn 0.000000 1.000000 0.000000
vn 0.000000 1.000000 0.000000
vn 0.000000 1.000000 0.000000
vn -0.403965 0.190611 -0.894695
vn -0.403965 0.190611 -0.894695
vn -0.403965 0.190611 -0.894695
vn -0.403965 0.190611 -0.894695
vn 0.894695 0.190612 -0.403965
vn 0.894695 0.190612 -0.403965
vn 0.894695 0.190612 -0.403965
vn 0.894695 0.190612 -0.403965
vn -0.894695 0.190611 0.403965
vn -0.894695 0.190611 0.403965
vn -0.894695 0.190611 0.403965
vn -0.894695 0.190611 0.403965
vn -0.149749 0.190614 0.970176
vn -0.149749 0.190614 0.970176
vn -0.149749 0.190614 0.970176
vn -0.149749 0.190614 0.970176
vn 0.000000 1.000000 -0.000001
vn 0.000000 1.000000 -0.000001
vn 0.000000 1.000000 -0.000001
vn 0.000000 1.000000 -0.000001
vn 0.149799 0.190532 -0.970185
vn 0.149798 0.190532 -0.970185
vn 0.149798 0.190532 -0.970185
vn 0.149798 0.190532 -0.970185
vn 0.970174 0.190614 0.149760
vn 0.970174 0.190614 0.149760
vn 0.970174 0.190614 0.149760
vn 0.970174 0.190614 0.149760
vn -0.970167 0.190601 -0.149826
vn -0.970167 0.190601 -0.149826
vn -0.970167 0.190601 -0.149826
vn -0.970167 0.190601 -0.149826
vn 0.053856 0.190570 0.980195
vn 0.053856 0.190570 0.980195
vn 0.053856 0.190570 0.980195
vn 0.053856 0.190570 0.980195
vn 0.000000 1.000000 -0.000000
vn 0.000000 1.000000 -0.000000
vn 0.000000 1.000000 -0.000000
vn 0.000000 1.000000 -0.000000
vn -0.053817 0.190657 -0.980180
vn -0.053817 0.190657 -0.980180
vn -0.053817 0.190657 -0.980180
vn -0.053817 0.190657 -0.980180
vn 0.980199 0.190573 -0.053785
vn 0.980199 0.190573 -0.053785
vn 0.980199 0.190573 -0.053785
vn 0.980199 0.190573 -0.053785
vn -0.980181 0.190652 0.053819
vn -0.980181 0.190652 0.053819
vn -0.980181 0.190652 0.053819
vn -0.980181 0.190652 0.053819
vn 0.000000 0.000000 1.000000
vn 0.000000 0.000000 1.000000
vn 0.000000 0.000000 1.000000
vn 0.000000 1.000000 0.000000
vn 0.000000 1.000000 0.000000
vn 0.000000 1.000000 0.000000
vn 0.000000 1.000000 0.000000
vn 0.000000 0.000000 -1.000000
vn 0.000000 0.000000 -1.000000
vn 0.000000 0.000000 -1.000000
vn 0.995536 0.093800 -0.010438
vn 0.995536 0.093800 -0.010438
vn 0.995536 0.093800 -0.010438
vn 0.995536 0.093800 -0.010438
vn -0.993664 0.111699 0.012430
vn -0.993664 0.111699 0.012430
vn -0.993664 0.111699 0.012430
vn -0.993664 0.111699 0.012430
vn 0.000000 1.000000 -0.000000
vn 0.000000 1.000000 -0.000000
vn 0.000000 1.000000 -0.000000
vn 0.000000 1.000000 -0.000000
vn 0.000000 0.000000 1.000000
vn 0.000000 0.000000 1.000000
vn 0.000000 0.000000 1.000000
vn 0.000000 0.000000 -1.000000
vn 0.000000 0.000000 -1.000000
vn 0.000000 0.000000 -1.000000
vn -0.238088 0.866429 0.438880
vn -0.238088 0.866429 0.438880
vn -0.238088 0.866429 0.438880
vn 0.000000 0.000000 -1.000000
vn 0.000000 0.000000 -1.000000
vn 0.000000 0.000000 -1.000000
vn 0.000000 0.000000 -1.000000
vn 0.000000 0.000000 -1.000000
vn 0.000000 0.000000 1.000000
vn 0.000000 0.000000 1.000000
vn 0.000000 0.000000 1.000000
vn 0.000000 1.000000 0.000000
vn 0.000000 1.000000 0.000000
vn 0.000000 1.000000 0.000000
vn 0.000000 1.000000 0.000000
vn 0.000000 0.000000 -1.000000
vn 0.000000 0.000000 -1.000000
vn 0.000000 0.000000 -1.000000
vn 0.000000 0.000000 1.000000
vn 0.000000 0.000000 1.000000
vn 0.000000 0.000000 1.000000
vn 0.000000 1.000000 0.000000
vn 0.000000 1.000000 0.000000
vn 0.000000 1.000000 0.000000
vn 0.000000 1.000000 0.000000
vn 0.000000 0.000000 -1.000000
vn 0.000000 0.000000 -1.000000
vn 0.000000 0.000000 -1.000000
vn -0.991261 0.131917 0.000000
vn -0.991261 0.131917 0.000000
vn -0.991261 0.131917 0.000000
vn -0.991261 0.131917 0.000000
vn 0.000000 0.449856 0.893101
vn 0.000000 0.449856 0.893101
vn 0.000000 0.449856 0.893101
vn 0.000000 0.449856 0.893101
vn 0.991248 0.132010 0.000000
vn 0.991248 0.132010 0.000000
vn 0.991248 0.132010 0.000000
vn 0.991248 0.132010 0.000000
vn 0.000000 0.449856 -0.893101
vn 0.000000 0.449856 -0.893101
vn 0.000000 0.449856 -0.893101
vn 0.000000 0.449856 -0.893101
vn -0.995789 0.091671 0.000000
vn -0.995789 0.091671 0.000000
vn -0.995789 0.091671 0.000000
vn -0.995789 0.091671 0.000000
vn 0.000000 0.449857 0.893101
vn 0.000000 0.449857 0.893101
vn 0.000000 0.449857 0.893101
vn 0.000000 0.449857 0.893101
vn 0.995789 0.091671 0.000000
vn 0.995789 0.091671 0.000000
vn 0.995789 0.091671 0.000000
vn 0.995789 0.091671 0.000000
vn 0.000000 0.449857 -0.893101
vn 0.000000 0.449857 -0.893101
vn 0.000000 0.449857 -0.893101
vn 0.000000 0.449857 -0.893101
vn 0.000000 0.000000 -1.000000
vn 0.000000 0.000000 -1.000000
vn 0.000000 0.000000 -1.000000
vn 0.000000 0.000000 -1.000000
vn 0.075494 0.888642 0.452346
vn 0.075494 0.888642 0.452346
vn 0.075494 0.888642 0.452346
vn -0.075725 0.829745 -0.552981
vn -0.075725 0.829745 -0.552981
vn -0.075725 0.829745 -0.552981
vn 0.135785 0.823546 -0.550758
vn 0.135785 0.823546 -0.550758
vn 0.135785 0.823546 -0.550758
vn 0.000000 0.000000 1.000000
vn 0.000000 0.000000 1.000000
vn 0.000000 0.000000 1.000000
vn 0.000000 0.000000 1.000000
vn 0.000000 0.000000 1.000000
vn -0.000000 0.000000 1.000000
vn -0.000000 0.000000 1.000000
vn -0.000000 0.000000 1.000000
vn -0.000000 0.000000 1.000000
vn -0.000000 0.000000 1.000000
vn 0.000000 1.000000 0.000000
vn 0.000000 1.000000 0.000000
vn 0.000000 1.000000 0.000000
vn 0.000000 1.000000 0.000000
vn 0.000000 1.000000 0.000000
vn 0.000000 1.000000 0.000000
vn 0.000000 1.000000 0.000000
vn 0.000000 1.000000 0.000000
vn 0.000000 1.000000 0.000000
vn 0.000000 1.000000 0.000000
vn 0.000000 1.000000 0.000000
vn 0.000000 0.000000 1.000000
vn 0.000000 0.000000 1.000000
vn 0.000000 0.000000 1.000000
vn 0.000000 0.000000 1.000000
vn 0.000000 0.000000 -1.000000
vn 0.000000 0.000000 -1.000000
vn 0.000000 0.000000 -1.000000
vn 0.000000 0.000000 -1.000000
vn 0.000000 -1.000000 0.000000
vn 0.000000 -1.000000 0.000000
vn 0.000000 -1.000000 0.000000
vn 0.000000 -1.000000 0.000000
vn 0.000000 -1.000000 0.000000
vn 1.000000 0.000000 0.000000
vn 1.000000 0.000000 0.000000
vn 1.000000 0.000000 0.000000
vn 1.000000 0.000000 0.000000
vn -1.000000 0.000000 0.000000
vn -1.000000 0.000000 0.000000
vn -1.000000 0.000000 0.000000
vn -1.000000 0.000000 0.000000
vn 0.000000 1.000000 -0.000000
vn 0.000000 1.000000 -0.000000
vn 0.000000 1.000000 -0.000000
vn 0.000000 1.000000 -0.000000
vn 0.000000 1.000000 0.000000
vn 0.000000 1.000000 0.000000
vn 0.000000 1.000000 0.000000
vn 0.000000 1.000000 0.000000
vn 0.000000 1.000000 0.000000
vn 0.000000 1.000000 0.000000
vn 0.000000 1.000000 0.000000
vn 0.000000 1.000000 0.000000
vn -0.000000 1.000000 0.000000
vn -0.000000 1.000000 0.000000
vn -0.000000 1.000000 0.000000
vn -0.000000 1.000000 0.000000
vn 0.000000 1.000000 0.000000
vn 0.000000 1.000000 0.000000
vn 0.000000 1.000000 0.000000
vn 1.000000 0.000000 0.000000
vn 1.000000 0.000000 0.000000
vn 1.000000 0.000000 0.000000
vn 1.000000 0.000000 0.000000
vn 0.000000 -1.000000 0.000000
vn 0.000000 -1.000000 0.000000
vn 0.000000 -1.000000 0.000000
vn 0.000000 -1.000000 0.000000
vn -1.000000 0.000000 0.000000
vn -1.000000 0.000000 0.000000
vn -1.000000 0.000000 0.000000
vn -1.000000 0.000000 0.000000
vn -0.000000 1.000000 0.000000
vn -0.000000 1.000000 0.000000
vn -0.000000 1.000000 0.000000
vn 0.000000 -1.000000 0.000000
vn 0.000000 -1.000000 0.000000
vn 0.000000 -1.000000 0.000000
vn 0.000000 -1.000000 0.000000
vn 1.000000 0.000000 0.000000
vn 1.000000 0.000000 0.000000
vn 1.000000 0.000000 0.000000
vn 1.000000 0.000000 0.000000
vn 0.000000 1.000000 0.000000
vn 0.000000 1.000000 0.000000
vn 0.000000 1.000000 0.000000
vn 0.000000 1.000000 0.000000
vn 0.000000 1.000000 0.000000
vn 0.000000 1.000000 0.000000
vn -1.000000 0.000000 0.000000
vn -1.000000 0.000000 0.000000
vn -1.000000 0.000000 0.000000
vn -1.000000 0.000000 0.000000
vn 0.185015 -0.982736 0.000000
vn 0.185015 -0.982736 0.000000
vn 0.185015 -0.982736 0.000000
vn 0.185015 -0.982736 0.000000
vn 0.047108 0.000000 -0.998890
vn 0.047108 0.000000 -0.998890
vn 0.047108 0.000000 -0.998890
vn 0.047108 0.000000 -0.998890
vn 0.185015 0.982736 -0.000000
vn 0.185015 0.982736 -0.000000
vn 0.185015 0.982736 -0.000000
vn 0.185015 0.982736 -0.000000
vn 0.047170 0.000000 0.998887
vn 0.047170 0.000000 0.998887
vn 0.047170 0.000000 0.998887
vn 0.047170 0.000000 0.998887
vn -0.047107 0.000000 -0.998890
vn -0.047107 0.000000 -0.998890
vn -0.047107 0.000000 -0.998890
vn -0.047107 0.000000 -0.998890
vn -0.185015 -0.982736 0.000000
vn -0.185015 -0.982736 0.000000
vn -0.185015 -0.982736 0.000000
vn -0.185015 -0.982736 0.000000
vn -0.047170 0.000000 0.998887
vn -0.047170 0.000000 0.998887
vn -0.047170 0.000000 0.998887
vn -0.047170 0.000000 0.998887
vn -0.185015 0.982736 -0.000000
vn -0.185015 0.982736 -0.000000
vn -0.185015 0.982736 -0.000000
vn -0.185015 0.982736 -0.000000
vn 0.047107 0.000000 0.998890
vn 0.047107 0.000000 0.998890
vn 0.047107 0.000000 0.998890
vn 0.047107 0.000000 0.998890
vn 0.185015 -0.982736 0.000000
vn 0.185015 -0.982736 0.000000
vn 0.185015 -0.982736 0.000000
vn 0.185015 -0.982736 0.000000
vn 0.047170 0.000000 -0.998887
vn 0.047170 0.000000 -0.998887
vn 0.047170 0.000000 -0.998887
vn 0.047170 0.000000 -0.998887
vn 0.185015 0.982736 0.000000
vn 0.185015 0.982736 0.000000
vn 0.185015 0.982736 0.000000
vn 0.185015 0.982736 0.000000
vn -0.185015 -0.982736 0.000000
vn -0.185015 -0.982736 0.000000
vn -0.185015 -0.982736 0.000000
vn -0.185015 -0.982736 0.000000
vn -0.047108 0.000000 0.998890
vn -0.047108 0.000000 0.998890
vn -0.047108 0.000000 0.998890
vn -0.047108 0.000000 0.998890
vn -0.185015 0.982736 0.000000
vn -0.185015 0.982736 0.000000
vn -0.185015 0.982736 0.000000
vn -0.185015 0.982736 0.000000
vn -0.047170 0.000000 -0.998887
vn -0.047170 0.000000 -0.998887
vn -0.047170 0.000000 -0.998887
vn -0.047170 0.000000 -0.998887
vn 0.007219 -0.373242 0.927706
vn 0.007219 -0.373242 0.927706
vn 0.007219 -0.373242 0.927706
vn 0.000000 -1.000000 0.000000
vn 0.000000 -1.000000 0.000000
vn 0.000000 -1.000000 0.000000
vn 0.077182 -0.182519 0.980168
vn 0.077182 -0.182519 0.980168
vn 0.077182 -0.182519 0.980168
vn -0.152643 -0.341498 0.927405
vn -0.152643 -0.341498 0.927405
vn -0.152643 -0.341498 0.927405
vn -0.000000 0.000000 1.000000
vn -0.000000 0.000000 1.000000
vn -0.000000 0.000000 1.000000
vn 0.000000 0.000000 1.000000
vn 0.000000 0.000000 1.000000
vn 0.000000 0.000000 1.000000
vn 0.000000 0.000000 1.000000
vn 0.142614 -0.503547 -0.852116
vn 0.142614 -0.503547 -0.852116
vn 0.142614 -0.503547 -0.852116
vn 0.000000 -1.000000 0.000000
vn 0.000000 -1.000000 0.000000
vn 0.000000 -1.000000 0.000000
vn 0.000000 -1.000000 0.000000
vn 0.000000 -1.000000 0.000000
vn 0.000000 -1.000000 0.000000
vn 0.000000 -1.000000 0.000000
vn -0.000000 0.000000 -1.000000
vn -0.000000 0.000000 -1.000000
vn -0.000000 0.000000 -1.000000
vn -0.000000 0.000000 -1.000000
vn 0.000000 0.000000 -1.000000
vn 0.000000 0.000000 -1.000000
vn 0.000000 0.000000 -1.000000
vn -0.157206 -0.516155 -0.841944
vn -0.157206 -0.516155 -0.841944
vn -0.157206 -0.516155 -0.841944
s off
f 1/1/1 2/2/2 4/4/3 3/3/4
f 3/3/5 4/4/6 6/6/7 5/5/8
f 5/5/9 6/6/10 8/8/11 7/7/12
f 2/2/13 8/9/14 6/10/15 4/4/16
f 7/11/17 1/1/18 3/3/19 5/12/20
f 9/13/21 10/14/22 12/15/23 11/16/24
f 11/16/25 12/15/26 14/17/27 13/18/28
f 13/18/29 14/17/30 16/19/31 15/20/32
f 10/14/33 16/21/34 14/22/35 12/15/36
f 15/23/37 9/13/38 11/16/39 13/24/40
f 17/25/41 18/26/42 20/27/43 19/28/44
f 19/28/45 20/27/46 22/29/47 21/30/48
f 21/30/49 22/29/50 24/31/51 23/32/52
f 18/26/53 24/33/54 22/34/55 20/27/56
f 23/35/57 17/25/58 19/28/59 21/36/60
f 25/37/61 26/38/62 28/39/63 27/40/64
f 27/40/65 28/39/66 30/41/67 29/42/68
f 29/42/69 30/41/70 32/43/71 31/44/72
f 26/38/73 32/45/74 30/46/75 28/39/76
f 31/47/77 25/37/78 27/40/79 29/48/80
f 42/49/81 33/50/82 43/51/83
f 49/52/84 50/53/85 51/54/86 52/55/87
f 39/56/88 41/57/89 44/58/90
f 34/59/91 40/60/92 38/61/93 36/62/94
f 39/63/95 33/50/96 35/64/97 37/65/98
f 35/64/99 42/49/100 41/57/101 37/66/102
f 33/50/103 42/49/104 35/64/105
f 37/66/106 41/57/107 39/56/108
f 59/67/109 64/68/110 65/69/111
f 57/70/112 58/71/113 61/72/114 46/73/115 40/74/116
f 45/75/117 34/59/118 47/76/119
f 54/77/120 53/78/121 55/79/122 56/80/123
f 40/74/124 46/73/125 48/81/126
f 47/76/127 34/59/128 36/62/129
f 48/81/130 47/76/131 36/62/132 38/82/133
f 40/74/134 48/81/135 38/82/136
f 41/83/137 42/84/138 50/85/139 49/86/140
f 42/87/141 43/88/142 51/89/143 50/90/144
f 43/91/145 44/92/146 52/93/147 51/94/148
f 44/95/149 41/96/150 49/97/151 52/98/152
f 46/99/153 45/100/154 53/101/155 54/102/156
f 45/103/157 47/104/158 55/105/159 53/106/160
f 47/107/161 48/108/162 56/109/163 55/110/164
f 48/111/165 46/112/166 54/113/167 56/114/168
f 39/56/169 44/58/170 58/71/171 57/70/172
f 63/115/173 64/68/174 59/67/175
f 58/71/176 62/116/177 61/72/178
f 44/58/179 62/116/180 58/71/181
f 43/51/182 33/50/183 60/117/184 64/68/185 63/115/186
f 65/69/187 64/68/188 60/117/189 34/59/190 45/75/191
f 61/72/192 62/116/193 59/67/194 65/69/195 45/75/196 46/73/197
f 44/58/198 43/51/199 63/115/200 59/67/201 62/116/202
f 68/118/203 104/119/204 105/120/205 69/121/206
f 70/122/207 108/123/208 106/124/209 72/125/210
f 82/126/211 83/127/212 79/128/213 103/129/214 80/130/215
f 78/131/216 79/132/217 83/133/218 84/134/219
f 85/135/220 82/136/221 80/137/222 81/138/223
f 68/118/224 69/121/225 75/139/226 74/140/227
f 75/139/228 78/141/229 84/142/230 76/143/231
f 71/144/232 70/122/233 77/145/234 76/143/235
f 77/145/236 85/146/237 81/147/238 74/140/239
f 69/121/240 78/141/241 75/139/242
f 87/148/243 86/149/244 88/150/245 89/151/246
f 102/152/247 103/129/248 79/128/249 67/153/250
f 91/154/251 90/155/252 92/156/253 93/157/254
f 74/140/255 81/147/256 68/118/257
f 83/127/258 109/158/259 107/159/260 73/160/261
f 95/161/262 94/162/263 96/163/264 97/164/265
f 76/143/266 84/142/267 71/144/268
f 70/122/269 85/146/270 77/145/271
f 98/165/272 99/166/273 100/167/274 101/168/275
f 67/169/276 79/132/277 86/149/278 87/148/279
f 79/132/280 78/131/281 88/150/282 86/149/283
f 78/131/284 69/121/285 89/151/286 88/150/287
f 69/121/288 67/169/289 87/148/290 89/151/291
f 81/138/292 80/137/293 90/155/294 91/154/295
f 80/137/296 66/170/297 92/156/298 90/155/299
f 66/170/300 68/118/301 93/157/302 92/156/303
f 68/118/304 81/138/305 91/154/306 93/157/307
f 84/134/308 83/133/309 94/162/310 95/161/311
f 83/133/312 73/171/313 96/163/314 94/162/315
f 73/171/316 71/172/317 97/164/318 96/163/319
f 71/172/320 84/134/321 95/161/322 97/164/323
f 72/173/324 82/136/325 99/166/326 98/165/327
f 82/136/328 85/135/329 100/167/330 99/166/331
f 85/135/332 70/174/333 101/168/334 100/167/335
f 70/174/336 72/173/337 98/165/338 101/168/339
f 104/119/340 103/175/341 105/120/342
f 80/130/343 103/129/344 66/176/345
f 66/170/346 103/175/347 104/119/348
f 105/120/349 103/175/350 102/177/351
f 66/170/352 104/119/353 68/118/354
f 69/121/355 105/120/356 102/177/357 67/169/358
f 108/123/359 109/158/360 106/124/361
f 72/125/362 106/124/363 109/158/364 82/126/365
f 82/126/366 109/158/367 83/127/368
f 108/123/369 71/144/370 73/160/371 107/159/372
f 70/122/373 71/144/374 108/123/375
f 107/159/376 109/158/377 108/123/378
