# This file uses centimeters as units for non-parametric coordinates.

v -2.143791 151.944748 8.157486
v -3.171288 148.359863 8.331497
v -0.079353 146.268829 8.260818
v 2.859055 148.561386 8.043137
v 1.583168 152.069305 7.979279
v -2.051353 152.014435 10.139160
v -3.078850 148.429550 10.313187
v 0.013084 146.338531 10.242493
v 2.951485 148.631073 10.024811
v 1.675598 152.138992 9.960968
v -0.098007 149.510529 10.136124
v -0.025757 83.756477 8.795486
v -1.342995 80.269287 9.000000
v 1.565155 77.930199 8.906342
v 4.679733 79.971764 8.643936
v 3.696487 83.572601 8.575424
v 0.094795 83.827072 10.775620
v -1.222458 80.339874 10.980148
v 1.685715 78.000801 10.886475
v 4.800285 80.042351 10.624069
v 3.817047 83.643188 10.555557
v 1.835091 81.170662 10.764374
v -39.617294 77.147087 5.796402
v 34.584457 74.940155 2.020538
v -39.329330 77.197197 11.426056
v 34.872421 74.990265 7.650177
v -37.039146 155.594955 10.611038
v 37.162613 153.388031 6.835159
v -37.327103 155.544846 4.981415
v 36.874657 153.337921 1.205536
v 8.796021 153.387695 6.645325
v -12.890793 77.000435 8.373535
v -13.005112 76.980537 6.138565
v 8.675476 153.366699 4.288544
v 6.637909 149.630585 8.430008
v 20.419945 154.121979 7.685043
v 20.383919 154.064377 2.042587
v 6.124733 149.212936 2.815155
v -0.695229 154.691315 3.115234
v -1.847382 154.784256 8.818161
v -10.499802 84.619995 9.885300
v -24.175613 76.510513 10.657043
v -23.418015 76.429298 4.974182
v -10.060669 85.655952 4.208801
v -2.117142 75.795761 3.890259
v -0.847198 75.816673 9.469925
v 35.529099 97.471222 7.416473
v 35.914719 110.669876 7.279266
v 22.806747 104.569992 8.004059
v 35.588211 103.843163 4.853012
v -37.909332 135.615967 5.188583
v -38.353043 120.427818 5.346481
v -37.988876 127.525131 8.352600
v -26.922714 127.264885 4.700943
v 29.938759 140.233932 -0.550964
v -30.795341 137.554413 -1.190292
v 30.003731 140.203217 -6.593796
v -30.730385 137.523682 -7.233109
v 29.507881 151.456726 -6.656342
v -31.252205 148.789490 -4.879333
v 29.442940 151.487457 -0.613510
v -31.291183 148.807922 -1.252823
v -22.270615 149.172302 -7.201385
v -30.988197 143.375122 -7.265625
v 9.808167 139.312210 -6.806381
v 16.882713 139.634567 -4.890411
v 26.518845 140.049469 -6.630478
v 17.344681 141.935333 -6.738708
v -11.079895 3.648874 4.716858
v -10.715691 170.933899 4.085114
v -11.014915 3.618141 -1.325958
v -10.684555 170.919159 1.188354
v 9.340988 3.308576 -1.105545
v 9.705330 170.593582 -1.737289
v 9.276031 3.339311 4.937271
v 9.640373 170.624298 4.305527
v -10.617416 156.527893 -1.884262
v -3.881645 170.800140 -1.884399
vt 0.100481 0.296446
vt 0.100481 0.296446
vt 0.100481 0.296446
vt 0.100481 0.296446
vt 0.100481 0.296446
vt 0.100481 0.296446
vt 0.100481 0.296446
vt 0.100481 0.296446
vt 0.100481 0.296446
vt 0.100481 0.296446
vt 0.100481 0.296446
vt 0.100481 0.296446
vt 0.100481 0.296446
vt 0.100481 0.296446
vt 0.100481 0.296446
vt 0.100481 0.296446
vt 0.100481 0.296446
vt 0.100481 0.296446
vt 0.100481 0.296446
vt 0.100481 0.296446
vt 0.100481 0.296446
vt 0.100481 0.296446
vt 0.100481 0.296446
vt 0.100481 0.296446
vt 0.100481 0.296446
vt 0.100481 0.296446
vt 0.100481 0.296446
vt 0.100481 0.296446
vt 0.100481 0.296446
vt 0.100481 0.296446
vt 0.100481 0.296446
vt 0.100481 0.296446
vt 0.100481 0.296446
vt 0.100481 0.296446
vt 0.100481 0.296446
vt 0.100481 0.296446
vt 0.267621 0.179974
vt 0.267621 0.179974
vt 0.267621 0.179974
vt 0.267621 0.179974
vt 0.267621 0.179974
vt 0.267621 0.179974
vt 0.267621 0.179974
vt 0.267621 0.179974
vt 0.267621 0.179974
vt 0.267621 0.179974
vt 0.267621 0.179974
vt 0.267621 0.179974
vt 0.267621 0.179974
vt 0.267621 0.179974
vt 0.267621 0.179974
vt 0.267621 0.179974
vt 0.267621 0.179974
vt 0.267621 0.179974
vt 0.267621 0.179974
vt 0.267621 0.179974
vt 0.267621 0.179974
vt 0.267621 0.179974
vt 0.267621 0.179974
vt 0.267621 0.179974
vt 0.267621 0.179974
vt 0.267621 0.179974
vt 0.267621 0.179974
vt 0.267621 0.179974
vt 0.267621 0.179974
vt 0.267621 0.179974
vt 0.227466 0.182727
vt 0.227318 0.173445
vt 0.232638 0.165224
vt 0.273561 0.155903
vt 0.276622 0.161185
vt 0.276475 0.182727
vt 0.267621 0.179974
vt 0.267621 0.179974
vt 0.267621 0.179974
vt 0.245717 0.145207
vt 0.267621 0.179974
vt 0.267621 0.179974
vt 0.267621 0.179974
vt 0.267621 0.179974
vt 0.267621 0.179974
vt 0.227318 0.159162
vt 0.227466 0.137297
vt 0.241519 0.137297
vt 0.276622 0.147552
vt 0.249770 0.137297
vt 0.276475 0.137297
vt 0.267621 0.179974
vt 0.267621 0.179974
vt 0.267621 0.179974
vt 0.267621 0.179974
vt 0.267621 0.179974
vt 0.267621 0.179974
vt 0.037266 0.285988
vt 0.037266 0.285988
vt 0.037266 0.285988
vt 0.037266 0.285988
vt 0.037266 0.285988
vt 0.037266 0.285988
vt 0.037266 0.285988
vt 0.037266 0.285988
vt 0.037266 0.285988
vt 0.037266 0.285988
vt 0.037266 0.285988
vt 0.037266 0.285988
vt 0.037266 0.285988
vt 0.037266 0.285988
vt 0.037266 0.285988
vt 0.037266 0.285988
vt 0.037266 0.285988
vt 0.037266 0.285988
vt 0.037266 0.285988
vt 0.037266 0.285988
vt 0.037266 0.285988
vt 0.037266 0.261006
vt 0.037266 0.285988
vt 0.037266 0.285988
vt 0.037266 0.285988
vt 0.037266 0.261006
vt 0.037266 0.285988
vt 0.037266 0.285988
vt 0.037266 0.258376
vt 0.037266 0.285988
vt 0.037266 0.258376
vt 0.037266 0.285988
vt 0.037266 0.261006
vt 0.037266 0.285988
vt 0.037266 0.285988
vt 0.037266 0.285988
vt 0.037266 0.258376
vt 0.037266 0.258376
vn -0.960251 0.276928 0.035055
vn -0.960251 0.276928 0.035055
vn -0.960251 0.276928 0.035055
vn -0.960251 0.276928 0.035055
vn -0.558485 -0.827679 0.055155
vn -0.558485 -0.827679 0.055155
vn -0.558485 -0.827679 0.055155
vn -0.558485 -0.827679 0.055155
vn 0.615086 -0.788459 -0.000956
vn 0.615086 -0.788459 -0.000956
vn 0.615086 -0.788459 -0.000956
vn 0.615086 -0.788459 -0.000956
vn 0.938633 0.340381 -0.055754
vn 0.938633 0.340381 -0.055754
vn 0.938633 0.340381 -0.055754
vn 0.938633 0.340381 -0.055754
vn -0.034983 0.998826 -0.033498
vn -0.034983 0.998826 -0.033498
vn -0.034983 0.998826 -0.033498
vn -0.034983 0.998826 -0.033498
vn 0.046561 0.035112 0.998298
vn 0.046566 0.035111 0.998298
vn 0.046564 0.035109 0.998298
vn 0.046566 0.035111 0.998298
vn 0.046566 0.035108 0.998298
vn 0.046564 0.035109 0.998298
vn 0.046566 0.035108 0.998298
vn 0.046564 0.035106 0.998298
vn 0.046564 0.035109 0.998298
vn 0.046564 0.035106 0.998298
vn 0.046560 0.035107 0.998298
vn 0.046564 0.035109 0.998298
vn 0.046560 0.035107 0.998298
vn 0.046561 0.035112 0.998298
vn 0.046564 0.035109 0.998298
vn -0.933712 0.355289 0.044174
vn -0.933712 0.355289 0.044174
vn -0.933712 0.355289 0.044174
vn -0.933712 0.355289 0.044174
vn -0.624101 -0.778573 0.065750
vn -0.624101 -0.778573 0.065750
vn -0.624101 -0.778573 0.065750
vn -0.624101 -0.778573 0.065750
vn 0.547997 -0.836473 -0.003541
vn 0.547997 -0.836473 -0.003541
vn 0.547997 -0.836473 -0.003541
vn 0.547997 -0.836473 -0.003541
vn 0.962781 0.261604 -0.067942
vn 0.962781 0.261604 -0.067942
vn 0.962781 0.261604 -0.067942
vn 0.962781 0.261604 -0.067942
vn 0.047036 0.998153 -0.038450
vn 0.047036 0.998153 -0.038450
vn 0.047036 0.998153 -0.038450
vn 0.047036 0.998153 -0.038450
vn 0.060732 0.035564 0.997520
vn 0.060733 0.035563 0.997520
vn 0.060732 0.035563 0.997520
vn 0.060733 0.035563 0.997520
vn 0.060733 0.035562 0.997520
vn 0.060732 0.035563 0.997520
vn 0.060733 0.035562 0.997520
vn 0.060732 0.035562 0.997520
vn 0.060732 0.035563 0.997520
vn 0.060732 0.035562 0.997520
vn 0.060732 0.035563 0.997520
vn 0.060732 0.035563 0.997520
vn 0.060732 0.035563 0.997520
vn 0.060732 0.035564 0.997520
vn 0.060732 0.035563 0.997520
vn -0.101561 -0.994559 0.023183
vn -0.101561 -0.994559 0.023183
vn -0.101561 -0.994559 0.023183
vn -0.101561 -0.994559 0.023183
vn -0.108143 0.476552 0.872470
vn -0.108143 0.476552 0.872470
vn -0.108143 0.476552 0.872470
vn -0.061698 0.998058 -0.008597
vn -0.061698 0.998058 -0.008597
vn -0.061698 0.998058 -0.008597
vn -0.061698 0.998058 -0.008597
vn -0.194667 0.431919 -0.880653
vn -0.194667 0.431920 -0.880653
vn -0.194667 0.431920 -0.880653
vn 0.998268 -0.029689 -0.050792
vn 0.998268 -0.029689 -0.050792
vn 0.998268 -0.029689 -0.050792
vn 0.998268 -0.029689 -0.050792
vn -0.998268 0.029690 0.050787
vn -0.998268 0.029690 0.050787
vn -0.998268 0.029690 0.050787
vn 0.228890 0.307289 0.923679
vn 0.228890 0.307289 0.923679
vn 0.228890 0.307289 0.923679
vn 0.048783 -0.998670 0.016717
vn 0.048783 -0.998670 0.016717
vn 0.048783 -0.998670 0.016717
vn 0.048783 -0.998670 0.016717
vn 0.154443 0.244696 -0.957220
vn 0.154443 0.244696 -0.957220
vn 0.154443 0.244696 -0.957220
vn 0.134882 0.990856 0.003260
vn 0.134882 0.990856 0.003260
vn 0.134882 0.990856 0.003260
vn 0.134882 0.990856 0.003260
vn -0.105215 -0.161664 0.981221
vn -0.105215 -0.161664 0.981221
vn -0.105215 -0.161664 0.981221
vn 0.043352 0.999002 -0.010792
vn 0.043352 0.999002 -0.010792
vn 0.043352 0.999002 -0.010792
vn 0.043352 0.999002 -0.010792
vn -0.214973 -0.141970 -0.966246
vn -0.214973 -0.141970 -0.966246
vn -0.214973 -0.141970 -0.966246
vn 0.120764 -0.254424 -0.959523
vn 0.120764 -0.254424 -0.959523
vn 0.120764 -0.254424 -0.959523
vn 0.022609 0.999685 -0.010897
vn 0.022609 0.999685 -0.010897
vn 0.022609 0.999685 -0.010897
vn 0.022609 0.999685 -0.010897
vn 0.202437 -0.251315 0.946499
vn 0.202437 -0.251315 0.946499
vn 0.202437 -0.251315 0.946499
vn 0.051082 0.008890 0.998655
vn 0.051082 0.008890 0.998655
vn 0.051082 0.008890 0.998655
vn 0.051082 0.008890 0.998655
vn 0.051082 0.008890 0.998655
vn 0.051082 0.008890 0.998655
vn -0.044254 -0.998973 0.009758
vn -0.044254 -0.998973 0.009758
vn -0.044254 -0.998973 0.009758
vn -0.044254 -0.998973 0.009758
vn -0.051083 -0.008889 -0.998655
vn -0.051083 -0.008889 -0.998655
vn -0.051083 -0.008889 -0.998655
vn -0.051082 -0.008890 -0.998655
vn -0.051082 -0.008890 -0.998655
vn -0.051082 -0.008890 -0.998655
vn -0.051082 -0.008890 -0.998655
vn -0.051082 -0.008890 -0.998655
vn -0.051082 -0.008890 -0.998655
vn -0.022735 -0.999696 0.009495
vn -0.022735 -0.999696 0.009495
vn -0.022735 -0.999696 0.009495
vn -0.022735 -0.999696 0.009495
vn 0.051082 0.008889 0.998655
vn 0.051082 0.008889 0.998655
vn 0.051082 0.008889 0.998655
vn 0.242559 0.360150 0.900809
vn 0.242559 0.360150 0.900809
vn 0.242559 0.360150 0.900809
vn 0.207338 -0.336396 0.918612
vn 0.207338 -0.336396 0.918612
vn 0.207338 -0.336396 0.918612
vn -0.301460 -0.344688 -0.888995
vn -0.301460 -0.344688 -0.888995
vn -0.301460 -0.344688 -0.888995
vn -0.280802 0.386504 -0.878501
vn -0.280802 0.386504 -0.878501
vn -0.280802 0.386504 -0.878501
vn 0.051082 0.008889 0.998655
vn 0.051082 0.008889 0.998655
vn 0.051082 0.008889 0.998655
vn 0.051082 0.008889 0.998655
vn 0.051082 0.008889 0.998655
vn 0.051083 0.008890 0.998655
vn 0.051083 0.008890 0.998655
vn 0.051083 0.008890 0.998655
vn 0.051083 0.008890 0.998655
vn 0.051083 0.008890 0.998655
vn 0.998268 -0.029690 -0.050799
vn 0.998268 -0.029690 -0.050799
vn 0.998268 -0.029690 -0.050799
vn 0.998268 -0.029690 -0.050799
vn 0.998268 -0.029690 -0.050798
vn 0.998268 -0.029690 -0.050798
vn 0.998268 -0.029690 -0.050798
vn -0.998267 0.029690 0.050807
vn -0.998267 0.029690 0.050807
vn -0.998267 0.029690 0.050807
vn -0.998267 0.029690 0.050807
vn -0.998267 0.029690 0.050811
vn -0.998267 0.029690 0.050811
vn -0.998267 0.029690 0.050811
vn -0.998267 0.029690 0.050811
vn -0.051083 -0.008889 -0.998655
vn -0.051083 -0.008889 -0.998655
vn -0.051083 -0.008889 -0.998655
vn -0.051083 -0.008889 -0.998655
vn -0.051083 -0.008889 -0.998655
vn -0.051083 -0.008889 -0.998655
vn -0.051083 -0.008889 -0.998655
vn -0.051083 -0.008889 -0.998655
vn -0.051083 -0.008889 -0.998655
vn -0.051083 -0.008889 -0.998655
vn 0.005883 0.002234 -0.999980
vn 0.000422 0.010446 -0.999945
vn 0.010750 -0.005083 -0.999929
vn -0.010750 0.005083 0.999929
vn -0.010750 0.005083 0.999929
vn -0.010750 0.005083 0.999929
vn -0.010750 0.005083 0.999929
vn 0.998973 0.044074 0.010516
vn 0.998973 0.044074 0.010516
vn 0.998973 0.044074 0.010516
vn 0.998973 0.044074 0.010516
vn 0.055496 -0.632062 -0.772928
vn 0.010879 -0.031723 -0.999438
vn 0.008305 -0.016978 -0.999821
vn -0.998973 -0.044074 -0.010516
vn -0.998973 -0.044074 -0.010516
vn -0.998973 -0.044074 -0.010515
vn -0.998973 -0.044074 -0.010515
vn -0.998973 -0.044074 -0.010516
vn -0.044017 0.999015 -0.005552
vn -0.044017 0.999015 -0.005554
vn -0.044017 0.999015 -0.005554
vn -0.044017 0.999015 -0.005552
vn -0.044017 0.999015 -0.005552
vn 0.005883 0.002234 -0.999980
vn 0.010879 -0.031723 -0.999438
vn 0.011719 -0.007870 -0.999900
vn 0.010750 -0.005083 -0.999929
vn 0.000422 0.010446 -0.999945
vn 0.044017 -0.999015 0.005552
vn 0.044017 -0.999015 0.005552
vn 0.044017 -0.999015 0.005550
vn 0.011719 -0.007870 -0.999900
vn 0.010879 -0.031723 -0.999438
vn 0.055496 -0.632062 -0.772928
vn 0.010750 -0.005083 -0.999929
vn 0.008305 -0.016978 -0.999821
vn 0.010879 -0.031723 -0.999438
vn 0.010750 -0.005083 -0.999929
vn 0.010750 -0.005083 -0.999929
vn 0.010879 -0.031723 -0.999438
vn 0.005883 0.002234 -0.999980
vn 0.044017 -0.999015 0.005550
vn 0.044017 -0.999015 0.005552
vn 0.044017 -0.999015 0.005552
vn 0.044017 -0.999015 0.005554
vn 0.044017 -0.999015 0.005552
vn 0.044017 -0.999015 0.005550
vn 0.044017 -0.999015 0.005552
vn 0.044017 -0.999015 0.005552
vn -0.998973 -0.044074 -0.010516
vn -0.998973 -0.044074 -0.010516
vn -0.999865 0.002219 -0.016255
vn -0.999865 0.002219 -0.016255
vn -0.998973 -0.044074 -0.010516
vn 0.010750 -0.005083 -0.999929
vn 0.009100 -0.003212 -0.999953
vn 0.006365 -0.001928 -0.999978
vn 0.010750 -0.005083 -0.999929
vn 0.010750 -0.005083 -0.999929
vn 0.998973 0.044074 0.010516
vn 0.998973 0.044074 0.010516
vn 0.998973 0.044074 0.010516
vn 0.998973 0.044074 0.010516
vn -0.010750 0.005083 0.999929
vn -0.010750 0.005083 0.999929
vn -0.010750 0.005083 0.999929
vn -0.010750 0.005083 0.999929
vn -0.044017 0.999015 -0.005552
vn -0.044017 0.999015 -0.005552
vn -0.044017 0.999015 -0.005552
vn 0.015259 0.999871 -0.004926
vn 0.015259 0.999871 -0.004926
vn 0.044017 -0.999015 0.005552
vn 0.044017 -0.999015 0.005552
vn 0.044017 -0.999015 0.005552
vn 0.044017 -0.999015 0.005552
vn 0.006365 -0.001928 -0.999978
vn 0.009100 -0.003212 -0.999953
vn 0.010750 -0.005083 -0.999929
s off
f 1/1/1 2/2/2 7/8/3 6/7/4
f 2/2/5 3/3/6 8/9/7 7/8/8
f 3/3/9 4/4/10 9/10/11 8/9/12
f 4/4/13 5/5/14 10/11/15 9/10/16
f 5/5/17 1/6/18 6/12/19 10/11/20
f 6/16/21 7/15/22 11/18/23
f 7/15/24 8/14/25 11/18/26
f 8/14/27 9/13/28 11/18/29
f 9/13/30 10/17/31 11/18/32
f 10/17/33 6/16/34 11/18/35
f 12/19/36 13/20/37 18/21/38 17/22/39
f 13/20/40 14/23/41 19/24/42 18/21/43
f 14/23/44 15/25/45 20/26/46 19/24/47
f 15/25/48 16/27/49 21/28/50 20/26/51
f 16/27/52 12/29/53 17/30/54 21/28/55
f 17/31/56 18/32/57 22/33/58
f 18/32/59 19/34/60 22/33/61
f 19/34/62 20/35/63 22/33/64
f 20/35/65 21/36/66 22/33/67
f 21/36/68 17/31/69 22/33/70
f 32/37/71 33/38/72 45/39/73 46/40/74
f 31/41/75 35/42/76 36/43/77
f 34/44/78 31/41/79 36/43/80 37/45/81
f 37/45/82 38/46/83 34/44/84
f 24/47/85 50/48/86 47/49/87 26/50/88
f 27/51/89 53/52/90 25/53/91
f 40/54/92 35/42/93 31/41/94
f 42/55/95 43/56/96 33/38/97 32/37/98
f 38/46/99 39/57/100 34/44/101
f 39/57/102 40/54/103 31/41/104 34/44/105
f 46/40/106 41/58/107 32/37/108
f 37/45/109 36/43/110 28/59/111 30/60/112
f 33/61/113 44/62/114 45/63/115
f 43/64/116 44/62/117 33/61/118
f 27/65/119 40/54/120 39/57/121 29/66/122
f 41/58/123 42/55/124 32/37/125
f 25/67/126 42/68/127 41/69/128 35/70/129 40/71/130 27/72/131
f 23/73/132 43/56/133 42/55/134 25/53/135
f 54/74/136 38/46/137 44/62/138
f 45/63/139 44/62/140 38/46/141 37/45/142 30/60/143 24/75/144
f 46/40/145 45/39/146 24/47/147 26/50/148
f 49/76/149 35/70/150 41/69/151
f 47/49/152 50/48/153 49/77/154
f 49/77/155 50/48/156 48/78/157
f 51/79/158 54/74/159 53/80/160
f 53/80/161 54/74/162 52/81/163
f 49/76/164 41/69/165 46/82/166 26/83/167 47/84/168
f 36/85/169 35/70/170 49/76/171 48/86/172 28/87/173
f 50/48/174 30/88/175 28/89/176 48/78/177
f 24/47/178 30/88/179 50/48/180
f 29/90/181 51/91/182 53/52/183 27/51/184
f 25/53/185 53/52/186 52/92/187 23/73/188
f 54/74/189 44/62/190 43/64/191 23/93/192 52/81/193
f 29/66/194 39/57/195 38/46/196 54/74/197 51/79/198
f 63/94/199 64/95/200 60/96/201
f 61/97/202 62/98/203 56/99/204 55/100/205
f 61/101/206 55/102/207 57/103/208 59/104/209
f 66/105/210 68/106/211 67/107/212
f 56/108/213 62/109/214 60/110/215 64/111/216 58/112/217
f 59/113/218 63/94/219 60/96/220 62/98/221 61/97/222
f 63/94/223 68/106/224 65/114/225 58/112/226 64/95/227
f 55/102/228 56/108/229 66/105/230
f 65/114/231 68/106/232 66/105/233
f 57/103/234 67/107/235 68/106/236 59/113/237
f 59/113/238 68/106/239 63/94/240
f 66/105/241 56/108/242 58/112/243 65/114/244
f 55/102/245 66/105/246 67/107/247 57/103/248
f 69/115/249 70/116/250 72/117/251 77/118/252 71/119/253
f 71/119/254 77/118/255 78/120/256 74/121/257 73/122/258
f 73/122/259 74/121/260 76/123/261 75/124/262
f 75/124/263 76/123/264 70/125/265 69/126/266
f 70/116/267 76/127/268 74/128/269 78/129/270 72/117/271
f 75/130/272 69/115/273 71/119/274 73/131/275
f 78/120/276 77/118/277 72/117/278
