# This file uses centimeters as units for non-parametric coordinates.

v 55.465408 -3.655060 -8.136627
v -55.465424 -3.655060 -8.136627
v 55.465408 4.194992 -8.136627
v -55.465424 4.194992 -8.136627
v 55.465408 4.194992 8.136562
v -55.465424 4.194992 8.136562
v 55.465408 -3.655060 8.136562
v -55.465424 -3.655060 8.136562
v -42.010010 -120.286125 -2.949272
v -43.563095 -120.286125 -2.949272
v -42.010010 3.079712 -2.949272
v -43.563095 3.079712 -2.949272
v -42.010010 3.079712 -1.623331
v -43.563095 3.079712 -1.623331
v -42.010010 -120.286125 -1.623331
v -43.563095 -120.286125 -1.623331
v 42.839722 -76.409180 -2.949272
v 41.286606 -76.409180 -2.949272
v 42.839722 3.079712 -2.949272
v 41.286606 3.079712 -2.949272
v 42.839722 3.079712 -1.623331
v 41.286606 3.079712 -1.623331
v 42.839722 -76.409180 -1.623331
v 41.286606 -76.409180 -1.623331
v -42.010010 -126.338974 -2.686106
v -43.563095 -126.338974 -2.686106
v -43.563095 -126.338974 -4.012047
v -42.010010 -126.338974 -4.012047
v -42.010010 -145.016586 -2.686106
v -43.563095 -145.016586 -2.686106
v -43.563095 -145.016586 -4.012047
v -42.010010 -145.016586 -4.012047
v -41.607468 -145.175995 -2.213465
v -43.974915 -145.175995 -2.213465
v -43.974915 -145.175995 -4.484688
v -41.607468 -145.175995 -4.484688
v -41.607468 -147.029053 -2.213465
v -43.974915 -147.029053 -2.213465
v -43.974915 -147.029053 -4.484688
v -41.607468 -147.029053 -4.484688
v 46.333878 -66.265503 -3.175484
v -44.343483 -86.249191 -3.175484
v 46.040817 -64.935730 -3.648794
v -44.636543 -84.919418 -3.648794
v 44.622955 -58.502045 -1.146353
v -46.054413 -78.485748 -1.146353
v 44.916000 -59.831772 -0.672949
v -45.761368 -79.815475 -0.672949
v 46.699646 -51.303391 -3.175484
v -46.056366 -55.552719 -3.175484
v 46.637329 -49.943130 -3.648794
v -46.118683 -54.192444 -3.648794
v 46.335831 -43.361954 -1.146353
v -46.420174 -47.611282 -1.146353
v 46.398148 -44.722198 -0.672949
v -46.357857 -48.971512 -0.672949
v 46.566376 -46.632355 -3.175484
v -46.286911 -46.632355 -3.175484
v 46.566376 -45.270676 -3.648794
v -46.286911 -45.270676 -3.648794
v 46.566376 -38.682602 -1.146353
v -46.286911 -38.682602 -1.146353
v 46.566376 -40.044266 -0.672949
v -46.286911 -40.044266 -0.672949
v 45.868698 -29.965866 -3.175484
v -46.445015 -19.970352 -3.175484
v 46.015289 -28.612106 -3.648794
v -46.298431 -18.616592 -3.648794
v 46.724487 -22.062317 -1.146353
v -45.589241 -12.066803 -1.146353
v 46.577896 -23.416046 -0.672949
v -45.735817 -13.420532 -0.672949
v 46.443161 -20.531143 -3.147924
v -46.370407 -17.489639 -3.203047
v 46.478973 -19.170059 -3.621231
v -46.334595 -16.128555 -3.676353
v 46.649918 -12.584747 -1.118887
v -46.163666 -9.543228 -1.174009
v 46.614105 -13.945816 -0.645483
v -46.199478 -10.904282 -0.700605
v 46.566376 -11.845032 -3.175484
v -46.286911 -11.845032 -3.175484
v 46.566376 -10.483307 -3.648794
v -46.286911 -10.483307 -3.648794
v 46.566376 -3.895248 -1.146353
v -46.286911 -3.895248 -1.146353
v 46.566376 -5.256897 -0.672949
v -46.286911 -5.256897 -0.672949
v 46.572739 -57.799225 -3.304993
v -45.119652 -72.453705 -4.291952
v 46.358490 -56.395691 -3.554380
v -45.333908 -71.050171 -4.541243
v 45.399124 -50.369385 -0.029884
v -46.293282 -65.023865 -1.016844
v 45.613373 -51.772919 0.219406
v -46.079048 -66.427399 -0.767456
vt 0.058749 0.351970
vt 0.058749 0.351970
vt 0.058749 0.351970
vt 0.058749 0.351970
vt 0.058749 0.351970
vt 0.058749 0.351970
vt 0.058749 0.351970
vt 0.058749 0.351970
vt 0.058749 0.351970
vt 0.058749 0.351970
vt 0.058749 0.351970
vt 0.058749 0.351970
vt 0.058749 0.351970
vt 0.058749 0.351970
vt 0.058762 0.305337
vt 0.058762 0.305337
vt 0.058762 0.305337
vt 0.058762 0.305337
vt 0.058762 0.305337
vt 0.058762 0.305337
vt 0.058762 0.305337
vt 0.058762 0.305337
vt 0.058697 0.375817
vt 0.058697 0.375817
vt 0.058697 0.375817
vt 0.058697 0.375817
vt 0.058762 0.305337
vt 0.058762 0.305337
vt 0.058762 0.305337
vt 0.058762 0.305337
vt 0.058762 0.305337
vt 0.058762 0.305337
vt 0.058762 0.305337
vt 0.058762 0.305337
vt 0.058762 0.305337
vt 0.058762 0.305337
vt 0.058762 0.305337
vt 0.058762 0.305337
vt 0.058762 0.305337
vt 0.058762 0.305337
vt 0.058762 0.305337
vt 0.058762 0.305337
vt 0.058762 0.305337
vt 0.058762 0.305337
vt 0.058762 0.305337
vt 0.058762 0.305337
vt 0.058762 0.305337
vt 0.058762 0.305337
vt 0.058762 0.305337
vt 0.058762 0.305337
vt 0.058762 0.305337
vt 0.058762 0.305337
vt 0.058762 0.305337
vt 0.058762 0.305337
vt 0.058697 0.375817
vt 0.058697 0.375817
vt 0.058697 0.375817
vt 0.058697 0.375817
vt 0.058697 0.375817
vt 0.058697 0.375817
vt 0.058697 0.375817
vt 0.058697 0.375817
vt 0.058711 0.331885
vt 0.058711 0.331885
vt 0.058711 0.331885
vt 0.058711 0.331885
vt 0.058711 0.331885
vt 0.058711 0.331885
vt 0.058711 0.331885
vt 0.058711 0.331885
vt 0.058711 0.331885
vt 0.058711 0.331885
vt 0.058711 0.331885
vt 0.058711 0.331885
vt 0.058711 0.331885
vt 0.058711 0.331885
vt 0.058711 0.351640
vt 0.058711 0.351640
vt 0.058711 0.351640
vt 0.058711 0.351640
vt 0.058711 0.351640
vt 0.058711 0.351640
vt 0.058711 0.351640
vt 0.058711 0.351640
vt 0.058711 0.351640
vt 0.058711 0.351640
vt 0.058711 0.351640
vt 0.058711 0.351640
vt 0.058711 0.351640
vt 0.058711 0.351640
vt 0.058711 0.351640
vt 0.058711 0.351640
vt 0.058711 0.351640
vt 0.058711 0.351640
vt 0.058711 0.351640
vt 0.058711 0.351640
vt 0.058711 0.351640
vt 0.058711 0.351640
vt 0.058711 0.351640
vt 0.058711 0.351640
vt 0.058711 0.331885
vt 0.058711 0.331885
vt 0.058711 0.331885
vt 0.058711 0.331885
vt 0.058711 0.331885
vt 0.058711 0.331885
vt 0.058711 0.331885
vt 0.058711 0.331885
vt 0.058711 0.331885
vt 0.058711 0.331885
vt 0.058711 0.331885
vt 0.058711 0.331885
vt 0.058711 0.331885
vt 0.058711 0.331885
vt 0.058711 0.331885
vt 0.058711 0.331885
vt 0.058711 0.331885
vt 0.058711 0.331885
vt 0.058711 0.331885
vt 0.058711 0.331885
vt 0.058711 0.331885
vt 0.058711 0.331885
vt 0.058711 0.331885
vt 0.058711 0.331885
vt 0.058711 0.331885
vt 0.058711 0.331885
vt 0.058711 0.331885
vt 0.058711 0.331885
vt 0.058711 0.307389
vt 0.058711 0.307389
vt 0.058711 0.307389
vt 0.058711 0.307389
vt 0.058711 0.307389
vt 0.058711 0.307389
vt 0.058711 0.307389
vt 0.058711 0.307389
vt 0.058711 0.307389
vt 0.058711 0.307389
vt 0.058711 0.307389
vt 0.058711 0.307389
vt 0.058711 0.307389
vt 0.058711 0.307389
vt 0.058711 0.307389
vt 0.058711 0.307389
vt 0.058711 0.307389
vt 0.058711 0.307389
vt 0.058711 0.307389
vt 0.058711 0.307389
vt 0.058711 0.307389
vt 0.058711 0.307389
vt 0.058711 0.307389
vt 0.058711 0.307389
vt 0.058711 0.351640
vt 0.058711 0.351640
vt 0.058711 0.351640
vt 0.058711 0.351640
vt 0.058711 0.351640
vt 0.058711 0.351640
vt 0.058711 0.351640
vt 0.058711 0.351640
vt 0.058711 0.351640
vt 0.058711 0.351640
vt 0.058711 0.351640
vt 0.058711 0.351640
vt 0.058711 0.351640
vt 0.058711 0.351640
vt 0.058711 0.351640
vt 0.058711 0.351640
vt 0.058711 0.351640
vt 0.058711 0.351640
vt 0.058711 0.351640
vt 0.058711 0.351640
vt 0.058711 0.351640
vt 0.058711 0.351640
vt 0.058711 0.351640
vt 0.058711 0.351640
vt 0.058711 0.307389
vt 0.058711 0.307389
vt 0.058711 0.307389
vt 0.058711 0.307389
vt 0.058711 0.307389
vt 0.058711 0.307389
vt 0.058711 0.307389
vt 0.058711 0.307389
vt 0.058711 0.307389
vt 0.058711 0.307389
vt 0.058711 0.307389
vt 0.058711 0.307389
vt 0.058711 0.307389
vt 0.058711 0.307389
vt 0.058711 0.307389
vt 0.058711 0.307389
vt 0.058711 0.307389
vt 0.058711 0.307389
vt 0.058711 0.307389
vt 0.058711 0.307389
vt 0.058711 0.307389
vt 0.058711 0.307389
vt 0.058711 0.307389
vt 0.058711 0.307389
vn 0.000000 0.000000 -1.000000
vn 0.000000 0.000000 -1.000000
vn 0.000000 0.000000 -1.000000
vn 0.000000 0.000000 -1.000000
vn 0.000000 1.000000 0.000000
vn 0.000000 1.000000 0.000000
vn 0.000000 1.000000 0.000000
vn 0.000000 1.000000 0.000000
vn 0.000000 0.000000 1.000000
vn 0.000000 0.000000 1.000000
vn 0.000000 0.000000 1.000000
vn 0.000000 0.000000 1.000000
vn 0.000000 -1.000000 0.000000
vn 0.000000 -1.000000 0.000000
vn 0.000000 -1.000000 0.000000
vn 0.000000 -1.000000 0.000000
vn -1.000000 0.000000 0.000000
vn -1.000000 0.000000 0.000000
vn -1.000000 0.000000 0.000000
vn -1.000000 0.000000 0.000000
vn 1.000000 0.000000 0.000000
vn 1.000000 0.000000 0.000000
vn 1.000000 0.000000 0.000000
vn 1.000000 0.000000 0.000000
vn -0.000000 0.000000 -1.000000
vn -0.000000 0.000000 -1.000000
vn -0.000000 0.000000 -1.000000
vn -0.000000 0.000000 -1.000000
vn 0.000000 1.000000 0.000000
vn 0.000000 1.000000 0.000000
vn 0.000000 1.000000 0.000000
vn 0.000000 1.000000 0.000000
vn 0.000000 0.000000 1.000000
vn 0.000000 0.000000 1.000000
vn 0.000000 0.000000 1.000000
vn 0.000000 0.000000 1.000000
vn 0.000000 -1.000000 0.000000
vn 0.000000 -1.000000 0.000000
vn 0.000000 -1.000000 0.000000
vn 0.000000 -1.000000 0.000000
vn -1.000000 0.000000 0.000000
vn -1.000000 0.000000 0.000000
vn -1.000000 0.000000 0.000000
vn -1.000000 0.000000 0.000000
vn 1.000000 0.000000 -0.000000
vn 1.000000 0.000000 -0.000000
vn 1.000000 0.000000 -0.000000
vn 1.000000 0.000000 -0.000000
vn -0.000000 0.000000 -1.000000
vn -0.000000 0.000000 -1.000000
vn -0.000000 0.000000 -1.000000
vn -0.000000 0.000000 -1.000000
vn 0.000000 1.000000 0.000000
vn 0.000000 1.000000 0.000000
vn 0.000000 1.000000 0.000000
vn 0.000000 1.000000 0.000000
vn 0.000000 0.000000 1.000000
vn 0.000000 0.000000 1.000000
vn 0.000000 0.000000 1.000000
vn 0.000000 0.000000 1.000000
vn 0.000000 -1.000000 0.000000
vn 0.000000 -1.000000 0.000000
vn 0.000000 -1.000000 0.000000
vn 0.000000 -1.000000 0.000000
vn -1.000000 0.000000 0.000000
vn -1.000000 0.000000 0.000000
vn -1.000000 0.000000 0.000000
vn -1.000000 0.000000 0.000000
vn 1.000000 0.000000 -0.000000
vn 1.000000 0.000000 -0.000000
vn 1.000000 0.000000 -0.000000
vn 1.000000 0.000000 -0.000000
vn 0.000000 -0.172937 0.984933
vn 0.000000 -0.172937 0.984933
vn 0.000000 -0.172937 0.984933
vn 0.000000 -0.172937 0.984933
vn -1.000000 0.000004 0.000000
vn -1.000000 0.000004 0.000000
vn -1.000000 0.000004 0.000000
vn -1.000000 0.000004 0.000000
vn -0.000000 0.172937 -0.984933
vn -0.000000 0.172937 -0.984933
vn -0.000000 0.172937 -0.984933
vn -0.000000 0.172937 -0.984933
vn 1.000000 0.000000 -0.000000
vn 1.000000 0.000000 -0.000000
vn 1.000000 0.000000 -0.000000
vn 1.000000 0.000000 -0.000000
vn 0.000000 0.000000 1.000000
vn 0.000000 0.000000 1.000000
vn 0.000000 0.000000 1.000000
vn 0.000000 0.000000 1.000000
vn -1.000000 0.000000 0.000000
vn -1.000000 0.000000 0.000000
vn -1.000000 0.000000 0.000000
vn -1.000000 0.000000 0.000000
vn -0.000000 0.000000 -1.000000
vn -0.000000 0.000000 -1.000000
vn -0.000000 0.000000 -1.000000
vn -0.000000 0.000000 -1.000000
vn 1.000000 0.000000 -0.000000
vn 1.000000 0.000000 -0.000000
vn 1.000000 0.000000 -0.000000
vn 1.000000 0.000000 -0.000000
vn 0.000000 0.947553 0.319598
vn 0.000000 0.947553 0.319598
vn 0.000000 0.947553 0.319598
vn 0.000000 0.947553 0.319598
vn -0.360995 0.932568 0.000000
vn -0.360995 0.932568 0.000000
vn -0.360995 0.932568 0.000000
vn -0.360995 0.932568 0.000000
vn -0.000000 0.947553 -0.319598
vn -0.000000 0.947553 -0.319598
vn -0.000000 0.947553 -0.319598
vn -0.000000 0.947553 -0.319598
vn 0.360995 0.932568 -0.000000
vn 0.360995 0.932568 -0.000000
vn 0.360995 0.932568 -0.000000
vn 0.360995 0.932568 -0.000000
vn 0.000000 0.000000 1.000000
vn 0.000000 0.000000 1.000000
vn 0.000000 0.000000 1.000000
vn 0.000000 0.000000 1.000000
vn -1.000000 0.000000 0.000000
vn -1.000000 0.000000 0.000000
vn -1.000000 0.000000 0.000000
vn -1.000000 0.000000 0.000000
vn -0.000000 0.000000 -1.000000
vn -0.000000 0.000000 -1.000000
vn -0.000000 0.000000 -1.000000
vn -0.000000 0.000000 -1.000000
vn 1.000000 0.000000 -0.000000
vn 1.000000 0.000000 -0.000000
vn 1.000000 0.000000 -0.000000
vn 1.000000 0.000000 -0.000000
vn -0.000000 -0.328322 -0.944566
vn -0.000000 -0.328322 -0.944566
vn -0.000000 -0.328322 -0.944566
vn -0.000000 -0.328322 -0.944566
vn -0.000000 0.355090 -0.934832
vn -0.000000 0.355090 -0.934832
vn -0.000000 0.355090 -0.934832
vn -0.000000 0.355090 -0.934832
vn 0.000000 0.328388 0.944543
vn 0.000000 0.328388 0.944543
vn 0.000000 0.328388 0.944543
vn 0.000000 0.328388 0.944543
vn 0.000000 -0.355101 0.934828
vn 0.000000 -0.355101 0.934828
vn 0.000000 -0.355101 0.934828
vn 0.000000 -0.355101 0.934828
vn -1.000000 -0.000001 0.000000
vn -1.000000 -0.000001 0.000000
vn -1.000000 -0.000001 0.000000
vn -1.000000 -0.000001 0.000000
vn 1.000000 0.000000 -0.000000
vn 1.000000 0.000000 -0.000000
vn 1.000000 0.000000 -0.000000
vn 1.000000 0.000000 -0.000000
vn -0.000000 -0.328324 -0.944565
vn -0.000000 -0.328324 -0.944565
vn -0.000000 -0.328324 -0.944565
vn -0.000000 -0.328324 -0.944565
vn -0.000000 0.355090 -0.934832
vn -0.000000 0.355090 -0.934832
vn -0.000000 0.355090 -0.934832
vn -0.000000 0.355090 -0.934832
vn 0.000000 0.328385 0.944544
vn 0.000000 0.328385 0.944544
vn 0.000000 0.328385 0.944544
vn 0.000000 0.328385 0.944544
vn 0.000000 -0.355101 0.934828
vn 0.000000 -0.355101 0.934828
vn 0.000000 -0.355101 0.934828
vn 0.000000 -0.355101 0.934828
vn -1.000000 -0.000001 0.000000
vn -1.000000 -0.000001 0.000000
vn -1.000000 -0.000001 0.000000
vn -1.000000 -0.000001 0.000000
vn 1.000000 0.000000 -0.000000
vn 1.000000 0.000000 -0.000000
vn 1.000000 0.000000 -0.000000
vn 1.000000 0.000000 -0.000000
vn -0.000000 -0.328324 -0.944565
vn -0.000000 -0.328324 -0.944565
vn -0.000000 -0.328324 -0.944565
vn -0.000000 -0.328324 -0.944565
vn -0.000000 0.355090 -0.934832
vn -0.000000 0.355090 -0.934832
vn -0.000000 0.355090 -0.934832
vn -0.000000 0.355090 -0.934832
vn 0.000000 0.328388 0.944543
vn 0.000000 0.328388 0.944543
vn 0.000000 0.328388 0.944543
vn 0.000000 0.328388 0.944543
vn 0.000000 -0.355101 0.934828
vn 0.000000 -0.355101 0.934828
vn 0.000000 -0.355101 0.934828
vn 0.000000 -0.355101 0.934828
vn -1.000000 -0.000001 0.000000
vn -1.000000 -0.000001 0.000000
vn -1.000000 -0.000001 0.000000
vn -1.000000 -0.000001 0.000000
vn 1.000000 0.000000 -0.000000
vn 1.000000 0.000000 -0.000000
vn 1.000000 0.000000 -0.000000
vn 1.000000 0.000000 -0.000000
vn -0.000000 -0.328319 -0.944567
vn -0.000000 -0.328319 -0.944567
vn -0.000000 -0.328319 -0.944567
vn -0.000000 -0.328319 -0.944567
vn -0.000000 0.355090 -0.934832
vn -0.000000 0.355090 -0.934832
vn -0.000000 0.355090 -0.934832
vn -0.000000 0.355090 -0.934832
vn 0.000000 0.328388 0.944543
vn 0.000000 0.328388 0.944543
vn 0.000000 0.328388 0.944543
vn 0.000000 0.328388 0.944543
vn 0.000000 -0.355100 0.934828
vn 0.000000 -0.355100 0.934828
vn 0.000000 -0.355100 0.934828
vn 0.000000 -0.355100 0.934828
vn -1.000000 -0.000001 0.000000
vn -1.000000 -0.000001 0.000000
vn -1.000000 -0.000001 0.000000
vn -1.000000 -0.000001 0.000000
vn 1.000000 0.000000 -0.000000
vn 1.000000 0.000000 -0.000000
vn 1.000000 0.000000 -0.000000
vn 1.000000 0.000000 -0.000000
vn -0.010194 -0.328191 -0.944556
vn -0.010194 -0.328191 -0.944556
vn -0.010194 -0.328191 -0.944556
vn -0.010194 -0.328191 -0.944556
vn 0.012186 0.354906 -0.934823
vn 0.012186 0.354906 -0.934823
vn 0.012186 0.354906 -0.934823
vn 0.012186 0.354906 -0.934823
vn 0.010196 0.328262 0.944532
vn 0.010196 0.328262 0.944532
vn 0.010196 0.328262 0.944532
vn 0.010196 0.328262 0.944532
vn -0.012186 -0.354916 0.934819
vn -0.012186 -0.354916 0.934819
vn -0.012186 -0.354916 0.934819
vn -0.012186 -0.354916 0.934819
vn -0.999658 0.026138 -0.000482
vn -0.999658 0.026138 -0.000482
vn -0.999658 0.026138 -0.000482
vn -0.999658 0.026138 -0.000482
vn 0.999658 -0.026134 0.000482
vn 0.999658 -0.026134 0.000482
vn 0.999658 -0.026134 0.000482
vn 0.999658 -0.026134 0.000482
vn -0.000000 -0.328319 -0.944567
vn -0.000000 -0.328319 -0.944567
vn -0.000000 -0.328319 -0.944567
vn -0.000000 -0.328319 -0.944567
vn -0.000000 0.355090 -0.934832
vn -0.000000 0.355090 -0.934832
vn -0.000000 0.355090 -0.934832
vn -0.000000 0.355090 -0.934832
vn 0.000000 0.328388 0.944543
vn 0.000000 0.328388 0.944543
vn 0.000000 0.328388 0.944543
vn 0.000000 0.328388 0.944543
vn 0.000000 -0.355100 0.934828
vn 0.000000 -0.355100 0.934828
vn 0.000000 -0.355100 0.934828
vn 0.000000 -0.355100 0.934828
vn -1.000000 -0.000001 0.000000
vn -1.000000 -0.000001 0.000000
vn -1.000000 -0.000001 0.000000
vn -1.000000 -0.000001 0.000000
vn 1.000000 0.000000 -0.000000
vn 1.000000 0.000000 -0.000000
vn 1.000000 0.000000 -0.000000
vn 1.000000 0.000000 -0.000000
vn 0.015175 -0.172683 -0.984861
vn 0.015175 -0.172683 -0.984861
vn 0.015175 -0.172683 -0.984861
vn 0.015175 -0.172683 -0.984861
vn -0.004417 0.500183 -0.865909
vn -0.004417 0.500183 -0.865909
vn -0.004417 0.500183 -0.865909
vn -0.004417 0.500183 -0.865909
vn -0.015175 0.172685 0.984860
vn -0.015175 0.172685 0.984860
vn -0.015175 0.172685 0.984860
vn -0.015175 0.172685 0.984860
vn 0.004417 -0.500183 0.865909
vn 0.004417 -0.500183 0.865909
vn 0.004417 -0.500183 0.865909
vn 0.004417 -0.500183 0.865909
vn -0.999728 -0.021714 -0.008485
vn -0.999728 -0.021714 -0.008485
vn -0.999728 -0.021714 -0.008485
vn -0.999728 -0.021714 -0.008485
vn 0.999728 0.021722 0.008476
vn 0.999728 0.021722 0.008476
vn 0.999728 0.021722 0.008476
vn 0.999728 0.021722 0.008476
s off
f 1/1/1 2/2/2 4/4/3 3/3/4
f 3/3/5 4/4/6 6/6/7 5/5/8
f 5/5/9 6/6/10 8/8/11 7/7/12
f 7/7/13 8/8/14 2/10/15 1/9/16
f 2/2/17 8/11/18 6/12/19 4/4/20
f 7/13/21 1/1/22 3/3/23 5/14/24
f 9/15/25 10/16/26 12/17/27 11/18/28
f 11/18/29 12/17/30 14/19/31 13/20/32
f 13/20/33 14/19/34 16/21/35 15/22/36
f 37/23/37 38/24/38 39/25/39 40/26/40
f 10/16/41 16/27/42 14/28/43 12/17/44
f 15/29/45 9/15/46 11/18/47 13/30/48
f 17/31/49 18/32/50 20/33/51 19/34/52
f 19/34/53 20/33/54 22/35/55 21/36/56
f 21/36/57 22/35/58 24/37/59 23/38/60
f 23/38/61 24/37/62 18/39/63 17/40/64
f 18/32/65 24/41/66 22/42/67 20/33/68
f 23/43/69 17/31/70 19/34/71 21/44/72
f 15/22/73 16/21/74 26/45/75 25/46/76
f 16/21/77 10/47/78 27/48/79 26/45/80
f 10/47/81 9/49/82 28/50/83 27/48/84
f 9/49/85 15/22/86 25/46/87 28/50/88
f 25/46/89 26/45/90 30/51/91 29/52/92
f 26/45/93 27/48/94 31/53/95 30/51/96
f 27/48/97 28/50/98 32/54/99 31/53/100
f 28/50/101 25/46/102 29/52/103 32/54/104
f 29/55/105 30/56/106 34/57/107 33/58/108
f 30/56/109 31/59/110 35/60/111 34/57/112
f 31/59/113 32/61/114 36/62/115 35/60/116
f 32/61/117 29/55/118 33/58/119 36/62/120
f 33/58/121 34/57/122 38/24/123 37/23/124
f 34/57/125 35/60/126 39/25/127 38/24/128
f 35/60/129 36/62/130 40/26/131 39/25/132
f 36/62/133 33/58/134 37/23/135 40/26/136
f 41/63/137 42/64/138 44/65/139 43/66/140
f 43/66/141 44/65/142 46/67/143 45/68/144
f 45/68/145 46/67/146 48/69/147 47/70/148
f 47/70/149 48/69/150 42/71/151 41/72/152
f 42/64/153 48/73/154 46/74/155 44/65/156
f 47/75/157 41/63/158 43/66/159 45/76/160
f 49/77/161 50/78/162 52/79/163 51/80/164
f 51/81/165 52/82/166 54/83/167 53/84/168
f 53/85/169 54/86/170 56/87/171 55/88/172
f 55/89/173 56/90/174 50/91/175 49/92/176
f 50/93/177 56/94/178 54/95/179 52/96/180
f 55/97/181 49/98/182 51/99/183 53/100/184
f 57/101/185 58/102/186 60/103/187 59/104/188
f 59/104/189 60/103/190 62/105/191 61/106/192
f 61/106/193 62/105/194 64/107/195 63/108/196
f 63/108/197 64/107/198 58/109/199 57/110/200
f 58/102/201 64/111/202 62/112/203 60/103/204
f 63/113/205 57/101/206 59/104/207 61/114/208
f 65/115/209 66/116/210 68/117/211 67/118/212
f 67/118/213 68/117/214 70/119/215 69/120/216
f 69/120/217 70/119/218 72/121/219 71/122/220
f 71/122/221 72/121/222 66/123/223 65/124/224
f 66/116/225 72/125/226 70/126/227 68/117/228
f 71/127/229 65/115/230 67/118/231 69/128/232
f 73/129/233 74/130/234 76/131/235 75/132/236
f 75/133/237 76/134/238 78/135/239 77/136/240
f 77/137/241 78/138/242 80/139/243 79/140/244
f 79/141/245 80/142/246 74/143/247 73/144/248
f 74/145/249 80/146/250 78/147/251 76/148/252
f 79/149/253 73/150/254 75/151/255 77/152/256
f 81/153/257 82/154/258 84/155/259 83/156/260
f 83/157/261 84/158/262 86/159/263 85/160/264
f 85/161/265 86/162/266 88/163/267 87/164/268
f 87/165/269 88/166/270 82/167/271 81/168/272
f 82/169/273 88/170/274 86/171/275 84/172/276
f 87/173/277 81/174/278 83/175/279 85/176/280
f 89/177/281 90/178/282 92/179/283 91/180/284
f 91/181/285 92/182/286 94/183/287 93/184/288
f 93/185/289 94/186/290 96/187/291 95/188/292
f 95/189/293 96/190/294 90/191/295 89/192/296
f 90/193/297 96/194/298 94/195/299 92/196/300
f 95/197/301 89/198/302 91/199/303 93/200/304
