# This file uses centimeters as units for non-parametric coordinates.

v -54.648514 -39.700050 3.162079
v -47.091599 -39.700050 3.162079
v -54.648514 61.037312 -0.463409
v -47.091599 61.037312 3.162079
v -54.648514 61.037312 -8.245392
v -47.091599 61.037312 -8.245392
v -54.648514 -39.700050 -8.245392
v -47.091599 -39.700050 -5.024872
v -52.400131 61.037312 3.162079
v -54.648514 58.841114 3.162079
v -49.754715 -39.700050 -8.245392
v -47.091599 -32.283127 -8.245392
v -47.091599 -7.567310 3.162079
v -47.091599 6.698551 3.162079
v -49.103470 0.195713 2.886810
v -47.273026 0.692463 -0.495758
v -54.648514 38.497711 -8.245392
v -54.648514 21.606770 -8.245392
v -52.252731 27.542210 -7.970123
v -54.467087 29.885883 -3.628693
v -48.006821 15.833797 -6.865387
v -53.733292 22.192631 1.778717
v 53.645859 13.648510 5.650482
v 50.913162 13.914471 5.984039
v 49.805069 11.373539 6.165619
v 51.854324 9.537220 5.945282
v 54.227524 10.943203 5.624542
v 53.814468 13.583126 7.730255
v 51.081619 13.849087 8.064117
v 49.973526 11.308193 8.245392
v 52.021103 9.471874 8.025055
v 54.395981 10.877819 7.704315
v 52.257614 11.818027 7.953949
v 55.766373 -61.037323 -8.245392
v 48.209457 -61.037323 -8.245392
v 55.766373 61.037312 -4.623260
v 48.209457 61.037312 -8.245392
v 55.766373 61.037312 3.162079
v 48.209457 61.037312 3.162079
v 55.766373 -61.037323 3.162079
v 48.209457 -61.037323 -0.058136
v 53.519516 61.037312 -8.245392
v 55.766373 58.841114 -8.245392
v 50.872574 -61.037323 3.162079
v 48.209457 -53.620384 3.162079
v 48.209457 -7.567310 -8.245392
v 48.209457 6.698551 -8.245392
v 50.221329 0.195713 -7.970123
v 48.392410 0.692463 -4.587555
v 55.766373 38.497711 3.162079
v 55.766373 21.606770 3.162079
v 53.370438 27.542210 2.886810
v 55.584946 29.885883 -1.454620
v 49.124680 15.833797 1.778717
v 54.852676 22.192631 -6.865387
v -48.716354 23.348866 5.835114
v -51.418381 23.914585 5.835114
v -52.790451 21.519947 5.835114
v -50.937271 19.474277 5.835114
v -48.419876 20.604572 5.835114
v -48.716354 23.348866 7.931366
v -51.418381 23.914585 7.931366
v -52.790451 21.519947 7.931366
v -50.937271 19.474277 7.931366
v -48.419876 20.604572 7.931366
v -50.456161 21.772442 7.931366
v -60.123978 15.946636 2.322845
v 57.753983 5.519733 2.323151
v -60.123978 15.946636 6.486359
v 57.753983 5.519733 4.318695
v -59.691391 28.102283 6.486359
v 58.188248 17.675457 6.486359
v -59.691391 28.102283 2.322845
v 58.188248 17.675457 2.323151
v 45.105667 6.729183 6.486359
v 57.898178 9.561901 6.486359
v -49.231491 37.889801 5.835114
v -51.985397 38.059753 5.835114
v -52.999496 35.492115 5.835114
v -50.869217 33.735256 5.835114
v -48.541336 35.217190 5.835114
v -49.231491 37.889801 7.931366
v -51.985397 38.059753 7.931366
v -52.999496 35.492115 7.931366
v -50.869217 33.735256 7.931366
v -48.541336 35.217190 7.931366
v -50.725021 36.078857 7.931366
v -58.319321 28.858662 2.322845
v 60.123978 31.200809 2.323151
v -58.319321 28.858662 6.486359
v 60.123978 31.200809 6.486359
v -58.597946 41.877838 6.486359
v 59.847031 44.220032 4.821014
v -58.597946 41.877838 2.322845
v 59.847031 44.220032 2.323151
v 43.681717 43.874603 6.486359
v 59.979782 37.970261 6.486359
v -21.864395 29.637470 6.486359
v -34.669876 29.363880 5.216217
v -52.029037 28.993053 6.486359
v -35.706711 31.987820 6.486359
v 53.603745 39.412704 5.650482
v 50.859604 39.281448 5.984039
v 50.130692 36.607224 6.165619
v 52.422867 35.085773 5.945282
v 54.569321 36.819672 5.624542
v 53.778763 39.372314 7.730255
v 51.036148 39.241013 8.064117
v 50.305557 36.566788 8.245392
v 52.597733 35.045376 8.025055
v 54.744186 36.779190 7.704315
v 52.492447 37.400955 7.953949
vt 0.058530 0.031257
vt 0.058530 0.031257
vt 0.058530 0.057564
vt 0.058530 0.057564
vt 0.058530 0.057564
vt 0.058530 0.035642
vt 0.058530 0.035642
vt 0.058530 0.057564
vt 0.058530 0.057564
vt 0.058530 0.057564
vt 0.058530 0.031257
vt 0.058530 0.031257
vt 0.058530 0.031257
vt 0.058530 0.031257
vt 0.058530 0.031257
vt 0.058530 0.057564
vt 0.058530 0.057564
vt 0.058530 0.035642
vt 0.058530 0.035642
vt 0.058530 0.057564
vt 0.058530 0.031257
vt 0.058530 0.057564
vt 0.058530 0.057564
vt 0.058530 0.035642
vt 0.058530 0.035642
vt 0.058530 0.035642
vt 0.058530 0.031257
vt 0.058530 0.057564
vt 0.058530 0.057564
vt 0.058530 0.031257
vt 0.058530 0.031257
vt 0.058530 0.057564
vt 0.058530 0.035642
vt 0.098813 0.011779
vt 0.098813 0.011779
vt 0.098813 0.011779
vt 0.098813 0.011779
vt 0.098813 0.011779
vt 0.098813 0.011779
vt 0.098813 0.011779
vt 0.098813 0.011779
vt 0.098813 0.011779
vt 0.098813 0.011779
vt 0.098813 0.011779
vt 0.098813 0.011779
vt 0.098813 0.011779
vt 0.098813 0.011779
vt 0.098813 0.011779
vt 0.098813 0.011779
vt 0.098813 0.011779
vt 0.098813 0.011779
vt 0.058530 0.031257
vt 0.058530 0.031257
vt 0.058530 0.057564
vt 0.058530 0.057564
vt 0.058530 0.057564
vt 0.058530 0.035642
vt 0.058530 0.035642
vt 0.058530 0.057564
vt 0.058530 0.057564
vt 0.058530 0.057564
vt 0.058530 0.031257
vt 0.058530 0.031257
vt 0.058530 0.031257
vt 0.058530 0.031257
vt 0.058530 0.031257
vt 0.058530 0.057564
vt 0.058530 0.057564
vt 0.058530 0.035642
vt 0.058530 0.035642
vt 0.058530 0.057564
vt 0.058530 0.031257
vt 0.058530 0.057564
vt 0.058530 0.057564
vt 0.058530 0.035642
vt 0.058530 0.035642
vt 0.058530 0.035642
vt 0.058530 0.031257
vt 0.058530 0.057564
vt 0.058530 0.057564
vt 0.058530 0.031257
vt 0.058530 0.031257
vt 0.058530 0.057564
vt 0.058530 0.035642
vt 0.098813 0.011779
vt 0.098813 0.011779
vt 0.098813 0.011779
vt 0.098813 0.011779
vt 0.098813 0.011779
vt 0.098813 0.011779
vt 0.098813 0.011779
vt 0.098813 0.011779
vt 0.098813 0.011779
vt 0.098813 0.011779
vt 0.098813 0.011779
vt 0.098813 0.011779
vt 0.098813 0.011779
vt 0.098813 0.011779
vt 0.098813 0.011779
vt 0.098813 0.011779
vt 0.098813 0.011779
vt 0.098813 0.011779
vt 0.047394 0.091255
vt 0.047394 0.049809
vt 0.047394 0.049809
vt 0.047394 0.049809
vt 0.047394 0.091255
vt 0.047394 0.049809
vt 0.047394 0.091255
vt 0.047394 0.091255
vt 0.047394 0.091255
vt 0.047394 0.091255
vt 0.047394 0.049809
vt 0.047394 0.091255
vt 0.047394 0.091255
vt 0.047394 0.091255
vt 0.047394 0.049809
vt 0.047394 0.091255
vt 0.047394 0.091255
vt 0.098813 0.011779
vt 0.098813 0.011779
vt 0.098813 0.011779
vt 0.098813 0.011779
vt 0.098813 0.011779
vt 0.098813 0.011779
vt 0.098813 0.011779
vt 0.098813 0.011779
vt 0.098813 0.011779
vt 0.098813 0.011779
vt 0.098813 0.011779
vt 0.098813 0.011779
vt 0.098813 0.011779
vt 0.098813 0.011779
vt 0.098813 0.011779
vt 0.098813 0.011779
vt 0.098813 0.011779
vt 0.098813 0.011779
vt 0.047394 0.091255
vt 0.047394 0.091255
vt 0.047394 0.091255
vt 0.047394 0.055461
vt 0.047394 0.091255
vt 0.047394 0.091255
vt 0.047394 0.064665
vt 0.047394 0.055461
vt 0.047394 0.064665
vt 0.047394 0.055461
vt 0.047394 0.055461
vt 0.047394 0.055461
vt 0.047394 0.055461
vt 0.047394 0.055461
vt 0.047394 0.091255
vt 0.047394 0.091255
vt 0.047394 0.091255
vt 0.047394 0.091255
vt 0.047394 0.091255
vt 0.047394 0.055461
vt 0.047394 0.055461
vt 0.098813 0.011779
vt 0.098813 0.011779
vt 0.098813 0.011779
vt 0.098813 0.011779
vt 0.098813 0.011779
vt 0.098813 0.011779
vt 0.098813 0.011779
vt 0.098813 0.011779
vt 0.098813 0.011779
vt 0.098813 0.011779
vt 0.098813 0.011779
vt 0.098813 0.011779
vt 0.098813 0.011779
vt 0.098813 0.011779
vt 0.098813 0.011779
vt 0.098813 0.011779
vt 0.098813 0.011779
vt 0.098813 0.011779
vn -0.058544 0.019724 0.998090
vn -0.058544 0.019724 0.998090
vn -0.058544 0.019724 0.998090
vn -0.058544 0.019724 0.998090
vn -0.058544 0.019724 0.998090
vn 0.078291 -0.017493 -0.996777
vn 0.078291 -0.017493 -0.996777
vn 0.078291 -0.017493 -0.996777
vn 0.078291 -0.017493 -0.996777
vn 0.078291 -0.017493 -0.996777
vn 0.000000 -1.000000 0.000000
vn 0.000000 -1.000000 0.000000
vn 0.000000 -1.000000 0.000000
vn 0.000000 -1.000000 0.000000
vn 0.000000 -1.000000 0.000000
vn 0.998759 -0.007709 -0.049204
vn 0.998759 -0.007709 -0.049204
vn 0.998759 -0.007709 -0.049204
vn 0.998759 -0.007709 -0.049204
vn 0.998759 -0.007709 -0.049204
vn -0.998915 0.007231 0.046010
vn -0.998915 0.007231 0.046010
vn -0.998915 0.007231 0.046010
vn -0.998915 0.007231 0.046010
vn -0.998915 0.007231 0.046010
vn -0.641167 0.656272 0.397759
vn -0.641167 0.656272 0.397759
vn -0.641167 0.656272 0.397759
vn 0.000000 1.000000 0.000000
vn 0.000000 1.000000 0.000000
vn 0.000000 1.000000 0.000000
vn 0.000000 1.000000 0.000000
vn 0.000000 1.000000 0.000000
vn 0.742760 -0.266525 -0.614225
vn 0.742760 -0.266525 -0.614225
vn 0.742760 -0.266525 -0.614225
vn 0.840055 0.235008 0.488957
vn 0.840055 0.235008 0.488957
vn 0.840055 0.235008 0.488957
vn 0.860237 -0.283940 0.423521
vn 0.860237 -0.283940 0.423521
vn 0.860237 -0.283940 0.423521
vn -0.755992 0.331358 -0.564516
vn -0.755992 0.331358 -0.564516
vn -0.755992 0.331358 -0.564516
vn -0.912163 -0.208405 -0.352884
vn -0.912163 -0.208405 -0.352884
vn -0.912163 -0.208405 -0.352884
vn 0.999689 0.013756 -0.020780
vn 0.999689 0.013756 -0.020780
vn 0.999689 0.013756 -0.020780
vn 0.999689 0.013756 -0.020780
vn 0.999689 0.013756 -0.020780
vn 0.999689 0.013756 -0.020780
vn 0.096654 0.013213 -0.995230
vn 0.096655 0.013213 -0.995230
vn 0.096655 0.013213 -0.995230
vn 0.096654 0.013213 -0.995230
vn 0.096654 0.013213 -0.995230
vn 0.096655 0.013213 -0.995230
vn -0.116628 -0.012963 0.993091
vn -0.116628 -0.012963 0.993091
vn -0.116628 -0.012963 0.993091
vn -0.116628 -0.012963 0.993091
vn -0.116628 -0.012963 0.993091
vn -0.116628 -0.012963 0.993091
vn -0.999323 -0.011887 0.034815
vn -0.999323 -0.011887 0.034815
vn -0.999323 -0.011887 0.034815
vn -0.999323 -0.011887 0.034815
vn -0.999323 -0.011887 0.034815
vn -0.999323 -0.011887 0.034815
vn 0.099650 0.994752 0.023219
vn 0.099650 0.994752 0.023219
vn 0.099650 0.994752 0.023219
vn 0.099650 0.994752 0.023219
vn -0.910924 0.403444 0.086316
vn -0.910924 0.403444 0.086316
vn -0.910924 0.403444 0.086316
vn -0.910924 0.403444 0.086316
vn -0.665174 -0.746072 0.030348
vn -0.665173 -0.746072 0.030348
vn -0.665173 -0.746072 0.030348
vn -0.665173 -0.746072 0.030348
vn 0.501709 -0.862386 -0.067662
vn 0.501709 -0.862386 -0.067662
vn 0.501709 -0.862386 -0.067662
vn 0.501709 -0.862386 -0.067662
vn 0.974979 0.210232 -0.072233
vn 0.974979 0.210232 -0.072233
vn 0.974979 0.210233 -0.072233
vn 0.974979 0.210233 -0.072233
vn 0.123274 0.017740 0.992214
vn 0.123274 0.017664 0.992216
vn 0.123114 0.017745 0.992234
vn 0.123274 0.017664 0.992216
vn 0.123113 0.017726 0.992234
vn 0.123114 0.017745 0.992234
vn 0.123113 0.017726 0.992234
vn 0.122793 0.017805 0.992273
vn 0.123114 0.017745 0.992234
vn 0.122793 0.017805 0.992273
vn 0.123115 0.017794 0.992233
vn 0.123114 0.017745 0.992234
vn 0.123115 0.017794 0.992233
vn 0.123274 0.017740 0.992214
vn 0.123114 0.017745 0.992234
vn 0.058543 0.019730 -0.998090
vn 0.058543 0.019730 -0.998090
vn 0.058543 0.019730 -0.998090
vn 0.058543 0.019730 -0.998090
vn 0.058543 0.019730 -0.998090
vn -0.078290 -0.017488 0.996777
vn -0.078290 -0.017488 0.996777
vn -0.078290 -0.017488 0.996777
vn -0.078290 -0.017488 0.996777
vn -0.078290 -0.017488 0.996777
vn 0.000000 -1.000000 0.000000
vn 0.000000 -1.000000 0.000000
vn 0.000000 -1.000000 0.000000
vn 0.000000 -1.000000 0.000000
vn 0.000000 -1.000000 0.000000
vn -0.998758 -0.007712 0.049217
vn -0.998758 -0.007712 0.049217
vn -0.998758 -0.007712 0.049217
vn -0.998758 -0.007712 0.049217
vn -0.998758 -0.007712 0.049217
vn 0.998915 0.007237 -0.046012
vn 0.998915 0.007237 -0.046012
vn 0.998915 0.007237 -0.046012
vn 0.998915 0.007237 -0.046012
vn 0.998915 0.007237 -0.046012
vn 0.641249 0.656213 -0.397724
vn 0.641249 0.656213 -0.397724
vn 0.641249 0.656213 -0.397724
vn 0.000000 1.000000 0.000000
vn 0.000000 1.000000 0.000000
vn 0.000000 1.000000 0.000000
vn 0.000000 1.000000 0.000000
vn 0.000000 1.000000 0.000000
vn -0.742636 -0.266611 0.614337
vn -0.742636 -0.266611 0.614337
vn -0.742636 -0.266611 0.614337
vn -0.840054 0.235007 -0.488959
vn -0.840054 0.235007 -0.488959
vn -0.840054 0.235007 -0.488959
vn -0.860169 -0.284005 -0.423616
vn -0.860169 -0.284005 -0.423616
vn -0.860169 -0.284005 -0.423616
vn 0.756097 0.331297 0.564410
vn 0.756097 0.331297 0.564410
vn 0.756097 0.331297 0.564410
vn 0.912197 -0.208373 0.352813
vn 0.912197 -0.208373 0.352813
vn 0.912197 -0.208373 0.352813
vn -0.999689 0.013762 0.020779
vn -0.999689 0.013762 0.020779
vn -0.999689 0.013762 0.020779
vn -0.999689 0.013762 0.020779
vn -0.999689 0.013762 0.020779
vn -0.999689 0.013762 0.020779
vn -0.096513 0.013210 0.995244
vn -0.096513 0.013210 0.995244
vn -0.096513 0.013210 0.995244
vn -0.096513 0.013210 0.995244
vn -0.096513 0.013210 0.995244
vn -0.096513 0.013210 0.995244
vn 0.116551 -0.012967 -0.993100
vn 0.116551 -0.012967 -0.993100
vn 0.116551 -0.012967 -0.993100
vn 0.116551 -0.012967 -0.993100
vn 0.116551 -0.012967 -0.993100
vn 0.116551 -0.012967 -0.993100
vn 0.999323 -0.011890 -0.034813
vn 0.999323 -0.011890 -0.034813
vn 0.999323 -0.011890 -0.034813
vn 0.999323 -0.011890 -0.034813
vn 0.999323 -0.011890 -0.034813
vn 0.999323 -0.011890 -0.034813
vn 0.204918 0.978779 0.000000
vn 0.204918 0.978779 0.000000
vn 0.204918 0.978779 0.000000
vn 0.204918 0.978779 0.000000
vn -0.867589 0.497282 -0.000000
vn -0.867589 0.497282 -0.000000
vn -0.867589 0.497282 -0.000000
vn -0.867589 0.497282 -0.000000
vn -0.741179 -0.671308 -0.000000
vn -0.741179 -0.671308 -0.000000
vn -0.741179 -0.671308 -0.000000
vn -0.741179 -0.671308 -0.000000
vn 0.409463 -0.912327 0.000000
vn 0.409463 -0.912327 0.000000
vn 0.409463 -0.912327 0.000000
vn 0.409463 -0.912327 0.000000
vn 0.994196 0.107587 0.000000
vn 0.994196 0.107587 0.000000
vn 0.994196 0.107587 0.000000
vn 0.994196 0.107587 0.000000
vn -0.000000 0.000000 1.000000
vn -0.000000 0.000000 1.000000
vn -0.000016 0.000000 1.000000
vn -0.000000 0.000000 1.000000
vn -0.000041 0.000000 1.000000
vn -0.000016 0.000000 1.000000
vn -0.000041 0.000000 1.000000
vn -0.000041 0.000000 1.000000
vn -0.000016 0.000000 1.000000
vn -0.000041 0.000000 1.000000
vn -0.000000 0.000000 1.000000
vn -0.000016 0.000000 1.000000
vn -0.000000 0.000000 1.000000
vn -0.000000 0.000000 1.000000
vn -0.000016 0.000000 1.000000
vn 0.000000 -1.000000 -0.000000
vn 0.000000 -1.000000 -0.000000
vn -0.050239 -0.996390 0.068439
vn -0.050239 -0.996390 0.068439
vn 0.000000 -1.000000 -0.000000
vn -0.000000 -0.000000 1.000000
vn 0.000158 -0.000711 1.000000
vn 0.000938 -0.004234 0.999991
vn -0.000000 -0.000000 1.000000
vn -0.000000 -0.000000 1.000000
vn -0.000000 1.000000 0.000000
vn -0.000000 1.000000 0.000000
vn -0.000000 1.000000 0.000000
vn -0.000000 1.000000 0.000000
vn 0.000000 0.000000 -1.000000
vn 0.000000 0.000000 -1.000000
vn 0.000000 0.000000 -1.000000
vn 0.000000 0.000000 -1.000000
vn 1.000000 0.000000 0.000000
vn 1.000000 0.000000 0.000000
vn 1.000000 0.000000 0.000000
vn 0.999366 -0.035607 0.000018
vn 0.999366 -0.035607 0.000018
vn -1.000000 0.000000 -0.000000
vn -1.000000 0.000000 -0.000000
vn -1.000000 0.000000 -0.000000
vn -1.000000 0.000000 -0.000000
vn 0.000938 -0.004234 0.999991
vn 0.000158 -0.000711 1.000000
vn -0.000000 -0.000000 1.000000
vn 0.061551 0.998104 0.000000
vn 0.061551 0.998104 0.000000
vn 0.061551 0.998104 0.000000
vn 0.061551 0.998104 0.000000
vn -0.930238 0.366957 -0.000000
vn -0.930238 0.366957 -0.000000
vn -0.930238 0.366957 -0.000000
vn -0.930238 0.366957 -0.000000
vn -0.636467 -0.771304 -0.000000
vn -0.636467 -0.771304 -0.000000
vn -0.636467 -0.771304 -0.000000
vn -0.636467 -0.771304 -0.000000
vn 0.536856 -0.843674 0.000000
vn 0.536856 -0.843674 0.000000
vn 0.536856 -0.843674 0.000000
vn 0.536856 -0.843674 0.000000
vn 0.968290 0.249831 0.000000
vn 0.968290 0.249831 0.000000
vn 0.968290 0.249831 0.000000
vn 0.968290 0.249831 0.000000
vn -0.000082 0.000000 1.000000
vn -0.000000 0.000000 1.000000
vn -0.000098 0.000000 1.000000
vn -0.000000 0.000000 1.000000
vn -0.000000 0.000000 1.000000
vn -0.000098 0.000000 1.000000
vn -0.000000 0.000000 1.000000
vn -0.000164 0.000000 1.000000
vn -0.000098 0.000000 1.000000
vn -0.000164 0.000000 1.000000
vn -0.000246 0.000000 1.000000
vn -0.000098 0.000000 1.000000
vn -0.000246 0.000000 1.000000
vn -0.000082 0.000000 1.000000
vn -0.000098 0.000000 1.000000
vn 0.000475 0.001325 0.999999
vn 0.002131 0.005897 0.999980
vn -0.000000 -0.000000 1.000000
vn 0.000000 0.000000 -1.000000
vn 0.000000 0.000000 -1.000000
vn 0.000000 0.000000 -1.000000
vn 0.000000 0.000000 -1.000000
vn -1.000000 0.000000 -0.000000
vn -1.000000 0.000000 -0.000000
vn -1.000000 0.000000 -0.000000
vn -1.000000 0.000000 -0.000000
vn -0.006723 -0.437272 0.899304
vn 0.000567 -0.009104 0.999958
vn 0.000711 -0.003879 0.999992
vn 1.000000 0.000000 0.000000
vn 1.000000 0.000000 0.000000
vn 0.999772 0.021361 -0.000005
vn 0.999772 0.021361 -0.000005
vn 1.000000 0.000000 0.000000
vn -0.000000 1.000000 0.000000
vn -0.011297 0.999745 0.019545
vn -0.011297 0.999745 0.019545
vn -0.000000 1.000000 0.000000
vn -0.000000 1.000000 0.000000
vn 0.000475 0.001325 0.999999
vn 0.000567 -0.009104 0.999958
vn -0.000081 -0.000448 1.000000
vn -0.000000 -0.000000 1.000000
vn 0.002131 0.005897 0.999980
vn 0.000000 -1.000000 -0.000000
vn 0.000000 -1.000000 -0.000000
vn 0.011445 -0.996988 0.076708
vn -0.000081 -0.000448 1.000000
vn 0.000567 -0.009104 0.999958
vn -0.006723 -0.437272 0.899304
vn -0.000000 -0.000000 1.000000
vn 0.000711 -0.003879 0.999992
vn 0.000567 -0.009104 0.999958
vn -0.000000 -0.000000 1.000000
vn -0.000000 -0.000000 1.000000
vn 0.000567 -0.009104 0.999958
vn 0.000475 0.001325 0.999999
vn 0.011445 -0.996988 0.076708
vn 0.000000 -1.000000 -0.000000
vn 0.000000 -1.000000 -0.000000
vn 0.009969 -0.999590 0.026855
vn 0.000000 -1.000000 -0.000000
vn 0.011445 -0.996988 0.076708
vn 0.021359 -0.999772 0.000002
vn 0.000000 -1.000000 -0.000000
vn -0.044970 0.998719 0.023218
vn -0.044970 0.998719 0.023218
vn -0.044970 0.998719 0.023218
vn -0.044970 0.998719 0.023218
vn -0.959619 0.267735 0.086310
vn -0.959619 0.267735 0.086310
vn -0.959619 0.267735 0.086310
vn -0.959619 0.267735 0.086310
vn -0.550619 -0.834206 0.030328
vn -0.550619 -0.834206 0.030328
vn -0.550619 -0.834206 0.030328
vn -0.550619 -0.834206 0.030328
vn 0.620893 -0.780971 -0.067649
vn 0.620893 -0.780971 -0.067649
vn 0.620893 -0.780971 -0.067649
vn 0.620893 -0.780971 -0.067649
vn 0.934406 0.348816 -0.072207
vn 0.934406 0.348816 -0.072207
vn 0.934406 0.348815 -0.072207
vn 0.934406 0.348815 -0.072207
vn 0.119248 0.035339 0.992236
vn 0.119367 0.035277 0.992223
vn 0.119322 0.035337 0.992227
vn 0.119367 0.035277 0.992223
vn 0.119448 0.035318 0.992212
vn 0.119322 0.035337 0.992227
vn 0.119448 0.035318 0.992212
vn 0.119128 0.035375 0.992248
vn 0.119322 0.035337 0.992227
vn 0.119128 0.035375 0.992248
vn 0.119410 0.035374 0.992215
vn 0.119322 0.035337 0.992227
vn 0.119410 0.035374 0.992215
vn 0.119248 0.035339 0.992236
vn 0.119322 0.035337 0.992227
s off
f 1/1/1 2/2/2 13/3/3 15/4/4 22/5/5
f 5/6/6 6/7/7 21/8/8 19/9/9 17/10/10
f 7/11/11 11/12/12 8/13/13 2/14/14 1/15/15
f 16/16/16 21/17/17 6/18/18 4/19/19 14/20/20
f 7/21/21 1/1/22 22/5/23 20/22/24 18/23/25
f 10/24/26 9/25/27 3/26/28
f 3/26/29 9/25/30 4/19/31 6/7/32 5/6/33
f 11/12/34 12/27/35 8/13/36
f 16/16/37 15/4/38 13/3/39
f 14/20/40 15/4/41 16/16/42
f 18/23/43 20/22/44 19/28/45
f 19/28/46 20/22/47 17/29/48
f 2/2/49 8/30/50 12/31/51 21/17/52 16/16/53 13/3/54
f 19/9/55 21/8/56 12/27/57 11/12/58 7/11/59 18/32/60
f 22/5/61 15/4/62 14/20/63 4/19/64 9/25/65 10/24/66
f 20/22/67 22/5/68 10/24/69 3/26/70 5/33/71 17/29/72
f 23/34/73 24/35/74 29/36/75 28/37/76
f 24/35/77 25/38/78 30/39/79 29/36/80
f 25/38/81 26/40/82 31/41/83 30/39/84
f 26/40/85 27/42/86 32/43/87 31/41/88
f 27/42/89 23/44/90 28/45/91 32/43/92
f 28/46/93 29/47/94 33/48/95
f 29/47/96 30/49/97 33/48/98
f 30/49/99 31/50/100 33/48/101
f 31/50/102 32/51/103 33/48/104
f 32/51/105 28/46/106 33/48/107
f 34/52/108 35/53/109 46/54/110 48/55/111 55/56/112
f 38/57/113 39/58/114 54/59/115 52/60/116 50/61/117
f 40/62/118 44/63/119 41/64/120 35/65/121 34/66/122
f 49/67/123 54/68/124 39/69/125 37/70/126 47/71/127
f 40/72/128 34/52/129 55/56/130 53/73/131 51/74/132
f 43/75/133 42/76/134 36/77/135
f 36/77/136 42/76/137 37/70/138 39/58/139 38/57/140
f 44/63/141 45/78/142 41/64/143
f 49/67/144 48/55/145 46/54/146
f 47/71/147 48/55/148 49/67/149
f 51/74/150 53/73/151 52/79/152
f 52/79/153 53/73/154 50/80/155
f 35/53/156 41/81/157 45/82/158 54/68/159 49/67/160 46/54/161
f 52/60/162 54/59/163 45/78/164 44/63/165 40/62/166 51/83/167
f 55/56/168 48/55/169 47/71/170 37/70/171 42/76/172 43/75/173
f 53/73/174 55/56/175 43/75/176 36/77/177 38/84/178 50/80/179
f 56/85/180 57/86/181 62/87/182 61/88/183
f 57/86/184 58/89/185 63/90/186 62/87/187
f 58/89/188 59/91/189 64/92/190 63/90/191
f 59/91/192 60/93/193 65/94/194 64/92/195
f 60/93/196 56/95/197 61/96/198 65/94/199
f 61/97/200 62/98/201 66/99/202
f 62/98/203 63/100/204 66/99/205
f 63/100/206 64/101/207 66/99/208
f 64/101/209 65/102/210 66/99/211
f 65/102/212 61/97/213 66/99/214
f 67/103/215 68/104/216 70/105/217 75/106/218 69/107/219
f 69/107/220 75/106/221 76/108/222 72/109/223 71/110/224
f 71/110/225 72/109/226 74/111/227 73/112/228
f 73/112/229 74/111/230 68/113/231 67/114/232
f 68/104/233 74/115/234 72/116/235 76/117/236 70/105/237
f 73/118/238 67/103/239 69/107/240 71/119/241
f 76/108/242 75/106/243 70/105/244
f 77/120/245 78/121/246 83/122/247 82/123/248
f 78/121/249 79/124/250 84/125/251 83/122/252
f 79/124/253 80/126/254 85/127/255 84/125/256
f 80/126/257 81/128/258 86/129/259 85/127/260
f 81/128/261 77/130/262 82/131/263 86/129/264
f 82/132/265 83/133/266 87/134/267
f 83/133/268 84/135/269 87/134/270
f 84/135/271 85/136/272 87/134/273
f 85/136/274 86/137/275 87/134/276
f 86/137/277 82/132/278 87/134/279
f 96/138/280 97/139/281 93/140/282
f 94/141/283 95/142/284 89/143/285 88/144/286
f 94/145/287 88/146/288 90/147/289 92/148/290
f 99/149/291 101/150/292 100/151/293
f 89/152/294 95/153/295 93/154/296 97/155/297 91/156/298
f 92/157/299 96/138/300 93/140/301 95/142/302 94/141/303
f 96/138/304 101/150/305 98/158/306 91/156/307 97/139/308
f 88/146/309 89/152/310 99/149/311
f 98/158/312 101/150/313 99/149/314
f 90/147/315 100/151/316 101/150/317 92/157/318
f 92/157/319 101/150/320 96/138/321
f 99/149/322 89/152/323 91/156/324 98/158/325
f 88/146/326 99/149/327 100/151/328 90/147/329
f 102/159/330 103/160/331 108/161/332 107/162/333
f 103/160/334 104/163/335 109/164/336 108/161/337
f 104/163/338 105/165/339 110/166/340 109/164/341
f 105/165/342 106/167/343 111/168/344 110/166/345
f 106/167/346 102/169/347 107/170/348 111/168/349
f 107/171/350 108/172/351 112/173/352
f 108/172/353 109/174/354 112/173/355
f 109/174/356 110/175/357 112/173/358
f 110/175/359 111/176/360 112/173/361
f 111/176/362 107/171/363 112/173/364
