# This file uses centimeters as units for non-parametric coordinates.

v 3.080578 -2.926835 1.994781
v 4.830437 -2.926835 2.063904
v 3.080578 0.427313 1.994781
v 3.149586 0.427313 0.244598
v 3.149586 -2.926835 0.244598
v 4.899693 -2.926835 0.313873
v 4.830437 2.430954 2.063904
v 4.899693 2.430954 0.313873
v -12.091198 0.427313 1.620178
v -12.022171 0.427313 -0.130157
v -12.091198 2.430954 1.620178
v -12.022171 2.430954 -0.130157
v -12.011223 -1.856060 2.804108
v -7.973747 -1.856060 3.042755
v -11.754704 4.922504 2.129517
v -7.717285 4.922504 2.368317
v -10.403080 4.517632 -1.425018
v -7.394505 4.517632 0.392914
v -10.659599 -2.260933 -0.750275
v -7.650986 -2.260933 1.067505
v 10.821514 5.109987 -2.793121
v 5.222168 8.351526 -2.794037
v -1.027718 6.687117 -2.624512
v -4.266987 1.091738 -2.383881
v -2.598343 -5.156869 -2.212830
v 3.001003 -8.398391 -2.211914
v 9.250870 -6.733979 -2.381287
v 12.490158 -1.138582 -2.622070
v 10.848179 5.156908 -1.342621
v 5.249119 8.398390 -1.343536
v -1.000824 6.733980 -1.173859
v -4.240093 1.138639 -0.933228
v -2.571392 -5.110007 -0.762329
v 3.027897 -8.351487 -0.761108
v 9.277840 -6.687079 -0.930634
v 12.517109 -1.091719 -1.171417
v 9.953117 4.445810 -2.755432
v 5.078564 7.267885 -2.756500
v -0.362778 5.818777 -2.608795
v -3.182774 0.947466 -2.399139
v -1.729946 -4.492637 -2.250366
v 3.144894 -7.314712 -2.249298
v 8.585949 -5.865661 -2.397156
v 11.405945 -0.994310 -2.606812
v 9.362335 4.004126 -2.151489
v 4.989548 6.535521 -2.152252
v 4.104042 -0.036745 -2.915497
v 0.109005 5.235739 -2.019806
v -2.420654 0.866098 -1.831818
v -1.117496 -4.013625 -1.698151
v 3.255005 -6.545037 -1.697540
v 8.135834 -5.245255 -1.829987
v 10.665493 -0.875635 -2.017975
v 9.706821 4.300241 -0.305634
v 5.042152 7.000837 -0.306396
v 3.851528 0.023451 0.845642
v -0.164928 5.614195 -0.165100
v -2.863617 0.952539 0.035553
v -1.473408 -4.253379 0.177917
v 3.191605 -6.953956 0.178833
v 8.398342 -5.567292 0.037537
v 11.097317 -0.905638 -0.162964
vt 0.665207 0.135097
vt 0.665207 0.127173
vt 0.664427 0.135097
vt 0.664427 0.122439
vt 0.672258 0.122439
vt 0.672258 0.127173
vt 0.666749 0.135097
vt 0.667529 0.135097
vt 0.667529 0.127173
vt 0.666749 0.122439
vt 0.674580 0.127173
vt 0.674580 0.122439
vt 0.676088 0.132567
vt 0.674394 0.132567
vt 0.673384 0.116553
vt 0.675079 0.116553
vt 0.670642 0.117509
vt 0.669761 0.117509
vt 0.671651 0.133524
vt 0.670770 0.133524
vt 0.657423 0.116110
vt 0.660205 0.108451
vt 0.662087 0.108341
vt 0.659305 0.115999
vt 0.663533 0.112384
vt 0.665416 0.112273
vt 0.665457 0.125603
vt 0.667341 0.125492
vt 0.664852 0.140366
vt 0.666734 0.140255
vt 0.662069 0.148024
vt 0.663952 0.147913
vt 0.658742 0.144092
vt 0.660624 0.143981
vt 0.656817 0.130872
vt 0.658700 0.130761
vt 0.661159 0.112742
vt 0.658987 0.118722
vt 0.660602 0.128269
vt 0.663758 0.115813
vt 0.665261 0.126136
vt 0.664788 0.137665
vt 0.662616 0.143645
vt 0.660017 0.140575
vt 0.658513 0.130251
vt 0.661228 0.118023
vt 0.663546 0.111642
vt 0.665643 0.128127
vt 0.666319 0.114919
vt 0.667922 0.125932
vt 0.667418 0.138231
vt 0.665100 0.144611
vt 0.662327 0.141335
vt 0.660724 0.130322
vt 0.657903 0.117679
vt 0.660325 0.111012
vt 0.663223 0.114435
vt 0.664899 0.125944
vt 0.664371 0.138796
vt 0.661949 0.145464
vt 0.659051 0.142040
vt 0.657376 0.130531
vn 0.039552 0.000000 -0.999218
vn 0.029023 0.008680 -0.999541
vn 0.039552 0.000000 -0.999218
vn 0.039552 0.000000 -0.999218
vn 0.029023 0.008680 -0.999541
vn 0.028749 0.009448 -0.999542
vn 0.028749 0.009448 -0.999542
vn 0.029023 0.008680 -0.999541
vn 0.024835 0.001076 -0.999691
vn 0.029023 0.008680 -0.999541
vn 0.024693 0.000000 -0.999695
vn 0.024835 0.001076 -0.999691
vn 0.000000 -1.000000 -0.000000
vn 0.000000 -1.000000 -0.000000
vn 0.000000 -1.000000 -0.000000
vn 0.000000 -1.000000 -0.000000
vn -0.999224 0.000000 -0.039398
vn -0.999224 0.000000 -0.039398
vn -0.999224 0.000000 -0.039398
vn -0.999224 0.000000 -0.039398
vn 0.999218 0.000000 0.039543
vn 0.999218 0.000000 0.039543
vn 0.999218 0.000000 0.039543
vn 0.999218 0.000000 0.039543
vn -0.999223 0.000000 -0.039406
vn -0.999223 0.000000 -0.039406
vn -0.999223 0.000000 -0.039406
vn -0.999223 0.000000 -0.039406
vn 0.000000 -1.000000 0.000000
vn 0.000000 -1.000000 0.000000
vn 0.000000 -1.000000 0.000000
vn 0.000000 -1.000000 0.000000
vn -0.026213 0.000000 0.999656
vn -0.026110 -0.000876 0.999659
vn -0.027880 -0.008734 0.999573
vn -0.026110 -0.000876 0.999659
vn -0.028116 -0.009928 0.999555
vn -0.027880 -0.008734 0.999573
vn -0.027880 -0.008734 0.999573
vn -0.028116 -0.009928 0.999555
vn -0.039471 0.000000 0.999221
vn -0.028116 -0.009928 0.999555
vn -0.039471 0.000000 0.999221
vn -0.039471 0.000000 0.999221
vn 0.000000 1.000000 0.000000
vn 0.000000 1.000000 0.000000
vn 0.000000 1.000000 0.000000
vn 0.000000 1.000000 0.000000
vn -0.058722 0.101047 0.993147
vn -0.058722 0.101047 0.993147
vn -0.058722 0.101047 0.993147
vn -0.058722 0.101047 0.993147
vn 0.038892 0.990321 -0.133236
vn 0.038892 0.990321 -0.133236
vn 0.038892 0.990321 -0.133236
vn 0.038892 0.990321 -0.133236
vn 0.514335 -0.104186 -0.851237
vn 0.514335 -0.104186 -0.851237
vn 0.514335 -0.104186 -0.851237
vn 0.514335 -0.104186 -0.851237
vn -0.038888 -0.990320 0.133245
vn -0.038888 -0.990320 0.133245
vn -0.038888 -0.990320 0.133245
vn -0.038888 -0.990320 0.133245
vn 0.986008 -0.020849 0.165388
vn 0.986008 -0.020849 0.165388
vn 0.986008 -0.020849 0.165388
vn 0.986008 -0.020849 0.165388
vn -0.934703 -0.000004 -0.355431
vn -0.934703 -0.000004 -0.355431
vn -0.934703 -0.000004 -0.355431
vn -0.934703 -0.000004 -0.355431
vn 0.500678 0.864833 -0.037212
vn 0.500678 0.864833 -0.037212
vn 0.500678 0.864833 -0.037212
vn 0.500678 0.864833 -0.037212
vn -0.257920 0.965805 -0.026415
vn -0.257920 0.965805 -0.026415
vn -0.257920 0.965805 -0.026415
vn -0.257920 0.965805 -0.026415
vn -0.865439 0.501014 -0.000148
vn -0.865439 0.501014 -0.000148
vn -0.865439 0.501014 -0.000148
vn -0.865439 0.501014 -0.000148
vn -0.965990 -0.257246 0.026242
vn -0.965990 -0.257246 0.026242
vn -0.965990 -0.257246 0.026242
vn -0.965990 -0.257246 0.026242
vn -0.500670 -0.864837 0.037242
vn -0.500670 -0.864837 0.037242
vn -0.500670 -0.864837 0.037242
vn -0.500670 -0.864837 0.037242
vn 0.257920 -0.965805 0.026436
vn 0.257920 -0.965805 0.026436
vn 0.257920 -0.965805 0.026436
vn 0.257920 -0.965805 0.026436
vn 0.865438 -0.501015 0.000107
vn 0.865438 -0.501015 0.000107
vn 0.865438 -0.501015 0.000107
vn 0.865438 -0.501015 0.000107
vn 0.965986 0.257265 -0.026169
vn 0.965986 0.257265 -0.026169
vn 0.965986 0.257265 -0.026169
vn 0.965986 0.257265 -0.026169
vn 0.062046 0.106881 -0.992334
vn 0.062046 0.106881 -0.992334
vn 0.062046 0.106881 -0.992334
vn -0.059661 0.123078 -0.990602
vn -0.059661 0.123078 -0.990602
vn -0.059661 0.123078 -0.990602
vn -0.157114 0.048520 -0.986388
vn -0.157114 0.048520 -0.986388
vn -0.157114 0.048520 -0.986388
vn -0.173250 -0.073171 -0.982156
vn -0.173250 -0.073171 -0.982156
vn -0.173250 -0.073171 -0.982156
vn -0.098632 -0.170603 -0.980391
vn -0.098632 -0.170603 -0.980391
vn -0.098632 -0.170603 -0.980391
vn 0.023096 -0.186807 -0.982125
vn 0.023096 -0.186807 -0.982125
vn 0.023096 -0.186807 -0.982125
vn 0.120569 -0.112234 -0.986340
vn 0.120569 -0.112234 -0.986340
vn 0.120569 -0.112234 -0.986340
vn 0.136699 0.009403 -0.990568
vn 0.136699 0.009403 -0.990568
vn 0.136699 0.009403 -0.990568
vn 0.085567 0.148077 0.985267
vn 0.085567 0.148077 0.985267
vn 0.085567 0.148077 0.985267
vn -0.017388 0.165768 0.986012
vn -0.017388 0.165768 0.986012
vn -0.017388 0.165768 0.986012
vn -0.105017 0.103369 0.989084
vn -0.105017 0.103369 0.989084
vn -0.105017 0.103369 0.989084
vn -0.120451 -0.005018 0.992707
vn -0.120451 -0.005018 0.992707
vn -0.120451 -0.005018 0.992707
vn -0.052351 -0.090095 0.994556
vn -0.052351 -0.090095 0.994556
vn -0.052351 -0.090095 0.994556
vn 0.053599 -0.100019 0.993541
vn 0.053599 -0.100019 0.993541
vn 0.053599 -0.100019 0.993541
vn 0.133427 -0.034651 0.990453
vn 0.133427 -0.034651 0.990453
vn 0.133427 -0.034651 0.990453
vn 0.145868 0.066013 0.987099
vn 0.145868 0.066013 0.987099
vn 0.145868 0.066013 0.987099
vn -0.018507 -0.032294 -0.999307
vn -0.018507 -0.032294 -0.999307
vn -0.018507 -0.032294 -0.999307
vn -0.018507 -0.032294 -0.999307
vn -0.018536 -0.032213 -0.999309
vn -0.018536 -0.032213 -0.999309
vn -0.018536 -0.032213 -0.999309
vn -0.018536 -0.032213 -0.999309
vn -0.018445 -0.032313 -0.999308
vn -0.018445 -0.032313 -0.999308
vn -0.018445 -0.032313 -0.999308
vn -0.018445 -0.032313 -0.999308
vn -0.018428 -0.032264 -0.999310
vn -0.018428 -0.032264 -0.999309
vn -0.018428 -0.032264 -0.999309
vn -0.018428 -0.032264 -0.999310
vn -0.018429 -0.032161 -0.999313
vn -0.018429 -0.032161 -0.999313
vn -0.018429 -0.032161 -0.999313
vn -0.018429 -0.032161 -0.999313
vn -0.018538 -0.032211 -0.999309
vn -0.018538 -0.032211 -0.999309
vn -0.018538 -0.032211 -0.999309
vn -0.018538 -0.032211 -0.999309
vn -0.018386 -0.032362 -0.999307
vn -0.018386 -0.032362 -0.999307
vn -0.018386 -0.032362 -0.999307
vn -0.018386 -0.032362 -0.999307
vn -0.018505 -0.032272 -0.999308
vn -0.018505 -0.032272 -0.999308
vn -0.018505 -0.032272 -0.999308
vn -0.018505 -0.032272 -0.999308
vn -0.333098 -0.575634 -0.746787
vn -0.333098 -0.575634 -0.746787
vn -0.333098 -0.575634 -0.746787
vn -0.333098 -0.575634 -0.746787
vn 0.149983 -0.639979 -0.753613
vn 0.149983 -0.639979 -0.753613
vn 0.149983 -0.639979 -0.753613
vn 0.149983 -0.639979 -0.753613
vn 0.536803 -0.343912 -0.770433
vn 0.536803 -0.343912 -0.770433
vn 0.536803 -0.343912 -0.770433
vn 0.536803 -0.343912 -0.770433
vn 0.600912 0.138935 -0.787148
vn 0.600912 0.138935 -0.787148
vn 0.600912 0.138935 -0.787148
vn 0.600912 0.138935 -0.787148
vn 0.304583 0.525873 -0.794158
vn 0.304583 0.525873 -0.794158
vn 0.304583 0.525873 -0.794158
vn 0.304583 0.525873 -0.794158
vn -0.178531 0.590097 -0.787345
vn -0.178531 0.590097 -0.787345
vn -0.178531 0.590097 -0.787345
vn -0.178531 0.590097 -0.787345
vn -0.565489 0.294210 -0.770495
vn -0.565489 0.294210 -0.770495
vn -0.565489 0.294210 -0.770495
vn -0.565489 0.294210 -0.770495
vn -0.629528 -0.188725 -0.753709
vn -0.629528 -0.188725 -0.753709
vn -0.629528 -0.188725 -0.753709
vn -0.629528 -0.188725 -0.753709
vn 0.310424 0.536416 0.784789
vn 0.310424 0.536416 0.784789
vn 0.310424 0.536416 0.784789
vn 0.310424 0.536416 0.784789
vn -0.139360 0.603342 0.785212
vn -0.139360 0.603342 0.785212
vn -0.139360 0.603342 0.785212
vn -0.139360 0.603342 0.785212
vn -0.512763 0.330930 0.792186
vn -0.512763 0.330930 0.792186
vn -0.512763 0.330930 0.792186
vn -0.512763 0.330930 0.792186
vn -0.582410 -0.133602 0.801841
vn -0.582410 -0.133602 0.801841
vn -0.582411 -0.133602 0.801841
vn -0.582411 -0.133602 0.801841
vn -0.294977 -0.509252 0.808487
vn -0.294977 -0.509252 0.808487
vn -0.294977 -0.509252 0.808487
vn -0.294977 -0.509252 0.808487
vn 0.171999 -0.563540 0.807985
vn 0.171999 -0.563540 0.807985
vn 0.171999 -0.563540 0.807985
vn 0.171999 -0.563540 0.807985
vn 0.532736 -0.273976 0.800705
vn 0.532736 -0.273977 0.800705
vn 0.532736 -0.273976 0.800705
vn 0.532736 -0.273976 0.800705
vn 0.585210 0.177984 0.791108
vn 0.585210 0.177984 0.791107
vn 0.585210 0.177984 0.791108
vn 0.585210 0.177984 0.791107
s off
f 5/1/1 4/2/2 6/3/3
f 6/3/4 4/2/5 8/4/6
f 8/4/7 4/2/8 12/5/9
f 4/2/10 10/6/11 12/5/12
f 5/1/13 6/3/14 2/7/15 1/8/16
f 5/1/17 1/8/18 3/9/19 4/2/20
f 6/3/21 8/4/22 7/10/23 2/7/24
f 10/6/25 9/11/26 11/12/27 12/5/28
f 4/2/29 3/9/30 9/11/31 10/6/32
f 11/12/33 9/11/34 7/10/35
f 9/11/36 3/9/37 7/10/38
f 7/10/39 3/9/40 2/7/41
f 3/9/42 1/8/43 2/7/44
f 8/4/45 12/5/46 11/12/47 7/10/48
f 13/13/49 14/14/50 16/15/51 15/16/52
f 15/16/53 16/15/54 18/17/55 17/18/56
f 17/18/57 18/17/58 20/19/59 19/20/60
f 19/20/61 20/19/62 14/14/63 13/13/64
f 14/14/65 20/19/66 18/17/67 16/15/68
f 19/20/69 13/13/70 15/16/71 17/18/72
f 21/21/73 22/22/74 30/23/75 29/24/76
f 22/22/77 23/25/78 31/26/79 30/23/80
f 23/25/81 24/27/82 32/28/83 31/26/84
f 24/27/85 25/29/86 33/30/87 32/28/88
f 25/29/89 26/31/90 34/32/91 33/30/92
f 26/31/93 27/33/94 35/34/95 34/32/96
f 27/33/97 28/35/98 36/36/99 35/34/100
f 28/35/101 21/21/102 29/24/103 36/36/104
f 46/37/105 45/38/106 47/39/107
f 48/40/108 46/37/109 47/39/110
f 49/41/111 48/40/112 47/39/113
f 50/42/114 49/41/115 47/39/116
f 51/43/117 50/42/118 47/39/119
f 52/44/120 51/43/121 47/39/122
f 53/45/123 52/44/124 47/39/125
f 45/38/126 53/45/127 47/39/128
f 54/46/129 55/47/130 56/48/131
f 55/47/132 57/49/133 56/48/134
f 57/49/135 58/50/136 56/48/137
f 58/50/138 59/51/139 56/48/140
f 59/51/141 60/52/142 56/48/143
f 60/52/144 61/53/145 56/48/146
f 61/53/147 62/54/148 56/48/149
f 62/54/150 54/46/151 56/48/152
f 22/22/153 21/21/154 37/55/155 38/56/156
f 23/25/157 22/22/158 38/56/159 39/57/160
f 24/27/161 23/25/162 39/57/163 40/58/164
f 25/29/165 24/27/166 40/58/167 41/59/168
f 26/31/169 25/29/170 41/59/171 42/60/172
f 27/33/173 26/31/174 42/60/175 43/61/176
f 28/35/177 27/33/178 43/61/179 44/62/180
f 21/21/181 28/35/182 44/62/183 37/55/184
f 38/56/185 37/55/186 45/38/187 46/37/188
f 39/57/189 38/56/190 46/37/191 48/40/192
f 40/58/193 39/57/194 48/40/195 49/41/196
f 41/59/197 40/58/198 49/41/199 50/42/200
f 42/60/201 41/59/202 50/42/203 51/43/204
f 43/61/205 42/60/206 51/43/207 52/44/208
f 44/62/209 43/61/210 52/44/211 53/45/212
f 37/55/213 44/62/214 53/45/215 45/38/216
f 29/24/217 30/23/218 55/47/219 54/46/220
f 30/23/221 31/26/222 57/49/223 55/47/224
f 31/26/225 32/28/226 58/50/227 57/49/228
f 32/28/229 33/30/230 59/51/231 58/50/232
f 33/30/233 34/32/234 60/52/235 59/51/236
f 34/32/237 35/34/238 61/53/239 60/52/240
f 35/34/241 36/36/242 62/54/243 61/53/244
f 36/36/245 29/24/246 54/46/247 62/54/248
