# This file uses centimeters as units for non-parametric coordinates.

v -70.959778 -15.921153 1.767120
v -67.955017 -16.341221 1.717682
v -70.515137 -15.719947 3.086243
v -68.284912 -16.031799 3.049774
v -70.203247 -13.489436 3.072662
v -67.973022 -13.801250 3.035889
v -70.539856 -12.916118 1.748505
v -67.535400 -13.336219 1.699371
v -36.761475 14.865913 1.289978
v -34.997559 12.397289 1.329346
v -36.282349 14.748726 2.607269
v -34.973145 12.916384 2.636414
v -34.451294 16.055021 2.489471
v -33.142090 14.222679 2.518616
v -34.294739 16.625834 1.131287
v -32.531128 14.157209 1.170502
v -71.890259 -2.923709 2.085876
v -70.169678 -5.423021 2.067413
v -71.463623 -3.114490 3.412323
v -70.186462 -4.969634 3.398590
v -69.608154 -1.837587 3.428345
v -68.331299 -3.692723 3.414612
v -69.390869 -1.203365 2.107239
v -67.670288 -3.702689 2.088623
v 28.234253 2.119036 1.723785
v 30.025635 -0.329857 1.743622
v 28.659668 1.956472 3.054657
v 29.989624 0.138750 3.069305
v 30.477295 3.286285 3.063507
v 31.807251 1.468554 3.078308
v 30.682983 3.910618 1.735840
v 32.474670 1.461725 1.755524
v -60.433350 -0.256824 2.253876
v -60.433350 17.601194 1.270599
v 72.910767 11.343737 2.493134
v 72.910767 -7.879162 2.265778
v 31.061401 14.661789 1.771698
v 31.061401 -17.553375 1.985474
v 60.660095 11.343737 2.493134
v 31.061401 4.572592 2.001038
v 60.660095 4.572592 2.001038
v -60.433350 -17.553375 1.985474
v 60.660095 -17.553375 1.985474
v -72.980042 -0.256824 2.253876
v -72.980042 -17.553375 1.985474
v 31.061401 -17.461586 -2.139282
v -60.442200 -0.209208 -1.871643
v 31.071167 4.710627 -2.119293
v -60.442200 17.766209 -2.849731
v 60.669861 4.710617 -2.119293
v 72.980042 -7.794990 -1.858063
v 72.980042 11.517544 -1.625977
v 31.061401 14.960690 -2.343292
v 60.660095 11.642656 -1.622162
v -60.433350 -17.489307 -2.140198
v 60.660095 -17.433823 -2.138824
v -72.980042 -0.192795 -1.871338
v -72.980042 -17.489307 -2.140198
v 57.558594 -13.797177 1.858521
v 58.948975 -16.491516 1.739960
v 58.031616 -14.050550 3.158569
v 59.063721 -16.050442 3.070526
v 60.029907 -13.015404 3.070526
v 61.062012 -15.015306 2.982788
v 60.250854 -12.402583 1.740112
v 61.641235 -15.096923 1.621552
vt 0.080507 0.137716
vt 0.080507 0.137716
vt 0.080507 0.137716
vt 0.080507 0.137716
vt 0.080507 0.137716
vt 0.080507 0.137716
vt 0.080507 0.137716
vt 0.080507 0.137716
vt 0.080507 0.137716
vt 0.080507 0.137716
vt 0.080507 0.137716
vt 0.080507 0.137716
vt 0.080507 0.137716
vt 0.080507 0.137716
vt 0.080507 0.137716
vt 0.080507 0.137716
vt 0.080507 0.137716
vt 0.080507 0.137716
vt 0.080507 0.137716
vt 0.080507 0.137716
vt 0.080507 0.137716
vt 0.080507 0.137716
vt 0.080507 0.137716
vt 0.080507 0.137716
vt 0.080507 0.137716
vt 0.080507 0.137716
vt 0.080507 0.137716
vt 0.080507 0.137716
vt 0.080507 0.137716
vt 0.080507 0.137716
vt 0.080507 0.137716
vt 0.080507 0.137716
vt 0.080507 0.137716
vt 0.080507 0.137716
vt 0.080507 0.137716
vt 0.080507 0.137716
vt 0.080507 0.137716
vt 0.080507 0.137716
vt 0.080507 0.137716
vt 0.080507 0.137716
vt 0.080507 0.137716
vt 0.080507 0.137716
vt 0.080507 0.137716
vt 0.080507 0.137716
vt 0.080507 0.137716
vt 0.080507 0.137716
vt 0.080507 0.137716
vt 0.080507 0.137716
vt 0.270898 0.535033
vt 0.443877 0.495301
vt 0.443877 0.546030
vt 0.270898 0.571123
vt 0.482794 0.538424
vt 0.482794 0.538424
vt 0.482794 0.538424
vt 0.482794 0.538424
vt 0.482794 0.538424
vt 0.443877 0.566411
vt 0.482794 0.538424
vt 0.270898 0.495301
vt 0.482794 0.538424
vt 0.482794 0.538424
vt 0.482794 0.538424
vt 0.482794 0.538424
vt 0.482794 0.538424
vt 0.270879 0.570286
vt 0.270879 0.533926
vt 0.482794 0.538424
vt 0.482794 0.538424
vt 0.482794 0.538424
vt 0.482794 0.538424
vt 0.443898 0.545132
vt 0.443877 0.565882
vt 0.482794 0.538424
vt 0.270898 0.494231
vt 0.443877 0.494295
vt 0.482794 0.538424
vt 0.482794 0.538424
vt 0.482794 0.538424
vt 0.482794 0.538424
vt 0.482794 0.538424
vt 0.482794 0.538424
vt 0.080507 0.137716
vt 0.080507 0.137716
vt 0.080507 0.137716
vt 0.080507 0.137716
vt 0.080507 0.137716
vt 0.080507 0.137716
vt 0.080507 0.137716
vt 0.080507 0.137716
vt 0.080507 0.137716
vt 0.080507 0.137716
vt 0.080507 0.137716
vt 0.080507 0.137716
vn -0.132757 -0.972178 0.192989
vn -0.132757 -0.972178 0.192989
vn -0.132757 -0.972178 0.192989
vn -0.132757 -0.972178 0.192989
vn 0.016947 0.003786 0.999849
vn 0.016947 0.003786 0.999849
vn 0.016947 0.003786 0.999849
vn 0.016947 0.003786 0.999849
vn 0.134805 0.921326 0.364673
vn 0.134805 0.921326 0.364673
vn 0.134805 0.921326 0.364673
vn 0.134805 0.921326 0.364673
vn 0.954679 -0.131746 0.266892
vn 0.954679 -0.131746 0.266892
vn 0.954679 -0.131746 0.266892
vn 0.954679 -0.131746 0.266892
vn -0.945067 0.133935 0.298179
vn -0.945067 0.133935 0.298179
vn -0.945067 0.133935 0.298179
vn -0.945067 0.133935 0.298179
vn -0.792042 -0.562136 0.238059
vn -0.792042 -0.562136 0.238059
vn -0.792042 -0.562136 0.238059
vn -0.792042 -0.562137 0.238059
vn 0.035045 0.040922 0.998548
vn 0.035045 0.040922 0.998548
vn 0.035045 0.040922 0.998548
vn 0.035045 0.040922 0.998548
vn 0.768115 0.553884 0.321266
vn 0.768115 0.553884 0.321266
vn 0.768115 0.553884 0.321266
vn 0.768115 0.553884 0.321266
vn 0.567523 -0.768835 0.294637
vn 0.567523 -0.768835 0.294637
vn 0.567523 -0.768835 0.294637
vn 0.567523 -0.768835 0.294637
vn -0.547703 0.792012 0.269701
vn -0.547703 0.792012 0.269701
vn -0.547703 0.792012 0.269701
vn -0.547703 0.792012 0.269701
vn -0.809599 -0.558685 0.180059
vn -0.809599 -0.558685 0.180059
vn -0.809599 -0.558685 0.180059
vn -0.809599 -0.558685 0.180059
vn -0.002402 -0.009056 0.999956
vn -0.002402 -0.009056 0.999956
vn -0.002402 -0.009056 0.999956
vn -0.002402 -0.009056 0.999956
vn 0.764246 0.523275 0.376977
vn 0.764246 0.523275 0.376977
vn 0.764246 0.523275 0.376977
vn 0.764246 0.523275 0.376977
vn 0.543219 -0.792655 0.276788
vn 0.543219 -0.792655 0.276788
vn 0.543219 -0.792655 0.276788
vn 0.543219 -0.792655 0.276788
vn -0.544527 0.787574 0.288473
vn -0.544527 0.787574 0.288473
vn -0.544527 0.787574 0.288473
vn -0.544527 0.787574 0.288473
vn -0.794134 -0.579485 0.183165
vn -0.794134 -0.579485 0.183165
vn -0.794134 -0.579485 0.183165
vn -0.794133 -0.579485 0.183165
vn -0.007059 0.002936 0.999971
vn -0.007059 0.002936 0.999971
vn -0.007059 0.002936 0.999971
vn -0.007059 0.002936 0.999971
vn 0.747005 0.549565 0.374115
vn 0.747005 0.549565 0.374115
vn 0.747005 0.549565 0.374115
vn 0.747005 0.549565 0.374115
vn 0.564372 -0.773382 0.288729
vn 0.564372 -0.773382 0.288729
vn 0.564372 -0.773382 0.288729
vn 0.564372 -0.773382 0.288729
vn -0.568355 0.774983 0.276360
vn -0.568355 0.774983 0.276360
vn -0.568355 0.774983 0.276360
vn -0.568355 0.774983 0.276360
vn 0.001485 0.024195 0.999706
vn -0.000089 0.019429 0.999811
vn -0.000672 0.020053 0.999799
vn 0.001367 0.024168 0.999707
vn -0.007132 0.001991 0.999973
vn -0.000672 0.020053 0.999799
vn -0.000089 0.019429 0.999811
vn -0.008199 0.003434 0.999960
vn -0.007132 0.001991 0.999973
vn -0.008199 0.003434 0.999960
vn -0.028795 -0.020533 0.999374
vn 0.001367 0.024168 0.999707
vn -0.000672 0.020053 0.999799
vn -0.004745 0.022725 0.999730
vn 0.000000 -0.072484 0.997370
vn -0.007132 0.001991 0.999973
vn -0.028795 -0.020533 0.999374
vn 0.000000 -0.015516 0.999880
vn 0.000000 -0.015516 0.999880
vn 0.000000 -0.015516 0.999880
vn 0.000000 -0.028962 0.999581
vn 0.000000 -0.028962 0.999581
vn 0.000000 -0.028962 0.999581
vn 0.000000 -0.015516 0.999880
vn 0.000000 -0.015516 0.999880
vn 0.000000 -0.015516 0.999880
vn 0.000000 -0.015516 0.999880
vn -0.999998 0.000118 0.002150
vn -0.999998 0.000118 0.002150
vn -0.999998 0.000118 0.002150
vn -0.999998 0.000118 0.002150
vn 0.000000 0.999439 0.033481
vn 0.000000 0.999439 0.033481
vn 0.000000 0.999439 0.033481
vn 0.000000 0.999439 0.033481
vn 0.999859 -0.000200 0.016800
vn 0.999859 -0.000200 0.016800
vn 0.999859 -0.000200 0.016800
vn 0.999859 -0.000200 0.016800
vn 0.999999 0.000507 0.001213
vn 0.999999 0.000507 0.001213
vn 0.999999 0.000507 0.001213
vn 0.999999 0.000507 0.001213
vn 0.031019 0.997939 0.056183
vn 0.031019 0.997939 0.056183
vn 0.031019 0.997939 0.056183
vn 0.031019 0.997939 0.056183
vn -0.999999 -0.000625 -0.001219
vn -0.999999 -0.000625 -0.001219
vn -0.999999 -0.000625 -0.001219
vn -0.999999 -0.000625 -0.001219
vn 0.005092 0.998341 0.057357
vn 0.005092 0.998341 0.057357
vn 0.005092 0.998341 0.057357
vn 0.005092 0.998341 0.057357
vn 0.000133 -0.999829 -0.018482
vn 0.000133 -0.999829 -0.018482
vn 0.000229 -0.999789 -0.020531
vn 0.000229 -0.999789 -0.020531
vn 0.000229 -0.999789 -0.020531
vn 0.000229 -0.999789 -0.020531
vn 0.000469 -0.999672 -0.025612
vn 0.000469 -0.999672 -0.025612
vn 0.618109 -0.785963 -0.014221
vn 0.618109 -0.785963 -0.014221
vn 0.618109 -0.785963 -0.014221
vn 0.618109 -0.785963 -0.014221
vn 0.000654 0.999908 0.013530
vn 0.000654 0.999908 0.013530
vn 0.000654 0.999908 0.013530
vn 0.000654 0.999908 0.013530
vn -1.000000 0.000000 0.000000
vn -1.000000 0.000000 0.000000
vn -1.000000 0.000000 0.000000
vn -1.000000 0.000000 0.000000
vn 0.000000 -0.999880 -0.015527
vn 0.000000 -0.999880 -0.015527
vn 0.000133 -0.999829 -0.018482
vn 0.000133 -0.999829 -0.018482
vn -0.861792 -0.454634 0.224993
vn -0.861792 -0.454634 0.224993
vn -0.861792 -0.454634 0.224993
vn -0.861792 -0.454634 0.224993
vn 0.052588 -0.016741 0.998476
vn 0.052588 -0.016741 0.998476
vn 0.052588 -0.016741 0.998476
vn 0.052588 -0.016741 0.998476
vn 0.843577 0.420663 0.333797
vn 0.843577 0.420662 0.333797
vn 0.843577 0.420662 0.333797
vn 0.843577 0.420662 0.333797
vn 0.454429 -0.856506 0.244728
vn 0.454430 -0.856506 0.244728
vn 0.454429 -0.856506 0.244728
vn 0.454429 -0.856506 0.244728
vn -0.424702 0.847036 0.319621
vn -0.424702 0.847036 0.319621
vn -0.424702 0.847036 0.319621
vn -0.424702 0.847036 0.319621
s off
f 1/1/1 2/2/2 4/3/3 3/4/4
f 3/4/5 4/3/6 6/5/7 5/6/8
f 5/6/9 6/5/10 8/7/11 7/8/12
f 2/2/13 8/9/14 6/10/15 4/3/16
f 7/11/17 1/1/18 3/4/19 5/12/20
f 9/13/21 10/14/22 12/15/23 11/16/24
f 11/16/25 12/15/26 14/17/27 13/18/28
f 13/18/29 14/17/30 16/19/31 15/20/32
f 10/14/33 16/21/34 14/22/35 12/15/36
f 15/23/37 9/13/38 11/16/39 13/24/40
f 17/25/41 18/26/42 20/27/43 19/28/44
f 19/28/45 20/27/46 22/29/47 21/30/48
f 21/30/49 22/29/50 24/31/51 23/32/52
f 18/26/53 24/33/54 22/34/55 20/27/56
f 23/35/57 17/25/58 19/28/59 21/36/60
f 25/37/61 26/38/62 28/39/63 27/40/64
f 27/40/65 28/39/66 30/41/67 29/42/68
f 29/42/69 30/41/70 32/43/71 31/44/72
f 26/38/73 32/45/74 30/46/75 28/39/76
f 31/47/77 25/37/78 27/40/79 29/48/80
f 33/49/81 38/50/82 40/51/83 34/52/84
f 41/53/85 40/54/86 38/55/87 36/56/88
f 41/53/89 36/56/90 35/57/91
f 34/52/92 40/51/93 37/58/94
f 39/59/95 41/53/96 35/57/97
f 38/50/98 33/49/99 42/60/100
f 36/56/101 38/55/102 43/61/103
f 42/62/104 33/63/105 44/64/106 45/65/107
f 34/52/108 49/66/109 47/67/110 33/49/111
f 41/53/112 50/68/113 48/69/114 40/54/115
f 36/56/116 51/70/117 52/71/118 35/57/119
f 40/51/120 48/72/121 53/73/122 37/58/123
f 37/58/124 53/73/125 49/66/126 34/52/127
f 39/59/128 54/74/129 50/68/130 41/53/131
f 35/57/132 52/71/133 54/74/134 39/59/135
f 42/60/136 55/75/137 46/76/138 38/50/139
f 38/55/140 46/77/141 56/78/142 43/61/143
f 43/61/144 56/78/145 51/70/146 36/56/147
f 33/63/148 47/79/149 57/80/150 44/64/151
f 44/64/152 57/80/153 58/81/154 45/65/155
f 45/65/156 58/81/157 55/82/158 42/62/159
f 59/83/160 60/84/161 62/85/162 61/86/163
f 61/86/164 62/85/165 64/87/166 63/88/167
f 63/88/168 64/87/169 66/89/170 65/90/171
f 60/84/172 66/91/173 64/92/174 62/85/175
f 65/93/176 59/83/177 61/86/178 63/94/179
