# This file uses centimeters as units for non-parametric coordinates.

v -46.868210 -25.756149 0.625458
v 46.873550 -25.428696 0.625458
v 46.873550 23.068085 0.625458
v 36.247177 31.948414 0.625610
v -36.002731 31.308365 0.625458
v -46.873550 23.042946 0.625610
v 37.534256 -31.759529 0.625458
v -38.891525 -31.948433 0.625458
v 37.106247 19.831352 0.625610
v 37.106247 -19.645327 0.625610
v 34.258041 23.485050 0.625610
v -32.637405 22.996387 0.625610
v -36.088333 19.812164 0.625610
v -37.102127 -19.698219 0.625610
v 32.750320 -21.932737 0.625458
v -32.491531 -21.879845 0.625610
v 34.479141 18.123627 4.553680
v 34.479141 -17.815153 4.553680
v 31.886215 21.449871 4.553528
v -31.066818 21.005001 4.553680
v -34.208450 18.106155 4.553528
v -34.475174 -17.863295 4.553833
v 30.513535 -19.897554 4.553833
v -30.277634 -19.849413 4.553680
v 30.159225 8.223076 4.553528
v 30.159225 -2.521877 4.553833
v -28.986282 8.190556 4.553528
v -28.986282 -2.521877 4.553833
v 48.156052 24.250393 -4.553528
v 48.156052 -26.731987 -4.553528
v 37.238846 33.585854 -4.553680
v -36.987686 32.912998 -4.553528
v -48.156052 24.223957 -4.553680
v -48.150406 -27.076225 -4.553528
v 38.561172 -33.387299 -4.553680
v -39.955521 -33.585876 -4.553528
v 25.578232 8.223076 -4.553833
v 25.578232 2.789745 -4.553528
v -24.405289 8.190556 -4.553833
v -24.405289 2.789745 -4.553528
v 9.052505 -5.282803 4.553680
v 7.273636 1.352921 -4.553680
v -13.431168 -33.464317 -4.553528
v -13.073502 -31.832792 0.625610
v -14.093246 -21.912214 0.625458
v -17.440872 -17.036209 4.553528
v -9.800186 31.540489 0.625610
v -10.068436 33.157024 -4.553528
v 22.095108 8.743057 -4.553680
v 20.005112 10.476913 4.553528
v -10.679398 18.997974 4.553528
v -7.504959 22.173977 0.625610
v -42.054062 23.814869 0.625458
v -41.254654 23.814869 2.509766
v -38.983994 26.884899 0.625458
v -38.983994 26.085472 2.509613
v -35.913925 23.814869 0.625458
v -36.713333 23.814869 2.509766
v -38.983994 20.744839 0.625458
v -38.983994 21.544266 2.509613
v 39.122086 -24.905014 0.625458
v 39.921494 -24.905014 2.509766
v 42.192001 -21.834984 0.625610
v 42.192001 -22.634413 2.509766
v 45.262070 -24.905014 0.625610
v 44.462662 -24.905014 2.509613
v 42.192001 -27.975044 0.625610
v 42.192001 -27.175615 2.509766
v -43.111801 -25.919685 0.625458
v -42.312393 -25.919685 2.509766
v -40.041733 -22.849655 0.625458
v -40.041733 -23.649080 2.509613
v -36.971664 -25.919685 0.625458
v -37.771072 -25.919685 2.509766
v -40.041733 -28.989716 0.625458
v -40.041733 -28.190290 2.509613
v 36.808090 24.546833 0.625610
v 37.607498 24.546833 2.509613
v 39.878159 27.616863 0.625610
v 39.878159 26.817436 2.509766
v 42.948074 24.546833 0.625458
v 42.148666 24.546833 2.509766
v 39.878159 21.476803 0.625610
v 39.878159 22.276230 2.509766
vt 0.091545 0.058459
vt 0.091545 0.058459
vt 0.091545 0.058459
vt 0.091545 0.058459
vt 0.091545 0.058459
vt 0.091545 0.058459
vt 0.091545 0.058459
vt 0.091545 0.058459
vt 0.091545 0.058459
vt 0.091545 0.058459
vt 0.091545 0.058459
vt 0.091545 0.058459
vt 0.091545 0.058459
vt 0.091545 0.058459
vt 0.091545 0.058459
vt 0.091545 0.058459
vt 0.091545 0.058459
vt 0.091545 0.058459
vt 0.091545 0.058459
vt 0.091545 0.058459
vt 0.091545 0.058459
vt 0.091545 0.058459
vt 0.091545 0.058459
vt 0.091545 0.058459
vt 0.091545 0.058459
vt 0.091545 0.058459
vt 0.091545 0.058459
vt 0.091545 0.058459
vt 0.091545 0.058459
vt 0.091545 0.058459
vt 0.091545 0.058459
vt 0.091545 0.058459
vt 0.091545 0.058459
vt 0.091545 0.058459
vt 0.091545 0.058459
vt 0.091545 0.058459
vt 0.091545 0.058459
vt 0.091545 0.058459
vt 0.091545 0.058459
vt 0.091545 0.058459
vt 0.091545 0.058459
vt 0.091545 0.058459
vt 0.091545 0.058459
vt 0.091545 0.058459
vt 0.091545 0.058459
vt 0.091545 0.058459
vt 0.091545 0.058459
vt 0.091545 0.058459
vt 0.090405 0.087713
vt 0.090405 0.087713
vt 0.090405 0.087713
vt 0.090405 0.087713
vt 0.090405 0.087713
vt 0.090405 0.087713
vt 0.090405 0.087713
vt 0.090405 0.087713
vt 0.090405 0.087713
vt 0.090405 0.087713
vt 0.090405 0.087713
vt 0.090405 0.087713
vt 0.090405 0.087713
vt 0.090405 0.087713
vt 0.090405 0.087713
vt 0.090405 0.087713
vt 0.090405 0.087713
vt 0.090405 0.087713
vt 0.090405 0.087713
vt 0.090405 0.087713
vt 0.090405 0.087713
vt 0.090405 0.087713
vt 0.090405 0.087713
vt 0.090405 0.087713
vt 0.090405 0.087713
vt 0.090405 0.087713
vt 0.091545 0.058459
vt 0.091545 0.058459
vt 0.091545 0.058459
vt 0.091545 0.058459
vt 0.091545 0.058459
vt 0.091545 0.058459
vt 0.091545 0.058459
vt 0.091545 0.058459
vt 0.091545 0.058459
vt 0.091545 0.058459
vt 0.091545 0.058459
vt 0.091545 0.058459
vt 0.091545 0.058459
vt 0.091545 0.058459
vt 0.091545 0.058459
vt 0.091545 0.058459
vt 0.091545 0.058459
vt 0.091545 0.058459
vt 0.091545 0.058459
vt 0.091545 0.058459
vt 0.091545 0.058459
vt 0.091545 0.058459
vt 0.091545 0.058459
vt 0.091545 0.058459
vt 0.091545 0.058459
vt 0.091545 0.058459
vt 0.091545 0.058459
vt 0.091545 0.058459
vt 0.091545 0.058459
vt 0.091545 0.058459
vt 0.091545 0.058459
vt 0.091545 0.058459
vt 0.090405 0.087713
vt 0.090405 0.087713
vt 0.090405 0.087713
vt 0.090405 0.087713
vt 0.090405 0.087713
vt 0.090405 0.087713
vt 0.091545 0.058459
vt 0.091545 0.058459
vt 0.091545 0.058459
vt 0.091545 0.058459
vt 0.091545 0.058459
vt 0.091545 0.058459
vt 0.091545 0.058459
vt 0.091545 0.058459
vt 0.080339 0.327694
vt 0.080339 0.327694
vt 0.080339 0.327694
vt 0.080339 0.327694
vt 0.080339 0.327694
vt 0.080339 0.327694
vt 0.080339 0.327694
vt 0.080339 0.327694
vt 0.080339 0.327694
vt 0.080339 0.327694
vt 0.080339 0.327694
vt 0.080339 0.327694
vt 0.080339 0.327694
vt 0.080339 0.327694
vt 0.080339 0.327694
vt 0.080339 0.327694
vt 0.080339 0.327694
vt 0.080339 0.327694
vt 0.080339 0.327694
vt 0.080339 0.327694
vt 0.080339 0.327694
vt 0.080339 0.327694
vt 0.080339 0.327694
vt 0.080339 0.327694
vt 0.080339 0.327694
vt 0.080339 0.327694
vt 0.080339 0.327694
vt 0.080339 0.327694
vt 0.080339 0.327694
vt 0.080339 0.327694
vt 0.080339 0.327694
vt 0.080339 0.327694
vt 0.080339 0.327694
vt 0.080339 0.327694
vt 0.080339 0.327694
vt 0.080339 0.327694
vt 0.080339 0.327694
vt 0.080339 0.327694
vt 0.080339 0.327694
vt 0.080339 0.327694
vt 0.080339 0.327694
vt 0.080339 0.327694
vt 0.080339 0.327694
vt 0.080339 0.327694
vt 0.080339 0.327694
vt 0.080339 0.327694
vt 0.080339 0.327694
vt 0.080339 0.327694
vn 0.000010 0.000008 -1.000000
vn 0.000010 0.000008 -1.000000
vn 0.000010 0.000008 -1.000000
vn 0.000000 0.000000 -1.000000
vn 0.000000 0.000000 -1.000000
vn 0.000000 0.000000 -1.000000
vn -0.000002 -0.000001 -1.000000
vn -0.000003 -0.000001 -1.000000
vn -0.000003 -0.000001 -1.000000
vn -0.000001 -0.000000 -1.000000
vn 0.000005 -0.000005 -1.000000
vn 0.000005 -0.000005 -1.000000
vn 0.000005 -0.000005 -1.000000
vn 0.000005 -0.000005 -1.000000
vn 0.000014 -0.000000 -1.000000
vn 0.000014 -0.000000 -1.000000
vn 0.000014 -0.000000 -1.000000
vn 0.000001 0.000010 -1.000000
vn -0.000004 0.000006 -1.000000
vn 0.000002 0.000011 -1.000000
vn 0.000002 0.000011 -1.000000
vn 0.000003 0.000014 -1.000000
vn 0.000003 0.000014 -1.000000
vn 0.000003 0.000014 -1.000000
vn -0.000001 -0.000008 -1.000000
vn -0.000001 -0.000008 -1.000000
vn -0.000001 -0.000008 -1.000000
vn -0.000001 -0.000008 -1.000000
vn 0.000016 0.000000 1.000000
vn 0.000016 0.000000 1.000000
vn 0.000016 0.000000 1.000000
vn 0.000016 0.000000 1.000000
vn 0.000012 0.000001 1.000000
vn 0.000012 0.000001 1.000000
vn 0.000012 0.000001 1.000000
vn 0.000012 0.000001 1.000000
vn -0.000001 0.000002 1.000000
vn -0.000001 0.000003 1.000000
vn -0.000003 0.000008 1.000000
vn -0.000003 0.000008 1.000000
vn 0.000000 0.000013 1.000000
vn 0.000000 0.000013 1.000000
vn 0.000000 0.000013 1.000000
vn 0.000000 0.000013 1.000000
vn -0.000007 -0.000002 1.000000
vn -0.000007 -0.000002 1.000000
vn -0.000007 -0.000002 1.000000
vn -0.000007 -0.000002 1.000000
vn -0.000003 -0.000013 1.000000
vn -0.000003 -0.000013 1.000000
vn -0.000003 -0.000013 1.000000
vn -0.000003 -0.000013 1.000000
vn -0.000008 -0.000011 1.000000
vn -0.000008 -0.000011 1.000000
vn -0.000008 -0.000011 1.000000
vn -0.000008 -0.000011 1.000000
vn 0.000000 0.000000 1.000000
vn 0.000001 0.000006 1.000000
vn 0.000001 0.000005 1.000000
vn 0.000000 0.000000 1.000000
vn 0.831230 0.000000 0.555929
vn 0.831230 0.000000 0.555929
vn 0.831230 0.000000 0.555929
vn 0.831230 0.000000 0.555929
vn 0.617420 0.481316 0.622196
vn 0.617420 0.481316 0.622196
vn 0.617420 0.481316 0.622196
vn 0.617420 0.481316 0.622196
vn -0.019106 0.842202 0.538823
vn 0.051562 0.829491 0.556136
vn 0.051562 0.829491 0.556136
vn 0.010388 0.837454 0.546410
vn -0.570211 0.617956 0.541285
vn -0.570211 0.617956 0.541285
vn -0.570211 0.617956 0.541285
vn -0.570211 0.617956 0.541285
vn -0.867415 0.014718 0.497369
vn -0.867415 0.014718 0.497369
vn -0.867414 0.014718 0.497369
vn -0.867415 0.014718 0.497369
vn 0.376685 -0.717330 0.586129
vn 0.376685 -0.717330 0.586129
vn 0.376685 -0.717330 0.586129
vn 0.376685 -0.717330 0.586129
vn -0.349021 -0.737644 0.577984
vn -0.349021 -0.737644 0.577984
vn -0.349021 -0.737644 0.577984
vn -0.349021 -0.737644 0.577984
vn 0.066300 -0.744627 0.664180
vn -0.009725 -0.757005 0.653337
vn 0.010929 -0.754095 0.656675
vn 0.066300 -0.744627 0.664180
vn 0.000004 0.000007 1.000000
vn 0.000004 0.000007 1.000000
vn 0.000004 0.000007 1.000000
vn 0.000004 0.000007 1.000000
vn -0.000050 0.000007 1.000000
vn -0.000050 0.000007 1.000000
vn -0.000050 0.000007 1.000000
vn 0.000002 -0.000003 1.000000
vn 0.000002 -0.000004 1.000000
vn 0.000002 -0.000004 1.000000
vn 0.000000 -0.000000 1.000000
vn -0.000033 -0.000017 1.000000
vn -0.000033 -0.000017 1.000000
vn -0.000033 -0.000017 1.000000
vn -0.000006 0.000013 1.000000
vn -0.000006 0.000013 1.000000
vn -0.000006 0.000013 1.000000
vn -0.000006 0.000013 1.000000
vn 0.000038 0.000001 1.000000
vn 0.000038 0.000001 1.000000
vn 0.000038 0.000001 1.000000
vn 0.000031 -0.000011 1.000000
vn 0.000031 -0.000011 1.000000
vn 0.000031 -0.000011 1.000000
vn 0.000006 -0.000016 1.000000
vn 0.000004 -0.000013 1.000000
vn -0.000005 -0.000001 1.000000
vn 0.000006 -0.000016 1.000000
vn 0.970680 0.000000 0.240375
vn 0.970680 0.000000 0.240375
vn 0.970680 0.000000 0.240375
vn 0.970680 0.000000 0.240375
vn 0.609487 0.720832 0.330040
vn 0.609487 0.720832 0.330040
vn 0.609487 0.720832 0.330040
vn 0.609487 0.720832 0.330040
vn -0.008554 0.954307 0.298705
vn -0.008554 0.954318 0.298670
vn -0.008557 0.954563 0.297886
vn -0.008557 0.954563 0.297886
vn -0.576110 0.748889 0.327510
vn -0.576110 0.748889 0.327510
vn -0.576110 0.748889 0.327510
vn -0.576110 0.748888 0.327510
vn -0.970688 -0.000107 0.240343
vn -0.970688 -0.000107 0.240343
vn -0.970688 -0.000107 0.240343
vn -0.970688 -0.000107 0.240343
vn 0.532263 -0.776058 0.338275
vn 0.532263 -0.776058 0.338275
vn 0.532263 -0.776058 0.338275
vn 0.532263 -0.776058 0.338275
vn -0.580349 -0.738876 0.342427
vn -0.580349 -0.738876 0.342427
vn -0.580349 -0.738876 0.342427
vn -0.580349 -0.738876 0.342427
vn 0.004321 -0.953797 0.300420
vn 0.004321 -0.953797 0.300420
vn 0.002442 -0.953842 0.300298
vn 0.002331 -0.953845 0.300291
vn -0.893351 0.000017 0.449360
vn -0.893351 0.000017 0.449360
vn -0.893351 0.000017 0.449360
vn -0.893351 0.000017 0.449360
vn 0.029550 -0.993986 0.105441
vn 0.029550 -0.993986 0.105441
vn -0.007794 -0.994102 0.108165
vn 0.007496 -0.994224 0.107068
vn 0.893351 0.000017 0.449360
vn 0.893351 0.000017 0.449360
vn 0.893351 0.000017 0.449360
vn 0.893351 0.000017 0.449360
vn -0.006020 0.828263 0.560307
vn 0.005677 0.829174 0.558962
vn 0.050072 0.831577 0.553148
vn 0.050072 0.831577 0.553148
vn -0.087211 0.818753 0.567484
vn -0.087211 0.818753 0.567484
vn 0.005677 0.829174 0.558962
vn -0.006020 0.828263 0.560307
vn 0.000000 0.000000 -1.000000
vn -0.000002 -0.000001 -1.000000
vn -0.000001 -0.000000 -1.000000
vn 0.000000 0.000000 -1.000000
vn 0.002331 -0.953845 0.300291
vn 0.002442 -0.953842 0.300298
vn 0.001398 -0.953866 0.300230
vn 0.001398 -0.953866 0.300230
vn 0.000001 0.000005 1.000000
vn 0.000001 0.000006 1.000000
vn 0.000002 0.000008 1.000000
vn 0.000002 0.000008 1.000000
vn 0.010929 -0.754095 0.656675
vn -0.009725 -0.757005 0.653337
vn -0.023067 -0.758705 0.651025
vn -0.023067 -0.758705 0.651025
vn -0.000005 -0.000001 1.000000
vn 0.000004 -0.000013 1.000000
vn -0.000007 0.000001 1.000000
vn -0.000007 0.000001 1.000000
vn -0.008552 0.954170 0.299143
vn -0.008552 0.954170 0.299143
vn -0.008554 0.954318 0.298670
vn -0.008554 0.954307 0.298705
vn -0.000006 0.000004 -1.000000
vn -0.000006 0.000004 -1.000000
vn -0.000004 0.000006 -1.000000
vn 0.000001 0.000010 -1.000000
vn 0.007496 -0.994224 0.107068
vn -0.007794 -0.994102 0.108165
vn -0.197885 -0.972893 0.119673
vn -0.197885 -0.972893 0.119673
vn 0.000000 0.000000 1.000000
vn 0.000002 -0.000003 1.000000
vn 0.000000 -0.000000 1.000000
vn 0.000000 0.000000 1.000000
vn -0.037697 0.844785 0.533776
vn -0.019106 0.842202 0.538823
vn 0.010388 0.837454 0.546410
vn -0.037697 0.844786 0.533776
vn 0.000000 0.000000 1.000000
vn -0.000001 0.000003 1.000000
vn -0.000001 0.000002 1.000000
vn 0.000000 0.000000 1.000000
vn -0.677275 0.677295 0.287349
vn -0.677275 0.677295 0.287349
vn -0.677275 0.677295 0.287349
vn -0.677275 0.677295 0.287349
vn 0.677275 0.677295 0.287349
vn 0.677275 0.677295 0.287349
vn 0.677275 0.677295 0.287349
vn 0.677275 0.677295 0.287349
vn 0.677275 -0.677295 0.287350
vn 0.677275 -0.677295 0.287350
vn 0.677275 -0.677295 0.287350
vn 0.677275 -0.677295 0.287350
vn -0.677275 -0.677295 0.287350
vn -0.677275 -0.677295 0.287350
vn -0.677275 -0.677295 0.287350
vn -0.677275 -0.677295 0.287350
vn 0.000000 0.000000 1.000000
vn 0.000000 0.000000 1.000000
vn 0.000000 0.000000 1.000000
vn 0.000000 0.000000 1.000000
vn -0.677302 0.677268 0.287350
vn -0.677302 0.677268 0.287350
vn -0.677302 0.677268 0.287350
vn -0.677302 0.677268 0.287350
vn 0.677278 0.677283 0.287371
vn 0.677278 0.677283 0.287371
vn 0.677278 0.677283 0.287371
vn 0.677278 0.677283 0.287371
vn 0.677278 -0.677283 0.287372
vn 0.677278 -0.677283 0.287372
vn 0.677278 -0.677283 0.287372
vn 0.677278 -0.677283 0.287372
vn -0.677302 -0.677268 0.287350
vn -0.677302 -0.677268 0.287350
vn -0.677302 -0.677268 0.287350
vn -0.677302 -0.677268 0.287350
vn 0.000034 0.000000 1.000000
vn 0.000034 0.000000 1.000000
vn 0.000034 0.000000 1.000000
vn 0.000034 0.000000 1.000000
vn -0.677275 0.677295 0.287349
vn -0.677275 0.677295 0.287349
vn -0.677275 0.677295 0.287349
vn -0.677275 0.677295 0.287349
vn 0.677276 0.677295 0.287349
vn 0.677276 0.677295 0.287349
vn 0.677276 0.677295 0.287349
vn 0.677276 0.677295 0.287349
vn 0.677276 -0.677295 0.287348
vn 0.677276 -0.677295 0.287348
vn 0.677276 -0.677295 0.287348
vn 0.677276 -0.677295 0.287348
vn -0.677275 -0.677296 0.287348
vn -0.677275 -0.677296 0.287348
vn -0.677275 -0.677296 0.287348
vn -0.677275 -0.677296 0.287348
vn 0.000000 0.000000 1.000000
vn 0.000000 0.000000 1.000000
vn 0.000000 0.000000 1.000000
vn 0.000000 0.000000 1.000000
vn -0.677279 0.677282 0.287372
vn -0.677279 0.677282 0.287372
vn -0.677279 0.677282 0.287372
vn -0.677279 0.677282 0.287372
vn 0.677302 0.677268 0.287349
vn 0.677302 0.677268 0.287349
vn 0.677302 0.677268 0.287349
vn 0.677302 0.677268 0.287349
vn 0.677302 -0.677268 0.287350
vn 0.677302 -0.677268 0.287350
vn 0.677302 -0.677268 0.287350
vn 0.677302 -0.677268 0.287350
vn -0.677279 -0.677282 0.287371
vn -0.677279 -0.677282 0.287371
vn -0.677279 -0.677282 0.287371
vn -0.677279 -0.677282 0.287371
vn -0.000034 0.000000 1.000000
vn -0.000034 0.000000 1.000000
vn -0.000034 0.000000 1.000000
vn -0.000034 0.000000 1.000000
s off
f 30/1/1 35/2/2 38/3/3
f 36/4/4 34/5/5 40/6/6
f 43/7/7 36/4/8 40/6/9 42/8/10
f 30/1/11 38/3/12 37/9/13 29/10/14
f 29/10/15 37/9/16 31/11/17
f 48/12/18 49/13/19 39/14/20 32/15/21
f 32/15/22 39/14/23 33/16/24
f 33/16/25 39/14/26 40/6/27 34/5/28
f 2/17/29 3/18/30 9/19/31 10/20/32
f 3/21/33 4/22/34 11/23/35 9/24/36
f 52/25/37 47/26/38 5/27/39 12/28/40
f 5/29/41 6/30/42 13/31/43 12/32/44
f 6/33/45 1/34/46 14/35/47 13/36/48
f 7/37/49 2/38/50 10/39/51 15/40/52
f 1/41/53 8/42/54 16/43/55 14/44/56
f 8/45/57 44/46/58 45/47/59 16/48/60
f 10/49/61 9/50/62 17/51/63 18/52/64
f 9/50/65 11/53/66 19/54/67 17/51/68
f 52/55/69 12/56/70 20/57/71 51/58/72
f 12/56/73 13/59/74 21/60/75 20/57/76
f 13/59/77 14/61/78 22/62/79 21/60/80
f 15/63/81 10/49/82 18/52/83 23/64/84
f 14/61/85 16/65/86 24/66/87 22/62/88
f 16/65/89 45/67/90 46/68/91 24/66/92
f 18/52/93 17/51/94 25/69/95 26/70/96
f 17/51/97 19/54/98 25/69/99
f 51/58/100 20/57/101 27/71/102 50/72/103
f 20/57/104 21/60/105 27/71/106
f 21/60/107 22/62/108 28/73/109 27/71/110
f 23/64/111 18/52/112 26/70/113
f 22/62/114 24/66/115 28/73/116
f 24/66/117 46/68/118 41/74/119 28/73/120
f 2/75/121 30/76/122 29/77/123 3/78/124
f 3/79/125 29/80/126 31/81/127 4/82/128
f 47/83/129 48/84/130 32/85/131 5/86/132
f 5/87/133 32/88/134 33/89/135 6/90/136
f 6/91/137 33/92/138 34/93/139 1/94/140
f 7/95/141 35/96/142 30/97/143 2/98/144
f 1/99/145 34/100/146 36/101/147 8/102/148
f 8/103/149 36/104/150 43/105/151 44/106/152
f 25/69/153 37/107/154 38/108/155 26/70/156
f 27/71/157 39/109/158 49/110/159 50/72/160
f 28/73/161 40/111/162 39/109/163 27/71/164
f 41/74/165 42/112/166 40/111/167 28/73/168
f 26/70/169 38/108/170 42/112/171 41/74/172
f 35/2/173 43/7/174 42/8/175 38/3/176
f 44/106/177 43/105/178 35/113/179 7/114/180
f 45/47/181 44/46/182 7/115/183 15/116/184
f 46/68/185 45/67/186 15/63/187 23/64/188
f 41/74/189 46/68/190 23/64/191 26/70/192
f 4/117/193 31/118/194 48/84/195 47/83/196
f 31/11/197 37/9/198 49/13/199 48/12/200
f 50/72/201 49/110/202 37/107/203 25/69/204
f 19/54/205 51/58/206 50/72/207 25/69/208
f 11/53/209 52/55/210 51/58/211 19/54/212
f 4/119/213 47/26/214 52/25/215 11/120/216
f 53/121/217 54/122/218 56/123/219 55/124/220
f 55/124/221 56/123/222 58/125/223 57/126/224
f 57/126/225 58/125/226 60/127/227 59/128/228
f 59/128/229 60/127/230 54/129/231 53/130/232
f 54/122/233 60/131/234 58/132/235 56/123/236
f 61/133/237 62/134/238 64/135/239 63/136/240
f 63/136/241 64/135/242 66/137/243 65/138/244
f 65/138/245 66/137/246 68/139/247 67/140/248
f 67/140/249 68/139/250 62/141/251 61/142/252
f 62/134/253 68/143/254 66/144/255 64/135/256
f 69/145/257 70/146/258 72/147/259 71/148/260
f 71/148/261 72/147/262 74/149/263 73/150/264
f 73/150/265 74/149/266 76/151/267 75/152/268
f 75/152/269 76/151/270 70/153/271 69/154/272
f 70/146/273 76/155/274 74/156/275 72/147/276
f 77/157/277 78/158/278 80/159/279 79/160/280
f 79/160/281 80/159/282 82/161/283 81/162/284
f 81/162/285 82/161/286 84/163/287 83/164/288
f 83/164/289 84/163/290 78/165/291 77/166/292
f 78/158/293 84/167/294 82/168/295 80/159/296
