# This file uses centimeters as units for non-parametric coordinates.

v -2.572327 -4.789982 45.285187
v 2.976990 -5.363379 45.318146
v -1.159363 0.110779 44.528046
v 2.604065 -0.278015 44.550629
v -0.412903 4.616976 -40.452576
v 3.351746 4.228001 -40.430145
v -2.116394 -3.361454 -44.206543
v 3.432922 -3.934822 -44.173279
v 3.785095 8.496161 -1.168365
v 0.019836 8.885174 -1.190796
v -1.903381 -0.992708 -1.160583
v 3.645935 -1.566048 -1.127319
v 1.022034 2.700920 42.605133
v 2.500916 14.395971 -2.782745
v 1.892395 8.490849 -40.767365
v 1.904602 10.689697 32.983551
v -0.594177 4.901066 32.648315
v -2.422791 -3.940439 34.894714
v 3.126526 -4.513874 34.927673
v 3.171082 4.512033 32.670746
v 1.457825 5.597715 19.740295
v -0.659485 3.526583 19.859924
v -2.181091 -2.566137 18.085175
v 3.368835 -3.139610 18.118134
v 3.105164 3.137569 19.882355
v 1.787415 7.718163 1.318970
v -0.273743 6.173029 0.856476
v -1.952820 -1.273422 2.272491
v 3.596497 -1.846762 2.305756
v 3.491516 5.783978 0.878906
v 1.798401 6.642132 -19.239349
v -0.319519 4.571056 -19.119873
v -1.985779 -2.772007 -18.148499
v 3.563538 -3.345404 -18.115540
v 3.445740 4.181967 -19.097290
v 2.228088 12.125673 -34.112396
v -0.152283 7.560854 -33.172455
v -2.071228 -2.391977 -34.949951
v 3.478088 -2.965374 -34.916992
v 3.612366 7.171822 -33.149872
v -7.559509 -13.422842 48.588104
v 6.889343 -14.915819 48.674164
v -4.670715 -4.263639 46.079865
v 5.131531 -5.276518 46.138306
v -4.214783 -2.926731 -44.996185
v 5.588074 -3.939562 -44.937592
v -7.103577 -14.984436 -46.362610
v 7.345886 -16.477375 -46.276245
v 5.801697 -1.526022 -1.117096
v -4.001160 -0.513182 -1.175537
v -6.889954 -12.457056 -0.571594
v 7.559509 -13.949986 -0.485535
vt 0.093726 0.087318
vt 0.093726 0.087318
vt 0.093726 0.087318
vt 0.093726 0.087318
vt 0.093726 0.087318
vt 0.093726 0.087318
vt 0.093726 0.087318
vt 0.093726 0.087318
vt 0.093726 0.087318
vt 0.093726 0.087318
vt 0.093726 0.087318
vt 0.093726 0.087318
vt 0.093726 0.087318
vt 0.093726 0.087318
vt 0.093726 0.087318
vt 0.093726 0.087318
vt 0.093726 0.087318
vt 0.093726 0.087318
vt 0.093726 0.087318
vt 0.093726 0.087318
vt 0.093726 0.087318
vt 0.093726 0.087318
vt 0.093726 0.087318
vt 0.093726 0.087318
vt 0.093726 0.087318
vt 0.093726 0.087318
vt 0.093726 0.087318
vt 0.093726 0.087318
vt 0.093726 0.087318
vt 0.090515 0.117758
vt 0.090515 0.117758
vt 0.090515 0.117758
vt 0.090515 0.117758
vt 0.090515 0.117758
vt 0.090515 0.117758
vt 0.090515 0.117758
vt 0.090515 0.117758
vt 0.090515 0.117758
vt 0.090515 0.117758
vt 0.093726 0.087318
vt 0.090515 0.117758
vt 0.090515 0.117758
vt 0.090515 0.117758
vt 0.090515 0.117758
vt 0.093726 0.087318
vt 0.093726 0.087318
vt 0.093726 0.087318
vt 0.093726 0.087318
vt 0.093726 0.087318
vt 0.093726 0.087318
vt 0.090515 0.117758
vt 0.090515 0.117758
vt 0.090515 0.117758
vt 0.093726 0.087318
vt 0.093726 0.087318
vt 0.093726 0.087318
vt 0.093726 0.087318
vt 0.093726 0.087318
vt 0.093726 0.087318
vt 0.090515 0.117758
vt 0.090515 0.117758
vt 0.090515 0.117758
vt 0.093726 0.087318
vt 0.093726 0.087318
vt 0.093726 0.087318
vt 0.093726 0.087318
vt 0.093726 0.087318
vt 0.093726 0.087318
vt 0.090515 0.117758
vt 0.090515 0.117758
vt 0.090515 0.117758
vt 0.093726 0.087318
vt 0.093726 0.087318
vt 0.093726 0.087318
vt 0.093726 0.087318
vt 0.090515 0.117758
vt 0.081443 0.085716
vt 0.081443 0.085716
vt 0.081443 0.085716
vt 0.081443 0.085716
vt 0.081443 0.085716
vt 0.081443 0.085716
vt 0.081443 0.085716
vt 0.081443 0.085716
vt 0.081443 0.085716
vt 0.081443 0.085716
vt 0.081443 0.085716
vt 0.081443 0.085716
vt 0.081443 0.085716
vt 0.081443 0.085716
vt 0.081443 0.085716
vt 0.081443 0.085716
vt 0.081443 0.085716
vt 0.081443 0.085716
vt 0.081443 0.085716
vt 0.081443 0.085716
vt 0.081443 0.085716
vt 0.081443 0.085716
vn 0.009596 0.149945 0.988648
vn 0.009596 0.149945 0.988648
vn 0.009596 0.149945 0.988648
vn 0.009596 0.149945 0.988648
vn 0.048487 0.416739 -0.907732
vn 0.048487 0.416739 -0.907732
vn 0.048487 0.416739 -0.907732
vn 0.048487 0.416739 -0.907732
vn -0.101949 -0.991361 -0.082519
vn -0.101949 -0.991361 -0.082519
vn -0.101948 -0.991361 -0.082521
vn -0.101948 -0.991361 -0.082521
vn 0.998684 0.031855 0.040200
vn 0.999464 0.023194 0.023100
vn 0.999704 0.019127 0.015072
vn 0.998684 0.031855 0.040200
vn -0.973808 0.227092 0.011324
vn -0.971490 0.235372 0.028429
vn -0.971489 0.235372 0.028429
vn -0.974772 0.223177 0.003295
vn -0.979281 0.202456 -0.004611
vn -0.979006 0.203366 -0.013778
vn -0.978996 0.203041 -0.018457
vn -0.979297 0.202419 -0.002000
vn -0.102934 -0.993826 0.041402
vn -0.102935 -0.993804 0.041935
vn -0.102931 -0.992009 0.072964
vn -0.102931 -0.992009 0.072966
vn 0.999977 -0.001541 -0.006631
vn 0.999997 -0.001213 -0.001928
vn 0.999984 -0.001523 -0.005477
vn 0.999988 -0.001470 -0.004596
vn 0.053511 0.565786 0.822814
vn 0.053511 0.565786 0.822814
vn 0.053511 0.565786 0.822814
vn 0.908993 0.328518 0.256529
vn 0.941647 0.329177 0.070307
vn 0.943471 0.328370 0.045112
vn 0.908993 0.328518 0.256529
vn -0.855201 0.514859 0.059592
vn -0.825551 0.507786 0.246210
vn -0.825551 0.507786 0.246210
vn -0.856857 0.514408 0.034368
vn 0.943556 0.302552 -0.134774
vn 0.939537 0.341205 -0.029148
vn 0.939090 0.342796 -0.024523
vn 0.943556 0.302552 -0.134774
vn -0.002289 -0.079639 -0.996821
vn -0.002289 -0.079639 -0.996821
vn -0.002289 -0.079639 -0.996821
vn -0.848843 0.527931 -0.027471
vn -0.860125 0.488886 -0.145517
vn -0.860125 0.488886 -0.145517
vn -0.848337 0.528906 -0.024161
vn -0.779436 0.626056 -0.023076
vn -0.855201 0.514859 0.059592
vn -0.856857 0.514408 0.034368
vn -0.778601 0.627125 -0.022253
vn -0.974320 0.225154 0.002663
vn -0.973808 0.227092 0.011324
vn -0.974772 0.223177 0.003295
vn -0.974676 0.223623 0.000645
vn -0.101944 -0.991362 -0.082519
vn -0.101944 -0.991362 -0.082519
vn -0.101949 -0.991361 -0.082519
vn -0.101949 -0.991361 -0.082519
vn 0.999704 0.019127 0.015072
vn 0.999464 0.023194 0.023100
vn 0.999672 0.021153 0.014411
vn 0.999732 0.019572 0.012399
vn 0.943471 0.328370 0.045112
vn 0.941647 0.329177 0.070307
vn 0.891289 0.453245 -0.013131
vn 0.890683 0.454458 -0.012319
vn -0.663651 0.725792 0.181091
vn -0.779436 0.626056 -0.023076
vn -0.778601 0.627125 -0.022253
vn -0.664911 0.710542 0.230268
vn -0.973750 0.227189 0.014015
vn -0.974320 0.225154 0.002663
vn -0.974676 0.223623 0.000645
vn -0.974491 0.223401 0.021409
vn -0.101937 -0.991362 -0.082522
vn -0.101937 -0.991362 -0.082522
vn -0.101944 -0.991362 -0.082519
vn -0.101944 -0.991362 -0.082519
vn 0.999732 0.019572 0.012399
vn 0.999672 0.021153 0.014411
vn 0.999396 0.023299 0.025796
vn 0.999257 0.019448 0.033265
vn 0.890683 0.454458 -0.012319
vn 0.891289 0.453245 -0.013131
vn 0.796075 0.574676 0.189768
vn 0.793598 0.559558 0.238950
vn -0.592998 0.484667 0.643001
vn -0.663651 0.725792 0.181091
vn -0.664911 0.710542 0.230268
vn -0.592998 0.484667 0.643001
vn -0.979006 0.203366 -0.013778
vn -0.973750 0.227189 0.014015
vn -0.974491 0.223401 0.021409
vn -0.978996 0.203041 -0.018457
vn -0.102931 -0.992009 0.072966
vn -0.102931 -0.992009 0.072964
vn -0.101937 -0.991362 -0.082522
vn -0.101937 -0.991362 -0.082522
vn 0.999257 0.019448 0.033265
vn 0.999396 0.023299 0.025796
vn 0.999997 -0.001213 -0.001928
vn 0.999977 -0.001541 -0.006631
vn 0.793598 0.559558 0.238950
vn 0.796075 0.574676 0.189768
vn 0.672076 0.353867 0.650455
vn 0.672076 0.353867 0.650455
vn -0.842721 0.537450 0.031138
vn -0.848843 0.527931 -0.027471
vn -0.848337 0.528906 -0.024161
vn -0.848059 0.529845 0.007761
vn -0.978942 0.204136 -0.000719
vn -0.979281 0.202456 -0.004611
vn -0.979297 0.202419 -0.002000
vn -0.979077 0.203381 0.006725
vn -0.102889 -0.994421 0.023256
vn -0.102887 -0.994432 0.022766
vn -0.102935 -0.993804 0.041935
vn -0.102934 -0.993826 0.041402
vn 0.999988 -0.001470 -0.004596
vn 0.999984 -0.001523 -0.005477
vn 0.999981 0.000522 -0.006164
vn 0.999996 -0.000053 -0.002977
vn 0.939090 0.342796 -0.024523
vn 0.939537 0.341205 -0.029148
vn 0.935825 0.351635 0.024187
vn 0.939460 0.342654 0.001537
vn -0.871244 0.457216 -0.178568
vn -0.842721 0.537450 0.031138
vn -0.848059 0.529845 0.007761
vn -0.871244 0.457216 -0.178568
vn -0.977835 0.207079 -0.030923
vn -0.978942 0.204136 -0.000719
vn -0.979077 0.203381 0.006725
vn -0.977835 0.207079 -0.030923
vn -0.102834 -0.989235 0.104108
vn -0.102834 -0.989235 0.104108
vn -0.102887 -0.994432 0.022766
vn -0.102889 -0.994421 0.023256
vn 0.999996 -0.000053 -0.002977
vn 0.999981 0.000522 -0.006164
vn 0.999812 0.002870 -0.019167
vn 0.999812 0.002870 -0.019167
vn 0.939460 0.342654 0.001537
vn 0.935825 0.351635 0.024187
vn 0.948452 0.268994 -0.167575
vn 0.948452 0.268994 -0.167575
vn 0.020896 0.257928 0.965938
vn 0.020896 0.257928 0.965938
vn 0.020896 0.257928 0.965938
vn 0.020896 0.257928 0.965938
vn 0.101976 0.991553 0.080141
vn 0.101976 0.991554 0.080141
vn 0.102675 0.994599 0.015223
vn 0.102676 0.994602 0.015004
vn 0.017154 0.108528 -0.993945
vn 0.017154 0.108528 -0.993945
vn 0.017154 0.108528 -0.993945
vn 0.017154 0.108528 -0.993945
vn -0.102857 -0.994570 0.015854
vn -0.102857 -0.994570 0.015872
vn -0.102632 -0.994499 -0.020937
vn -0.102632 -0.994499 -0.020937
vn 0.986826 0.160339 0.021562
vn 0.988671 0.150035 0.004461
vn 0.988769 0.149410 0.003428
vn 0.986826 0.160339 0.021562
vn -0.968474 0.249074 -0.004407
vn -0.964524 0.263996 -0.000483
vn -0.964524 0.263996 -0.000483
vn -0.968708 0.248159 -0.004647
vn 0.102676 0.994602 0.015004
vn 0.102675 0.994599 0.015223
vn 0.102943 0.993154 -0.055203
vn 0.102943 0.993154 -0.055203
vn -0.972136 0.234273 -0.008282
vn -0.968474 0.249074 -0.004407
vn -0.968708 0.248159 -0.004647
vn -0.972136 0.234273 -0.008282
vn -0.102943 -0.993149 0.055296
vn -0.102943 -0.993149 0.055296
vn -0.102857 -0.994570 0.015872
vn -0.102857 -0.994570 0.015854
vn 0.988769 0.149410 0.003428
vn 0.988671 0.150035 0.004461
vn 0.990102 0.139798 -0.012429
vn 0.990102 0.139798 -0.012429
s off
f 1/1/1 2/2/2 4/3/3 3/4/4
f 5/5/5 6/6/6 8/7/7 7/8/8
f 18/9/9 19/10/10 2/11/11 1/12/12
f 2/2/13 19/13/14 20/14/15 4/3/16
f 18/15/17 1/1/18 3/4/19 17/16/20
f 33/17/21 11/18/22 10/19/23 32/20/24
f 33/21/25 34/22/26 12/23/27 11/24/28
f 9/25/29 12/26/30 34/27/31 35/28/32
f 3/4/33 4/3/34 13/29/35
f 4/30/36 20/31/37 16/32/38 13/33/39
f 17/34/40 3/35/41 13/33/42 16/32/43
f 9/36/44 35/37/45 31/38/46 14/39/47
f 6/6/48 5/5/49 15/40/50
f 32/41/51 10/42/52 14/39/53 31/38/54
f 22/43/55 17/34/56 16/32/57 21/44/58
f 23/45/59 18/15/60 17/16/61 22/46/62
f 23/47/63 24/48/64 19/10/65 18/9/66
f 20/14/67 19/13/68 24/49/69 25/50/70
f 16/32/71 20/31/72 25/51/73 21/44/74
f 27/52/75 22/43/76 21/44/77 26/53/78
f 28/54/79 23/45/80 22/46/81 27/55/82
f 28/56/83 29/57/84 24/48/85 23/47/86
f 25/50/87 24/49/88 29/58/89 30/59/90
f 21/44/91 25/51/92 30/60/93 26/53/94
f 10/42/95 27/52/96 26/53/97 14/39/98
f 11/18/99 28/54/100 27/55/101 10/19/102
f 11/24/103 12/23/104 29/57/105 28/56/106
f 30/59/107 29/58/108 12/26/109 9/25/110
f 26/53/111 30/60/112 9/36/113 14/39/114
f 37/61/115 32/41/116 31/38/117 36/62/118
f 38/63/119 33/17/120 32/20/121 37/64/122
f 38/65/123 39/66/124 34/22/125 33/21/126
f 35/28/127 34/27/128 39/67/129 40/68/130
f 31/38/131 35/37/132 40/69/133 36/62/134
f 5/70/135 37/61/136 36/62/137 15/71/138
f 7/72/139 38/63/140 37/64/141 5/73/142
f 7/8/143 8/7/144 39/66/145 38/65/146
f 40/68/147 39/67/148 8/74/149 6/75/150
f 36/62/151 40/69/152 6/76/153 15/71/154
f 41/77/155 42/78/156 44/79/157 43/80/158
f 43/80/159 44/79/160 49/81/161 50/82/162
f 45/83/163 46/84/164 48/85/165 47/86/166
f 51/87/167 52/88/168 42/89/169 41/90/170
f 42/78/171 52/91/172 49/92/173 44/79/174
f 51/93/175 41/77/176 43/80/177 50/94/178
f 50/82/179 49/81/180 46/84/181 45/83/182
f 47/95/183 51/93/184 50/94/185 45/96/186
f 47/86/187 48/85/188 52/88/189 51/87/190
f 49/92/191 52/91/192 48/97/193 46/98/194
