# This file uses centimeters as units for non-parametric coordinates.

v 10.069275 10.069284 1.164551
v 0.000000 14.240122 1.164551
v 0.000000 14.638433 8.644104
v 10.350952 10.350924 8.644104
v -10.069275 10.069284 1.164551
v -10.350952 10.350924 8.644104
v -14.240112 -0.000010 1.164551
v -14.638367 -0.000010 8.644104
v -10.069275 -10.069304 1.164551
v -10.350952 -10.350943 8.644104
v 0.000000 -14.240141 1.164551
v 0.000000 -14.638433 8.644104
v 10.069275 -10.069304 1.164551
v 10.350952 -10.350943 8.644104
v 14.240112 -0.000010 1.164551
v 14.638367 -0.000010 8.644104
v 8.001404 8.001280 -7.467651
v 0.000000 11.315517 -7.467651
v 0.000000 -0.000010 -11.983795
v -8.001404 8.001280 -7.467651
v -11.315613 -0.000010 -7.467651
v -8.001404 -8.001280 -7.467651
v 0.000000 -11.315527 -7.467651
v 8.001404 -8.001290 -7.467651
v 11.315613 -0.000010 -7.467651
v 6.570740 6.570902 10.145264
v 0.000000 9.292650 10.145264
v 0.000000 -0.000010 11.983643
v -6.571045 6.570902 10.145264
v -9.292603 -0.000010 10.145264
v -6.571045 -6.570902 10.145264
v 0.000000 -9.292669 10.145264
v 6.570740 -6.570910 10.145264
v 9.292603 -0.000010 10.145264
v 0.000000 12.444048 8.644104
v 8.799133 8.799276 8.644104
v -8.799133 8.799276 8.644104
v -12.444153 -0.000010 8.644104
v -8.799133 -8.799276 8.644104
v 0.000000 -12.444067 8.644104
v 8.799133 -8.799276 8.644104
v 12.444153 -0.000010 8.644104
vt 0.076800 0.081397
vt 0.076800 0.081397
vt 0.076800 0.081397
vt 0.076800 0.081397
vt 0.076800 0.081397
vt 0.076800 0.081397
vt 0.076800 0.081397
vt 0.076800 0.081397
vt 0.076800 0.081397
vt 0.076800 0.081397
vt 0.076800 0.081397
vt 0.076800 0.081397
vt 0.076800 0.081397
vt 0.076800 0.081397
vt 0.076800 0.081397
vt 0.076800 0.081397
vt 0.076800 0.081397
vt 0.076800 0.081397
vt 0.076800 0.081397
vt 0.076800 0.081397
vt 0.076800 0.081397
vt 0.076800 0.081397
vt 0.076800 0.081397
vt 0.076800 0.081397
vt 0.076800 0.081397
vt 0.076800 0.081397
vt 0.076800 0.081397
vt 0.136680 0.180638
vt 0.136680 0.180638
vt 0.136680 0.180638
vt 0.136680 0.180638
vt 0.136680 0.180638
vt 0.136680 0.180638
vt 0.136680 0.180638
vt 0.136680 0.180638
vt 0.136679 0.180638
vt 0.076800 0.081397
vt 0.076800 0.081397
vt 0.076800 0.081397
vt 0.076800 0.081397
vt 0.076800 0.081397
vt 0.076800 0.081397
vt 0.076800 0.081397
vt 0.076800 0.081397
vt 0.076800 0.081397
vt 0.076800 0.081397
vt 0.076800 0.081397
vt 0.076800 0.081397
vt 0.076800 0.081397
vt 0.076800 0.081397
vt 0.076800 0.081397
vt 0.076800 0.081397
vt 0.136680 0.180638
vt 0.136680 0.180638
vt 0.136680 0.180638
vt 0.136680 0.180638
vt 0.136680 0.180638
vt 0.136680 0.180638
vt 0.136680 0.180638
vt 0.136679 0.180638
vt 0.076800 0.081397
vt 0.076800 0.081397
vt 0.076800 0.081397
vt 0.076800 0.081397
vt 0.076800 0.081397
vt 0.076800 0.081397
vt 0.076800 0.081397
vt 0.076800 0.081397
vn 0.382222 0.922763 -0.049140
vn 0.382222 0.922763 -0.049140
vn 0.382222 0.922763 -0.049140
vn 0.382222 0.922763 -0.049140
vn -0.382222 0.922763 -0.049140
vn -0.382222 0.922763 -0.049140
vn -0.382222 0.922763 -0.049140
vn -0.382222 0.922763 -0.049140
vn -0.922765 0.382218 -0.049138
vn -0.922765 0.382218 -0.049138
vn -0.922765 0.382218 -0.049138
vn -0.922765 0.382218 -0.049138
vn -0.922765 -0.382218 -0.049138
vn -0.922765 -0.382218 -0.049138
vn -0.922765 -0.382218 -0.049138
vn -0.922765 -0.382218 -0.049138
vn -0.382221 -0.922764 -0.049139
vn -0.382221 -0.922764 -0.049139
vn -0.382221 -0.922764 -0.049139
vn -0.382221 -0.922764 -0.049139
vn 0.382221 -0.922764 -0.049139
vn 0.382221 -0.922764 -0.049139
vn 0.382221 -0.922764 -0.049139
vn 0.382221 -0.922764 -0.049139
vn 0.922765 -0.382218 -0.049138
vn 0.922765 -0.382218 -0.049138
vn 0.922765 -0.382218 -0.049138
vn 0.922765 -0.382218 -0.049138
vn 0.922765 0.382218 -0.049138
vn 0.922765 0.382218 -0.049138
vn 0.922765 0.382218 -0.049138
vn 0.922765 0.382218 -0.049138
vn 0.151759 0.366385 -0.918004
vn 0.151759 0.366385 -0.918004
vn 0.151759 0.366385 -0.918004
vn -0.151759 0.366385 -0.918004
vn -0.151759 0.366385 -0.918004
vn -0.151759 0.366385 -0.918004
vn -0.366383 0.151759 -0.918005
vn -0.366383 0.151759 -0.918005
vn -0.366383 0.151759 -0.918005
vn -0.366382 -0.151759 -0.918005
vn -0.366382 -0.151759 -0.918005
vn -0.366382 -0.151759 -0.918005
vn -0.151760 -0.366385 -0.918004
vn -0.151760 -0.366385 -0.918004
vn -0.151760 -0.366385 -0.918004
vn 0.151759 -0.366385 -0.918004
vn 0.151759 -0.366385 -0.918004
vn 0.151759 -0.366385 -0.918004
vn 0.366383 -0.151759 -0.918005
vn 0.366383 -0.151759 -0.918005
vn 0.366383 -0.151759 -0.918005
vn 0.366383 0.151759 -0.918005
vn 0.366383 0.151759 -0.918005
vn 0.366383 0.151759 -0.918005
vn 0.080130 0.193446 0.977833
vn 0.080130 0.193446 0.977833
vn 0.080130 0.193446 0.977833
vn -0.080126 0.193446 0.977834
vn -0.080126 0.193446 0.977834
vn -0.080126 0.193446 0.977834
vn -0.193447 0.080123 0.977834
vn -0.193447 0.080123 0.977834
vn -0.193447 0.080123 0.977834
vn -0.193447 -0.080123 0.977834
vn -0.193447 -0.080123 0.977834
vn -0.193447 -0.080123 0.977834
vn -0.080127 -0.193446 0.977834
vn -0.080127 -0.193446 0.977834
vn -0.080127 -0.193446 0.977834
vn 0.080130 -0.193446 0.977833
vn 0.080130 -0.193446 0.977833
vn 0.080130 -0.193446 0.977833
vn 0.193447 -0.080132 0.977833
vn 0.193447 -0.080132 0.977833
vn 0.193447 -0.080132 0.977833
vn 0.193447 0.080131 0.977833
vn 0.193447 0.080131 0.977833
vn 0.193447 0.080131 0.977833
vn 0.000000 0.000000 1.000000
vn 0.000000 0.000000 1.000000
vn 0.000000 0.000000 1.000000
vn 0.000000 0.000000 1.000000
vn 0.000000 0.000000 1.000000
vn 0.000000 0.000000 1.000000
vn 0.000000 0.000000 1.000000
vn 0.000000 0.000000 1.000000
vn -0.000000 0.000000 1.000000
vn -0.000000 0.000000 1.000000
vn -0.000000 0.000000 1.000000
vn -0.000000 0.000000 1.000000
vn 0.000000 0.000000 1.000000
vn 0.000000 0.000000 1.000000
vn 0.000000 0.000000 1.000000
vn 0.000000 0.000000 1.000000
vn -0.000000 0.000000 1.000000
vn -0.000000 0.000000 1.000000
vn -0.000000 0.000000 1.000000
vn -0.000000 0.000000 1.000000
vn 0.000000 0.000000 1.000000
vn 0.000000 0.000000 1.000000
vn 0.000000 0.000000 1.000000
vn 0.000000 0.000000 1.000000
vn -0.000000 0.000000 1.000000
vn -0.000000 0.000000 1.000000
vn -0.000000 0.000000 1.000000
vn -0.000000 0.000000 1.000000
vn 0.000000 0.000000 1.000000
vn 0.000000 0.000000 1.000000
vn 0.000000 0.000000 1.000000
vn 0.000000 0.000000 1.000000
vn 0.175374 0.423383 0.888814
vn 0.175374 0.423383 0.888814
vn 0.175374 0.423383 0.888814
vn 0.175374 0.423383 0.888814
vn -0.175374 0.423391 0.888811
vn -0.175374 0.423391 0.888811
vn -0.175374 0.423391 0.888811
vn -0.175374 0.423391 0.888811
vn -0.423391 0.175375 0.888810
vn -0.423391 0.175375 0.888810
vn -0.423391 0.175375 0.888810
vn -0.423391 0.175375 0.888810
vn -0.423391 -0.175376 0.888810
vn -0.423391 -0.175376 0.888810
vn -0.423391 -0.175376 0.888810
vn -0.423391 -0.175376 0.888810
vn -0.175375 -0.423390 0.888811
vn -0.175375 -0.423390 0.888811
vn -0.175375 -0.423390 0.888811
vn -0.175375 -0.423390 0.888811
vn 0.175375 -0.423383 0.888814
vn 0.175375 -0.423383 0.888814
vn 0.175375 -0.423383 0.888814
vn 0.175375 -0.423383 0.888814
vn 0.423372 -0.175376 0.888819
vn 0.423372 -0.175376 0.888819
vn 0.423372 -0.175376 0.888819
vn 0.423372 -0.175376 0.888819
vn 0.423372 0.175376 0.888819
vn 0.423372 0.175376 0.888819
vn 0.423372 0.175376 0.888819
vn 0.423372 0.175376 0.888819
vn 0.365209 0.881698 -0.298717
vn 0.365209 0.881698 -0.298717
vn 0.365209 0.881698 -0.298717
vn 0.365209 0.881698 -0.298717
vn -0.365209 0.881698 -0.298717
vn -0.365209 0.881698 -0.298717
vn -0.365209 0.881698 -0.298717
vn -0.365209 0.881697 -0.298717
vn -0.881700 0.365210 -0.298709
vn -0.881700 0.365210 -0.298709
vn -0.881700 0.365210 -0.298709
vn -0.881700 0.365210 -0.298709
vn -0.881700 -0.365211 -0.298709
vn -0.881700 -0.365211 -0.298709
vn -0.881700 -0.365211 -0.298709
vn -0.881700 -0.365211 -0.298709
vn -0.365209 -0.881697 -0.298719
vn -0.365209 -0.881697 -0.298719
vn -0.365209 -0.881697 -0.298719
vn -0.365209 -0.881697 -0.298719
vn 0.365209 -0.881697 -0.298718
vn 0.365209 -0.881697 -0.298718
vn 0.365209 -0.881697 -0.298718
vn 0.365209 -0.881697 -0.298718
vn 0.881700 -0.365210 -0.298709
vn 0.881700 -0.365211 -0.298709
vn 0.881700 -0.365211 -0.298709
vn 0.881700 -0.365211 -0.298709
vn 0.881700 0.365210 -0.298709
vn 0.881700 0.365210 -0.298709
vn 0.881700 0.365210 -0.298709
vn 0.881700 0.365210 -0.298709
s off
f 1/1/1 2/2/2 3/3/3 4/4/4
f 2/2/5 5/5/6 6/6/7 3/3/8
f 5/5/9 7/7/10 8/8/11 6/6/12
f 7/7/13 9/9/14 10/10/15 8/8/16
f 9/9/17 11/11/18 12/12/19 10/10/20
f 11/11/21 13/13/22 14/14/23 12/12/24
f 13/13/25 15/15/26 16/16/27 14/14/28
f 15/15/29 1/17/30 4/18/31 16/16/32
f 18/19/33 17/20/34 19/21/35
f 20/22/36 18/19/37 19/21/38
f 21/23/39 20/22/40 19/21/41
f 22/24/42 21/23/43 19/21/44
f 23/25/45 22/24/46 19/21/47
f 24/26/48 23/25/49 19/21/50
f 25/27/51 24/26/52 19/21/53
f 17/20/54 25/27/55 19/21/56
f 26/28/57 27/29/58 28/30/59
f 27/29/60 29/31/61 28/30/62
f 29/31/63 30/32/64 28/30/65
f 30/32/66 31/33/67 28/30/68
f 31/33/69 32/34/70 28/30/71
f 32/34/72 33/35/73 28/30/74
f 33/35/75 34/36/76 28/30/77
f 34/36/78 26/28/79 28/30/80
f 4/37/81 3/38/82 35/39/83 36/40/84
f 3/38/85 6/41/86 37/42/87 35/39/88
f 6/41/89 8/43/90 38/44/91 37/42/92
f 8/43/93 10/45/94 39/46/95 38/44/96
f 10/45/97 12/47/98 40/48/99 39/46/100
f 12/47/101 14/49/102 41/50/103 40/48/104
f 14/49/105 16/51/106 42/52/107 41/50/108
f 16/51/109 4/37/110 36/40/111 42/52/112
f 36/53/113 35/54/114 27/29/115 26/28/116
f 35/54/117 37/55/118 29/31/119 27/29/120
f 37/55/121 38/56/122 30/32/123 29/31/124
f 38/56/125 39/57/126 31/33/127 30/32/128
f 39/57/129 40/58/130 32/34/131 31/33/132
f 40/58/133 41/59/134 33/35/135 32/34/136
f 41/59/137 42/60/138 34/36/139 33/35/140
f 42/60/141 36/53/142 26/28/143 34/36/144
f 2/61/145 1/62/146 17/20/147 18/19/148
f 5/63/149 2/61/150 18/19/151 20/22/152
f 7/64/153 5/63/154 20/22/155 21/23/156
f 9/65/157 7/64/158 21/23/159 22/24/160
f 11/66/161 9/65/162 22/24/163 23/25/164
f 13/67/165 11/66/166 23/25/167 24/26/168
f 15/68/169 13/67/170 24/26/171 25/27/172
f 1/62/173 15/68/174 25/27/175 17/20/176
