# This file uses centimeters as units for non-parametric coordinates.

v -16.501245 4.947119 -3.364563
v -15.816784 7.687025 -3.427734
v -18.208790 9.180790 -3.589630
v -20.371952 7.364073 -3.626556
v -19.316521 4.747507 -3.487396
v -16.639786 5.050897 -0.358429
v -15.955324 7.790822 -0.421600
v -18.347633 9.284581 -0.583496
v -20.510490 7.467851 -0.620422
v -19.455063 4.851304 -0.481415
v -18.181961 6.889101 -0.493011
v 17.449770 5.380549 -1.813965
v 19.364014 7.457843 -1.797638
v 17.983788 9.917976 -1.945953
v 15.216322 9.361124 -2.054291
v 14.886560 6.556858 -1.972809
v 17.310925 5.484322 1.192169
v 19.225471 7.561628 1.208649
v 17.845249 10.021763 1.060181
v 15.077782 9.464922 0.951691
v 14.747715 6.660629 1.033325
v 16.841431 7.838670 1.089020
v 5.524883 -0.694821 2.355499
v 5.854139 3.816756 0.188751
v 2.550268 7.158433 -1.565094
v -2.451172 7.372746 -1.878510
v -6.220245 4.334120 -0.567932
v -6.549501 -0.177457 1.598969
v -3.245630 -3.519143 3.352661
v 1.755810 -3.733429 3.666077
v 5.417929 0.536312 4.902802
v 5.746880 5.047883 2.735901
v 2.443314 8.389574 0.982361
v -2.557821 8.603867 0.668793
v -6.327200 5.565252 1.979370
v -6.656151 1.053681 4.146118
v -3.352585 -2.288021 5.899963
v 1.648846 -2.502315 6.213379
v 4.188786 -0.122726 2.022858
v 4.442997 3.362348 0.349121
v 1.890688 5.943731 -1.005402
v -1.972504 6.109256 -1.247711
v -4.884148 3.762025 -0.235291
v -5.138359 0.276951 1.438599
v -2.586050 -2.304424 2.793274
v 1.277142 -2.469957 3.035278
v 4.416037 -2.739395 -3.390961
v 4.670248 0.745679 -5.064697
v -0.120735 -0.797025 -4.519958
v 2.117939 3.327073 -6.419373
v -1.745253 3.492587 -6.661530
v -4.656887 1.145356 -5.649109
v -4.911098 -2.339725 -3.975372
v -2.359104 -4.921107 -2.620697
v 1.504393 -5.086626 -2.378540
v 4.253225 1.514355 5.653381
v 4.519205 5.164125 3.900452
v -0.497761 3.548522 4.470825
v 1.846409 7.867489 2.481689
v -2.199469 8.040863 2.228241
v -5.248756 5.582680 3.288422
v -5.515032 1.932887 5.041046
v -2.841930 -0.770471 6.459961
v 1.203938 -0.943837 6.713562
v -4.051352 0.712308 4.984589
v -4.590330 -0.776596 4.409332
v 3.769608 2.922165 4.674377
v 5.536251 1.581624 4.266357
v 5.709896 1.840065 1.138153
v 5.741520 4.221276 3.135376
v 5.022631 2.600622 3.670044
v -15.455790 -8.644217 -2.847137
v -16.402130 -5.986155 -2.982330
v -19.222717 -6.069427 -3.109894
v -20.019474 -8.778936 -3.052521
v -17.691517 -10.370274 -2.890930
v -15.594330 -8.540419 0.158997
v -16.540670 -5.882358 0.023804
v -19.361259 -5.965649 -0.103760
v -20.158012 -8.675138 -0.046539
v -17.830055 -10.266468 0.115356
v -17.897232 -7.866007 0.029602
v -21.934547 -12.986694 -5.998077
v -21.346405 -11.740606 -2.544098
v -22.606659 11.098751 -6.860352
v -21.957214 10.137424 -3.327332
v 21.944550 12.414032 -4.851227
v 21.037285 11.406764 -1.388550
v 22.616978 -11.671400 -3.988800
v 22.145508 -11.087547 -2.342377
v -15.587873 10.325479 -3.040161
v -1.995029 10.726774 -2.427063
v -8.175611 11.124776 -4.780731
v -9.549398 7.956152 -2.679901
v 6.898766 -10.906736 -1.270447
v 21.389320 -1.209770 -0.936890
v 17.943420 -8.069870 -0.858765
v 18.992004 -8.660760 -1.257935
v 19.437439 -5.872288 -1.333618
v 16.925011 -4.591152 -1.493988
v 14.926796 -6.587831 -1.517334
v 16.204615 -9.102955 -1.371002
v 18.853462 -8.556963 1.748199
v 19.298897 -5.768509 1.672363
v 16.786165 -4.487380 1.512146
v 14.788256 -6.484035 1.488800
v 16.066074 -8.999177 1.635132
v 17.158632 -6.859217 1.611023
vt 0.080316 0.083880
vt 0.080316 0.083880
vt 0.080316 0.083880
vt 0.080316 0.083880
vt 0.080316 0.083880
vt 0.080316 0.083880
vt 0.080316 0.083880
vt 0.080316 0.083880
vt 0.080316 0.083880
vt 0.080316 0.083880
vt 0.080316 0.083880
vt 0.080316 0.083880
vt 0.080316 0.083880
vt 0.080316 0.083880
vt 0.080316 0.083880
vt 0.080316 0.083880
vt 0.080316 0.083880
vt 0.080316 0.083880
vt 0.080316 0.083880
vt 0.080316 0.083880
vt 0.080316 0.083880
vt 0.080316 0.083880
vt 0.080316 0.083880
vt 0.080316 0.083880
vt 0.080316 0.083880
vt 0.080316 0.083880
vt 0.080316 0.083880
vt 0.080316 0.083880
vt 0.080316 0.083880
vt 0.080316 0.083880
vt 0.080316 0.083880
vt 0.080316 0.083880
vt 0.080316 0.083880
vt 0.080316 0.083880
vt 0.080316 0.083880
vt 0.080316 0.083880
vt 0.090665 0.277764
vt 0.090665 0.277764
vt 0.090665 0.277764
vt 0.090665 0.277764
vt 0.090665 0.277764
vt 0.090665 0.277764
vt 0.090665 0.277764
vt 0.090665 0.277764
vt 0.090665 0.277764
vt 0.090665 0.277764
vt 0.090665 0.277764
vt 0.090665 0.277764
vt 0.090665 0.277764
vt 0.090665 0.277764
vt 0.090665 0.277764
vt 0.090665 0.277764
vt 0.090665 0.277764
vt 0.090665 0.277764
vt 0.090665 0.277764
vt 0.090665 0.277764
vt 0.090665 0.277764
vt 0.090665 0.277764
vt 0.090665 0.277764
vt 0.090665 0.277764
vt 0.090665 0.277764
vt 0.090665 0.277764
vt 0.090665 0.277764
vt 0.090665 0.277764
vt 0.090665 0.277764
vt 0.090665 0.277764
vt 0.090665 0.277764
vt 0.090665 0.277764
vt 0.090665 0.277764
vt 0.090665 0.277764
vt 0.090665 0.277764
vt 0.090665 0.277764
vt 0.090665 0.277764
vt 0.090665 0.277764
vt 0.090665 0.277764
vt 0.090665 0.277764
vt 0.090665 0.277764
vt 0.090665 0.277764
vt 0.090665 0.277764
vt 0.090665 0.277764
vt 0.090665 0.277764
vt 0.090665 0.277764
vt 0.090665 0.277764
vt 0.090665 0.277764
vt 0.090665 0.277764
vt 0.090665 0.277764
vt 0.090665 0.277764
vt 0.090665 0.277764
vt 0.090665 0.277764
vt 0.090665 0.277764
vt 0.090665 0.277764
vt 0.090665 0.277764
vt 0.090665 0.277764
vt 0.090665 0.277764
vt 0.090665 0.277764
vt 0.090665 0.277764
vt 0.090665 0.277764
vt 0.090665 0.277764
vt 0.090665 0.277764
vt 0.090665 0.277764
vt 0.090665 0.277764
vt 0.090665 0.277764
vt 0.090665 0.277764
vt 0.090665 0.277764
vt 0.090665 0.277764
vt 0.090665 0.277764
vt 0.090665 0.277764
vt 0.090665 0.277764
vt 0.080316 0.083880
vt 0.080316 0.083880
vt 0.080316 0.083880
vt 0.080316 0.083880
vt 0.080316 0.083880
vt 0.080316 0.083880
vt 0.080316 0.083880
vt 0.080316 0.083880
vt 0.080316 0.083880
vt 0.080316 0.083880
vt 0.080316 0.083880
vt 0.080316 0.083880
vt 0.080316 0.083880
vt 0.080316 0.083880
vt 0.080316 0.083880
vt 0.080316 0.083880
vt 0.080316 0.083880
vt 0.080316 0.083880
vt 0.081879 0.133797
vt 0.081879 0.133797
vt 0.081879 0.133797
vt 0.081879 0.133797
vt 0.081879 0.133797
vt 0.081879 0.133797
vt 0.081879 0.133797
vt 0.081879 0.133797
vt 0.081879 0.133797
vt 0.081879 0.133797
vt 0.081879 0.133797
vt 0.081879 0.133797
vt 0.081879 0.133797
vt 0.081879 0.133797
vt 0.081878 0.133797
vt 0.081878 0.133797
vt 0.081878 0.133797
vt 0.081879 0.133797
vt 0.081879 0.133797
vt 0.081879 0.133797
vt 0.081879 0.133797
vt 0.081878 0.133797
vt 0.081879 0.133797
vt 0.081879 0.133797
vt 0.080316 0.083880
vt 0.080316 0.083880
vt 0.080316 0.083880
vt 0.080316 0.083880
vt 0.080316 0.083880
vt 0.080316 0.083880
vt 0.080316 0.083880
vt 0.080316 0.083880
vt 0.080316 0.083880
vt 0.080316 0.083880
vt 0.080316 0.083880
vt 0.080316 0.083880
vt 0.080316 0.083880
vt 0.080316 0.083880
vt 0.080316 0.083880
vt 0.080316 0.083880
vt 0.080316 0.083880
vt 0.080316 0.083880
vn 0.969110 -0.240873 0.052978
vn 0.969110 -0.240873 0.052978
vn 0.969110 -0.240873 0.052978
vn 0.969110 -0.240873 0.052978
vn 0.529887 0.848054 -0.004834
vn 0.529887 0.848054 -0.004834
vn 0.529887 0.848054 -0.004834
vn 0.529887 0.848054 -0.004834
vn -0.641579 0.765009 -0.056011
vn -0.641579 0.765009 -0.056011
vn -0.641579 0.765009 -0.056011
vn -0.641579 0.765009 -0.056011
vn -0.926437 -0.375274 -0.029740
vn -0.926437 -0.375274 -0.029740
vn -0.926437 -0.375274 -0.029740
vn -0.926437 -0.375274 -0.029740
vn 0.069039 -0.996905 0.037601
vn 0.069039 -0.996905 0.037601
vn 0.069039 -0.996905 0.037601
vn 0.069039 -0.996905 0.037601
vn -0.046024 0.034481 0.998345
vn -0.045997 0.034518 0.998345
vn -0.046031 0.034495 0.998344
vn -0.045997 0.034518 0.998345
vn -0.046023 0.034528 0.998343
vn -0.046031 0.034495 0.998344
vn -0.046023 0.034528 0.998343
vn -0.046054 0.034492 0.998343
vn -0.046031 0.034495 0.998344
vn -0.046054 0.034492 0.998343
vn -0.046059 0.034456 0.998344
vn -0.046031 0.034495 0.998344
vn -0.046059 0.034456 0.998344
vn -0.046024 0.034481 0.998345
vn -0.046031 0.034495 0.998344
vn 0.733923 -0.676818 0.057225
vn 0.733922 -0.676818 0.057225
vn 0.733922 -0.676818 0.057225
vn 0.733923 -0.676818 0.057225
vn 0.871287 0.490225 0.023229
vn 0.871287 0.490225 0.023229
vn 0.871287 0.490225 0.023229
vn 0.871287 0.490225 0.023229
vn -0.195464 0.979775 -0.042838
vn -0.195464 0.979775 -0.042838
vn -0.195464 0.979775 -0.042838
vn -0.195464 0.979775 -0.042838
vn -0.992088 0.115269 -0.049752
vn -0.992088 0.115269 -0.049752
vn -0.992088 0.115269 -0.049752
vn -0.992088 0.115269 -0.049752
vn -0.417683 -0.908513 0.012070
vn -0.417683 -0.908513 0.012070
vn -0.417683 -0.908513 0.012070
vn -0.417682 -0.908513 0.012070
vn -0.046043 0.034558 0.998342
vn -0.046090 0.034468 0.998343
vn -0.046038 0.034467 0.998345
vn -0.046090 0.034468 0.998343
vn -0.046076 0.034375 0.998346
vn -0.046038 0.034467 0.998345
vn -0.046076 0.034375 0.998346
vn -0.046002 0.034417 0.998348
vn -0.046038 0.034467 0.998345
vn -0.046002 0.034417 0.998348
vn -0.045979 0.034518 0.998346
vn -0.046038 0.034467 0.998345
vn -0.045979 0.034518 0.998346
vn -0.046043 0.034558 0.998342
vn -0.046038 0.034467 0.998345
vn 0.898271 -0.289339 0.330745
vn 0.898271 -0.289339 0.330745
vn 0.898271 -0.289339 0.330745
vn 0.751473 0.605851 -0.261216
vn 0.751473 0.605851 -0.261216
vn 0.751473 0.605851 -0.261216
vn 0.751473 0.605851 -0.261216
vn 0.065620 0.899498 -0.431970
vn 0.065620 0.899498 -0.431970
vn 0.065620 0.899498 -0.431970
vn 0.065620 0.899498 -0.431970
vn -0.658681 0.666260 -0.349624
vn -0.658681 0.666260 -0.349624
vn -0.658681 0.666260 -0.349624
vn -0.658681 0.666260 -0.349624
vn -0.997132 0.042737 -0.062464
vn -0.997132 0.042737 -0.062464
vn -0.997132 0.042737 -0.062464
vn -0.997132 0.042737 -0.062464
vn -0.846104 -0.492961 0.202725
vn -0.846104 -0.492961 0.202724
vn -0.846104 -0.492961 0.202725
vn -0.065609 -0.899496 0.431974
vn -0.065609 -0.899496 0.431974
vn -0.065609 -0.899496 0.431974
vn -0.065609 -0.899496 0.431974
vn 0.658694 -0.666232 0.349651
vn 0.658694 -0.666232 0.349651
vn 0.658694 -0.666232 0.349651
vn 0.658694 -0.666232 0.349651
vn 0.037723 -0.434847 -0.899714
vn 0.037723 -0.434847 -0.899714
vn 0.037723 -0.434847 -0.899714
vn 0.037725 -0.434854 -0.899711
vn 0.037725 -0.434853 -0.899711
vn 0.037725 -0.434854 -0.899711
vn 0.037765 -0.434870 -0.899701
vn 0.037765 -0.434870 -0.899701
vn 0.037765 -0.434870 -0.899701
vn 0.037740 -0.434878 -0.899698
vn 0.037740 -0.434878 -0.899698
vn 0.037740 -0.434878 -0.899698
vn 0.037757 -0.434848 -0.899712
vn 0.037757 -0.434848 -0.899712
vn 0.037757 -0.434848 -0.899712
vn 0.037753 -0.434837 -0.899718
vn 0.037753 -0.434837 -0.899718
vn 0.037753 -0.434837 -0.899718
vn 0.037763 -0.434841 -0.899715
vn 0.037763 -0.434841 -0.899715
vn 0.037763 -0.434841 -0.899715
vn 0.037718 -0.434856 -0.899710
vn 0.037718 -0.434856 -0.899710
vn 0.037718 -0.434856 -0.899710
vn 0.046525 0.581035 0.812548
vn 0.046525 0.581035 0.812548
vn 0.046525 0.581035 0.812548
vn -0.037749 0.434857 0.899708
vn -0.037749 0.434857 0.899708
vn -0.037749 0.434857 0.899708
vn -0.037727 0.434847 0.899714
vn -0.037727 0.434847 0.899714
vn -0.037727 0.434847 0.899714
vn -0.037736 0.434845 0.899715
vn -0.037736 0.434845 0.899714
vn -0.037736 0.434845 0.899715
vn -0.037757 0.434805 0.899733
vn -0.037757 0.434805 0.899733
vn -0.037757 0.434805 0.899733
vn 0.092148 0.064539 0.993652
vn 0.092148 0.064539 0.993652
vn 0.092148 0.064539 0.993652
vn -0.037761 0.434860 0.899706
vn -0.037761 0.434860 0.899706
vn -0.037761 0.434860 0.899706
vn -0.037754 0.434862 0.899705
vn -0.037754 0.434862 0.899705
vn -0.037754 0.434862 0.899705
vn 0.037815 -0.434854 -0.899707
vn 0.037815 -0.434854 -0.899707
vn 0.037815 -0.434854 -0.899707
vn 0.037815 -0.434854 -0.899707
vn 0.037815 -0.434854 -0.899707
vn 0.037688 -0.434889 -0.899695
vn 0.037688 -0.434889 -0.899695
vn 0.037688 -0.434889 -0.899695
vn 0.037688 -0.434889 -0.899695
vn 0.037763 -0.434944 -0.899665
vn 0.037763 -0.434944 -0.899665
vn 0.037763 -0.434944 -0.899665
vn 0.037763 -0.434944 -0.899665
vn 0.037760 -0.434888 -0.899692
vn 0.037760 -0.434888 -0.899692
vn 0.037760 -0.434888 -0.899692
vn 0.037760 -0.434888 -0.899692
vn 0.037788 -0.434880 -0.899695
vn 0.037788 -0.434880 -0.899695
vn 0.037788 -0.434880 -0.899695
vn 0.037788 -0.434880 -0.899695
vn 0.037765 -0.434827 -0.899722
vn 0.037765 -0.434827 -0.899722
vn 0.037765 -0.434827 -0.899722
vn 0.037765 -0.434827 -0.899722
vn 0.037740 -0.434853 -0.899710
vn 0.037740 -0.434853 -0.899710
vn 0.037740 -0.434853 -0.899710
vn 0.037740 -0.434853 -0.899710
vn 0.037761 -0.434891 -0.899691
vn 0.037761 -0.434891 -0.899691
vn 0.037761 -0.434891 -0.899691
vn 0.037761 -0.434891 -0.899691
vn 0.997130 -0.042716 0.062502
vn 0.997130 -0.042716 0.062502
vn 0.997130 -0.042716 0.062502
vn 0.997130 -0.042716 0.062502
vn 0.751439 0.605863 -0.261286
vn 0.751439 0.605863 -0.261286
vn 0.751439 0.605863 -0.261286
vn 0.751439 0.605863 -0.261286
vn 0.065626 0.899488 -0.431989
vn 0.065626 0.899488 -0.431989
vn 0.065626 0.899488 -0.431989
vn 0.065626 0.899488 -0.431989
vn -0.658678 0.666242 -0.349665
vn -0.658678 0.666242 -0.349665
vn -0.658678 0.666242 -0.349665
vn -0.658678 0.666242 -0.349665
vn -0.997130 0.042715 -0.062502
vn -0.997130 0.042715 -0.062502
vn -0.997130 0.042715 -0.062502
vn -0.997130 0.042715 -0.062502
vn -0.751462 -0.605833 0.261289
vn -0.751462 -0.605833 0.261289
vn -0.751462 -0.605833 0.261289
vn -0.751462 -0.605833 0.261289
vn -0.065608 -0.899487 0.431993
vn -0.065608 -0.899487 0.431993
vn -0.065608 -0.899487 0.431993
vn -0.065608 -0.899487 0.431993
vn 0.658677 -0.666243 0.349665
vn 0.658677 -0.666243 0.349665
vn 0.658677 -0.666243 0.349665
vn 0.658677 -0.666243 0.349665
vn 0.622503 -0.018006 0.782410
vn 0.622503 -0.018006 0.782410
vn 0.622503 -0.018006 0.782410
vn 0.501783 0.735222 0.455699
vn 0.501784 0.735222 0.455700
vn 0.501784 0.735222 0.455699
vn 0.501784 0.735222 0.455700
vn 0.019322 0.941804 0.335608
vn 0.019322 0.941804 0.335608
vn 0.019322 0.941804 0.335608
vn 0.019322 0.941804 0.335608
vn -0.490185 0.777761 0.393455
vn -0.490185 0.777761 0.393454
vn -0.490185 0.777761 0.393455
vn -0.490185 0.777761 0.393455
vn -0.728292 0.339091 0.595490
vn -0.728292 0.339091 0.595490
vn -0.728292 0.339091 0.595490
vn -0.728292 0.339091 0.595490
vn -0.760824 0.020698 0.648629
vn -0.760824 0.020698 0.648629
vn -0.760824 0.020698 0.648629
vn -0.760824 0.020698 0.648629
vn -0.072989 -0.323584 0.943380
vn -0.072989 -0.323584 0.943380
vn -0.072989 -0.323584 0.943380
vn -0.072989 -0.323584 0.943380
vn 0.436526 -0.159596 0.885423
vn 0.436526 -0.159596 0.885423
vn 0.436526 -0.159596 0.885423
vn 0.436526 -0.159596 0.885423
vn -0.328031 -0.319242 0.889089
vn -0.328031 -0.319242 0.889089
vn -0.328031 -0.319242 0.889089
vn -0.328031 -0.319242 0.889089
vn -0.712840 -0.595839 0.369912
vn -0.712840 -0.595839 0.369912
vn -0.712840 -0.595839 0.369912
vn -0.712840 -0.595839 0.369912
vn -0.310151 0.531395 0.788306
vn -0.310151 0.531395 0.788306
vn -0.310151 0.531395 0.788306
vn 0.627386 0.491288 0.604172
vn 0.627386 0.491288 0.604171
vn 0.627386 0.491288 0.604172
vn 0.627386 0.491288 0.604171
vn 0.996815 -0.054134 0.058561
vn 0.996815 -0.054134 0.058561
vn 0.996815 -0.054134 0.058561
vn 0.996815 -0.054134 0.058561
vn 0.998552 -0.032761 0.042662
vn 0.998552 -0.032761 0.042662
vn 0.998552 -0.032761 0.042662
vn 0.998552 -0.032761 0.042662
vn 0.605144 0.150088 0.781840
vn 0.605144 0.150088 0.781840
vn 0.605144 0.150088 0.781840
vn 0.605144 0.150088 0.781840
vn 0.585476 0.608548 0.535619
vn 0.585476 0.608548 0.535619
vn 0.585476 0.608548 0.535619
vn 0.867672 0.489182 0.088578
vn 0.867672 0.489182 0.088578
vn 0.867672 0.489182 0.088578
vn 0.002675 0.325505 0.945536
vn 0.002675 0.325505 0.945536
vn 0.002675 0.325505 0.945536
vn 0.941088 0.336668 0.031746
vn 0.941088 0.336668 0.031746
vn 0.941088 0.336668 0.031746
vn 0.941088 0.336668 0.031746
vn -0.027878 0.998971 -0.035775
vn -0.027878 0.998971 -0.035775
vn -0.027878 0.998971 -0.035775
vn -0.027878 0.998971 -0.035775
vn -0.958296 0.280657 -0.053855
vn -0.958296 0.280657 -0.053855
vn -0.958296 0.280657 -0.053855
vn -0.958296 0.280657 -0.053855
vn -0.564443 -0.825469 0.002491
vn -0.564443 -0.825469 0.002491
vn -0.564443 -0.825469 0.002491
vn -0.564443 -0.825469 0.002491
vn 0.609486 -0.790859 0.055395
vn 0.609486 -0.790859 0.055395
vn 0.609486 -0.790859 0.055395
vn 0.609486 -0.790859 0.055395
vn -0.046025 0.034385 0.998348
vn -0.046096 0.034442 0.998343
vn -0.046032 0.034451 0.998346
vn -0.046096 0.034442 0.998343
vn -0.046090 0.034553 0.998340
vn -0.046032 0.034451 0.998346
vn -0.046090 0.034553 0.998340
vn -0.045970 0.034497 0.998347
vn -0.046032 0.034451 0.998346
vn -0.045970 0.034497 0.998347
vn -0.045978 0.034379 0.998351
vn -0.046032 0.034451 0.998346
vn -0.045978 0.034379 0.998351
vn -0.046025 0.034385 0.998348
vn -0.046032 0.034451 0.998346
vn -0.984303 -0.021201 0.175211
vn -0.984303 -0.021201 0.175211
vn -0.984303 -0.021201 0.175211
vn -0.984303 -0.021201 0.175211
vn -0.040554 0.962180 0.269379
vn -0.040554 0.962180 0.269379
vn -0.040554 0.962180 0.269379
vn 0.964056 0.036336 0.263202
vn 0.964056 0.036336 0.263202
vn 0.964056 0.036336 0.263202
vn 0.964056 0.036336 0.263202
vn 0.964056 0.036336 0.263202
vn 0.012570 -0.941262 0.337442
vn 0.012570 -0.941262 0.337442
vn 0.012570 -0.941262 0.337442
vn 0.012570 -0.941262 0.337442
vn 0.012570 -0.941262 0.337442
vn -0.046033 0.034463 0.998345
vn -0.046033 0.034463 0.998345
vn -0.046033 0.034463 0.998345
vn -0.046033 0.034463 0.998345
vn -0.046033 0.034463 0.998345
vn 0.146067 0.501893 0.852507
vn 0.146067 0.501892 0.852507
vn 0.146067 0.501893 0.852507
vn -0.248142 0.607740 0.754372
vn -0.248142 0.607740 0.754372
vn -0.248142 0.607740 0.754372
vn -0.040540 0.962216 0.269253
vn -0.040540 0.962216 0.269254
vn -0.040540 0.962216 0.269254
vn -0.040540 0.962216 0.269254
vn -0.040553 0.962218 0.269245
vn -0.040553 0.962218 0.269245
vn -0.040553 0.962218 0.269245
vn -0.040553 0.962218 0.269245
vn 0.254826 -0.117070 0.959874
vn 0.254826 -0.117070 0.959874
vn 0.254826 -0.117070 0.959874
vn 0.060749 -0.370986 0.926649
vn 0.060749 -0.370986 0.926649
vn 0.060749 -0.370986 0.926649
vn -0.046035 0.034457 0.998345
vn -0.046035 0.034457 0.998345
vn -0.046035 0.034457 0.998345
vn -0.046035 0.034457 0.998345
vn -0.046042 0.034449 0.998345
vn -0.046042 0.034449 0.998345
vn -0.046042 0.034449 0.998345
vn -0.046042 0.034449 0.998345
vn 0.986417 -0.156190 0.050854
vn 0.986417 -0.156190 0.050854
vn 0.986417 -0.156190 0.050854
vn 0.986417 -0.156190 0.050854
vn 0.454719 0.890581 -0.009765
vn 0.454719 0.890582 -0.009765
vn 0.454719 0.890581 -0.009765
vn 0.454719 0.890582 -0.009765
vn -0.705380 0.706539 -0.056936
vn -0.705380 0.706539 -0.056936
vn -0.705380 0.706539 -0.056936
vn -0.705380 0.706539 -0.056936
vn -0.890653 -0.453975 -0.025373
vn -0.890653 -0.453975 -0.025373
vn -0.890653 -0.453975 -0.025373
vn -0.890653 -0.453975 -0.025373
vn 0.154921 -0.987067 0.041218
vn 0.154921 -0.987067 0.041218
vn 0.154921 -0.987067 0.041218
vn 0.154921 -0.987067 0.041218
vn -0.046109 0.034635 0.998336
vn -0.046171 0.034454 0.998339
vn -0.046073 0.034551 0.998340
vn -0.046171 0.034454 0.998339
vn -0.046082 0.034382 0.998346
vn -0.046073 0.034551 0.998340
vn -0.046082 0.034382 0.998346
vn -0.046008 0.034556 0.998343
vn -0.046073 0.034551 0.998340
vn -0.046008 0.034556 0.998343
vn -0.045994 0.034730 0.998338
vn -0.046073 0.034551 0.998340
vn -0.045994 0.034730 0.998338
vn -0.046109 0.034635 0.998336
vn -0.046073 0.034551 0.998340
s off
f 1/1/1 2/2/2 7/3/3 6/4/4
f 2/2/5 3/5/6 8/6/7 7/3/8
f 3/5/9 4/7/10 9/8/11 8/6/12
f 4/7/13 5/9/14 10/10/15 9/8/16
f 5/9/17 1/11/18 6/12/19 10/10/20
f 6/13/21 7/14/22 11/15/23
f 7/14/24 8/16/25 11/15/26
f 8/16/27 9/17/28 11/15/29
f 9/17/30 10/18/31 11/15/32
f 10/18/33 6/13/34 11/15/35
f 12/19/36 13/20/37 18/21/38 17/22/39
f 13/20/40 14/23/41 19/24/42 18/21/43
f 14/23/44 15/25/45 20/26/46 19/24/47
f 15/25/48 16/27/49 21/28/50 20/26/51
f 16/27/52 12/29/53 17/30/54 21/28/55
f 17/31/56 18/32/57 22/33/58
f 18/32/59 19/34/60 22/33/61
f 19/34/62 20/35/63 22/33/64
f 20/35/65 21/36/66 22/33/67
f 21/36/68 17/31/69 22/33/70
f 71/37/71 69/38/72 70/39/73
f 24/40/74 25/41/75 33/42/76 32/43/77
f 25/41/78 26/44/79 34/45/80 33/42/81
f 26/44/82 27/46/83 35/47/84 34/45/85
f 27/46/86 28/48/87 36/49/88 35/47/89
f 66/50/90 29/51/91 37/52/92
f 29/51/93 30/53/94 38/54/95 37/52/96
f 30/53/97 23/55/98 31/56/99 38/54/100
f 48/57/101 47/58/102 49/59/103
f 50/60/104 48/57/105 49/59/106
f 51/61/107 50/60/108 49/59/109
f 52/62/110 51/61/111 49/59/112
f 53/63/113 52/62/114 49/59/115
f 54/64/116 53/63/117 49/59/118
f 55/65/119 54/64/120 49/59/121
f 47/58/122 55/65/123 49/59/124
f 56/66/125 67/67/126 58/68/127
f 57/69/128 59/70/129 58/68/130
f 59/70/131 60/71/132 58/68/133
f 60/71/134 61/72/135 58/68/136
f 61/72/137 62/73/138 58/68/139
f 62/73/140 65/74/141 58/68/142
f 63/75/143 64/76/144 58/68/145
f 64/76/146 56/66/147 58/68/148
f 24/77/149 69/78/150 23/79/151 39/80/152 40/81/153
f 25/82/154 24/77/155 40/81/156 41/83/157
f 26/84/158 25/82/159 41/83/160 42/85/161
f 27/86/162 26/84/163 42/85/164 43/87/165
f 28/88/166 27/86/167 43/87/168 44/89/169
f 29/90/170 28/88/171 44/89/172 45/91/173
f 30/92/174 29/90/175 45/91/176 46/93/177
f 23/79/178 30/92/179 46/93/180 39/80/181
f 40/81/182 39/80/183 47/58/184 48/57/185
f 41/83/186 40/81/187 48/57/188 50/60/189
f 42/85/190 41/83/191 50/60/192 51/61/193
f 43/87/194 42/85/195 51/61/196 52/62/197
f 44/89/198 43/87/199 52/62/200 53/63/201
f 45/91/202 44/89/203 53/63/204 54/64/205
f 46/93/206 45/91/207 54/64/208 55/65/209
f 39/80/210 46/93/211 55/65/212 47/58/213
f 67/67/214 71/94/215 70/95/216
f 32/96/217 33/97/218 59/70/219 57/69/220
f 33/97/221 34/98/222 60/71/223 59/70/224
f 34/98/225 35/99/226 61/72/227 60/71/228
f 35/99/229 36/100/230 62/73/231 61/72/232
f 65/74/233 66/101/234 37/102/235 63/75/236
f 37/102/237 38/103/238 64/76/239 63/75/240
f 38/103/241 31/104/242 56/66/243 64/76/244
f 36/100/245 66/101/246 65/74/247 62/73/248
f 28/48/249 29/51/250 66/50/251 36/49/252
f 58/68/253 65/74/254 63/75/255
f 31/104/256 68/105/257 67/67/258 56/66/259
f 23/106/260 69/38/261 68/107/262 31/108/263
f 70/39/264 69/38/265 24/40/266 32/43/267
f 67/67/268 70/95/269 32/96/270 57/69/271
f 67/67/272 68/105/273 71/94/274
f 68/107/275 69/38/276 71/37/277
f 58/68/278 67/67/279 57/69/280
f 72/109/281 73/110/282 78/111/283 77/112/284
f 73/110/285 74/113/286 79/114/287 78/111/288
f 74/113/289 75/115/290 80/116/291 79/114/292
f 75/115/293 76/117/294 81/118/295 80/116/296
f 76/117/297 72/119/298 77/120/299 81/118/300
f 77/121/301 78/122/302 82/123/303
f 78/122/304 79/124/305 82/123/306
f 79/124/307 80/125/308 82/123/309
f 80/125/310 81/126/311 82/123/312
f 81/126/313 77/121/314 82/123/315
f 83/127/316 84/128/317 86/129/318 85/130/319
f 85/130/320 93/131/321 87/132/322
f 87/132/323 88/133/324 96/134/325 90/135/326 89/136/327
f 89/136/328 90/135/329 95/137/330 84/138/331 83/139/332
f 94/140/333 97/141/334 96/142/335 88/143/336 92/144/337
f 94/145/338 93/131/339 91/146/340
f 92/147/341 93/131/342 94/145/343
f 85/130/344 86/129/345 91/146/346 93/131/347
f 87/132/348 93/131/349 92/147/350 88/133/351
f 96/142/352 97/141/353 90/148/354
f 90/148/355 97/141/356 95/149/357
f 84/128/358 94/140/359 91/150/360 86/129/361
f 84/128/362 95/149/363 97/141/364 94/140/365
f 98/151/366 99/152/367 104/153/368 103/154/369
f 99/152/370 100/155/371 105/156/372 104/153/373
f 100/155/374 101/157/375 106/158/376 105/156/377
f 101/157/378 102/159/379 107/160/380 106/158/381
f 102/159/382 98/161/383 103/162/384 107/160/385
f 103/163/386 104/164/387 108/165/388
f 104/164/389 105/166/390 108/165/391
f 105/166/392 106/167/393 108/165/394
f 106/167/395 107/168/396 108/165/397
f 107/168/398 103/163/399 108/165/400
