# This file uses centimeters as units for non-parametric coordinates.

v -0.327148 11.570482 -1.298676
v 0.849915 11.531610 -1.661530
v 7.410583 91.925240 -39.606171
v 8.403320 91.414566 -40.128632
v 6.688538 91.370819 -40.436554
v 7.680969 90.860062 -40.958710
v -0.692139 11.445169 -2.468719
v 0.484924 11.406298 -2.831879
v -1.437683 11.403322 -2.859344
v 0.877686 11.326914 -3.573151
v 1.595459 11.573458 -1.271210
v -0.719910 11.649866 -0.557098
v -1.437683 8.050890 -2.500458
v 0.877686 7.974482 -3.214264
v 1.595459 8.221025 -0.912018
v -0.719910 8.297434 -0.198212
v -3.232422 7.950258 -3.440399
v 1.822815 7.783327 -4.998932
v 3.390503 8.321657 0.027924
v -1.665039 8.488588 1.586456
v -4.678345 -4.882430 -2.132874
v 2.584229 -5.122205 -4.371948
v 4.836121 -4.348851 2.849731
v -2.426453 -4.109059 5.088501
v 7.634277 92.181702 -40.886383
v 0.224915 56.359596 -13.404999
v -0.767517 56.870346 -12.882843
v -1.489868 56.315918 -13.713226
v -0.497437 55.805092 -14.235382
v 3.775635 36.638870 -12.580414
v 2.597046 36.757240 -12.240448
v 2.237244 36.354790 -13.348236
v 3.415833 36.236382 -13.688202
vt 0.132527 0.243468
vt 0.131880 0.243509
vt 0.115372 0.192292
vt 0.115986 0.192089
vt 0.113982 0.192783
vt 0.113368 0.192986
vt 0.129796 0.243644
vt 0.130443 0.243602
vt 0.128476 0.243729
vt 0.129747 0.243647
vt 0.132576 0.243464
vt 0.133847 0.243382
vt 0.128737 0.250459
vt 0.130008 0.250377
vt 0.132836 0.250194
vt 0.134107 0.250112
vt 0.125559 0.250664
vt 0.128334 0.250485
vt 0.134510 0.250086
vt 0.137285 0.249907
vt 0.123293 0.258404
vt 0.127279 0.258147
vt 0.136151 0.257574
vt 0.140138 0.257316
vt 0.073746 0.079215
vt 0.072765 0.080183
vt 0.071510 0.078576
vt 0.071235 0.081208
vt 0.072216 0.080240
vt 0.117096 0.151861
vt 0.116116 0.152829
vt 0.115566 0.152886
vt 0.114585 0.153854
vn 0.289048 0.353138 0.889800
vn 0.289048 0.353138 0.889800
vn 0.289048 0.353138 0.889800
vn 0.289048 0.353138 0.889800
vn -0.289092 -0.354527 -0.889234
vn -0.289092 -0.354527 -0.889234
vn -0.289092 -0.354527 -0.889234
vn -0.289092 -0.354527 -0.889234
vn 0.943266 -0.219328 -0.249287
vn 0.943266 -0.219328 -0.249287
vn 0.943266 -0.219328 -0.249287
vn 0.943266 -0.219328 -0.249287
vn -0.943328 0.218880 0.249448
vn -0.943328 0.218880 0.249448
vn -0.943328 0.218880 0.249448
vn -0.943328 0.218880 0.249448
vn -0.000018 0.994314 -0.106489
vn -0.000018 0.994314 -0.106489
vn -0.000018 0.994314 -0.106489
vn -0.000018 0.994314 -0.106489
vn -0.000038 0.994316 -0.106472
vn -0.000038 0.994316 -0.106472
vn -0.000038 0.994316 -0.106472
vn -0.000038 0.994316 -0.106472
vn -0.000018 0.994314 -0.106492
vn -0.000018 0.994314 -0.106492
vn -0.000018 0.994314 -0.106492
vn -0.000018 0.994314 -0.106492
vn -0.000038 0.994316 -0.106473
vn -0.000038 0.994316 -0.106473
vn -0.000038 0.994316 -0.106473
vn -0.000038 0.994316 -0.106473
vn -0.296144 -0.101670 -0.949717
vn -0.296144 -0.101670 -0.949717
vn -0.296144 -0.101670 -0.949717
vn -0.296144 -0.101670 -0.949717
vn 0.955152 -0.031533 -0.294431
vn 0.955152 -0.031533 -0.294431
vn 0.955152 -0.031533 -0.294431
vn 0.955152 -0.031533 -0.294431
vn 0.296201 0.101711 0.949695
vn 0.296201 0.101711 0.949695
vn 0.296201 0.101711 0.949695
vn 0.296201 0.101711 0.949695
vn -0.955158 0.031518 0.294415
vn -0.955158 0.031518 0.294415
vn -0.955158 0.031518 0.294415
vn -0.955158 0.031518 0.294415
vn -0.000001 0.994315 -0.106484
vn -0.000001 0.994314 -0.106483
vn -0.000001 0.994315 -0.106483
vn -0.000001 0.994315 -0.106483
vn 0.000020 0.994314 -0.106487
vn 0.000020 0.994314 -0.106487
vn 0.000020 0.994314 -0.106487
vn 0.000020 0.994314 -0.106487
vn -0.000001 0.994315 -0.106484
vn -0.000001 0.994315 -0.106484
vn -0.000001 0.994314 -0.106484
vn -0.000001 0.994315 -0.106484
vn 0.000020 0.994314 -0.106488
vn 0.000020 0.994314 -0.106488
vn 0.000020 0.994314 -0.106488
vn 0.000020 0.994314 -0.106488
vn -0.295941 -0.063764 -0.953076
vn -0.295941 -0.063764 -0.953076
vn -0.295941 -0.063764 -0.953076
vn -0.295941 -0.063764 -0.953076
vn 0.952562 0.041544 -0.301496
vn 0.952562 0.041544 -0.301496
vn 0.952562 0.041544 -0.301496
vn 0.952562 0.041544 -0.301496
vn 0.293226 0.239574 0.925539
vn 0.293226 0.239574 0.925539
vn 0.293226 0.239574 0.925539
vn 0.293226 0.239574 0.925539
vn -0.949869 0.135717 0.281656
vn -0.949869 0.135717 0.281656
vn -0.949869 0.135717 0.281656
vn -0.949869 0.135717 0.281656
vn 0.545111 0.798571 0.255223
vn 0.545111 0.798571 0.255223
vn 0.545111 0.798571 0.255223
vn -0.452095 0.032808 -0.891366
vn -0.452095 0.032808 -0.891366
vn -0.452095 0.032808 -0.891366
vn -0.638644 0.768338 0.042328
vn -0.638644 0.768338 0.042328
vn -0.638644 0.768338 0.042328
vn 0.731643 0.062994 -0.678771
vn 0.731643 0.062994 -0.678771
vn 0.731643 0.062994 -0.678771
vn 0.580058 0.403926 0.707373
vn 0.580058 0.403926 0.707373
vn 0.580058 0.403926 0.707373
vn 0.580058 0.403926 0.707373
vn -0.796398 0.473045 0.376800
vn -0.796398 0.473045 0.376800
vn -0.796398 0.473045 0.376800
vn -0.796398 0.473045 0.376800
vn -0.580067 -0.403917 -0.707371
vn -0.580067 -0.403918 -0.707371
vn -0.580067 -0.403917 -0.707371
vn -0.580067 -0.403917 -0.707371
vn 0.796332 -0.473093 -0.376880
vn 0.796332 -0.473093 -0.376880
vn 0.796332 -0.473093 -0.376880
vn 0.796332 -0.473093 -0.376880
vn 0.392494 0.101802 0.914103
vn 0.392494 0.101802 0.914103
vn 0.392494 0.101802 0.914103
vn 0.392494 0.101802 0.914103
vn -0.835462 -0.134451 0.532848
vn -0.835461 -0.134451 0.532848
vn -0.835462 -0.134451 0.532848
vn -0.835462 -0.134451 0.532848
vn -0.391439 -0.096774 -0.915101
vn -0.391439 -0.096774 -0.915101
vn -0.391439 -0.096774 -0.915101
vn -0.391439 -0.096774 -0.915101
vn 0.833600 0.139704 -0.534410
vn 0.833600 0.139704 -0.534410
vn 0.833600 0.139704 -0.534410
vn 0.833600 0.139704 -0.534410
s off
f 1/1/1 2/2/2 30/3/3 31/4/4
f 32/5/5 33/6/6 8/7/7 7/8/8
f 2/2/9 8/7/10 33/6/11 30/3/12
f 7/8/13 1/1/14 31/4/15 32/5/16
f 7/8/17 8/7/18 10/9/19 9/10/20
f 8/7/21 2/2/22 11/11/23 10/9/24
f 2/2/25 1/1/26 12/12/27 11/11/28
f 1/1/29 7/8/30 9/10/31 12/12/32
f 9/10/33 10/9/34 14/13/35 13/14/36
f 10/9/37 11/11/38 15/15/39 14/13/40
f 11/11/41 12/12/42 16/16/43 15/15/44
f 12/12/45 9/10/46 13/14/47 16/16/48
f 13/14/49 14/13/50 18/17/51 17/18/52
f 14/13/53 15/15/54 19/19/55 18/17/56
f 15/15/57 16/16/58 20/20/59 19/19/60
f 16/16/61 13/14/62 17/18/63 20/20/64
f 17/18/65 18/17/66 22/21/67 21/22/68
f 18/17/69 19/19/70 23/23/71 22/21/72
f 19/19/73 20/20/74 24/24/75 23/23/76
f 20/20/77 17/18/78 21/22/79 24/24/80
f 3/25/81 4/26/82 25/27/83
f 6/28/84 5/29/85 25/27/86
f 5/29/87 3/25/88 25/27/89
f 4/26/90 6/28/91 25/27/92
f 27/30/93 26/31/94 4/26/95 3/25/96
f 28/32/97 27/30/98 3/25/99 5/29/100
f 5/29/101 6/28/102 29/33/103 28/32/104
f 26/31/105 29/33/106 6/28/107 4/26/108
f 31/4/109 30/3/110 26/31/111 27/30/112
f 32/5/113 31/4/114 27/30/115 28/32/116
f 28/32/117 29/33/118 33/6/119 32/5/120
f 30/3/121 33/6/122 29/33/123 26/31/124
