# This file uses centimeters as units for non-parametric coordinates.

v -4.666290 11.654179 -18.603115
v -4.666290 19.513737 -10.743561
v -4.666290 22.390524 -0.007210
v -4.666290 19.513737 10.729103
v -4.666290 11.654179 18.588657
v -4.666290 0.917833 21.465454
v -4.666290 -9.818514 18.588657
v -4.666290 -17.678070 10.729103
v -4.666290 -20.554861 -0.007210
v -4.666290 -17.678070 -10.743561
v -4.666290 -9.818514 -18.603115
v -4.666290 0.917833 -21.479912
v 0.046396 24.246630 13.376465
v 3.059034 14.430931 23.142681
v -2.769470 1.065314 25.787010
v -0.986557 -12.139954 22.864914
v -1.032753 -21.793037 13.190002
v 2.712555 -26.736149 -0.007229
v 3.525457 -22.224205 -13.453465
v 1.963558 18.810444 19.871464
v 2.513475 -4.678610 26.186314
v 0.543575 -17.285851 18.595047
v 0.134134 -23.880165 -6.920414
v -2.400036 -11.895693 -22.456339
v -1.583490 1.065314 -26.211454
v -0.316677 14.386309 -23.079947
v 3.284473 24.282698 -13.411846
v -2.740803 26.869505 -0.007229
v 2.300625 -18.915634 -17.809355
v 0.905075 -6.693058 -25.105190
v 0.051908 9.213821 -24.705751
v 0.606337 26.794802 5.008602
v 2.411489 19.116711 -19.458849
v -5.768871 21.223562 11.820126
v -5.817547 12.727718 20.338154
v 1.830273 15.576746 25.009956
v 1.689653 20.322477 21.589165
v -1.130419 26.071568 14.540939
v -5.849028 1.000712 23.427963
v -4.031849 1.153769 27.881660
v -5.785160 -10.843094 20.348949
v -2.180758 -13.233513 24.743729
v 2.172356 -5.281288 28.358727
v -5.778360 -19.464586 11.651688
v -2.219706 -23.699833 14.174671
v 0.177679 -18.870295 20.180244
v -5.770416 -22.624189 -0.073338
v 2.374802 -28.944796 -0.077820
v -5.740213 -19.521526 -11.686249
v 2.379227 -24.191776 -14.459610
v -1.055479 -26.068319 -7.445755
v -5.759706 -10.902344 -20.309029
v -3.567066 -13.052490 -24.277117
v 2.038488 -20.662621 -19.296305
v -5.826397 0.929151 -23.491728
v -2.821693 1.077392 -28.358727
v 0.514545 -7.259669 -27.259769
v -5.742455 12.744068 -20.325165
v -1.465292 15.549576 -24.917910
v -0.352583 9.804594 -26.845720
v -5.789909 21.269762 -11.830502
v 2.085209 26.156946 -14.571951
v 2.200136 20.852472 -20.994814
v -5.877495 24.334911 -0.088253
v -4.033556 28.944796 -0.093727
v 0.208006 28.932648 5.619869
v 6.890011 19.777306 20.749397
v 4.502630 14.545822 24.693699
v 1.405878 25.625145 14.024639
v -1.742611 1.569219 27.245808
v 7.113323 -4.730563 27.261086
v 0.215654 -12.904322 24.090099
v 5.351896 -18.115452 19.475574
v 0.242891 -23.165783 13.843708
v 7.527590 -27.906311 -0.136147
v 1.380148 -25.173080 -7.452946
v 5.002651 -23.704779 -13.515282
v 7.150898 -19.587646 -18.824060
v -1.384535 -12.627140 -23.632336
v 5.588760 -7.127054 -26.153088
v -0.345688 1.172113 -27.698975
v 4.887266 9.622231 -25.907841
v 0.881777 14.984797 -24.408340
v 7.278194 19.737705 -20.569956
v 4.761066 25.798641 -13.562202
v -1.675396 28.380615 -0.425625
v 5.312414 28.058617 4.921741
vt 0.080434 0.089441
vt 0.080434 0.089441
vt 0.080434 0.089441
vt 0.080434 0.089441
vt 0.080434 0.089441
vt 0.080434 0.089441
vt 0.080434 0.089441
vt 0.080434 0.089441
vt 0.080434 0.089441
vt 0.080434 0.089441
vt 0.080434 0.089441
vt 0.080434 0.089441
vt 0.080009 0.157591
vt 0.080009 0.157591
vt 0.080009 0.157591
vt 0.080009 0.157591
vt 0.080009 0.157591
vt 0.080009 0.157591
vt 0.080009 0.157591
vt 0.080009 0.157591
vt 0.080009 0.157591
vt 0.080009 0.157591
vt 0.080009 0.157591
vt 0.080009 0.157591
vt 0.080009 0.157591
vt 0.080009 0.157591
vt 0.080009 0.157591
vt 0.080009 0.157591
vt 0.080009 0.157591
vt 0.080009 0.157591
vt 0.080009 0.157591
vt 0.080009 0.157591
vt 0.080009 0.157591
vt 0.080434 0.089441
vt 0.080434 0.089441
vt 0.080434 0.089441
vt 0.080434 0.089441
vt 0.080434 0.089441
vt 0.080434 0.089441
vt 0.080434 0.089441
vt 0.080434 0.089441
vt 0.080434 0.089441
vt 0.080434 0.089441
vt 0.080434 0.089441
vt 0.080434 0.089441
vt 0.080434 0.089441
vt 0.080434 0.089441
vt 0.080434 0.089441
vt 0.080434 0.089441
vt 0.080434 0.089441
vt 0.080434 0.089441
vt 0.080434 0.089441
vt 0.080434 0.089441
vt 0.080434 0.089441
vt 0.080434 0.089441
vt 0.080434 0.089441
vt 0.080434 0.089441
vt 0.080434 0.089441
vt 0.080434 0.089441
vt 0.080434 0.089441
vt 0.080434 0.089441
vt 0.080434 0.089441
vt 0.080434 0.089441
vt 0.080434 0.089441
vt 0.080434 0.089441
vt 0.080434 0.089441
vt 0.080434 0.089441
vt 0.080434 0.089441
vt 0.080434 0.089441
vt 0.080434 0.089441
vt 0.080434 0.089441
vt 0.080434 0.089441
vt 0.080434 0.089441
vt 0.080434 0.089441
vt 0.080434 0.089441
vt 0.080434 0.089441
vt 0.080434 0.089441
vt 0.080434 0.089441
vt 0.080434 0.089441
vt 0.080434 0.089441
vt 0.080434 0.089441
vt 0.080434 0.089441
vt 0.080434 0.089441
vt 0.080434 0.089441
vt 0.080434 0.089441
vt 0.080434 0.089441
vt 0.080434 0.089441
vt 0.080434 0.089441
vt 0.080434 0.089441
vt 0.080434 0.089441
vt 0.080434 0.089441
vt 0.080434 0.089441
vt 0.080434 0.089441
vt 0.080434 0.089441
vt 0.080434 0.089441
vt 0.080434 0.089441
vt 0.080434 0.089441
vt 0.080434 0.089441
vt 0.080434 0.089441
vt 0.080009 0.157591
vt 0.080009 0.157591
vt 0.080009 0.157591
vt 0.080009 0.157591
vt 0.080009 0.157591
vt 0.080009 0.157591
vt 0.080009 0.157591
vt 0.080009 0.157591
vt 0.080009 0.157591
vt 0.080009 0.157591
vt 0.080009 0.157591
vt 0.080009 0.157591
vt 0.080009 0.157591
vt 0.080009 0.157591
vt 0.080009 0.157591
vt 0.080009 0.157591
vt 0.080009 0.157591
vt 0.080009 0.157591
vt 0.080009 0.157591
vt 0.080009 0.157591
vt 0.080009 0.157591
vt 0.080009 0.157591
vt 0.080009 0.157591
vt 0.080009 0.157591
vt 0.080009 0.157591
vt 0.080009 0.157591
vt 0.080009 0.157591
vt 0.080009 0.157591
vt 0.080009 0.157591
vt 0.080009 0.157591
vt 0.080009 0.157591
vt 0.080009 0.157591
vt 0.080009 0.157591
vt 0.080009 0.157591
vt 0.080009 0.157591
vt 0.080009 0.157591
vt 0.080009 0.157591
vt 0.080009 0.157591
vt 0.080009 0.157591
vt 0.080009 0.157591
vt 0.080009 0.157591
vt 0.080009 0.157591
vn -0.654905 0.477604 0.585658
vn -0.654904 0.477604 0.585658
vn -0.654904 0.477604 0.585658
vn -0.654904 0.477604 0.585658
vn -0.654905 0.477604 0.585658
vn -0.709389 0.304762 0.635521
vn -0.709389 0.304762 0.635521
vn -0.709389 0.304762 0.635521
vn -0.709389 0.304762 0.635521
vn -0.699574 -0.212937 0.682095
vn -0.699574 -0.212937 0.682095
vn -0.699574 -0.212937 0.682095
vn -0.699574 -0.212937 0.682095
vn -0.699574 -0.212937 0.682095
vn -0.730350 -0.484606 0.481399
vn -0.730350 -0.484606 0.481399
vn -0.730350 -0.484606 0.481399
vn -0.730350 -0.484606 0.481399
vn -0.730350 -0.484606 0.481399
vn -0.678814 -0.725343 0.114406
vn -0.678814 -0.725343 0.114406
vn -0.678814 -0.725343 0.114406
vn -0.678814 -0.725343 0.114406
vn -0.657611 -0.722604 -0.213049
vn -0.657611 -0.722605 -0.213049
vn -0.657611 -0.722604 -0.213049
vn -0.657611 -0.722605 -0.213049
vn -0.657611 -0.722605 -0.213049
vn -0.654484 -0.618783 -0.434463
vn -0.654484 -0.618783 -0.434463
vn -0.654484 -0.618783 -0.434463
vn -0.654484 -0.618783 -0.434463
vn -0.654484 -0.618783 -0.434463
vn -0.746423 -0.161105 -0.645676
vn -0.746423 -0.161105 -0.645676
vn -0.746423 -0.161105 -0.645676
vn -0.746423 -0.161105 -0.645676
vn -0.746423 -0.161105 -0.645676
vn -0.755690 0.198258 -0.624201
vn -0.755690 0.198258 -0.624201
vn -0.755690 0.198258 -0.624201
vn -0.755689 0.198258 -0.624201
vn -0.755689 0.198258 -0.624201
vn -0.624602 0.606320 -0.492187
vn -0.624602 0.606320 -0.492187
vn -0.624602 0.606320 -0.492187
vn -0.624602 0.606320 -0.492187
vn -0.624602 0.606320 -0.492187
vn -0.707902 0.634986 -0.309303
vn -0.707902 0.634986 -0.309303
vn -0.707902 0.634986 -0.309303
vn -0.707902 0.634986 -0.309303
vn -0.742036 0.630864 0.226700
vn -0.742036 0.630864 0.226700
vn -0.742036 0.630864 0.226700
vn -0.742036 0.630864 0.226700
vn -0.742036 0.630864 0.226700
vn 0.665066 -0.463571 -0.585481
vn 0.665066 -0.463571 -0.585481
vn 0.665066 -0.463571 -0.585481
vn 0.665066 -0.463571 -0.585481
vn 0.665066 -0.463571 -0.585481
vn 0.693376 -0.316021 -0.647580
vn 0.693376 -0.316021 -0.647580
vn 0.693376 -0.316021 -0.647580
vn 0.693376 -0.316021 -0.647580
vn 0.708922 0.215904 -0.671427
vn 0.708922 0.215904 -0.671427
vn 0.708922 0.215904 -0.671427
vn 0.708922 0.215904 -0.671427
vn 0.708922 0.215904 -0.671427
vn 0.742573 0.472902 -0.474289
vn 0.742573 0.472902 -0.474289
vn 0.742573 0.472902 -0.474289
vn 0.742573 0.472902 -0.474289
vn 0.742573 0.472902 -0.474289
vn 0.692328 0.710863 -0.123922
vn 0.692328 0.710863 -0.123922
vn 0.692328 0.710863 -0.123922
vn 0.692328 0.710863 -0.123922
vn 0.651022 0.721611 0.235473
vn 0.651022 0.721611 0.235473
vn 0.651022 0.721611 0.235473
vn 0.651022 0.721611 0.235473
vn 0.651022 0.721611 0.235473
vn 0.663100 0.620854 0.418138
vn 0.663100 0.620854 0.418138
vn 0.663100 0.620854 0.418138
vn 0.663100 0.620854 0.418138
vn 0.663100 0.620854 0.418138
vn 0.758405 0.151052 0.634038
vn 0.758405 0.151052 0.634038
vn 0.758405 0.151052 0.634038
vn 0.758405 0.151052 0.634038
vn 0.758405 0.151052 0.634038
vn 0.768739 -0.193144 0.609701
vn 0.768739 -0.193144 0.609701
vn 0.768739 -0.193144 0.609701
vn 0.768739 -0.193144 0.609701
vn 0.768739 -0.193144 0.609701
vn 0.631743 -0.608709 0.479973
vn 0.631743 -0.608709 0.479973
vn 0.631744 -0.608709 0.479973
vn 0.631743 -0.608709 0.479973
vn 0.631743 -0.608709 0.479973
vn 0.692265 -0.647184 0.319252
vn 0.692265 -0.647184 0.319252
vn 0.692265 -0.647184 0.319252
vn 0.692265 -0.647184 0.319252
vn 0.752370 -0.617800 -0.228611
vn 0.752370 -0.617800 -0.228611
vn 0.752370 -0.617800 -0.228611
vn 0.752370 -0.617800 -0.228611
vn 0.752370 -0.617800 -0.228611
vn -0.869992 -0.347591 -0.349706
vn -0.869992 -0.347591 -0.349706
vn -0.869992 -0.347591 -0.349706
vn -0.869992 -0.347591 -0.349706
vn 0.227564 0.544632 0.807212
vn 0.227564 0.544632 0.807212
vn 0.227564 0.544632 0.807212
vn 0.227564 0.544632 0.807212
vn 0.200933 0.805677 0.557235
vn 0.200933 0.805677 0.557235
vn 0.200933 0.805677 0.557235
vn 0.200933 0.805677 0.557235
vn -0.857149 -0.131103 -0.498105
vn -0.857149 -0.131103 -0.498105
vn -0.857149 -0.131103 -0.498105
vn -0.857149 -0.131103 -0.498105
vn 0.199914 0.104512 0.974224
vn 0.199914 0.104512 0.974224
vn 0.199914 0.104512 0.974224
vn 0.199914 0.104512 0.974224
vn -0.857728 0.128847 -0.497695
vn -0.857728 0.128847 -0.497695
vn -0.857728 0.128847 -0.497695
vn -0.857728 0.128847 -0.497695
vn 0.256752 -0.521537 0.813682
vn 0.256752 -0.521537 0.813682
vn 0.256752 -0.521537 0.813682
vn 0.256752 -0.521537 0.813682
vn 0.191550 0.263083 0.945566
vn 0.191550 0.263083 0.945566
vn 0.191550 0.263083 0.945566
vn 0.191550 0.263083 0.945566
vn -0.867188 0.352754 -0.351496
vn -0.867188 0.352754 -0.351496
vn -0.867188 0.352754 -0.351496
vn -0.867188 0.352754 -0.351496
vn 0.210968 -0.808097 0.549974
vn 0.210968 -0.808097 0.549974
vn 0.210968 -0.808097 0.549974
vn 0.210968 -0.808097 0.549974
vn 0.222829 -0.535346 0.814710
vn 0.222829 -0.535346 0.814710
vn 0.222829 -0.535346 0.814710
vn 0.222829 -0.535346 0.814710
vn -0.871893 0.472838 -0.127382
vn -0.871893 0.472838 -0.127382
vn -0.871893 0.472838 -0.127382
vn -0.871893 0.472838 -0.127382
vn 0.204838 -0.892498 0.401856
vn 0.204838 -0.892498 0.401856
vn 0.204838 -0.892498 0.401856
vn 0.204838 -0.892498 0.401856
vn -0.880261 0.458664 0.121524
vn -0.880261 0.458665 0.121524
vn -0.880261 0.458664 0.121524
vn -0.880261 0.458665 0.121524
vn 0.278579 -0.955788 -0.094139
vn 0.278579 -0.955788 -0.094139
vn 0.278579 -0.955788 -0.094139
vn 0.278579 -0.955788 -0.094139
vn 0.214496 -0.857575 -0.467501
vn 0.214496 -0.857575 -0.467501
vn 0.214496 -0.857575 -0.467501
vn 0.214496 -0.857575 -0.467501
vn -0.876311 0.340164 0.341126
vn -0.876311 0.340164 0.341126
vn -0.876311 0.340164 0.341126
vn -0.876311 0.340164 0.341126
vn 0.217261 -0.390244 -0.894711
vn 0.217261 -0.390244 -0.894711
vn 0.217261 -0.390244 -0.894711
vn 0.217261 -0.390244 -0.894710
vn 0.260944 -0.792700 -0.550940
vn 0.260944 -0.792700 -0.550940
vn 0.260944 -0.792700 -0.550940
vn 0.260944 -0.792700 -0.550940
vn -0.864068 0.128150 0.486790
vn -0.864068 0.128150 0.486790
vn -0.864068 0.128150 0.486790
vn -0.864068 0.128150 0.486790
vn 0.228502 -0.027379 -0.973158
vn 0.228502 -0.027379 -0.973158
vn 0.228502 -0.027379 -0.973158
vn 0.228502 -0.027379 -0.973158
vn 0.231039 -0.599582 -0.766239
vn 0.231039 -0.599582 -0.766239
vn 0.231039 -0.599582 -0.766239
vn 0.231039 -0.599582 -0.766239
vn -0.867006 -0.125971 0.482111
vn -0.867006 -0.125971 0.482111
vn -0.867006 -0.125971 0.482112
vn -0.867006 -0.125971 0.482111
vn 0.209227 0.375060 -0.903080
vn 0.209227 0.375060 -0.903080
vn 0.209227 0.375060 -0.903080
vn 0.209227 0.375060 -0.903080
vn 0.202862 0.096478 -0.974443
vn 0.202862 0.096478 -0.974443
vn 0.202862 0.096478 -0.974443
vn 0.202862 0.096478 -0.974443
vn -0.876169 -0.341774 0.339881
vn -0.876169 -0.341774 0.339881
vn -0.876169 -0.341774 0.339881
vn -0.876169 -0.341774 0.339881
vn 0.254895 0.762201 -0.595045
vn 0.254895 0.762201 -0.595045
vn 0.254895 0.762201 -0.595045
vn 0.254895 0.762201 -0.595045
vn 0.211839 0.455441 -0.864695
vn 0.211839 0.455441 -0.864695
vn 0.211839 0.455441 -0.864695
vn 0.211839 0.455441 -0.864695
vn -0.856522 -0.499787 0.128775
vn -0.856522 -0.499787 0.128775
vn -0.856522 -0.499787 0.128775
vn -0.856522 -0.499787 0.128775
vn 0.192604 0.975939 -0.102207
vn 0.192604 0.975939 -0.102207
vn 0.192604 0.975939 -0.102207
vn 0.192604 0.975939 -0.102207
vn -0.853549 -0.504697 -0.129367
vn -0.853549 -0.504697 -0.129367
vn -0.853549 -0.504697 -0.129367
vn -0.853549 -0.504697 -0.129367
vn 0.211596 0.919371 0.331640
vn 0.211596 0.919371 0.331640
vn 0.211596 0.919371 0.331640
vn 0.211596 0.919371 0.331640
vn 0.168461 0.975491 -0.141557
vn 0.168461 0.975491 -0.141557
vn 0.168461 0.975491 -0.141557
vn 0.168461 0.975491 -0.141557
vn 0.373375 -0.588543 -0.717083
vn 0.373375 -0.588543 -0.717083
vn 0.373375 -0.588543 -0.717083
vn 0.373375 -0.588543 -0.717083
vn 0.390184 -0.580942 -0.714327
vn 0.390184 -0.580942 -0.714327
vn 0.390184 -0.580942 -0.714327
vn 0.390184 -0.580942 -0.714327
vn 0.736636 -0.439096 -0.514355
vn 0.736636 -0.439096 -0.514355
vn 0.736636 -0.439096 -0.514355
vn 0.736636 -0.439096 -0.514355
vn 0.380912 0.126986 -0.915850
vn 0.380912 0.126986 -0.915850
vn 0.380912 0.126986 -0.915850
vn 0.380912 0.126986 -0.915850
vn 0.353019 0.385078 -0.852697
vn 0.353019 0.385078 -0.852697
vn 0.353019 0.385078 -0.852697
vn 0.353019 0.385078 -0.852697
vn 0.388435 0.567059 -0.726335
vn 0.388435 0.567059 -0.726335
vn 0.388435 0.567059 -0.726335
vn 0.388435 0.567059 -0.726335
vn 0.389997 0.731167 -0.559729
vn 0.389997 0.731167 -0.559729
vn 0.389997 0.731167 -0.559729
vn 0.389997 0.731167 -0.559729
vn 0.392055 0.905304 -0.163456
vn 0.392055 0.905304 -0.163456
vn 0.392055 0.905304 -0.163456
vn 0.392055 0.905304 -0.163456
vn 0.666907 0.546199 0.506855
vn 0.666907 0.546199 0.506855
vn 0.666907 0.546199 0.506855
vn 0.666907 0.546199 0.506855
vn 0.385116 0.914623 0.123089
vn 0.385116 0.914623 0.123089
vn 0.385116 0.914623 0.123089
vn 0.385116 0.914623 0.123089
vn 0.383771 0.738382 0.554537
vn 0.383771 0.738382 0.554537
vn 0.383771 0.738382 0.554537
vn 0.383771 0.738382 0.554537
vn 0.348030 0.727034 0.591859
vn 0.348030 0.727034 0.591859
vn 0.348030 0.727034 0.591859
vn 0.348030 0.727034 0.591859
vn 0.385616 0.343699 0.856254
vn 0.385616 0.343699 0.856254
vn 0.385616 0.343699 0.856254
vn 0.385616 0.343699 0.856254
vn 0.377018 0.083482 0.922436
vn 0.377018 0.083482 0.922436
vn 0.377018 0.083482 0.922436
vn 0.377018 0.083482 0.922436
vn 0.399399 -0.104373 0.910816
vn 0.399399 -0.104373 0.910816
vn 0.399399 -0.104373 0.910816
vn 0.399399 -0.104373 0.910816
vn 0.405042 -0.336458 0.850139
vn 0.405042 -0.336458 0.850139
vn 0.405042 -0.336458 0.850139
vn 0.405042 -0.336458 0.850139
vn 0.357107 -0.685492 0.634489
vn 0.357107 -0.685492 0.634489
vn 0.357107 -0.685492 0.634489
vn 0.357107 -0.685492 0.634489
vn 0.366181 -0.766899 0.527045
vn 0.366181 -0.766899 0.527045
vn 0.366181 -0.766899 0.527045
vn 0.366181 -0.766899 0.527045
vn 0.725740 -0.526171 0.443222
vn 0.725740 -0.526171 0.443222
vn 0.725740 -0.526171 0.443222
vn 0.725740 -0.526171 0.443222
vn 0.406541 -0.900747 -0.152907
vn 0.406541 -0.900746 -0.152907
vn 0.406541 -0.900746 -0.152907
vn 0.406541 -0.900746 -0.152907
vn 0.368549 -0.839306 -0.399672
vn 0.368549 -0.839306 -0.399672
vn 0.368549 -0.839306 -0.399672
vn 0.368549 -0.839306 -0.399672
s off
f 34/67/1 35/68/2 36/69/3 37/70/4 38/71/5
f 35/68/6 39/72/7 40/73/8 36/69/9
f 39/72/10 41/74/11 42/75/12 43/76/13 40/73/14
f 41/74/15 44/77/16 45/78/17 46/79/18 42/75/19
f 44/77/20 47/80/21 48/81/22 45/78/23
f 47/80/24 49/82/25 50/83/26 51/84/27 48/81/28
f 49/82/29 52/85/30 53/86/31 54/87/32 50/83/33
f 52/85/34 55/88/35 56/89/36 57/90/37 53/86/38
f 55/88/39 58/91/40 59/92/41 60/93/42 56/89/43
f 58/91/44 61/94/45 62/95/46 63/96/47 59/92/48
f 61/94/49 64/97/50 65/98/51 62/95/52
f 64/97/53 34/67/54 38/71/55 66/99/56 65/98/57
f 4/34/58 13/38/59 20/37/60 14/36/61 5/35/62
f 5/35/63 14/36/64 15/40/65 6/39/66
f 6/39/67 15/40/68 21/43/69 16/42/70 7/41/71
f 7/41/72 16/42/73 22/46/74 17/45/75 8/44/76
f 8/44/77 17/45/78 18/48/79 9/47/80
f 9/47/81 18/48/82 23/51/83 19/50/84 10/49/85
f 10/49/86 19/50/87 29/54/88 24/53/89 11/52/90
f 11/52/91 24/53/92 30/57/93 25/56/94 12/55/95
f 12/55/96 25/56/97 31/60/98 26/59/99 1/58/100
f 1/58/101 26/59/102 33/63/103 27/62/104 2/61/105
f 2/61/106 27/62/107 28/65/108 3/64/109
f 3/64/110 28/65/111 32/66/112 13/38/113 4/34/114
f 4/4/115 5/5/116 35/68/117 34/67/118
f 68/13/119 67/14/120 37/15/121 36/16/122
f 37/15/123 67/14/124 69/17/125 38/18/126
f 5/5/127 6/6/128 39/72/129 35/68/130
f 70/19/131 68/13/132 36/16/133 40/20/134
f 6/6/135 7/7/136 41/74/137 39/72/138
f 72/21/139 71/22/140 43/23/141 42/24/142
f 43/23/143 71/22/144 70/19/145 40/20/146
f 7/7/147 8/8/148 44/77/149 41/74/150
f 74/25/151 73/26/152 46/27/153 45/28/154
f 46/27/155 73/26/156 72/21/157 42/24/158
f 8/8/159 9/9/160 47/80/161 44/77/162
f 75/29/163 74/25/164 45/28/165 48/30/166
f 9/9/167 10/10/168 49/82/169 47/80/170
f 77/31/171 76/32/172 51/33/173 50/100/174
f 51/33/175 76/32/176 75/29/177 48/30/178
f 10/10/179 11/11/180 52/85/181 49/82/182
f 79/101/183 78/102/184 54/103/185 53/104/186
f 54/103/187 78/102/188 77/31/189 50/100/190
f 11/11/191 12/12/192 55/88/193 52/85/194
f 81/105/195 80/106/196 57/107/197 56/108/198
f 57/107/199 80/106/200 79/101/201 53/104/202
f 12/12/203 1/1/204 58/91/205 55/88/206
f 83/109/207 82/110/208 60/111/209 59/112/210
f 60/111/211 82/110/212 81/105/213 56/108/214
f 1/1/215 2/2/216 61/94/217 58/91/218
f 85/113/219 84/114/220 63/115/221 62/116/222
f 63/115/223 84/114/224 83/109/225 59/112/226
f 2/2/227 3/3/228 64/97/229 61/94/230
f 86/117/231 85/113/232 62/116/233 65/118/234
f 3/3/235 4/4/236 34/67/237 64/97/238
f 38/18/239 69/17/240 87/119/241 66/120/242
f 66/120/243 87/119/244 86/117/245 65/118/246
f 14/121/247 20/122/248 67/14/249 68/13/250
f 20/122/251 13/123/252 69/17/253 67/14/254
f 15/124/255 14/121/256 68/13/257 70/19/258
f 16/125/259 21/126/260 71/22/261 72/21/262
f 21/126/263 15/124/264 70/19/265 71/22/266
f 17/127/267 22/128/268 73/26/269 74/25/270
f 22/128/271 16/125/272 72/21/273 73/26/274
f 18/129/275 17/127/276 74/25/277 75/29/278
f 19/130/279 23/131/280 76/32/281 77/31/282
f 23/131/283 18/129/284 75/29/285 76/32/286
f 24/132/287 29/133/288 78/102/289 79/101/290
f 29/133/291 19/130/292 77/31/293 78/102/294
f 25/134/295 30/135/296 80/106/297 81/105/298
f 30/135/299 24/132/300 79/101/301 80/106/302
f 26/136/303 31/137/304 82/110/305 83/109/306
f 31/137/307 25/134/308 81/105/309 82/110/310
f 27/138/311 33/139/312 84/114/313 85/113/314
f 33/139/315 26/136/316 83/109/317 84/114/318
f 28/140/319 27/138/320 85/113/321 86/117/322
f 13/123/323 32/141/324 87/119/325 69/17/326
f 32/141/327 28/140/328 86/117/329 87/119/330
