# This file uses centimeters as units for non-parametric coordinates.

v -8.655090 12.469130 -5.165710
v -6.898499 12.890177 -8.100891
v -8.731384 14.679375 -5.276184
v -7.305603 15.021267 -7.659607
v -11.337585 14.900341 -5.903015
v -11.255188 15.398893 -8.862000
v -11.864929 12.741251 -5.938110
v -11.763000 13.355236 -9.581604
v -8.667297 15.394039 -9.503174
v -8.575745 13.349237 -10.371399
v 14.397278 -5.383758 10.200500
v 14.388733 -7.809020 12.649231
v 16.584778 -5.685329 10.366821
v 16.578064 -7.654677 12.355042
v 16.932678 -6.961222 8.024597
v 17.121887 -9.834795 8.870544
v 14.825745 -6.955013 7.316284
v 15.058899 -10.493813 8.358459
v 16.861877 -9.804525 11.524048
v 14.738464 -10.456553 11.625671
v 14.667664 -3.567505 -3.699646
v 14.966125 -6.944800 -4.317932
v 16.856995 -3.646784 -4.021301
v 17.099304 -6.389227 -4.523621
v 16.894836 -2.422056 -6.415710
v 17.180481 -4.724665 -8.320007
v 14.714661 -2.059250 -6.648254
v 15.066223 -4.894905 -8.993225
v 17.264709 -6.901350 -6.782532
v 15.169983 -7.575473 -7.099915
v 10.917664 -15.398893 13.744202
v 11.327209 -9.848680 -12.397156
v 15.523987 -13.873148 13.665466
v 15.829163 -8.485508 -10.912781
v -16.584167 10.453300 9.658203
v -13.410950 14.796839 -13.017273
v -17.264709 6.181011 8.692322
v -13.509216 10.751696 -15.085754
v 6.201477 12.209644 -9.693909
v 7.787781 8.125534 14.154968
v 5.452576 4.347343 14.212646
v 4.652405 8.469143 -11.928406
v 14.164734 -0.878220 15.085754
v 14.623108 7.408800 -8.523865
v 11.340637 5.144196 -11.124573
v 10.215759 -3.341665 14.737244
v -13.976135 10.130644 6.744080
v -11.147156 9.749279 8.675232
v -13.461609 12.269936 6.992188
v -11.164246 11.960278 8.560486
v -12.618713 12.712822 4.476318
v -9.632263 12.625217 4.765625
v -12.938538 10.676060 3.645935
v -9.261169 10.568171 4.001770
v -9.190369 12.154264 7.352295
v -8.716736 9.988194 7.187500
vt 0.091490 0.110006
vt 0.091490 0.110006
vt 0.091490 0.110006
vt 0.091490 0.110006
vt 0.091490 0.110006
vt 0.091490 0.110006
vt 0.091490 0.110006
vt 0.091490 0.110006
vt 0.091490 0.110006
vt 0.091490 0.110006
vt 0.091490 0.110006
vt 0.091490 0.110006
vt 0.091490 0.110006
vt 0.091490 0.110006
vt 0.091490 0.110006
vt 0.091490 0.110006
vt 0.091490 0.110006
vt 0.091490 0.110006
vt 0.091490 0.110006
vt 0.091490 0.110006
vt 0.091490 0.110006
vt 0.091490 0.110006
vt 0.091490 0.110006
vt 0.091490 0.110006
vt 0.091490 0.110006
vt 0.091490 0.110006
vt 0.091490 0.110006
vt 0.091490 0.110006
vt 0.091490 0.110006
vt 0.091490 0.110006
vt 0.091490 0.110006
vt 0.091490 0.110006
vt 0.091490 0.110006
vt 0.091490 0.110006
vt 0.091490 0.110006
vt 0.091490 0.110006
vt 0.091490 0.110006
vt 0.091490 0.110006
vt 0.091490 0.110006
vt 0.091490 0.110006
vt 0.091490 0.110006
vt 0.091490 0.110006
vt 0.091490 0.110006
vt 0.091490 0.110006
vt 0.091490 0.110006
vt 0.081432 0.110674
vt 0.081432 0.110674
vt 0.081432 0.110674
vt 0.081432 0.110674
vt 0.081432 0.110674
vt 0.081432 0.110674
vt 0.081432 0.110674
vt 0.081432 0.110674
vt 0.081432 0.110674
vt 0.081432 0.110674
vt 0.081432 0.110674
vt 0.081432 0.110674
vt 0.081432 0.110674
vt 0.081432 0.110674
vt 0.081432 0.110674
vt 0.081432 0.110674
vt 0.091490 0.110006
vt 0.091490 0.110006
vt 0.091490 0.110006
vt 0.091490 0.110006
vt 0.091490 0.110006
vt 0.091490 0.110006
vt 0.091490 0.110006
vt 0.091490 0.110006
vt 0.091490 0.110006
vt 0.091490 0.110006
vt 0.091490 0.110006
vt 0.091490 0.110006
vt 0.091490 0.110006
vt 0.091490 0.110006
vt 0.091490 0.110006
vn 0.853267 0.055499 0.518512
vn 0.853268 0.055499 0.518512
vn 0.853267 0.055499 0.518512
vn 0.853267 0.055499 0.518512
vn 0.043286 0.984976 0.167180
vn 0.043286 0.984976 0.167180
vn 0.043286 0.984976 0.167180
vn 0.043286 0.984976 0.167180
vn 0.043286 0.984976 0.167180
vn -0.971433 0.236969 0.012810
vn -0.971433 0.236969 0.012810
vn -0.971433 0.236969 0.012810
vn -0.971433 0.236969 0.012810
vn 0.302784 0.383944 -0.872301
vn 0.301715 0.384036 -0.872631
vn -0.222534 0.372552 -0.900935
vn -0.222534 0.372552 -0.900935
vn -0.230463 0.040564 0.972235
vn -0.230463 0.040564 0.972235
vn -0.230463 0.040564 0.972235
vn -0.230463 0.040564 0.972235
vn 0.800523 0.264269 -0.537889
vn 0.301715 0.384036 -0.872631
vn 0.302784 0.383944 -0.872301
vn 0.800523 0.264269 -0.537889
vn 0.044414 0.709711 0.703091
vn 0.044414 0.709711 0.703091
vn 0.044414 0.709711 0.703091
vn 0.044414 0.709711 0.703091
vn 0.990957 0.093626 0.096113
vn 0.990957 0.093626 0.096113
vn 0.990957 0.093626 0.096113
vn 0.990957 0.093626 0.096113
vn 0.990957 0.093626 0.096113
vn 0.307813 -0.250032 -0.918006
vn 0.307813 -0.250032 -0.918006
vn 0.307813 -0.250032 -0.918006
vn 0.307813 -0.250032 -0.918006
vn 0.270426 -0.796242 0.541173
vn 0.270581 -0.796914 0.540106
vn 0.295061 -0.954648 0.039815
vn 0.295061 -0.954648 0.039815
vn 0.155453 0.876995 -0.454658
vn 0.155453 0.876995 -0.454658
vn 0.155453 0.876995 -0.454658
vn 0.155453 0.876995 -0.454658
vn 0.148705 -0.339417 0.928807
vn 0.270581 -0.796914 0.540106
vn 0.270426 -0.796242 0.541173
vn 0.148705 -0.339417 0.928807
vn 0.137481 -0.166641 0.976386
vn 0.137481 -0.166641 0.976386
vn 0.137481 -0.166641 0.976386
vn 0.137481 -0.166641 0.976386
vn 0.995437 0.077700 0.055390
vn 0.995437 0.077700 0.055390
vn 0.995437 0.077700 0.055390
vn 0.995437 0.077700 0.055390
vn 0.995437 0.077700 0.055390
vn 0.185973 0.639769 -0.745728
vn 0.185973 0.639769 -0.745728
vn 0.185973 0.639769 -0.745728
vn 0.185973 0.639769 -0.745728
vn 0.334947 -0.865791 -0.371774
vn 0.334961 -0.865267 -0.372981
vn 0.294080 -0.543793 -0.786007
vn 0.294080 -0.543793 -0.786007
vn 0.098837 0.885296 0.454403
vn 0.098837 0.885296 0.454403
vn 0.098837 0.885296 0.454403
vn 0.098837 0.885296 0.454403
vn 0.266038 -0.935722 0.231621
vn 0.334961 -0.865267 -0.372981
vn 0.334947 -0.865791 -0.371774
vn 0.266038 -0.935722 0.231621
vn 0.323751 -0.925810 -0.195092
vn 0.323751 -0.925810 -0.195092
vn 0.323752 -0.925810 -0.195092
vn 0.323751 -0.925810 -0.195092
vn 0.658153 0.732209 0.175225
vn 0.658153 0.732209 0.175225
vn 0.658153 0.732209 0.175225
vn 0.658153 0.732209 0.175225
vn -0.983338 0.136058 -0.120559
vn -0.983338 0.136058 -0.120559
vn -0.983338 0.136058 -0.120559
vn -0.983338 0.136058 -0.120559
vn -0.671218 -0.719420 -0.178609
vn -0.671218 -0.719420 -0.178609
vn -0.671218 -0.719420 -0.178609
vn -0.671218 -0.719420 -0.178609
vn 0.333269 0.413936 -0.847106
vn 0.333269 0.413936 -0.847106
vn 0.333269 0.413936 -0.847106
vn 0.333269 0.413936 -0.847106
vn -0.079610 0.033731 0.996255
vn -0.079610 0.033731 0.996255
vn -0.079610 0.033731 0.996255
vn -0.079610 0.033731 0.996255
vn 0.077521 0.980558 0.180267
vn 0.077521 0.980558 0.180267
vn 0.077521 0.980558 0.180267
vn 0.077521 0.980558 0.180267
vn -0.210616 -0.031329 0.977067
vn -0.210616 -0.031329 0.977067
vn -0.210616 -0.031329 0.977067
vn -0.210616 -0.031329 0.977067
vn -0.061847 -0.982664 -0.174774
vn -0.061847 -0.982664 -0.174774
vn -0.061847 -0.982664 -0.174774
vn -0.061847 -0.982664 -0.174774
vn 0.206631 0.439428 -0.874189
vn 0.206631 0.439428 -0.874189
vn 0.206631 0.439428 -0.874189
vn 0.206631 0.439428 -0.874189
vn 0.995752 0.083226 0.039396
vn 0.995752 0.083226 0.039396
vn 0.995752 0.083226 0.039396
vn 0.995752 0.083226 0.039396
vn 0.415654 0.122880 -0.901184
vn 0.415654 0.122880 -0.901184
vn 0.415654 0.122880 -0.901184
vn 0.415654 0.122880 -0.901184
vn -0.999116 -0.022453 -0.035540
vn -0.999116 -0.022453 -0.035540
vn -0.999116 -0.022453 -0.035540
vn -0.999116 -0.022453 -0.035540
vn 0.012831 -0.094834 0.995410
vn 0.012831 -0.094834 0.995410
vn 0.012831 -0.094834 0.995410
vn 0.012831 -0.094834 0.995410
vn -0.559821 0.038639 0.827712
vn -0.559821 0.038639 0.827712
vn -0.559821 0.038639 0.827712
vn -0.559821 0.038639 0.827712
vn 0.011712 0.984112 0.177165
vn 0.011712 0.984111 0.177165
vn 0.011712 0.984112 0.177165
vn 0.011712 0.984111 0.177165
vn 0.011712 0.984111 0.177165
vn 0.100341 0.362141 -0.926707
vn 0.100341 0.362141 -0.926707
vn 0.100341 0.362141 -0.926707
vn 0.100341 0.362141 -0.926707
vn 0.903463 0.167514 0.394579
vn 0.903889 0.167687 0.393529
vn 0.967232 0.220966 -0.125041
vn 0.967232 0.220966 -0.125041
vn -0.929590 0.254568 -0.266565
vn -0.929590 0.254568 -0.266565
vn -0.929590 0.254568 -0.266565
vn -0.929590 0.254568 -0.266565
vn 0.518004 0.048310 0.854013
vn 0.903889 0.167687 0.393529
vn 0.903463 0.167514 0.394579
vn 0.518004 0.048310 0.854013
s off
f 1/1/1 2/2/2 4/3/3 3/4/4
f 3/4/5 4/3/6 9/5/7 6/6/8 5/7/9
f 5/7/10 6/6/11 8/8/12 7/9/13
f 9/10/14 10/11/15 8/12/16 6/13/17
f 7/14/18 1/1/19 3/4/20 5/15/21
f 2/2/22 10/11/23 9/10/24 4/3/25
f 11/16/26 12/17/27 14/18/28 13/19/29
f 13/19/30 14/18/31 19/20/32 16/21/33 15/22/34
f 15/22/35 16/21/36 18/23/37 17/24/38
f 19/25/39 20/26/40 18/27/41 16/28/42
f 17/29/43 11/16/44 13/19/45 15/30/46
f 12/17/47 20/26/48 19/25/49 14/18/50
f 21/31/51 22/32/52 24/33/53 23/34/54
f 23/34/55 24/33/56 29/35/57 26/36/58 25/37/59
f 25/37/60 26/36/61 28/38/62 27/39/63
f 29/40/64 30/41/65 28/42/66 26/43/67
f 27/44/68 21/31/69 23/34/70 25/45/71
f 22/32/72 30/41/73 29/40/74 24/33/75
f 31/46/76 32/47/77 34/48/78 33/49/79
f 40/50/80 43/51/81 44/52/82 39/53/83
f 35/54/84 36/55/85 38/56/86 37/57/87
f 46/58/88 41/59/89 42/60/90 45/61/91
f 39/53/92 44/52/93 45/61/94 42/60/95
f 40/50/96 41/59/97 46/58/98 43/51/99
f 40/50/100 39/53/101 36/55/102 35/54/103
f 37/57/104 41/59/105 40/50/106 35/54/107
f 37/57/108 38/56/109 42/60/110 41/59/111
f 39/53/112 42/60/113 38/56/114 36/55/115
f 33/49/116 34/48/117 44/52/118 43/51/119
f 32/47/120 45/61/121 44/52/122 34/48/123
f 46/58/124 45/61/125 32/47/126 31/46/127
f 43/51/128 46/58/129 31/46/130 33/49/131
f 47/62/132 48/63/133 50/64/134 49/65/135
f 49/65/136 50/64/137 55/66/138 52/67/139 51/68/140
f 51/68/141 52/67/142 54/69/143 53/70/144
f 55/71/145 56/72/146 54/73/147 52/74/148
f 53/75/149 47/62/150 49/65/151 51/76/152
f 48/63/153 56/72/154 55/71/155 50/64/156
