# This file uses centimeters as units for non-parametric coordinates.

v -38.787766 -6.842341 -4.424820
v -52.707443 -6.842341 -4.424820
v -38.787766 29.592304 -6.875381
v -52.707443 29.592304 -6.875381
v -37.397385 23.783375 -13.124466
v -54.097824 23.783375 -13.124466
v -37.397385 -6.842341 -20.627670
v -54.097824 -6.842341 -20.627670
v -38.787766 33.091969 -30.994644
v -52.707443 33.091969 -30.994644
v -54.097824 26.893663 -30.994644
v -37.397385 26.893663 -30.994644
v -38.787766 26.346394 -4.424820
v -52.707443 26.346394 -4.424820
v -37.397385 0.596752 -13.124466
v -54.097824 0.596752 -13.124466
v -39.184799 9.778675 -4.513626
v -52.310410 9.778675 -4.513626
v -52.310410 17.962196 -4.513626
v -39.184799 17.962196 -4.513626
v -38.248520 10.991163 -7.165146
v -38.248520 17.131529 -7.165146
v -53.246689 10.991163 -7.165146
v -53.246689 17.131535 -7.165146
v 38.787918 -6.842341 -4.424820
v 52.707596 -6.842341 -4.424820
v 38.787918 29.592304 -6.875381
v 52.707596 29.592304 -6.875381
v 37.397537 23.783375 -13.124466
v 54.097977 23.783375 -13.124466
v 37.397537 -6.842341 -20.627670
v 54.097977 -6.842341 -20.627670
v 38.787918 33.091969 -30.994644
v 52.707596 33.091969 -30.994644
v 54.097977 26.893663 -30.994644
v 37.397537 26.893663 -30.994644
v 38.787918 26.346394 -4.424820
v 52.707596 26.346394 -4.424820
v 37.397537 0.596752 -13.124466
v 54.097977 0.596752 -13.124466
v 39.184952 9.778675 -4.513626
v 52.310562 9.778675 -4.513626
v 52.310562 17.962196 -4.513626
v 39.184952 17.962196 -4.513626
v 38.248672 10.991163 -7.165146
v 38.248672 17.131529 -7.165146
v 53.246841 10.991163 -7.165146
v 53.246841 17.131535 -7.165146
v -92.807846 -33.091972 29.013596
v 93.022842 -33.091972 28.947525
v -88.813095 -32.581451 -4.494858
v 88.642654 -32.581451 -4.512711
v -88.250656 0.247602 -9.212418
v -92.131577 -10.285450 4.705582
v 92.117386 -10.285450 4.668198
v 88.025894 0.247602 -9.223404
v -86.737900 -10.285450 8.680801
v 86.731644 -10.285450 8.704147
v -87.137680 -28.765305 26.491623
v 87.323990 -28.765305 26.491013
v -82.294235 0.621476 -2.101517
v 82.152176 0.621476 -2.044601
v -83.633041 -24.938477 9.127274
v 83.619766 -24.938477 9.168167
v -82.601547 -13.354540 0.474014
v 82.488785 -13.354540 0.527267
v 0.000076 1.170568 6.334915
v 0.000076 -13.200846 8.928909
v 0.000076 -24.784821 17.643356
v -0.910263 -30.153282 34.491653
v 0.000076 -32.945755 38.623428
v 0.000076 -32.427757 4.730148
v 0.000076 0.401297 -0.020676
v -71.330185 -28.714073 28.401413
v -59.780807 -28.714073 29.191513
v -64.725266 -27.340744 19.543839
v -65.884018 -31.134155 30.087357
v -53.837509 -28.714073 29.598160
v -38.240585 -28.714073 30.665207
v -47.320175 -27.861412 23.718185
v -47.211227 -30.236290 30.877609
v -4.993820 -28.515900 33.408890
v -0.910263 -27.475098 24.387436
v 3.924637 -28.515900 33.408890
v 46.272964 -28.714073 30.012131
v 59.019852 -28.714073 29.168320
v 50.584488 -26.975868 18.329697
v 52.767410 -30.973747 30.808182
v 31.019058 -28.714073 31.021805
v 39.798355 -28.714073 30.440750
v 35.238113 -27.816628 24.161301
v 35.428543 -31.022652 31.982498
v -64.673996 -6.408968 -4.508286
v -25.879135 -6.255312 -7.545700
v -25.879135 -23.045547 -5.585098
v -64.673996 -23.199242 -2.547684
v 25.879288 -23.045547 -5.585098
v 25.879288 -6.255312 -7.545700
v 64.673843 -6.408968 -4.508286
v 64.673843 -23.199242 -2.547684
v 33.743668 -15.767984 -31.786575
v 33.743668 -7.235460 -32.124405
v 56.809464 -7.235460 -32.124405
v 56.809464 -15.767984 -31.786575
v -56.809311 -7.235460 -32.124405
v -33.743515 -7.235460 -32.124405
v -33.743515 -15.767984 -31.786575
v -56.809311 -15.767984 -31.786575
vt 0.642899 0.132469
vt 0.626835 0.131704
vt 0.627776 0.094707
vt 0.643840 0.095728
vt 0.540485 0.130327
vt 0.556951 0.134446
vt 0.557946 0.094191
vt 0.541315 0.096542
vt 0.658046 0.136235
vt 0.662434 0.137624
vt 0.663450 0.098264
vt 0.659079 0.096137
vt 0.694612 0.099568
vt 0.594122 0.128745
vt 0.594997 0.093902
vt 0.598884 0.092298
vt 0.597849 0.133450
vt 0.607576 0.128957
vt 0.608456 0.094119
vt 0.693735 0.133125
vt 0.651245 0.130109
vt 0.652073 0.097877
vt 0.630638 0.096531
vt 0.629809 0.129063
vt 0.638111 0.319434
vt 0.637174 0.356007
vt 0.621107 0.356795
vt 0.622044 0.319968
vt 0.535871 0.318184
vt 0.535045 0.351816
vt 0.551511 0.354402
vt 0.552502 0.314328
vt 0.653430 0.315418
vt 0.652401 0.355337
vt 0.656883 0.352701
vt 0.657895 0.313514
vt 0.687987 0.353126
vt 0.589258 0.322476
vt 0.588387 0.357157
vt 0.592195 0.358292
vt 0.593225 0.317329
vt 0.602686 0.322661
vt 0.601810 0.357336
vt 0.688860 0.319720
vt 0.645487 0.354204
vt 0.646311 0.322119
vt 0.624873 0.322859
vt 0.624048 0.355242
vt 0.846109 0.229410
vt 0.772034 0.227447
vt 0.748175 0.433797
vt 0.818690 0.456154
vt 0.759318 0.018814
vt 0.831352 0.000963
vt 0.724011 0.002931
vt 0.669630 0.013159
vt 0.692428 0.226968
vt 0.733945 0.227361
vt 0.712084 0.424862
vt 0.671958 0.426024
vt 0.658636 0.437625
vt 0.712128 0.450148
vt 0.659299 0.302593
vt 0.637872 0.303086
vt 0.636509 0.356346
vt 0.657935 0.355399
vt 0.720627 0.438569
vt 0.803322 0.442335
vt 0.815019 0.014432
vt 0.731795 0.015102
vt 0.823478 0.238753
vt 0.830178 0.226864
vt 0.824248 0.316267
vt 0.816852 0.305413
vt 0.757820 0.428118
vt 0.783984 0.350843
vt 0.810906 0.373890
vt 0.722455 0.027865
vt 0.682243 0.025843
vt 0.768533 0.026173
vt 0.780546 0.228048
vt 0.804133 0.112591
vt 0.820757 0.134413
vt 0.824086 0.216653
vt 0.801545 0.226251
vt 0.827198 0.066604
vt 0.818015 0.052976
vt 0.643240 0.093432
vt 0.641870 0.146921
vt 0.663297 0.147762
vt 0.664666 0.094731
vt 0.795055 0.070510
vt 0.818970 0.081355
vt 0.825514 0.112431
vt 0.819463 0.095978
vt 0.820375 0.358644
vt 0.813608 0.342774
vt 0.799474 0.314628
vt 0.814984 0.326933
vt 0.681698 0.226626
vt 0.685338 0.164277
vt 0.694117 0.070633
vt 0.730425 0.165637
vt 0.739293 0.073459
vt 0.682107 0.288308
vt 0.727188 0.287745
vt 0.685989 0.381869
vt 0.731149 0.379851
vn 0.000000 0.000000 1.000000
vn 0.000000 0.000000 1.000000
vn 0.000000 0.000000 1.000000
vn 0.000000 0.000000 1.000000
vn 0.000000 0.000000 -1.000000
vn 0.000000 0.000000 -1.000000
vn 0.000000 0.000000 -1.000000
vn 0.000000 0.000000 -1.000000
vn 0.000000 0.237959 -0.971275
vn 0.000000 0.710134 -0.704066
vn 0.000000 0.710134 -0.704066
vn 0.000000 0.237959 -0.971275
vn -0.986467 -0.029283 0.161323
vn -0.987566 -0.027496 0.154784
vn -0.992654 -0.085915 0.085181
vn 0.000000 0.989637 0.143595
vn 0.000000 0.989637 0.143595
vn 0.000000 0.989637 0.143595
vn 0.000000 0.989637 0.143595
vn -0.977319 0.209198 0.032932
vn -0.977319 0.209198 0.032932
vn -0.977319 0.209198 0.032932
vn -0.977319 0.209198 0.032932
vn 0.000000 -0.985189 -0.171471
vn 0.000000 -0.985189 -0.171471
vn 0.000000 -0.985189 -0.171471
vn 0.000000 -0.985189 -0.171471
vn 0.977319 0.209199 0.032932
vn 0.977318 0.209199 0.032932
vn 0.977319 0.209199 0.032932
vn 0.977318 0.209199 0.032932
vn 0.986038 0.004996 0.166448
vn 0.986846 0.097407 0.129021
vn 0.982772 0.022789 0.183415
vn -0.982772 0.022790 0.183415
vn -0.986846 0.097409 0.129021
vn -0.986038 0.004996 0.166448
vn 0.000000 0.000000 -1.000000
vn 0.000000 0.237959 -0.971275
vn 0.000000 0.237959 -0.971275
vn 0.000000 0.000000 -1.000000
vn 0.992655 -0.085915 0.085181
vn 0.987566 -0.027496 0.154784
vn 0.986467 -0.029283 0.161323
vn 0.000000 0.005343 0.999986
vn 0.000000 0.005343 0.999986
vn 0.000000 0.005343 0.999986
vn 0.000000 0.005343 0.999986
vn 0.000000 -0.010591 0.999944
vn 0.000000 -0.010591 0.999944
vn 0.000000 -0.010591 0.999944
vn 0.000000 -0.010591 0.999944
vn 0.987566 -0.027496 0.154784
vn 0.986199 0.000557 0.165566
vn 0.979422 0.001396 0.201817
vn 0.986467 -0.029283 0.161323
vn 0.982772 0.022789 0.183415
vn 0.979475 -0.002618 0.201547
vn 0.987054 -0.000824 0.160389
vn 0.986038 0.004996 0.166448
vn 0.986038 0.004996 0.166448
vn 0.987054 -0.000824 0.160389
vn 0.986199 0.000557 0.165566
vn 0.987566 -0.027496 0.154784
vn -0.986467 -0.029283 0.161323
vn -0.979422 0.001396 0.201817
vn -0.986199 0.000557 0.165566
vn -0.987566 -0.027496 0.154784
vn -0.987566 -0.027496 0.154784
vn -0.986199 0.000557 0.165566
vn -0.987054 -0.000824 0.160389
vn -0.986038 0.004996 0.166448
vn -0.986038 0.004996 0.166448
vn -0.987054 -0.000824 0.160389
vn -0.979475 -0.002618 0.201547
vn -0.982772 0.022790 0.183415
vn 0.000000 0.909427 0.415863
vn 0.000000 0.909427 0.415863
vn 0.000000 0.909427 0.415863
vn 0.000000 0.909427 0.415863
vn -0.000000 -0.954268 0.298953
vn -0.000000 -0.954268 0.298953
vn -0.000000 -0.954268 0.298953
vn -0.000000 -0.954268 0.298953
vn 0.000000 0.602535 0.798093
vn 0.000000 0.602535 0.798093
vn 0.000000 0.602535 0.798093
vn 0.000000 0.602535 0.798093
vn -0.000000 0.000000 1.000000
vn -0.000000 0.000000 1.000000
vn -0.000000 0.000000 1.000000
vn -0.000000 0.000000 1.000000
vn 0.000000 0.000000 -1.000000
vn 0.000000 0.000000 -1.000000
vn 0.000000 0.000000 -1.000000
vn 0.000000 0.000000 -1.000000
vn 0.000000 0.237959 -0.971275
vn 0.000000 0.237959 -0.971275
vn 0.000000 0.710134 -0.704066
vn 0.000000 0.710134 -0.704066
vn 0.986467 -0.029283 0.161323
vn 0.992655 -0.085915 0.085181
vn 0.987566 -0.027496 0.154784
vn 0.000000 0.989637 0.143595
vn 0.000000 0.989637 0.143595
vn 0.000000 0.989637 0.143595
vn 0.000000 0.989637 0.143595
vn 0.977318 0.209199 0.032932
vn 0.977319 0.209199 0.032932
vn 0.977319 0.209199 0.032932
vn 0.977318 0.209199 0.032932
vn 0.000000 -0.985189 -0.171471
vn 0.000000 -0.985189 -0.171471
vn 0.000000 -0.985189 -0.171471
vn 0.000000 -0.985189 -0.171471
vn -0.977319 0.209199 0.032932
vn -0.977319 0.209199 0.032932
vn -0.977319 0.209199 0.032932
vn -0.977319 0.209199 0.032932
vn -0.986038 0.004996 0.166448
vn -0.982771 0.022789 0.183415
vn -0.986846 0.097407 0.129021
vn 0.982772 0.022789 0.183415
vn 0.986038 0.004996 0.166448
vn 0.986846 0.097405 0.129021
vn 0.000000 0.000000 -1.000000
vn 0.000000 0.000000 -1.000000
vn 0.000000 0.237959 -0.971275
vn 0.000000 0.237959 -0.971275
vn -0.992655 -0.085915 0.085181
vn -0.986467 -0.029283 0.161323
vn -0.987566 -0.027496 0.154784
vn 0.000000 0.005343 0.999986
vn 0.000000 0.005343 0.999986
vn 0.000000 0.005343 0.999986
vn 0.000000 0.005343 0.999986
vn 0.000000 -0.010591 0.999944
vn 0.000000 -0.010591 0.999944
vn 0.000000 -0.010591 0.999944
vn 0.000000 -0.010591 0.999944
vn -0.987566 -0.027496 0.154784
vn -0.986467 -0.029283 0.161323
vn -0.979422 0.001396 0.201817
vn -0.986199 0.000557 0.165566
vn -0.982771 0.022789 0.183415
vn -0.986038 0.004996 0.166448
vn -0.987054 -0.000824 0.160389
vn -0.979475 -0.002618 0.201547
vn -0.986038 0.004996 0.166448
vn -0.987566 -0.027496 0.154784
vn -0.986199 0.000557 0.165566
vn -0.987054 -0.000824 0.160389
vn 0.986467 -0.029283 0.161323
vn 0.987566 -0.027496 0.154784
vn 0.986199 0.000557 0.165566
vn 0.979422 0.001396 0.201817
vn 0.987566 -0.027496 0.154784
vn 0.986038 0.004996 0.166448
vn 0.987054 -0.000824 0.160389
vn 0.986199 0.000557 0.165566
vn 0.986038 0.004996 0.166448
vn 0.982772 0.022789 0.183415
vn 0.979475 -0.002618 0.201547
vn 0.987054 -0.000824 0.160389
vn 0.000000 0.909427 0.415863
vn 0.000000 0.909427 0.415863
vn 0.000000 0.909427 0.415863
vn 0.000000 0.909427 0.415863
vn 0.000000 -0.954268 0.298952
vn 0.000000 -0.954268 0.298952
vn 0.000000 -0.954268 0.298952
vn 0.000000 -0.954268 0.298952
vn 0.000000 0.602535 0.798092
vn 0.000000 0.602535 0.798092
vn 0.000000 0.602535 0.798092
vn 0.000000 0.602535 0.798092
vn -0.003219 -0.999881 -0.015059
vn -0.003219 -0.999882 -0.015059
vn -0.003219 -0.999881 -0.015059
vn -0.003219 -0.999882 -0.015059
vn -0.981098 -0.071887 -0.179661
vn -0.981098 -0.071887 -0.179661
vn -0.981098 -0.071887 -0.179661
vn -0.981098 -0.071887 -0.179661
vn 0.100511 0.179528 0.978605
vn 0.100511 0.179528 0.978605
vn 0.100511 0.179528 0.978605
vn 0.100511 0.179528 0.978605
vn 0.978610 -0.073371 -0.192194
vn 0.978610 -0.073371 -0.192194
vn 0.978610 -0.073371 -0.192194
vn 0.978610 -0.073371 -0.192194
vn 0.000000 -0.039562 -0.999217
vn 0.000000 -0.039562 -0.999217
vn 0.000000 -0.039562 -0.999217
vn 0.000000 -0.039562 -0.999217
vn 0.355238 0.673433 0.648301
vn 0.355238 0.673433 0.648301
vn 0.355238 0.673433 0.648301
vn 0.355238 0.673433 0.648301
vn -0.349012 0.673665 0.651433
vn -0.349012 0.673665 0.651433
vn -0.349012 0.673665 0.651433
vn -0.349012 0.673665 0.651433
vn 0.068094 0.689558 0.721022
vn 0.068094 0.689558 0.721022
vn 0.068094 0.689558 0.721022
vn 0.068094 0.689558 0.721023
vn 0.068094 0.689558 0.721022
vn 0.005219 0.981441 0.191694
vn 0.005219 0.981441 0.191694
vn 0.005219 0.981441 0.191694
vn 0.005219 0.981441 0.191694
vn -0.945902 0.208748 0.248382
vn -0.945902 0.208748 0.248382
vn -0.945902 0.208748 0.248382
vn 0.900191 0.059702 0.431384
vn 0.900191 0.059702 0.431384
vn 0.900191 0.059702 0.431384
vn -0.895030 0.059778 0.441981
vn -0.895030 0.059778 0.441981
vn -0.895030 0.059778 0.441981
vn 0.948820 0.208281 0.237402
vn 0.948820 0.208281 0.237402
vn 0.948820 0.208281 0.237402
vn 0.902817 0.202853 0.379173
vn 0.902817 0.202853 0.379173
vn 0.902817 0.202853 0.379173
vn 0.081957 0.600087 0.795725
vn 0.081957 0.600087 0.795725
vn 0.081957 0.600087 0.795725
vn 0.081957 0.600088 0.795725
vn -0.898209 0.203098 0.389836
vn -0.898209 0.203098 0.389836
vn -0.898209 0.203098 0.389836
vn -0.101004 0.179546 0.978551
vn -0.101004 0.179546 0.978551
vn -0.101004 0.179546 0.978551
vn -0.101004 0.179546 0.978551
vn -0.082339 0.600126 0.795657
vn -0.082339 0.600126 0.795657
vn -0.082339 0.600126 0.795657
vn -0.082339 0.600126 0.795657
vn -0.012784 0.977782 0.209232
vn -0.012784 0.977782 0.209233
vn -0.012784 0.977782 0.209233
vn -0.012784 0.977782 0.209233
vn -0.012784 0.977782 0.209233
vn -0.083834 0.529342 0.844256
vn -0.083834 0.529342 0.844256
vn -0.083834 0.529342 0.844256
vn -0.083834 0.529342 0.844256
vn 0.003214 -0.999881 -0.015067
vn 0.003214 -0.999881 -0.015067
vn 0.003214 -0.999881 -0.015067
vn 0.003214 -0.999881 -0.015067
vn 0.000000 -0.039562 -0.999217
vn 0.000000 -0.039562 -0.999217
vn 0.000000 -0.039562 -0.999217
vn 0.000000 -0.039562 -0.999217
vn 0.286903 0.890917 0.352070
vn 0.286903 0.890917 0.352070
vn 0.286903 0.890917 0.352070
vn -0.315598 0.903383 0.290340
vn -0.315598 0.903383 0.290340
vn -0.315598 0.903383 0.290340
vn 0.155901 0.938245 0.308856
vn 0.155901 0.938245 0.308856
vn 0.155901 0.938245 0.308856
vn -0.151661 0.937472 0.313281
vn -0.151661 0.937472 0.313281
vn -0.151661 0.937472 0.313281
vn 0.304475 0.920727 0.244044
vn 0.304475 0.920727 0.244044
vn 0.304475 0.920727 0.244044
vn -0.260646 0.933210 0.247353
vn -0.260646 0.933210 0.247353
vn -0.260646 0.933210 0.247353
vn 0.291639 0.924568 0.245197
vn 0.291639 0.924568 0.245197
vn 0.291639 0.924568 0.245197
vn -0.241614 0.911027 0.334144
vn -0.241614 0.911027 0.334144
vn -0.241614 0.911027 0.334144
vn 0.375726 0.860660 0.343649
vn 0.375726 0.860660 0.343649
vn 0.375726 0.860660 0.343649
vn -0.331050 0.870250 0.364789
vn -0.331050 0.870250 0.364789
vn -0.331050 0.870250 0.364789
vn 0.003515 0.989406 0.145133
vn 0.003515 0.989406 0.145133
vn 0.003515 0.989406 0.145133
vn 0.003515 0.989406 0.145133
vn 0.012747 0.978071 0.207882
vn 0.012747 0.978071 0.207882
vn 0.012747 0.978071 0.207882
vn 0.012747 0.978071 0.207882
vn 0.012747 0.978071 0.207882
vn 0.038718 0.969584 0.241678
vn 0.038718 0.969584 0.241678
vn 0.038718 0.969584 0.241678
vn -0.005656 0.989945 0.141342
vn -0.005656 0.989945 0.141342
vn -0.005656 0.989945 0.141342
vn -0.005656 0.989945 0.141342
vn -0.002323 0.981065 0.193663
vn -0.002323 0.981065 0.193663
vn -0.002323 0.981065 0.193663
vn -0.002323 0.981065 0.193663
vn -0.030893 0.967873 0.249534
vn -0.030893 0.967873 0.249534
vn -0.030893 0.967873 0.249534
vn -0.060025 0.476128 0.877325
vn -0.060025 0.476128 0.877325
vn -0.060025 0.476128 0.877325
vn -0.060025 0.476128 0.877325
vn -0.057264 0.706933 0.704959
vn -0.057264 0.706933 0.704959
vn -0.057264 0.706933 0.704959
vn -0.057264 0.706933 0.704959
vn -0.057264 0.706933 0.704959
vn -0.072872 0.699507 0.710901
vn -0.072872 0.699507 0.710901
vn -0.072872 0.699507 0.710901
vn -0.072872 0.699507 0.710901
vn 0.058088 0.476069 0.877488
vn 0.058088 0.476069 0.877487
vn 0.058088 0.476069 0.877488
vn 0.058088 0.476069 0.877487
vn 0.072766 0.522318 0.849640
vn 0.072766 0.522318 0.849640
vn 0.072766 0.522318 0.849640
vn 0.072766 0.522318 0.849640
vn 0.060484 0.791544 0.608111
vn 0.060484 0.791544 0.608111
vn 0.060484 0.791544 0.608111
vn 0.060484 0.791544 0.608111
vn 0.490151 0.735609 0.467581
vn 0.490151 0.735609 0.467581
vn 0.490151 0.735609 0.467581
vn 0.490151 0.735609 0.467581
vn -0.486558 0.734284 0.473380
vn -0.486558 0.734284 0.473380
vn -0.486558 0.734284 0.473380
vn -0.486558 0.734284 0.473380
vn 0.004858 0.996221 -0.086716
vn 0.004858 0.996221 -0.086716
vn 0.004858 0.996221 -0.086716
vn 0.004858 0.996221 -0.086716
vn -0.004794 0.996264 -0.086227
vn -0.004794 0.996264 -0.086227
vn -0.004794 0.996264 -0.086227
vn -0.004794 0.996264 -0.086227
vn 0.046934 0.199282 -0.978818
vn 0.046934 0.199282 -0.978818
vn 0.046934 0.199282 -0.978818
vn 0.046934 0.199282 -0.978818
vn 0.317236 -0.127114 -0.939789
vn 0.317236 -0.127114 -0.939789
vn 0.317236 -0.127114 -0.939789
vn 0.317236 -0.127114 -0.939789
vn 0.045287 -0.403366 -0.913917
vn 0.045287 -0.403366 -0.913918
vn 0.045287 -0.403366 -0.913917
vn 0.045287 -0.403366 -0.913918
vn 0.144304 -0.133596 -0.980474
vn 0.144304 -0.133596 -0.980474
vn 0.144304 -0.133596 -0.980474
vn 0.144304 -0.133596 -0.980474
vn -0.317236 -0.127114 -0.939789
vn -0.317236 -0.127114 -0.939789
vn -0.317236 -0.127114 -0.939789
vn -0.317236 -0.127114 -0.939789
vn -0.047121 0.197712 -0.979127
vn -0.047121 0.197712 -0.979127
vn -0.047121 0.197712 -0.979127
vn -0.047121 0.197712 -0.979127
vn -0.146069 -0.133605 -0.980211
vn -0.146069 -0.133605 -0.980211
vn -0.146069 -0.133605 -0.980211
vn -0.146069 -0.133605 -0.980211
vn -0.045496 -0.402273 -0.914388
vn -0.045496 -0.402274 -0.914388
vn -0.045496 -0.402274 -0.914388
vn -0.045496 -0.402274 -0.914388
vn -0.953920 -0.027124 -0.298833
vn -0.953920 -0.027124 -0.298833
vn -0.953920 -0.027124 -0.298833
vn -0.953920 -0.027124 -0.298833
vn 0.004181 0.999393 -0.034592
vn 0.004181 0.999393 -0.034592
vn 0.004181 0.999393 -0.034592
vn 0.004181 0.999393 -0.034592
vn 0.962778 -0.024433 -0.269188
vn 0.962778 -0.024433 -0.269188
vn 0.962778 -0.024433 -0.269188
vn 0.962778 -0.024433 -0.269188
vn 0.010189 -0.966511 -0.256424
vn 0.010189 -0.966511 -0.256424
vn 0.010189 -0.966511 -0.256424
vn 0.010189 -0.966511 -0.256424
vn -0.004181 0.999393 -0.034592
vn -0.004181 0.999393 -0.034592
vn -0.004181 0.999393 -0.034592
vn -0.004181 0.999393 -0.034592
vn 0.953920 -0.027124 -0.298833
vn 0.953920 -0.027124 -0.298833
vn 0.953920 -0.027124 -0.298833
vn 0.953920 -0.027124 -0.298833
vn -0.010189 -0.966511 -0.256424
vn -0.010189 -0.966511 -0.256424
vn -0.010189 -0.966511 -0.256424
vn -0.010189 -0.966511 -0.256424
vn -0.962775 -0.024433 -0.269197
vn -0.962775 -0.024433 -0.269197
vn -0.962775 -0.024433 -0.269197
vn -0.962775 -0.024433 -0.269197
vn 0.036113 0.939999 0.339260
vn 0.036113 0.939999 0.339260
vn 0.036113 0.939999 0.339260
vn -0.029843 0.960768 0.275743
vn -0.029843 0.960768 0.275743
vn -0.029843 0.960768 0.275743
s off
f 21/1/1 22/2/2 24/3/3 23/4/4
f 9/5/5 12/6/6 11/7/7 10/8/8
f 15/9/9 7/10/10 8/11/11 16/12/12
f 2/13/13 16/12/14 8/11/15
f 3/14/16 9/5/17 10/8/18 4/15/19
f 4/15/20 10/8/21 11/7/22 6/16/23
f 6/16/24 11/7/25 12/6/26 5/17/27
f 5/17/28 12/6/29 9/5/30 3/14/31
f 5/17/32 3/14/33 13/18/34
f 14/19/35 4/15/36 6/16/37
f 5/17/38 15/9/39 16/12/40 6/16/41
f 7/10/42 15/9/43 1/20/44
f 1/20/45 17/21/46 18/22/47 2/13/48
f 14/19/49 19/23/50 20/24/51 13/18/52
f 15/9/53 21/1/54 17/21/55 1/20/56
f 13/18/57 20/24/58 22/2/59 5/17/60
f 5/17/61 22/2/62 21/1/63 15/9/64
f 2/13/65 18/22/66 23/4/67 16/12/68
f 16/12/69 23/4/70 24/3/71 6/16/72
f 6/16/73 24/3/74 19/23/75 14/19/76
f 17/21/77 21/1/78 23/4/79 18/22/80
f 19/23/81 24/3/82 22/2/83 20/24/84
f 4/15/85 14/19/86 13/18/87 3/14/88
f 45/25/89 47/26/90 48/27/91 46/28/92
f 33/29/93 34/30/94 35/31/95 36/32/96
f 39/33/97 40/34/98 32/35/99 31/36/100
f 26/37/101 32/35/102 40/34/103
f 27/38/104 28/39/105 34/30/106 33/29/107
f 28/39/108 30/40/109 35/31/110 34/30/111
f 30/40/112 29/41/113 36/32/114 35/31/115
f 29/41/116 27/38/117 33/29/118 36/32/119
f 29/41/120 37/42/121 27/38/122
f 38/43/123 30/40/124 28/39/125
f 29/41/126 30/40/127 40/34/128 39/33/129
f 31/36/130 25/44/131 39/33/132
f 25/44/133 26/37/134 42/45/135 41/46/136
f 38/43/137 37/42/138 44/47/139 43/48/140
f 39/33/141 25/44/142 41/46/143 45/25/144
f 37/42/145 29/41/146 46/28/147 44/47/148
f 29/41/149 39/33/150 45/25/151 46/28/152
f 26/37/153 40/34/154 47/26/155 42/45/156
f 40/34/157 30/40/158 48/27/159 47/26/160
f 30/40/161 38/43/162 43/48/163 48/27/164
f 41/46/165 42/45/166 47/26/167 45/25/168
f 43/48/169 44/47/170 46/28/171 48/27/172
f 28/39/173 27/38/174 37/42/175 38/43/176
f 71/49/177 72/50/178 52/51/179 50/52/180
f 51/53/181 49/54/182 54/55/183 53/56/184
f 67/57/185 68/58/186 66/59/187 62/60/188
f 50/52/189 52/51/190 56/61/191 55/62/192
f 101/63/193 102/64/194 103/65/195 104/66/196
f 50/52/197 55/62/198 58/67/199 60/68/200
f 54/55/201 49/54/202 59/69/203 57/70/204
f 84/71/205 70/72/206 71/49/207 92/73/208 89/74/209
f 64/75/210 87/76/211 86/77/212 60/68/213
f 60/68/214 58/67/215 64/75/216
f 57/70/217 65/78/218 61/79/219
f 66/59/220 58/67/221 62/60/222
f 57/70/223 59/69/224 63/80/225
f 57/70/226 63/80/227 65/78/228
f 68/58/229 69/81/230 64/75/231 66/59/232
f 64/75/233 58/67/234 66/59/235
f 65/78/236 68/58/237 67/57/238 61/79/239
f 63/80/240 69/81/241 68/58/242 65/78/243
f 69/81/244 80/82/245 79/83/246 82/84/247 83/85/248
f 49/54/249 77/86/250 74/87/251 59/69/252
f 51/53/253 72/50/254 71/49/255 49/54/256
f 105/88/257 106/89/258 107/90/259 108/91/260
f 77/86/261 76/92/262 74/87/263
f 75/93/264 76/92/265 77/86/266
f 81/94/267 80/82/268 78/95/269
f 79/83/270 80/82/271 81/94/272
f 83/85/273 82/84/274 70/72/275
f 84/71/276 83/85/277 70/72/278
f 88/96/279 87/76/280 85/97/281
f 86/77/282 87/76/283 88/96/284
f 92/73/285 91/98/286 89/74/287
f 90/99/288 91/98/289 92/73/290
f 87/76/291 91/98/292 90/99/293 85/97/294
f 69/81/295 83/85/296 84/71/297 89/74/298 91/98/299
f 69/81/300 91/98/301 87/76/302
f 80/82/303 76/92/304 75/93/305 78/95/306
f 59/69/307 74/87/308 76/92/309 63/80/310
f 69/81/311 76/92/312 80/82/313
f 77/86/314 81/94/315 78/95/316 75/93/317
f 81/94/318 71/49/319 70/72/320 82/84/321 79/83/322
f 49/54/323 71/49/324 81/94/325 77/86/326
f 92/73/327 88/96/328 85/97/329 90/99/330
f 88/96/331 50/52/332 60/68/333 86/77/334
f 92/73/335 71/49/336 50/52/337 88/96/338
f 62/60/339 58/67/340 55/62/341 56/61/342
f 61/79/343 53/56/344 54/55/345 57/70/346
f 67/57/347 73/100/348 53/56/349 61/79/350
f 62/60/351 56/61/352 73/100/353 67/57/354
f 53/56/355 73/100/356 94/101/357 93/102/358
f 73/100/359 72/50/360 95/103/361 94/101/362
f 72/50/363 51/53/364 96/104/365 95/103/366
f 51/53/367 53/56/368 93/102/369 96/104/370
f 72/50/371 73/100/372 98/105/373 97/106/374
f 73/100/375 56/61/376 99/107/377 98/105/378
f 56/61/379 52/51/380 100/108/381 99/107/382
f 52/51/383 72/50/384 97/106/385 100/108/386
f 97/106/387 98/105/388 102/64/389 101/63/390
f 98/105/391 99/107/392 103/65/393 102/64/394
f 99/107/395 100/108/396 104/66/397 103/65/398
f 100/108/399 97/106/400 101/63/401 104/66/402
f 93/102/403 94/101/404 106/89/405 105/88/406
f 94/101/407 95/103/408 107/90/409 106/89/410
f 95/103/411 96/104/412 108/91/413 107/90/414
f 96/104/415 93/102/416 105/88/417 108/91/418
f 69/81/419 87/76/420 64/75/421
f 63/80/422 76/92/423 69/81/424
