# This file uses centimeters as units for non-parametric coordinates.

v -90.953598 23.401680 5.834808
v -93.655624 23.967400 5.834808
v -95.027695 21.572762 5.834808
v -93.174515 19.527092 5.834808
v -90.657120 20.657387 5.834808
v -90.953598 23.401680 7.931061
v -93.655624 23.967400 7.931061
v -95.027695 21.572762 7.931061
v -93.174515 19.527092 7.931061
v -90.657120 20.657387 7.931061
v -92.693405 21.825256 7.931061
v -100.556564 28.911476 2.322845
v 102.361069 31.253624 2.322845
v -100.556564 28.911476 6.486053
v 102.361069 31.253624 6.486053
v -100.835190 41.930656 6.486053
v 102.084122 44.272842 4.820709
v -100.835190 41.930656 2.322845
v 102.084122 44.272842 2.322845
v 85.918808 43.927422 6.486053
v 102.216873 38.023071 6.486053
v -64.101486 29.690285 6.486053
v -76.907120 29.416695 5.216217
v -94.266281 29.045868 6.486053
v -77.943954 32.040634 6.486053
v -102.361069 15.999451 2.322845
v 99.991074 5.572548 2.322845
v -102.361069 15.999451 6.486053
v 99.991074 5.572548 4.318695
v -101.928635 28.155098 6.486053
v 100.425186 17.728271 6.486053
v -101.928635 28.155098 2.322845
v 100.425186 17.728271 2.322845
v 87.342606 6.781998 6.486053
v 100.135269 9.614716 6.486053
v -96.885757 -61.090103 3.162079
v -89.328690 -61.090103 3.162079
v -96.885757 61.090126 -0.463409
v -89.328690 61.090126 3.162079
v -96.885757 61.090126 -8.245392
v -89.328690 61.090126 -8.245392
v -96.885757 -61.090103 -8.245392
v -89.328690 -61.090103 -5.025177
v -94.637222 61.090126 3.162079
v -96.885757 58.893929 3.162079
v -91.991959 -61.090103 -8.245392
v -89.328690 -53.673180 -8.245392
v -89.328690 -7.514496 3.162079
v -89.328690 6.751366 3.162079
v -91.340714 0.248528 2.886505
v -89.510117 0.745277 -0.495758
v -96.885757 38.550529 -8.245392
v -96.885757 21.659584 -8.245392
v -94.489822 27.595024 -7.970123
v -96.704330 29.938698 -3.628693
v -90.244064 15.886612 -6.865387
v -95.970535 22.245445 1.778717
v -91.468735 37.942619 5.834808
v -94.222641 38.112564 5.834808
v -95.236588 35.544930 5.834808
v -93.106461 33.788071 5.834808
v -90.778580 35.270004 5.834808
v -91.468735 37.942619 7.931061
v -94.222641 38.112564 7.931061
v -95.236588 35.544930 7.931061
v -93.106461 33.788071 7.931061
v -90.778580 35.270004 7.931061
v -92.962265 36.131668 7.931061
v 95.840836 39.465523 5.650177
v 93.096695 39.334259 5.984039
v 92.367630 36.660042 6.165314
v 94.659958 35.138588 5.944977
v 96.806259 36.872482 5.624237
v 96.015854 39.425125 7.730255
v 93.273239 39.293823 8.063812
v 92.542648 36.619606 8.245392
v 94.834824 35.098190 8.025055
v 96.981277 36.832008 7.704315
v 94.729538 37.453766 7.953949
v 98.003464 -55.099216 -8.245392
v 90.446396 -55.099216 -8.245392
v 98.003464 61.090126 -4.623260
v 90.446396 61.090126 -8.245392
v 98.003464 61.090126 3.162079
v 90.446396 61.090126 3.162079
v 98.003464 -55.099216 3.162079
v 90.446396 -55.099216 -0.058441
v 95.756607 61.090126 -8.245392
v 98.003464 58.893929 -8.245392
v 93.109665 -55.099216 3.162079
v 90.446396 -47.682274 3.162079
v 90.446396 -7.514496 -8.245392
v 90.446396 6.751366 -8.245392
v 92.458420 0.248528 -7.970123
v 90.629501 0.745277 -4.587860
v 98.003464 38.550529 3.162079
v 98.003464 21.659584 3.162079
v 95.607529 27.595024 2.886505
v 97.822037 29.938698 -1.454620
v 91.361771 15.886612 1.778717
v 97.089767 22.245445 -6.865387
v 95.882950 13.701324 5.650177
v 93.150101 13.967285 5.984039
v 92.042160 11.426353 6.165314
v 94.091263 9.590034 5.944977
v 96.464462 10.996017 5.624237
v 96.051407 13.635941 7.730255
v 93.318558 13.901901 8.063812
v 92.210617 11.361008 8.245392
v 94.258194 9.524689 8.025055
v 96.632919 10.930634 7.704315
v 94.494705 11.870842 7.953949
vt 0.098813 0.011779
vt 0.098813 0.011779
vt 0.098813 0.011779
vt 0.098813 0.011779
vt 0.098813 0.011779
vt 0.098813 0.011779
vt 0.098813 0.011779
vt 0.098813 0.011779
vt 0.098813 0.011779
vt 0.098813 0.011779
vt 0.098813 0.011779
vt 0.098813 0.011779
vt 0.098813 0.011779
vt 0.098813 0.011779
vt 0.098813 0.011779
vt 0.098813 0.011779
vt 0.098813 0.011779
vt 0.098813 0.011779
vt 0.047394 0.091255
vt 0.047394 0.091255
vt 0.047394 0.091255
vt 0.047394 0.055461
vt 0.047394 0.091255
vt 0.047394 0.091255
vt 0.047394 0.064665
vt 0.047394 0.055461
vt 0.047394 0.064665
vt 0.047394 0.055461
vt 0.047394 0.055461
vt 0.047394 0.055461
vt 0.047394 0.055461
vt 0.047394 0.055461
vt 0.047394 0.091255
vt 0.047394 0.091255
vt 0.047394 0.091255
vt 0.047394 0.091255
vt 0.047394 0.091255
vt 0.047394 0.055461
vt 0.047394 0.055461
vt 0.047394 0.091255
vt 0.047394 0.049809
vt 0.047394 0.049809
vt 0.047394 0.049809
vt 0.047394 0.091255
vt 0.047394 0.049809
vt 0.047394 0.091255
vt 0.047394 0.091255
vt 0.047394 0.091255
vt 0.047394 0.091255
vt 0.047394 0.049809
vt 0.047394 0.091255
vt 0.047394 0.091255
vt 0.047394 0.091255
vt 0.047394 0.049809
vt 0.047394 0.091255
vt 0.047394 0.091255
vt 0.058530 0.031257
vt 0.058530 0.031257
vt 0.058530 0.057564
vt 0.058530 0.057564
vt 0.058530 0.057564
vt 0.058530 0.035642
vt 0.058530 0.035642
vt 0.058530 0.057564
vt 0.058530 0.057564
vt 0.058530 0.057564
vt 0.058530 0.031257
vt 0.058530 0.031257
vt 0.058530 0.031257
vt 0.058530 0.031257
vt 0.058530 0.031257
vt 0.058530 0.057564
vt 0.058530 0.057564
vt 0.058530 0.035642
vt 0.058530 0.035642
vt 0.058530 0.057564
vt 0.058530 0.031257
vt 0.058530 0.057564
vt 0.058530 0.057564
vt 0.058530 0.035642
vt 0.058530 0.035642
vt 0.058530 0.035642
vt 0.058530 0.031257
vt 0.058530 0.057564
vt 0.058530 0.057564
vt 0.058530 0.031257
vt 0.058530 0.031257
vt 0.058530 0.057564
vt 0.058530 0.035642
vt 0.098813 0.011779
vt 0.098813 0.011779
vt 0.098813 0.011779
vt 0.098813 0.011779
vt 0.098813 0.011779
vt 0.098813 0.011779
vt 0.098813 0.011779
vt 0.098813 0.011779
vt 0.098813 0.011779
vt 0.098813 0.011779
vt 0.098813 0.011779
vt 0.098813 0.011779
vt 0.098813 0.011779
vt 0.098813 0.011779
vt 0.098813 0.011779
vt 0.098813 0.011779
vt 0.098813 0.011779
vt 0.098813 0.011779
vt 0.098813 0.011779
vt 0.098813 0.011779
vt 0.098813 0.011779
vt 0.098813 0.011779
vt 0.098813 0.011779
vt 0.098813 0.011779
vt 0.098813 0.011779
vt 0.098813 0.011779
vt 0.098813 0.011779
vt 0.098813 0.011779
vt 0.098813 0.011779
vt 0.098813 0.011779
vt 0.098813 0.011779
vt 0.098813 0.011779
vt 0.098813 0.011779
vt 0.098813 0.011779
vt 0.098813 0.011779
vt 0.098813 0.011779
vt 0.058530 0.031257
vt 0.058530 0.031257
vt 0.058530 0.057564
vt 0.058530 0.057564
vt 0.058530 0.057564
vt 0.058530 0.035642
vt 0.058530 0.035642
vt 0.058530 0.057564
vt 0.058530 0.057564
vt 0.058530 0.057564
vt 0.058530 0.031257
vt 0.058530 0.031257
vt 0.058530 0.031257
vt 0.058530 0.031257
vt 0.058530 0.031257
vt 0.058530 0.057564
vt 0.058530 0.057564
vt 0.058530 0.035642
vt 0.058530 0.035642
vt 0.058530 0.057564
vt 0.058530 0.031257
vt 0.058530 0.057564
vt 0.058530 0.057564
vt 0.058530 0.035642
vt 0.058530 0.035642
vt 0.058530 0.035642
vt 0.058530 0.031257
vt 0.058530 0.057564
vt 0.058530 0.057564
vt 0.058530 0.031257
vt 0.058530 0.031257
vt 0.058530 0.057564
vt 0.058530 0.035642
vt 0.098813 0.011779
vt 0.098813 0.011779
vt 0.098813 0.011779
vt 0.098813 0.011779
vt 0.098813 0.011779
vt 0.098813 0.011779
vt 0.098813 0.011779
vt 0.098813 0.011779
vt 0.098813 0.011779
vt 0.098813 0.011779
vt 0.098813 0.011779
vt 0.098813 0.011779
vt 0.098813 0.011779
vt 0.098813 0.011779
vt 0.098813 0.011779
vt 0.098813 0.011779
vt 0.098813 0.011779
vt 0.098813 0.011779
vn 0.204918 0.978779 0.000000
vn 0.204918 0.978779 0.000000
vn 0.204918 0.978779 0.000000
vn 0.204918 0.978779 0.000000
vn -0.867589 0.497282 0.000000
vn -0.867589 0.497282 0.000000
vn -0.867589 0.497282 0.000000
vn -0.867589 0.497282 0.000000
vn -0.741179 -0.671308 0.000000
vn -0.741179 -0.671308 0.000000
vn -0.741179 -0.671308 0.000000
vn -0.741179 -0.671308 0.000000
vn 0.409463 -0.912327 0.000000
vn 0.409463 -0.912327 0.000000
vn 0.409463 -0.912327 0.000000
vn 0.409463 -0.912327 0.000000
vn 0.994196 0.107587 0.000000
vn 0.994196 0.107587 0.000000
vn 0.994196 0.107587 0.000000
vn 0.994196 0.107587 0.000000
vn 0.000000 0.000000 1.000000
vn 0.000000 0.000000 1.000000
vn -0.000016 0.000000 1.000000
vn 0.000000 0.000000 1.000000
vn -0.000041 0.000000 1.000000
vn -0.000016 0.000000 1.000000
vn -0.000041 0.000000 1.000000
vn -0.000041 0.000000 1.000000
vn -0.000016 0.000000 1.000000
vn -0.000041 0.000000 1.000000
vn 0.000000 0.000000 1.000000
vn -0.000016 0.000000 1.000000
vn 0.000000 0.000000 1.000000
vn 0.000000 0.000000 1.000000
vn -0.000016 0.000000 1.000000
vn 0.000475 0.001325 0.999999
vn 0.002131 0.005897 0.999980
vn 0.000000 -0.000000 1.000000
vn 0.000000 0.000000 -1.000000
vn 0.000000 0.000000 -1.000000
vn 0.000000 0.000000 -1.000000
vn 0.000000 0.000000 -1.000000
vn -1.000000 0.000000 0.000000
vn -1.000000 0.000000 0.000000
vn -1.000000 0.000000 0.000000
vn -1.000000 0.000000 0.000000
vn -0.006723 -0.437272 0.899304
vn 0.000567 -0.009104 0.999958
vn 0.000711 -0.003879 0.999992
vn 1.000000 0.000000 0.000000
vn 1.000000 0.000000 0.000000
vn 0.999772 0.021361 -0.000005
vn 0.999772 0.021361 -0.000005
vn 1.000000 0.000000 0.000000
vn 0.000000 1.000000 0.000000
vn -0.011297 0.999745 0.019545
vn -0.011297 0.999745 0.019545
vn 0.000000 1.000000 0.000000
vn 0.000000 1.000000 0.000000
vn 0.000475 0.001325 0.999999
vn 0.000567 -0.009104 0.999958
vn -0.000081 -0.000448 1.000000
vn 0.000000 -0.000000 1.000000
vn 0.002131 0.005897 0.999980
vn 0.000000 -1.000000 -0.000000
vn 0.000000 -1.000000 -0.000000
vn 0.011445 -0.996988 0.076708
vn -0.000081 -0.000448 1.000000
vn 0.000567 -0.009104 0.999958
vn -0.006723 -0.437272 0.899304
vn 0.000000 -0.000000 1.000000
vn 0.000711 -0.003879 0.999992
vn 0.000567 -0.009104 0.999958
vn 0.000000 -0.000000 1.000000
vn 0.000000 -0.000000 1.000000
vn 0.000567 -0.009104 0.999958
vn 0.000475 0.001325 0.999999
vn 0.011445 -0.996988 0.076708
vn 0.000000 -1.000000 -0.000000
vn 0.000000 -1.000000 -0.000000
vn 0.009969 -0.999590 0.026855
vn 0.000000 -1.000000 -0.000000
vn 0.011445 -0.996988 0.076708
vn 0.021359 -0.999772 0.000002
vn 0.000000 -1.000000 -0.000000
vn 0.000000 -1.000000 -0.000000
vn 0.000000 -1.000000 -0.000000
vn -0.050239 -0.996390 0.068439
vn -0.050239 -0.996390 0.068439
vn 0.000000 -1.000000 -0.000000
vn 0.000000 -0.000000 1.000000
vn 0.000158 -0.000711 1.000000
vn 0.000938 -0.004234 0.999991
vn 0.000000 -0.000000 1.000000
vn 0.000000 -0.000000 1.000000
vn 0.000000 1.000000 0.000000
vn 0.000000 1.000000 0.000000
vn 0.000000 1.000000 0.000000
vn 0.000000 1.000000 0.000000
vn 0.000000 0.000000 -1.000000
vn 0.000000 0.000000 -1.000000
vn 0.000000 0.000000 -1.000000
vn 0.000000 0.000000 -1.000000
vn 1.000000 0.000000 0.000000
vn 1.000000 0.000000 0.000000
vn 1.000000 0.000000 0.000000
vn 0.999366 -0.035607 0.000018
vn 0.999366 -0.035607 0.000018
vn -1.000000 0.000000 0.000000
vn -1.000000 0.000000 0.000000
vn -1.000000 0.000000 0.000000
vn -1.000000 0.000000 0.000000
vn 0.000938 -0.004234 0.999991
vn 0.000158 -0.000711 1.000000
vn 0.000000 -0.000000 1.000000
vn -0.058544 0.019724 0.998090
vn -0.058544 0.019724 0.998090
vn -0.058544 0.019724 0.998090
vn -0.058544 0.019724 0.998090
vn -0.058544 0.019724 0.998090
vn 0.078291 -0.017493 -0.996777
vn 0.078291 -0.017493 -0.996777
vn 0.078291 -0.017493 -0.996777
vn 0.078291 -0.017493 -0.996777
vn 0.078291 -0.017493 -0.996777
vn 0.000000 -1.000000 0.000000
vn 0.000000 -1.000000 0.000000
vn 0.000000 -1.000000 0.000000
vn 0.000000 -1.000000 0.000000
vn 0.000000 -1.000000 0.000000
vn 0.998759 -0.007709 -0.049204
vn 0.998759 -0.007709 -0.049204
vn 0.998759 -0.007709 -0.049204
vn 0.998759 -0.007709 -0.049204
vn 0.998759 -0.007709 -0.049204
vn -0.998915 0.007231 0.046010
vn -0.998915 0.007231 0.046010
vn -0.998915 0.007231 0.046010
vn -0.998915 0.007231 0.046010
vn -0.998915 0.007231 0.046010
vn -0.641167 0.656272 0.397759
vn -0.641167 0.656272 0.397759
vn -0.641167 0.656272 0.397759
vn 0.000000 1.000000 0.000000
vn 0.000000 1.000000 0.000000
vn 0.000000 1.000000 0.000000
vn 0.000000 1.000000 0.000000
vn 0.000000 1.000000 0.000000
vn 0.742760 -0.266525 -0.614225
vn 0.742760 -0.266525 -0.614225
vn 0.742760 -0.266525 -0.614225
vn 0.840055 0.235008 0.488957
vn 0.840055 0.235008 0.488957
vn 0.840055 0.235008 0.488957
vn 0.860237 -0.283940 0.423521
vn 0.860237 -0.283940 0.423521
vn 0.860237 -0.283940 0.423521
vn -0.755992 0.331358 -0.564516
vn -0.755992 0.331358 -0.564516
vn -0.755992 0.331358 -0.564516
vn -0.912163 -0.208405 -0.352884
vn -0.912163 -0.208405 -0.352884
vn -0.912163 -0.208405 -0.352884
vn 0.999689 0.013756 -0.020780
vn 0.999689 0.013756 -0.020780
vn 0.999689 0.013756 -0.020780
vn 0.999689 0.013756 -0.020780
vn 0.999689 0.013756 -0.020780
vn 0.999689 0.013756 -0.020780
vn 0.096654 0.013213 -0.995230
vn 0.096655 0.013213 -0.995230
vn 0.096655 0.013213 -0.995230
vn 0.096654 0.013213 -0.995230
vn 0.096654 0.013213 -0.995230
vn 0.096655 0.013213 -0.995230
vn -0.116628 -0.012963 0.993091
vn -0.116628 -0.012963 0.993091
vn -0.116628 -0.012963 0.993091
vn -0.116628 -0.012963 0.993091
vn -0.116628 -0.012963 0.993091
vn -0.116628 -0.012963 0.993091
vn -0.999323 -0.011887 0.034815
vn -0.999323 -0.011887 0.034815
vn -0.999323 -0.011887 0.034815
vn -0.999323 -0.011887 0.034815
vn -0.999323 -0.011887 0.034815
vn -0.999323 -0.011887 0.034815
vn 0.061551 0.998104 0.000000
vn 0.061551 0.998104 0.000000
vn 0.061551 0.998104 0.000000
vn 0.061551 0.998104 0.000000
vn -0.930238 0.366957 0.000000
vn -0.930238 0.366957 0.000000
vn -0.930238 0.366957 0.000000
vn -0.930238 0.366957 0.000000
vn -0.636467 -0.771304 0.000000
vn -0.636467 -0.771304 0.000000
vn -0.636467 -0.771304 0.000000
vn -0.636467 -0.771304 0.000000
vn 0.536856 -0.843674 0.000000
vn 0.536856 -0.843674 0.000000
vn 0.536856 -0.843674 0.000000
vn 0.536856 -0.843674 0.000000
vn 0.968290 0.249831 0.000000
vn 0.968290 0.249831 0.000000
vn 0.968290 0.249831 0.000000
vn 0.968290 0.249831 0.000000
vn -0.000082 0.000000 1.000000
vn 0.000000 0.000000 1.000000
vn -0.000098 0.000000 1.000000
vn 0.000000 0.000000 1.000000
vn 0.000000 0.000000 1.000000
vn -0.000098 0.000000 1.000000
vn 0.000000 0.000000 1.000000
vn -0.000164 0.000000 1.000000
vn -0.000098 0.000000 1.000000
vn -0.000164 0.000000 1.000000
vn -0.000246 0.000000 1.000000
vn -0.000098 0.000000 1.000000
vn -0.000246 0.000000 1.000000
vn -0.000082 0.000000 1.000000
vn -0.000098 0.000000 1.000000
vn -0.044970 0.998719 0.023218
vn -0.044970 0.998719 0.023218
vn -0.044970 0.998719 0.023218
vn -0.044970 0.998719 0.023218
vn -0.959619 0.267735 0.086310
vn -0.959619 0.267735 0.086310
vn -0.959619 0.267735 0.086310
vn -0.959619 0.267735 0.086310
vn -0.550619 -0.834206 0.030328
vn -0.550619 -0.834206 0.030328
vn -0.550619 -0.834206 0.030328
vn -0.550619 -0.834206 0.030328
vn 0.620893 -0.780971 -0.067649
vn 0.620893 -0.780971 -0.067649
vn 0.620893 -0.780971 -0.067649
vn 0.620893 -0.780971 -0.067649
vn 0.934406 0.348816 -0.072207
vn 0.934406 0.348816 -0.072207
vn 0.934406 0.348815 -0.072207
vn 0.934406 0.348815 -0.072207
vn 0.119248 0.035339 0.992236
vn 0.119367 0.035277 0.992223
vn 0.119322 0.035337 0.992227
vn 0.119367 0.035277 0.992223
vn 0.119448 0.035318 0.992212
vn 0.119322 0.035337 0.992227
vn 0.119448 0.035318 0.992212
vn 0.119128 0.035375 0.992248
vn 0.119322 0.035337 0.992227
vn 0.119128 0.035375 0.992248
vn 0.119410 0.035374 0.992215
vn 0.119322 0.035337 0.992227
vn 0.119410 0.035374 0.992215
vn 0.119248 0.035339 0.992236
vn 0.119322 0.035337 0.992227
vn 0.058543 0.019730 -0.998090
vn 0.058543 0.019730 -0.998090
vn 0.058543 0.019730 -0.998090
vn 0.058543 0.019730 -0.998090
vn 0.058543 0.019730 -0.998090
vn -0.078290 -0.017488 0.996777
vn -0.078290 -0.017488 0.996777
vn -0.078290 -0.017488 0.996777
vn -0.078290 -0.017488 0.996777
vn -0.078290 -0.017488 0.996777
vn 0.000000 -1.000000 0.000000
vn 0.000000 -1.000000 0.000000
vn 0.000000 -1.000000 0.000000
vn 0.000000 -1.000000 0.000000
vn 0.000000 -1.000000 0.000000
vn -0.998758 -0.007712 0.049217
vn -0.998758 -0.007712 0.049217
vn -0.998758 -0.007712 0.049217
vn -0.998758 -0.007712 0.049217
vn -0.998758 -0.007712 0.049217
vn 0.998915 0.007237 -0.046012
vn 0.998915 0.007237 -0.046012
vn 0.998915 0.007237 -0.046012
vn 0.998915 0.007237 -0.046012
vn 0.998915 0.007237 -0.046012
vn 0.641249 0.656213 -0.397724
vn 0.641249 0.656213 -0.397724
vn 0.641249 0.656213 -0.397724
vn 0.000000 1.000000 0.000000
vn 0.000000 1.000000 0.000000
vn 0.000000 1.000000 0.000000
vn 0.000000 1.000000 0.000000
vn 0.000000 1.000000 0.000000
vn -0.742636 -0.266611 0.614337
vn -0.742636 -0.266611 0.614337
vn -0.742636 -0.266611 0.614337
vn -0.840054 0.235007 -0.488959
vn -0.840054 0.235007 -0.488959
vn -0.840054 0.235007 -0.488959
vn -0.860169 -0.284005 -0.423616
vn -0.860169 -0.284005 -0.423616
vn -0.860169 -0.284005 -0.423616
vn 0.756097 0.331297 0.564410
vn 0.756097 0.331297 0.564410
vn 0.756097 0.331297 0.564410
vn 0.912197 -0.208373 0.352813
vn 0.912197 -0.208373 0.352813
vn 0.912197 -0.208373 0.352813
vn -0.999689 0.013762 0.020779
vn -0.999689 0.013762 0.020779
vn -0.999689 0.013762 0.020779
vn -0.999689 0.013762 0.020779
vn -0.999689 0.013762 0.020779
vn -0.999689 0.013762 0.020779
vn -0.096513 0.013210 0.995244
vn -0.096513 0.013210 0.995244
vn -0.096513 0.013210 0.995244
vn -0.096513 0.013210 0.995244
vn -0.096513 0.013210 0.995244
vn -0.096513 0.013210 0.995244
vn 0.116551 -0.012967 -0.993100
vn 0.116551 -0.012967 -0.993100
vn 0.116551 -0.012967 -0.993100
vn 0.116551 -0.012967 -0.993100
vn 0.116551 -0.012967 -0.993100
vn 0.116551 -0.012967 -0.993100
vn 0.999323 -0.011890 -0.034813
vn 0.999323 -0.011890 -0.034813
vn 0.999323 -0.011890 -0.034813
vn 0.999323 -0.011890 -0.034813
vn 0.999323 -0.011890 -0.034813
vn 0.999323 -0.011890 -0.034813
vn 0.099650 0.994752 0.023219
vn 0.099650 0.994752 0.023219
vn 0.099650 0.994752 0.023219
vn 0.099650 0.994752 0.023219
vn -0.910924 0.403444 0.086316
vn -0.910924 0.403444 0.086316
vn -0.910924 0.403444 0.086316
vn -0.910924 0.403444 0.086316
vn -0.665174 -0.746072 0.030348
vn -0.665173 -0.746072 0.030348
vn -0.665173 -0.746072 0.030348
vn -0.665173 -0.746072 0.030348
vn 0.501709 -0.862386 -0.067662
vn 0.501709 -0.862386 -0.067662
vn 0.501709 -0.862386 -0.067662
vn 0.501709 -0.862386 -0.067662
vn 0.974979 0.210232 -0.072233
vn 0.974979 0.210232 -0.072233
vn 0.974979 0.210233 -0.072233
vn 0.974979 0.210233 -0.072233
vn 0.123274 0.017740 0.992214
vn 0.123274 0.017664 0.992216
vn 0.123114 0.017745 0.992234
vn 0.123274 0.017664 0.992216
vn 0.123113 0.017726 0.992234
vn 0.123114 0.017745 0.992234
vn 0.123113 0.017726 0.992234
vn 0.122793 0.017805 0.992273
vn 0.123114 0.017745 0.992234
vn 0.122793 0.017805 0.992273
vn 0.123115 0.017794 0.992233
vn 0.123114 0.017745 0.992234
vn 0.123115 0.017794 0.992233
vn 0.123274 0.017740 0.992214
vn 0.123114 0.017745 0.992234
s off
f 1/1/1 2/2/2 7/3/3 6/4/4
f 2/2/5 3/5/6 8/6/7 7/3/8
f 3/5/9 4/7/10 9/8/11 8/6/12
f 4/7/13 5/9/14 10/10/15 9/8/16
f 5/9/17 1/11/18 6/12/19 10/10/20
f 6/13/21 7/14/22 11/15/23
f 7/14/24 8/16/25 11/15/26
f 8/16/27 9/17/28 11/15/29
f 9/17/30 10/18/31 11/15/32
f 10/18/33 6/13/34 11/15/35
f 20/19/36 21/20/37 17/21/38
f 18/22/39 19/23/40 13/24/41 12/25/42
f 18/26/43 12/27/44 14/28/45 16/29/46
f 23/30/47 25/31/48 24/32/49
f 13/33/50 19/34/51 17/35/52 21/36/53 15/37/54
f 16/38/55 20/19/56 17/21/57 19/23/58 18/22/59
f 20/19/60 25/31/61 22/39/62 15/37/63 21/20/64
f 12/27/65 13/33/66 23/30/67
f 22/39/68 25/31/69 23/30/70
f 14/28/71 24/32/72 25/31/73 16/38/74
f 16/38/75 25/31/76 20/19/77
f 23/30/78 13/33/79 15/37/80 22/39/81
f 12/27/82 23/30/83 24/32/84 14/28/85
f 26/40/86 27/41/87 29/42/88 34/43/89 28/44/90
f 28/44/91 34/43/92 35/45/93 31/46/94 30/47/95
f 30/47/96 31/46/97 33/48/98 32/49/99
f 32/49/100 33/48/101 27/50/102 26/51/103
f 27/41/104 33/52/105 31/53/106 35/54/107 29/42/108
f 32/55/109 26/40/110 28/44/111 30/56/112
f 35/45/113 34/43/114 29/42/115
f 36/57/116 37/58/117 48/59/118 50/60/119 57/61/120
f 40/62/121 41/63/122 56/64/123 54/65/124 52/66/125
f 42/67/126 46/68/127 43/69/128 37/70/129 36/71/130
f 51/72/131 56/73/132 41/74/133 39/75/134 49/76/135
f 42/77/136 36/57/137 57/61/138 55/78/139 53/79/140
f 45/80/141 44/81/142 38/82/143
f 38/82/144 44/81/145 39/75/146 41/63/147 40/62/148
f 46/68/149 47/83/150 43/69/151
f 51/72/152 50/60/153 48/59/154
f 49/76/155 50/60/156 51/72/157
f 53/79/158 55/78/159 54/84/160
f 54/84/161 55/78/162 52/85/163
f 37/58/164 43/86/165 47/87/166 56/73/167 51/72/168 48/59/169
f 54/65/170 56/64/171 47/83/172 46/68/173 42/67/174 53/88/175
f 57/61/176 50/60/177 49/76/178 39/75/179 44/81/180 45/80/181
f 55/78/182 57/61/183 45/80/184 38/82/185 40/89/186 52/85/187
f 58/90/188 59/91/189 64/92/190 63/93/191
f 59/91/192 60/94/193 65/95/194 64/92/195
f 60/94/196 61/96/197 66/97/198 65/95/199
f 61/96/200 62/98/201 67/99/202 66/97/203
f 62/98/204 58/100/205 63/101/206 67/99/207
f 63/102/208 64/103/209 68/104/210
f 64/103/211 65/105/212 68/104/213
f 65/105/214 66/106/215 68/104/216
f 66/106/217 67/107/218 68/104/219
f 67/107/220 63/102/221 68/104/222
f 69/108/223 70/109/224 75/110/225 74/111/226
f 70/109/227 71/112/228 76/113/229 75/110/230
f 71/112/231 72/114/232 77/115/233 76/113/234
f 72/114/235 73/116/236 78/117/237 77/115/238
f 73/116/239 69/118/240 74/119/241 78/117/242
f 74/120/243 75/121/244 79/122/245
f 75/121/246 76/123/247 79/122/248
f 76/123/249 77/124/250 79/122/251
f 77/124/252 78/125/253 79/122/254
f 78/125/255 74/120/256 79/122/257
f 80/126/258 81/127/259 92/128/260 94/129/261 101/130/262
f 84/131/263 85/132/264 100/133/265 98/134/266 96/135/267
f 86/136/268 90/137/269 87/138/270 81/139/271 80/140/272
f 95/141/273 100/142/274 85/143/275 83/144/276 93/145/277
f 86/146/278 80/126/279 101/130/280 99/147/281 97/148/282
f 89/149/283 88/150/284 82/151/285
f 82/151/286 88/150/287 83/144/288 85/132/289 84/131/290
f 90/137/291 91/152/292 87/138/293
f 95/141/294 94/129/295 92/128/296
f 93/145/297 94/129/298 95/141/299
f 97/148/300 99/147/301 98/153/302
f 98/153/303 99/147/304 96/154/305
f 81/127/306 87/155/307 91/156/308 100/142/309 95/141/310 92/128/311
f 98/134/312 100/133/313 91/152/314 90/137/315 86/136/316 97/157/317
f 101/130/318 94/129/319 93/145/320 83/144/321 88/150/322 89/149/323
f 99/147/324 101/130/325 89/149/326 82/151/327 84/158/328 96/154/329
f 102/159/330 103/160/331 108/161/332 107/162/333
f 103/160/334 104/163/335 109/164/336 108/161/337
f 104/163/338 105/165/339 110/166/340 109/164/341
f 105/165/342 106/167/343 111/168/344 110/166/345
f 106/167/346 102/169/347 107/170/348 111/168/349
f 107/171/350 108/172/351 112/173/352
f 108/172/353 109/174/354 112/173/355
f 109/174/356 110/175/357 112/173/358
f 110/175/359 111/176/360 112/173/361
f 111/176/362 107/171/363 112/173/364
