# This file uses centimeters as units for non-parametric coordinates.

v 10.694199 65.592148 -3.501434
v 12.232742 65.775116 -4.421234
v 10.694199 68.313644 -5.901794
v 12.232742 67.511566 -5.952911
v 10.694199 65.706436 -8.569794
v 12.232742 65.865814 -7.693329
v 10.694199 63.221085 -6.135101
v 12.232742 64.280022 -6.139984
v -7.474136 65.823181 9.949646
v -6.554337 66.006157 11.488190
v -5.073776 68.544685 9.949646
v -5.022659 67.742607 11.488190
v -2.405777 65.937469 9.949646
v -3.282242 66.096848 11.488190
v -4.840469 63.452118 9.949646
v -4.835587 64.511063 11.488190
v 10.694199 -64.178589 -2.915497
v 12.232742 -63.995621 -3.835297
v 10.694199 -61.457092 -5.315857
v 12.232742 -62.259171 -5.366974
v 10.694199 -64.064301 -7.983856
v 12.232742 -63.904922 -7.107391
v 10.694199 -66.549675 -5.549164
v 12.232742 -65.490715 -5.554047
v 5.898209 -71.918320 -1.348267
v 10.694199 -69.567444 -1.348267
v 5.898209 71.964867 -1.348267
v 10.694199 70.014030 -1.348267
v 5.898209 71.002609 -11.488342
v 10.694199 69.051773 -9.875183
v 5.898209 -71.964867 -11.250610
v 10.694199 -69.613998 -9.637451
v 2.729416 -71.918320 2.407990
v 6.042099 -69.567444 5.876007
v 6.042099 70.014030 5.876007
v 2.729416 71.964867 2.407990
v -1.835938 -71.918320 5.423737
v -1.449432 -69.567444 10.204010
v -1.449432 70.014030 10.204010
v -1.835938 71.964867 5.423737
v -12.232742 -71.918320 5.423737
v -9.737320 -69.567444 10.204010
v -9.737320 70.014030 10.204010
v -12.232742 71.964867 5.423737
v 4.337463 -30.127020 7.529449
v -1.925888 -31.002569 10.529327
v -7.298584 36.577293 10.204010
v -11.458740 35.949585 5.423584
v -1.835938 -32.811501 5.423584
v 2.729340 -32.811501 2.407837
v 5.898285 -32.811501 -1.348267
v 5.898285 -33.747299 -10.041199
v 10.694275 -5.981951 -6.740723
v 10.694275 -31.894501 -1.348267
v -7.139664 -65.250198 9.949646
v -6.219864 -65.067230 11.488190
v -4.739304 -62.528698 9.949646
v -4.688187 -63.330776 11.488190
v -2.071304 -65.135910 9.949646
v -2.947769 -64.976532 11.488190
v -4.505997 -67.621277 9.949646
v -4.501114 -66.562317 11.488190
vt 0.091057 0.085503
vt 0.091057 0.085503
vt 0.091057 0.085503
vt 0.091057 0.085503
vt 0.091057 0.085503
vt 0.091057 0.085503
vt 0.091057 0.085503
vt 0.091057 0.085503
vt 0.091057 0.085503
vt 0.091057 0.085503
vt 0.091057 0.085503
vt 0.091057 0.085503
vt 0.091057 0.085503
vt 0.091057 0.085503
vt 0.091057 0.085503
vt 0.091057 0.085503
vt 0.091057 0.085503
vt 0.091057 0.085503
vt 0.091057 0.085503
vt 0.091057 0.085503
vt 0.091057 0.085503
vt 0.091057 0.085503
vt 0.091057 0.085503
vt 0.091057 0.085503
vt 0.081061 0.087723
vt 0.081061 0.087723
vt 0.081061 0.087723
vt 0.081061 0.087723
vt 0.081061 0.087723
vt 0.081061 0.087723
vt 0.081061 0.087723
vt 0.081061 0.087723
vt 0.081061 0.087723
vt 0.081061 0.087723
vt 0.081061 0.087723
vt 0.081061 0.087723
vt 0.081061 0.087723
vt 0.081061 0.087723
vt 0.081061 0.087723
vt 0.081061 0.087723
vt 0.081061 0.087723
vt 0.081061 0.087723
vt 0.081061 0.087723
vt 0.081061 0.087723
vt 0.081061 0.087723
vt 0.081061 0.087723
vt 0.081061 0.087723
vt 0.081061 0.087723
vt 0.081061 0.087723
vt 0.081061 0.087723
vt 0.081061 0.087723
vt 0.081061 0.087723
vt 0.081061 0.087723
vt 0.081061 0.087723
vt 0.081061 0.087723
vt 0.081061 0.087723
vt 0.081061 0.087723
vt 0.081061 0.087723
vt 0.081061 0.087723
vt 0.081061 0.087723
vt 0.081061 0.087723
vt 0.081061 0.087723
vt 0.091057 0.085503
vt 0.091057 0.085503
vt 0.091057 0.085503
vt 0.091057 0.085503
vt 0.091057 0.085503
vt 0.091057 0.085503
vt 0.091057 0.085503
vt 0.091057 0.085503
vn 0.346783 0.620437 0.703420
vn 0.346783 0.620437 0.703420
vn 0.346783 0.620437 0.703420
vn 0.346783 0.620437 0.703420
vn 0.318967 0.682090 -0.658037
vn 0.318967 0.682090 -0.658037
vn 0.318967 0.682090 -0.658037
vn 0.318967 0.682090 -0.658037
vn 0.432296 -0.631012 -0.644162
vn 0.432296 -0.631012 -0.644162
vn 0.432296 -0.631012 -0.644162
vn 0.432296 -0.631012 -0.644162
vn 0.448152 -0.668355 0.593684
vn 0.448152 -0.668355 0.593684
vn 0.448152 -0.668355 0.593684
vn 0.448152 -0.668355 0.593684
vn 1.000000 0.000000 0.000000
vn 1.000000 0.000000 0.000000
vn 1.000000 0.000000 0.000000
vn 1.000000 0.000000 0.000000
vn -0.703422 0.620437 0.346779
vn -0.703422 0.620437 0.346779
vn -0.703422 0.620437 0.346779
vn -0.703422 0.620437 0.346779
vn 0.658038 0.682089 0.318969
vn 0.658038 0.682089 0.318968
vn 0.658038 0.682089 0.318969
vn 0.658038 0.682089 0.318969
vn 0.644161 -0.631012 0.432297
vn 0.644161 -0.631012 0.432297
vn 0.644161 -0.631012 0.432297
vn 0.644161 -0.631012 0.432297
vn -0.593684 -0.668353 0.448156
vn -0.593684 -0.668353 0.448156
vn -0.593684 -0.668353 0.448156
vn -0.593684 -0.668353 0.448156
vn 0.000000 0.000000 1.000000
vn 0.000000 0.000000 1.000000
vn 0.000000 0.000000 1.000000
vn 0.000000 0.000000 1.000000
vn 0.346783 0.620437 0.703420
vn 0.346783 0.620437 0.703420
vn 0.346783 0.620437 0.703420
vn 0.346783 0.620437 0.703420
vn 0.318967 0.682090 -0.658037
vn 0.318967 0.682090 -0.658037
vn 0.318967 0.682090 -0.658037
vn 0.318967 0.682090 -0.658037
vn 0.432299 -0.631009 -0.644163
vn 0.432299 -0.631009 -0.644163
vn 0.432299 -0.631009 -0.644163
vn 0.432299 -0.631009 -0.644163
vn 0.448156 -0.668352 0.593685
vn 0.448156 -0.668352 0.593685
vn 0.448156 -0.668352 0.593686
vn 0.448156 -0.668352 0.593686
vn 1.000000 0.000000 0.000000
vn 1.000000 0.000000 0.000000
vn 1.000000 0.000000 0.000000
vn 1.000000 0.000000 0.000000
vn -0.822455 0.012347 0.568696
vn -0.822455 0.012347 0.568696
vn -0.822693 -0.001025 0.568485
vn -0.822666 0.001077 0.568525
vn 0.388694 0.916509 -0.094490
vn 0.388694 0.916509 -0.094490
vn 0.388694 0.916509 -0.094490
vn 0.388694 0.916509 -0.094490
vn 0.377520 0.030378 -0.925503
vn 0.497765 -0.020115 -0.867079
vn 0.359595 0.037588 -0.932351
vn 0.359595 0.037588 -0.932351
vn 0.439514 -0.898224 0.004597
vn 0.439514 -0.898224 0.004597
vn 0.439514 -0.898224 0.004597
vn 0.439514 -0.898224 0.004597
vn 1.000000 -0.000001 -0.000003
vn 1.000000 -0.000001 -0.000003
vn 1.000000 0.000001 0.000001
vn 1.000000 -0.000001 -0.000002
vn -1.000000 0.000002 -0.000000
vn -1.000000 0.000002 -0.000000
vn -1.000000 -0.000000 0.000000
vn -1.000000 0.000000 0.000000
vn 0.390148 -0.877819 0.277883
vn 0.390148 -0.877819 0.277883
vn 0.390148 -0.877819 0.277883
vn 0.390148 -0.877819 0.277883
vn 0.825803 0.006163 0.563924
vn 0.825523 0.000364 0.564369
vn 0.825485 -0.000376 0.564424
vn 0.825803 0.006163 0.563924
vn 0.335981 0.910961 0.239305
vn 0.335981 0.910961 0.239305
vn 0.335981 0.910961 0.239305
vn 0.335981 0.910961 0.239305
vn -0.764332 0.000000 -0.644822
vn -0.764332 -0.000001 -0.644823
vn -0.764332 -0.000001 -0.644823
vn -0.764332 -0.000000 -0.644822
vn 0.241528 -0.885675 0.396539
vn 0.241528 -0.885675 0.396539
vn 0.241528 -0.885675 0.396539
vn 0.241529 -0.885676 0.396539
vn 0.470623 -0.009222 0.882286
vn 0.470169 0.000337 0.882576
vn 0.470206 -0.000414 0.882556
vn 0.470623 -0.009222 0.882286
vn 0.207514 0.916988 0.340693
vn 0.207514 0.916988 0.340693
vn 0.207514 0.916988 0.340693
vn 0.207514 0.916988 0.340693
vn -0.551178 0.000000 -0.834388
vn -0.551178 -0.000004 -0.834388
vn -0.551178 -0.000004 -0.834388
vn -0.551178 -0.000000 -0.834388
vn 0.000000 -0.897356 0.441307
vn 0.000000 -0.897356 0.441307
vn 0.000000 -0.897356 0.441307
vn 0.000000 -0.897356 0.441307
vn -0.032722 -0.001803 0.999463
vn -0.032291 -0.001716 0.999477
vn -0.013542 0.002076 0.999906
vn -0.032722 -0.001803 0.999463
vn 0.000000 0.925868 0.377847
vn 0.000000 0.925868 0.377847
vn 0.000000 0.925868 0.377847
vn 0.000000 0.925868 0.377847
vn -0.000006 -0.000002 -1.000000
vn -0.000007 -0.000002 -1.000000
vn -0.000007 -0.000002 -1.000000
vn 0.000007 0.000002 -1.000000
vn 0.470005 0.003586 0.882657
vn 0.470206 -0.000414 0.882556
vn 0.470169 0.000337 0.882576
vn 0.470005 0.003586 0.882656
vn -0.012765 0.002233 0.999916
vn -0.013542 0.002076 0.999906
vn -0.032291 -0.001716 0.999477
vn -0.012765 0.002233 0.999916
vn -0.822585 -0.038053 0.567367
vn -0.822666 0.001077 0.568525
vn -0.822693 -0.001025 0.568485
vn -0.822585 -0.038053 0.567367
vn 0.000008 0.000002 -1.000000
vn -0.000006 -0.000002 -1.000000
vn 0.000007 0.000002 -1.000000
vn 0.000008 0.000002 -1.000000
vn -0.551178 0.000001 -0.834388
vn -0.551178 0.000000 -0.834388
vn -0.551178 -0.000000 -0.834388
vn -0.551178 0.000001 -0.834388
vn -0.764332 0.000000 -0.644822
vn -0.764332 0.000000 -0.644822
vn -0.764332 -0.000000 -0.644822
vn -0.764332 0.000000 -0.644822
vn -1.000000 0.000000 0.000000
vn -1.000000 -0.000000 0.000000
vn -1.000000 -0.000001 0.000000
vn -1.000000 -0.000001 0.000000
vn 0.497765 -0.020115 -0.867079
vn 0.377520 0.030378 -0.925503
vn 0.502145 -0.022031 -0.864503
vn 0.502145 -0.022031 -0.864503
vn 1.000000 0.000001 0.000002
vn 1.000000 -0.000001 -0.000002
vn 1.000000 0.000001 0.000001
vn 1.000000 0.000001 0.000002
vn 0.825382 -0.002343 0.564570
vn 0.825485 -0.000376 0.564424
vn 0.825523 0.000364 0.564369
vn 0.825382 -0.002343 0.564570
vn -0.703421 0.620437 0.346781
vn -0.703421 0.620437 0.346781
vn -0.703421 0.620437 0.346781
vn -0.703421 0.620437 0.346781
vn 0.658038 0.682090 0.318966
vn 0.658038 0.682090 0.318966
vn 0.658038 0.682090 0.318966
vn 0.658038 0.682090 0.318966
vn 0.644161 -0.631010 0.432299
vn 0.644161 -0.631010 0.432299
vn 0.644161 -0.631010 0.432299
vn 0.644161 -0.631010 0.432299
vn -0.593684 -0.668353 0.448155
vn -0.593684 -0.668353 0.448155
vn -0.593684 -0.668353 0.448155
vn -0.593684 -0.668353 0.448155
vn 0.000000 0.000000 1.000000
vn 0.000000 0.000000 1.000000
vn 0.000000 0.000000 1.000000
vn 0.000000 0.000000 1.000000
s off
f 1/1/1 2/2/2 4/3/3 3/4/4
f 3/4/5 4/3/6 6/5/7 5/6/8
f 5/6/9 6/5/10 8/7/11 7/8/12
f 7/8/13 8/7/14 2/2/15 1/1/16
f 2/2/17 8/7/18 6/5/19 4/3/20
f 9/9/21 10/10/22 12/11/23 11/12/24
f 11/12/25 12/11/26 14/13/27 13/14/28
f 13/14/29 14/13/30 16/15/31 15/16/32
f 15/16/33 16/15/34 10/10/35 9/9/36
f 10/10/37 16/15/38 14/13/39 12/11/40
f 17/17/41 18/18/42 20/19/43 19/20/44
f 19/20/45 20/19/46 22/21/47 21/22/48
f 21/22/49 22/21/50 24/23/51 23/24/52
f 23/24/53 24/23/54 18/18/55 17/17/56
f 18/18/57 24/23/58 22/21/59 20/19/60
f 41/25/61 42/26/62 47/27/63 48/28/64
f 27/29/65 28/30/66 30/31/67 29/32/68
f 52/33/69 53/34/70 32/35/71 31/36/72
f 31/36/73 32/35/74 26/37/75 25/38/76
f 26/39/77 32/40/78 53/41/79 54/42/80
f 31/43/81 25/44/82 51/45/83 52/46/84
f 25/44/85 26/39/86 34/47/87 33/48/88
f 26/39/89 54/42/90 45/49/91 34/47/92
f 28/30/93 27/29/94 36/50/95 35/51/96
f 51/45/97 25/44/98 33/48/99 50/52/100
f 33/48/101 34/47/102 38/53/103 37/54/104
f 34/47/105 45/49/106 46/55/107 38/53/108
f 35/51/109 36/50/110 40/56/111 39/57/112
f 50/52/113 33/48/114 37/54/115 49/58/116
f 37/54/117 38/53/118 42/26/119 41/25/120
f 38/53/121 46/55/122 47/27/123 42/26/124
f 39/57/125 40/56/126 44/59/127 43/60/128
f 49/58/129 37/54/130 41/25/131 48/28/132
f 39/57/133 46/55/134 45/49/135 35/51/136
f 43/60/137 47/27/138 46/55/139 39/57/140
f 44/59/141 48/28/142 47/27/143 43/60/144
f 40/56/145 49/58/146 48/28/147 44/59/148
f 36/50/149 50/52/150 49/58/151 40/56/152
f 27/29/153 51/45/154 50/52/155 36/50/156
f 52/46/157 51/45/158 27/29/159 29/61/160
f 53/34/161 52/33/162 29/32/163 30/31/164
f 28/30/165 54/42/166 53/41/167 30/62/168
f 35/51/169 45/49/170 54/42/171 28/30/172
f 55/63/173 56/64/174 58/65/175 57/66/176
f 57/66/177 58/65/178 60/67/179 59/68/180
f 59/68/181 60/67/182 62/69/183 61/70/184
f 61/70/185 62/69/186 56/64/187 55/63/188
f 56/64/189 62/69/190 60/67/191 58/65/192
