# This file uses centimeters as units for non-parametric coordinates.

v -87.754517 -86.049347 2.098236
v 87.754517 -86.049347 2.098236
v -87.754517 -86.049347 -6.080475
v 87.754517 -86.049347 -6.080475
v 87.754517 -72.017059 2.098236
v -87.754517 -72.017059 2.098236
v -87.754517 -72.017059 -6.080475
v 87.754517 -72.017059 -6.080475
v -60.547485 90.783844 -0.820007
v -41.087646 90.783844 -0.820007
v -60.547485 88.383942 6.080475
v -41.087646 88.383942 6.080475
v -60.547485 -90.043488 6.080475
v -41.087646 -90.043488 6.080475
v -60.547485 -92.003021 -0.820007
v -41.087646 -92.003021 -0.820007
v -57.831421 -36.840057 3.186035
v -43.901672 -36.840057 3.186035
v -42.000732 -36.840057 -3.066559
v -59.634094 -36.840057 -3.066559
v -37.031555 94.858856 -0.820007
v -17.098083 94.858856 -0.820007
v -27.903748 64.417877 6.080475
v -19.405823 93.351898 6.080475
v -37.031555 -87.416229 6.080475
v -19.405823 -87.416229 6.080475
v -37.031555 -89.504852 -0.820007
v -17.098083 -89.504852 -0.820007
v -37.031555 54.725800 6.080475
v -37.031555 93.351898 2.241669
v -25.283203 93.351898 6.080475
v 16.903992 91.822357 -0.820007
v 37.566833 89.868011 -0.820007
v 17.998047 89.318695 6.080475
v 36.039124 88.347015 6.080475
v -6.041260 -87.570038 6.080475
v 14.620972 -92.344208 6.080475
v -6.610413 -90.084381 -0.820007
v 14.052429 -94.858856 -0.820007
v 12.420349 35.675201 3.468018
v 27.328186 32.230682 3.468018
v 28.855286 32.230682 -2.378693
v 11.348877 36.276093 -2.378693
v 42.406921 93.245087 -0.820007
v 61.948853 93.245087 -0.820007
v 42.406921 90.630646 6.080475
v 61.948853 90.699310 6.080475
v 42.406921 -88.028107 6.080475
v 61.948853 -88.028107 6.080475
v 42.406921 -89.504852 -0.820007
v 61.948853 -89.504852 -0.820007
v 45.044556 -0.555573 5.541687
v 59.304199 -0.555573 5.541687
v 60.422363 -0.555573 -0.281219
v 43.933105 -0.555573 -0.281219
v -87.754517 87.327728 -6.080475
v 87.754517 87.327728 -6.080475
v -87.754517 87.327728 2.098236
v 87.754517 87.327728 2.098236
v -87.754517 73.295135 2.098236
v 87.754517 73.295135 2.098236
v 87.754517 73.295135 -6.080475
v -87.754517 73.295135 -6.080475
vt 0.037127 0.036591
vt 0.037127 0.036591
vt 0.037127 0.062941
vt 0.037127 0.062941
vt 0.037127 0.062941
vt 0.037127 0.036591
vt 0.037127 0.036591
vt 0.037127 0.062941
vt 0.037127 0.036591
vt 0.037127 0.062941
vt 0.037127 0.062941
vt 0.037127 0.062941
vt 0.037127 0.062941
vt 0.037127 0.062941
vt 0.037127 0.062941
vt 0.037127 0.036591
vt 0.037127 0.036591
vt 0.037127 0.062941
vt 0.037127 0.036591
vt 0.037127 0.036591
vt 0.037127 0.062941
vt 0.037127 0.062941
vt 0.037127 0.062941
vt 0.037127 0.036591
vt 0.037127 0.036591
vt 0.037127 0.062941
vt 0.037127 0.036591
vt 0.037127 0.036591
vt 0.037127 0.062941
vt 0.037127 0.062941
vt 0.037127 0.062941
vt 0.037127 0.062941
vt 0.037127 0.062941
vt 0.037127 0.062941
vt 0.037127 0.062941
vt 0.037127 0.036591
vt 0.037127 0.036591
vt 0.037127 0.036591
vt 0.037127 0.036591
vt 0.037127 0.062941
vt 0.037127 0.062941
vt 0.037127 0.062941
vt 0.037127 0.062941
vt 0.037127 0.036591
vt 0.037127 0.036591
vt 0.037127 0.062941
vt 0.037127 0.036591
vt 0.037127 0.036591
vt 0.037127 0.062941
vt 0.037127 0.062941
vt 0.037127 0.037909
vt 0.037127 0.037909
vt 0.037127 0.037909
vt 0.037127 0.037909
vt 0.037127 0.062941
vt 0.037127 0.062941
vt 0.037127 0.052401
vt 0.037127 0.062941
vt 0.037127 0.062941
vt 0.037127 0.062941
vt 0.037127 0.052401
vt 0.037127 0.062941
vt 0.037127 0.062941
vt 0.037127 0.062941
vt 0.037127 0.062941
vt 0.037127 0.062941
vt 0.037127 0.062941
vt 0.037127 0.052401
vt 0.037127 0.052401
vt 0.037127 0.062941
vt 0.037127 0.037909
vt 0.037127 0.037909
vt 0.037127 0.037909
vt 0.037127 0.037909
vt 0.037127 0.037909
vt 0.037127 0.037909
vt 0.037127 0.053060
vt 0.037127 0.062941
vt 0.037127 0.060306
vt 0.037127 0.045155
vt 0.037127 0.062941
vt 0.037127 0.062941
vt 0.037127 0.055695
vt 0.037127 0.045155
vt 0.037127 0.045155
vt 0.037127 0.060306
vt 0.037127 0.062941
vt 0.037127 0.045155
vt 0.037127 0.062941
vt 0.037127 0.062941
vt 0.037127 0.053060
vt 0.037127 0.055695
vt 0.037127 0.037909
vt 0.037127 0.037909
vt 0.037127 0.062941
vt 0.037127 0.062941
vt 0.037127 0.037909
vt 0.037127 0.037909
vt 0.037127 0.062941
vt 0.037127 0.037909
vt 0.037127 0.037908
vt 0.037127 0.037908
vt 0.037127 0.062941
vt 0.037127 0.062941
vt 0.037127 0.037908
vt 0.037127 0.062941
vn 0.000000 -1.000000 -0.000000
vn 0.000000 -1.000000 -0.000000
vn 0.000000 -1.000000 -0.000000
vn 0.000000 -1.000000 -0.000000
vn 0.000000 -0.000000 1.000000
vn 0.000000 -0.000000 1.000000
vn 0.000000 -0.000000 1.000000
vn 0.000000 -0.000000 1.000000
vn 0.000000 0.000000 -1.000000
vn 0.000000 0.000000 -1.000000
vn 0.000000 0.000000 -1.000000
vn 0.000000 0.000000 -1.000000
vn 0.000000 1.000000 0.000000
vn 0.000000 1.000000 0.000000
vn 0.000000 1.000000 0.000000
vn 0.000000 1.000000 0.000000
vn -1.000000 0.000000 0.000000
vn -1.000000 0.000000 0.000000
vn -1.000000 0.000000 0.000000
vn -1.000000 0.000000 0.000000
vn 1.000000 0.000000 0.000000
vn 1.000000 0.000000 0.000000
vn 1.000000 0.000000 0.000000
vn 1.000000 0.000000 0.000000
vn 0.000000 0.944536 0.328407
vn 0.000000 0.944536 0.328407
vn 0.000000 0.944536 0.328407
vn 0.000000 0.944536 0.328407
vn 0.000000 0.000319 1.000000
vn 0.000000 0.050732 0.998712
vn 0.000000 0.050732 0.998712
vn 0.000000 0.000330 1.000000
vn 0.000000 -1.000000 -0.000000
vn 0.000000 -1.000000 -0.000000
vn 0.000000 -1.000000 -0.000000
vn 0.000000 -1.000000 -0.000000
vn 0.000000 -0.039397 -0.999224
vn 0.000000 -0.000085 -1.000000
vn 0.000000 -0.000085 -1.000000
vn 0.000000 -0.039397 -0.999224
vn 0.991328 0.000043 0.131415
vn 0.990410 0.036196 0.133337
vn 0.990410 0.036196 0.133337
vn 0.991328 -0.000081 0.131408
vn -0.991338 0.035121 0.126555
vn -0.991338 0.035121 0.126555
vn -0.992197 0.000051 0.124680
vn -0.992198 -0.000081 0.124673
vn 0.000000 -0.023108 0.999733
vn 0.000000 0.000319 1.000000
vn 0.000000 0.000330 1.000000
vn 0.000000 -0.023108 0.999733
vn 0.991316 -0.016268 0.130491
vn 0.991316 -0.016268 0.130491
vn 0.991328 0.000043 0.131415
vn 0.991328 -0.000081 0.131408
vn 0.000000 -0.000085 -1.000000
vn 0.000000 0.017600 -0.999845
vn 0.000000 0.017600 -0.999845
vn 0.000000 -0.000085 -1.000000
vn -0.992197 0.000051 0.124680
vn -0.992184 -0.015784 0.123784
vn -0.992184 -0.015784 0.123784
vn -0.992198 -0.000081 0.124673
vn -0.337955 0.030550 0.940666
vn -0.337955 0.030550 0.940666
vn -0.337955 0.030550 0.940666
vn 0.000000 -0.850711 0.525634
vn 0.000000 -0.850711 0.525634
vn 0.000000 -0.850711 0.525634
vn 0.000000 -0.850711 0.525634
vn 0.000000 0.000000 -1.000000
vn 0.000000 0.000000 -1.000000
vn 0.000000 0.000000 -1.000000
vn 0.000000 0.000000 -1.000000
vn 1.000000 -0.000000 0.000000
vn 1.000000 -0.000000 0.000000
vn 1.000000 -0.000000 0.000000
vn 1.000000 -0.000000 0.000000
vn -0.122663 0.105065 0.986871
vn -0.122663 0.105065 0.986871
vn -0.122663 0.105065 0.986871
vn -1.000000 0.000000 -0.000000
vn -1.000000 0.000000 -0.000000
vn -1.000000 0.000000 -0.000000
vn -1.000000 0.000000 -0.000000
vn -1.000000 0.000000 -0.000000
vn 0.000000 1.000000 0.000000
vn 0.000000 1.000000 0.000000
vn 0.000000 1.000000 0.000000
vn 0.000000 1.000000 0.000000
vn 0.000000 1.000000 0.000000
vn 0.000000 -0.000000 1.000000
vn 0.000000 -0.000000 1.000000
vn 0.000000 -0.000000 1.000000
vn 0.000000 -0.000000 1.000000
vn 0.000000 -0.000000 1.000000
vn 0.000000 -0.000000 1.000000
vn 0.000000 -0.000000 1.000000
vn 0.000000 -0.000000 1.000000
vn -0.054754 0.988084 0.143849
vn -0.054754 0.988084 0.143849
vn -0.054754 0.988084 0.143849
vn -0.054754 0.988084 0.143849
vn 0.000000 0.009501 0.999955
vn 0.001511 -0.007197 0.999973
vn 0.001467 -0.006066 0.999981
vn 0.000000 0.009501 0.999955
vn 0.000000 -0.839420 0.543483
vn 0.000000 -0.839420 0.543483
vn 0.000000 -0.839420 0.543483
vn 0.000000 -0.839420 0.543483
vn 0.000000 0.008825 -0.999961
vn 0.000000 -0.002865 -0.999996
vn 0.000000 -0.002865 -0.999996
vn 0.000000 0.008825 -0.999961
vn 0.989518 0.039807 0.138812
vn 0.996078 -0.017368 0.086753
vn 0.996098 -0.017388 0.086524
vn 0.989518 0.039807 0.138812
vn -0.999675 0.024032 -0.008459
vn -0.962913 -0.006058 0.269743
vn -0.962903 -0.006071 0.269779
vn -0.999675 0.024032 -0.008459
vn 0.003089 -0.047396 0.998871
vn 0.001467 -0.006066 0.999981
vn 0.001511 -0.007197 0.999973
vn 0.003089 -0.047396 0.998871
vn 0.999695 -0.024711 -0.000000
vn 0.999695 -0.024711 -0.000000
vn 0.996098 -0.017388 0.086524
vn 0.996078 -0.017368 0.086753
vn 0.000000 -0.002865 -0.999996
vn 0.000000 0.027822 -0.999613
vn 0.000000 0.027822 -0.999613
vn 0.000000 -0.002865 -0.999996
vn -0.962913 -0.006058 0.269743
vn -0.937195 -0.034761 0.347070
vn -0.937195 -0.034761 0.347070
vn -0.962903 -0.006071 0.269779
vn 0.037411 0.897950 0.438504
vn 0.037411 0.897950 0.438504
vn 0.037411 0.897950 0.438504
vn 0.037411 0.897950 0.438504
vn -0.000145 0.000002 1.000000
vn 0.000000 0.006057 0.999982
vn 0.000000 0.006057 0.999982
vn -0.000145 0.000001 1.000000
vn 0.000000 -1.000000 -0.000000
vn 0.000000 -1.000000 -0.000000
vn 0.000000 -1.000000 -0.000000
vn 0.000000 -1.000000 -0.000000
vn 0.000000 0.006057 -0.999982
vn 0.000000 0.000002 -1.000000
vn 0.000000 0.000002 -1.000000
vn 0.000000 0.006057 -0.999982
vn 0.996964 -0.000000 0.077863
vn 0.996456 0.021671 0.081282
vn 0.996456 0.021671 0.081282
vn 0.996964 0.000004 0.077863
vn -0.996499 0.021634 0.080757
vn -0.996499 0.021634 0.080757
vn -0.996906 -0.000001 0.078609
vn -0.996905 0.000004 0.078610
vn -0.000287 -0.005958 0.999982
vn -0.000145 0.000002 1.000000
vn -0.000145 0.000001 1.000000
vn -0.000287 -0.005958 0.999982
vn 0.996999 -0.021024 0.074510
vn 0.996999 -0.021024 0.074510
vn 0.996964 -0.000000 0.077863
vn 0.996964 0.000004 0.077863
vn 0.000000 0.000002 -1.000000
vn 0.000000 -0.005744 -0.999983
vn 0.000000 -0.005744 -0.999983
vn 0.000000 0.000002 -1.000000
vn -0.996906 -0.000001 0.078609
vn -0.996852 -0.020813 0.076508
vn -0.996852 -0.020813 0.076508
vn -0.996905 0.000004 0.078610
vn 0.000000 1.000000 0.000000
vn 0.000000 1.000000 0.000000
vn 0.000000 1.000000 0.000000
vn 0.000000 1.000000 0.000000
vn 0.000000 -0.000000 1.000000
vn 0.000000 -0.000000 1.000000
vn 0.000000 -0.000000 1.000000
vn 0.000000 -0.000000 1.000000
vn 0.000000 0.000000 -1.000000
vn 0.000000 0.000000 -1.000000
vn 0.000000 0.000000 -1.000000
vn 0.000000 0.000000 -1.000000
vn 0.000000 -1.000000 -0.000000
vn 0.000000 -1.000000 -0.000000
vn 0.000000 -1.000000 -0.000000
vn 0.000000 -1.000000 -0.000000
vn -1.000000 0.000000 0.000000
vn -1.000000 0.000000 0.000000
vn -1.000000 0.000000 0.000000
vn -1.000000 0.000000 0.000000
vn 1.000000 0.000000 0.000000
vn 1.000000 0.000000 0.000000
vn 1.000000 0.000000 0.000000
vn 1.000000 0.000000 0.000000
s off
f 1/1/1 3/2/2 4/3/3 2/4/4
f 2/4/5 5/5/6 6/6/7 1/1/8
f 3/2/9 7/7/10 8/8/11 4/3/12
f 7/7/13 6/9/14 5/10/15 8/8/16
f 1/1/17 6/9/18 7/7/19 3/2/20
f 2/4/21 4/3/22 8/8/23 5/5/24
f 9/11/25 11/12/26 12/13/27 10/14/28
f 17/15/29 13/16/30 14/17/31 18/18/32
f 13/16/33 15/19/34 16/20/35 14/17/36
f 15/19/37 20/21/38 19/22/39 16/20/40
f 18/23/41 14/24/42 16/25/43 19/26/44
f 15/27/45 13/28/46 17/29/47 20/30/48
f 11/12/49 17/15/50 18/18/51 12/13/52
f 10/14/53 12/13/54 18/23/55 19/26/56
f 20/21/57 9/31/58 10/32/59 19/22/60
f 17/29/61 11/12/62 9/11/63 20/30/64
f 30/33/65 23/34/66 31/35/67
f 25/36/68 27/37/69 28/38/70 26/39/71
f 27/37/72 21/40/73 22/41/74 28/38/75
f 22/42/76 24/43/77 26/44/78 28/45/79
f 29/46/80 23/34/81 30/33/82
f 27/47/83 25/48/84 29/46/85 30/33/86 21/49/87
f 21/49/88 30/33/89 31/35/90 24/43/91 22/42/92
f 29/50/93 25/36/94 26/39/95 23/34/96
f 26/39/97 24/43/98 31/35/99 23/34/100
f 32/51/101 34/52/102 35/53/103 33/54/104
f 37/55/105 41/56/106 40/57/107 36/58/108
f 36/58/109 38/59/110 39/60/111 37/55/112
f 38/59/113 43/61/114 42/62/115 39/60/116
f 39/63/117 42/64/118 41/65/119 37/66/120
f 36/67/121 40/68/122 43/69/123 38/70/124
f 34/52/125 40/57/126 41/56/127 35/53/128
f 33/54/129 35/53/130 41/65/131 42/64/132
f 43/61/133 32/71/134 33/72/135 42/62/136
f 40/68/137 34/52/138 32/51/139 43/69/140
f 44/73/141 46/74/142 47/75/143 45/76/144
f 52/77/145 48/78/146 49/79/147 53/80/148
f 48/78/149 50/81/150 51/82/151 49/79/152
f 50/81/153 55/83/154 54/84/155 51/82/156
f 53/85/157 49/86/158 51/87/159 54/88/160
f 50/89/161 48/90/162 52/91/163 55/92/164
f 46/74/165 52/77/166 53/80/167 47/75/168
f 45/76/169 47/75/170 53/85/171 54/88/172
f 55/83/173 44/93/174 45/94/175 54/84/176
f 52/91/177 46/74/178 44/73/179 55/92/180
f 56/95/181 58/96/182 59/97/183 57/98/184
f 58/96/185 60/99/186 61/100/187 59/97/188
f 57/101/189 62/102/190 63/103/191 56/104/192
f 62/102/193 61/105/194 60/106/195 63/103/196
f 56/104/197 63/103/198 60/99/199 58/96/200
f 57/98/201 59/97/202 61/105/203 62/102/204
