# This file uses centimeters as units for non-parametric coordinates.

v 36.808090 24.546833 0.625458
v 37.607498 24.546833 2.509766
v 39.878006 27.616863 0.625610
v 39.878006 26.817436 2.509766
v 42.948074 24.546833 0.625610
v 42.148666 24.546833 2.509613
v 39.878006 21.476803 0.625610
v 39.878006 22.276230 2.509766
v 39.122086 -24.905014 0.625610
v 39.921494 -24.905014 2.509613
v 42.192001 -21.834984 0.625458
v 42.192001 -22.634413 2.509613
v 45.262070 -24.905014 0.625458
v 44.462662 -24.905014 2.509766
v 42.192001 -27.975044 0.625458
v 42.192001 -27.175615 2.509613
v -47.093430 -25.628298 0.625610
v 47.098770 -25.302467 0.625610
v 47.098770 22.953568 0.625610
v 36.421280 31.789818 0.625610
v -36.175766 31.152935 0.625610
v -47.098770 22.928543 0.625458
v 37.714615 -31.601868 0.625610
v -39.078445 -31.789839 0.625458
v 37.106247 19.831352 0.625458
v 37.106247 -19.645327 0.625458
v 34.258041 23.485050 0.625458
v -32.637405 22.996387 0.625458
v -36.088333 19.812164 0.625458
v -37.102127 -19.698219 0.625458
v 32.750320 -21.932737 0.625610
v -32.491531 -21.879845 0.625458
v 34.479141 18.123627 4.553528
v 34.479141 -17.815153 4.553833
v 31.886215 21.449871 4.553680
v -31.066818 21.005001 4.553528
v -34.208450 18.106155 4.553680
v -34.475021 -17.863295 4.553833
v 30.513535 -19.897554 4.553680
v -30.277634 -19.849413 4.553528
v 30.159225 2.850590 4.553680
v -28.986282 2.834339 4.553680
v 48.156052 24.250393 -4.553680
v 48.156052 -26.731987 -4.553680
v 37.238846 33.585854 -4.553528
v -36.987839 32.912998 -4.553528
v -48.156052 24.223957 -4.553528
v -48.150558 -27.076225 -4.553528
v 38.561172 -33.387299 -4.553528
v -39.955673 -33.585876 -4.553528
v 20.131302 5.277195 -4.553833
v -24.405441 5.490150 -4.553833
v 14.528732 2.597065 4.553680
v -13.431168 -33.464317 -4.553680
v -13.136215 -31.674767 0.625610
v -14.093246 -21.912214 0.625610
v -17.440720 -17.036209 4.553528
v 13.691177 31.383915 0.625610
v 13.998642 33.157024 -4.553680
v 13.387527 18.997974 4.553528
v 16.561966 22.173977 0.625610
v -43.111801 -25.919685 0.625610
v -42.312393 -25.919685 2.509613
v -40.041733 -22.849655 0.625610
v -40.041733 -23.649080 2.509766
v -36.971664 -25.919685 0.625610
v -37.771072 -25.919685 2.509613
v -40.041733 -28.989716 0.625610
v -40.041733 -28.190290 2.509766
v -42.054062 23.814869 0.625610
v -41.254654 23.814869 2.509613
v -38.983994 26.884899 0.625610
v -38.983994 26.085472 2.509766
v -35.913925 23.814869 0.625610
v -36.713333 23.814869 2.509613
v -38.983994 20.744839 0.625610
v -38.983994 21.544266 2.509766
vt 0.080339 0.327694
vt 0.080339 0.327694
vt 0.080339 0.327694
vt 0.080339 0.327694
vt 0.080339 0.327694
vt 0.080339 0.327694
vt 0.080339 0.327694
vt 0.080339 0.327694
vt 0.080339 0.327694
vt 0.080339 0.327694
vt 0.080339 0.327694
vt 0.080339 0.327694
vt 0.080339 0.327694
vt 0.080339 0.327694
vt 0.080339 0.327694
vt 0.080339 0.327694
vt 0.080339 0.327694
vt 0.080339 0.327694
vt 0.080339 0.327694
vt 0.080339 0.327694
vt 0.080339 0.327694
vt 0.080339 0.327694
vt 0.080339 0.327694
vt 0.080339 0.327694
vt 0.091545 0.058459
vt 0.091545 0.058459
vt 0.091545 0.058459
vt 0.091545 0.058459
vt 0.091545 0.058459
vt 0.091545 0.058459
vt 0.091545 0.058459
vt 0.091545 0.058459
vt 0.091545 0.058459
vt 0.091545 0.058459
vt 0.091545 0.058459
vt 0.091545 0.058459
vt 0.091545 0.058459
vt 0.091545 0.058459
vt 0.091545 0.058459
vt 0.091545 0.058459
vt 0.091545 0.058459
vt 0.091545 0.058459
vt 0.091545 0.058459
vt 0.091545 0.058459
vt 0.091545 0.058459
vt 0.091545 0.058459
vt 0.091545 0.058459
vt 0.091545 0.058459
vt 0.091545 0.058459
vt 0.091545 0.058459
vt 0.091545 0.058459
vt 0.091545 0.058459
vt 0.091545 0.058459
vt 0.091545 0.058459
vt 0.091545 0.058459
vt 0.091545 0.058459
vt 0.091545 0.058459
vt 0.091545 0.058459
vt 0.091545 0.058459
vt 0.091545 0.058459
vt 0.091545 0.058459
vt 0.091545 0.058459
vt 0.091545 0.058459
vt 0.091545 0.058459
vt 0.091545 0.058459
vt 0.091545 0.058459
vt 0.091545 0.058459
vt 0.091545 0.058459
vt 0.090405 0.087713
vt 0.090405 0.087713
vt 0.090405 0.087713
vt 0.090405 0.087713
vt 0.090405 0.087713
vt 0.090405 0.087713
vt 0.090405 0.087713
vt 0.090405 0.087713
vt 0.090405 0.087713
vt 0.090405 0.087713
vt 0.090405 0.087713
vt 0.090405 0.087713
vt 0.090405 0.087713
vt 0.090405 0.087713
vt 0.090405 0.087713
vt 0.090405 0.087713
vt 0.090405 0.087713
vt 0.090405 0.087713
vt 0.090405 0.087713
vt 0.090405 0.087713
vt 0.090405 0.087713
vt 0.090405 0.087713
vt 0.090405 0.087713
vt 0.090405 0.087713
vt 0.091545 0.058459
vt 0.091545 0.058459
vt 0.091545 0.058459
vt 0.091545 0.058459
vt 0.091545 0.058459
vt 0.091545 0.058459
vt 0.091545 0.058459
vt 0.091545 0.058459
vt 0.091545 0.058459
vt 0.091545 0.058459
vt 0.091545 0.058459
vt 0.091545 0.058459
vt 0.091545 0.058459
vt 0.091545 0.058459
vt 0.091545 0.058459
vt 0.091545 0.058459
vt 0.091545 0.058459
vt 0.091545 0.058459
vt 0.091545 0.058459
vt 0.091545 0.058459
vt 0.091545 0.058459
vt 0.091545 0.058459
vt 0.091545 0.058459
vt 0.091545 0.058459
vt 0.091545 0.058459
vt 0.091545 0.058459
vt 0.091545 0.058459
vt 0.091545 0.058459
vt 0.091545 0.058459
vt 0.091545 0.058459
vt 0.091545 0.058459
vt 0.091545 0.058459
vt 0.091545 0.058459
vt 0.091545 0.058459
vt 0.091545 0.058459
vt 0.091545 0.058459
vt 0.091545 0.058459
vt 0.091545 0.058459
vt 0.091545 0.058459
vt 0.091545 0.058459
vt 0.080339 0.327694
vt 0.080339 0.327694
vt 0.080339 0.327694
vt 0.080339 0.327694
vt 0.080339 0.327694
vt 0.080339 0.327694
vt 0.080339 0.327694
vt 0.080339 0.327694
vt 0.080339 0.327694
vt 0.080339 0.327694
vt 0.080339 0.327694
vt 0.080339 0.327694
vt 0.080339 0.327694
vt 0.080339 0.327694
vt 0.080339 0.327694
vt 0.080339 0.327694
vt 0.080339 0.327694
vt 0.080339 0.327694
vt 0.080339 0.327694
vt 0.080339 0.327694
vt 0.080339 0.327694
vt 0.080339 0.327694
vt 0.080339 0.327694
vt 0.080339 0.327694
vn -0.677303 0.677268 0.287349
vn -0.677303 0.677268 0.287349
vn -0.677303 0.677268 0.287349
vn -0.677303 0.677268 0.287349
vn 0.677278 0.677283 0.287371
vn 0.677278 0.677283 0.287371
vn 0.677278 0.677283 0.287371
vn 0.677278 0.677283 0.287371
vn 0.677279 -0.677283 0.287370
vn 0.677278 -0.677283 0.287370
vn 0.677278 -0.677283 0.287371
vn 0.677278 -0.677283 0.287370
vn -0.677303 -0.677267 0.287350
vn -0.677303 -0.677267 0.287350
vn -0.677303 -0.677267 0.287350
vn -0.677303 -0.677267 0.287350
vn 0.000034 0.000000 1.000000
vn 0.000034 0.000000 1.000000
vn 0.000034 0.000000 1.000000
vn 0.000034 0.000000 1.000000
vn -0.677289 0.677271 0.287372
vn -0.677289 0.677271 0.287372
vn -0.677289 0.677271 0.287372
vn -0.677289 0.677271 0.287372
vn 0.677275 0.677295 0.287350
vn 0.677275 0.677295 0.287350
vn 0.677275 0.677295 0.287350
vn 0.677275 0.677295 0.287350
vn 0.677275 -0.677295 0.287351
vn 0.677275 -0.677294 0.287351
vn 0.677275 -0.677294 0.287351
vn 0.677275 -0.677295 0.287351
vn -0.677289 -0.677271 0.287372
vn -0.677289 -0.677271 0.287372
vn -0.677289 -0.677271 0.287372
vn -0.677289 -0.677271 0.287372
vn -0.000034 0.000000 1.000000
vn -0.000034 0.000000 1.000000
vn -0.000034 0.000000 1.000000
vn -0.000034 0.000000 1.000000
vn -0.000008 -0.000012 -1.000000
vn -0.000008 -0.000012 -1.000000
vn -0.000008 -0.000012 -1.000000
vn -0.000005 -0.000006 -1.000000
vn -0.000005 -0.000006 -1.000000
vn -0.000005 -0.000006 -1.000000
vn -0.000001 -0.000005 -1.000000
vn -0.000002 -0.000005 -1.000000
vn -0.000002 -0.000005 -1.000000
vn 0.000000 -0.000005 -1.000000
vn 0.000005 0.000000 -1.000000
vn 0.000005 0.000000 -1.000000
vn 0.000005 0.000000 -1.000000
vn -0.000003 0.000013 -1.000000
vn -0.000003 0.000013 -1.000000
vn -0.000003 0.000013 -1.000000
vn -0.000000 0.000008 -1.000000
vn -0.000001 0.000008 -1.000000
vn -0.000002 0.000008 -1.000000
vn -0.000002 0.000008 -1.000000
vn -0.000006 0.000008 -1.000000
vn -0.000006 0.000008 -1.000000
vn -0.000006 0.000008 -1.000000
vn -0.000013 -0.000000 -1.000000
vn -0.000013 -0.000000 -1.000000
vn -0.000013 -0.000000 -1.000000
vn -0.000015 0.000000 1.000000
vn -0.000015 0.000000 1.000000
vn -0.000015 0.000000 1.000000
vn -0.000015 0.000000 1.000000
vn -0.000012 -0.000013 1.000000
vn -0.000012 -0.000013 1.000000
vn -0.000012 -0.000013 1.000000
vn -0.000012 -0.000013 1.000000
vn 0.000001 -0.000009 1.000000
vn -0.000000 -0.000009 1.000000
vn -0.000002 -0.000009 1.000000
vn -0.000002 -0.000009 1.000000
vn 0.000000 -0.000013 1.000000
vn 0.000000 -0.000013 1.000000
vn 0.000000 -0.000013 1.000000
vn 0.000000 -0.000013 1.000000
vn 0.000007 0.000002 1.000000
vn 0.000007 0.000002 1.000000
vn 0.000007 0.000002 1.000000
vn 0.000007 0.000002 1.000000
vn 0.000003 0.000013 1.000000
vn 0.000003 0.000013 1.000000
vn 0.000003 0.000013 1.000000
vn 0.000003 0.000013 1.000000
vn 0.000011 -0.000002 1.000000
vn 0.000011 -0.000002 1.000000
vn 0.000011 -0.000002 1.000000
vn 0.000011 -0.000002 1.000000
vn -0.000007 0.000002 1.000000
vn -0.000002 0.000001 1.000000
vn -0.000002 0.000001 1.000000
vn -0.000007 0.000002 1.000000
vn 0.831240 0.000002 0.555914
vn 0.831240 0.000002 0.555914
vn 0.831240 0.000002 0.555914
vn 0.831240 0.000002 0.555914
vn 0.617442 0.481306 0.622181
vn 0.617442 0.481306 0.622181
vn 0.617442 0.481306 0.622181
vn 0.617442 0.481306 0.622181
vn -0.025735 0.845626 0.533154
vn 0.025160 0.832837 0.552947
vn 0.025160 0.832836 0.552947
vn 0.008889 0.837213 0.546805
vn -0.570204 0.617976 0.541270
vn -0.570204 0.617976 0.541270
vn -0.570204 0.617976 0.541270
vn -0.570204 0.617976 0.541270
vn -0.867420 0.014715 0.497359
vn -0.867420 0.014715 0.497359
vn -0.867420 0.014715 0.497360
vn -0.867420 0.014715 0.497359
vn 0.376685 -0.717330 0.586129
vn 0.376685 -0.717330 0.586129
vn 0.376685 -0.717330 0.586129
vn 0.376685 -0.717330 0.586129
vn -0.349019 -0.737648 0.577981
vn -0.349019 -0.737648 0.577981
vn -0.349019 -0.737648 0.577981
vn -0.349019 -0.737648 0.577981
vn 0.066290 -0.744623 0.664186
vn -0.009725 -0.756988 0.653357
vn 0.010926 -0.754081 0.656691
vn 0.066290 -0.744623 0.664186
vn 0.000005 0.000008 1.000000
vn 0.000005 0.000008 1.000000
vn 0.000005 0.000008 1.000000
vn 0.000053 -0.000005 1.000000
vn 0.000053 -0.000005 1.000000
vn 0.000053 -0.000005 1.000000
vn -0.000001 0.000008 1.000000
vn 0.000000 0.000009 1.000000
vn 0.000000 0.000009 1.000000
vn -0.000001 0.000008 1.000000
vn 0.000037 0.000013 1.000000
vn 0.000037 0.000013 1.000000
vn 0.000037 0.000013 1.000000
vn 0.000012 0.000004 1.000000
vn 0.000012 0.000004 1.000000
vn 0.000012 0.000004 1.000000
vn -0.000038 -0.000001 1.000000
vn -0.000038 -0.000001 1.000000
vn -0.000038 -0.000001 1.000000
vn 0.000068 -0.000011 1.000000
vn 0.000068 -0.000011 1.000000
vn 0.000068 -0.000011 1.000000
vn 0.000000 -0.000007 1.000000
vn -0.000000 -0.000006 1.000000
vn -0.000002 -0.000003 1.000000
vn 0.000000 -0.000007 1.000000
vn 0.979794 0.000000 0.200011
vn 0.979794 0.000000 0.200011
vn 0.979794 0.000000 0.200012
vn 0.979794 0.000000 0.200012
vn 0.608658 0.723307 0.326133
vn 0.608658 0.723307 0.326133
vn 0.608658 0.723307 0.326133
vn 0.608658 0.723307 0.326133
vn -0.008235 0.946250 0.323332
vn -0.008652 0.946234 0.323366
vn -0.004457 0.946382 0.323020
vn -0.004457 0.946382 0.323020
vn -0.574859 0.750841 0.325232
vn -0.574859 0.750840 0.325232
vn -0.574859 0.750841 0.325232
vn -0.574859 0.750841 0.325232
vn -0.979794 -0.000106 0.200008
vn -0.979794 -0.000106 0.200008
vn -0.979794 -0.000106 0.200008
vn -0.979794 -0.000106 0.200008
vn 0.530449 -0.777119 0.338689
vn 0.530449 -0.777119 0.338689
vn 0.530449 -0.777119 0.338689
vn 0.530449 -0.777119 0.338689
vn -0.579131 -0.740869 0.340177
vn -0.579131 -0.740869 0.340177
vn -0.579131 -0.740869 0.340177
vn -0.579131 -0.740869 0.340177
vn 0.004263 -0.945126 0.326679
vn 0.004263 -0.945126 0.326679
vn 0.002398 -0.945215 0.326441
vn 0.002308 -0.945219 0.326429
vn 0.000003 -0.000006 -1.000000
vn -0.000001 -0.000005 -1.000000
vn 0.000000 -0.000005 -1.000000
vn 0.002308 -0.945219 0.326429
vn 0.002398 -0.945215 0.326441
vn 0.001377 -0.945262 0.326309
vn 0.001377 -0.945262 0.326310
vn -0.000002 0.000001 1.000000
vn -0.000002 0.000001 1.000000
vn 0.000000 0.000000 1.000000
vn 0.000000 0.000000 1.000000
vn 0.010926 -0.754081 0.656691
vn -0.009725 -0.756988 0.653357
vn -0.023065 -0.758686 0.651048
vn -0.023065 -0.758686 0.651048
vn -0.000002 -0.000003 1.000000
vn -0.000000 -0.000006 1.000000
vn -0.000002 -0.000002 1.000000
vn -0.000002 -0.000002 1.000000
vn -0.017176 0.945884 0.324051
vn -0.017176 0.945884 0.324051
vn -0.008652 0.946234 0.323366
vn -0.008235 0.946250 0.323332
vn 0.000006 0.000007 -1.000000
vn -0.000001 0.000008 -1.000000
vn -0.000000 0.000008 -1.000000
vn -0.000005 0.000004 1.000000
vn -0.000001 0.000008 1.000000
vn -0.000001 0.000008 1.000000
vn -0.000005 0.000004 1.000000
vn -0.089187 0.857864 0.506079
vn -0.025735 0.845626 0.533154
vn 0.008889 0.837213 0.546805
vn -0.089187 0.857864 0.506079
vn 0.000004 -0.000009 1.000000
vn -0.000000 -0.000009 1.000000
vn 0.000001 -0.000009 1.000000
vn 0.000004 -0.000009 1.000000
vn -0.677279 0.677283 0.287370
vn -0.677279 0.677283 0.287370
vn -0.677279 0.677283 0.287370
vn -0.677279 0.677283 0.287370
vn 0.677279 0.677282 0.287371
vn 0.677279 0.677282 0.287371
vn 0.677279 0.677282 0.287371
vn 0.677279 0.677282 0.287371
vn 0.677279 -0.677282 0.287370
vn 0.677279 -0.677282 0.287370
vn 0.677279 -0.677282 0.287370
vn 0.677279 -0.677282 0.287370
vn -0.677279 -0.677283 0.287369
vn -0.677279 -0.677283 0.287369
vn -0.677279 -0.677283 0.287369
vn -0.677279 -0.677283 0.287369
vn 0.000000 0.000000 1.000000
vn 0.000000 0.000000 1.000000
vn 0.000000 0.000000 1.000000
vn 0.000000 0.000000 1.000000
vn -0.677279 0.677282 0.287371
vn -0.677279 0.677282 0.287371
vn -0.677279 0.677282 0.287371
vn -0.677279 0.677282 0.287371
vn 0.677279 0.677282 0.287371
vn 0.677279 0.677282 0.287371
vn 0.677279 0.677282 0.287371
vn 0.677279 0.677282 0.287371
vn 0.677279 -0.677282 0.287372
vn 0.677279 -0.677282 0.287372
vn 0.677279 -0.677282 0.287372
vn 0.677279 -0.677282 0.287372
vn -0.677279 -0.677282 0.287372
vn -0.677279 -0.677282 0.287372
vn -0.677279 -0.677282 0.287372
vn -0.677279 -0.677282 0.287372
vn 0.000000 0.000000 1.000000
vn 0.000000 0.000000 1.000000
vn 0.000000 0.000000 1.000000
vn 0.000000 0.000000 1.000000
s off
f 1/1/1 2/2/2 4/3/3 3/4/4
f 3/4/5 4/3/6 6/5/7 5/6/8
f 5/6/9 6/5/10 8/7/11 7/8/12
f 7/8/13 8/7/14 2/9/15 1/10/16
f 2/2/17 8/11/18 6/12/19 4/3/20
f 9/13/21 10/14/22 12/15/23 11/16/24
f 11/16/25 12/15/26 14/17/27 13/18/28
f 13/18/29 14/17/30 16/19/31 15/20/32
f 15/20/33 16/19/34 10/21/35 9/22/36
f 10/14/37 16/23/38 14/24/39 12/15/40
f 44/25/41 49/26/42 51/27/43
f 50/28/44 48/29/45 52/30/46
f 54/31/47 50/28/48 52/30/49 51/27/50
f 44/25/51 51/27/52 43/32/53
f 43/32/54 51/27/55 45/33/56
f 59/34/57 51/27/58 52/30/59 46/35/60
f 46/35/61 52/30/62 47/36/63
f 47/36/64 52/30/65 48/29/66
f 18/37/67 19/38/68 25/39/69 26/40/70
f 19/41/71 20/42/72 27/43/73 25/44/74
f 61/45/75 58/46/76 21/47/77 28/48/78
f 21/49/79 22/50/80 29/51/81 28/52/82
f 22/53/83 17/54/84 30/55/85 29/56/86
f 23/57/87 18/58/88 26/59/89 31/60/90
f 17/61/91 24/62/92 32/63/93 30/64/94
f 24/65/95 55/66/96 56/67/97 32/68/98
f 26/69/99 25/70/100 33/71/101 34/72/102
f 25/70/103 27/73/104 35/74/105 33/71/106
f 61/75/107 28/76/108 36/77/109 60/78/110
f 28/76/111 29/79/112 37/80/113 36/77/114
f 29/79/115 30/81/116 38/82/117 37/80/118
f 31/83/119 26/69/120 34/72/121 39/84/122
f 30/81/123 32/85/124 40/86/125 38/82/126
f 32/85/127 56/87/128 57/88/129 40/86/130
f 34/72/131 33/71/132 41/89/133
f 33/71/134 35/74/135 41/89/136
f 60/78/137 36/77/138 42/90/139 53/91/140
f 36/77/141 37/80/142 42/90/143
f 37/80/144 38/82/145 42/90/146
f 39/84/147 34/72/148 41/89/149
f 38/82/150 40/86/151 42/90/152
f 40/86/153 57/88/154 53/92/155 42/90/156
f 18/93/157 44/94/158 43/95/159 19/96/160
f 19/97/161 43/98/162 45/99/163 20/100/164
f 58/101/165 59/102/166 46/103/167 21/104/168
f 21/105/169 46/106/170 47/107/171 22/108/172
f 22/109/173 47/110/174 48/111/175 17/112/176
f 23/113/177 49/114/178 44/115/179 18/116/180
f 17/117/181 48/118/182 50/119/183 24/120/184
f 24/121/185 50/122/186 54/123/187 55/124/188
f 49/26/189 54/31/190 51/27/191
f 55/124/192 54/123/193 49/125/194 23/126/195
f 56/67/196 55/66/197 23/127/198 31/128/199
f 57/88/200 56/87/201 31/83/202 39/84/203
f 53/92/204 57/88/205 39/84/206 41/89/207
f 20/129/208 45/130/209 59/102/210 58/101/211
f 45/33/212 51/27/213 59/34/214
f 35/74/215 60/78/216 53/91/217 41/89/218
f 27/73/219 61/75/220 60/78/221 35/74/222
f 20/131/223 58/46/224 61/45/225 27/132/226
f 62/133/227 63/134/228 65/135/229 64/136/230
f 64/136/231 65/135/232 67/137/233 66/138/234
f 66/138/235 67/137/236 69/139/237 68/140/238
f 68/140/239 69/139/240 63/141/241 62/142/242
f 63/134/243 69/143/244 67/144/245 65/135/246
f 70/145/247 71/146/248 73/147/249 72/148/250
f 72/148/251 73/147/252 75/149/253 74/150/254
f 74/150/255 75/149/256 77/151/257 76/152/258
f 76/152/259 77/151/260 71/153/261 70/154/262
f 71/146/263 77/155/264 75/156/265 73/147/266
