# This file uses centimeters as units for non-parametric coordinates.

v -4.245158 -1.060320 -0.975602
v -4.245158 0.314734 -1.406064
v -4.245158 1.375063 -0.430463
v -4.245158 1.060320 0.975598
v -4.245158 -0.314737 1.406066
v -4.245158 -1.375055 0.430467
v 4.245158 -1.060320 -0.975602
v 4.245158 0.314734 -1.406064
v 4.245158 1.375063 -0.430463
v 4.245158 1.060320 0.975598
v 4.245158 -0.314737 1.406066
v 4.245158 -1.375055 0.430467
v -4.245158 -0.000006 0.000012
v 4.245158 -0.000006 0.000012
v 3.820642 -1.224371 -1.126552
v 3.820642 -1.587805 0.497075
v 3.820642 -0.363424 1.623624
v 3.820642 1.224382 1.126542
v 3.820642 1.587812 -0.497071
v 3.820642 0.363432 -1.623614
v -3.820642 -1.224371 -1.126552
v -3.820642 0.363432 -1.623614
v -3.820642 1.587812 -0.497071
v -3.820642 1.224382 1.126542
v -3.820642 -0.363424 1.623624
v -3.820642 -1.587805 0.497075
v -3.229407 -1.224371 -1.126552
v -3.229407 -1.587805 0.497075
v -3.229407 -0.363424 1.623624
v -3.229407 1.224382 1.126542
v -3.229407 1.587812 -0.497071
v -3.229407 0.363432 -1.623614
v 3.229407 -1.224371 -1.126552
v 3.229407 0.363432 -1.623614
v 3.229407 1.587812 -0.497071
v 3.229407 1.224382 1.126542
v 3.229407 -0.363424 1.623624
v 3.229407 -1.587805 0.497075
v 3.229407 -1.575834 -1.449937
v 3.229407 0.467756 -2.089673
v 3.820642 0.467756 -2.089673
v 3.820642 -1.575834 -1.449937
v 3.229407 2.043612 -0.639777
v 3.820642 2.043612 -0.639777
v 3.229407 1.575834 1.449933
v 3.820642 1.575834 1.449933
v 3.229407 -0.467745 2.089671
v 3.820642 -0.467745 2.089671
v 3.229407 -2.043600 0.639775
v 3.820642 -2.043600 0.639775
v -3.820642 -1.575834 -1.449937
v -3.820642 0.467756 -2.089673
v -3.229407 0.467756 -2.089673
v -3.229407 -1.575834 -1.449937
v -3.820642 2.043612 -0.639777
v -3.229407 2.043612 -0.639777
v -3.820642 1.575834 1.449933
v -3.229407 1.575834 1.449933
v -3.820642 -0.467745 2.089671
v -3.229407 -0.467745 2.089671
v -3.820642 -2.043600 0.639775
v -3.229407 -2.043600 0.639775
vt 0.079769 0.228170
vt 0.079769 0.228170
vt 0.079769 0.228170
vt 0.079769 0.228170
vt 0.079769 0.228170
vt 0.079769 0.228170
vt 0.079769 0.228170
vt 0.079769 0.228170
vt 0.079769 0.228170
vt 0.079769 0.228170
vt 0.079769 0.228170
vt 0.079769 0.228170
vt 0.079769 0.228170
vt 0.079769 0.228170
vt 0.090327 0.231475
vt 0.090327 0.231475
vt 0.090327 0.231475
vt 0.090327 0.231475
vt 0.090327 0.231475
vt 0.090327 0.231475
vt 0.090327 0.231475
vt 0.090327 0.231475
vt 0.090327 0.231475
vt 0.090327 0.231475
vt 0.090327 0.231475
vt 0.090327 0.231475
vt 0.090327 0.231475
vt 0.090327 0.231475
vt 0.079769 0.228170
vt 0.079769 0.228170
vt 0.079769 0.228170
vt 0.079769 0.228170
vt 0.079769 0.228170
vt 0.079769 0.228170
vt 0.079769 0.228170
vt 0.079769 0.228170
vt 0.079769 0.228170
vt 0.079769 0.228170
vt 0.079769 0.228170
vt 0.079769 0.228170
vt 0.079769 0.228170
vt 0.079769 0.228170
vt 0.090327 0.231475
vt 0.090327 0.231475
vt 0.090327 0.231475
vt 0.090327 0.231475
vt 0.090327 0.231475
vt 0.090327 0.231475
vt 0.090327 0.231475
vt 0.090327 0.231475
vt 0.090327 0.231475
vt 0.090327 0.231475
vt 0.090327 0.231475
vt 0.090327 0.231475
vt 0.090327 0.231475
vt 0.090327 0.231475
vt 0.090327 0.231475
vt 0.090327 0.231475
vt 0.090327 0.231475
vt 0.090327 0.231475
vt 0.090327 0.231475
vt 0.090327 0.231475
vt 0.090327 0.231475
vt 0.090327 0.231475
vt 0.090327 0.231475
vt 0.090327 0.231475
vt 0.079769 0.228170
vt 0.079769 0.228170
vt 0.079769 0.228170
vt 0.079769 0.228170
vt 0.079769 0.228170
vt 0.079769 0.228170
vt 0.079769 0.228170
vt 0.079769 0.228170
vt 0.079769 0.228170
vt 0.079769 0.228170
vt 0.079769 0.228170
vt 0.079769 0.228170
vt 0.079769 0.228170
vt 0.079769 0.228170
vt 0.079769 0.228170
vt 0.079769 0.228170
vt 0.079769 0.228170
vt 0.079769 0.228170
vt 0.079769 0.228170
vt 0.079769 0.228170
vt 0.079769 0.228170
vt 0.079769 0.228170
vt 0.079769 0.228170
vt 0.079769 0.228170
vt 0.079769 0.228170
vt 0.079769 0.228170
vt 0.079769 0.228170
vt 0.079769 0.228170
vn 0.000000 -0.298749 -0.954332
vn 0.000000 -0.298749 -0.954332
vn 0.000000 -0.298749 -0.954332
vn 0.000000 -0.298749 -0.954332
vn 0.000000 0.677084 -0.735906
vn 0.000000 0.677084 -0.735906
vn 0.000000 0.677084 -0.735906
vn 0.000000 0.677084 -0.735906
vn 0.000000 0.975850 0.218442
vn 0.000000 0.975850 0.218442
vn 0.000000 0.975850 0.218442
vn 0.000000 0.975850 0.218442
vn 0.000000 0.298751 0.954331
vn 0.000000 0.298751 0.954331
vn 0.000000 0.298751 0.954331
vn 0.000000 0.298751 0.954331
vn 0.000000 -0.677084 0.735906
vn 0.000000 -0.677084 0.735906
vn 0.000000 -0.677084 0.735906
vn 0.000000 -0.677084 0.735906
vn 0.000000 -0.975851 -0.218437
vn 0.000000 -0.975851 -0.218437
vn 0.000000 -0.975851 -0.218437
vn 0.000000 -0.975851 -0.218437
vn -1.000000 0.000000 0.000000
vn -1.000000 0.000000 0.000000
vn -1.000000 0.000000 0.000000
vn -1.000000 0.000000 0.000000
vn -1.000000 0.000000 0.000000
vn -1.000000 0.000000 0.000000
vn -1.000000 0.000000 0.000000
vn -1.000000 0.000000 0.000000
vn -1.000000 0.000000 0.000000
vn -1.000000 0.000000 0.000000
vn -1.000000 0.000000 0.000000
vn -1.000000 0.000000 0.000000
vn -1.000000 0.000000 0.000000
vn -1.000000 0.000000 0.000000
vn -1.000000 0.000000 0.000000
vn -1.000000 0.000000 0.000000
vn -1.000000 0.000000 0.000000
vn -1.000000 0.000000 0.000000
vn 1.000000 0.000000 0.000000
vn 1.000000 0.000000 0.000000
vn 1.000000 0.000000 0.000000
vn 1.000000 0.000000 0.000000
vn 1.000000 0.000000 0.000000
vn 1.000000 0.000000 0.000000
vn 1.000000 0.000000 0.000000
vn 1.000000 0.000000 0.000000
vn 1.000000 0.000000 0.000000
vn 1.000000 0.000000 0.000000
vn 1.000000 0.000000 0.000000
vn 1.000000 0.000000 0.000000
vn 1.000000 0.000000 0.000000
vn 1.000000 0.000000 0.000000
vn 1.000000 0.000000 0.000000
vn 1.000000 -0.000000 0.000000
vn 1.000000 -0.000000 0.000000
vn 1.000000 -0.000000 0.000000
vn 0.000000 -0.298749 -0.954332
vn 0.000000 -0.298749 -0.954332
vn 0.000000 -0.298749 -0.954332
vn 0.000000 -0.298749 -0.954332
vn 0.000000 0.677084 -0.735906
vn 0.000000 0.677084 -0.735906
vn 0.000000 0.677084 -0.735906
vn 0.000000 0.677084 -0.735906
vn 0.000000 0.975850 0.218442
vn 0.000000 0.975850 0.218442
vn 0.000000 0.975850 0.218442
vn 0.000000 0.975850 0.218442
vn 0.000000 0.298751 0.954331
vn 0.000000 0.298751 0.954331
vn 0.000000 0.298751 0.954331
vn 0.000000 0.298751 0.954331
vn 0.000000 -0.677084 0.735906
vn 0.000000 -0.677084 0.735906
vn 0.000000 -0.677084 0.735906
vn 0.000000 -0.677084 0.735906
vn 0.000000 -0.975851 -0.218437
vn 0.000000 -0.975851 -0.218437
vn 0.000000 -0.975851 -0.218437
vn 0.000000 -0.975851 -0.218437
vn 0.413981 -0.888303 -0.198838
vn 0.413981 -0.888303 -0.198838
vn 0.413981 -0.888303 -0.198838
vn 0.413981 -0.888303 -0.198838
vn 0.413990 -0.616348 0.669871
vn 0.413990 -0.616348 0.669871
vn 0.413990 -0.616348 0.669871
vn 0.413990 -0.616348 0.669871
vn 0.413996 0.271955 0.868704
vn 0.413996 0.271955 0.868704
vn 0.413996 0.271955 0.868704
vn 0.413996 0.271955 0.868704
vn 0.413990 0.888299 0.198840
vn 0.413990 0.888299 0.198840
vn 0.413990 0.888299 0.198840
vn 0.413990 0.888299 0.198840
vn 0.413992 0.616345 -0.669873
vn 0.413992 0.616345 -0.669873
vn 0.413992 0.616345 -0.669873
vn 0.413992 0.616345 -0.669873
vn 0.413989 -0.271950 -0.868710
vn 0.413989 -0.271950 -0.868710
vn 0.413989 -0.271950 -0.868710
vn 0.413989 -0.271950 -0.868710
vn -0.413989 -0.271950 -0.868710
vn -0.413989 -0.271950 -0.868710
vn -0.413989 -0.271950 -0.868710
vn -0.413989 -0.271950 -0.868710
vn -0.413992 0.616345 -0.669873
vn -0.413992 0.616345 -0.669873
vn -0.413992 0.616345 -0.669873
vn -0.413992 0.616345 -0.669873
vn -0.413990 0.888299 0.198840
vn -0.413990 0.888299 0.198840
vn -0.413990 0.888299 0.198840
vn -0.413990 0.888299 0.198840
vn -0.413996 0.271955 0.868704
vn -0.413996 0.271955 0.868704
vn -0.413996 0.271955 0.868704
vn -0.413996 0.271955 0.868704
vn -0.413990 -0.616348 0.669871
vn -0.413990 -0.616348 0.669871
vn -0.413990 -0.616348 0.669871
vn -0.413990 -0.616348 0.669871
vn -0.413981 -0.888303 -0.198838
vn -0.413981 -0.888303 -0.198838
vn -0.413981 -0.888303 -0.198838
vn -0.413981 -0.888303 -0.198838
vn 0.000000 -0.298754 -0.954330
vn 0.000000 -0.298754 -0.954330
vn 0.000000 -0.298754 -0.954330
vn 0.000000 -0.298754 -0.954330
vn 0.000000 0.677093 -0.735897
vn 0.000000 0.677093 -0.735897
vn 0.000000 0.677093 -0.735897
vn 0.000000 0.677093 -0.735897
vn 0.000000 0.975852 0.218435
vn 0.000000 0.975852 0.218435
vn 0.000000 0.975852 0.218435
vn 0.000000 0.975852 0.218435
vn 0.000000 0.298763 0.954327
vn 0.000000 0.298763 0.954327
vn 0.000000 0.298763 0.954327
vn 0.000000 0.298763 0.954327
vn 0.000000 -0.677095 0.735896
vn 0.000000 -0.677095 0.735896
vn 0.000000 -0.677095 0.735896
vn 0.000000 -0.677095 0.735896
vn 0.000000 -0.975851 -0.218435
vn 0.000000 -0.975851 -0.218435
vn 0.000000 -0.975851 -0.218435
vn 0.000000 -0.975851 -0.218435
vn -1.000000 0.000000 0.000000
vn -1.000000 0.000000 0.000000
vn -1.000000 0.000000 0.000000
vn -1.000000 0.000000 0.000000
vn 1.000000 0.000000 0.000000
vn 1.000000 0.000000 0.000000
vn 1.000000 0.000000 0.000000
vn 1.000000 0.000000 0.000000
vn -1.000000 -0.000000 0.000000
vn -1.000000 -0.000000 0.000000
vn -1.000000 -0.000000 0.000000
vn -1.000000 -0.000000 0.000000
vn 1.000000 0.000000 0.000000
vn 1.000000 0.000000 0.000000
vn 1.000000 0.000000 0.000000
vn 1.000000 0.000000 0.000000
vn -1.000000 0.000000 0.000000
vn -1.000000 0.000000 0.000000
vn -1.000000 0.000000 0.000000
vn -1.000000 0.000000 0.000000
vn 1.000000 0.000000 0.000000
vn 1.000000 0.000000 0.000000
vn 1.000000 0.000000 0.000000
vn 1.000000 0.000000 0.000000
vn -1.000000 0.000000 0.000000
vn -1.000000 0.000000 0.000000
vn -1.000000 0.000000 0.000000
vn -1.000000 0.000000 0.000000
vn 1.000000 0.000000 0.000000
vn 1.000000 0.000000 0.000000
vn 1.000000 0.000000 0.000000
vn 1.000000 0.000000 0.000000
vn -1.000000 0.000000 0.000000
vn -1.000000 0.000000 0.000000
vn -1.000000 0.000000 0.000000
vn -1.000000 0.000000 0.000000
vn 1.000000 -0.000000 0.000000
vn 1.000000 -0.000000 0.000000
vn 1.000000 -0.000000 0.000000
vn 1.000000 -0.000000 0.000000
vn -1.000000 -0.000000 0.000000
vn -1.000000 -0.000000 0.000000
vn -1.000000 -0.000000 0.000000
vn -1.000000 -0.000000 0.000000
vn 1.000000 0.000000 0.000000
vn 1.000000 0.000000 0.000000
vn 1.000000 0.000000 0.000000
vn 1.000000 0.000000 0.000000
vn -1.000000 0.000000 0.000000
vn -1.000000 0.000000 0.000000
vn -1.000000 0.000000 0.000000
vn -1.000000 0.000000 0.000000
vn 1.000000 0.000000 0.000000
vn 1.000000 0.000000 0.000000
vn 1.000000 0.000000 0.000000
vn 1.000000 0.000000 0.000000
vn -1.000000 0.000001 0.000000
vn -1.000000 0.000001 0.000000
vn -1.000000 0.000001 0.000000
vn -1.000000 0.000001 0.000000
vn 1.000000 -0.000000 0.000000
vn 1.000000 -0.000000 0.000000
vn 1.000000 -0.000000 0.000000
vn 1.000000 -0.000000 0.000000
vn -1.000000 -0.000000 0.000000
vn -1.000000 -0.000000 0.000000
vn -1.000000 -0.000000 0.000000
vn -1.000000 -0.000000 0.000000
vn 1.000000 0.000000 0.000000
vn 1.000000 0.000000 0.000000
vn 1.000000 0.000000 0.000000
vn 1.000000 0.000000 0.000000
vn -1.000000 0.000000 0.000000
vn -1.000000 0.000000 0.000000
vn -1.000000 0.000000 0.000000
vn -1.000000 0.000000 0.000000
vn 1.000000 0.000000 0.000000
vn 1.000000 0.000000 0.000000
vn 1.000000 0.000000 0.000000
vn 1.000000 0.000000 0.000000
vn -1.000000 -0.000000 0.000000
vn -1.000000 -0.000000 0.000000
vn -1.000000 -0.000000 0.000000
vn -1.000000 -0.000000 0.000000
vn 1.000000 -0.000000 0.000000
vn 1.000000 -0.000000 0.000000
vn 1.000000 -0.000000 0.000000
vn 1.000000 -0.000000 0.000000
vn -1.000000 0.000000 0.000000
vn -1.000000 0.000000 0.000000
vn -1.000000 0.000000 0.000000
vn -1.000000 0.000000 0.000000
vn 1.000000 -0.000001 0.000000
vn 1.000000 -0.000001 0.000000
vn 1.000000 -0.000001 0.000000
vn 1.000000 -0.000001 0.000000
s off
f 39/1/1 40/2/2 41/3/3 42/4/4
f 40/2/5 43/5/6 44/6/7 41/3/8
f 43/5/9 45/7/10 46/8/11 44/6/12
f 45/7/13 47/9/14 48/10/15 46/8/16
f 47/9/17 49/11/18 50/12/19 48/10/20
f 49/11/21 39/13/22 42/14/23 50/12/24
f 2/15/25 1/16/26 13/17/27
f 3/18/28 2/15/29 13/17/30
f 4/19/31 3/18/32 13/17/33
f 5/20/34 4/19/35 13/17/36
f 6/21/37 5/20/38 13/17/39
f 1/16/40 6/21/41 13/17/42
f 7/22/43 8/23/44 14/24/45
f 8/23/46 9/25/47 14/24/48
f 9/25/49 10/26/50 14/24/51
f 10/26/52 11/27/53 14/24/54
f 11/27/55 12/28/56 14/24/57
f 12/28/58 7/22/59 14/24/60
f 51/29/61 52/30/62 53/31/63 54/32/64
f 52/30/65 55/33/66 56/34/67 53/31/68
f 55/33/69 57/35/70 58/36/71 56/34/72
f 57/35/73 59/37/74 60/38/75 58/36/76
f 59/37/77 61/39/78 62/40/79 60/38/80
f 61/39/81 51/41/82 54/42/83 62/40/84
f 16/43/85 15/44/86 7/22/87 12/28/88
f 17/45/89 16/43/90 12/28/91 11/27/92
f 18/46/93 17/45/94 11/27/95 10/26/96
f 19/47/97 18/46/98 10/26/99 9/25/100
f 20/48/101 19/47/102 9/25/103 8/23/104
f 15/44/105 20/48/106 8/23/107 7/22/108
f 1/16/109 2/15/110 22/49/111 21/50/112
f 2/15/113 3/18/114 23/51/115 22/49/116
f 3/18/117 4/19/118 24/52/119 23/51/120
f 4/19/121 5/20/122 25/53/123 24/52/124
f 5/20/125 6/21/126 26/54/127 25/53/128
f 6/21/129 1/16/130 21/50/131 26/54/132
f 34/55/133 33/56/134 27/57/135 32/58/136
f 35/59/137 34/55/138 32/58/139 31/60/140
f 36/61/141 35/59/142 31/60/143 30/62/144
f 37/63/145 36/61/146 30/62/147 29/64/148
f 38/65/149 37/63/150 29/64/151 28/66/152
f 33/56/153 38/65/154 28/66/155 27/57/156
f 33/67/157 34/68/158 40/2/159 39/1/160
f 20/69/161 15/70/162 42/4/163 41/3/164
f 34/68/165 35/71/166 43/5/167 40/2/168
f 19/72/169 20/69/170 41/3/171 44/6/172
f 35/71/173 36/73/174 45/7/175 43/5/176
f 18/74/177 19/72/178 44/6/179 46/8/180
f 36/73/181 37/75/182 47/9/183 45/7/184
f 17/76/185 18/74/186 46/8/187 48/10/188
f 37/75/189 38/77/190 49/11/191 47/9/192
f 16/78/193 17/76/194 48/10/195 50/12/196
f 38/77/197 33/79/198 39/13/199 49/11/200
f 15/80/201 16/78/202 50/12/203 42/14/204
f 21/81/205 22/82/206 52/30/207 51/29/208
f 32/83/209 27/84/210 54/32/211 53/31/212
f 22/82/213 23/85/214 55/33/215 52/30/216
f 31/86/217 32/83/218 53/31/219 56/34/220
f 23/85/221 24/87/222 57/35/223 55/33/224
f 30/88/225 31/86/226 56/34/227 58/36/228
f 24/87/229 25/89/230 59/37/231 57/35/232
f 29/90/233 30/88/234 58/36/235 60/38/236
f 25/89/237 26/91/238 61/39/239 59/37/240
f 28/92/241 29/90/242 60/38/243 62/40/244
f 26/91/245 21/93/246 51/41/247 61/39/248
f 27/94/249 28/92/250 62/40/251 54/42/252
