# This file uses centimeters as units for non-parametric coordinates.

v -0.271034 -0.873690 -0.533112
v -0.271034 -0.854120 0.034890
v 0.270958 -0.873690 -0.533115
v 0.270958 -0.854120 0.034878
v -0.271034 -0.393028 -0.770691
v -0.271034 -0.393028 0.414666
v 0.270958 -0.393028 0.414666
v 0.270958 -0.393028 -0.770695
v -0.271034 1.319236 -0.351459
v -0.271034 1.319236 1.047566
v 0.270958 1.319236 1.047562
v 0.270958 1.319236 -0.351459
v 0.236168 -1.938309 -0.286468
v 0.236168 -1.806664 -0.043006
v -0.236244 -1.806664 -0.043006
v -0.236244 -1.938309 -0.286468
v 0.214195 -2.499527 0.346886
v 0.214195 -2.405304 0.476231
v -0.214272 -2.405304 0.476239
v -0.214272 -2.499527 0.346890
vt 0.090271 0.253986
vt 0.090271 0.253986
vt 0.090271 0.253986
vt 0.090271 0.253986
vt 0.090271 0.253986
vt 0.090271 0.253986
vt 0.090271 0.253986
vt 0.090271 0.253986
vt 0.090271 0.253986
vt 0.090271 0.253986
vt 0.090271 0.253986
vt 0.090271 0.253986
vt 0.090271 0.253986
vt 0.090271 0.253986
vt 0.090271 0.253986
vt 0.090271 0.253986
vt 0.090271 0.253986
vt 0.090271 0.253986
vt 0.090271 0.253986
vt 0.090271 0.253986
vn -1.000000 0.000000 -0.000000
vn -1.000000 0.000000 -0.000000
vn -0.998586 -0.049516 0.019343
vn -0.998586 -0.049516 0.019343
vn 0.000000 1.000000 0.000000
vn 0.000000 1.000000 0.000000
vn 0.000000 1.000000 0.000000
vn 0.000000 1.000000 0.000000
vn 1.000000 0.000000 0.000000
vn 1.000000 0.000000 0.000000
vn 0.998586 -0.049516 0.019343
vn 0.998586 -0.049516 0.019343
vn 0.000010 -0.808277 0.588803
vn 0.000010 -0.808277 0.588803
vn 0.000010 -0.808277 0.588803
vn 0.000010 -0.808277 0.588803
vn 0.000013 -0.093992 0.995573
vn 0.000013 -0.093992 0.995573
vn 0.000005 0.220468 0.975394
vn 0.000005 0.220468 0.975394
vn -0.000008 -0.147403 -0.989077
vn -0.000008 -0.147403 -0.989077
vn -0.000004 -0.422539 -0.906345
vn -0.000004 -0.422539 -0.906345
vn -1.000000 0.000000 -0.000000
vn -1.000000 0.000000 -0.000000
vn -1.000000 0.000000 -0.000000
vn -1.000000 0.000000 -0.000000
vn 0.000007 -0.635766 0.771882
vn 0.000007 -0.635766 0.771882
vn 0.000007 -0.635766 0.771882
vn 0.000007 -0.635766 0.771882
vn 1.000000 0.000000 0.000000
vn 1.000000 0.000000 0.000000
vn 1.000000 -0.000000 0.000000
vn 1.000000 -0.000000 0.000000
vn -0.000009 0.103926 -0.994585
vn -0.000009 0.103926 -0.994585
vn -0.000009 0.103926 -0.994585
vn -0.000009 0.103926 -0.994585
vn -1.000000 0.000000 -0.000000
vn -1.000000 0.000000 -0.000000
vn -1.000000 -0.000000 -0.000000
vn -1.000000 -0.000000 -0.000000
vn 0.000007 -0.635766 0.771882
vn 0.000007 -0.635766 0.771882
vn 0.000004 -0.682252 0.731117
vn 0.000004 -0.682252 0.731117
vn 1.000000 -0.000000 0.000000
vn 1.000000 -0.000000 0.000000
vn 1.000000 0.000000 0.000000
vn 1.000000 0.000000 0.000000
vn -0.000004 0.190242 -0.981737
vn -0.000004 0.190242 -0.981737
vn -0.000004 0.190242 -0.981737
vn -0.000004 0.190242 -0.981737
vn -0.998586 -0.049516 0.019343
vn -0.998586 -0.049516 0.019343
vn -0.999618 -0.023641 0.014323
vn -0.999618 -0.023641 0.014323
vn -0.000003 -0.748446 -0.663196
vn -0.000003 -0.748446 -0.663196
vn -0.000003 -0.748446 -0.663196
vn -0.000003 -0.748446 -0.663196
vn 0.998586 -0.049516 0.019343
vn 0.999618 -0.023641 0.014323
vn 0.999618 -0.023641 0.014323
vn 0.998586 -0.049516 0.019343
vn 0.000008 0.655232 0.755428
vn 0.000008 0.655232 0.755428
vn 0.000008 0.655232 0.755428
vn 0.000008 0.655232 0.755428
s off
f 2/1/1 1/2/2 16/20/3 15/19/4
f 9/3/5 10/4/6 11/5/7 12/6/8
f 3/7/9 4/8/10 14/17/11 13/18/12
f 17/9/13 18/10/14 19/11/15 20/12/16
f 4/8/17 2/1/18 15/19/19 14/17/20
f 1/2/21 3/7/22 13/18/23 16/20/24
f 1/2/25 2/1/26 6/13/27 5/14/28
f 2/1/29 4/8/30 7/15/31 6/13/32
f 4/8/33 3/7/34 8/16/35 7/15/36
f 3/7/37 1/2/38 5/14/39 8/16/40
f 5/14/41 6/13/42 10/4/43 9/3/44
f 6/13/45 7/15/46 11/5/47 10/4/48
f 7/15/49 8/16/50 12/6/51 11/5/52
f 8/16/53 5/14/54 9/3/55 12/6/56
f 15/19/57 16/20/58 20/12/59 19/11/60
f 16/20/61 13/18/62 17/9/63 20/12/64
f 14/17/65 18/10/66 17/9/67 13/18/68
f 15/19/69 19/11/70 18/10/71 14/17/72
