# This file uses centimeters as units for non-parametric coordinates.

v 0.359048 -0.740047 17.004759
v 0.803444 -0.332821 17.004759
v 0.829737 0.269352 17.004759
v 0.422519 0.713749 17.004759
v -0.179662 0.740055 17.004759
v -0.624062 0.332829 17.004759
v -0.650355 -0.269344 17.004759
v -0.243137 -0.713741 17.004759
v 0.359048 -0.740047 25.317884
v 0.803447 -0.332821 25.317884
v 0.829740 0.269352 25.317884
v 0.422523 0.713749 25.317884
v -0.179665 0.740055 25.317884
v -0.624058 0.332829 25.317884
v -0.650351 -0.269344 25.317884
v -0.243133 -0.713741 25.317884
v 0.395676 -0.694729 18.909880
v 0.755403 -0.373989 18.909880
v 0.755399 -0.373989 24.214277
v 0.395673 -0.694729 24.214277
v 0.790545 0.322972 18.909880
v 0.452319 0.672978 18.909880
v 0.452322 0.672978 24.214277
v 0.790549 0.322972 24.214277
v -0.216332 0.694401 18.909880
v -0.571001 0.374180 18.909880
v -0.570998 0.374180 24.214277
v -0.216336 0.694401 24.214277
v -0.598935 -0.302608 18.909880
v -0.297736 -0.648403 18.909880
v -0.297736 -0.648403 24.214277
v -0.598931 -0.302608 24.214277
v 1.475447 -0.646175 17.004759
v 1.526494 0.522953 17.004759
v 1.526490 0.522953 25.317884
v 1.475447 -0.646175 25.317884
v 0.735879 1.385777 17.004759
v -0.433260 1.436802 17.004759
v -0.433257 1.436802 25.317884
v 0.735879 1.385777 25.317884
v -1.296061 0.646183 17.004759
v -1.347108 -0.522945 17.004759
v -1.347108 -0.522945 25.317884
v -1.296064 0.646183 25.317884
v -0.556497 -1.385738 17.004759
v 0.612643 -1.436794 17.004759
v 0.612646 -1.436794 25.317884
v -0.556497 -1.385738 25.317884
v 1.343628 -0.835323 18.909880
v 0.799576 -1.320400 18.909880
v 1.343628 -0.835323 24.214277
v 0.799580 -1.320400 24.214277
v 0.907807 1.264958 18.909880
v 1.419342 0.735600 18.909880
v 0.907807 1.264958 24.214277
v 1.419346 0.735600 24.214277
v -1.156660 0.835575 18.909880
v -0.620258 1.319889 18.909880
v -1.156660 0.835575 24.214277
v -0.620258 1.319889 24.214277
v -0.765938 -1.227810 18.909880
v -1.221467 -0.704769 18.909880
v -0.765938 -1.227810 24.214277
v -1.221467 -0.704769 24.214277
v 0.576538 0.998600 -0.000002
v -0.576538 0.998600 -0.000002
v -1.153076 0.000004 -0.000002
v -0.576538 -0.998592 -0.000002
v 0.576538 -0.998592 -0.000002
v 1.153076 0.000004 -0.000002
v 0.576538 0.998600 18.313749
v -0.576538 0.998600 18.313749
v -1.153076 0.000004 18.313749
v -0.576538 -0.998592 18.313749
v 0.576538 -0.998592 18.313749
v 1.153076 0.000004 18.313749
v 0.000000 0.000004 -0.000002
v 0.339744 0.588444 18.313749
v -0.339744 0.588444 18.313749
v 0.000000 0.000004 17.487257
v -0.679488 0.000004 18.313749
v -0.339744 -0.588466 18.313749
v 0.339744 -0.588466 18.313749
v 0.679488 0.000004 18.313749
vt 0.091277 0.228265
vt 0.091277 0.228265
vt 0.091277 0.228265
vt 0.091277 0.228265
vt 0.091277 0.228265
vt 0.091277 0.228265
vt 0.091277 0.228265
vt 0.091277 0.228265
vt 0.091277 0.228265
vt 0.091277 0.228265
vt 0.091277 0.228265
vt 0.091277 0.228265
vt 0.091277 0.228265
vt 0.091277 0.228265
vt 0.091277 0.228265
vt 0.091277 0.228265
vt 0.091277 0.228265
vt 0.091277 0.228265
vt 0.091277 0.228265
vt 0.091277 0.228265
vt 0.091277 0.228265
vt 0.091277 0.228265
vt 0.091277 0.228265
vt 0.091277 0.228265
vt 0.091277 0.228265
vt 0.091277 0.228265
vt 0.091277 0.228265
vt 0.091277 0.228265
vt 0.091277 0.228265
vt 0.091277 0.228265
vt 0.091277 0.228265
vt 0.091277 0.228265
vt 0.091277 0.228265
vt 0.091277 0.228265
vt 0.091277 0.228265
vt 0.091277 0.228265
vt 0.091277 0.228265
vt 0.091277 0.228265
vt 0.091277 0.228265
vt 0.091277 0.228265
vt 0.091277 0.228265
vt 0.091277 0.228265
vt 0.091277 0.228265
vt 0.091277 0.228265
vt 0.091277 0.228265
vt 0.091277 0.228265
vt 0.091277 0.228265
vt 0.091277 0.228265
vt 0.091277 0.228265
vt 0.091277 0.228265
vt 0.091277 0.228265
vt 0.091277 0.228265
vt 0.091277 0.228265
vt 0.091277 0.228265
vt 0.091277 0.228265
vt 0.091277 0.228265
vt 0.091277 0.228265
vt 0.091277 0.228265
vt 0.091277 0.228265
vt 0.091277 0.228265
vt 0.091277 0.228265
vt 0.091277 0.228265
vt 0.091277 0.228265
vt 0.091277 0.228265
vt 0.091277 0.228265
vt 0.091277 0.228265
vt 0.091277 0.228265
vt 0.091277 0.228265
vt 0.091277 0.228265
vt 0.091277 0.228265
vt 0.091277 0.228265
vt 0.091277 0.228265
vt 0.091277 0.228265
vt 0.091277 0.228265
vt 0.091277 0.228265
vt 0.091277 0.228265
vt 0.091277 0.228265
vt 0.091277 0.228265
vt 0.091277 0.228265
vt 0.091277 0.228265
vt 0.091277 0.228265
vt 0.091277 0.228265
vt 0.091277 0.228265
vt 0.091277 0.228265
vt 0.091277 0.228265
vt 0.091277 0.228265
vt 0.091277 0.228265
vt 0.091277 0.228265
vt 0.091277 0.228265
vt 0.091277 0.228265
vt 0.091277 0.228265
vt 0.091277 0.228265
vt 0.091277 0.228265
vt 0.091277 0.228265
vt 0.091277 0.228265
vt 0.091277 0.228265
vt 0.091277 0.228265
vt 0.091277 0.228265
vt 0.091277 0.228265
vt 0.091277 0.228265
vt 0.091277 0.228265
vt 0.091277 0.228265
vt 0.090428 0.231458
vt 0.090428 0.231458
vt 0.090428 0.231458
vt 0.090428 0.231458
vt 0.090428 0.231458
vt 0.090428 0.231458
vt 0.090428 0.231458
vt 0.090428 0.231458
vt 0.090428 0.231458
vt 0.090428 0.231458
vt 0.090428 0.231458
vt 0.090428 0.231458
vt 0.090428 0.231458
vt 0.090428 0.231458
vt 0.090428 0.231458
vt 0.090428 0.231458
vt 0.090428 0.231458
vt 0.090428 0.231458
vt 0.090428 0.231458
vt 0.090428 0.231458
vt 0.090428 0.231458
vt 0.090428 0.231458
vt 0.090428 0.231458
vt 0.010834 0.012329
vt 0.090428 0.231458
vt 0.090428 0.231458
vt 0.090428 0.231458
vt 0.090428 0.231458
vt 0.090428 0.231458
vt 0.090428 0.231458
vt 0.090428 0.231458
vt 0.090428 0.231458
vt 0.090428 0.231458
vt 0.090428 0.231458
vt 0.010834 0.012329
vt 0.010834 0.012329
vt 0.010834 0.012329
vt 0.010834 0.012329
vt 0.010834 0.012329
vt 0.010834 0.012329
vn 0.999048 -0.043619 0.000000
vn 0.999048 -0.043619 0.000000
vn 0.999048 -0.043619 0.000000
vn 0.999048 -0.043619 0.000000
vn 0.043602 0.999049 -0.000000
vn 0.043602 0.999049 -0.000000
vn 0.043602 0.999049 -0.000000
vn 0.043602 0.999049 -0.000000
vn -0.999048 0.043619 -0.000000
vn -0.999048 0.043619 -0.000000
vn -0.999048 0.043619 -0.000000
vn -0.999048 0.043619 -0.000000
vn -0.043628 -0.999048 0.000000
vn -0.043628 -0.999048 0.000000
vn -0.043628 -0.999048 0.000000
vn -0.043628 -0.999048 0.000000
vn 0.671540 -0.740584 -0.023855
vn 0.671540 -0.740584 -0.023855
vn 0.671540 -0.740584 -0.023855
vn 0.671540 -0.740584 -0.023855
vn 0.820422 -0.571758 0.000000
vn 0.820422 -0.571759 0.000000
vn 0.820422 -0.571759 0.000000
vn 0.820422 -0.571759 0.000000
vn 0.671164 -0.740165 0.041156
vn 0.671164 -0.740165 0.041156
vn 0.671164 -0.740165 0.041156
vn 0.671164 -0.740165 0.041156
vn 0.528565 -0.848893 -0.000000
vn 0.528565 -0.848893 -0.000000
vn 0.528565 -0.848893 -0.000000
vn 0.528565 -0.848893 -0.000000
vn 0.730023 0.682813 -0.028867
vn 0.730023 0.682813 -0.028867
vn 0.730023 0.682813 -0.028867
vn 0.730023 0.682813 -0.028867
vn 0.574961 0.818181 0.000000
vn 0.574961 0.818181 0.000000
vn 0.574961 0.818181 0.000000
vn 0.574961 0.818181 0.000000
vn 0.729421 0.682250 0.049793
vn 0.729421 0.682250 0.049793
vn 0.729421 0.682250 0.049793
vn 0.729421 0.682250 0.049793
vn 0.893039 0.449980 -0.000000
vn 0.893039 0.449980 -0.000000
vn 0.893039 0.449980 -0.000000
vn 0.893038 0.449980 -0.000000
vn -0.673350 0.738983 -0.022468
vn -0.673350 0.738983 -0.022468
vn -0.673350 0.738983 -0.022468
vn -0.673350 0.738982 -0.022468
vn -0.805360 0.592786 -0.000000
vn -0.805360 0.592786 -0.000000
vn -0.805360 0.592786 -0.000000
vn -0.805360 0.592786 -0.000000
vn -0.673011 0.738616 0.038767
vn -0.673011 0.738616 0.038767
vn -0.673011 0.738616 0.038767
vn -0.673011 0.738616 0.038767
vn -0.530124 0.847920 0.000000
vn -0.530124 0.847920 0.000000
vn -0.530124 0.847920 0.000000
vn -0.530124 0.847920 0.000000
vn -0.743433 -0.668494 -0.020543
vn -0.743433 -0.668495 -0.020543
vn -0.743433 -0.668494 -0.020543
vn -0.743433 -0.668495 -0.020543
vn -0.602066 -0.798446 0.000000
vn -0.602066 -0.798446 0.000000
vn -0.602066 -0.798446 0.000000
vn -0.602066 -0.798446 0.000000
vn -0.743123 -0.668215 0.035448
vn -0.743123 -0.668215 0.035448
vn -0.743123 -0.668215 0.035448
vn -0.743123 -0.668215 0.035448
vn -0.822695 -0.568483 0.000000
vn -0.822695 -0.568483 0.000000
vn -0.822695 -0.568483 0.000000
vn -0.822695 -0.568483 0.000000
vn -0.999048 0.043622 0.000000
vn -0.999048 0.043622 0.000000
vn -0.999048 0.043622 0.000000
vn -0.999048 0.043622 0.000000
vn -0.043643 -0.999047 0.000000
vn -0.043643 -0.999047 0.000000
vn -0.043643 -0.999047 0.000000
vn -0.043643 -0.999047 0.000000
vn 0.999048 -0.043622 -0.000000
vn 0.999048 -0.043622 -0.000000
vn 0.999048 -0.043622 -0.000000
vn 0.999048 -0.043622 -0.000000
vn 0.043643 0.999047 0.000000
vn 0.043643 0.999047 0.000000
vn 0.043643 0.999047 0.000000
vn 0.043643 0.999047 0.000000
vn -0.671127 0.741337 -0.002818
vn -0.671127 0.741337 -0.002818
vn -0.671127 0.741337 -0.002818
vn -0.671127 0.741337 -0.002818
vn -0.650675 0.759356 -0.000000
vn -0.650675 0.759356 -0.000000
vn -0.650675 0.759356 -0.000000
vn -0.650675 0.759356 -0.000000
vn -0.671120 0.741333 0.004867
vn -0.671120 0.741333 0.004867
vn -0.671120 0.741333 0.004867
vn -0.671120 0.741333 0.004867
vn -0.777743 0.628582 -0.000000
vn -0.777743 0.628582 -0.000000
vn -0.777743 0.628582 -0.000000
vn -0.777743 0.628582 -0.000000
vn -0.729220 -0.684279 0.000510
vn -0.729220 -0.684279 0.000510
vn -0.729220 -0.684279 0.000510
vn -0.729220 -0.684279 0.000510
vn -0.807344 -0.590081 0.000000
vn -0.807344 -0.590081 0.000000
vn -0.807344 -0.590081 0.000000
vn -0.807344 -0.590081 0.000000
vn -0.729221 -0.684278 -0.000880
vn -0.729221 -0.684278 -0.000880
vn -0.729221 -0.684278 -0.000880
vn -0.729221 -0.684278 -0.000880
vn -0.807333 -0.590096 0.000000
vn -0.807333 -0.590096 0.000000
vn -0.807333 -0.590096 0.000000
vn -0.807333 -0.590096 0.000000
vn 0.673185 -0.739464 -0.003731
vn 0.673185 -0.739464 -0.003731
vn 0.673186 -0.739464 -0.003731
vn 0.673185 -0.739464 -0.003731
vn 0.614704 -0.788758 -0.000000
vn 0.614704 -0.788758 -0.000000
vn 0.614704 -0.788758 -0.000000
vn 0.614704 -0.788758 -0.000000
vn 0.673183 -0.739448 0.006440
vn 0.673183 -0.739448 0.006440
vn 0.673183 -0.739448 0.006440
vn 0.673183 -0.739448 0.006440
vn 0.779646 -0.626220 0.000000
vn 0.779646 -0.626220 0.000000
vn 0.779646 -0.626220 0.000000
vn 0.779646 -0.626220 0.000000
vn 0.744574 0.667521 -0.004998
vn 0.744574 0.667521 -0.004998
vn 0.744574 0.667521 -0.004998
vn 0.744574 0.667521 -0.004998
vn 0.767340 0.641241 -0.000000
vn 0.767340 0.641241 -0.000000
vn 0.767340 0.641241 -0.000000
vn 0.767340 0.641241 -0.000000
vn 0.744558 0.667503 0.008626
vn 0.744558 0.667503 0.008626
vn 0.744558 0.667503 0.008626
vn 0.744558 0.667503 0.008626
vn 0.543169 0.839624 -0.000000
vn 0.543169 0.839624 -0.000000
vn 0.543169 0.839624 -0.000000
vn 0.543169 0.839624 -0.000000
vn 0.000001 0.000000 -1.000000
vn 0.000001 0.000000 -1.000000
vn 0.000001 0.000000 -1.000000
vn 0.000001 0.000000 -1.000000
vn 0.000000 0.000000 1.000000
vn 0.000000 0.000000 1.000000
vn 0.000000 0.000000 1.000000
vn 0.000000 0.000000 1.000000
vn 0.000000 0.000000 -1.000000
vn 0.000000 0.000000 -1.000000
vn 0.000000 0.000000 -1.000000
vn 0.000000 0.000000 -1.000000
vn 0.000000 0.000000 1.000000
vn 0.000000 0.000000 1.000000
vn 0.000000 0.000000 1.000000
vn 0.000000 0.000000 1.000000
vn -0.000001 0.000000 -1.000000
vn -0.000001 0.000000 -1.000000
vn -0.000001 0.000000 -1.000000
vn -0.000001 0.000000 -1.000000
vn 0.000000 0.000000 1.000000
vn 0.000000 0.000000 1.000000
vn 0.000000 0.000000 1.000000
vn 0.000000 0.000000 1.000000
vn 0.000000 0.000000 -1.000000
vn 0.000000 0.000000 -1.000000
vn 0.000000 0.000000 -1.000000
vn 0.000000 0.000000 -1.000000
vn 0.000000 0.000000 1.000000
vn 0.000000 0.000000 1.000000
vn 0.000000 0.000000 1.000000
vn 0.000000 0.000000 1.000000
vn -0.000002 0.000000 -1.000000
vn -0.000002 0.000000 -1.000000
vn -0.000002 0.000000 -1.000000
vn -0.000002 0.000000 -1.000000
vn 0.000000 0.000000 1.000000
vn 0.000000 0.000000 1.000000
vn 0.000000 0.000000 1.000000
vn 0.000000 0.000000 1.000000
vn -0.617123 -0.786867 -0.000000
vn -0.617123 -0.786867 -0.000000
vn -0.617123 -0.786867 -0.000000
vn -0.617123 -0.786867 -0.000000
vn 0.000002 0.000000 1.000000
vn 0.000002 0.000000 1.000000
vn 0.000002 0.000000 1.000000
vn 0.000002 0.000000 1.000000
vn 0.000000 0.000000 -1.000000
vn 0.000000 0.000000 -1.000000
vn 0.000000 0.000000 -1.000000
vn 0.000000 0.000000 -1.000000
vn 0.840147 0.542358 -0.000000
vn 0.840147 0.542358 -0.000000
vn 0.840147 0.542358 -0.000000
vn 0.840147 0.542358 -0.000000
vn 0.000001 0.000000 -1.000000
vn 0.000001 0.000000 -1.000000
vn 0.000001 0.000000 -1.000000
vn 0.000001 0.000000 -1.000000
vn -0.000002 0.000000 1.000000
vn -0.000002 0.000000 1.000000
vn -0.000002 0.000000 1.000000
vn -0.000002 0.000000 1.000000
vn 0.792548 -0.609809 -0.000000
vn 0.792548 -0.609809 -0.000000
vn 0.792548 -0.609809 -0.000000
vn 0.792548 -0.609809 -0.000000
vn 0.000000 0.000000 1.000000
vn 0.000000 0.000000 1.000000
vn 0.000000 0.000000 1.000000
vn 0.000000 0.000000 1.000000
vn -0.000002 0.000000 -1.000000
vn -0.000002 0.000000 -1.000000
vn -0.000002 0.000000 -1.000000
vn -0.000002 0.000000 -1.000000
vn -0.548638 0.836060 0.000000
vn -0.548638 0.836060 0.000000
vn -0.548638 0.836060 0.000000
vn -0.548638 0.836060 0.000000
vn 0.000002 0.000000 -1.000000
vn 0.000002 0.000000 -1.000000
vn 0.000002 0.000000 -1.000000
vn 0.000002 0.000000 -1.000000
vn 0.000000 0.000000 1.000000
vn 0.000000 0.000000 1.000000
vn 0.000000 0.000000 1.000000
vn 0.000000 0.000000 1.000000
vn 0.618844 0.785514 -0.000000
vn 0.618844 0.785514 -0.000000
vn 0.618844 0.785514 -0.000000
vn 0.618844 0.785514 -0.000000
vn -0.000002 0.000000 1.000000
vn -0.000002 0.000000 1.000000
vn -0.000002 0.000000 1.000000
vn -0.000002 0.000000 1.000000
vn -0.000002 0.000000 -1.000000
vn -0.000002 0.000000 -1.000000
vn -0.000002 0.000000 -1.000000
vn -0.000002 0.000000 -1.000000
vn -0.840062 -0.542490 -0.000000
vn -0.840062 -0.542490 -0.000000
vn -0.840062 -0.542490 -0.000000
vn -0.840062 -0.542490 -0.000000
vn -0.000001 0.000000 -1.000000
vn -0.000001 0.000000 -1.000000
vn -0.000001 0.000000 -1.000000
vn -0.000001 0.000000 -1.000000
vn 0.000002 0.000000 1.000000
vn 0.000002 0.000000 1.000000
vn 0.000002 0.000000 1.000000
vn 0.000002 0.000000 1.000000
vn -0.777797 0.628515 0.000000
vn -0.777797 0.628515 0.000000
vn -0.777797 0.628515 0.000000
vn -0.777797 0.628515 0.000000
vn 0.000003 0.000000 1.000000
vn 0.000003 0.000000 1.000000
vn 0.000003 0.000000 1.000000
vn 0.000003 0.000000 1.000000
vn 0.000000 0.000000 -1.000000
vn 0.000000 0.000000 -1.000000
vn 0.000000 0.000000 -1.000000
vn 0.000000 0.000000 -1.000000
vn 0.542628 -0.839973 -0.000000
vn 0.542628 -0.839973 -0.000000
vn 0.542628 -0.839973 -0.000000
vn 0.542628 -0.839973 -0.000000
vn 0.000000 1.000000 0.000000
vn 0.000000 1.000000 0.000000
vn 0.000000 1.000000 0.000000
vn 0.000000 1.000000 0.000000
vn -0.866026 0.499999 0.000000
vn -0.866026 0.499999 0.000000
vn -0.866026 0.499999 0.000000
vn -0.866026 0.499999 0.000000
vn -0.866026 -0.499999 0.000000
vn -0.866026 -0.499999 0.000000
vn -0.866026 -0.499999 0.000000
vn -0.866026 -0.499999 0.000000
vn 0.000000 -1.000000 0.000000
vn 0.000000 -1.000000 0.000000
vn 0.000000 -1.000000 0.000000
vn 0.000000 -1.000000 0.000000
vn 0.866026 -0.499999 0.000000
vn 0.866026 -0.499999 0.000000
vn 0.866026 -0.499999 0.000000
vn 0.866026 -0.499999 0.000000
vn 0.866026 0.499999 0.000000
vn 0.866026 0.499999 0.000000
vn 0.866026 0.499999 0.000000
vn 0.866026 0.499999 0.000000
vn 0.000000 0.000000 -1.000000
vn 0.000000 0.000000 -1.000000
vn 0.000000 0.000000 -1.000000
vn 0.000000 0.000000 -1.000000
vn 0.000000 0.000000 -1.000000
vn 0.000000 0.000000 -1.000000
vn 0.000000 0.000000 -1.000000
vn 0.000000 0.000000 -1.000000
vn 0.000000 0.000000 -1.000000
vn 0.000000 0.000000 -1.000000
vn 0.000000 0.000000 -1.000000
vn 0.000000 0.000000 -1.000000
vn 0.000000 0.000000 -1.000000
vn 0.000000 0.000000 -1.000000
vn 0.000000 0.000000 -1.000000
vn 0.000000 0.000000 -1.000000
vn 0.000000 0.000000 -1.000000
vn 0.000000 0.000000 -1.000000
vn 0.000000 -0.814624 0.579990
vn 0.000000 -0.814624 0.579990
vn 0.000000 -0.814624 0.579990
vn 0.705477 -0.407317 0.579996
vn 0.705477 -0.407317 0.579996
vn 0.705477 -0.407317 0.579996
vn 0.705483 0.407299 0.580002
vn 0.705483 0.407299 0.580002
vn 0.705483 0.407299 0.580002
vn 0.000000 0.814610 0.580010
vn 0.000000 0.814610 0.580010
vn 0.000000 0.814609 0.580010
vn -0.705483 0.407299 0.580002
vn -0.705483 0.407299 0.580002
vn -0.705483 0.407299 0.580002
vn -0.705477 -0.407316 0.579996
vn -0.705477 -0.407316 0.579996
vn -0.705477 -0.407316 0.579996
vn 0.000000 0.000000 1.000000
vn 0.000000 0.000000 1.000000
vn 0.000000 0.000000 1.000000
vn 0.000000 0.000000 1.000000
vn -0.000001 0.000000 1.000000
vn -0.000001 0.000000 1.000000
vn -0.000001 0.000000 1.000000
vn -0.000001 0.000000 1.000000
vn -0.000003 0.000000 1.000000
vn -0.000003 0.000000 1.000000
vn -0.000003 0.000000 1.000000
vn -0.000003 0.000000 1.000000
vn 0.000000 0.000000 1.000000
vn 0.000000 0.000000 1.000000
vn 0.000000 0.000000 1.000000
vn 0.000000 0.000000 1.000000
vn 0.000001 0.000000 1.000000
vn 0.000001 0.000000 1.000000
vn 0.000001 0.000000 1.000000
vn 0.000001 0.000000 1.000000
vn 0.000003 0.000000 1.000000
vn 0.000003 0.000000 1.000000
vn 0.000003 0.000000 1.000000
vn 0.000003 0.000000 1.000000
s off
f 33/1/1 34/2/2 35/3/3 36/4/4
f 37/5/5 38/6/6 39/7/7 40/8/8
f 41/9/9 42/10/10 43/11/11 44/12/12
f 45/13/13 46/14/14 47/15/15 48/16/16
f 46/17/17 33/1/18 49/18/19 50/19/20
f 33/1/21 36/4/22 51/20/23 49/18/24
f 36/4/25 47/21/26 52/22/27 51/20/28
f 47/21/29 46/17/30 50/19/31 52/22/32
f 34/2/33 37/5/34 53/23/35 54/24/36
f 37/5/37 40/8/38 55/25/39 53/23/40
f 40/8/41 35/3/42 56/26/43 55/25/44
f 35/3/45 34/2/46 54/24/47 56/26/48
f 38/6/49 41/9/50 57/27/51 58/28/52
f 41/9/53 44/12/54 59/29/55 57/27/56
f 44/12/57 39/7/58 60/30/59 59/29/60
f 39/7/61 38/6/62 58/28/63 60/30/64
f 42/10/65 45/13/66 61/31/67 62/32/68
f 45/13/69 48/16/70 63/33/71 61/31/72
f 48/16/73 43/11/74 64/34/75 63/33/76
f 43/11/77 42/10/78 62/32/79 64/34/80
f 2/35/81 10/36/82 11/37/83 3/38/84
f 4/39/85 12/40/86 13/41/87 5/42/88
f 6/43/89 14/44/90 15/45/91 7/46/92
f 8/47/93 16/48/94 9/49/95 1/50/96
f 1/51/97 17/52/98 18/53/99 2/35/100
f 2/35/101 18/53/102 19/54/103 10/36/104
f 10/36/105 19/54/106 20/55/107 9/56/108
f 9/56/109 20/55/110 17/52/111 1/51/112
f 3/38/113 21/57/114 22/58/115 4/39/116
f 4/39/117 22/58/118 23/59/119 12/40/120
f 12/40/121 23/59/122 24/60/123 11/37/124
f 11/37/125 24/60/126 21/57/127 3/38/128
f 5/42/129 25/61/130 26/62/131 6/43/132
f 6/43/133 26/62/134 27/63/135 14/44/136
f 14/44/137 27/63/138 28/64/139 13/41/140
f 13/41/141 28/64/142 25/61/143 5/42/144
f 7/46/145 29/65/146 30/66/147 8/47/148
f 8/47/149 30/66/150 31/67/151 16/48/152
f 16/48/153 31/67/154 32/68/155 15/45/156
f 15/45/157 32/68/158 29/65/159 7/46/160
f 2/69/161 3/70/162 34/2/163 33/1/164
f 11/71/165 10/72/166 36/4/167 35/3/168
f 4/73/169 5/74/170 38/6/171 37/5/172
f 13/75/173 12/76/174 40/8/175 39/7/176
f 6/77/177 7/78/178 42/10/179 41/9/180
f 15/79/181 14/80/182 44/12/183 43/11/184
f 8/81/185 1/82/186 46/14/187 45/13/188
f 9/83/189 16/84/190 48/16/191 47/15/192
f 1/85/193 2/69/194 33/1/195 46/17/196
f 18/86/197 17/87/198 50/19/199 49/18/200
f 19/88/201 18/86/202 49/18/203 51/20/204
f 10/72/205 9/89/206 47/21/207 36/4/208
f 20/90/209 19/88/210 51/20/211 52/22/212
f 17/87/213 20/90/214 52/22/215 50/19/216
f 3/70/217 4/73/218 37/5/219 34/2/220
f 22/91/221 21/92/222 54/24/223 53/23/224
f 23/93/225 22/91/226 53/23/227 55/25/228
f 12/76/229 11/71/230 35/3/231 40/8/232
f 24/94/233 23/93/234 55/25/235 56/26/236
f 21/92/237 24/94/238 56/26/239 54/24/240
f 5/74/241 6/77/242 41/9/243 38/6/244
f 26/95/245 25/96/246 58/28/247 57/27/248
f 27/97/249 26/95/250 57/27/251 59/29/252
f 14/80/253 13/75/254 39/7/255 44/12/256
f 28/98/257 27/97/258 59/29/259 60/30/260
f 25/96/261 28/98/262 60/30/263 58/28/264
f 7/78/265 8/81/266 45/13/267 42/10/268
f 30/99/269 29/100/270 62/32/271 61/31/272
f 31/101/273 30/99/274 61/31/275 63/33/276
f 16/84/277 15/79/278 43/11/279 48/16/280
f 32/102/281 31/101/282 63/33/283 64/34/284
f 29/100/285 32/102/286 64/34/287 62/32/288
f 65/103/289 66/104/290 72/105/291 71/106/292
f 66/104/293 67/107/294 73/108/295 72/105/296
f 67/107/297 68/109/298 74/110/299 73/108/300
f 68/109/301 69/111/302 75/112/303 74/110/304
f 69/111/305 70/113/306 76/114/307 75/112/308
f 70/113/309 65/115/310 71/116/311 76/114/312
f 66/117/313 65/118/314 77/119/315
f 67/120/316 66/117/317 77/119/318
f 68/121/319 67/120/320 77/119/321
f 69/122/322 68/121/323 77/119/324
f 70/123/325 69/122/326 77/119/327
f 65/118/328 70/123/329 77/119/330
f 78/126/331 79/137/332 80/138/333
f 79/137/334 81/139/335 80/138/336
f 81/139/337 82/140/338 80/138/339
f 82/140/340 83/141/341 80/138/342
f 83/141/343 84/142/344 80/138/345
f 84/142/346 78/126/347 80/138/348
f 71/131/349 72/132/350 79/125/351 78/124/352
f 72/132/353 73/133/354 81/127/355 79/125/356
f 73/133/357 74/134/358 82/128/359 81/127/360
f 74/134/361 75/135/362 83/129/363 82/128/364
f 75/135/365 76/136/366 84/130/367 83/129/368
f 76/136/369 71/131/370 78/124/371 84/130/372
