# This file uses centimeters as units for non-parametric coordinates.

v -1.628075 1.900302 -2.832294
v -1.628075 1.115451 3.441040
v 1.628057 1.115451 3.441040
v 1.628057 1.900302 -2.832294
v -1.628075 -4.794431 -4.073164
v -1.628075 -5.734250 2.164272
v 1.628057 -5.835111 2.144634
v 1.628057 -4.895322 -4.092676
v -1.219841 -4.924893 -3.293571
v -1.219841 -5.629056 1.379833
v 1.219824 -5.000485 -3.308237
v 1.219824 -5.704648 1.365105
v -1.219841 -3.264676 -3.171015
v -1.219841 -3.968839 1.502392
v 1.219824 -3.340268 -3.185680
v 1.219824 -4.044431 1.487659
vt 0.091685 0.231098
vt 0.091685 0.231098
vt 0.091685 0.231098
vt 0.091685 0.231098
vt 0.091685 0.231098
vt 0.091685 0.231098
vt 0.091685 0.231098
vt 0.091685 0.231098
vt 0.091685 0.231098
vt 0.091685 0.231098
vt 0.091685 0.231098
vt 0.091685 0.231098
vt 0.091685 0.231098
vt 0.091685 0.231098
vt 0.091685 0.231098
vt 0.091685 0.231098
vt 0.091685 0.231098
vt 0.091685 0.231098
vt 0.091685 0.231098
vt 0.091685 0.231098
vt 0.091685 0.231098
vt 0.091685 0.231098
vt 0.091685 0.231098
vt 0.091685 0.231098
vt 0.010225 0.009583
vt 0.010225 0.009583
vt 0.010225 0.009583
vt 0.010225 0.009583
vn -0.000122 0.182303 -0.983242
vn -0.000122 0.182303 -0.983242
vn -0.000122 0.182303 -0.983242
vn -0.000122 0.182303 -0.983242
vn 1.000000 -0.000000 0.000000
vn 1.000000 -0.000000 0.000000
vn 1.000000 -0.000000 0.000000
vn 1.000000 -0.000000 0.000000
vn 0.000126 -0.183299 0.983057
vn 0.000126 -0.183299 0.983057
vn 0.000126 -0.183299 0.983057
vn 0.000126 -0.183299 0.983057
vn -1.000000 0.000000 0.000000
vn -1.000000 0.000000 0.000000
vn -1.000000 0.000000 0.000000
vn -1.000000 0.000000 0.000000
vn 0.000000 0.992265 0.124141
vn 0.000000 0.992265 0.124141
vn 0.000000 0.992265 0.124141
vn 0.000000 0.992265 0.124141
vn -0.031521 -0.988347 -0.148920
vn -0.031521 -0.988347 -0.148920
vn -0.031521 -0.988347 -0.148920
vn -0.031521 -0.988347 -0.148920
vn -0.031472 -0.988349 -0.148919
vn -0.031472 -0.988349 -0.148919
vn -0.031472 -0.988348 -0.148919
vn -0.031472 -0.988349 -0.148919
vn -0.031517 -0.988350 -0.148898
vn -0.031517 -0.988350 -0.148898
vn -0.031517 -0.988350 -0.148898
vn -0.031517 -0.988350 -0.148898
vn -0.031520 -0.988347 -0.148918
vn -0.031520 -0.988347 -0.148918
vn -0.031520 -0.988347 -0.148918
vn -0.031520 -0.988347 -0.148918
vn -0.031517 -0.988346 -0.148923
vn -0.031517 -0.988346 -0.148923
vn -0.031517 -0.988346 -0.148923
vn -0.031517 -0.988346 -0.148923
vn 1.000000 0.000000 0.000000
vn 1.000000 0.000000 0.000000
vn 1.000000 0.000000 0.000000
vn 1.000000 0.000000 0.000000
vn 0.003714 -0.073619 0.997280
vn 0.003714 -0.073619 0.997280
vn 0.003714 -0.073619 0.997280
vn 0.003714 -0.073619 0.997280
vn -1.000000 0.000000 0.000000
vn -1.000000 0.000000 0.000000
vn -1.000000 0.000000 0.000000
vn -1.000000 0.000000 0.000000
vn -0.003740 0.073619 -0.997280
vn -0.003740 0.073619 -0.997279
vn -0.003740 0.073619 -0.997279
vn -0.003740 0.073619 -0.997280
s off
f 8/16/1 5/9/2 1/7/3 4/8/4
f 7/14/5 8/15/6 4/5/7 3/6/8
f 6/12/9 7/13/10 3/3/11 2/4/12
f 5/10/13 6/11/14 2/1/15 1/2/16
f 1/2/17 2/4/18 3/6/19 4/8/20
f 14/25/21 13/26/22 15/27/23 16/28/24
f 6/11/25 5/9/26 9/18/27 10/17/28
f 5/9/29 8/15/30 11/19/31 9/18/32
f 8/15/33 7/13/34 12/20/35 11/19/36
f 7/13/37 6/11/38 10/17/39 12/20/40
f 10/17/41 9/18/42 13/22/43 14/21/44
f 9/18/45 11/19/46 15/23/47 13/22/48
f 11/19/49 12/20/50 16/24/51 15/23/52
f 12/20/53 10/17/54 14/21/55 16/24/56
v -1.666565 -23.886520 -6.970932
v -1.666565 -24.378036 -0.786308
v -1.666565 -23.247360 -6.908833
v -1.666565 -23.738876 -0.724236
v 1.666565 -23.247360 -6.908831
v 1.666565 -23.738876 -0.724237
v 1.666565 -23.886520 -6.970934
v 1.666565 -24.378036 -0.786310
v 1.084229 -24.468246 0.164282
v -1.084229 -24.468246 0.164284
v 1.084229 -23.829086 0.226354
v -1.084229 -23.829086 0.226357
v -1.111053 -23.282761 -6.537934
v -1.111053 -23.628128 -1.909819
v 1.111023 -23.628128 -1.909820
v 1.111023 -23.282761 -6.537934
v -1.111053 0.996246 -2.199254
v -1.111053 0.394867 2.401937
v 1.111023 0.394867 2.401938
v 1.111023 0.996246 -2.199254
v 0.679230 -23.802948 -7.873893
v -0.679230 -23.802948 -7.873893
v -0.679230 -23.163910 -7.811809
v 0.679230 -23.163910 -7.811809
v -1.111053 -22.760422 -6.440925
v -1.111053 -23.113022 -1.813598
v 1.111023 -23.113022 -1.813598
v 1.111023 -22.760422 -6.440925
v -1.111053 -21.889389 -6.332482
v 1.111023 -21.889389 -6.332482
v 1.111023 -22.249603 -1.705859
v -1.111053 -22.249603 -1.705859
v -1.111053 -20.428726 -6.008199
v 1.111023 -20.663376 -6.051766
v 1.111023 -21.727264 -1.554801
v -1.111053 -21.492691 -1.510968
v -1.111053 -19.466476 -5.829677
v 1.111023 -19.774887 -5.886838
v 1.111023 -20.849930 -1.390971
v -1.111053 -20.541611 -1.333421
v -1.443481 -22.572678 -6.708344
v -1.443481 -23.048920 -1.509015
v -1.443481 -22.355194 -1.397248
v -1.443481 -21.937790 -6.597024
v 1.443451 -23.048920 -1.509015
v 1.443451 -22.355194 -1.397248
v 1.443451 -22.572678 -6.708344
v 1.443451 -21.937790 -6.597024
v -1.443909 -20.157944 -6.287858
v 1.443024 -20.472458 -6.331734
v -1.443909 -19.453537 -6.124588
v 1.443024 -19.750351 -6.179800
v 1.443024 -21.636215 -1.258491
v 1.443024 -21.029800 -1.158796
v -1.443909 -21.408249 -1.215929
v -1.443909 -20.732956 -1.103391
v -0.695770 0.455536 1.937706
v 0.695740 0.455536 1.937706
v 0.695740 0.935547 -1.735058
v -0.695770 0.935547 -1.735060
v -0.552582 0.030121 1.759504
v 0.552551 0.030121 1.759505
v 0.552551 0.478622 -1.672212
v -0.552582 0.478622 -1.672211
vt 0.091685 0.231098
vt 0.091685 0.231098
vt 0.091685 0.231098
vt 0.091685 0.231098
vt 0.091685 0.231098
vt 0.091685 0.231098
vt 0.091685 0.231098
vt 0.091685 0.231098
vt 0.091685 0.231098
vt 0.091685 0.231098
vt 0.091685 0.231098
vt 0.091685 0.231098
vt 0.091685 0.231098
vt 0.091685 0.231098
vt 0.091685 0.231098
vt 0.091685 0.231098
vt 0.091685 0.231098
vt 0.091685 0.231098
vt 0.091685 0.231098
vt 0.091685 0.231098
vt 0.091685 0.231098
vt 0.091685 0.231098
vt 0.091685 0.231098
vt 0.091685 0.231098
vt 0.091685 0.231098
vt 0.091685 0.231098
vt 0.091685 0.231098
vt 0.091685 0.231098
vt 0.091685 0.231098
vt 0.091685 0.231098
vt 0.091685 0.231098
vt 0.091685 0.231098
vt 0.091685 0.231098
vt 0.091685 0.231098
vt 0.091685 0.231098
vt 0.091685 0.231098
vt 0.091685 0.231098
vt 0.091685 0.231098
vt 0.091685 0.231098
vt 0.091685 0.231098
vt 0.091685 0.231098
vt 0.091685 0.231098
vt 0.091685 0.231098
vt 0.091685 0.231098
vt 0.091685 0.231098
vt 0.091685 0.231098
vt 0.091685 0.231098
vt 0.091685 0.231098
vt 0.091685 0.231098
vt 0.091685 0.231098
vt 0.091685 0.231098
vt 0.091685 0.231098
vt 0.091685 0.231098
vt 0.091685 0.231098
vt 0.091685 0.231098
vt 0.091685 0.231098
vt 0.091685 0.231098
vt 0.091685 0.231098
vt 0.091685 0.231098
vt 0.091685 0.231098
vt 0.091685 0.231098
vt 0.091685 0.231098
vt 0.091685 0.231098
vt 0.091685 0.231098
vt 0.091685 0.231098
vt 0.091685 0.231098
vt 0.091685 0.231098
vt 0.091685 0.231098
vt 0.091685 0.231098
vt 0.091685 0.231098
vt 0.091685 0.231098
vt 0.091685 0.231098
vt 0.091685 0.231098
vt 0.091685 0.231098
vt 0.091685 0.231098
vt 0.091685 0.231098
vt 0.091685 0.231098
vt 0.091685 0.231098
vt 0.091685 0.231098
vt 0.091685 0.231098
vt 0.091685 0.231098
vt 0.091685 0.231098
vt 0.091685 0.231098
vt 0.091685 0.231098
vt 0.091685 0.231098
vt 0.091685 0.231098
vt 0.091685 0.231098
vt 0.091685 0.231098
vt 0.133197 0.306078
vt 0.133197 0.306078
vt 0.133197 0.306078
vt 0.133197 0.306078
vt 0.133197 0.306078
vt 0.133197 0.306078
vt 0.133197 0.306078
vt 0.133197 0.306078
vt 0.133197 0.306078
vt 0.133197 0.306078
vt 0.133197 0.306078
vt 0.133197 0.306078
vt 0.133197 0.306078
vt 0.133197 0.306078
vt 0.133197 0.306078
vt 0.133197 0.306078
vt 0.133197 0.306078
vt 0.133197 0.306078
vt 0.133197 0.306078
vt 0.133197 0.306078
vt 0.133197 0.306078
vt 0.133197 0.306078
vt 0.133197 0.306078
vt 0.133197 0.306078
vt 0.133197 0.306078
vt 0.133197 0.306078
vt 0.133197 0.306078
vt 0.133197 0.306078
vt 0.133197 0.306078
vt 0.133197 0.306078
vt 0.133197 0.306078
vt 0.133197 0.306078
vt 0.091685 0.231098
vt 0.091685 0.231098
vt 0.091685 0.231098
vt 0.091685 0.231098
vt 0.091685 0.231098
vt 0.091685 0.231098
vt 0.091685 0.231098
vt 0.091685 0.231098
vt 0.006302 0.008142
vt 0.006302 0.008142
vt 0.006302 0.008142
vt 0.006302 0.008142
vn -1.000000 -0.000000 0.000000
vn -1.000000 -0.000000 0.000000
vn -1.000000 -0.000000 0.000000
vn -1.000000 -0.000000 0.000000
vn 1.000000 -0.000000 0.000000
vn 1.000000 -0.000000 0.000000
vn 1.000000 -0.000000 0.000000
vn 1.000000 -0.000000 0.000000
vn -0.000000 -0.996809 -0.079825
vn -0.000000 -0.996764 -0.080390
vn -0.000000 -0.996763 -0.080390
vn -0.000000 -0.996809 -0.079825
vn 0.000001 -0.096661 0.995317
vn 0.000001 -0.096661 0.995317
vn 0.000001 -0.096661 0.995317
vn 0.000001 -0.096661 0.995317
vn 0.000000 0.096698 -0.995314
vn 0.000000 0.096698 -0.995314
vn 0.000000 0.096698 -0.995314
vn 0.000000 0.096698 -0.995314
vn -0.000000 -0.996763 -0.080390
vn -0.000000 -0.996764 -0.080390
vn -0.000000 -0.995528 -0.094472
vn -0.000000 -0.995528 -0.094472
vn 0.853755 -0.050329 0.518237
vn 0.853755 -0.050329 0.518237
vn 0.853755 -0.050329 0.518237
vn 0.853755 -0.050329 0.518237
vn 0.000000 0.995608 0.093620
vn 0.000000 0.995608 0.093620
vn 0.000000 0.995527 0.094475
vn 0.000000 0.995527 0.094475
vn -0.853755 -0.050329 0.518237
vn -0.853755 -0.050329 0.518237
vn -0.853755 -0.050329 0.518237
vn -0.853755 -0.050329 0.518237
vn -0.011031 0.996958 0.077162
vn -0.011031 0.996958 0.077162
vn -0.011031 0.996958 0.077162
vn -0.011031 0.996958 0.077162
vn 0.000000 0.995608 0.093620
vn 0.000000 0.995608 0.093620
vn 0.000000 0.995665 0.093007
vn 0.000000 0.995665 0.093007
vn 0.011030 0.996958 0.077163
vn 0.011030 0.996958 0.077163
vn 0.011030 0.996958 0.077163
vn 0.011030 0.996958 0.077163
vn -0.000000 0.995679 0.092858
vn -0.000000 0.995679 0.092858
vn -0.000000 0.995476 0.095014
vn -0.000000 0.995476 0.095014
vn -1.000000 -0.000000 0.000000
vn -1.000000 -0.000000 0.000000
vn -1.000000 -0.000000 0.000000
vn -1.000000 -0.000000 0.000000
vn 0.000000 -0.159060 0.987269
vn 0.000000 -0.159060 0.987269
vn 0.000000 -0.159060 0.987269
vn 0.000000 -0.159060 0.987269
vn 1.000000 0.000000 0.000000
vn 1.000000 0.000000 0.000000
vn 1.000000 0.000000 0.000000
vn 1.000000 0.000000 0.000000
vn 0.000000 0.172704 -0.984974
vn 0.000000 0.172704 -0.984974
vn 0.000000 0.172704 -0.984974
vn 0.000000 0.172704 -0.984974
vn -0.000000 -0.996809 -0.079825
vn -0.000000 -0.996809 -0.079825
vn -0.000000 -0.995744 -0.092160
vn -0.000000 -0.995744 -0.092160
vn -0.676436 0.071220 -0.733050
vn -0.676436 0.071220 -0.733050
vn -0.676436 0.071220 -0.733050
vn -0.676436 0.071220 -0.733050
vn -0.000000 0.995679 0.092858
vn -0.000000 0.995679 0.092858
vn -0.000000 0.995757 0.092024
vn -0.000000 0.995757 0.092024
vn 0.676436 0.071222 -0.733050
vn 0.676436 0.071222 -0.733050
vn 0.676436 0.071222 -0.733050
vn 0.676436 0.071222 -0.733050
vn -1.000000 -0.000000 0.000000
vn -1.000000 -0.000000 0.000000
vn -1.000000 -0.000000 0.000000
vn -1.000000 -0.000000 0.000000
vn 0.000000 -0.183624 0.982997
vn 0.000000 -0.183624 0.982997
vn 0.000000 -0.183624 0.982997
vn 0.000000 -0.183624 0.982997
vn 1.000000 -0.000000 0.000000
vn 1.000000 -0.000000 0.000000
vn 1.000000 -0.000000 0.000000
vn 1.000000 -0.000000 0.000000
vn 0.000000 0.182600 -0.983187
vn 0.000000 0.182600 -0.983187
vn 0.000000 0.182600 -0.983187
vn 0.000000 0.182600 -0.983187
vn 0.002035 0.219684 -0.975569
vn 0.002035 0.219684 -0.975569
vn 0.002035 0.219684 -0.975569
vn 0.002035 0.219684 -0.975569
vn 1.000000 0.000000 0.000000
vn 1.000000 0.000000 0.000000
vn 1.000000 0.000000 0.000000
vn 1.000000 0.000000 0.000000
vn -0.004258 -0.261051 0.965316
vn -0.004258 -0.261051 0.965316
vn -0.004258 -0.261051 0.965316
vn -0.004258 -0.261051 0.965316
vn -1.000000 -0.000000 0.000000
vn -1.000000 -0.000000 0.000000
vn -1.000000 -0.000000 0.000000
vn -1.000000 -0.000000 0.000000
vn 0.006087 0.215752 -0.976429
vn 0.006087 0.215752 -0.976429
vn 0.006087 0.215752 -0.976429
vn 0.006087 0.215752 -0.976429
vn 1.000000 -0.000000 0.000000
vn 1.000000 -0.000000 0.000000
vn 1.000000 -0.000000 0.000000
vn 1.000000 -0.000000 0.000000
vn 0.001891 -0.163361 0.986565
vn 0.001891 -0.163361 0.986565
vn 0.001891 -0.163361 0.986565
vn 0.001891 -0.163361 0.986565
vn -1.000000 -0.000000 0.000000
vn -1.000000 -0.000000 0.000000
vn -1.000000 -0.000000 0.000000
vn -1.000000 -0.000000 0.000000
vn -0.000538 0.174745 -0.984614
vn -0.000538 0.174745 -0.984614
vn -0.000538 0.174745 -0.984614
vn -0.000538 0.174745 -0.984614
vn 1.000000 0.000000 0.000000
vn 1.000000 0.000000 0.000000
vn 1.000000 0.000000 0.000000
vn 1.000000 0.000000 0.000000
vn 0.000559 -0.175698 0.984444
vn 0.000559 -0.175698 0.984444
vn 0.000559 -0.175698 0.984444
vn 0.000559 -0.175698 0.984444
vn -1.000000 0.000000 0.000000
vn -1.000000 0.000000 0.000000
vn -1.000000 0.000000 0.000000
vn -1.000000 0.000000 0.000000
vn -0.247764 -0.934172 -0.256778
vn -0.248039 -0.968660 0.013196
vn -0.261197 -0.965283 0.002371
vn -0.265162 -0.936308 -0.230255
vn -0.147930 0.975649 0.161942
vn -0.153439 0.988153 -0.003138
vn -0.170674 0.985174 0.017362
vn -0.151915 0.975787 0.157359
vn -0.248039 -0.968660 0.013196
vn 0.248040 -0.968660 0.013196
vn 0.261197 -0.965283 0.002371
vn -0.261197 -0.965283 0.002371
vn 0.147930 0.975649 0.161942
vn -0.147930 0.975649 0.161942
vn -0.151915 0.975787 0.157359
vn 0.151915 0.975787 0.157359
vn 0.248040 -0.968660 0.013196
vn 0.247764 -0.934172 -0.256778
vn 0.265162 -0.936308 -0.230255
vn 0.261197 -0.965283 0.002371
vn 0.153439 0.988153 -0.003138
vn 0.147930 0.975649 0.161942
vn 0.151915 0.975787 0.157359
vn 0.170675 0.985174 0.017362
vn 0.247764 -0.934172 -0.256778
vn -0.247764 -0.934172 -0.256778
vn -0.265162 -0.936308 -0.230255
vn 0.265162 -0.936308 -0.230255
vn -0.153439 0.988153 -0.003138
vn 0.153439 0.988153 -0.003138
vn 0.170675 0.985174 0.017362
vn -0.170674 0.985174 0.017362
vn 0.232732 -0.897829 -0.373818
vn -0.351379 -0.861573 -0.366368
vn -0.358216 -0.862415 -0.357661
vn 0.231876 -0.897704 -0.374649
vn -0.151119 0.971770 0.181181
vn 0.202953 0.962701 0.178933
vn 0.208858 0.959872 0.187147
vn -0.166918 0.967924 0.187780
vn 0.248836 -0.967075 -0.053350
vn 0.232732 -0.897829 -0.373818
vn 0.231876 -0.897704 -0.374649
vn 0.271304 -0.959326 -0.078025
vn 0.202953 0.962701 0.178933
vn 0.200461 0.906213 0.372281
vn 0.211347 0.917203 0.337744
vn 0.208858 0.959872 0.187147
vn -0.357170 -0.932554 -0.052652
vn 0.248836 -0.967075 -0.053350
vn 0.271304 -0.959326 -0.078025
vn -0.385211 -0.918269 -0.091622
vn 0.200461 0.906213 0.372281
vn -0.156839 0.915646 0.370128
vn -0.173687 0.920106 0.351052
vn 0.211347 0.917203 0.337744
vn -0.351379 -0.861573 -0.366368
vn -0.357170 -0.932554 -0.052652
vn -0.385211 -0.918269 -0.091622
vn -0.358216 -0.862415 -0.357661
vn -0.156839 0.915646 0.370128
vn -0.151119 0.971770 0.181181
vn -0.166918 0.967924 0.187780
vn -0.173687 0.920106 0.351052
vn -0.000000 0.991568 0.129591
vn -0.000000 0.991568 0.129591
vn -0.000000 0.991568 0.129591
vn -0.000000 0.991568 0.129591
vn 0.000027 0.991567 0.129592
vn -0.000027 0.991567 0.129592
vn -0.000029 0.991567 0.129592
vn 0.000029 0.991567 0.129592
vn -0.000027 0.991567 0.129592
vn -0.000027 0.991564 0.129619
vn -0.000029 0.991564 0.129616
vn -0.000029 0.991567 0.129592
vn -0.000027 0.991564 0.129619
vn 0.000027 0.991564 0.129619
vn 0.000029 0.991564 0.129616
vn -0.000029 0.991564 0.129616
vn 0.000027 0.991564 0.129619
vn 0.000027 0.991567 0.129592
vn 0.000029 0.991567 0.129592
vn 0.000029 0.991564 0.129616
vn 0.000000 0.386361 -0.922348
vn 0.000000 0.386361 -0.922348
vn 0.000000 0.386361 -0.922348
vn 0.000000 0.386361 -0.922348
vn -0.951918 0.303769 0.039701
vn -0.951918 0.303769 0.039701
vn -0.951918 0.303769 0.039701
vn -0.951918 0.303769 0.039701
vn -0.000000 0.136261 0.990673
vn -0.000000 0.136261 0.990673
vn -0.000000 0.136261 0.990673
vn -0.000000 0.136261 0.990673
vn 0.951918 0.303769 0.039701
vn 0.951918 0.303769 0.039701
vn 0.951918 0.303769 0.039701
vn 0.951918 0.303769 0.039701
s off
f 17/29/57 18/30/58 20/31/59 19/32/60
f 21/33/61 22/34/62 24/35/63 23/36/64
f 23/37/65 24/38/66 18/39/67 17/40/68
f 26/41/69 25/42/70 27/43/71 28/44/72
f 37/45/73 38/46/74 39/47/75 40/48/76
f 18/39/77 24/38/78 25/49/79 26/50/80
f 24/35/81 22/34/82 27/51/83 25/52/84
f 22/53/85 20/54/86 28/55/87 27/56/88
f 20/31/89 18/30/90 26/57/91 28/58/92
f 19/59/93 20/54/94 30/60/95 29/61/96
f 20/54/97 22/53/98 31/62/99 30/60/100
f 22/53/101 21/63/102 32/64/103 31/62/104
f 21/63/105 19/59/106 29/61/107 32/64/108
f 57/117/109 58/118/110 59/119/111 60/120/112
f 58/118/113 61/121/114 62/122/115 59/119/116
f 61/121/117 63/123/118 64/124/119 62/122/120
f 63/123/121 57/117/122 60/120/123 64/124/124
f 23/81/125 17/82/126 38/46/127 37/45/128
f 17/82/129 19/83/130 39/47/131 38/46/132
f 19/83/133 21/84/134 40/48/135 39/47/136
f 21/84/137 23/81/138 37/45/139 40/48/140
f 29/65/141 30/66/142 42/87/143 41/86/144
f 30/69/145 31/70/146 43/89/147 42/88/148
f 31/73/149 32/74/150 44/91/151 43/90/152
f 32/77/153 29/78/154 41/85/155 44/92/156
f 46/96/157 45/93/158 49/101/159 50/104/160
f 47/98/161 46/95/162 50/103/163 51/106/164
f 48/100/165 47/97/166 51/105/167 52/108/168
f 45/94/169 48/99/170 52/107/171 49/102/172
f 66/125/173 65/126/174 67/127/175 68/128/176
f 69/129/177 66/125/178 68/128/179 70/130/180
f 71/131/181 69/129/182 70/130/183 72/132/184
f 65/126/185 71/131/186 72/132/187 67/127/188
f 54/112/189 53/109/190 33/79/191 36/80/192
f 55/114/193 54/111/194 36/75/195 35/76/196
f 56/116/197 55/113/198 35/71/199 34/72/200
f 53/110/201 56/115/202 34/67/203 33/68/204
f 41/133/205 42/134/206 58/118/207 57/117/208
f 48/135/209 45/136/210 60/120/211 59/119/212
f 42/134/213 43/137/214 61/121/215 58/118/216
f 47/138/217 48/135/218 59/119/219 62/122/220
f 43/137/221 44/139/222 63/123/223 61/121/224
f 46/140/225 47/138/226 62/122/227 64/124/228
f 44/139/229 41/133/230 57/117/231 63/123/232
f 45/136/233 46/140/234 64/124/235 60/120/236
f 50/141/237 49/142/238 65/126/239 66/125/240
f 53/143/241 54/144/242 68/128/243 67/127/244
f 51/145/245 50/141/246 66/125/247 69/129/248
f 54/144/249 55/146/250 70/130/251 68/128/252
f 52/147/253 51/145/254 69/129/255 71/131/256
f 55/146/257 56/148/258 72/132/259 70/130/260
f 49/142/261 52/147/262 71/131/263 65/126/264
f 56/148/265 53/143/266 67/127/267 72/132/268
f 77/157/269 78/158/270 79/159/271 80/160/272
f 34/72/273 35/76/274 74/150/275 73/149/276
f 35/76/277 36/80/278 75/151/279 74/150/280
f 36/80/281 33/68/282 76/152/283 75/151/284
f 33/68/285 34/72/286 73/149/287 76/152/288
f 73/149/289 74/150/290 78/154/291 77/153/292
f 74/150/293 75/151/294 79/155/295 78/154/296
f 75/151/297 76/152/298 80/156/299 79/155/300
f 76/152/301 73/149/302 77/153/303 80/156/304
