# This file uses centimeters as units for non-parametric coordinates.

v -0.361422 -1.431505 7.709961
v 0.446898 -1.431505 7.709961
v -0.361422 -0.041794 7.709961
v 0.446898 -0.041794 7.709961
v -0.361422 4.863804 0.090801
v 0.446898 4.863804 0.090801
v 0.446898 4.863804 -1.586159
v -0.361422 4.863804 -1.586159
v 0.836062 -0.736649 7.709961
v 0.836062 5.401518 -0.865650
v -0.750586 -0.736649 7.709961
v -0.750586 5.401518 -0.865650
v -0.361422 -0.041794 1.685833
v 0.446898 -0.041794 1.685833
v 0.836062 -0.736649 1.317757
v 0.446898 -1.431505 0.949680
v -0.361422 -1.431505 0.949680
v -0.750586 -0.736649 1.317757
v -0.361422 0.596769 0.692982
v 0.446898 0.596769 0.692982
v 0.836062 0.117956 0.075195
v 0.446898 -0.360857 -0.542591
v -0.361422 -0.360857 -0.542591
v -0.750586 0.117956 0.075195
v 1.102594 0.222683 20.334373
v -1.061626 0.256746 20.334373
v 1.061620 -1.715990 20.334373
v -1.102594 -1.681923 20.334373
v 1.061620 -1.715990 6.906471
v -1.102594 -1.681923 6.906471
v 1.102594 0.222683 6.906471
v -1.061626 0.256746 6.906471
v 1.102594 0.750673 15.003624
v 1.061620 -2.097870 16.196114
v -1.102594 -2.063803 16.196114
v -1.061626 0.784739 15.003624
v -1.102594 -2.063803 13.217171
v 1.061620 -2.097870 13.217171
v 1.102594 0.504957 12.069298
v -1.061626 0.539021 12.069298
v -1.102594 -2.063803 10.253471
v 1.061620 -2.097870 10.253471
v 1.102594 0.504957 7.775505
v -1.061626 0.539021 7.775505
v -1.102594 -1.857853 7.874947
v 1.061620 -1.891920 7.874947
v 1.102594 0.504957 19.270241
v 1.061620 -1.891920 19.062309
v -1.102594 -1.857853 19.062309
v -1.061626 0.539021 19.270241
v -1.094835 -1.570528 17.922112
v 1.069386 -1.604591 17.922112
v 1.069386 -1.604591 14.936501
v -1.094835 -1.570528 14.936501
v 1.069386 -1.604591 11.946800
v -1.094835 -1.570528 11.946800
v 1.069386 -1.604591 9.085548
v -1.094835 -1.570528 9.085548
v -1.102594 -2.063803 16.900764
v 1.061620 -2.097870 16.900764
v -1.102594 -2.063803 13.811165
v 1.061620 -2.097870 13.811165
v -1.102594 -2.063803 10.921440
v 1.061620 -2.097870 10.921440
v 0.528095 -2.114513 14.936501
v -0.569859 -2.097233 14.936501
v -0.577627 -2.590504 13.811165
v 0.520326 -2.607784 13.811165
v 0.520326 -2.401834 19.062309
v -0.577627 -2.384554 19.062309
v -0.569859 -2.097233 17.922112
v 0.528095 -2.114513 17.922112
v 0.528095 -2.114513 11.946800
v -0.569859 -2.097233 11.946800
v -0.577627 -2.590504 10.921440
v 0.520326 -2.607784 10.921440
v 0.528095 -2.114513 9.085548
v -0.569859 -2.097233 9.085548
v -0.577627 -2.384554 7.874947
v 0.520326 -2.401834 7.874947
v -0.577627 -2.208624 7.152748
v 0.520326 -2.225904 7.152748
v 0.520326 -2.225904 19.936440
v -0.577627 -2.208624 19.936440
v -0.577627 -2.590504 16.900764
v 0.520326 -2.607784 16.900764
v 0.520326 -2.607784 16.196114
v -0.577627 -2.590504 16.196114
v -0.577627 -2.590504 13.217171
v 0.520326 -2.607784 13.217171
v -0.577627 -2.590504 10.253471
v 0.520326 -2.607784 10.253471
vt 0.090886 0.253950
vt 0.090886 0.253950
vt 0.090886 0.253950
vt 0.090886 0.253950
vt 0.090886 0.253950
vt 0.090886 0.253950
vt 0.090886 0.253950
vt 0.090886 0.253950
vt 0.090886 0.253950
vt 0.090886 0.253950
vt 0.090886 0.253950
vt 0.090886 0.253950
vt 0.090886 0.253950
vt 0.090886 0.253950
vt 0.090886 0.253950
vt 0.090886 0.253950
vt 0.090886 0.253950
vt 0.090886 0.253950
vt 0.090886 0.253950
vt 0.090886 0.253950
vt 0.090886 0.253950
vt 0.090886 0.253950
vt 0.090886 0.253950
vt 0.090886 0.253950
vt 0.090886 0.253950
vt 0.090886 0.253950
vt 0.090886 0.253950
vt 0.090886 0.253950
vt 0.090886 0.253950
vt 0.090886 0.253950
vt 0.081114 0.254324
vt 0.081114 0.254324
vt 0.081114 0.254324
vt 0.081114 0.254324
vt 0.081114 0.254324
vt 0.081114 0.254324
vt 0.081114 0.254324
vt 0.081114 0.254324
vt 0.081114 0.254324
vt 0.081114 0.254324
vt 0.081114 0.254324
vt 0.081114 0.254324
vt 0.081114 0.254324
vt 0.081114 0.254324
vt 0.081114 0.254324
vt 0.081114 0.254324
vt 0.081114 0.254324
vt 0.081114 0.254324
vt 0.081114 0.254324
vt 0.081114 0.254324
vt 0.081114 0.254324
vt 0.081114 0.254324
vt 0.081114 0.254324
vt 0.081114 0.254324
vt 0.081114 0.254324
vt 0.081114 0.254324
vt 0.081114 0.254324
vt 0.081114 0.254324
vt 0.081114 0.254324
vt 0.081114 0.254324
vt 0.081114 0.254324
vt 0.081114 0.254324
vt 0.081114 0.254324
vt 0.081114 0.254324
vt 0.081114 0.254324
vt 0.081114 0.254324
vt 0.081114 0.254324
vt 0.081114 0.254324
vt 0.081114 0.254324
vt 0.081114 0.254324
vt 0.081114 0.254324
vt 0.081114 0.254324
vt 0.081114 0.254324
vt 0.081114 0.254324
vt 0.081114 0.254324
vt 0.081114 0.254324
vt 0.081114 0.254324
vt 0.081114 0.254324
vt 0.081114 0.254324
vt 0.081114 0.254324
vt 0.081114 0.254324
vt 0.081114 0.254324
vt 0.081114 0.254324
vt 0.081114 0.254324
vt 0.081114 0.254324
vt 0.081114 0.254324
vt 0.081114 0.254324
vt 0.081114 0.254324
vt 0.081114 0.254324
vt 0.081114 0.254324
vt 0.081114 0.254324
vt 0.081114 0.254324
vt 0.081114 0.254324
vt 0.081114 0.254324
vt 0.081114 0.254324
vt 0.081114 0.254324
vt 0.081114 0.254324
vt 0.081114 0.254324
vn 0.000000 -0.991689 -0.128657
vn 0.000000 -0.991689 -0.128657
vn 0.000000 -0.373640 -0.927574
vn 0.000000 -0.373640 -0.927574
vn -0.899207 -0.162608 -0.406184
vn -0.884275 -0.461972 -0.068111
vn -0.881442 -0.469749 -0.048947
vn -0.898060 -0.151573 -0.412933
vn 0.000000 0.309211 0.950993
vn 0.000000 0.309211 0.950993
vn 0.000000 0.139739 0.990188
vn 0.000000 0.139739 0.990188
vn 0.902091 0.135209 0.409818
vn 0.903195 0.146355 0.403508
vn 0.893040 0.071769 0.444217
vn 0.893040 0.071769 0.444217
vn 0.000000 -0.373640 -0.927574
vn 0.000000 -0.373640 -0.927574
vn 0.000000 -0.195870 -0.980630
vn 0.000000 -0.195870 -0.980630
vn -0.899207 -0.162608 -0.406184
vn -0.898060 -0.151573 -0.412933
vn -0.888083 -0.085301 -0.451700
vn -0.888083 -0.085301 -0.451700
vn 0.888083 -0.085301 -0.451700
vn 0.898060 -0.151573 -0.412933
vn 0.899207 -0.162608 -0.406184
vn 0.888083 -0.085301 -0.451700
vn -0.903195 0.146355 0.403508
vn -0.882646 0.466358 0.058700
vn -0.879913 0.473384 0.040749
vn -0.902091 0.135209 0.409818
vn -0.893040 0.071769 0.444217
vn -0.903195 0.146355 0.403508
vn -0.902091 0.135209 0.409818
vn -0.893040 0.071769 0.444217
vn 0.000000 1.000000 0.000000
vn 0.000000 1.000000 0.000000
vn 0.000000 0.995885 0.090628
vn 0.000000 0.995885 0.090628
vn 0.872482 0.488646 0.000000
vn 0.882646 0.466358 0.058700
vn 0.879913 0.473384 0.040749
vn 0.872482 0.488646 0.000000
vn 0.872483 -0.488645 0.000000
vn 0.884275 -0.461973 -0.068111
vn 0.881442 -0.469749 -0.048947
vn 0.872483 -0.488645 0.000000
vn 0.000000 -0.991689 -0.128657
vn 0.000000 -0.991689 -0.128657
vn 0.000000 -1.000000 0.000000
vn 0.000000 -1.000000 0.000000
vn -0.881442 -0.469749 -0.048947
vn -0.884275 -0.461972 -0.068111
vn -0.872483 -0.488645 0.000000
vn -0.872483 -0.488645 0.000000
vn -0.879913 0.473384 0.040749
vn -0.882646 0.466358 0.058700
vn -0.872482 0.488646 0.000000
vn -0.872482 0.488646 0.000000
vn 0.000000 0.309211 0.950993
vn 0.000000 0.309211 0.950993
vn 0.000000 0.995885 0.090628
vn 0.000000 0.995885 0.090628
vn 0.903195 0.146355 0.403508
vn 0.902091 0.135209 0.409818
vn 0.879913 0.473384 0.040749
vn 0.882646 0.466358 0.058700
vn 0.884275 -0.461973 -0.068111
vn 0.899207 -0.162608 -0.406184
vn 0.898060 -0.151573 -0.412933
vn 0.881442 -0.469749 -0.048947
vn 0.000000 0.000000 1.000000
vn 0.000000 0.000000 1.000000
vn 0.000000 0.000000 1.000000
vn 0.000000 0.000000 1.000000
vn -0.014413 -0.915745 0.401500
vn -0.014413 -0.915745 0.401500
vn -0.014413 -0.915745 0.401500
vn -0.014413 -0.915745 0.401500
vn 0.000000 0.000000 -1.000000
vn 0.000000 0.000000 -1.000000
vn 0.000000 0.000000 -1.000000
vn 0.000000 0.000000 -1.000000
vn -0.999876 0.015741 -0.000003
vn -0.999876 0.015741 -0.000003
vn -0.999876 0.015741 -0.000003
vn 0.999876 -0.015741 0.000003
vn 0.999876 -0.015741 0.000003
vn 0.999876 -0.015741 0.000003
vn 0.999876 -0.015742 -0.000003
vn 0.999876 -0.015742 -0.000003
vn 0.999876 -0.015742 -0.000003
vn -0.014444 -0.917663 -0.397097
vn -0.014444 -0.917663 -0.397097
vn -0.014444 -0.917663 -0.397097
vn -0.014444 -0.917663 -0.397097
vn -0.999876 0.015742 0.000003
vn -0.999876 0.015742 0.000003
vn -0.999876 0.015742 0.000003
vn -0.014180 -0.901014 0.433558
vn -0.014180 -0.901014 0.433558
vn -0.014180 -0.901014 0.433558
vn -0.014180 -0.901014 0.433558
vn 0.999876 -0.015740 0.000003
vn 0.999876 -0.015740 0.000003
vn 0.999876 -0.015740 0.000003
vn -0.999876 0.015740 -0.000003
vn -0.999876 0.015740 -0.000003
vn -0.999876 0.015740 -0.000003
vn -0.014574 -0.925945 0.377378
vn -0.014574 -0.925945 0.377378
vn -0.014574 -0.925945 0.377378
vn -0.014574 -0.925945 0.377378
vn 0.999876 -0.015741 0.000003
vn 0.999876 -0.015741 0.000003
vn 0.999876 -0.015741 0.000003
vn -0.999876 0.015742 -0.000003
vn -0.999876 0.015742 -0.000003
vn -0.999876 0.015742 -0.000003
vn -0.015737 -0.999876 0.000000
vn -0.015737 -0.999876 0.000000
vn -0.015737 -0.999876 0.000000
vn -0.015737 -0.999876 0.000000
vn 0.999876 -0.015739 0.000000
vn 0.999876 -0.015739 0.000000
vn 0.999876 -0.015739 0.000000
vn 0.999876 -0.015739 0.000000
vn 0.015738 0.999876 -0.000000
vn 0.015738 0.999876 -0.000000
vn 0.015738 0.999876 -0.000000
vn 0.015738 0.999876 -0.000000
vn -0.999876 0.015739 -0.000000
vn -0.999876 0.015739 -0.000000
vn -0.999876 0.015739 -0.000000
vn -0.999876 0.015739 -0.000000
vn 0.999876 -0.015739 0.000000
vn 0.999876 -0.015739 0.000000
vn 0.999876 -0.015739 0.000000
vn 0.999876 -0.015739 0.000000
vn -0.015736 -0.999876 0.000000
vn -0.015736 -0.999876 0.000000
vn -0.015736 -0.999876 0.000000
vn -0.015736 -0.999876 0.000000
vn -0.999876 0.015739 -0.000000
vn -0.999876 0.015739 -0.000000
vn -0.999876 0.015739 -0.000000
vn -0.999876 0.015739 -0.000000
vn 0.015738 0.999876 -0.000000
vn 0.015738 0.999876 -0.000000
vn 0.015738 0.999876 -0.000000
vn 0.015738 0.999876 -0.000000
vn -0.014170 -0.900348 0.434940
vn -0.014170 -0.900348 0.434940
vn -0.014170 -0.900348 0.434940
vn -0.014170 -0.900348 0.434940
vn 0.999876 -0.015740 0.000003
vn 0.999876 -0.015740 0.000003
vn 0.999876 -0.015740 0.000003
vn -0.999876 0.015741 -0.000003
vn -0.999876 0.015741 -0.000003
vn -0.999876 0.015741 -0.000003
vn 0.999876 -0.015739 -0.000003
vn 0.999876 -0.015739 -0.000003
vn 0.999876 -0.015739 -0.000003
vn -0.014654 -0.931017 -0.364681
vn -0.014654 -0.931017 -0.364681
vn -0.014654 -0.931017 -0.364681
vn -0.014654 -0.931017 -0.364681
vn -0.999876 0.015739 0.000003
vn -0.999876 0.015739 0.000003
vn -0.999876 0.015739 0.000003
vn 0.999876 -0.015741 -0.000003
vn 0.999876 -0.015741 -0.000003
vn 0.999876 -0.015741 -0.000003
vn -0.014670 -0.932063 -0.361999
vn -0.014670 -0.932063 -0.361999
vn -0.014670 -0.932063 -0.361999
vn -0.014670 -0.932063 -0.361999
vn -0.999876 0.015741 0.000003
vn -0.999876 0.015741 0.000003
vn -0.999876 0.015741 0.000003
vn 0.999876 -0.015740 -0.000003
vn 0.999876 -0.015740 -0.000003
vn 0.999876 -0.015740 -0.000003
vn -0.014496 -0.921077 -0.389112
vn -0.014496 -0.921077 -0.389112
vn -0.014496 -0.921077 -0.389112
vn -0.014496 -0.921077 -0.389112
vn -0.999876 0.015740 0.000003
vn -0.999876 0.015740 0.000003
vn -0.999876 0.015740 0.000003
vn -0.999876 0.015739 -0.000000
vn -0.999876 0.015739 -0.000000
vn -0.999876 0.015739 -0.000000
vn -0.999876 0.015739 -0.000000
vn -0.015736 -0.999876 0.000000
vn -0.015736 -0.999876 0.000000
vn -0.015736 -0.999876 0.000000
vn -0.015736 -0.999876 0.000000
vn 0.999876 -0.015739 0.000000
vn 0.999876 -0.015739 0.000000
vn 0.999876 -0.015739 0.000000
vn 0.999876 -0.015739 0.000000
vn 0.015738 0.999876 -0.000000
vn 0.015738 0.999876 -0.000000
vn 0.015738 0.999876 -0.000000
vn 0.015738 0.999876 -0.000000
vn -0.999876 0.015739 -0.000000
vn -0.999876 0.015739 -0.000000
vn -0.999876 0.015739 -0.000000
vn -0.999876 0.015739 -0.000000
vn -0.015737 -0.999876 0.000000
vn -0.015737 -0.999876 0.000000
vn -0.015737 -0.999876 0.000000
vn -0.015737 -0.999876 0.000000
vn 0.999876 -0.015740 0.000000
vn 0.999876 -0.015739 0.000000
vn 0.999876 -0.015739 0.000000
vn 0.999876 -0.015739 0.000000
vn 0.015739 0.999876 -0.000000
vn 0.015739 0.999876 -0.000000
vn 0.015739 0.999876 -0.000000
vn 0.015739 0.999876 -0.000000
vn -0.999876 0.015739 -0.000000
vn -0.999876 0.015739 -0.000000
vn -0.999876 0.015739 -0.000000
vn -0.999876 0.015739 -0.000000
vn -0.015737 -0.999876 0.000000
vn -0.015737 -0.999876 0.000000
vn -0.015737 -0.999876 0.000000
vn -0.015737 -0.999876 0.000000
vn 0.999876 -0.015739 0.000000
vn 0.999876 -0.015739 0.000000
vn 0.999876 -0.015739 0.000000
vn 0.999876 -0.015739 0.000000
vn 0.015738 0.999876 -0.000000
vn 0.015738 0.999876 -0.000000
vn 0.015738 0.999876 -0.000000
vn 0.015738 0.999876 -0.000000
vn -0.675677 -0.673457 0.299861
vn -0.675677 -0.673457 0.299861
vn -0.675677 -0.673457 0.299861
vn -0.675677 -0.673457 0.299861
vn 0.654142 -0.694392 0.299863
vn 0.654142 -0.694392 0.299863
vn 0.654142 -0.694392 0.299863
vn 0.654142 -0.694392 0.299863
vn -0.676465 -0.674243 -0.296297
vn -0.676465 -0.674243 -0.296297
vn -0.676465 -0.674243 -0.296297
vn -0.676465 -0.674243 -0.296297
vn 0.654906 -0.695201 -0.296300
vn 0.654906 -0.695201 -0.296300
vn 0.654906 -0.695201 -0.296300
vn 0.654906 -0.695201 -0.296300
vn -0.669549 -0.667349 0.326113
vn -0.669549 -0.667349 0.326113
vn -0.669549 -0.667349 0.326113
vn -0.669549 -0.667349 0.326113
vn 0.648210 -0.688094 0.326115
vn 0.648210 -0.688094 0.326115
vn 0.648210 -0.688094 0.326115
vn 0.648210 -0.688094 0.326115
vn -0.679843 -0.677610 0.280460
vn -0.679843 -0.677610 0.280460
vn -0.679843 -0.677610 0.280460
vn -0.679843 -0.677610 0.280460
vn 0.658177 -0.698673 0.280461
vn 0.658177 -0.698673 0.280461
vn 0.658177 -0.698673 0.280461
vn 0.658177 -0.698673 0.280461
vn -0.708268 -0.705943 0.000000
vn -0.708268 -0.705943 0.000000
vn -0.708268 -0.705943 0.000000
vn -0.708268 -0.705943 0.000000
vn -0.006754 -0.429075 -0.903244
vn -0.006754 -0.429075 -0.903244
vn -0.006754 -0.429075 -0.903244
vn -0.006754 -0.429075 -0.903244
vn 0.685693 -0.727891 0.000000
vn 0.685693 -0.727891 0.000000
vn 0.685693 -0.727891 0.000000
vn 0.685693 -0.727891 0.000000
vn -0.009580 -0.608857 0.793222
vn -0.009580 -0.608857 0.793222
vn -0.009580 -0.608857 0.793222
vn -0.009580 -0.608857 0.793222
vn -0.708269 -0.705943 0.000000
vn -0.708269 -0.705943 0.000000
vn -0.708269 -0.705943 0.000000
vn -0.708269 -0.705943 0.000000
vn 0.685693 -0.727890 0.000000
vn 0.685693 -0.727890 0.000000
vn 0.685693 -0.727890 0.000000
vn 0.685693 -0.727890 0.000000
vn -0.669268 -0.667070 0.327257
vn -0.669268 -0.667070 0.327257
vn -0.669268 -0.667070 0.327257
vn -0.669268 -0.667070 0.327257
vn 0.647939 -0.687805 0.327260
vn 0.647939 -0.687805 0.327260
vn 0.647939 -0.687805 0.327260
vn 0.647939 -0.687805 0.327260
vn -0.681893 -0.679652 -0.270360
vn -0.681893 -0.679652 -0.270360
vn -0.681893 -0.679652 -0.270360
vn -0.681893 -0.679652 -0.270360
vn 0.660161 -0.700780 -0.270362
vn 0.660161 -0.700780 -0.270362
vn 0.660161 -0.700780 -0.270362
vn 0.660161 -0.700780 -0.270362
vn -0.682313 -0.680072 -0.268236
vn -0.682313 -0.680072 -0.268236
vn -0.682313 -0.680072 -0.268236
vn -0.682313 -0.680072 -0.268236
vn 0.660568 -0.701212 -0.268237
vn 0.660568 -0.701212 -0.268237
vn 0.660568 -0.701212 -0.268238
vn 0.660568 -0.701212 -0.268237
vn -0.677863 -0.675635 -0.289861
vn -0.677863 -0.675635 -0.289861
vn -0.677863 -0.675635 -0.289861
vn -0.677863 -0.675635 -0.289861
vn 0.656258 -0.696638 -0.289863
vn 0.656258 -0.696638 -0.289863
vn 0.656258 -0.696638 -0.289863
vn 0.656258 -0.696638 -0.289863
vn -0.708268 -0.705943 0.000000
vn -0.708268 -0.705943 0.000000
vn -0.708268 -0.705943 0.000000
vn -0.708268 -0.705943 0.000000
vn 0.685693 -0.727891 0.000000
vn 0.685693 -0.727891 0.000000
vn 0.685693 -0.727891 0.000000
vn 0.685693 -0.727891 0.000000
vn -0.708269 -0.705943 0.000000
vn -0.708269 -0.705943 0.000000
vn -0.708269 -0.705943 0.000000
vn -0.708269 -0.705943 0.000000
vn 0.685693 -0.727891 0.000000
vn 0.685693 -0.727891 0.000000
vn 0.685693 -0.727891 0.000000
vn 0.685693 -0.727891 0.000000
vn -0.708269 -0.705943 0.000000
vn -0.708269 -0.705943 0.000000
vn -0.708269 -0.705943 0.000000
vn -0.708269 -0.705943 0.000000
vn 0.685693 -0.727890 0.000000
vn 0.685693 -0.727890 0.000000
vn 0.685693 -0.727890 0.000000
vn 0.685693 -0.727890 0.000000
vn 0.000000 0.999837 0.018069
vn 0.000000 0.999837 0.018069
vn 0.000000 0.801422 -0.598099
vn 0.000000 0.801422 -0.598099
vn 0.000000 0.871689 0.490060
vn 0.000000 0.999837 0.018069
vn 0.000000 0.999837 0.018069
vn 0.000000 0.871689 0.490060
s off
f 16/1/1 17/2/2 23/3/3 22/4/4
f 23/3/5 17/5/6 18/6/7 24/7/8
f 19/8/9 20/9/10 6/10/11 5/11/12
f 20/9/13 21/12/14 10/13/15 6/10/16
f 22/4/17 23/3/18 8/14/19 7/15/20
f 23/3/21 24/7/22 12/16/23 8/14/24
f 10/13/25 21/12/26 22/4/27 7/15/28
f 24/7/29 18/6/30 13/17/31 19/8/32
f 12/16/33 24/7/34 19/8/35 5/11/36
f 3/18/37 4/19/38 14/20/39 13/21/40
f 9/22/41 15/23/42 14/24/43 4/19/44
f 2/25/45 16/26/46 15/23/47 9/22/48
f 17/2/49 16/1/50 2/27/51 1/28/52
f 18/6/53 17/5/54 1/29/55 11/30/56
f 13/17/57 18/6/58 11/30/59 3/18/60
f 20/9/61 19/8/62 13/21/63 14/20/64
f 21/12/65 20/9/66 14/24/67 15/23/68
f 16/26/69 22/4/70 21/12/71 15/23/72
f 25/31/73 26/32/74 28/33/75 27/34/76
f 65/35/77 66/36/78 67/37/79 68/38/80
f 29/39/81 30/40/82 32/41/83 31/42/84
f 54/43/85 36/44/86 61/45/87
f 62/46/88 33/47/89 53/48/90
f 52/49/91 47/50/92 48/51/93
f 69/52/94 70/53/95 71/54/96 72/55/97
f 49/56/98 50/57/99 51/58/100
f 73/59/101 74/60/102 75/61/103 76/62/104
f 64/63/105 39/64/106 55/65/107
f 56/66/108 40/67/109 63/68/110
f 77/69/111 78/70/112 79/71/113 80/72/114
f 46/73/115 43/74/116 57/75/117
f 58/76/118 44/77/119 45/78/120
f 80/72/121 79/71/122 81/79/123 82/80/124
f 31/42/125 43/74/126 46/73/127 29/39/128
f 31/42/129 32/41/130 44/77/131 43/74/132
f 45/78/133 44/77/134 32/41/135 30/40/136
f 48/51/137 47/50/138 25/31/139 27/34/140
f 83/81/141 84/82/142 70/53/143 69/52/144
f 26/32/145 50/57/146 49/56/147 28/33/148
f 47/50/149 50/57/150 26/32/151 25/31/152
f 72/55/153 71/54/154 85/83/155 86/84/156
f 60/85/157 47/50/158 52/49/159
f 51/58/160 50/57/161 59/86/162
f 53/48/163 33/47/164 34/87/165
f 87/88/166 88/89/167 66/36/168 65/35/169
f 35/90/170 36/44/171 54/43/172
f 55/65/173 39/64/174 38/91/175
f 90/92/176 89/93/177 74/60/178 73/59/179
f 37/94/180 40/67/181 56/66/182
f 57/75/183 43/74/184 42/95/185
f 92/96/186 91/97/187 78/70/188 77/69/189
f 41/98/190 44/77/191 58/76/192
f 59/86/193 50/57/194 36/44/195 35/90/196
f 86/84/197 85/83/198 88/89/199 87/88/200
f 34/87/201 33/47/202 47/50/203 60/85/204
f 33/47/205 36/44/206 50/57/207 47/50/208
f 61/45/209 36/44/210 40/67/211 37/94/212
f 68/38/213 67/37/214 89/93/215 90/92/216
f 38/91/217 39/64/218 33/47/219 62/46/220
f 39/64/221 40/67/222 36/44/223 33/47/224
f 63/68/225 40/67/226 44/77/227 41/98/228
f 76/62/229 75/61/230 91/97/231 92/96/232
f 42/95/233 43/74/234 39/64/235 64/63/236
f 43/74/237 44/77/238 40/67/239 39/64/240
f 54/43/241 61/45/242 67/37/243 66/36/244
f 62/46/245 53/48/246 65/35/247 68/38/248
f 49/56/249 51/58/250 71/54/251 70/53/252
f 52/49/253 48/51/254 69/52/255 72/55/256
f 56/66/257 63/68/258 75/61/259 74/60/260
f 64/63/261 55/65/262 73/59/263 76/62/264
f 58/76/265 45/78/266 79/71/267 78/70/268
f 46/73/269 57/75/270 77/69/271 80/72/272
f 45/78/273 30/40/274 81/79/275 79/71/276
f 30/40/277 29/39/278 82/80/279 81/79/280
f 29/39/281 46/73/282 80/72/283 82/80/284
f 27/34/285 28/33/286 84/82/287 83/81/288
f 28/33/289 49/56/290 70/53/291 84/82/292
f 48/51/293 27/34/294 83/81/295 69/52/296
f 51/58/297 59/86/298 85/83/299 71/54/300
f 60/85/301 52/49/302 72/55/303 86/84/304
f 35/90/305 54/43/306 66/36/307 88/89/308
f 53/48/309 34/87/310 87/88/311 65/35/312
f 37/94/313 56/66/314 74/60/315 89/93/316
f 55/65/317 38/91/318 90/92/319 73/59/320
f 41/98/321 58/76/322 78/70/323 91/97/324
f 57/75/325 42/95/326 92/96/327 77/69/328
f 59/86/329 35/90/330 88/89/331 85/83/332
f 34/87/333 60/85/334 86/84/335 87/88/336
f 61/45/337 37/94/338 89/93/339 67/37/340
f 38/91/341 62/46/342 68/38/343 90/92/344
f 63/68/345 41/98/346 91/97/347 75/61/348
f 42/95/349 64/63/350 76/62/351 92/96/352
f 12/16/353 10/13/354 7/15/355 8/14/356
f 6/10/357 10/13/358 12/16/359 5/11/360
