# This file uses centimeters as units for non-parametric coordinates.

v 0.365225 2.261402 0.570068
v 0.730450 1.953251 1.114410
v 0.365225 1.616009 1.656586
v -0.365225 1.616009 1.656586
v -0.730450 1.953251 1.114410
v -0.365225 2.261402 0.570068
v 0.365225 1.348454 0.182037
v 0.730450 1.104321 0.765625
v 0.365225 0.860188 1.349182
v -0.365225 0.860188 1.349182
v -0.730450 1.104321 0.765625
v -0.365225 1.348454 0.182037
v 0.298962 2.217106 0.675934
v 0.597923 1.953251 1.114410
v 0.597923 1.104321 0.765625
v 0.298962 1.304165 0.287903
v 0.298962 1.660305 1.550690
v 0.298962 0.904484 1.243317
v -0.298962 1.660305 1.550690
v -0.298962 0.904484 1.243317
v -0.597923 1.953251 1.114410
v -0.597923 1.104321 0.765625
v -0.298962 2.217106 0.675934
v -0.298962 1.304165 0.287903
v 0.363487 1.835804 0.391418
v 0.297224 1.779530 0.492279
v -0.298962 1.790920 0.497650
v -0.365225 1.836231 0.392181
v -0.099653 1.304165 0.287903
v -0.099653 1.783375 0.494476
v -0.121742 1.832348 0.390564
v -0.121742 1.348454 0.182037
v 0.099653 1.304165 0.287903
v 0.099653 1.775845 0.491333
v 0.121742 1.828457 0.388947
v 0.121742 1.348454 0.182037
v 0.002010 1.304165 0.287903
v 0.002010 1.671391 0.441559
v 0.002453 1.722218 0.338440
v 0.002453 1.348454 0.182037
v -0.834833 -0.891922 -1.694916
v -0.834835 -0.891922 -0.263123
v -0.834831 1.756031 -1.694916
v -0.834835 1.756031 -0.263123
v 0.834831 1.756031 -1.694916
v 0.834835 1.756031 -0.263123
v 0.834833 -0.891922 -1.694916
v 0.834835 -0.891922 -0.263123
v 0.834835 -0.891922 1.694916
v -0.834835 -0.891922 1.694916
v 0.834835 1.155682 1.694916
v -0.834835 1.155682 1.694916
v 0.594971 1.449009 -1.694916
v 0.594971 1.155682 1.694916
v 0.594971 1.449009 -0.263123
v -0.594971 1.449009 -1.694916
v -0.594971 1.155682 1.694916
v -0.594971 1.449009 -0.263123
v -0.834831 2.180668 -1.694916
v -0.834835 2.180668 -0.263123
v -0.594971 2.180668 -0.263123
v -0.594971 2.180668 -1.694916
v 0.594971 2.180668 -0.263123
v 0.594971 2.180668 -1.694916
v 0.834835 2.180668 -0.263123
v 0.834831 2.180668 -1.694916
v -0.834831 2.503933 -1.271942
v -0.834835 2.530384 -0.508759
v -0.594971 2.530384 -0.508759
v -0.594971 2.503933 -1.271942
v 0.594971 2.530384 -0.508759
v 0.594971 2.503933 -1.271942
v 0.834835 2.530384 -0.508759
v 0.834831 2.503933 -1.271942
vt 0.091010 0.228930
vt 0.091010 0.228930
vt 0.091010 0.228930
vt 0.091010 0.228930
vt 0.091010 0.228930
vt 0.091010 0.228930
vt 0.091010 0.228930
vt 0.091010 0.228930
vt 0.091010 0.228930
vt 0.091010 0.228930
vt 0.091010 0.228930
vt 0.091010 0.228930
vt 0.091010 0.228930
vt 0.091010 0.228930
vt 0.091010 0.228930
vt 0.091010 0.228930
vt 0.091010 0.228930
vt 0.091010 0.228930
vt 0.091010 0.228930
vt 0.091010 0.228930
vt 0.091010 0.228930
vt 0.091010 0.228930
vt 0.091010 0.228930
vt 0.091010 0.228930
vt 0.091010 0.228930
vt 0.091010 0.228930
vt 0.091010 0.228930
vt 0.091010 0.228930
vt 0.091010 0.228930
vt 0.091010 0.228930
vt 0.091010 0.228930
vt 0.091010 0.228930
vt 0.091010 0.228930
vt 0.091010 0.228930
vt 0.091010 0.228930
vt 0.091010 0.228930
vt 0.091010 0.228930
vt 0.091010 0.228930
vt 0.091010 0.228930
vt 0.091010 0.228930
vt 0.091010 0.228930
vt 0.091010 0.228930
vt 0.091010 0.228930
vt 0.091010 0.228930
vt 0.091010 0.228930
vt 0.091010 0.228930
vt 0.091010 0.228930
vt 0.091010 0.228930
vt 0.091010 0.228930
vt 0.091010 0.228930
vt 0.091010 0.228930
vt 0.091010 0.228930
vt 0.091009 0.228930
vt 0.091010 0.228930
vt 0.091009 0.228930
vt 0.091009 0.228930
vt 0.091010 0.228930
vt 0.091010 0.228930
vt 0.091009 0.228930
vt 0.091009 0.228930
vt 0.091010 0.228930
vt 0.091010 0.228930
vt 0.091009 0.228930
vt 0.091009 0.228930
vt 0.091010 0.228930
vt 0.091010 0.228930
vt 0.091010 0.228930
vt 0.091010 0.228930
vt 0.091010 0.228930
vt 0.091010 0.228930
vt 0.091009 0.228930
vt 0.091010 0.228930
vt 0.091010 0.228930
vt 0.091010 0.228930
vt 0.091010 0.228930
vt 0.091010 0.228930
vt 0.091010 0.228930
vt 0.091009 0.228930
vt 0.091009 0.228930
vt 0.091009 0.228930
vt 0.091010 0.228930
vt 0.091010 0.228930
vt 0.091010 0.228930
vt 0.091010 0.228930
vt 0.091010 0.228930
vt 0.091010 0.228930
vt 0.091010 0.228930
vt 0.091010 0.228930
vt 0.091010 0.228930
vt 0.091010 0.228930
vt 0.091010 0.228930
vt 0.091010 0.228930
vt 0.091010 0.228930
vt 0.091010 0.228930
vt 0.091010 0.228930
vt 0.091010 0.228930
vt 0.091010 0.228930
vt 0.091010 0.228930
vt 0.091010 0.228930
vt 0.091010 0.228930
vt 0.091009 0.228930
vt 0.091009 0.228930
vt 0.091009 0.228930
vt 0.091009 0.228930
vt 0.091010 0.228930
vt 0.091010 0.228930
vt 0.091010 0.228930
vt 0.091010 0.228930
vt 0.091009 0.228930
vt 0.091009 0.228930
vt 0.091010 0.228930
vt 0.091010 0.228930
vt 0.091010 0.228930
vt 0.091010 0.228930
vt 0.091010 0.228930
vt 0.091010 0.228930
vt 0.091010 0.228930
vt 0.091010 0.228930
vt 0.091010 0.228930
vt 0.091010 0.228930
vt 0.091010 0.228930
vt 0.091010 0.228930
vt 0.091010 0.228930
vt 0.091010 0.228930
vt 0.091010 0.228930
vt 0.091010 0.228930
vn -0.866008 -0.200169 0.458217
vn -0.866008 -0.200169 0.458217
vn -0.866008 -0.200169 0.458217
vn -0.865365 0.189667 -0.463864
vn -0.865365 0.189667 -0.463864
vn -0.865365 0.189667 -0.463864
vn -0.865365 0.189667 -0.463864
vn 0.000000 0.376714 -0.926329
vn 0.000000 0.376714 -0.926329
vn 0.000000 0.376714 -0.926329
vn 0.000000 0.376714 -0.926329
vn 0.865365 0.189667 -0.463864
vn 0.865365 0.189667 -0.463863
vn 0.865365 0.189667 -0.463864
vn 0.865365 0.189667 -0.463863
vn 0.861821 -0.193756 0.468746
vn 0.861821 -0.193756 0.468746
vn 0.861821 -0.193756 0.468746
vn 0.861821 -0.193756 0.468746
vn 0.866002 0.199990 -0.458305
vn 0.866002 0.199990 -0.458305
vn 0.866002 0.199990 -0.458305
vn 0.865485 -0.189596 0.463669
vn 0.865485 -0.189596 0.463669
vn 0.865485 -0.189596 0.463669
vn 0.865485 -0.189596 0.463669
vn 0.000000 -0.376746 0.926316
vn 0.000000 -0.376746 0.926316
vn 0.000000 -0.376746 0.926316
vn 0.000000 -0.376746 0.926316
vn -0.865485 -0.189596 0.463669
vn -0.865485 -0.189596 0.463669
vn -0.865485 -0.189596 0.463669
vn -0.865485 -0.189596 0.463669
vn -0.866015 0.197838 -0.459214
vn -0.866015 0.197838 -0.459214
vn -0.866015 0.197838 -0.459214
vn 0.056309 0.878982 0.473519
vn 0.056309 0.878982 0.473519
vn 0.056309 0.878982 0.473519
vn 0.056309 0.878982 0.473519
vn -0.076048 0.860987 0.502909
vn -0.076048 0.860987 0.502909
vn -0.076048 0.860987 0.502909
vn -0.076048 0.860987 0.502909
vn 0.000000 0.922542 0.385897
vn 0.000000 0.922542 0.385897
vn 0.000000 0.922542 0.385897
vn 0.000000 0.922542 0.385897
vn 0.076048 0.860987 0.502909
vn 0.076048 0.860987 0.502909
vn 0.076048 0.860987 0.502909
vn 0.076048 0.860987 0.502909
vn -0.056309 0.878982 0.473519
vn -0.056309 0.878982 0.473519
vn -0.056309 0.878982 0.473519
vn -0.056309 0.878982 0.473519
vn 0.861979 0.192841 -0.468833
vn 0.861979 0.192841 -0.468833
vn 0.861979 0.192841 -0.468833
vn 0.861979 0.192841 -0.468833
vn -0.861092 -0.193442 0.470214
vn -0.861092 -0.193442 0.470214
vn -0.861092 -0.193442 0.470214
vn -0.861092 -0.193442 0.470214
vn 0.866022 -0.197869 0.459188
vn 0.866022 -0.197869 0.459188
vn 0.866022 -0.197869 0.459189
vn -0.862598 0.193258 -0.467521
vn -0.862598 0.193258 -0.467521
vn -0.862598 0.193258 -0.467521
vn -0.862598 0.193258 -0.467521
vn 0.001483 -0.395497 0.918466
vn 0.001483 -0.395497 0.918466
vn 0.001483 -0.395497 0.918466
vn 0.001483 -0.395497 0.918466
vn -0.001306 0.395288 -0.918556
vn -0.001306 0.395288 -0.918556
vn -0.001306 0.395288 -0.918556
vn -0.001306 0.395288 -0.918556
vn -0.025849 0.885812 0.463323
vn -0.025849 0.885812 0.463323
vn -0.025849 0.885812 0.463323
vn -0.025849 0.885812 0.463323
vn -0.866095 0.196427 -0.459670
vn -0.866095 0.196427 -0.459670
vn -0.866095 0.196426 -0.459669
vn -0.866095 0.196427 -0.459669
vn 0.866027 0.192971 -0.461259
vn 0.866027 0.192971 -0.461259
vn 0.866027 0.192971 -0.461259
vn 0.866027 0.192971 -0.461259
vn -0.000180 -0.395794 0.918339
vn -0.000180 -0.395794 0.918339
vn -0.000180 -0.395794 0.918339
vn -0.000180 -0.395794 0.918339
vn 0.027973 0.915829 0.400593
vn 0.027973 0.915829 0.400593
vn 0.027973 0.915829 0.400593
vn 0.027973 0.915829 0.400593
vn 0.000105 0.395707 -0.918377
vn 0.000105 0.395707 -0.918377
vn 0.000105 0.395707 -0.918377
vn 0.000105 0.395707 -0.918377
vn -0.025023 -0.391530 0.919825
vn -0.025023 -0.391530 0.919825
vn -0.025023 -0.391530 0.919825
vn -0.025023 -0.391530 0.919825
vn -0.731214 0.638145 0.241034
vn -0.731214 0.638145 0.241034
vn -0.731214 0.638145 0.241034
vn -0.731214 0.638145 0.241034
vn 0.020428 0.391479 -0.919960
vn 0.020428 0.391479 -0.919960
vn 0.020428 0.391479 -0.919960
vn 0.020428 0.391479 -0.919960
vn 0.023791 -0.391485 0.919877
vn 0.023791 -0.391485 0.919877
vn 0.023791 -0.391485 0.919877
vn 0.023791 -0.391485 0.919877
vn 0.734690 0.637966 0.230716
vn 0.734691 0.637965 0.230716
vn 0.734691 0.637965 0.230716
vn 0.734691 0.637965 0.230716
vn -0.019497 0.391452 -0.919992
vn -0.019497 0.391452 -0.919992
vn -0.019497 0.391452 -0.919992
vn -0.019497 0.391452 -0.919992
vn -1.000000 0.000000 -0.000002
vn -1.000000 0.000000 -0.000002
vn -1.000000 0.000000 -0.000002
vn -1.000000 0.000000 -0.000002
vn 0.000000 0.999400 -0.034638
vn 0.000000 0.999400 -0.034638
vn 0.000000 0.999400 -0.034638
vn 0.000000 0.999400 -0.034638
vn 1.000000 0.000000 -0.000002
vn 1.000000 0.000000 -0.000002
vn 1.000000 0.000000 -0.000002
vn 1.000000 0.000000 -0.000002
vn 0.000000 0.000000 1.000000
vn 0.000000 0.000000 1.000000
vn 0.000000 0.000000 1.000000
vn -0.000001 0.000000 -1.000000
vn -0.000001 0.000000 -1.000000
vn -0.000001 0.000000 -1.000000
vn 1.000000 0.000000 0.000000
vn 1.000000 0.000000 0.000000
vn 1.000000 0.000000 0.000000
vn 1.000000 0.000000 0.000000
vn 0.529358 0.827134 0.188758
vn 0.529358 0.827134 0.188758
vn 0.529358 0.827134 0.188758
vn 0.529358 0.827134 0.188758
vn -1.000000 0.000000 0.000000
vn -1.000000 0.000000 0.000000
vn -1.000000 0.000000 0.000000
vn -1.000000 0.000000 0.000000
vn 0.000000 0.000000 -1.000000
vn 0.000000 0.000000 -1.000000
vn 0.000000 0.000000 -1.000000
vn 0.000000 0.000000 1.000000
vn 0.000000 0.000000 1.000000
vn 0.000000 0.000000 1.000000
vn -0.529358 0.827134 0.188758
vn -0.529358 0.827134 0.188758
vn -0.529358 0.827134 0.188758
vn -0.529358 0.827134 0.188758
vn 0.000000 0.999400 -0.034638
vn 0.000000 0.999400 -0.034638
vn 0.000000 0.999400 -0.034638
vn 0.000000 0.999400 -0.034638
vn 0.000000 0.000000 -1.000000
vn 0.000000 0.000000 -1.000000
vn 0.000000 0.000000 -1.000000
vn 0.000000 0.000000 -1.000000
vn 0.000000 -1.000000 -0.000000
vn 0.000000 -1.000000 -0.000000
vn 0.000000 -1.000000 -0.000000
vn 0.000000 -1.000000 -0.000000
vn 0.000000 -1.000000 0.000000
vn 0.000000 -1.000000 0.000000
vn 0.000000 -1.000000 0.000000
vn 0.000000 -1.000000 0.000000
vn 0.000000 0.000000 1.000000
vn 0.000000 0.000000 1.000000
vn 0.000000 0.000000 1.000000
vn 0.000000 0.000000 1.000000
vn 0.000000 0.988964 0.148154
vn 0.000000 0.988964 0.148154
vn 0.000000 0.988964 0.148154
vn 0.000000 0.988964 0.148154
vn 0.000000 1.000000 0.000000
vn 0.000000 1.000000 0.000000
vn 0.000000 1.000000 0.000000
vn 0.000000 1.000000 0.000000
vn -1.000000 0.000000 -0.000003
vn -1.000000 0.000000 -0.000003
vn -1.000000 0.000000 -0.000003
vn -1.000000 0.000000 -0.000003
vn 0.000000 0.000000 1.000000
vn 0.000000 0.000000 1.000000
vn 0.000000 0.000000 1.000000
vn 0.000000 0.000000 1.000000
vn 1.000000 0.000000 0.000000
vn 1.000000 0.000000 0.000000
vn 1.000000 0.000000 0.000000
vn 1.000000 0.000000 0.000000
vn 0.000000 0.000000 -1.000000
vn 0.000000 0.000000 -1.000000
vn 0.000000 0.000000 -1.000000
vn 0.000000 0.000000 -1.000000
vn -1.000000 0.000000 0.000000
vn -1.000000 0.000000 0.000000
vn -1.000000 0.000000 0.000000
vn -1.000000 0.000000 0.000000
vn 0.000000 0.000000 1.000000
vn 0.000000 0.000000 1.000000
vn 0.000000 0.000000 1.000000
vn 0.000000 0.000000 1.000000
vn 1.000000 0.000000 -0.000003
vn 1.000000 0.000000 -0.000003
vn 1.000000 0.000000 -0.000003
vn 1.000000 0.000000 -0.000003
vn 0.000000 0.000000 -1.000000
vn 0.000000 0.000000 -1.000000
vn 0.000000 0.000000 -1.000000
vn 0.000000 0.000000 -1.000000
vn -1.000000 0.000001 -0.000003
vn -1.000000 0.000001 -0.000003
vn -1.000000 0.000001 -0.000003
vn -1.000000 0.000001 -0.000003
vn 0.000000 0.574773 0.818313
vn 0.000000 0.574773 0.818313
vn 0.000000 0.574773 0.818313
vn 0.000000 0.574773 0.818313
vn 1.000000 0.000000 0.000000
vn 1.000000 0.000000 0.000000
vn 1.000000 0.000000 0.000000
vn 1.000000 0.000000 0.000000
vn 0.000000 0.794526 -0.607230
vn 0.000000 0.794526 -0.607230
vn 0.000000 0.794526 -0.607230
vn 0.000000 0.794526 -0.607230
vn -1.000000 0.000000 0.000000
vn -1.000000 0.000000 0.000000
vn -1.000000 0.000000 0.000000
vn -1.000000 0.000000 0.000000
vn 0.000000 0.574773 0.818313
vn 0.000000 0.574773 0.818313
vn 0.000000 0.574773 0.818313
vn 0.000000 0.574773 0.818313
vn 1.000000 0.000001 -0.000004
vn 1.000000 0.000001 -0.000004
vn 1.000000 0.000001 -0.000004
vn 1.000000 0.000001 -0.000004
vn 0.000000 0.794526 -0.607230
vn 0.000000 0.794526 -0.607230
vn 0.000000 0.794526 -0.607230
vn 0.000000 0.794526 -0.607230
s off
f 26/1/1 16/2/2 15/3/3
f 14/4/4 15/3/5 18/5/6 17/6/7
f 17/7/8 18/8/9 20/9/10 19/10/11
f 19/11/12 20/12/13 22/13/14 21/14/15
f 21/14/16 22/13/17 27/15/18 23/16/19
f 8/17/20 7/18/21 25/19/22
f 2/20/23 3/21/24 9/22/25 8/17/26
f 3/23/27 4/24/28 10/25/29 9/26/30
f 4/27/31 5/28/32 11/29/33 10/30/34
f 28/31/35 12/32/36 11/29/37
f 1/33/38 13/34/39 14/4/40 2/35/41
f 2/35/42 14/4/43 17/6/44 3/36/45
f 3/37/46 17/7/47 19/10/48 4/38/49
f 4/39/50 19/11/51 21/14/52 5/40/53
f 5/40/54 21/14/55 23/16/56 6/41/57
f 1/42/58 2/20/59 8/17/60 25/19/61
f 13/34/62 26/1/63 15/3/64 14/4/65
f 22/13/66 24/43/67 27/15/68
f 5/28/69 6/44/70 28/31/71 11/29/72
f 33/45/73 16/46/74 26/47/75 34/48/76
f 35/49/77 25/50/78 7/51/79 36/52/80
f 35/53/81 34/54/82 26/55/83 25/56/84
f 25/57/85 26/58/86 13/59/87 1/60/88
f 6/61/89 23/62/90 27/63/91 28/64/92
f 24/65/93 29/66/94 30/67/95 27/68/96
f 28/69/97 27/70/98 30/71/99 31/72/100
f 28/73/101 31/74/102 32/75/103 12/76/104
f 37/77/105 33/45/106 34/48/107 38/78/108
f 39/79/109 38/80/110 34/54/111 35/53/112
f 39/81/113 35/49/114 36/52/115 40/82/116
f 29/66/117 37/77/118 38/78/119 30/67/120
f 31/72/121 30/71/122 38/80/123 39/79/124
f 31/74/125 39/81/126 40/82/127 32/75/128
f 41/83/129 42/84/130 44/85/131 43/86/132
f 67/87/133 68/88/134 69/89/135 70/90/136
f 45/91/137 46/92/138 48/93/139 47/94/140
f 50/97/141 57/98/142 52/99/143
f 41/83/144 43/86/145 56/100/146
f 48/101/147 46/102/148 51/103/149 49/104/150
f 58/105/151 44/85/152 52/99/153 57/98/154
f 44/85/155 42/84/156 50/97/157 52/99/158
f 47/106/159 53/107/160 45/108/161
f 54/109/162 49/104/163 51/103/164
f 46/102/165 55/110/166 54/109/167 51/103/168
f 72/111/169 71/112/170 73/113/171 74/114/172
f 47/106/173 41/83/174 56/100/175 53/107/176
f 47/94/177 48/93/178 42/96/179 41/95/180
f 50/97/181 42/84/182 48/101/183 49/104/184
f 57/98/185 50/97/186 49/104/187 54/109/188
f 55/110/189 58/105/190 57/98/191 54/109/192
f 56/115/193 58/116/194 55/117/195 53/118/196
f 43/86/197 44/85/198 60/119/199 59/120/200
f 44/85/201 58/116/202 61/121/203 60/119/204
f 58/116/205 56/115/206 62/122/207 61/121/208
f 56/115/209 43/86/210 59/120/211 62/122/212
f 53/118/213 55/117/214 63/123/215 64/124/216
f 55/117/217 46/92/218 65/125/219 63/123/220
f 46/92/221 45/91/222 66/126/223 65/125/224
f 45/91/225 53/118/226 64/124/227 66/126/228
f 59/120/229 60/119/230 68/88/231 67/87/232
f 60/119/233 61/121/234 69/89/235 68/88/236
f 61/121/237 62/122/238 70/90/239 69/89/240
f 62/122/241 59/120/242 67/87/243 70/90/244
f 64/124/245 63/123/246 71/112/247 72/111/248
f 63/123/249 65/125/250 73/113/251 71/112/252
f 65/125/253 66/126/254 74/114/255 73/113/256
f 66/126/257 64/124/258 72/111/259 74/114/260
