# This file uses centimeters as units for non-parametric coordinates.

v -1.802668 -3.138905 -3.211136
v -1.802667 -3.798882 1.844940
v -1.802668 -7.722055 -5.383163
v -1.802667 -8.444510 0.264481
v -1.802668 -9.620798 -6.294525
v -1.802667 -10.995714 -0.474594
v -1.802668 -10.884161 -6.251266
v -1.802667 -12.037893 -0.969604
v -0.799089 -3.138905 -4.295883
v -0.799089 -7.722055 -6.467911
v -0.799089 -9.490618 -7.371414
v -0.799089 -10.753981 -7.328171
v -1.017711 -4.231140 2.637802
v -1.017711 -8.570368 1.337326
v -1.017711 -11.135843 0.797836
v -1.017711 -12.574984 0.340897
v 1.802668 -3.138905 -3.211136
v 1.802667 -3.798882 1.844940
v 1.802668 -7.722055 -5.383163
v 1.802668 -8.444510 0.264481
v 1.802668 -9.620798 -6.294510
v 1.802667 -10.995714 -0.474594
v 1.802668 -10.884161 -6.251266
v 1.802668 -12.037893 -0.969604
v 0.799089 -3.138905 -4.295883
v 0.799089 -7.722055 -6.467911
v 0.799089 -9.490618 -7.371414
v 0.799089 -10.753981 -7.328171
v 1.017711 -4.231140 2.637802
v 1.017711 -8.570368 1.337326
v 1.017711 -11.135843 0.797836
v 1.017711 -12.574984 0.340897
v -1.802668 -3.275578 -2.752213
v -1.802667 -3.694777 1.293991
v -1.802668 -7.641668 -4.776627
v -1.802667 -8.100550 -0.234467
v -1.802668 -9.881758 -5.739349
v -1.802667 -10.316660 -0.917969
v -1.802667 -10.938471 -1.517090
v 1.802668 -3.275578 -2.752213
v 1.802667 -3.694777 1.293991
v 1.802668 -8.100550 -0.234467
v 1.802668 -7.641668 -4.776627
v 1.802668 -10.597406 -1.182999
v 1.802668 -9.970385 -5.819016
v 1.802668 -11.219217 -1.782120
v -2.160963 -3.301830 -2.494659
v -2.160963 -3.679108 0.962769
v -2.160963 -7.614389 -4.417038
v -2.160963 -8.027384 -0.519394
v -2.160964 -9.566324 -5.098999
v -2.160963 -9.932760 -1.159531
v -2.160963 -10.554571 -1.758652
v 2.160963 -3.301830 -2.494659
v 2.160963 -3.679108 0.962769
v 2.160963 -8.027384 -0.519394
v 2.160963 -7.614389 -4.417053
v 2.160963 -10.204134 -1.309647
v 2.160963 -9.739359 -5.274780
v 2.160963 -10.825945 -1.908768
v -2.160963 0.317614 1.788666
v -2.160963 0.420576 -1.721756
v -1.802667 1.088267 -2.514505
v -0.799089 0.394003 -3.702072
v -1.017711 0.334885 3.662323
v -1.802667 1.089552 3.017250
v 2.160963 0.420576 -1.721756
v 2.160963 0.361820 1.778259
v 0.799089 0.394003 -3.702072
v 1.802668 1.088267 -2.514505
v 1.802667 1.089552 3.017242
v 1.017711 0.334885 3.662323
v -1.802667 1.167326 2.329208
v -1.802667 1.288956 -1.953201
v 1.802668 1.322634 -1.986221
v 1.802667 1.286617 2.262772
vt 0.078575 0.255966
vt 0.078576 0.255966
vt 0.078575 0.255965
vt 0.078575 0.255965
vt 0.078576 0.255965
vt 0.078576 0.255965
vt 0.078576 0.255965
vt 0.078575 0.255965
vt 0.078575 0.255965
vt 0.090908 0.227840
vt 0.090908 0.227840
vt 0.090908 0.227840
vt 0.090908 0.227840
vt 0.090908 0.227840
vt 0.090908 0.227840
vt 0.090908 0.227840
vt 0.090908 0.227840
vt 0.090908 0.227840
vt 0.090908 0.227840
vt 0.090908 0.227840
vt 0.090908 0.227840
vt 0.090908 0.227840
vt 0.090908 0.227840
vt 0.090908 0.227840
vt 0.090908 0.227840
vt 0.090908 0.227840
vt 0.090908 0.227840
vt 0.090908 0.227840
vt 0.090908 0.227840
vt 0.090908 0.227840
vt 0.090908 0.227840
vt 0.090908 0.227840
vt 0.090908 0.227840
vt 0.090908 0.227840
vt 0.090908 0.227840
vt 0.090908 0.227840
vt 0.090908 0.227840
vt 0.090908 0.227840
vt 0.090908 0.227840
vt 0.090907 0.227840
vt 0.090908 0.227840
vt 0.090908 0.227840
vt 0.078575 0.255966
vt 0.078575 0.255965
vt 0.078576 0.255965
vt 0.078576 0.255966
vt 0.078576 0.255965
vt 0.078576 0.255965
vt 0.078575 0.255965
vt 0.078576 0.255965
vt 0.078575 0.255965
vt 0.090908 0.227840
vt 0.090908 0.227840
vt 0.090908 0.227840
vt 0.090908 0.227840
vt 0.090908 0.227840
vt 0.090908 0.227840
vt 0.090908 0.227840
vt 0.090908 0.227840
vt 0.090908 0.227840
vt 0.090908 0.227840
vt 0.090908 0.227840
vt 0.090908 0.227840
vt 0.090908 0.227840
vt 0.090908 0.227840
vt 0.090908 0.227840
vt 0.090908 0.227840
vt 0.090908 0.227840
vt 0.090908 0.227840
vt 0.090907 0.227840
vt 0.090908 0.227840
vt 0.090908 0.227840
vt 0.090908 0.227840
vt 0.090908 0.227840
vt 0.090908 0.227840
vt 0.090908 0.227840
vt 0.090908 0.227840
vt 0.090908 0.227840
vt 0.090908 0.227840
vt 0.090908 0.227840
vt 0.090908 0.227840
vt 0.090908 0.227840
vt 0.090908 0.227840
vt 0.090908 0.227840
vt 0.090908 0.227840
vt 0.090908 0.227840
vt 0.090908 0.227840
vt 0.078576 0.255966
vt 0.078575 0.255965
vt 0.078575 0.255965
vt 0.078575 0.255966
vt 0.078576 0.255965
vt 0.078576 0.255965
vt 0.078576 0.255965
vt 0.078575 0.255965
vt 0.078575 0.255965
vt 0.078575 0.255965
vt 0.078575 0.255965
vt 0.078575 0.255966
vt 0.078575 0.255965
vt 0.078575 0.255965
vt 0.078576 0.255966
vt 0.078576 0.255965
vt 0.078576 0.255965
vt 0.078575 0.255965
vt 0.078576 0.255965
vt 0.078575 0.255965
vt 0.078575 0.255965
vt 0.090907 0.227840
vt 0.090908 0.227840
vt 0.090907 0.227840
vt 0.090908 0.227840
vt 0.090908 0.227840
vt 0.090907 0.227840
vt 0.090907 0.227840
vt 0.090907 0.227840
vt 0.090908 0.227840
vt 0.090908 0.227840
vt 0.090908 0.227840
vt 0.090908 0.227840
vn -1.000000 0.000000 0.000000
vn -1.000000 0.000000 0.000000
vn -1.000000 0.000000 0.000000
vn -1.000000 0.000000 0.000000
vn -1.000000 0.000000 0.000000
vn -1.000000 0.000000 0.000000
vn -1.000000 0.000000 0.000000
vn -1.000000 0.000000 0.000000
vn -1.000000 -0.000000 0.000000
vn -1.000000 -0.000000 0.000000
vn -1.000000 -0.000000 0.000000
vn -1.000000 -0.000000 0.000000
vn -1.000000 0.000000 0.000000
vn -1.000000 0.000000 0.000000
vn -1.000000 0.000000 0.000000
vn -0.727403 0.112566 -0.676915
vn -0.727403 0.112566 -0.676914
vn -0.727403 0.112566 -0.676915
vn -0.727403 0.112566 -0.676915
vn -0.698740 0.306365 -0.646455
vn -0.698740 0.306365 -0.646454
vn -0.698740 0.306365 -0.646455
vn -0.698740 0.306365 -0.646454
vn -0.704977 0.314570 -0.635652
vn -0.704977 0.314570 -0.635652
vn -0.704977 0.314570 -0.635652
vn -0.704977 0.314570 -0.635652
vn -0.729960 -0.023385 -0.683090
vn -0.729960 -0.023385 -0.683090
vn -0.729960 -0.023385 -0.683089
vn -0.729960 -0.023385 -0.683090
vn 0.000000 0.428257 -0.903657
vn 0.000000 0.428257 -0.903657
vn 0.000000 0.428257 -0.903657
vn 0.000000 0.428257 -0.903657
vn 0.000000 0.454940 -0.890522
vn 0.000000 0.454940 -0.890522
vn 0.000000 0.454940 -0.890522
vn 0.000000 0.454940 -0.890522
vn 0.000000 -0.034209 -0.999415
vn 0.000000 -0.034209 -0.999415
vn 0.000000 -0.034209 -0.999415
vn 0.000000 -0.034209 -0.999415
vn -0.728451 -0.155058 0.667320
vn -0.728451 -0.155058 0.667320
vn -0.728451 -0.155058 0.667320
vn -0.728451 -0.155058 0.667320
vn -0.778465 -0.191653 0.597713
vn -0.778465 -0.191653 0.597713
vn -0.778465 -0.191653 0.597713
vn -0.778465 -0.191653 0.597713
vn -0.830401 -0.135072 0.540546
vn -0.830401 -0.135072 0.540546
vn -0.830401 -0.135072 0.540546
vn -0.830401 -0.135072 0.540546
vn -0.860704 -0.182357 0.475326
vn -0.860704 -0.182357 0.475326
vn -0.860704 -0.182357 0.475326
vn -0.860704 -0.182357 0.475326
vn 0.000000 -0.218936 0.975739
vn 0.000000 -0.218936 0.975739
vn 0.000000 -0.218936 0.975739
vn 0.000000 -0.218936 0.975739
vn 0.000000 -0.972948 -0.231024
vn 0.000000 -0.972948 -0.231024
vn 0.000000 -0.972948 -0.231024
vn 0.000000 -0.972948 -0.231024
vn -0.188493 -0.956450 -0.222875
vn -0.188493 -0.956450 -0.222875
vn -0.188493 -0.956450 -0.222875
vn -0.188493 -0.956450 -0.222875
vn 1.000000 0.000000 -0.000000
vn 1.000000 0.000000 -0.000000
vn 1.000000 0.000000 -0.000000
vn 1.000000 0.000000 -0.000000
vn 1.000000 0.000000 -0.000000
vn 1.000000 0.000000 -0.000000
vn 1.000000 0.000000 -0.000000
vn 1.000000 0.000000 -0.000000
vn 1.000000 -0.000000 0.000000
vn 1.000000 -0.000000 0.000000
vn 1.000000 -0.000000 0.000000
vn 1.000000 -0.000000 0.000000
vn 1.000000 0.000000 0.000000
vn 1.000000 0.000000 0.000000
vn 1.000000 0.000000 0.000000
vn 0.727404 0.112566 -0.676914
vn 0.727404 0.112566 -0.676914
vn 0.727403 0.112566 -0.676914
vn 0.727404 0.112566 -0.676914
vn 0.698740 0.306365 -0.646455
vn 0.698740 0.306365 -0.646454
vn 0.698740 0.306365 -0.646455
vn 0.698740 0.306365 -0.646454
vn 0.704980 0.314566 -0.635650
vn 0.704980 0.314566 -0.635650
vn 0.704980 0.314566 -0.635651
vn 0.704980 0.314566 -0.635650
vn 0.729963 -0.023381 -0.683087
vn 0.729963 -0.023381 -0.683087
vn 0.729963 -0.023381 -0.683087
vn 0.729963 -0.023381 -0.683087
vn 0.000000 0.165755 -0.986167
vn 0.000000 0.165755 -0.986167
vn 0.000000 0.165755 -0.986167
vn 0.000000 0.165755 -0.986167
vn 0.728453 -0.155057 0.667318
vn 0.728453 -0.155057 0.667318
vn 0.728453 -0.155057 0.667318
vn 0.728453 -0.155057 0.667319
vn 0.778465 -0.191653 0.597713
vn 0.778465 -0.191653 0.597713
vn 0.778465 -0.191653 0.597713
vn 0.778465 -0.191653 0.597713
vn 0.830401 -0.135072 0.540546
vn 0.830401 -0.135072 0.540546
vn 0.830401 -0.135072 0.540546
vn 0.830401 -0.135072 0.540546
vn 0.860704 -0.182357 0.475326
vn 0.860704 -0.182357 0.475325
vn 0.860704 -0.182357 0.475325
vn 0.860704 -0.182357 0.475326
vn 0.000000 -0.287086 0.957905
vn 0.000000 -0.287086 0.957905
vn 0.000000 -0.287086 0.957905
vn 0.000000 -0.287086 0.957905
vn 0.000000 -0.205788 0.978597
vn 0.000000 -0.205788 0.978597
vn 0.000000 -0.205788 0.978597
vn 0.000000 -0.205788 0.978597
vn 0.000000 -0.302621 0.953111
vn 0.000000 -0.302621 0.953111
vn 0.000000 -0.302621 0.953111
vn 0.000000 -0.302621 0.953111
vn 0.188493 -0.956450 -0.222875
vn 0.188493 -0.956450 -0.222875
vn 0.188493 -0.956450 -0.222875
vn 0.188493 -0.956450 -0.222875
vn -1.000000 0.000000 0.000000
vn -1.000000 0.000000 0.000000
vn -1.000000 0.000000 0.000000
vn -1.000000 0.000000 0.000000
vn -1.000000 0.000000 -0.000000
vn -1.000000 0.000000 -0.000000
vn -1.000000 0.000000 -0.000000
vn -1.000000 0.000000 -0.000000
vn -1.000000 -0.000000 0.000000
vn -1.000000 -0.000000 0.000000
vn -1.000000 -0.000000 0.000000
vn -1.000000 -0.000000 0.000000
vn -1.000000 0.000000 0.000000
vn -1.000000 0.000000 0.000000
vn -1.000000 0.000000 0.000000
vn -1.000000 0.000000 0.000000
vn -1.000000 0.000000 0.000000
vn -1.000000 0.000000 0.000000
vn -1.000000 0.000000 0.000000
vn -1.000000 0.000000 0.000000
vn -1.000000 -0.000000 0.000000
vn -1.000000 -0.000000 0.000000
vn -1.000000 -0.000000 0.000000
vn -1.000000 -0.000000 0.000000
vn -1.000000 0.000000 0.000000
vn -1.000000 0.000000 0.000000
vn -1.000000 0.000000 0.000000
vn -1.000000 0.000000 0.000000
vn -1.000000 0.000000 0.000000
vn -1.000000 0.000000 0.000000
vn -1.000000 0.000000 0.000000
vn -1.000000 0.000000 0.000000
vn -1.000000 0.000000 0.000000
vn -1.000000 0.000000 0.000000
vn -1.000000 0.000000 0.000000
vn 1.000000 0.000000 0.000000
vn 1.000000 0.000000 0.000000
vn 1.000000 0.000000 0.000000
vn 1.000000 0.000000 0.000000
vn 1.000000 0.000000 0.000000
vn 1.000000 0.000000 0.000000
vn 1.000000 0.000000 0.000000
vn 1.000000 0.000000 0.000000
vn 1.000000 0.000000 0.000000
vn 1.000000 0.000000 0.000000
vn 1.000000 0.000000 0.000000
vn 1.000000 0.000000 0.000000
vn 1.000000 -0.000000 0.000000
vn 1.000000 -0.000000 0.000000
vn 1.000000 -0.000000 0.000000
vn 1.000000 -0.000000 0.000000
vn 1.000000 -0.000000 0.000000
vn 1.000000 -0.000000 0.000000
vn 1.000000 -0.000000 0.000000
vn 1.000000 -0.000000 0.000000
vn 1.000000 0.000000 0.000000
vn 1.000000 0.000000 0.000000
vn 1.000000 0.000000 0.000000
vn 1.000000 0.000000 0.000000
vn 1.000000 0.000000 0.000000
vn 1.000000 0.000000 0.000000
vn 1.000000 0.000000 0.000000
vn 1.000000 0.000000 0.000000
vn 1.000000 0.000000 0.000000
vn 1.000000 0.000000 0.000000
vn 1.000000 0.000000 0.000000
vn 1.000000 0.000000 0.000000
vn 1.000000 0.000000 0.000000
vn 1.000000 0.000000 0.000000
vn 1.000000 0.000000 0.000000
vn -0.689229 -0.148965 0.709065
vn -0.689229 -0.148965 0.709065
vn -0.689229 -0.148965 0.709065
vn -0.689229 -0.148965 0.709065
vn -0.670238 0.138308 -0.729145
vn -0.670238 0.138308 -0.729145
vn -0.670238 0.138308 -0.729145
vn -0.670238 0.138308 -0.729145
vn -0.616677 0.325886 -0.716594
vn -0.616677 0.325886 -0.716594
vn -0.616678 0.325886 -0.716594
vn -0.616677 0.325886 -0.716594
vn -0.649153 -0.247378 0.719308
vn -0.649153 -0.247378 0.719308
vn -0.649153 -0.247378 0.719308
vn -0.649153 -0.247378 0.719308
vn -0.747215 0.242727 -0.618671
vn -0.747215 0.242727 -0.618671
vn -0.747215 0.242727 -0.618671
vn -0.747215 0.242727 -0.618671
vn -0.666721 -0.227896 0.709611
vn -0.666721 -0.227896 0.709611
vn -0.666721 -0.227896 0.709611
vn -0.666721 -0.227896 0.709611
vn -0.736052 -0.653456 -0.176697
vn -0.736052 -0.653456 -0.176697
vn -0.736052 -0.653456 -0.176697
vn -0.736052 -0.653456 -0.176697
vn -0.775653 -0.437927 0.454512
vn -0.775653 -0.437927 0.454512
vn -0.775653 -0.437927 0.454512
vn -0.775653 -0.437927 0.454512
vn -0.923588 0.383227 0.011045
vn -0.923588 0.383227 0.011045
vn -0.923588 0.383227 0.011045
vn -0.923588 0.383227 0.011045
vn 0.689482 0.131725 -0.712224
vn 0.689482 0.131725 -0.712224
vn 0.689483 0.131725 -0.712224
vn 0.689482 0.131725 -0.712224
vn 0.656622 -0.146322 0.739890
vn 0.656622 -0.146322 0.739890
vn 0.656622 -0.146322 0.739890
vn 0.656622 -0.146322 0.739890
vn 0.649153 -0.247378 0.719308
vn 0.649153 -0.247378 0.719308
vn 0.649153 -0.247378 0.719308
vn 0.649153 -0.247378 0.719308
vn 0.616668 0.325890 -0.716600
vn 0.616668 0.325890 -0.716600
vn 0.616668 0.325890 -0.716600
vn 0.616668 0.325890 -0.716600
vn 0.607734 -0.276911 0.744298
vn 0.607734 -0.276911 0.744298
vn 0.607734 -0.276911 0.744298
vn 0.607734 -0.276911 0.744298
vn 0.713606 0.274907 -0.644355
vn 0.713606 0.274907 -0.644355
vn 0.713606 0.274907 -0.644355
vn 0.713606 0.274907 -0.644355
vn 0.712740 -0.486684 0.505115
vn 0.712740 -0.486684 0.505115
vn 0.712740 -0.486684 0.505115
vn 0.712740 -0.486684 0.505115
vn 0.709276 -0.672271 -0.212083
vn 0.709276 -0.672271 -0.212083
vn 0.709276 -0.672271 -0.212083
vn 0.709276 -0.672271 -0.212083
vn 0.931116 0.364696 0.004460
vn 0.931116 0.364696 0.004460
vn 0.931116 0.364696 0.004460
vn 0.931116 0.364696 0.004460
vn -0.020951 0.999610 0.018471
vn -0.020951 0.999610 0.018471
vn -0.020951 0.999610 0.018471
vn -0.020951 0.999610 0.018471
vn 0.000001 0.649757 0.760142
vn 0.000001 0.649757 0.760142
vn 0.000001 0.649757 0.760142
vn 0.000001 0.649757 0.760142
vn -0.014525 0.982226 0.187142
vn -0.014525 0.982226 0.187142
vn -0.014525 0.982226 0.187142
vn -0.014525 0.982226 0.187142
vn 0.000000 0.863299 -0.504693
vn 0.000000 0.863299 -0.504693
vn 0.000000 0.863299 -0.504693
vn 0.000000 0.863299 -0.504693
vn -0.006036 0.928689 -0.370811
vn -0.006036 0.928689 -0.370811
vn -0.006036 0.928689 -0.370811
vn -0.006036 0.928689 -0.370811
s off
f 47/1/1 48/2/2 61/3/3 62/4/4
f 48/2/5 47/1/6 49/5/7 50/6/8
f 50/6/9 49/5/10 51/7/11 52/8/12
f 52/8/13 51/7/14 53/9/15
f 9/10/16 1/11/17 63/12/18 64/13/19
f 3/14/20 1/11/21 9/10/22 10/15/23
f 5/16/24 3/14/25 10/15/26 11/17/27
f 7/18/28 5/16/29 11/17/30 12/19/31
f 10/15/32 9/10/33 25/20/34 26/21/35
f 11/17/36 10/15/37 26/21/38 27/22/39
f 12/19/40 11/17/41 27/22/42 28/23/43
f 2/24/44 13/25/45 65/26/46 66/27/47
f 2/24/48 4/28/49 14/29/50 13/25/51
f 4/28/52 6/30/53 15/31/54 14/29/55
f 6/30/56 8/32/57 16/33/58 15/31/59
f 29/34/60 72/60/61 65/26/62 13/25/63
f 16/35/64 12/36/65 28/37/66 32/38/67
f 8/39/68 7/40/69 12/41/70 16/42/71
f 54/43/72 67/44/73 68/45/74 55/46/75
f 55/46/76 56/47/77 57/48/78 54/43/79
f 56/47/80 58/49/81 59/50/82 57/48/83
f 58/49/84 60/51/85 59/50/86
f 25/20/87 69/52/88 70/53/89 17/54/90
f 19/55/91 26/21/92 25/20/93 17/54/94
f 21/56/95 27/22/96 26/21/97 19/55/98
f 23/57/99 28/23/100 27/22/101 21/56/102
f 64/13/103 69/52/104 25/20/105 9/10/106
f 18/58/107 71/59/108 72/60/109 29/34/110
f 18/58/111 29/34/112 30/61/113 20/62/114
f 20/62/115 30/61/116 31/63/117 22/64/118
f 22/64/119 31/63/120 32/65/121 24/66/122
f 14/29/123 30/61/124 29/34/125 13/25/126
f 15/31/127 31/63/128 30/61/129 14/29/130
f 16/33/131 32/65/132 31/63/133 15/31/134
f 24/67/135 32/68/136 28/69/137 23/70/138
f 2/24/139 66/27/140 73/71/141 34/72/142
f 63/12/143 1/11/144 33/73/145 74/74/146
f 1/11/147 3/14/148 35/75/149 33/73/150
f 4/28/151 2/24/152 34/72/153 36/76/154
f 3/14/155 5/16/156 37/77/157 35/75/158
f 6/30/159 4/28/160 36/76/161 38/78/162
f 5/16/163 7/18/164 37/77/165
f 7/18/166 8/32/167 39/79/168 37/77/169
f 8/32/170 6/30/171 38/78/172 39/79/173
f 17/117/174 70/118/175 75/119/176 40/120/177
f 71/59/178 18/58/179 41/81/180 76/82/181
f 18/58/182 20/62/183 42/83/184 41/81/185
f 19/55/186 17/54/187 40/80/188 43/84/189
f 20/62/190 22/64/191 44/85/192 42/83/193
f 21/56/194 19/55/195 43/84/196 45/86/197
f 22/64/198 24/66/199 46/87/200 44/85/201
f 24/66/202 23/57/203 45/86/204 46/87/205
f 23/57/206 21/56/207 45/86/208
f 34/88/209 73/89/210 61/3/211 48/2/212
f 74/90/213 33/91/214 47/1/215 62/4/216
f 33/91/217 35/92/218 49/5/219 47/1/220
f 36/93/221 34/88/222 48/2/223 50/6/224
f 35/92/225 37/94/226 51/7/227 49/5/228
f 38/95/229 36/93/230 50/6/231 52/8/232
f 37/94/233 39/96/234 53/9/235 51/7/236
f 39/96/237 38/95/238 52/8/239 53/9/240
f 73/89/241 74/97/242 62/98/243 61/3/244
f 40/99/245 75/100/246 67/44/247 54/43/248
f 76/101/249 41/102/250 55/46/251 68/45/252
f 41/102/253 42/103/254 56/47/255 55/46/256
f 43/104/257 40/99/258 54/43/259 57/48/260
f 42/103/261 44/105/262 58/49/263 56/47/264
f 45/106/265 43/104/266 57/48/267 59/50/268
f 44/105/269 46/107/270 60/51/271 58/49/272
f 46/107/273 45/106/274 59/50/275 60/51/276
f 75/108/277 76/101/278 68/45/279 67/44/280
f 75/110/281 74/109/282 73/111/283 76/112/284
f 71/113/285 66/114/286 65/115/287 72/116/288
f 76/112/289 73/111/290 66/114/291 71/113/292
f 64/13/293 63/12/294 70/53/295 69/52/296
f 70/53/297 63/12/298 74/109/299 75/119/300
