# This file uses centimeters as units for non-parametric coordinates.

v -0.946971 -0.545738 -2.186180
v 0.946971 -0.545738 -2.186180
v -0.946971 1.637360 -1.801422
v 0.946971 1.637360 -1.801422
v -0.946971 1.637360 -3.134155
v 0.946971 1.637360 -3.134155
v -0.946971 -0.545738 -3.316711
v 0.946971 -0.545738 -3.316711
v -0.946971 -0.545738 3.488617
v 0.946971 -0.545738 3.488617
v -0.946971 1.637360 3.306061
v 0.946971 1.637360 3.306061
v -0.946971 1.637360 1.973328
v 0.946971 1.637360 1.973328
v -0.946971 -0.545738 2.358086
v 0.946971 -0.545738 2.358086
v -1.665353 1.225601 3.876005
v -1.665353 3.438278 -3.876007
v -1.665353 1.225601 -3.876007
v -1.665353 3.438278 3.876005
v -1.190998 3.438278 3.876005
v -1.190998 3.438278 -3.876007
v -1.190998 1.532501 3.876005
v -1.190998 1.532501 -3.876007
v -1.665353 1.919830 -2.534393
v -1.665353 1.919830 1.485748
v -1.665353 2.955032 -2.534393
v -1.665353 2.955032 1.485748
v -1.190998 2.955032 1.485748
v -1.190998 2.955032 -2.534393
v -1.190998 1.919830 -2.534393
v -1.190998 1.919830 1.485748
v 1.665353 1.225601 3.876005
v 1.665353 3.438278 -3.876007
v 1.665353 1.225601 -3.876007
v 1.665353 3.438278 3.876005
v 1.190998 3.438278 3.876005
v 1.190998 3.438278 -3.876007
v 1.190998 1.532501 3.876005
v 1.190998 1.532501 -3.876007
v 1.665353 1.919830 -2.534393
v 1.665353 1.919830 1.485748
v 1.665353 2.955032 -2.534393
v 1.665353 2.955032 1.485748
v 1.190998 2.955032 1.485748
v 1.190998 2.955032 -2.534393
v 1.190998 1.919830 -2.534393
v 1.190998 1.919830 1.485748
v -1.226927 1.532494 3.716553
v 1.226928 1.532494 3.716553
v -1.226927 5.849831 3.716553
v 1.226928 5.849831 3.716553
v -1.226927 5.849831 1.605286
v 1.226928 5.849831 1.605286
v -1.226927 1.532494 1.605286
v 1.226928 1.532494 1.605286
v -1.408898 6.058495 3.716553
v 1.408899 6.058495 3.716553
v 1.408899 6.058495 1.605286
v -1.408898 6.058495 1.605286
v -1.602099 6.058495 3.766052
v 1.602099 6.058495 3.766052
v 1.602099 6.058495 1.178192
v -1.602099 6.058495 1.178192
v -1.602099 7.019569 3.337585
v 1.602099 7.019569 3.337585
v 1.602099 7.019569 1.178192
v -1.602099 7.019569 1.178192
v 1.342012 7.019569 1.178192
v 1.342012 7.019569 3.337585
v -1.342012 7.019569 1.178192
v -1.342012 7.019569 3.337585
v 1.342012 7.763435 1.178192
v 1.342012 7.763435 3.005951
v 1.602099 7.948784 2.923340
v 1.602099 7.948784 1.178192
v -1.602099 7.948784 2.923340
v -1.342012 7.763435 3.005951
v -1.342012 7.763435 1.178192
v -1.602099 7.948784 1.178192
v 0.000000 8.868271 1.178192
v 0.000000 8.868271 2.575104
v 0.000000 9.224815 2.354462
v 0.000000 9.224815 1.178192
v -1.018427 8.882637 1.178192
v -0.891594 8.626877 1.178192
v -0.891594 8.626877 2.682709
v -1.018427 8.882637 2.507019
v 0.891595 8.626877 1.178192
v 1.018427 8.882637 1.178192
v 1.018427 8.882637 2.507019
v 0.891595 8.626877 2.682709
v -0.188327 6.645386 2.329880
v 0.188327 6.645386 2.329880
v -0.107486 7.658394 2.329880
v 0.107487 7.658394 2.329880
v -0.107486 7.658394 1.883499
v 0.107487 7.658394 1.883499
v -0.188327 6.645386 1.883499
v 0.188327 6.645386 1.883499
vt 0.090998 0.228655
vt 0.090998 0.228655
vt 0.090998 0.228655
vt 0.090998 0.228655
vt 0.090998 0.228655
vt 0.090998 0.228655
vt 0.090998 0.228655
vt 0.090998 0.228655
vt 0.090998 0.228655
vt 0.090998 0.228655
vt 0.090998 0.228655
vt 0.090998 0.228655
vt 0.090998 0.228655
vt 0.090998 0.228655
vt 0.090998 0.228655
vt 0.090998 0.228655
vt 0.090998 0.228655
vt 0.090998 0.228655
vt 0.090998 0.228655
vt 0.090998 0.228655
vt 0.090998 0.228655
vt 0.090998 0.228655
vt 0.090998 0.228655
vt 0.090998 0.228655
vt 0.090998 0.228655
vt 0.090998 0.228655
vt 0.090998 0.228655
vt 0.090998 0.228655
vt 0.090998 0.228655
vt 0.090998 0.228655
vt 0.090998 0.228655
vt 0.090998 0.228655
vt 0.090998 0.228655
vt 0.090998 0.228655
vt 0.090998 0.228655
vt 0.090998 0.228655
vt 0.090998 0.228655
vt 0.090998 0.228655
vt 0.090998 0.228655
vt 0.090998 0.228655
vt 0.090998 0.228655
vt 0.090998 0.228655
vt 0.090998 0.228655
vt 0.090998 0.228655
vt 0.090998 0.228655
vt 0.090998 0.228655
vt 0.090998 0.228655
vt 0.090998 0.228655
vt 0.090998 0.228655
vt 0.090998 0.228655
vt 0.090998 0.228655
vt 0.090998 0.228655
vt 0.090998 0.228655
vt 0.090998 0.228655
vt 0.090998 0.228655
vt 0.090998 0.228655
vt 0.090998 0.228655
vt 0.090998 0.228655
vt 0.090998 0.228655
vt 0.090998 0.228655
vt 0.090998 0.228655
vt 0.090998 0.228655
vt 0.090998 0.228655
vt 0.090998 0.228655
vt 0.090998 0.228655
vt 0.090998 0.228655
vt 0.090998 0.228655
vt 0.090998 0.228655
vt 0.090998 0.228655
vt 0.090998 0.228655
vt 0.090998 0.228655
vt 0.090998 0.228655
vt 0.090998 0.228655
vt 0.090998 0.228655
vt 0.090998 0.228655
vt 0.090998 0.228655
vt 0.090998 0.228655
vt 0.090998 0.228655
vt 0.090998 0.228655
vt 0.090998 0.228655
vt 0.090998 0.228655
vt 0.090998 0.228655
vt 0.090998 0.228655
vt 0.090998 0.228655
vt 0.090998 0.228655
vt 0.090998 0.228655
vt 0.090998 0.228655
vt 0.090998 0.228655
vt 0.090998 0.228655
vt 0.090998 0.228655
vt 0.090998 0.228655
vt 0.090998 0.228655
vt 0.090998 0.228655
vt 0.090998 0.228655
vt 0.090998 0.228655
vt 0.090998 0.228655
vt 0.090998 0.228655
vt 0.090998 0.228655
vt 0.090998 0.228655
vt 0.090998 0.228655
vt 0.090998 0.228655
vt 0.090998 0.228655
vt 0.090998 0.228655
vt 0.090998 0.228655
vt 0.090998 0.228655
vt 0.090998 0.228655
vt 0.090998 0.228655
vt 0.090998 0.228655
vt 0.090998 0.228655
vt 0.090998 0.228655
vt 0.090998 0.228655
vt 0.090998 0.228655
vt 0.090998 0.228655
vt 0.090998 0.228655
vt 0.090998 0.228655
vt 0.090998 0.228655
vt 0.090998 0.228655
vt 0.090998 0.228655
vt 0.090998 0.228655
vt 0.090998 0.228655
vt 0.090998 0.228655
vt 0.090998 0.228655
vt 0.090998 0.228655
vt 0.090998 0.228655
vt 0.090998 0.228655
vt 0.090998 0.228655
vt 0.090998 0.228655
vt 0.090998 0.228655
vt 0.090998 0.228655
vt 0.090998 0.228655
vt 0.090998 0.228655
vt 0.090998 0.228655
vt 0.090998 0.228655
vt 0.090998 0.228655
vt 0.090998 0.228655
vt 0.090998 0.228655
vt 0.090998 0.228655
vt 0.090998 0.228655
vt 0.090998 0.228655
vt 0.090998 0.228655
vt 0.090998 0.228655
vt 0.090998 0.228655
vt 0.090998 0.228655
vt 0.090998 0.228655
vt 0.090998 0.228655
vt 0.090998 0.228655
vt 0.090998 0.228655
vt 0.090998 0.228655
vn 0.000000 -0.173569 0.984822
vn 0.000000 -0.173569 0.984822
vn 0.000000 -0.173569 0.984822
vn 0.000000 -0.173569 0.984822
vn 0.000000 1.000000 0.000000
vn 0.000000 1.000000 0.000000
vn 0.000000 1.000000 0.000000
vn 0.000000 1.000000 0.000000
vn 0.000000 0.083332 -0.996522
vn 0.000000 0.083332 -0.996522
vn 0.000000 0.083332 -0.996522
vn 0.000000 0.083332 -0.996522
vn 1.000000 0.000000 0.000000
vn 1.000000 0.000000 0.000000
vn 1.000000 0.000000 0.000000
vn 1.000000 0.000000 0.000000
vn -1.000000 -0.000000 0.000000
vn -1.000000 -0.000000 0.000000
vn -1.000000 -0.000000 0.000000
vn -1.000000 -0.000000 0.000000
vn 0.000000 0.083332 0.996522
vn 0.000000 0.083332 0.996522
vn 0.000000 0.083332 0.996522
vn 0.000000 0.083332 0.996522
vn 0.000000 1.000000 0.000000
vn 0.000000 1.000000 0.000000
vn 0.000000 1.000000 0.000000
vn 0.000000 1.000000 0.000000
vn 0.000000 -0.173569 -0.984822
vn 0.000000 -0.173569 -0.984822
vn 0.000000 -0.173569 -0.984822
vn 0.000000 -0.173569 -0.984822
vn 1.000000 -0.000000 0.000000
vn 1.000000 -0.000000 0.000000
vn 1.000000 -0.000000 0.000000
vn 1.000000 -0.000000 0.000000
vn -1.000000 -0.000000 0.000000
vn -1.000000 -0.000000 0.000000
vn -1.000000 -0.000000 0.000000
vn -1.000000 -0.000000 0.000000
vn 0.000000 0.000000 1.000000
vn 0.000000 0.000000 1.000000
vn 0.000000 0.000000 1.000000
vn 0.000000 0.000000 1.000000
vn 0.000000 1.000000 0.000000
vn 0.000000 1.000000 0.000000
vn 0.000000 1.000000 0.000000
vn 0.000000 1.000000 0.000000
vn 0.000000 0.000000 -1.000000
vn 0.000000 0.000000 -1.000000
vn 0.000000 0.000000 -1.000000
vn 0.000000 0.000000 -1.000000
vn -1.000000 0.000000 0.000000
vn -1.000000 0.000000 0.000000
vn -1.000000 0.000000 0.000000
vn -1.000000 0.000000 0.000000
vn -1.000000 0.000000 -0.000000
vn -1.000000 0.000000 -0.000000
vn -1.000000 0.000000 -0.000000
vn -1.000000 0.000000 -0.000000
vn -1.000000 0.000000 0.000000
vn -1.000000 0.000000 0.000000
vn -1.000000 0.000000 0.000000
vn -1.000000 0.000000 0.000000
vn -1.000000 0.000000 0.000000
vn -1.000000 0.000000 0.000000
vn -1.000000 0.000000 0.000000
vn -1.000000 0.000000 0.000000
vn 1.000000 0.000000 0.000000
vn 1.000000 0.000000 0.000000
vn 1.000000 0.000000 0.000000
vn 1.000000 0.000000 0.000000
vn 1.000000 0.000000 0.000000
vn 1.000000 0.000000 0.000000
vn 1.000000 0.000000 0.000000
vn 1.000000 0.000000 0.000000
vn 1.000000 0.000000 0.000000
vn 1.000000 0.000000 0.000000
vn 1.000000 0.000000 0.000000
vn 1.000000 0.000000 0.000000
vn 1.000000 0.000000 0.000000
vn 1.000000 0.000000 0.000000
vn 1.000000 0.000000 0.000000
vn 1.000000 0.000000 0.000000
vn 0.000000 1.000000 0.000000
vn 0.000000 1.000000 0.000000
vn 0.000000 1.000000 0.000000
vn 0.000000 1.000000 0.000000
vn 0.000000 -1.000000 0.000000
vn 0.000000 -1.000000 0.000000
vn 0.000000 -1.000000 0.000000
vn 0.000000 -1.000000 0.000000
vn 0.000000 0.000000 -1.000000
vn 0.000000 0.000000 -1.000000
vn 0.000000 0.000000 -1.000000
vn 0.000000 0.000000 -1.000000
vn 0.000000 0.000000 1.000000
vn 0.000000 0.000000 1.000000
vn 0.000000 0.000000 1.000000
vn 0.000000 0.000000 1.000000
vn 0.000000 0.000000 1.000000
vn 0.000000 0.000000 1.000000
vn 0.000000 0.000000 1.000000
vn 0.000000 0.000000 1.000000
vn 0.000000 -1.000000 0.000000
vn 0.000000 -1.000000 0.000000
vn 0.000000 -1.000000 0.000000
vn 0.000000 -1.000000 0.000000
vn 0.000000 0.000000 1.000000
vn 0.000000 0.000000 1.000000
vn 0.000000 0.000000 1.000000
vn 0.000000 0.000000 1.000000
vn 0.000000 1.000000 0.000000
vn 0.000000 1.000000 0.000000
vn 0.000000 1.000000 0.000000
vn 0.000000 1.000000 0.000000
vn 0.000000 1.000000 0.000000
vn 0.000000 1.000000 0.000000
vn 0.000000 1.000000 0.000000
vn 0.000000 1.000000 0.000000
vn 0.000000 0.000000 -1.000000
vn 0.000000 0.000000 -1.000000
vn 0.000000 0.000000 -1.000000
vn 0.000000 0.000000 -1.000000
vn 0.000000 0.000000 -1.000000
vn 0.000000 0.000000 -1.000000
vn 0.000000 0.000000 -1.000000
vn 0.000000 0.000000 -1.000000
vn 1.000000 0.000000 0.000000
vn 1.000000 0.000000 0.000000
vn 1.000000 0.000000 0.000000
vn 1.000000 0.000000 0.000000
vn 1.000000 0.000000 -0.000000
vn 1.000000 0.000000 -0.000000
vn 1.000000 0.000000 -0.000000
vn 1.000000 0.000000 -0.000000
vn 1.000000 -0.000000 0.000000
vn 1.000000 -0.000000 0.000000
vn 1.000000 -0.000000 0.000000
vn 1.000000 -0.000000 0.000000
vn 1.000000 0.000000 0.000000
vn 1.000000 0.000000 0.000000
vn 1.000000 0.000000 0.000000
vn 1.000000 0.000000 0.000000
vn -1.000000 -0.000000 0.000000
vn -1.000000 -0.000000 0.000000
vn -1.000000 -0.000000 0.000000
vn -1.000000 -0.000000 0.000000
vn -1.000000 0.000000 0.000000
vn -1.000000 0.000000 0.000000
vn -1.000000 0.000000 0.000000
vn -1.000000 0.000000 0.000000
vn -1.000000 0.000000 0.000000
vn -1.000000 0.000000 0.000000
vn -1.000000 0.000000 0.000000
vn -1.000000 0.000000 0.000000
vn -1.000000 0.000000 0.000000
vn -1.000000 0.000000 0.000000
vn -1.000000 0.000000 0.000000
vn -1.000000 0.000000 0.000000
vn 0.000000 1.000000 0.000000
vn 0.000000 1.000000 0.000000
vn 0.000000 1.000000 0.000000
vn 0.000000 1.000000 0.000000
vn 0.000000 -1.000000 0.000000
vn 0.000000 -1.000000 0.000000
vn 0.000000 -1.000000 0.000000
vn 0.000000 -1.000000 0.000000
vn 0.000000 0.000000 -1.000000
vn 0.000000 0.000000 -1.000000
vn 0.000000 0.000000 -1.000000
vn 0.000000 0.000000 -1.000000
vn 0.000000 0.000000 1.000000
vn 0.000000 0.000000 1.000000
vn 0.000000 0.000000 1.000000
vn 0.000000 0.000000 1.000000
vn 0.000000 0.000000 1.000000
vn 0.000000 0.000000 1.000000
vn 0.000000 0.000000 1.000000
vn 0.000000 0.000000 1.000000
vn 0.000000 1.000000 -0.000000
vn 0.000000 1.000000 -0.000000
vn 0.000000 1.000000 -0.000000
vn 0.000000 1.000000 -0.000000
vn 0.000000 -0.000000 -1.000000
vn 0.000000 -0.000000 -1.000000
vn 0.000000 -0.000000 -1.000000
vn 0.000000 -0.000000 -1.000000
vn 0.000000 -1.000000 0.000000
vn 0.000000 -1.000000 0.000000
vn 0.000000 -1.000000 0.000000
vn 0.000000 -1.000000 0.000000
vn 1.000000 0.000000 0.000000
vn 1.000000 0.000000 0.000000
vn 1.000000 0.000000 0.000000
vn 1.000000 0.000000 0.000000
vn -1.000000 0.000000 0.000000
vn -1.000000 0.000000 0.000000
vn -1.000000 0.000000 0.000000
vn -1.000000 0.000000 0.000000
vn 0.000000 0.000000 1.000000
vn 0.000000 0.000000 1.000000
vn 0.000000 0.000000 1.000000
vn 0.000000 0.000000 1.000000
vn 0.753668 -0.657256 0.000000
vn 0.753668 -0.657256 0.000000
vn 0.753668 -0.657256 0.000000
vn 0.753668 -0.657256 0.000000
vn 0.000000 -0.000000 -1.000000
vn 0.000000 -0.000000 -1.000000
vn 0.000000 -0.000000 -1.000000
vn 0.000000 -0.000000 -1.000000
vn -0.753668 -0.657256 0.000000
vn -0.753668 -0.657256 0.000000
vn -0.753668 -0.657256 0.000000
vn -0.753668 -0.657256 0.000000
vn 0.000000 -1.000000 -0.000013
vn 0.000000 -1.000000 -0.000013
vn 0.000000 -1.000000 -0.000013
vn 0.000000 -1.000000 -0.000013
vn 0.000000 -1.000000 0.000000
vn 0.000000 -1.000000 0.000000
vn 0.000000 -1.000000 0.000000
vn 0.000000 -1.000000 0.000000
vn 0.000000 -1.000000 0.000001
vn 0.000000 -1.000000 0.000001
vn 0.000000 -1.000000 0.000001
vn 0.000000 -1.000000 0.000001
vn 0.000000 -1.000000 0.000000
vn 0.000000 -1.000000 0.000000
vn 0.000000 -1.000000 0.000000
vn 0.000000 -1.000000 0.000000
vn 0.000000 0.407188 0.913345
vn 0.000000 0.407188 0.913345
vn 0.000000 0.407188 0.913345
vn 1.000000 0.000000 -0.000000
vn 1.000000 0.000000 -0.000000
vn 1.000000 0.000000 -0.000000
vn 1.000000 0.000000 -0.000000
vn 0.000000 -0.000000 -1.000000
vn 0.000000 -0.000000 -1.000000
vn 0.000000 -0.000000 -1.000000
vn -1.000000 0.000000 0.000000
vn -1.000000 0.000000 0.000000
vn -1.000000 0.000000 0.000000
vn -1.000000 0.000000 0.000000
vn -1.000000 0.000000 0.000000
vn -1.000000 0.000000 0.000000
vn -1.000000 0.000000 0.000000
vn -1.000000 0.000000 0.000000
vn -0.000020 0.407181 0.913347
vn -0.000020 0.407181 0.913347
vn -0.000020 0.407181 0.913347
vn -0.000020 0.407181 0.913347
vn 1.000000 0.000000 -0.000000
vn 1.000000 0.000000 -0.000000
vn 1.000000 0.000000 -0.000000
vn 1.000000 0.000000 -0.000000
vn 0.000000 -0.000000 -1.000000
vn 0.000000 -0.000000 -1.000000
vn 0.000000 -0.000000 -1.000000
vn 0.000000 -0.000000 -1.000000
vn 0.000020 0.407181 0.913347
vn 0.000020 0.407181 0.913347
vn 0.000020 0.407181 0.913347
vn 0.000020 0.407181 0.913347
vn 1.000000 -0.000000 0.000000
vn 1.000000 -0.000000 0.000000
vn 1.000000 -0.000000 0.000000
vn 1.000000 -0.000000 0.000000
vn 0.000000 -0.000000 -1.000000
vn 0.000000 -0.000000 -1.000000
vn 0.000000 -0.000000 -1.000000
vn 0.000000 -0.000000 -1.000000
vn -1.000000 -0.000000 0.000000
vn -1.000000 -0.000000 0.000000
vn -1.000000 -0.000000 0.000000
vn -1.000000 -0.000000 0.000000
vn -0.877843 -0.478949 0.000000
vn -0.877843 -0.478949 0.000000
vn -0.877843 -0.478949 0.000000
vn -0.877843 -0.478949 0.000000
vn -0.000025 0.407164 0.913355
vn -0.000025 0.407164 0.913355
vn -0.000025 0.407164 0.913355
vn -0.000025 0.407164 0.913355
vn 0.847993 0.530008 -0.000000
vn 0.847993 0.530008 -0.000000
vn 0.847993 0.530008 -0.000000
vn 0.847992 0.530008 -0.000000
vn 0.000000 -0.000000 -1.000000
vn 0.000000 -0.000000 -1.000000
vn 0.000000 -0.000000 -1.000000
vn 0.000000 -0.000000 -1.000000
vn 0.000025 0.407164 0.913355
vn 0.000025 0.407165 0.913355
vn 0.000025 0.407165 0.913355
vn 0.000025 0.407165 0.913355
vn 0.877843 -0.478949 0.000000
vn 0.877843 -0.478949 0.000000
vn 0.877843 -0.478949 0.000000
vn 0.877843 -0.478949 0.000000
vn -0.000002 -0.000000 -1.000000
vn -0.000002 -0.000000 -1.000000
vn -0.000002 -0.000000 -1.000000
vn -0.000002 -0.000000 -1.000000
vn -0.847993 0.530008 -0.000000
vn -0.847992 0.530008 -0.000000
vn -0.847993 0.530008 -0.000000
vn -0.847993 0.530008 -0.000000
vn 0.000001 -0.000000 -1.000000
vn 0.000001 -0.000000 -1.000000
vn 0.000001 -0.000000 -1.000000
vn 0.000001 -0.000000 -1.000000
vn 0.294580 -0.955627 0.000000
vn 0.294580 -0.955627 0.000000
vn 0.294580 -0.955627 0.000000
vn 0.294580 -0.955627 0.000000
vn 0.000001 0.407176 0.913350
vn 0.000001 0.407176 0.913350
vn 0.000001 0.407176 0.913350
vn 0.000001 0.407176 0.913350
vn -0.318491 0.947926 -0.000000
vn -0.318491 0.947926 -0.000000
vn -0.318491 0.947926 -0.000000
vn -0.318491 0.947926 -0.000000
vn -0.000001 -0.000000 -1.000000
vn -0.000001 -0.000000 -1.000000
vn -0.000001 -0.000000 -1.000000
vn -0.000001 -0.000000 -1.000000
vn 0.318491 0.947926 -0.000000
vn 0.318491 0.947926 -0.000000
vn 0.318491 0.947926 -0.000000
vn 0.318491 0.947926 -0.000000
vn -0.000001 0.407176 0.913350
vn -0.000001 0.407176 0.913350
vn -0.000001 0.407176 0.913350
vn -0.000001 0.407176 0.913350
vn -0.294580 -0.955627 0.000000
vn -0.294580 -0.955627 0.000000
vn -0.294580 -0.955627 0.000000
vn -0.294580 -0.955627 0.000000
vn 0.000000 0.407188 0.913345
vn 0.000000 0.407188 0.913345
vn 0.000000 0.407188 0.913345
vn 0.000000 0.407188 0.913345
vn 0.000000 0.407188 0.913345
vn 0.000000 0.407188 0.913345
vn 0.000000 0.407188 0.913345
vn 0.000000 -0.000000 -1.000000
vn 0.000000 -0.000000 -1.000000
vn 0.000000 -0.000000 -1.000000
vn 0.000000 -0.000000 -1.000000
vn 0.000000 -0.000000 -1.000000
vn 0.000000 -0.000000 -1.000000
vn 0.000000 -0.000000 -1.000000
vn 0.000000 -1.000000 0.000000
vn 0.000000 -1.000000 0.000000
vn 0.000000 -1.000000 0.000000
vn 0.000000 -1.000000 0.000000
vn 0.000000 -1.000000 0.000000
vn 0.000000 -1.000000 0.000000
vn 0.000000 -1.000000 0.000000
vn 0.000000 -1.000000 0.000000
vn 0.000000 0.000000 1.000000
vn 0.000000 0.000000 1.000000
vn 0.000000 0.000000 1.000000
vn 0.000000 0.000000 1.000000
vn 0.000000 -0.000000 -1.000000
vn 0.000000 -0.000000 -1.000000
vn 0.000000 -0.000000 -1.000000
vn 0.000000 -0.000000 -1.000000
vn 1.000000 0.000000 0.000000
vn 1.000000 0.000000 0.000000
vn 1.000000 0.000000 0.000000
vn 1.000000 0.000000 0.000000
vn -1.000000 0.000000 0.000000
vn -1.000000 0.000000 0.000000
vn -1.000000 0.000000 0.000000
vn -1.000000 0.000000 0.000000
vn 0.000000 1.000000 -0.000000
vn 0.000000 1.000000 -0.000000
vn 0.000000 1.000000 -0.000000
vn 0.000000 1.000000 -0.000000
s off
f 1/1/1 2/2/2 4/3/3 3/4/4
f 3/4/5 4/3/6 6/5/7 5/6/8
f 5/6/9 6/5/10 8/7/11 7/8/12
f 2/2/13 8/9/14 6/10/15 4/3/16
f 7/11/17 1/1/18 3/4/19 5/12/20
f 9/13/21 10/14/22 12/15/23 11/16/24
f 11/16/25 12/15/26 14/17/27 13/18/28
f 13/18/29 14/17/30 16/19/31 15/20/32
f 10/14/33 16/21/34 14/22/35 12/15/36
f 15/23/37 9/13/38 11/16/39 13/24/40
f 20/25/41 17/26/42 23/27/43 21/28/44
f 22/29/45 18/30/46 20/25/47 21/28/48
f 19/31/49 18/30/50 22/29/51 24/32/52
f 17/26/53 26/33/54 25/34/55 19/35/56
f 19/35/57 25/34/58 27/36/59 18/30/60
f 18/30/61 27/36/62 28/37/63 20/25/64
f 20/25/65 28/37/66 26/33/67 17/26/68
f 21/28/69 29/38/70 30/39/71 22/29/72
f 22/29/73 30/39/74 31/40/75 24/32/76
f 24/32/77 31/40/78 32/41/79 23/27/80
f 23/27/81 32/41/82 29/38/83 21/28/84
f 31/42/85 25/43/86 26/44/87 32/45/88
f 29/46/89 28/47/90 27/48/91 30/49/92
f 32/50/93 26/51/94 28/52/95 29/53/96
f 25/34/97 31/42/98 30/39/99 27/48/100
f 17/26/101 33/54/102 39/55/103 23/27/104
f 19/31/105 35/56/106 33/54/107 17/26/108
f 36/57/109 37/58/110 39/55/111 33/54/112
f 38/59/113 37/58/114 36/57/115 34/60/116
f 23/27/117 39/55/118 40/61/119 24/32/120
f 35/56/121 40/61/122 38/59/123 34/60/124
f 24/32/125 40/61/126 35/56/127 19/31/128
f 33/54/129 35/62/130 41/63/131 42/64/132
f 35/62/133 34/60/134 43/65/135 41/63/136
f 34/60/137 36/57/138 44/66/139 43/65/140
f 36/57/141 33/54/142 42/64/143 44/66/144
f 37/58/145 38/59/146 46/67/147 45/68/148
f 38/59/149 40/61/150 47/69/151 46/67/152
f 40/61/153 39/55/154 48/70/155 47/69/156
f 39/55/157 37/58/158 45/68/159 48/70/160
f 47/71/161 48/72/162 42/73/163 41/74/164
f 45/75/165 46/76/166 43/77/167 44/78/168
f 48/79/169 45/80/170 44/81/171 42/82/172
f 41/63/173 43/77/174 46/67/175 47/71/176
f 49/83/177 50/84/178 52/85/179 51/86/180
f 69/87/181 71/88/182 72/89/183 70/90/184
f 53/91/185 54/92/186 56/93/187 55/94/188
f 55/94/189 56/93/190 50/95/191 49/96/192
f 50/84/193 56/97/194 54/98/195 52/85/196
f 55/99/197 49/83/198 51/86/199 53/100/200
f 51/86/201 52/85/202 58/101/203 57/102/204
f 52/85/205 54/92/206 59/103/207 58/101/208
f 54/92/209 53/91/210 60/104/211 59/103/212
f 53/91/213 51/86/214 57/102/215 60/104/216
f 57/102/217 58/101/218 62/105/219 61/106/220
f 58/101/221 59/103/222 63/107/223 62/105/224
f 59/103/225 60/104/226 64/108/227 63/107/228
f 60/104/229 57/102/230 61/106/231 64/108/232
f 62/105/233 66/109/234 70/90/235
f 62/105/236 63/107/237 67/110/238 66/109/239
f 71/88/240 64/108/241 68/111/242
f 64/108/243 61/106/244 65/112/245 68/111/246
f 69/87/247 70/90/248 74/113/249 73/114/250
f 70/90/251 66/109/252 75/115/253 74/113/254
f 66/109/255 67/110/256 76/116/257 75/115/258
f 67/110/259 69/87/260 73/114/261 76/116/262
f 65/112/263 72/89/264 78/117/265 77/118/266
f 72/89/267 71/88/268 79/119/269 78/117/270
f 71/88/271 68/111/272 80/120/273 79/119/274
f 68/111/275 65/112/276 77/118/277 80/120/278
f 73/114/279 74/113/280 92/121/281 89/122/282
f 74/113/283 75/115/284 91/123/285 92/121/286
f 75/115/287 76/116/288 90/124/289 91/123/290
f 76/116/291 73/114/292 89/122/293 90/124/294
f 77/118/295 78/117/296 87/125/297 88/126/298
f 78/117/299 79/119/300 86/127/301 87/125/302
f 79/119/303 80/120/304 85/128/305 86/127/306
f 80/120/307 77/118/308 88/126/309 85/128/310
f 86/127/311 85/128/312 84/129/313 81/130/314
f 87/125/315 86/127/316 81/130/317 82/131/318
f 88/126/319 87/125/320 82/131/321 83/132/322
f 85/128/323 88/126/324 83/132/325 84/129/326
f 90/124/327 89/122/328 81/133/329 84/134/330
f 91/123/331 90/124/332 84/134/333 83/135/334
f 92/121/335 91/123/336 83/135/337 82/136/338
f 89/122/339 92/121/340 82/136/341 81/133/342
f 62/105/343 70/90/344 72/89/345 61/106/346
f 61/106/347 72/89/348 65/112/349
f 63/107/350 69/87/351 67/110/352
f 63/107/353 64/108/354 71/88/355 69/87/356
f 2/2/357 1/1/358 7/8/359 8/9/360
f 10/14/361 9/13/362 15/20/363 16/21/364
f 93/137/365 94/138/366 96/139/367 95/140/368
f 97/141/369 98/142/370 100/143/371 99/144/372
f 94/138/373 100/145/374 98/146/375 96/139/376
f 99/147/377 93/137/378 95/140/379 97/148/380
f 97/148/381 95/140/382 96/139/383 98/142/384
