# This file uses centimeters as units for non-parametric coordinates.

v -1.714553 -6.088058 -7.280029
v -1.714553 -7.458633 -3.098312
v -1.714553 -1.362946 -3.531082
v -1.714553 -3.594376 -0.745895
v -1.714553 -9.113800 -2.802017
v -1.714553 -8.170120 -7.456635
v -1.714553 -2.264145 0.225571
v -1.252994 -8.345963 -2.037155
v -1.252994 -9.013321 -2.134140
v -1.326854 -3.458206 0.685165
v -1.326854 -3.121170 0.800278
v -0.000000 -5.807053 -7.956985
v 0.000000 -7.769547 -2.284744
v -0.000000 -4.224716 -0.093002
v 0.000000 -8.539856 -8.550552
v 0.000000 -9.819778 -3.116501
v -0.000000 -2.302307 1.200439
v -0.000000 -8.332489 -1.477890
v 0.000000 -9.635574 -1.838547
v 0.000000 -4.013138 1.320068
v 0.000000 -3.552979 1.560684
v 1.714553 -6.088058 -7.280029
v 1.714553 -7.458633 -3.098312
v 1.714553 -1.362946 -3.531082
v 1.714553 -3.594376 -0.745895
v 1.714553 -9.113800 -2.802017
v 1.714553 -8.170120 -7.456635
v 1.714553 -2.264145 0.225571
v 1.252994 -8.345963 -2.037155
v 1.252994 -9.013321 -2.134140
v 1.326854 -3.458206 0.685165
v 1.326854 -3.121170 0.800278
v -1.980573 -5.790649 -7.180527
v -2.000016 -7.340256 -2.897415
v -1.999729 -3.842361 -0.768692
v -1.982045 -1.295715 -3.657120
v 0.000000 -0.933197 -4.610825
v 0.000000 -5.329437 -8.034531
v -0.000000 -7.786301 -1.877060
v -0.000000 -4.578400 0.107681
v -1.980387 1.628906 -2.324997
v 0.000000 1.944351 -3.259354
v -1.972856 -2.261246 0.392715
v -1.975352 -0.267258 2.291718
v -0.000000 -2.481277 1.560959
v -0.000000 -0.720322 2.833923
v 1.980573 -5.790649 -7.180527
v 1.982045 -1.295715 -3.657120
v 1.999729 -3.842361 -0.768692
v 2.000016 -7.340256 -2.897415
v 1.972856 -2.261246 0.392715
v 1.980387 1.628906 -2.324997
v 1.975352 -0.267258 2.291733
v 1.714553 -7.203995 -7.952515
v -0.000000 -7.378525 -8.921341
v -1.714553 -7.203995 -7.952515
v 1.981881 -0.993500 -3.763321
v 0.000000 -0.636002 -4.715363
v -1.981815 -0.891068 -3.691162
v -1.367134 1.991501 -1.822433
v -0.000000 2.280884 -2.364731
v -0.000000 0.275635 2.610565
v -1.367134 0.428207 2.233841
v 1.367134 1.991501 -1.822433
v 1.367134 0.428207 2.233841
vt 0.122910 0.156964
vt 0.122910 0.156963
vt 0.122910 0.156964
vt 0.122910 0.156964
vt 0.090921 0.230223
vt 0.090921 0.230223
vt 0.090921 0.230223
vt 0.090921 0.230223
vt 0.090921 0.230223
vt 0.090921 0.230223
vt 0.090921 0.230223
vt 0.090921 0.230223
vt 0.090921 0.230223
vt 0.090921 0.230223
vt 0.090921 0.230223
vt 0.090921 0.230223
vt 0.090921 0.230223
vt 0.090921 0.230223
vt 0.090921 0.230223
vt 0.090921 0.230223
vt 0.122910 0.156964
vt 0.122910 0.156964
vt 0.122910 0.156963
vt 0.122910 0.156964
vt 0.090921 0.230223
vt 0.090921 0.230223
vt 0.090921 0.230223
vt 0.090921 0.230223
vt 0.090921 0.230223
vt 0.090921 0.230223
vt 0.090921 0.230223
vt 0.090921 0.230223
vt 0.122988 0.183961
vt 0.122988 0.183961
vt 0.122988 0.183961
vt 0.122988 0.183962
vt 0.122988 0.183961
vt 0.122988 0.183961
vt 0.122988 0.183961
vt 0.122988 0.183961
vt 0.090921 0.230223
vt 0.090921 0.230223
vt 0.090921 0.230223
vt 0.090921 0.230223
vt 0.090921 0.230223
vt 0.090921 0.230223
vt 0.090921 0.230223
vt 0.090921 0.230223
vt 0.090921 0.230223
vt 0.090921 0.230223
vt 0.090921 0.230223
vt 0.090921 0.230223
vt 0.090921 0.230223
vt 0.090921 0.230223
vt 0.090921 0.230223
vt 0.090921 0.230223
vt 0.090921 0.230223
vt 0.090921 0.230223
vt 0.090921 0.230223
vt 0.090921 0.230223
vt 0.090921 0.230223
vt 0.090921 0.230223
vt 0.090921 0.230223
vt 0.090921 0.230223
vt 0.122910 0.156964
vt 0.122910 0.156964
vt 0.122910 0.156964
vt 0.122910 0.156963
vt 0.090921 0.230223
vt 0.090921 0.230223
vt 0.090921 0.230223
vt 0.090921 0.230223
vt 0.090921 0.230223
vt 0.122988 0.183961
vt 0.122988 0.183961
vt 0.122988 0.183961
vt 0.122988 0.183961
vt 0.090921 0.230223
vt 0.090921 0.230223
vt 0.090921 0.230223
vt 0.090921 0.230223
vt 0.090921 0.230223
vt 0.090921 0.230223
vt 0.090921 0.230223
vt 0.090921 0.230223
vt 0.090921 0.230223
vt 0.090921 0.230223
vt 0.090921 0.230223
vt 0.090921 0.230223
vt 0.090921 0.230223
vt 0.090921 0.230223
vt 0.090921 0.230223
vt 0.090921 0.230223
vt 0.090921 0.230223
vt 0.090921 0.230223
vt 0.090921 0.230223
vt 0.090921 0.230223
vt 0.090921 0.230223
vt 0.090921 0.230223
vt 0.090921 0.230223
vt 0.090921 0.230223
vt 0.090921 0.230223
vt 0.090921 0.230223
vt 0.090921 0.230223
vt 0.090921 0.230223
vt 0.090921 0.230223
vt 0.090921 0.230223
vt 0.090921 0.230223
vt 0.090921 0.230223
vt 0.090921 0.230223
vt 0.090921 0.230223
vt 0.090921 0.230223
vt 0.090921 0.230223
vt 0.090921 0.230223
vt 0.090921 0.230223
vt 0.090921 0.230223
vt 0.090921 0.230223
vt 0.090921 0.230223
vt 0.090921 0.230223
vt 0.090921 0.230223
vt 0.122910 0.156964
vt 0.122910 0.156963
vt 0.122910 0.156964
vt 0.122910 0.156964
vt 0.122910 0.156964
vt 0.122910 0.156963
vt 0.122910 0.156964
vt 0.122988 0.183961
vt 0.122988 0.183961
vt 0.122988 0.183961
vt 0.122988 0.183961
vt 0.122988 0.183961
vt 0.122988 0.183961
vt 0.122910 0.156964
vt 0.122910 0.156964
vt 0.122910 0.156963
vt 0.122910 0.156964
vt 0.122910 0.156964
vt 0.122910 0.156964
vt 0.122988 0.183961
vt 0.122988 0.183961
vt 0.122988 0.183961
vt 0.122910 0.156964
vt 0.122910 0.156964
vt 0.090921 0.230223
vt 0.090921 0.230223
vt 0.090921 0.230223
vt 0.090921 0.230223
vt 0.122988 0.183961
vt 0.122988 0.183961
vt 0.122988 0.183961
vn -0.999990 0.002502 -0.003748
vn -0.999990 0.002502 -0.003748
vn -0.999990 0.002502 -0.003748
vn -0.999990 0.002502 -0.003748
vn -1.000000 -0.000000 0.000000
vn -1.000000 -0.000000 0.000000
vn -1.000000 -0.000000 0.000000
vn -1.000000 -0.000000 0.000000
vn -1.000000 -0.000000 0.000000
vn -0.873386 0.041642 0.485245
vn -0.873386 0.041642 0.485245
vn -0.873386 0.041642 0.485245
vn -0.873386 0.041642 0.485245
vn -0.936678 -0.191204 0.293387
vn -0.936678 -0.191204 0.293387
vn -0.936678 -0.191204 0.293387
vn -0.936678 -0.191204 0.293387
vn -1.000000 0.000000 0.000000
vn -1.000000 0.000000 0.000000
vn -1.000000 0.000000 0.000000
vn -0.438178 0.553394 -0.708347
vn -0.438178 0.553394 -0.708347
vn -0.438178 0.553394 -0.708347
vn -0.438178 0.553394 -0.708347
vn -0.487775 -0.456445 0.744133
vn -0.487775 -0.456445 0.744133
vn -0.487775 -0.456445 0.744133
vn -0.487775 -0.456445 0.744133
vn -0.391959 0.478561 -0.785714
vn -0.391959 0.478561 -0.785714
vn -0.391959 0.478561 -0.785714
vn -0.391959 0.478561 -0.785714
vn -0.367178 -0.908349 -0.200205
vn -0.367178 -0.908349 -0.200205
vn -0.367178 -0.908349 -0.200205
vn -0.367178 -0.908349 -0.200205
vn -0.448794 0.432755 -0.781862
vn -0.448794 0.432755 -0.781861
vn -0.448794 0.432755 -0.781861
vn -0.448794 0.432755 -0.781861
vn -0.403448 -0.590621 0.698854
vn -0.403448 -0.590621 0.698854
vn -0.403448 -0.590621 0.698854
vn -0.403449 -0.590621 0.698854
vn -0.217565 0.744199 0.631532
vn -0.217565 0.744199 0.631532
vn -0.217565 0.744199 0.631532
vn -0.217565 0.744199 0.631532
vn -0.396926 -0.890006 0.224364
vn -0.396926 -0.890006 0.224364
vn -0.396926 -0.890006 0.224364
vn -0.396926 -0.890006 0.224364
vn -0.361111 -0.210966 0.908346
vn -0.361111 -0.210966 0.908346
vn -0.361111 -0.210966 0.908346
vn -0.361111 -0.210966 0.908346
vn -0.418366 -0.892942 0.166208
vn -0.418366 -0.892942 0.166208
vn -0.418366 -0.892942 0.166208
vn -0.418366 -0.892942 0.166208
vn -0.438496 0.295798 0.848661
vn -0.438496 0.295798 0.848661
vn -0.438496 0.295798 0.848661
vn -0.438496 0.295798 0.848661
vn -0.534055 -0.344517 0.772071
vn -0.534055 -0.344517 0.772071
vn -0.534055 -0.344517 0.772071
vn -0.534055 -0.344517 0.772071
vn 0.999990 0.002502 -0.003748
vn 0.999990 0.002502 -0.003748
vn 0.999990 0.002502 -0.003748
vn 0.999990 0.002502 -0.003748
vn 1.000000 -0.000000 -0.000000
vn 1.000000 -0.000000 -0.000000
vn 1.000000 -0.000000 -0.000000
vn 1.000000 -0.000000 -0.000000
vn 1.000000 -0.000000 -0.000000
vn 0.999999 -0.001091 0.001209
vn 0.999999 -0.001091 0.001209
vn 0.999999 -0.001091 0.001209
vn 0.999999 -0.001091 0.001209
vn 0.873386 0.041642 0.485245
vn 0.873386 0.041642 0.485245
vn 0.873386 0.041642 0.485245
vn 0.873386 0.041642 0.485245
vn 0.936678 -0.191204 0.293387
vn 0.936678 -0.191204 0.293387
vn 0.936678 -0.191204 0.293387
vn 0.936678 -0.191204 0.293387
vn 0.438178 0.553394 -0.708347
vn 0.438178 0.553394 -0.708347
vn 0.438178 0.553394 -0.708347
vn 0.438178 0.553394 -0.708347
vn 0.487775 -0.456445 0.744133
vn 0.487775 -0.456445 0.744133
vn 0.487775 -0.456445 0.744133
vn 0.487775 -0.456445 0.744133
vn 0.391959 0.478561 -0.785714
vn 0.391959 0.478561 -0.785714
vn 0.391959 0.478561 -0.785714
vn 0.391959 0.478561 -0.785714
vn 0.367178 -0.908349 -0.200206
vn 0.367178 -0.908349 -0.200206
vn 0.367178 -0.908349 -0.200206
vn 0.367178 -0.908349 -0.200206
vn 0.446212 0.435162 -0.782003
vn 0.446211 0.435162 -0.782003
vn 0.446211 0.435162 -0.782003
vn 0.446211 0.435162 -0.782003
vn 0.403446 -0.590623 0.698853
vn 0.403446 -0.590623 0.698853
vn 0.403446 -0.590623 0.698853
vn 0.403446 -0.590623 0.698853
vn 0.217565 0.744199 0.631532
vn 0.217565 0.744199 0.631532
vn 0.217565 0.744199 0.631532
vn 0.217565 0.744199 0.631532
vn 0.396926 -0.890006 0.224365
vn 0.396926 -0.890006 0.224365
vn 0.396926 -0.890006 0.224365
vn 0.396926 -0.890006 0.224365
vn 0.361111 -0.210966 0.908346
vn 0.361111 -0.210966 0.908346
vn 0.361111 -0.210966 0.908346
vn 0.361111 -0.210966 0.908346
vn 0.418366 -0.892942 0.166208
vn 0.418366 -0.892942 0.166208
vn 0.418366 -0.892942 0.166208
vn 0.418366 -0.892942 0.166208
vn 0.438496 0.295798 0.848661
vn 0.438496 0.295798 0.848661
vn 0.438496 0.295798 0.848661
vn 0.438496 0.295798 0.848661
vn 0.534055 -0.344517 0.772071
vn 0.534055 -0.344517 0.772071
vn 0.534055 -0.344517 0.772071
vn 0.534055 -0.344517 0.772071
vn -0.999999 -0.001101 0.001195
vn -0.999999 -0.001101 0.001195
vn -0.999999 -0.001101 0.001195
vn -0.999999 -0.001101 0.001195
vn 1.000000 0.000000 0.000000
vn 1.000000 0.000000 0.000000
vn 1.000000 0.000000 0.000000
vn -0.665196 -0.705376 -0.244867
vn -0.665196 -0.705376 -0.244867
vn -0.665196 -0.705376 -0.244867
vn -0.665196 -0.705376 -0.244867
vn -0.390083 0.704895 0.592417
vn -0.390083 0.704895 0.592417
vn -0.390083 0.704895 0.592417
vn -0.390083 0.704895 0.592417
vn -0.363919 -0.098671 -0.926190
vn -0.363919 -0.098671 -0.926190
vn -0.363919 -0.098671 -0.926190
vn -0.363919 -0.098671 -0.926190
vn -0.226010 -0.972492 0.056378
vn -0.226010 -0.972492 0.056378
vn -0.226010 -0.972492 0.056378
vn -0.226010 -0.972492 0.056378
vn -0.231560 0.375129 0.897585
vn -0.231560 0.375129 0.897585
vn -0.231560 0.375129 0.897585
vn -0.231560 0.375129 0.897585
vn -0.302301 0.898917 -0.317116
vn -0.302301 0.898917 -0.317116
vn -0.302301 0.898917 -0.317116
vn -0.302301 0.898917 -0.317116
vn 0.092342 -0.957227 -0.274206
vn 0.092342 -0.957227 -0.274206
vn 0.092342 -0.957227 -0.274206
vn 0.092342 -0.957227 -0.274206
vn -0.217670 0.235751 0.947123
vn -0.217670 0.235751 0.947123
vn -0.217670 0.235751 0.947123
vn -0.217670 0.235751 0.947123
vn 0.390082 0.704895 0.592417
vn 0.390082 0.704895 0.592417
vn 0.390082 0.704895 0.592417
vn 0.390082 0.704895 0.592417
vn 0.665195 -0.705376 -0.244867
vn 0.665195 -0.705376 -0.244867
vn 0.665195 -0.705376 -0.244867
vn 0.665195 -0.705376 -0.244867
vn 0.146304 -0.962154 -0.229903
vn 0.146304 -0.962154 -0.229903
vn 0.146304 -0.962154 -0.229903
vn 0.146304 -0.962154 -0.229903
vn 0.684701 0.676821 0.270366
vn 0.684701 0.676821 0.270366
vn 0.684701 0.676821 0.270366
vn 0.684701 0.676821 0.270366
vn 0.363919 -0.098671 -0.926190
vn 0.363919 -0.098671 -0.926190
vn 0.363919 -0.098671 -0.926190
vn 0.363919 -0.098671 -0.926190
vn 0.231559 0.375129 0.897585
vn 0.231559 0.375129 0.897585
vn 0.231559 0.375129 0.897585
vn 0.231559 0.375129 0.897585
vn 0.226010 -0.972492 0.056378
vn 0.226010 -0.972492 0.056378
vn 0.226010 -0.972492 0.056378
vn 0.226010 -0.972492 0.056378
vn 0.302301 0.898917 -0.317116
vn 0.302301 0.898917 -0.317116
vn 0.302301 0.898917 -0.317116
vn 0.302301 0.898917 -0.317116
vn 0.217665 0.235758 0.947122
vn 0.217665 0.235758 0.947122
vn 0.217665 0.235758 0.947122
vn 0.217665 0.235758 0.947122
vn -0.092342 -0.957228 -0.274205
vn -0.092342 -0.957228 -0.274205
vn -0.092342 -0.957228 -0.274205
vn -0.092342 -0.957228 -0.274205
vn -0.684703 0.676820 0.270365
vn -0.684703 0.676820 0.270365
vn -0.684703 0.676820 0.270365
vn -0.684703 0.676820 0.270365
vn -0.146304 -0.962154 -0.229903
vn -0.146304 -0.962154 -0.229903
vn -0.146304 -0.962154 -0.229903
vn -0.146304 -0.962154 -0.229903
vn 0.525075 -0.321078 -0.788166
vn 0.525075 -0.321078 -0.788166
vn 0.525075 -0.321078 -0.788166
vn 0.525075 -0.321078 -0.788166
vn -0.525075 -0.321078 -0.788166
vn -0.525075 -0.321078 -0.788166
vn -0.525075 -0.321078 -0.788166
vn -0.525075 -0.321078 -0.788166
vn 0.999996 0.001463 0.002618
vn 0.999996 0.001463 0.002618
vn 0.999996 0.001463 0.002618
vn 0.366046 -0.308567 -0.877951
vn 0.366046 -0.308567 -0.877950
vn 0.366046 -0.308567 -0.877950
vn 0.366046 -0.308567 -0.877950
vn -0.417447 -0.175894 -0.891515
vn -0.417447 -0.175894 -0.891515
vn -0.417447 -0.175894 -0.891515
vn -0.417447 -0.175894 -0.891515
vn -0.999997 0.000776 0.002454
vn -0.999997 0.000776 0.002454
vn -0.999997 0.000776 0.002454
vn -0.000000 0.930034 0.367474
vn -0.024275 0.929760 0.367366
vn -0.024275 0.929760 0.367366
vn 0.000000 0.930034 0.367474
vn -0.000000 0.930034 0.367474
vn 0.000000 0.930034 0.367474
vn 0.024275 0.929760 0.367366
vn 0.024275 0.929760 0.367366
s off
f 33/1/1 34/2/2 35/3/3 36/4/4
f 2/5/5 1/6/6 56/7/7 6/8/8 5/9/9
f 2/10/10 5/11/11 9/12/12 8/13/13
f 7/14/14 4/15/15 10/16/16 11/17/17
f 7/18/18 3/19/19 4/20/20
f 33/1/21 36/4/22 37/21/23 38/22/24
f 35/3/25 34/2/26 39/23/27 40/24/28
f 55/25/29 56/26/30 1/27/31 12/28/32
f 5/29/33 6/30/34 15/31/35 16/32/36
f 58/33/37 59/34/38 41/35/39 42/36/40
f 44/37/41 43/38/42 45/39/43 46/40/44
f 2/41/45 8/42/46 18/43/47 13/44/48
f 9/45/49 5/46/50 16/47/51 19/48/52
f 8/49/53 9/50/54 19/51/55 18/52/56
f 10/53/57 4/54/58 14/55/59 20/56/60
f 7/57/61 11/58/62 21/59/63 17/60/64
f 11/61/65 10/62/66 20/63/67 21/64/68
f 47/65/69 48/66/70 49/67/71 50/68/72
f 23/69/73 26/70/74 27/71/75 54/72/76 22/73/77
f 51/74/78 57/75/79 52/76/80 53/77/81
f 23/78/82 29/79/83 30/80/84 26/81/85
f 28/82/86 32/83/87 31/84/88 25/85/89
f 47/65/90 38/22/91 37/21/92 48/66/93
f 49/67/94 40/24/95 39/23/96 50/68/97
f 54/86/98 55/87/99 12/88/100 22/89/101
f 26/90/102 16/91/103 15/92/104 27/93/105
f 57/75/106 58/33/107 42/36/108 52/76/109
f 53/77/110 46/40/111 45/39/112 51/74/113
f 23/94/114 13/95/115 18/96/116 29/97/117
f 30/98/118 19/99/119 16/100/120 26/101/121
f 29/102/122 18/103/123 19/104/124 30/105/125
f 31/106/126 20/107/127 14/108/128 25/109/129
f 28/110/130 17/111/131 21/112/132 32/113/133
f 32/114/134 21/115/135 20/116/136 31/117/137
f 43/38/138 44/37/139 41/35/140 59/34/141
f 28/118/142 25/119/143 24/120/144
f 1/121/145 2/122/146 34/2/147 33/1/148
f 4/123/149 3/124/150 36/4/151 35/3/152
f 12/125/153 1/121/154 33/1/155 38/22/156
f 2/122/157 13/126/158 39/23/159 34/2/160
f 14/127/161 4/123/162 35/3/163 40/24/164
f 60/128/165 61/129/166 42/36/167 41/35/168
f 7/130/169 17/131/170 45/39/171 43/38/172
f 62/132/173 63/133/174 44/37/175 46/40/176
f 24/134/177 25/135/178 49/67/179 48/66/180
f 23/136/181 22/137/182 47/65/183 50/68/184
f 28/138/185 24/134/186 48/66/187 51/139/188
f 64/140/189 65/141/190 53/77/191 52/76/192
f 22/137/193 12/125/194 38/22/195 47/65/196
f 25/135/197 14/127/198 40/24/199 49/67/200
f 13/126/201 23/136/202 50/68/203 39/23/204
f 61/129/205 64/140/206 52/76/207 42/36/208
f 65/141/209 62/132/210 46/40/211 53/77/212
f 17/131/213 28/142/214 51/74/215 45/39/216
f 63/133/217 60/128/218 41/35/219 44/37/220
f 3/124/221 7/143/222 43/144/223 36/4/224
f 27/145/225 15/146/226 55/87/227 54/86/228
f 6/147/229 56/26/230 55/25/231 15/148/232
f 51/74/233 48/149/234 57/75/235
f 48/149/236 37/150/237 58/33/238 57/75/239
f 36/151/240 59/34/241 58/33/242 37/150/243
f 43/38/244 59/34/245 36/151/246
f 61/129/247 60/128/248 63/133/249 62/132/250
f 61/129/251 62/132/252 65/141/253 64/140/254
