# This file uses centimeters as units for non-parametric coordinates.

v -0.128006 1.547417 -0.222412
v -0.128006 1.547417 0.171082
v -0.128006 2.348183 -0.222412
v -0.128006 2.348183 0.171082
v 0.128006 2.348183 -0.222412
v 0.128006 2.348183 0.171082
v 0.128006 1.547417 -0.222412
v 0.128006 1.547417 0.171082
v -0.466003 -0.934681 -0.637054
v -0.466003 -0.934681 0.760468
v -0.466003 1.494179 -0.637054
v -0.466003 1.494179 0.760468
v 0.466003 1.494179 -0.637054
v 0.466003 1.494179 0.760468
v 0.466003 -0.934681 -0.637054
v 0.466003 -0.934681 0.760468
v 0.616577 1.353661 -0.794037
v 1.233139 2.421600 -0.794037
v 0.616577 3.489532 -0.794037
v -0.616577 3.489532 -0.794037
v -1.233139 2.421600 -0.794037
v -0.616577 1.353661 -0.794037
v 0.616577 1.353661 0.905945
v 1.233139 2.421600 0.382172
v 0.616577 3.489532 0.019226
v -0.616577 3.489532 0.019226
v -1.233139 2.421600 0.382172
v -0.616577 1.353661 0.905945
v 0.504715 1.547417 -0.794037
v 1.009430 2.421600 -0.794037
v 1.009430 2.421600 0.382172
v 0.504715 1.547417 0.905945
v 0.504715 3.295784 -0.794037
v 0.504715 3.295784 0.019226
v -0.504715 3.295784 -0.794037
v -0.504715 3.295784 0.019226
v -1.009430 2.421600 -0.794037
v -1.009430 2.421600 0.382172
v -0.504715 1.547417 -0.794037
v -0.504715 1.547417 0.905945
vt 0.091010 0.228930
vt 0.091010 0.228930
vt 0.091010 0.228930
vt 0.091010 0.228930
vt 0.091010 0.228930
vt 0.091010 0.228930
vt 0.091010 0.228930
vt 0.091010 0.228930
vt 0.091010 0.228930
vt 0.091010 0.228930
vt 0.091010 0.228930
vt 0.091010 0.228930
vt 0.091010 0.228930
vt 0.091010 0.228930
vt 0.091010 0.228930
vt 0.091010 0.228930
vt 0.091010 0.228930
vt 0.091010 0.228930
vt 0.091010 0.228930
vt 0.091010 0.228930
vt 0.091010 0.228930
vt 0.091010 0.228930
vt 0.091009 0.228930
vt 0.091009 0.228930
vt 0.091010 0.228930
vt 0.091010 0.228930
vt 0.091010 0.228930
vt 0.091010 0.228930
vt 0.091010 0.228930
vt 0.091010 0.228930
vt 0.091010 0.228930
vt 0.091010 0.228930
vt 0.091010 0.228930
vt 0.091010 0.228930
vt 0.091010 0.228930
vt 0.091010 0.228930
vt 0.091010 0.228930
vt 0.091010 0.228930
vt 0.091010 0.228930
vt 0.091010 0.228930
vt 0.091010 0.228930
vt 0.091010 0.228930
vt 0.091010 0.228930
vt 0.091010 0.228930
vt 0.091010 0.228930
vt 0.091010 0.228930
vt 0.091010 0.228930
vt 0.091010 0.228930
vt 0.091010 0.228930
vt 0.091010 0.228930
vt 0.091010 0.228930
vt 0.091010 0.228930
vt 0.091010 0.228930
vt 0.091010 0.228930
vt 0.091010 0.228930
vt 0.091010 0.228930
vt 0.091010 0.228930
vt 0.091010 0.228930
vt 0.091010 0.228930
vt 0.091010 0.228930
vt 0.091010 0.228930
vt 0.091010 0.228930
vt 0.091010 0.228930
vt 0.091010 0.228930
vt 0.091010 0.228930
vt 0.091010 0.228930
vt 0.091010 0.228930
vt 0.091010 0.228930
vt 0.091010 0.228930
vt 0.091010 0.228930
vt 0.091010 0.228930
vt 0.091010 0.228930
vt 0.091010 0.228930
vt 0.091010 0.228930
vt 0.091010 0.228930
vt 0.091010 0.228930
vt 0.091010 0.228930
vt 0.091010 0.228930
vt 0.091010 0.228930
vt 0.091010 0.228930
vt 0.091010 0.228930
vt 0.091010 0.228930
vt 0.091010 0.228930
vt 0.091010 0.228930
vt 0.091010 0.228930
vt 0.091010 0.228930
vn -1.000000 0.000000 0.000000
vn -1.000000 0.000000 0.000000
vn -1.000000 0.000000 0.000000
vn -1.000000 0.000000 0.000000
vn 0.000000 1.000000 0.000000
vn 0.000000 1.000000 0.000000
vn 0.000000 1.000000 0.000000
vn 0.000000 1.000000 0.000000
vn 1.000000 0.000000 0.000000
vn 1.000000 0.000000 0.000000
vn 1.000000 0.000000 0.000000
vn 1.000000 0.000000 0.000000
vn 0.000000 0.000000 1.000000
vn 0.000000 0.000000 1.000000
vn 0.000000 0.000000 1.000000
vn 0.000000 0.000000 1.000000
vn 0.000000 0.000000 -1.000000
vn 0.000000 0.000000 -1.000000
vn 0.000000 0.000000 -1.000000
vn 0.000000 0.000000 -1.000000
vn -1.000000 0.000000 0.000000
vn -1.000000 0.000000 0.000000
vn -1.000000 0.000000 0.000000
vn -1.000000 0.000000 0.000000
vn 1.000000 0.000000 0.000000
vn 1.000000 0.000000 0.000000
vn 1.000000 0.000000 0.000000
vn 1.000000 0.000000 0.000000
vn 0.000000 -1.000000 0.000000
vn 0.000000 -1.000000 0.000000
vn 0.000000 -1.000000 0.000000
vn 0.000000 -1.000000 0.000000
vn 0.000000 0.000000 1.000000
vn 0.000000 0.000000 1.000000
vn 0.000000 0.000000 1.000000
vn 0.000000 0.000000 1.000000
vn 0.000000 0.000000 -1.000000
vn 0.000000 0.000000 -1.000000
vn 0.000000 0.000000 -1.000000
vn 0.000000 0.000000 -1.000000
vn -0.866023 0.500004 0.000000
vn -0.866023 0.500004 0.000000
vn -0.866023 0.500004 0.000000
vn -0.866023 0.500004 0.000000
vn -0.866023 -0.500004 0.000000
vn -0.866023 -0.500004 0.000000
vn -0.866023 -0.500004 0.000000
vn -0.866023 -0.500004 0.000000
vn 0.000000 -1.000000 0.000000
vn 0.000000 -1.000000 0.000000
vn 0.000000 -1.000000 0.000000
vn 0.000000 -1.000000 0.000000
vn 0.866023 -0.500004 0.000000
vn 0.866023 -0.500004 0.000000
vn 0.866023 -0.500004 0.000000
vn 0.866023 -0.500004 0.000000
vn 0.866023 0.500004 0.000000
vn 0.866023 0.500004 0.000000
vn 0.866023 0.500004 0.000000
vn 0.866023 0.500004 0.000000
vn 0.000000 1.000000 0.000000
vn 0.000000 1.000000 0.000000
vn 0.000000 1.000000 0.000000
vn 0.000000 1.000000 0.000000
vn 0.866030 -0.499992 0.000000
vn 0.866030 -0.499992 0.000000
vn 0.866030 -0.499992 0.000000
vn 0.866030 -0.499992 0.000000
vn 0.866029 0.499995 0.000000
vn 0.866029 0.499995 0.000000
vn 0.866029 0.499995 0.000000
vn 0.866029 0.499995 0.000000
vn 0.000000 1.000000 0.000000
vn 0.000000 1.000000 0.000000
vn 0.000000 1.000000 0.000000
vn 0.000000 1.000000 0.000000
vn -0.866029 0.499995 0.000000
vn -0.866029 0.499995 0.000000
vn -0.866029 0.499995 0.000000
vn -0.866029 0.499995 0.000000
vn -0.866030 -0.499992 0.000000
vn -0.866030 -0.499992 0.000000
vn -0.866030 -0.499992 0.000000
vn -0.866030 -0.499992 0.000000
vn 0.000000 -1.000000 0.000000
vn 0.000000 -1.000000 0.000000
vn 0.000000 -1.000000 0.000000
vn 0.000000 -1.000000 0.000000
vn 0.000000 0.000000 -1.000000
vn 0.000000 0.000000 -1.000000
vn 0.000000 0.000000 -1.000000
vn 0.000000 0.000000 -1.000000
vn 0.211623 0.366515 0.906026
vn 0.211623 0.366515 0.906026
vn 0.211623 0.366515 0.906026
vn 0.211623 0.366515 0.906026
vn 0.000000 0.000000 -1.000000
vn 0.000000 0.000000 -1.000000
vn 0.000000 0.000000 -1.000000
vn 0.000000 0.000000 -1.000000
vn -0.153983 0.266697 0.951400
vn -0.153983 0.266697 0.951400
vn -0.153983 0.266697 0.951400
vn -0.153983 0.266697 0.951400
vn 0.000000 0.000000 -1.000000
vn 0.000000 0.000000 -1.000000
vn 0.000000 0.000000 -1.000000
vn 0.000000 0.000000 -1.000000
vn 0.000000 0.000000 1.000000
vn 0.000000 0.000000 1.000000
vn 0.000000 0.000000 1.000000
vn 0.000000 0.000000 1.000000
vn -0.000000 0.000000 -1.000000
vn -0.000000 0.000000 -1.000000
vn -0.000000 0.000000 -1.000000
vn -0.000000 0.000000 -1.000000
vn 0.153983 0.266697 0.951400
vn 0.153983 0.266697 0.951400
vn 0.153983 0.266697 0.951400
vn 0.153982 0.266697 0.951400
vn 0.000000 0.000000 -1.000000
vn 0.000000 0.000000 -1.000000
vn 0.000000 0.000000 -1.000000
vn 0.000000 0.000000 -1.000000
vn -0.211623 0.366515 0.906026
vn -0.211623 0.366515 0.906026
vn -0.211623 0.366515 0.906026
vn -0.211623 0.366515 0.906026
vn 0.000000 0.000000 -1.000000
vn 0.000000 0.000000 -1.000000
vn 0.000000 0.000000 -1.000000
vn 0.000000 0.000000 -1.000000
vn 0.000000 0.000000 1.000000
vn 0.000000 0.000000 1.000000
vn 0.000000 0.000000 1.000000
vn 0.000000 0.000000 1.000000
s off
f 1/1/1 2/2/2 4/3/3 3/4/4
f 3/4/5 4/3/6 6/5/7 5/6/8
f 5/6/9 6/5/10 8/7/11 7/8/12
f 2/2/13 8/9/14 6/10/15 4/3/16
f 7/11/17 1/1/18 3/4/19 5/12/20
f 9/13/21 10/14/22 12/15/23 11/16/24
f 13/18/25 14/17/26 16/19/27 15/20/28
f 15/20/29 16/19/30 10/21/31 9/22/32
f 10/14/33 16/23/34 14/24/35 12/15/36
f 15/25/37 9/13/38 11/16/39 13/26/40
f 29/27/41 32/28/42 31/29/43 30/30/44
f 30/30/45 31/29/46 34/31/47 33/32/48
f 33/33/49 34/34/50 36/35/51 35/36/52
f 35/37/53 36/38/54 38/39/55 37/40/56
f 37/40/57 38/39/58 40/41/59 39/42/60
f 39/43/61 40/44/62 32/45/63 29/46/64
f 17/47/65 18/48/66 24/49/67 23/50/68
f 18/48/69 19/51/70 25/52/71 24/49/72
f 19/53/73 20/54/74 26/55/75 25/56/76
f 20/57/77 21/58/78 27/59/79 26/60/80
f 21/58/81 22/61/82 28/62/83 27/59/84
f 22/63/85 17/64/86 23/65/87 28/66/88
f 17/67/89 29/27/90 30/30/91 18/68/92
f 24/69/93 31/29/94 32/28/95 23/70/96
f 18/68/97 30/30/98 33/32/99 19/71/100
f 25/72/101 34/31/102 31/29/103 24/69/104
f 19/73/105 33/33/106 35/36/107 20/74/108
f 26/75/109 36/35/110 34/34/111 25/76/112
f 20/77/113 35/37/114 37/40/115 21/78/116
f 27/79/117 38/39/118 36/38/119 26/80/120
f 21/78/121 37/40/122 39/42/123 22/81/124
f 28/82/125 40/41/126 38/39/127 27/79/128
f 22/83/129 39/43/130 29/46/131 17/84/132
f 23/85/133 32/45/134 40/44/135 28/86/136
