# This file uses centimeters as units for non-parametric coordinates.

v 1.229146 -8.335164 -6.453857
v 1.229146 -9.338384 -1.930725
v 1.229146 -10.551713 -2.102539
v 1.229146 -9.434468 -6.369751
v 1.229146 -2.283727 -2.247742
v 1.229146 -1.473943 -2.118958
v 1.229146 -1.553823 1.639526
v 0.898259 -10.126676 -1.253296
v 0.898259 -10.584455 -1.325256
v 1.229146 -2.610646 1.631958
v -0.000000 -8.341527 -7.186707
v -0.000000 -9.642842 -1.120361
v -0.000000 -9.584790 -7.108398
v -0.000000 -11.013535 -2.386780
v -0.000000 -2.166554 -2.731262
v -0.000000 -1.473943 -3.032654
v -0.000000 -2.908727 2.030029
v -0.000000 -1.553823 2.034302
v -0.000000 -10.176572 -0.704285
v -0.000000 -11.052297 -1.013062
v 1.229146 0.392421 1.639526
v 1.229146 -0.398808 -3.937195
v 1.229146 0.392421 -4.021179
v -0.000000 -0.685491 -3.937195
v -1.229146 0.392421 -4.021179
v -1.229146 -8.335164 -6.453857
v -1.229146 -9.338384 -1.930725
v -1.229146 -10.551713 -2.102539
v -1.229146 -9.434468 -6.369751
v -1.229146 -2.283727 -2.247742
v -1.229146 -1.473943 -2.118958
v -1.229146 -1.553823 1.639526
v -0.898259 -10.126676 -1.253296
v -0.898259 -10.584455 -1.325256
v -1.229146 -2.610646 1.631958
v -1.229146 0.392421 1.639526
v -1.229146 -0.398808 -3.937195
v -0.000000 0.392421 2.034302
v 1.229146 -4.462090 -3.761833
v 1.229146 -5.929124 -0.125343
v -0.000000 -4.322511 -4.286858
v -0.000000 -6.241816 0.470726
v -1.229146 -6.048144 -0.188377
v -1.229146 -4.574904 -3.840248
v 1.435362 -2.968282 1.483780
v -0.000881 -3.336179 2.126801
v -0.000944 -6.062497 0.866730
v 1.432098 -5.673382 0.043480
v -1.423742 -2.432384 -2.368629
v -0.001024 -2.184447 -3.105278
v -0.001044 -3.941725 -4.377861
v -1.422987 -4.303296 -3.666702
v -1.436306 -2.976475 1.478279
v -1.432979 -5.778653 -0.013557
v 1.421963 -4.203156 -3.597778
v 1.422698 -2.424337 -2.363663
v 1.428218 -7.942685 -6.197426
v 1.429682 -4.780019 -4.003151
v 1.454432 -6.276044 -0.319954
v 1.450548 -9.055532 -1.798874
v 0.000589 -7.788644 -7.141823
v 0.000567 -4.512503 -4.769997
v -1.450007 -9.063268 -1.803062
v -1.453827 -6.380857 -0.375679
v -1.429093 -4.879759 -4.072495
v -1.427650 -7.950329 -6.202820
v 0.000541 -6.667180 0.528351
v 0.000605 -9.448229 -0.759087
vt 0.104367 0.109255
vt 0.104367 0.109255
vt 0.104367 0.109255
vt 0.104367 0.109255
vt 0.495992 0.202462
vt 0.495992 0.202462
vt 0.495992 0.202462
vt 0.495992 0.202462
vt 0.495992 0.202462
vt 0.495992 0.202462
vt 0.495992 0.202462
vt 0.495992 0.202462
vt 0.495992 0.202462
vt 0.495992 0.202462
vt 0.104367 0.109255
vt 0.104367 0.109255
vt 0.104367 0.109255
vt 0.104367 0.109255
vt 0.104367 0.109255
vt 0.104367 0.109255
vt 0.495992 0.202462
vt 0.495992 0.202462
vt 0.495992 0.202462
vt 0.495992 0.202462
vt 0.495992 0.202462
vt 0.495992 0.202462
vt 0.495992 0.202462
vt 0.495992 0.202462
vt 0.495992 0.202462
vt 0.495992 0.202462
vt 0.495992 0.202462
vt 0.495992 0.202462
vt 0.495992 0.202462
vt 0.495992 0.202462
vt 0.495992 0.202462
vt 0.104367 0.109255
vt 0.104367 0.109255
vt 0.104367 0.109255
vt 0.104367 0.109255
vt 0.495992 0.202462
vt 0.495992 0.202462
vt 0.495992 0.202462
vt 0.495992 0.202462
vt 0.495992 0.202462
vt 0.495992 0.202462
vt 0.495992 0.202462
vt 0.495992 0.202462
vt 0.495992 0.202462
vt 0.495992 0.202462
vt 0.104367 0.109255
vt 0.104367 0.109255
vt 0.104367 0.109255
vt 0.104367 0.109255
vt 0.104367 0.109255
vt 0.104367 0.109255
vt 0.495992 0.202462
vt 0.495992 0.202462
vt 0.495992 0.202462
vt 0.104367 0.109255
vt 0.104367 0.109255
vt 0.104367 0.109255
vt 0.104367 0.109255
vt 0.104367 0.109255
vt 0.104367 0.109255
vt 0.104367 0.109255
vt 0.104367 0.109255
vt 0.104367 0.109255
vt 0.104367 0.109255
vt 0.104367 0.109255
vt 0.104367 0.109255
vt 0.104367 0.109255
vt 0.104367 0.109255
vt 0.104367 0.109255
vt 0.104367 0.109255
vt 0.104367 0.109255
vt 0.104367 0.109255
vt 0.104367 0.109255
vt 0.104367 0.109255
vt 0.104367 0.109255
vt 0.104367 0.109255
vn 0.999984 0.002252 -0.005098
vn 0.999984 0.002252 -0.005098
vn 0.999984 0.002252 -0.005098
vn 0.999984 0.002252 -0.005098
vn 1.000000 0.000000 0.000000
vn 1.000000 0.000000 0.000000
vn 1.000000 0.000000 0.000000
vn 1.000000 0.000000 0.000000
vn 1.000000 0.000000 0.000000
vn 1.000000 0.000000 0.000000
vn 1.000000 0.000000 0.000000
vn 1.000000 0.000000 0.000000
vn 0.920410 -0.056434 0.386860
vn 0.920410 -0.056434 0.386860
vn 0.920410 -0.056434 0.386860
vn 0.920410 -0.056434 0.386860
vn 0.497825 0.501613 -0.707498
vn 0.497825 0.501613 -0.707498
vn 0.497825 0.501613 -0.707498
vn 0.497825 0.501613 -0.707498
vn 0.498502 -0.386174 0.776122
vn 0.498502 -0.386175 0.776122
vn 0.498502 -0.386174 0.776122
vn 0.498502 -0.386175 0.776122
vn 0.515478 -0.059268 -0.854851
vn 0.515478 -0.059268 -0.854851
vn 0.515478 -0.059268 -0.854851
vn 0.515478 -0.059268 -0.854851
vn 0.332854 -0.907287 -0.256979
vn 0.332854 -0.907287 -0.256979
vn 0.332854 -0.907287 -0.256979
vn 0.332854 -0.907287 -0.256979
vn 0.488081 -0.099619 -0.867095
vn 0.488081 -0.099619 -0.867095
vn 0.488081 -0.099619 -0.867095
vn 0.488081 -0.099619 -0.867095
vn 0.394426 0.525067 0.754143
vn 0.394426 0.525067 0.754143
vn 0.394426 0.525068 0.754143
vn 0.394426 0.525067 0.754143
vn 0.400579 -0.915731 0.031181
vn 0.400579 -0.915731 0.031181
vn 0.400579 -0.915731 0.031181
vn 0.400579 -0.915731 0.031181
vn 0.475201 -0.241566 0.846067
vn 0.475201 -0.241566 0.846068
vn 0.475201 -0.241566 0.846068
vn 0.475200 -0.241566 0.846067
vn 0.307460 -0.004672 0.951550
vn 0.307460 -0.004672 0.951550
vn 0.307460 -0.004672 0.951550
vn 0.307460 -0.004672 0.951550
vn 1.000000 0.000000 0.000000
vn 1.000000 0.000000 0.000000
vn 1.000000 0.000000 0.000000
vn 1.000000 0.000000 0.000000
vn 1.000000 0.000000 0.000000
vn 1.000000 0.000000 0.000000
vn 1.000000 0.000000 0.000000
vn 0.292752 -0.789064 -0.540069
vn 0.292752 -0.789064 -0.540069
vn 0.292752 -0.789064 -0.540069
vn 0.292752 -0.789064 -0.540069
vn 0.000000 -0.077679 -0.996978
vn 0.000000 -0.077679 -0.996979
vn 0.000000 -0.077679 -0.996979
vn -0.999985 0.002236 -0.005094
vn -0.999985 0.002236 -0.005094
vn -0.999985 0.002236 -0.005094
vn -0.999985 0.002236 -0.005094
vn -1.000000 0.000000 0.000000
vn -1.000000 0.000000 0.000000
vn -1.000000 0.000000 0.000000
vn -1.000000 0.000000 0.000000
vn -1.000000 0.000000 0.000000
vn -1.000000 0.000000 0.000000
vn -1.000000 0.000000 0.000000
vn -1.000000 0.000000 0.000000
vn -0.920410 -0.056434 0.386860
vn -0.920410 -0.056434 0.386860
vn -0.920410 -0.056434 0.386860
vn -0.920410 -0.056434 0.386860
vn -0.474579 0.508805 -0.718256
vn -0.474579 0.508805 -0.718256
vn -0.474579 0.508805 -0.718256
vn -0.474579 0.508805 -0.718256
vn -0.499964 -0.386159 0.775188
vn -0.499964 -0.386159 0.775189
vn -0.499964 -0.386159 0.775189
vn -0.499964 -0.386159 0.775189
vn -0.515478 -0.059268 -0.854851
vn -0.515478 -0.059268 -0.854851
vn -0.515478 -0.059268 -0.854851
vn -0.515478 -0.059268 -0.854851
vn -0.332854 -0.907287 -0.256979
vn -0.332854 -0.907287 -0.256979
vn -0.332854 -0.907287 -0.256979
vn -0.332854 -0.907287 -0.256979
vn -0.488081 -0.099619 -0.867095
vn -0.488081 -0.099619 -0.867095
vn -0.488081 -0.099619 -0.867095
vn -0.488081 -0.099619 -0.867095
vn -0.394426 0.525068 0.754143
vn -0.394426 0.525068 0.754143
vn -0.394426 0.525068 0.754143
vn -0.394426 0.525068 0.754143
vn -0.400579 -0.915731 0.031180
vn -0.400579 -0.915731 0.031180
vn -0.400579 -0.915731 0.031180
vn -0.400579 -0.915731 0.031180
vn -0.475201 -0.241566 0.846067
vn -0.475200 -0.241566 0.846067
vn -0.475201 -0.241566 0.846068
vn -0.475201 -0.241566 0.846068
vn -0.307460 -0.004672 0.951550
vn -0.307460 -0.004672 0.951550
vn -0.307460 -0.004672 0.951550
vn -0.307460 -0.004672 0.951550
vn -1.000000 0.000000 0.000000
vn -1.000000 0.000000 0.000000
vn -1.000000 0.000000 0.000000
vn -1.000000 0.000000 0.000000
vn -1.000000 0.000000 0.000000
vn -1.000000 0.000000 0.000000
vn -1.000000 0.000000 0.000000
vn -0.292752 -0.789064 -0.540069
vn -0.292752 -0.789064 -0.540069
vn -0.292752 -0.789064 -0.540069
vn -0.292752 -0.789064 -0.540069
vn -0.024611 -0.105519 -0.994113
vn -0.024611 -0.105519 -0.994113
vn -0.024611 -0.105519 -0.994113
vn 0.000000 1.000000 0.000000
vn 0.000000 1.000000 0.000000
vn 0.000000 1.000000 0.000000
vn 0.024611 -0.105519 -0.994113
vn 0.024611 -0.105519 -0.994113
vn 0.024611 -0.105519 -0.994113
vn 0.305793 0.000000 0.952098
vn 0.305793 0.000000 0.952098
vn 0.305793 0.000000 0.952098
vn 0.305793 0.000000 0.952098
vn 0.000000 1.000000 0.000000
vn 0.000000 1.000000 0.000000
vn 0.000000 1.000000 0.000000
vn 0.000000 1.000000 0.000000
vn 0.000000 1.000000 0.000000
vn 0.000000 1.000000 0.000000
vn -0.305793 0.000000 0.952098
vn -0.305793 0.000000 0.952098
vn -0.305793 0.000000 0.952098
vn -0.305793 0.000000 0.952098
vn 0.999996 0.000796 -0.002830
vn 0.999996 0.000796 -0.002830
vn 0.999996 0.000796 -0.002830
vn 0.999996 0.000796 -0.002830
vn 0.473747 0.509235 -0.718500
vn 0.473747 0.509235 -0.718500
vn 0.473747 0.509236 -0.718500
vn 0.473747 0.509235 -0.718500
vn 0.574755 -0.364816 0.732507
vn 0.574755 -0.364816 0.732507
vn 0.574755 -0.364816 0.732507
vn 0.574755 -0.364816 0.732507
vn -0.999996 0.000794 -0.002794
vn -0.999996 0.000794 -0.002794
vn -0.999996 0.000794 -0.002794
vn -0.999996 0.000794 -0.002794
vn -0.497918 0.501681 -0.707385
vn -0.497918 0.501681 -0.707385
vn -0.497918 0.501681 -0.707385
vn -0.497918 0.501681 -0.707385
vn -0.575278 -0.364315 0.732345
vn -0.575278 -0.364315 0.732345
vn -0.575278 -0.364315 0.732345
vn -0.575278 -0.364315 0.732345
vn 0.356661 0.032145 0.933681
vn 0.356661 0.032145 0.933681
vn 0.356661 0.032145 0.933681
vn 0.356661 0.032145 0.933681
vn 0.441799 -0.780155 0.442913
vn 0.441799 -0.780155 0.442913
vn 0.441799 -0.780155 0.442913
vn 0.441799 -0.780155 0.442913
vn -0.234058 0.945656 -0.225724
vn -0.234058 0.945656 -0.225724
vn -0.234058 0.945656 -0.225724
vn -0.234058 0.945656 -0.225724
vn -0.399556 -0.003373 -0.916703
vn -0.399556 -0.003373 -0.916703
vn -0.399556 -0.003373 -0.916703
vn -0.399556 -0.003373 -0.916703
vn -0.359588 0.027393 0.932709
vn -0.359588 0.027393 0.932709
vn -0.359588 0.027393 0.932709
vn -0.359588 0.027393 0.932709
vn -0.410997 -0.782474 0.467778
vn -0.410997 -0.782474 0.467778
vn -0.410997 -0.782474 0.467778
vn -0.410997 -0.782474 0.467778
vn 0.835633 -0.508962 -0.206578
vn 0.835633 -0.508962 -0.206578
vn 0.835633 -0.508962 -0.206578
vn 0.835633 -0.508962 -0.206578
vn 0.795182 0.602700 0.066622
vn 0.795182 0.602700 0.066622
vn 0.795182 0.602700 0.066622
vn 0.795182 0.602700 0.066622
vn 0.437857 -0.028647 -0.898588
vn 0.437857 -0.028647 -0.898588
vn 0.437857 -0.028647 -0.898588
vn 0.437857 -0.028647 -0.898588
vn 0.228130 0.949052 -0.217385
vn 0.228130 0.949052 -0.217385
vn 0.228130 0.949052 -0.217385
vn 0.228130 0.949052 -0.217385
vn -0.846538 -0.493230 -0.200245
vn -0.846538 -0.493230 -0.200245
vn -0.846538 -0.493230 -0.200245
vn -0.846538 -0.493230 -0.200245
vn -0.803118 0.592213 0.065454
vn -0.803118 0.592213 0.065454
vn -0.803118 0.592213 0.065454
vn -0.803118 0.592213 0.065454
vn 0.877449 0.445647 0.177434
vn 0.877449 0.445647 0.177434
vn 0.877449 0.445647 0.177434
vn 0.877449 0.445647 0.177434
vn 0.871619 -0.476457 -0.115189
vn 0.871619 -0.476457 -0.115189
vn 0.871619 -0.476457 -0.115189
vn 0.871619 -0.476457 -0.115189
vn 0.352255 0.809478 -0.469746
vn 0.352255 0.809478 -0.469746
vn 0.352255 0.809478 -0.469746
vn 0.352255 0.809478 -0.469746
vn 0.533636 0.152436 -0.831863
vn 0.533636 0.152436 -0.831863
vn 0.533636 0.152436 -0.831863
vn 0.533636 0.152436 -0.831863
vn -0.869520 0.458831 0.182783
vn -0.869520 0.458831 0.182783
vn -0.869520 0.458831 0.182783
vn -0.869520 0.458831 0.182783
vn -0.867234 -0.483971 -0.116952
vn -0.867234 -0.483971 -0.116952
vn -0.867234 -0.483971 -0.116952
vn -0.867234 -0.483971 -0.116952
vn 0.477261 -0.016289 0.878611
vn 0.477261 -0.016289 0.878611
vn 0.477261 -0.016289 0.878611
vn 0.477261 -0.016289 0.878611
vn 0.510894 -0.721013 0.468110
vn 0.510894 -0.721013 0.468110
vn 0.510894 -0.721013 0.468110
vn 0.510894 -0.721013 0.468110
vn -0.382139 0.806408 -0.451305
vn -0.382139 0.806408 -0.451305
vn -0.382139 0.806408 -0.451305
vn -0.382139 0.806408 -0.451305
vn -0.532740 0.150375 -0.832812
vn -0.532740 0.150375 -0.832812
vn -0.532740 0.150375 -0.832812
vn -0.532740 0.150375 -0.832812
vn -0.503203 0.000956 0.864168
vn -0.503203 0.000956 0.864168
vn -0.503203 0.000956 0.864168
vn -0.503203 0.000956 0.864168
vn -0.508773 -0.723776 0.466152
vn -0.508773 -0.723776 0.466152
vn -0.508773 -0.723776 0.466152
vn -0.508773 -0.723776 0.466152
s off
f 57/1/1 58/2/2 59/3/3 60/4/4
f 2/5/5 3/6/6 4/7/7 1/8/8
f 5/9/9 6/10/10 7/11/11 10/12/12
f 2/5/13 8/13/14 9/14/15 3/6/16
f 61/15/17 62/16/18 58/2/19 57/1/20
f 45/17/21 46/18/22 47/19/23 48/20/24
f 4/7/25 13/21/26 11/22/27 1/8/28
f 3/6/29 14/23/30 13/21/31 4/7/32
f 5/9/33 15/24/34 16/25/35 6/10/36
f 2/5/37 12/26/38 19/27/39 8/13/40
f 9/14/41 20/28/42 14/23/43 3/6/44
f 8/13/45 19/27/46 20/28/47 9/14/48
f 7/11/49 18/29/50 17/30/51 10/12/52
f 6/10/53 21/31/54 7/11/55
f 6/10/56 22/32/57 23/33/58 21/31/59
f 6/10/60 16/25/61 24/34/62 22/32/63
f 24/34/64 25/35/65 23/33/66
f 63/36/67 64/37/68 65/38/69 66/39/70
f 27/40/71 26/41/72 29/42/73 28/43/74
f 30/44/75 35/45/76 32/46/77 31/47/78
f 27/40/79 28/43/80 34/48/81 33/49/82
f 49/50/83 50/51/84 51/52/85 52/53/86
f 46/18/87 53/54/88 54/55/89 47/19/90
f 29/42/91 26/41/92 11/22/93 13/21/94
f 28/43/95 29/42/96 13/21/97 14/23/98
f 30/44/99 31/47/100 16/25/101 15/24/102
f 27/40/103 33/49/104 19/27/105 12/26/106
f 34/48/107 28/43/108 14/23/109 20/28/110
f 33/49/111 34/48/112 20/28/113 19/27/114
f 32/46/115 35/45/116 17/30/117 18/29/118
f 31/47/119 32/46/120 36/56/121
f 31/47/122 36/56/123 25/35/124 37/57/125
f 31/47/126 37/57/127 24/34/128 16/25/129
f 37/57/130 25/35/131 24/34/132
f 38/58/133 23/33/134 25/35/135
f 22/32/136 24/34/137 23/33/138
f 7/11/139 21/31/140 38/58/141 18/29/142
f 38/58/143 21/31/144 23/33/145
f 36/56/146 38/58/147 25/35/148
f 38/58/149 36/56/150 32/46/151 18/29/152
f 48/20/153 55/59/154 56/60/155 45/17/156
f 55/59/157 51/52/158 50/51/159 56/60/160
f 59/3/161 67/61/162 68/62/163 60/4/164
f 52/53/165 54/55/166 53/54/167 49/50/168
f 65/38/169 62/16/170 61/15/171 66/39/172
f 67/61/173 64/37/174 63/36/175 68/62/176
f 10/63/177 17/64/178 46/18/179 45/17/180
f 42/65/181 40/66/182 48/20/183 47/19/184
f 30/67/185 15/68/186 50/51/187 49/50/188
f 41/69/189 44/70/190 52/53/191 51/52/192
f 17/64/193 35/71/194 53/54/195 46/18/196
f 43/72/197 42/65/198 47/19/199 54/55/200
f 40/66/201 39/73/202 55/59/203 48/20/204
f 5/74/205 10/63/206 45/17/207 56/60/208
f 39/73/209 41/69/210 51/52/211 55/59/212
f 15/68/213 5/74/214 56/60/215 50/51/216
f 44/70/217 43/72/218 54/55/219 52/53/220
f 35/71/221 30/67/222 49/50/223 53/54/224
f 39/73/225 40/66/226 59/3/227 58/2/228
f 2/75/229 1/76/230 57/1/231 60/4/232
f 41/69/233 39/73/234 58/2/235 62/16/236
f 1/76/237 11/77/238 61/15/239 57/1/240
f 43/72/241 44/70/242 65/38/243 64/37/244
f 26/78/245 27/79/246 63/36/247 66/39/248
f 40/66/249 42/65/250 67/61/251 59/3/252
f 12/80/253 2/75/254 60/4/255 68/62/256
f 44/70/257 41/69/258 62/16/259 65/38/260
f 11/77/261 26/78/262 66/39/263 61/15/264
f 42/65/265 43/72/266 64/37/267 67/61/268
f 27/79/269 12/80/270 68/62/271 63/36/272
