# This file uses centimeters as units for non-parametric coordinates.

v -1.277069 0.000000 1.687973
v 1.277069 0.000000 1.687973
v -1.277069 1.517796 1.687973
v 1.277069 1.517796 1.687973
v -1.277069 1.517796 -1.687973
v 1.277069 1.517796 -1.687973
v -1.277069 0.000000 -1.687973
v 1.277069 0.000000 -1.687973
v -0.767874 1.517796 1.687973
v 0.767875 1.517796 1.687973
v -0.767874 1.517796 -1.687973
v 0.767875 1.517796 -1.687973
v -0.767874 2.713188 -1.687973
v -0.767874 2.229408 1.687973
v 0.767875 2.229408 1.687973
v 0.767875 2.713188 -1.687973
v 0.767875 2.713188 -0.193741
v -0.767874 2.713188 -0.193741
v -0.536208 2.713188 -0.193741
v 0.536208 2.713188 -0.193741
v -0.536208 2.713188 -1.687973
v 0.536208 2.713188 -1.687973
v -0.536208 3.721691 -1.687973
v -0.536208 3.721691 -0.193741
v 0.536208 3.721691 -0.193741
v 0.536208 3.721691 -1.687973
v -0.374138 3.984699 -1.687973
v -0.374138 3.984699 -0.193741
v 0.374138 3.984699 -0.193741
v 0.374138 3.984699 -1.687973
v -1.156239 4.761879 -1.687973
v -1.156239 4.761879 -0.193741
v -0.871343 4.761875 -0.193741
v -0.871343 4.761875 -1.687973
v 1.156240 4.761879 -0.193741
v 1.156240 4.761879 -1.687973
v 0.871344 4.761875 -1.687973
v 0.871344 4.761875 -0.193741
v -0.621702 5.747765 -1.687973
v -0.621702 5.747765 -0.193741
v -0.468516 5.554863 -0.193741
v -0.468516 5.554863 -1.687973
v 0.621703 5.747765 -0.193741
v 0.621703 5.747765 -1.687973
v 0.468517 5.554863 -1.687973
v 0.468517 5.554863 -0.193741
v -0.184556 3.984699 -1.217361
v -0.184556 3.984699 -0.664383
v 0.184557 3.984699 -0.664383
v 0.184557 3.984699 -1.217361
v -0.115196 4.866043 -1.113449
v -0.115196 4.866043 -0.768295
v 0.115196 4.866043 -0.768295
v 0.115196 4.866043 -1.113449
vt 0.090428 0.231458
vt 0.090428 0.231458
vt 0.090428 0.231458
vt 0.090428 0.231458
vt 0.090428 0.231458
vt 0.090428 0.231458
vt 0.090428 0.231458
vt 0.090428 0.231458
vt 0.090428 0.231458
vt 0.090428 0.231458
vt 0.090428 0.231458
vt 0.090428 0.231458
vt 0.090428 0.231458
vt 0.090428 0.231458
vt 0.090428 0.231458
vt 0.090428 0.231458
vt 0.090428 0.231458
vt 0.090428 0.231458
vt 0.090428 0.231458
vt 0.090428 0.231458
vt 0.090428 0.231458
vt 0.090428 0.231458
vt 0.090428 0.231458
vt 0.090428 0.231458
vt 0.090428 0.231458
vt 0.090428 0.231458
vt 0.090428 0.231458
vt 0.090428 0.231458
vt 0.090428 0.231458
vt 0.090428 0.231458
vt 0.090428 0.231458
vt 0.090428 0.231458
vt 0.090428 0.231458
vt 0.090428 0.231458
vt 0.090428 0.231458
vt 0.090428 0.231458
vt 0.090428 0.231458
vt 0.090428 0.231458
vt 0.090428 0.231458
vt 0.090428 0.231458
vt 0.090428 0.231458
vt 0.090428 0.231458
vt 0.090428 0.231458
vt 0.090428 0.231458
vt 0.090428 0.231458
vt 0.090428 0.231458
vt 0.090428 0.231458
vt 0.090428 0.231458
vt 0.090428 0.231458
vt 0.090428 0.231458
vt 0.090428 0.231458
vt 0.090428 0.231458
vt 0.090428 0.231458
vt 0.090428 0.231458
vt 0.090428 0.231458
vt 0.090428 0.231458
vt 0.090428 0.231458
vt 0.090428 0.231458
vn 0.000000 0.000000 1.000000
vn 0.000000 0.000000 1.000000
vn 0.000000 0.000000 1.000000
vn 0.000000 0.968504 0.248998
vn 0.000000 0.968504 0.248998
vn 0.000000 0.968504 0.248998
vn 0.000000 0.000000 -1.000000
vn 0.000000 0.000000 -1.000000
vn 0.000000 0.000000 -1.000000
vn 1.000000 0.000000 0.000000
vn 1.000000 0.000000 0.000000
vn 1.000000 0.000000 0.000000
vn 1.000000 0.000000 0.000000
vn -1.000000 0.000000 0.000000
vn -1.000000 0.000000 0.000000
vn -1.000000 0.000000 0.000000
vn -1.000000 0.000000 0.000000
vn 0.000000 1.000000 0.000000
vn 0.000000 1.000000 0.000000
vn 0.000000 1.000000 0.000000
vn 0.000000 1.000000 0.000000
vn 0.000000 1.000000 0.000000
vn 0.000000 1.000000 0.000000
vn 0.000000 1.000000 0.000000
vn 0.000000 1.000000 0.000000
vn -1.000000 0.000000 0.000000
vn -1.000000 0.000000 0.000000
vn -1.000000 0.000000 0.000000
vn -1.000000 0.000000 0.000000
vn -1.000000 0.000000 0.000000
vn 0.000000 0.000000 1.000000
vn 0.000000 0.000000 1.000000
vn 0.000000 0.000000 1.000000
vn 0.000000 0.000000 1.000000
vn 1.000000 -0.000000 0.000000
vn 1.000000 -0.000000 0.000000
vn 1.000000 -0.000000 0.000000
vn 1.000000 -0.000000 0.000000
vn 1.000000 -0.000000 0.000000
vn 0.000000 0.000000 -1.000000
vn 0.000000 0.000000 -1.000000
vn 0.000000 0.000000 -1.000000
vn 0.000000 0.000000 -1.000000
vn 0.000000 0.000000 -1.000000
vn 0.000000 0.000000 -1.000000
vn 0.000000 0.000000 -1.000000
vn 0.000000 0.000000 -1.000000
vn 0.000000 0.000000 -1.000000
vn 0.000000 0.000000 -1.000000
vn 0.000000 0.000000 1.000000
vn 0.000000 0.000000 1.000000
vn 0.000000 0.000000 1.000000
vn 0.000000 0.000000 1.000000
vn 0.000000 0.000000 1.000000
vn 0.000000 0.000000 1.000000
vn 0.000000 0.000000 1.000000
vn 0.000000 1.000000 0.000000
vn 0.000000 1.000000 0.000000
vn 0.000000 1.000000 0.000000
vn 0.000000 1.000000 0.000000
vn 0.000000 1.000000 0.000000
vn 0.000000 1.000000 0.000000
vn 0.000000 1.000000 0.000000
vn 0.000000 1.000000 0.000000
vn 0.000000 1.000000 0.000000
vn 0.000000 1.000000 0.000000
vn 0.000000 1.000000 0.000000
vn 0.000000 1.000000 0.000000
vn -1.000000 0.000000 0.000000
vn -1.000000 0.000000 0.000000
vn -1.000000 0.000000 0.000000
vn -1.000000 0.000000 0.000000
vn 0.000000 0.000000 1.000000
vn 0.000000 0.000000 1.000000
vn 0.000000 0.000000 1.000000
vn 0.000000 0.000000 1.000000
vn 1.000000 0.000000 0.000000
vn 1.000000 0.000000 0.000000
vn 1.000000 0.000000 0.000000
vn 1.000000 0.000000 0.000000
vn 0.000000 0.000000 -1.000000
vn 0.000000 0.000000 -1.000000
vn 0.000000 0.000000 -1.000000
vn 0.000000 0.000000 -1.000000
vn 0.000000 0.968504 0.248998
vn 0.000000 0.968504 0.248998
vn 0.000000 0.968504 0.248998
vn 0.000000 0.968504 0.248998
vn 0.000000 0.968504 0.248998
vn 0.000000 0.968504 0.248998
vn 0.000000 0.968504 0.248998
vn 0.000000 0.000000 -1.000000
vn 0.000000 0.000000 -1.000000
vn 0.000000 0.000000 -1.000000
vn 0.000000 0.000000 -1.000000
vn 0.000000 0.000000 -1.000000
vn 0.000000 0.000000 -1.000000
vn 0.000000 0.000000 -1.000000
vn 0.783111 0.621881 0.000000
vn 0.783111 0.621881 0.000000
vn 0.783111 0.621881 0.000000
vn 0.783111 0.621881 0.000000
vn 0.000000 0.000000 1.000000
vn 0.000000 0.000000 1.000000
vn 0.000000 0.000000 1.000000
vn 0.000000 0.000000 1.000000
vn -0.783111 0.621882 0.000000
vn -0.783111 0.621882 0.000000
vn -0.783111 0.621882 0.000000
vn -0.783111 0.621882 0.000000
vn 0.000000 0.000000 -1.000000
vn 0.000000 0.000000 -1.000000
vn 0.000000 0.000000 -1.000000
vn 0.000000 0.000000 -1.000000
vn -0.858976 -0.512016 0.000000
vn -0.858976 -0.512016 0.000000
vn -0.858976 -0.512016 0.000000
vn -0.858976 -0.512016 0.000000
vn 0.000000 0.000000 1.000000
vn 0.000000 0.000000 1.000000
vn 0.000000 0.000000 1.000000
vn 0.000000 0.000000 1.000000
vn 0.842363 0.538910 0.000000
vn 0.842363 0.538910 0.000000
vn 0.842363 0.538910 0.000000
vn 0.842363 0.538910 0.000000
vn 0.000000 0.000000 -1.000000
vn 0.000000 0.000000 -1.000000
vn 0.000000 0.000000 -1.000000
vn 0.000000 0.000000 -1.000000
vn 0.858976 -0.512015 0.000000
vn 0.858976 -0.512015 0.000000
vn 0.858976 -0.512015 0.000000
vn 0.858976 -0.512015 0.000000
vn 0.000000 0.000000 -1.000000
vn 0.000000 0.000000 -1.000000
vn 0.000000 0.000000 -1.000000
vn 0.000000 0.000000 -1.000000
vn -0.842363 0.538910 0.000000
vn -0.842363 0.538910 0.000000
vn -0.842363 0.538910 0.000000
vn -0.842363 0.538910 0.000000
vn -0.000000 0.000000 1.000000
vn -0.000000 0.000000 1.000000
vn -0.000000 0.000000 1.000000
vn -0.000000 0.000000 1.000000
vn -0.879099 0.476638 0.000000
vn -0.879099 0.476638 0.000000
vn -0.879099 0.476638 0.000000
vn -0.879099 0.476638 0.000000
vn -0.000000 0.000000 1.000000
vn -0.000000 0.000000 1.000000
vn -0.000000 0.000000 1.000000
vn -0.000000 0.000000 1.000000
vn 0.891561 -0.452901 0.000000
vn 0.891561 -0.452901 0.000000
vn 0.891561 -0.452901 0.000000
vn 0.891561 -0.452901 0.000000
vn -0.000000 0.000000 -1.000000
vn -0.000000 0.000000 -1.000000
vn -0.000000 0.000000 -1.000000
vn -0.000000 0.000000 -1.000000
vn 0.879099 0.476638 0.000000
vn 0.879099 0.476638 0.000000
vn 0.879099 0.476638 0.000000
vn 0.879099 0.476638 0.000000
vn 0.000000 0.000000 -1.000000
vn 0.000000 0.000000 -1.000000
vn 0.000000 0.000000 -1.000000
vn 0.000000 0.000000 -1.000000
vn -0.891561 -0.452901 0.000000
vn -0.891561 -0.452901 0.000000
vn -0.891561 -0.452901 0.000000
vn -0.891561 -0.452901 0.000000
vn 0.000000 0.000000 1.000000
vn 0.000000 0.000000 1.000000
vn 0.000000 0.000000 1.000000
vn 0.000000 0.000000 1.000000
vn 0.000000 1.000000 0.000000
vn 0.000000 1.000000 0.000000
vn 0.000000 1.000000 0.000000
vn 0.000000 1.000000 0.000000
vn 0.000000 1.000000 0.000000
vn 0.000000 1.000000 0.000000
vn 0.000000 1.000000 0.000000
vn 0.000000 1.000000 0.000000
vn 0.000000 1.000000 0.000000
vn 0.000000 1.000000 0.000000
vn 0.000000 1.000000 0.000000
vn 0.000000 1.000000 0.000000
vn 0.000000 1.000000 -0.000000
vn 0.000000 1.000000 -0.000000
vn 0.000000 1.000000 -0.000000
vn 0.000000 1.000000 -0.000000
vn -0.996918 0.078456 0.000000
vn -0.996918 0.078456 0.000000
vn -0.996918 0.078456 0.000000
vn -0.996918 0.078456 0.000000
vn 0.000000 0.117091 0.993121
vn 0.000000 0.117091 0.993121
vn 0.000000 0.117091 0.993121
vn 0.000000 0.117091 0.993121
vn 0.996918 0.078456 0.000000
vn 0.996918 0.078456 0.000000
vn 0.996918 0.078456 0.000000
vn 0.996918 0.078456 0.000000
vn 0.000000 0.117091 -0.993121
vn 0.000000 0.117091 -0.993121
vn 0.000000 0.117091 -0.993121
vn 0.000000 0.117091 -0.993121
s off
f 1/1/1 9/2/2 3/3/3
f 14/4/4 19/5/5 18/6/6
f 8/7/7 12/8/8 6/9/9
f 2/10/10 8/11/11 6/12/12 4/13/13
f 7/14/14 1/1/15 3/3/16 5/15/17
f 12/8/18 10/16/19 4/13/20 6/9/21
f 3/3/22 9/2/23 11/17/24 5/18/25
f 11/17/26 9/2/27 14/4/28 18/6/29 13/19/30
f 9/2/31 10/16/32 15/20/33 14/4/34
f 12/8/35 16/21/36 17/22/37 15/20/38 10/16/39
f 12/8/40 22/23/41 16/21/42
f 5/18/43 11/17/44 7/24/45
f 7/24/46 11/17/47 12/8/48 8/7/49
f 10/16/50 2/10/51 4/13/52
f 1/1/53 2/10/54 10/16/55 9/2/56
f 51/25/57 52/26/58 53/27/59 54/28/60
f 22/23/61 20/29/62 17/22/63 16/21/64
f 18/6/65 19/5/66 21/30/67 13/19/68
f 21/30/69 19/5/70 24/31/71 23/32/72
f 19/5/73 20/29/74 25/33/75 24/31/76
f 20/29/77 22/23/78 26/34/79 25/33/80
f 22/23/81 21/30/82 23/32/83 26/34/84
f 20/29/85 15/20/86 17/22/87
f 14/4/88 15/20/89 20/29/90 19/5/91
f 21/30/92 11/17/93 13/19/94
f 12/8/95 11/17/96 21/30/97 22/23/98
f 39/35/99 40/36/100 41/37/101 42/38/102
f 24/31/103 25/33/104 29/39/105 28/40/106
f 43/41/107 44/42/108 45/43/109 46/44/110
f 26/34/111 23/32/112 27/45/113 30/46/114
f 23/32/115 24/31/116 32/47/117 31/48/118
f 24/31/119 28/40/120 33/49/121 32/47/122
f 28/40/123 27/45/124 34/50/125 33/49/126
f 27/45/127 23/32/128 31/48/129 34/50/130
f 25/33/131 26/34/132 36/51/133 35/52/134
f 26/34/135 30/46/136 37/53/137 36/51/138
f 30/46/139 29/39/140 38/54/141 37/53/142
f 29/39/143 25/33/144 35/52/145 38/54/146
f 31/48/147 32/47/148 40/36/149 39/35/150
f 32/47/151 33/49/152 41/37/153 40/36/154
f 33/49/155 34/50/156 42/38/157 41/37/158
f 34/50/159 31/48/160 39/35/161 42/38/162
f 35/52/163 36/51/164 44/42/165 43/41/166
f 36/51/167 37/53/168 45/43/169 44/42/170
f 37/53/171 38/54/172 46/44/173 45/43/174
f 38/54/175 35/52/176 43/41/177 46/44/178
f 27/45/179 28/40/180 48/55/181 47/56/182
f 28/40/183 29/39/184 49/57/185 48/55/186
f 29/39/187 30/46/188 50/58/189 49/57/190
f 30/46/191 27/45/192 47/56/193 50/58/194
f 47/56/195 48/55/196 52/26/197 51/25/198
f 48/55/199 49/57/200 53/27/201 52/26/202
f 49/57/203 50/58/204 54/28/205 53/27/206
f 50/58/207 47/56/208 51/25/209 54/28/210
