# This file uses centimeters as units for non-parametric coordinates.

v -0.200479 0.985003 0.045932
v 0.200479 0.985003 0.045932
v 0.200479 1.031420 -0.335337
v -0.200479 1.031420 -0.335337
v -0.667738 -0.607172 1.460037
v 0.667738 -0.607172 1.460037
v 0.657137 0.831499 1.266052
v -0.657137 0.831499 1.266052
v 0.667738 -0.607172 -1.460037
v 0.657137 1.094366 -1.266068
v -0.657137 1.094366 -1.266068
v -0.667738 -0.607172 -1.460037
v -0.145081 3.195337 -0.349543
v 0.143075 3.234577 -0.348847
v -0.144794 3.190077 0.060022
v 0.142834 3.229261 0.059348
v -0.525267 3.623709 0.297626
v 0.532321 3.623709 0.297626
v 0.532321 3.623709 -0.586909
v -0.525267 3.623709 -0.586909
v 0.634816 3.288069 -0.604963
v -0.636616 3.259073 -0.606529
v 0.633752 3.284140 0.315491
v -0.635348 3.255186 0.317009
v 0.002494 3.688818 0.450617
v 0.052799 3.211828 0.475568
v -0.000880 3.209669 0.059685
v 0.002494 3.688818 -0.739798
v -0.000900 3.214956 -0.765148
vt 0.024545 0.227384
vt 0.024545 0.227384
vt 0.024545 0.227384
vt 0.024545 0.227384
vt 0.024545 0.227384
vt 0.024545 0.227384
vt 0.024545 0.227384
vt 0.024545 0.227384
vt 0.024545 0.227384
vt 0.024545 0.227384
vt 0.024545 0.227384
vt 0.024545 0.227384
vt 0.024545 0.227384
vt 0.024545 0.227384
vt 0.024545 0.227384
vt 0.024545 0.227384
vt 0.024545 0.227384
vt 0.024545 0.227384
vt 0.024545 0.227384
vt 0.024545 0.227384
vt 0.024545 0.227384
vt 0.024545 0.227384
vt 0.024545 0.227384
vt 0.024545 0.227384
vt 0.024545 0.227384
vt 0.024545 0.227384
vt 0.024545 0.227384
vt 0.024545 0.227384
vt 0.024545 0.227384
vt 0.024545 0.227384
vt 0.024545 0.227384
vt 0.024545 0.227384
vt 0.024545 0.227384
vt 0.024545 0.227384
vt 0.024545 0.227384
vt 0.024545 0.227384
vt 0.024545 0.227384
vt 0.024545 0.227384
vt 0.024545 0.227384
vt 0.024545 0.227384
vt 0.024545 0.227384
vn 0.001331 -0.006181 0.999980
vn 0.001331 -0.006181 0.999980
vn 0.001331 -0.006181 0.999980
vn 0.001331 -0.006181 0.999980
vn 0.001331 -0.006181 0.999980
vn 0.000000 1.000000 0.000000
vn 0.000000 1.000000 0.000000
vn 0.000000 1.000000 0.000000
vn 0.000000 1.000000 0.000000
vn 0.000000 1.000000 0.000000
vn 0.000000 1.000000 0.000000
vn -0.259112 0.087048 -0.961917
vn -0.003420 0.088138 -0.996102
vn -0.009966 0.088183 -0.996054
vn -0.259112 0.087048 -0.961917
vn 0.999664 0.025860 0.002000
vn 0.999664 0.025860 0.002000
vn 0.999664 0.025860 0.002000
vn 0.999664 0.025860 0.002000
vn -0.999675 0.025417 0.002024
vn -0.999675 0.025417 0.002024
vn -0.999675 0.025417 0.002024
vn -0.999675 0.025417 0.002024
vn 0.000000 0.133627 0.991032
vn 0.000000 0.133627 0.991032
vn 0.000000 0.133627 0.991032
vn 0.000000 0.133627 0.991032
vn 0.999977 0.006751 0.000326
vn 0.999977 0.006751 0.000326
vn 0.999977 0.006751 0.000326
vn 0.999977 0.006751 0.000326
vn 0.000000 0.113263 -0.993565
vn 0.000000 0.113263 -0.993565
vn 0.000000 0.113263 -0.993565
vn 0.000000 0.113263 -0.993565
vn -0.999977 0.006751 0.000326
vn -0.999977 0.006751 0.000326
vn -0.999977 0.006751 0.000326
vn -0.999977 0.006751 0.000326
vn 0.000000 0.992179 0.124826
vn 0.000000 0.992179 0.124826
vn 0.000000 0.992179 0.124826
vn 0.000000 0.992179 0.124826
vn 0.065011 0.992309 0.105343
vn 0.065011 0.992309 0.105343
vn 0.065011 0.992309 0.105343
vn 0.065011 0.992309 0.105343
vn 0.000000 0.997721 0.067477
vn 0.000000 0.997721 0.067477
vn 0.000000 0.997721 0.067477
vn 0.000000 0.997721 0.067477
vn -0.065011 0.992309 0.105343
vn -0.065011 0.992309 0.105343
vn -0.065011 0.992309 0.105343
vn -0.065011 0.992309 0.105343
vn -0.022873 0.085127 0.996108
vn 0.008448 0.087112 0.996163
vn 0.269307 0.100266 0.957821
vn 0.269307 0.100265 0.957821
vn 0.001370 -0.006346 -0.999979
vn 0.001370 -0.006346 -0.999979
vn 0.001370 -0.006346 -0.999979
vn 0.001370 -0.006346 -0.999979
vn 0.957292 0.289120 0.001193
vn 0.957292 0.289120 0.001193
vn 0.957292 0.289120 0.001193
vn 0.957292 0.289120 0.001193
vn -0.957292 0.289122 0.001293
vn -0.957291 0.289122 0.001293
vn -0.957292 0.289122 0.001293
vn -0.957292 0.289122 0.001293
vn 0.036738 -0.998933 -0.027975
vn 0.036738 -0.998933 -0.027975
vn 0.036738 -0.998933 -0.027975
vn 0.036738 -0.998933 -0.027975
vn 0.036738 -0.998933 -0.027975
vn 0.043474 -0.998688 0.027043
vn 0.030174 -0.998963 0.034088
vn 0.122518 -0.992352 -0.015063
vn 0.122518 -0.992352 -0.015063
vn 0.109615 -0.993951 -0.006808
vn 0.109615 -0.993951 -0.006808
vn 0.109615 -0.993951 -0.006808
vn 0.109615 -0.993951 -0.006808
vn -0.130078 -0.991482 -0.006652
vn -0.130078 -0.991482 -0.006652
vn -0.130078 -0.991482 -0.006652
vn -0.130078 -0.991482 -0.006652
vn -0.248776 0.068247 0.966154
vn 0.008448 0.087112 0.996163
vn -0.022873 0.085127 0.996108
vn -0.248776 0.068247 0.966154
vn -0.042196 -0.996495 0.072225
vn 0.030174 -0.998963 0.034088
vn 0.043474 -0.998688 0.027043
vn -0.042196 -0.996495 0.072225
vn -0.009966 0.088183 -0.996054
vn -0.003420 0.088138 -0.996102
vn 0.257980 0.083194 -0.962562
vn 0.257980 0.083194 -0.962562
vn 0.000000 -1.000000 0.000000
vn 0.000000 -1.000000 0.000000
vn 0.000000 -1.000000 0.000000
vn 0.000000 -1.000000 0.000000
s off
f 1/1/1 2/2/2 16/3/3 27/4/4 15/5/5
f 17/6/6 25/7/7 18/8/8 19/9/9 28/10/10 20/11/11
f 20/11/12 28/10/13 29/12/14 22/13/15
f 2/2/16 3/14/17 14/15/18 16/3/19
f 4/16/20 1/1/21 15/5/22 13/17/23
f 5/18/24 6/19/25 7/20/26 8/21/27
f 6/19/28 9/22/29 10/23/30 7/20/31
f 11/24/32 10/25/33 9/26/34 12/27/35
f 12/28/36 5/18/37 8/21/38 11/29/39
f 2/2/40 1/1/41 8/21/42 7/20/43
f 3/14/44 2/2/45 7/20/46 10/23/47
f 4/30/48 3/31/49 10/25/50 11/24/51
f 1/1/52 4/16/53 11/29/54 8/21/55
f 25/7/56 26/32/57 23/33/58 18/8/59
f 13/34/60 14/35/61 3/31/62 4/30/63
f 23/33/64 21/36/65 19/37/66 18/8/67
f 22/38/68 24/39/69 17/6/70 20/40/71
f 14/35/72 13/34/73 22/13/74 29/12/75 21/41/76
f 26/32/77 27/4/78 16/3/79 23/33/80
f 16/3/81 14/15/82 21/36/83 23/33/84
f 13/17/85 15/5/86 24/39/87 22/38/88
f 24/39/89 26/32/90 25/7/91 17/6/92
f 15/5/93 27/4/94 26/32/95 24/39/96
f 29/12/97 28/10/98 19/9/99 21/41/100
f 6/19/101 5/18/102 12/27/103 9/22/104
