# This file uses centimeters as units for non-parametric coordinates.

v -0.487921 -2.536392 -0.923386
v -0.487921 -2.896713 0.330414
v -0.487921 -0.972931 -1.099808
v -0.487921 -1.083755 0.870056
v 0.487921 -0.972931 -1.099808
v 0.487920 -1.083755 0.870056
v 0.487921 -2.536392 -0.923401
v 0.487920 -2.896713 0.330414
v -0.487921 0.590202 -1.086426
v -0.487921 -1.083755 4.616943
v 0.487920 -1.083755 4.616943
v 0.487920 0.590202 -1.086426
v 0.487920 -3.700043 -2.004410
v 0.487920 -4.512238 -1.359268
v -0.487921 -4.512238 -1.359268
v -0.487921 -3.700043 -2.004395
v 0.487920 -3.296860 -6.047318
v 0.487920 -4.125290 -5.988739
v -0.487921 -4.125290 -5.988739
v -0.487921 -3.296860 -6.047318
v 0.487920 -3.423492 -7.033661
v 0.487920 -3.952393 -6.987411
v -0.487921 -3.952393 -6.987411
v -0.487921 -3.423492 -7.033661
v 0.487920 -2.322540 -6.733337
v -0.487921 -2.322540 -6.733337
v 0.487920 -2.707306 -7.324005
v -0.487921 -2.707306 -7.324005
v 0.487921 -1.260086 -6.388748
v -0.487921 -1.260086 -6.388748
v 0.487920 -2.116486 -8.184235
v -0.487921 -2.116486 -8.184235
v 0.487921 -4.927429 -6.850891
v -0.487921 -4.927429 -6.850891
v -0.487921 -4.675888 -7.414764
v 0.487921 -4.675888 -7.414764
v 0.487921 -7.278683 -10.149628
v -0.487921 -7.278683 -10.149628
v -0.487921 -6.938526 -10.504211
v 0.487920 -6.938526 -10.504211
v 0.487921 -9.364994 -11.754242
v -0.487921 -9.364994 -11.754242
v -0.487921 -8.776440 -11.855988
v 0.487921 -8.776440 -11.855988
v 0.487920 -9.842060 -12.925858
v -0.487921 -9.842060 -12.925858
v -0.487921 -9.172855 -12.758804
v 0.487921 -9.172855 -12.758804
v 0.487920 -9.165966 -14.887482
v -0.487921 -9.165974 -14.887482
v -0.487921 -8.582676 -14.460312
v 0.487921 -8.582676 -14.460312
v 0.487921 -8.019520 -15.637207
v -0.487921 -8.019520 -15.637207
v -0.487921 -7.788898 -15.003693
v 0.487920 -7.788898 -15.003693
v 0.487920 -6.591267 -15.513412
v -0.487921 -6.591267 -15.513412
v -0.487921 -6.826275 -14.824844
v 0.487921 -6.826275 -14.824844
v 0.487920 -1.763977 -9.594925
v -0.487921 -1.763977 -9.594925
v -0.487921 -2.506638 -9.503464
v 0.487921 -2.506638 -9.503464
v 0.487920 -1.102310 -8.143494
v -0.487921 -1.102310 -8.143494
v -0.487921 0.656891 6.011887
v -0.487921 -0.334717 6.379456
v 0.487920 -0.334717 6.379456
v 0.487920 0.656891 6.011871
vt 0.090938 0.235312
vt 0.090938 0.235312
vt 0.090938 0.235312
vt 0.090938 0.235312
vt 0.090938 0.235312
vt 0.090938 0.235312
vt 0.090938 0.235312
vt 0.090938 0.235312
vt 0.090938 0.235312
vt 0.090938 0.235312
vt 0.090938 0.235312
vt 0.090938 0.235312
vt 0.090938 0.235312
vt 0.090938 0.235312
vt 0.090938 0.235312
vt 0.090938 0.235312
vt 0.090938 0.235312
vt 0.090938 0.235312
vt 0.090938 0.235312
vt 0.090938 0.235312
vt 0.090938 0.235312
vt 0.090938 0.235312
vt 0.090938 0.235312
vt 0.090938 0.235312
vt 0.090938 0.235312
vt 0.090938 0.235312
vt 0.090938 0.235312
vt 0.090938 0.235312
vt 0.090938 0.235312
vt 0.090938 0.235312
vt 0.090938 0.235312
vt 0.090938 0.235312
vt 0.090938 0.235312
vt 0.090938 0.235312
vt 0.090938 0.235312
vt 0.090938 0.235312
vt 0.090938 0.235312
vt 0.090938 0.235312
vt 0.090938 0.235312
vt 0.090938 0.235312
vt 0.090938 0.235312
vt 0.090938 0.235312
vt 0.090938 0.235312
vt 0.090938 0.235312
vt 0.090938 0.235312
vt 0.090938 0.235312
vt 0.090938 0.235312
vt 0.090938 0.235312
vt 0.090938 0.235312
vt 0.090938 0.235312
vt 0.090938 0.235312
vt 0.090938 0.235312
vt 0.090938 0.235312
vt 0.090938 0.235312
vt 0.090938 0.235312
vt 0.090938 0.235312
vt 0.090938 0.235312
vt 0.090938 0.235312
vt 0.090938 0.235312
vt 0.090938 0.235312
vt 0.090938 0.235312
vt 0.090938 0.235312
vt 0.090938 0.235312
vt 0.090938 0.235312
vt 0.090938 0.235312
vt 0.090938 0.235312
vt 0.090938 0.235312
vt 0.090938 0.235312
vt 0.090938 0.235312
vt 0.090938 0.235312
vt 0.090938 0.235312
vt 0.090938 0.235312
vt 0.090938 0.235312
vt 0.090938 0.235312
vt 0.090938 0.235312
vt 0.090938 0.235312
vt 0.090938 0.235312
vt 0.090938 0.235312
vt 0.090938 0.235312
vt 0.090938 0.235312
vt 0.090937 0.235312
vt 0.090937 0.235312
vt 0.090938 0.235312
vt 0.090938 0.235312
vt 0.090938 0.235312
vt 0.090938 0.235312
vt 0.090938 0.235312
vt 0.090938 0.235312
vn -1.000000 0.000000 -0.000000
vn -1.000000 0.000000 -0.000000
vn -1.000000 0.000000 -0.000000
vn -1.000000 0.000000 -0.000000
vn 0.000007 0.347576 0.937652
vn 0.000007 0.347576 0.937652
vn 0.000007 0.347576 0.937652
vn 0.000007 0.347576 0.937652
vn 1.000000 -0.000000 0.000000
vn 1.000000 -0.000000 0.000000
vn 1.000000 -0.000000 0.000000
vn 1.000000 -0.000000 0.000000
vn 0.000000 -0.087112 -0.996199
vn 0.000000 -0.087112 -0.996199
vn 0.000000 -0.087112 -0.996199
vn 0.000000 -0.087112 -0.996199
vn 0.000000 -0.285288 0.958442
vn 0.000000 -0.285288 0.958442
vn 0.000000 -0.285288 0.958442
vn 0.000000 -0.285288 0.958442
vn -0.000008 -0.112124 -0.993694
vn -0.000008 -0.112124 -0.993694
vn -0.000008 -0.112124 -0.993694
vn -0.000008 -0.112124 -0.993694
vn -1.000000 -0.000000 -0.000000
vn -1.000000 -0.000000 -0.000000
vn -1.000000 -0.000000 -0.000000
vn -1.000000 -0.000000 -0.000000
vn 0.000000 -1.000000 -0.000000
vn 0.000000 -1.000000 -0.000000
vn 0.000000 -1.000000 -0.000000
vn 0.000000 -1.000000 -0.000000
vn 1.000000 0.000000 0.000000
vn 1.000000 0.000000 0.000000
vn 1.000000 0.000000 0.000000
vn 1.000000 0.000000 0.000000
vn 0.000000 0.008561 -0.999963
vn 0.000000 0.008561 -0.999963
vn 0.000000 0.008561 -0.999963
vn 0.000000 0.008561 -0.999963
vn 1.000000 -0.000000 0.000000
vn 1.000000 -0.000000 0.000000
vn 1.000000 -0.000000 0.000000
vn 1.000000 -0.000000 0.000000
vn 0.000000 -0.722790 0.691068
vn 0.000000 -0.722790 0.691068
vn 0.000000 -0.722790 0.691068
vn 0.000000 -0.722790 0.691068
vn -1.000000 0.000000 0.000000
vn -1.000000 0.000000 0.000000
vn -1.000000 0.000000 0.000000
vn -1.000000 0.000000 0.000000
vn -0.000011 0.680612 -0.732644
vn -0.000011 0.680612 -0.732644
vn -0.000011 0.680612 -0.732644
vn -0.000011 0.680612 -0.732644
vn 1.000000 0.000000 0.000000
vn 1.000000 0.000000 0.000000
vn 1.000000 0.000000 0.000000
vn 1.000000 0.000000 0.000000
vn 0.000000 -0.996525 -0.083293
vn 0.000000 -0.996525 -0.083293
vn 0.000000 -0.996525 -0.083293
vn 0.000000 -0.996525 -0.083293
vn -1.000000 -0.000000 -0.000000
vn -1.000000 -0.000000 -0.000000
vn -1.000000 -0.000000 -0.000000
vn -1.000000 -0.000000 -0.000000
vn 0.000001 0.995064 0.099234
vn 0.000001 0.995064 0.099234
vn 0.000001 0.995064 0.099234
vn 0.000001 0.995064 0.099234
vn 1.000000 0.000000 -0.000000
vn 1.000000 0.000000 -0.000000
vn 1.000000 0.000000 -0.000000
vn 1.000000 0.000000 -0.000000
vn -1.000000 -0.000000 0.000000
vn -1.000000 -0.000000 0.000000
vn -1.000000 -0.000000 0.000000
vn -1.000000 -0.000000 0.000000
vn 0.000000 0.575711 0.817653
vn 0.000000 0.575711 0.817653
vn 0.000000 0.575711 0.817653
vn 0.000000 0.575711 0.817653
vn 1.000000 0.000000 -0.000000
vn 1.000000 0.000000 -0.000000
vn 1.000000 0.000000 -0.000000
vn 1.000000 0.000000 -0.000000
vn 0.000000 -0.375703 -0.926740
vn 0.000000 -0.375703 -0.926740
vn 0.000000 -0.375703 -0.926740
vn 0.000000 -0.375703 -0.926740
vn -1.000000 0.000000 0.000000
vn -1.000000 0.000000 0.000000
vn -1.000000 0.000000 0.000000
vn -1.000000 0.000000 0.000000
vn 0.000000 -0.308512 0.951220
vn 0.000000 -0.308512 0.951220
vn 0.000000 -0.308512 0.951220
vn 0.000000 -0.308512 0.951220
vn 1.000000 -0.000000 0.000000
vn 1.000000 -0.000000 0.000000
vn 1.000000 -0.000000 0.000000
vn 1.000000 -0.000000 0.000000
vn 0.000000 -0.824305 -0.566147
vn 0.000000 -0.824305 -0.566147
vn 0.000000 -0.824305 -0.566147
vn 0.000000 -0.824305 -0.566147
vn -1.000000 0.000000 -0.000000
vn -1.000000 0.000000 -0.000000
vn -1.000000 0.000000 -0.000000
vn -1.000000 0.000000 -0.000000
vn 0.000000 -0.732129 0.681167
vn 0.000000 -0.732129 0.681166
vn 0.000000 -0.732129 0.681166
vn 0.000000 -0.732129 0.681166
vn -1.000000 0.000000 0.000000
vn -1.000000 0.000000 0.000000
vn -1.000000 0.000000 0.000000
vn -1.000000 0.000000 0.000000
vn 0.000000 0.508582 -0.861014
vn 0.000000 0.508582 -0.861014
vn 0.000000 0.508582 -0.861014
vn 0.000000 0.508582 -0.861014
vn 1.000000 0.000000 0.000000
vn 1.000000 0.000000 0.000000
vn 1.000000 0.000000 0.000000
vn 1.000000 0.000000 0.000000
vn 0.000000 -0.814315 0.580423
vn 0.000000 -0.814315 0.580423
vn 0.000000 -0.814315 0.580423
vn 0.000000 -0.814315 0.580423
vn -1.000000 0.000000 -0.000000
vn -1.000000 0.000000 -0.000000
vn -1.000000 0.000000 -0.000000
vn -1.000000 0.000000 -0.000000
vn 0.000000 0.806773 -0.590862
vn 0.000000 0.806773 -0.590862
vn 0.000000 0.806773 -0.590862
vn 0.000000 0.806773 -0.590862
vn 1.000000 0.000000 -0.000000
vn 1.000000 0.000000 -0.000000
vn 1.000000 0.000000 -0.000000
vn 1.000000 0.000000 -0.000000
vn 0.000000 -0.609653 0.792668
vn 0.000000 -0.609653 0.792668
vn 0.000000 -0.609653 0.792668
vn 0.000000 -0.609653 0.792668
vn -1.000000 0.000000 0.000000
vn -1.000000 0.000000 0.000000
vn -1.000000 0.000000 0.000000
vn -1.000000 0.000000 0.000000
vn 0.000000 0.592496 -0.805574
vn 0.000000 0.592496 -0.805574
vn 0.000000 0.592496 -0.805574
vn 0.000000 0.592496 -0.805574
vn 1.000000 0.000000 -0.000000
vn 1.000000 0.000000 -0.000000
vn 1.000000 0.000000 -0.000000
vn 1.000000 0.000000 -0.000000
vn 0.000000 -0.926163 0.377122
vn 0.000000 -0.926163 0.377122
vn 0.000000 -0.926163 0.377122
vn 0.000000 -0.926163 0.377122
vn -1.000000 0.000000 -0.000001
vn -1.000000 0.000000 -0.000001
vn -1.000000 0.000000 -0.000001
vn -1.000000 0.000000 -0.000001
vn 0.000000 0.915622 -0.402040
vn 0.000000 0.915622 -0.402040
vn 0.000000 0.915622 -0.402040
vn 0.000000 0.915622 -0.402040
vn 1.000000 -0.000001 0.000000
vn 1.000000 -0.000001 0.000000
vn 1.000000 -0.000001 0.000000
vn 1.000000 -0.000001 0.000000
vn 0.000003 -0.945422 -0.325848
vn 0.000003 -0.945422 -0.325848
vn 0.000003 -0.945422 -0.325848
vn 0.000003 -0.945422 -0.325848
vn -1.000000 0.000000 0.000000
vn -1.000000 0.000000 0.000000
vn -1.000000 0.000000 0.000000
vn -1.000000 0.000000 0.000000
vn 0.000000 0.944781 0.327704
vn 0.000000 0.944781 0.327704
vn 0.000000 0.944781 0.327704
vn 0.000000 0.944781 0.327704
vn 1.000000 -0.000001 -0.000001
vn 1.000000 -0.000001 -0.000001
vn 1.000000 -0.000001 -0.000001
vn 1.000000 -0.000001 -0.000001
vn 0.000001 -0.547313 -0.836928
vn 0.000001 -0.547313 -0.836928
vn 0.000001 -0.547313 -0.836928
vn 0.000001 -0.547313 -0.836928
vn -1.000000 0.000000 0.000000
vn -1.000000 0.000000 0.000000
vn -1.000000 0.000000 0.000000
vn -1.000000 0.000000 0.000000
vn 0.000000 0.564875 0.825177
vn 0.000000 0.564875 0.825177
vn 0.000000 0.564875 0.825177
vn 0.000000 0.564875 0.825177
vn 1.000000 0.000000 -0.000000
vn 1.000000 0.000000 -0.000000
vn 1.000000 0.000000 -0.000000
vn 1.000000 0.000000 -0.000000
vn 0.000000 0.086352 -0.996265
vn 0.000000 0.086352 -0.996265
vn 0.000000 0.086352 -0.996265
vn 0.000000 0.086352 -0.996265
vn -1.000000 -0.000000 0.000000
vn -1.000000 -0.000000 0.000000
vn -1.000000 -0.000000 0.000000
vn -1.000000 -0.000000 0.000000
vn 0.000000 -0.182667 0.983175
vn 0.000000 -0.182667 0.983175
vn 0.000000 -0.182667 0.983175
vn 0.000000 -0.182667 0.983175
vn 1.000000 -0.000000 0.000000
vn 1.000000 -0.000000 0.000000
vn 1.000000 -0.000000 0.000000
vn 1.000000 -0.000000 0.000000
vn 0.000000 0.774926 -0.632052
vn 0.000000 0.774926 -0.632052
vn 0.000000 0.774926 -0.632052
vn 0.000000 0.774926 -0.632052
vn -1.000000 0.000000 -0.000000
vn -1.000000 0.000000 -0.000000
vn -1.000000 0.000000 -0.000000
vn -1.000000 0.000000 -0.000000
vn 0.000000 -0.776398 0.630242
vn 0.000000 -0.776398 0.630242
vn 0.000000 -0.776398 0.630242
vn 0.000000 -0.776398 0.630242
vn 1.000000 0.000001 -0.000001
vn 1.000000 0.000001 -0.000001
vn 1.000000 0.000001 -0.000001
vn 1.000000 0.000001 -0.000001
vn 0.000000 0.909911 -0.414803
vn 0.000000 0.909911 -0.414803
vn 0.000000 0.909911 -0.414803
vn 0.000000 0.909911 -0.414803
vn -1.000000 0.000000 0.000000
vn -1.000000 0.000000 0.000000
vn -1.000000 0.000000 0.000000
vn -1.000000 0.000000 0.000000
vn 0.000000 -0.958943 0.283600
vn 0.000000 -0.958943 0.283600
vn 0.000000 -0.958943 0.283600
vn 0.000000 -0.958943 0.283600
vn 1.000000 0.000000 0.000000
vn 1.000000 0.000000 0.000000
vn 1.000000 0.000000 0.000000
vn 1.000000 0.000000 0.000000
vn 0.000000 0.995982 0.089553
vn 0.000000 0.995982 0.089553
vn 0.000000 0.995982 0.089553
vn 0.000000 0.995982 0.089553
vn 1.000000 0.000000 -0.000000
vn 1.000000 0.000000 -0.000000
vn 1.000000 0.000000 -0.000000
vn -1.000000 0.000000 0.000000
vn -1.000000 0.000000 0.000000
vn -1.000000 0.000000 0.000000
vn -1.000000 -0.000000 0.000000
vn -1.000000 -0.000000 0.000000
vn -1.000000 -0.000000 0.000000
vn -1.000000 -0.000000 0.000000
vn 0.000000 -0.920336 0.391128
vn 0.000000 -0.920336 0.391128
vn 0.000000 -0.920336 0.391128
vn 0.000000 -0.920336 0.391128
vn 1.000000 0.000000 -0.000000
vn 1.000000 0.000000 -0.000000
vn 1.000000 0.000000 -0.000000
vn 1.000000 0.000000 -0.000000
vn -0.000000 0.999956 -0.009395
vn -0.000000 0.999956 -0.009395
vn -0.000000 0.999956 -0.009395
vn -0.000000 0.999956 -0.009395
s off
f 1/1/1 2/2/2 4/3/3 3/4/4
f 67/5/5 68/6/6 69/7/7 70/8/8
f 5/9/9 6/10/10 8/11/11 7/12/12
f 21/13/13 22/14/14 23/15/15 24/16/16
f 2/2/17 8/17/18 6/18/19 4/3/20
f 7/19/21 1/1/22 3/4/23 5/20/24
f 3/4/25 4/3/26 10/21/27 9/22/28
f 4/3/29 6/10/30 11/23/31 10/21/32
f 6/10/33 5/9/34 12/24/35 11/23/36
f 5/9/37 3/4/38 9/22/39 12/24/40
f 7/12/41 8/11/42 14/25/43 13/26/44
f 8/11/45 2/27/46 15/28/47 14/25/48
f 2/27/49 1/29/50 16/30/51 15/28/52
f 1/29/53 7/12/54 13/26/55 16/30/56
f 13/26/57 14/25/58 18/31/59 17/32/60
f 14/25/61 15/28/62 19/33/63 18/31/64
f 15/28/65 16/30/66 20/34/67 19/33/68
f 16/30/69 13/26/70 17/32/71 20/34/72
f 17/32/73 18/31/74 22/14/75 21/13/76
f 19/33/77 20/34/78 24/16/79 23/15/80
f 20/34/81 17/32/82 25/35/83 26/36/84
f 17/32/85 21/13/86 27/37/87 25/35/88
f 21/13/89 24/16/90 28/38/91 27/37/92
f 24/16/93 20/34/94 26/36/95 28/38/96
f 26/36/97 25/35/98 29/39/99 30/40/100
f 25/35/101 27/37/102 31/41/103 29/39/104
f 27/37/105 28/38/106 32/42/107 31/41/108
f 28/38/109 26/36/110 30/40/111 32/42/112
f 18/31/113 19/33/114 34/43/115 33/44/116
f 19/33/117 23/15/118 35/45/119 34/43/120
f 23/15/121 22/14/122 36/46/123 35/45/124
f 22/14/125 18/31/126 33/44/127 36/46/128
f 33/44/129 34/43/130 38/47/131 37/48/132
f 34/43/133 35/45/134 39/49/135 38/47/136
f 35/45/137 36/46/138 40/50/139 39/49/140
f 36/46/141 33/44/142 37/48/143 40/50/144
f 37/48/145 38/47/146 42/51/147 41/52/148
f 38/47/149 39/49/150 43/53/151 42/51/152
f 39/49/153 40/50/154 44/54/155 43/53/156
f 40/50/157 37/48/158 41/52/159 44/54/160
f 41/52/161 42/51/162 46/55/163 45/56/164
f 42/51/165 43/53/166 47/57/167 46/55/168
f 43/53/169 44/54/170 48/58/171 47/57/172
f 44/54/173 41/52/174 45/56/175 48/58/176
f 45/56/177 46/55/178 50/59/179 49/60/180
f 46/55/181 47/57/182 51/61/183 50/59/184
f 47/57/185 48/58/186 52/62/187 51/61/188
f 48/58/189 45/56/190 49/60/191 52/62/192
f 49/60/193 50/59/194 54/63/195 53/64/196
f 50/59/197 51/61/198 55/65/199 54/63/200
f 51/61/201 52/62/202 56/66/203 55/65/204
f 52/62/205 49/60/206 53/64/207 56/66/208
f 53/64/209 54/63/210 58/67/211 57/68/212
f 54/63/213 55/65/214 59/69/215 58/67/216
f 55/65/217 56/66/218 60/70/219 59/69/220
f 56/66/221 53/64/222 57/68/223 60/70/224
f 57/68/225 58/67/226 62/71/227 61/72/228
f 58/67/229 59/69/230 63/73/231 62/71/232
f 59/69/233 60/70/234 64/74/235 63/73/236
f 60/70/237 57/68/238 61/72/239 64/74/240
f 61/72/241 62/71/242 66/75/243 65/76/244
f 62/71/245 63/73/246 32/77/247 66/75/248
f 63/73/249 64/74/250 31/78/251 32/77/252
f 64/74/253 61/72/254 65/76/255 31/78/256
f 30/79/257 29/80/258 65/81/259 66/82/260
f 29/83/261 31/84/262 65/85/263
f 32/86/264 30/87/265 66/88/266
f 9/22/267 10/21/268 68/6/269 67/5/270
f 10/21/271 11/23/272 69/7/273 68/6/274
f 11/23/275 12/24/276 70/8/277 69/7/278
f 12/24/279 9/22/280 67/5/281 70/8/282
