# This file uses centimeters as units for non-parametric coordinates.

v 1.479351 -7.680374 -5.217254
v 1.479351 -9.158569 -1.551901
v 1.479351 -2.266791 -2.874635
v 1.479352 -4.061031 0.530065
v 1.479353 -10.792509 -1.587331
v 1.479351 -10.170912 -6.232141
v 1.479351 -1.599064 -3.160226
v 1.479352 -1.423141 4.410916
v 1.479351 1.254510 -3.160214
v 1.479352 1.638047 4.410909
v 0.000000 1.254510 -3.769162
v 0.000000 -1.481937 -3.769185
v 0.000000 -2.319167 -3.417760
v 0.000000 -7.647054 -6.049077
v 0.000000 -10.413270 -7.058572
v 0.000000 -11.592255 -1.131609
v 0.000000 -9.915977 -1.123540
v 0.000000 -4.221744 1.021705
v 0.000000 -1.540275 5.019874
v 0.000000 1.638047 5.019864
v 0.000000 -11.292478 -6.441329
v 0.000000 -11.930198 -1.935066
v 1.479352 -4.004148 2.916291
v 0.000000 -4.143143 3.466399
v -1.479351 -7.680374 -5.217254
v -1.479351 -9.158569 -1.551901
v -1.479351 -2.266791 -2.874635
v -1.479352 -4.061031 0.530065
v -1.479353 -10.792509 -1.587331
v -1.479351 -10.170912 -6.232141
v -1.479351 -1.599064 -3.160226
v -1.479352 -1.423141 4.410916
v -1.479351 1.254510 -3.160214
v -1.479352 1.638047 4.410909
v -1.479352 -4.004148 2.916291
v 1.681020 -7.454404 -5.146688
v 1.656330 -2.551664 -3.001749
v 1.649028 -4.318855 0.430037
v 1.674925 -8.943151 -1.428013
v 0.000000 -4.575789 1.115847
v 0.000000 -9.704935 -0.772829
v 0.000000 -7.314880 -6.150353
v 0.000000 -2.477586 -3.723962
v -1.681020 -7.454404 -5.146688
v -1.674925 -8.943151 -1.428013
v -1.649028 -4.318855 0.430037
v -1.656330 -2.551664 -3.001749
v 1.430551 -5.102678 -3.950614
v 0.000000 -4.987459 -4.684395
v -1.430551 -5.102678 -3.950614
v -1.551199 -6.502261 -0.788861
v 0.000000 -6.990375 -0.183237
v 1.551199 -6.502261 -0.788861
v 1.581044 -5.270658 -4.255315
v 0.000000 -5.174994 -5.109400
v -1.576879 -5.184016 -4.219431
v -1.570477 -4.753499 -4.088927
v 0.000000 -4.567956 -4.843795
v 1.569763 -4.770340 -4.096728
vt 0.037732 0.280293
vt 0.037732 0.280293
vt 0.037732 0.280293
vt 0.091042 0.229891
vt 0.091042 0.229891
vt 0.091042 0.229891
vt 0.091042 0.229891
vt 0.495403 0.179195
vt 0.495403 0.179195
vt 0.495403 0.179195
vt 0.036804 0.305679
vt 0.036803 0.305679
vt 0.036803 0.305678
vt 0.036804 0.305678
vt 0.036803 0.305679
vt 0.036804 0.305679
vt 0.036804 0.305679
vt 0.036803 0.305679
vt 0.495403 0.179195
vt 0.495403 0.179195
vt 0.495403 0.179195
vt 0.495403 0.179195
vt 0.495403 0.179195
vt 0.495403 0.179195
vt 0.495403 0.179195
vt 0.495403 0.179195
vt 0.495403 0.179195
vt 0.091042 0.229891
vt 0.091042 0.229891
vt 0.091042 0.229891
vt 0.091042 0.229891
vt 0.091042 0.229891
vt 0.091042 0.229891
vt 0.091042 0.229891
vt 0.091042 0.229891
vt 0.091042 0.229891
vt 0.091042 0.229891
vt 0.091042 0.229891
vt 0.091042 0.229891
vt 0.495403 0.179195
vt 0.495403 0.179195
vt 0.495403 0.179195
vt 0.495403 0.179195
vt 0.495403 0.179195
vt 0.495403 0.179195
vt 0.495403 0.179195
vt 0.495403 0.179195
vt 0.495403 0.179195
vt 0.495403 0.179195
vt 0.037732 0.280293
vt 0.037732 0.280293
vt 0.037732 0.280293
vt 0.091042 0.229891
vt 0.091042 0.229891
vt 0.091042 0.229891
vt 0.091042 0.229891
vt 0.495403 0.179195
vt 0.495403 0.179195
vt 0.495403 0.179195
vt 0.036804 0.305679
vt 0.036804 0.305678
vt 0.036804 0.305679
vt 0.036804 0.305679
vt 0.495403 0.179195
vt 0.495403 0.179195
vt 0.495403 0.179195
vt 0.495403 0.179195
vt 0.495403 0.179195
vt 0.495403 0.179195
vt 0.495403 0.179195
vt 0.495403 0.179195
vt 0.495403 0.179195
vt 0.091042 0.229891
vt 0.091042 0.229891
vt 0.091042 0.229891
vt 0.091042 0.229891
vt 0.091042 0.229891
vt 0.091042 0.229891
vt 0.091042 0.229891
vt 0.091042 0.229891
vt 0.091042 0.229891
vt 0.091042 0.229891
vt 0.091042 0.229891
vt 0.091042 0.229891
vt 0.495403 0.179195
vt 0.495403 0.179195
vt 0.495403 0.179195
vt 0.495403 0.179195
vt 0.495403 0.179195
vt 0.495403 0.179195
vt 0.495403 0.179195
vt 0.495403 0.179195
vt 0.495403 0.179195
vt 0.495403 0.179195
vt 0.495403 0.179195
vt 0.036804 0.305679
vt 0.036804 0.305678
vt 0.036803 0.305679
vt 0.037732 0.280293
vt 0.037732 0.280293
vt 0.037732 0.280293
vt 0.037732 0.280293
vt 0.036804 0.305678
vt 0.037732 0.280293
vt 0.037732 0.280293
vt 0.036804 0.305679
vt 0.036804 0.305678
vt 0.037732 0.280293
vt 0.037732 0.280293
vt 0.037732 0.280293
vt 0.037732 0.280293
vt 0.037732 0.280293
vt 0.037732 0.280293
vt 0.036804 0.305678
vt 0.036804 0.305679
vt 0.036804 0.305679
vt 0.037732 0.280293
vt 0.037732 0.280293
vt 0.037732 0.280293
vt 0.037732 0.280293
vt 0.037732 0.280293
vn 0.854456 -0.462209 -0.237207
vn 0.854456 -0.462209 -0.237207
vn 0.854456 -0.462209 -0.237207
vn -0.000000 0.998903 -0.046835
vn -0.000000 0.998903 -0.046835
vn -0.000000 0.998903 -0.046835
vn -0.000000 0.998903 -0.046835
vn 0.525560 -0.784211 0.329849
vn 0.525560 -0.784211 0.329849
vn 0.525560 -0.784211 0.329849
vn 0.422272 -0.442290 0.791243
vn 0.422272 -0.442290 0.791243
vn 0.422272 -0.442290 0.791243
vn 0.422272 -0.442290 0.791243
vn 0.369063 -0.407723 -0.835197
vn 0.369063 -0.407723 -0.835197
vn 0.369063 -0.407723 -0.835197
vn 0.369063 -0.407723 -0.835197
vn 0.292342 -0.012565 0.956231
vn 0.292342 -0.012565 0.956231
vn 0.292342 -0.012565 0.956231
vn 0.292342 -0.012565 0.956231
vn 1.000000 0.000000 -0.000000
vn 1.000000 0.000000 -0.000000
vn 1.000000 0.000000 -0.000000
vn 1.000000 0.000000 -0.000000
vn 1.000000 0.000000 -0.000000
vn 1.000000 0.000000 -0.000000
vn 1.000000 0.000000 -0.000000
vn 0.110448 -0.993491 0.027863
vn 0.110448 -0.993491 0.027863
vn 0.110448 -0.993491 0.027863
vn 0.110448 -0.993491 0.027863
vn 1.000000 0.000000 -0.000000
vn 1.000000 0.000000 -0.000000
vn 1.000000 0.000000 -0.000000
vn 1.000000 0.000000 -0.000000
vn 0.380649 0.000003 0.924720
vn 0.380649 0.000003 0.924720
vn 0.380649 0.000003 0.924720
vn 0.380649 0.000003 0.924720
vn 0.380648 0.000006 -0.924720
vn 0.380648 0.000006 -0.924720
vn 0.380648 0.000006 -0.924720
vn 0.380648 0.000006 -0.924720
vn 0.482828 -0.503173 -0.716724
vn 0.482828 -0.503173 -0.716724
vn 0.482828 -0.503173 -0.716724
vn 0.616074 -0.780334 -0.107385
vn 0.616074 -0.780334 -0.107385
vn 0.616074 -0.780334 -0.107385
vn 0.616074 -0.780334 -0.107385
vn 0.330399 -0.367907 -0.869184
vn 0.330399 -0.367907 -0.869184
vn 0.330399 -0.367907 -0.869184
vn 0.330399 -0.367907 -0.869184
vn 1.000000 0.000000 -0.000000
vn 1.000000 0.000000 -0.000000
vn 1.000000 0.000000 -0.000000
vn 1.000000 0.000000 -0.000000
vn 0.356503 -0.473563 0.805384
vn 0.356503 -0.473563 0.805384
vn 0.356503 -0.473563 0.805384
vn 0.356503 -0.473563 0.805384
vn -0.869533 -0.438474 -0.227274
vn -0.869533 -0.438474 -0.227274
vn -0.869533 -0.438474 -0.227274
vn 0.000000 0.998903 -0.046835
vn 0.000000 0.998903 -0.046835
vn 0.000000 0.998903 -0.046835
vn 0.000000 0.998903 -0.046835
vn -0.525560 -0.784211 0.329849
vn -0.525560 -0.784211 0.329849
vn -0.525560 -0.784211 0.329849
vn -0.422272 -0.442290 0.791243
vn -0.422272 -0.442290 0.791243
vn -0.422272 -0.442290 0.791243
vn -0.422272 -0.442290 0.791243
vn -0.376607 -0.393386 -0.838698
vn -0.376607 -0.393386 -0.838698
vn -0.376608 -0.393386 -0.838698
vn -0.376608 -0.393386 -0.838698
vn -0.292342 -0.012565 0.956231
vn -0.292342 -0.012565 0.956231
vn -0.292342 -0.012565 0.956231
vn -0.292342 -0.012565 0.956231
vn -1.000000 0.000000 -0.000000
vn -1.000000 0.000000 -0.000000
vn -1.000000 0.000000 -0.000000
vn -1.000000 0.000000 -0.000000
vn -1.000000 0.000000 -0.000000
vn -1.000000 0.000000 -0.000000
vn -1.000000 0.000000 -0.000000
vn -0.110448 -0.993491 0.027863
vn -0.110448 -0.993491 0.027863
vn -0.110448 -0.993491 0.027863
vn -0.110448 -0.993491 0.027863
vn -1.000000 0.000000 -0.000000
vn -1.000000 0.000000 -0.000000
vn -1.000000 0.000000 -0.000000
vn -1.000000 0.000000 -0.000000
vn -0.380649 0.000003 0.924720
vn -0.380649 0.000003 0.924720
vn -0.380649 0.000003 0.924720
vn -0.380649 0.000003 0.924720
vn -0.380648 0.000006 -0.924720
vn -0.380648 0.000006 -0.924720
vn -0.380648 0.000006 -0.924720
vn -0.380648 0.000006 -0.924720
vn -0.482828 -0.503173 -0.716724
vn -0.482828 -0.503173 -0.716724
vn -0.482828 -0.503173 -0.716724
vn -0.616074 -0.780334 -0.107385
vn -0.616074 -0.780334 -0.107385
vn -0.616074 -0.780334 -0.107385
vn -0.616074 -0.780334 -0.107385
vn -0.330399 -0.367907 -0.869184
vn -0.330398 -0.367907 -0.869184
vn -0.330399 -0.367907 -0.869184
vn -0.330399 -0.367907 -0.869184
vn -1.000000 0.000000 -0.000000
vn -1.000000 0.000000 -0.000000
vn -1.000000 0.000000 -0.000000
vn -1.000000 0.000000 -0.000000
vn -0.356503 -0.473563 0.805384
vn -0.356503 -0.473563 0.805384
vn -0.356503 -0.473563 0.805384
vn -0.356503 -0.473563 0.805384
vn -0.445518 0.321738 -0.835463
vn -0.445518 0.321738 -0.835463
vn -0.445518 0.321738 -0.835463
vn -0.445518 0.321738 -0.835463
vn 0.445518 0.321738 -0.835463
vn 0.445518 0.321738 -0.835463
vn 0.445518 0.321738 -0.835463
vn 0.445518 0.321738 -0.835463
vn 0.860744 0.451075 0.235904
vn 0.860744 0.451075 0.235904
vn 0.860744 0.451075 0.235904
vn 0.860744 0.451075 0.235904
vn 0.771723 -0.590325 -0.236559
vn 0.771723 -0.590325 -0.236559
vn 0.771723 -0.590325 -0.236559
vn 0.771723 -0.590325 -0.236559
vn 0.340939 0.085539 0.936186
vn 0.340939 0.085539 0.936186
vn 0.340939 0.085539 0.936186
vn 0.340939 0.085539 0.936186
vn 0.508249 -0.734144 0.450240
vn 0.508249 -0.734144 0.450240
vn 0.508249 -0.734144 0.450240
vn 0.508249 -0.734144 0.450240
vn 0.261634 0.726059 -0.635913
vn 0.261635 0.726059 -0.635913
vn 0.261635 0.726059 -0.635913
vn 0.261634 0.726059 -0.635913
vn 0.480830 -0.220428 -0.848655
vn 0.480829 -0.220428 -0.848655
vn 0.480829 -0.220428 -0.848654
vn 0.480829 -0.220428 -0.848654
vn -0.771723 -0.590325 -0.236559
vn -0.771723 -0.590325 -0.236559
vn -0.771723 -0.590325 -0.236559
vn -0.771723 -0.590325 -0.236559
vn -0.860744 0.451075 0.235904
vn -0.860744 0.451075 0.235904
vn -0.860744 0.451075 0.235904
vn -0.860744 0.451075 0.235904
vn -0.508249 -0.734144 0.450239
vn -0.508249 -0.734144 0.450239
vn -0.508249 -0.734144 0.450239
vn -0.508249 -0.734144 0.450239
vn -0.340939 0.085539 0.936186
vn -0.340939 0.085539 0.936186
vn -0.340939 0.085539 0.936186
vn -0.340939 0.085539 0.936186
vn -0.480830 -0.220428 -0.848654
vn -0.480830 -0.220428 -0.848654
vn -0.480830 -0.220428 -0.848655
vn -0.480830 -0.220428 -0.848654
vn -0.261634 0.726059 -0.635913
vn -0.261634 0.726059 -0.635913
vn -0.261634 0.726059 -0.635913
vn -0.261634 0.726059 -0.635913
vn 0.261759 0.887796 -0.378551
vn 0.261759 0.887796 -0.378551
vn 0.261759 0.887796 -0.378551
vn 0.261759 0.887796 -0.378551
vn -0.208281 0.925985 -0.314914
vn -0.208281 0.925985 -0.314914
vn -0.208281 0.925985 -0.314914
vn -0.208281 0.925985 -0.314914
vn -0.765679 0.598480 0.235706
vn -0.765679 0.598480 0.235706
vn -0.765679 0.598480 0.235706
vn -0.423014 -0.200461 0.883671
vn -0.423014 -0.200461 0.883671
vn -0.423014 -0.200461 0.883671
vn -0.423014 -0.200461 0.883671
vn 0.423014 -0.200461 0.883671
vn 0.423014 -0.200461 0.883671
vn 0.423014 -0.200461 0.883671
vn 0.423014 -0.200461 0.883671
vn 0.868396 0.464851 0.172635
vn 0.868396 0.464851 0.172635
vn 0.868396 0.464851 0.172635
vn 0.998925 0.041470 0.020697
vn 0.998925 0.041470 0.020697
vn 0.998925 0.041470 0.020697
vn 0.998925 0.041470 0.020697
vn 0.480163 0.367143 -0.796649
vn 0.480163 0.367143 -0.796649
vn 0.480163 0.367143 -0.796649
vn 0.480163 0.367143 -0.796649
vn -0.479915 0.366963 -0.796881
vn -0.479915 0.366963 -0.796881
vn -0.479915 0.366963 -0.796881
vn -0.479915 0.366963 -0.796881
vn -0.998927 0.041430 0.020706
vn -0.998927 0.041430 0.020706
vn -0.998927 0.041430 0.020706
vn -0.998927 0.041430 0.020706
vn -0.999307 -0.034466 -0.014055
vn -0.999307 -0.034466 -0.014055
vn -0.999307 -0.034466 -0.014055
vn -0.999307 -0.034466 -0.014055
vn -0.406530 0.411345 -0.815799
vn -0.406530 0.411345 -0.815799
vn -0.406530 0.411345 -0.815799
vn -0.406530 0.411345 -0.815799
vn 0.406770 0.411135 -0.815786
vn 0.406770 0.411135 -0.815786
vn 0.406770 0.411135 -0.815786
vn 0.406770 0.411135 -0.815786
vn 0.999307 -0.034469 -0.014060
vn 0.999307 -0.034469 -0.014060
vn 0.999307 -0.034469 -0.014060
vn 0.999307 -0.034469 -0.014060
s off
f 53/1/1 48/2/2 59/3/3
f 9/4/4 11/5/5 20/6/6 10/7/7
f 5/8/8 16/9/9 22/10/10
f 52/11/11 53/12/12 38/13/13 40/14/14
f 48/15/15 49/16/16 58/17/17 59/18/18
f 17/19/19 16/9/20 5/8/21 2/20/22
f 2/20/23 5/8/24 6/21/25 1/22/26
f 3/23/27 23/24/28 4/25/29
f 4/25/30 23/24/31 24/26/32 18/27/33
f 7/28/34 9/29/35 10/30/36 8/31/37
f 8/32/38 10/33/39 20/34/40 19/35/41
f 12/36/42 11/37/43 9/38/44 7/39/45
f 15/40/46 6/41/47 21/42/48
f 6/41/49 5/43/50 22/44/51 21/42/52
f 13/45/53 12/46/54 7/47/55 3/23/56
f 23/24/57 3/23/58 7/47/59 8/48/60
f 24/26/61 23/24/62 8/48/63 19/49/64
f 50/50/65 51/51/66 57/52/67
f 33/53/68 34/54/69 20/55/70 11/56/71
f 29/57/72 22/58/73 16/59/74
f 51/60/75 52/11/76 40/14/77 46/61/78
f 49/16/79 50/62/80 57/63/81 58/17/82
f 17/64/83 26/65/84 29/57/85 16/59/86
f 26/65/87 25/66/88 30/67/89 29/57/90
f 27/68/91 28/69/92 35/70/93
f 28/69/94 18/71/95 24/72/96 35/70/97
f 31/73/98 32/74/99 34/75/100 33/76/101
f 32/77/102 19/78/103 20/79/104 34/80/105
f 12/81/106 31/82/107 33/83/108 11/84/109
f 15/85/110 21/86/111 30/87/112
f 30/87/113 21/86/114 22/88/115 29/89/116
f 13/90/117 27/68/118 31/91/119 12/92/120
f 35/70/121 32/93/122 31/91/123 27/68/124
f 24/72/125 19/94/126 32/93/127 35/70/128
f 14/95/129 15/85/130 30/67/131 25/66/132
f 14/95/133 1/22/134 6/41/135 15/85/136
f 3/96/137 4/97/138 38/13/139 37/98/140
f 2/99/141 1/100/142 36/101/143 39/102/144
f 4/97/145 18/103/146 40/14/147 38/13/148
f 17/104/149 2/99/150 39/102/151 41/105/152
f 13/106/153 3/96/154 37/98/155 43/107/156
f 1/100/157 14/108/158 42/109/159 36/101/160
f 25/110/161 26/111/162 45/112/163 44/113/164
f 28/114/165 27/115/166 47/116/167 46/61/168
f 26/111/169 17/104/170 41/105/171 45/112/172
f 18/103/173 28/114/174 46/61/175 40/14/176
f 14/108/177 25/110/178 44/113/179 42/109/180
f 27/115/181 13/106/182 43/107/183 47/116/184
f 54/117/185 55/118/186 49/119/187 48/2/188
f 55/118/189 56/120/190 50/50/191 49/119/192
f 56/120/193 51/51/194 50/50/195
f 45/112/196 41/105/197 52/121/198 51/51/199
f 39/102/200 53/1/201 52/121/202 41/105/203
f 53/1/204 54/117/205 48/2/206
f 36/101/207 54/117/208 53/1/209 39/102/210
f 42/109/211 55/118/212 54/117/213 36/101/214
f 42/109/215 44/113/216 56/120/217 55/118/218
f 44/113/219 45/112/220 51/51/221 56/120/222
f 57/63/223 51/60/224 46/61/225 47/116/226
f 58/17/227 57/63/228 47/116/229 43/107/230
f 59/18/231 58/17/232 43/107/233 37/98/234
f 53/12/235 59/18/236 37/98/237 38/13/238
