# This file uses centimeters as units for non-parametric coordinates.

v -2.119460 -6.250580 -5.054337
v -2.119460 -7.456844 -0.942062
v -2.164973 -3.194769 -4.148975
v -2.164975 -4.623336 -0.199627
v -2.119463 -8.504313 -1.265579
v -2.123493 -8.507064 -5.063705
v -2.206359 -1.247118 -2.650547
v -2.206361 -2.640131 0.917808
v 0.133348 -1.112301 -3.351477
v 0.134834 -2.895649 -4.653861
v 0.133348 -6.071251 -6.070709
v 0.133348 -8.637694 -6.539871
v 0.133348 -9.817451 0.304230
v 0.133348 -7.716423 0.235367
v 0.134834 -4.998792 0.695762
v 0.133348 -2.890563 1.865893
v 0.133348 -10.148929 -5.274994
v 0.133348 -10.390491 -0.846588
v -1.640417 -9.357738 -0.000885
v -1.935902 -9.853251 -1.025772
v -1.963655 -9.708793 -4.547607
v 2.386155 -6.250580 -5.054337
v 2.386155 -7.456844 -0.942062
v 2.434642 -3.194769 -4.148975
v 2.434644 -4.623336 -0.199627
v 2.386158 -8.504313 -1.265579
v 2.390189 -8.507064 -5.063705
v 2.473055 -1.247118 -2.650547
v 2.473057 -2.640131 0.917808
v 1.907113 -9.357738 -0.000885
v 2.202598 -9.853251 -1.025772
v 2.230350 -9.708793 -4.547607
v -2.374837 -6.050564 -5.116565
v -2.403113 -7.368679 -0.778364
v -2.405848 -4.835259 -0.115790
v -2.378291 -3.338843 -4.251047
v 0.133348 -7.703812 0.627200
v 0.133348 -5.262395 1.005210
v 0.133348 -5.740183 -6.366415
v 0.133348 -2.940545 -5.008673
v 2.641533 -6.050564 -5.116565
v 2.644987 -3.338842 -4.251047
v 2.672544 -4.835259 -0.115790
v 2.669808 -7.368679 -0.778364
v -2.441663 -2.445600 1.111817
v -2.372028 -0.976030 -2.597740
v -2.428137 -0.456213 2.270324
v -2.371700 0.501055 -2.220292
v 0.133348 -0.775247 -3.553831
v 0.133348 0.712277 -3.216157
v 0.133348 -2.818103 2.182571
v -0.817556 -0.976306 4.108680
v 2.638724 -0.976030 -2.597740
v 2.638395 0.501055 -2.220292
v 2.694833 -0.456213 2.270324
v 2.708359 -2.445600 1.111817
v 1.084252 -0.976306 4.108680
v -1.952098 0.227586 2.332123
v -1.952096 1.183411 -1.627899
v 0.133348 1.351655 -2.282135
v -0.642943 -0.175460 3.839462
v 2.218792 1.183411 -1.627899
v 2.218794 0.227586 2.332123
v 0.909639 -0.175460 3.839462
vt 0.036741 0.330267
vt 0.036741 0.330267
vt 0.036741 0.330267
vt 0.036741 0.330267
vt 0.092003 0.228703
vt 0.092003 0.228703
vt 0.092003 0.228703
vt 0.036742 0.330267
vt 0.036742 0.330267
vt 0.036742 0.330267
vt 0.036742 0.330267
vt 0.092003 0.228703
vt 0.092003 0.228703
vt 0.092003 0.228703
vt 0.092003 0.228703
vt 0.092003 0.228703
vt 0.092003 0.228703
vt 0.092003 0.228703
vt 0.036818 0.302418
vt 0.036818 0.302418
vt 0.036818 0.302418
vt 0.036818 0.302419
vt 0.036818 0.302418
vt 0.036818 0.302418
vt 0.036818 0.302418
vt 0.036818 0.302418
vt 0.036741 0.330267
vt 0.036741 0.330267
vt 0.036741 0.330267
vt 0.036741 0.330267
vt 0.036742 0.330267
vt 0.036742 0.330267
vt 0.092003 0.228703
vt 0.036742 0.330267
vt 0.036742 0.330267
vt 0.092003 0.228703
vt 0.092003 0.228703
vt 0.036741 0.330267
vt 0.036741 0.330267
vt 0.036741 0.330267
vt 0.036741 0.330267
vt 0.092003 0.228703
vt 0.092003 0.228703
vt 0.092003 0.228703
vt 0.092003 0.228703
vt 0.092003 0.228703
vt 0.092003 0.228703
vt 0.036818 0.302418
vt 0.036818 0.302419
vt 0.036818 0.302418
vt 0.036818 0.302418
vt 0.036741 0.330267
vt 0.036741 0.330267
vt 0.036741 0.330267
vt 0.036741 0.330267
vt 0.036741 0.330267
vt 0.092003 0.228703
vt 0.036741 0.330267
vt 0.036741 0.330267
vt 0.036741 0.330267
vt 0.036741 0.330267
vt 0.036742 0.330267
vt 0.036742 0.330267
vt 0.036742 0.330267
vt 0.036742 0.330267
vt 0.036741 0.330267
vt 0.036741 0.330267
vt 0.036741 0.330267
vt 0.036741 0.330267
vt 0.036741 0.330267
vt 0.036741 0.330267
vt 0.036741 0.330267
vt 0.036741 0.330267
vt 0.036742 0.330267
vt 0.036742 0.330267
vt 0.036742 0.330267
vt 0.036742 0.330267
vt 0.036741 0.330267
vt 0.036741 0.330267
vt 0.036741 0.330267
vt 0.036741 0.330267
vt 0.036741 0.330267
vn -0.999979 0.000674 -0.006365
vn -0.999979 0.000674 -0.006365
vn -0.999979 0.000674 -0.006365
vn -0.999979 0.000674 -0.006365
vn -0.948123 -0.074058 0.309158
vn -0.948123 -0.074058 0.309158
vn -0.948123 -0.074058 0.309158
vn -0.459952 -0.182039 0.869084
vn -0.459952 -0.182039 0.869084
vn -0.459952 -0.182039 0.869083
vn -0.459952 -0.182039 0.869083
vn -0.390119 0.344251 -0.853990
vn -0.390119 0.344251 -0.853990
vn -0.390119 0.344251 -0.853990
vn -0.390119 0.344251 -0.853990
vn -0.161293 0.032329 0.986377
vn -0.161293 0.032329 0.986377
vn -0.161293 0.032329 0.986377
vn -0.999999 0.001153 0.000685
vn -0.999999 0.001153 0.000685
vn -0.999999 0.001153 0.000685
vn -0.999999 0.001153 0.000685
vn -0.482630 0.086874 -0.871505
vn -0.482630 0.086874 -0.871505
vn -0.482630 0.086874 -0.871505
vn -0.482630 0.086874 -0.871505
vn -0.999838 -0.016846 -0.006323
vn -0.999838 -0.016846 -0.006323
vn -0.999838 -0.016846 -0.006323
vn -0.999838 -0.016846 -0.006323
vn -0.381220 -0.454200 0.805217
vn -0.381220 -0.454200 0.805217
vn -0.381220 -0.454200 0.805217
vn -0.381220 -0.454200 0.805217
vn -0.255436 0.578557 -0.774613
vn -0.255436 0.578557 -0.774613
vn -0.255436 0.578557 -0.774613
vn -0.255436 0.578557 -0.774613
vn -0.999876 0.009555 -0.012545
vn -0.999876 0.009555 -0.012545
vn -0.999876 0.009555 -0.012545
vn -0.999876 0.009555 -0.012545
vn -0.369787 0.217911 -0.903201
vn -0.369787 0.217911 -0.903201
vn -0.369787 0.217911 -0.903201
vn -0.369787 0.217911 -0.903201
vn -0.518843 -0.394676 -0.758309
vn -0.518843 -0.394676 -0.758309
vn -0.518843 -0.394676 -0.758309
vn -0.991125 -0.132924 0.001730
vn -0.991125 -0.132924 0.001730
vn -0.991125 -0.132924 0.001730
vn -0.991125 -0.132924 0.001730
vn -0.537462 -0.604719 0.587750
vn -0.537462 -0.604719 0.587750
vn -0.537462 -0.604719 0.587750
vn -0.537462 -0.604719 0.587750
vn -0.276914 -0.847075 0.453633
vn -0.276914 -0.847075 0.453633
vn -0.276914 -0.847075 0.453633
vn -0.276914 -0.847075 0.453633
vn -0.233923 -0.971150 -0.046337
vn -0.233923 -0.971150 -0.046337
vn -0.233923 -0.971150 -0.046337
vn -0.233923 -0.971150 -0.046337
vn -0.371957 -0.595783 -0.711822
vn -0.371957 -0.595783 -0.711822
vn -0.371957 -0.595783 -0.711822
vn -0.950174 -0.091986 0.297838
vn -0.950174 -0.091986 0.297838
vn -0.950174 -0.091986 0.297838
vn -0.409680 0.319765 0.854349
vn -0.409680 0.319765 0.854349
vn -0.409680 0.319765 0.854349
vn 0.999980 0.000674 -0.006365
vn 0.999979 0.000674 -0.006365
vn 0.999979 0.000674 -0.006365
vn 0.999979 0.000674 -0.006365
vn 0.948123 -0.074058 0.309159
vn 0.948123 -0.074058 0.309159
vn 0.948123 -0.074058 0.309159
vn 0.459952 -0.182039 0.869084
vn 0.459952 -0.182039 0.869084
vn 0.459952 -0.182039 0.869084
vn 0.459952 -0.182039 0.869084
vn 0.390119 0.344251 -0.853990
vn 0.390119 0.344251 -0.853990
vn 0.390119 0.344251 -0.853990
vn 0.390119 0.344251 -0.853990
vn 0.161293 0.032329 0.986377
vn 0.161293 0.032329 0.986377
vn 0.161293 0.032329 0.986377
vn 0.999999 0.001153 0.000685
vn 0.999999 0.001153 0.000685
vn 0.999999 0.001153 0.000685
vn 0.999999 0.001153 0.000685
vn 0.482630 0.086874 -0.871505
vn 0.482630 0.086874 -0.871505
vn 0.482630 0.086874 -0.871505
vn 0.482630 0.086874 -0.871505
vn 0.999861 -0.015636 -0.005869
vn 0.999861 -0.015636 -0.005869
vn 0.999861 -0.015636 -0.005869
vn 0.999861 -0.015636 -0.005869
vn 0.381252 -0.453773 0.805443
vn 0.381252 -0.453773 0.805443
vn 0.381251 -0.453773 0.805443
vn 0.381252 -0.453773 0.805443
vn 0.255411 0.578821 -0.774423
vn 0.255411 0.578821 -0.774423
vn 0.255411 0.578821 -0.774423
vn 0.255411 0.578821 -0.774423
vn 0.999876 0.009555 -0.012545
vn 0.999876 0.009555 -0.012545
vn 0.999876 0.009555 -0.012545
vn 0.999876 0.009555 -0.012545
vn 0.000000 -0.722748 0.691111
vn 0.000000 -0.722748 0.691111
vn 0.000000 -0.722748 0.691111
vn 0.369787 0.217911 -0.903201
vn 0.369787 0.217911 -0.903201
vn 0.369787 0.217911 -0.903201
vn 0.369787 0.217911 -0.903201
vn 0.518843 -0.394676 -0.758309
vn 0.518843 -0.394676 -0.758309
vn 0.518843 -0.394676 -0.758309
vn 0.991125 -0.132923 0.001730
vn 0.991125 -0.132923 0.001730
vn 0.991125 -0.132923 0.001730
vn 0.991125 -0.132923 0.001730
vn 0.537462 -0.604719 0.587750
vn 0.537462 -0.604719 0.587750
vn 0.537462 -0.604719 0.587750
vn 0.537462 -0.604719 0.587750
vn 0.276915 -0.847075 0.453631
vn 0.276915 -0.847075 0.453632
vn 0.276915 -0.847075 0.453631
vn 0.276915 -0.847075 0.453632
vn 0.233922 -0.971150 -0.046337
vn 0.233923 -0.971150 -0.046337
vn 0.233923 -0.971150 -0.046337
vn 0.233922 -0.971150 -0.046337
vn 0.371957 -0.595783 -0.711822
vn 0.371957 -0.595783 -0.711822
vn 0.371957 -0.595783 -0.711822
vn 0.950175 -0.091986 0.297837
vn 0.950175 -0.091986 0.297837
vn 0.950175 -0.091986 0.297837
vn 0.409680 0.319765 0.854349
vn 0.409680 0.319765 0.854349
vn 0.409680 0.319765 0.854349
vn -0.492699 -0.833339 -0.250589
vn -0.492699 -0.833339 -0.250589
vn -0.492699 -0.833339 -0.250589
vn -0.492699 -0.833339 -0.250589
vn -0.600642 0.752478 0.270197
vn -0.600642 0.752478 0.270196
vn -0.600642 0.752478 0.270196
vn -0.600642 0.752478 0.270196
vn -0.170790 -0.981117 0.090777
vn -0.170789 -0.981117 0.090777
vn -0.170790 -0.981117 0.090777
vn -0.170790 -0.981117 0.090777
vn -0.182933 0.680258 0.709778
vn -0.182933 0.680258 0.709778
vn -0.182933 0.680258 0.709778
vn -0.182933 0.680258 0.709778
vn -0.281848 -0.625732 -0.727338
vn -0.281848 -0.625732 -0.727338
vn -0.281848 -0.625732 -0.727338
vn -0.281848 -0.625732 -0.727338
vn -0.210827 0.934341 -0.287330
vn -0.210827 0.934341 -0.287330
vn -0.210827 0.934341 -0.287330
vn -0.210827 0.934341 -0.287330
vn 0.605701 0.748886 0.268880
vn 0.605701 0.748886 0.268880
vn 0.605701 0.748886 0.268880
vn 0.605701 0.748886 0.268880
vn 0.492699 -0.833339 -0.250589
vn 0.492699 -0.833339 -0.250589
vn 0.492699 -0.833339 -0.250589
vn 0.492699 -0.833338 -0.250589
vn 0.183536 0.679078 0.710751
vn 0.183536 0.679078 0.710751
vn 0.183536 0.679078 0.710751
vn 0.183536 0.679078 0.710751
vn 0.170790 -0.981117 0.090774
vn 0.170790 -0.981117 0.090774
vn 0.170790 -0.981117 0.090774
vn 0.170790 -0.981117 0.090774
vn 0.211292 0.933556 -0.289534
vn 0.211292 0.933556 -0.289534
vn 0.211292 0.933556 -0.289534
vn 0.211292 0.933556 -0.289534
vn 0.281849 -0.625733 -0.727337
vn 0.281849 -0.625733 -0.727337
vn 0.281849 -0.625733 -0.727337
vn 0.281849 -0.625733 -0.727337
vn -0.794333 -0.562698 -0.228924
vn -0.794333 -0.562698 -0.228923
vn -0.794333 -0.562698 -0.228923
vn -0.794333 -0.562698 -0.228923
vn -0.854478 0.507867 0.109267
vn -0.854478 0.507867 0.109267
vn -0.854478 0.507867 0.109267
vn -0.854478 0.507867 0.109267
vn -0.289657 -0.302232 -0.908160
vn -0.289657 -0.302232 -0.908160
vn -0.289657 -0.302232 -0.908160
vn -0.289657 -0.302232 -0.908160
vn -0.273563 0.763079 -0.585555
vn -0.273563 0.763079 -0.585555
vn -0.273563 0.763079 -0.585555
vn -0.273563 0.763079 -0.585555
vn -0.258400 -0.899862 0.351393
vn -0.258400 -0.899862 0.351393
vn -0.258400 -0.899862 0.351393
vn -0.258400 -0.899863 0.351393
vn -0.644495 0.375506 0.666049
vn -0.644495 0.375506 0.666049
vn -0.644495 0.375507 0.666049
vn -0.644495 0.375506 0.666049
vn 0.854478 0.507867 0.109266
vn 0.854478 0.507867 0.109266
vn 0.854478 0.507867 0.109266
vn 0.854478 0.507867 0.109266
vn 0.794333 -0.562698 -0.228924
vn 0.794333 -0.562698 -0.228924
vn 0.794333 -0.562698 -0.228924
vn 0.794333 -0.562699 -0.228924
vn 0.000000 0.318644 0.947874
vn 0.000000 0.318644 0.947874
vn 0.000000 0.318644 0.947874
vn 0.000000 0.318644 0.947874
vn 0.273563 0.763079 -0.585555
vn 0.273563 0.763079 -0.585555
vn 0.273563 0.763079 -0.585555
vn 0.273563 0.763079 -0.585555
vn 0.289657 -0.302232 -0.908160
vn 0.289657 -0.302232 -0.908160
vn 0.289657 -0.302232 -0.908160
vn 0.289657 -0.302232 -0.908160
vn 0.644495 0.375506 0.666049
vn 0.644495 0.375506 0.666049
vn 0.644495 0.375506 0.666049
vn 0.644495 0.375506 0.666049
vn 0.258400 -0.899863 0.351393
vn 0.258400 -0.899862 0.351393
vn 0.258400 -0.899862 0.351393
vn 0.258400 -0.899863 0.351393
vn 0.000000 0.971349 0.237656
vn 0.000000 0.971349 0.237656
vn 0.000000 0.966061 0.258314
vn 0.000000 0.966061 0.258314
vn 0.000000 0.972028 0.234866
vn 0.000000 0.971349 0.237656
vn 0.000000 0.971349 0.237656
vn 0.000000 0.972028 0.234866
vn 0.000000 0.972028 0.234866
vn 0.000000 0.972028 0.234866
vn 0.000000 0.968489 0.249057
s off
f 33/1/1 34/2/2 35/3/3 36/4/4
f 5/5/5 20/6/6 19/7/7
f 34/2/8 37/8/9 38/9/10 35/3/11
f 39/10/12 33/1/13 36/4/14 40/11/15
f 14/12/16 19/7/17 13/13/18
f 2/14/19 1/15/20 6/16/21 5/5/22
f 1/15/23 11/17/24 12/18/25 6/16/26
f 3/19/27 4/20/28 8/21/29 7/22/30
f 4/20/31 15/23/32 16/24/33 8/21/34
f 10/25/35 3/19/36 7/22/37 9/26/38
f 46/27/39 45/28/40 47/29/41 48/30/42
f 49/31/43 46/27/44 48/30/45 50/32/46
f 12/18/47 21/33/48 6/16/49
f 6/16/50 21/33/51 20/6/52 5/5/53
f 45/28/54 51/34/55 52/35/56 47/29/57
f 20/6/58 18/36/59 13/13/60 19/7/61
f 21/33/62 17/37/63 18/36/64 20/6/65
f 12/18/66 17/37/67 21/33/68
f 2/14/69 5/5/70 19/7/71
f 14/12/72 2/14/73 19/7/74
f 41/38/75 42/39/76 43/40/77 44/41/78
f 26/42/79 30/43/80 31/44/81
f 44/41/82 43/40/83 38/9/84 37/8/85
f 39/10/86 40/11/87 42/39/88 41/38/89
f 14/12/90 13/13/91 30/43/92
f 23/45/93 26/42/94 27/46/95 22/47/96
f 22/47/97 27/46/98 12/18/99 11/17/100
f 24/48/101 28/49/102 29/50/103 25/51/104
f 25/51/105 29/50/106 16/24/107 15/23/108
f 10/25/109 9/26/110 28/49/111 24/48/112
f 53/52/113 54/53/114 55/54/115 56/55/116
f 51/34/117 57/56/118 52/35/119
f 49/31/120 50/32/121 54/53/122 53/52/123
f 12/18/124 27/46/125 32/57/126
f 27/46/127 26/42/128 31/44/129 32/57/130
f 56/55/131 55/54/132 57/56/133 51/34/134
f 31/44/135 30/43/136 13/13/137 18/36/138
f 32/57/139 31/44/140 18/36/141 17/37/142
f 12/18/143 32/57/144 17/37/145
f 23/45/146 30/43/147 26/42/148
f 14/12/149 30/43/150 23/45/151
f 1/58/152 2/59/153 34/2/154 33/1/155
f 4/60/156 3/61/157 36/4/158 35/3/159
f 2/59/160 14/62/161 37/8/162 34/2/163
f 15/63/164 4/60/165 35/3/166 38/9/167
f 11/64/168 1/58/169 33/1/170 39/10/171
f 3/61/172 10/65/173 40/11/174 36/4/175
f 24/66/176 25/67/177 43/40/178 42/39/179
f 23/68/180 22/69/181 41/38/182 44/41/183
f 25/67/184 15/63/185 38/9/186 43/40/187
f 14/62/188 23/68/189 44/41/190 37/8/191
f 10/65/192 24/66/193 42/39/194 40/11/195
f 22/69/196 11/64/197 39/10/198 41/38/199
f 7/70/200 8/71/201 45/28/202 46/27/203
f 58/72/204 59/73/205 48/30/206 47/29/207
f 9/74/208 7/70/209 46/27/210 49/31/211
f 59/73/212 60/75/213 50/32/214 48/30/215
f 8/71/216 16/76/217 51/34/218 45/28/219
f 61/77/220 58/72/221 47/29/222 52/35/223
f 62/78/224 63/79/225 55/54/226 54/53/227
f 29/80/228 28/81/229 53/52/230 56/55/231
f 64/82/232 61/77/233 52/35/234 57/56/235
f 60/75/236 62/78/237 54/53/238 50/32/239
f 28/81/240 9/74/241 49/31/242 53/52/243
f 63/79/244 64/82/245 57/56/246 55/54/247
f 16/76/248 29/80/249 56/55/250 51/34/251
f 63/79/252 58/72/253 61/77/254 64/82/255
f 59/73/256 58/72/257 63/79/258 62/78/259
f 59/73/260 62/78/261 60/75/262
