# This file uses centimeters as units for non-parametric coordinates.

v -0.760595 0.000000 -6.182281
v -0.760595 0.000000 0.000000
v -0.760595 0.292480 -6.182281
v -0.760595 0.292480 0.000000
v 0.760595 0.292480 -6.182281
v 0.760595 0.292480 0.000000
v 0.760595 0.000000 -6.182281
v 0.760595 0.000000 0.000000
v 0.760595 0.000000 -6.393860
v -0.760595 0.000000 -6.393860
v -0.760595 0.172592 -6.393860
v 0.760595 0.172592 -6.393860
v 0.076624 0.292480 -6.182281
v 0.077881 0.292480 -6.393860
v -0.094763 0.292480 -6.182281
v -0.098532 0.292480 -6.393860
v -0.760595 0.729767 -6.182281
v -0.141658 0.729767 -6.182281
v -0.147520 0.729767 -6.393860
v -0.760595 0.729767 -6.393860
v 0.124914 0.729767 -6.182281
v 0.126869 0.729767 -6.393860
v 0.760595 0.729767 -6.182281
v 0.760595 0.729767 -6.393860
v 1.258882 0.427979 -4.771057
v 1.258882 0.427979 -5.281433
v 1.258882 -0.014023 -5.536621
v 1.258882 -0.456009 -5.281433
v 1.258882 -0.456009 -4.771057
v 1.258882 -0.014023 -4.515869
v -2.166622 0.427979 -4.771057
v -2.166622 0.427979 -5.281433
v -2.166622 -0.014023 -5.536621
v -2.166622 -0.456009 -5.281433
v -2.166622 -0.456009 -4.771057
v -2.166622 -0.014023 -4.515869
v 1.258882 -0.014023 -5.026245
v -2.166622 -0.014023 -5.026245
v 0.470940 0.427979 -5.281433
v 0.470940 0.427979 -4.771057
v 0.470940 -0.014023 -4.515869
v 0.470940 -0.456009 -4.771057
v 0.470940 -0.456009 -5.281433
v 0.470940 -0.014023 -5.536621
v -0.421473 0.427979 -5.281433
v -0.421473 0.427979 -4.771057
v -0.421473 -0.014023 -4.515869
v -0.421473 -0.456009 -4.771057
v -0.421473 -0.456009 -5.281433
v -0.421473 -0.014023 -5.536621
vt 0.091227 0.234316
vt 0.091227 0.234316
vt 0.091227 0.234316
vt 0.091227 0.234316
vt 0.091227 0.234316
vt 0.091227 0.234316
vt 0.091227 0.234316
vt 0.091227 0.234316
vt 0.091227 0.234316
vt 0.091227 0.234316
vt 0.091227 0.234316
vt 0.091227 0.234316
vt 0.091227 0.234316
vt 0.091227 0.234316
vt 0.091227 0.234316
vt 0.091227 0.234316
vt 0.091227 0.234316
vt 0.091227 0.234316
vt 0.091227 0.234316
vt 0.091227 0.234316
vt 0.091227 0.234316
vt 0.091227 0.234316
vt 0.091227 0.234316
vt 0.091227 0.234316
vt 0.091227 0.234316
vt 0.091227 0.234316
vt 0.091227 0.234316
vt 0.091227 0.234316
vt 0.091227 0.234316
vt 0.091227 0.234316
vt 0.091227 0.234316
vt 0.091227 0.234316
vt 0.091227 0.234316
vt 0.091227 0.234316
vt 0.091227 0.234316
vt 0.091227 0.234316
vt 0.091227 0.234316
vt 0.091227 0.234316
vt 0.091227 0.234316
vt 0.091227 0.234316
vt 0.091227 0.234316
vt 0.091227 0.234316
vt 0.091227 0.234316
vt 0.091227 0.234316
vt 0.091227 0.234316
vt 0.091227 0.234316
vt 0.091227 0.234316
vt 0.091227 0.234316
vt 0.091227 0.234316
vt 0.091227 0.234316
vt 0.091227 0.234316
vt 0.091227 0.234316
vt 0.091227 0.234316
vt 0.091227 0.234316
vt 0.091227 0.234316
vt 0.091227 0.234316
vt 0.091227 0.234316
vt 0.091227 0.234316
vt 0.091227 0.234316
vt 0.091227 0.234316
vt 0.091227 0.234316
vt 0.091227 0.234316
vt 0.091227 0.234316
vt 0.091227 0.234316
vt 0.091227 0.234316
vt 0.091227 0.234316
vt 0.091227 0.234316
vt 0.091227 0.234316
vt 0.092387 0.234316
vt 0.092387 0.234316
vt 0.092387 0.234316
vt 0.092387 0.234316
vt 0.092387 0.234316
vt 0.092387 0.234316
vt 0.092387 0.234316
vt 0.092387 0.234316
vt 0.092387 0.234316
vt 0.092387 0.234316
vt 0.092387 0.234316
vt 0.092387 0.234316
vt 0.092387 0.234316
vt 0.092387 0.234316
vt 0.092387 0.234316
vt 0.092387 0.234316
vt 0.092387 0.234316
vt 0.092387 0.234316
vt 0.092387 0.234316
vt 0.092387 0.234316
vt 0.092387 0.234316
vt 0.092387 0.234316
vt 0.092387 0.234316
vt 0.092387 0.234316
vt 0.092387 0.234316
vt 0.092387 0.234316
vt 0.092387 0.234316
vt 0.092387 0.234316
vt 0.092387 0.234316
vt 0.092387 0.234316
vt 0.092387 0.234316
vt 0.092387 0.234316
vt 0.092387 0.234316
vt 0.092387 0.234316
vt 0.092387 0.234316
vt 0.092387 0.234316
vt 0.092387 0.234316
vt 0.092387 0.234316
vt 0.092387 0.234316
vt 0.092387 0.234316
vt 0.092387 0.234316
vt 0.092387 0.234316
vt 0.092387 0.234316
vt 0.092387 0.234316
vt 0.092387 0.234316
vt 0.092387 0.234316
vt 0.092387 0.234316
vt 0.092387 0.234316
vt 0.092387 0.234316
vt 0.092387 0.234316
vt 0.092387 0.234316
vt 0.092387 0.234316
vt 0.092387 0.234316
vt 0.092387 0.234316
vt 0.092387 0.234316
vt 0.092387 0.234316
vt 0.092387 0.234316
vt 0.092387 0.234316
vt 0.092387 0.234316
vt 0.092387 0.234316
vt 0.092387 0.234316
vt 0.092387 0.234316
vn -1.000000 0.000000 0.000000
vn -1.000000 0.000000 0.000000
vn -1.000000 0.000000 0.000000
vn -1.000000 0.000000 0.000000
vn 0.000000 1.000000 0.000000
vn 0.000000 1.000000 0.000000
vn 0.000000 1.000000 0.000000
vn 1.000000 0.000000 0.000000
vn 1.000000 0.000000 0.000000
vn 1.000000 0.000000 0.000000
vn 1.000000 0.000000 0.000000
vn 0.000000 -1.000000 0.000000
vn 0.000000 -1.000000 0.000000
vn 0.000000 -1.000000 0.000000
vn 0.000000 -1.000000 0.000000
vn 0.000000 0.000000 1.000000
vn 0.000000 0.000000 1.000000
vn 0.000000 0.000000 1.000000
vn 0.000000 0.000000 1.000000
vn -0.000001 0.000000 -1.000000
vn -0.000001 0.000000 -1.000000
vn -0.000001 0.000000 -1.000000
vn 0.000000 -1.000000 0.000000
vn 0.000000 -1.000000 0.000000
vn 0.000000 -1.000000 0.000000
vn 0.000000 -1.000000 0.000000
vn -1.000000 0.000000 0.000000
vn -1.000000 0.000000 0.000000
vn -1.000000 0.000000 0.000000
vn -1.000000 0.000000 0.000000
vn 0.000000 1.000000 0.000000
vn 0.000000 1.000000 0.000000
vn 0.000000 1.000000 0.000000
vn 0.000000 1.000000 0.000000
vn 1.000000 0.000000 0.000000
vn 1.000000 0.000000 0.000000
vn 1.000000 0.000000 0.000000
vn 1.000000 0.000000 0.000000
vn 0.000000 1.000000 0.000000
vn 0.000000 1.000000 0.000000
vn 0.000000 1.000000 0.000000
vn 0.000000 1.000000 0.000000
vn 0.000000 1.000000 0.000000
vn 0.000000 1.000000 0.000000
vn 0.000000 1.000000 0.000000
vn 0.000000 1.000000 0.000000
vn 0.000002 0.000000 -1.000000
vn 0.000002 0.000000 -1.000000
vn 0.000002 0.000000 -1.000000
vn 0.000000 0.000000 -1.000000
vn 0.000000 0.000000 -1.000000
vn 0.000000 0.000000 -1.000000
vn 0.000000 0.000000 -1.000000
vn 0.000000 1.000000 0.000000
vn 0.000000 1.000000 0.000000
vn 0.000000 1.000000 0.000000
vn 0.000000 1.000000 0.000000
vn 0.000000 1.000000 0.000000
vn 0.000000 1.000000 0.000000
vn 0.000000 1.000000 0.000000
vn 0.000000 0.000000 1.000000
vn 0.000000 0.000000 1.000000
vn 0.000000 0.000000 1.000000
vn 0.000000 0.000000 1.000000
vn 0.993789 0.108953 -0.022619
vn 0.993790 0.108953 -0.022619
vn 0.993789 0.108953 -0.022619
vn 0.993789 0.108953 -0.022619
vn 0.000000 0.000000 -1.000000
vn 0.000000 0.000000 -1.000000
vn 0.000000 0.000000 -1.000000
vn 0.000000 0.000000 -1.000000
vn -1.000000 0.000000 0.000000
vn -1.000000 0.000000 0.000000
vn -1.000000 0.000000 0.000000
vn -1.000000 0.000000 0.000000
vn -0.993843 0.110545 -0.007544
vn -0.993843 0.110545 -0.007544
vn -0.993843 0.110545 -0.007544
vn -0.993843 0.110545 -0.007544
vn 0.000000 0.000000 1.000000
vn 0.000000 0.000000 1.000000
vn 0.000000 0.000000 1.000000
vn 0.000000 0.000000 1.000000
vn 1.000000 0.000000 0.000000
vn 1.000000 0.000000 0.000000
vn 1.000000 0.000000 0.000000
vn 1.000000 0.000000 0.000000
vn 0.000000 0.000000 -1.000000
vn 0.000000 0.000000 -1.000000
vn 0.000000 0.000000 -1.000000
vn 0.000000 0.000000 -1.000000
vn 0.000000 1.000000 0.000000
vn 0.000000 1.000000 0.000000
vn 0.000000 1.000000 0.000000
vn 0.000000 1.000000 0.000000
vn 0.000000 0.499998 -0.866027
vn 0.000000 0.499998 -0.866027
vn 0.000000 0.499998 -0.866027
vn 0.000000 0.499998 -0.866027
vn 0.000000 -0.500011 -0.866019
vn 0.000000 -0.500011 -0.866019
vn 0.000000 -0.500011 -0.866019
vn 0.000000 -0.500011 -0.866019
vn 0.000000 -1.000000 0.000000
vn 0.000000 -1.000000 0.000000
vn 0.000000 -1.000000 0.000000
vn 0.000000 -1.000000 0.000000
vn 0.000000 -0.500011 0.866019
vn 0.000000 -0.500011 0.866019
vn 0.000000 -0.500011 0.866019
vn 0.000000 -0.500011 0.866019
vn 0.000000 0.499998 0.866027
vn 0.000000 0.499998 0.866027
vn 0.000000 0.499998 0.866027
vn 0.000000 0.499998 0.866027
vn 1.000000 0.000000 0.000000
vn 1.000000 0.000000 0.000000
vn 1.000000 0.000000 0.000000
vn 1.000000 0.000000 0.000000
vn 1.000000 0.000000 0.000000
vn 1.000000 0.000000 0.000000
vn 1.000000 0.000000 0.000000
vn 1.000000 0.000000 0.000000
vn 1.000000 0.000000 0.000000
vn 1.000000 0.000000 0.000000
vn 1.000000 0.000000 0.000000
vn 1.000000 0.000000 0.000000
vn 1.000000 0.000000 0.000000
vn 1.000000 0.000000 0.000000
vn 1.000000 0.000000 0.000000
vn 1.000000 0.000000 0.000000
vn 1.000000 0.000000 0.000000
vn 1.000000 0.000000 0.000000
vn -1.000000 0.000000 0.000000
vn -1.000000 0.000000 0.000000
vn -1.000000 0.000000 0.000000
vn -1.000000 0.000000 0.000000
vn -1.000000 0.000000 0.000000
vn -1.000000 0.000000 0.000000
vn -1.000000 0.000000 0.000000
vn -1.000000 0.000000 0.000000
vn -1.000000 0.000000 0.000000
vn -1.000000 0.000000 0.000000
vn -1.000000 0.000000 0.000000
vn -1.000000 0.000000 0.000000
vn -1.000000 0.000000 0.000000
vn -1.000000 0.000000 0.000000
vn -1.000000 0.000000 0.000000
vn -1.000000 0.000000 0.000000
vn -1.000000 0.000000 0.000000
vn -1.000000 0.000000 0.000000
vn 0.000000 -0.500011 0.866019
vn 0.000000 -0.500011 0.866019
vn 0.000000 -0.500011 0.866019
vn 0.000000 -0.500011 0.866019
vn 0.000000 -1.000000 0.000000
vn 0.000000 -1.000000 0.000000
vn 0.000000 -1.000000 0.000000
vn 0.000000 -1.000000 0.000000
vn 0.000000 -0.500011 -0.866019
vn 0.000000 -0.500011 -0.866019
vn 0.000000 -0.500011 -0.866019
vn 0.000000 -0.500011 -0.866019
vn 0.000000 1.000000 0.000000
vn 0.000000 1.000000 0.000000
vn 0.000000 1.000000 0.000000
vn 0.000000 1.000000 0.000000
vn 0.000000 0.499998 0.866027
vn 0.000000 0.499998 0.866027
vn 0.000000 0.499998 0.866027
vn 0.000000 0.499998 0.866027
vn 0.000000 -0.500011 0.866019
vn 0.000000 -0.500011 0.866019
vn 0.000000 -0.500011 0.866019
vn 0.000000 -0.500011 0.866019
vn 0.000000 -1.000000 0.000000
vn 0.000000 -1.000000 0.000000
vn 0.000000 -1.000000 0.000000
vn 0.000000 -1.000000 0.000000
vn 0.000000 -0.500011 -0.866019
vn 0.000000 -0.500011 -0.866019
vn 0.000000 -0.500011 -0.866019
vn 0.000000 -0.500011 -0.866019
vn 0.000000 0.499998 -0.866027
vn 0.000000 0.499998 -0.866027
vn 0.000000 0.499998 -0.866027
vn 0.000000 0.499998 -0.866027
vn -1.000000 -0.000000 0.000000
vn -1.000000 -0.000000 0.000000
vn -1.000000 -0.000000 0.000000
vn -1.000000 -0.000000 0.000000
vn 1.000000 0.000000 0.000000
vn 1.000000 0.000000 0.000000
vn 1.000000 0.000000 0.000000
vn 1.000000 0.000000 0.000000
s off
f 1/1/1 2/2/2 4/3/3 3/4/4
f 13/5/5 6/6/6 5/7/7
f 5/8/8 6/9/9 8/10/10 7/11/11
f 7/12/12 8/13/13 2/14/14 1/15/15
f 2/16/16 8/17/17 6/18/18 4/19/19
f 16/20/20 10/21/21 11/22/22
f 7/12/23 1/15/24 10/23/25 9/24/26
f 1/1/27 3/4/28 11/25/29 10/26/30
f 17/27/31 18/28/32 19/29/33 20/30/34
f 5/8/35 7/11/36 9/31/37 12/32/38
f 22/33/39 21/34/40 23/35/41 24/36/42
f 16/37/43 15/38/44 13/5/45 14/39/46
f 9/40/47 14/41/48 12/42/49
f 9/40/50 10/21/51 16/20/52 14/41/53
f 3/43/54 4/44/55 15/38/56
f 15/38/57 4/44/58 6/6/59 13/5/60
f 3/45/61 15/46/62 18/47/63 17/48/64
f 15/49/65 16/50/66 19/51/67 18/52/68
f 16/20/69 11/22/70 20/53/71 19/54/72
f 11/25/73 3/4/74 17/55/75 20/56/76
f 14/57/77 13/58/78 21/59/79 22/60/80
f 13/61/81 5/62/82 23/63/83 21/64/84
f 5/8/85 12/32/86 24/65/87 23/66/88
f 12/42/89 14/41/90 22/67/91 24/68/92
f 25/69/93 26/70/94 39/71/95 40/72/96
f 26/73/97 27/74/98 44/75/99 39/76/100
f 27/74/101 28/77/102 43/78/103 44/75/104
f 28/79/105 29/80/106 42/81/107 43/82/108
f 29/83/109 30/84/110 41/85/111 42/86/112
f 30/84/113 25/87/114 40/88/115 41/85/116
f 26/89/117 25/90/118 37/91/119
f 27/92/120 26/89/121 37/91/122
f 28/93/123 27/92/124 37/91/125
f 29/94/126 28/93/127 37/91/128
f 30/95/129 29/94/130 37/91/131
f 25/90/132 30/95/133 37/91/134
f 31/96/135 32/97/136 38/98/137
f 32/97/138 33/99/139 38/98/140
f 33/99/141 34/100/142 38/98/143
f 34/100/144 35/101/145 38/98/146
f 35/101/147 36/102/148 38/98/149
f 36/102/150 31/96/151 38/98/152
f 42/86/153 41/85/154 47/103/155 48/104/156
f 43/82/157 42/81/158 48/105/159 49/106/160
f 44/75/161 43/78/162 49/107/163 50/108/164
f 46/109/165 45/110/166 32/111/167 31/112/168
f 47/103/169 46/113/170 31/114/171 36/115/172
f 48/104/173 47/103/174 36/115/175 35/116/176
f 49/106/177 48/105/178 35/117/179 34/118/180
f 50/108/181 49/107/182 34/119/183 33/120/184
f 45/121/185 50/108/186 33/120/187 32/122/188
f 39/123/189 44/124/190 41/125/191 40/126/192
f 46/127/193 47/128/194 50/129/195 45/130/196
