# This file uses centimeters as units for non-parametric coordinates.

v -1.482342 -8.459444 -6.713718
v -1.482342 -8.261019 -1.129856
v -1.482342 -9.729441 -0.963047
v -1.482342 -9.717257 -6.282688
v -1.482342 -1.528797 -2.626255
v -1.482342 -0.552204 -2.470982
v -1.482342 -0.648540 2.674526
v -1.083294 -8.976122 -0.100437
v -1.083294 -9.532305 -0.045750
v -1.482342 -2.576145 0.818691
v -0.000000 -8.688776 -7.567295
v -0.000000 -8.371065 -0.091648
v -0.000000 -10.116396 -7.099522
v -0.000000 -10.354616 -1.155003
v -0.000000 -1.387493 -3.209507
v -0.000000 -0.552204 -3.572849
v -0.000000 -2.935635 1.298733
v -0.000000 -0.648540 3.229824
v -0.000000 -8.868135 0.555630
v -0.000000 -9.983904 0.460415
v -1.482342 1.698612 2.325283
v -1.482342 0.744396 -4.663731
v -1.482342 1.698612 -4.765049
v -0.000000 0.398663 -4.663731
v 1.482342 1.698612 -4.765049
v 1.482342 -8.459444 -6.713718
v 1.482342 -8.261019 -1.129856
v 1.482342 -9.729441 -0.963047
v 1.482342 -9.717257 -6.282688
v 1.482342 -1.528797 -2.626255
v 1.482342 -0.552204 -2.470982
v 1.482342 -0.648540 2.674526
v 1.083294 -8.976122 -0.100437
v 1.083294 -9.532305 -0.045750
v 1.482342 -2.576145 0.818691
v 1.482342 1.698612 2.325283
v 1.482342 0.744396 -4.663731
v 0.000000 1.698612 2.722134
vt 0.495364 0.178010
vt 0.495364 0.178010
vt 0.495364 0.178011
vt 0.495364 0.178011
vt 0.495364 0.178010
vt 0.495364 0.178010
vt 0.495364 0.178011
vt 0.495364 0.178011
vt 0.495364 0.178010
vt 0.495364 0.178010
vt 0.495364 0.178010
vt 0.495364 0.178011
vt 0.495364 0.178010
vt 0.495364 0.178011
vt 0.495364 0.178010
vt 0.495364 0.178010
vt 0.495364 0.178011
vt 0.495364 0.178010
vt 0.495364 0.178010
vt 0.495364 0.178011
vt 0.495364 0.178010
vt 0.495364 0.178010
vt 0.495364 0.178010
vt 0.495364 0.178010
vt 0.495364 0.178010
vt 0.495364 0.178010
vt 0.495364 0.178010
vt 0.495364 0.178011
vt 0.495364 0.178011
vt 0.495364 0.178010
vt 0.495364 0.178010
vt 0.495364 0.178011
vt 0.495364 0.178011
vt 0.495364 0.178010
vt 0.495364 0.178010
vt 0.495364 0.178010
vt 0.495364 0.178010
vt 0.495364 0.178010
vn -1.000000 0.000000 0.000000
vn -1.000000 0.000000 0.000000
vn -1.000000 0.000000 0.000000
vn -1.000000 0.000000 0.000000
vn -1.000000 -0.000000 0.000000
vn -1.000000 -0.000000 0.000000
vn -1.000000 -0.000000 0.000000
vn -1.000000 -0.000000 0.000000
vn -1.000000 0.000000 0.000000
vn -1.000000 0.000000 0.000000
vn -1.000000 0.000000 0.000000
vn -1.000000 0.000000 0.000000
vn -0.920404 0.042519 0.388651
vn -0.920404 0.042519 0.388651
vn -0.920404 0.042519 0.388651
vn -0.920404 0.042519 0.388651
vn -0.372701 0.473550 -0.798026
vn -0.372701 0.473550 -0.798026
vn -0.372701 0.473550 -0.798025
vn -0.372701 0.473550 -0.798026
vn -0.472434 -0.253456 0.844136
vn -0.472434 -0.253456 0.844136
vn -0.472434 -0.253456 0.844136
vn -0.472434 -0.253456 0.844136
vn -0.515495 -0.271970 -0.812587
vn -0.515495 -0.271970 -0.812587
vn -0.515495 -0.271970 -0.812587
vn -0.515495 -0.271970 -0.812587
vn -0.332855 -0.942745 -0.020957
vn -0.332855 -0.942745 -0.020957
vn -0.332855 -0.942745 -0.020957
vn -0.332855 -0.942745 -0.020957
vn -0.488104 -0.099573 -0.867087
vn -0.488104 -0.099573 -0.867087
vn -0.488104 -0.099573 -0.867087
vn -0.488104 -0.099573 -0.867087
vn -0.394461 0.697554 0.598180
vn -0.394461 0.697554 0.598180
vn -0.394461 0.697554 0.598180
vn -0.394461 0.697554 0.598180
vn -0.400581 -0.878570 0.260094
vn -0.400581 -0.878570 0.260094
vn -0.400581 -0.878570 0.260094
vn -0.400581 -0.878570 0.260094
vn -0.475230 -0.021321 0.879603
vn -0.475230 -0.021321 0.879603
vn -0.475230 -0.021321 0.879603
vn -0.475230 -0.021321 0.879603
vn -0.322591 -0.632619 0.704080
vn -0.322591 -0.632619 0.704080
vn -0.322591 -0.632619 0.704080
vn -0.322591 -0.632619 0.704080
vn -1.000000 0.000000 0.000000
vn -1.000000 0.000000 0.000000
vn -1.000000 0.000000 0.000000
vn -1.000000 0.000000 0.000000
vn -1.000000 0.000000 0.000000
vn -1.000000 0.000000 0.000000
vn -1.000000 0.000000 0.000000
vn -0.292744 -0.789065 -0.540072
vn -0.292744 -0.789065 -0.540072
vn -0.292744 -0.789065 -0.540072
vn -0.292744 -0.789065 -0.540072
vn 0.000000 -0.077705 -0.996976
vn 0.000000 -0.077705 -0.996976
vn 0.000000 -0.077705 -0.996976
vn 1.000000 0.000000 0.000000
vn 1.000000 0.000000 0.000000
vn 1.000000 0.000000 0.000000
vn 1.000000 0.000000 0.000000
vn 1.000000 0.000000 0.000000
vn 1.000000 0.000000 0.000000
vn 1.000000 0.000000 0.000000
vn 1.000000 0.000000 0.000000
vn 1.000000 0.000000 0.000000
vn 1.000000 0.000000 0.000000
vn 1.000000 0.000000 0.000000
vn 1.000000 0.000000 0.000000
vn 0.920404 0.042519 0.388651
vn 0.920404 0.042519 0.388651
vn 0.920404 0.042519 0.388651
vn 0.920404 0.042519 0.388651
vn 0.372701 0.473550 -0.798025
vn 0.372701 0.473550 -0.798026
vn 0.372701 0.473550 -0.798026
vn 0.372701 0.473550 -0.798026
vn 0.472434 -0.253456 0.844136
vn 0.472434 -0.253456 0.844136
vn 0.472434 -0.253456 0.844136
vn 0.472434 -0.253456 0.844136
vn 0.515495 -0.271970 -0.812587
vn 0.515495 -0.271970 -0.812587
vn 0.515495 -0.271970 -0.812587
vn 0.515495 -0.271970 -0.812587
vn 0.332855 -0.942745 -0.020957
vn 0.332855 -0.942745 -0.020957
vn 0.332855 -0.942745 -0.020957
vn 0.332855 -0.942745 -0.020957
vn 0.488104 -0.099573 -0.867087
vn 0.488104 -0.099573 -0.867087
vn 0.488104 -0.099573 -0.867087
vn 0.488104 -0.099573 -0.867087
vn 0.394461 0.697554 0.598179
vn 0.394461 0.697554 0.598180
vn 0.394461 0.697554 0.598179
vn 0.394461 0.697554 0.598179
vn 0.400581 -0.878570 0.260094
vn 0.400581 -0.878570 0.260094
vn 0.400581 -0.878570 0.260094
vn 0.400581 -0.878570 0.260094
vn 0.475230 -0.021321 0.879603
vn 0.475230 -0.021321 0.879603
vn 0.475230 -0.021321 0.879603
vn 0.475230 -0.021321 0.879603
vn 0.322591 -0.632619 0.704080
vn 0.322591 -0.632619 0.704080
vn 0.322591 -0.632619 0.704080
vn 0.322591 -0.632619 0.704080
vn 1.000000 0.000000 0.000000
vn 1.000000 0.000000 0.000000
vn 1.000000 0.000000 0.000000
vn 1.000000 0.000000 0.000000
vn 1.000000 0.000000 0.000000
vn 1.000000 0.000000 0.000000
vn 1.000000 0.000000 0.000000
vn 0.292744 -0.789065 -0.540072
vn 0.292744 -0.789065 -0.540072
vn 0.292744 -0.789065 -0.540072
vn 0.292744 -0.789065 -0.540072
vn 0.024619 -0.105554 -0.994109
vn 0.024619 -0.105554 -0.994109
vn 0.024619 -0.105554 -0.994109
vn 0.000000 1.000000 0.000000
vn 0.000000 1.000000 0.000000
vn 0.000000 1.000000 0.000000
vn -0.024619 -0.105554 -0.994109
vn -0.024619 -0.105554 -0.994109
vn -0.024619 -0.105554 -0.994109
vn -0.301264 0.171237 0.938039
vn -0.301264 0.171237 0.938039
vn -0.301264 0.171237 0.938039
vn -0.301264 0.171237 0.938039
vn 0.000000 1.000000 0.000000
vn 0.000000 1.000000 0.000000
vn 0.000000 1.000000 0.000000
vn 0.000000 1.000000 0.000000
vn 0.000000 1.000000 0.000000
vn 0.000000 1.000000 0.000000
vn 0.301264 0.171237 0.938039
vn 0.301264 0.171237 0.938039
vn 0.301264 0.171237 0.938039
vn 0.301264 0.171237 0.938039
s off
f 1/1/1 2/2/2 10/3/3 5/4/4
f 2/2/5 1/1/6 4/5/7 3/6/8
f 5/4/9 10/3/10 7/7/11 6/8/12
f 2/2/13 3/6/14 9/9/15 8/10/16
f 11/11/17 1/1/18 5/4/19 15/12/20
f 10/3/21 2/2/22 12/13/23 17/14/24
f 4/5/25 1/1/26 11/11/27 13/15/28
f 3/6/29 4/5/30 13/15/31 14/16/32
f 5/4/33 6/8/34 16/17/35 15/12/36
f 2/2/37 8/10/38 19/18/39 12/13/40
f 9/9/41 3/6/42 14/16/43 20/19/44
f 8/10/45 9/9/46 20/19/47 19/18/48
f 7/7/49 10/3/50 17/14/51 18/20/52
f 6/8/53 7/7/54 21/21/55
f 6/8/56 21/21/57 23/22/58 22/23/59
f 6/8/60 22/23/61 24/24/62 16/17/63
f 24/24/64 23/22/65 25/25/66
f 27/26/67 26/27/68 30/28/69 35/29/70
f 27/26/71 28/30/72 29/31/73 26/27/74
f 30/28/75 31/32/76 32/33/77 35/29/78
f 27/26/79 33/34/80 34/35/81 28/30/82
f 30/28/83 26/27/84 11/11/85 15/12/86
f 17/14/87 12/13/88 27/26/89 35/29/90
f 29/31/91 13/15/92 11/11/93 26/27/94
f 28/30/95 14/16/96 13/15/97 29/31/98
f 30/28/99 15/12/100 16/17/101 31/32/102
f 27/26/103 12/13/104 19/18/105 33/34/106
f 34/35/107 20/19/108 14/16/109 28/30/110
f 33/34/111 19/18/112 20/19/113 34/35/114
f 32/33/115 18/20/116 17/14/117 35/29/118
f 31/32/119 36/36/120 32/33/121
f 31/32/122 37/37/123 25/25/124 36/36/125
f 31/32/126 16/17/127 24/24/128 37/37/129
f 37/37/130 24/24/131 25/25/132
f 38/38/133 25/25/134 23/22/135
f 22/23/136 23/22/137 24/24/138
f 7/7/139 18/20/140 38/38/141 21/21/142
f 38/38/143 23/22/144 21/21/145
f 36/36/146 25/25/147 38/38/148
f 38/38/149 18/20/150 32/33/151 36/36/152
