# This file uses centimeters as units for non-parametric coordinates.

v -0.630424 0.000000 -2.597916
v -0.630424 0.000000 2.597916
v -0.630424 0.995568 -2.349957
v -0.630424 0.995568 2.349937
v 0.630424 0.995568 -2.349957
v 0.630424 0.995568 2.349937
v 0.630424 0.000000 -2.597916
v 0.630423 0.000000 2.597916
v 0.630424 0.995568 1.194206
v -0.630424 0.995568 1.194206
v 0.630424 0.995568 0.646873
v -0.630424 0.995568 0.646877
v 0.563282 2.278745 0.676003
v -0.563282 2.278745 0.676018
v -0.563282 2.110075 1.165047
v 0.563282 2.110075 1.165047
v 0.240917 2.278745 0.676018
v -0.240930 2.278745 0.676003
v -0.240930 2.110075 1.165047
v 0.240917 2.110075 1.165047
v 0.186589 1.847838 1.175350
v -0.186589 1.847838 1.175350
v -0.186589 1.890870 0.665733
v 0.186589 1.890870 0.665714
v -0.417413 0.995568 -1.432339
v -0.417413 0.995568 0.521255
v 0.417415 0.995568 0.521255
v 0.417415 0.995568 -1.432339
v -0.363244 1.388547 -1.305573
v -0.363244 1.388547 0.394485
v 0.363229 1.388547 0.394485
v 0.363229 1.388547 -1.305573
vt 0.091408 0.253193
vt 0.091408 0.253193
vt 0.091408 0.253193
vt 0.091408 0.253193
vt 0.091408 0.253193
vt 0.091408 0.253193
vt 0.091408 0.253193
vt 0.091408 0.253193
vt 0.091408 0.253193
vt 0.091408 0.253193
vt 0.091408 0.253193
vt 0.091408 0.253193
vt 0.091408 0.253193
vt 0.091408 0.253193
vt 0.091408 0.253193
vt 0.091408 0.253193
vt 0.091408 0.253193
vt 0.091408 0.253193
vt 0.091408 0.253193
vt 0.091408 0.253193
vt 0.091408 0.253193
vt 0.091408 0.253193
vt 0.091408 0.253193
vt 0.091408 0.253193
vt 0.091408 0.253193
vt 0.091408 0.253193
vt 0.091408 0.253193
vt 0.091408 0.253193
vt 0.091408 0.253193
vt 0.091408 0.253193
vt 0.091408 0.253193
vt 0.091408 0.253193
vt 0.091408 0.253193
vt 0.091408 0.253193
vt 0.091408 0.253193
vt 0.091408 0.253193
vt 0.091408 0.253193
vt 0.091408 0.253193
vt 0.091408 0.253193
vt 0.091408 0.253193
vt 0.091408 0.253193
vt 0.091408 0.253193
vt 0.091408 0.253193
vt 0.091408 0.253193
vt 0.091408 0.253193
vt 0.091408 0.253193
vt 0.091408 0.253193
vt 0.091408 0.253193
vt 0.091408 0.253193
vt 0.091408 0.253193
vt 0.091408 0.253193
vt 0.091408 0.253193
vt 0.091408 0.253193
vt 0.091408 0.253193
vt 0.091408 0.253193
vt 0.091408 0.253193
vt 0.091408 0.253193
vt 0.091408 0.253193
vt 0.091408 0.253193
vt 0.091408 0.253193
vt 0.091408 0.253193
vt 0.091408 0.253193
vt 0.091408 0.253193
vt 0.091408 0.253193
vt 0.091408 0.253193
vt 0.091408 0.253193
vt 0.091408 0.253193
vt 0.091408 0.253193
vt 0.091408 0.253193
vt 0.091408 0.253193
vt 0.091408 0.253193
vt 0.091408 0.253193
vt 0.091408 0.253193
vt 0.091408 0.253193
vt 0.091408 0.253193
vt 0.091408 0.253193
vt 0.091408 0.253193
vt 0.091408 0.253193
vt 0.091408 0.253193
vt 0.091408 0.253193
vt 0.091408 0.253193
vt 0.091408 0.253193
vt 0.091408 0.253193
vt 0.091408 0.253193
vt 0.091408 0.253193
vt 0.091408 0.253193
vt 0.091408 0.253193
vt 0.091408 0.253193
vt 0.091408 0.253193
vt 0.091408 0.253193
vt 0.091408 0.253193
vt 0.091408 0.253193
vt 0.091408 0.253193
vt 0.091408 0.253193
vt 0.091408 0.253193
vt 0.091408 0.253193
vt 0.091408 0.253193
vt 0.091408 0.253193
vt 0.091408 0.253193
vt 0.091408 0.253193
vt 0.091408 0.253193
vt 0.091408 0.253193
vt 0.091408 0.253193
vt 0.091408 0.253193
vt 0.091408 0.253193
vt 0.091408 0.253193
vt 0.091408 0.253193
vt 0.091408 0.253193
vt 0.091408 0.253193
vt 0.091408 0.253193
vt 0.091408 0.253193
vt 0.091408 0.253193
vt 0.091408 0.253193
vt 0.091408 0.253193
vt 0.091408 0.253193
vt 0.091408 0.253193
vt 0.091408 0.253193
vt 0.091408 0.253193
vt 0.091408 0.253193
vt 0.091408 0.253193
vt 0.091408 0.253193
vt 0.091408 0.253193
vt 0.091408 0.253193
vt 0.091408 0.253193
vt 0.091408 0.253193
vt 0.091408 0.253193
vt 0.091408 0.253193
vt 0.091408 0.253193
vn -1.000000 0.000000 0.000000
vn -1.000000 0.000000 0.000000
vn -1.000000 0.000000 0.000000
vn 0.000000 1.000000 0.000000
vn 0.000000 1.000000 0.000000
vn 0.000000 1.000000 0.000000
vn 0.000000 1.000000 0.000000
vn 1.000000 -0.000001 0.000000
vn 1.000000 -0.000001 0.000000
vn 1.000000 -0.000001 0.000000
vn 0.000000 0.241697 0.970352
vn 0.000000 0.241697 0.970352
vn 0.000000 0.241697 0.970352
vn 0.000000 0.241697 0.970352
vn 0.000000 0.241680 -0.970356
vn 0.000000 0.241680 -0.970356
vn 0.000000 0.241680 -0.970356
vn 0.000000 0.241680 -0.970356
vn 0.000002 0.996454 0.084139
vn 0.000002 0.996454 0.084139
vn 0.000002 0.996454 0.084139
vn 0.000002 0.996454 0.084139
vn -1.000000 0.000000 0.000000
vn -1.000000 0.000000 0.000000
vn -1.000000 0.000000 0.000000
vn -1.000000 0.000000 0.000000
vn 1.000000 -0.000001 0.000000
vn 1.000000 -0.000001 0.000000
vn 1.000000 -0.000001 0.000000
vn 1.000000 -0.000001 0.000000
vn 0.000000 1.000000 0.000000
vn 0.000000 1.000000 0.000000
vn 0.000000 1.000000 0.000000
vn 0.000000 1.000000 0.000000
vn -1.000000 -0.000000 0.000000
vn -1.000000 -0.000000 0.000000
vn -1.000000 -0.000000 0.000000
vn 1.000000 -0.000000 0.000000
vn 1.000000 -0.000000 0.000000
vn 1.000000 -0.000000 0.000000
vn -0.000014 0.021048 -0.999779
vn -0.000014 0.021048 -0.999779
vn -0.000014 0.021048 -0.999778
vn -0.000014 0.021048 -0.999778
vn -0.998394 0.055916 0.009100
vn -0.998394 0.055916 0.009100
vn -0.998394 0.055916 0.009100
vn -0.998394 0.055916 0.009100
vn 0.000000 0.022119 0.999755
vn 0.000000 0.022119 0.999755
vn 0.000000 0.022119 0.999755
vn 0.000000 0.022119 0.999755
vn 0.998394 0.055916 0.009100
vn 0.998394 0.055916 0.009100
vn 0.998394 0.055916 0.009100
vn 0.998394 0.055916 0.009100
vn 0.000008 0.945351 0.326053
vn 0.000008 0.945351 0.326053
vn 0.000008 0.945351 0.326053
vn 0.000008 0.945351 0.326053
vn 0.000008 0.945351 0.326054
vn 0.000008 0.945351 0.326054
vn 0.000008 0.945351 0.326054
vn 0.000008 0.945351 0.326054
vn -0.003717 0.022898 -0.999731
vn -0.003717 0.022898 -0.999731
vn -0.003717 0.022898 -0.999731
vn 0.003735 0.022890 -0.999731
vn 0.003735 0.022890 -0.999731
vn 0.003735 0.022890 -0.999731
vn 0.008767 0.026681 0.999606
vn 0.008767 0.026681 0.999606
vn 0.008767 0.026681 0.999606
vn -0.008767 0.026681 0.999606
vn -0.008767 0.026681 0.999606
vn -0.008767 0.026681 0.999606
vn 0.000000 0.039261 0.999229
vn 0.000000 0.039261 0.999229
vn 0.000000 0.039261 0.999229
vn 0.000000 0.039261 0.999229
vn 0.000000 0.039261 0.999229
vn 0.000000 0.039261 0.999229
vn -0.000047 0.026460 -0.999650
vn -0.000047 0.026460 -0.999650
vn -0.000047 0.026460 -0.999650
vn -0.000047 0.026561 -0.999647
vn -0.000047 0.026561 -0.999647
vn -0.000047 0.026561 -0.999647
vn 0.985710 0.164787 0.034932
vn 0.985710 0.164787 0.034932
vn 0.985710 0.164787 0.034932
vn 0.985710 0.164787 0.034932
vn -0.985718 0.164746 0.034924
vn -0.985718 0.164746 0.034924
vn -0.985718 0.164746 0.034924
vn -0.985718 0.164746 0.034924
vn 0.000000 1.000000 0.000000
vn 0.000000 1.000000 0.000000
vn 0.000000 1.000000 0.000000
vn 0.000000 1.000000 0.000000
vn 0.000000 1.000000 -0.000000
vn 0.000000 1.000000 -0.000000
vn 0.000000 1.000000 -0.000000
vn 0.000000 1.000000 -0.000000
vn 0.000000 1.000000 0.000000
vn 0.000000 1.000000 0.000000
vn 0.000000 1.000000 0.000000
vn 0.000000 1.000000 0.000000
vn 0.000000 1.000000 0.000000
vn 0.000000 1.000000 0.000000
vn 0.000000 1.000000 0.000000
vn 0.000000 1.000000 0.000000
vn -0.990633 0.136553 0.000000
vn -0.990633 0.136553 0.000000
vn -0.990633 0.136553 0.000000
vn -0.990633 0.136553 0.000000
vn 0.000000 0.307009 0.951707
vn 0.000000 0.307009 0.951707
vn 0.000000 0.307009 0.951707
vn 0.000000 0.307009 0.951707
vn 0.990628 0.136592 0.000000
vn 0.990627 0.136592 0.000000
vn 0.990627 0.136592 0.000000
vn 0.990628 0.136592 0.000000
vn 0.000000 0.307000 -0.951709
vn 0.000000 0.307000 -0.951709
vn 0.000000 0.307000 -0.951709
vn 0.000000 0.307000 -0.951709
s off
f 10/1/1 2/2/2 4/3/3
f 9/4/4 10/5/5 4/6/6 6/7/7
f 8/8/8 9/9/9 6/10/10
f 2/11/11 8/12/12 6/13/13 4/14/14
f 7/15/15 1/16/16 3/17/17 5/18/18
f 24/19/19 23/20/20 22/21/21 21/22/22
f 12/23/23 1/24/24 2/25/25 10/26/26
f 7/27/27 11/28/28 9/29/29 8/30/30
f 29/31/31 30/32/32 31/33/33 32/34/34
f 1/35/35 12/36/36 3/37/37
f 5/38/38 11/39/39 7/40/40
f 11/41/41 12/42/42 23/43/43 24/44/44
f 12/45/45 10/46/46 15/47/47 14/48/48
f 10/49/49 9/50/50 21/51/51 22/52/52
f 9/53/53 11/54/54 13/55/55 16/56/56
f 14/57/57 15/58/58 19/59/59 18/60/60
f 16/61/61 13/62/62 17/63/63 20/64/64
f 12/65/65 14/66/66 23/67/67
f 24/68/68 13/69/69 11/70/70
f 9/71/71 16/72/72 21/73/73
f 22/74/74 15/75/75 10/76/76
f 21/77/77 16/78/78 20/79/79
f 15/80/80 22/81/81 19/82/82
f 23/83/83 14/84/84 18/85/85
f 13/86/86 24/87/87 17/88/88
f 18/89/89 19/90/90 22/91/91 23/92/92
f 20/93/93 17/94/94 24/95/95 21/96/96
f 3/97/97 12/98/98 26/99/99 25/100/100
f 12/101/101 11/102/102 27/103/103 26/104/104
f 11/105/105 5/106/106 28/107/107 27/108/108
f 5/109/109 3/110/110 25/111/111 28/112/112
f 25/113/113 26/114/114 30/115/115 29/116/116
f 26/117/117 27/118/118 31/119/119 30/120/120
f 27/121/121 28/122/122 32/123/123 31/124/124
f 28/125/125 25/126/126 29/127/127 32/128/128
