# This file uses centimeters as units for non-parametric coordinates.

v -0.500000 -1.278469 -24.051929
v 0.500000 -1.278469 -24.051929
v -0.500000 0.396300 -24.024618
v 0.500000 0.396300 -24.024618
v -0.500000 1.786358 -24.869070
v 0.500000 1.786358 -24.869070
v -0.500000 -3.324649 -24.952417
v 0.500000 -3.324649 -24.952417
v -0.500000 -1.575425 -23.841484
v 0.500000 -1.575425 -23.841484
v -0.500000 -2.722283 -22.826509
v 0.500000 -2.722283 -22.826509
v -0.500000 -1.838190 -23.140337
v 0.500000 -1.838190 -23.140337
v -1.377468 -10.029989 -26.794533
v -1.377468 4.771975 -25.786991
v -1.377468 -2.668030 -25.908325
v -1.377468 2.319887 -25.826984
v -1.377468 -6.568409 -26.738083
v 0.000000 4.928999 -25.784443
v 0.000000 -10.265049 -26.032213
v 0.000000 4.756068 -24.767508
v 0.000000 -10.613321 -24.958336
v -1.377468 3.772033 -24.658621
v -1.377468 4.659742 -25.057066
v -1.377468 -2.686692 -24.763952
v -1.377468 -6.601961 -24.680674
v -1.377468 -10.390756 -24.954706
v 0.000000 -10.358571 -24.535866
v -1.377468 -10.136002 -24.532236
v 0.000000 -5.722687 -22.981827
v 0.000000 -7.561785 -24.181675
v -1.377468 -5.617581 -23.054640
v -1.022274 -2.314210 -13.648742
v -1.377468 -7.423166 -24.247538
v -1.339160 -3.555057 -20.475746
v 0.000000 -3.736332 -20.389593
v -1.022274 -3.147381 -12.675282
v 0.000000 -3.471464 -12.680568
v -0.990575 -1.506417 -12.695222
v 0.000000 -3.355935 -3.688139
v -0.990575 -3.030999 -3.735137
v -0.990575 2.583805 -3.718131
v -0.990575 -3.060778 2.831450
v -0.990575 2.607041 2.923878
v -0.990575 1.144574 -5.345343
v -0.990574 -1.007751 -5.380442
v -0.990575 -1.436164 -5.844017
v 1.377468 -10.042480 -26.028584
v 1.377468 4.771975 -25.786991
v 1.377468 -2.668030 -25.908325
v 1.377468 2.319887 -25.826984
v 1.377468 -6.580900 -25.972128
v 1.377468 3.772033 -24.658621
v 1.377468 4.659742 -25.057066
v 1.377468 -2.686692 -24.763952
v 1.377468 -6.601961 -24.680674
v 1.377468 -10.390756 -24.954706
v 1.377468 -10.136002 -24.532236
v 1.377468 -5.617581 -23.054640
v 1.022274 -2.314210 -13.648742
v 1.377468 -7.423166 -24.247538
v 1.339160 -3.555057 -20.475746
v 1.022274 -3.147381 -12.675282
v 0.990575 -1.506417 -12.695222
v 0.990575 -3.030999 -3.735137
v 0.990575 2.583805 -3.718131
v 0.990575 -3.060778 2.831450
v 0.990575 2.607041 2.923878
v 0.990575 1.144574 -5.345343
v 0.990574 -1.007751 -5.380442
v 0.990575 -1.436164 -5.844017
v -1.525885 1.469493 -27.269760
v -1.525885 2.561254 -25.990086
v -1.525885 5.129801 -25.948193
v -1.525885 5.403541 -27.364489
v -1.180028 5.114120 -27.774349
v -1.180028 1.328085 -27.677206
v -1.525885 -6.839990 -27.539341
v -1.525885 -2.627158 -27.292948
v -1.180028 -2.620553 -27.697977
v -1.180028 -6.685369 -27.941965
v -1.525885 -6.748819 -26.967646
v -1.525885 -2.663568 -26.075285
v -1.525885 -10.701218 -27.960020
v -1.180028 -10.358442 -28.474442
v -1.525885 -10.374809 -27.026777
v 0.000000 -2.620553 -27.697977
v 0.000000 -6.685369 -27.941965
v 0.000000 1.328085 -27.677206
v 0.000000 5.278599 -27.771667
v 0.000000 5.568023 -27.361813
v 0.000000 5.294284 -25.945515
v 0.000000 -10.934360 -27.963821
v 0.000000 -10.621410 -26.205057
v 0.000000 -10.591578 -28.478243
v 1.525885 1.469493 -27.269760
v 1.525885 5.403541 -27.364489
v 1.525885 5.129801 -25.948193
v 1.525885 2.561254 -25.990086
v 1.180027 1.328085 -27.677206
v 1.180027 5.114120 -27.774349
v 1.525885 -6.839990 -27.539341
v 1.180027 -6.685369 -27.941965
v 1.180027 -2.620553 -27.697977
v 1.525885 -2.627158 -27.292948
v 1.525885 -2.663568 -26.075285
v 1.525885 -6.762282 -26.142126
v 1.525885 -10.701218 -27.960020
v 1.180027 -10.358442 -28.474442
v 1.525885 -10.388270 -26.201256
vt 0.101355 0.229738
vt 0.101355 0.229738
vt 0.101355 0.229738
vt 0.101355 0.229738
vt 0.101355 0.229738
vt 0.101355 0.229738
vt 0.101355 0.229738
vt 0.101355 0.229738
vt 0.101355 0.229738
vt 0.101355 0.229738
vt 0.101355 0.229738
vt 0.101355 0.229738
vt 0.101355 0.229738
vt 0.101355 0.229738
vt 0.080347 0.252255
vt 0.080347 0.252255
vt 0.080347 0.252255
vt 0.080347 0.252255
vt 0.080347 0.252255
vt 0.080347 0.252255
vt 0.080347 0.252256
vt 0.080347 0.252256
vt 0.080347 0.252256
vt 0.080347 0.252256
vt 0.080347 0.252256
vt 0.080347 0.252256
vt 0.080347 0.252256
vt 0.080347 0.252256
vt 0.080347 0.252256
vt 0.080347 0.252256
vt 0.080347 0.252256
vt 0.080347 0.252255
vt 0.080347 0.252255
vt 0.080347 0.252255
vt 0.080347 0.252255
vt 0.091999 0.231280
vt 0.091999 0.231280
vt 0.091999 0.231280
vt 0.091999 0.231280
vt 0.080347 0.252256
vt 0.080347 0.252256
vt 0.080347 0.252256
vt 0.091999 0.231279
vt 0.091999 0.231279
vt 0.091999 0.231279
vt 0.091999 0.231279
vt 0.091999 0.231280
vt 0.091999 0.231279
vt 0.091999 0.231280
vt 0.091999 0.231280
vt 0.091999 0.231280
vt 0.091999 0.231280
vt 0.091999 0.231280
vt 0.091999 0.231280
vt 0.091999 0.231280
vt 0.091999 0.231280
vt 0.091999 0.231280
vt 0.091999 0.231280
vt 0.091999 0.231279
vt 0.091999 0.231280
vt 0.091999 0.231280
vt 0.091999 0.231280
vt 0.091999 0.231280
vt 0.091999 0.231280
vt 0.091999 0.231280
vt 0.091999 0.231280
vt 0.091999 0.231280
vt 0.091999 0.231280
vt 0.091999 0.231280
vt 0.091999 0.231279
vt 0.091999 0.231279
vt 0.091999 0.231279
vt 0.091999 0.231279
vt 0.091999 0.231280
vt 0.091999 0.231280
vt 0.091999 0.231280
vt 0.091999 0.231280
vt 0.091999 0.231280
vt 0.080347 0.252255
vt 0.080347 0.252255
vt 0.080347 0.252255
vt 0.080347 0.252255
vt 0.080347 0.252255
vt 0.080347 0.252255
vt 0.080347 0.252256
vt 0.080347 0.252256
vt 0.080347 0.252256
vt 0.080347 0.252256
vt 0.080347 0.252256
vt 0.080347 0.252256
vt 0.080347 0.252256
vt 0.080347 0.252256
vt 0.080347 0.252256
vt 0.091999 0.231280
vt 0.091999 0.231280
vt 0.091999 0.231280
vt 0.091999 0.231279
vt 0.091999 0.231279
vt 0.091999 0.231280
vt 0.091999 0.231280
vt 0.091999 0.231280
vt 0.091999 0.231280
vt 0.091999 0.231280
vt 0.091999 0.231280
vt 0.091999 0.231280
vt 0.091999 0.231280
vt 0.091999 0.231280
vt 0.091999 0.231280
vt 0.091999 0.231280
vt 0.091999 0.231280
vt 0.091999 0.231280
vt 0.091999 0.231280
vt 0.091999 0.231280
vt 0.080347 0.252255
vt 0.080347 0.252255
vt 0.080347 0.252256
vt 0.080347 0.252256
vt 0.080347 0.252256
vt 0.080347 0.252255
vt 0.080347 0.252256
vt 0.080347 0.252255
vt 0.080347 0.252255
vt 0.080347 0.252256
vt 0.080347 0.252256
vt 0.080347 0.252256
vn 0.000000 -0.016305 0.999867
vn 0.000000 -0.016305 0.999867
vn 0.000000 -0.016305 0.999867
vn 0.000000 -0.016305 0.999867
vn 0.000000 0.519197 0.854654
vn 0.000000 0.519197 0.854654
vn 0.000000 0.519197 0.854654
vn 0.000000 0.519197 0.854654
vn 0.000000 0.578203 0.815893
vn 0.000000 0.578203 0.815893
vn 0.000000 0.578203 0.815893
vn 0.000000 0.578203 0.815893
vn 1.000000 0.000000 0.000000
vn 1.000000 0.000000 0.000000
vn 1.000000 0.000000 0.000000
vn -1.000000 0.000000 0.000000
vn -1.000000 0.000000 0.000000
vn -1.000000 0.000000 0.000000
vn 0.000000 0.334521 0.942388
vn 0.000000 0.334521 0.942388
vn 0.000000 0.334521 0.942388
vn 0.000000 0.334521 0.942388
vn 0.000000 0.936402 0.350931
vn 0.000000 0.936402 0.350931
vn 0.000000 0.936402 0.350931
vn 0.000000 0.936402 0.350931
vn -1.000000 0.000000 0.000000
vn -1.000000 0.000000 0.000000
vn -1.000000 0.000000 0.000000
vn -1.000000 0.000000 0.000000
vn -1.000000 0.000000 0.000000
vn -1.000000 0.000000 0.000000
vn -1.000000 0.000000 0.000000
vn -1.000000 0.000000 0.000000
vn -1.000000 0.000000 0.000000
vn -1.000000 0.000000 0.000000
vn -1.000000 0.000000 0.000000
vn -1.000000 0.000000 0.000000
vn 1.000000 0.000000 0.000000
vn 1.000000 0.000000 0.000000
vn 1.000000 0.000000 0.000000
vn 1.000000 0.000000 0.000000
vn 1.000000 0.000000 0.000000
vn 1.000000 0.000000 0.000000
vn 1.000000 0.000000 0.000000
vn 1.000000 0.000000 0.000000
vn 1.000000 0.000000 0.000000
vn 1.000000 0.000000 0.000000
vn 1.000000 0.000000 0.000000
vn 1.000000 0.000000 0.000000
vn -1.000000 -0.000000 0.000000
vn -1.000000 -0.000000 0.000000
vn -1.000000 -0.000000 0.000000
vn -1.000000 -0.000000 0.000000
vn -0.767347 -0.015932 -0.641034
vn -0.767347 -0.015932 -0.641034
vn -0.767347 -0.015932 -0.641034
vn -0.767347 -0.015932 -0.641034
vn -0.762720 0.038246 -0.645597
vn -0.762720 0.038246 -0.645597
vn -0.762720 0.038246 -0.645597
vn -0.762720 0.038246 -0.645597
vn -1.000000 -0.000000 0.000000
vn -1.000000 -0.000000 0.000000
vn -1.000000 -0.000000 0.000000
vn -1.000000 -0.000000 0.000000
vn -0.761132 0.003544 -0.648588
vn -0.761132 0.003544 -0.648588
vn -0.761132 0.003544 -0.648588
vn -0.761132 0.003544 -0.648588
vn -1.000000 0.000000 0.000000
vn -1.000000 0.000000 0.000000
vn -1.000000 0.000000 0.000000
vn -1.000000 0.000000 0.000000
vn -0.814814 0.072760 -0.575139
vn -0.814814 0.072760 -0.575139
vn -0.814814 0.072760 -0.575139
vn -0.814814 0.072760 -0.575139
vn -1.000000 0.000000 0.000000
vn -1.000000 0.000000 0.000000
vn -1.000000 0.000000 0.000000
vn -1.000000 0.000000 0.000000
vn 0.000000 0.059917 -0.998203
vn 0.000000 0.059917 -0.998203
vn 0.000000 0.059917 -0.998203
vn 0.000000 0.059917 -0.998203
vn 0.000000 0.005260 -0.999986
vn 0.000000 0.005260 -0.999986
vn 0.000000 0.005260 -0.999986
vn 0.000000 0.005260 -0.999986
vn 0.002861 -0.024758 -0.999689
vn 0.002861 -0.024758 -0.999689
vn 0.002861 -0.024758 -0.999689
vn 0.002861 -0.024758 -0.999689
vn -0.095307 0.793754 -0.600726
vn -0.095307 0.793754 -0.600726
vn -0.095307 0.793754 -0.600726
vn -0.095307 0.793754 -0.600726
vn -0.105576 0.976342 0.188706
vn -0.105576 0.976342 0.188706
vn -0.105576 0.976342 0.188706
vn -0.105576 0.976342 0.188706
vn -0.090259 -0.546564 0.832539
vn -0.090259 -0.546564 0.832539
vn -0.090259 -0.546565 0.832539
vn -0.090259 -0.546565 0.832539
vn -0.210083 -0.951223 0.225918
vn -0.210083 -0.951223 0.225918
vn -0.210083 -0.951223 0.225918
vn -0.210083 -0.951223 0.225918
vn -0.139776 -0.801681 -0.581180
vn -0.139776 -0.801681 -0.581180
vn -0.139776 -0.801681 -0.581180
vn -0.139776 -0.801681 -0.581180
vn 0.012195 0.139618 -0.990130
vn 0.012195 0.139618 -0.990130
vn 0.012195 0.139618 -0.990130
vn 0.012195 0.139618 -0.990130
vn -0.107222 0.981247 0.160182
vn -0.107222 0.981247 0.160182
vn -0.107222 0.981247 0.160182
vn -0.107222 0.981247 0.160182
vn -1.000000 0.000000 0.000000
vn -1.000000 0.000000 0.000000
vn -1.000000 0.000000 0.000000
vn -1.000000 0.000000 0.000000
vn -1.000000 0.000000 0.000000
vn -1.000000 0.000000 0.000000
vn -1.000000 0.000000 0.000000
vn -1.000000 0.000000 0.000000
vn -1.000000 -0.000000 0.000000
vn -1.000000 -0.000000 0.000000
vn -1.000000 -0.000000 0.000000
vn -1.000000 -0.000000 0.000000
vn -0.095842 -0.967172 -0.235358
vn -0.095842 -0.967172 -0.235358
vn -0.095842 -0.967172 -0.235358
vn -0.095842 -0.967172 -0.235358
vn -1.000000 0.000000 0.000000
vn -1.000000 0.000000 0.000000
vn -1.000000 0.000000 0.000000
vn -1.000000 0.000000 0.000000
vn -0.135739 -0.848428 0.511609
vn -0.135739 -0.848428 0.511609
vn -0.135739 -0.848428 0.511609
vn -0.135739 -0.848428 0.511609
vn -1.000000 0.000000 0.000000
vn -1.000000 0.000000 0.000000
vn -1.000000 0.000000 0.000000
vn 0.000000 0.109982 0.993934
vn 0.000000 0.109982 0.993934
vn 0.000000 0.109982 0.993934
vn -0.215247 0.399890 0.890930
vn -0.215247 0.399890 0.890930
vn -0.215247 0.399890 0.890930
vn -1.000000 0.000000 0.000000
vn -1.000000 0.000000 0.000000
vn -1.000000 0.000000 0.000000
vn -0.037513 -0.115106 0.992645
vn -0.037513 -0.115106 0.992645
vn -0.037513 -0.115106 0.992645
vn -0.037513 -0.115106 0.992645
vn -1.000000 -0.000000 0.000000
vn -1.000000 -0.000000 0.000000
vn -1.000000 -0.000000 0.000000
vn -1.000000 0.000000 0.000000
vn -1.000000 0.000000 0.000000
vn -1.000000 0.000000 0.000000
vn -0.999931 0.005907 0.010129
vn -0.999931 0.005907 0.010129
vn -0.999931 0.005907 0.010129
vn -0.118227 -0.781416 0.612708
vn -0.118227 -0.781416 0.612708
vn -0.118227 -0.781416 0.612708
vn -0.118227 -0.781416 0.612708
vn -0.996495 0.077204 0.032221
vn -0.996495 0.077204 0.032221
vn -0.996495 0.077204 0.032222
vn -0.996495 0.077204 0.032221
vn -0.210566 -0.976466 0.046645
vn -0.210566 -0.976466 0.046645
vn -0.210566 -0.976466 0.046645
vn -0.210566 -0.976466 0.046645
vn -0.999670 0.019514 0.016702
vn -0.999670 0.019514 0.016702
vn -0.999670 0.019514 0.016702
vn -0.307096 -0.951592 0.012849
vn -0.307096 -0.951592 0.012849
vn -0.307096 -0.951592 0.012849
vn -0.307096 -0.951592 0.012849
vn 0.311500 -0.950236 -0.004309
vn 0.311500 -0.950236 -0.004309
vn 0.311500 -0.950236 -0.004309
vn 0.000000 0.999994 -0.003498
vn 0.000000 0.999994 -0.003498
vn 0.000000 0.999994 -0.003498
vn 0.000000 0.999994 -0.003498
vn -1.000000 0.000000 0.000000
vn -1.000000 0.000000 0.000000
vn -1.000000 0.000000 0.000000
vn -1.000000 0.000000 0.000000
vn -1.000000 0.000002 0.000001
vn -1.000000 0.000002 0.000001
vn -1.000000 0.000002 0.000001
vn -0.999937 0.011031 0.001877
vn -0.999937 0.011031 0.001877
vn -0.999937 0.011031 0.001877
vn -0.999937 0.011031 0.001877
vn -1.000000 -0.000000 -0.000000
vn -1.000000 -0.000000 -0.000000
vn -1.000000 -0.000000 -0.000000
vn -1.000000 -0.000000 -0.000000
vn 1.000000 0.000000 0.000000
vn 1.000000 0.000000 0.000000
vn 1.000000 0.000000 0.000000
vn 1.000000 0.000000 0.000000
vn 0.767346 -0.015932 -0.641035
vn 0.767346 -0.015932 -0.641035
vn 0.767347 -0.015932 -0.641035
vn 0.767347 -0.015932 -0.641035
vn 0.762719 0.038246 -0.645598
vn 0.762719 0.038246 -0.645598
vn 0.762719 0.038246 -0.645598
vn 0.762719 0.038246 -0.645598
vn 1.000000 0.000000 0.000000
vn 1.000000 0.000000 0.000000
vn 1.000000 0.000000 0.000000
vn 1.000000 0.000000 0.000000
vn 0.761131 0.003544 -0.648588
vn 0.761131 0.003544 -0.648588
vn 0.761131 0.003544 -0.648588
vn 0.761131 0.003544 -0.648588
vn 1.000000 0.000000 0.000000
vn 1.000000 0.000000 0.000000
vn 1.000000 0.000000 0.000000
vn 1.000000 0.000000 0.000000
vn 0.814814 0.072760 -0.575139
vn 0.814814 0.072760 -0.575139
vn 0.814813 0.072760 -0.575139
vn 0.814813 0.072760 -0.575139
vn 1.000000 0.000000 0.000000
vn 1.000000 0.000000 0.000000
vn 1.000000 0.000000 0.000000
vn 1.000000 0.000000 0.000000
vn 0.000000 0.059917 -0.998203
vn 0.000000 0.059917 -0.998203
vn 0.000000 0.059917 -0.998203
vn 0.000000 0.059917 -0.998203
vn 0.000000 0.005260 -0.999986
vn 0.000000 0.005260 -0.999986
vn 0.000000 0.005260 -0.999986
vn 0.000000 0.005260 -0.999986
vn -0.002860 -0.024758 -0.999689
vn -0.002860 -0.024758 -0.999689
vn -0.002860 -0.024758 -0.999689
vn -0.002860 -0.024758 -0.999689
vn 0.095308 0.793754 -0.600726
vn 0.095308 0.793754 -0.600726
vn 0.095308 0.793754 -0.600726
vn 0.095308 0.793754 -0.600726
vn 0.105576 0.976342 0.188706
vn 0.105576 0.976342 0.188706
vn 0.105576 0.976342 0.188706
vn 0.105576 0.976342 0.188706
vn 0.000000 -0.016306 0.999867
vn 0.000000 -0.016306 0.999867
vn 0.000000 -0.016306 0.999867
vn 0.000000 -0.016306 0.999867
vn 0.090260 -0.546564 0.832539
vn 0.090260 -0.546564 0.832539
vn 0.090260 -0.546564 0.832539
vn 0.090260 -0.546564 0.832539
vn 0.148332 -0.973644 0.173247
vn 0.148332 -0.973644 0.173247
vn 0.148332 -0.973644 0.173247
vn 0.148332 -0.973644 0.173247
vn 0.139776 -0.801681 -0.581179
vn 0.139776 -0.801681 -0.581179
vn 0.139776 -0.801681 -0.581179
vn 0.139776 -0.801681 -0.581179
vn -0.012195 0.139618 -0.990130
vn -0.012195 0.139618 -0.990130
vn -0.012195 0.139618 -0.990130
vn -0.012195 0.139618 -0.990130
vn 0.107222 0.981247 0.160182
vn 0.107222 0.981247 0.160182
vn 0.107222 0.981247 0.160182
vn 0.107222 0.981247 0.160182
vn 1.000000 0.000000 0.000000
vn 1.000000 0.000000 0.000000
vn 1.000000 0.000000 0.000000
vn 1.000000 0.000000 0.000000
vn 1.000000 0.000000 0.000000
vn 1.000000 0.000000 0.000000
vn 1.000000 0.000000 0.000000
vn 1.000000 0.000000 0.000000
vn 1.000000 -0.000000 0.000000
vn 1.000000 -0.000000 0.000000
vn 1.000000 -0.000000 0.000000
vn 1.000000 -0.000000 0.000000
vn 0.152697 -0.940071 -0.304879
vn 0.152697 -0.940071 -0.304879
vn 0.152697 -0.940071 -0.304879
vn 0.152697 -0.940071 -0.304879
vn 1.000000 0.000000 0.000000
vn 1.000000 0.000000 0.000000
vn 1.000000 0.000000 0.000000
vn 1.000000 0.000000 0.000000
vn 0.135739 -0.848428 0.511609
vn 0.135739 -0.848428 0.511609
vn 0.135739 -0.848428 0.511609
vn 0.135739 -0.848428 0.511609
vn 1.000000 0.000000 0.000000
vn 1.000000 0.000000 0.000000
vn 1.000000 0.000000 0.000000
vn 0.215248 0.399890 0.890930
vn 0.215248 0.399890 0.890930
vn 0.215248 0.399890 0.890930
vn 0.000000 0.999439 -0.033492
vn 0.000000 0.999439 -0.033492
vn 0.000000 0.999439 -0.033492
vn 0.000000 0.999439 -0.033492
vn 1.000000 -0.000000 0.000000
vn 1.000000 -0.000000 0.000000
vn 1.000000 -0.000000 0.000000
vn 0.037514 -0.115106 0.992645
vn 0.037514 -0.115106 0.992645
vn 0.037514 -0.115106 0.992645
vn 0.037514 -0.115106 0.992645
vn 1.000000 -0.000000 0.000000
vn 1.000000 -0.000000 0.000000
vn 1.000000 -0.000000 0.000000
vn 1.000000 0.000000 0.000000
vn 1.000000 0.000000 0.000000
vn 1.000000 0.000000 0.000000
vn 0.999931 0.005907 0.010129
vn 0.999931 0.005907 0.010129
vn 0.999931 0.005907 0.010129
vn 0.118228 -0.781416 0.612708
vn 0.118228 -0.781416 0.612708
vn 0.118228 -0.781416 0.612708
vn 0.118228 -0.781416 0.612708
vn 0.996495 0.077204 0.032221
vn 0.996495 0.077204 0.032221
vn 0.996495 0.077204 0.032222
vn 0.996495 0.077204 0.032221
vn 0.210566 -0.976466 0.046645
vn 0.210566 -0.976466 0.046645
vn 0.210566 -0.976466 0.046645
vn 0.210566 -0.976466 0.046645
vn 0.000000 0.763004 -0.646394
vn 0.000000 0.763004 -0.646394
vn 0.000000 0.763004 -0.646394
vn 0.000000 0.763004 -0.646394
vn 0.999670 0.019514 0.016702
vn 0.999670 0.019514 0.016702
vn 0.999670 0.019514 0.016702
vn 0.307096 -0.951592 0.012849
vn 0.307096 -0.951592 0.012849
vn 0.307096 -0.951592 0.012849
vn 0.307096 -0.951592 0.012849
vn 1.000000 0.000000 0.000000
vn 1.000000 0.000000 0.000000
vn 1.000000 0.000000 0.000000
vn 1.000000 0.000000 0.000000
vn 1.000000 0.000002 0.000001
vn 1.000000 0.000002 0.000001
vn 1.000000 0.000002 0.000001
vn 0.999937 0.011031 0.001877
vn 0.999937 0.011031 0.001877
vn 0.999937 0.011031 0.001877
vn 0.999937 0.011031 0.001877
vn 1.000000 -0.000000 -0.000000
vn 1.000000 -0.000000 -0.000000
vn 1.000000 -0.000000 -0.000000
vn 1.000000 -0.000000 -0.000000
vn 0.000000 0.016305 -0.999867
vn 0.000000 0.016305 -0.999867
vn 0.000000 0.016305 -0.999867
vn 0.000000 0.016305 -0.999867
vn 0.000000 0.999947 -0.010254
vn 0.000000 0.999947 -0.010254
vn 0.000000 0.999947 -0.010254
vn 0.000000 0.999947 -0.010254
vn 0.000000 0.734410 -0.678706
vn 0.000000 0.734410 -0.678706
vn 0.000000 0.734410 -0.678706
vn 0.000000 0.734410 -0.678706
vn 0.000000 -0.016305 0.999867
vn 0.000000 -0.016305 0.999867
vn 0.000000 -0.016305 0.999867
vn 0.000000 -0.016305 0.999867
vn 0.000000 0.749048 -0.662516
vn 0.000000 0.749048 -0.662516
vn 0.000000 0.749048 -0.662516
vn 0.000000 0.749048 -0.662516
vn -0.311500 -0.950236 -0.004309
vn -0.311500 -0.950236 -0.004309
vn -0.311500 -0.950236 -0.004309
vn 0.000000 -0.998977 0.045226
vn 0.000000 -0.998977 0.045226
vn 0.000000 -0.998977 0.045226
vn -0.747496 -0.010833 0.664179
vn -0.747496 -0.010833 0.664179
vn -0.747495 -0.010833 0.664179
vn -0.747496 -0.010833 0.664179
vn -0.763129 -0.136233 0.631724
vn -0.763129 -0.136233 0.631724
vn -0.763129 -0.136233 0.631724
vn -0.763129 -0.136233 0.631724
vn -0.747494 -0.010831 0.664181
vn -0.747494 -0.010831 0.664180
vn -0.747494 -0.010831 0.664181
vn -0.747494 -0.010831 0.664180
vn -0.836526 -0.008934 0.547855
vn -0.836526 -0.008934 0.547855
vn -0.836526 -0.008934 0.547855
vn -0.836526 -0.008934 0.547855
vn -0.045807 0.398791 0.915897
vn -0.045807 0.398791 0.915897
vn -0.045807 0.398791 0.915897
vn -0.045807 0.398791 0.915897
vn -0.492455 -0.354880 0.794700
vn -0.492455 -0.354880 0.794700
vn -0.492455 -0.354880 0.794700
vn -0.492455 -0.354880 0.794700
vn 0.747496 -0.010833 0.664179
vn 0.747496 -0.010833 0.664179
vn 0.747496 -0.010833 0.664179
vn 0.747495 -0.010833 0.664179
vn 0.747494 -0.010831 0.664180
vn 0.747494 -0.010831 0.664180
vn 0.747494 -0.010831 0.664180
vn 0.747494 -0.010831 0.664180
vn 0.747491 -0.010831 0.664183
vn 0.747491 -0.010831 0.664183
vn 0.747491 -0.010831 0.664183
vn 0.747491 -0.010831 0.664183
vn 0.747505 -0.010831 0.664168
vn 0.747505 -0.010831 0.664168
vn 0.747505 -0.010831 0.664168
vn 0.747505 -0.010831 0.664168
vn 0.045807 0.398791 0.915897
vn 0.045807 0.398791 0.915897
vn 0.045807 0.398791 0.915897
vn 0.045807 0.398791 0.915897
vn 0.065101 -0.429472 0.900731
vn 0.065101 -0.429472 0.900731
vn 0.065101 -0.429472 0.900731
vn 0.065101 -0.429472 0.900731
s off
f 1/1/1 2/2/2 4/3/3 3/4/4
f 3/4/5 4/3/6 6/5/7 5/6/8
f 9/7/9 10/8/10 2/2/11 1/1/12
f 4/3/13 8/9/14 6/5/15
f 7/10/16 9/7/17 1/1/18
f 11/11/19 12/12/20 14/13/21 13/14/22
f 13/14/23 14/13/24 10/8/25 9/7/26
f 7/10/27 11/11/28 13/14/29
f 7/10/30 13/14/31 9/7/32
f 7/10/33 1/1/34 3/4/35
f 7/10/36 3/4/37 5/6/38
f 8/9/39 14/13/40 12/12/41
f 8/9/42 10/8/43 14/13/44
f 2/2/45 10/8/46 8/9/47
f 2/2/48 8/9/49 4/3/50
f 73/15/51 74/16/52 75/17/53 76/18/54
f 73/15/55 76/18/56 77/19/57 78/20/58
f 79/21/59 80/22/60 81/23/61 82/24/62
f 79/21/63 83/25/64 84/26/65 80/22/66
f 80/22/67 73/15/68 78/20/69 81/23/70
f 80/22/71 84/26/72 74/16/73 73/15/74
f 85/27/75 79/21/76 82/24/77 86/28/78
f 85/27/79 87/29/80 83/25/81 79/21/82
f 81/23/83 88/30/84 89/31/85 82/24/86
f 78/20/87 90/32/88 88/30/89 81/23/90
f 77/19/91 91/33/92 90/32/93 78/20/94
f 76/18/95 92/34/96 91/33/97 77/19/98
f 75/17/99 93/35/100 92/34/101 76/18/102
f 35/36/103 32/37/104 31/38/105 33/39/106
f 85/27/107 94/40/108 95/41/109 87/29/110
f 96/42/111 94/40/112 85/27/113 86/28/114
f 82/24/115 89/31/116 96/42/117 86/28/118
f 20/43/119 16/44/120 25/45/121 22/46/122
f 16/44/123 18/47/124 24/48/125 25/45/126
f 18/47/127 17/49/128 26/50/129 24/48/130
f 17/49/131 19/51/132 27/52/133 26/50/134
f 15/53/135 21/54/136 23/55/137 28/56/138
f 19/51/139 15/53/140 28/56/141 27/52/142
f 28/56/143 23/55/144 29/57/145 30/58/146
f 27/52/147 28/56/148 30/58/149
f 22/46/150 24/48/151 54/59/152
f 25/45/153 24/48/154 22/46/155
f 26/50/156 27/52/157 33/39/158
f 30/58/159 29/57/160 32/37/161 35/36/162
f 27/52/163 30/58/164 35/36/165
f 27/52/166 35/36/167 33/39/168
f 26/50/169 33/39/170 36/60/171
f 33/39/172 31/38/173 37/61/174 36/60/175
f 26/50/176 36/60/177 38/62/178 34/63/179
f 36/60/180 37/61/181 39/64/182 38/62/183
f 34/63/184 38/62/185 40/65/186
f 41/66/187 42/67/188 38/62/189 39/64/190
f 68/68/191 41/66/192 66/69/193
f 43/70/194 45/71/195 69/72/196 67/73/197
f 43/70/198 42/67/199 44/74/200 45/71/201
f 42/67/202 47/75/203 48/76/204
f 40/77/205 38/62/206 42/67/207 48/76/208
f 43/70/209 46/78/210 47/75/211 42/67/212
f 97/79/213 98/80/214 99/81/215 100/82/216
f 97/79/217 101/83/218 102/84/219 98/80/220
f 103/85/221 104/86/222 105/87/223 106/88/224
f 103/85/225 106/88/226 107/89/227 108/90/228
f 106/88/229 105/87/230 101/83/231 97/79/232
f 106/88/233 97/79/234 100/82/235 107/89/236
f 109/91/237 110/92/238 104/86/239 103/85/240
f 109/91/241 103/85/242 108/90/243 111/93/244
f 105/87/245 104/86/246 89/31/247 88/30/248
f 101/83/249 105/87/250 88/30/251 90/32/252
f 102/84/253 101/83/254 90/32/255 91/33/256
f 98/80/257 102/84/258 91/33/259 92/34/260
f 99/81/261 98/80/262 92/34/263 93/35/264
f 26/50/265 56/94/266 54/59/267 24/48/268
f 62/95/269 60/96/270 31/38/271 32/37/272
f 109/91/273 111/93/274 95/41/275 94/40/276
f 96/42/277 110/92/278 109/91/279 94/40/280
f 104/86/281 110/92/282 96/42/283 89/31/284
f 20/43/285 22/46/286 55/97/287 50/98/288
f 50/98/289 55/97/290 54/59/291 52/99/292
f 52/99/293 54/59/294 56/94/295 51/100/296
f 51/100/297 56/94/298 57/101/299 53/102/300
f 49/103/301 58/104/302 23/55/303 21/54/304
f 53/102/305 57/101/306 58/104/307 49/103/308
f 58/104/309 59/105/310 29/57/311 23/55/312
f 57/101/313 59/105/314 58/104/315
f 55/97/316 22/46/317 54/59/318
f 34/63/319 61/106/320 56/94/321 26/50/322
f 56/94/323 60/96/324 57/101/325
f 59/105/326 62/95/327 32/37/328 29/57/329
f 57/101/330 62/95/331 59/105/332
f 57/101/333 60/96/334 62/95/335
f 56/94/336 63/107/337 60/96/338
f 60/96/339 63/107/340 37/61/341 31/38/342
f 56/94/343 61/106/344 64/108/345 63/107/346
f 63/107/347 64/108/348 39/64/349 37/61/350
f 40/65/351 65/109/352 61/106/353 34/63/354
f 61/106/355 65/109/356 64/108/357
f 41/66/358 39/64/359 64/108/360 66/69/361
f 67/73/362 69/72/363 68/68/364 66/69/365
f 66/69/366 72/110/367 71/111/368
f 64/108/369 65/112/370 72/110/371 66/69/372
f 67/73/373 66/69/374 71/111/375 70/113/376
f 46/78/377 70/113/378 71/111/379 47/75/380
f 40/77/381 48/76/382 72/110/383 65/112/384
f 47/75/385 71/111/386 72/110/387 48/76/388
f 69/72/389 45/71/390 44/74/391 68/68/392
f 43/70/393 67/73/394 70/113/395 46/78/396
f 44/74/397 42/67/398 41/66/399
f 44/74/400 41/66/401 68/68/402
f 18/114/403 16/115/404 75/17/405 74/16/406
f 19/116/407 17/117/408 84/26/409 83/25/410
f 17/117/411 18/114/412 74/16/413 84/26/414
f 15/118/415 19/116/416 83/25/417 87/29/418
f 16/115/419 20/119/420 93/35/421 75/17/422
f 21/120/423 15/118/424 87/29/425 95/41/426
f 50/121/427 52/122/428 100/82/429 99/81/430
f 51/123/431 53/124/432 108/90/433 107/89/434
f 52/122/435 51/123/436 107/89/437 100/82/438
f 53/124/439 49/125/440 111/93/441 108/90/442
f 20/119/443 50/121/444 99/81/445 93/35/446
f 49/125/447 21/120/448 95/41/449 111/93/450
