# This file uses centimeters as units for non-parametric coordinates.

v -1.257165 -4.363237 0.119461
v -1.257165 -3.499681 0.605133
v -1.257165 -3.488504 1.595825
v -1.257165 -4.340883 2.100845
v -1.257165 -5.204432 1.615181
v -1.257165 -5.215609 0.624489
v 1.257165 -4.363237 0.119461
v 1.257165 -3.499681 0.605133
v 1.257165 -3.488504 1.595825
v 1.257165 -4.340883 2.100845
v 1.257165 -5.204432 1.615181
v 1.257165 -5.215609 0.624489
v -1.498675 -4.352060 1.110153
v 1.498675 -4.352060 1.110153
v -1.257165 -10.049250 -3.021378
v -1.257165 -9.065592 -3.139725
v -1.257165 -8.471270 -2.347023
v -1.257165 -8.860605 -1.435974
v -1.257165 -9.844271 -1.317627
v -1.257165 -10.438593 -2.110329
v 1.257165 -10.049250 -3.021378
v 1.257165 -9.065592 -3.139725
v 1.257165 -8.471270 -2.347023
v 1.257165 -8.860605 -1.435974
v 1.257165 -9.844271 -1.317627
v 1.257165 -10.438593 -2.110329
v -1.498675 -9.454927 -2.228676
v 1.498675 -9.454927 -2.228676
v 0.946045 -12.278645 -0.932594
v 0.946045 -10.771076 -4.232399
v 0.946045 -2.811481 -1.644699
v 0.946045 -4.489948 -1.465790
v 0.946045 -6.983845 1.589020
v 0.946045 -8.732502 -4.397003
v 0.946045 -10.252277 -0.445358
v 0.946045 -9.486286 0.847343
v 0.946045 -11.994831 -2.873222
v 0.946045 -3.587772 4.307892
v 0.946045 -1.330854 5.304802
v 0.946045 -2.811481 -4.247093
v 0.946045 -1.330854 -7.484806
v 0.946045 -5.124943 4.179871
v 0.946045 -3.046467 5.304802
v -1.202393 -12.278645 -0.932594
v -1.202393 -11.994831 -2.873222
v -1.202393 -10.252277 -0.445358
v -1.202393 -10.771076 -4.232399
v -1.202393 -8.732502 -4.397003
v -1.202393 -4.489948 -1.465790
v -1.202393 -2.811481 -1.644699
v -1.202393 -6.983845 1.589020
v -1.202393 -9.486286 0.847343
v -1.202393 -2.811481 -4.247093
v -1.202393 -1.330854 5.304802
v -1.202393 -1.330854 -7.484806
v -1.202393 -5.124943 4.179871
v -1.202393 -3.587772 4.307892
v -1.202393 -3.046467 5.304802
v -0.128174 -6.623127 3.659248
v -0.128174 -7.441608 1.933624
v -0.128174 -9.947102 1.191940
v -0.128174 -10.465900 -0.149910
v -0.128174 -12.852375 -0.520592
v -0.128174 -12.486164 -3.042839
v -0.128174 -10.893147 -4.809372
v -0.128174 -8.244221 -5.023293
v -0.128174 -4.489948 -1.951492
v -0.128174 -2.811481 -2.130455
v 0.946045 -3.535282 -8.300484
v 0.946045 -1.675836 -8.277878
v -1.202393 -3.535282 -8.300484
v -1.202393 -1.675836 -8.277878
v 0.946045 -4.061329 -6.397141
v -1.202393 -4.061329 -6.397141
v 0.946045 -4.061329 -7.854996
v -1.202393 -4.061329 -7.854996
v -0.491440 -1.330854 -1.328548
v 0.235092 -1.330854 -1.328548
v -0.491440 -1.330854 1.248024
v 0.235092 -1.330854 1.248024
v -0.491440 1.444933 -1.328548
v 0.235092 1.444933 -1.328548
v -0.491440 1.444933 1.248024
v 0.235092 1.444933 1.248024
vt 0.087022 0.231422
vt 0.087022 0.231422
vt 0.087022 0.231422
vt 0.087022 0.231422
vt 0.087022 0.231422
vt 0.087022 0.231422
vt 0.087022 0.231422
vt 0.087022 0.231422
vt 0.087022 0.231422
vt 0.087022 0.231422
vt 0.087022 0.231422
vt 0.087022 0.231422
vt 0.087022 0.231422
vt 0.087022 0.231422
vt 0.087022 0.231422
vt 0.087022 0.231422
vt 0.087022 0.231422
vt 0.087022 0.231422
vt 0.087022 0.231422
vt 0.087022 0.231422
vt 0.087022 0.231422
vt 0.087022 0.231422
vt 0.087022 0.231422
vt 0.087022 0.231422
vt 0.087022 0.231422
vt 0.087022 0.231422
vt 0.087022 0.231422
vt 0.087022 0.231422
vt 0.087022 0.231422
vt 0.087022 0.231422
vt 0.087022 0.231422
vt 0.087022 0.231422
vt 0.087022 0.231422
vt 0.087022 0.231422
vt 0.087022 0.231422
vt 0.087022 0.231422
vt 0.087022 0.231422
vt 0.087022 0.231422
vt 0.087022 0.231422
vt 0.087022 0.231422
vt 0.087022 0.231422
vt 0.087022 0.231422
vt 0.087022 0.231422
vt 0.087022 0.231422
vt 0.087022 0.231422
vt 0.087022 0.231422
vt 0.087022 0.231422
vt 0.087022 0.231422
vt 0.087022 0.231422
vt 0.087022 0.231422
vt 0.087022 0.231422
vt 0.087022 0.231422
vt 0.087022 0.231422
vt 0.087022 0.231422
vt 0.087022 0.231422
vt 0.087022 0.231422
vt 0.487413 0.154515
vt 0.487413 0.154515
vt 0.487413 0.154515
vt 0.487413 0.154515
vt 0.487413 0.154515
vt 0.487413 0.154515
vt 0.487413 0.154515
vt 0.487413 0.154515
vt 0.487413 0.154515
vt 0.487413 0.154515
vt 0.487413 0.154515
vt 0.487413 0.154515
vt 0.487413 0.154515
vt 0.487413 0.154515
vt 0.487413 0.154515
vt 0.487413 0.154515
vt 0.487413 0.154515
vt 0.487413 0.154515
vt 0.487413 0.154515
vt 0.487413 0.154515
vt 0.487413 0.154515
vt 0.487413 0.154515
vt 0.487413 0.154515
vt 0.487413 0.154515
vt 0.487413 0.154515
vt 0.487413 0.154515
vt 0.487413 0.154515
vt 0.487413 0.154515
vt 0.487413 0.154515
vt 0.487413 0.154515
vt 0.487413 0.154515
vt 0.487413 0.154515
vt 0.487413 0.154515
vt 0.487413 0.154515
vt 0.487413 0.154515
vt 0.487413 0.154515
vt 0.487413 0.154515
vt 0.487413 0.154515
vt 0.487413 0.154515
vt 0.487413 0.154515
vt 0.487413 0.154515
vt 0.487413 0.154515
vt 0.487413 0.154515
vt 0.487413 0.154515
vt 0.487413 0.154515
vt 0.487413 0.154515
vt 0.487413 0.154515
vt 0.487413 0.154515
vt 0.487413 0.154515
vt 0.487413 0.154515
vt 0.487413 0.154515
vt 0.487413 0.154515
vt 0.487413 0.154515
vt 0.487413 0.154515
vt 0.487413 0.154515
vt 0.487413 0.154515
vt 0.487413 0.154515
vt 0.487413 0.154515
vt 0.487413 0.154515
vt 0.487413 0.154515
vt 0.487413 0.154515
vt 0.090019 0.248871
vt 0.090019 0.248871
vt 0.090019 0.248871
vt 0.090019 0.248871
vt 0.487413 0.154515
vt 0.487413 0.154515
vt 0.487413 0.154515
vt 0.487413 0.154515
vt 0.487413 0.154515
vt 0.487413 0.154515
vt 0.487413 0.154515
vt 0.487413 0.154515
vt 0.487413 0.154515
vt 0.487413 0.154515
vt 0.090019 0.248871
vt 0.090019 0.248871
vt 0.090019 0.248871
vt 0.090019 0.248871
vn 0.000000 0.490201 -0.871609
vn 0.000000 0.490201 -0.871609
vn 0.000000 0.490201 -0.871609
vn 0.000000 0.490201 -0.871609
vn 0.000000 0.999936 -0.011281
vn 0.000000 0.999936 -0.011281
vn 0.000000 0.999936 -0.011281
vn 0.000000 0.999936 -0.011281
vn 0.000000 0.509733 0.860333
vn 0.000000 0.509733 0.860333
vn 0.000000 0.509733 0.860333
vn 0.000000 0.509733 0.860333
vn 0.000000 -0.490199 0.871611
vn 0.000000 -0.490199 0.871611
vn 0.000000 -0.490199 0.871611
vn 0.000000 -0.490199 0.871611
vn 0.000000 -0.999936 0.011281
vn 0.000000 -0.999936 0.011281
vn 0.000000 -0.999936 0.011281
vn 0.000000 -0.999936 0.011281
vn 0.000000 -0.509742 -0.860327
vn 0.000000 -0.509742 -0.860327
vn 0.000000 -0.509742 -0.860327
vn 0.000000 -0.509742 -0.860327
vn -0.962595 0.132818 -0.236159
vn -0.962595 0.132818 -0.236159
vn -0.962595 0.132818 -0.236159
vn -0.962595 0.270927 -0.003057
vn -0.962595 0.270927 -0.003057
vn -0.962595 0.270927 -0.003057
vn -0.962595 0.138109 0.233102
vn -0.962595 0.138109 0.233102
vn -0.962595 0.138109 0.233102
vn -0.962595 -0.132817 0.236159
vn -0.962595 -0.132817 0.236159
vn -0.962595 -0.132817 0.236159
vn -0.962594 -0.270929 0.003057
vn -0.962594 -0.270929 0.003057
vn -0.962594 -0.270929 0.003057
vn -0.962595 -0.138112 -0.233102
vn -0.962595 -0.138112 -0.233102
vn -0.962595 -0.138112 -0.233102
vn 0.962595 0.132818 -0.236159
vn 0.962595 0.132818 -0.236159
vn 0.962595 0.132818 -0.236159
vn 0.962595 0.270927 -0.003057
vn 0.962595 0.270927 -0.003057
vn 0.962595 0.270927 -0.003057
vn 0.962595 0.138109 0.233102
vn 0.962595 0.138109 0.233102
vn 0.962595 0.138109 0.233102
vn 0.962595 -0.132817 0.236159
vn 0.962595 -0.132817 0.236159
vn 0.962595 -0.132817 0.236159
vn 0.962594 -0.270930 0.003057
vn 0.962594 -0.270930 0.003057
vn 0.962594 -0.270930 0.003057
vn 0.962595 -0.138113 -0.233102
vn 0.962595 -0.138113 -0.233102
vn 0.962595 -0.138113 -0.233102
vn 0.000000 -0.119452 -0.992840
vn 0.000000 -0.119452 -0.992840
vn 0.000000 -0.119452 -0.992840
vn 0.000000 -0.119452 -0.992840
vn 0.000000 0.800099 -0.599868
vn 0.000000 0.800099 -0.599868
vn 0.000000 0.800099 -0.599868
vn 0.000000 0.800099 -0.599868
vn 0.000000 0.919552 0.392969
vn 0.000000 0.919552 0.392969
vn 0.000000 0.919552 0.392969
vn 0.000000 0.919552 0.392969
vn 0.000000 0.119451 0.992840
vn 0.000000 0.119451 0.992840
vn 0.000000 0.119451 0.992840
vn 0.000000 0.119451 0.992840
vn 0.000000 -0.800099 0.599868
vn 0.000000 -0.800099 0.599868
vn 0.000000 -0.800099 0.599868
vn 0.000000 -0.800099 0.599868
vn 0.000000 -0.919549 -0.392976
vn 0.000000 -0.919549 -0.392976
vn 0.000000 -0.919549 -0.392976
vn 0.000000 -0.919549 -0.392976
vn -0.962595 -0.032365 -0.269006
vn -0.962595 -0.032365 -0.269006
vn -0.962595 -0.032365 -0.269006
vn -0.962595 0.216784 -0.162532
vn -0.962595 0.216784 -0.162532
vn -0.962594 0.216784 -0.162532
vn -0.962595 0.249149 0.106473
vn -0.962595 0.249149 0.106473
vn -0.962595 0.249149 0.106473
vn -0.962595 0.032365 0.269006
vn -0.962595 0.032365 0.269006
vn -0.962595 0.032365 0.269006
vn -0.962595 -0.216782 0.162531
vn -0.962595 -0.216782 0.162531
vn -0.962595 -0.216782 0.162531
vn -0.962595 -0.249147 -0.106475
vn -0.962595 -0.249147 -0.106475
vn -0.962595 -0.249147 -0.106475
vn 0.962595 -0.032365 -0.269006
vn 0.962595 -0.032365 -0.269006
vn 0.962595 -0.032365 -0.269006
vn 0.962594 0.216784 -0.162532
vn 0.962595 0.216784 -0.162532
vn 0.962594 0.216784 -0.162532
vn 0.962595 0.249149 0.106473
vn 0.962595 0.249149 0.106473
vn 0.962595 0.249149 0.106473
vn 0.962595 0.032365 0.269006
vn 0.962595 0.032365 0.269006
vn 0.962595 0.032365 0.269006
vn 0.962595 -0.216782 0.162531
vn 0.962595 -0.216782 0.162531
vn 0.962595 -0.216782 0.162531
vn 0.962595 -0.249147 -0.106475
vn 0.962595 -0.249147 -0.106475
vn 0.962595 -0.249147 -0.106475
vn 1.000000 0.000000 0.000000
vn 1.000000 0.000000 0.000000
vn 1.000000 0.000000 0.000000
vn 1.000000 0.000000 0.000000
vn 1.000000 0.000000 0.000000
vn 1.000000 0.000000 0.000000
vn 1.000000 0.000000 0.000000
vn 1.000000 0.000000 0.000000
vn 1.000000 0.000000 0.000000
vn 1.000000 -0.000000 0.000000
vn 1.000000 -0.000000 0.000000
vn 1.000000 -0.000000 0.000000
vn 1.000000 0.000000 0.000000
vn 1.000000 0.000000 0.000000
vn 1.000000 0.000000 0.000000
vn 1.000000 0.000000 0.000000
vn 1.000000 0.000000 0.000000
vn 1.000000 0.000000 0.000000
vn 1.000000 0.000000 0.000000
vn 1.000000 0.000000 0.000000
vn 1.000000 0.000000 0.000000
vn 1.000000 0.000000 0.000000
vn 1.000000 0.000000 0.000000
vn 1.000000 0.000000 0.000000
vn 1.000000 0.000000 0.000000
vn 1.000000 0.000000 0.000000
vn 0.428542 -0.894088 -0.130225
vn 0.428542 -0.894088 -0.130225
vn 0.428542 -0.894088 -0.130225
vn 0.428542 -0.894088 -0.130225
vn 0.365907 -0.177606 0.913547
vn 0.365907 -0.177606 0.913547
vn 0.365907 -0.177606 0.913547
vn 0.365907 -0.177606 0.913547
vn 0.478224 -0.070689 -0.875388
vn 0.478224 -0.070689 -0.875388
vn 0.478224 -0.070689 -0.875388
vn 0.478224 -0.070689 -0.875388
vn 0.410078 -0.096683 -0.906911
vn 0.410078 -0.096683 -0.906911
vn 0.410078 -0.096683 -0.906911
vn 0.410078 -0.096683 -0.906911
vn 0.589863 -0.686216 0.425640
vn 0.589863 -0.686216 0.425640
vn 0.589863 -0.686216 0.425640
vn 0.589863 -0.686216 0.425640
vn 0.482170 0.525949 -0.700635
vn 0.482170 0.525949 -0.700635
vn 0.482170 0.525949 -0.700635
vn 0.482170 0.525949 -0.700635
vn 0.381520 -0.830831 0.405171
vn 0.381520 -0.830831 0.405171
vn 0.381520 -0.830831 0.405171
vn 0.381520 -0.830831 0.405171
vn 0.394261 -0.261000 0.881157
vn 0.394260 -0.261000 0.881157
vn 0.394260 -0.261000 0.881157
vn 0.394260 -0.261000 0.881157
vn 0.406356 -0.678766 -0.611679
vn 0.406356 -0.678766 -0.611679
vn 0.406356 -0.678766 -0.611679
vn 0.406356 -0.678766 -0.611679
vn 0.000000 -1.000000 0.000000
vn 0.000000 -1.000000 0.000000
vn 0.000000 -1.000000 0.000000
vn 0.000000 -0.082996 0.996550
vn 0.000000 -0.082996 0.996550
vn 0.000000 -0.082996 0.996550
vn 0.000000 -0.082996 0.996550
vn 0.000000 -0.878807 0.477178
vn 0.000000 -0.878807 0.477178
vn 0.000000 -0.878807 0.477178
vn 0.000000 -0.878807 0.477178
vn -1.000000 -0.000000 0.000000
vn -1.000000 -0.000000 0.000000
vn -1.000000 -0.000000 0.000000
vn -1.000000 -0.000000 0.000000
vn -1.000000 -0.000000 0.000000
vn -1.000000 0.000000 0.000000
vn -1.000000 0.000000 0.000000
vn -1.000000 0.000000 0.000000
vn -1.000000 0.000000 0.000000
vn -1.000000 0.000000 0.000000
vn -1.000000 0.000000 0.000000
vn -1.000000 0.000000 0.000000
vn -1.000000 -0.000000 0.000000
vn -1.000000 -0.000000 0.000000
vn -1.000000 -0.000000 0.000000
vn -1.000000 -0.000000 0.000000
vn -1.000000 -0.000000 0.000000
vn -1.000000 -0.000000 0.000000
vn -1.000000 -0.000000 0.000000
vn -1.000000 -0.000000 0.000000
vn -1.000000 -0.000000 0.000000
vn -1.000000 -0.000000 0.000000
vn -1.000000 -0.000000 0.000000
vn -1.000000 0.000000 0.000000
vn -1.000000 0.000000 0.000000
vn -1.000000 0.000000 0.000000
vn -1.000000 0.000000 0.000000
vn -1.000000 0.000000 0.000000
vn -1.000000 0.000000 0.000000
vn 1.000000 0.000000 0.000000
vn 1.000000 0.000000 0.000000
vn 1.000000 0.000000 0.000000
vn -0.394261 -0.261000 0.881157
vn -0.394261 -0.261000 0.881157
vn -0.394261 -0.261000 0.881157
vn -0.394261 -0.261000 0.881157
vn -0.381520 -0.830831 0.405171
vn -0.381520 -0.830831 0.405171
vn -0.381520 -0.830830 0.405171
vn -0.381520 -0.830831 0.405171
vn -0.365907 -0.177606 0.913547
vn -0.365907 -0.177606 0.913547
vn -0.365907 -0.177606 0.913547
vn -0.365907 -0.177606 0.913547
vn -0.428542 -0.894088 -0.130225
vn -0.428542 -0.894088 -0.130225
vn -0.428542 -0.894088 -0.130225
vn -0.428542 -0.894088 -0.130225
vn -0.406356 -0.678766 -0.611679
vn -0.406356 -0.678766 -0.611679
vn -0.406356 -0.678766 -0.611679
vn -0.406356 -0.678766 -0.611679
vn -0.478224 -0.070689 -0.875388
vn -0.478224 -0.070689 -0.875388
vn -0.478224 -0.070689 -0.875388
vn -0.478224 -0.070689 -0.875388
vn -0.482170 0.525949 -0.700635
vn -0.482170 0.525949 -0.700635
vn -0.482170 0.525949 -0.700635
vn -0.482170 0.525949 -0.700635
vn -0.410078 -0.096683 -0.906911
vn -0.410078 -0.096683 -0.906911
vn -0.410078 -0.096683 -0.906911
vn -0.410078 -0.096683 -0.906911
vn 0.000000 0.000000 1.000000
vn 0.000000 0.000000 1.000000
vn 0.000000 0.000000 1.000000
vn 0.000000 0.000000 1.000000
vn 0.000000 -0.328248 0.944592
vn 0.000000 -0.328248 0.944592
vn 0.000000 -0.328248 0.944592
vn -0.589863 -0.686216 0.425640
vn -0.589863 -0.686216 0.425640
vn -0.589863 -0.686216 0.425640
vn -0.589863 -0.686216 0.425640
vn 0.000000 0.012156 -0.999926
vn 0.000000 0.012156 -0.999926
vn 0.000000 0.012156 -0.999926
vn 0.000000 0.012156 -0.999926
vn 0.000000 1.000000 0.000000
vn 0.000000 1.000000 0.000000
vn 0.000000 1.000000 0.000000
vn 0.000000 1.000000 0.000000
vn 0.000000 -1.000000 0.000000
vn 0.000000 -1.000000 0.000000
vn 0.000000 -1.000000 0.000000
vn 0.000000 -1.000000 0.000000
vn 0.000000 -1.000000 0.000000
vn 0.000000 -1.000000 0.000000
vn 1.000000 0.000000 0.000000
vn 1.000000 0.000000 0.000000
vn 1.000000 0.000000 0.000000
vn 1.000000 0.000000 0.000000
vn 0.000000 -1.000000 0.000000
vn 0.000000 -1.000000 0.000000
vn 0.000000 -1.000000 0.000000
vn 0.000000 -1.000000 0.000000
vn -1.000000 0.000000 0.000000
vn -1.000000 0.000000 0.000000
vn -1.000000 0.000000 0.000000
vn -1.000000 0.000000 0.000000
vn 0.000000 -0.864539 0.502566
vn 0.000000 -0.864539 0.502566
vn 0.000000 -0.864539 0.502566
vn 0.000000 -0.864539 0.502566
vn 1.000000 0.000000 0.000000
vn 1.000000 0.000000 0.000000
vn 1.000000 0.000000 0.000000
vn 1.000000 0.000000 0.000000
vn 0.000000 0.916999 -0.398889
vn 0.000000 0.916999 -0.398889
vn 0.000000 0.916999 -0.398889
vn 0.000000 0.916999 -0.398889
vn -1.000000 0.000000 0.000000
vn -1.000000 0.000000 0.000000
vn -1.000000 0.000000 0.000000
vn -1.000000 0.000000 0.000000
vn 0.000000 -0.646256 -0.763121
vn 0.000000 -0.646256 -0.763121
vn 0.000000 -0.646256 -0.763121
vn 0.000000 -0.646256 -0.763121
vn 0.000000 1.000000 0.000000
vn 0.000000 1.000000 0.000000
vn 0.000000 1.000000 0.000000
vn 0.000000 1.000000 0.000000
vn 0.000000 1.000000 0.000000
vn 0.000000 1.000000 0.000000
vn 0.000000 1.000000 0.000000
vn 0.000000 1.000000 0.000000
vn 0.000000 1.000000 -0.000000
vn 0.000000 1.000000 -0.000000
vn 0.000000 1.000000 -0.000000
vn 0.000000 1.000000 -0.000000
vn 0.000000 1.000000 0.000000
vn 0.000000 1.000000 0.000000
vn 0.000000 1.000000 0.000000
vn 0.000000 1.000000 0.000000
vn 0.000000 0.000000 -1.000000
vn 0.000000 0.000000 -1.000000
vn 0.000000 0.000000 -1.000000
vn 0.000000 0.000000 -1.000000
vn -1.000000 0.000000 0.000000
vn -1.000000 0.000000 0.000000
vn -1.000000 0.000000 0.000000
vn -1.000000 0.000000 0.000000
vn 0.000000 0.000000 1.000000
vn 0.000000 0.000000 1.000000
vn 0.000000 0.000000 1.000000
vn 0.000000 0.000000 1.000000
vn 1.000000 0.000000 0.000000
vn 1.000000 0.000000 0.000000
vn 1.000000 0.000000 0.000000
vn 1.000000 0.000000 0.000000
s off
f 1/1/1 2/2/2 8/3/3 7/4/4
f 2/2/5 3/5/6 9/6/7 8/3/8
f 3/5/9 4/7/10 10/8/11 9/6/12
f 4/7/13 5/9/14 11/10/15 10/8/16
f 5/9/17 6/11/18 12/12/19 11/10/20
f 6/11/21 1/13/22 7/14/23 12/12/24
f 2/15/25 1/16/26 13/17/27
f 3/18/28 2/15/29 13/17/30
f 4/19/31 3/18/32 13/17/33
f 5/20/34 4/19/35 13/17/36
f 6/21/37 5/20/38 13/17/39
f 1/16/40 6/21/41 13/17/42
f 7/22/43 8/23/44 14/24/45
f 8/23/46 9/25/47 14/24/48
f 9/25/49 10/26/50 14/24/51
f 10/26/52 11/27/53 14/24/54
f 11/27/55 12/28/56 14/24/57
f 12/28/58 7/22/59 14/24/60
f 15/29/61 16/30/62 22/31/63 21/32/64
f 16/30/65 17/33/66 23/34/67 22/31/68
f 17/33/69 18/35/70 24/36/71 23/34/72
f 18/35/73 19/37/74 25/38/75 24/36/76
f 19/37/77 20/39/78 26/40/79 25/38/80
f 20/39/81 15/41/82 21/42/83 26/40/84
f 16/43/85 15/44/86 27/45/87
f 17/46/88 16/43/89 27/45/90
f 18/47/91 17/46/92 27/45/93
f 19/48/94 18/47/95 27/45/96
f 20/49/97 19/48/98 27/45/99
f 15/44/100 20/49/101 27/45/102
f 21/50/103 22/51/104 28/52/105
f 22/51/106 23/53/107 28/52/108
f 23/53/109 24/54/110 28/52/111
f 24/54/112 25/55/113 28/52/114
f 25/55/115 26/56/116 28/52/117
f 26/56/118 21/50/119 28/52/120
f 37/57/121 30/58/122 34/59/123 35/60/124 29/61/125
f 33/62/126 32/63/127 31/64/128 38/65/129
f 35/60/130 34/59/131 36/66/132
f 36/66/133 34/59/134 32/63/135 33/62/136
f 39/67/137 31/68/138 40/69/139 41/70/140
f 33/62/141 38/65/142 42/71/143
f 39/67/144 43/72/145 38/73/146
f 37/57/147 29/61/148 63/74/149 64/75/150
f 29/61/151 35/60/152 62/76/153 63/74/154
f 34/59/155 30/58/156 65/77/157 66/78/158
f 31/64/159 32/63/160 67/79/161 68/80/162
f 59/81/163 60/82/164 33/62/165 42/83/166
f 32/63/167 34/59/168 66/78/169 67/79/170
f 35/60/171 36/66/172 61/84/173 62/76/174
f 36/66/175 33/62/176 60/82/177 61/84/178
f 30/58/179 37/57/180 64/75/181 65/77/182
f 40/85/183 68/86/184 53/87/185
f 42/83/186 38/88/187 57/89/188 56/90/189
f 38/88/190 43/91/191 58/92/192 57/89/193
f 46/93/194 48/94/195 47/95/196 45/96/197 44/97/198
f 50/98/199 49/99/200 51/100/201 57/101/202
f 46/93/203 52/102/204 48/94/205
f 49/99/206 48/94/207 52/102/208 51/100/209
f 54/103/210 55/104/211 53/105/212 50/106/213
f 57/107/214 54/103/215 50/106/216
f 54/103/217 57/108/218 58/109/219
f 56/110/220 57/101/221 51/100/222
f 39/67/223 38/73/224 31/68/225
f 61/84/226 60/82/227 51/100/228 52/102/229
f 62/76/230 61/84/231 52/102/232 46/93/233
f 63/74/234 62/76/235 46/93/236 44/97/237
f 64/75/238 63/74/239 44/97/240 45/96/241
f 65/77/242 64/75/243 45/96/244 47/95/245
f 66/78/246 65/77/247 47/95/248 48/94/249
f 67/79/250 66/78/251 48/94/252 49/99/253
f 68/80/254 67/79/255 49/99/256 50/98/257
f 54/103/258 58/111/259 43/112/260 39/113/261
f 59/81/262 42/83/263 56/110/264
f 59/81/265 56/110/266 51/100/267 60/82/268
f 70/114/269 69/115/270 71/116/271 72/117/272
f 82/118/273 81/119/274 83/120/275 84/121/276
f 40/85/277 31/122/278 68/86/279
f 53/87/280 68/86/281 50/123/282
f 73/124/283 75/125/284 41/70/285 40/85/286
f 73/124/287 74/126/288 76/127/289 75/125/290
f 55/104/291 76/127/292 74/126/293 53/105/294
f 40/85/295 53/105/296 74/126/297 73/124/298
f 41/70/299 75/125/300 69/115/301 70/114/302
f 55/104/303 41/70/304 70/114/305 72/117/306
f 76/127/307 55/104/308 72/117/309 71/116/310
f 75/125/311 76/127/312 71/116/313 69/115/314
f 41/70/315 55/104/316 77/128/317 78/129/318
f 55/104/319 54/103/320 79/130/321 77/128/322
f 54/103/323 39/67/324 80/131/325 79/130/326
f 39/67/327 41/70/328 78/129/329 80/131/330
f 78/132/331 77/133/332 81/119/333 82/118/334
f 77/133/335 79/134/336 83/120/337 81/119/338
f 79/134/339 80/135/340 84/121/341 83/120/342
f 80/135/343 78/132/344 82/118/345 84/121/346
