# This file uses centimeters as units for non-parametric coordinates.

v -1.277069 0.000000 1.550674
v 1.277069 0.000000 1.550674
v -1.277069 1.517796 1.550674
v 1.277069 1.517796 1.550674
v -1.277069 1.517796 -1.550674
v 1.277069 1.517796 -1.550674
v -1.277069 0.000000 -1.550674
v 1.277069 0.000000 -1.550674
v -0.767874 1.517796 1.550674
v 0.767874 1.517796 1.550674
v -0.767874 1.517796 -1.550674
v 0.767874 1.517796 -1.550674
v -0.767874 2.600296 -1.550674
v -0.767874 2.177593 1.550674
v 0.767874 2.177593 1.550674
v 0.767874 2.600296 -1.550674
v 0.767874 2.177593 0.675308
v 0.767874 2.600296 0.310135
v -0.767874 2.600296 0.310135
v -0.767874 2.177593 0.675308
v -0.767874 2.600296 -0.640701
v 0.767874 2.600296 -0.640701
v -0.767874 2.600296 -1.124680
v 0.767874 2.600296 -1.124680
v -0.137404 3.751801 -0.640701
v 0.137405 3.751801 -0.640701
v -0.137404 3.751801 -1.124680
v 0.137405 3.751801 -1.124680
v 0.246543 4.295097 -1.124680
v 0.767874 4.295097 -1.124680
v 0.246543 4.295097 -0.640701
v 0.767874 4.295097 -0.640701
v -0.246543 4.295097 -1.124680
v -0.246543 4.295097 -0.640701
v -0.767874 4.295097 -1.124680
v -0.767874 4.295097 -0.640701
vt 0.090428 0.231458
vt 0.090428 0.231458
vt 0.090428 0.231458
vt 0.090428 0.231458
vt 0.090428 0.231458
vt 0.090428 0.231458
vt 0.090428 0.231458
vt 0.090428 0.231458
vt 0.090428 0.231458
vt 0.090428 0.231458
vt 0.090428 0.231458
vt 0.090428 0.231458
vt 0.090428 0.231458
vt 0.090428 0.231458
vt 0.090428 0.231458
vt 0.090428 0.231458
vt 0.090428 0.231458
vt 0.090428 0.231458
vt 0.090428 0.231458
vt 0.090428 0.231458
vt 0.090428 0.231458
vt 0.090428 0.231458
vt 0.090428 0.231458
vt 0.090428 0.231458
vt 0.090428 0.231458
vt 0.090428 0.231458
vt 0.090428 0.231458
vt 0.090428 0.231458
vt 0.090428 0.231458
vt 0.090428 0.231458
vt 0.090428 0.231458
vt 0.090428 0.231458
vt 0.090428 0.231458
vt 0.090428 0.231458
vt 0.090428 0.231458
vt 0.090428 0.231458
vt 0.090428 0.231458
vt 0.090428 0.231458
vt 0.090428 0.231458
vt 0.090428 0.231458
vn 0.000000 0.000000 1.000000
vn 0.000000 0.000000 1.000000
vn 0.000000 0.000000 1.000000
vn 0.000000 1.000000 0.000000
vn 0.000000 1.000000 0.000000
vn 0.000000 1.000000 0.000000
vn 0.000000 1.000000 0.000000
vn 0.000000 0.000000 -1.000000
vn 0.000000 0.000000 -1.000000
vn 0.000000 0.000000 -1.000000
vn 1.000000 0.000000 0.000000
vn 1.000000 0.000000 0.000000
vn 1.000000 0.000000 0.000000
vn 1.000000 0.000000 0.000000
vn -1.000000 0.000000 0.000000
vn -1.000000 0.000000 0.000000
vn -1.000000 0.000000 0.000000
vn -1.000000 0.000000 0.000000
vn 0.000000 1.000000 0.000000
vn 0.000000 1.000000 0.000000
vn 0.000000 1.000000 0.000000
vn 0.000000 1.000000 0.000000
vn 0.000000 1.000000 0.000000
vn 0.000000 1.000000 0.000000
vn 0.000000 1.000000 0.000000
vn 0.000000 1.000000 0.000000
vn -1.000000 0.000000 0.000000
vn -1.000000 0.000000 0.000000
vn -1.000000 0.000000 0.000000
vn -1.000000 0.000000 0.000000
vn 0.000000 0.000000 1.000000
vn 0.000000 0.000000 1.000000
vn 0.000000 0.000000 1.000000
vn 0.000000 0.000000 1.000000
vn 1.000000 -0.000000 0.000000
vn 1.000000 -0.000000 0.000000
vn 1.000000 -0.000000 0.000000
vn 1.000000 -0.000000 0.000000
vn 1.000000 -0.000000 0.000000
vn 1.000000 -0.000000 0.000000
vn 0.000000 0.000000 -1.000000
vn 0.000000 0.000000 -1.000000
vn 0.000000 0.000000 -1.000000
vn 0.000000 0.000000 -1.000000
vn 0.000000 1.000000 0.000000
vn 0.000000 1.000000 0.000000
vn 0.000000 1.000000 0.000000
vn 0.000000 1.000000 0.000000
vn 0.000000 0.653735 0.756724
vn 0.000000 0.653735 0.756724
vn 0.000000 0.653735 0.756724
vn 0.000000 0.653735 0.756724
vn 1.000000 0.000000 0.000000
vn 1.000000 0.000000 0.000000
vn 1.000000 0.000000 0.000000
vn 1.000000 0.000000 0.000000
vn -1.000000 0.000000 0.000000
vn -1.000000 0.000000 0.000000
vn -1.000000 0.000000 0.000000
vn -1.000000 0.000000 0.000000
vn -1.000000 0.000000 0.000000
vn -1.000000 0.000000 0.000000
vn 0.000000 1.000000 0.000000
vn 0.000000 1.000000 0.000000
vn 0.000000 1.000000 0.000000
vn 0.000000 1.000000 0.000000
vn 0.000000 1.000000 0.000000
vn 0.000000 1.000000 0.000000
vn 0.000000 1.000000 0.000000
vn 0.000000 1.000000 0.000000
vn 0.000000 0.000000 -1.000000
vn 0.000000 0.000000 -1.000000
vn 0.000000 0.000000 -1.000000
vn 0.000000 0.000000 -1.000000
vn 0.000000 0.000000 1.000000
vn 0.000000 0.000000 1.000000
vn 0.000000 0.000000 1.000000
vn 0.000000 0.000000 1.000000
vn 0.000000 1.000000 0.000000
vn 0.000000 1.000000 0.000000
vn 0.000000 1.000000 0.000000
vn 0.000000 1.000000 0.000000
vn 0.000000 1.000000 0.000000
vn 0.000000 1.000000 0.000000
vn 0.000000 1.000000 0.000000
vn 0.000000 1.000000 0.000000
vn 0.000000 0.000000 -1.000000
vn 0.000000 0.000000 -1.000000
vn 0.000000 0.000000 -1.000000
vn 0.000000 0.000000 -1.000000
vn -0.980414 0.196948 0.000000
vn -0.980414 0.196948 0.000000
vn -0.980414 0.196948 0.000000
vn -0.980414 0.196948 0.000000
vn 0.000000 0.000000 1.000000
vn 0.000000 0.000000 1.000000
vn 0.000000 0.000000 1.000000
vn 0.000000 0.000000 1.000000
vn 1.000000 0.000000 0.000000
vn 1.000000 0.000000 0.000000
vn 1.000000 0.000000 0.000000
vn 1.000000 0.000000 0.000000
vn 0.980414 0.196948 0.000000
vn 0.980414 0.196948 0.000000
vn 0.980414 0.196948 0.000000
vn 0.980414 0.196948 0.000000
vn -0.000000 0.000000 -1.000000
vn -0.000000 0.000000 -1.000000
vn -0.000000 0.000000 -1.000000
vn -0.000000 0.000000 -1.000000
vn -1.000000 0.000000 0.000000
vn -1.000000 0.000000 0.000000
vn -1.000000 0.000000 0.000000
vn -1.000000 0.000000 0.000000
vn 0.000000 0.000000 1.000000
vn 0.000000 0.000000 1.000000
vn 0.000000 0.000000 1.000000
vn 0.000000 0.000000 1.000000
vn 0.000000 0.000000 -1.000000
vn 0.000000 0.000000 -1.000000
vn 0.000000 0.000000 -1.000000
vn 0.000000 0.000000 -1.000000
vn 0.000000 0.000000 -1.000000
vn 0.000000 0.000000 -1.000000
vn 0.000000 0.000000 -1.000000
vn 0.000000 0.000000 1.000000
vn 0.000000 0.000000 1.000000
vn 0.000000 0.000000 1.000000
vn 0.000000 0.000000 1.000000
vn 0.000000 0.000000 1.000000
vn 0.000000 0.000000 1.000000
vn 0.000000 0.000000 1.000000
s off
f 1/1/1 9/2/2 3/3/3
f 17/4/4 20/5/5 14/6/6 15/7/7
f 8/8/8 12/9/9 6/10/10
f 2/11/11 8/12/12 6/13/13 4/14/14
f 7/15/15 1/1/16 3/3/17 5/16/18
f 12/9/19 10/17/20 4/14/21 6/10/22
f 3/3/23 9/2/24 11/18/25 5/19/26
f 11/18/27 9/2/28 14/6/29 20/5/30
f 9/2/31 10/17/32 15/7/33 14/6/34
f 17/4/35 12/9/36 16/20/37 24/21/38 22/22/39 18/23/40
f 12/9/41 11/18/42 13/24/43 16/20/44
f 13/24/45 23/25/46 24/21/47 16/20/48
f 18/23/49 19/26/50 20/5/51 17/4/52
f 10/17/53 12/9/54 17/4/55 15/7/56
f 11/18/57 20/5/58 19/26/59 21/27/60 23/25/61 13/24/62
f 22/22/63 21/27/64 19/26/65 18/23/66
f 26/28/67 28/29/68 27/30/69 25/31/70
f 24/21/71 23/25/72 27/30/73 28/29/74
f 21/27/75 22/22/76 26/28/77 25/31/78
f 30/32/79 29/33/80 31/34/81 32/35/82
f 34/36/83 33/37/84 35/38/85 36/39/86
f 24/21/87 28/29/88 29/33/89 30/32/90
f 28/29/91 26/28/92 31/34/93 29/33/94
f 26/28/95 22/22/96 32/35/97 31/34/98
f 22/22/99 24/21/100 30/32/101 32/35/102
f 25/31/103 27/30/104 33/37/105 34/36/106
f 27/30/107 23/25/108 35/38/109 33/37/110
f 23/25/111 21/27/112 36/39/113 35/38/114
f 21/27/115 25/31/116 34/36/117 36/39/118
f 5/19/119 11/18/120 7/40/121
f 7/40/122 11/18/123 12/9/124 8/8/125
f 10/17/126 2/11/127 4/14/128
f 1/1/129 2/11/130 10/17/131 9/2/132
