# This file uses centimeters as units for non-parametric coordinates.

v 0.571011 -0.989024 0.000000
v 1.142025 -0.000003 0.000000
v 0.571011 0.989018 0.000000
v -0.571011 0.989018 0.000000
v -1.142025 -0.000003 0.000000
v -0.571011 -0.989024 0.000000
v 0.571014 -0.989024 9.173128
v 1.142029 -0.000003 9.173132
v 0.571014 0.989018 9.173128
v -0.571014 0.989018 9.173124
v -1.142029 -0.000003 9.173124
v -0.571014 -0.989024 9.173128
v 0.392319 -0.679515 9.173128
v 0.784622 -0.000003 9.173128
v 0.000000 -0.000003 7.837511
v 0.392319 0.679505 9.173128
v -0.392319 0.679505 9.173128
v -0.784622 -0.000003 9.173124
v -0.392319 -0.679515 9.173128
vt 0.091010 0.228930
vt 0.091010 0.228930
vt 0.091010 0.228930
vt 0.091010 0.228930
vt 0.091010 0.228930
vt 0.091010 0.228930
vt 0.091010 0.228930
vt 0.091010 0.228930
vt 0.091010 0.228930
vt 0.091010 0.228930
vt 0.091010 0.228930
vt 0.091010 0.228930
vt 0.091010 0.228930
vt 0.091010 0.228930
vt 0.091010 0.228930
vt 0.091010 0.228930
vt 0.091010 0.228930
vt 0.091010 0.228930
vt 0.091010 0.228930
vt 0.091010 0.228930
vt 0.008957 0.009182
vt 0.008957 0.009182
vt 0.008957 0.009182
vt 0.008957 0.009182
vt 0.008957 0.009182
vt 0.008957 0.009182
vt 0.008957 0.009182
vt 0.091010 0.228930
vt 0.091010 0.228930
vt 0.091010 0.228930
vt 0.091010 0.228930
vt 0.091010 0.228930
vt 0.091010 0.228930
vt 0.091010 0.228930
vt 0.091010 0.228930
vt 0.091010 0.228930
vt 0.091010 0.228930
vt 0.091010 0.228930
vt 0.091010 0.228930
vn 0.866024 -0.500002 -0.000000
vn 0.866024 -0.500002 -0.000000
vn 0.866024 -0.500002 -0.000000
vn 0.866024 -0.500002 -0.000000
vn 0.866024 0.500002 -0.000000
vn 0.866024 0.500002 -0.000000
vn 0.866024 0.500002 -0.000000
vn 0.866024 0.500002 -0.000000
vn 0.000000 1.000000 0.000000
vn 0.000000 1.000000 0.000000
vn 0.000000 1.000000 0.000000
vn 0.000000 1.000000 0.000000
vn -0.866024 0.500002 -0.000000
vn -0.866024 0.500002 -0.000000
vn -0.866024 0.500002 -0.000000
vn -0.866024 0.500002 -0.000000
vn -0.866024 -0.500002 -0.000000
vn -0.866024 -0.500002 -0.000000
vn -0.866024 -0.500002 -0.000000
vn -0.866024 -0.500002 -0.000000
vn 0.000000 -1.000000 0.000000
vn 0.000000 -1.000000 0.000000
vn 0.000000 -1.000000 0.000000
vn 0.000000 -1.000000 0.000000
vn -0.771880 0.445630 0.453449
vn -0.771880 0.445630 0.453449
vn -0.771880 0.445630 0.453449
vn -0.771879 -0.445632 0.453448
vn -0.771879 -0.445632 0.453448
vn -0.771879 -0.445632 0.453448
vn 0.000000 -0.891282 0.453449
vn 0.000000 -0.891282 0.453449
vn 0.000000 -0.891282 0.453449
vn 0.771877 -0.445634 0.453449
vn 0.771877 -0.445634 0.453449
vn 0.771877 -0.445634 0.453449
vn 0.771878 0.445632 0.453449
vn 0.771878 0.445632 0.453449
vn 0.771878 0.445632 0.453449
vn 0.000000 0.891281 0.453451
vn 0.000000 0.891281 0.453451
vn 0.000000 0.891281 0.453451
vn -0.000006 0.000001 1.000000
vn -0.000006 0.000001 1.000000
vn -0.000006 0.000001 1.000000
vn -0.000006 0.000001 1.000000
vn -0.000006 -0.000001 1.000000
vn -0.000006 -0.000001 1.000000
vn -0.000006 -0.000001 1.000000
vn -0.000006 -0.000001 1.000000
vn -0.000002 0.000006 1.000000
vn -0.000002 0.000006 1.000000
vn -0.000002 0.000006 1.000000
vn -0.000002 0.000006 1.000000
vn -0.000006 0.000001 1.000000
vn -0.000006 0.000001 1.000000
vn -0.000006 0.000001 1.000000
vn -0.000006 0.000001 1.000000
vn -0.000003 0.000003 1.000000
vn -0.000003 0.000003 1.000000
vn -0.000003 0.000003 1.000000
vn -0.000003 0.000003 1.000000
vn 0.000000 0.000000 1.000000
vn 0.000000 0.000000 1.000000
vn 0.000000 0.000000 1.000000
vn 0.000000 0.000000 1.000000
vn 0.000000 0.000000 -1.000000
vn 0.000000 0.000000 -1.000000
vn 0.000000 0.000000 -1.000000
vn 0.000000 0.000000 -1.000000
vn 0.000000 0.000000 -1.000000
vn 0.000000 0.000000 -1.000000
vn 0.000000 0.000000 -1.000000
vn 0.000000 0.000000 -1.000000
s off
f 1/1/1 2/2/2 8/3/3 7/4/4
f 2/2/5 3/5/6 9/6/7 8/3/8
f 3/7/9 4/8/10 10/9/11 9/10/12
f 4/11/13 5/12/14 11/13/15 10/14/16
f 5/12/17 6/15/18 12/16/19 11/13/20
f 6/17/21 1/18/22 7/19/23 12/20/24
f 13/21/25 14/22/26 15/23/27
f 14/22/28 16/24/29 15/23/30
f 16/24/31 17/25/32 15/23/33
f 17/25/34 18/26/35 15/23/36
f 18/26/37 19/27/38 15/23/39
f 19/27/40 13/21/41 15/23/42
f 7/28/43 8/29/44 14/30/45 13/31/46
f 8/29/47 9/32/48 16/33/49 14/30/50
f 9/32/51 10/34/52 17/35/53 16/33/54
f 10/34/55 11/36/56 18/37/57 17/35/58
f 11/36/59 12/38/60 19/39/61 18/37/62
f 12/38/63 7/28/64 13/31/65 19/39/66
f 2/2/67 5/12/68 4/8/69 3/5/70
f 2/2/71 1/18/72 6/15/73 5/12/74
